<?xml version="1.0" encoding="UTF-8"?>
<!DOCTYPE svg PUBLIC "-//W3C//DTD SVG 1.1//EN" "http://www.w3.org/Graphics/SVG/1.1/DTD/svg11.dtd">
<svg xmlns="http://www.w3.org/2000/svg" version="1.1" width="256px" height="256px" style="shape-rendering:geometricPrecision; text-rendering:geometricPrecision; image-rendering:optimizeQuality; fill-rule:evenodd; clip-rule:evenodd" xmlns:xlink="http://www.w3.org/1999/xlink">
<g><path style="opacity:1" fill="#dbd5d4" d="M 220.5,40.5 C 217.562,38.0882 214.229,36.2549 210.5,35C 155.596,34.8311 100.763,34.3311 46,33.5C 42.0352,34.9441 38.2019,36.6108 34.5,38.5C 36.4006,36.2043 38.7339,34.371 41.5,33C 98.5,32.3333 155.5,32.3333 212.5,33C 216.279,34.3768 218.946,36.8768 220.5,40.5 Z"/></g>
<g><path style="opacity:1" fill="#f8efef" d="M 220.5,40.5 C 221.167,40.5 221.5,40.8333 221.5,41.5C 221.892,43.1789 222.392,44.8455 223,46.5C 223.667,86.1667 223.667,125.833 223,165.5C 222.187,167.436 221.687,169.436 221.5,171.5C 218.467,173.016 215.8,175.016 213.5,177.5C 210.655,177.766 208.322,178.766 206.5,180.5C 189.163,180.333 171.83,180.5 154.5,181C 150.614,182.965 147.281,185.631 144.5,189C 143.255,189.791 141.922,190.291 140.5,190.5C 138.217,190.608 136.217,191.441 134.5,193C 123.586,202.273 111.919,210.273 99.5,217C 98.7476,217.671 98.4142,218.504 98.5,219.5C 94.0189,220.648 89.3522,220.815 84.5,220C 83.944,219.617 83.6107,219.117 83.5,218.5C 82.1725,215.217 80.8391,211.884 79.5,208.5C 78.8333,199.009 78.1666,189.675 77.5,180.5C 65.4954,180.667 53.4954,180.5 41.5,180C 40.4293,179.148 39.4293,178.315 38.5,177.5C 37.6044,174.931 35.9377,172.931 33.5,171.5C 32.3906,169.615 31.5573,167.615 31,165.5C 30.3333,125.833 30.3333,86.1667 31,46.5C 31.6077,44.8455 32.1077,43.1789 32.5,41.5C 33.1667,40.5 33.8333,39.5 34.5,38.5C 38.2019,36.6108 42.0352,34.9441 46,33.5C 100.763,34.3311 155.596,34.8311 210.5,35C 214.229,36.2549 217.562,38.0882 220.5,40.5 Z"/></g>
<g><path style="opacity:1" fill="#2bf2d8" d="M 151.5,50.5 C 151.5,50.1667 151.5,49.8333 151.5,49.5C 156.833,49.5 162.167,49.5 167.5,49.5C 167.5,49.8333 167.5,50.1667 167.5,50.5C 164.61,51.8989 163.11,54.2323 163,57.5C 160.289,58.5882 158.789,60.5882 158.5,63.5C 157.5,63.5 156.5,63.5 155.5,63.5C 157.429,59.5405 159.429,55.5405 161.5,51.5C 158.914,50.52 156.247,50.1866 153.5,50.5C 152.833,50.5 152.167,50.5 151.5,50.5 Z"/></g>
<g><path style="opacity:0.951" fill="#d8d0cd" d="M 32.5,41.5 C 32.1077,43.1789 31.6077,44.8455 31,46.5C 30.3333,86.1667 30.3333,125.833 31,165.5C 31.5573,167.615 32.3906,169.615 33.5,171.5C 35.9377,172.931 37.6044,174.931 38.5,177.5C 33.9008,175.6 30.7341,172.266 29,167.5C 28.3333,126.833 28.3333,86.1667 29,45.5C 29.66,43.6763 30.8267,42.343 32.5,41.5 Z"/></g>
<g><path style="opacity:1" fill="#fecd01" d="M 80.5,50.5 C 80.8333,50.5 81.1667,50.5 81.5,50.5C 82.5,50.5 83.5,50.5 84.5,50.5C 82.1358,55.9091 78.8025,60.5757 74.5,64.5C 74.1667,64.5 73.8333,64.5 73.5,64.5C 73.5,63.8333 73.1667,63.5 72.5,63.5C 75.9079,59.5896 78.5746,55.2563 80.5,50.5 Z"/></g>
<g><path style="opacity:1" fill="#02fe64" d="M 139.5,50.5 C 142.247,50.1866 144.914,50.52 147.5,51.5C 144.833,55.1667 142.167,58.8333 139.5,62.5C 138.675,63.3857 137.675,63.719 136.5,63.5C 135.5,63.5 134.5,63.5 133.5,63.5C 136.336,59.8227 139.003,55.9893 141.5,52C 140.584,51.7216 139.918,51.2216 139.5,50.5 Z"/></g>
<g><path style="opacity:1" fill="#02f9fa" d="M 167.5,50.5 C 168.978,50.238 170.311,50.5713 171.5,51.5C 168.169,55.4911 164.836,59.4911 161.5,63.5C 160.5,63.5 159.5,63.5 158.5,63.5C 158.789,60.5882 160.289,58.5882 163,57.5C 163.11,54.2323 164.61,51.8989 167.5,50.5 Z"/></g>
<g><path style="opacity:1" fill="#f28b2e" d="M 47.5,50.5 C 58.6544,49.5052 69.9877,49.1719 81.5,49.5C 81.5,49.8333 81.5,50.1667 81.5,50.5C 81.1667,50.5 80.8333,50.5 80.5,50.5C 73.8214,51.824 69.1547,55.824 66.5,62.5C 68.396,63.4656 70.396,63.7989 72.5,63.5C 73.1667,63.5 73.5,63.8333 73.5,64.5C 66.1667,64.5 58.8333,64.5 51.5,64.5C 54.6248,63.5206 57.9581,63.1872 61.5,63.5C 62.9078,59.0259 64.5745,54.6926 66.5,50.5C 60.1667,50.5 53.8333,50.5 47.5,50.5 Z"/></g>
<g><path style="opacity:1" fill="#0355fe" d="M 199.5,50.5 C 195.679,54.6087 192.012,58.9421 188.5,63.5C 186.167,63.5 183.833,63.5 181.5,63.5C 184.464,59.09 187.798,54.9234 191.5,51C 194.146,50.5026 196.813,50.3359 199.5,50.5 Z"/></g>
<g><path style="opacity:1" fill="#feae00" d="M 80.5,50.5 C 78.5746,55.2563 75.9079,59.5896 72.5,63.5C 70.396,63.7989 68.396,63.4656 66.5,62.5C 69.1547,55.824 73.8214,51.824 80.5,50.5 Z"/></g>
<g><path style="opacity:1" fill="#1e05fe" d="M 206.5,67.5 C 204.132,69.8428 201.965,72.5095 200,75.5C 199.824,71.3123 199.324,67.3123 198.5,63.5C 196.5,63.5 194.5,63.5 192.5,63.5C 195.285,59.5421 198.285,55.7088 201.5,52C 203.134,51.5065 204.801,51.3398 206.5,51.5C 206.5,56.8333 206.5,62.1667 206.5,67.5 Z"/></g>
<g><path style="opacity:1" fill="#04fec5" d="M 153.5,50.5 C 156.247,50.1866 158.914,50.52 161.5,51.5C 159.429,55.5405 157.429,59.5405 155.5,63.5C 152.5,63.5 149.5,63.5 146.5,63.5C 148.783,60.0437 151.283,56.7104 154,53.5C 154.47,52.4232 154.303,51.4232 153.5,50.5 Z"/></g>
<g><path style="opacity:1" fill="#19dbfa" d="M 167.5,50.5 C 167.5,50.1667 167.5,49.8333 167.5,49.5C 171.5,49.5 175.5,49.5 179.5,49.5C 174.801,53.8738 170.801,58.8738 167.5,64.5C 167.167,64.5 166.833,64.5 166.5,64.5C 165.081,63.5489 163.415,63.2155 161.5,63.5C 164.836,59.4911 168.169,55.4911 171.5,51.5C 170.311,50.5713 168.978,50.238 167.5,50.5 Z"/></g>
<g><path style="opacity:1" fill="#207bf8" d="M 187.5,49.5 C 194.022,49.1765 200.355,49.5098 206.5,50.5C 204.167,50.5 201.833,50.5 199.5,50.5C 196.813,50.3359 194.146,50.5026 191.5,51C 187.798,54.9234 184.464,59.09 181.5,63.5C 180.127,63.6567 178.793,63.49 177.5,63C 181.077,58.9343 184.411,54.7676 187.5,50.5C 187.5,50.1667 187.5,49.8333 187.5,49.5 Z"/></g>
<g><path style="opacity:1" fill="#fc3d06" d="M 47.5,50.5 C 53.8333,50.5 60.1667,50.5 66.5,50.5C 64.5745,54.6926 62.9078,59.0259 61.5,63.5C 57.9581,63.1872 54.6248,63.5206 51.5,64.5C 51.0106,67.9861 49.844,71.3194 48,74.5C 47.8171,71.6353 47.3171,68.9686 46.5,66.5C 46.1786,60.9738 46.5119,55.6405 47.5,50.5 Z"/></g>
<g><path style="opacity:1" fill="#b4fe00" d="M 98.5,50.5 C 102.5,50.5 106.5,50.5 110.5,50.5C 105.142,53.527 101.142,57.8603 98.5,63.5C 95.1016,63.8204 91.7683,63.487 88.5,62.5C 91.8414,58.4691 95.1747,54.4691 98.5,50.5 Z"/></g>
<g><path style="opacity:1" fill="#2a2ef8" d="M 199.5,50.5 C 201.833,50.5 204.167,50.5 206.5,50.5C 207.493,58.6499 207.826,66.9832 207.5,75.5C 207.167,75.5 206.833,75.5 206.5,75.5C 206.5,72.8333 206.5,70.1667 206.5,67.5C 206.5,62.1667 206.5,56.8333 206.5,51.5C 204.801,51.3398 203.134,51.5065 201.5,52C 198.285,55.7088 195.285,59.5421 192.5,63.5C 191.167,63.5 189.833,63.5 188.5,63.5C 192.012,58.9421 195.679,54.6087 199.5,50.5 Z"/></g>
<g><path style="opacity:1" fill="#4dec7a" d="M 81.5,50.5 C 81.5,50.1667 81.5,49.8333 81.5,49.5C 104.833,49.5 128.167,49.5 151.5,49.5C 151.5,49.8333 151.5,50.1667 151.5,50.5C 149.3,54.88 146.467,58.88 143,62.5C 142.517,63.448 142.351,64.448 142.5,65.5C 140.61,65.2965 139.11,65.9632 138,67.5C 137.768,66.2625 137.268,65.2625 136.5,64.5C 136.5,64.1667 136.5,63.8333 136.5,63.5C 137.675,63.719 138.675,63.3857 139.5,62.5C 142.167,58.8333 144.833,55.1667 147.5,51.5C 144.914,50.52 142.247,50.1866 139.5,50.5C 129.833,50.5 120.167,50.5 110.5,50.5C 106.5,50.5 102.5,50.5 98.5,50.5C 95.8333,50.5 93.1667,50.5 90.5,50.5C 88.5,50.5 86.5,50.5 84.5,50.5C 83.5,50.5 82.5,50.5 81.5,50.5 Z"/></g>
<g><path style="opacity:1" fill="#3597f6" d="M 187.5,50.5 C 184.411,54.7676 181.077,58.9343 177.5,63C 178.793,63.49 180.127,63.6567 181.5,63.5C 183.833,63.5 186.167,63.5 188.5,63.5C 189.833,63.5 191.167,63.5 192.5,63.5C 194.5,63.5 196.5,63.5 198.5,63.5C 198.5,63.8333 198.5,64.1667 198.5,64.5C 190.833,64.5 183.167,64.5 175.5,64.5C 175.5,66.5 175.5,68.5 175.5,70.5C 174.698,69.0484 174.198,67.3817 174,65.5C 171.742,68.1941 169.576,70.8607 167.5,73.5C 167.5,71.8333 167.5,70.1667 167.5,68.5C 169.437,67.4097 171.27,66.0764 173,64.5C 175.863,60.3124 178.697,56.1457 181.5,52C 183.345,50.872 185.345,50.372 187.5,50.5 Z"/></g>
<g><path style="opacity:1" fill="#15affb" d="M 179.5,49.5 C 182.167,49.5 184.833,49.5 187.5,49.5C 187.5,49.8333 187.5,50.1667 187.5,50.5C 185.345,50.372 183.345,50.872 181.5,52C 178.697,56.1457 175.863,60.3124 173,64.5C 171.27,66.0764 169.437,67.4097 167.5,68.5C 167.5,67.1667 167.5,65.8333 167.5,64.5C 170.801,58.8738 174.801,53.8738 179.5,49.5 Z"/></g>
<g><path style="opacity:1" fill="#fee801" d="M 84.5,50.5 C 86.5,50.5 88.5,50.5 90.5,50.5C 85.9171,56.9226 80.7504,62.9226 75,68.5C 74.51,67.2068 74.3433,65.8734 74.5,64.5C 78.8025,60.5757 82.1358,55.9091 84.5,50.5 Z"/></g>
<g><path style="opacity:1" fill="#f9f0ee" d="M 51.5,64.5 C 58.8333,64.5 66.1667,64.5 73.5,64.5C 73.5,71.8333 73.5,79.1667 73.5,86.5C 66.1667,86.5 58.8333,86.5 51.5,86.5C 51.5,79.1667 51.5,71.8333 51.5,64.5 Z"/></g>
<g><path style="opacity:1" fill="#f7f1ee" d="M 82.5,64.5 C 89.8333,64.5 97.1667,64.5 104.5,64.5C 104.5,71.8333 104.5,79.1667 104.5,86.5C 97.1667,86.5 89.8333,86.5 82.5,86.5C 82.5,79.1667 82.5,71.8333 82.5,64.5 Z"/></g>
<g><path style="opacity:1" fill="#f4eeec" d="M 136.5,64.5 C 136.5,68.8333 136.5,73.1667 136.5,77.5C 136.5,80.5 136.5,83.5 136.5,86.5C 129.167,86.5 121.833,86.5 114.5,86.5C 114.5,79.1667 114.5,71.8333 114.5,64.5C 121.833,64.5 129.167,64.5 136.5,64.5 Z"/></g>
<g><path style="opacity:1" fill="#f5efef" d="M 166.5,64.5 C 166.833,64.5 167.167,64.5 167.5,64.5C 167.5,65.8333 167.5,67.1667 167.5,68.5C 167.5,70.1667 167.5,71.8333 167.5,73.5C 167.5,75.5 167.5,77.5 167.5,79.5C 167.5,81.8333 167.5,84.1667 167.5,86.5C 163.833,86.5 160.167,86.5 156.5,86.5C 152.833,86.5 149.167,86.5 145.5,86.5C 145.5,79.1667 145.5,71.8333 145.5,64.5C 152.5,64.5 159.5,64.5 166.5,64.5 Z"/></g>
<g><path style="opacity:1" fill="#0bfca2" d="M 151.5,50.5 C 152.167,50.5 152.833,50.5 153.5,50.5C 154.303,51.4232 154.47,52.4232 154,53.5C 151.283,56.7104 148.783,60.0437 146.5,63.5C 144.612,65.9878 143.945,68.9878 144.5,72.5C 142.35,74.7596 140.183,77.0929 138,79.5C 137.722,78.5842 137.222,77.9175 136.5,77.5C 136.5,73.1667 136.5,68.8333 136.5,64.5C 137.268,65.2625 137.768,66.2625 138,67.5C 139.11,65.9632 140.61,65.2965 142.5,65.5C 142.351,64.448 142.517,63.448 143,62.5C 146.467,58.88 149.3,54.88 151.5,50.5 Z"/></g>
<g><path style="opacity:1" fill="#e7f929" d="M 90.5,50.5 C 93.1667,50.5 95.8333,50.5 98.5,50.5C 95.1747,54.4691 91.8414,58.4691 88.5,62.5C 91.7683,63.487 95.1016,63.8204 98.5,63.5C 100.735,63.2053 102.735,63.5386 104.5,64.5C 97.1667,64.5 89.8333,64.5 82.5,64.5C 81.5233,67.2869 81.19,70.2869 81.5,73.5C 78.0637,77.3753 75.397,81.7086 73.5,86.5C 73.5,79.1667 73.5,71.8333 73.5,64.5C 73.8333,64.5 74.1667,64.5 74.5,64.5C 74.3433,65.8734 74.51,67.2068 75,68.5C 80.7504,62.9226 85.9171,56.9226 90.5,50.5 Z"/></g>
<g><path style="opacity:1" fill="#96e3d8" d="M 146.5,63.5 C 149.5,63.5 152.5,63.5 155.5,63.5C 156.5,63.5 157.5,63.5 158.5,63.5C 159.5,63.5 160.5,63.5 161.5,63.5C 163.415,63.2155 165.081,63.5489 166.5,64.5C 159.5,64.5 152.5,64.5 145.5,64.5C 145.5,71.8333 145.5,79.1667 145.5,86.5C 145.167,86.5 144.833,86.5 144.5,86.5C 144.5,83.8333 144.5,81.1667 144.5,78.5C 144.5,76.5 144.5,74.5 144.5,72.5C 143.945,68.9878 144.612,65.9878 146.5,63.5 Z"/></g>
<g><path style="opacity:1" fill="#177ffa" d="M 175.5,70.5 C 175.5,73.5 175.5,76.5 175.5,79.5C 174.683,77.0314 174.183,74.3647 174,71.5C 171.59,74.0654 169.424,76.7321 167.5,79.5C 167.5,77.5 167.5,75.5 167.5,73.5C 169.576,70.8607 171.742,68.1941 174,65.5C 174.198,67.3817 174.698,69.0484 175.5,70.5 Z"/></g>
<g><path style="opacity:1" fill="#ee7e26" d="M 51.5,64.5 C 51.5,71.8333 51.5,79.1667 51.5,86.5C 50.6981,85.0484 50.1981,83.3817 50,81.5C 48.9609,82.7101 47.7942,83.7101 46.5,84.5C 46.5,78.5 46.5,72.5 46.5,66.5C 47.3171,68.9686 47.8171,71.6353 48,74.5C 49.844,71.3194 51.0106,67.9861 51.5,64.5 Z"/></g>
<g><path style="opacity:1" fill="#145bfb" d="M 175.5,79.5 C 175.5,81.8333 175.5,84.1667 175.5,86.5C 174.691,84.7078 174.191,82.7078 174,80.5C 171.917,82.756 169.75,84.756 167.5,86.5C 167.5,84.1667 167.5,81.8333 167.5,79.5C 169.424,76.7321 171.59,74.0654 174,71.5C 174.183,74.3647 174.683,77.0314 175.5,79.5 Z"/></g>
<g><path style="opacity:1" fill="#78d790" d="M 133.5,63.5 C 134.5,63.5 135.5,63.5 136.5,63.5C 136.5,63.8333 136.5,64.1667 136.5,64.5C 129.167,64.5 121.833,64.5 114.5,64.5C 114.5,71.8333 114.5,79.1667 114.5,86.5C 121.833,86.5 129.167,86.5 136.5,86.5C 134.052,87.4731 131.385,87.8064 128.5,87.5C 125.833,87.5 123.167,87.5 120.5,87.5C 118.5,87.5 116.5,87.5 114.5,87.5C 113.508,79.6841 113.174,71.6841 113.5,63.5C 120.167,63.5 126.833,63.5 133.5,63.5 Z"/></g>
<g><path style="opacity:1" fill="#0bf9f2" d="M 144.5,78.5 C 144.5,81.1667 144.5,83.8333 144.5,86.5C 143.207,88.2959 141.707,89.9625 140,91.5C 139.517,92.448 139.351,93.448 139.5,94.5C 138.209,94.2627 137.209,94.596 136.5,95.5C 134.5,95.5 132.5,95.5 130.5,95.5C 130.5,98.5 130.5,101.5 130.5,104.5C 129.279,105.028 128.113,105.695 127,106.5C 126.33,109.174 125.163,111.507 123.5,113.5C 123.5,109.167 123.5,104.833 123.5,100.5C 126.943,97.8869 129.943,94.7202 132.5,91C 134.848,90.6541 136.681,89.4875 138,87.5C 139.654,84.0303 141.821,81.0303 144.5,78.5 Z"/></g>
<g><path style="opacity:1" fill="#c8c2d8" d="M 198.5,64.5 C 198.5,71.8333 198.5,79.1667 198.5,86.5C 190.833,86.5 183.167,86.5 175.5,86.5C 175.5,84.1667 175.5,81.8333 175.5,79.5C 175.5,76.5 175.5,73.5 175.5,70.5C 175.5,68.5 175.5,66.5 175.5,64.5C 183.167,64.5 190.833,64.5 198.5,64.5 Z"/></g>
<g><path style="opacity:1" fill="#faf2f2" d="M 177.5,65.5 C 184.167,65.5 190.833,65.5 197.5,65.5C 197.5,72.1667 197.5,78.8333 197.5,85.5C 190.833,85.5 184.167,85.5 177.5,85.5C 177.5,78.8333 177.5,72.1667 177.5,65.5 Z"/></g>
<g><path style="opacity:1" fill="#81ce4b" d="M 82.5,64.5 C 82.5,71.8333 82.5,79.1667 82.5,86.5C 89.8333,86.5 97.1667,86.5 104.5,86.5C 98.3554,87.4902 92.0221,87.8235 85.5,87.5C 84.1667,87.5 82.8333,87.5 81.5,87.5C 81.5,86.5 81.5,85.5 81.5,84.5C 81.5,80.8333 81.5,77.1667 81.5,73.5C 81.19,70.2869 81.5233,67.2869 82.5,64.5 Z"/></g>
<g><path style="opacity:1" fill="#eccd1f" d="M 51.5,86.5 C 58.8333,86.5 66.1667,86.5 73.5,86.5C 73.5,87.1667 73.1667,87.5 72.5,87.5C 71.1667,87.5 69.8333,87.5 68.5,87.5C 67.1667,87.5 65.8333,87.5 64.5,87.5C 61.7531,87.1866 59.0865,87.52 56.5,88.5C 53.8076,91.6919 51.3076,95.0252 49,98.5C 47.9914,100.025 47.4914,101.692 47.5,103.5C 47.1667,103.5 46.8333,103.5 46.5,103.5C 46.5,100.5 46.5,97.5 46.5,94.5C 47.1174,94.6107 47.6174,94.944 48,95.5C 49.0608,92.4384 50.8941,89.9384 53.5,88C 52.5842,87.7216 51.9175,87.2216 51.5,86.5 Z"/></g>
<g><path style="opacity:1" fill="#388eeb" d="M 156.5,86.5 C 160.167,86.5 163.833,86.5 167.5,86.5C 167.5,86.8333 167.5,87.1667 167.5,87.5C 162.777,86.5531 158.944,87.8864 156,91.5C 154.71,95.7305 154.21,100.064 154.5,104.5C 154.5,108.833 154.5,113.167 154.5,117.5C 154.167,117.5 153.833,117.5 153.5,117.5C 153.5,110.5 153.5,103.5 153.5,96.5C 151.735,95.5386 149.735,95.2053 147.5,95.5C 147.082,94.7784 146.416,94.2784 145.5,94C 148.333,89.955 152,87.455 156.5,86.5 Z"/></g>
<g><path style="opacity:1" fill="#faad0f" d="M 51.5,86.5 C 51.9175,87.2216 52.5842,87.7216 53.5,88C 50.8941,89.9384 49.0608,92.4384 48,95.5C 47.6174,94.944 47.1174,94.6107 46.5,94.5C 46.5,91.1667 46.5,87.8333 46.5,84.5C 47.7942,83.7101 48.9609,82.7101 50,81.5C 50.1981,83.3817 50.6981,85.0484 51.5,86.5 Z"/></g>
<g><path style="opacity:1" fill="#2d2ef4" d="M 175.5,86.5 C 183.167,86.5 190.833,86.5 198.5,86.5C 190.725,88.0524 182.725,88.8857 174.5,89C 173.335,90.9917 172.002,92.825 170.5,94.5C 168.143,94.6633 165.81,94.4966 163.5,94C 165.085,91.9307 166.419,89.764 167.5,87.5C 167.5,87.1667 167.5,86.8333 167.5,86.5C 169.75,84.756 171.917,82.756 174,80.5C 174.191,82.7078 174.691,84.7078 175.5,86.5 Z"/></g>
<g><path style="opacity:1" fill="#6d07fd" d="M 198.5,63.5 C 199.324,67.3123 199.824,71.3123 200,75.5C 201.965,72.5095 204.132,69.8428 206.5,67.5C 206.5,70.1667 206.5,72.8333 206.5,75.5C 206.5,78.1667 206.5,80.8333 206.5,83.5C 204.284,84.2026 202.451,85.5359 201,87.5C 196.618,93.5067 192.285,99.5067 188,105.5C 187.329,106.252 186.496,106.586 185.5,106.5C 185.815,102.629 185.482,98.9619 184.5,95.5C 180.03,94.5139 175.363,94.1805 170.5,94.5C 172.002,92.825 173.335,90.9917 174.5,89C 182.725,88.8857 190.725,88.0524 198.5,86.5C 198.5,79.1667 198.5,71.8333 198.5,64.5C 198.5,64.1667 198.5,63.8333 198.5,63.5 Z"/></g>
<g><path style="opacity:1" fill="#7dfe00" d="M 81.5,84.5 C 81.5,85.5 81.5,86.5 81.5,87.5C 82.8333,87.5 84.1667,87.5 85.5,87.5C 84.1944,89.8162 82.8611,92.1495 81.5,94.5C 78.8127,94.6641 76.146,94.4974 73.5,94C 75.9442,90.62 78.6109,87.4533 81.5,84.5 Z"/></g>
<g><path style="opacity:1" fill="#19f56d" d="M 114.5,87.5 C 116.5,87.5 118.5,87.5 120.5,87.5C 121.303,88.4232 121.47,89.4232 121,90.5C 118.724,91.7619 116.891,93.4286 115.5,95.5C 110.305,95.1795 105.305,95.5128 100.5,96.5C 100.167,96.5 99.8333,96.5 99.5,96.5C 103.424,94.8766 107.757,93.8766 112.5,93.5C 113.128,91.7419 114.128,90.2419 115.5,89C 114.944,88.6174 114.611,88.1174 114.5,87.5 Z"/></g>
<g><path style="opacity:1" fill="#23c2f0" d="M 144.5,86.5 C 144.833,86.5 145.167,86.5 145.5,86.5C 149.167,86.5 152.833,86.5 156.5,86.5C 152,87.455 148.333,89.955 145.5,94C 146.416,94.2784 147.082,94.7784 147.5,95.5C 143.833,95.5 140.167,95.5 136.5,95.5C 137.209,94.596 138.209,94.2627 139.5,94.5C 139.351,93.448 139.517,92.448 140,91.5C 141.707,89.9625 143.207,88.2959 144.5,86.5 Z"/></g>
<g><path style="opacity:0.992" fill="#14f8a6" d="M 120.5,87.5 C 123.167,87.5 125.833,87.5 128.5,87.5C 128.611,88.1174 128.944,88.6174 129.5,89C 127.841,91.8437 125.841,94.3437 123.5,96.5C 121.052,95.5269 118.385,95.1936 115.5,95.5C 116.891,93.4286 118.724,91.7619 121,90.5C 121.47,89.4232 121.303,88.4232 120.5,87.5 Z"/></g>
<g><path style="opacity:1" fill="#adda9e" d="M 69.5,96.5 C 76.6476,95.5084 83.9809,95.175 91.5,95.5C 91.5,103.167 91.5,110.833 91.5,118.5C 89.1667,118.5 86.8333,118.5 84.5,118.5C 79.5,118.5 74.5,118.5 69.5,118.5C 69.5,118.167 69.5,117.833 69.5,117.5C 76.5,117.5 83.5,117.5 90.5,117.5C 90.5,110.5 90.5,103.5 90.5,96.5C 83.5,96.5 76.5,96.5 69.5,96.5 Z"/></g>
<g><path style="opacity:1" fill="#f9f2f0" d="M 69.5,96.5 C 76.5,96.5 83.5,96.5 90.5,96.5C 90.5,103.5 90.5,110.5 90.5,117.5C 83.5,117.5 76.5,117.5 69.5,117.5C 69.5,110.5 69.5,103.5 69.5,96.5 Z"/></g>
<g><path style="opacity:1" fill="#08fcd2" d="M 144.5,72.5 C 144.5,74.5 144.5,76.5 144.5,78.5C 141.821,81.0303 139.654,84.0303 138,87.5C 136.681,89.4875 134.848,90.6541 132.5,91C 129.943,94.7202 126.943,97.8869 123.5,100.5C 123.5,99.1667 123.5,97.8333 123.5,96.5C 125.841,94.3437 127.841,91.8437 129.5,89C 128.944,88.6174 128.611,88.1174 128.5,87.5C 131.385,87.8064 134.052,87.4731 136.5,86.5C 136.5,83.5 136.5,80.5 136.5,77.5C 137.222,77.9175 137.722,78.5842 138,79.5C 140.183,77.0929 142.35,74.7596 144.5,72.5 Z"/></g>
<g><path style="opacity:1" fill="#f7f0f1" d="M 153.5,96.5 C 153.5,103.5 153.5,110.5 153.5,117.5C 146.167,117.5 138.833,117.5 131.5,117.5C 131.5,110.5 131.5,103.5 131.5,96.5C 138.833,96.5 146.167,96.5 153.5,96.5 Z"/></g>
<g><path style="opacity:1" fill="#185af8" d="M 167.5,87.5 C 166.419,89.764 165.085,91.9307 163.5,94C 165.81,94.4966 168.143,94.6633 170.5,94.5C 175.363,94.1805 180.03,94.5139 184.5,95.5C 177.167,95.5 169.833,95.5 162.5,95.5C 162.5,98.8333 162.5,102.167 162.5,105.5C 162.377,94.4748 159.711,94.1415 154.5,104.5C 154.21,100.064 154.71,95.7305 156,91.5C 158.944,87.8864 162.777,86.5531 167.5,87.5 Z"/></g>
<g><path style="opacity:1" fill="#e3fc06" d="M 64.5,87.5 C 65.8333,87.5 67.1667,87.5 68.5,87.5C 61.8508,96.4869 55.1841,105.487 48.5,114.5C 47.5481,116.045 47.2148,117.712 47.5,119.5C 47.5,120.5 47.5,121.5 47.5,122.5C 47.1667,122.5 46.8333,122.5 46.5,122.5C 46.5,116.167 46.5,109.833 46.5,103.5C 46.8333,103.5 47.1667,103.5 47.5,103.5C 47.3433,104.873 47.51,106.207 48,107.5C 53.2904,100.539 58.7904,93.8723 64.5,87.5 Z"/></g>
<g><path style="opacity:1" fill="#2afc22" d="M 110.5,50.5 C 120.167,50.5 129.833,50.5 139.5,50.5C 139.918,51.2216 140.584,51.7216 141.5,52C 139.003,55.9893 136.336,59.8227 133.5,63.5C 126.833,63.5 120.167,63.5 113.5,63.5C 113.174,71.6841 113.508,79.6841 114.5,87.5C 114.611,88.1174 114.944,88.6174 115.5,89C 114.128,90.2419 113.128,91.7419 112.5,93.5C 107.757,93.8766 103.424,94.8766 99.5,96.5C 99.5,99.5 99.5,102.5 99.5,105.5C 97.9543,107.897 95.9543,109.897 93.5,111.5C 92.8332,106.015 92.1665,100.681 91.5,95.5C 88.3752,94.5206 85.0419,94.1872 81.5,94.5C 82.8611,92.1495 84.1944,89.8162 85.5,87.5C 92.0221,87.8235 98.3554,87.4902 104.5,86.5C 104.5,79.1667 104.5,71.8333 104.5,64.5C 102.735,63.5386 100.735,63.2053 98.5,63.5C 101.142,57.8603 105.142,53.527 110.5,50.5 Z"/></g>
<g><path style="opacity:1" fill="#fdf300" d="M 64.5,87.5 C 58.7904,93.8723 53.2904,100.539 48,107.5C 47.51,106.207 47.3433,104.873 47.5,103.5C 47.4914,101.692 47.9914,100.025 49,98.5C 51.3076,95.0252 53.8076,91.6919 56.5,88.5C 59.0865,87.52 61.7531,87.1866 64.5,87.5 Z"/></g>
<g><path style="opacity:1" fill="#e0d8d5" d="M 221.5,41.5 C 223.173,42.343 224.34,43.6763 225,45.5C 225.667,86.1667 225.667,126.833 225,167.5C 224.943,169.91 223.776,171.244 221.5,171.5C 221.687,169.436 222.187,167.436 223,165.5C 223.667,125.833 223.667,86.1667 223,46.5C 222.392,44.8455 221.892,43.1789 221.5,41.5 Z"/></g>
<g><path style="opacity:1" fill="#c5fe00" d="M 68.5,87.5 C 69.8333,87.5 71.1667,87.5 72.5,87.5C 64.9233,98.7451 56.5899,109.412 47.5,119.5C 47.2148,117.712 47.5481,116.045 48.5,114.5C 55.1841,105.487 61.8508,96.4869 68.5,87.5 Z"/></g>
<g><path style="opacity:1" fill="#a9dcca" d="M 115.5,95.5 C 118.385,95.1936 121.052,95.5269 123.5,96.5C 123.5,97.8333 123.5,99.1667 123.5,100.5C 123.5,104.833 123.5,109.167 123.5,113.5C 123.5,114.167 123.5,114.833 123.5,115.5C 123.5,116.167 123.5,116.833 123.5,117.5C 123.167,117.5 122.833,117.5 122.5,117.5C 120.393,118.468 118.059,118.802 115.5,118.5C 112.167,118.5 108.833,118.5 105.5,118.5C 103.833,118.5 102.167,118.5 100.5,118.5C 100.5,111.167 100.5,103.833 100.5,96.5C 105.305,95.5128 110.305,95.1795 115.5,95.5 Z"/></g>
<g><path style="opacity:1" fill="#f9f2f2" d="M 122.5,117.5 C 115.5,117.5 108.5,117.5 101.5,117.5C 101.5,110.5 101.5,103.5 101.5,96.5C 108.5,96.5 115.5,96.5 122.5,96.5C 122.5,103.5 122.5,110.5 122.5,117.5 Z"/></g>
<g><path style="opacity:1" fill="#a000fe" d="M 206.5,83.5 C 206.87,89.2492 204.37,93.2492 199,95.5C 195.815,102.023 191.815,108.023 187,113.5C 186.617,112.944 186.117,112.611 185.5,112.5C 185.5,110.5 185.5,108.5 185.5,106.5C 186.496,106.586 187.329,106.252 188,105.5C 192.285,99.5067 196.618,93.5067 201,87.5C 202.451,85.5359 204.284,84.2026 206.5,83.5 Z"/></g>
<g><path style="opacity:1" fill="#a9fc1c" d="M 81.5,73.5 C 81.5,77.1667 81.5,80.8333 81.5,84.5C 78.6109,87.4533 75.9442,90.62 73.5,94C 76.146,94.4974 78.8127,94.6641 81.5,94.5C 85.0419,94.1872 88.3752,94.5206 91.5,95.5C 83.9809,95.175 76.6476,95.5084 69.5,96.5C 69.5,103.5 69.5,110.5 69.5,117.5C 69.5,117.833 69.5,118.167 69.5,118.5C 68.5489,117.081 68.2155,115.415 68.5,113.5C 68.8226,109.774 68.4892,106.107 67.5,102.5C 64.8645,106.798 61.8645,110.798 58.5,114.5C 54.2449,116.919 50.7449,120.252 48,124.5C 47.5357,123.906 47.369,123.239 47.5,122.5C 47.5,121.5 47.5,120.5 47.5,119.5C 56.5899,109.412 64.9233,98.7451 72.5,87.5C 73.1667,87.5 73.5,87.1667 73.5,86.5C 75.397,81.7086 78.0637,77.3753 81.5,73.5 Z"/></g>
<g><path style="opacity:1" fill="#01e3fe" d="M 130.5,104.5 C 130.5,106.167 130.5,107.833 130.5,109.5C 127.527,110.81 125.193,112.81 123.5,115.5C 123.5,114.833 123.5,114.167 123.5,113.5C 125.163,111.507 126.33,109.174 127,106.5C 128.113,105.695 129.279,105.028 130.5,104.5 Z"/></g>
<g><path style="opacity:1" fill="#e600fe" d="M 206.5,95.5 C 206.708,97.9201 206.374,100.253 205.5,102.5C 200.265,109.413 194.598,116.079 188.5,122.5C 187.051,123.172 185.718,123.839 184.5,124.5C 183.5,124.5 182.5,124.5 181.5,124.5C 181.5,124.167 181.5,123.833 181.5,123.5C 186.57,120.926 190.07,116.926 192,111.5C 197.084,106.283 201.917,100.949 206.5,95.5 Z"/></g>
<g><path style="opacity:1" fill="#84cada" d="M 136.5,95.5 C 140.167,95.5 143.833,95.5 147.5,95.5C 149.735,95.2053 151.735,95.5386 153.5,96.5C 146.167,96.5 138.833,96.5 131.5,96.5C 131.5,103.5 131.5,110.5 131.5,117.5C 130.596,116.791 130.263,115.791 130.5,114.5C 130.5,112.833 130.5,111.167 130.5,109.5C 130.5,107.833 130.5,106.167 130.5,104.5C 130.5,101.5 130.5,98.5 130.5,95.5C 132.5,95.5 134.5,95.5 136.5,95.5 Z"/></g>
<g><path style="opacity:1" fill="#c407fc" d="M 206.5,75.5 C 206.833,75.5 207.167,75.5 207.5,75.5C 207.5,81.8333 207.5,88.1667 207.5,94.5C 206.833,94.5 206.5,94.8333 206.5,95.5C 201.917,100.949 197.084,106.283 192,111.5C 190.07,116.926 186.57,120.926 181.5,123.5C 182.028,122.279 182.695,121.113 183.5,120C 181.618,119.802 179.952,119.302 178.5,118.5C 180.735,118.795 182.735,118.461 184.5,117.5C 185.451,116.081 185.784,114.415 185.5,112.5C 186.117,112.611 186.617,112.944 187,113.5C 191.815,108.023 195.815,102.023 199,95.5C 204.37,93.2492 206.87,89.2492 206.5,83.5C 206.5,80.8333 206.5,78.1667 206.5,75.5 Z"/></g>
<g><path style="opacity:1" fill="#54aaf0" d="M 130.5,114.5 C 130.263,115.791 130.596,116.791 131.5,117.5C 138.833,117.5 146.167,117.5 153.5,117.5C 151.052,118.473 148.385,118.806 145.5,118.5C 142.167,118.5 138.833,118.5 135.5,118.5C 130.428,117.922 128.095,119.922 128.5,124.5C 127.167,124.5 125.833,124.5 124.5,124.5C 125.223,120.435 127.223,117.101 130.5,114.5 Z"/></g>
<g><path style="opacity:1" fill="#f906f7" d="M 207.5,94.5 C 207.5,98.5 207.5,102.5 207.5,106.5C 206.596,107.209 206.263,108.209 206.5,109.5C 201.93,114.313 197.597,119.313 193.5,124.5C 190.5,124.5 187.5,124.5 184.5,124.5C 185.718,123.839 187.051,123.172 188.5,122.5C 194.598,116.079 200.265,109.413 205.5,102.5C 206.374,100.253 206.708,97.9201 206.5,95.5C 206.5,94.8333 206.833,94.5 207.5,94.5 Z"/></g>
<g><path style="opacity:1" fill="#b191dc" d="M 184.5,95.5 C 185.482,98.9619 185.815,102.629 185.5,106.5C 185.5,108.5 185.5,110.5 185.5,112.5C 185.784,114.415 185.451,116.081 184.5,117.5C 182.735,118.461 180.735,118.795 178.5,118.5C 173.167,118.5 167.833,118.5 162.5,118.5C 162.5,114.167 162.5,109.833 162.5,105.5C 162.5,102.167 162.5,98.8333 162.5,95.5C 169.833,95.5 177.167,95.5 184.5,95.5 Z"/></g>
<g><path style="opacity:1" fill="#f9f1f2" d="M 184.5,117.5 C 177.5,117.5 170.5,117.5 163.5,117.5C 163.5,110.5 163.5,103.5 163.5,96.5C 170.5,96.5 177.5,96.5 184.5,96.5C 184.5,103.5 184.5,110.5 184.5,117.5 Z"/></g>
<g><path style="opacity:1" fill="#81f228" d="M 58.5,114.5 C 57.3559,117.447 55.6893,120.113 53.5,122.5C 53.8627,123.183 54.1961,123.85 54.5,124.5C 53.5,124.5 52.5,124.5 51.5,124.5C 51.5,131.833 51.5,139.167 51.5,146.5C 50.6728,141.015 50.1728,135.348 50,129.5C 49.0853,130.328 48.4186,131.328 48,132.5C 47.5002,142.161 47.3335,151.828 47.5,161.5C 46.5045,148.677 46.1712,135.677 46.5,122.5C 46.8333,122.5 47.1667,122.5 47.5,122.5C 47.369,123.239 47.5357,123.906 48,124.5C 50.7449,120.252 54.2449,116.919 58.5,114.5 Z"/></g>
<g><path style="opacity:1" fill="#13f657" d="M 91.5,95.5 C 92.1665,100.681 92.8332,106.015 93.5,111.5C 95.9543,109.897 97.9543,107.897 99.5,105.5C 99.5,107.5 99.5,109.5 99.5,111.5C 97.0184,114.429 94.5184,117.429 92,120.5C 91.5172,121.448 91.3505,122.448 91.5,123.5C 89.2646,123.205 87.2646,123.539 85.5,124.5C 84.5,124.5 83.5,124.5 82.5,124.5C 82.1667,124.5 81.8333,124.5 81.5,124.5C 83.7813,123.686 85.7813,122.352 87.5,120.5C 86.3984,119.824 85.3984,119.158 84.5,118.5C 86.8333,118.5 89.1667,118.5 91.5,118.5C 91.5,110.833 91.5,103.167 91.5,95.5 Z"/></g>
<g><path style="opacity:1" fill="#09fe7e" d="M 99.5,111.5 C 99.2229,114.448 99.5562,117.281 100.5,120C 98.3587,122.633 95.6921,124.133 92.5,124.5C 90.1667,124.5 87.8333,124.5 85.5,124.5C 87.2646,123.539 89.2646,123.205 91.5,123.5C 91.3505,122.448 91.5172,121.448 92,120.5C 94.5184,117.429 97.0184,114.429 99.5,111.5 Z"/></g>
<g><path style="opacity:1" fill="#12e6fc" d="M 122.5,117.5 C 122.833,117.5 123.167,117.5 123.5,117.5C 122.083,119.844 120.75,122.177 119.5,124.5C 119.167,124.5 118.833,124.5 118.5,124.5C 116.5,124.5 114.5,124.5 112.5,124.5C 112.975,122.216 113.975,120.216 115.5,118.5C 118.059,118.802 120.393,118.468 122.5,117.5 Z"/></g>
<g><path style="opacity:1" fill="#07c8fe" d="M 130.5,109.5 C 130.5,111.167 130.5,112.833 130.5,114.5C 127.223,117.101 125.223,120.435 124.5,124.5C 122.833,124.5 121.167,124.5 119.5,124.5C 120.75,122.177 122.083,119.844 123.5,117.5C 123.5,116.833 123.5,116.167 123.5,115.5C 125.193,112.81 127.527,110.81 130.5,109.5 Z"/></g>
<g><path style="opacity:1" fill="#fe03d7" d="M 206.5,109.5 C 206.66,111.199 206.494,112.866 206,114.5C 203.248,117.684 200.748,121.018 198.5,124.5C 196.833,124.5 195.167,124.5 193.5,124.5C 197.597,119.313 201.93,114.313 206.5,109.5 Z"/></g>
<g><path style="opacity:1" fill="#fa0fbb" d="M 207.5,106.5 C 207.5,109.833 207.5,113.167 207.5,116.5C 207.014,119.527 205.68,122.193 203.5,124.5C 201.833,124.5 200.167,124.5 198.5,124.5C 200.748,121.018 203.248,117.684 206,114.5C 206.494,112.866 206.66,111.199 206.5,109.5C 206.263,108.209 206.596,107.209 207.5,106.5 Z"/></g>
<g><path style="opacity:1" fill="#74fe04" d="M 68.5,113.5 C 65.8977,114.932 63.7311,116.932 62,119.5C 61.3603,121.265 61.5269,122.932 62.5,124.5C 59.8333,124.5 57.1667,124.5 54.5,124.5C 54.1961,123.85 53.8627,123.183 53.5,122.5C 55.6893,120.113 57.3559,117.447 58.5,114.5C 61.8645,110.798 64.8645,106.798 67.5,102.5C 68.4892,106.107 68.8226,109.774 68.5,113.5 Z"/></g>
<g><path style="opacity:1" fill="#0e8bfd" d="M 135.5,118.5 C 135.297,120.044 134.63,121.378 133.5,122.5C 133.863,123.183 134.196,123.85 134.5,124.5C 132.5,124.5 130.5,124.5 128.5,124.5C 128.095,119.922 130.428,117.922 135.5,118.5 Z"/></g>
<g><path style="opacity:1" fill="#38f09f" d="M 99.5,96.5 C 99.8333,96.5 100.167,96.5 100.5,96.5C 100.5,103.833 100.5,111.167 100.5,118.5C 102.167,118.5 103.833,118.5 105.5,118.5C 105.343,121.318 104.009,123.318 101.5,124.5C 98.5,124.5 95.5,124.5 92.5,124.5C 95.6921,124.133 98.3587,122.633 100.5,120C 99.5562,117.281 99.2229,114.448 99.5,111.5C 99.5,109.5 99.5,107.5 99.5,105.5C 99.5,102.5 99.5,99.5 99.5,96.5 Z"/></g>
<g><path style="opacity:1" fill="#2a1bfd" d="M 162.5,105.5 C 162.5,109.833 162.5,114.167 162.5,118.5C 164.969,119.317 167.635,119.817 170.5,120C 169.5,121 168.5,122 167.5,123C 164.635,123.183 161.969,123.683 159.5,124.5C 154.833,124.5 150.167,124.5 145.5,124.5C 144.119,122.726 144.452,121.226 146.5,120C 149.675,120.053 152.342,119.22 154.5,117.5C 154.5,113.167 154.5,108.833 154.5,104.5C 159.711,94.1415 162.377,94.4748 162.5,105.5 Z"/></g>
<g><path style="opacity:1" fill="#13fde2" d="M 105.5,118.5 C 108.833,118.5 112.167,118.5 115.5,118.5C 113.975,120.216 112.975,122.216 112.5,124.5C 108.833,124.5 105.167,124.5 101.5,124.5C 104.009,123.318 105.343,121.318 105.5,118.5 Z"/></g>
<g><path style="opacity:1" fill="#1666fc" d="M 135.5,118.5 C 138.833,118.5 142.167,118.5 145.5,118.5C 143.782,119.224 141.948,119.891 140,120.5C 139.516,122.193 140.016,123.527 141.5,124.5C 139.167,124.5 136.833,124.5 134.5,124.5C 134.196,123.85 133.863,123.183 133.5,122.5C 134.63,121.378 135.297,120.044 135.5,118.5 Z"/></g>
<g><path style="opacity:1" fill="#1444fc" d="M 153.5,117.5 C 153.833,117.5 154.167,117.5 154.5,117.5C 152.342,119.22 149.675,120.053 146.5,120C 144.452,121.226 144.119,122.726 145.5,124.5C 144.167,124.5 142.833,124.5 141.5,124.5C 140.016,123.527 139.516,122.193 140,120.5C 141.948,119.891 143.782,119.224 145.5,118.5C 148.385,118.806 151.052,118.473 153.5,117.5 Z"/></g>
<g><path style="opacity:1" fill="#21fe24" d="M 68.5,113.5 C 68.2155,115.415 68.5489,117.081 69.5,118.5C 74.5,118.5 79.5,118.5 84.5,118.5C 85.3984,119.158 86.3984,119.824 87.5,120.5C 85.7813,122.352 83.7813,123.686 81.5,124.5C 81.5,125.833 81.5,127.167 81.5,128.5C 79.5227,130.814 77.5227,133.147 75.5,135.5C 74.8302,133.709 74.1635,132.042 73.5,130.5C 73.5,128.5 73.5,126.5 73.5,124.5C 69.8333,124.5 66.1667,124.5 62.5,124.5C 61.5269,122.932 61.3603,121.265 62,119.5C 63.7311,116.932 65.8977,114.932 68.5,113.5 Z"/></g>
<g><path style="opacity:1" fill="#f9f2f2" d="M 82.5,124.5 C 83.5,124.5 84.5,124.5 85.5,124.5C 87.8333,124.5 90.1667,124.5 92.5,124.5C 95.5,124.5 98.5,124.5 101.5,124.5C 105.167,124.5 108.833,124.5 112.5,124.5C 114.5,124.5 116.5,124.5 118.5,124.5C 135.659,125.497 152.992,125.83 170.5,125.5C 170.5,132.167 170.5,138.833 170.5,145.5C 146.661,145.169 122.994,145.502 99.5,146.5C 93.8333,146.5 88.1667,146.5 82.5,146.5C 82.5,139.167 82.5,131.833 82.5,124.5 Z"/></g>
<g><path style="opacity:0.893" fill="#e4b1d3" d="M 180.5,124.5 C 180.833,124.5 181.167,124.5 181.5,124.5C 182.5,124.5 183.5,124.5 184.5,124.5C 187.5,124.5 190.5,124.5 193.5,124.5C 195.167,124.5 196.833,124.5 198.5,124.5C 200.167,124.5 201.833,124.5 203.5,124.5C 203.5,127.167 203.5,129.833 203.5,132.5C 203.819,137.363 203.486,142.03 202.5,146.5C 202.5,139.5 202.5,132.5 202.5,125.5C 195.5,125.5 188.5,125.5 181.5,125.5C 181.5,132.5 181.5,139.5 181.5,146.5C 180.662,146.158 180.328,145.492 180.5,144.5C 180.5,137.833 180.5,131.167 180.5,124.5 Z"/></g>
<g><path style="opacity:1" fill="#f4eced" d="M 202.5,146.5 C 200.393,147.468 198.059,147.802 195.5,147.5C 194.5,147.5 193.5,147.5 192.5,147.5C 189.167,147.5 185.833,147.5 182.5,147.5C 181.833,147.5 181.5,147.167 181.5,146.5C 181.5,139.5 181.5,132.5 181.5,125.5C 188.5,125.5 195.5,125.5 202.5,125.5C 202.5,132.5 202.5,139.5 202.5,146.5 Z"/></g>
<g><path style="opacity:1" fill="#a505fd" d="M 162.5,118.5 C 167.833,118.5 173.167,118.5 178.5,118.5C 179.952,119.302 181.618,119.802 183.5,120C 182.695,121.113 182.028,122.279 181.5,123.5C 181.5,123.833 181.5,124.167 181.5,124.5C 181.167,124.5 180.833,124.5 180.5,124.5C 179.662,124.842 179.328,125.508 179.5,126.5C 177.504,128.609 175.171,130.276 172.5,131.5C 172.5,129.167 172.5,126.833 172.5,124.5C 168.167,124.5 163.833,124.5 159.5,124.5C 161.969,123.683 164.635,123.183 167.5,123C 168.5,122 169.5,121 170.5,120C 167.635,119.817 164.969,119.317 162.5,118.5 Z"/></g>
<g><path style="opacity:1" fill="#f6178c" d="M 207.5,116.5 C 207.5,121.167 207.5,125.833 207.5,130.5C 206.778,130.082 206.278,129.416 206,128.5C 205.392,130.066 204.558,131.4 203.5,132.5C 203.5,129.833 203.5,127.167 203.5,124.5C 205.68,122.193 207.014,119.527 207.5,116.5 Z"/></g>
<g><path style="opacity:1" fill="#d400ff" d="M 179.5,126.5 C 179.5,129.167 179.5,131.833 179.5,134.5C 176.939,136.64 174.605,138.973 172.5,141.5C 172.5,138.167 172.5,134.833 172.5,131.5C 175.171,130.276 177.504,128.609 179.5,126.5 Z"/></g>
<g><path style="opacity:1" fill="#0afe6d" d="M 81.5,128.5 C 81.5,132.5 81.5,136.5 81.5,140.5C 79.1773,142.322 77.0107,144.322 75,146.5C 74.8138,143.964 74.3138,141.631 73.5,139.5C 73.5,136.5 73.5,133.5 73.5,130.5C 74.1635,132.042 74.8302,133.709 75.5,135.5C 77.5227,133.147 79.5227,130.814 81.5,128.5 Z"/></g>
<g><path style="opacity:1" fill="#c9eec7" d="M 54.5,124.5 C 57.1667,124.5 59.8333,124.5 62.5,124.5C 66.1667,124.5 69.8333,124.5 73.5,124.5C 73.5,126.5 73.5,128.5 73.5,130.5C 73.5,133.5 73.5,136.5 73.5,139.5C 73.5,141.833 73.5,144.167 73.5,146.5C 66.1667,146.5 58.8333,146.5 51.5,146.5C 51.5,139.167 51.5,131.833 51.5,124.5C 52.5,124.5 53.5,124.5 54.5,124.5 Z"/></g>
<g><path style="opacity:1" fill="#faf3f2" d="M 52.5,125.5 C 59.1667,125.5 65.8333,125.5 72.5,125.5C 72.5,132.167 72.5,138.833 72.5,145.5C 65.8333,145.5 59.1667,145.5 52.5,145.5C 52.5,138.833 52.5,132.167 52.5,125.5 Z"/></g>
<g><path style="opacity:1" fill="#debce2" d="M 118.5,124.5 C 118.833,124.5 119.167,124.5 119.5,124.5C 121.167,124.5 122.833,124.5 124.5,124.5C 125.833,124.5 127.167,124.5 128.5,124.5C 130.5,124.5 132.5,124.5 134.5,124.5C 136.833,124.5 139.167,124.5 141.5,124.5C 142.833,124.5 144.167,124.5 145.5,124.5C 150.167,124.5 154.833,124.5 159.5,124.5C 163.833,124.5 168.167,124.5 172.5,124.5C 172.5,126.833 172.5,129.167 172.5,131.5C 172.5,134.833 172.5,138.167 172.5,141.5C 172.5,143.167 172.5,144.833 172.5,146.5C 155.5,146.5 138.5,146.5 121.5,146.5C 115.833,146.5 110.167,146.5 104.5,146.5C 102.833,146.5 101.167,146.5 99.5,146.5C 122.994,145.502 146.661,145.169 170.5,145.5C 170.5,138.833 170.5,132.167 170.5,125.5C 152.992,125.83 135.659,125.497 118.5,124.5 Z"/></g>
<g><path style="opacity:1" fill="#17fb8c" d="M 73.5,139.5 C 74.3138,141.631 74.8138,143.964 75,146.5C 77.0107,144.322 79.1773,142.322 81.5,140.5C 81.6621,142.527 81.4955,144.527 81,146.5C 78.4932,148.189 76.9932,150.522 76.5,153.5C 74.31,155.856 72.31,158.356 70.5,161C 68.6183,161.198 66.9516,161.698 65.5,162.5C 62.8333,162.5 60.1667,162.5 57.5,162.5C 59.3691,161.835 61.3691,161.169 63.5,160.5C 66.993,156.502 70.3263,152.335 73.5,148C 70.5184,147.502 67.5184,147.335 64.5,147.5C 59.9677,147.818 55.6344,147.485 51.5,146.5C 58.8333,146.5 66.1667,146.5 73.5,146.5C 73.5,144.167 73.5,141.833 73.5,139.5 Z"/></g>
<g><path style="opacity:1" fill="#0081ff" d="M 113.5,147.5 C 109.252,152.996 105.252,158.663 101.5,164.5C 100.148,165.524 98.8149,166.524 97.5,167.5C 97.3433,166.127 97.51,164.793 98,163.5C 103.032,159.101 107.365,154.101 111,148.5C 111.671,147.748 112.504,147.414 113.5,147.5 Z"/></g>
<g><path style="opacity:1" fill="#07fc5c" d="M 64.5,147.5 C 67.5184,147.335 70.5184,147.502 73.5,148C 70.3263,152.335 66.993,156.502 63.5,160.5C 61.3691,161.169 59.3691,161.835 57.5,162.5C 53.9581,162.813 50.6248,162.479 47.5,161.5C 51.5443,162.042 55.211,161.209 58.5,159C 60.6403,155.219 62.6403,151.385 64.5,147.5 Z"/></g>
<g><path style="opacity:1" fill="#02fcf4" d="M 90.5,147.5 C 91.8734,147.343 93.2068,147.51 94.5,148C 90.7135,153.47 86.3802,158.304 81.5,162.5C 80.1667,162.5 78.8333,162.5 77.5,162.5C 82.9182,158.417 87.2515,153.417 90.5,147.5 Z"/></g>
<g><path style="opacity:1" fill="#0e3ffc" d="M 120.5,147.5 C 120.833,147.5 121.167,147.5 121.5,147.5C 122.833,147.5 124.167,147.5 125.5,147.5C 122.19,152.438 118.19,156.771 113.5,160.5C 108.841,168.478 103.674,176.145 98,183.5C 97.5008,188.155 97.3342,192.821 97.5,197.5C 97.5,198.167 97.5,198.833 97.5,199.5C 96.5111,194.025 96.1778,188.358 96.5,182.5C 97.4682,180.393 97.8016,178.059 97.5,175.5C 101.496,171.401 105.663,167.401 110,163.5C 113.325,158.017 116.825,152.683 120.5,147.5 Z"/></g>
<g><path style="opacity:1" fill="#fd0193" d="M 182.5,147.5 C 185.833,147.5 189.167,147.5 192.5,147.5C 190.205,150.297 187.705,152.964 185,155.5C 183.295,157.577 182.128,159.91 181.5,162.5C 178.833,162.5 176.167,162.5 173.5,162.5C 176.248,157.334 179.248,152.334 182.5,147.5 Z"/></g>
<g><path style="opacity:1" fill="#2996f6" d="M 104.5,147.5 C 104.5,147.167 104.5,146.833 104.5,146.5C 110.167,146.5 115.833,146.5 121.5,146.5C 121.5,146.833 121.5,147.167 121.5,147.5C 121.167,147.5 120.833,147.5 120.5,147.5C 119.5,147.5 118.5,147.5 117.5,147.5C 116.167,147.5 114.833,147.5 113.5,147.5C 112.504,147.414 111.671,147.748 111,148.5C 107.365,154.101 103.032,159.101 98,163.5C 97.51,164.793 97.3433,166.127 97.5,167.5C 97.7678,169.099 97.4345,170.432 96.5,171.5C 96.5,168.5 96.5,165.5 96.5,162.5C 98.8208,157.324 101.821,152.491 105.5,148C 105.272,147.601 104.938,147.435 104.5,147.5 Z"/></g>
<g><path style="opacity:1" fill="#0158ff" d="M 117.5,147.5 C 118.5,147.5 119.5,147.5 120.5,147.5C 116.825,152.683 113.325,158.017 110,163.5C 105.663,167.401 101.496,171.401 97.5,175.5C 99.3824,171.406 101.549,167.406 104,163.5C 109.211,158.732 113.711,153.398 117.5,147.5 Z"/></g>
<g><path style="opacity:1" fill="#03b9fd" d="M 104.5,147.5 C 104.938,147.435 105.272,147.601 105.5,148C 101.821,152.491 98.8208,157.324 96.5,162.5C 94.8333,162.5 93.1667,162.5 91.5,162.5C 93.1314,157.237 95.798,152.57 99.5,148.5C 101.045,147.548 102.712,147.215 104.5,147.5 Z"/></g>
<g><path style="opacity:1" fill="#fd05c4" d="M 180.5,144.5 C 180.328,145.492 180.662,146.158 181.5,146.5C 181.5,147.167 181.833,147.5 182.5,147.5C 179.248,152.334 176.248,157.334 173.5,162.5C 172.167,162.5 170.833,162.5 169.5,162.5C 169.924,159.646 170.924,156.979 172.5,154.5C 175.279,151.077 177.945,147.743 180.5,144.5 Z"/></g>
<g><path style="opacity:1" fill="#fa0e43" d="M 207.5,130.5 C 207.828,141.014 207.494,151.347 206.5,161.5C 206.828,156.125 206.495,150.792 205.5,145.5C 200.919,150.895 196.253,156.062 191.5,161C 192.416,161.278 193.082,161.778 193.5,162.5C 192.167,162.5 190.833,162.5 189.5,162.5C 188.737,161.732 187.737,161.232 186.5,161C 190.537,157.141 193.537,152.641 195.5,147.5C 198.059,147.802 200.393,147.468 202.5,146.5C 203.486,142.03 203.819,137.363 203.5,132.5C 204.558,131.4 205.392,130.066 206,128.5C 206.278,129.416 206.778,130.082 207.5,130.5 Z"/></g>
<g><path style="opacity:1" fill="#38f6b5" d="M 81.5,124.5 C 81.8333,124.5 82.1667,124.5 82.5,124.5C 82.5,131.833 82.5,139.167 82.5,146.5C 83.9187,147.451 85.5853,147.784 87.5,147.5C 82.798,152.533 78.1314,157.533 73.5,162.5C 70.8333,162.5 68.1667,162.5 65.5,162.5C 66.9516,161.698 68.6183,161.198 70.5,161C 72.31,158.356 74.31,155.856 76.5,153.5C 76.9932,150.522 78.4932,148.189 81,146.5C 81.4955,144.527 81.6621,142.527 81.5,140.5C 81.5,136.5 81.5,132.5 81.5,128.5C 81.5,127.167 81.5,125.833 81.5,124.5 Z"/></g>
<g><path style="opacity:1" fill="#e827ef" d="M 179.5,134.5 C 180.042,138.544 179.209,142.211 177,145.5C 171.921,149.745 167.755,154.745 164.5,160.5C 163.675,161.386 162.675,161.719 161.5,161.5C 160.127,161.657 158.793,161.49 157.5,161C 161.009,156.66 164.676,152.493 168.5,148.5C 165.232,147.513 161.898,147.18 158.5,147.5C 156.5,147.5 154.5,147.5 152.5,147.5C 150.5,147.5 148.5,147.5 146.5,147.5C 139.5,147.5 132.5,147.5 125.5,147.5C 124.167,147.5 122.833,147.5 121.5,147.5C 121.5,147.167 121.5,146.833 121.5,146.5C 138.5,146.5 155.5,146.5 172.5,146.5C 172.5,144.833 172.5,143.167 172.5,141.5C 174.605,138.973 176.939,136.64 179.5,134.5 Z"/></g>
<g><path style="opacity:1" fill="#fb16e0" d="M 180.5,124.5 C 180.5,131.167 180.5,137.833 180.5,144.5C 177.945,147.743 175.279,151.077 172.5,154.5C 170.924,156.979 169.924,159.646 169.5,162.5C 166.833,162.5 164.167,162.5 161.5,162.5C 161.5,162.167 161.5,161.833 161.5,161.5C 162.675,161.719 163.675,161.386 164.5,160.5C 167.755,154.745 171.921,149.745 177,145.5C 179.209,142.211 180.042,138.544 179.5,134.5C 179.5,131.833 179.5,129.167 179.5,126.5C 179.328,125.508 179.662,124.842 180.5,124.5 Z"/></g>
<g><path style="opacity:1" fill="#1ffe1c" d="M 51.5,146.5 C 55.6344,147.485 59.9677,147.818 64.5,147.5C 62.6403,151.385 60.6403,155.219 58.5,159C 55.211,161.209 51.5443,162.042 47.5,161.5C 47.3335,151.828 47.5002,142.161 48,132.5C 48.4186,131.328 49.0853,130.328 50,129.5C 50.1728,135.348 50.6728,141.015 51.5,146.5 Z"/></g>
<g><path style="opacity:1" fill="#fc0266" d="M 192.5,147.5 C 193.5,147.5 194.5,147.5 195.5,147.5C 193.537,152.641 190.537,157.141 186.5,161C 187.737,161.232 188.737,161.732 189.5,162.5C 186.833,162.5 184.167,162.5 181.5,162.5C 182.128,159.91 183.295,157.577 185,155.5C 187.705,152.964 190.205,150.297 192.5,147.5 Z"/></g>
<g><path style="opacity:1" fill="#fc061e" d="M 206.5,161.5 C 202.366,162.485 198.032,162.818 193.5,162.5C 193.082,161.778 192.416,161.278 191.5,161C 196.253,156.062 200.919,150.895 205.5,145.5C 206.495,150.792 206.828,156.125 206.5,161.5 Z"/></g>
<g><path style="opacity:1" fill="#28def6" d="M 82.5,146.5 C 88.1667,146.5 93.8333,146.5 99.5,146.5C 101.167,146.5 102.833,146.5 104.5,146.5C 104.5,146.833 104.5,147.167 104.5,147.5C 102.712,147.215 101.045,147.548 99.5,148.5C 95.798,152.57 93.1314,157.237 91.5,162.5C 89.1667,162.5 86.8333,162.5 84.5,162.5C 83.5,162.5 82.5,162.5 81.5,162.5C 86.3802,158.304 90.7135,153.47 94.5,148C 93.2068,147.51 91.8734,147.343 90.5,147.5C 89.5,147.5 88.5,147.5 87.5,147.5C 85.5853,147.784 83.9187,147.451 82.5,146.5 Z"/></g>
<g><path style="opacity:1" fill="#04fcd9" d="M 87.5,147.5 C 88.5,147.5 89.5,147.5 90.5,147.5C 87.2515,153.417 82.9182,158.417 77.5,162.5C 76.1667,162.5 74.8333,162.5 73.5,162.5C 78.1314,157.533 82.798,152.533 87.5,147.5 Z"/></g>
<g><path style="opacity:1" fill="#0c6dfc" d="M 113.5,147.5 C 114.833,147.5 116.167,147.5 117.5,147.5C 113.711,153.398 109.211,158.732 104,163.5C 101.549,167.406 99.3824,171.406 97.5,175.5C 97.8016,178.059 97.4682,180.393 96.5,182.5C 96.5,178.833 96.5,175.167 96.5,171.5C 97.4345,170.432 97.7678,169.099 97.5,167.5C 98.8149,166.524 100.148,165.524 101.5,164.5C 105.252,158.663 109.252,152.996 113.5,147.5 Z"/></g>
<g><path style="opacity:1" fill="#c400fd" d="M 158.5,147.5 C 161.898,147.18 165.232,147.513 168.5,148.5C 164.676,152.493 161.009,156.66 157.5,161C 158.793,161.49 160.127,161.657 161.5,161.5C 161.5,161.833 161.5,162.167 161.5,162.5C 156.833,162.5 152.167,162.5 147.5,162.5C 151.553,157.781 155.22,152.781 158.5,147.5 Z"/></g>
<g><path style="opacity:1" fill="#6107fd" d="M 146.5,147.5 C 148.5,147.5 150.5,147.5 152.5,147.5C 147.603,154.744 142.269,161.744 136.5,168.5C 135.675,169.386 134.675,169.719 133.5,169.5C 133.5,170.833 133.5,172.167 133.5,173.5C 122.368,182.898 110.702,191.565 98.5,199.5C 98.1667,199.5 97.8333,199.5 97.5,199.5C 97.5,198.833 97.5,198.167 97.5,197.5C 100.115,194.962 103.115,192.962 106.5,191.5C 107.262,190.372 107.929,189.205 108.5,188C 109.744,187.544 110.577,188.044 111,189.5C 111.46,185.149 113.96,183.149 118.5,183.5C 120.828,180.178 122.661,176.512 124,172.5C 131.743,164.264 139.243,155.93 146.5,147.5 Z"/></g>
<g><path style="opacity:1" fill="#9409fc" d="M 152.5,147.5 C 154.5,147.5 156.5,147.5 158.5,147.5C 155.22,152.781 151.553,157.781 147.5,162.5C 142.833,166.167 138.167,169.833 133.5,173.5C 133.5,172.167 133.5,170.833 133.5,169.5C 134.675,169.719 135.675,169.386 136.5,168.5C 142.269,161.744 147.603,154.744 152.5,147.5 Z"/></g>
<g><path style="opacity:0.137" fill="#c5b8b1" d="M 221.5,171.5 C 221.67,172.822 221.337,173.989 220.5,175C 216.307,178.271 211.64,180.105 206.5,180.5C 208.322,178.766 210.655,177.766 213.5,177.5C 215.8,175.016 218.467,173.016 221.5,171.5 Z"/></g>
<g><path style="opacity:1" fill="#2207ff" d="M 125.5,147.5 C 132.5,147.5 139.5,147.5 146.5,147.5C 139.243,155.93 131.743,164.264 124,172.5C 122.661,176.512 120.828,180.178 118.5,183.5C 113.96,183.149 111.46,185.149 111,189.5C 110.577,188.044 109.744,187.544 108.5,188C 107.929,189.205 107.262,190.372 106.5,191.5C 103.115,192.962 100.115,194.962 97.5,197.5C 97.3342,192.821 97.5008,188.155 98,183.5C 103.674,176.145 108.841,168.478 113.5,160.5C 118.19,156.771 122.19,152.438 125.5,147.5 Z"/></g>
<g><path style="opacity:1" fill="#aaafdb" d="M 84.5,162.5 C 86.8333,162.5 89.1667,162.5 91.5,162.5C 93.1667,162.5 94.8333,162.5 96.5,162.5C 96.5,165.5 96.5,168.5 96.5,171.5C 96.5,175.167 96.5,178.833 96.5,182.5C 96.1778,188.358 96.5111,194.025 97.5,199.5C 97.8333,199.5 98.1667,199.5 98.5,199.5C 97.791,200.404 96.791,200.737 95.5,200.5C 95.5,188.167 95.5,175.833 95.5,163.5C 91.6286,163.815 87.9619,163.482 84.5,162.5 Z"/></g>
<g><path style="opacity:0.294" fill="#c6b5b2" d="M 140.5,190.5 C 132.715,197.763 124.381,204.597 115.5,211C 110.079,214.377 104.412,217.21 98.5,219.5C 98.4142,218.504 98.7476,217.671 99.5,217C 111.919,210.273 123.586,202.273 134.5,193C 136.217,191.441 138.217,190.608 140.5,190.5 Z"/></g>
<g><path style="opacity:0.413" fill="#b69c97" d="M 77.5,180.5 C 78.1666,189.675 78.8333,199.009 79.5,208.5C 80.8391,211.884 82.1725,215.217 83.5,218.5C 79.8874,216.695 78.054,213.695 78,209.5C 77.5002,199.839 77.3335,190.172 77.5,180.5 Z"/></g>
</svg>
