<?xml version="1.0" encoding="UTF-8"?>
<!DOCTYPE svg PUBLIC "-//W3C//DTD SVG 1.1//EN" "http://www.w3.org/Graphics/SVG/1.1/DTD/svg11.dtd">
<svg xmlns="http://www.w3.org/2000/svg" version="1.1" width="256px" height="256px" style="shape-rendering:geometricPrecision; text-rendering:geometricPrecision; image-rendering:optimizeQuality; fill-rule:evenodd; clip-rule:evenodd" xmlns:xlink="http://www.w3.org/1999/xlink">
<g><path style="opacity:0.859" fill="#faf2f1" d="M 116.5,-0.5 C 123.833,-0.5 131.167,-0.5 138.5,-0.5C 205.838,10.1712 244.838,49.1712 255.5,116.5C 255.5,123.833 255.5,131.167 255.5,138.5C 248.889,189.207 222.223,225.041 175.5,246C 126.999,262.931 82.6654,255.598 42.5,224C 18.8189,202.137 4.48554,175.303 -0.5,143.5C -0.5,132.833 -0.5,122.167 -0.5,111.5C 8.26984,58.2179 38.2698,22.7179 89.5,5C 98.5103,2.5034 107.51,0.670069 116.5,-0.5 Z M 117.5,8.5 C 119.434,9.53163 121.6,10.1983 124,10.5C 127.159,9.2462 130.325,9.2462 133.5,10.5C 135.114,10.1971 136.448,9.53046 137.5,8.5C 154.068,10.4663 169.735,15.4663 184.5,23.5C 183.909,24.1515 183.243,24.8182 182.5,25.5C 183.865,26.941 185.365,28.2744 187,29.5C 187.2,27.6803 188.034,26.347 189.5,25.5C 192.5,28.1667 195.5,30.8333 198.5,33.5C 197.735,33.9234 196.902,34.2568 196,34.5C 191.948,33.6238 187.948,32.6238 184,31.5C 181.739,31.4391 179.739,32.1057 178,33.5C 176.881,32.4479 176.381,31.2812 176.5,30C 175.552,29.5172 174.552,29.3505 173.5,29.5C 173.5,30.5 173.5,31.5 173.5,32.5C 170.592,32.2623 168.258,33.2623 166.5,35.5C 164.512,33.8528 163.179,34.1861 162.5,36.5C 161.609,35.8902 160.609,35.5569 159.5,35.5C 159.461,34.4168 159.127,33.4168 158.5,32.5C 160.598,31.5505 162.765,31.5505 165,32.5C 169.407,31.5122 169.574,30.0122 165.5,28C 162.647,26.5699 159.647,25.7366 156.5,25.5C 154.685,24.3702 152.685,23.7036 150.5,23.5C 148.954,22.1402 147.12,21.1402 145,20.5C 141.547,20.2947 138.047,20.6281 134.5,21.5C 132.146,21.838 129.813,22.338 127.5,23C 125.112,24.8605 122.446,26.1939 119.5,27C 114.924,33.2343 108.924,37.5677 101.5,40C 102.252,40.6708 102.586,41.5041 102.5,42.5C 102.264,45.2257 103.097,47.559 105,49.5C 107.571,48.5991 109.904,47.2658 112,45.5C 112.383,46.056 112.883,46.3893 113.5,46.5C 112.253,48.178 110.586,49.5113 108.5,50.5C 107.212,52.2985 107.212,53.9652 108.5,55.5C 108.67,56.8221 108.337,57.9887 107.5,59C 103.223,59.5262 99.8895,61.5262 97.5,65C 96.255,65.7914 94.9217,66.2914 93.5,66.5C 92.2264,69.6353 90.0597,70.6353 87,69.5C 86.5814,70.6721 85.9147,71.6721 85,72.5C 83.4555,71.1787 82.2888,71.5121 81.5,73.5C 83.808,74.1517 85.4747,75.485 86.5,77.5C 87.8799,80.1697 87.5465,82.6697 85.5,85C 80.5821,85.1948 75.7488,85.6948 71,86.5C 71.3529,90.7746 71.3529,95.1079 71,99.5C 77.0178,103.174 82.6844,102.507 88,97.5C 88.1308,94.6288 89.2975,92.2954 91.5,90.5C 92.3857,91.325 92.719,92.325 92.5,93.5C 93.5,93.5 94.5,93.5 95.5,93.5C 96.4496,90.9321 96.4496,88.4321 95.5,86C 98.3004,84.7681 101.3,84.1015 104.5,84C 105.354,82.9783 106.354,82.1449 107.5,81.5C 110.596,84.926 114.263,87.5926 118.5,89.5C 120.571,90.8907 122.238,92.724 123.5,95C 120.971,96.062 118.304,96.8953 115.5,97.5C 117.001,98.7515 118.668,99.7515 120.5,100.5C 121.815,98.6841 123.315,97.0175 125,95.5C 125.617,94.5509 125.451,93.7175 124.5,93C 126.085,92.9152 127.418,92.7486 128.5,92.5C 126.636,90.3998 124.303,89.0665 121.5,88.5C 120.198,85.5586 118.198,83.2252 115.5,81.5C 116,80.5 116.5,79.5 117,78.5C 119.966,79.7756 122.8,81.7756 125.5,84.5C 125.833,85.5 126.5,86.1667 127.5,86.5C 129.027,86.427 130.027,87.0937 130.5,88.5C 131.171,89.8471 131.171,91.0138 130.5,92C 131.044,92.7172 131.711,93.2172 132.5,93.5C 133.356,96.6863 135.023,99.3529 137.5,101.5C 138.5,100.167 139.5,98.8333 140.5,97.5C 137.751,95.0131 137.917,92.6798 141,90.5C 142.113,91.7111 143.28,91.7111 144.5,90.5C 145.172,91.9492 145.839,93.2825 146.5,94.5C 146.833,96.5 147.167,98.5 147.5,100.5C 148.959,100.433 150.292,100.766 151.5,101.5C 155.938,102.387 160.604,102.387 165.5,101.5C 165.5,103.167 165.5,104.833 165.5,106.5C 164.833,108.167 164.167,109.833 163.5,111.5C 162.764,113.229 161.43,114.229 159.5,114.5C 156.638,113.319 153.638,113.319 150.5,114.5C 148.167,113.833 145.833,113.167 143.5,112.5C 142.167,112.167 140.833,111.833 139.5,111.5C 137.123,108.876 134.623,108.876 132,111.5C 131.51,112.793 131.343,114.127 131.5,115.5C 130.041,115.567 128.708,115.234 127.5,114.5C 125.5,113.833 123.5,113.167 121.5,112.5C 120.01,110.72 118.01,110.054 115.5,110.5C 114.71,109.599 113.71,108.932 112.5,108.5C 109.982,107.489 109.982,106.156 112.5,104.5C 112.376,103.893 112.043,103.56 111.5,103.5C 112.932,101.201 112.266,99.5347 109.5,98.5C 106.689,99.0796 104.023,99.7463 101.5,100.5C 95.4683,100.398 89.635,102.065 84,105.5C 82.6667,104.167 81.3333,104.167 80,105.5C 79.3109,104.643 78.4776,103.977 77.5,103.5C 75.5218,106.645 73.0218,109.312 70,111.5C 68.7328,113.907 68.2328,116.24 68.5,118.5C 65.9088,120.281 63.5755,122.281 61.5,124.5C 60.307,127.514 58.4736,130.181 56,132.5C 54.7586,134.548 54.5919,136.548 55.5,138.5C 56.1098,139.391 56.4431,140.391 56.5,141.5C 56.5,142.833 56.5,144.167 56.5,145.5C 55.6586,147.379 55.3253,149.379 55.5,151.5C 55.149,154.812 56.4823,157.145 59.5,158.5C 59.8333,159.5 60.5,160.167 61.5,160.5C 61.8333,161.5 62.5,162.167 63.5,162.5C 62.9531,164.712 63.9531,166.379 66.5,167.5C 67.8333,168.5 69.1667,169.5 70.5,170.5C 71.4961,171.665 72.8295,172.332 74.5,172.5C 76.1347,171.954 77.8014,171.62 79.5,171.5C 81.5914,171.318 83.5914,171.652 85.5,172.5C 87.7805,171.298 90.1138,170.298 92.5,169.5C 93.5,169.5 94.5,169.5 95.5,169.5C 98.3579,169.028 100.358,170.028 101.5,172.5C 104.571,172.923 107.405,173.923 110,175.5C 109.684,178.454 109.184,181.454 108.5,184.5C 109.08,186.749 110.413,188.415 112.5,189.5C 114.42,192.339 116.087,195.339 117.5,198.5C 117.216,200.415 117.549,202.081 118.5,203.5C 116.957,205.928 115.957,208.594 115.5,211.5C 114.662,211.842 114.328,212.508 114.5,213.5C 115.11,215.434 116.11,217.101 117.5,218.5C 117.427,220.027 118.094,221.027 119.5,221.5C 120.301,223.042 120.634,224.708 120.5,226.5C 120.932,227.71 121.599,228.71 122.5,229.5C 123.3,231.573 124.633,233.24 126.5,234.5C 127.301,236.042 127.634,237.708 127.5,239.5C 129.621,239.675 131.621,239.341 133.5,238.5C 143.684,239.372 151.017,235.039 155.5,225.5C 158.702,225.463 160.368,223.797 160.5,220.5C 160.948,215.709 163.614,212.709 168.5,211.5C 170.321,210.272 171.321,208.606 171.5,206.5C 171.421,205.07 171.754,203.736 172.5,202.5C 171.82,201.14 171.153,199.807 170.5,198.5C 170.5,197.167 170.5,195.833 170.5,194.5C 170.443,193.391 170.11,192.391 169.5,191.5C 174.309,185.409 179.643,179.743 185.5,174.5C 187.262,173.738 188.262,172.404 188.5,170.5C 190.316,168.882 191.649,166.882 192.5,164.5C 197.489,156.813 195.822,154.813 187.5,158.5C 185.5,158.833 183.5,159.167 181.5,159.5C 181.461,158.417 181.127,157.417 180.5,156.5C 185.535,153.877 190.702,151.544 196,149.5C 203.19,146.64 208.024,141.473 210.5,134C 209.87,132.69 208.87,131.856 207.5,131.5C 205.787,130.365 205.12,128.698 205.5,126.5C 206.721,127.028 207.887,127.695 209,128.5C 212.621,128.358 216.455,128.358 220.5,128.5C 221.167,129.167 221.833,129.833 222.5,130.5C 222.915,134.401 224.915,136.734 228.5,137.5C 228.5,138.5 228.5,139.5 228.5,140.5C 229.062,143.546 229.729,146.546 230.5,149.5C 230.844,152.562 231.511,155.562 232.5,158.5C 234.827,155.215 236.16,151.548 236.5,147.5C 238.923,143.655 241.09,139.655 243,135.5C 243.671,134.748 244.504,134.414 245.5,134.5C 239.728,187.765 211.728,223.598 161.5,242C 107.764,255.367 63.7643,240.533 29.5,197.5C 30.3653,194.9 31.032,192.233 31.5,189.5C 31.4805,188.274 31.1471,187.274 30.5,186.5C 30.1898,184.856 29.1898,183.856 27.5,183.5C 24.0638,179.943 20.3971,176.609 16.5,173.5C -0.205361,127.875 6.62797,86.2082 37,48.5C 41.0621,44.2688 45.2288,40.2688 49.5,36.5C 52.5889,35.2611 55.5889,33.7611 58.5,32C 59.3366,30.9887 59.67,29.8221 59.5,28.5C 77.1903,17.2692 96.5236,10.6025 117.5,8.5 Z M 140.5,31.5 C 139.313,33.9754 137.313,34.9754 134.5,34.5C 134.414,33.5041 134.748,32.6708 135.5,32C 137.134,31.5065 138.801,31.3398 140.5,31.5 Z M 131.5,35.5 C 132.248,37.3325 133.248,38.9991 134.5,40.5C 133.522,40.811 132.855,41.4777 132.5,42.5C 135.478,43.3525 138.478,44.0192 141.5,44.5C 138.196,45.4066 137.862,46.9066 140.5,49C 139.975,49.6924 139.308,50.1924 138.5,50.5C 137.232,49.5721 135.899,49.4054 134.5,50C 133.833,51.6667 133.167,53.3333 132.5,55C 129.69,54.0878 127.023,54.5878 124.5,56.5C 123.914,56.2907 123.414,55.9574 123,55.5C 121.871,57.1412 120.371,58.1412 118.5,58.5C 118.047,57.5416 117.381,56.7083 116.5,56C 118.935,54.2845 121.602,53.1179 124.5,52.5C 124.629,50.7839 124.962,49.1172 125.5,47.5C 126.496,47.4142 127.329,47.7476 128,48.5C 130.544,44.9258 129.711,42.5925 125.5,41.5C 125.833,37.8333 127.833,35.8333 131.5,35.5 Z M 141.5,44.5 C 142.919,43.5489 144.585,43.2155 146.5,43.5C 148.909,44.0076 148.742,44.6743 146,45.5C 144.56,44.8524 143.06,44.5191 141.5,44.5 Z M 110.5,55.5 C 111.705,54.3143 113.039,54.3143 114.5,55.5C 115.463,56.3635 115.463,57.0302 114.5,57.5C 113.14,56.8201 111.807,56.1534 110.5,55.5 Z M 169.5,82.5 C 170.167,82.8333 170.833,83.1667 171.5,83.5C 172.659,85.2503 174.326,86.2503 176.5,86.5C 176.5,86.8333 176.5,87.1667 176.5,87.5C 176.414,88.4959 176.748,89.3292 177.5,90C 176.584,90.3742 175.75,90.8742 175,91.5C 172.619,90.565 170.119,90.2317 167.5,90.5C 163.39,87.8997 159.39,87.8997 155.5,90.5C 148.675,90.7107 147.008,88.0441 150.5,82.5C 151.673,77.9683 154.34,76.635 158.5,78.5C 157.855,80.9856 158.522,83.3189 160.5,85.5C 160.738,83.5217 162.071,81.8551 164.5,80.5C 163.109,78.0642 163.609,77.3975 166,78.5C 166.667,77.8333 167.333,77.1667 168,76.5C 168.72,78.1124 168.554,79.6124 167.5,81C 168.044,81.7172 168.711,82.2172 169.5,82.5 Z M 195.5,79.5 C 196.525,79.8966 196.692,80.5632 196,81.5C 191.599,83.2702 191.432,85.2702 195.5,87.5C 195.799,89.4553 196.799,90.7886 198.5,91.5C 197.706,92.2602 197.706,93.9269 198.5,96.5C 198.5,97.1667 198.833,97.5 199.5,97.5C 199.5,99.1667 199.5,100.833 199.5,102.5C 197.833,102.5 196.167,102.5 194.5,102.5C 192.833,101.5 191.5,100.167 190.5,98.5C 190.5,97.8333 190.5,97.1667 190.5,96.5C 192.922,94.9522 192.922,93.2855 190.5,91.5C 189.833,90.1667 188.833,89.1667 187.5,88.5C 187.634,86.7085 187.301,85.0418 186.5,83.5C 188.827,80.1836 191.827,78.8503 195.5,79.5 Z M 210.5,84.5 C 210.43,87.825 209.096,88.825 206.5,87.5C 205.699,85.9582 205.366,84.2915 205.5,82.5C 206.822,82.67 207.989,82.3366 209,81.5C 209.232,82.7375 209.732,83.7375 210.5,84.5 Z M 151.5,41.5 C 152.833,41.5 154.167,41.5 155.5,41.5C 155.719,42.675 155.386,43.675 154.5,44.5C 152.787,44.1207 151.787,43.1207 151.5,41.5 Z M 205.5,124.5 C 205.5,125.167 205.5,125.833 205.5,126.5C 203.456,127.031 201.789,128.198 200.5,130C 199.207,130.49 197.873,130.657 196.5,130.5C 196.649,129.448 196.483,128.448 196,127.5C 192.323,125.143 190.489,121.81 190.5,117.5C 193.676,117.67 195.676,119.337 196.5,122.5C 199.104,125.263 202.104,125.93 205.5,124.5 Z M 162.5,122.5 C 163.5,122.5 164.5,122.5 165.5,122.5C 165.833,123.167 166.167,123.833 166.5,124.5C 167.582,127.659 169.416,130.326 172,132.5C 171.645,136.588 173.145,139.588 176.5,141.5C 177.5,143.5 178.5,145.5 179.5,147.5C 179.627,149.915 179.793,152.249 180,154.5C 178.871,152.859 177.371,151.859 175.5,151.5C 173.494,147.878 171.16,144.212 168.5,140.5C 169.076,136.888 168.076,133.888 165.5,131.5C 165.573,129.973 164.906,128.973 163.5,128.5C 162.897,127.365 162.564,126.365 162.5,125.5C 161.884,124.202 161.884,123.202 162.5,122.5 Z M 189.5,164.5 C 190.713,165.497 190.546,166.497 189,167.5C 188.601,167.272 188.435,166.938 188.5,166.5C 188.833,165.833 189.167,165.167 189.5,164.5 Z M 160.5,182.5 C 160.475,185.179 159.142,186.512 156.5,186.5C 156.529,183.231 157.862,181.897 160.5,182.5 Z"/></g>
<g><path style="opacity:0.494" fill="#ff8c0c" d="M 137.5,8.5 C 136.448,9.53046 135.114,10.1971 133.5,10.5C 130.325,9.2462 127.159,9.2462 124,10.5C 121.6,10.1983 119.434,9.53163 117.5,8.5C 119.571,7.19144 122.071,6.52477 125,6.5C 129.566,6.98761 133.733,7.65428 137.5,8.5 Z"/></g>
<g><path style="opacity:1" fill="#feee00" d="M 134.5,21.5 C 132.012,24.4392 129.012,26.9392 125.5,29C 117.667,33.5696 110.001,38.0696 102.5,42.5C 102.586,41.5041 102.252,40.6708 101.5,40C 108.924,37.5677 114.924,33.2343 119.5,27C 122.446,26.1939 125.112,24.8605 127.5,23C 129.813,22.338 132.146,21.838 134.5,21.5 Z"/></g>
<g><path style="opacity:0.655" fill="#34fe00" d="M 184.5,23.5 C 186.553,23.4021 188.22,24.0687 189.5,25.5C 188.034,26.347 187.2,27.6803 187,29.5C 185.365,28.2744 183.865,26.941 182.5,25.5C 183.243,24.8182 183.909,24.1515 184.5,23.5 Z"/></g>
<g><path style="opacity:0.829" fill="#80ff00" d="M 156.5,25.5 C 159.647,25.7366 162.647,26.5699 165.5,28C 169.574,30.0122 169.407,31.5122 165,32.5C 162.765,31.5505 160.598,31.5505 158.5,32.5C 159.127,33.4168 159.461,34.4168 159.5,35.5C 155.596,38.8887 151.263,41.5554 146.5,43.5C 144.585,43.2155 142.919,43.5489 141.5,44.5C 138.478,44.0192 135.478,43.3525 132.5,42.5C 132.855,41.4777 133.522,40.811 134.5,40.5C 141.839,35.4914 149.173,30.4914 156.5,25.5 Z"/></g>
<g><path style="opacity:0.561" fill="#ff2114" d="M 59.5,28.5 C 59.67,29.8221 59.3366,30.9887 58.5,32C 55.5889,33.7611 52.5889,35.2611 49.5,36.5C 49.5106,34.9826 50.1772,33.8159 51.5,33C 54,31.1667 56.5,29.3333 59,27.5C 59.3988,27.7284 59.5654,28.0618 59.5,28.5 Z"/></g>
<g><path style="opacity:0.955" fill="#b0fe00" d="M 150.5,23.5 C 152.685,23.7036 154.685,24.3702 156.5,25.5C 149.173,30.4914 141.839,35.4914 134.5,40.5C 133.248,38.9991 132.248,37.3325 131.5,35.5C 132.391,34.8902 133.391,34.5569 134.5,34.5C 137.313,34.9754 139.313,33.9754 140.5,31.5C 142.891,27.6819 146.225,25.0152 150.5,23.5 Z"/></g>
<g><path style="opacity:1" fill="#e7fe00" d="M 150.5,23.5 C 146.225,25.0152 142.891,27.6819 140.5,31.5C 138.801,31.3398 137.134,31.5065 135.5,32C 134.748,32.6708 134.414,33.5041 134.5,34.5C 133.391,34.5569 132.391,34.8902 131.5,35.5C 127.833,35.8333 125.833,37.8333 125.5,41.5C 121.148,42.3929 117.148,44.0596 113.5,46.5C 112.883,46.3893 112.383,46.056 112,45.5C 109.904,47.2658 107.571,48.5991 105,49.5C 103.097,47.559 102.264,45.2257 102.5,42.5C 110.001,38.0696 117.667,33.5696 125.5,29C 129.012,26.9392 132.012,24.4392 134.5,21.5C 138.047,20.6281 141.547,20.2947 145,20.5C 147.12,21.1402 148.954,22.1402 150.5,23.5 Z"/></g>
<g><path style="opacity:0.638" fill="#ff4d00" d="M 64.5,34.5 C 66.9775,34.0508 68.9775,34.7175 70.5,36.5C 67.2379,38.4242 63.9046,40.2576 60.5,42C 56.4962,43.1046 54.4962,41.6046 54.5,37.5C 57.3646,37.9452 59.8646,37.2785 62,35.5C 63.159,36.566 63.9924,36.2327 64.5,34.5 Z"/></g>
<g><path style="opacity:0.54" fill="#ffe700" d="M 86.5,53.5 C 85.1667,54.1667 83.8333,54.8333 82.5,55.5C 79.9588,53.5599 79.9588,51.3932 82.5,49C 84.6135,48.6711 86.2802,49.5044 87.5,51.5C 87.1373,52.1835 86.8039,52.8501 86.5,53.5 Z"/></g>
<g><path style="opacity:0.928" fill="#acfe00" d="M 125.5,41.5 C 129.711,42.5925 130.544,44.9258 128,48.5C 127.329,47.7476 126.496,47.4142 125.5,47.5C 121.618,49.9341 117.952,52.6007 114.5,55.5C 113.039,54.3143 111.705,54.3143 110.5,55.5C 109.833,55.5 109.167,55.5 108.5,55.5C 107.212,53.9652 107.212,52.2985 108.5,50.5C 110.586,49.5113 112.253,48.178 113.5,46.5C 117.148,44.0596 121.148,42.3929 125.5,41.5 Z"/></g>
<g><path style="opacity:1" fill="#05fe67" d="M 204.5,35.5 C 206.167,36.5 207.5,37.8333 208.5,39.5C 207.933,41.0295 207.267,42.5295 206.5,44C 198.738,47.237 191.738,51.5703 185.5,57C 176.66,62.5125 167.66,67.8458 158.5,73C 154.378,74.0863 150.378,75.4197 146.5,77C 140.689,80.3327 135.356,84.1661 130.5,88.5C 130.027,87.0937 129.027,86.427 127.5,86.5C 138.459,79.3485 149.459,72.1818 160.5,65C 168.571,61.0077 176.071,56.1743 183,50.5C 190.736,47.3854 197.902,43.3854 204.5,38.5C 204.5,38.1667 204.5,37.8333 204.5,37.5C 204.5,36.8333 204.5,36.1667 204.5,35.5 Z"/></g>
<g><path style="opacity:0.876" fill="#d0fe00" d="M 86.5,53.5 C 87.6141,56.4488 89.6141,58.6155 92.5,60C 92.1667,60.3333 91.8333,60.6667 91.5,61C 93.1922,62.4007 93.8588,64.2341 93.5,66.5C 91.4816,67.6225 89.4816,67.6225 87.5,66.5C 86.1482,67.5244 84.8149,68.5244 83.5,69.5C 80.401,65.0663 81.401,61.8997 86.5,60C 84.8333,59 83.1667,58 81.5,57C 82.056,56.6174 82.3893,56.1174 82.5,55.5C 83.8333,54.8333 85.1667,54.1667 86.5,53.5 Z"/></g>
<g><path style="opacity:1" fill="#05fef4" d="M 219.5,51.5 C 221.543,52.5794 222.876,54.246 223.5,56.5C 207.697,66.2379 192.03,76.2379 176.5,86.5C 174.326,86.2503 172.659,85.2503 171.5,83.5C 176.828,80.748 182.161,77.5813 187.5,74C 189.392,73.0266 191.392,72.3599 193.5,72C 194.833,70 196.5,68.3333 198.5,67C 202.121,65.8561 205.455,64.1894 208.5,62C 211.258,58.7819 214.591,56.2819 218.5,54.5C 219.386,53.675 219.719,52.675 219.5,51.5 Z"/></g>
<g><path style="opacity:1" fill="#00fe47" d="M 204.5,35.5 C 204.5,36.1667 204.5,36.8333 204.5,37.5C 203.167,37.8333 203.167,38.1667 204.5,38.5C 197.902,43.3854 190.736,47.3854 183,50.5C 176.071,56.1743 168.571,61.0077 160.5,65C 149.459,72.1818 138.459,79.3485 127.5,86.5C 126.5,86.1667 125.833,85.5 125.5,84.5C 127.296,82.5832 129.296,80.7499 131.5,79C 134.5,78 137.5,77 140.5,76C 141.337,74.9887 141.67,73.8221 141.5,72.5C 146.588,70.4575 151.588,68.1241 156.5,65.5C 170.352,54.0726 185.352,44.4059 201.5,36.5C 202.609,36.4431 203.609,36.1098 204.5,35.5 Z"/></g>
<g><path style="opacity:0.99" fill="#f6fc00" d="M 76.5,56.5 C 80.9259,56.8594 81.5926,58.6927 78.5,62C 78.8333,62.3333 79.1667,62.6667 79.5,63C 76.6927,65.6259 73.6927,66.2926 70.5,65C 71.2266,63.6012 71.7266,62.1012 72,60.5C 73.9923,59.6719 75.4923,58.3386 76.5,56.5 Z"/></g>
<g><path style="opacity:1" fill="#00fe9b" d="M 211.5,45.5 C 212.5,45.5 213.5,45.5 214.5,45.5C 213.323,47.0315 211.989,48.5315 210.5,50C 202.509,55.6664 193.842,60.333 184.5,64C 180.108,68.7366 174.775,71.7366 168.5,73C 165.273,75.1118 161.94,76.9451 158.5,78.5C 160.097,76.2361 162.097,74.2361 164.5,72.5C 178.578,65.5317 191.911,57.3651 204.5,48C 207.06,47.6162 209.394,46.7829 211.5,45.5 Z"/></g>
<g><path style="opacity:1" fill="#03feb3" d="M 214.5,45.5 C 215.5,45.8333 216.167,46.5 216.5,47.5C 216.372,49.0898 215.705,50.4231 214.5,51.5C 206.555,56.9322 198.222,61.7655 189.5,66C 185.609,70.3728 180.942,73.7061 175.5,76C 173.272,78.0569 171.272,80.2236 169.5,82.5C 168.711,82.2172 168.044,81.7172 167.5,81C 168.554,79.6124 168.72,78.1124 168,76.5C 167.333,77.1667 166.667,77.8333 166,78.5C 163.609,77.3975 163.109,78.0642 164.5,80.5C 162.071,81.8551 160.738,83.5217 160.5,85.5C 158.522,83.3189 157.855,80.9856 158.5,78.5C 161.94,76.9451 165.273,75.1118 168.5,73C 174.775,71.7366 180.108,68.7366 184.5,64C 193.842,60.333 202.509,55.6664 210.5,50C 211.989,48.5315 213.323,47.0315 214.5,45.5 Z"/></g>
<g><path style="opacity:1" fill="#03edfe" d="M 223.5,56.5 C 224.906,56.9731 225.573,57.9731 225.5,59.5C 224.365,60.4745 223.365,61.6412 222.5,63C 217.582,64.9403 212.915,67.2736 208.5,70C 204.15,73.2844 199.817,76.4511 195.5,79.5C 191.827,78.8503 188.827,80.1836 186.5,83.5C 182.902,84.3032 179.569,85.6366 176.5,87.5C 176.5,87.1667 176.5,86.8333 176.5,86.5C 192.03,76.2379 207.697,66.2379 223.5,56.5 Z"/></g>
<g><path style="opacity:1" fill="#86fe00" d="M 125.5,47.5 C 124.962,49.1172 124.629,50.7839 124.5,52.5C 121.602,53.1179 118.935,54.2845 116.5,56C 117.381,56.7083 118.047,57.5416 118.5,58.5C 114.372,61.7873 109.705,63.9539 104.5,65C 98.4743,69.2637 92.4743,73.4303 86.5,77.5C 85.4747,75.485 83.808,74.1517 81.5,73.5C 82.2888,71.5121 83.4555,71.1787 85,72.5C 85.9147,71.6721 86.5814,70.6721 87,69.5C 90.0597,70.6353 92.2264,69.6353 93.5,66.5C 94.9217,66.2914 96.255,65.7914 97.5,65C 99.8895,61.5262 103.223,59.5262 107.5,59C 108.337,57.9887 108.67,56.8221 108.5,55.5C 109.167,55.5 109.833,55.5 110.5,55.5C 111.807,56.1534 113.14,56.8201 114.5,57.5C 115.463,57.0302 115.463,56.3635 114.5,55.5C 117.952,52.6007 121.618,49.9341 125.5,47.5 Z"/></g>
<g><path style="opacity:1" fill="#03fe81" d="M 208.5,39.5 C 210.975,40.6874 211.975,42.6874 211.5,45.5C 209.394,46.7829 207.06,47.6162 204.5,48C 191.911,57.3651 178.578,65.5317 164.5,72.5C 162.097,74.2361 160.097,76.2361 158.5,78.5C 154.34,76.635 151.673,77.9683 150.5,82.5C 148.278,83.6876 145.945,84.6876 143.5,85.5C 140.914,89.7665 137.247,92.4332 132.5,93.5C 131.711,93.2172 131.044,92.7172 130.5,92C 131.171,91.0138 131.171,89.8471 130.5,88.5C 135.356,84.1661 140.689,80.3327 146.5,77C 150.378,75.4197 154.378,74.0863 158.5,73C 167.66,67.8458 176.66,62.5125 185.5,57C 191.738,51.5703 198.738,47.237 206.5,44C 207.267,42.5295 207.933,41.0295 208.5,39.5 Z"/></g>
<g><path style="opacity:1" fill="#09c3ff" d="M 225.5,59.5 C 227.4,61.6195 229.066,63.9528 230.5,66.5C 225.907,67.1286 222.241,69.2953 219.5,73C 210.961,77.0957 202.961,81.929 195.5,87.5C 191.432,85.2702 191.599,83.2702 196,81.5C 196.692,80.5632 196.525,79.8966 195.5,79.5C 199.817,76.4511 204.15,73.2844 208.5,70C 212.915,67.2736 217.582,64.9403 222.5,63C 223.365,61.6412 224.365,60.4745 225.5,59.5 Z"/></g>
<g><path style="opacity:1" fill="#03feda" d="M 216.5,47.5 C 217.974,48.4363 218.974,49.7697 219.5,51.5C 219.719,52.675 219.386,53.675 218.5,54.5C 214.591,56.2819 211.258,58.7819 208.5,62C 205.455,64.1894 202.121,65.8561 198.5,67C 196.5,68.3333 194.833,70 193.5,72C 191.392,72.3599 189.392,73.0266 187.5,74C 182.161,77.5813 176.828,80.748 171.5,83.5C 170.833,83.1667 170.167,82.8333 169.5,82.5C 171.272,80.2236 173.272,78.0569 175.5,76C 180.942,73.7061 185.609,70.3728 189.5,66C 198.222,61.7655 206.555,56.9322 214.5,51.5C 215.705,50.4231 216.372,49.0898 216.5,47.5 Z"/></g>
<g><path style="opacity:0.899" fill="#039efe" d="M 230.5,66.5 C 230.557,67.609 230.89,68.609 231.5,69.5C 224.748,74.722 217.748,79.722 210.5,84.5C 209.732,83.7375 209.232,82.7375 209,81.5C 207.989,82.3366 206.822,82.67 205.5,82.5C 205.366,84.2915 205.699,85.9582 206.5,87.5C 203.637,88.5251 200.971,89.8585 198.5,91.5C 196.799,90.7886 195.799,89.4553 195.5,87.5C 202.961,81.929 210.961,77.0957 219.5,73C 222.241,69.2953 225.907,67.1286 230.5,66.5 Z"/></g>
<g><path style="opacity:0.995" fill="#1b11fe" d="M 237.5,82.5 C 239.287,85.9681 240.62,89.6347 241.5,93.5C 241.548,96.2919 240.215,98.1253 237.5,99C 238.899,99.5946 240.232,99.4279 241.5,98.5C 242.833,99.1667 242.833,99.8333 241.5,100.5C 235.208,103.475 229.875,107.641 225.5,113C 218.443,116.238 211.777,120.072 205.5,124.5C 202.104,125.93 199.104,125.263 196.5,122.5C 195.676,119.337 193.676,117.67 190.5,117.5C 190.489,121.81 192.323,125.143 196,127.5C 196.483,128.448 196.649,129.448 196.5,130.5C 190.08,134.708 183.414,138.375 176.5,141.5C 173.145,139.588 171.645,136.588 172,132.5C 169.416,130.326 167.582,127.659 166.5,124.5C 168.482,124.005 170.482,123.505 172.5,123C 194.042,109.289 215.709,95.7889 237.5,82.5 Z"/></g>
<g><path style="opacity:0.998" fill="#03dbfe" d="M 186.5,83.5 C 187.301,85.0418 187.634,86.7085 187.5,88.5C 183.814,89.6799 180.814,91.8465 178.5,95C 173.889,96.639 169.555,98.8057 165.5,101.5C 160.604,102.387 155.938,102.387 151.5,101.5C 157.218,98.3144 162.552,94.6477 167.5,90.5C 170.119,90.2317 172.619,90.565 175,91.5C 175.75,90.8742 176.584,90.3742 177.5,90C 176.748,89.3292 176.414,88.4959 176.5,87.5C 179.569,85.6366 182.902,84.3032 186.5,83.5 Z"/></g>
<g><path style="opacity:0.678" fill="#08fea7" d="M 150.5,82.5 C 147.008,88.0441 148.675,90.7107 155.5,90.5C 152.473,91.6801 149.473,93.0134 146.5,94.5C 145.839,93.2825 145.172,91.9492 144.5,90.5C 143.28,91.7111 142.113,91.7111 141,90.5C 137.917,92.6798 137.751,95.0131 140.5,97.5C 139.5,98.8333 138.5,100.167 137.5,101.5C 135.023,99.3529 133.356,96.6863 132.5,93.5C 137.247,92.4332 140.914,89.7665 143.5,85.5C 145.945,84.6876 148.278,83.6876 150.5,82.5 Z"/></g>
<g><path style="opacity:1" fill="#0064ff" d="M 233.5,73.5 C 234.404,74.209 234.737,75.209 234.5,76.5C 230.359,79.4145 226.359,82.5811 222.5,86C 219.274,87.3719 215.941,88.5386 212.5,89.5C 208.393,92.6216 204.06,95.2882 199.5,97.5C 198.833,97.5 198.5,97.1667 198.5,96.5C 208.407,90.4595 218.074,83.9595 227.5,77C 230.345,76.9918 232.345,75.8251 233.5,73.5 Z"/></g>
<g><path style="opacity:1" fill="#31ff06" d="M 198.5,33.5 C 198.842,34.3382 199.508,34.6716 200.5,34.5C 200.5,35.1667 200.833,35.5 201.5,35.5C 201.5,35.8333 201.5,36.1667 201.5,36.5C 185.352,44.4059 170.352,54.0726 156.5,65.5C 151.588,68.1241 146.588,70.4575 141.5,72.5C 141.67,73.8221 141.337,74.9887 140.5,76C 137.5,77 134.5,78 131.5,79C 129.296,80.7499 127.296,82.5832 125.5,84.5C 122.8,81.7756 119.966,79.7756 117,78.5C 116.5,79.5 116,80.5 115.5,81.5C 118.198,83.2252 120.198,85.5586 121.5,88.5C 120.791,89.404 119.791,89.7373 118.5,89.5C 114.263,87.5926 110.596,84.926 107.5,81.5C 106.354,82.1449 105.354,82.9783 104.5,84C 101.3,84.1015 98.3004,84.7681 95.5,86C 96.4496,88.4321 96.4496,90.9321 95.5,93.5C 94.5,93.5 93.5,93.5 92.5,93.5C 92.719,92.325 92.3857,91.325 91.5,90.5C 89.2975,92.2954 88.1308,94.6288 88,97.5C 82.6844,102.507 77.0178,103.174 71,99.5C 71.3529,95.1079 71.3529,90.7746 71,86.5C 75.7488,85.6948 80.5821,85.1948 85.5,85C 87.5465,82.6697 87.8799,80.1697 86.5,77.5C 92.4743,73.4303 98.4743,69.2637 104.5,65C 109.705,63.9539 114.372,61.7873 118.5,58.5C 120.371,58.1412 121.871,57.1412 123,55.5C 123.414,55.9574 123.914,56.2907 124.5,56.5C 127.023,54.5878 129.69,54.0878 132.5,55C 133.167,53.3333 133.833,51.6667 134.5,50C 135.899,49.4054 137.232,49.5721 138.5,50.5C 139.308,50.1924 139.975,49.6924 140.5,49C 137.862,46.9066 138.196,45.4066 141.5,44.5C 143.06,44.5191 144.56,44.8524 146,45.5C 148.742,44.6743 148.909,44.0076 146.5,43.5C 151.263,41.5554 155.596,38.8887 159.5,35.5C 160.609,35.5569 161.609,35.8902 162.5,36.5C 163.179,34.1861 164.512,33.8528 166.5,35.5C 168.258,33.2623 170.592,32.2623 173.5,32.5C 173.5,31.5 173.5,30.5 173.5,29.5C 174.552,29.3505 175.552,29.5172 176.5,30C 176.381,31.2812 176.881,32.4479 178,33.5C 179.739,32.1057 181.739,31.4391 184,31.5C 187.948,32.6238 191.948,33.6238 196,34.5C 196.902,34.2568 197.735,33.9234 198.5,33.5 Z M 151.5,41.5 C 151.787,43.1207 152.787,44.1207 154.5,44.5C 155.386,43.675 155.719,42.675 155.5,41.5C 154.167,41.5 152.833,41.5 151.5,41.5 Z"/></g>
<g><path style="opacity:0.84" fill="#00fe31" d="M 107.5,89.5 C 109.976,91.1209 110.142,93.1209 108,95.5C 107.308,94.9747 106.808,94.3081 106.5,93.5C 107.246,92.2638 107.579,90.9305 107.5,89.5 Z"/></g>
<g><path style="opacity:1" fill="#0278ff" d="M 231.5,69.5 C 232.674,70.5137 233.34,71.847 233.5,73.5C 232.345,75.8251 230.345,76.9918 227.5,77C 218.074,83.9595 208.407,90.4595 198.5,96.5C 197.706,93.9269 197.706,92.2602 198.5,91.5C 200.971,89.8585 203.637,88.5251 206.5,87.5C 209.096,88.825 210.43,87.825 210.5,84.5C 217.748,79.722 224.748,74.722 231.5,69.5 Z"/></g>
<g><path style="opacity:0.55" fill="#07fe71" d="M 121.5,88.5 C 124.303,89.0665 126.636,90.3998 128.5,92.5C 127.418,92.7486 126.085,92.9152 124.5,93C 125.451,93.7175 125.617,94.5509 125,95.5C 123.315,97.0175 121.815,98.6841 120.5,100.5C 118.668,99.7515 117.001,98.7515 115.5,97.5C 118.304,96.8953 120.971,96.062 123.5,95C 122.238,92.724 120.571,90.8907 118.5,89.5C 119.791,89.7373 120.791,89.404 121.5,88.5 Z"/></g>
<g><path style="opacity:1" fill="#014cfe" d="M 234.5,76.5 C 235.5,76.8333 236.167,77.5 236.5,78.5C 233.302,79.7607 230.969,81.9273 229.5,85C 221.079,89.7516 212.913,94.9182 205,100.5C 201.238,103.13 197.071,104.796 192.5,105.5C 183.749,111.589 174.749,117.255 165.5,122.5C 164.5,122.5 163.5,122.5 162.5,122.5C 162.833,121.833 163.167,121.167 163.5,120.5C 165.589,120.143 167.589,119.477 169.5,118.5C 177.706,112.901 186.04,107.568 194.5,102.5C 196.167,102.5 197.833,102.5 199.5,102.5C 199.5,100.833 199.5,99.1667 199.5,97.5C 204.06,95.2882 208.393,92.6216 212.5,89.5C 215.941,88.5386 219.274,87.3719 222.5,86C 226.359,82.5811 230.359,79.4145 234.5,76.5 Z"/></g>
<g><path style="opacity:1" fill="#03feee" d="M 167.5,90.5 C 162.552,94.6477 157.218,98.3144 151.5,101.5C 150.292,100.766 148.959,100.433 147.5,100.5C 147.167,98.5 146.833,96.5 146.5,94.5C 149.473,93.0134 152.473,91.6801 155.5,90.5C 159.39,87.8997 163.39,87.8997 167.5,90.5 Z"/></g>
<g><path style="opacity:1" fill="#02b3ff" d="M 187.5,88.5 C 188.833,89.1667 189.833,90.1667 190.5,91.5C 187.187,96.2687 182.521,98.7687 176.5,99C 173.188,101.992 169.522,104.492 165.5,106.5C 165.5,104.833 165.5,103.167 165.5,101.5C 169.555,98.8057 173.889,96.639 178.5,95C 180.814,91.8465 183.814,89.6799 187.5,88.5 Z"/></g>
<g><path style="opacity:1" fill="#0198fe" d="M 190.5,91.5 C 192.922,93.2855 192.922,94.9522 190.5,96.5C 183.397,98.5919 177.397,102.425 172.5,108C 169.516,109.271 166.516,110.438 163.5,111.5C 164.167,109.833 164.833,108.167 165.5,106.5C 169.522,104.492 173.188,101.992 176.5,99C 182.521,98.7687 187.187,96.2687 190.5,91.5 Z"/></g>
<g><path style="opacity:0.467" fill="#02faf0" d="M 140.5,103.5 C 142.199,103.34 143.866,103.506 145.5,104C 143.415,106.139 141.749,105.972 140.5,103.5 Z"/></g>
<g><path style="opacity:0.271" fill="#00c4ff" d="M 159.5,103.5 C 164.508,103.356 164.674,104.356 160,106.5C 158.317,105.824 158.15,104.824 159.5,103.5 Z"/></g>
<g><path style="opacity:1" fill="#02fe65" d="M 111.5,103.5 C 105.299,105.761 99.9659,109.261 95.5,114C 90.5704,114.78 86.9037,117.28 84.5,121.5C 80.1457,123.026 76.4791,125.526 73.5,129C 67.1089,131.455 61.1089,134.622 55.5,138.5C 54.5919,136.548 54.7586,134.548 56,132.5C 58.4736,130.181 60.307,127.514 61.5,124.5C 61.4346,124.938 61.6012,125.272 62,125.5C 67.9993,120.838 74.4993,117.004 81.5,114C 88.3826,109.732 95.0492,105.232 101.5,100.5C 104.023,99.7463 106.689,99.0796 109.5,98.5C 112.266,99.5347 112.932,101.201 111.5,103.5 Z"/></g>
<g><path style="opacity:1" fill="#00fe33" d="M 101.5,100.5 C 95.0492,105.232 88.3826,109.732 81.5,114C 74.4993,117.004 67.9993,120.838 62,125.5C 61.6012,125.272 61.4346,124.938 61.5,124.5C 63.5755,122.281 65.9088,120.281 68.5,118.5C 68.2328,116.24 68.7328,113.907 70,111.5C 73.0218,109.312 75.5218,106.645 77.5,103.5C 78.4776,103.977 79.3109,104.643 80,105.5C 81.3333,104.167 82.6667,104.167 84,105.5C 89.635,102.065 95.4683,100.398 101.5,100.5 Z"/></g>
<g><path style="opacity:0.99" fill="#01f6fe" d="M 139.5,111.5 C 135.267,113.139 131.934,115.972 129.5,120C 120.649,125.162 112.149,130.662 104,136.5C 100.322,137.291 96.8218,138.457 93.5,140C 91.3222,142.502 88.8222,144.669 86,146.5C 77.5362,150.7 69.3696,155.367 61.5,160.5C 60.5,160.167 59.8333,159.5 59.5,158.5C 61.9635,156.539 64.2968,154.372 66.5,152C 87.5361,140.427 107.869,127.927 127.5,114.5C 128.708,115.234 130.041,115.567 131.5,115.5C 131.343,114.127 131.51,112.793 132,111.5C 134.623,108.876 137.123,108.876 139.5,111.5 Z"/></g>
<g><path style="opacity:1" fill="#003bff" d="M 236.5,78.5 C 236.833,79.8333 237.167,81.1667 237.5,82.5C 215.709,95.7889 194.042,109.289 172.5,123C 170.482,123.505 168.482,124.005 166.5,124.5C 166.167,123.833 165.833,123.167 165.5,122.5C 174.749,117.255 183.749,111.589 192.5,105.5C 197.071,104.796 201.238,103.13 205,100.5C 212.913,94.9182 221.079,89.7516 229.5,85C 230.969,81.9273 233.302,79.7607 236.5,78.5 Z"/></g>
<g><path style="opacity:1" fill="#02a2ff" d="M 159.5,114.5 C 138.187,126.581 117.521,139.747 97.5,154C 87.8151,158.547 78.8151,164.047 70.5,170.5C 69.1667,169.5 67.8333,168.5 66.5,167.5C 68.0677,164.947 70.2343,162.947 73,161.5C 79.1431,157.775 85.6431,154.608 92.5,152C 102.492,144.908 112.992,138.408 124,132.5C 132.946,126.615 141.78,120.615 150.5,114.5C 153.638,113.319 156.638,113.319 159.5,114.5 Z"/></g>
<g><path style="opacity:1" fill="#00fea6" d="M 112.5,108.5 C 113.71,108.932 114.71,109.599 115.5,110.5C 111.053,115.571 105.387,118.571 98.5,119.5C 95.2385,122.595 91.5718,125.095 87.5,127C 86.8333,128 86.1667,129 85.5,130C 75.7734,135.195 66.1067,140.361 56.5,145.5C 56.5,144.167 56.5,142.833 56.5,141.5C 75.9089,131.757 94.5756,120.757 112.5,108.5 Z"/></g>
<g><path style="opacity:1" fill="#6c01fe" d="M 241.5,93.5 C 242.744,97.4725 244.077,101.472 245.5,105.5C 244.754,106.736 244.421,108.07 244.5,109.5C 245.171,110.847 245.171,112.014 244.5,113C 236.305,118.06 228.305,123.227 220.5,128.5C 216.455,128.358 212.621,128.358 209,128.5C 207.887,127.695 206.721,127.028 205.5,126.5C 205.5,125.833 205.5,125.167 205.5,124.5C 211.777,120.072 218.443,116.238 225.5,113C 229.875,107.641 235.208,103.475 241.5,100.5C 242.833,99.8333 242.833,99.1667 241.5,98.5C 240.232,99.4279 238.899,99.5946 237.5,99C 240.215,98.1253 241.548,96.2919 241.5,93.5 Z"/></g>
<g><path style="opacity:1" fill="#01febe" d="M 115.5,110.5 C 118.01,110.054 120.01,110.72 121.5,112.5C 116.37,113.664 111.536,115.664 107,118.5C 100.219,122.946 93.7195,127.779 87.5,133C 86.2068,133.49 84.8734,133.657 83.5,133.5C 83.5,134.5 83.5,135.5 83.5,136.5C 79.1184,137.859 75.1184,140.026 71.5,143C 70.2068,143.49 68.8734,143.657 67.5,143.5C 67.5,144.5 67.5,145.5 67.5,146.5C 63.4892,148.187 59.4892,149.854 55.5,151.5C 55.3253,149.379 55.6586,147.379 56.5,145.5C 66.1067,140.361 75.7734,135.195 85.5,130C 86.1667,129 86.8333,128 87.5,127C 91.5718,125.095 95.2385,122.595 98.5,119.5C 105.387,118.571 111.053,115.571 115.5,110.5 Z"/></g>
<g><path style="opacity:1" fill="#aa06fe" d="M 244.5,109.5 C 245.695,109.866 246.361,110.699 246.5,112C 245.652,114.77 245.319,117.603 245.5,120.5C 244.883,120.389 244.383,120.056 244,119.5C 240.763,121.58 237.263,123.08 233.5,124C 230.209,126.818 226.542,128.984 222.5,130.5C 221.833,129.833 221.167,129.167 220.5,128.5C 228.305,123.227 236.305,118.06 244.5,113C 245.171,112.014 245.171,110.847 244.5,109.5 Z"/></g>
<g><path style="opacity:1" fill="#01fe8a" d="M 111.5,103.5 C 112.043,103.56 112.376,103.893 112.5,104.5C 109.982,106.156 109.982,107.489 112.5,108.5C 94.5756,120.757 75.9089,131.757 56.5,141.5C 56.4431,140.391 56.1098,139.391 55.5,138.5C 61.1089,134.622 67.1089,131.455 73.5,129C 76.4791,125.526 80.1457,123.026 84.5,121.5C 86.9037,117.28 90.5704,114.78 95.5,114C 99.9659,109.261 105.299,105.761 111.5,103.5 Z"/></g>
<g><path style="opacity:1" fill="#dc00fe" d="M 245.5,120.5 C 246.167,120.5 246.5,120.833 246.5,121.5C 246.352,123.934 246.186,126.601 246,129.5C 241.525,132.314 237.359,135.481 233.5,139C 231.753,139.352 230.086,139.852 228.5,140.5C 228.5,139.5 228.5,138.5 228.5,137.5C 224.915,136.734 222.915,134.401 222.5,130.5C 226.542,128.984 230.209,126.818 233.5,124C 237.263,123.08 240.763,121.58 244,119.5C 244.383,120.056 244.883,120.389 245.5,120.5 Z"/></g>
<g><path style="opacity:1" fill="#6a00ff" d="M 205.5,126.5 C 205.12,128.698 205.787,130.365 207.5,131.5C 205.691,132.481 204.357,133.981 203.5,136C 195.633,140.122 187.633,143.955 179.5,147.5C 178.5,145.5 177.5,143.5 176.5,141.5C 183.414,138.375 190.08,134.708 196.5,130.5C 197.873,130.657 199.207,130.49 200.5,130C 201.789,128.198 203.456,127.031 205.5,126.5 Z"/></g>
<g><path style="opacity:1" fill="#02c1ff" d="M 143.5,112.5 C 145.833,113.167 148.167,113.833 150.5,114.5C 141.78,120.615 132.946,126.615 124,132.5C 112.992,138.408 102.492,144.908 92.5,152C 85.6431,154.608 79.1431,157.775 73,161.5C 70.2343,162.947 68.0677,164.947 66.5,167.5C 63.9531,166.379 62.9531,164.712 63.5,162.5C 71.7394,158.264 79.7394,153.598 87.5,148.5C 93.3802,146.217 98.7136,142.884 103.5,138.5C 114.371,134.571 123.704,128.404 131.5,120C 135.915,118.069 139.915,115.569 143.5,112.5 Z"/></g>
<g><path style="opacity:1" fill="#0169ff" d="M 190.5,98.5 C 191.5,100.167 192.833,101.5 194.5,102.5C 186.04,107.568 177.706,112.901 169.5,118.5C 167.589,119.477 165.589,120.143 163.5,120.5C 151.658,127.252 139.992,134.252 128.5,141.5C 132.344,137.19 137.01,133.69 142.5,131C 149.41,124.101 157.41,118.768 166.5,115C 174.01,109.024 182.01,103.524 190.5,98.5 Z"/></g>
<g><path style="opacity:1" fill="#fe0de3" d="M 246.5,121.5 C 247.162,123.304 247.495,125.304 247.5,127.5C 247.357,130.113 246.69,132.447 245.5,134.5C 244.504,134.414 243.671,134.748 243,135.5C 241.09,139.655 238.923,143.655 236.5,147.5C 234.5,148.167 232.5,148.833 230.5,149.5C 229.729,146.546 229.062,143.546 228.5,140.5C 230.086,139.852 231.753,139.352 233.5,139C 237.359,135.481 241.525,132.314 246,129.5C 246.186,126.601 246.352,123.934 246.5,121.5 Z"/></g>
<g><path style="opacity:1" fill="#0281ff" d="M 190.5,96.5 C 190.5,97.1667 190.5,97.8333 190.5,98.5C 182.01,103.524 174.01,109.024 166.5,115C 157.41,118.768 149.41,124.101 142.5,131C 137.01,133.69 132.344,137.19 128.5,141.5C 116.866,146.572 106.2,153.072 96.5,161C 90.2369,163.68 84.5702,167.18 79.5,171.5C 77.8014,171.62 76.1347,171.954 74.5,172.5C 72.8295,172.332 71.4961,171.665 70.5,170.5C 78.8151,164.047 87.8151,158.547 97.5,154C 117.521,139.747 138.187,126.581 159.5,114.5C 161.43,114.229 162.764,113.229 163.5,111.5C 166.516,110.438 169.516,109.271 172.5,108C 177.397,102.425 183.397,98.5919 190.5,96.5 Z"/></g>
<g><path style="opacity:1" fill="#01daff" d="M 139.5,111.5 C 140.833,111.833 142.167,112.167 143.5,112.5C 139.915,115.569 135.915,118.069 131.5,120C 123.704,128.404 114.371,134.571 103.5,138.5C 98.7136,142.884 93.3802,146.217 87.5,148.5C 79.7394,153.598 71.7394,158.264 63.5,162.5C 62.5,162.167 61.8333,161.5 61.5,160.5C 69.3696,155.367 77.5362,150.7 86,146.5C 88.8222,144.669 91.3222,142.502 93.5,140C 96.8218,138.457 100.322,137.291 104,136.5C 112.149,130.662 120.649,125.162 129.5,120C 131.934,115.972 135.267,113.139 139.5,111.5 Z"/></g>
<g><path style="opacity:1" fill="#003eff" d="M 162.5,125.5 C 162.564,126.365 162.897,127.365 163.5,128.5C 160.689,128.826 158.022,129.659 155.5,131C 149.544,134.628 144.211,138.962 139.5,144C 132.413,148.542 125.079,152.542 117.5,156C 112.261,161.456 105.928,165.123 98.5,167C 97.4293,167.852 96.4293,168.685 95.5,169.5C 94.5,169.5 93.5,169.5 92.5,169.5C 101.085,163.435 110.085,157.935 119.5,153C 126.205,147.988 132.872,142.988 139.5,138C 147.509,134.331 155.175,130.165 162.5,125.5 Z"/></g>
<g><path style="opacity:1" fill="#a200fe" d="M 207.5,131.5 C 208.87,131.856 209.87,132.69 210.5,134C 208.024,141.473 203.19,146.64 196,149.5C 190.702,151.544 185.535,153.877 180.5,156.5C 181.127,157.417 181.461,158.417 181.5,159.5C 160.765,173.532 139.431,186.532 117.5,198.5C 116.087,195.339 114.42,192.339 112.5,189.5C 118.028,185.906 123.361,182.073 128.5,178C 136.267,175.851 143.267,172.185 149.5,167C 152.5,166 155.5,165 158.5,164C 159.167,162.667 159.833,161.333 160.5,160C 165.406,156.911 170.406,154.077 175.5,151.5C 177.371,151.859 178.871,152.859 180,154.5C 179.793,152.249 179.627,149.915 179.5,147.5C 187.633,143.955 195.633,140.122 203.5,136C 204.357,133.981 205.691,132.481 207.5,131.5 Z"/></g>
<g><path style="opacity:1" fill="#02ffe1" d="M 121.5,112.5 C 123.5,113.167 125.5,113.833 127.5,114.5C 107.869,127.927 87.5361,140.427 66.5,152C 64.2968,154.372 61.9635,156.539 59.5,158.5C 56.4823,157.145 55.149,154.812 55.5,151.5C 59.4892,149.854 63.4892,148.187 67.5,146.5C 67.5,145.5 67.5,144.5 67.5,143.5C 68.8734,143.657 70.2068,143.49 71.5,143C 75.1184,140.026 79.1184,137.859 83.5,136.5C 83.5,135.5 83.5,134.5 83.5,133.5C 84.8734,133.657 86.2068,133.49 87.5,133C 93.7195,127.779 100.219,122.946 107,118.5C 111.536,115.664 116.37,113.664 121.5,112.5 Z"/></g>
<g><path style="opacity:1" fill="#ff009f" d="M 236.5,147.5 C 236.16,151.548 234.827,155.215 232.5,158.5C 231.511,155.562 230.844,152.562 230.5,149.5C 232.5,148.833 234.5,148.167 236.5,147.5 Z"/></g>
<g><path style="opacity:0.077" fill="#ff006c" d="M 234.5,157.5 C 235.649,157.791 236.316,158.624 236.5,160C 236.167,160.833 235.833,161.667 235.5,162.5C 234.548,160.955 234.215,159.288 234.5,157.5 Z"/></g>
<g><path style="opacity:1" fill="#2002fe" d="M 165.5,131.5 C 168.076,133.888 169.076,136.888 168.5,140.5C 167.699,142.042 167.366,143.708 167.5,145.5C 160.475,148.678 153.808,152.512 147.5,157C 146.13,158.441 145.13,160.108 144.5,162C 141.419,163.123 138.753,164.789 136.5,167C 130.254,168.789 124.588,171.623 119.5,175.5C 118.614,176.325 118.281,177.325 118.5,178.5C 117.07,178.421 115.736,178.754 114.5,179.5C 112.878,181.641 110.878,183.308 108.5,184.5C 109.184,181.454 109.684,178.454 110,175.5C 107.405,173.923 104.571,172.923 101.5,172.5C 123.322,159.694 144.655,146.028 165.5,131.5 Z"/></g>
<g><path style="opacity:1" fill="#0025ff" d="M 163.5,128.5 C 164.906,128.973 165.573,129.973 165.5,131.5C 144.655,146.028 123.322,159.694 101.5,172.5C 100.358,170.028 98.3579,169.028 95.5,169.5C 96.4293,168.685 97.4293,167.852 98.5,167C 105.928,165.123 112.261,161.456 117.5,156C 125.079,152.542 132.413,148.542 139.5,144C 144.211,138.962 149.544,134.628 155.5,131C 158.022,129.659 160.689,128.826 163.5,128.5 Z"/></g>
<g><path style="opacity:1" fill="#025cff" d="M 163.5,120.5 C 163.167,121.167 162.833,121.833 162.5,122.5C 161.884,123.202 161.884,124.202 162.5,125.5C 155.175,130.165 147.509,134.331 139.5,138C 132.872,142.988 126.205,147.988 119.5,153C 110.085,157.935 101.085,163.435 92.5,169.5C 90.1138,170.298 87.7805,171.298 85.5,172.5C 83.5914,171.652 81.5914,171.318 79.5,171.5C 84.5702,167.18 90.2369,163.68 96.5,161C 106.2,153.072 116.866,146.572 128.5,141.5C 139.992,134.252 151.658,127.252 163.5,120.5 Z"/></g>
<g><path style="opacity:1" fill="#f300fe" d="M 192.5,164.5 C 191.348,163.375 190.348,163.375 189.5,164.5C 189.167,165.167 188.833,165.833 188.5,166.5C 179.424,172.233 170.091,177.567 160.5,182.5C 157.862,181.897 156.529,183.231 156.5,186.5C 142.779,194.537 129.112,202.871 115.5,211.5C 115.957,208.594 116.957,205.928 118.5,203.5C 124.874,201.145 130.874,197.979 136.5,194C 137.167,192.667 137.833,191.333 138.5,190C 141.822,188.457 145.322,187.291 149,186.5C 154.289,182.105 160.123,178.605 166.5,176C 173.174,171.774 179.507,167.107 185.5,162C 186.305,160.887 186.972,159.721 187.5,158.5C 195.822,154.813 197.489,156.813 192.5,164.5 Z"/></g>
<g><path style="opacity:1" fill="#fe00ec" d="M 189.5,164.5 C 190.348,163.375 191.348,163.375 192.5,164.5C 191.649,166.882 190.316,168.882 188.5,170.5C 183.074,173.432 178.074,176.932 173.5,181C 167.478,182.844 161.811,185.51 156.5,189C 152.071,193.388 147.071,197.054 141.5,200C 132.162,204.002 123.162,208.502 114.5,213.5C 114.328,212.508 114.662,211.842 115.5,211.5C 129.112,202.871 142.779,194.537 156.5,186.5C 159.142,186.512 160.475,185.179 160.5,182.5C 170.091,177.567 179.424,172.233 188.5,166.5C 188.435,166.938 188.601,167.272 189,167.5C 190.546,166.497 190.713,165.497 189.5,164.5 Z"/></g>
<g><path style="opacity:1" fill="#5c00fe" d="M 168.5,140.5 C 171.16,144.212 173.494,147.878 175.5,151.5C 170.406,154.077 165.406,156.911 160.5,160C 159.833,161.333 159.167,162.667 158.5,164C 155.5,165 152.5,166 149.5,167C 143.267,172.185 136.267,175.851 128.5,178C 123.361,182.073 118.028,185.906 112.5,189.5C 110.413,188.415 109.08,186.749 108.5,184.5C 110.878,183.308 112.878,181.641 114.5,179.5C 115.736,178.754 117.07,178.421 118.5,178.5C 118.281,177.325 118.614,176.325 119.5,175.5C 124.588,171.623 130.254,168.789 136.5,167C 138.753,164.789 141.419,163.123 144.5,162C 145.13,160.108 146.13,158.441 147.5,157C 153.808,152.512 160.475,148.678 167.5,145.5C 167.366,143.708 167.699,142.042 168.5,140.5 Z"/></g>
<g><path style="opacity:0.973" fill="#21f4f6" d="M 16.5,173.5 C 20.3971,176.609 24.0638,179.943 27.5,183.5C 26.1274,185.207 24.4607,186.54 22.5,187.5C 19.8558,184.227 17.6891,180.56 16,176.5C 15.2599,175.251 15.4265,174.251 16.5,173.5 Z"/></g>
<g><path style="opacity:1" fill="#16d1fe" d="M 27.5,183.5 C 29.1898,183.856 30.1898,184.856 30.5,186.5C 28.9095,188.633 26.9095,190.299 24.5,191.5C 23.3263,190.486 22.6596,189.153 22.5,187.5C 24.4607,186.54 26.1274,185.207 27.5,183.5 Z"/></g>
<g><path style="opacity:1" fill="#d500fe" d="M 187.5,158.5 C 186.972,159.721 186.305,160.887 185.5,162C 179.507,167.107 173.174,171.774 166.5,176C 160.123,178.605 154.289,182.105 149,186.5C 145.322,187.291 141.822,188.457 138.5,190C 137.833,191.333 137.167,192.667 136.5,194C 130.874,197.979 124.874,201.145 118.5,203.5C 117.549,202.081 117.216,200.415 117.5,198.5C 139.431,186.532 160.765,173.532 181.5,159.5C 183.5,159.167 185.5,158.833 187.5,158.5 Z"/></g>
<g><path style="opacity:0.51" fill="#24aefe" d="M 30.5,186.5 C 31.1471,187.274 31.4805,188.274 31.5,189.5C 31.032,192.233 30.3653,194.9 29.5,197.5C 29.19,198.738 28.69,198.738 28,197.5C 26.6063,195.612 25.4396,193.612 24.5,191.5C 26.9095,190.299 28.9095,188.633 30.5,186.5 Z"/></g>
<g><path style="opacity:1" fill="#ff00bc" d="M 185.5,174.5 C 179.643,179.743 174.309,185.409 169.5,191.5C 159.99,196.273 150.99,202.107 142.5,209C 135.357,212.13 128.69,216.13 122.5,221C 121.552,221.483 120.552,221.649 119.5,221.5C 118.094,221.027 117.427,220.027 117.5,218.5C 123.363,215.465 129.196,212.132 135,208.5C 142.682,203.067 150.849,198.233 159.5,194C 161.833,191.667 164.167,189.333 166.5,187C 171.725,185.888 175.725,183.055 178.5,178.5C 180.61,176.711 182.944,175.378 185.5,174.5 Z"/></g>
<g><path style="opacity:1" fill="#fe009f" d="M 169.5,191.5 C 170.11,192.391 170.443,193.391 170.5,194.5C 166.343,195.411 163.009,197.578 160.5,201C 146.759,208.917 133.426,217.417 120.5,226.5C 120.634,224.708 120.301,223.042 119.5,221.5C 120.552,221.649 121.552,221.483 122.5,221C 128.69,216.13 135.357,212.13 142.5,209C 150.99,202.107 159.99,196.273 169.5,191.5 Z"/></g>
<g><path style="opacity:1" fill="#ff00d8" d="M 188.5,170.5 C 188.262,172.404 187.262,173.738 185.5,174.5C 182.944,175.378 180.61,176.711 178.5,178.5C 175.725,183.055 171.725,185.888 166.5,187C 164.167,189.333 161.833,191.667 159.5,194C 150.849,198.233 142.682,203.067 135,208.5C 129.196,212.132 123.363,215.465 117.5,218.5C 116.11,217.101 115.11,215.434 114.5,213.5C 123.162,208.502 132.162,204.002 141.5,200C 147.071,197.054 152.071,193.388 156.5,189C 161.811,185.51 167.478,182.844 173.5,181C 178.074,176.932 183.074,173.432 188.5,170.5 Z"/></g>
<g><path style="opacity:0.823" fill="#fe0006" d="M 187.5,201.5 C 187.547,209.616 184.547,216.783 178.5,223C 176.175,223.492 174.842,222.492 174.5,220C 175.285,218.049 176.285,216.215 177.5,214.5C 176.167,213.167 176.167,211.833 177.5,210.5C 181.476,208.19 184.809,205.19 187.5,201.5 Z"/></g>
<g><path style="opacity:1" fill="#ff0086" d="M 170.5,194.5 C 170.5,195.833 170.5,197.167 170.5,198.5C 164.268,201.804 158.934,206.304 154.5,212C 142.996,216.23 132.329,222.063 122.5,229.5C 121.599,228.71 120.932,227.71 120.5,226.5C 133.426,217.417 146.759,208.917 160.5,201C 163.009,197.578 166.343,195.411 170.5,194.5 Z"/></g>
<g><path style="opacity:1" fill="#ff0067" d="M 170.5,198.5 C 171.153,199.807 171.82,201.14 172.5,202.5C 171.754,203.736 171.421,205.07 171.5,206.5C 166.51,209.386 161.343,212.053 156,214.5C 151.658,217.083 147.825,220.249 144.5,224C 137.336,225.696 131.336,229.196 126.5,234.5C 124.633,233.24 123.3,231.573 122.5,229.5C 132.329,222.063 142.996,216.23 154.5,212C 158.934,206.304 164.268,201.804 170.5,198.5 Z"/></g>
<g><path style="opacity:1" fill="#ff0039" d="M 171.5,206.5 C 171.321,208.606 170.321,210.272 168.5,211.5C 163.614,212.709 160.948,215.709 160.5,220.5C 150.934,225.748 141.934,231.748 133.5,238.5C 131.621,239.341 129.621,239.675 127.5,239.5C 127.634,237.708 127.301,236.042 126.5,234.5C 131.336,229.196 137.336,225.696 144.5,224C 147.825,220.249 151.658,217.083 156,214.5C 161.343,212.053 166.51,209.386 171.5,206.5 Z"/></g>
<g><path style="opacity:1" fill="#fe0014" d="M 160.5,220.5 C 160.368,223.797 158.702,225.463 155.5,225.5C 151.017,235.039 143.684,239.372 133.5,238.5C 141.934,231.748 150.934,225.748 160.5,220.5 Z"/></g>
</svg>
