<?xml version="1.0" encoding="UTF-8"?>
<!DOCTYPE svg PUBLIC "-//W3C//DTD SVG 1.1//EN" "http://www.w3.org/Graphics/SVG/1.1/DTD/svg11.dtd">
<svg xmlns="http://www.w3.org/2000/svg" version="1.1" width="256px" height="256px" style="shape-rendering:geometricPrecision; text-rendering:geometricPrecision; image-rendering:optimizeQuality; fill-rule:evenodd; clip-rule:evenodd" xmlns:xlink="http://www.w3.org/1999/xlink">
<g><path style="opacity:0.545" fill="#fcfdf9" d="M 120.5,39.5 C 141.275,38.187 157.108,46.187 168,63.5C 178.644,87.3039 174.144,107.471 154.5,124C 131.457,137.51 110.623,134.676 92,115.5C 75.9747,91.1794 78.4747,69.0128 99.5,49C 106.106,44.6924 113.106,41.5258 120.5,39.5 Z"/></g>
<g><path style="opacity:0.988" fill="#ff8f67" d="M 134.5,47.5 C 134.167,47.5 133.833,47.5 133.5,47.5C 132.167,47.5 130.833,47.5 129.5,47.5C 125.102,47.2941 120.768,47.6274 116.5,48.5C 116.611,47.8826 116.944,47.3826 117.5,47C 123.349,46.1816 129.015,46.3483 134.5,47.5 Z"/></g>
<g><path style="opacity:0.984" fill="#ff5647" d="M 108.5,51.5 C 106.731,54.6801 104.064,56.6801 100.5,57.5C 102.8,55.016 105.467,53.016 108.5,51.5 Z"/></g>
<g><path style="opacity:0.914" fill="#ff6e5f" d="M 100.5,57.5 C 100.167,59.8333 98.8333,61.1667 96.5,61.5C 97.5,59.8333 98.8333,58.5 100.5,57.5 Z"/></g>
<g><path style="opacity:1" fill="#ff3703" d="M 129.5,47.5 C 125.761,50.0027 122.095,52.836 118.5,56C 112.653,56.5904 107.986,59.2571 104.5,64C 100.949,66.0285 97.449,68.1951 94,70.5C 94.6743,67.5311 95.5076,64.5311 96.5,61.5C 98.8333,61.1667 100.167,59.8333 100.5,57.5C 104.064,56.6801 106.731,54.6801 108.5,51.5C 110.848,49.9028 113.514,48.9028 116.5,48.5C 120.768,47.6274 125.102,47.2941 129.5,47.5 Z"/></g>
<g><path style="opacity:1" fill="#ff7000" d="M 133.5,47.5 C 133.833,47.5 134.167,47.5 134.5,47.5C 134.649,48.552 134.483,49.552 134,50.5C 129.363,54.5597 124.863,58.7263 120.5,63C 118.283,64.2754 115.949,65.2754 113.5,66C 107.753,71.4068 101.42,76.0735 94.5,80C 93.2341,80.3095 92.0674,80.8095 91,81.5C 90.6667,81.1667 90.3333,80.8333 90,80.5C 89.9822,78.2028 90.1489,75.8695 90.5,73.5C 90.8333,73.5 91.1667,73.5 91.5,73.5C 91.56,74.0431 91.8933,74.3764 92.5,74.5C 104.029,68.5723 114.696,61.4056 124.5,53C 127.376,52.5621 130.043,51.5621 132.5,50C 133.252,49.3292 133.586,48.4959 133.5,47.5 Z"/></g>
<g><path style="opacity:1" fill="#ff9508" d="M 134.5,47.5 C 136.786,47.595 138.786,48.2616 140.5,49.5C 132.892,58.9768 123.559,65.8102 112.5,70C 110.981,71.3513 109.648,72.8513 108.5,74.5C 100.997,78.5634 94.3308,83.5634 88.5,89.5C 88.3342,84.8215 88.5008,80.1548 89,75.5C 89.2784,74.5842 89.7784,73.9175 90.5,73.5C 90.1489,75.8695 89.9822,78.2028 90,80.5C 90.3333,80.8333 90.6667,81.1667 91,81.5C 92.0674,80.8095 93.2341,80.3095 94.5,80C 101.42,76.0735 107.753,71.4068 113.5,66C 115.949,65.2754 118.283,64.2754 120.5,63C 124.863,58.7263 129.363,54.5597 134,50.5C 134.483,49.552 134.649,48.552 134.5,47.5 Z"/></g>
<g><path style="opacity:1" fill="#ff5207" d="M 129.5,47.5 C 130.833,47.5 132.167,47.5 133.5,47.5C 133.586,48.4959 133.252,49.3292 132.5,50C 130.043,51.5621 127.376,52.5621 124.5,53C 114.696,61.4056 104.029,68.5723 92.5,74.5C 91.8933,74.3764 91.56,74.0431 91.5,73.5C 91.6678,68.7752 93.3344,64.7752 96.5,61.5C 95.5076,64.5311 94.6743,67.5311 94,70.5C 97.449,68.1951 100.949,66.0285 104.5,64C 107.986,59.2571 112.653,56.5904 118.5,56C 122.095,52.836 125.761,50.0027 129.5,47.5 Z"/></g>
<g><path style="opacity:1" fill="#e0fe03" d="M 153.5,56.5 C 155.167,57.5 156.5,58.8333 157.5,60.5C 156.833,60.5 156.167,60.5 155.5,60.5C 155.103,59.475 154.437,59.3083 153.5,60C 143.587,67.6357 133.253,74.8024 122.5,81.5C 114.726,88.5602 106.726,95.3935 98.5,102C 97.2068,102.49 95.8734,102.657 94.5,102.5C 94.5,103.833 94.5,105.167 94.5,106.5C 93.3263,105.486 92.6596,104.153 92.5,102.5C 100.604,95.7432 109.271,89.4098 118.5,83.5C 120.872,79.6169 124.205,77.1169 128.5,76C 130.372,73.598 132.372,71.4313 134.5,69.5C 141.174,65.7121 147.507,61.3787 153.5,56.5 Z"/></g>
<g><path style="opacity:0.941" fill="#c6ffbe" d="M 165.5,74.5 C 167.28,75.9899 167.946,77.9899 167.5,80.5C 167.167,80.5 166.833,80.5 166.5,80.5C 166.483,78.4352 166.15,76.4352 165.5,74.5 Z"/></g>
<g><path style="opacity:1" fill="#62ff03" d="M 160.5,69.5 C 162.5,69.5 163.5,70.5 163.5,72.5C 156.185,77.4948 148.518,81.9948 140.5,86C 139.743,87.5122 138.743,88.8455 137.5,90C 130.401,92.8761 124.401,97.2094 119.5,103C 114.476,106.698 109.476,110.365 104.5,114C 105.167,114.333 105.833,114.667 106.5,115C 105.316,116.145 105.316,117.312 106.5,118.5C 104.847,118.34 103.514,117.674 102.5,116.5C 102.167,115.833 101.833,115.167 101.5,114.5C 101.744,111.737 103.077,109.571 105.5,108C 107.952,107.71 110.285,107.044 112.5,106C 113.682,103.739 115.349,101.905 117.5,100.5C 122.366,97.1358 127.366,93.9691 132.5,91C 142.082,84.0554 151.416,76.8888 160.5,69.5 Z"/></g>
<g><path style="opacity:1" fill="#fcf202" d="M 147.5,52.5 C 149.882,53.3507 151.882,54.684 153.5,56.5C 147.507,61.3787 141.174,65.7121 134.5,69.5C 129.676,72.4132 124.676,75.0799 119.5,77.5C 113.76,83.5439 107.093,88.3772 99.5,92C 97.4564,95.1843 94.7897,97.6843 91.5,99.5C 90.8333,99.5 90.5,99.1667 90.5,98.5C 90.238,97.0222 90.5713,95.6888 91.5,94.5C 94.6296,91.5239 98.2963,89.6905 102.5,89C 108.609,84.9594 114.276,80.4594 119.5,75.5C 120.795,74.9017 122.128,74.4017 123.5,74C 130.191,68.6363 136.858,63.303 143.5,58C 144.721,55.9663 146.055,54.133 147.5,52.5 Z"/></g>
<g><path style="opacity:1" fill="#7cff00" d="M 160.5,69.5 C 151.416,76.8888 142.082,84.0554 132.5,91C 127.366,93.9691 122.366,97.1358 117.5,100.5C 115.349,101.905 113.682,103.739 112.5,106C 110.285,107.044 107.952,107.71 105.5,108C 103.077,109.571 101.744,111.737 101.5,114.5C 100.167,113.833 99.1667,112.833 98.5,111.5C 98.3505,110.448 98.5172,109.448 99,108.5C 100.518,107.837 101.685,106.837 102.5,105.5C 103.552,105.649 104.552,105.483 105.5,105C 111.147,100.177 117.147,95.8434 123.5,92C 127.859,91.4976 131.192,89.3309 133.5,85.5C 141.397,81.0587 148.73,75.8921 155.5,70C 157.139,68.4807 158.806,68.314 160.5,69.5 Z"/></g>
<g><path style="opacity:1" fill="#ffb401" d="M 140.5,49.5 C 142.553,49.4021 144.22,50.0687 145.5,51.5C 145.586,52.4959 145.252,53.3292 144.5,54C 141.499,53.9056 139.499,55.2389 138.5,58C 121.657,69.3601 104.99,80.8601 88.5,92.5C 88.5,91.5 88.5,90.5 88.5,89.5C 94.3308,83.5634 100.997,78.5634 108.5,74.5C 109.648,72.8513 110.981,71.3513 112.5,70C 123.559,65.8102 132.892,58.9768 140.5,49.5 Z"/></g>
<g><path style="opacity:1" fill="#f2fd01" d="M 134.5,69.5 C 132.372,71.4313 130.372,73.598 128.5,76C 124.205,77.1169 120.872,79.6169 118.5,83.5C 109.271,89.4098 100.604,95.7432 92.5,102.5C 91.596,101.791 91.2627,100.791 91.5,99.5C 94.7897,97.6843 97.4564,95.1843 99.5,92C 107.093,88.3772 113.76,83.5439 119.5,77.5C 124.676,75.0799 129.676,72.4132 134.5,69.5 Z"/></g>
<g><path style="opacity:1" fill="#c9ff01" d="M 155.5,60.5 C 145.885,69.5938 135.218,77.4271 123.5,84C 118.313,88.0971 113.313,92.4305 108.5,97C 106.5,98 104.5,99 102.5,100C 100.622,103.35 98.6216,106.517 96.5,109.5C 96.1667,109.5 95.8333,109.5 95.5,109.5C 95.4431,108.391 95.1098,107.391 94.5,106.5C 94.5,105.167 94.5,103.833 94.5,102.5C 95.8734,102.657 97.2068,102.49 98.5,102C 106.726,95.3935 114.726,88.5602 122.5,81.5C 133.253,74.8024 143.587,67.6357 153.5,60C 154.437,59.3083 155.103,59.475 155.5,60.5 Z"/></g>
<g><path style="opacity:1" fill="#ffd510" d="M 145.5,51.5 C 146.492,51.3284 147.158,51.6618 147.5,52.5C 146.055,54.133 144.721,55.9663 143.5,58C 136.858,63.303 130.191,68.6363 123.5,74C 122.128,74.4017 120.795,74.9017 119.5,75.5C 114.276,80.4594 108.609,84.9594 102.5,89C 98.2963,89.6905 94.6296,91.5239 91.5,94.5C 90.5713,95.6888 90.238,97.0222 90.5,98.5C 89.2616,96.7857 88.595,94.7857 88.5,92.5C 104.99,80.8601 121.657,69.3601 138.5,58C 139.499,55.2389 141.499,53.9056 144.5,54C 145.252,53.3292 145.586,52.4959 145.5,51.5 Z"/></g>
<g><path style="opacity:1" fill="#98ff03" d="M 160.5,64.5 C 162.56,67.2402 164.226,70.2402 165.5,73.5C 165.167,73.5 164.833,73.5 164.5,73.5C 163.833,73.5 163.5,73.1667 163.5,72.5C 163.5,70.5 162.5,69.5 160.5,69.5C 158.806,68.314 157.139,68.4807 155.5,70C 148.73,75.8921 141.397,81.0587 133.5,85.5C 131.192,89.3309 127.859,91.4976 123.5,92C 117.147,95.8434 111.147,100.177 105.5,105C 104.552,105.483 103.552,105.649 102.5,105.5C 117.896,94.2818 132.896,82.4484 147.5,70C 151.56,67.4085 155.894,65.5751 160.5,64.5 Z"/></g>
<g><path style="opacity:1" fill="#acff02" d="M 155.5,60.5 C 156.167,60.5 156.833,60.5 157.5,60.5C 159.262,61.2623 160.262,62.5956 160.5,64.5C 155.894,65.5751 151.56,67.4085 147.5,70C 132.896,82.4484 117.896,94.2818 102.5,105.5C 101.685,106.837 100.518,107.837 99,108.5C 98.5172,109.448 98.3505,110.448 98.5,111.5C 97.5,111.167 96.8333,110.5 96.5,109.5C 98.6216,106.517 100.622,103.35 102.5,100C 104.5,99 106.5,98 108.5,97C 113.313,92.4305 118.313,88.0971 123.5,84C 135.218,77.4271 145.885,69.5938 155.5,60.5 Z"/></g>
<g><path style="opacity:1" fill="#13ff09" d="M 164.5,73.5 C 164.833,73.5 165.167,73.5 165.5,73.5C 165.5,73.8333 165.5,74.1667 165.5,74.5C 166.15,76.4352 166.483,78.4352 166.5,80.5C 166.5,82.8333 166.5,85.1667 166.5,87.5C 156.373,97.0647 145.04,104.898 132.5,111C 130.973,113.439 128.973,115.439 126.5,117C 123.412,117.579 120.745,118.913 118.5,121C 115.854,121.497 113.187,121.664 110.5,121.5C 109.833,121.5 109.5,121.167 109.5,120.5C 109.047,119.542 108.381,118.708 107.5,118C 110.531,115.936 112.864,113.269 114.5,110C 118.032,108.818 121.366,107.152 124.5,105C 128.776,101.728 132.776,98.061 136.5,94C 138.167,93.6667 139.833,93.3333 141.5,93C 145.797,90.6961 149.464,87.6961 152.5,84C 156.03,81.3045 159.696,78.8045 163.5,76.5C 164.386,75.675 164.719,74.675 164.5,73.5 Z"/></g>
<g><path style="opacity:1" fill="#44ff01" d="M 163.5,72.5 C 163.5,73.1667 163.833,73.5 164.5,73.5C 164.719,74.675 164.386,75.675 163.5,76.5C 159.696,78.8045 156.03,81.3045 152.5,84C 149.464,87.6961 145.797,90.6961 141.5,93C 139.833,93.3333 138.167,93.6667 136.5,94C 132.776,98.061 128.776,101.728 124.5,105C 121.366,107.152 118.032,108.818 114.5,110C 112.864,113.269 110.531,115.936 107.5,118C 108.381,118.708 109.047,119.542 109.5,120.5C 107.973,120.573 106.973,119.906 106.5,118.5C 105.316,117.312 105.316,116.145 106.5,115C 105.833,114.667 105.167,114.333 104.5,114C 109.476,110.365 114.476,106.698 119.5,103C 124.401,97.2094 130.401,92.8761 137.5,90C 138.743,88.8455 139.743,87.5122 140.5,86C 148.518,81.9948 156.185,77.4948 163.5,72.5 Z"/></g>
<g><path style="opacity:0.949" fill="#dbffbb" d="M 95.5,109.5 C 95.8333,109.5 96.1667,109.5 96.5,109.5C 96.8333,110.5 97.5,111.167 98.5,111.5C 99.1667,112.833 100.167,113.833 101.5,114.5C 101.833,115.167 102.167,115.833 102.5,116.5C 99.1667,115.167 96.8333,112.833 95.5,109.5 Z"/></g>
<g><path style="opacity:1" fill="#04fe84" d="M 161.5,104.5 C 161.5,105.167 161.5,105.833 161.5,106.5C 157.268,109.055 152.935,111.555 148.5,114C 145.175,117.647 141.508,120.814 137.5,123.5C 134.236,124.324 130.902,124.658 127.5,124.5C 132.678,121.671 138.011,118.838 143.5,116C 144.743,114.846 145.743,113.512 146.5,112C 151.595,109.452 156.595,106.952 161.5,104.5 Z"/></g>
<g><path style="opacity:1" fill="#07ff3c" d="M 166.5,87.5 C 164.949,90.619 163.949,93.9524 163.5,97.5C 159.057,100.224 154.391,102.724 149.5,105C 147.457,107.009 145.457,109.009 143.5,111C 137.119,114.517 131.119,118.517 125.5,123C 122.854,123.497 120.187,123.664 117.5,123.5C 115.784,123.371 114.117,123.038 112.5,122.5C 111.508,122.672 110.842,122.338 110.5,121.5C 113.187,121.664 115.854,121.497 118.5,121C 120.745,118.913 123.412,117.579 126.5,117C 128.973,115.439 130.973,113.439 132.5,111C 145.04,104.898 156.373,97.0647 166.5,87.5 Z"/></g>
<g><path style="opacity:1" fill="#10ff65" d="M 166.5,80.5 C 166.833,80.5 167.167,80.5 167.5,80.5C 168.289,89.3466 166.289,97.3466 161.5,104.5C 156.595,106.952 151.595,109.452 146.5,112C 145.743,113.512 144.743,114.846 143.5,116C 138.011,118.838 132.678,121.671 127.5,124.5C 123.958,124.813 120.625,124.479 117.5,123.5C 120.187,123.664 122.854,123.497 125.5,123C 131.119,118.517 137.119,114.517 143.5,111C 145.457,109.009 147.457,107.009 149.5,105C 154.391,102.724 159.057,100.224 163.5,97.5C 163.949,93.9524 164.949,90.619 166.5,87.5C 166.5,85.1667 166.5,82.8333 166.5,80.5 Z"/></g>
<g><path style="opacity:1" fill="#2cffa3" d="M 161.5,106.5 C 161.631,107.239 161.464,107.906 161,108.5C 156.446,112.541 151.946,116.708 147.5,121C 145.846,121.608 144.179,122.108 142.5,122.5C 140.883,123.038 139.216,123.371 137.5,123.5C 141.508,120.814 145.175,117.647 148.5,114C 152.935,111.555 157.268,109.055 161.5,106.5 Z"/></g>
<g><path style="opacity:0.969" fill="#93ffbb" d="M 112.5,122.5 C 114.117,123.038 115.784,123.371 117.5,123.5C 120.625,124.479 123.958,124.813 127.5,124.5C 130.902,124.658 134.236,124.324 137.5,123.5C 139.216,123.371 140.883,123.038 142.5,122.5C 141.319,124.067 139.653,124.901 137.5,125C 130.5,125.667 123.5,125.667 116.5,125C 114.68,124.8 113.347,123.966 112.5,122.5 Z"/></g>
<g><path style="opacity:0.547" fill="#fcfcfd" d="M 112.5,138.5 C 142.616,135.747 169.95,142.913 194.5,160C 202.421,165.919 208.921,173.086 214,181.5C 215.066,187.269 215.566,193.102 215.5,199C 215.616,204.275 215.116,209.442 214,214.5C 156.904,215.664 99.7372,215.831 42.5,215C 41.6667,214.167 40.8333,213.333 40,212.5C 35.3769,192.975 40.5436,176.809 55.5,164C 72.6098,151.109 91.6098,142.609 112.5,138.5 Z"/></g>
<g><path style="opacity:0.969" fill="#c7c5ff" d="M 160.5,150.5 C 163.522,150.804 166.522,151.304 169.5,152C 170.381,152.708 171.047,153.542 171.5,154.5C 169.883,153.962 168.216,153.629 166.5,153.5C 165.791,152.596 164.791,152.263 163.5,152.5C 162.5,151.833 161.5,151.167 160.5,150.5 Z"/></g>
<g><path style="opacity:1" fill="#17ffc8" d="M 106.5,147.5 C 106.5,146.833 106.833,146.5 107.5,146.5C 110.572,146.183 113.572,146.516 116.5,147.5C 111.385,150.454 106.718,153.954 102.5,158C 95.6975,159.883 90.6975,163.883 87.5,170C 84.0386,171.643 81.0386,173.81 78.5,176.5C 76.4559,177.031 74.7893,178.198 73.5,180C 71.444,180.311 69.444,180.811 67.5,181.5C 62.3627,185.616 57.0294,189.449 51.5,193C 50.2341,193.309 49.0674,193.809 48,194.5C 47.7216,193.584 47.2216,192.918 46.5,192.5C 46.3359,189.813 46.5026,187.146 47,184.5C 47.2784,183.584 47.7784,182.918 48.5,182.5C 48.3259,184.861 47.9926,187.194 47.5,189.5C 52.4345,187.699 57.1012,185.366 61.5,182.5C 66.1441,179.23 71.1441,176.396 76.5,174C 88.181,164.832 100.181,156.166 112.5,148C 110.527,147.505 108.527,147.338 106.5,147.5 Z"/></g>
<g><path style="opacity:1" fill="#0dffb2" d="M 106.5,147.5 C 108.527,147.338 110.527,147.505 112.5,148C 100.181,156.166 88.181,164.832 76.5,174C 71.1441,176.396 66.1441,179.23 61.5,182.5C 63.3008,180.862 64.9675,179.029 66.5,177C 78.0933,168.152 89.76,159.485 101.5,151C 102.706,149.982 102.373,149.482 100.5,149.5C 98.5466,150.156 96.5466,150.489 94.5,150.5C 98.1997,148.755 102.2,147.755 106.5,147.5 Z"/></g>
<g><path style="opacity:0.961" fill="#d1bdff" d="M 172.5,154.5 C 174.967,154.755 176.967,155.755 178.5,157.5C 177.391,157.443 176.391,157.11 175.5,156.5C 174.833,156.5 174.167,156.5 173.5,156.5C 173.167,155.833 172.833,155.167 172.5,154.5 Z"/></g>
<g><path style="opacity:0.918" fill="#cfa9ff" d="M 178.5,157.5 C 180.027,157.427 181.027,158.094 181.5,159.5C 181.167,159.5 180.833,159.5 180.5,159.5C 179.5,159.167 178.833,158.5 178.5,157.5 Z"/></g>
<g><path style="opacity:1" fill="#02eefe" d="M 130.5,145.5 C 129.952,146.688 129.619,147.855 129.5,149C 125.524,151.32 121.857,153.987 118.5,157C 112.158,159.224 106.491,162.391 101.5,166.5C 101.971,165.099 102.638,163.766 103.5,162.5C 108.304,160.018 112.637,156.852 116.5,153C 121.093,150.206 125.76,147.706 130.5,145.5 Z"/></g>
<g><path style="opacity:1" fill="#0278ff" d="M 151.5,148.5 C 153.099,148.232 154.432,148.566 155.5,149.5C 152.753,149.187 150.086,149.52 147.5,150.5C 141.833,155.167 136.167,159.833 130.5,164.5C 123.059,167.721 116.059,171.721 109.5,176.5C 111.458,173.876 113.791,171.542 116.5,169.5C 125.515,164.633 133.848,158.8 141.5,152C 144.336,149.416 147.669,148.249 151.5,148.5 Z"/></g>
<g><path style="opacity:1" fill="#21ff77" d="M 51.5,178.5 C 53.8926,174.598 56.8926,171.098 60.5,168C 65.8877,163.977 71.5544,160.477 77.5,157.5C 81.0652,156.192 84.7319,155.359 88.5,155C 86.9991,156.252 85.3325,157.252 83.5,158C 75.0587,168.421 64.5587,176.254 52,181.5C 51.5172,180.552 51.3505,179.552 51.5,178.5 Z"/></g>
<g><path style="opacity:1" fill="#1cff9a" d="M 61.5,182.5 C 57.1012,185.366 52.4345,187.699 47.5,189.5C 47.9926,187.194 48.3259,184.861 48.5,182.5C 49.0256,180.77 50.0256,179.436 51.5,178.5C 51.3505,179.552 51.5172,180.552 52,181.5C 64.5587,176.254 75.0587,168.421 83.5,158C 85.3325,157.252 86.9991,156.252 88.5,155C 84.7319,155.359 81.0652,156.192 77.5,157.5C 78.0577,156.21 79.0577,155.377 80.5,155C 85.1437,153.178 89.8104,151.678 94.5,150.5C 96.5466,150.489 98.5466,150.156 100.5,149.5C 102.373,149.482 102.706,149.982 101.5,151C 89.76,159.485 78.0933,168.152 66.5,177C 64.9675,179.029 63.3008,180.862 61.5,182.5 Z"/></g>
<g><path style="opacity:1" fill="#14fee0" d="M 107.5,146.5 C 111.298,145.517 115.298,145.183 119.5,145.5C 120.978,145.238 122.311,145.571 123.5,146.5C 117.693,150.474 112.026,154.64 106.5,159C 104.833,159.333 103.167,159.667 101.5,160C 100.047,162.114 98.0467,163.448 95.5,164C 91.3115,170.102 85.6449,174.269 78.5,176.5C 81.0386,173.81 84.0386,171.643 87.5,170C 90.6975,163.883 95.6975,159.883 102.5,158C 106.718,153.954 111.385,150.454 116.5,147.5C 113.572,146.516 110.572,146.183 107.5,146.5 Z"/></g>
<g><path style="opacity:1" fill="#0051ff" d="M 155.5,150.5 C 154.04,152.463 152.373,154.296 150.5,156C 145.652,158.256 140.985,160.756 136.5,163.5C 139.902,160.781 142.902,157.614 145.5,154C 148.561,151.965 151.895,150.799 155.5,150.5 Z"/></g>
<g><path style="opacity:1" fill="#06c1ff" d="M 145.5,146.5 C 146.791,146.263 147.791,146.596 148.5,147.5C 142.959,146.376 138.626,148.042 135.5,152.5C 131.672,154.579 127.672,156.412 123.5,158C 115.142,163.513 107.142,169.513 99.5,176C 97.3921,176.36 95.3921,177.027 93.5,178C 87.5694,182.584 82.2361,187.584 77.5,193C 74.8333,194 72.1667,195 69.5,196C 66.7183,200.781 62.7183,204.114 57.5,206C 56.4019,206.77 56.4019,207.603 57.5,208.5C 56.5,208.5 55.5,208.5 54.5,208.5C 54.281,207.325 54.6143,206.325 55.5,205.5C 59.5396,201.372 63.873,197.706 68.5,194.5C 71.9637,191.262 75.9637,188.762 80.5,187C 84.4243,181.711 89.4243,177.878 95.5,175.5C 108.317,166.252 120.984,156.752 133.5,147C 137.486,146.501 141.486,146.334 145.5,146.5 Z"/></g>
<g><path style="opacity:1" fill="#0468ff" d="M 155.5,149.5 C 157.099,149.232 158.432,149.566 159.5,150.5C 158.167,150.5 156.833,150.5 155.5,150.5C 151.895,150.799 148.561,151.965 145.5,154C 142.902,157.614 139.902,160.781 136.5,163.5C 133.738,164.38 131.071,165.546 128.5,167C 124.869,169.624 121.536,172.458 118.5,175.5C 108.071,181.56 98.0711,188.394 88.5,196C 87.552,196.483 86.552,196.649 85.5,196.5C 89.7648,193.906 93.4314,190.572 96.5,186.5C 100.74,182.899 105.074,179.566 109.5,176.5C 116.059,171.721 123.059,167.721 130.5,164.5C 136.167,159.833 141.833,155.167 147.5,150.5C 150.086,149.52 152.753,149.187 155.5,149.5 Z"/></g>
<g><path style="opacity:1" fill="#1b93ff" d="M 148.5,147.5 C 149.791,147.263 150.791,147.596 151.5,148.5C 147.669,148.249 144.336,149.416 141.5,152C 133.848,158.8 125.515,164.633 116.5,169.5C 113.791,171.542 111.458,173.876 109.5,176.5C 105.074,179.566 100.74,182.899 96.5,186.5C 93.5755,186.46 90.9088,187.293 88.5,189C 81.3107,195.024 73.9774,200.857 66.5,206.5C 68.9329,208.054 71.5995,208.72 74.5,208.5C 77.8333,208.5 81.1667,208.5 84.5,208.5C 85.8333,208.5 87.1667,208.5 88.5,208.5C 88.5,208.833 88.5,209.167 88.5,209.5C 81.1667,209.5 73.8333,209.5 66.5,209.5C 66.1583,208.662 65.4916,208.328 64.5,208.5C 63.3677,206.533 63.7011,204.7 65.5,203C 72.3425,200.922 77.6759,196.922 81.5,191C 89.6551,186.299 96.9884,180.632 103.5,174C 111.795,170.797 119.129,166.13 125.5,160C 129.739,158.662 133.073,156.162 135.5,152.5C 138.626,148.042 142.959,146.376 148.5,147.5 Z"/></g>
<g><path style="opacity:1" fill="#8000ff" d="M 175.5,156.5 C 176.391,157.11 177.391,157.443 178.5,157.5C 178.833,158.5 179.5,159.167 180.5,159.5C 183.481,163.928 182.147,166.595 176.5,167.5C 165.8,177.031 154.133,185.198 141.5,192C 140.833,193.333 140.167,194.667 139.5,196C 132.517,198.828 126.184,202.661 120.5,207.5C 119.508,207.328 118.842,207.662 118.5,208.5C 116.5,208.5 114.5,208.5 112.5,208.5C 116.373,206.653 120.04,204.32 123.5,201.5C 135.304,191.763 147.304,182.263 159.5,173C 164.334,169.748 169.334,166.748 174.5,164C 177.969,161.801 178.302,159.301 175.5,156.5 Z"/></g>
<g><path style="opacity:1" fill="#0335ff" d="M 155.5,150.5 C 156.833,150.5 158.167,150.5 159.5,150.5C 159.833,150.5 160.167,150.5 160.5,150.5C 161.5,151.167 162.5,151.833 163.5,152.5C 161.473,152.338 159.473,152.505 157.5,153C 149.455,160.047 141.122,166.713 132.5,173C 123.971,175.773 116.971,180.773 111.5,188C 104.564,191.94 97.8971,196.273 91.5,201C 89.6499,203.018 87.6499,204.851 85.5,206.5C 85.9569,207.298 86.6236,207.631 87.5,207.5C 92.1667,207.5 96.8333,207.5 101.5,207.5C 101.5,207.833 101.5,208.167 101.5,208.5C 97.1667,208.5 92.8333,208.5 88.5,208.5C 87.1667,208.5 85.8333,208.5 84.5,208.5C 82.7809,207.978 81.4475,206.978 80.5,205.5C 83.9262,203.924 87.2595,202.091 90.5,200C 98.1735,194.285 105.84,188.619 113.5,183C 121.435,176.668 129.101,170.168 136.5,163.5C 140.985,160.756 145.652,158.256 150.5,156C 152.373,154.296 154.04,152.463 155.5,150.5 Z"/></g>
<g><path style="opacity:1" fill="#08ddfe" d="M 130.5,145.5 C 132.167,145.5 133.833,145.5 135.5,145.5C 139.042,145.187 142.375,145.521 145.5,146.5C 141.486,146.334 137.486,146.501 133.5,147C 120.984,156.752 108.317,166.252 95.5,175.5C 89.4243,177.878 84.4243,181.711 80.5,187C 75.9637,188.762 71.9637,191.262 68.5,194.5C 65.5,195.833 62.5,197.167 59.5,198.5C 66.2906,192.554 73.2906,186.721 80.5,181C 81.2524,180.329 81.5858,179.496 81.5,178.5C 88.4317,174.893 95.0984,170.893 101.5,166.5C 106.491,162.391 112.158,159.224 118.5,157C 121.857,153.987 125.524,151.32 129.5,149C 129.619,147.855 129.952,146.688 130.5,145.5 Z"/></g>
<g><path style="opacity:1" fill="#fb02f3" d="M 191.5,166.5 C 192.833,167.5 194.167,168.5 195.5,169.5C 194.797,171.716 193.464,173.549 191.5,175C 176.286,186.232 161.286,197.399 146.5,208.5C 144.167,208.5 141.833,208.5 139.5,208.5C 140.714,206.851 142.047,205.185 143.5,203.5C 149.437,199.074 155.77,195.241 162.5,192C 165.87,186.959 170.537,183.959 176.5,183C 181.38,177.291 186.38,171.791 191.5,166.5 Z"/></g>
<g><path style="opacity:1" fill="#2601ff" d="M 166.5,153.5 C 168.216,153.629 169.883,153.962 171.5,154.5C 171.833,154.5 172.167,154.5 172.5,154.5C 172.833,155.167 173.167,155.833 173.5,156.5C 172.207,159.66 170.207,162.493 167.5,165C 164.167,167.667 160.833,170.333 157.5,173C 155.222,173.986 152.889,174.82 150.5,175.5C 140.546,182.833 130.879,190.666 121.5,199C 117.513,201.233 113.513,203.567 109.5,206C 106.883,206.822 104.216,207.322 101.5,207.5C 96.8333,207.5 92.1667,207.5 87.5,207.5C 91.9122,204.271 96.2455,200.771 100.5,197C 102.246,196.529 103.913,195.862 105.5,195C 110.134,191.368 114.467,187.368 118.5,183C 123.208,180.646 127.875,178.313 132.5,176C 137.41,173.395 141.743,170.061 145.5,166C 150.368,163.735 155.035,161.235 159.5,158.5C 159.735,154.197 162.069,152.53 166.5,153.5 Z"/></g>
<g><path style="opacity:1" fill="#03abff" d="M 135.5,152.5 C 133.073,156.162 129.739,158.662 125.5,160C 119.129,166.13 111.795,170.797 103.5,174C 96.9884,180.632 89.6551,186.299 81.5,191C 77.6759,196.922 72.3425,200.922 65.5,203C 63.7011,204.7 63.3677,206.533 64.5,208.5C 62.1667,208.5 59.8333,208.5 57.5,208.5C 56.4019,207.603 56.4019,206.77 57.5,206C 62.7183,204.114 66.7183,200.781 69.5,196C 72.1667,195 74.8333,194 77.5,193C 82.2361,187.584 87.5694,182.584 93.5,178C 95.3921,177.027 97.3921,176.36 99.5,176C 107.142,169.513 115.142,163.513 123.5,158C 127.672,156.412 131.672,154.579 135.5,152.5 Z"/></g>
<g><path style="opacity:1" fill="#fc44c2" d="M 199.5,173.5 C 201.587,174.585 202.92,176.251 203.5,178.5C 201.456,177.222 199.456,177.388 197.5,179C 185.041,186.981 173.208,195.814 162,205.5C 161.517,206.448 161.351,207.448 161.5,208.5C 162.5,208.5 163.5,208.5 164.5,208.5C 164.833,208.5 165.167,208.5 165.5,208.5C 165.5,208.833 165.5,209.167 165.5,209.5C 139.833,209.5 114.167,209.5 88.5,209.5C 88.5,209.167 88.5,208.833 88.5,208.5C 92.8333,208.5 97.1667,208.5 101.5,208.5C 105.167,208.5 108.833,208.5 112.5,208.5C 114.5,208.5 116.5,208.5 118.5,208.5C 121.833,208.5 125.167,208.5 128.5,208.5C 132.167,208.5 135.833,208.5 139.5,208.5C 141.833,208.5 144.167,208.5 146.5,208.5C 151.482,208.023 156.149,206.356 160.5,203.5C 162.527,200.806 164.861,198.473 167.5,196.5C 172.766,192.411 178.433,188.911 184.5,186C 190.011,182.273 195.011,178.106 199.5,173.5 Z"/></g>
<g><path style="opacity:1" fill="#ff02d3" d="M 195.5,169.5 C 197.167,170.5 198.5,171.833 199.5,173.5C 195.011,178.106 190.011,182.273 184.5,186C 178.433,188.911 172.766,192.411 167.5,196.5C 164.861,198.473 162.527,200.806 160.5,203.5C 156.149,206.356 151.482,208.023 146.5,208.5C 161.286,197.399 176.286,186.232 191.5,175C 193.464,173.549 194.797,171.716 195.5,169.5 Z"/></g>
<g><path style="opacity:1" fill="#0253ff" d="M 118.5,175.5 C 111.138,182.83 102.804,189.163 93.5,194.5C 89.3211,198.412 84.9878,202.079 80.5,205.5C 81.4475,206.978 82.7809,207.978 84.5,208.5C 81.1667,208.5 77.8333,208.5 74.5,208.5C 74.0825,207.778 73.4158,207.278 72.5,207C 76.9032,203.481 81.2366,199.981 85.5,196.5C 86.552,196.649 87.552,196.483 88.5,196C 98.0711,188.394 108.071,181.56 118.5,175.5 Z"/></g>
<g><path style="opacity:1" fill="#0148ff" d="M 136.5,163.5 C 129.101,170.168 121.435,176.668 113.5,183C 105.84,188.619 98.1735,194.285 90.5,200C 87.2595,202.091 83.9262,203.924 80.5,205.5C 84.9878,202.079 89.3211,198.412 93.5,194.5C 102.804,189.163 111.138,182.83 118.5,175.5C 121.536,172.458 124.869,169.624 128.5,167C 131.071,165.546 133.738,164.38 136.5,163.5 Z"/></g>
<g><path style="opacity:1" fill="#14fcf5" d="M 119.5,145.5 C 124.833,144.167 130.167,144.167 135.5,145.5C 133.833,145.5 132.167,145.5 130.5,145.5C 125.76,147.706 121.093,150.206 116.5,153C 112.637,156.852 108.304,160.018 103.5,162.5C 102.638,163.766 101.971,165.099 101.5,166.5C 95.0984,170.893 88.4317,174.893 81.5,178.5C 70.5324,186.612 59.3658,194.612 48,202.5C 47.6174,201.944 47.1174,201.611 46.5,201.5C 46.5,200.167 46.5,198.833 46.5,197.5C 47.1174,197.611 47.6174,197.944 48,198.5C 49.9449,197.137 52.1116,196.303 54.5,196C 62.9722,190.022 70.9722,183.522 78.5,176.5C 85.6449,174.269 91.3115,170.102 95.5,164C 98.0467,163.448 100.047,162.114 101.5,160C 103.167,159.667 104.833,159.333 106.5,159C 112.026,154.64 117.693,150.474 123.5,146.5C 122.311,145.571 120.978,145.238 119.5,145.5 Z"/></g>
<g><path style="opacity:1" fill="#a500ff" d="M 180.5,159.5 C 180.833,159.5 181.167,159.5 181.5,159.5C 182.29,160.401 183.29,161.068 184.5,161.5C 184.721,162.735 185.388,163.735 186.5,164.5C 185.873,165.417 185.539,166.417 185.5,167.5C 182.731,168.437 180.064,169.604 177.5,171C 170.269,177.291 162.269,182.291 153.5,186C 148.641,191.543 142.974,195.877 136.5,199C 132.452,204.188 127.118,207.021 120.5,207.5C 126.184,202.661 132.517,198.828 139.5,196C 140.167,194.667 140.833,193.333 141.5,192C 154.133,185.198 165.8,177.031 176.5,167.5C 182.147,166.595 183.481,163.928 180.5,159.5 Z"/></g>
<g><path style="opacity:1" fill="#ff065b" d="M 207.5,184.5 C 208.434,185.568 208.768,186.901 208.5,188.5C 207.2,185.355 205.2,184.855 202.5,187C 197.473,193.525 191.14,198.358 183.5,201.5C 181.585,203.071 180.585,205.071 180.5,207.5C 181.833,207.5 183.167,207.5 184.5,207.5C 184.5,207.833 184.5,208.167 184.5,208.5C 181.813,208.664 179.146,208.497 176.5,208C 175.978,207.439 175.645,206.772 175.5,206C 183.097,200.051 190.431,193.884 197.5,187.5C 199.838,183.545 203.171,182.545 207.5,184.5 Z"/></g>
<g><path style="opacity:1" fill="#09fedb" d="M 78.5,176.5 C 70.9722,183.522 62.9722,190.022 54.5,196C 52.1116,196.303 49.9449,197.137 48,198.5C 47.6174,197.944 47.1174,197.611 46.5,197.5C 46.5,195.833 46.5,194.167 46.5,192.5C 47.2216,192.918 47.7216,193.584 48,194.5C 49.0674,193.809 50.2341,193.309 51.5,193C 57.0294,189.449 62.3627,185.616 67.5,181.5C 69.444,180.811 71.444,180.311 73.5,180C 74.7893,178.198 76.4559,177.031 78.5,176.5 Z"/></g>
<g><path style="opacity:1" fill="#17f3fd" d="M 81.5,178.5 C 81.5858,179.496 81.2524,180.329 80.5,181C 73.2906,186.721 66.2906,192.554 59.5,198.5C 55.4579,200.521 51.4579,202.521 47.5,204.5C 47.7678,206.099 47.4345,207.432 46.5,208.5C 46.5,206.167 46.5,203.833 46.5,201.5C 47.1174,201.611 47.6174,201.944 48,202.5C 59.3658,194.612 70.5324,186.612 81.5,178.5 Z"/></g>
<g><path style="opacity:1" fill="#ff01a1" d="M 203.5,178.5 C 191.547,186.153 179.88,194.32 168.5,203C 166.536,204.451 165.203,206.284 164.5,208.5C 163.5,208.5 162.5,208.5 161.5,208.5C 161.351,207.448 161.517,206.448 162,205.5C 173.208,195.814 185.041,186.981 197.5,179C 199.456,177.388 201.456,177.222 203.5,178.5 Z"/></g>
<g><path style="opacity:1" fill="#ff0b86" d="M 203.5,178.5 C 205.822,179.802 207.155,181.802 207.5,184.5C 203.171,182.545 199.838,183.545 197.5,187.5C 191.256,189.572 185.922,193.072 181.5,198C 175.52,199.302 170.52,202.302 166.5,207C 168.932,208.087 168.598,208.587 165.5,208.5C 165.167,208.5 164.833,208.5 164.5,208.5C 165.203,206.284 166.536,204.451 168.5,203C 179.88,194.32 191.547,186.153 203.5,178.5 Z"/></g>
<g><path style="opacity:0.999" fill="#ff0910" d="M 208.5,193.5 C 208.5,198.5 208.5,203.5 208.5,208.5C 200.5,208.5 192.5,208.5 184.5,208.5C 184.5,208.167 184.5,207.833 184.5,207.5C 191.493,202.7 198.16,197.2 204.5,191C 205.448,190.517 206.448,190.351 207.5,190.5C 207.263,191.791 207.596,192.791 208.5,193.5 Z"/></g>
<g><path style="opacity:1" fill="#3cd3fe" d="M 68.5,194.5 C 63.873,197.706 59.5396,201.372 55.5,205.5C 54.6143,206.325 54.281,207.325 54.5,208.5C 55.5,208.5 56.5,208.5 57.5,208.5C 59.8333,208.5 62.1667,208.5 64.5,208.5C 65.4916,208.328 66.1583,208.662 66.5,209.5C 59.6457,209.824 52.979,209.491 46.5,208.5C 47.4345,207.432 47.7678,206.099 47.5,204.5C 51.4579,202.521 55.4579,200.521 59.5,198.5C 62.5,197.167 65.5,195.833 68.5,194.5 Z"/></g>
<g><path style="opacity:1" fill="#0476ff" d="M 96.5,186.5 C 93.4314,190.572 89.7648,193.906 85.5,196.5C 81.2366,199.981 76.9032,203.481 72.5,207C 73.4158,207.278 74.0825,207.778 74.5,208.5C 71.5995,208.72 68.9329,208.054 66.5,206.5C 73.9774,200.857 81.3107,195.024 88.5,189C 90.9088,187.293 93.5755,186.46 96.5,186.5 Z"/></g>
<g><path style="opacity:1" fill="#e104fe" d="M 184.5,161.5 C 187.4,162.443 189.733,164.11 191.5,166.5C 186.38,171.791 181.38,177.291 176.5,183C 170.537,183.959 165.87,186.959 162.5,192C 155.77,195.241 149.437,199.074 143.5,203.5C 142.047,205.185 140.714,206.851 139.5,208.5C 135.833,208.5 132.167,208.5 128.5,208.5C 135.224,204.965 141.891,201.131 148.5,197C 160.732,186.923 173.066,177.089 185.5,167.5C 185.539,166.417 185.873,165.417 186.5,164.5C 185.388,163.735 184.721,162.735 184.5,161.5 Z"/></g>
<g><path style="opacity:1" fill="#6401ff" d="M 173.5,156.5 C 174.167,156.5 174.833,156.5 175.5,156.5C 178.302,159.301 177.969,161.801 174.5,164C 169.334,166.748 164.334,169.748 159.5,173C 147.304,182.263 135.304,191.763 123.5,201.5C 120.04,204.32 116.373,206.653 112.5,208.5C 108.833,208.5 105.167,208.5 101.5,208.5C 101.5,208.167 101.5,207.833 101.5,207.5C 104.216,207.322 106.883,206.822 109.5,206C 113.513,203.567 117.513,201.233 121.5,199C 130.879,190.666 140.546,182.833 150.5,175.5C 152.889,174.82 155.222,173.986 157.5,173C 160.833,170.333 164.167,167.667 167.5,165C 170.207,162.493 172.207,159.66 173.5,156.5 Z"/></g>
<g><path style="opacity:1" fill="#ff3e77" d="M 197.5,187.5 C 190.431,193.884 183.097,200.051 175.5,206C 175.645,206.772 175.978,207.439 176.5,208C 179.146,208.497 181.813,208.664 184.5,208.5C 192.5,208.5 200.5,208.5 208.5,208.5C 194.343,209.496 180.01,209.829 165.5,209.5C 165.5,209.167 165.5,208.833 165.5,208.5C 168.598,208.587 168.932,208.087 166.5,207C 170.52,202.302 175.52,199.302 181.5,198C 185.922,193.072 191.256,189.572 197.5,187.5 Z"/></g>
<g><path style="opacity:1" fill="#be01ff" d="M 185.5,167.5 C 173.066,177.089 160.732,186.923 148.5,197C 141.891,201.131 135.224,204.965 128.5,208.5C 125.167,208.5 121.833,208.5 118.5,208.5C 118.842,207.662 119.508,207.328 120.5,207.5C 127.118,207.021 132.452,204.188 136.5,199C 142.974,195.877 148.641,191.543 153.5,186C 162.269,182.291 170.269,177.291 177.5,171C 180.064,169.604 182.731,168.437 185.5,167.5 Z"/></g>
<g><path style="opacity:1" fill="#ff0139" d="M 208.5,188.5 C 208.5,190.167 208.5,191.833 208.5,193.5C 207.596,192.791 207.263,191.791 207.5,190.5C 206.448,190.351 205.448,190.517 204.5,191C 198.16,197.2 191.493,202.7 184.5,207.5C 183.167,207.5 181.833,207.5 180.5,207.5C 180.585,205.071 181.585,203.071 183.5,201.5C 191.14,198.358 197.473,193.525 202.5,187C 205.2,184.855 207.2,185.355 208.5,188.5 Z"/></g>
<g><path style="opacity:0.997" fill="#001cff" d="M 163.5,152.5 C 164.791,152.263 165.791,152.596 166.5,153.5C 162.069,152.53 159.735,154.197 159.5,158.5C 155.035,161.235 150.368,163.735 145.5,166C 141.743,170.061 137.41,173.395 132.5,176C 127.875,178.313 123.208,180.646 118.5,183C 114.467,187.368 110.134,191.368 105.5,195C 103.913,195.862 102.246,196.529 100.5,197C 96.2455,200.771 91.9122,204.271 87.5,207.5C 86.6236,207.631 85.9569,207.298 85.5,206.5C 87.6499,204.851 89.6499,203.018 91.5,201C 97.8971,196.273 104.564,191.94 111.5,188C 116.971,180.773 123.971,175.773 132.5,173C 141.122,166.713 149.455,160.047 157.5,153C 159.473,152.505 161.473,152.338 163.5,152.5 Z"/></g>
</svg>
