<?xml version="1.0" encoding="UTF-8"?>
<!DOCTYPE svg PUBLIC "-//W3C//DTD SVG 1.1//EN" "http://www.w3.org/Graphics/SVG/1.1/DTD/svg11.dtd">
<svg xmlns="http://www.w3.org/2000/svg" version="1.1" width="512px" height="512px" style="shape-rendering:geometricPrecision; text-rendering:geometricPrecision; image-rendering:optimizeQuality; fill-rule:evenodd; clip-rule:evenodd" xmlns:xlink="http://www.w3.org/1999/xlink">
<g><path style="opacity:1" fill="#eeeeee" d="M 411.5,202.5 C 402.387,204.081 393.387,203.747 384.5,201.5C 383.078,201.291 381.745,200.791 380.5,200C 378.284,197.447 375.784,195.28 373,193.5C 369.585,194.79 366.418,196.456 363.5,198.5C 362.336,235.998 362.169,273.664 363,311.5C 364.33,312.582 365.83,313.249 367.5,313.5C 369.745,314.635 372.078,315.135 374.5,315C 378.753,309.894 384.086,306.727 390.5,305.5C 400.399,304.362 409.733,306.028 418.5,310.5C 434.182,323.965 436.682,339.632 426,357.5C 408,376.167 390,376.167 372,357.5C 365.395,347.915 363.895,337.581 367.5,326.5C 364.945,323.633 361.778,321.633 358,320.5C 325.931,339.119 293.764,357.619 261.5,376C 260.54,379.73 260.207,383.563 260.5,387.5C 274.884,390.049 284.05,398.382 288,412.5C 290.623,431.094 283.456,444.26 266.5,452C 236.108,456.273 221.608,443.107 223,412.5C 226.95,398.382 236.116,390.049 250.5,387.5C 250.793,383.563 250.46,379.73 249.5,376C 217.236,357.619 185.069,339.119 153,320.5C 149.222,321.633 146.055,323.633 143.5,326.5C 148.613,346.269 141.947,360.269 123.5,368.5C 116.869,369.331 110.202,369.664 103.5,369.5C 92.4454,366.288 84.6121,359.288 80,348.5C 79.51,347.207 79.3433,345.873 79.5,344.5C 79.2011,337.711 79.8678,331.044 81.5,324.5C 84.1127,318.372 88.1127,313.205 93.5,309C 96.5612,306.965 99.8945,305.799 103.5,305.5C 112.576,304.603 121.243,305.937 129.5,309.5C 132.446,311.27 135.28,313.27 138,315.5C 139.8,314.68 141.634,314.014 143.5,313.5C 145.17,313.249 146.67,312.582 148,311.5C 148.167,292.5 148.333,273.5 148.5,254.5C 148.5,235.155 147.833,216.155 146.5,197.5C 143.571,196.412 140.737,195.079 138,193.5C 135.2,195.299 132.7,197.466 130.5,200C 127.691,201.741 124.691,202.908 121.5,203.5C 114.132,203.683 106.799,203.35 99.5,202.5C 95.043,201.213 91.2097,198.88 88,195.5C 83.833,190.831 80.9997,185.497 79.5,179.5C 79.1747,172.378 79.8414,165.378 81.5,158.5C 84.4411,151.226 89.4411,145.893 96.5,142.5C 105.284,139.359 114.284,138.692 123.5,140.5C 141.971,148.779 148.638,162.779 143.5,182.5C 146.362,185.188 149.528,187.521 153,189.5C 185.085,170.541 217.251,151.707 249.5,133C 250.46,129.27 250.793,125.437 250.5,121.5C 229.243,116.691 220.076,103.358 223,81.5C 227.687,65.327 238.52,56.6603 255.5,55.5C 272.48,56.6603 283.313,65.327 288,81.5C 290.924,103.358 281.757,116.691 260.5,121.5C 260.207,125.437 260.54,129.27 261.5,133C 293.749,151.707 325.915,170.541 358,189.5C 361.472,187.521 364.638,185.188 367.5,182.5C 362.427,162.813 369.094,148.646 387.5,140C 407.581,135.125 422.081,141.958 431,160.5C 435.958,179.987 429.458,193.987 411.5,202.5 Z"/></g>
<g><path style="opacity:1" fill="#ff1f00" d="M 267.5,70.5 C 259.5,70.5 251.5,70.5 243.5,70.5C 251.5,65.1667 259.5,65.1667 267.5,70.5 Z"/></g>
<g><path style="opacity:1" fill="#ff7e00" d="M 243.5,70.5 C 251.5,70.5 259.5,70.5 267.5,70.5C 268.71,70.9321 269.71,71.5987 270.5,72.5C 260.5,72.5 250.5,72.5 240.5,72.5C 241.29,71.5987 242.29,70.9321 243.5,70.5 Z"/></g>
<g><path style="opacity:1" fill="#ffcc00" d="M 240.5,72.5 C 250.5,72.5 260.5,72.5 270.5,72.5C 271.5,72.8333 272.167,73.5 272.5,74.5C 261.167,74.5 249.833,74.5 238.5,74.5C 238.833,73.5 239.5,72.8333 240.5,72.5 Z"/></g>
<g><path style="opacity:1" fill="#e3ff00" d="M 238.5,74.5 C 249.833,74.5 261.167,74.5 272.5,74.5C 272.833,75.1667 273.167,75.8333 273.5,76.5C 261.5,76.5 249.5,76.5 237.5,76.5C 237.833,75.8333 238.167,75.1667 238.5,74.5 Z"/></g>
<g><path style="opacity:1" fill="#94ff00" d="M 237.5,76.5 C 249.5,76.5 261.5,76.5 273.5,76.5C 274.338,76.8417 274.672,77.5084 274.5,78.5C 261.833,78.5 249.167,78.5 236.5,78.5C 236.328,77.5084 236.662,76.8417 237.5,76.5 Z"/></g>
<g><path style="opacity:1" fill="#25ff1b" d="M 236.5,78.5 C 249.167,78.5 261.833,78.5 274.5,78.5C 276.104,79.287 276.771,80.6203 276.5,82.5C 262.677,83.4958 248.677,83.8291 234.5,83.5C 234.5,82.1667 234.5,80.8333 234.5,79.5C 235.167,79.1667 235.833,78.8333 236.5,78.5 Z"/></g>
<g><path style="opacity:1" fill="#666666" d="M 234.5,79.5 C 234.5,80.8333 234.5,82.1667 234.5,83.5C 233.662,83.8417 233.328,84.5084 233.5,85.5C 233.5,86.1667 233.5,86.8333 233.5,87.5C 233.5,88.1667 233.5,88.8333 233.5,89.5C 233.5,90.5 233.5,91.5 233.5,92.5C 233.5,92.8333 233.5,93.1667 233.5,93.5C 232.839,91.866 232.506,90.0326 232.5,88C 232.36,84.8502 233.027,82.0169 234.5,79.5 Z"/></g>
<g><path style="opacity:1" fill="#06fe80" d="M 276.5,82.5 C 277.404,83.209 277.737,84.209 277.5,85.5C 262.833,85.5 248.167,85.5 233.5,85.5C 233.328,84.5084 233.662,83.8417 234.5,83.5C 248.677,83.8291 262.677,83.4958 276.5,82.5 Z"/></g>
<g><path style="opacity:1" fill="#07fecf" d="M 233.5,85.5 C 248.167,85.5 262.833,85.5 277.5,85.5C 277.5,86.1667 277.5,86.8333 277.5,87.5C 262.833,87.5 248.167,87.5 233.5,87.5C 233.5,86.8333 233.5,86.1667 233.5,85.5 Z"/></g>
<g><path style="opacity:1" fill="#04e6ff" d="M 233.5,87.5 C 248.167,87.5 262.833,87.5 277.5,87.5C 277.5,88.1667 277.5,88.8333 277.5,89.5C 262.833,89.5 248.167,89.5 233.5,89.5C 233.5,88.8333 233.5,88.1667 233.5,87.5 Z"/></g>
<g><path style="opacity:1" fill="#128dff" d="M 233.5,89.5 C 248.167,89.5 262.833,89.5 277.5,89.5C 277.5,90.5 277.5,91.5 277.5,92.5C 262.833,92.5 248.167,92.5 233.5,92.5C 233.5,91.5 233.5,90.5 233.5,89.5 Z"/></g>
<g><path style="opacity:1" fill="#3412ff" d="M 233.5,92.5 C 248.167,92.5 262.833,92.5 277.5,92.5C 277.204,94.403 276.537,96.0697 275.5,97.5C 262.167,97.5 248.833,97.5 235.5,97.5C 234.655,96.3285 233.989,94.9952 233.5,93.5C 233.5,93.1667 233.5,92.8333 233.5,92.5 Z"/></g>
<g><path style="opacity:1" fill="#a200ff" d="M 235.5,97.5 C 248.833,97.5 262.167,97.5 275.5,97.5C 275.672,98.4916 275.338,99.1583 274.5,99.5C 261.833,99.5 249.167,99.5 236.5,99.5C 235.662,99.1583 235.328,98.4916 235.5,97.5 Z"/></g>
<g><path style="opacity:1" fill="#f000ff" d="M 236.5,99.5 C 249.167,99.5 261.833,99.5 274.5,99.5C 274.672,100.492 274.338,101.158 273.5,101.5C 261.5,101.5 249.5,101.5 237.5,101.5C 236.662,101.158 236.328,100.492 236.5,99.5 Z"/></g>
<g><path style="opacity:1" fill="#ff00bf" d="M 237.5,101.5 C 249.5,101.5 261.5,101.5 273.5,101.5C 273.167,102.5 272.5,103.167 271.5,103.5C 260.833,103.5 250.167,103.5 239.5,103.5C 238.5,103.167 237.833,102.5 237.5,101.5 Z"/></g>
<g><path style="opacity:1" fill="#ff007d" d="M 239.5,103.5 C 250.167,103.5 260.833,103.5 271.5,103.5C 271.167,104.5 270.5,105.167 269.5,105.5C 260.167,105.5 250.833,105.5 241.5,105.5C 240.5,105.167 239.833,104.5 239.5,103.5 Z"/></g>
<g><path style="opacity:1" fill="#ff000f" d="M 241.5,105.5 C 250.833,105.5 260.167,105.5 269.5,105.5C 268.167,106.833 266.833,108.167 265.5,109.5C 258.833,110.833 252.167,110.833 245.5,109.5C 244.167,108.167 242.833,106.833 241.5,105.5 Z"/></g>
<g><path style="opacity:0.914" fill="#6c6c6c" d="M 245.5,109.5 C 252.167,110.833 258.833,110.833 265.5,109.5C 265.082,110.222 264.416,110.722 263.5,111C 258.167,111.667 252.833,111.667 247.5,111C 246.584,110.722 245.918,110.222 245.5,109.5 Z"/></g>
<g><path style="opacity:1" fill="#898989" d="M 123.5,140.5 C 114.284,138.692 105.284,139.359 96.5,142.5C 98.3854,140.689 100.719,139.522 103.5,139C 110.324,137.353 116.991,137.853 123.5,140.5 Z"/></g>
<g><path style="opacity:1" fill="#ff8900" d="M 108.5,149.5 C 103.013,154.076 97.3467,158.409 91.5,162.5C 95.0242,155.55 100.691,151.216 108.5,149.5 Z"/></g>
<g><path style="opacity:1" fill="#ffd500" d="M 108.5,149.5 C 109.833,149.5 111.167,149.5 112.5,149.5C 105.567,155.639 98.2333,161.306 90.5,166.5C 90.2322,164.901 90.5655,163.568 91.5,162.5C 97.3467,158.409 103.013,154.076 108.5,149.5 Z"/></g>
<g><path style="opacity:1" fill="#effe00" d="M 112.5,149.5 C 113.167,149.5 113.833,149.5 114.5,149.5C 110.342,153.157 106.342,156.991 102.5,161C 97.7278,163.371 93.3944,166.205 89.5,169.5C 89.2627,168.209 89.596,167.209 90.5,166.5C 98.2333,161.306 105.567,155.639 112.5,149.5 Z"/></g>
<g><path style="opacity:1" fill="#fef700" d="M 277.5,155.5 C 279.027,155.427 280.027,156.094 280.5,157.5C 249.322,180.256 218.322,203.256 187.5,226.5C 177.851,233.141 168.185,239.808 158.5,246.5C 158.5,244.833 158.5,243.167 158.5,241.5C 166.273,236.105 174.273,230.939 182.5,226C 189.433,219.861 196.767,214.194 204.5,209C 207.221,205.789 210.221,202.789 213.5,200C 220.648,197.261 226.981,193.261 232.5,188C 247.602,177.134 262.602,166.301 277.5,155.5 Z"/></g>
<g><path style="opacity:1" fill="#11f7ec" d="M 391.5,150.5 C 393.897,157.24 397.563,163.24 402.5,168.5C 403.452,170.045 403.785,171.712 403.5,173.5C 400.116,169.787 396.783,166.121 393.5,162.5C 392.11,158.719 390.443,155.053 388.5,151.5C 389.609,151.443 390.609,151.11 391.5,150.5 Z"/></g>
<g><path style="opacity:1" fill="#17a5fd" d="M 388.5,151.5 C 390.443,155.053 392.11,158.719 393.5,162.5C 392.833,162.167 392.167,161.833 391.5,161.5C 390.2,158.568 388.2,156.234 385.5,154.5C 386.167,153.167 387.167,152.167 388.5,151.5 Z"/></g>
<g><path style="opacity:1" fill="#ffc800" d="M 408.5,151.5 C 409.167,151.833 409.833,152.167 410.5,152.5C 412.533,155.563 414.199,158.896 415.5,162.5C 417.745,164.678 419.745,167.012 421.5,169.5C 421.5,170.833 421.5,172.167 421.5,173.5C 415.542,167.19 411.208,159.856 408.5,151.5 Z"/></g>
<g><path style="opacity:1" fill="#ff6900" d="M 410.5,152.5 C 416.961,156.306 420.628,161.973 421.5,169.5C 419.745,167.012 417.745,164.678 415.5,162.5C 414.199,158.896 412.533,155.563 410.5,152.5 Z"/></g>
<g><path style="opacity:1" fill="#a4ff00" d="M 114.5,149.5 C 116.216,149.629 117.883,149.962 119.5,150.5C 111.692,157.469 103.692,164.302 95.5,171C 93.1887,171.236 91.1887,172.069 89.5,173.5C 89.5,172.167 89.5,170.833 89.5,169.5C 93.3944,166.205 97.7278,163.371 102.5,161C 106.342,156.991 110.342,153.157 114.5,149.5 Z"/></g>
<g><path style="opacity:1" fill="#ffa300" d="M 265.5,148.5 C 267.882,149.351 269.882,150.684 271.5,152.5C 260.737,160.725 249.404,168.225 237.5,175C 236.743,176.512 235.743,177.846 234.5,179C 227.495,181.162 221.495,184.829 216.5,190C 214.372,190.655 212.372,191.489 210.5,192.5C 211.203,190.284 212.536,188.451 214.5,187C 221.665,181.823 228.998,176.823 236.5,172C 238.749,170.255 240.416,168.088 241.5,165.5C 245.424,163.881 248.758,161.547 251.5,158.5C 255.821,157.032 259.821,154.865 263.5,152C 264.305,150.887 264.972,149.721 265.5,148.5 Z"/></g>
<g><path style="opacity:1" fill="#15fea0" d="M 391.5,150.5 C 392.167,150.5 392.833,150.5 393.5,150.5C 395.43,154.263 397.93,157.596 401,160.5C 403.167,165.5 405.333,170.5 407.5,175.5C 410.903,178.642 413.569,182.308 415.5,186.5C 414.833,187.833 413.833,188.833 412.5,189.5C 411.405,184.962 409.072,181.295 405.5,178.5C 404.833,176.833 404.167,175.167 403.5,173.5C 403.785,171.712 403.452,170.045 402.5,168.5C 397.563,163.24 393.897,157.24 391.5,150.5 Z"/></g>
<g><path style="opacity:1" fill="#ff5500" d="M 257.5,144.5 C 259.153,144.66 260.486,145.326 261.5,146.5C 259.398,150.504 256.065,153.004 251.5,154C 244.023,160.148 236.023,165.481 227.5,170C 222.958,174.189 218.124,178.023 213,181.5C 210.359,182.933 207.526,183.933 204.5,184.5C 202.656,186.843 200.656,189.01 198.5,191C 192.967,193.26 187.967,196.26 183.5,200C 182.167,202 180.833,204 179.5,206C 172.628,211.042 165.628,215.876 158.5,220.5C 158.5,218.5 158.5,216.5 158.5,214.5C 171.227,207.523 182.893,199.023 193.5,189C 195.833,188 198.167,187 200.5,186C 207.175,181.322 213.841,176.655 220.5,172C 224.508,169.158 227.841,165.658 230.5,161.5C 237.185,158.67 243.185,154.837 248.5,150C 251.953,148.806 254.953,146.973 257.5,144.5 Z"/></g>
<g><path style="opacity:1" fill="#0afe8e" d="M 126.5,154.5 C 127.167,154.5 127.5,154.833 127.5,155.5C 122.632,159.772 117.965,164.272 113.5,169C 109.261,172.8 104.594,176.133 99.5,179C 98.1772,179.816 97.5106,180.983 97.5,182.5C 95.6203,182.229 94.287,182.896 93.5,184.5C 92.6618,184.158 92.3284,183.492 92.5,182.5C 103.264,172.396 114.597,163.062 126.5,154.5 Z"/></g>
<g><path style="opacity:1" fill="#0ba9ff" d="M 130.5,159.5 C 131.401,160.29 132.068,161.29 132.5,162.5C 121.32,171.913 109.654,180.579 97.5,188.5C 96.8333,188.5 96.5,188.167 96.5,187.5C 100.904,182.508 106.237,178.675 112.5,176C 116.013,171.654 120.013,167.82 124.5,164.5C 126.909,163.299 128.909,161.633 130.5,159.5 Z"/></g>
<g><path style="opacity:1" fill="#0970ff" d="M 391.5,161.5 C 392.167,161.833 392.833,162.167 393.5,162.5C 395.701,166.24 397.368,170.24 398.5,174.5C 394.924,170.901 392.59,166.568 391.5,161.5 Z"/></g>
<g><path style="opacity:1" fill="#828282" d="M 81.5,158.5 C 79.8414,165.378 79.1747,172.378 79.5,179.5C 78.3503,174.684 78.1837,169.684 79,164.5C 79.2401,162.148 80.0735,160.148 81.5,158.5 Z"/></g>
<g><path style="opacity:1" fill="#11cbff" d="M 393.5,162.5 C 396.783,166.121 400.116,169.787 403.5,173.5C 404.167,175.167 404.833,176.833 405.5,178.5C 404.609,177.89 403.609,177.557 402.5,177.5C 402.19,175.856 401.19,174.856 399.5,174.5C 399.167,174.5 398.833,174.5 398.5,174.5C 397.368,170.24 395.701,166.24 393.5,162.5 Z"/></g>
<g><path style="opacity:1" fill="#26ff23" d="M 119.5,150.5 C 121.996,151.58 124.33,152.914 126.5,154.5C 114.597,163.062 103.264,172.396 92.5,182.5C 90.5275,179.916 89.5275,176.916 89.5,173.5C 91.1887,172.069 93.1887,171.236 95.5,171C 103.692,164.302 111.692,157.469 119.5,150.5 Z"/></g>
<g><path style="opacity:1" fill="#ff0013" d="M 377.5,168.5 C 378.631,173.781 381.464,177.781 386,180.5C 387.037,184.905 388.871,188.905 391.5,192.5C 381.876,188.955 376.876,181.955 376.5,171.5C 376.52,170.274 376.853,169.274 377.5,168.5 Z"/></g>
<g><path style="opacity:1" fill="#3fff21" d="M 402.5,149.5 C 404.34,154.502 407.174,158.836 411,162.5C 412.744,169.059 415.578,175.059 419.5,180.5C 419.155,183.198 417.822,185.198 415.5,186.5C 413.569,182.308 410.903,178.642 407.5,175.5C 405.333,170.5 403.167,165.5 401,160.5C 397.93,157.596 395.43,154.263 393.5,150.5C 396.287,149.523 399.287,149.19 402.5,149.5 Z"/></g>
<g><path style="opacity:1" fill="#0ffdd5" d="M 127.5,155.5 C 128.488,156.795 129.488,158.128 130.5,159.5C 128.909,161.633 126.909,163.299 124.5,164.5C 120.617,165.415 117.617,167.582 115.5,171C 109.08,174.268 103.08,178.101 97.5,182.5C 97.5106,180.983 98.1772,179.816 99.5,179C 104.594,176.133 109.261,172.8 113.5,169C 117.965,164.272 122.632,159.772 127.5,155.5 Z"/></g>
<g><path style="opacity:1" fill="#0feff7" d="M 124.5,164.5 C 120.013,167.82 116.013,171.654 112.5,176C 106.237,178.675 100.904,182.508 96.5,187.5C 95.1667,186.833 94.1667,185.833 93.5,184.5C 94.287,182.896 95.6203,182.229 97.5,182.5C 103.08,178.101 109.08,174.268 115.5,171C 117.617,167.582 120.617,165.415 124.5,164.5 Z"/></g>
<g><path style="opacity:1" fill="#bffe00" d="M 402.5,149.5 C 404.579,149.971 406.579,150.637 408.5,151.5C 411.208,159.856 415.542,167.19 421.5,173.5C 421.59,176.152 420.924,178.485 419.5,180.5C 415.578,175.059 412.744,169.059 411,162.5C 407.174,158.836 404.34,154.502 402.5,149.5 Z"/></g>
<g><path style="opacity:1" fill="#cffffe" d="M 380.5,159.5 C 383.598,163.36 385.932,167.693 387.5,172.5C 390.996,176.818 394.496,181.151 398,185.5C 399.456,188.076 400.623,190.742 401.5,193.5C 400.791,194.404 399.791,194.737 398.5,194.5C 398.66,192.801 398.494,191.134 398,189.5C 395.108,186.729 392.442,183.729 390,180.5C 385.744,174.972 381.911,169.305 378.5,163.5C 378.66,161.847 379.326,160.514 380.5,159.5 Z"/></g>
<g><path style="opacity:1" fill="#b3ffff" d="M 134.5,171.5 C 134.167,173.5 133.833,175.5 133.5,177.5C 125.822,182.483 118.822,188.149 112.5,194.5C 111.209,194.737 110.209,194.404 109.5,193.5C 111.539,192.089 112.539,190.089 112.5,187.5C 117.542,185.71 122.209,183.043 126.5,179.5C 127.246,178.264 127.579,176.93 127.5,175.5C 129.818,174.291 132.151,172.957 134.5,171.5 Z"/></g>
<g><path style="opacity:1" fill="#0975ff" d="M 399.5,174.5 C 401.19,174.856 402.19,175.856 402.5,177.5C 403.167,179.167 403.833,180.833 404.5,182.5C 401.334,180.846 399.667,178.179 399.5,174.5 Z"/></g>
<g><path style="opacity:1" fill="#11a0ff" d="M 402.5,177.5 C 403.609,177.557 404.609,177.89 405.5,178.5C 407.469,182.381 409.136,186.381 410.5,190.5C 410.158,191.338 409.492,191.672 408.5,191.5C 407.403,188.314 406.07,185.314 404.5,182.5C 403.833,180.833 403.167,179.167 402.5,177.5 Z"/></g>
<g><path style="opacity:1" fill="#ff2200" d="M 257.5,144.5 C 254.953,146.973 251.953,148.806 248.5,150C 243.185,154.837 237.185,158.67 230.5,161.5C 227.841,165.658 224.508,169.158 220.5,172C 213.841,176.655 207.175,181.322 200.5,186C 198.167,187 195.833,188 193.5,189C 182.893,199.023 171.227,207.523 158.5,214.5C 158.214,208.741 158.548,203.075 159.5,197.5C 191.438,179.863 223.105,161.696 254.5,143C 255.998,142.415 256.998,142.915 257.5,144.5 Z"/></g>
<g><path style="opacity:1" fill="#ffff74" d="M 377.5,166.5 C 380.088,169.988 382.922,173.321 386,176.5C 388.102,182.767 391.269,188.434 395.5,193.5C 393.901,193.768 392.568,193.434 391.5,192.5C 388.871,188.905 387.037,184.905 386,180.5C 381.464,177.781 378.631,173.781 377.5,168.5C 377.5,167.833 377.5,167.167 377.5,166.5 Z"/></g>
<g><path style="opacity:1" fill="#0ee5fd" d="M 405.5,178.5 C 409.072,181.295 411.405,184.962 412.5,189.5C 412.158,190.338 411.492,190.672 410.5,190.5C 409.136,186.381 407.469,182.381 405.5,178.5 Z"/></g>
<g><path style="opacity:1" fill="#0a6fff" d="M 132.5,162.5 C 132.5,163.167 132.5,163.833 132.5,164.5C 129.403,168.554 125.403,171.387 120.5,173C 117.365,176.401 113.698,179.067 109.5,181C 105.943,183.749 102.943,186.915 100.5,190.5C 98.9731,190.573 97.9731,189.906 97.5,188.5C 109.654,180.579 121.32,171.913 132.5,162.5 Z"/></g>
<g><path style="opacity:1" fill="#ffffc7" d="M 378.5,163.5 C 381.911,169.305 385.744,174.972 390,180.5C 392.442,183.729 395.108,186.729 398,189.5C 398.494,191.134 398.66,192.801 398.5,194.5C 397.391,194.443 396.391,194.11 395.5,193.5C 391.269,188.434 388.102,182.767 386,176.5C 382.922,173.321 380.088,169.988 377.5,166.5C 377.557,165.391 377.89,164.391 378.5,163.5 Z"/></g>
<g><path style="opacity:1" fill="#361aff" d="M 132.5,164.5 C 133.612,166.599 134.279,168.933 134.5,171.5C 132.151,172.957 129.818,174.291 127.5,175.5C 127.579,176.93 127.246,178.264 126.5,179.5C 122.209,183.043 117.542,185.71 112.5,187.5C 112.539,190.089 111.539,192.089 109.5,193.5C 105.956,193.868 102.956,192.868 100.5,190.5C 102.943,186.915 105.943,183.749 109.5,181C 113.698,179.067 117.365,176.401 120.5,173C 125.403,171.387 129.403,168.554 132.5,164.5 Z"/></g>
<g><path style="opacity:1" fill="#4614ff" d="M 385.5,154.5 C 388.2,156.234 390.2,158.568 391.5,161.5C 392.59,166.568 394.924,170.901 398.5,174.5C 398.833,174.5 399.167,174.5 399.5,174.5C 399.667,178.179 401.334,180.846 404.5,182.5C 406.07,185.314 407.403,188.314 408.5,191.5C 406.562,193.163 404.228,193.829 401.5,193.5C 400.623,190.742 399.456,188.076 398,185.5C 394.496,181.151 390.996,176.818 387.5,172.5C 385.932,167.693 383.598,163.36 380.5,159.5C 381.833,157.5 383.5,155.833 385.5,154.5 Z"/></g>
<g><path style="opacity:1" fill="#ff00a5" d="M 130.5,183.5 C 127.872,188.988 123.539,192.321 117.5,193.5C 121.722,189.904 126.055,186.571 130.5,183.5 Z"/></g>
<g><path style="opacity:1" fill="#86ff00" d="M 293.5,164.5 C 295.23,165.026 296.564,166.026 297.5,167.5C 290.576,174.451 282.91,180.618 274.5,186C 271.582,189.554 267.915,192.221 263.5,194C 262.267,195.667 260.933,197.167 259.5,198.5C 256.169,198.018 253.503,199.018 251.5,201.5C 250.038,202.458 248.705,203.624 247.5,205C 245.833,205.333 244.167,205.667 242.5,206C 236.234,213.652 228.567,219.652 219.5,224C 216.823,227.009 213.823,229.676 210.5,232C 203.136,235.682 195.802,239.349 188.5,243C 186.007,246.551 182.673,248.884 178.5,250C 177.167,252 175.833,254 174.5,256C 169.584,259.625 164.25,262.458 158.5,264.5C 158.5,262.5 158.5,260.5 158.5,258.5C 161.505,256.998 164.505,255.498 167.5,254C 168.594,252.22 169.594,250.386 170.5,248.5C 177.458,246.036 183.124,241.869 187.5,236C 191.5,234.333 195.5,232.667 199.5,231C 202.167,229.667 204.167,227.667 205.5,225C 209.403,224.225 212.403,222.225 214.5,219C 217.689,216.454 221.356,214.954 225.5,214.5C 232.39,209.275 239.39,204.108 246.5,199C 252.262,197.576 256.596,194.243 259.5,189C 264.892,184.948 270.558,181.282 276.5,178C 281.729,172.936 287.396,168.436 293.5,164.5 Z"/></g>
<g><path style="opacity:1" fill="#fb00ed" d="M 133.5,177.5 C 133.008,179.819 132.008,181.819 130.5,183.5C 126.055,186.571 121.722,189.904 117.5,193.5C 115.784,193.629 114.117,193.962 112.5,194.5C 118.822,188.149 125.822,182.483 133.5,177.5 Z"/></g>
<g><path style="opacity:1" fill="#1fff0f" d="M 297.5,167.5 C 304.996,170.745 311.996,174.745 318.5,179.5C 314.845,183.207 310.845,186.707 306.5,190C 301.037,190.796 297.37,193.796 295.5,199C 291.666,200.802 288.333,203.136 285.5,206C 281.173,207.082 277.84,209.415 275.5,213C 272.079,212.879 269.412,214.212 267.5,217C 265.975,218.009 264.308,218.509 262.5,218.5C 262.821,212.974 262.488,207.64 261.5,202.5C 261.267,200.938 260.6,199.605 259.5,198.5C 260.933,197.167 262.267,195.667 263.5,194C 267.915,192.221 271.582,189.554 274.5,186C 282.91,180.618 290.576,174.451 297.5,167.5 Z"/></g>
<g><path style="opacity:1" fill="#01fafb" d="M 341.5,192.5 C 342.492,192.328 343.158,192.662 343.5,193.5C 336.87,200.139 329.87,206.305 322.5,212C 316.094,215.871 310.094,220.205 304.5,225C 298.067,227.406 292.067,230.739 286.5,235C 284.787,236.378 283.453,238.045 282.5,240C 280.051,240.725 277.717,241.725 275.5,243C 271.462,246.674 267.129,249.841 262.5,252.5C 262.5,250.5 262.5,248.5 262.5,246.5C 267.183,244.659 271.517,242.159 275.5,239C 277.167,238.667 278.833,238.333 280.5,238C 300.876,222.82 321.21,207.653 341.5,192.5 Z"/></g>
<g><path style="opacity:1" fill="#eeff00" d="M 280.5,157.5 C 281.492,157.328 282.158,157.662 282.5,158.5C 279.388,162.442 275.721,165.942 271.5,169C 265.748,172.252 260.415,176.085 255.5,180.5C 253.227,181.651 250.894,182.651 248.5,183.5C 246.51,186.99 243.843,189.823 240.5,192C 234.686,194.884 229.019,198.051 223.5,201.5C 214.337,208.912 205.004,216.079 195.5,223C 192.929,224.454 190.262,225.62 187.5,226.5C 218.322,203.256 249.322,180.256 280.5,157.5 Z"/></g>
<g><path style="opacity:1" fill="#ababab" d="M 146.5,197.5 C 147.833,216.155 148.5,235.155 148.5,254.5C 148.333,273.5 148.167,292.5 148,311.5C 146.67,312.582 145.17,313.249 143.5,313.5C 144.315,312.163 145.482,311.163 147,310.5C 147.826,272.762 147.66,235.095 146.5,197.5 Z"/></g>
<g><path style="opacity:1" fill="#5d5d5d" d="M 159.5,197.5 C 158.548,203.075 158.214,208.741 158.5,214.5C 158.5,216.5 158.5,218.5 158.5,220.5C 158.5,221.833 158.5,223.167 158.5,224.5C 158.5,225.833 158.5,227.167 158.5,228.5C 158.5,229.833 158.5,231.167 158.5,232.5C 158.5,232.833 158.5,233.167 158.5,233.5C 158.5,236.167 158.5,238.833 158.5,241.5C 158.5,243.167 158.5,244.833 158.5,246.5C 158.5,249.167 158.5,251.833 158.5,254.5C 158.5,255.833 158.5,257.167 158.5,258.5C 158.5,260.5 158.5,262.5 158.5,264.5C 158.5,268.833 158.5,273.167 158.5,277.5C 158.5,283.833 158.5,290.167 158.5,296.5C 158.5,297.833 158.5,299.167 158.5,300.5C 158.5,301.833 158.5,303.167 158.5,304.5C 158.5,305.833 158.5,307.167 158.5,308.5C 158.5,309.5 158.5,310.5 158.5,311.5C 157.833,292.67 157.5,273.67 157.5,254.5C 157.5,235.155 158.167,216.155 159.5,197.5 Z"/></g>
<g><path style="opacity:1" fill="#01fe52" d="M 318.5,179.5 C 320.674,179.75 322.341,180.75 323.5,182.5C 318.076,185.425 313.409,189.259 309.5,194C 302.95,198.143 296.284,202.143 289.5,206C 286.466,210.368 282.799,214.034 278.5,217C 272.735,219.632 267.402,222.799 262.5,226.5C 262.5,223.833 262.5,221.167 262.5,218.5C 264.308,218.509 265.975,218.009 267.5,217C 269.412,214.212 272.079,212.879 275.5,213C 277.84,209.415 281.173,207.082 285.5,206C 288.333,203.136 291.666,200.802 295.5,199C 297.37,193.796 301.037,190.796 306.5,190C 310.845,186.707 314.845,183.207 318.5,179.5 Z"/></g>
<g><path style="opacity:1" fill="#f6f6f6" d="M 259.5,198.5 C 260.6,199.605 261.267,200.938 261.5,202.5C 261.5,237.5 261.5,272.5 261.5,307.5C 259.678,312.251 256.678,313.251 252.5,310.5C 251.548,304.925 251.214,299.259 251.5,293.5C 251.5,292.167 251.5,290.833 251.5,289.5C 251.5,288.167 251.5,286.833 251.5,285.5C 251.5,284.167 251.5,282.833 251.5,281.5C 251.5,280.167 251.5,278.833 251.5,277.5C 251.5,275.833 251.5,274.167 251.5,272.5C 251.5,270.833 251.5,269.167 251.5,267.5C 251.5,264.833 251.5,262.167 251.5,259.5C 251.5,257.5 251.5,255.5 251.5,253.5C 251.5,251.833 251.5,250.167 251.5,248.5C 251.5,247.167 251.5,245.833 251.5,244.5C 251.5,243.167 251.5,241.833 251.5,240.5C 251.5,238.5 251.5,236.5 251.5,234.5C 251.5,232.5 251.5,230.5 251.5,228.5C 251.5,221.5 251.5,214.5 251.5,207.5C 251.5,205.5 251.5,203.5 251.5,201.5C 253.503,199.018 256.169,198.018 259.5,198.5 Z"/></g>
<g><path style="opacity:1" fill="#02e2ff" d="M 343.5,193.5 C 345.368,194.263 347.035,195.263 348.5,196.5C 342.201,200.593 336.201,205.093 330.5,210C 323.39,212.134 317.723,216.134 313.5,222C 311.156,222.837 309.156,224.171 307.5,226C 306.207,226.49 304.873,226.657 303.5,226.5C 303.649,227.552 303.483,228.552 303,229.5C 300.222,230.612 298.055,232.445 296.5,235C 285.13,242.78 273.963,250.947 263,259.5C 262.503,257.19 262.337,254.857 262.5,252.5C 267.129,249.841 271.462,246.674 275.5,243C 277.717,241.725 280.051,240.725 282.5,240C 283.453,238.045 284.787,236.378 286.5,235C 292.067,230.739 298.067,227.406 304.5,225C 310.094,220.205 316.094,215.871 322.5,212C 329.87,206.305 336.87,200.139 343.5,193.5 Z"/></g>
<g><path style="opacity:1" fill="#ff6b00" d="M 261.5,146.5 C 263.062,146.733 264.395,147.4 265.5,148.5C 264.972,149.721 264.305,150.887 263.5,152C 259.821,154.865 255.821,157.032 251.5,158.5C 245.669,160.583 240.669,163.916 236.5,168.5C 216.77,181.658 197.77,195.491 179.5,210C 175.085,211.779 171.418,214.446 168.5,218C 165.327,220.325 161.994,222.492 158.5,224.5C 158.5,223.167 158.5,221.833 158.5,220.5C 165.628,215.876 172.628,211.042 179.5,206C 180.833,204 182.167,202 183.5,200C 187.967,196.26 192.967,193.26 198.5,191C 200.656,189.01 202.656,186.843 204.5,184.5C 207.526,183.933 210.359,182.933 213,181.5C 218.124,178.023 222.958,174.189 227.5,170C 236.023,165.481 244.023,160.148 251.5,154C 256.065,153.004 259.398,150.504 261.5,146.5 Z"/></g>
<g><path style="opacity:1" fill="#d8ff00" d="M 282.5,158.5 C 284.674,158.75 286.341,159.75 287.5,161.5C 283.394,164.429 279.394,167.596 275.5,171C 268.062,174.587 261.395,179.253 255.5,185C 252.239,187.426 248.573,189.093 244.5,190C 239.888,194.068 235.388,198.235 231,202.5C 230.751,203.624 230.251,204.624 229.5,205.5C 221.423,210.738 213.756,216.571 206.5,223C 191.518,229.982 178.185,239.316 166.5,251C 163.69,251.906 161.024,253.073 158.5,254.5C 158.5,251.833 158.5,249.167 158.5,246.5C 168.185,239.808 177.851,233.141 187.5,226.5C 190.262,225.62 192.929,224.454 195.5,223C 205.004,216.079 214.337,208.912 223.5,201.5C 229.019,198.051 234.686,194.884 240.5,192C 243.843,189.823 246.51,186.99 248.5,183.5C 250.894,182.651 253.227,181.651 255.5,180.5C 260.415,176.085 265.748,172.252 271.5,169C 275.721,165.942 279.388,162.442 282.5,158.5 Z"/></g>
<g><path style="opacity:1" fill="#9c9c9c" d="M 99.5,202.5 C 106.799,203.35 114.132,203.683 121.5,203.5C 114.046,206.308 106.713,205.975 99.5,202.5 Z"/></g>
<g><path style="opacity:1" fill="#9b9b9b" d="M 384.5,201.5 C 393.387,203.747 402.387,204.081 411.5,202.5C 402.341,206.698 393.341,206.365 384.5,201.5 Z"/></g>
<g><path style="opacity:1" fill="#ff8400" d="M 251.5,158.5 C 248.758,161.547 245.424,163.881 241.5,165.5C 240.416,168.088 238.749,170.255 236.5,172C 228.998,176.823 221.665,181.823 214.5,187C 212.536,188.451 211.203,190.284 210.5,192.5C 206.897,194.791 202.897,196.291 198.5,197C 194.652,202.174 189.652,205.84 183.5,208C 182.415,210.172 181.081,212.172 179.5,214C 172.157,218.338 165.157,223.171 158.5,228.5C 158.5,227.167 158.5,225.833 158.5,224.5C 161.994,222.492 165.327,220.325 168.5,218C 171.418,214.446 175.085,211.779 179.5,210C 197.77,195.491 216.77,181.658 236.5,168.5C 240.669,163.916 245.669,160.583 251.5,158.5 Z"/></g>
<g><path style="opacity:1" fill="#5c5c5c" d="M 351.5,198.5 C 351.5,198.167 351.5,197.833 351.5,197.5C 352.833,216.155 353.5,235.155 353.5,254.5C 353.5,273.67 353.167,292.67 352.5,311.5C 352.5,307.5 352.5,303.5 352.5,299.5C 352.5,296.167 352.5,292.833 352.5,289.5C 352.5,287.833 352.5,286.167 352.5,284.5C 352.5,283.5 352.5,282.5 352.5,281.5C 352.5,278.833 352.5,276.167 352.5,273.5C 352.5,272.167 352.5,270.833 352.5,269.5C 352.5,268.167 352.5,266.833 352.5,265.5C 352.5,262.5 352.5,259.5 352.5,256.5C 352.5,254.167 352.5,251.833 352.5,249.5C 352.5,247.833 352.5,246.167 352.5,244.5C 352.5,243.167 352.5,241.833 352.5,240.5C 352.5,234.167 352.5,227.833 352.5,221.5C 352.5,219.833 352.5,218.167 352.5,216.5C 352.5,215.167 352.5,213.833 352.5,212.5C 352.5,210.167 352.5,207.833 352.5,205.5C 352.5,204.833 352.5,204.167 352.5,203.5C 352.784,201.585 352.451,199.919 351.5,198.5 Z"/></g>
<g><path style="opacity:1" fill="#02fe7c" d="M 323.5,182.5 C 325.153,182.66 326.486,183.326 327.5,184.5C 325.159,186.656 323.159,189.156 321.5,192C 316.002,194.923 311.002,198.589 306.5,203C 302.085,204.779 298.418,207.446 295.5,211C 284.305,218.564 273.305,226.397 262.5,234.5C 262.5,231.833 262.5,229.167 262.5,226.5C 267.402,222.799 272.735,219.632 278.5,217C 282.799,214.034 286.466,210.368 289.5,206C 296.284,202.143 302.95,198.143 309.5,194C 313.409,189.259 318.076,185.425 323.5,182.5 Z"/></g>
<g><path style="opacity:1" fill="#03feac" d="M 327.5,184.5 C 330.004,185.584 332.337,186.917 334.5,188.5C 334.489,190.017 333.823,191.184 332.5,192C 326.494,196.009 320.494,200.009 314.5,204C 311.721,207.493 308.054,209.493 303.5,210C 301.328,212.17 299.328,214.503 297.5,217C 295.833,217.333 294.167,217.667 292.5,218C 288.51,221.867 284.177,225.201 279.5,228C 278.323,231.349 275.99,232.849 272.5,232.5C 272.67,233.822 272.337,234.989 271.5,236C 268.586,237.766 265.586,239.266 262.5,240.5C 262.5,238.5 262.5,236.5 262.5,234.5C 273.305,226.397 284.305,218.564 295.5,211C 298.418,207.446 302.085,204.779 306.5,203C 311.002,198.589 316.002,194.923 321.5,192C 323.159,189.156 325.159,186.656 327.5,184.5 Z"/></g>
<g><path style="opacity:1" fill="#a8a8a8" d="M 363.5,198.5 C 363.333,235.835 363.5,273.168 364,310.5C 365.518,311.163 366.685,312.163 367.5,313.5C 365.83,313.249 364.33,312.582 363,311.5C 362.169,273.664 362.336,235.998 363.5,198.5 Z"/></g>
<g><path style="opacity:1" fill="#ffba00" d="M 271.5,152.5 C 272.492,152.328 273.158,152.662 273.5,153.5C 262.821,163.001 251.155,171.168 238.5,178C 228.762,185.384 218.762,192.551 208.5,199.5C 207.139,201.028 205.972,202.695 205,204.5C 194.715,211.39 184.215,217.89 173.5,224C 169.402,228.599 164.402,231.766 158.5,233.5C 158.5,233.167 158.5,232.833 158.5,232.5C 164.02,228.963 169.02,224.796 173.5,220C 177.659,219.628 180.659,217.628 182.5,214C 193.157,208.511 202.491,201.344 210.5,192.5C 212.372,191.489 214.372,190.655 216.5,190C 221.495,184.829 227.495,181.162 234.5,179C 235.743,177.846 236.743,176.512 237.5,175C 249.404,168.225 260.737,160.725 271.5,152.5 Z"/></g>
<g><path style="opacity:1" fill="#04a5ff" d="M 351.5,198.5 C 352.451,199.919 352.784,201.585 352.5,203.5C 348.534,206.488 344.2,208.988 339.5,211C 334.503,217.347 328.169,222.013 320.5,225C 319.167,226.667 317.833,228.333 316.5,230C 310.732,232.947 305.732,236.78 301.5,241.5C 298.491,244.335 295.491,247.169 292.5,250C 286.652,253.377 280.986,256.877 275.5,260.5C 274.687,261.814 273.687,262.981 272.5,264C 269.184,265.602 265.851,267.102 262.5,268.5C 262.558,265.336 263.224,262.336 264.5,259.5C 268.006,258.493 271.339,256.993 274.5,255C 278.334,251.918 282.334,249.084 286.5,246.5C 287.624,245.086 288.624,243.586 289.5,242C 295.349,240.409 300.683,237.742 305.5,234C 319.993,220.939 335.326,209.105 351.5,198.5 Z"/></g>
<g><path style="opacity:1" fill="#5dff00" d="M 251.5,201.5 C 251.5,203.5 251.5,205.5 251.5,207.5C 238.049,218.415 224.382,229.248 210.5,240C 205.637,242.19 201.304,245.19 197.5,249C 195.833,249.333 194.167,249.667 192.5,250C 187.641,256.421 181.641,261.421 174.5,265C 171.124,268.342 167.791,271.675 164.5,275C 162.512,275.938 160.512,276.772 158.5,277.5C 158.5,273.167 158.5,268.833 158.5,264.5C 164.25,262.458 169.584,259.625 174.5,256C 175.833,254 177.167,252 178.5,250C 182.673,248.884 186.007,246.551 188.5,243C 195.802,239.349 203.136,235.682 210.5,232C 213.823,229.676 216.823,227.009 219.5,224C 228.567,219.652 236.234,213.652 242.5,206C 244.167,205.667 245.833,205.333 247.5,205C 248.705,203.624 250.038,202.458 251.5,201.5 Z"/></g>
<g><path style="opacity:1" fill="#ff9d00" d="M 210.5,192.5 C 202.491,201.344 193.157,208.511 182.5,214C 180.659,217.628 177.659,219.628 173.5,220C 169.02,224.796 164.02,228.963 158.5,232.5C 158.5,231.167 158.5,229.833 158.5,228.5C 165.157,223.171 172.157,218.338 179.5,214C 181.081,212.172 182.415,210.172 183.5,208C 189.652,205.84 194.652,202.174 198.5,197C 202.897,196.291 206.897,194.791 210.5,192.5 Z"/></g>
<g><path style="opacity:1" fill="#ffd800" d="M 273.5,153.5 C 275.153,153.66 276.486,154.326 277.5,155.5C 262.602,166.301 247.602,177.134 232.5,188C 226.981,193.261 220.648,197.261 213.5,200C 210.221,202.789 207.221,205.789 204.5,209C 196.767,214.194 189.433,219.861 182.5,226C 174.273,230.939 166.273,236.105 158.5,241.5C 158.5,238.833 158.5,236.167 158.5,233.5C 164.402,231.766 169.402,228.599 173.5,224C 184.215,217.89 194.715,211.39 205,204.5C 205.972,202.695 207.139,201.028 208.5,199.5C 218.762,192.551 228.762,185.384 238.5,178C 251.155,171.168 262.821,163.001 273.5,153.5 Z"/></g>
<g><path style="opacity:1" fill="#15ff0b" d="M 251.5,207.5 C 251.5,214.5 251.5,221.5 251.5,228.5C 244.562,231.972 237.895,235.972 231.5,240.5C 229.526,242.464 227.86,244.631 226.5,247C 221.249,249.264 216.249,251.931 211.5,255C 208.359,259.203 204.359,262.203 199.5,264C 195.303,268.529 190.303,271.862 184.5,274C 183.833,275 183.167,276 182.5,277C 179.173,279.289 175.839,281.622 172.5,284C 171.167,286 169.833,288 168.5,290C 164.66,291.418 161.326,293.585 158.5,296.5C 158.5,290.167 158.5,283.833 158.5,277.5C 160.512,276.772 162.512,275.938 164.5,275C 167.791,271.675 171.124,268.342 174.5,265C 181.641,261.421 187.641,256.421 192.5,250C 194.167,249.667 195.833,249.333 197.5,249C 201.304,245.19 205.637,242.19 210.5,240C 224.382,229.248 238.049,218.415 251.5,207.5 Z"/></g>
<g><path style="opacity:1" fill="#026cff" d="M 352.5,205.5 C 352.5,207.833 352.5,210.167 352.5,212.5C 349.532,212.626 347.532,214.126 346.5,217C 342.136,218.512 338.47,221.012 335.5,224.5C 329.816,228.193 324.149,231.86 318.5,235.5C 321.23,232.287 324.23,229.287 327.5,226.5C 330.777,224.213 333.444,221.213 335.5,217.5C 341.542,213.753 347.209,209.753 352.5,205.5 Z"/></g>
<g><path style="opacity:1" fill="#afff00" d="M 287.5,161.5 C 289.784,161.975 291.784,162.975 293.5,164.5C 287.396,168.436 281.729,172.936 276.5,178C 270.558,181.282 264.892,184.948 259.5,189C 256.596,194.243 252.262,197.576 246.5,199C 239.39,204.108 232.39,209.275 225.5,214.5C 221.356,214.954 217.689,216.454 214.5,219C 212.403,222.225 209.403,224.225 205.5,225C 204.167,227.667 202.167,229.667 199.5,231C 195.5,232.667 191.5,234.333 187.5,236C 183.124,241.869 177.458,246.036 170.5,248.5C 169.594,250.386 168.594,252.22 167.5,254C 164.505,255.498 161.505,256.998 158.5,258.5C 158.5,257.167 158.5,255.833 158.5,254.5C 161.024,253.073 163.69,251.906 166.5,251C 178.185,239.316 191.518,229.982 206.5,223C 213.756,216.571 221.423,210.738 229.5,205.5C 230.251,204.624 230.751,203.624 231,202.5C 235.388,198.235 239.888,194.068 244.5,190C 248.573,189.093 252.239,187.426 255.5,185C 261.395,179.253 268.062,174.587 275.5,171C 279.394,167.596 283.394,164.429 287.5,161.5 Z"/></g>
<g><path style="opacity:1" fill="#01ffe8" d="M 339.5,191.5 C 340.492,191.328 341.158,191.662 341.5,192.5C 321.21,207.653 300.876,222.82 280.5,238C 278.833,238.333 277.167,238.667 275.5,239C 271.517,242.159 267.183,244.659 262.5,246.5C 262.5,245.833 262.5,245.167 262.5,244.5C 271.187,237.016 280.853,230.849 291.5,226C 297.378,220.949 303.378,216.116 309.5,211.5C 320.631,206.34 330.631,199.673 339.5,191.5 Z"/></g>
<g><path style="opacity:1" fill="#018bff" d="M 352.5,203.5 C 352.5,204.167 352.5,204.833 352.5,205.5C 347.209,209.753 341.542,213.753 335.5,217.5C 333.444,221.213 330.777,224.213 327.5,226.5C 319.845,229.105 313.179,233.271 307.5,239C 305.372,239.655 303.372,240.489 301.5,241.5C 305.732,236.78 310.732,232.947 316.5,230C 317.833,228.333 319.167,226.667 320.5,225C 328.169,222.013 334.503,217.347 339.5,211C 344.2,208.988 348.534,206.488 352.5,203.5 Z"/></g>
<g><path style="opacity:1" fill="#02ffcd" d="M 334.5,188.5 C 336.434,189.11 338.101,190.11 339.5,191.5C 330.631,199.673 320.631,206.34 309.5,211.5C 303.378,216.116 297.378,220.949 291.5,226C 280.853,230.849 271.187,237.016 262.5,244.5C 262.5,243.167 262.5,241.833 262.5,240.5C 265.586,239.266 268.586,237.766 271.5,236C 272.337,234.989 272.67,233.822 272.5,232.5C 275.99,232.849 278.323,231.349 279.5,228C 284.177,225.201 288.51,221.867 292.5,218C 294.167,217.667 295.833,217.333 297.5,217C 299.328,214.503 301.328,212.17 303.5,210C 308.054,209.493 311.721,207.493 314.5,204C 320.494,200.009 326.494,196.009 332.5,192C 333.823,191.184 334.489,190.017 334.5,188.5 Z"/></g>
<g><path style="opacity:1" fill="#3dafe0" d="M 348.5,196.5 C 349.391,197.11 350.391,197.443 351.5,197.5C 351.5,197.833 351.5,198.167 351.5,198.5C 335.326,209.105 319.993,220.939 305.5,234C 300.683,237.742 295.349,240.409 289.5,242C 288.624,243.586 287.624,245.086 286.5,246.5C 282.334,249.084 278.334,251.918 274.5,255C 271.339,256.993 268.006,258.493 264.5,259.5C 263.224,262.336 262.558,265.336 262.5,268.5C 262.5,269.833 262.5,271.167 262.5,272.5C 262.5,273.833 262.5,275.167 262.5,276.5C 262.5,279.167 262.5,281.833 262.5,284.5C 262.5,291.167 262.5,297.833 262.5,304.5C 262.737,305.791 262.404,306.791 261.5,307.5C 261.5,272.5 261.5,237.5 261.5,202.5C 262.488,207.64 262.821,212.974 262.5,218.5C 262.5,221.167 262.5,223.833 262.5,226.5C 262.5,229.167 262.5,231.833 262.5,234.5C 262.5,236.5 262.5,238.5 262.5,240.5C 262.5,241.833 262.5,243.167 262.5,244.5C 262.5,245.167 262.5,245.833 262.5,246.5C 262.5,248.5 262.5,250.5 262.5,252.5C 262.337,254.857 262.503,257.19 263,259.5C 273.963,250.947 285.13,242.78 296.5,235C 298.055,232.445 300.222,230.612 303,229.5C 303.483,228.552 303.649,227.552 303.5,226.5C 304.873,226.657 306.207,226.49 307.5,226C 309.156,224.171 311.156,222.837 313.5,222C 317.723,216.134 323.39,212.134 330.5,210C 336.201,205.093 342.201,200.593 348.5,196.5 Z"/></g>
<g><path style="opacity:1" fill="#017cff" d="M 327.5,226.5 C 324.23,229.287 321.23,232.287 318.5,235.5C 311.178,240.786 303.512,245.62 295.5,250C 288.518,257.004 280.518,262.337 271.5,266C 268.603,268.41 265.603,270.577 262.5,272.5C 262.5,271.167 262.5,269.833 262.5,268.5C 265.851,267.102 269.184,265.602 272.5,264C 273.687,262.981 274.687,261.814 275.5,260.5C 280.986,256.877 286.652,253.377 292.5,250C 295.491,247.169 298.491,244.335 301.5,241.5C 303.372,240.489 305.372,239.655 307.5,239C 313.179,233.271 319.845,229.105 327.5,226.5 Z"/></g>
<g><path style="opacity:1" fill="#013dff" d="M 352.5,216.5 C 352.5,218.167 352.5,219.833 352.5,221.5C 347.399,225.246 342.399,229.08 337.5,233C 333.052,235.784 328.385,238.117 323.5,240C 320.355,241.978 317.688,244.478 315.5,247.5C 305.008,254.581 294.342,261.414 283.5,268C 277.421,274.636 270.421,280.136 262.5,284.5C 262.5,281.833 262.5,279.167 262.5,276.5C 274.105,270.996 284.772,263.996 294.5,255.5C 300.772,253.714 305.772,250.214 309.5,245C 315.019,243.114 319.686,240.114 323.5,236C 333.056,230.762 341.722,224.429 349.5,217C 350.448,216.517 351.448,216.351 352.5,216.5 Z"/></g>
<g><path style="opacity:1" fill="#01fe6d" d="M 251.5,234.5 C 251.5,236.5 251.5,238.5 251.5,240.5C 247.266,240.894 244.266,243.06 242.5,247C 236.981,248.886 232.314,251.886 228.5,256C 223.347,259.415 218.347,263.081 213.5,267C 209.085,268.779 205.418,271.446 202.5,275C 193.534,280.327 185.2,286.327 177.5,293C 173.833,294.667 170.167,296.333 166.5,298C 164.728,301.305 162.062,303.472 158.5,304.5C 158.5,303.167 158.5,301.833 158.5,300.5C 164.14,297.68 169.807,294.847 175.5,292C 176.833,290 178.167,288 179.5,286C 182.446,285.194 185.112,283.861 187.5,282C 195.408,275.245 203.408,268.745 211.5,262.5C 219.187,258.965 225.854,254.132 231.5,248C 233.936,247.07 236.269,245.903 238.5,244.5C 241.678,242.593 244.344,240.093 246.5,237C 248.452,236.634 250.118,235.801 251.5,234.5 Z"/></g>
<g><path style="opacity:1" fill="#2306ff" d="M 352.5,221.5 C 352.5,227.833 352.5,234.167 352.5,240.5C 348.574,241.861 344.907,243.694 341.5,246C 330.891,254.545 320.057,262.711 309,270.5C 308.222,272.584 307.055,274.417 305.5,276C 293.643,282.892 281.976,290.059 270.5,297.5C 268.712,299.576 267.046,301.743 265.5,304C 264.552,304.483 263.552,304.649 262.5,304.5C 262.5,297.833 262.5,291.167 262.5,284.5C 270.421,280.136 277.421,274.636 283.5,268C 294.342,261.414 305.008,254.581 315.5,247.5C 317.688,244.478 320.355,241.978 323.5,240C 328.385,238.117 333.052,235.784 337.5,233C 342.399,229.08 347.399,225.246 352.5,221.5 Z"/></g>
<g><path style="opacity:1" fill="#025eff" d="M 352.5,212.5 C 352.5,213.833 352.5,215.167 352.5,216.5C 351.448,216.351 350.448,216.517 349.5,217C 341.722,224.429 333.056,230.762 323.5,236C 319.686,240.114 315.019,243.114 309.5,245C 305.772,250.214 300.772,253.714 294.5,255.5C 284.772,263.996 274.105,270.996 262.5,276.5C 262.5,275.167 262.5,273.833 262.5,272.5C 265.603,270.577 268.603,268.41 271.5,266C 280.518,262.337 288.518,257.004 295.5,250C 303.512,245.62 311.178,240.786 318.5,235.5C 324.149,231.86 329.816,228.193 335.5,224.5C 338.47,221.012 342.136,218.512 346.5,217C 347.532,214.126 349.532,212.626 352.5,212.5 Z"/></g>
<g><path style="opacity:1" fill="#01fe4c" d="M 251.5,228.5 C 251.5,230.5 251.5,232.5 251.5,234.5C 250.118,235.801 248.452,236.634 246.5,237C 244.344,240.093 241.678,242.593 238.5,244.5C 236.269,245.903 233.936,247.07 231.5,248C 225.854,254.132 219.187,258.965 211.5,262.5C 203.408,268.745 195.408,275.245 187.5,282C 185.112,283.861 182.446,285.194 179.5,286C 178.167,288 176.833,290 175.5,292C 169.807,294.847 164.14,297.68 158.5,300.5C 158.5,299.167 158.5,297.833 158.5,296.5C 161.326,293.585 164.66,291.418 168.5,290C 169.833,288 171.167,286 172.5,284C 175.839,281.622 179.173,279.289 182.5,277C 183.167,276 183.833,275 184.5,274C 190.303,271.862 195.303,268.529 199.5,264C 204.359,262.203 208.359,259.203 211.5,255C 216.249,251.931 221.249,249.264 226.5,247C 227.86,244.631 229.526,242.464 231.5,240.5C 237.895,235.972 244.562,231.972 251.5,228.5 Z"/></g>
<g><path style="opacity:1" fill="#fc00fa" d="M 352.5,265.5 C 352.5,266.833 352.5,268.167 352.5,269.5C 330.924,284.396 309.591,299.729 288.5,315.5C 287.755,317.747 286.422,319.58 284.5,321C 272.572,329.116 260.905,337.449 249.5,346C 245.986,348.74 242.986,351.907 240.5,355.5C 240.167,356.167 239.833,356.833 239.5,357.5C 237.5,356.5 235.5,355.5 233.5,354.5C 263.682,331.506 294.349,309.006 325.5,287C 328.865,282.333 332.865,278.333 337.5,275C 339.087,274.138 340.754,273.471 342.5,273C 344.922,269.289 348.255,266.789 352.5,265.5 Z"/></g>
<g><path style="opacity:1" fill="#03f1fe" d="M 251.5,259.5 C 251.5,262.167 251.5,264.833 251.5,267.5C 243.695,272.054 236.028,276.887 228.5,282C 227.743,283.512 226.743,284.846 225.5,286C 221.259,286.787 217.592,288.621 214.5,291.5C 207.178,296.786 199.512,301.62 191.5,306C 186.036,310.945 180.37,315.445 174.5,319.5C 172.326,319.25 170.659,318.25 169.5,316.5C 171.516,314.987 173.849,314.153 176.5,314C 201.174,295.126 226.174,276.959 251.5,259.5 Z"/></g>
<g><path style="opacity:1" fill="#8200ff" d="M 352.5,244.5 C 352.5,246.167 352.5,247.833 352.5,249.5C 347.498,249.334 344.332,251.667 343,256.5C 338.427,260.419 333.927,264.252 329.5,268C 325.102,268.821 321.769,271.154 319.5,275C 315.138,277.512 310.805,280.012 306.5,282.5C 303.36,287.79 298.693,290.957 292.5,292C 291.415,294.172 290.081,296.172 288.5,298C 284.493,300.386 280.493,302.719 276.5,305C 274.444,309.032 271.11,311.032 266.5,311C 265.415,313.172 264.081,315.172 262.5,317C 259.846,318.569 257.179,320.236 254.5,322C 248.522,329.657 240.855,334.824 231.5,337.5C 227.634,340.068 224.3,343.068 221.5,346.5C 219.847,346.34 218.514,345.674 217.5,344.5C 221.585,343.583 224.252,341.083 225.5,337C 229.355,333.572 233.688,330.905 238.5,329C 244.507,323.954 250.507,318.954 256.5,314C 259.795,311.566 263.462,309.899 267.5,309C 274.506,303.992 281.506,298.992 288.5,294C 293.289,289.202 298.623,285.202 304.5,282C 308.542,276.715 313.375,272.215 319,268.5C 319.707,266.919 320.54,265.419 321.5,264C 325.017,262.076 328.684,260.409 332.5,259C 339.325,254.335 345.991,249.502 352.5,244.5 Z"/></g>
<g><path style="opacity:1" fill="#01feb8" d="M 251.5,248.5 C 251.5,250.167 251.5,251.833 251.5,253.5C 246.446,255.906 241.446,258.406 236.5,261C 235.333,265.086 232.666,267.586 228.5,268.5C 222.815,271.017 217.815,274.517 213.5,279C 209.285,279.378 206.285,281.378 204.5,285C 202.156,285.837 200.156,287.171 198.5,289C 196.392,289.36 194.392,290.027 192.5,291C 190.138,294.99 187.138,298.323 183.5,301C 177.138,305.177 170.805,309.344 164.5,313.5C 162.847,313.34 161.514,312.674 160.5,311.5C 162.929,310.242 164.929,308.409 166.5,306C 173.89,302.55 180.89,298.55 187.5,294C 190.418,290.446 194.085,287.779 198.5,286C 203.002,281.589 208.002,277.923 213.5,275C 214.743,273.846 215.743,272.512 216.5,271C 221,268.833 225.5,266.667 230,264.5C 236.767,258.558 243.933,253.225 251.5,248.5 Z"/></g>
<g><path style="opacity:1" fill="#01ceff" d="M 251.5,267.5 C 251.5,269.167 251.5,270.833 251.5,272.5C 250.167,272.833 248.833,273.167 247.5,273.5C 246.448,273.351 245.448,273.517 244.5,274C 234.633,281.369 224.633,288.536 214.5,295.5C 211.076,297.88 208.076,300.713 205.5,304C 201.318,305.923 197.318,308.089 193.5,310.5C 195.905,306.794 199.238,304.294 203.5,303C 205.123,300.92 206.623,298.754 208,296.5C 210.687,295.418 212.854,293.751 214.5,291.5C 217.592,288.621 221.259,286.787 225.5,286C 226.743,284.846 227.743,283.512 228.5,282C 236.028,276.887 243.695,272.054 251.5,267.5 Z"/></g>
<g><path style="opacity:1" fill="#02ffe5" d="M 251.5,253.5 C 251.5,255.5 251.5,257.5 251.5,259.5C 226.174,276.959 201.174,295.126 176.5,314C 173.849,314.153 171.516,314.987 169.5,316.5C 168.508,316.672 167.842,316.338 167.5,315.5C 178.06,308.791 188.393,301.625 198.5,294C 203.444,290.06 208.11,285.726 212.5,281C 216.48,279.034 220.48,277.034 224.5,275C 226.058,272.948 227.392,270.781 228.5,268.5C 232.666,267.586 235.333,265.086 236.5,261C 241.446,258.406 246.446,255.906 251.5,253.5 Z"/></g>
<g><path style="opacity:1" fill="#01fea0" d="M 251.5,244.5 C 251.5,245.833 251.5,247.167 251.5,248.5C 243.933,253.225 236.767,258.558 230,264.5C 225.5,266.667 221,268.833 216.5,271C 215.743,272.512 214.743,273.846 213.5,275C 208.002,277.923 203.002,281.589 198.5,286C 194.085,287.779 190.418,290.446 187.5,294C 180.89,298.55 173.89,302.55 166.5,306C 164.929,308.409 162.929,310.242 160.5,311.5C 159.833,311.5 159.167,311.5 158.5,311.5C 158.5,310.5 158.5,309.5 158.5,308.5C 163.055,305.916 167.722,303.416 172.5,301C 183.708,292.566 194.708,283.9 205.5,275C 210.833,272.333 216.167,269.667 221.5,267C 231.313,259.259 241.313,251.759 251.5,244.5 Z"/></g>
<g><path style="opacity:1" fill="#0398ff" d="M 251.5,272.5 C 251.5,274.167 251.5,275.833 251.5,277.5C 248.377,281.427 244.71,284.927 240.5,288C 236.241,289.934 232.241,292.268 228.5,295C 225.761,298.876 222.095,301.543 217.5,303C 215.362,305.908 213.028,308.408 210.5,310.5C 209.448,310.351 208.448,310.517 207.5,311C 200.451,316.263 193.451,321.429 186.5,326.5C 184.847,326.34 183.514,325.674 182.5,324.5C 187.485,323.687 190.818,320.853 192.5,316C 202.233,309.775 211.566,302.942 220.5,295.5C 224.044,294.211 227.377,292.544 230.5,290.5C 231.584,289.335 232.417,288.002 233,286.5C 238.676,282.985 243.509,278.651 247.5,273.5C 248.833,273.167 250.167,272.833 251.5,272.5 Z"/></g>
<g><path style="opacity:1" fill="#a800ff" d="M 352.5,249.5 C 352.5,251.833 352.5,254.167 352.5,256.5C 350.027,258.143 348.027,260.31 346.5,263C 340.622,266.989 334.622,270.989 328.5,275C 323.915,280.236 318.248,283.902 311.5,286C 308.086,289.039 304.753,292.039 301.5,295C 295.111,297.409 290.445,301.742 287.5,308C 277.18,313.766 267.513,320.432 258.5,328C 252.485,331.689 246.485,335.356 240.5,339C 236.476,343.252 232.143,347.085 227.5,350.5C 225.118,349.649 223.118,348.316 221.5,346.5C 224.3,343.068 227.634,340.068 231.5,337.5C 240.855,334.824 248.522,329.657 254.5,322C 257.179,320.236 259.846,318.569 262.5,317C 264.081,315.172 265.415,313.172 266.5,311C 271.11,311.032 274.444,309.032 276.5,305C 280.493,302.719 284.493,300.386 288.5,298C 290.081,296.172 291.415,294.172 292.5,292C 298.693,290.957 303.36,287.79 306.5,282.5C 310.805,280.012 315.138,277.512 319.5,275C 321.769,271.154 325.102,268.821 329.5,268C 333.927,264.252 338.427,260.419 343,256.5C 344.332,251.667 347.498,249.334 352.5,249.5 Z"/></g>
<g><path style="opacity:1" fill="#017eff" d="M 251.5,277.5 C 251.5,278.833 251.5,280.167 251.5,281.5C 246.768,285.843 241.435,289.51 235.5,292.5C 232.705,296.576 229.371,300.076 225.5,303C 220.752,306.041 215.752,308.541 210.5,310.5C 213.028,308.408 215.362,305.908 217.5,303C 222.095,301.543 225.761,298.876 228.5,295C 232.241,292.268 236.241,289.934 240.5,288C 244.71,284.927 248.377,281.427 251.5,277.5 Z"/></g>
<g><path style="opacity:1" fill="#026dff" d="M 251.5,281.5 C 251.5,282.833 251.5,284.167 251.5,285.5C 244.843,290.829 237.843,295.662 230.5,300C 226.777,305.366 221.777,309.033 215.5,311C 212.98,312.763 210.647,314.763 208.5,317C 201.848,320.601 195.181,324.101 188.5,327.5C 187.508,327.672 186.842,327.338 186.5,326.5C 193.451,321.429 200.451,316.263 207.5,311C 208.448,310.517 209.448,310.351 210.5,310.5C 215.752,308.541 220.752,306.041 225.5,303C 229.371,300.076 232.705,296.576 235.5,292.5C 241.435,289.51 246.768,285.843 251.5,281.5 Z"/></g>
<g><path style="opacity:1" fill="#ff00aa" d="M 352.5,281.5 C 352.5,282.5 352.5,283.5 352.5,284.5C 351.448,284.351 350.448,284.517 349.5,285C 343.359,290.238 337.025,295.238 330.5,300C 326.864,302.823 322.864,305.156 318.5,307C 316.529,310.647 313.529,312.814 309.5,313.5C 314.283,308.759 318.949,303.925 323.5,299C 332.753,292.697 342.42,286.863 352.5,281.5 Z"/></g>
<g><path style="opacity:1" fill="#01fe87" d="M 251.5,240.5 C 251.5,241.833 251.5,243.167 251.5,244.5C 241.313,251.759 231.313,259.259 221.5,267C 216.167,269.667 210.833,272.333 205.5,275C 194.708,283.9 183.708,292.566 172.5,301C 167.722,303.416 163.055,305.916 158.5,308.5C 158.5,307.167 158.5,305.833 158.5,304.5C 162.062,303.472 164.728,301.305 166.5,298C 170.167,296.333 173.833,294.667 177.5,293C 185.2,286.327 193.534,280.327 202.5,275C 205.418,271.446 209.085,268.779 213.5,267C 218.347,263.081 223.347,259.415 228.5,256C 232.314,251.886 236.981,248.886 242.5,247C 244.266,243.06 247.266,240.894 251.5,240.5 Z"/></g>
<g><path style="opacity:1" fill="#ff00c5" d="M 352.5,273.5 C 352.5,276.167 352.5,278.833 352.5,281.5C 342.42,286.863 332.753,292.697 323.5,299C 318.949,303.925 314.283,308.759 309.5,313.5C 304.033,316.672 298.367,319.672 292.5,322.5C 286.702,326.132 281.702,330.632 277.5,336C 273.554,337.306 269.888,339.139 266.5,341.5C 258.854,347.473 251.188,353.473 243.5,359.5C 241.938,359.267 240.605,358.6 239.5,357.5C 239.833,356.833 240.167,356.167 240.5,355.5C 244.62,354.603 247.953,352.436 250.5,349C 255.131,347.69 258.797,345.023 261.5,341C 268.497,336.322 275.164,331.322 281.5,326C 287.985,323.185 293.652,319.185 298.5,314C 311.06,306.426 322.727,297.76 333.5,288C 334.5,287.667 335.5,287.333 336.5,287C 337.376,284.854 338.709,283.021 340.5,281.5C 345.254,279.729 349.254,277.062 352.5,273.5 Z"/></g>
<g><path style="opacity:1" fill="#02b8ff" d="M 247.5,273.5 C 243.509,278.651 238.676,282.985 233,286.5C 232.417,288.002 231.584,289.335 230.5,290.5C 227.377,292.544 224.044,294.211 220.5,295.5C 211.566,302.942 202.233,309.775 192.5,316C 190.818,320.853 187.485,323.687 182.5,324.5C 180.632,323.737 178.965,322.737 177.5,321.5C 180.418,318.835 183.418,316.168 186.5,313.5C 188.656,311.991 190.99,310.991 193.5,310.5C 197.318,308.089 201.318,305.923 205.5,304C 208.076,300.713 211.076,297.88 214.5,295.5C 224.633,288.536 234.633,281.369 244.5,274C 245.448,273.517 246.448,273.351 247.5,273.5 Z"/></g>
<g><path style="opacity:1" fill="#e000ff" d="M 352.5,256.5 C 352.5,259.5 352.5,262.5 352.5,265.5C 348.255,266.789 344.922,269.289 342.5,273C 340.754,273.471 339.087,274.138 337.5,275C 332.865,278.333 328.865,282.333 325.5,287C 294.349,309.006 263.682,331.506 233.5,354.5C 231.463,353.154 229.463,351.82 227.5,350.5C 232.143,347.085 236.476,343.252 240.5,339C 246.485,335.356 252.485,331.689 258.5,328C 267.513,320.432 277.18,313.766 287.5,308C 290.445,301.742 295.111,297.409 301.5,295C 304.753,292.039 308.086,289.039 311.5,286C 318.248,283.902 323.915,280.236 328.5,275C 334.622,270.989 340.622,266.989 346.5,263C 348.027,260.31 350.027,258.143 352.5,256.5 Z"/></g>
<g><path style="opacity:1" fill="#01ffce" d="M 228.5,268.5 C 227.392,270.781 226.058,272.948 224.5,275C 220.48,277.034 216.48,279.034 212.5,281C 208.11,285.726 203.444,290.06 198.5,294C 188.393,301.625 178.06,308.791 167.5,315.5C 165.973,315.573 164.973,314.906 164.5,313.5C 170.805,309.344 177.138,305.177 183.5,301C 187.138,298.323 190.138,294.99 192.5,291C 194.392,290.027 196.392,289.36 198.5,289C 200.156,287.171 202.156,285.837 204.5,285C 206.285,281.378 209.285,279.378 213.5,279C 217.815,274.517 222.815,271.017 228.5,268.5 Z"/></g>
<g><path style="opacity:1" fill="#013fff" d="M 251.5,289.5 C 251.5,290.833 251.5,292.167 251.5,293.5C 244.983,297.264 238.983,301.764 233.5,307C 228.021,310.579 222.354,313.913 216.5,317C 210.754,323.371 204.088,328.537 196.5,332.5C 194.632,331.737 192.965,330.737 191.5,329.5C 197.496,327.197 202.83,323.697 207.5,319C 211.573,318.093 215.239,316.426 218.5,314C 229.399,305.587 240.399,297.421 251.5,289.5 Z"/></g>
<g><path style="opacity:1" fill="#929292" d="M 129.5,309.5 C 121.243,305.937 112.576,304.603 103.5,305.5C 110.375,303.144 117.375,303.311 124.5,306C 126.584,306.697 128.251,307.864 129.5,309.5 Z"/></g>
<g><path style="opacity:1" fill="#0155ff" d="M 251.5,285.5 C 251.5,286.833 251.5,288.167 251.5,289.5C 240.399,297.421 229.399,305.587 218.5,314C 215.239,316.426 211.573,318.093 207.5,319C 202.83,323.697 197.496,327.197 191.5,329.5C 189.973,329.573 188.973,328.906 188.5,327.5C 195.181,324.101 201.848,320.601 208.5,317C 210.647,314.763 212.98,312.763 215.5,311C 221.777,309.033 226.777,305.366 230.5,300C 237.843,295.662 244.843,290.829 251.5,285.5 Z"/></g>
<g><path style="opacity:1" fill="#8f8f8f" d="M 418.5,310.5 C 409.733,306.028 400.399,304.362 390.5,305.5C 395.965,303.061 401.631,302.895 407.5,305C 411.776,305.805 415.443,307.638 418.5,310.5 Z"/></g>
<g><path style="opacity:1" fill="#ff008f" d="M 352.5,284.5 C 352.5,286.167 352.5,287.833 352.5,289.5C 347.377,293.947 341.71,297.614 335.5,300.5C 333.527,301.487 331.527,302.487 329.5,303.5C 321.669,309.17 314.003,315.003 306.5,321C 304.414,321.315 302.414,321.815 300.5,322.5C 300.369,321.761 300.536,321.094 301,320.5C 304.364,318.745 307.198,316.412 309.5,313.5C 313.529,312.814 316.529,310.647 318.5,307C 322.864,305.156 326.864,302.823 330.5,300C 337.025,295.238 343.359,290.238 349.5,285C 350.448,284.517 351.448,284.351 352.5,284.5 Z"/></g>
<g><path style="opacity:1" fill="#01e0ff" d="M 214.5,291.5 C 212.854,293.751 210.687,295.418 208,296.5C 206.623,298.754 205.123,300.92 203.5,303C 199.238,304.294 195.905,306.794 193.5,310.5C 190.99,310.991 188.656,311.991 186.5,313.5C 183.418,316.168 180.418,318.835 177.5,321.5C 175.973,321.573 174.973,320.906 174.5,319.5C 180.37,315.445 186.036,310.945 191.5,306C 199.512,301.62 207.178,296.786 214.5,291.5 Z"/></g>
<g><path style="opacity:1" fill="#1a0aff" d="M 251.5,293.5 C 251.214,299.259 251.548,304.925 252.5,310.5C 245.307,316.462 237.974,322.462 230.5,328.5C 223.37,331.926 216.703,335.926 210.5,340.5C 205.554,338.197 200.887,335.531 196.5,332.5C 204.088,328.537 210.754,323.371 216.5,317C 222.354,313.913 228.021,310.579 233.5,307C 238.983,301.764 244.983,297.264 251.5,293.5 Z"/></g>
<g><path style="opacity:1" fill="#ff0005" d="M 115.5,315.5 C 127.242,317.782 133.575,324.948 134.5,337C 134.354,339.76 133.687,342.26 132.5,344.5C 127.307,334.621 121.64,324.954 115.5,315.5 Z"/></g>
<g><path style="opacity:1" fill="#fe0003" d="M 398.5,315.5 C 398.291,316.922 397.791,318.255 397,319.5C 390.824,327.863 384.658,336.196 378.5,344.5C 374.725,332.526 378.392,323.36 389.5,317C 392.393,315.851 395.393,315.351 398.5,315.5 Z"/></g>
<g><path style="opacity:1" fill="#ff008c" d="M 111.5,315.5 C 112.167,315.5 112.833,315.5 113.5,315.5C 113.832,318.581 115.332,320.914 118,322.5C 118.49,323.793 118.657,325.127 118.5,326.5C 114.99,323.642 112.657,319.976 111.5,315.5 Z"/></g>
<g><path style="opacity:1" fill="#0b6dff" d="M 99.5,319.5 C 101.381,322.906 103.548,326.239 106,329.5C 106.49,330.793 106.657,332.127 106.5,333.5C 103.075,329.433 100.075,325.1 97.5,320.5C 97.8417,319.662 98.5084,319.328 99.5,319.5 Z"/></g>
<g><path style="opacity:1" fill="#360cff" d="M 407.5,316.5 C 409.23,317.026 410.564,318.026 411.5,319.5C 402.356,331.109 393.689,343.109 385.5,355.5C 384.167,354.833 383.167,353.833 382.5,352.5C 390.824,340.529 399.157,328.529 407.5,316.5 Z"/></g>
<g><path style="opacity:1" fill="#ff00ab" d="M 309.5,313.5 C 307.198,316.412 304.364,318.745 301,320.5C 300.536,321.094 300.369,321.761 300.5,322.5C 296.672,324.579 292.672,326.412 288.5,328C 280.665,336.503 271.665,343.503 261.5,349C 257.173,352.659 252.84,356.326 248.5,360C 247.552,360.483 246.552,360.649 245.5,360.5C 244.508,360.672 243.842,360.338 243.5,359.5C 251.188,353.473 258.854,347.473 266.5,341.5C 269.888,339.139 273.554,337.306 277.5,336C 281.702,330.632 286.702,326.132 292.5,322.5C 298.367,319.672 304.033,316.672 309.5,313.5 Z"/></g>
<g><path style="opacity:1" fill="#ffff9f" d="M 400.5,315.5 C 401.167,315.5 401.833,315.5 402.5,315.5C 395.534,327.12 388.201,338.453 380.5,349.5C 379.599,348.71 378.932,347.71 378.5,346.5C 384.889,338.749 391.055,330.749 397,322.5C 398.18,320.14 399.347,317.807 400.5,315.5 Z"/></g>
<g><path style="opacity:1" fill="#6000ff" d="M 352.5,240.5 C 352.5,241.833 352.5,243.167 352.5,244.5C 345.991,249.502 339.325,254.335 332.5,259C 328.684,260.409 325.017,262.076 321.5,264C 320.54,265.419 319.707,266.919 319,268.5C 313.375,272.215 308.542,276.715 304.5,282C 298.623,285.202 293.289,289.202 288.5,294C 281.506,298.992 274.506,303.992 267.5,309C 263.462,309.899 259.795,311.566 256.5,314C 250.507,318.954 244.507,323.954 238.5,329C 233.688,330.905 229.355,333.572 225.5,337C 224.252,341.083 221.585,343.583 217.5,344.5C 214.968,343.404 212.635,342.071 210.5,340.5C 216.703,335.926 223.37,331.926 230.5,328.5C 237.974,322.462 245.307,316.462 252.5,310.5C 256.678,313.251 259.678,312.251 261.5,307.5C 262.404,306.791 262.737,305.791 262.5,304.5C 263.552,304.649 264.552,304.483 265.5,304C 267.046,301.743 268.712,299.576 270.5,297.5C 281.976,290.059 293.643,282.892 305.5,276C 307.055,274.417 308.222,272.584 309,270.5C 320.057,262.711 330.891,254.545 341.5,246C 344.907,243.694 348.574,241.861 352.5,240.5 Z"/></g>
<g><path style="opacity:1" fill="#ff0061" d="M 352.5,289.5 C 352.5,292.833 352.5,296.167 352.5,299.5C 349.206,301.158 346.206,303.324 343.5,306C 339.78,305.76 337.113,307.26 335.5,310.5C 331.094,311.122 327.761,313.288 325.5,317C 318.032,321.236 310.699,325.736 303.5,330.5C 301.973,332.193 300.64,334.027 299.5,336C 291.878,340.039 284.544,344.539 277.5,349.5C 273.115,353.832 268.115,357.498 262.5,360.5C 261.575,361.357 260.908,362.357 260.5,363.5C 258.426,365.736 256.092,366.403 253.5,365.5C 263.319,358.196 273.319,351.03 283.5,344C 284.833,342 286.167,340 287.5,338C 291.589,334.905 295.923,332.239 300.5,330C 302.167,327.667 303.833,325.333 305.5,323C 309.204,320.148 313.204,317.815 317.5,316C 320.239,312.124 323.905,309.457 328.5,308C 331.05,305.691 333.383,303.191 335.5,300.5C 341.71,297.614 347.377,293.947 352.5,289.5 Z"/></g>
<g><path style="opacity:1" fill="#fdffde" d="M 107.5,315.5 C 108.833,315.5 110.167,315.5 111.5,315.5C 112.657,319.976 114.99,323.642 118.5,326.5C 118.5,327.833 118.5,329.167 118.5,330.5C 113.682,326.348 110.015,321.348 107.5,315.5 Z"/></g>
<g><path style="opacity:1" fill="#ffff58" d="M 113.5,315.5 C 114.167,315.5 114.833,315.5 115.5,315.5C 121.64,324.954 127.307,334.621 132.5,344.5C 132.598,346.553 131.931,348.22 130.5,349.5C 130.155,346.802 128.822,344.802 126.5,343.5C 126.5,342.167 126.5,340.833 126.5,339.5C 126.657,338.127 126.49,336.793 126,335.5C 123.583,332.266 121.083,329.266 118.5,326.5C 118.657,325.127 118.49,323.793 118,322.5C 115.332,320.914 113.832,318.581 113.5,315.5 Z"/></g>
<g><path style="opacity:1" fill="#08feac" d="M 415.5,322.5 C 416.167,322.5 416.5,322.833 416.5,323.5C 414.975,326.563 412.975,329.23 410.5,331.5C 410.421,330.07 410.754,328.736 411.5,327.5C 413.082,325.985 414.416,324.319 415.5,322.5 Z"/></g>
<g><path style="opacity:1" fill="#075aff" d="M 411.5,319.5 C 411.833,319.5 412.167,319.5 412.5,319.5C 403.75,331.578 395.416,343.911 387.5,356.5C 386.833,356.167 386.167,355.833 385.5,355.5C 393.689,343.109 402.356,331.109 411.5,319.5 Z"/></g>
<g><path style="opacity:1" fill="#ff0053" d="M 398.5,315.5 C 399.167,315.5 399.833,315.5 400.5,315.5C 399.347,317.807 398.18,320.14 397,322.5C 391.055,330.749 384.889,338.749 378.5,346.5C 378.5,345.833 378.5,345.167 378.5,344.5C 384.658,336.196 390.824,327.863 397,319.5C 397.791,318.255 398.291,316.922 398.5,315.5 Z"/></g>
<g><path style="opacity:1" fill="#07f7f7" d="M 95.5,322.5 C 96.4787,324.145 97.812,325.479 99.5,326.5C 100.372,328.45 101.039,330.45 101.5,332.5C 98.7305,329.846 96.3971,326.846 94.5,323.5C 94.5,322.833 94.8333,322.5 95.5,322.5 Z"/></g>
<g><path style="opacity:1" fill="#ffff93" d="M 118.5,326.5 C 121.083,329.266 123.583,332.266 126,335.5C 126.49,336.793 126.657,338.127 126.5,339.5C 123.833,336.5 121.167,333.5 118.5,330.5C 118.5,329.167 118.5,327.833 118.5,326.5 Z"/></g>
<g><path style="opacity:1" fill="#fe0043" d="M 335.5,310.5 C 332.961,313.084 330.294,315.584 327.5,318C 326.5,318.333 325.5,318.667 324.5,319C 316.884,327.628 307.884,334.294 297.5,339C 294.964,341.705 292.297,344.205 289.5,346.5C 280.334,352.92 270.668,358.587 260.5,363.5C 260.908,362.357 261.575,361.357 262.5,360.5C 268.115,357.498 273.115,353.832 277.5,349.5C 284.544,344.539 291.878,340.039 299.5,336C 300.64,334.027 301.973,332.193 303.5,330.5C 310.699,325.736 318.032,321.236 325.5,317C 327.761,313.288 331.094,311.122 335.5,310.5 Z"/></g>
<g><path style="opacity:1" fill="#3d10ff" d="M 104.5,316.5 C 109.277,322.516 113.944,328.516 118.5,334.5C 119.785,341.733 123.118,347.733 128.5,352.5C 126.704,354.9 124.37,356.567 121.5,357.5C 120.471,355.483 119.471,353.483 118.5,351.5C 117.265,347.235 115.432,343.235 113,339.5C 111.693,337.808 110.193,336.475 108.5,335.5C 108.5,334.167 107.833,333.5 106.5,333.5C 106.657,332.127 106.49,330.793 106,329.5C 103.548,326.239 101.381,322.906 99.5,319.5C 100.659,317.75 102.326,316.75 104.5,316.5 Z"/></g>
<g><path style="opacity:1" fill="#ccfffe" d="M 107.5,315.5 C 110.015,321.348 113.682,326.348 118.5,330.5C 118.5,331.833 118.5,333.167 118.5,334.5C 113.944,328.516 109.277,322.516 104.5,316.5C 105.391,315.89 106.391,315.557 107.5,315.5 Z"/></g>
<g><path style="opacity:1" fill="#f6fff1" d="M 402.5,315.5 C 403.791,315.263 404.791,315.596 405.5,316.5C 397.5,327.833 389.5,339.167 381.5,350.5C 380.833,350.5 380.5,350.167 380.5,349.5C 388.201,338.453 395.534,327.12 402.5,315.5 Z"/></g>
<g><path style="opacity:1" fill="#fe00e4" d="M 118.5,330.5 C 121.167,333.5 123.833,336.5 126.5,339.5C 126.5,340.833 126.5,342.167 126.5,343.5C 123.833,340.5 121.167,337.5 118.5,334.5C 118.5,333.167 118.5,331.833 118.5,330.5 Z"/></g>
<g><path style="opacity:1" fill="#848484" d="M 81.5,324.5 C 79.8678,331.044 79.2011,337.711 79.5,344.5C 78.3503,339.684 78.1837,334.684 79,329.5C 79.3736,327.509 80.207,325.842 81.5,324.5 Z"/></g>
<g><path style="opacity:1" fill="#179fff" d="M 97.5,320.5 C 100.075,325.1 103.075,329.433 106.5,333.5C 107.833,333.5 108.5,334.167 108.5,335.5C 108.833,336.833 109.167,338.167 109.5,339.5C 107.5,337.5 105.5,335.5 103.5,333.5C 102.833,333.167 102.167,332.833 101.5,332.5C 101.039,330.45 100.372,328.45 99.5,326.5C 97.812,325.479 96.4787,324.145 95.5,322.5C 95.8333,321.5 96.5,320.833 97.5,320.5 Z"/></g>
<g><path style="opacity:1" fill="#fe0026" d="M 352.5,299.5 C 352.5,303.5 352.5,307.5 352.5,311.5C 331.661,323.42 310.661,335.087 289.5,346.5C 292.297,344.205 294.964,341.705 297.5,339C 307.884,334.294 316.884,327.628 324.5,319C 325.5,318.667 326.5,318.333 327.5,318C 330.294,315.584 332.961,313.084 335.5,310.5C 337.113,307.26 339.78,305.76 343.5,306C 346.206,303.324 349.206,301.158 352.5,299.5 Z"/></g>
<g><path style="opacity:1" fill="#1efe3a" d="M 92.5,326.5 C 98.124,335.775 104.457,344.442 111.5,352.5C 112.688,354.722 113.688,357.055 114.5,359.5C 111.287,359.81 108.287,359.477 105.5,358.5C 101.137,350.419 96.3037,342.752 91,335.5C 90.51,334.207 90.3433,332.873 90.5,331.5C 90.4021,329.447 91.0687,327.78 92.5,326.5 Z"/></g>
<g><path style="opacity:1" fill="#095aff" d="M 108.5,335.5 C 110.193,336.475 111.693,337.808 113,339.5C 115.432,343.235 117.265,347.235 118.5,351.5C 116.5,349.5 114.5,347.5 112.5,345.5C 112.245,343.033 111.245,341.033 109.5,339.5C 109.167,338.167 108.833,336.833 108.5,335.5 Z"/></g>
<g><path style="opacity:1" fill="#ae00ff" d="M 405.5,316.5 C 406.167,316.5 406.833,316.5 407.5,316.5C 399.157,328.529 390.824,340.529 382.5,352.5C 381.662,352.158 381.328,351.492 381.5,350.5C 389.5,339.167 397.5,327.833 405.5,316.5 Z"/></g>
<g><path style="opacity:1" fill="#0ba8ff" d="M 412.5,319.5 C 413.5,319.833 414.167,320.5 414.5,321.5C 406.532,331.412 399.032,341.745 392,352.5C 390.629,354.041 389.129,355.375 387.5,356.5C 395.416,343.911 403.75,331.578 412.5,319.5 Z"/></g>
<g><path style="opacity:1" fill="#ff0079" d="M 335.5,300.5 C 333.383,303.191 331.05,305.691 328.5,308C 323.905,309.457 320.239,312.124 317.5,316C 313.204,317.815 309.204,320.148 305.5,323C 303.833,325.333 302.167,327.667 300.5,330C 295.923,332.239 291.589,334.905 287.5,338C 286.167,340 284.833,342 283.5,344C 273.319,351.03 263.319,358.196 253.5,365.5C 252.29,365.068 251.29,364.401 250.5,363.5C 256.216,360.292 261.216,356.125 265.5,351C 269.137,351.316 271.804,349.982 273.5,347C 274.5,346.667 275.5,346.333 276.5,346C 279.252,340.247 283.585,336.247 289.5,334C 292.394,329.337 296.06,325.503 300.5,322.5C 302.414,321.815 304.414,321.315 306.5,321C 314.003,315.003 321.669,309.17 329.5,303.5C 331.527,302.487 333.527,301.487 335.5,300.5 Z"/></g>
<g><path style="opacity:1" fill="#0cf2f7" d="M 414.5,321.5 C 415.167,321.5 415.5,321.833 415.5,322.5C 414.416,324.319 413.082,325.985 411.5,327.5C 410.754,328.736 410.421,330.07 410.5,331.5C 405.217,334.719 401.883,339.386 400.5,345.5C 398.297,346.884 396.297,348.551 394.5,350.5C 393.534,353.469 391.867,355.802 389.5,357.5C 388.508,357.672 387.842,357.338 387.5,356.5C 389.129,355.375 390.629,354.041 392,352.5C 399.032,341.745 406.532,331.412 414.5,321.5 Z"/></g>
<g><path style="opacity:1" fill="#15d4fe" d="M 103.5,333.5 C 105.5,335.5 107.5,337.5 109.5,339.5C 111.245,341.033 112.245,343.033 112.5,345.5C 112.5,346.833 112.5,348.167 112.5,349.5C 111.5,348.833 110.5,348.167 109.5,347.5C 108.823,343.625 106.99,340.292 104,337.5C 103.51,336.207 103.343,334.873 103.5,333.5 Z"/></g>
<g><path style="opacity:1" fill="#14febe" d="M 94.5,323.5 C 96.3971,326.846 98.7305,329.846 101.5,332.5C 102.167,332.833 102.833,333.167 103.5,333.5C 103.343,334.873 103.51,336.207 104,337.5C 106.99,340.292 108.823,343.625 109.5,347.5C 110.167,349.167 110.833,350.833 111.5,352.5C 104.457,344.442 98.124,335.775 92.5,326.5C 92.9321,325.29 93.5987,324.29 94.5,323.5 Z"/></g>
<g><path style="opacity:1" fill="#0cfeac" d="M 410.5,331.5 C 408.133,336.918 404.8,341.584 400.5,345.5C 401.883,339.386 405.217,334.719 410.5,331.5 Z"/></g>
<g><path style="opacity:1" fill="#ff3b00" d="M 421.5,337.5 C 421.15,347.88 416.15,354.88 406.5,358.5C 411.267,351.286 416.267,344.286 421.5,337.5 Z"/></g>
<g><path style="opacity:1" fill="#d0fdfa" d="M 118.5,334.5 C 121.167,337.5 123.833,340.5 126.5,343.5C 128.822,344.802 130.155,346.802 130.5,349.5C 130.068,350.71 129.401,351.71 128.5,352.5C 123.118,347.733 119.785,341.733 118.5,334.5 Z"/></g>
<g><path style="opacity:1" fill="#abff00" d="M 420.5,329.5 C 420.5,330.5 420.5,331.5 420.5,332.5C 413.84,341.178 407.506,350.178 401.5,359.5C 400.5,359.5 399.5,359.5 398.5,359.5C 405.479,349.196 412.812,339.196 420.5,329.5 Z"/></g>
<g><path style="opacity:1" fill="#90fe00" d="M 90.5,331.5 C 90.3433,332.873 90.51,334.207 91,335.5C 96.3037,342.752 101.137,350.419 105.5,358.5C 102.794,358.312 100.461,357.312 98.5,355.5C 97.5528,352.066 96.3861,348.733 95,345.5C 92.8863,342.907 91.053,340.24 89.5,337.5C 89.2053,335.265 89.5386,333.265 90.5,331.5 Z"/></g>
<g><path style="opacity:1" fill="#ff00e1" d="M 352.5,269.5 C 352.5,270.833 352.5,272.167 352.5,273.5C 349.254,277.062 345.254,279.729 340.5,281.5C 338.709,283.021 337.376,284.854 336.5,287C 335.5,287.333 334.5,287.667 333.5,288C 322.727,297.76 311.06,306.426 298.5,314C 293.652,319.185 287.985,323.185 281.5,326C 275.164,331.322 268.497,336.322 261.5,341C 258.797,345.023 255.131,347.69 250.5,349C 247.953,352.436 244.62,354.603 240.5,355.5C 242.986,351.907 245.986,348.74 249.5,346C 260.905,337.449 272.572,329.116 284.5,321C 286.422,319.58 287.755,317.747 288.5,315.5C 309.591,299.729 330.924,284.396 352.5,269.5 Z"/></g>
<g><path style="opacity:1" fill="#31ff27" d="M 416.5,323.5 C 418.192,325.205 419.525,327.205 420.5,329.5C 412.812,339.196 405.479,349.196 398.5,359.5C 396.265,359.795 394.265,359.461 392.5,358.5C 395.167,354.167 397.833,349.833 400.5,345.5C 404.8,341.584 408.133,336.918 410.5,331.5C 412.975,329.23 414.975,326.563 416.5,323.5 Z"/></g>
<g><path style="opacity:1" fill="#f7f700" d="M 420.5,332.5 C 421.338,332.842 421.672,333.508 421.5,334.5C 415.507,342.828 409.507,351.161 403.5,359.5C 402.833,359.5 402.167,359.5 401.5,359.5C 407.506,350.178 413.84,341.178 420.5,332.5 Z"/></g>
<g><path style="opacity:1" fill="#eff600" d="M 89.5,337.5 C 91.053,340.24 92.8863,342.907 95,345.5C 96.3861,348.733 97.5528,352.066 98.5,355.5C 92.3297,351.16 89.3297,345.16 89.5,337.5 Z"/></g>
<g><path style="opacity:1" fill="#0dfeb2" d="M 400.5,345.5 C 397.833,349.833 395.167,354.167 392.5,358.5C 391.209,358.737 390.209,358.404 389.5,357.5C 391.867,355.802 393.534,353.469 394.5,350.5C 396.297,348.551 398.297,346.884 400.5,345.5 Z"/></g>
<g><path style="opacity:1" fill="#12f8e7" d="M 109.5,347.5 C 110.5,348.167 111.5,348.833 112.5,349.5C 115.277,351.951 117.277,354.951 118.5,358.5C 117.432,359.434 116.099,359.768 114.5,359.5C 113.688,357.055 112.688,354.722 111.5,352.5C 110.833,350.833 110.167,349.167 109.5,347.5 Z"/></g>
<g><path style="opacity:1" fill="#0fa4ff" d="M 112.5,345.5 C 114.5,347.5 116.5,349.5 118.5,351.5C 119.471,353.483 120.471,355.483 121.5,357.5C 120.791,358.404 119.791,358.737 118.5,358.5C 117.277,354.951 115.277,351.951 112.5,349.5C 112.5,348.167 112.5,346.833 112.5,345.5 Z"/></g>
<g><path style="opacity:1" fill="#ff0090" d="M 300.5,322.5 C 296.06,325.503 292.394,329.337 289.5,334C 283.585,336.247 279.252,340.247 276.5,346C 275.5,346.333 274.5,346.667 273.5,347C 271.804,349.982 269.137,351.316 265.5,351C 261.216,356.125 256.216,360.292 250.5,363.5C 248.566,362.89 246.899,361.89 245.5,360.5C 246.552,360.649 247.552,360.483 248.5,360C 252.84,356.326 257.173,352.659 261.5,349C 271.665,343.503 280.665,336.503 288.5,328C 292.672,326.412 296.672,324.579 300.5,322.5 Z"/></g>
<g><path style="opacity:1" fill="#ffac00" d="M 421.5,334.5 C 421.5,335.5 421.5,336.5 421.5,337.5C 416.267,344.286 411.267,351.286 406.5,358.5C 405.609,359.11 404.609,359.443 403.5,359.5C 409.507,351.161 415.507,342.828 421.5,334.5 Z"/></g>
<g><path style="opacity:1" fill="#909090" d="M 123.5,368.5 C 116.938,371.751 110.271,372.085 103.5,369.5C 110.202,369.664 116.869,369.331 123.5,368.5 Z"/></g>
<g><path style="opacity:1" fill="#5d5d5d" d="M 264.5,399.5 C 258.5,398.167 252.5,398.167 246.5,399.5C 246.918,398.778 247.584,398.278 248.5,398C 253.167,397.333 257.833,397.333 262.5,398C 263.416,398.278 264.082,398.778 264.5,399.5 Z"/></g>
<g><path style="opacity:1" fill="#ff0010" d="M 264.5,399.5 C 265.833,400.5 267.167,401.5 268.5,402.5C 260.495,402.269 252.495,401.935 244.5,401.5C 245.167,400.833 245.833,400.167 246.5,399.5C 252.5,398.167 258.5,398.167 264.5,399.5 Z"/></g>
<g><path style="opacity:1" fill="#ff005b" d="M 244.5,401.5 C 252.495,401.935 260.495,402.269 268.5,402.5C 269.5,402.833 270.167,403.5 270.5,404.5C 260.852,403.755 251.185,403.422 241.5,403.5C 241.973,402.094 242.973,401.427 244.5,401.5 Z"/></g>
<g><path style="opacity:1" fill="#ff009a" d="M 240.5,404.5 C 240.5,403.833 240.833,403.5 241.5,403.5C 251.185,403.422 260.852,403.755 270.5,404.5C 271.5,404.833 272.167,405.5 272.5,406.5C 261.827,405.928 251.16,405.261 240.5,404.5 Z"/></g>
<g><path style="opacity:1" fill="#f6ffee" d="M 240.5,404.5 C 251.16,405.261 261.827,405.928 272.5,406.5C 273.5,406.833 274.167,407.5 274.5,408.5C 262.15,408.618 249.817,408.285 237.5,407.5C 238.167,406.167 239.167,405.167 240.5,404.5 Z"/></g>
<g><path style="opacity:1" fill="#9dffff" d="M 237.5,407.5 C 249.817,408.285 262.15,408.618 274.5,408.5C 275.11,409.391 275.443,410.391 275.5,411.5C 262.453,411.649 249.453,410.983 236.5,409.5C 236.328,408.508 236.662,407.842 237.5,407.5 Z"/></g>
<g><path style="opacity:1" fill="#2b12ff" d="M 236.5,409.5 C 249.453,410.983 262.453,411.649 275.5,411.5C 275.833,411.5 276.167,411.5 276.5,411.5C 276.629,413.216 276.962,414.883 277.5,416.5C 262.848,415.697 248.181,415.363 233.5,415.5C 234.234,414.292 234.567,412.959 234.5,411.5C 235.167,410.833 235.833,410.167 236.5,409.5 Z"/></g>
<g><path style="opacity:1" fill="#0a5fff" d="M 233.5,416.5 C 233.5,416.167 233.5,415.833 233.5,415.5C 248.181,415.363 262.848,415.697 277.5,416.5C 277.5,417.167 277.5,417.833 277.5,418.5C 262.83,417.9 248.163,417.233 233.5,416.5 Z"/></g>
<g><path style="opacity:1" fill="#0ba9ff" d="M 233.5,416.5 C 248.163,417.233 262.83,417.9 277.5,418.5C 277.5,419.167 277.5,419.833 277.5,420.5C 274.5,420.5 271.5,420.5 268.5,420.5C 260.736,418.785 252.736,418.118 244.5,418.5C 240.833,418.5 237.167,418.5 233.5,418.5C 233.5,417.833 233.5,417.167 233.5,416.5 Z"/></g>
<g><path style="opacity:1" fill="#666666" d="M 234.5,411.5 C 234.567,412.959 234.234,414.292 233.5,415.5C 233.5,415.833 233.5,416.167 233.5,416.5C 233.5,417.167 233.5,417.833 233.5,418.5C 233.5,419.5 233.5,420.5 233.5,421.5C 233.5,421.833 233.5,422.167 233.5,422.5C 233.5,423.167 233.5,423.833 233.5,424.5C 233.5,424.833 233.5,425.167 233.5,425.5C 232.838,423.696 232.505,421.696 232.5,419.5C 232.287,416.473 232.953,413.807 234.5,411.5 Z"/></g>
<g><path style="opacity:1" fill="#666666" d="M 276.5,411.5 C 278.047,413.807 278.713,416.473 278.5,419.5C 278.495,421.696 278.162,423.696 277.5,425.5C 277.5,425.167 277.5,424.833 277.5,424.5C 277.5,423.833 277.5,423.167 277.5,422.5C 277.5,421.833 277.5,421.167 277.5,420.5C 277.5,419.833 277.5,419.167 277.5,418.5C 277.5,417.833 277.5,417.167 277.5,416.5C 276.962,414.883 276.629,413.216 276.5,411.5 Z"/></g>
<g><path style="opacity:1" fill="#04d6ff" d="M 244.5,418.5 C 252.736,418.118 260.736,418.785 268.5,420.5C 260.264,420.882 252.264,420.215 244.5,418.5 Z"/></g>
<g><path style="opacity:1" fill="#0df9ed" d="M 233.5,418.5 C 237.167,418.5 240.833,418.5 244.5,418.5C 252.264,420.215 260.264,420.882 268.5,420.5C 271.5,420.5 274.5,420.5 277.5,420.5C 277.5,421.167 277.5,421.833 277.5,422.5C 262.838,422.007 248.171,421.674 233.5,421.5C 233.5,420.5 233.5,419.5 233.5,418.5 Z"/></g>
<g><path style="opacity:1" fill="#0afeb2" d="M 233.5,422.5 C 233.5,422.167 233.5,421.833 233.5,421.5C 248.171,421.674 262.838,422.007 277.5,422.5C 277.5,423.167 277.5,423.833 277.5,424.5C 262.833,423.833 248.167,423.167 233.5,422.5 Z"/></g>
<g><path style="opacity:1" fill="#08fe6a" d="M 233.5,422.5 C 248.167,423.167 262.833,423.833 277.5,424.5C 277.5,424.833 277.5,425.167 277.5,425.5C 277.5,426.167 277.167,426.5 276.5,426.5C 262.341,425.443 248.008,424.777 233.5,424.5C 233.5,423.833 233.5,423.167 233.5,422.5 Z"/></g>
<g><path style="opacity:1" fill="#39fe12" d="M 233.5,424.5 C 248.008,424.777 262.341,425.443 276.5,426.5C 276.346,428.97 275.346,430.97 273.5,432.5C 261.207,431.226 248.874,430.559 236.5,430.5C 234.953,429.232 233.953,427.565 233.5,425.5C 233.5,425.167 233.5,424.833 233.5,424.5 Z"/></g>
<g><path style="opacity:1" fill="#d6fc00" d="M 236.5,430.5 C 248.874,430.559 261.207,431.226 273.5,432.5C 273.573,434.027 272.906,435.027 271.5,435.5C 260.513,434.834 249.513,434.501 238.5,434.5C 237.326,433.486 236.66,432.153 236.5,430.5 Z"/></g>
<g><path style="opacity:1" fill="#ffc200" d="M 238.5,434.5 C 249.513,434.501 260.513,434.834 271.5,435.5C 271.027,436.906 270.027,437.573 268.5,437.5C 258.858,436.503 249.191,435.836 239.5,435.5C 238.833,435.5 238.5,435.167 238.5,434.5 Z"/></g>
<g><path style="opacity:1" fill="#ff8400" d="M 239.5,435.5 C 249.191,435.836 258.858,436.503 268.5,437.5C 268.5,438.167 268.167,438.5 267.5,438.5C 259.181,437.876 250.848,437.543 242.5,437.5C 240.973,437.573 239.973,436.906 239.5,435.5 Z"/></g>
<g><path style="opacity:1" fill="#ff3300" d="M 242.5,437.5 C 250.848,437.543 259.181,437.876 267.5,438.5C 267.5,438.833 267.5,439.167 267.5,439.5C 259.5,443.5 251.5,443.5 243.5,439.5C 243.167,438.833 242.833,438.167 242.5,437.5 Z"/></g>
<g><path style="opacity:1" fill="#767676" d="M 243.5,439.5 C 251.5,443.5 259.5,443.5 267.5,439.5C 267.53,440.497 267.03,441.164 266,441.5C 259.554,443.912 253.054,444.079 246.5,442C 245.058,441.623 244.058,440.79 243.5,439.5 Z"/></g>
</svg>
