<?xml version="1.0" encoding="UTF-8"?>
<!DOCTYPE svg PUBLIC "-//W3C//DTD SVG 1.1//EN" "http://www.w3.org/Graphics/SVG/1.1/DTD/svg11.dtd">
<svg xmlns="http://www.w3.org/2000/svg" version="1.1" width="256px" height="256px" style="shape-rendering:geometricPrecision; text-rendering:geometricPrecision; image-rendering:optimizeQuality; fill-rule:evenodd; clip-rule:evenodd" xmlns:xlink="http://www.w3.org/1999/xlink">
<g><path style="opacity:0.861" fill="#fefeff" d="M 122.5,27.5 C 128.324,26.5884 133.49,27.9218 138,31.5C 152.041,55.083 166.208,78.583 180.5,102C 195.833,102.333 211.167,102.667 226.5,103C 234.909,106.311 239.576,112.478 240.5,121.5C 232.419,154.828 223.252,187.828 213,220.5C 211.062,223.106 208.562,224.939 205.5,226C 154.558,227.653 103.558,227.986 52.5,227C 46.4991,225.664 42.3324,222.164 40,216.5C 31.6886,187.254 23.6886,157.921 16,128.5C 13.387,116.561 17.5536,108.061 28.5,103C 43.8333,102.667 59.1667,102.333 74.5,102C 88.3773,79.7486 101.877,57.2486 115,34.5C 117.015,31.5883 119.515,29.255 122.5,27.5 Z"/></g>
<g><path style="opacity:1" fill="#fef500" d="M 132.5,35.5 C 124.867,41.7974 117.534,48.4641 110.5,55.5C 114.098,48.4754 118.098,41.6421 122.5,35C 126.066,32.8829 129.4,33.0495 132.5,35.5 Z"/></g>
<g><path style="opacity:1" fill="#d7ff00" d="M 132.5,35.5 C 134.588,37.3356 135.921,39.6689 136.5,42.5C 131.525,44.8307 127.525,48.3307 124.5,53C 120.896,54.9356 117.563,57.2689 114.5,60C 109.171,66.1548 103.504,71.9881 97.5,77.5C 101.333,69.829 105.666,62.4957 110.5,55.5C 117.534,48.4641 124.867,41.7974 132.5,35.5 Z"/></g>
<g><path style="opacity:0.888" fill="#fefffe" d="M 130.5,61.5 C 134.93,69.3691 139.597,77.0358 144.5,84.5C 145.669,87.5113 147.336,90.178 149.5,92.5C 150.079,95.3311 151.412,97.6644 153.5,99.5C 154.933,101.558 155.6,103.892 155.5,106.5C 154.713,108.104 153.38,108.771 151.5,108.5C 149.5,108.5 147.5,108.5 145.5,108.5C 144.167,108.5 142.833,108.5 141.5,108.5C 138.833,108.5 136.167,108.5 133.5,108.5C 131.833,108.5 130.167,108.5 128.5,108.5C 126.5,108.5 124.5,108.5 122.5,108.5C 121.5,108.5 120.5,108.5 119.5,108.5C 116.833,108.5 114.167,108.5 111.5,108.5C 107.563,108.793 103.73,108.46 100,107.5C 99.3333,105.833 99.3333,104.167 100,102.5C 101.372,101.09 102.205,99.4233 102.5,97.5C 107,91.1728 111,84.5062 114.5,77.5C 117,74.5063 119,71.173 120.5,67.5C 122.361,64.9784 124.361,62.4784 126.5,60C 128.066,59.7003 129.399,60.2003 130.5,61.5 Z"/></g>
<g><path style="opacity:1" fill="#30ff17" d="M 141.5,49.5 C 146.167,57.5 150.833,65.5 155.5,73.5C 151.124,76.5088 147.457,80.1754 144.5,84.5C 139.597,77.0358 134.93,69.3691 130.5,61.5C 133.407,56.9208 137.074,52.9208 141.5,49.5 Z"/></g>
<g><path style="opacity:1" fill="#bbff00" d="M 136.5,42.5 C 137.167,42.5 137.5,42.8333 137.5,43.5C 136.181,45.7343 134.181,47.0676 131.5,47.5C 120.019,60.4815 108.019,72.9815 95.5,85C 94.255,85.7914 92.9217,86.2914 91.5,86.5C 93.2651,83.2911 95.2651,80.2911 97.5,77.5C 103.504,71.9881 109.171,66.1548 114.5,60C 117.563,57.2689 120.896,54.9356 124.5,53C 127.525,48.3307 131.525,44.8307 136.5,42.5 Z"/></g>
<g><path style="opacity:1" fill="#99ff03" d="M 137.5,43.5 C 138.82,45.4632 140.154,47.4632 141.5,49.5C 137.074,52.9208 133.407,56.9208 130.5,61.5C 129.399,60.2003 128.066,59.7003 126.5,60C 124.361,62.4784 122.361,64.9784 120.5,67.5C 108.618,78.7309 96.6179,89.8975 84.5,101C 83.8333,102.333 83.1667,103.667 82.5,105C 81.9056,105.464 81.2389,105.631 80.5,105.5C 83.9024,99.0305 87.5691,92.6972 91.5,86.5C 92.9217,86.2914 94.255,85.7914 95.5,85C 108.019,72.9815 120.019,60.4815 131.5,47.5C 134.181,47.0676 136.181,45.7343 137.5,43.5 Z"/></g>
<g><path style="opacity:1" fill="#05fe7d" d="M 155.5,73.5 C 157.56,76.2402 159.226,79.2402 160.5,82.5C 156.482,85.5209 152.816,88.8542 149.5,92.5C 147.336,90.178 145.669,87.5113 144.5,84.5C 147.457,80.1754 151.124,76.5088 155.5,73.5 Z"/></g>
<g><path style="opacity:1" fill="#04fec5" d="M 160.5,82.5 C 162.316,84.1184 163.649,86.1184 164.5,88.5C 160.64,91.9387 156.973,95.6054 153.5,99.5C 151.412,97.6644 150.079,95.3311 149.5,92.5C 152.816,88.8542 156.482,85.5209 160.5,82.5 Z"/></g>
<g><path style="opacity:1" fill="#12ff0c" d="M 137.5,86.5 C 133.975,90.1834 129.975,93.3501 125.5,96C 123.266,97.6379 121.933,99.8045 121.5,102.5C 116.821,102.666 112.155,102.499 107.5,102C 113.959,91.583 120.292,81.083 126.5,70.5C 127.274,69.2888 128.107,69.2888 129,70.5C 132.113,75.7287 134.947,81.062 137.5,86.5 Z"/></g>
<g><path style="opacity:1" fill="#07fe89" d="M 140.5,91.5 C 142.97,94.8233 145.304,98.3233 147.5,102C 141.509,102.499 135.509,102.666 129.5,102.5C 132.86,98.4729 136.527,94.8062 140.5,91.5 Z"/></g>
<g><path style="opacity:1" fill="#01fe4d" d="M 137.5,86.5 C 139.25,87.6594 140.25,89.326 140.5,91.5C 136.527,94.8062 132.86,98.4729 129.5,102.5C 126.833,102.5 124.167,102.5 121.5,102.5C 121.933,99.8045 123.266,97.6379 125.5,96C 129.975,93.3501 133.975,90.1834 137.5,86.5 Z"/></g>
<g><path style="opacity:1" fill="#03fdf2" d="M 164.5,88.5 C 166.083,90.6626 167.416,92.9959 168.5,95.5C 163.823,98.8502 159.49,102.517 155.5,106.5C 155.6,103.892 154.933,101.558 153.5,99.5C 156.973,95.6054 160.64,91.9387 164.5,88.5 Z"/></g>
<g><path style="opacity:1" fill="#1007ff" d="M 191.5,108.5 C 196.167,108.5 200.833,108.5 205.5,108.5C 204.489,110.372 203.655,112.372 203,114.5C 191.267,124.741 179.767,135.075 168.5,145.5C 165.694,148.418 163.527,151.751 162,155.5C 158.186,156.8 155.352,159.134 153.5,162.5C 150.677,158.864 148.344,154.864 146.5,150.5C 149.785,147.882 152.785,144.882 155.5,141.5C 165.431,135.737 173.597,128.07 180,118.5C 184.601,115.965 188.434,112.631 191.5,108.5 Z"/></g>
<g><path style="opacity:1" fill="#ff8a00" d="M 35.5,108.5 C 31.4561,112.868 26.7895,116.535 21.5,119.5C 23.2239,112.111 27.8905,108.445 35.5,108.5 Z"/></g>
<g><path style="opacity:1" fill="#ffad00" d="M 35.5,108.5 C 37.5,108.5 39.5,108.5 41.5,108.5C 35.877,115.12 29.5436,121.12 22.5,126.5C 21.5318,124.393 21.1984,122.059 21.5,119.5C 26.7895,116.535 31.4561,112.868 35.5,108.5 Z"/></g>
<g><path style="opacity:1" fill="#ffce00" d="M 41.5,108.5 C 43.5,108.5 45.5,108.5 47.5,108.5C 40.8106,114.541 34.4772,121.041 28.5,128C 26.8068,128.847 25.1401,129.68 23.5,130.5C 22.5655,129.432 22.2322,128.099 22.5,126.5C 29.5436,121.12 35.877,115.12 41.5,108.5 Z"/></g>
<g><path style="opacity:1" fill="#06ebff" d="M 168.5,95.5 C 169.167,95.5 169.5,95.8333 169.5,96.5C 156.838,107.495 144.838,119.162 133.5,131.5C 131.694,130.976 130.028,130.309 128.5,129.5C 131.603,127.577 134.603,125.41 137.5,123C 141.918,117.951 146.585,113.118 151.5,108.5C 153.38,108.771 154.713,108.104 155.5,106.5C 159.49,102.517 163.823,98.8502 168.5,95.5 Z"/></g>
<g><path style="opacity:1" fill="#0045ff" d="M 181.5,108.5 C 183.167,108.5 184.833,108.5 186.5,108.5C 180.233,115.825 173.233,122.492 165.5,128.5C 158.785,135.215 152.119,141.881 145.5,148.5C 144.599,147.71 143.932,146.71 143.5,145.5C 155.715,136.791 166.882,126.791 177,115.5C 178.511,113.138 180.011,110.805 181.5,108.5 Z"/></g>
<g><path style="opacity:1" fill="#02fef0" d="M 145.5,108.5 C 147.5,108.5 149.5,108.5 151.5,108.5C 146.585,113.118 141.918,117.951 137.5,123C 134.603,125.41 131.603,127.577 128.5,129.5C 125.779,129.963 123.112,130.629 120.5,131.5C 128.537,123.461 136.87,115.795 145.5,108.5 Z"/></g>
<g><path style="opacity:1" fill="#02d2ff" d="M 169.5,96.5 C 170.167,97.5 170.833,98.5 171.5,99.5C 161.511,107.295 152.511,116.129 144.5,126C 141.451,128.182 138.451,130.349 135.5,132.5C 134.833,132.167 134.167,131.833 133.5,131.5C 144.838,119.162 156.838,107.495 169.5,96.5 Z"/></g>
<g><path style="opacity:1" fill="#01b9ff" d="M 171.5,99.5 C 172.11,100.391 172.443,101.391 172.5,102.5C 167.622,106.874 162.789,111.54 158,116.5C 156.023,120.641 152.856,123.641 148.5,125.5C 145.088,129.238 141.755,132.905 138.5,136.5C 137.512,135.205 136.512,133.872 135.5,132.5C 138.451,130.349 141.451,128.182 144.5,126C 152.511,116.129 161.511,107.295 171.5,99.5 Z"/></g>
<g><path style="opacity:1" fill="#0030ff" d="M 186.5,108.5 C 188.167,108.5 189.833,108.5 191.5,108.5C 188.434,112.631 184.601,115.965 180,118.5C 173.597,128.07 165.431,135.737 155.5,141.5C 152.785,144.882 149.785,147.882 146.5,150.5C 145.662,150.158 145.328,149.492 145.5,148.5C 152.119,141.881 158.785,135.215 165.5,128.5C 173.233,122.492 180.233,115.825 186.5,108.5 Z"/></g>
<g><path style="opacity:1" fill="#ffe802" d="M 47.5,108.5 C 49.1667,108.5 50.8333,108.5 52.5,108.5C 44.1349,118.198 34.8016,126.865 24.5,134.5C 23.5655,133.432 23.2322,132.099 23.5,130.5C 25.1401,129.68 26.8068,128.847 28.5,128C 34.4772,121.041 40.8106,114.541 47.5,108.5 Z"/></g>
<g><path style="opacity:1" fill="#0399ff" d="M 172.5,102.5 C 174.25,103.659 175.25,105.326 175.5,107.5C 171.756,109.405 168.422,111.905 165.5,115C 157.603,123.731 149.27,131.898 140.5,139.5C 139.599,138.71 138.932,137.71 138.5,136.5C 141.755,132.905 145.088,129.238 148.5,125.5C 152.856,123.641 156.023,120.641 158,116.5C 162.789,111.54 167.622,106.874 172.5,102.5 Z"/></g>
<g><path style="opacity:1" fill="#027aff" d="M 175.5,107.5 C 176.833,107.833 178.167,108.167 179.5,108.5C 177.742,111.622 175.075,113.789 171.5,115C 161.906,124.436 151.906,133.269 141.5,141.5C 140.662,141.158 140.328,140.492 140.5,139.5C 149.27,131.898 157.603,123.731 165.5,115C 168.422,111.905 171.756,109.405 175.5,107.5 Z"/></g>
<g><path style="opacity:1" fill="#00fe44" d="M 111.5,108.5 C 114.167,108.5 116.833,108.5 119.5,108.5C 115.391,111.778 111.724,115.612 108.5,120C 104.036,121.964 100.702,125.131 98.5,129.5C 96.2695,130.903 93.9361,132.07 91.5,133C 89,136.833 85.8333,140 82,142.5C 81.4389,144.725 80.4389,146.725 79,148.5C 70.7453,154.877 63.2453,162.044 56.5,170C 49.3015,174.272 43.3015,179.772 38.5,186.5C 37.2318,184.095 36.5651,181.428 36.5,178.5C 48.7937,167.143 61.4604,155.976 74.5,145C 77.5423,141.622 80.209,137.955 82.5,134C 85.7676,133.064 88.101,131.064 89.5,128C 92.6108,127.556 95.2775,126.223 97.5,124C 101.321,118.015 105.988,112.848 111.5,108.5 Z"/></g>
<g><path style="opacity:1" fill="#19ff07" d="M 102.5,97.5 C 102.205,99.4233 101.372,101.09 100,102.5C 99.3333,104.167 99.3333,105.833 100,107.5C 103.73,108.46 107.563,108.793 111.5,108.5C 105.988,112.848 101.321,118.015 97.5,124C 95.2775,126.223 92.6108,127.556 89.5,128C 88.101,131.064 85.7676,133.064 82.5,134C 80.209,137.955 77.5423,141.622 74.5,145C 61.4604,155.976 48.7937,167.143 36.5,178.5C 34.409,173.809 33.0756,168.809 32.5,163.5C 36.0979,160.687 39.7645,157.853 43.5,155C 63.2946,135.854 82.9613,116.687 102.5,97.5 Z"/></g>
<g><path style="opacity:1" fill="#dcff00" d="M 56.5,108.5 C 59.1667,108.5 61.8333,108.5 64.5,108.5C 51.6397,119.807 38.9731,131.473 26.5,143.5C 25.962,141.883 25.6287,140.216 25.5,138.5C 37.1823,129.816 47.5157,119.816 56.5,108.5 Z"/></g>
<g><path style="opacity:0.885" fill="#fefefe" d="M 128.5,129.5 C 130.028,130.309 131.694,130.976 133.5,131.5C 134.167,131.833 134.833,132.167 135.5,132.5C 136.512,133.872 137.512,135.205 138.5,136.5C 138.932,137.71 139.599,138.71 140.5,139.5C 140.328,140.492 140.662,141.158 141.5,141.5C 141.733,143.062 142.4,144.395 143.5,145.5C 143.932,146.71 144.599,147.71 145.5,148.5C 145.328,149.492 145.662,150.158 146.5,150.5C 148.344,154.864 150.677,158.864 153.5,162.5C 153.557,163.609 153.89,164.609 154.5,165.5C 155.512,166.872 156.512,168.205 157.5,169.5C 158.399,172.395 159.733,175.062 161.5,177.5C 161.833,178.167 162.167,178.833 162.5,179.5C 163.692,181.113 164.692,182.78 165.5,184.5C 165.5,186.5 165.5,188.5 165.5,190.5C 163.903,196.102 160.237,199.102 154.5,199.5C 152.167,199.5 149.833,199.5 147.5,199.5C 143.167,199.5 138.833,199.5 134.5,199.5C 129.833,199.5 125.167,199.5 120.5,199.5C 112.082,199.802 103.748,199.469 95.5,198.5C 94.205,197.512 92.8717,196.512 91.5,195.5C 91.6716,194.508 91.3382,193.842 90.5,193.5C 90.6716,192.508 90.3382,191.842 89.5,191.5C 89.5,190.5 89.5,189.5 89.5,188.5C 89.6741,186.139 90.0074,183.806 90.5,181.5C 93.0692,178.039 95.4026,174.372 97.5,170.5C 99.8333,166.5 102.167,162.5 104.5,158.5C 105.773,156.287 106.773,153.954 107.5,151.5C 111.195,146.455 114.528,141.122 117.5,135.5C 118.5,134.167 119.5,132.833 120.5,131.5C 123.112,130.629 125.779,129.963 128.5,129.5 Z"/></g>
<g><path style="opacity:1" fill="#015eff" d="M 179.5,108.5 C 180.167,108.5 180.833,108.5 181.5,108.5C 180.011,110.805 178.511,113.138 177,115.5C 166.882,126.791 155.715,136.791 143.5,145.5C 142.4,144.395 141.733,143.062 141.5,141.5C 151.906,133.269 161.906,124.436 171.5,115C 175.075,113.789 177.742,111.622 179.5,108.5 Z"/></g>
<g><path style="opacity:1" fill="#f9fd00" d="M 52.5,108.5 C 53.8333,108.5 55.1667,108.5 56.5,108.5C 47.5157,119.816 37.1823,129.816 25.5,138.5C 24.7659,137.292 24.4326,135.959 24.5,134.5C 34.8016,126.865 44.1349,118.198 52.5,108.5 Z"/></g>
<g><path style="opacity:1" fill="#52ff00" d="M 114.5,77.5 C 111,84.5062 107,91.1728 102.5,97.5C 82.9613,116.687 63.2946,135.854 43.5,155C 39.7645,157.853 36.0979,160.687 32.5,163.5C 31.2616,161.786 30.595,159.786 30.5,157.5C 58.882,131.115 86.882,104.449 114.5,77.5 Z"/></g>
<g><path style="opacity:1" fill="#b8ff00" d="M 64.5,108.5 C 67.1667,108.5 69.8333,108.5 72.5,108.5C 57.9282,122.48 43.2615,136.48 28.5,150.5C 27.8333,148.167 27.1667,145.833 26.5,143.5C 38.9731,131.473 51.6397,119.807 64.5,108.5 Z"/></g>
<g><path style="opacity:1" fill="#80ff00" d="M 120.5,67.5 C 119,71.173 117,74.5063 114.5,77.5C 86.882,104.449 58.882,131.115 30.5,157.5C 29.6814,155.228 29.0147,152.894 28.5,150.5C 43.2615,136.48 57.9282,122.48 72.5,108.5C 75.8306,108.982 78.4973,107.982 80.5,105.5C 81.2389,105.631 81.9056,105.464 82.5,105C 83.1667,103.667 83.8333,102.333 84.5,101C 96.6179,89.8975 108.618,78.7309 120.5,67.5 Z"/></g>
<g><path style="opacity:1" fill="#01fea6" d="M 128.5,108.5 C 130.167,108.5 131.833,108.5 133.5,108.5C 129.898,113.937 125.398,118.604 120,122.5C 119.664,126.039 117.831,128.206 114.5,129C 100.527,142.973 86.527,156.973 72.5,171C 63.3995,177.597 54.7328,184.763 46.5,192.5C 47.3891,190.264 48.7224,188.264 50.5,186.5C 58.0349,180.797 64.7016,174.297 70.5,167C 76.2279,162.399 82.0612,157.899 88,153.5C 88.9888,151.03 90.1554,148.697 91.5,146.5C 101.096,135.742 111.596,125.742 123,116.5C 124.769,113.727 126.602,111.06 128.5,108.5 Z"/></g>
<g><path style="opacity:1" fill="#00fe65" d="M 119.5,108.5 C 120.5,108.5 121.5,108.5 122.5,108.5C 120.193,111.638 117.359,114.305 114,116.5C 113.138,118.087 112.471,119.754 112,121.5C 108.833,123.333 106.333,125.833 104.5,129C 103.5,129.333 102.5,129.667 101.5,130C 88.8091,145.022 74.4758,158.355 58.5,170C 52.4754,176.96 46.1421,183.46 39.5,189.5C 38.596,188.791 38.2627,187.791 38.5,186.5C 43.3015,179.772 49.3015,174.272 56.5,170C 63.2453,162.044 70.7453,154.877 79,148.5C 80.4389,146.725 81.4389,144.725 82,142.5C 85.8333,140 89,136.833 91.5,133C 93.9361,132.07 96.2695,130.903 98.5,129.5C 100.702,125.131 104.036,121.964 108.5,120C 111.724,115.612 115.391,111.778 119.5,108.5 Z"/></g>
<g><path style="opacity:1" fill="#0cd5ff" d="M 130.5,137.5 C 126.129,142.873 121.129,147.539 115.5,151.5C 117.637,146.563 120.304,141.896 123.5,137.5C 126.015,135.016 128.349,135.016 130.5,137.5 Z"/></g>
<g><path style="opacity:1" fill="#e600fe" d="M 231.5,114.5 C 233.04,116.838 233.706,119.505 233.5,122.5C 228.369,127.13 223.369,131.963 218.5,137C 215.623,137.956 212.956,139.289 210.5,141C 203.064,149.192 195.397,157.192 187.5,165C 179.624,171.051 172.291,177.551 165.5,184.5C 164.692,182.78 163.692,181.113 162.5,179.5C 167.396,175.697 172.396,171.864 177.5,168C 178.5,166.333 179.5,164.667 180.5,163C 192.795,153.041 204.795,142.707 216.5,132C 221.353,125.985 226.353,120.151 231.5,114.5 Z"/></g>
<g><path style="opacity:1" fill="#01febf" d="M 133.5,108.5 C 136.167,108.5 138.833,108.5 141.5,108.5C 134.675,114.825 128.008,121.325 121.5,128C 114.773,131.057 109.606,135.89 106,142.5C 102.667,145.167 99.3333,147.833 96,150.5C 95.6667,151.5 95.3333,152.5 95,153.5C 77.6573,170.343 60.1573,187.01 42.5,203.5C 41.8505,201.565 41.5172,199.565 41.5,197.5C 43.386,196.07 45.0527,194.403 46.5,192.5C 54.7328,184.763 63.3995,177.597 72.5,171C 86.527,156.973 100.527,142.973 114.5,129C 117.831,128.206 119.664,126.039 120,122.5C 125.398,118.604 129.898,113.937 133.5,108.5 Z"/></g>
<g><path style="opacity:1" fill="#fe00ee" d="M 233.5,122.5 C 233.784,124.415 233.451,126.081 232.5,127.5C 230.337,129.438 228.337,131.604 226.5,134C 224.913,134.862 223.246,135.529 221.5,136C 217.986,139.517 214.819,143.351 212,147.5C 203.14,156.36 194.306,165.194 185.5,174C 178.935,179.636 172.269,185.136 165.5,190.5C 165.5,188.5 165.5,186.5 165.5,184.5C 172.291,177.551 179.624,171.051 187.5,165C 195.397,157.192 203.064,149.192 210.5,141C 212.956,139.289 215.623,137.956 218.5,137C 223.369,131.963 228.369,127.13 233.5,122.5 Z"/></g>
<g><path style="opacity:1" fill="#7200ff" d="M 216.5,108.5 C 219.385,108.194 222.052,108.527 224.5,109.5C 207.402,124.427 190.735,139.927 174.5,156C 173.167,156.333 171.833,156.667 170.5,157C 166.24,161.472 161.907,165.639 157.5,169.5C 156.512,168.205 155.512,166.872 154.5,165.5C 157.057,164.812 159.391,163.646 161.5,162C 179.702,143.964 198.035,126.131 216.5,108.5 Z"/></g>
<g><path style="opacity:1" fill="#4f00ff" d="M 205.5,108.5 C 209.167,108.5 212.833,108.5 216.5,108.5C 198.035,126.131 179.702,143.964 161.5,162C 159.391,163.646 157.057,164.812 154.5,165.5C 153.89,164.609 153.557,163.609 153.5,162.5C 155.352,159.134 158.186,156.8 162,155.5C 163.527,151.751 165.694,148.418 168.5,145.5C 179.767,135.075 191.267,124.741 203,114.5C 203.655,112.372 204.489,110.372 205.5,108.5 Z"/></g>
<g><path style="opacity:1" fill="#c700ff" d="M 229.5,112.5 C 230.5,112.833 231.167,113.5 231.5,114.5C 226.353,120.151 221.353,125.985 216.5,132C 204.795,142.707 192.795,153.041 180.5,163C 179.5,164.667 178.5,166.333 177.5,168C 172.396,171.864 167.396,175.697 162.5,179.5C 162.167,178.833 161.833,178.167 161.5,177.5C 183.431,155.24 206.097,133.573 229.5,112.5 Z"/></g>
<g><path style="opacity:1" fill="#034fff" d="M 137.5,147.5 C 139.025,149.216 140.025,151.216 140.5,153.5C 137.712,156.036 134.712,158.369 131.5,160.5C 130.5,159.167 129.5,157.833 128.5,156.5C 131.86,153.806 134.86,150.806 137.5,147.5 Z"/></g>
<g><path style="opacity:1" fill="#01b8ff" d="M 130.5,137.5 C 131.492,137.328 132.158,137.662 132.5,138.5C 124.861,146.474 117.194,154.474 109.5,162.5C 111.25,158.665 113.25,154.999 115.5,151.5C 121.129,147.539 126.129,142.873 130.5,137.5 Z"/></g>
<g><path style="opacity:0.886" fill="#fefeff" d="M 128.5,156.5 C 129.5,157.833 130.5,159.167 131.5,160.5C 134.263,165.701 137.263,170.701 140.5,175.5C 143.513,180.143 142.179,182.81 136.5,183.5C 129.492,183.666 122.492,183.5 115.5,183C 114.584,182.722 113.918,182.222 113.5,181.5C 112.595,180.298 112.595,178.964 113.5,177.5C 116.258,174.322 118.258,170.655 119.5,166.5C 121.474,164.572 122.974,162.239 124,159.5C 125.129,157.859 126.629,156.859 128.5,156.5 Z"/></g>
<g><path style="opacity:1" fill="#9700ff" d="M 224.5,109.5 C 226.674,109.75 228.341,110.75 229.5,112.5C 206.097,133.573 183.431,155.24 161.5,177.5C 159.733,175.062 158.399,172.395 157.5,169.5C 161.907,165.639 166.24,161.472 170.5,157C 171.833,156.667 173.167,156.333 174.5,156C 190.735,139.927 207.402,124.427 224.5,109.5 Z"/></g>
<g><path style="opacity:1" fill="#00f1ff" d="M 107.5,151.5 C 106.773,153.954 105.773,156.287 104.5,158.5C 103.078,158.709 101.745,159.209 100.5,160C 98.1415,162.029 95.8082,164.029 93.5,166C 88.8333,171 84.1667,176 79.5,181C 74.2631,184.516 69.9298,188.849 66.5,194C 59.2906,199.721 52.2906,205.554 45.5,211.5C 65.7563,191.246 86.4229,171.246 107.5,151.5 Z"/></g>
<g><path style="opacity:1" fill="#150eff" d="M 140.5,153.5 C 143.669,157.833 146.336,162.5 148.5,167.5C 145.527,169.806 142.86,172.473 140.5,175.5C 137.263,170.701 134.263,165.701 131.5,160.5C 134.712,158.369 137.712,156.036 140.5,153.5 Z"/></g>
<g><path style="opacity:1" fill="#049aff" d="M 132.5,138.5 C 133.529,140.517 134.529,142.517 135.5,144.5C 129.862,149.967 124.029,155.301 118,160.5C 115.896,164.272 113.396,167.772 110.5,171C 106.657,173.035 103.324,175.535 100.5,178.5C 102.997,172.835 105.997,167.502 109.5,162.5C 117.194,154.474 124.861,146.474 132.5,138.5 Z"/></g>
<g><path style="opacity:1" fill="#0276ff" d="M 135.5,144.5 C 136.401,145.29 137.068,146.29 137.5,147.5C 134.86,150.806 131.86,153.806 128.5,156.5C 126.629,156.859 125.129,157.859 124,159.5C 122.974,162.239 121.474,164.572 119.5,166.5C 116.573,168.086 113.906,170.086 111.5,172.5C 109.201,175.141 107.201,177.975 105.5,181C 102.309,183.426 98.9754,185.593 95.5,187.5C 96.4097,184.008 98.0764,181.008 100.5,178.5C 103.324,175.535 106.657,173.035 110.5,171C 113.396,167.772 115.896,164.272 118,160.5C 124.029,155.301 129.862,149.967 135.5,144.5 Z"/></g>
<g><path style="opacity:1" fill="#01fe95" d="M 91.5,146.5 C 90.1554,148.697 88.9888,151.03 88,153.5C 82.0612,157.899 76.2279,162.399 70.5,167C 64.7016,174.297 58.0349,180.797 50.5,186.5C 48.7224,188.264 47.3891,190.264 46.5,192.5C 45.0527,194.403 43.386,196.07 41.5,197.5C 40.5655,196.432 40.2322,195.099 40.5,193.5C 44.9083,191.107 48.2416,187.607 50.5,183C 53.9229,181.693 56.0896,179.193 57,175.5C 62.4877,171.678 67.3211,167.178 71.5,162C 72.8333,161.667 74.1667,161.333 75.5,161C 77.2743,158.56 79.6076,156.894 82.5,156C 84.7163,152.047 87.7163,148.881 91.5,146.5 Z"/></g>
<g><path style="opacity:1" fill="#01fef4" d="M 117.5,135.5 C 114.528,141.122 111.195,146.455 107.5,151.5C 86.4229,171.246 65.7563,191.246 45.5,211.5C 45.1667,211.5 44.8333,211.5 44.5,211.5C 44.3713,209.784 44.038,208.117 43.5,206.5C 47.2822,204.589 50.2822,201.756 52.5,198C 72.3288,179.838 91.8288,161.338 111,142.5C 112.012,138.992 114.178,136.658 117.5,135.5 Z"/></g>
<g><path style="opacity:1" fill="#ff00a1" d="M 226.5,143.5 C 223.344,149.155 219.011,153.655 213.5,157C 204.755,167.392 195.255,176.892 185,185.5C 182.833,188.333 180.667,191.167 178.5,194C 170.002,201.409 161.336,208.576 152.5,215.5C 159.376,206.624 167.376,198.624 176.5,191.5C 182.525,183.981 189.692,177.648 198,172.5C 206.129,162.702 214.629,153.202 223.5,144C 224.448,143.517 225.448,143.351 226.5,143.5 Z"/></g>
<g><path style="opacity:1" fill="#01fe81" d="M 122.5,108.5 C 124.5,108.5 126.5,108.5 128.5,108.5C 126.602,111.06 124.769,113.727 123,116.5C 111.596,125.742 101.096,135.742 91.5,146.5C 87.7163,148.881 84.7163,152.047 82.5,156C 79.6076,156.894 77.2743,158.56 75.5,161C 74.1667,161.333 72.8333,161.667 71.5,162C 67.3211,167.178 62.4877,171.678 57,175.5C 56.0896,179.193 53.9229,181.693 50.5,183C 48.2416,187.607 44.9083,191.107 40.5,193.5C 39.5655,192.432 39.2322,191.099 39.5,189.5C 46.1421,183.46 52.4754,176.96 58.5,170C 74.4758,158.355 88.8091,145.022 101.5,130C 102.5,129.667 103.5,129.333 104.5,129C 106.333,125.833 108.833,123.333 112,121.5C 112.471,119.754 113.138,118.087 114,116.5C 117.359,114.305 120.193,111.638 122.5,108.5 Z"/></g>
<g><path style="opacity:1" fill="#0710ff" d="M 126.5,166.5 C 129.496,169.196 131.829,172.529 133.5,176.5C 129.5,177.833 125.5,177.833 121.5,176.5C 123.705,173.423 125.372,170.09 126.5,166.5 Z"/></g>
<g><path style="opacity:1" fill="#ff005a" d="M 224.5,158.5 C 223.985,160.894 223.319,163.228 222.5,165.5C 221.417,165.539 220.417,165.873 219.5,166.5C 214.042,172.459 208.376,178.292 202.5,184C 201.167,184.333 199.833,184.667 198.5,185C 186.352,196.981 174.352,209.148 162.5,221.5C 160.833,221.5 159.167,221.5 157.5,221.5C 159.475,218.039 162.475,215.873 166.5,215C 167.191,213.933 167.691,212.766 168,211.5C 175.017,205.317 181.517,198.65 187.5,191.5C 192.996,188.235 197.996,184.235 202.5,179.5C 205.878,176.124 208.878,172.457 211.5,168.5C 216.436,165.871 220.77,162.538 224.5,158.5 Z"/></g>
<g><path style="opacity:1" fill="#7800ff" d="M 148.5,167.5 C 151.669,171.833 154.336,176.5 156.5,181.5C 152.777,185.552 149.11,189.552 145.5,193.5C 139.167,193.5 132.833,193.5 126.5,193.5C 129.527,189.806 132.86,186.473 136.5,183.5C 142.179,182.81 143.513,180.143 140.5,175.5C 142.86,172.473 145.527,169.806 148.5,167.5 Z"/></g>
<g><path style="opacity:1" fill="#01ffd9" d="M 141.5,108.5 C 142.833,108.5 144.167,108.5 145.5,108.5C 136.87,115.795 128.537,123.461 120.5,131.5C 119.5,132.833 118.5,134.167 117.5,135.5C 114.178,136.658 112.012,138.992 111,142.5C 91.8288,161.338 72.3288,179.838 52.5,198C 50.2822,201.756 47.2822,204.589 43.5,206.5C 43.4431,205.391 43.1098,204.391 42.5,203.5C 60.1573,187.01 77.6573,170.343 95,153.5C 95.3333,152.5 95.6667,151.5 96,150.5C 99.3333,147.833 102.667,145.167 106,142.5C 109.606,135.89 114.773,131.057 121.5,128C 128.008,121.325 134.675,114.825 141.5,108.5 Z"/></g>
<g><path style="opacity:1" fill="#ff0002" d="M 219.5,175.5 C 216.494,187.857 213.327,200.19 210,212.5C 208.5,216.667 205.667,219.5 201.5,221C 191.506,221.5 181.506,221.666 171.5,221.5C 176.268,217.909 180.935,214.075 185.5,210C 196.954,198.712 208.287,187.212 219.5,175.5 Z"/></g>
<g><path style="opacity:1" fill="#035aff" d="M 119.5,166.5 C 118.258,170.655 116.258,174.322 113.5,177.5C 108.167,182.167 102.833,186.833 97.5,191.5C 95.8958,190.713 95.2291,189.38 95.5,187.5C 98.9754,185.593 102.309,183.426 105.5,181C 107.201,177.975 109.201,175.141 111.5,172.5C 113.906,170.086 116.573,168.086 119.5,166.5 Z"/></g>
<g><path style="opacity:1" fill="#210aff" d="M 113.5,181.5 C 113.918,182.222 114.584,182.722 115.5,183C 122.492,183.5 129.492,183.666 136.5,183.5C 132.86,186.473 129.527,189.806 126.5,193.5C 118.5,193.5 110.5,193.5 102.5,193.5C 105.729,188.997 109.395,184.997 113.5,181.5 Z"/></g>
<g><path style="opacity:1" fill="#ff006e" d="M 225.5,153.5 C 225.371,155.216 225.038,156.883 224.5,158.5C 220.77,162.538 216.436,165.871 211.5,168.5C 208.878,172.457 205.878,176.124 202.5,179.5C 197.996,184.235 192.996,188.235 187.5,191.5C 181.517,198.65 175.017,205.317 168,211.5C 167.691,212.766 167.191,213.933 166.5,215C 162.475,215.873 159.475,218.039 157.5,221.5C 156.5,221.5 155.5,221.5 154.5,221.5C 155.117,219.771 156.117,218.271 157.5,217C 160.582,215.591 163.415,213.758 166,211.5C 167.218,208.442 169.051,205.776 171.5,203.5C 180.796,196.87 189.129,189.204 196.5,180.5C 200.093,180.074 202.26,178.074 203,174.5C 210.628,167.609 218.128,160.609 225.5,153.5 Z"/></g>
<g><path style="opacity:1" fill="#cd00ff" d="M 156.5,181.5 C 160.312,185.37 160.312,189.203 156.5,193C 152.848,193.499 149.182,193.665 145.5,193.5C 149.11,189.552 152.777,185.552 156.5,181.5 Z"/></g>
<g><path style="opacity:1" fill="#ff008a" d="M 228.5,142.5 C 227.945,146.397 226.945,150.063 225.5,153.5C 218.128,160.609 210.628,167.609 203,174.5C 202.26,178.074 200.093,180.074 196.5,180.5C 189.129,189.204 180.796,196.87 171.5,203.5C 169.051,205.776 167.218,208.442 166,211.5C 163.415,213.758 160.582,215.591 157.5,217C 156.117,218.271 155.117,219.771 154.5,221.5C 152.5,221.5 150.5,221.5 148.5,221.5C 150.252,219.754 151.585,217.754 152.5,215.5C 161.336,208.576 170.002,201.409 178.5,194C 180.667,191.167 182.833,188.333 185,185.5C 195.255,176.892 204.755,167.392 213.5,157C 219.011,153.655 223.344,149.155 226.5,143.5C 227.167,143.167 227.833,142.833 228.5,142.5 Z"/></g>
<g><path style="opacity:1" fill="#02baff" d="M 97.5,170.5 C 95.4026,174.372 93.0692,178.039 90.5,181.5C 78.3919,193.439 66.0586,205.272 53.5,217C 52.255,217.791 50.9217,218.291 49.5,218.5C 48.5,218.167 47.8333,217.5 47.5,216.5C 52.1449,211.52 56.8116,206.52 61.5,201.5C 63.6554,199.011 66.322,197.344 69.5,196.5C 78.573,187.422 87.9063,178.756 97.5,170.5 Z"/></g>
<g><path style="opacity:1" fill="#0039ff" d="M 113.5,177.5 C 112.595,178.964 112.595,180.298 113.5,181.5C 109.395,184.997 105.729,188.997 102.5,193.5C 100.302,193.88 98.6354,193.213 97.5,191.5C 102.833,186.833 108.167,182.167 113.5,177.5 Z"/></g>
<g><path style="opacity:1" fill="#02dbff" d="M 104.5,158.5 C 102.167,162.5 99.8333,166.5 97.5,170.5C 87.9063,178.756 78.573,187.422 69.5,196.5C 66.322,197.344 63.6554,199.011 61.5,201.5C 56.8116,206.52 52.1449,211.52 47.5,216.5C 46.2632,215.035 45.2632,213.368 44.5,211.5C 44.8333,211.5 45.1667,211.5 45.5,211.5C 52.2906,205.554 59.2906,199.721 66.5,194C 69.9298,188.849 74.2631,184.516 79.5,181C 84.1667,176 88.8333,171 93.5,166C 95.8082,164.029 98.1415,162.029 100.5,160C 101.745,159.209 103.078,158.709 104.5,158.5 Z"/></g>
<g><path style="opacity:1" fill="#ff00be" d="M 231.5,132.5 C 230.807,135.941 229.807,139.275 228.5,142.5C 227.833,142.833 227.167,143.167 226.5,143.5C 225.448,143.351 224.448,143.517 223.5,144C 214.629,153.202 206.129,162.702 198,172.5C 189.692,177.648 182.525,183.981 176.5,191.5C 167.376,198.624 159.376,206.624 152.5,215.5C 151.585,217.754 150.252,219.754 148.5,221.5C 145.5,221.5 142.5,221.5 139.5,221.5C 143.013,217.494 146.847,213.828 151,210.5C 151.862,208.913 152.529,207.246 153,205.5C 155.941,202.227 159.441,199.727 163.5,198C 167.535,191.299 172.868,185.965 179.5,182C 181.543,180.292 183.21,178.292 184.5,176C 196.394,166.773 207.061,156.106 216.5,144C 221.483,140.07 226.483,136.237 231.5,132.5 Z"/></g>
<g><path style="opacity:1" fill="#0085ff" d="M 89.5,188.5 C 89.5,189.5 89.5,190.5 89.5,191.5C 88.234,192.09 86.9007,192.59 85.5,193C 83.6855,196.142 81.5188,198.975 79,201.5C 73.3965,207.565 67.2298,213.065 60.5,218C 59.695,219.113 59.0283,220.279 58.5,221.5C 57.5,221.5 56.5,221.5 55.5,221.5C 65.2922,210.206 75.6255,199.373 86.5,189C 87.448,188.517 88.448,188.351 89.5,188.5 Z"/></g>
<g><path style="opacity:1" fill="#ff0045" d="M 222.5,165.5 C 222.125,167.698 221.458,169.698 220.5,171.5C 216.108,173.717 212.108,176.55 208.5,180C 203.64,186.194 198.14,191.694 192,196.5C 191.727,198.329 190.893,199.829 189.5,201C 181.642,207.879 173.975,214.712 166.5,221.5C 165.167,221.5 163.833,221.5 162.5,221.5C 174.352,209.148 186.352,196.981 198.5,185C 199.833,184.667 201.167,184.333 202.5,184C 208.376,178.292 214.042,172.459 219.5,166.5C 220.417,165.873 221.417,165.539 222.5,165.5 Z"/></g>
<g><path style="opacity:1" fill="#0170ff" d="M 89.5,191.5 C 90.3382,191.842 90.6716,192.508 90.5,193.5C 86.3818,199.12 81.7151,204.287 76.5,209C 72.8333,211.333 69.1667,213.667 65.5,216C 63.3143,217.412 61.6476,219.245 60.5,221.5C 59.8333,221.5 59.1667,221.5 58.5,221.5C 59.0283,220.279 59.695,219.113 60.5,218C 67.2298,213.065 73.3965,207.565 79,201.5C 81.5188,198.975 83.6855,196.142 85.5,193C 86.9007,192.59 88.234,192.09 89.5,191.5 Z"/></g>
<g><path style="opacity:1" fill="#ff00d9" d="M 232.5,127.5 C 232.371,129.216 232.038,130.883 231.5,132.5C 226.483,136.237 221.483,140.07 216.5,144C 207.061,156.106 196.394,166.773 184.5,176C 183.21,178.292 181.543,180.292 179.5,182C 172.868,185.965 167.535,191.299 163.5,198C 159.441,199.727 155.941,202.227 153,205.5C 152.529,207.246 151.862,208.913 151,210.5C 146.847,213.828 143.013,217.494 139.5,221.5C 137.167,221.5 134.833,221.5 132.5,221.5C 140.272,214.64 147.605,207.306 154.5,199.5C 160.237,199.102 163.903,196.102 165.5,190.5C 172.269,185.136 178.935,179.636 185.5,174C 194.306,165.194 203.14,156.36 212,147.5C 214.819,143.351 217.986,139.517 221.5,136C 223.246,135.529 224.913,134.862 226.5,134C 228.337,131.604 230.337,129.438 232.5,127.5 Z"/></g>
<g><path style="opacity:1" fill="#ff0023" d="M 220.5,171.5 C 220.768,173.099 220.434,174.432 219.5,175.5C 208.287,187.212 196.954,198.712 185.5,210C 180.935,214.075 176.268,217.909 171.5,221.5C 169.833,221.5 168.167,221.5 166.5,221.5C 173.975,214.712 181.642,207.879 189.5,201C 190.893,199.829 191.727,198.329 192,196.5C 198.14,191.694 203.64,186.194 208.5,180C 212.108,176.55 216.108,173.717 220.5,171.5 Z"/></g>
<g><path style="opacity:1" fill="#029eff" d="M 90.5,181.5 C 90.0074,183.806 89.6741,186.139 89.5,188.5C 88.448,188.351 87.448,188.517 86.5,189C 75.6255,199.373 65.2922,210.206 55.5,221.5C 53.1815,221.008 51.1815,220.008 49.5,218.5C 50.9217,218.291 52.255,217.791 53.5,217C 66.0586,205.272 78.3919,193.439 90.5,181.5 Z"/></g>
<g><path style="opacity:1" fill="#2605ff" d="M 95.5,198.5 C 103.748,199.469 112.082,199.802 120.5,199.5C 113.436,206.56 106.769,213.893 100.5,221.5C 91.5,221.5 82.5,221.5 73.5,221.5C 80.1355,214.032 87.3021,207.032 95,200.5C 95.4643,199.906 95.631,199.239 95.5,198.5 Z"/></g>
<g><path style="opacity:1" fill="#013cff" d="M 91.5,195.5 C 92.8717,196.512 94.205,197.512 95.5,198.5C 95.631,199.239 95.4643,199.906 95,200.5C 87.3021,207.032 80.1355,214.032 73.5,221.5C 71.5,221.5 69.5,221.5 67.5,221.5C 70.6012,216.564 74.6012,212.397 79.5,209C 83.1747,204.104 87.1747,199.604 91.5,195.5 Z"/></g>
<g><path style="opacity:1" fill="#fa00fa" d="M 147.5,199.5 C 149.833,199.5 152.167,199.5 154.5,199.5C 147.605,207.306 140.272,214.64 132.5,221.5C 129.833,221.5 127.167,221.5 124.5,221.5C 132.948,214.814 140.615,207.481 147.5,199.5 Z"/></g>
<g><path style="opacity:1" fill="#c600ff" d="M 134.5,199.5 C 138.833,199.5 143.167,199.5 147.5,199.5C 140.615,207.481 132.948,214.814 124.5,221.5C 121.167,221.5 117.833,221.5 114.5,221.5C 121.167,214.167 127.833,206.833 134.5,199.5 Z"/></g>
<g><path style="opacity:1" fill="#015cff" d="M 90.5,193.5 C 91.3382,193.842 91.6716,194.508 91.5,195.5C 87.1747,199.604 83.1747,204.104 79.5,209C 74.6012,212.397 70.6012,216.564 67.5,221.5C 65.1667,221.5 62.8333,221.5 60.5,221.5C 61.6476,219.245 63.3143,217.412 65.5,216C 69.1667,213.667 72.8333,211.333 76.5,209C 81.7151,204.287 86.3818,199.12 90.5,193.5 Z"/></g>
<g><path style="opacity:1" fill="#8400ff" d="M 120.5,199.5 C 125.167,199.5 129.833,199.5 134.5,199.5C 127.833,206.833 121.167,214.167 114.5,221.5C 109.833,221.5 105.167,221.5 100.5,221.5C 106.769,213.893 113.436,206.56 120.5,199.5 Z"/></g>
</svg>
