<?xml version="1.0" encoding="UTF-8"?>
<!DOCTYPE svg PUBLIC "-//W3C//DTD SVG 1.1//EN" "http://www.w3.org/Graphics/SVG/1.1/DTD/svg11.dtd">
<svg xmlns="http://www.w3.org/2000/svg" version="1.1" width="256px" height="256px" style="shape-rendering:geometricPrecision; text-rendering:geometricPrecision; image-rendering:optimizeQuality; fill-rule:evenodd; clip-rule:evenodd" xmlns:xlink="http://www.w3.org/1999/xlink">
<g><path style="opacity:0.004" fill="#fefffe" d="M 104.5,0.5 C 105.833,1.16667 105.833,1.16667 104.5,0.5 Z"/></g>
<g><path style="opacity:0.012" fill="#aafffe" d="M 95.5,2.5 C 96.8333,3.16667 96.8333,3.16667 95.5,2.5 Z"/></g>
<g><path style="opacity:0.012" fill="#aafffe" d="M 91.5,3.5 C 92.8333,4.16667 92.8333,4.16667 91.5,3.5 Z"/></g>
<g><path style="opacity:0.012" fill="#aafffe" d="M 87.5,4.5 C 88.8333,5.16667 88.8333,5.16667 87.5,4.5 Z"/></g>
<g><path style="opacity:0.004" fill="#fefffe" d="M 164.5,4.5 C 165.833,5.16667 165.833,5.16667 164.5,4.5 Z"/></g>
<g><path style="opacity:0.008" fill="#80fffe" d="M 167.5,5.5 C 168.833,6.16667 168.833,6.16667 167.5,5.5 Z"/></g>
<g><path style="opacity:0.008" fill="#80fffe" d="M 170.5,6.5 C 171.833,7.16667 171.833,7.16667 170.5,6.5 Z"/></g>
<g><path style="opacity:0.004" fill="#bebfbe" d="M 79.5,7.5 C 80.8333,8.16667 80.8333,8.16667 79.5,7.5 Z"/></g>
<g><path style="opacity:0.008" fill="#80fffe" d="M 173.5,7.5 C 174.833,8.16667 174.833,8.16667 173.5,7.5 Z"/></g>
<g><path style="opacity:0.008" fill="#80fffe" d="M 176.5,8.5 C 177.833,9.16667 177.833,9.16667 176.5,8.5 Z"/></g>
<g><path style="opacity:0.008" fill="#80fffe" d="M 70.5,11.5 C 71.8333,12.1667 71.8333,12.1667 70.5,11.5 Z"/></g>
<g><path style="opacity:0.012" fill="#aafffe" d="M 182.5,11.5 C 183.833,12.1667 183.833,12.1667 182.5,11.5 Z"/></g>
<g><path style="opacity:0.004" fill="#bebfbe" d="M 188.5,14.5 C 189.833,15.1667 189.833,15.1667 188.5,14.5 Z"/></g>
<g><path style="opacity:0.004" fill="#fefffe" d="M 59.5,17.5 C 60.8333,18.1667 60.8333,18.1667 59.5,17.5 Z"/></g>
<g><path style="opacity:0.004" fill="#bebfbe" d="M 193.5,17.5 C 194.833,18.1667 194.833,18.1667 193.5,17.5 Z"/></g>
<g><path style="opacity:0.008" fill="#80fffe" d="M 54.5,20.5 C 55.8333,21.1667 55.8333,21.1667 54.5,20.5 Z"/></g>
<g><path style="opacity:0.004" fill="#fefffe" d="M 202.5,23.5 C 203.833,24.1667 203.833,24.1667 202.5,23.5 Z"/></g>
<g><path style="opacity:0.004" fill="#fefffe" d="M 46.5,26.5 C 47.8333,27.1667 47.8333,27.1667 46.5,26.5 Z"/></g>
<g><path style="opacity:0.012" fill="#aafffe" d="M 206.5,26.5 C 207.833,27.1667 207.833,27.1667 206.5,26.5 Z"/></g>
<g><path style="opacity:0.004" fill="#fefffe" d="M 38.5,33.5 C 39.8333,34.1667 39.8333,34.1667 38.5,33.5 Z"/></g>
<g><path style="opacity:0.012" fill="#aafffe" d="M 214.5,33.5 C 215.833,34.1667 215.833,34.1667 214.5,33.5 Z"/></g>
<g><path style="opacity:1" fill="#e2dbd8" d="M 159.5,49.5 C 157.097,57.5625 155.43,65.8959 154.5,74.5C 154.5,74.8333 154.5,75.1667 154.5,75.5C 151.548,85.5258 149.548,95.8592 148.5,106.5C 148.784,108.415 148.451,110.081 147.5,111.5C 145.614,117.077 144.281,122.91 143.5,129C 143.528,130.07 143.861,130.903 144.5,131.5C 146.531,132.539 147.864,134.205 148.5,136.5C 150.82,143.79 152.487,151.123 153.5,158.5C 157.007,158.307 160.34,158.973 163.5,160.5C 164.417,159.873 165.417,159.539 166.5,159.5C 171.585,157.229 176.918,155.896 182.5,155.5C 191.999,156.488 198.499,161.488 202,170.5C 215.858,176.892 219.858,187.225 214,201.5C 207.269,209.765 198.936,212.098 189,208.5C 187.871,210.141 186.371,211.141 184.5,211.5C 174.999,215.683 165.666,215.35 156.5,210.5C 153.361,207.209 149.694,206.543 145.5,208.5C 142.188,208.519 139.021,207.852 136,206.5C 132.87,207.984 129.703,209.317 126.5,210.5C 118.177,212.859 109.677,214.193 101,214.5C 90.7337,213.867 80.567,212.533 70.5,210.5C 57.6468,207.329 47.4801,200.329 40,189.5C 39.0657,186.864 38.2324,184.197 37.5,181.5C 37.5427,180.584 37.8761,179.917 38.5,179.5C 39.6266,178.878 40.6266,178.045 41.5,177C 46.4017,176.259 51.0684,175.092 55.5,173.5C 56.5676,172.566 57.901,172.232 59.5,172.5C 65.2996,172.009 70.633,170.343 75.5,167.5C 86.8707,162.386 97.0373,155.386 106,146.5C 108.667,141.833 111.333,137.167 114,132.5C 116.397,129.6 119.23,127.267 122.5,125.5C 123.295,123.505 123.961,121.505 124.5,119.5C 127.039,111.47 128.706,103.137 129.5,94.5C 129.325,92.3792 129.659,90.3792 130.5,88.5C 133.226,80.1656 134.892,71.4989 135.5,62.5C 136.341,55.7848 137.508,49.1181 139,42.5C 143.267,35.1245 149.101,33.6245 156.5,38C 159.72,41.4557 160.72,45.2891 159.5,49.5 Z"/></g>
<g><path style="opacity:0.004" fill="#bebfbe" d="M 219.5,38.5 C 218.833,37.1667 218.833,37.1667 219.5,38.5 Z"/></g>
<g><path style="opacity:0.008" fill="#80fffe" d="M 33.5,38.5 C 34.8333,39.1667 34.8333,39.1667 33.5,38.5 Z"/></g>
<g><path style="opacity:0.008" fill="#80fffe" d="M 219.5,38.5 C 220.833,39.1667 220.833,39.1667 219.5,38.5 Z"/></g>
<g><path style="opacity:0.008" fill="#80fffe" d="M 226.5,46.5 C 227.833,47.1667 227.833,47.1667 226.5,46.5 Z"/></g>
<g><path style="opacity:0.008" fill="#80fffe" d="M 23.5,50.5 C 24.8333,51.1667 24.8333,51.1667 23.5,50.5 Z"/></g>
<g><path style="opacity:0.008" fill="#80fffe" d="M 229.5,50.5 C 230.833,51.1667 230.833,51.1667 229.5,50.5 Z"/></g>
<g><path style="opacity:1" fill="#566767" d="M 159.5,49.5 C 158.785,58.1491 157.118,66.4824 154.5,74.5C 155.43,65.8959 157.097,57.5625 159.5,49.5 Z"/></g>
<g><path style="opacity:1" fill="#4d2715" d="M 152.5,53.5 C 152.57,57.4248 151.903,61.0915 150.5,64.5C 150.43,60.5752 151.097,56.9085 152.5,53.5 Z"/></g>
<g><path style="opacity:0.012" fill="#aafffe" d="M 235.5,59.5 C 236.833,60.1667 236.833,60.1667 235.5,59.5 Z"/></g>
<g><path style="opacity:1" fill="#576868" d="M 81.5,61.5 C 78.7508,61.7261 76.0841,61.3928 73.5,60.5C 71.7826,61.6685 71.1159,63.3352 71.5,65.5C 74.3725,65.8023 77.0392,66.469 79.5,67.5C 76.4552,67.4921 73.4552,67.1587 70.5,66.5C 70.67,65.1779 70.3366,64.0113 69.5,63C 70.1667,62 70.8333,61 71.5,60C 75.0708,59.5518 78.4041,60.0518 81.5,61.5 Z"/></g>
<g><path style="opacity:1" fill="#a7fd00" d="M 152.5,53.5 C 151.097,56.9085 150.43,60.5752 150.5,64.5C 150.167,64.5 149.833,64.5 149.5,64.5C 149.44,63.9569 149.107,63.6236 148.5,63.5C 146.137,64.1702 143.804,64.8368 141.5,65.5C 142.836,58.486 144.336,51.486 146,44.5C 148.12,41.9199 150.287,41.9199 152.5,44.5C 153.357,47.4509 153.357,50.4509 152.5,53.5 Z"/></g>
<g><path style="opacity:1" fill="#f37c14" d="M 81.5,61.5 C 85.0399,61.7526 88.3733,62.4192 91.5,63.5C 87.7981,63.2258 85.4648,64.8925 84.5,68.5C 82.7085,68.634 81.0418,68.3007 79.5,67.5C 77.0392,66.469 74.3725,65.8023 71.5,65.5C 71.1159,63.3352 71.7826,61.6685 73.5,60.5C 76.0841,61.3928 78.7508,61.7261 81.5,61.5 Z"/></g>
<g><path style="opacity:1" fill="#5c6d6d" d="M 92.5,63.5 C 101.808,64.2157 110.808,65.8823 119.5,68.5C 114.817,67.9262 110.15,67.2596 105.5,66.5C 100.929,66.0231 96.5959,65.0231 92.5,63.5 Z"/></g>
<g><path style="opacity:0.004" fill="#bebfbe" d="M 13.5,66.5 C 14.8333,67.1667 14.8333,67.1667 13.5,66.5 Z"/></g>
<g><path style="opacity:0.004" fill="#bebfbe" d="M 12.5,68.5 C 13.8333,69.1667 13.8333,69.1667 12.5,68.5 Z"/></g>
<g><path style="opacity:1" fill="#ffd500" d="M 91.5,63.5 C 91.8333,63.5 92.1667,63.5 92.5,63.5C 96.5959,65.0231 100.929,66.0231 105.5,66.5C 103.494,67.4851 101.827,68.8184 100.5,70.5C 95.8498,69.7404 91.1831,69.0738 86.5,68.5C 85.8333,68.5 85.1667,68.5 84.5,68.5C 85.4648,64.8925 87.7981,63.2258 91.5,63.5 Z"/></g>
<g><path style="opacity:0.004" fill="#bebfbe" d="M 240.5,68.5 C 241.833,69.1667 241.833,69.1667 240.5,68.5 Z"/></g>
<g><path style="opacity:1" fill="#596a6a" d="M 135.5,62.5 C 134.892,71.4989 133.226,80.1656 130.5,88.5C 131.421,79.5652 133.088,70.8986 135.5,62.5 Z"/></g>
<g><path style="opacity:0.004" fill="#fefffe" d="M 11.5,70.5 C 12.8333,71.1667 12.8333,71.1667 11.5,70.5 Z"/></g>
<g><path style="opacity:1" fill="#b7f220" d="M 105.5,66.5 C 110.15,67.2596 114.817,67.9262 119.5,68.5C 121.527,68.3379 123.527,68.5045 125.5,69C 126.056,69.3826 126.389,69.8826 126.5,70.5C 126.241,74.0681 124.241,75.4015 120.5,74.5C 117.941,74.8016 115.607,74.4682 113.5,73.5C 109.404,71.9769 105.071,70.9769 100.5,70.5C 101.827,68.8184 103.494,67.4851 105.5,66.5 Z"/></g>
<g><path style="opacity:0.004" fill="#fefffe" d="M 241.5,70.5 C 242.833,71.1667 242.833,71.1667 241.5,70.5 Z"/></g>
<g><path style="opacity:1" fill="#596a67" d="M 86.5,68.5 C 91.1831,69.0738 95.8498,69.7404 100.5,70.5C 105.071,70.9769 109.404,71.9769 113.5,73.5C 104.18,72.8408 95.1804,71.1741 86.5,68.5 Z"/></g>
<g><path style="opacity:0.004" fill="#fefffe" d="M 242.5,72.5 C 243.833,73.1667 243.833,73.1667 242.5,72.5 Z"/></g>
<g><path style="opacity:1" fill="#596b6b" d="M 126.5,70.5 C 127.801,71.8845 127.801,73.3845 126.5,75C 124.288,75.7891 122.288,75.6225 120.5,74.5C 124.241,75.4015 126.241,74.0681 126.5,70.5 Z"/></g>
<g><path style="opacity:1" fill="#502a16" d="M 140.5,68.5 C 140.344,74.1157 139.344,79.4491 137.5,84.5C 137.871,78.9245 138.871,73.5911 140.5,68.5 Z"/></g>
<g><path style="opacity:1" fill="#5d7070" d="M 100.5,80.5 C 95.8592,79.8734 91.1925,79.5401 86.5,79.5C 86.9623,78.1201 87.9623,77.4534 89.5,77.5C 93.4361,77.9768 97.1027,78.9768 100.5,80.5 Z"/></g>
<g><path style="opacity:0.004" fill="#fefffe" d="M 245.5,79.5 C 246.833,80.1667 246.833,80.1667 245.5,79.5 Z"/></g>
<g><path style="opacity:1" fill="#b9f027" d="M 86.5,79.5 C 91.1925,79.5401 95.8592,79.8734 100.5,80.5C 102.95,80.298 105.283,80.6314 107.5,81.5C 107.5,81.8333 107.5,82.1667 107.5,82.5C 104.917,83.4207 102.584,84.754 100.5,86.5C 100.167,86.5 99.8333,86.5 99.5,86.5C 95.4251,84.8816 91.0918,83.8816 86.5,83.5C 85.1667,82.1667 85.1667,80.8333 86.5,79.5 Z"/></g>
<g><path style="opacity:1" fill="#2ffe11" d="M 149.5,64.5 C 148.716,71.2013 147.716,77.868 146.5,84.5C 145.215,87.5885 144.549,90.9219 144.5,94.5C 143.07,94.4208 141.736,94.7542 140.5,95.5C 138.985,97.0822 137.319,98.4155 135.5,99.5C 136.006,94.4767 136.673,89.4767 137.5,84.5C 139.344,79.4491 140.344,74.1157 140.5,68.5C 141.404,67.791 141.737,66.791 141.5,65.5C 143.804,64.8368 146.137,64.1702 148.5,63.5C 149.107,63.6236 149.44,63.9569 149.5,64.5 Z"/></g>
<g><path style="opacity:1" fill="#4f605d" d="M 107.5,82.5 C 107.5,82.1667 107.5,81.8333 107.5,81.5C 111.509,81.8583 115.509,82.3583 119.5,83C 121.437,83.1216 122.77,83.955 123.5,85.5C 118.213,84.2854 112.88,83.2854 107.5,82.5 Z"/></g>
<g><path style="opacity:1" fill="#495757" d="M 86.5,83.5 C 91.0918,83.8816 95.4251,84.8816 99.5,86.5C 94.8128,86.4492 90.4794,85.4492 86.5,83.5 Z"/></g>
<g><path style="opacity:1" fill="#63fa12" d="M 107.5,82.5 C 112.88,83.2854 118.213,84.2854 123.5,85.5C 123.915,87.9477 122.915,89.2811 120.5,89.5C 116.678,88.4661 113.011,88.1327 109.5,88.5C 106.273,88.3239 103.273,87.6572 100.5,86.5C 102.584,84.754 104.917,83.4207 107.5,82.5 Z"/></g>
<g><path style="opacity:0.004" fill="#fefffe" d="M 248.5,87.5 C 249.833,88.1667 249.833,88.1667 248.5,87.5 Z"/></g>
<g><path style="opacity:1" fill="#4b2615" d="M 146.5,84.5 C 146.57,88.4248 145.903,92.0915 144.5,95.5C 144.5,95.1667 144.5,94.8333 144.5,94.5C 144.549,90.9219 145.215,87.5885 146.5,84.5 Z"/></g>
<g><path style="opacity:1" fill="#5f7271" d="M 123.5,85.5 C 124.801,86.8845 124.801,88.3845 123.5,90C 118.593,90.6347 113.926,90.1347 109.5,88.5C 113.011,88.1327 116.678,88.4661 120.5,89.5C 122.915,89.2811 123.915,87.9477 123.5,85.5 Z"/></g>
<g><path style="opacity:1" fill="#556666" d="M 88.5,93.5 C 84.7867,92.7068 81.12,92.7068 77.5,93.5C 77.2907,94.086 76.9574,94.586 76.5,95C 78.2573,96.7495 80.2573,97.9162 82.5,98.5C 77.2913,99.2948 75.2913,97.2948 76.5,92.5C 80.7377,91.2 84.7377,91.5334 88.5,93.5 Z"/></g>
<g><path style="opacity:0.008" fill="#80fffe" d="M 249.5,91.5 C 250.833,92.1667 250.833,92.1667 249.5,91.5 Z"/></g>
<g><path style="opacity:1" fill="#556666" d="M 88.5,93.5 C 98.4596,94.2147 108.126,95.8814 117.5,98.5C 107.543,97.7857 97.8763,96.119 88.5,93.5 Z"/></g>
<g><path style="opacity:1" fill="#e2ef38" d="M 56.5,92.5 C 60.692,92.1766 62.692,94.1766 62.5,98.5C 62.6489,101.753 61.3156,104.086 58.5,105.5C 57.5224,105.023 56.6891,104.357 56,103.5C 55.2446,99.7446 55.4113,96.0779 56.5,92.5 Z"/></g>
<g><path style="opacity:1" fill="#5e7070" d="M 154.5,75.5 C 153.246,86.1019 151.246,96.4352 148.5,106.5C 149.548,95.8592 151.548,85.5258 154.5,75.5 Z"/></g>
<g><path style="opacity:1" fill="#607572" d="M 88.5,99.5 C 93.5312,99.4433 98.1979,100.443 102.5,102.5C 97.5286,102.344 92.862,101.344 88.5,99.5 Z"/></g>
<g><path style="opacity:1" fill="#4ff914" d="M 88.5,93.5 C 97.8763,96.119 107.543,97.7857 117.5,98.5C 120.364,99.7579 121.03,101.758 119.5,104.5C 118.167,105.833 116.833,105.833 115.5,104.5C 111.817,102.75 107.817,102.083 103.5,102.5C 103.167,102.5 102.833,102.5 102.5,102.5C 98.1979,100.443 93.5312,99.4433 88.5,99.5C 86.2646,99.7947 84.2646,99.4614 82.5,98.5C 80.2573,97.9162 78.2573,96.7495 76.5,95C 76.9574,94.586 77.2907,94.086 77.5,93.5C 81.12,92.7068 84.7867,92.7068 88.5,93.5 Z"/></g>
<g><path style="opacity:1" fill="#5b6d6d" d="M 117.5,98.5 C 120.243,98.0772 121.576,99.2439 121.5,102C 121.316,103.376 120.649,104.209 119.5,104.5C 121.03,101.758 120.364,99.7579 117.5,98.5 Z"/></g>
<g><path style="opacity:1" fill="#465654" d="M 103.5,102.5 C 107.817,102.083 111.817,102.75 115.5,104.5C 111.295,104.283 107.295,103.617 103.5,102.5 Z"/></g>
<g><path style="opacity:0.012" fill="#aafffe" d="M 0.5,104.5 C 1.83333,105.167 1.83333,105.167 0.5,104.5 Z"/></g>
<g><path style="opacity:1" fill="#536464" d="M 129.5,94.5 C 128.706,103.137 127.039,111.47 124.5,119.5C 125.216,110.848 126.882,102.515 129.5,94.5 Z"/></g>
<g><path style="opacity:1" fill="#4e2815" d="M 134.5,100.5 C 134.451,104.078 133.785,107.411 132.5,110.5C 132.322,106.878 132.989,103.544 134.5,100.5 Z"/></g>
<g><path style="opacity:1" fill="#10fe87" d="M 144.5,94.5 C 144.5,94.8333 144.5,95.1667 144.5,95.5C 143.069,101.052 141.735,106.719 140.5,112.5C 137.605,113.399 134.938,114.733 132.5,116.5C 132.5,114.5 132.5,112.5 132.5,110.5C 133.785,107.411 134.451,104.078 134.5,100.5C 134.5,99.8333 134.833,99.5 135.5,99.5C 137.319,98.4155 138.985,97.0822 140.5,95.5C 141.736,94.7542 143.07,94.4208 144.5,94.5 Z"/></g>
<g><path style="opacity:1" fill="#95f037" d="M 62.5,104.5 C 65.8499,104.335 69.1832,104.502 72.5,105C 73.7596,106.814 73.7596,108.647 72.5,110.5C 69.1667,111.833 65.8333,111.833 62.5,110.5C 61.3058,108.484 61.3058,106.484 62.5,104.5 Z"/></g>
<g><path style="opacity:1" fill="#cdde46" d="M 44.5,104.5 C 47.8499,104.335 51.1832,104.502 54.5,105C 55.7596,106.814 55.7596,108.647 54.5,110.5C 51.562,111.575 48.562,111.741 45.5,111C 43.3162,109.102 42.9829,106.936 44.5,104.5 Z"/></g>
<g><path style="opacity:0.012" fill="#aafffe" d="M -0.5,111.5 C 0.833333,112.167 0.833333,112.167 -0.5,111.5 Z"/></g>
<g><path style="opacity:1" fill="#d9d6d7" d="M 190.5,125.5 C 185.776,128.421 181.276,128.088 177,124.5C 174.606,119.527 175.44,115.194 179.5,111.5C 186.792,108.824 191.459,111.491 193.5,119.5C 192.999,121.836 191.999,123.836 190.5,125.5 Z"/></g>
<g><path style="opacity:1" fill="#552e1a" d="M 132.5,110.5 C 132.5,112.5 132.5,114.5 132.5,116.5C 131.833,117.5 131.167,118.5 130.5,119.5C 130.676,116.273 131.343,113.273 132.5,110.5 Z"/></g>
<g><path style="opacity:1" fill="#7ff234" d="M 56.5,110.5 C 59.2385,109.965 61.0718,110.965 62,113.5C 62.4954,116.531 62.3287,119.531 61.5,122.5C 59.2271,123.735 57.3938,123.402 56,121.5C 55.2446,117.745 55.4113,114.078 56.5,110.5 Z"/></g>
<g><path style="opacity:1" fill="#0cfddb" d="M 140.5,112.5 C 140.5,113.5 140.5,114.5 140.5,115.5C 139.368,118.628 138.535,121.962 138,125.5C 137.617,126.056 137.117,126.389 136.5,126.5C 135.003,125.694 133.336,125.028 131.5,124.5C 130.548,122.955 130.215,121.288 130.5,119.5C 131.167,118.5 131.833,117.5 132.5,116.5C 134.938,114.733 137.605,113.399 140.5,112.5 Z"/></g>
<g><path style="opacity:1" fill="#506060" d="M 147.5,111.5 C 146.759,118.207 145.759,124.873 144.5,131.5C 143.861,130.903 143.528,130.07 143.5,129C 144.281,122.91 145.614,117.077 147.5,111.5 Z"/></g>
<g><path style="opacity:1" fill="#4a5858" d="M 179.5,111.5 C 175.44,115.194 174.606,119.527 177,124.5C 181.276,128.088 185.776,128.421 190.5,125.5C 185.847,130.814 181.014,130.814 176,125.5C 174.517,122.298 174.183,118.964 175,115.5C 175.748,113.249 177.248,111.916 179.5,111.5 Z"/></g>
<g><path style="opacity:1" fill="#155ff8" d="M 181.5,117.5 C 183.167,117.5 184.833,117.5 186.5,117.5C 186.616,120.91 184.95,122.244 181.5,121.5C 181.5,120.167 181.5,118.833 181.5,117.5 Z"/></g>
<g><path style="opacity:1" fill="#4d2715" d="M 140.5,115.5 C 140.436,119.22 139.936,122.886 139,126.5C 138.023,127.774 137.189,127.774 136.5,126.5C 137.117,126.389 137.617,126.056 138,125.5C 138.535,121.962 139.368,118.628 140.5,115.5 Z"/></g>
<g><path style="opacity:0.588" fill="#62bbd0" d="M 69.5,129.5 C 68.1667,129.5 66.8333,129.5 65.5,129.5C 66.8333,126.833 68.1667,126.833 69.5,129.5 Z"/></g>
<g><path style="opacity:0.588" fill="#62b5d5" d="M 69.5,129.5 C 72.1667,130.167 73.8333,131.833 74.5,134.5C 72.5,133.167 70.8333,131.5 69.5,129.5 Z"/></g>
<g><path style="opacity:0.999" fill="#d2cfd0" d="M 198.5,148.5 C 191.833,142.167 191.833,135.833 198.5,129.5C 207.011,126.605 212.345,129.771 214.5,139C 212.376,148.214 207.043,151.381 198.5,148.5 Z"/></g>
<g><path style="opacity:1" fill="#5eb5d7" d="M 65.5,129.5 C 65.1496,132.453 66.1496,134.787 68.5,136.5C 65.8787,135.879 64.212,134.212 63.5,131.5C 63.8555,130.478 64.5222,129.811 65.5,129.5 Z"/></g>
<g><path style="opacity:1" fill="#15fd3d" d="M 65.5,129.5 C 66.8333,129.5 68.1667,129.5 69.5,129.5C 70.8333,131.5 72.5,133.167 74.5,134.5C 75.8333,135.5 75.8333,136.5 74.5,137.5C 72.2492,138.865 70.2492,138.531 68.5,136.5C 66.1496,134.787 65.1496,132.453 65.5,129.5 Z"/></g>
<g><path style="opacity:1" fill="#3ff087" d="M 82.5,138.5 C 80.3652,138.853 79.0319,138.02 78.5,136C 79.741,134.269 80.741,132.436 81.5,130.5C 84.5431,126.325 87.2098,126.659 89.5,131.5C 87.4036,134.263 85.0702,136.597 82.5,138.5 Z"/></g>
<g><path style="opacity:1" fill="#485353" d="M 198.5,129.5 C 191.833,135.833 191.833,142.167 198.5,148.5C 194.13,146.943 192.13,143.776 192.5,139C 192.13,134.224 194.13,131.057 198.5,129.5 Z"/></g>
<g><path style="opacity:1" fill="#69b7d2" d="M 68.5,136.5 C 70.2492,138.531 72.2492,138.865 74.5,137.5C 74.2089,138.649 73.3756,139.316 72,139.5C 69.7253,139.722 68.5587,138.722 68.5,136.5 Z"/></g>
<g><path style="opacity:1" fill="#60b8d3" d="M 81.5,130.5 C 80.741,132.436 79.741,134.269 78.5,136C 79.0319,138.02 80.3652,138.853 82.5,138.5C 78.0005,140.163 76.5005,138.497 78,133.5C 79.0391,132.29 80.2058,131.29 81.5,130.5 Z"/></g>
<g><path style="opacity:1" fill="#506060" d="M 148.5,136.5 C 150.41,137.975 151.576,139.975 152,142.5C 153.095,147.78 153.595,153.113 153.5,158.5C 152.487,151.123 150.82,143.79 148.5,136.5 Z"/></g>
<g><path style="opacity:1" fill="#7600fe" d="M 202.5,134.5 C 207.266,135.151 208.599,137.651 206.5,142C 202.846,143.297 200.179,142.297 198.5,139C 199.357,136.981 200.691,135.481 202.5,134.5 Z"/></g>
<g><path style="opacity:0.012" fill="#aafffe" d="M -0.5,141.5 C 0.833333,142.167 0.833333,142.167 -0.5,141.5 Z"/></g>
<g><path style="opacity:0.012" fill="#aafffe" d="M 253.5,141.5 C 254.833,142.167 254.833,142.167 253.5,141.5 Z"/></g>
<g><path style="opacity:1" fill="#1bfab6" d="M 82.5,142.5 C 83.4756,143.815 84.4756,145.148 85.5,146.5C 80.4604,149.448 78.4604,148.115 79.5,142.5C 80.5,141.167 81.5,141.167 82.5,142.5 Z"/></g>
<g><path style="opacity:1" fill="#58b9d5" d="M 68.5,143.5 C 67.9202,145.749 66.5869,147.415 64.5,148.5C 65.0798,146.251 66.4131,144.585 68.5,143.5 Z"/></g>
<g><path style="opacity:1" fill="#875003" d="M 119.5,136.5 C 119.916,134.248 121.249,132.748 123.5,132C 132.747,129.368 139.914,132.201 145,140.5C 145.494,142.134 145.66,143.801 145.5,145.5C 137.755,148.157 130.089,147.99 122.5,145C 118.818,143.68 117.318,141.18 118,137.5C 118.383,136.944 118.883,136.611 119.5,136.5 Z"/></g>
<g><path style="opacity:1" fill="#0777ff" d="M 139.5,136.5 C 141.88,138.237 143.547,140.57 144.5,143.5C 139.001,145.283 133.334,145.95 127.5,145.5C 131.798,142.854 135.798,139.854 139.5,136.5 Z"/></g>
<g><path style="opacity:1" fill="#09abfe" d="M 134.5,133.5 C 136.674,133.75 138.341,134.75 139.5,136.5C 135.798,139.854 131.798,142.854 127.5,145.5C 124.683,144.905 122.35,143.572 120.5,141.5C 125.172,138.831 129.839,136.164 134.5,133.5 Z"/></g>
<g><path style="opacity:1" fill="#0ad6fe" d="M 134.5,133.5 C 129.839,136.164 125.172,138.831 120.5,141.5C 118.216,140.323 117.882,138.656 119.5,136.5C 123.963,132.558 128.963,131.558 134.5,133.5 Z"/></g>
<g><path style="opacity:1" fill="#3feda2" d="M 64.5,148.5 C 66.5869,147.415 67.9202,145.749 68.5,143.5C 72.6029,140.367 74.7696,141.367 75,146.5C 73.6152,147.551 72.6152,148.884 72,150.5C 69.7815,152.619 67.2815,152.952 64.5,151.5C 63.3473,150.313 63.3473,149.313 64.5,148.5 Z"/></g>
<g><path style="opacity:0.012" fill="#aafffe" d="M 0.5,148.5 C 1.83333,149.167 1.83333,149.167 0.5,148.5 Z"/></g>
<g><path style="opacity:1" fill="#4cdadb" d="M 79.5,142.5 C 78.4604,148.115 80.4604,149.448 85.5,146.5C 84.4756,145.148 83.4756,143.815 82.5,142.5C 85.7896,143.789 88.1229,146.123 89.5,149.5C 87.9124,152.257 85.579,153.09 82.5,152C 80.0333,150.206 78.3667,147.872 77.5,145C 77.6842,143.624 78.3509,142.791 79.5,142.5 Z"/></g>
<g><path style="opacity:1" fill="#4f5f5f" d="M 182.5,155.5 C 176.918,155.896 171.585,157.229 166.5,159.5C 167.975,157.59 169.975,156.424 172.5,156C 175.95,154.571 179.283,154.405 182.5,155.5 Z"/></g>
<g><path style="opacity:1" fill="#0987fe" d="M 116.5,147.5 C 118.863,149.68 121.53,151.347 124.5,152.5C 124.167,152.5 123.833,152.5 123.5,152.5C 119.199,154.314 114.866,156.148 110.5,158C 99.5736,164.136 88.907,170.803 78.5,178C 73.6983,179.532 69.0316,181.365 64.5,183.5C 64.7214,182.265 65.3881,181.265 66.5,180.5C 69.3734,178.897 72.3734,177.564 75.5,176.5C 76.2975,176.043 76.6309,175.376 76.5,174.5C 76.5,174.167 76.5,173.833 76.5,173.5C 77.4916,173.672 78.1583,173.338 78.5,172.5C 82.8524,172.154 86.5191,170.488 89.5,167.5C 99.3944,163.449 107.394,156.949 113.5,148C 114.448,147.517 115.448,147.351 116.5,147.5 Z"/></g>
<g><path style="opacity:1" fill="#ab00fe" d="M 183.5,161.5 C 183.144,162.87 182.31,163.87 181,164.5C 170.934,168.111 162.1,173.611 154.5,181C 147.601,183.688 140.934,186.855 134.5,190.5C 134.687,188.436 135.187,186.436 136,184.5C 138.488,182.257 141.154,180.257 144,178.5C 146.626,166.245 153.46,162.912 164.5,168.5C 167.462,166.682 170.462,164.849 173.5,163C 176.726,161.801 180.059,161.301 183.5,161.5 Z"/></g>
<g><path style="opacity:1" fill="#e6e8e9" d="M 190.5,174.5 C 191.167,178.5 189.5,180.167 185.5,179.5C 183.375,172.809 179.708,171.809 174.5,176.5C 172.405,176.24 171.072,175.074 170.5,173C 171.487,170.679 173.154,169.013 175.5,168C 182.541,165.861 187.541,168.027 190.5,174.5 Z"/></g>
<g><path style="opacity:1" fill="#8c7801" d="M 89.5,167.5 C 86.5191,170.488 82.8524,172.154 78.5,172.5C 81.8363,170.269 85.503,168.603 89.5,167.5 Z"/></g>
<g><path style="opacity:1" fill="#141dfe" d="M 138.5,171.5 C 134.946,172.105 132.279,173.939 130.5,177C 126.191,180.137 121.524,182.637 116.5,184.5C 115.702,184.043 115.369,183.376 115.5,182.5C 118.521,179.979 120.521,176.812 121.5,173C 121.331,170.833 120.164,169.666 118,169.5C 113.364,173.97 108.864,178.637 104.5,183.5C 100.808,185.344 97.4751,187.677 94.5,190.5C 93.5084,190.328 92.8417,190.662 92.5,191.5C 88.1509,193.008 84.1509,195.008 80.5,197.5C 75.6562,198.725 70.8229,200.058 66,201.5C 62.8695,200.016 59.7029,198.683 56.5,197.5C 56.5,196.833 56.1667,196.5 55.5,196.5C 60.2442,195.083 64.9109,193.416 69.5,191.5C 70.791,191.737 71.791,191.404 72.5,190.5C 77.2897,189.796 81.623,188.129 85.5,185.5C 89.6466,184.4 90.3133,182.4 87.5,179.5C 95.4324,175.531 103.099,171.031 110.5,166C 117.197,162.983 123.864,159.983 130.5,157C 131.71,155.961 132.71,154.794 133.5,153.5C 137.399,153.035 141.233,152.368 145,151.5C 146.213,154.768 146.546,158.101 146,161.5C 141.802,163.564 139.302,166.897 138.5,171.5 Z"/></g>
<g><path style="opacity:1" fill="#e400fc" d="M 183.5,161.5 C 188.536,162.848 192.203,165.848 194.5,170.5C 193.833,172.5 192.5,173.833 190.5,174.5C 187.541,168.027 182.541,165.861 175.5,168C 173.154,169.013 171.487,170.679 170.5,173C 171.072,175.074 172.405,176.24 174.5,176.5C 162.5,183.833 150.5,191.167 138.5,198.5C 135.851,196.588 134.518,193.921 134.5,190.5C 140.934,186.855 147.601,183.688 154.5,181C 162.1,173.611 170.934,168.111 181,164.5C 182.31,163.87 183.144,162.87 183.5,161.5 Z"/></g>
<g><path style="opacity:1" fill="#014eff" d="M 123.5,152.5 C 123.833,152.5 124.167,152.5 124.5,152.5C 127.518,152.704 130.518,153.037 133.5,153.5C 132.71,154.794 131.71,155.961 130.5,157C 123.864,159.983 117.197,162.983 110.5,166C 103.099,171.031 95.4324,175.531 87.5,179.5C 87.1667,179.5 86.8333,179.5 86.5,179.5C 86.2648,178.903 85.7648,178.57 85,178.5C 82.5351,179.651 80.0351,180.651 77.5,181.5C 88.4735,175.501 99.4735,169.167 110.5,162.5C 114.722,158.904 119.055,155.571 123.5,152.5 Z"/></g>
<g><path style="opacity:1" fill="#4c5b5b" d="M 75.5,167.5 C 70.633,170.343 65.2996,172.009 59.5,172.5C 64.5468,170.233 69.8802,168.566 75.5,167.5 Z"/></g>
<g><path style="opacity:1" fill="#706010" d="M 115.5,182.5 C 114.5,183.167 113.5,183.833 112.5,184.5C 115.117,180.87 117.784,177.203 120.5,173.5C 119.855,172.354 119.022,171.354 118,170.5C 114.27,175.731 109.77,180.065 104.5,183.5C 108.864,178.637 113.364,173.97 118,169.5C 120.164,169.666 121.331,170.833 121.5,173C 120.521,176.812 118.521,179.979 115.5,182.5 Z"/></g>
<g><path style="opacity:1" fill="#8c6d0d" d="M 116.5,147.5 C 126.459,151.633 136.793,152.633 147.5,150.5C 147.666,154.514 147.499,158.514 147,162.5C 142.847,165.463 140.18,169.463 139,174.5C 128.726,181.266 126.059,190.266 131,201.5C 124.567,206.034 117.4,208.701 109.5,209.5C 108.068,209.267 107.568,208.6 108,207.5C 111.395,204.593 114.895,201.927 118.5,199.5C 116.372,202.13 114.039,204.63 111.5,207C 118.373,206.896 124.373,204.563 129.5,200C 127.861,196.698 127.194,193.198 127.5,189.5C 127.298,187.011 127.798,184.677 129,182.5C 132.061,178.616 135.227,174.949 138.5,171.5C 139.302,166.897 141.802,163.564 146,161.5C 146.546,158.101 146.213,154.768 145,151.5C 141.233,152.368 137.399,153.035 133.5,153.5C 130.518,153.037 127.518,152.704 124.5,152.5C 121.53,151.347 118.863,149.68 116.5,147.5 Z"/></g>
<g><path style="opacity:0.004" fill="#fefffe" d="M 7.5,173.5 C 8.83333,174.167 8.83333,174.167 7.5,173.5 Z"/></g>
<g><path style="opacity:1" fill="#0270fe" d="M 123.5,152.5 C 119.055,155.571 114.722,158.904 110.5,162.5C 99.4735,169.167 88.4735,175.501 77.5,181.5C 75.2504,182.13 73.2504,183.13 71.5,184.5C 70.209,184.263 69.209,184.596 68.5,185.5C 66.4352,185.517 64.4352,185.85 62.5,186.5C 62.7822,185.222 63.4489,184.222 64.5,183.5C 69.0316,181.365 73.6983,179.532 78.5,178C 88.907,170.803 99.5736,164.136 110.5,158C 114.866,156.148 119.199,154.314 123.5,152.5 Z"/></g>
<g><path style="opacity:0.004" fill="#fefffe" d="M 245.5,173.5 C 246.833,174.167 246.833,174.167 245.5,173.5 Z"/></g>
<g><path style="opacity:1" fill="#4b5959" d="M 55.5,173.5 C 51.0684,175.092 46.4017,176.259 41.5,177C 40.6266,178.045 39.6266,178.878 38.5,179.5C 38.5106,177.983 39.1772,176.816 40.5,176C 45.3926,174.518 50.3926,173.685 55.5,173.5 Z"/></g>
<g><path style="opacity:1" fill="#827001" d="M 76.5,173.5 C 76.5,173.833 76.5,174.167 76.5,174.5C 71.0232,176.619 65.3565,177.952 59.5,178.5C 64.9315,176.388 70.5982,174.721 76.5,173.5 Z"/></g>
<g><path style="opacity:0.004" fill="#fefffe" d="M 10.5,180.5 C 11.8333,181.167 11.8333,181.167 10.5,180.5 Z"/></g>
<g><path style="opacity:0.004" fill="#fefffe" d="M 242.5,180.5 C 243.833,181.167 243.833,181.167 242.5,180.5 Z"/></g>
<g><path style="opacity:1" fill="#0fa4fe" d="M 76.5,174.5 C 76.6309,175.376 76.2975,176.043 75.5,176.5C 72.3734,177.564 69.3734,178.897 66.5,180.5C 65.3881,181.265 64.7214,182.265 64.5,183.5C 63.4489,184.222 62.7822,185.222 62.5,186.5C 58.6904,187.228 54.857,187.895 51,188.5C 47.2415,187.934 45.7415,185.934 46.5,182.5C 50.0199,181.74 53.3532,180.74 56.5,179.5C 57.791,179.737 58.791,179.404 59.5,178.5C 65.3565,177.952 71.0232,176.619 76.5,174.5 Z"/></g>
<g><path style="opacity:1" fill="#fe01aa" d="M 194.5,170.5 C 195.486,172.426 196.486,174.426 197.5,176.5C 193.832,178.678 190.499,181.344 187.5,184.5C 183.018,187.738 178.018,189.905 172.5,191C 167.75,195.002 162.583,198.502 157,201.5C 156.329,200.748 155.496,200.414 154.5,200.5C 154.265,199.903 153.765,199.57 153,199.5C 150.681,200.871 148.181,201.538 145.5,201.5C 151.082,198.701 156.415,195.368 161.5,191.5C 170.15,188.508 178.15,184.508 185.5,179.5C 189.5,180.167 191.167,178.5 190.5,174.5C 192.5,173.833 193.833,172.5 194.5,170.5 Z"/></g>
<g><path style="opacity:0.004" fill="#bebfbe" d="M 11.5,182.5 C 12.8333,183.167 12.8333,183.167 11.5,182.5 Z"/></g>
<g><path style="opacity:1" fill="#857301" d="M 56.5,179.5 C 53.3532,180.74 50.0199,181.74 46.5,182.5C 45.7415,185.934 47.2415,187.934 51,188.5C 54.857,187.895 58.6904,187.228 62.5,186.5C 64.4352,185.85 66.4352,185.517 68.5,185.5C 62.5326,188.035 56.1993,189.702 49.5,190.5C 45.765,188.365 44.0983,185.031 44.5,180.5C 48.5,180.167 52.5,179.833 56.5,179.5 Z"/></g>
<g><path style="opacity:0.004" fill="#fefffe" d="M 241.5,182.5 C 242.833,183.167 242.833,183.167 241.5,182.5 Z"/></g>
<g><path style="opacity:1" fill="#726204" d="M 86.5,179.5 C 81.7872,182.023 76.7872,183.689 71.5,184.5C 73.2504,183.13 75.2504,182.13 77.5,181.5C 80.0351,180.651 82.5351,179.651 85,178.5C 85.7648,178.57 86.2648,178.903 86.5,179.5 Z"/></g>
<g><path style="opacity:1" fill="#7b6a01" d="M 104.5,183.5 C 101.875,186.815 98.5416,189.149 94.5,190.5C 97.4751,187.677 100.808,185.344 104.5,183.5 Z"/></g>
<g><path style="opacity:0.004" fill="#bebfbe" d="M 240.5,184.5 C 241.833,185.167 241.833,185.167 240.5,184.5 Z"/></g>
<g><path style="opacity:1" fill="#887500" d="M 85.5,185.5 C 81.623,188.129 77.2897,189.796 72.5,190.5C 76.5344,188.263 80.8677,186.596 85.5,185.5 Z"/></g>
<g><path style="opacity:1" fill="#7102fe" d="M 138.5,171.5 C 135.227,174.949 132.061,178.616 129,182.5C 127.798,184.677 127.298,187.011 127.5,189.5C 126.566,190.568 126.232,191.901 126.5,193.5C 124.784,193.629 123.117,193.962 121.5,194.5C 120.928,191.756 119.262,190.923 116.5,192C 114.627,193.704 112.96,195.537 111.5,197.5C 108.568,198.8 106.234,200.8 104.5,203.5C 101.91,204.128 99.5766,205.295 97.5,207C 91.2566,207.888 85.2566,207.222 79.5,205C 80.4158,204.722 81.0825,204.222 81.5,203.5C 93.614,199.949 103.947,193.616 112.5,184.5C 113.5,183.833 114.5,183.167 115.5,182.5C 115.369,183.376 115.702,184.043 116.5,184.5C 121.524,182.637 126.191,180.137 130.5,177C 132.279,173.939 134.946,172.105 138.5,171.5 Z"/></g>
<g><path style="opacity:1" fill="#ff00e1" d="M 185.5,179.5 C 178.15,184.508 170.15,188.508 161.5,191.5C 156.415,195.368 151.082,198.701 145.5,201.5C 142.654,201.448 140.32,200.448 138.5,198.5C 150.5,191.167 162.5,183.833 174.5,176.5C 179.708,171.809 183.375,172.809 185.5,179.5 Z"/></g>
<g><path style="opacity:0.012" fill="#aafffe" d="M 14.5,188.5 C 15.8333,189.167 15.8333,189.167 14.5,188.5 Z"/></g>
<g><path style="opacity:0.012" fill="#aafffe" d="M 238.5,188.5 C 239.833,189.167 239.833,189.167 238.5,188.5 Z"/></g>
<g><path style="opacity:0.012" fill="#aafffe" d="M 17.5,193.5 C 18.8333,194.167 18.8333,194.167 17.5,193.5 Z"/></g>
<g><path style="opacity:1" fill="#837107" d="M 92.5,191.5 C 89.0976,194.535 85.0976,196.535 80.5,197.5C 84.1509,195.008 88.1509,193.008 92.5,191.5 Z"/></g>
<g><path style="opacity:1" fill="#867301" d="M 69.5,191.5 C 64.9109,193.416 60.2442,195.083 55.5,196.5C 53.4508,196.294 53.1175,195.461 54.5,194C 59.5006,193.1 64.5006,192.266 69.5,191.5 Z"/></g>
<g><path style="opacity:1" fill="#7b6a02" d="M 121.5,194.5 C 121.727,196.933 120.727,198.599 118.5,199.5C 118.92,197.906 119.586,196.406 120.5,195C 120.387,193.72 119.72,192.887 118.5,192.5C 116.408,194.605 114.075,196.272 111.5,197.5C 112.96,195.537 114.627,193.704 116.5,192C 119.262,190.923 120.928,191.756 121.5,194.5 Z"/></g>
<g><path style="opacity:1" fill="#fe0236" d="M 208.5,183.5 C 209.234,184.708 209.567,186.041 209.5,187.5C 202.059,191.878 194.725,196.212 187.5,200.5C 181.812,207.196 174.812,209.529 166.5,207.5C 170.258,205.065 174.258,202.898 178.5,201C 187.82,194.22 197.82,188.387 208.5,183.5 Z"/></g>
<g><path style="opacity:1" fill="#fe000f" d="M 209.5,187.5 C 211.389,196.973 207.389,202.306 197.5,203.5C 193.87,203.288 190.536,202.288 187.5,200.5C 194.725,196.212 202.059,191.878 209.5,187.5 Z"/></g>
<g><path style="opacity:1" fill="#786801" d="M 56.5,197.5 C 59.7029,198.683 62.8695,200.016 66,201.5C 70.8229,200.058 75.6562,198.725 80.5,197.5C 76.2134,199.931 71.5467,201.598 66.5,202.5C 62.5677,201.867 59.2344,200.201 56.5,197.5 Z"/></g>
<g><path style="opacity:1" fill="#d808fe" d="M 127.5,189.5 C 127.194,193.198 127.861,196.698 129.5,200C 124.373,204.563 118.373,206.896 111.5,207C 114.039,204.63 116.372,202.13 118.5,199.5C 120.727,198.599 121.727,196.933 121.5,194.5C 123.117,193.962 124.784,193.629 126.5,193.5C 126.232,191.901 126.566,190.568 127.5,189.5 Z"/></g>
<g><path style="opacity:1" fill="#fe006f" d="M 197.5,176.5 C 202.017,177.587 205.684,179.92 208.5,183.5C 197.82,188.387 187.82,194.22 178.5,201C 174.258,202.898 170.258,205.065 166.5,207.5C 161.55,206.695 157.55,204.362 154.5,200.5C 155.496,200.414 156.329,200.748 157,201.5C 162.583,198.502 167.75,195.002 172.5,191C 178.018,189.905 183.018,187.738 187.5,184.5C 190.499,181.344 193.832,178.678 197.5,176.5 Z"/></g>
<g><path style="opacity:1" fill="#917d08" d="M 81.5,203.5 C 81.0825,204.222 80.4158,204.722 79.5,205C 85.2566,207.222 91.2566,207.888 97.5,207C 99.5766,205.295 101.91,204.128 104.5,203.5C 101.736,206.637 98.236,208.637 94,209.5C 88.8135,208.789 83.6468,207.956 78.5,207C 77.3279,206.581 76.3279,205.915 75.5,205C 77.4357,204.187 79.4357,203.687 81.5,203.5 Z"/></g>
<g><path style="opacity:1" fill="#526363" d="M 156.5,210.5 C 165.666,215.35 174.999,215.683 184.5,211.5C 180.786,214.402 176.453,215.735 171.5,215.5C 165.708,215.811 160.708,214.145 156.5,210.5 Z"/></g>
<g><path style="opacity:0.008" fill="#80fffe" d="M 33.5,214.5 C 34.8333,215.167 34.8333,215.167 33.5,214.5 Z"/></g>
<g><path style="opacity:1" fill="#536464" d="M 70.5,210.5 C 80.567,212.533 90.7337,213.867 101,214.5C 109.677,214.193 118.177,212.859 126.5,210.5C 123.865,212.328 120.865,213.495 117.5,214C 105.841,215.937 94.1743,215.937 82.5,214C 78.2054,213.431 74.2054,212.264 70.5,210.5 Z"/></g>
<g><path style="opacity:0.004" fill="#bebfbe" d="M 218.5,215.5 C 219.833,216.167 219.833,216.167 218.5,215.5 Z"/></g>
<g><path style="opacity:0.004" fill="#bebfbe" d="M 38.5,219.5 C 39.8333,220.167 39.8333,220.167 38.5,219.5 Z"/></g>
<g><path style="opacity:0.012" fill="#aafffe" d="M 214.5,219.5 C 215.833,220.167 215.833,220.167 214.5,219.5 Z"/></g>
<g><path style="opacity:0.012" fill="#aafffe" d="M 46.5,226.5 C 47.8333,227.167 47.8333,227.167 46.5,226.5 Z"/></g>
<g><path style="opacity:0.012" fill="#aafffe" d="M 206.5,226.5 C 207.833,227.167 207.833,227.167 206.5,226.5 Z"/></g>
<g><path style="opacity:0.004" fill="#fefffe" d="M 50.5,229.5 C 51.8333,230.167 51.8333,230.167 50.5,229.5 Z"/></g>
<g><path style="opacity:0.004" fill="#fefffe" d="M 202.5,229.5 C 203.833,230.167 203.833,230.167 202.5,229.5 Z"/></g>
<g><path style="opacity:0.008" fill="#80fffe" d="M 59.5,235.5 C 60.8333,236.167 60.8333,236.167 59.5,235.5 Z"/></g>
<g><path style="opacity:0.004" fill="#fefffe" d="M 193.5,235.5 C 194.833,236.167 194.833,236.167 193.5,235.5 Z"/></g>
<g><path style="opacity:0.004" fill="#fefffe" d="M 64.5,238.5 C 65.8333,239.167 65.8333,239.167 64.5,238.5 Z"/></g>
<g><path style="opacity:0.004" fill="#fefffe" d="M 188.5,238.5 C 189.833,239.167 189.833,239.167 188.5,238.5 Z"/></g>
<g><path style="opacity:0.012" fill="#aafffe" d="M 70.5,241.5 C 71.8333,242.167 71.8333,242.167 70.5,241.5 Z"/></g>
<g><path style="opacity:0.012" fill="#aafffe" d="M 182.5,241.5 C 183.833,242.167 183.833,242.167 182.5,241.5 Z"/></g>
<g><path style="opacity:0.004" fill="#fefffe" d="M 79.5,245.5 C 80.8333,246.167 80.8333,246.167 79.5,245.5 Z"/></g>
<g><path style="opacity:0.004" fill="#fefffe" d="M 173.5,245.5 C 174.833,246.167 174.833,246.167 173.5,245.5 Z"/></g>
</svg>
