<?xml version="1.0" encoding="UTF-8"?>
<!DOCTYPE svg PUBLIC "-//W3C//DTD SVG 1.1//EN" "http://www.w3.org/Graphics/SVG/1.1/DTD/svg11.dtd">
<svg xmlns="http://www.w3.org/2000/svg" version="1.1" width="256px" height="256px" style="shape-rendering:geometricPrecision; text-rendering:geometricPrecision; image-rendering:optimizeQuality; fill-rule:evenodd; clip-rule:evenodd" xmlns:xlink="http://www.w3.org/1999/xlink">
<g><path style="opacity:0.997" fill="#1efe13" d="M 111.5,-0.5 C 121.833,-0.5 132.167,-0.5 142.5,-0.5C 145.003,0.370512 147.67,1.03718 150.5,1.5C 141.8,10.5325 133.133,19.5325 124.5,28.5C 121.689,29.0796 119.023,29.7463 116.5,30.5C 92.1667,30.5 67.8333,30.5 43.5,30.5C 56.3991,19.2083 71.0657,10.7083 87.5,5C 95.6206,3.07978 103.621,1.24644 111.5,-0.5 Z"/></g>
<g><path style="opacity:0.977" fill="#00fe4e" d="M 150.5,1.5 C 154.397,2.05516 158.063,3.05516 161.5,4.5C 160.527,4.98672 159.527,5.48672 158.5,6C 151.21,13.6585 143.877,21.3251 136.5,29C 134.292,29.1909 132.292,29.6909 130.5,30.5C 125.833,30.5 121.167,30.5 116.5,30.5C 119.023,29.7463 121.689,29.0796 124.5,28.5C 133.133,19.5325 141.8,10.5325 150.5,1.5 Z"/></g>
<g><path style="opacity:0.981" fill="#01fe66" d="M 161.5,4.5 C 164.598,4.75556 167.598,5.42222 170.5,6.5C 162.653,15.6922 153.986,23.6922 144.5,30.5C 139.833,30.5 135.167,30.5 130.5,30.5C 132.292,29.6909 134.292,29.1909 136.5,29C 143.877,21.3251 151.21,13.6585 158.5,6C 159.527,5.48672 160.527,4.98672 161.5,4.5 Z"/></g>
<g><path style="opacity:0.973" fill="#02fe84" d="M 170.5,6.5 C 175.741,8.4306 180.741,10.7639 185.5,13.5C 180.703,18.798 175.703,23.9646 170.5,29C 167.635,29.1829 164.969,29.6829 162.5,30.5C 156.5,30.5 150.5,30.5 144.5,30.5C 153.986,23.6922 162.653,15.6922 170.5,6.5 Z"/></g>
<g><path style="opacity:0.966" fill="#03feb0" d="M 185.5,13.5 C 190.465,15.649 195.132,18.3157 199.5,21.5C 196.425,26.6144 192.092,29.6144 186.5,30.5C 178.5,30.5 170.5,30.5 162.5,30.5C 164.969,29.6829 167.635,29.1829 170.5,29C 175.703,23.9646 180.703,18.798 185.5,13.5 Z"/></g>
<g><path style="opacity:0.945" fill="#06fbd4" d="M 199.5,21.5 C 204.952,24.5629 209.618,28.5629 213.5,33.5C 211.628,32.4886 209.628,31.6552 207.5,31C 200.508,30.5004 193.508,30.3337 186.5,30.5C 192.092,29.6144 196.425,26.6144 199.5,21.5 Z"/></g>
<g><path style="opacity:1" fill="#a1a3ae" d="M 42.5,31.5 C 42.5,30.8333 42.8333,30.5 43.5,30.5C 67.8333,30.5 92.1667,30.5 116.5,30.5C 121.167,30.5 125.833,30.5 130.5,30.5C 135.167,30.5 139.833,30.5 144.5,30.5C 150.5,30.5 156.5,30.5 162.5,30.5C 170.5,30.5 178.5,30.5 186.5,30.5C 193.508,30.3337 200.508,30.5004 207.5,31C 209.628,31.6552 211.628,32.4886 213.5,33.5C 214.925,34.922 215.925,36.5887 216.5,38.5C 214.487,36.5026 212.154,34.836 209.5,33.5C 206.754,31.8736 203.754,31.2069 200.5,31.5C 195.833,31.5 191.167,31.5 186.5,31.5C 180.833,31.5 175.167,31.5 169.5,31.5C 156.833,31.5 144.167,31.5 131.5,31.5C 122.167,31.5 112.833,31.5 103.5,31.5C 101.5,31.5 99.5,31.5 97.5,31.5C 92.8333,31.5 88.1667,31.5 83.5,31.5C 78.1667,31.5 72.8333,31.5 67.5,31.5C 62.5,31.5 57.5,31.5 52.5,31.5C 49.1667,31.5 45.8333,31.5 42.5,31.5 Z"/></g>
<g><path style="opacity:1" fill="#fb17a8" d="M 67.5,31.5 C 72.8333,31.5 78.1667,31.5 83.5,31.5C 81.3685,35.8892 78.0351,38.8892 73.5,40.5C 69.5,40.5 65.5,40.5 61.5,40.5C 62.9972,39.6942 64.6639,39.0276 66.5,38.5C 68.0105,36.4912 69.6771,34.6579 71.5,33C 69.9419,32.79 68.6085,32.29 67.5,31.5 Z"/></g>
<g><path style="opacity:1" fill="#14b9fb" d="M 200.5,31.5 C 203.754,31.2069 206.754,31.8736 209.5,33.5C 208.213,36.4532 206.213,38.7865 203.5,40.5C 199.833,40.5 196.167,40.5 192.5,40.5C 195.933,39.601 198.766,37.601 201,34.5C 201.47,33.4232 201.303,32.4232 200.5,31.5 Z"/></g>
<g><path style="opacity:1" fill="#fb1679" d="M 52.5,31.5 C 57.5,31.5 62.5,31.5 67.5,31.5C 68.6085,32.29 69.9419,32.79 71.5,33C 69.6771,34.6579 68.0105,36.4912 66.5,38.5C 64.6639,39.0276 62.9972,39.6942 61.5,40.5C 56.1667,40.5 50.8333,40.5 45.5,40.5C 50.0905,40.0887 53.0905,37.5887 54.5,33C 53.5842,32.7216 52.9175,32.2216 52.5,31.5 Z"/></g>
<g><path style="opacity:1" fill="#f203fd" d="M 97.5,31.5 C 99.5,31.5 101.5,31.5 103.5,31.5C 103.918,32.2216 104.584,32.7216 105.5,33C 103.093,35.1831 100.76,37.3497 98.5,39.5C 96.1667,39.5 93.8333,39.5 91.5,39.5C 90.7611,39.631 90.0944,39.4643 89.5,39C 91.7351,35.9281 94.4018,33.4281 97.5,31.5 Z"/></g>
<g><path style="opacity:1" fill="#3e0fff" d="M 131.5,31.5 C 144.167,31.5 156.833,31.5 169.5,31.5C 171.969,32.3171 174.635,32.8171 177.5,33C 174.967,34.0333 173.301,35.8666 172.5,38.5C 154.512,39.4995 136.512,39.8329 118.5,39.5C 121.865,35.1117 126.198,32.445 131.5,31.5 Z"/></g>
<g><path style="opacity:1" fill="#fa17d3" d="M 83.5,31.5 C 88.1667,31.5 92.8333,31.5 97.5,31.5C 94.4018,33.4281 91.7351,35.9281 89.5,39C 90.0944,39.4643 90.7611,39.631 91.5,39.5C 91.5,39.8333 91.5,40.1667 91.5,40.5C 85.5,40.5 79.5,40.5 73.5,40.5C 78.0351,38.8892 81.3685,35.8892 83.5,31.5 Z"/></g>
<g><path style="opacity:1" fill="#b206ff" d="M 103.5,31.5 C 112.833,31.5 122.167,31.5 131.5,31.5C 126.198,32.445 121.865,35.1117 118.5,39.5C 111.833,39.5 105.167,39.5 98.5,39.5C 100.76,37.3497 103.093,35.1831 105.5,33C 104.584,32.7216 103.918,32.2216 103.5,31.5 Z"/></g>
<g><path style="opacity:1" fill="#fe0832" d="M 42.5,31.5 C 45.8333,31.5 49.1667,31.5 52.5,31.5C 52.9175,32.2216 53.5842,32.7216 54.5,33C 53.0905,37.5887 50.0905,40.0887 45.5,40.5C 42.3013,40.7616 40.3013,42.4283 39.5,45.5C 39.5,45.8333 39.5,46.1667 39.5,46.5C 38.6829,48.9686 38.1829,51.6353 38,54.5C 35.267,57.0625 32.767,59.7291 30.5,62.5C 30.7886,56.4093 30.4553,50.4093 29.5,44.5C 32.8333,39.1667 37.1667,34.8333 42.5,31.5 Z"/></g>
<g><path style="opacity:1" fill="#4e4ef3" d="M 169.5,31.5 C 175.167,31.5 180.833,31.5 186.5,31.5C 187.263,32.2679 188.263,32.7679 189.5,33C 188.044,34.7448 186.711,36.5781 185.5,38.5C 181.687,39.1671 178.021,39.8337 174.5,40.5C 146.833,40.5 119.167,40.5 91.5,40.5C 91.5,40.1667 91.5,39.8333 91.5,39.5C 93.8333,39.5 96.1667,39.5 98.5,39.5C 105.167,39.5 111.833,39.5 118.5,39.5C 136.512,39.8329 154.512,39.4995 172.5,38.5C 173.301,35.8666 174.967,34.0333 177.5,33C 174.635,32.8171 171.969,32.3171 169.5,31.5 Z"/></g>
<g><path style="opacity:1" fill="#2292f8" d="M 186.5,31.5 C 191.167,31.5 195.833,31.5 200.5,31.5C 201.303,32.4232 201.47,33.4232 201,34.5C 198.766,37.601 195.933,39.601 192.5,40.5C 186.5,40.5 180.5,40.5 174.5,40.5C 178.021,39.8337 181.687,39.1671 185.5,38.5C 186.711,36.5781 188.044,34.7448 189.5,33C 188.263,32.7679 187.263,32.2679 186.5,31.5 Z"/></g>
<g><path style="opacity:1" fill="#24e4f8" d="M 209.5,33.5 C 212.154,34.836 214.487,36.5026 216.5,38.5C 216.5,39.1667 216.5,39.8333 216.5,40.5C 210.42,43.2131 207.753,47.8797 208.5,54.5C 208.665,51.1501 208.498,47.8168 208,44.5C 207.208,42.3563 205.708,41.023 203.5,40.5C 206.213,38.7865 208.213,36.4532 209.5,33.5 Z"/></g>
<g><path style="opacity:1" fill="#b9c2c9" d="M 123.5,43.5 C 123.5,44.5 123.5,45.5 123.5,46.5C 122.566,47.5676 122.232,48.901 122.5,50.5C 97.5118,50.6472 71.8451,50.8139 45.5,51C 44.5333,55.4014 44.2,59.9014 44.5,64.5C 43.8333,71.5 43.1667,78.5 42.5,85.5C 42.2022,71.7844 42.5355,58.1177 43.5,44.5C 70.0925,43.5094 96.7592,43.1761 123.5,43.5 Z"/></g>
<g><path style="opacity:1" fill="#bac3ca" d="M 125.5,43.5 C 151.502,43.3334 177.502,43.5 203.5,44C 204.126,44.7504 204.626,45.5838 205,46.5C 205.5,62.1631 205.667,77.8298 205.5,93.5C 204.593,85.0009 203.926,76.3342 203.5,67.5C 203.5,65.5 203.5,63.5 203.5,61.5C 203.5,57.8333 203.5,54.1667 203.5,50.5C 179.132,50.7805 154.132,50.7805 128.5,50.5C 127.364,51.6807 127.031,55.0141 127.5,60.5C 127.5,62.8333 127.5,65.1667 127.5,67.5C 127.5,69.1667 127.5,70.8333 127.5,72.5C 127.5,78.1667 127.5,83.8333 127.5,89.5C 126.629,99.8062 126.296,110.14 126.5,120.5C 125.502,95.0054 125.169,69.3388 125.5,43.5 Z"/></g>
<g><path style="opacity:1" fill="#67fce5" d="M 216.5,40.5 C 217.09,41.766 217.59,43.0993 218,44.5C 218.5,60.8299 218.667,77.1633 218.5,93.5C 217.518,90.0381 217.185,86.3714 217.5,82.5C 217.5,75.1667 217.5,67.8333 217.5,60.5C 217.665,56.8183 217.499,53.1516 217,49.5C 213.934,52.3957 211.101,55.3957 208.5,58.5C 208.5,57.1667 208.5,55.8333 208.5,54.5C 207.753,47.8797 210.42,43.2131 216.5,40.5 Z"/></g>
<g><path style="opacity:0.985" fill="#05c9fe" d="M 213.5,33.5 C 216.056,34.5434 218.223,36.2101 220,38.5C 224.126,42.7795 227.626,47.4462 230.5,52.5C 227.053,56.4032 223.386,60.0698 219.5,63.5C 219.666,56.4921 219.5,49.4921 219,42.5C 218.392,40.9336 217.558,39.6002 216.5,38.5C 215.925,36.5887 214.925,34.922 213.5,33.5 Z"/></g>
<g><path style="opacity:1" fill="#afbbc3" d="M 203.5,61.5 C 178.026,60.6719 152.693,60.3386 127.5,60.5C 127.031,55.0141 127.364,51.6807 128.5,50.5C 154.132,50.7805 179.132,50.7805 203.5,50.5C 203.5,54.1667 203.5,57.8333 203.5,61.5 Z"/></g>
<g><path style="opacity:0.97" fill="#01abff" d="M 230.5,52.5 C 232.853,54.8599 234.853,57.5265 236.5,60.5C 230.171,65.1632 224.504,70.4965 219.5,76.5C 219.5,72.1667 219.5,67.8333 219.5,63.5C 223.386,60.0698 227.053,56.4032 230.5,52.5 Z"/></g>
<g><path style="opacity:1" fill="#afbbc3" d="M 123.5,46.5 C 123.5,49.5 123.5,52.5 123.5,55.5C 122.837,57.0419 122.17,58.7086 121.5,60.5C 120.833,60.8333 120.167,61.1667 119.5,61.5C 94.2091,60.9729 69.5424,60.6395 45.5,60.5C 45.7678,62.099 45.4345,63.4324 44.5,64.5C 44.2,59.9014 44.5333,55.4014 45.5,51C 71.8451,50.8139 97.5118,50.6472 122.5,50.5C 122.232,48.901 122.566,47.5676 123.5,46.5 Z"/></g>
<g><path style="opacity:1" fill="#04fcbe" d="M 217.5,60.5 C 213.663,63.9854 210.663,67.9854 208.5,72.5C 208.5,67.8333 208.5,63.1667 208.5,58.5C 211.101,55.3957 213.934,52.3957 217,49.5C 217.499,53.1516 217.665,56.8183 217.5,60.5 Z"/></g>
<g><path style="opacity:1" fill="#a6b2bb" d="M 123.5,55.5 C 123.5,63.5 123.5,71.5 123.5,79.5C 122.517,83.2984 122.183,87.2984 122.5,91.5C 111.742,92.1284 101.242,91.4618 91,89.5C 90.501,93.8206 90.3343,98.1539 90.5,102.5C 86.6286,102.815 82.9619,102.482 79.5,101.5C 82.8333,101.5 86.1667,101.5 89.5,101.5C 89.5,96.8333 89.5,92.1667 89.5,87.5C 94.1667,87.5 98.8333,87.5 103.5,87.5C 103.5,84.1667 103.5,80.8333 103.5,77.5C 98.8333,77.5 94.1667,77.5 89.5,77.5C 89.5,73.1667 89.5,68.8333 89.5,64.5C 86.1667,64.5 82.8333,64.5 79.5,64.5C 79.5,68.8333 79.5,73.1667 79.5,77.5C 74.8333,77.5 70.1667,77.5 65.5,77.5C 65.5,80.8333 65.5,84.1667 65.5,87.5C 69.8333,87.5 74.1667,87.5 78.5,87.5C 78.5,88.8333 78.5,90.1667 78.5,91.5C 67.5,91.5 56.5,91.5 45.5,91.5C 44.5437,101.133 43.877,110.8 43.5,120.5C 43.1667,120.5 42.8333,120.5 42.5,120.5C 42.5,108.833 42.5,97.1667 42.5,85.5C 43.1667,78.5 43.8333,71.5 44.5,64.5C 45.4345,63.4324 45.7678,62.099 45.5,60.5C 69.5424,60.6395 94.2091,60.9729 119.5,61.5C 120.167,61.1667 120.833,60.8333 121.5,60.5C 122.17,58.7086 122.837,57.0419 123.5,55.5 Z"/></g>
<g><path style="opacity:1" fill="#abb6c0" d="M 127.5,60.5 C 152.693,60.3386 178.026,60.6719 203.5,61.5C 203.5,63.5 203.5,65.5 203.5,67.5C 178.662,68.5088 153.329,68.5088 127.5,67.5C 127.5,65.1667 127.5,62.8333 127.5,60.5 Z"/></g>
<g><path style="opacity:1" fill="#fa1870" d="M 39.5,46.5 C 39.5,51.5 39.5,56.5 39.5,61.5C 37.3003,65.3763 34.3003,68.7096 30.5,71.5C 30.5,68.5 30.5,65.5 30.5,62.5C 32.767,59.7291 35.267,57.0625 38,54.5C 38.1829,51.6353 38.6829,48.9686 39.5,46.5 Z"/></g>
<g><path style="opacity:1" fill="#fafbfb" d="M 79.5,101.5 C 79.8195,96.6367 79.4861,91.97 78.5,87.5C 74.1667,87.5 69.8333,87.5 65.5,87.5C 65.5,84.1667 65.5,80.8333 65.5,77.5C 70.1667,77.5 74.8333,77.5 79.5,77.5C 79.5,73.1667 79.5,68.8333 79.5,64.5C 82.8333,64.5 86.1667,64.5 89.5,64.5C 89.5,68.8333 89.5,73.1667 89.5,77.5C 94.1667,77.5 98.8333,77.5 103.5,77.5C 103.5,80.8333 103.5,84.1667 103.5,87.5C 98.8333,87.5 94.1667,87.5 89.5,87.5C 89.5,92.1667 89.5,96.8333 89.5,101.5C 86.1667,101.5 82.8333,101.5 79.5,101.5 Z"/></g>
<g><path style="opacity:1" fill="#a6b2bc" d="M 127.5,67.5 C 153.329,68.5088 178.662,68.5088 203.5,67.5C 203.926,76.3342 204.593,85.0009 205.5,93.5C 205.5,102.5 205.5,111.5 205.5,120.5C 205.167,120.5 204.833,120.5 204.5,120.5C 204.797,113.08 204.464,105.746 203.5,98.5C 203.5,96.1667 203.5,93.8333 203.5,91.5C 203.5,87.5 203.5,83.5 203.5,79.5C 197.537,80.0454 191.87,79.3787 186.5,77.5C 174.007,76.6691 161.34,76.1691 148.5,76C 152.5,75.6667 156.5,75.3333 160.5,75C 158.167,74.8333 155.833,74.6667 153.5,74.5C 145.613,74.7598 137.446,75.0931 129,75.5C 128.768,74.2625 128.268,73.2625 127.5,72.5C 127.5,70.8333 127.5,69.1667 127.5,67.5 Z"/></g>
<g><path style="opacity:0.99" fill="#0489ff" d="M 236.5,60.5 C 239.025,64.2165 241.025,68.2165 242.5,72.5C 235.248,80.4188 227.581,88.0855 219.5,95.5C 219.5,89.1667 219.5,82.8333 219.5,76.5C 224.504,70.4965 230.171,65.1632 236.5,60.5 Z"/></g>
<g><path style="opacity:0.993" fill="#33ff00" d="M 28.5,45.5 C 28.5,56.5 28.5,67.5 28.5,78.5C 19.8859,88.1247 10.8859,96.7913 1.5,104.5C 5.32636,82.3067 14.3264,62.6401 28.5,45.5 Z"/></g>
<g><path style="opacity:0.977" fill="#016cff" d="M 242.5,72.5 C 244.07,75.3135 245.403,78.3135 246.5,81.5C 237.272,90.3063 228.272,99.3063 219.5,108.5C 219.5,104.167 219.5,99.8333 219.5,95.5C 227.581,88.0855 235.248,80.4188 242.5,72.5 Z"/></g>
<g><path style="opacity:1" fill="#fe0094" d="M 39.5,61.5 C 39.5,64.5 39.5,67.5 39.5,70.5C 38.3975,75.6129 35.3975,79.2796 30.5,81.5C 30.5,78.1667 30.5,74.8333 30.5,71.5C 34.3003,68.7096 37.3003,65.3763 39.5,61.5 Z"/></g>
<g><path style="opacity:1" fill="#08fc7b" d="M 217.5,60.5 C 217.5,67.8333 217.5,75.1667 217.5,82.5C 211.648,84.9946 208.648,89.3279 208.5,95.5C 208.5,87.8333 208.5,80.1667 208.5,72.5C 210.663,67.9854 213.663,63.9854 217.5,60.5 Z"/></g>
<g><path style="opacity:1" fill="#fd00b9" d="M 39.5,70.5 C 39.5,75.1667 39.5,79.8333 39.5,84.5C 36.2327,86.4273 33.2327,88.7606 30.5,91.5C 30.5,88.1667 30.5,84.8333 30.5,81.5C 35.3975,79.2796 38.3975,75.6129 39.5,70.5 Z"/></g>
<g><path style="opacity:1" fill="#9faab4" d="M 127.5,72.5 C 128.268,73.2625 128.768,74.2625 129,75.5C 137.446,75.0931 145.613,74.7598 153.5,74.5C 155.833,74.6667 158.167,74.8333 160.5,75C 156.5,75.3333 152.5,75.6667 148.5,76C 161.34,76.1691 174.007,76.6691 186.5,77.5C 191.87,79.3787 197.537,80.0454 203.5,79.5C 203.5,83.5 203.5,87.5 203.5,91.5C 177.939,92.1428 152.606,91.4761 127.5,89.5C 127.5,83.8333 127.5,78.1667 127.5,72.5 Z"/></g>
<g><path style="opacity:1" fill="#f9fafa" d="M 186.5,77.5 C 186.5,80.8333 186.5,84.1667 186.5,87.5C 173.5,87.5 160.5,87.5 147.5,87.5C 147.5,84.1667 147.5,80.8333 147.5,77.5C 160.5,77.5 173.5,77.5 186.5,77.5 Z"/></g>
<g><path style="opacity:0.981" fill="#08fe17" d="M 28.5,78.5 C 28.5,94.8333 28.5,111.167 28.5,127.5C 19.6718,135.495 11.3384,143.995 3.5,153C 2.90558,153.464 2.23891,153.631 1.5,153.5C 1.19162,149.64 0.52495,145.974 -0.5,142.5C -0.5,132.167 -0.5,121.833 -0.5,111.5C 0.166667,109.167 0.833333,106.833 1.5,104.5C 10.8859,96.7913 19.8859,88.1247 28.5,78.5 Z"/></g>
<g><path style="opacity:0.987" fill="#0153ff" d="M 246.5,81.5 C 247.784,84.4018 248.784,87.4018 249.5,90.5C 239.703,101.152 229.703,111.486 219.5,121.5C 219.5,117.167 219.5,112.833 219.5,108.5C 228.272,99.3063 237.272,90.3063 246.5,81.5 Z"/></g>
<g><path style="opacity:1" fill="#9aa6b0" d="M 127.5,89.5 C 152.606,91.4761 177.939,92.1428 203.5,91.5C 203.5,93.8333 203.5,96.1667 203.5,98.5C 179.352,98.8056 154.519,99.1389 129,99.5C 128.667,98.5 128.333,97.5 128,96.5C 127.502,99.8168 127.335,103.15 127.5,106.5C 127.5,111.167 127.5,115.833 127.5,120.5C 127.167,120.5 126.833,120.5 126.5,120.5C 126.296,110.14 126.629,99.8062 127.5,89.5 Z"/></g>
<g><path style="opacity:1" fill="#fb05e4" d="M 39.5,84.5 C 39.5,90.1667 39.5,95.8333 39.5,101.5C 38.71,100.391 38.21,99.0581 38,97.5C 35.5838,100.423 32.7504,102.757 29.5,104.5C 29.7395,100.158 30.0728,95.8244 30.5,91.5C 33.2327,88.7606 36.2327,86.4273 39.5,84.5 Z"/></g>
<g><path style="opacity:0.998" fill="#003bff" d="M 249.5,90.5 C 250.634,93.3704 251.3,96.3704 251.5,99.5C 251.649,100.552 251.483,101.552 251,102.5C 240.605,113.063 230.105,123.396 219.5,133.5C 219.5,129.5 219.5,125.5 219.5,121.5C 229.703,111.486 239.703,101.152 249.5,90.5 Z"/></g>
<g><path style="opacity:1" fill="#95a1ac" d="M 123.5,79.5 C 123.5,87.8333 123.5,96.1667 123.5,104.5C 122.85,106.447 121.683,108.113 120,109.5C 95.6516,108.503 71.1516,108.17 46.5,108.5C 44.7448,112.278 44.0781,116.278 44.5,120.5C 44.1667,120.5 43.8333,120.5 43.5,120.5C 43.877,110.8 44.5437,101.133 45.5,91.5C 56.5,91.5 67.5,91.5 78.5,91.5C 78.5,90.1667 78.5,88.8333 78.5,87.5C 79.4861,91.97 79.8195,96.6367 79.5,101.5C 82.9619,102.482 86.6286,102.815 90.5,102.5C 90.3343,98.1539 90.501,93.8206 91,89.5C 101.242,91.4618 111.742,92.1284 122.5,91.5C 122.183,87.2984 122.517,83.2984 123.5,79.5 Z"/></g>
<g><path style="opacity:1" fill="#95a1ac" d="M 203.5,98.5 C 204.464,105.746 204.797,113.08 204.5,120.5C 204.167,120.5 203.833,120.5 203.5,120.5C 203.665,116.818 203.499,113.152 203,109.5C 202.586,109.043 202.086,108.709 201.5,108.5C 180.4,109.068 159.066,109.401 137.5,109.5C 133.88,109.1 130.547,108.1 127.5,106.5C 127.335,103.15 127.502,99.8168 128,96.5C 128.333,97.5 128.667,98.5 129,99.5C 154.519,99.1389 179.352,98.8056 203.5,98.5 Z"/></g>
<g><path style="opacity:1" fill="#23fd18" d="M 217.5,82.5 C 217.185,86.3714 217.518,90.0381 218.5,93.5C 218.5,106.5 218.5,119.5 218.5,132.5C 216.516,132.383 214.85,133.05 213.5,134.5C 212.157,136.837 210.49,138.837 208.5,140.5C 208.5,125.5 208.5,110.5 208.5,95.5C 208.648,89.3279 211.648,84.9946 217.5,82.5 Z"/></g>
<g><path style="opacity:1" fill="#d900fe" d="M 39.5,101.5 C 39.5,104.5 39.5,107.5 39.5,110.5C 38.0984,115.919 34.7651,119.919 29.5,122.5C 29.5,116.5 29.5,110.5 29.5,104.5C 32.7504,102.757 35.5838,100.423 38,97.5C 38.21,99.0581 38.71,100.391 39.5,101.5 Z"/></g>
<g><path style="opacity:1" fill="#8e9aa4" d="M 123.5,104.5 C 123.5,109.833 123.5,115.167 123.5,120.5C 97.1667,120.5 70.8333,120.5 44.5,120.5C 44.0781,116.278 44.7448,112.278 46.5,108.5C 71.1516,108.17 95.6516,108.503 120,109.5C 121.683,108.113 122.85,106.447 123.5,104.5 Z"/></g>
<g><path style="opacity:1" fill="#8e9aa4" d="M 127.5,106.5 C 130.547,108.1 133.88,109.1 137.5,109.5C 159.066,109.401 180.4,109.068 201.5,108.5C 202.086,108.709 202.586,109.043 203,109.5C 203.499,113.152 203.665,116.818 203.5,120.5C 178.167,120.5 152.833,120.5 127.5,120.5C 127.5,115.833 127.5,111.167 127.5,106.5 Z"/></g>
<g><path style="opacity:1" fill="#2e2b2c" d="M 45.5,40.5 C 50.8333,40.5 56.1667,40.5 61.5,40.5C 65.5,40.5 69.5,40.5 73.5,40.5C 79.5,40.5 85.5,40.5 91.5,40.5C 119.167,40.5 146.833,40.5 174.5,40.5C 180.5,40.5 186.5,40.5 192.5,40.5C 196.167,40.5 199.833,40.5 203.5,40.5C 205.708,41.023 207.208,42.3563 208,44.5C 208.498,47.8168 208.665,51.1501 208.5,54.5C 208.5,55.8333 208.5,57.1667 208.5,58.5C 208.5,63.1667 208.5,67.8333 208.5,72.5C 208.5,80.1667 208.5,87.8333 208.5,95.5C 208.5,110.5 208.5,125.5 208.5,140.5C 208.5,147.5 208.5,154.5 208.5,161.5C 208.5,167.5 208.5,173.5 208.5,179.5C 208.5,183.5 208.5,187.5 208.5,191.5C 208.666,196.511 208.499,201.511 208,206.5C 207.292,207.381 206.458,208.047 205.5,208.5C 178.661,208.831 151.995,208.498 125.5,207.5C 151.502,207.667 177.502,207.5 203.5,207C 204.126,206.25 204.626,205.416 205,204.5C 205.499,198.509 205.666,192.509 205.5,186.5C 205.5,166.833 205.5,147.167 205.5,127.5C 205.5,126.5 205.5,125.5 205.5,124.5C 205.5,124.167 205.5,123.833 205.5,123.5C 205.5,122.5 205.5,121.5 205.5,120.5C 205.5,111.5 205.5,102.5 205.5,93.5C 205.667,77.8298 205.5,62.1631 205,46.5C 204.626,45.5838 204.126,44.7504 203.5,44C 177.502,43.5 151.502,43.3334 125.5,43.5C 124.833,43.5 124.167,43.5 123.5,43.5C 96.7592,43.1761 70.0925,43.5094 43.5,44.5C 42.1667,44.8333 40.8333,45.1667 39.5,45.5C 40.3013,42.4283 42.3013,40.7616 45.5,40.5 Z"/></g>
<g><path style="opacity:0.998" fill="#0112ff" d="M 251.5,99.5 C 254.018,108.867 255.018,118.534 254.5,128.5C 242.473,139.86 230.806,151.527 219.5,163.5C 219.5,153.5 219.5,143.5 219.5,133.5C 230.105,123.396 240.605,113.063 251,102.5C 251.483,101.552 251.649,100.552 251.5,99.5 Z"/></g>
<g><path style="opacity:1" fill="#59636d" d="M 123.5,43.5 C 124.167,43.5 124.833,43.5 125.5,43.5C 125.169,69.3388 125.502,95.0054 126.5,120.5C 126.833,120.5 127.167,120.5 127.5,120.5C 152.833,120.5 178.167,120.5 203.5,120.5C 203.833,120.5 204.167,120.5 204.5,120.5C 204.833,120.5 205.167,120.5 205.5,120.5C 205.5,121.5 205.5,122.5 205.5,123.5C 178.661,123.169 151.995,123.502 125.5,124.5C 97.8333,124.5 70.1667,124.5 42.5,124.5C 42.5,123.167 42.5,121.833 42.5,120.5C 42.8333,120.5 43.1667,120.5 43.5,120.5C 43.8333,120.5 44.1667,120.5 44.5,120.5C 70.8333,120.5 97.1667,120.5 123.5,120.5C 123.5,115.167 123.5,109.833 123.5,104.5C 123.5,96.1667 123.5,87.8333 123.5,79.5C 123.5,71.5 123.5,63.5 123.5,55.5C 123.5,52.5 123.5,49.5 123.5,46.5C 123.5,45.5 123.5,44.5 123.5,43.5 Z"/></g>
<g><path style="opacity:1" fill="#4a517a" d="M 216.5,38.5 C 217.558,39.6002 218.392,40.9336 219,42.5C 219.5,49.4921 219.666,56.4921 219.5,63.5C 219.5,67.8333 219.5,72.1667 219.5,76.5C 219.5,82.8333 219.5,89.1667 219.5,95.5C 219.5,99.8333 219.5,104.167 219.5,108.5C 219.5,112.833 219.5,117.167 219.5,121.5C 219.5,125.5 219.5,129.5 219.5,133.5C 219.5,143.5 219.5,153.5 219.5,163.5C 219.5,168.5 219.5,173.5 219.5,178.5C 219.5,184.833 219.5,191.167 219.5,197.5C 219.81,200.713 219.477,203.713 218.5,206.5C 218.5,198.833 218.5,191.167 218.5,183.5C 218.5,178.5 218.5,173.5 218.5,168.5C 218.5,162.5 218.5,156.5 218.5,150.5C 218.5,144.5 218.5,138.5 218.5,132.5C 218.5,119.5 218.5,106.5 218.5,93.5C 218.667,77.1633 218.5,60.8299 218,44.5C 217.59,43.0993 217.09,41.766 216.5,40.5C 216.5,39.8333 216.5,39.1667 216.5,38.5 Z"/></g>
<g><path style="opacity:1" fill="#bbc1c7" d="M 42.5,124.5 C 70.1667,124.5 97.8333,124.5 125.5,124.5C 125.5,125.5 125.5,126.5 125.5,127.5C 124.833,127.5 124.167,127.5 123.5,127.5C 96.5,127.5 69.5,127.5 42.5,127.5C 42.5,126.5 42.5,125.5 42.5,124.5 Z"/></g>
<g><path style="opacity:1" fill="#f8cc58" d="M 205.5,124.5 C 205.5,125.5 205.5,126.5 205.5,127.5C 179.5,127.5 153.5,127.5 127.5,127.5C 127.167,127.5 126.833,127.5 126.5,127.5C 126.5,126.5 126.5,125.5 126.5,124.5C 152.833,124.5 179.167,124.5 205.5,124.5 Z"/></g>
<g><path style="opacity:1" fill="#9f00fd" d="M 39.5,110.5 C 39.5,116.5 39.5,122.5 39.5,128.5C 36.8151,132.183 33.4818,135.183 29.5,137.5C 29.5,132.5 29.5,127.5 29.5,122.5C 34.7651,119.919 38.0984,115.919 39.5,110.5 Z"/></g>
<g><path style="opacity:1" fill="#87939c" d="M 42.5,127.5 C 69.5,127.5 96.5,127.5 123.5,127.5C 123.5,127.833 123.5,128.167 123.5,128.5C 122.876,130.834 122.043,133.167 121,135.5C 95.9501,134.933 70.4501,134.933 44.5,135.5C 44.5,138.5 44.5,141.5 44.5,144.5C 44.0141,152.328 43.3475,159.994 42.5,167.5C 42.5,154.167 42.5,140.833 42.5,127.5 Z"/></g>
<g><path style="opacity:1" fill="#f2a01f" d="M 127.5,127.5 C 153.5,127.5 179.5,127.5 205.5,127.5C 205.5,147.167 205.5,166.833 205.5,186.5C 204.678,172.661 204.012,158.661 203.5,144.5C 178.491,144.833 153.491,144.5 128.5,143.5C 127.549,138.23 127.215,132.897 127.5,127.5 Z"/></g>
<g><path style="opacity:0.988" fill="#1500ff" d="M 254.5,128.5 C 254.64,134.536 254.307,140.536 253.5,146.5C 242.058,156.107 231.392,166.607 221.5,178C 220.906,178.464 220.239,178.631 219.5,178.5C 219.5,173.5 219.5,168.5 219.5,163.5C 230.806,151.527 242.473,139.86 254.5,128.5 Z"/></g>
<g><path style="opacity:1" fill="#818d97" d="M 123.5,128.5 C 123.5,130.833 123.5,133.167 123.5,135.5C 122.532,137.607 122.198,139.941 122.5,142.5C 96.2729,141.857 70.2729,142.523 44.5,144.5C 44.5,141.5 44.5,138.5 44.5,135.5C 70.4501,134.933 95.9501,134.933 121,135.5C 122.043,133.167 122.876,130.834 123.5,128.5 Z"/></g>
<g><path style="opacity:0.989" fill="#00fe4e" d="M 28.5,127.5 C 28.5,131.833 28.5,136.167 28.5,140.5C 20.1877,148.146 12.1877,156.146 4.5,164.5C 3.65203,160.773 2.65203,157.107 1.5,153.5C 2.23891,153.631 2.90558,153.464 3.5,153C 11.3384,143.995 19.6718,135.495 28.5,127.5 Z"/></g>
<g><path style="opacity:1" fill="#6c8a72" d="M 29.5,44.5 C 30.4553,50.4093 30.7886,56.4093 30.5,62.5C 30.5,65.5 30.5,68.5 30.5,71.5C 30.5,74.8333 30.5,78.1667 30.5,81.5C 30.5,84.8333 30.5,88.1667 30.5,91.5C 30.0728,95.8244 29.7395,100.158 29.5,104.5C 29.5,110.5 29.5,116.5 29.5,122.5C 29.5,127.5 29.5,132.5 29.5,137.5C 29.256,154.521 29.5894,171.521 30.5,188.5C 30.5,191.167 30.5,193.833 30.5,196.5C 30.6576,199.902 30.3242,203.236 29.5,206.5C 28.5058,196.347 28.1724,186.014 28.5,175.5C 28.5,171.167 28.5,166.833 28.5,162.5C 28.5,155.167 28.5,147.833 28.5,140.5C 28.5,136.167 28.5,131.833 28.5,127.5C 28.5,111.167 28.5,94.8333 28.5,78.5C 28.5,67.5 28.5,56.5 28.5,45.5C 28.5,44.8333 28.8333,44.5 29.5,44.5 Z"/></g>
<g><path style="opacity:1" fill="#7b8790" d="M 123.5,135.5 C 123.5,143.167 123.5,150.833 123.5,158.5C 122.523,161.287 122.19,164.287 122.5,167.5C 113.318,167.173 104.318,167.507 95.5,168.5C 93.7041,167.207 92.0375,165.707 90.5,164C 93.6828,160.985 96.6828,157.818 99.5,154.5C 97.5,151.833 95.1667,149.5 92.5,147.5C 89.1822,150.317 86.0155,153.317 83,156.5C 79.9845,153.317 76.8178,150.317 73.5,147.5C 70.4046,149.589 68.0713,152.256 66.5,155.5C 65.5255,154.365 64.3588,153.365 63,152.5C 57.6932,152.943 52.0266,153.276 46,153.5C 44.2104,170.226 43.0438,186.892 42.5,203.5C 42.5,191.5 42.5,179.5 42.5,167.5C 43.3475,159.994 44.0141,152.328 44.5,144.5C 70.2729,142.523 96.2729,141.857 122.5,142.5C 122.198,139.941 122.532,137.607 123.5,135.5 Z"/></g>
<g><path style="opacity:1" fill="#e9931e" d="M 126.5,127.5 C 126.833,127.5 127.167,127.5 127.5,127.5C 127.215,132.897 127.549,138.23 128.5,143.5C 153.491,144.5 178.491,144.833 203.5,144.5C 204.012,158.661 204.678,172.661 205.5,186.5C 205.666,192.509 205.499,198.509 205,204.5C 204.626,205.416 204.126,206.25 203.5,207C 177.502,207.5 151.502,207.667 125.5,207.5C 125.5,207.167 125.5,206.833 125.5,206.5C 126.498,180.339 126.831,154.005 126.5,127.5 Z"/></g>
<g><path style="opacity:1" fill="#e9ebec" d="M 95.5,168.5 C 96.9599,170.463 98.6266,172.296 100.5,174C 98.2838,176.553 95.7838,178.72 93,180.5C 89.38,177.883 86.0467,174.883 83,171.5C 79.9533,174.883 76.62,177.883 73,180.5C 70.3483,179.015 68.1816,177.015 66.5,174.5C 68.8926,170.598 71.8926,167.098 75.5,164C 72.6306,160.962 69.6306,158.129 66.5,155.5C 68.0713,152.256 70.4046,149.589 73.5,147.5C 76.8178,150.317 79.9845,153.317 83,156.5C 86.0155,153.317 89.1822,150.317 92.5,147.5C 95.1667,149.5 97.5,151.833 99.5,154.5C 96.6828,157.818 93.6828,160.985 90.5,164C 92.0375,165.707 93.7041,167.207 95.5,168.5 Z"/></g>
<g><path style="opacity:0.981" fill="#01fe6c" d="M 28.5,140.5 C 28.5,147.833 28.5,155.167 28.5,162.5C 22.1125,168.221 16.1125,174.221 10.5,180.5C 8.30204,175.239 6.30204,169.906 4.5,164.5C 12.1877,156.146 20.1877,148.146 28.5,140.5 Z"/></g>
<g><path style="opacity:1" fill="#85fc00" d="M 218.5,132.5 C 218.5,138.5 218.5,144.5 218.5,150.5C 213.683,152.976 210.35,156.642 208.5,161.5C 208.5,154.5 208.5,147.5 208.5,140.5C 210.49,138.837 212.157,136.837 213.5,134.5C 214.85,133.05 216.516,132.383 218.5,132.5 Z"/></g>
<g><path style="opacity:1" fill="#fbedde" d="M 185.5,161.5 C 172.833,161.5 160.167,161.5 147.5,161.5C 147.5,159.5 147.5,157.5 147.5,155.5C 147.5,154.5 147.5,153.5 147.5,152.5C 160.167,152.5 172.833,152.5 185.5,152.5C 185.5,155.5 185.5,158.5 185.5,161.5 Z"/></g>
<g><path style="opacity:1" fill="#ef921c" d="M 203.5,165.5 C 178.092,165.823 152.759,165.49 127.5,164.5C 127.5,161.5 127.5,158.5 127.5,155.5C 134.318,155.882 140.984,155.882 147.5,155.5C 147.5,157.5 147.5,159.5 147.5,161.5C 160.167,161.5 172.833,161.5 185.5,161.5C 186.314,159.369 186.814,157.036 187,154.5C 188.667,155.167 190.333,155.833 192,156.5C 195.73,155.54 199.563,155.207 203.5,155.5C 203.5,158.833 203.5,162.167 203.5,165.5 Z"/></g>
<g><path style="opacity:0.984" fill="#3900ff" d="M 253.5,146.5 C 252.237,155.231 249.903,163.565 246.5,171.5C 237.453,180.216 228.453,188.882 219.5,197.5C 219.5,191.167 219.5,184.833 219.5,178.5C 220.239,178.631 220.906,178.464 221.5,178C 231.392,166.607 242.058,156.107 253.5,146.5 Z"/></g>
<g><path style="opacity:1" fill="#3508fe" d="M 39.5,128.5 C 39.5,143.833 39.5,159.167 39.5,174.5C 36.5308,179.146 33.5308,183.813 30.5,188.5C 29.5894,171.521 29.256,154.521 29.5,137.5C 33.4818,135.183 36.8151,132.183 39.5,128.5 Z"/></g>
<g><path style="opacity:1" fill="#727d87" d="M 66.5,155.5 C 69.6306,158.129 72.6306,160.962 75.5,164C 71.8926,167.098 68.8926,170.598 66.5,174.5C 59.3768,174.412 52.0435,174.412 44.5,174.5C 44.5,178.833 44.5,183.167 44.5,187.5C 44.5,190.167 44.5,192.833 44.5,195.5C 44.81,198.713 44.4767,201.713 43.5,204.5C 42.8333,204.5 42.5,204.167 42.5,203.5C 43.0438,186.892 44.2104,170.226 46,153.5C 52.0266,153.276 57.6932,152.943 63,152.5C 64.3588,153.365 65.5255,154.365 66.5,155.5 Z"/></g>
<g><path style="opacity:1" fill="#ccfd00" d="M 218.5,150.5 C 218.5,156.5 218.5,162.5 218.5,168.5C 215.381,172.438 212.048,176.105 208.5,179.5C 208.5,173.5 208.5,167.5 208.5,161.5C 210.35,156.642 213.683,152.976 218.5,150.5 Z"/></g>
<g><path style="opacity:0.987" fill="#01fe92" d="M 28.5,162.5 C 28.5,166.833 28.5,171.167 28.5,175.5C 23.7812,179.89 19.1145,184.223 14.5,188.5C 13.1667,185.833 11.8333,183.167 10.5,180.5C 16.1125,174.221 22.1125,168.221 28.5,162.5 Z"/></g>
<g><path style="opacity:1" fill="#ec891b" d="M 127.5,164.5 C 152.759,165.49 178.092,165.823 203.5,165.5C 203.5,172.167 203.5,178.833 203.5,185.5C 178.167,185.5 152.833,185.5 127.5,185.5C 127.5,178.5 127.5,171.5 127.5,164.5 Z"/></g>
<g><path style="opacity:1" fill="#f8e4d1" d="M 147.5,167.5 C 160.167,167.5 172.833,167.5 185.5,167.5C 185.5,170.5 185.5,173.5 185.5,176.5C 172.833,176.5 160.167,176.5 147.5,176.5C 147.5,173.5 147.5,170.5 147.5,167.5 Z"/></g>
<g><path style="opacity:1" fill="#6b7681" d="M 123.5,158.5 C 123.5,164.833 123.5,171.167 123.5,177.5C 122.532,179.607 122.198,181.941 122.5,184.5C 96.8333,184.5 71.1667,184.5 45.5,184.5C 45.7373,185.791 45.404,186.791 44.5,187.5C 44.5,183.167 44.5,178.833 44.5,174.5C 52.0435,174.412 59.3768,174.412 66.5,174.5C 68.1816,177.015 70.3483,179.015 73,180.5C 76.62,177.883 79.9533,174.883 83,171.5C 86.0467,174.883 89.38,177.883 93,180.5C 95.7838,178.72 98.2838,176.553 100.5,174C 98.6266,172.296 96.9599,170.463 95.5,168.5C 104.318,167.507 113.318,167.173 122.5,167.5C 122.19,164.287 122.523,161.287 123.5,158.5 Z"/></g>
<g><path style="opacity:0.962" fill="#04feaf" d="M 28.5,175.5 C 28.1724,186.014 28.5058,196.347 29.5,206.5C 29.5,207.5 29.5,208.5 29.5,209.5C 23.7761,203.066 18.7761,196.066 14.5,188.5C 19.1145,184.223 23.7812,179.89 28.5,175.5 Z"/></g>
<g><path style="opacity:1" fill="#faf500" d="M 218.5,168.5 C 218.5,173.5 218.5,178.5 218.5,183.5C 217.833,183.5 217.5,183.833 217.5,184.5C 214.767,187.239 211.767,189.573 208.5,191.5C 208.5,187.5 208.5,183.5 208.5,179.5C 212.048,176.105 215.381,172.438 218.5,168.5 Z"/></g>
<g><path style="opacity:1" fill="#013bfd" d="M 39.5,174.5 C 39.5,177.5 39.5,180.5 39.5,183.5C 38.71,184.609 38.21,185.942 38,187.5C 34.8543,190.129 32.3543,193.129 30.5,196.5C 30.5,193.833 30.5,191.167 30.5,188.5C 33.5308,183.813 36.5308,179.146 39.5,174.5 Z"/></g>
<g><path style="opacity:1" fill="#e97f15" d="M 127.5,185.5 C 152.833,185.5 178.167,185.5 203.5,185.5C 203.5,190.167 203.5,194.833 203.5,199.5C 178.747,198.842 153.747,198.509 128.5,198.5C 128.737,197.209 128.404,196.209 127.5,195.5C 127.5,192.167 127.5,188.833 127.5,185.5 Z"/></g>
<g><path style="opacity:1" fill="#646f79" d="M 123.5,177.5 C 123.572,183.545 123.072,189.545 122,195.5C 95.853,194.451 70.0197,194.451 44.5,195.5C 44.5,192.833 44.5,190.167 44.5,187.5C 45.404,186.791 45.7373,185.791 45.5,184.5C 71.1667,184.5 96.8333,184.5 122.5,184.5C 122.198,181.941 122.532,179.607 123.5,177.5 Z"/></g>
<g><path style="opacity:1" fill="#e77b13" d="M 127.5,195.5 C 128.404,196.209 128.737,197.209 128.5,198.5C 153.747,198.509 178.747,198.842 203.5,199.5C 203.5,201.5 203.5,203.5 203.5,205.5C 178.167,205.5 152.833,205.5 127.5,205.5C 127.5,202.167 127.5,198.833 127.5,195.5 Z"/></g>
<g><path style="opacity:1" fill="#5f6972" d="M 123.5,127.5 C 124.167,127.5 124.833,127.5 125.5,127.5C 125.5,153.833 125.5,180.167 125.5,206.5C 125.5,206.833 125.5,207.167 125.5,207.5C 98.8313,207.667 72.1646,207.5 45.5,207C 44.244,206.583 43.5774,205.75 43.5,204.5C 44.4767,201.713 44.81,198.713 44.5,195.5C 70.0197,194.451 95.853,194.451 122,195.5C 123.072,189.545 123.572,183.545 123.5,177.5C 123.5,171.167 123.5,164.833 123.5,158.5C 123.5,150.833 123.5,143.167 123.5,135.5C 123.5,133.167 123.5,130.833 123.5,128.5C 123.5,128.167 123.5,127.833 123.5,127.5 Z"/></g>
<g><path style="opacity:1" fill="#d3b27d" d="M 205.5,123.5 C 205.5,123.833 205.5,124.167 205.5,124.5C 179.167,124.5 152.833,124.5 126.5,124.5C 126.5,125.5 126.5,126.5 126.5,127.5C 126.831,154.005 126.498,180.339 125.5,206.5C 125.5,180.167 125.5,153.833 125.5,127.5C 125.5,126.5 125.5,125.5 125.5,124.5C 151.995,123.502 178.661,123.169 205.5,123.5 Z"/></g>
<g><path style="opacity:1" fill="#0466fd" d="M 39.5,183.5 C 39.5,188.167 39.5,192.833 39.5,197.5C 37.3763,201.887 34.043,204.887 29.5,206.5C 30.3242,203.236 30.6576,199.902 30.5,196.5C 32.3543,193.129 34.8543,190.129 38,187.5C 38.21,185.942 38.71,184.609 39.5,183.5 Z"/></g>
<g><path style="opacity:1" fill="#f2932e" d="M 218.5,183.5 C 218.5,191.167 218.5,198.833 218.5,206.5C 217.463,207.93 216.796,209.597 216.5,211.5C 214.512,216.34 210.845,219.007 205.5,219.5C 204.5,219.5 203.5,219.5 202.5,219.5C 206.38,213.112 211.213,207.446 217,202.5C 217.499,196.509 217.666,190.509 217.5,184.5C 217.5,183.833 217.833,183.5 218.5,183.5 Z"/></g>
<g><path style="opacity:1" fill="#1690f6" d="M 39.5,197.5 C 39.5,200.5 39.5,203.5 39.5,206.5C 39.4142,207.496 39.7476,208.329 40.5,209C 38.9731,211.69 36.9731,213.857 34.5,215.5C 32.863,213.525 31.1964,211.525 29.5,209.5C 29.5,208.5 29.5,207.5 29.5,206.5C 34.043,204.887 37.3763,201.887 39.5,197.5 Z"/></g>
<g><path style="opacity:1" fill="#2a2d29" d="M 43.5,44.5 C 42.5355,58.1177 42.2022,71.7844 42.5,85.5C 42.5,97.1667 42.5,108.833 42.5,120.5C 42.5,121.833 42.5,123.167 42.5,124.5C 42.5,125.5 42.5,126.5 42.5,127.5C 42.5,140.833 42.5,154.167 42.5,167.5C 42.5,179.5 42.5,191.5 42.5,203.5C 42.5,204.167 42.8333,204.5 43.5,204.5C 43.5774,205.75 44.244,206.583 45.5,207C 72.1646,207.5 98.8313,207.667 125.5,207.5C 151.995,208.498 178.661,208.831 205.5,208.5C 203.562,210.163 201.228,210.829 198.5,210.5C 195.5,210.5 192.5,210.5 189.5,210.5C 185.833,210.5 182.167,210.5 178.5,210.5C 173.833,210.5 169.167,210.5 164.5,210.5C 156.167,210.5 147.833,210.5 139.5,210.5C 126.833,210.5 114.167,210.5 101.5,210.5C 96.5,210.5 91.5,210.5 86.5,210.5C 82.5,210.5 78.5,210.5 74.5,210.5C 71.8333,210.5 69.1667,210.5 66.5,210.5C 62.1667,210.5 57.8333,210.5 53.5,210.5C 48.0849,211.396 43.4183,210.063 39.5,206.5C 39.5,203.5 39.5,200.5 39.5,197.5C 39.5,192.833 39.5,188.167 39.5,183.5C 39.5,180.5 39.5,177.5 39.5,174.5C 39.5,159.167 39.5,143.833 39.5,128.5C 39.5,122.5 39.5,116.5 39.5,110.5C 39.5,107.5 39.5,104.5 39.5,101.5C 39.5,95.8333 39.5,90.1667 39.5,84.5C 39.5,79.8333 39.5,75.1667 39.5,70.5C 39.5,67.5 39.5,64.5 39.5,61.5C 39.5,56.5 39.5,51.5 39.5,46.5C 39.5,46.1667 39.5,45.8333 39.5,45.5C 40.8333,45.1667 42.1667,44.8333 43.5,44.5 Z"/></g>
<g><path style="opacity:1" fill="#fcb402" d="M 217.5,184.5 C 217.666,190.509 217.499,196.509 217,202.5C 211.213,207.446 206.38,213.112 202.5,219.5C 198.833,219.5 195.167,219.5 191.5,219.5C 193.451,216.214 195.785,213.214 198.5,210.5C 201.228,210.829 203.562,210.163 205.5,208.5C 206.458,208.047 207.292,207.381 208,206.5C 208.499,201.511 208.666,196.511 208.5,191.5C 211.767,189.573 214.767,187.239 217.5,184.5 Z"/></g>
<g><path style="opacity:1" fill="#c8fe02" d="M 164.5,210.5 C 169.167,210.5 173.833,210.5 178.5,210.5C 176.369,213.712 174.036,216.712 171.5,219.5C 165.5,219.5 159.5,219.5 153.5,219.5C 158.582,218.45 162.249,215.45 164.5,210.5 Z"/></g>
<g><path style="opacity:1" fill="#784f5a" d="M 218.5,206.5 C 218.88,208.698 218.213,210.365 216.5,211.5C 216.796,209.597 217.463,207.93 218.5,206.5 Z"/></g>
<g><path style="opacity:1" fill="#06f9f6" d="M 53.5,210.5 C 57.8333,210.5 62.1667,210.5 66.5,210.5C 64.3082,212.98 61.9749,215.48 59.5,218C 60.056,218.383 60.3893,218.883 60.5,219.5C 55.5,219.5 50.5,219.5 45.5,219.5C 48.874,217.126 51.5407,214.126 53.5,210.5 Z"/></g>
<g><path style="opacity:1" fill="#03fed4" d="M 66.5,210.5 C 69.1667,210.5 71.8333,210.5 74.5,210.5C 70.7086,212.3 68.3752,215.3 67.5,219.5C 65.1667,219.5 62.8333,219.5 60.5,219.5C 60.3893,218.883 60.056,218.383 59.5,218C 61.9749,215.48 64.3082,212.98 66.5,210.5 Z"/></g>
<g><path style="opacity:1" fill="#06fd77" d="M 86.5,210.5 C 91.5,210.5 96.5,210.5 101.5,210.5C 99.5211,213.146 97.1878,215.479 94.5,217.5C 95.6016,218.176 96.6016,218.842 97.5,219.5C 92.1667,219.5 86.8333,219.5 81.5,219.5C 81.0825,218.778 80.4158,218.278 79.5,218C 81.9749,215.48 84.3082,212.98 86.5,210.5 Z"/></g>
<g><path style="opacity:1" fill="#0fc1fb" d="M 39.5,206.5 C 43.4183,210.063 48.0849,211.396 53.5,210.5C 51.5407,214.126 48.874,217.126 45.5,219.5C 41.7794,219.631 38.4461,218.631 35.5,216.5C 34.8333,216.5 34.5,216.167 34.5,215.5C 36.9731,213.857 38.9731,211.69 40.5,209C 39.7476,208.329 39.4142,207.496 39.5,206.5 Z"/></g>
<g><path style="opacity:1" fill="#05fdaa" d="M 74.5,210.5 C 78.5,210.5 82.5,210.5 86.5,210.5C 84.3082,212.98 81.9749,215.48 79.5,218C 80.4158,218.278 81.0825,218.778 81.5,219.5C 76.8333,219.5 72.1667,219.5 67.5,219.5C 68.3752,215.3 70.7086,212.3 74.5,210.5 Z"/></g>
<g><path style="opacity:1" fill="#f4fb03" d="M 178.5,210.5 C 182.167,210.5 185.833,210.5 189.5,210.5C 186.306,213.272 183.306,216.272 180.5,219.5C 177.5,219.5 174.5,219.5 171.5,219.5C 174.036,216.712 176.369,213.712 178.5,210.5 Z"/></g>
<g><path style="opacity:1" fill="#1bfe19" d="M 101.5,210.5 C 114.167,210.5 126.833,210.5 139.5,210.5C 136.453,212.918 134.12,215.918 132.5,219.5C 120.833,219.5 109.167,219.5 97.5,219.5C 96.6016,218.842 95.6016,218.176 94.5,217.5C 97.1878,215.479 99.5211,213.146 101.5,210.5 Z"/></g>
<g><path style="opacity:1" fill="#fdde04" d="M 189.5,210.5 C 192.5,210.5 195.5,210.5 198.5,210.5C 195.785,213.214 193.451,216.214 191.5,219.5C 187.833,219.5 184.167,219.5 180.5,219.5C 183.306,216.272 186.306,213.272 189.5,210.5 Z"/></g>
<g><path style="opacity:1" fill="#71fe01" d="M 139.5,210.5 C 147.833,210.5 156.167,210.5 164.5,210.5C 162.249,215.45 158.582,218.45 153.5,219.5C 146.5,219.5 139.5,219.5 132.5,219.5C 134.12,215.918 136.453,212.918 139.5,210.5 Z"/></g>
<g><path style="opacity:1" fill="#557256" d="M 35.5,216.5 C 38.4461,218.631 41.7794,219.631 45.5,219.5C 50.5,219.5 55.5,219.5 60.5,219.5C 62.8333,219.5 65.1667,219.5 67.5,219.5C 72.1667,219.5 76.8333,219.5 81.5,219.5C 86.8333,219.5 92.1667,219.5 97.5,219.5C 109.167,219.5 120.833,219.5 132.5,219.5C 139.5,219.5 146.5,219.5 153.5,219.5C 159.5,219.5 165.5,219.5 171.5,219.5C 174.5,219.5 177.5,219.5 180.5,219.5C 184.167,219.5 187.833,219.5 191.5,219.5C 195.167,219.5 198.833,219.5 202.5,219.5C 203.5,219.5 204.5,219.5 205.5,219.5C 205.5,219.833 205.5,220.167 205.5,220.5C 184.833,220.5 164.167,220.5 143.5,220.5C 135.833,220.5 128.167,220.5 120.5,220.5C 116.833,220.5 113.167,220.5 109.5,220.5C 103.167,220.5 96.8333,220.5 90.5,220.5C 86.1667,220.5 81.8333,220.5 77.5,220.5C 73.8333,220.5 70.1667,220.5 66.5,220.5C 57.8333,220.5 49.1667,220.5 40.5,220.5C 38.2512,219.92 36.5846,218.587 35.5,216.5 Z"/></g>
<g><path style="opacity:0.981" fill="#05c1fb" d="M 40.5,220.5 C 49.1667,220.5 57.8333,220.5 66.5,220.5C 66.9175,221.222 67.5842,221.722 68.5,222C 64.23,225.761 60.5633,229.928 57.5,234.5C 51.2264,230.559 45.5597,225.892 40.5,220.5 Z"/></g>
<g><path style="opacity:0.979" fill="#03a5fe" d="M 66.5,220.5 C 70.1667,220.5 73.8333,220.5 77.5,220.5C 78.2625,221.268 79.2625,221.768 80.5,222C 75.973,226.527 71.473,231.027 67,235.5C 66.2086,236.745 65.7086,238.078 65.5,239.5C 62.8333,237.833 60.1667,236.167 57.5,234.5C 60.5633,229.928 64.23,225.761 68.5,222C 67.5842,221.722 66.9175,221.222 66.5,220.5 Z"/></g>
<g><path style="opacity:0.988" fill="#0287fe" d="M 77.5,220.5 C 81.8333,220.5 86.1667,220.5 90.5,220.5C 92.2922,221.309 94.2922,221.809 96.5,222C 89.3698,229.146 82.3698,236.312 75.5,243.5C 71.9368,242.718 68.6035,241.384 65.5,239.5C 65.7086,238.078 66.2086,236.745 67,235.5C 71.473,231.027 75.973,226.527 80.5,222C 79.2625,221.768 78.2625,221.268 77.5,220.5 Z"/></g>
<g><path style="opacity:0.991" fill="#016cfe" d="M 90.5,220.5 C 96.8333,220.5 103.167,220.5 109.5,220.5C 101.534,229.801 93.201,238.801 84.5,247.5C 81.0884,246.925 78.0884,245.592 75.5,243.5C 82.3698,236.312 89.3698,229.146 96.5,222C 94.2922,221.809 92.2922,221.309 90.5,220.5 Z"/></g>
<g><path style="opacity:0.999" fill="#0053fe" d="M 109.5,220.5 C 113.167,220.5 116.833,220.5 120.5,220.5C 120.611,221.117 120.944,221.617 121.5,222C 112.824,231.042 104.158,240.042 95.5,249C 94.552,249.483 93.552,249.649 92.5,249.5C 89.6592,249.44 86.9925,248.774 84.5,247.5C 93.201,238.801 101.534,229.801 109.5,220.5 Z"/></g>
<g><path style="opacity:0.989" fill="#003afe" d="M 120.5,220.5 C 128.167,220.5 135.833,220.5 143.5,220.5C 140.695,221.319 137.695,221.819 134.5,222C 124.325,232.008 114.325,242.175 104.5,252.5C 100.239,252.102 96.2393,251.102 92.5,249.5C 93.552,249.649 94.552,249.483 95.5,249C 104.158,240.042 112.824,231.042 121.5,222C 120.944,221.617 120.611,221.117 120.5,220.5 Z"/></g>
<g><path style="opacity:0.996" fill="#0412fd" d="M 143.5,220.5 C 164.167,220.5 184.833,220.5 205.5,220.5C 202.713,221.477 199.713,221.81 196.5,221.5C 190.167,221.5 183.833,221.5 177.5,221.5C 172.489,221.334 167.489,221.501 162.5,222C 151.57,232.426 141.237,243.259 131.5,254.5C 122.368,254.88 113.368,254.214 104.5,252.5C 114.325,242.175 124.325,232.008 134.5,222C 137.695,221.819 140.695,221.319 143.5,220.5 Z"/></g>
<g><path style="opacity:0.977" fill="#1500ff" d="M 177.5,221.5 C 168.202,231.802 158.868,242.135 149.5,252.5C 143.631,253.954 137.631,254.621 131.5,254.5C 141.237,243.259 151.57,232.426 162.5,222C 167.489,221.501 172.489,221.334 177.5,221.5 Z"/></g>
<g><path style="opacity:0.976" fill="#3900ff" d="M 177.5,221.5 C 183.833,221.5 190.167,221.5 196.5,221.5C 188.748,229.246 181.415,237.246 174.5,245.5C 166.57,248.902 158.237,251.235 149.5,252.5C 158.868,242.135 168.202,231.802 177.5,221.5 Z"/></g>
<g><path style="opacity:0.963" fill="#5500fe" d="M 246.5,171.5 C 233.663,207.004 209.663,231.67 174.5,245.5C 181.415,237.246 188.748,229.246 196.5,221.5C 199.713,221.81 202.713,221.477 205.5,220.5C 205.5,220.167 205.5,219.833 205.5,219.5C 210.845,219.007 214.512,216.34 216.5,211.5C 218.213,210.365 218.88,208.698 218.5,206.5C 219.477,203.713 219.81,200.713 219.5,197.5C 228.453,188.882 237.453,180.216 246.5,171.5 Z"/></g>
</svg>
