<?xml version="1.0" encoding="UTF-8"?>
<!DOCTYPE svg PUBLIC "-//W3C//DTD SVG 1.1//EN" "http://www.w3.org/Graphics/SVG/1.1/DTD/svg11.dtd">
<svg xmlns="http://www.w3.org/2000/svg" version="1.1" width="256px" height="256px" style="shape-rendering:geometricPrecision; text-rendering:geometricPrecision; image-rendering:optimizeQuality; fill-rule:evenodd; clip-rule:evenodd" xmlns:xlink="http://www.w3.org/1999/xlink">
<g><path style="opacity:0.894" fill="#fefefe" d="M 36.5,25.5 C 97.1676,25.3333 157.834,25.5 218.5,26C 224,27.5 227.5,31 229,36.5C 229.333,72.5 229.667,108.5 230,144.5C 245.573,175.232 240.74,202.399 215.5,226C 192.471,241.644 168.804,242.977 144.5,230C 108.167,229.667 71.8333,229.333 35.5,229C 31.0256,227.192 27.859,224.026 26,219.5C 25.3333,158.5 25.3333,97.5 26,36.5C 27.6844,30.9845 31.1844,27.3178 36.5,25.5 Z"/></g>
<g><path style="opacity:1" fill="#ffd400" d="M 81.5,31.5 C 84.1667,31.5 86.8333,31.5 89.5,31.5C 78.618,42.3092 67.618,53.1426 56.5,64C 52.614,64.9386 50.4474,67.4386 50,71.5C 43.6891,76.9762 37.5225,82.6429 31.5,88.5C 31.5,85.8333 31.5,83.1667 31.5,80.5C 47.7386,63.7171 64.4053,47.3838 81.5,31.5 Z"/></g>
<g><path style="opacity:1" fill="#14ff18" d="M 167.5,31.5 C 156.164,44.8358 143.831,57.1691 130.5,68.5C 130.5,56.1667 130.5,43.8333 130.5,31.5C 142.833,31.5 155.167,31.5 167.5,31.5 Z"/></g>
<g><path style="opacity:1" fill="#fef400" d="M 89.5,31.5 C 91.5,31.5 93.5,31.5 95.5,31.5C 74.8784,53.1208 53.545,74.1208 31.5,94.5C 31.5,92.5 31.5,90.5 31.5,88.5C 37.5225,82.6429 43.6891,76.9762 50,71.5C 50.4474,67.4386 52.614,64.9386 56.5,64C 67.618,53.1426 78.618,42.3092 89.5,31.5 Z"/></g>
<g><path style="opacity:1" fill="#02feee" d="M 201.5,31.5 C 205.5,31.5 209.5,31.5 213.5,31.5C 200.496,45.5041 186.829,58.8374 172.5,71.5C 170.167,69.8333 168.167,67.8333 166.5,65.5C 172.377,61.03 177.711,55.8633 182.5,50C 183.5,49.6667 184.5,49.3333 185.5,49C 191.033,43.3022 196.367,37.4689 201.5,31.5 Z"/></g>
<g><path style="opacity:1" fill="#ff4700" d="M 59.5,31.5 C 50.4675,40.534 41.1342,49.2007 31.5,57.5C 31.3338,51.1579 31.5005,44.8246 32,38.5C 32.3459,36.1523 33.5125,34.3189 35.5,33C 43.4148,31.5989 51.4148,31.0989 59.5,31.5 Z"/></g>
<g><path style="opacity:1" fill="#ffb900" d="M 71.5,31.5 C 74.8333,31.5 78.1667,31.5 81.5,31.5C 64.4053,47.3838 47.7386,63.7171 31.5,80.5C 31.5,78.1667 31.5,75.8333 31.5,73.5C 43.4635,62.7054 55.2969,51.7054 67,40.5C 68.65,37.5327 70.15,34.5327 71.5,31.5 Z"/></g>
<g><path style="opacity:1" fill="#01fe96" d="M 184.5,31.5 C 187.167,31.5 189.833,31.5 192.5,31.5C 182.061,41.2724 172.061,51.2724 162.5,61.5C 159.715,60.9162 158.048,61.9162 157.5,64.5C 149.729,71.4336 142.062,78.6002 134.5,86C 133.099,86.4101 131.766,86.9101 130.5,87.5C 130.5,86.5 130.5,85.5 130.5,84.5C 141.01,74.7792 151.51,65.1126 162,55.5C 162.333,54.5 162.667,53.5 163,52.5C 170.671,45.9953 177.838,38.9953 184.5,31.5 Z"/></g>
<g><path style="opacity:1" fill="#02caff" d="M 218.5,32.5 C 221.044,33.7079 222.378,35.7079 222.5,38.5C 213.817,46.5883 205.151,54.5883 196.5,62.5C 195.609,61.8902 194.609,61.5569 193.5,61.5C 195.456,58.3753 197.956,55.7087 201,53.5C 201.862,51.913 202.529,50.2464 203,48.5C 208.403,43.3262 213.57,37.9928 218.5,32.5 Z"/></g>
<g><path style="opacity:1" fill="#ff7300" d="M 59.5,31.5 C 61.8333,31.5 64.1667,31.5 66.5,31.5C 63.1684,35.6644 59.335,39.3311 55,42.5C 48.3939,51.6071 40.5606,59.6071 31.5,66.5C 31.5,63.5 31.5,60.5 31.5,57.5C 41.1342,49.2007 50.4675,40.534 59.5,31.5 Z"/></g>
<g><path style="opacity:1" fill="#a3ff00" d="M 113.5,31.5 C 115.167,31.5 116.833,31.5 118.5,31.5C 111.116,39.048 103.949,46.7147 97,54.5C 88.6359,62.0331 80.4692,69.6998 72.5,77.5C 70.1667,77.5 67.8333,77.5 65.5,77.5C 68.2496,74.5685 70.9163,71.4019 73.5,68C 87.5201,56.8236 100.853,44.6569 113.5,31.5 Z"/></g>
<g><path style="opacity:1" fill="#76ff00" d="M 118.5,31.5 C 120.5,31.5 122.5,31.5 124.5,31.5C 124.5,34.8333 124.5,38.1667 124.5,41.5C 110.873,52.7924 97.8732,64.7924 85.5,77.5C 81.1667,77.5 76.8333,77.5 72.5,77.5C 80.4692,69.6998 88.6359,62.0331 97,54.5C 103.949,46.7147 111.116,39.048 118.5,31.5 Z"/></g>
<g><path style="opacity:1" fill="#0eebff" d="M 213.5,31.5 C 215.216,31.6287 216.883,31.962 218.5,32.5C 213.57,37.9928 208.403,43.3262 203,48.5C 202.529,50.2464 201.862,51.913 201,53.5C 197.956,55.7087 195.456,58.3753 193.5,61.5C 188.092,65.4002 183.092,69.9002 178.5,75C 175.696,75.3874 173.696,74.2208 172.5,71.5C 186.829,58.8374 200.496,45.5041 213.5,31.5 Z"/></g>
<g><path style="opacity:1" fill="#beff00" d="M 105.5,31.5 C 108.167,31.5 110.833,31.5 113.5,31.5C 100.853,44.6569 87.5201,56.8236 73.5,68C 70.9163,71.4019 68.2496,74.5685 65.5,77.5C 63.5,77.5 61.5,77.5 59.5,77.5C 64.8182,71.0194 70.9849,65.3528 78,60.5C 79.2899,58.208 80.9565,56.208 83,54.5C 83.4828,53.552 83.6495,52.552 83.5,51.5C 91.6786,45.9987 99.0119,39.3321 105.5,31.5 Z"/></g>
<g><path style="opacity:1" fill="#22ff13" d="M 124.5,41.5 C 124.5,52.1667 124.5,62.8333 124.5,73.5C 119.57,81.5981 113.07,88.2647 105,93.5C 97.4784,103.36 88.8117,112.36 79,120.5C 78.2086,121.745 77.7086,123.078 77.5,124.5C 63.8333,124.5 50.1667,124.5 36.5,124.5C 51.1405,110.861 65.8072,97.1947 80.5,83.5C 87.175,83.6663 93.8417,83.4996 100.5,83C 102.525,81.806 102.859,80.306 101.5,78.5C 96.2079,77.5052 90.8746,77.1718 85.5,77.5C 97.8732,64.7924 110.873,52.7924 124.5,41.5 Z"/></g>
<g><path style="opacity:1" fill="#01aaff" d="M 222.5,38.5 C 223.451,39.9187 223.784,41.5853 223.5,43.5C 220.732,45.0872 218.065,46.9205 215.5,49C 211.854,52.3157 208.521,55.9824 205.5,60C 202.169,60.7939 200.336,62.9605 200,66.5C 193.997,71.3372 188.497,76.6705 183.5,82.5C 181.915,81.9976 181.415,80.9976 182,79.5C 186.667,74.8333 191.333,70.1667 196,65.5C 196.483,64.552 196.649,63.552 196.5,62.5C 205.151,54.5883 213.817,46.5883 222.5,38.5 Z"/></g>
<g><path style="opacity:1" fill="#01fe55" d="M 167.5,31.5 C 171.5,31.5 175.5,31.5 179.5,31.5C 163.443,47.5586 147.11,63.2253 130.5,78.5C 130.5,75.1667 130.5,71.8333 130.5,68.5C 143.831,57.1691 156.164,44.8358 167.5,31.5 Z"/></g>
<g><path style="opacity:0.919" fill="#fefeff" d="M 162.5,61.5 C 163.5,63.1667 164.833,64.5 166.5,65.5C 168.167,67.8333 170.167,69.8333 172.5,71.5C 173.696,74.2208 175.696,75.3874 178.5,75C 183.092,69.9002 188.092,65.4002 193.5,61.5C 194.609,61.5569 195.609,61.8902 196.5,62.5C 196.649,63.552 196.483,64.552 196,65.5C 191.333,70.1667 186.667,74.8333 182,79.5C 181.415,80.9976 181.915,81.9976 183.5,82.5C 183.5,83.1667 183.833,83.5 184.5,83.5C 184.833,84.5 185.5,85.1667 186.5,85.5C 187.5,87.1667 188.833,88.5 190.5,89.5C 190.833,90.5 191.5,91.1667 192.5,91.5C 193.167,92.8333 194.167,93.8333 195.5,94.5C 196.87,98.0512 195.536,99.7179 191.5,99.5C 190.167,97.5 188.5,95.8333 186.5,94.5C 185.833,93.1667 184.833,92.1667 183.5,91.5C 182.833,90.1667 181.833,89.1667 180.5,88.5C 180.167,87.5 179.5,86.8333 178.5,86.5C 178.217,85.7109 177.717,85.0442 177,84.5C 172.167,89.3333 167.333,94.1667 162.5,99C 160.735,99.6397 159.068,99.4731 157.5,98.5C 157.608,96.2166 158.441,94.2166 160,92.5C 164.3,89.2019 168.3,85.5352 172,81.5C 172.585,80.0024 172.085,79.0024 170.5,78.5C 170.5,77.8333 170.167,77.5 169.5,77.5C 168.167,75.5 166.5,73.8333 164.5,72.5C 163.5,70.8333 162.167,69.5 160.5,68.5C 159.5,67.1667 158.5,65.8333 157.5,64.5C 158.048,61.9162 159.715,60.9162 162.5,61.5 Z"/></g>
<g><path style="opacity:1" fill="#02febd" d="M 192.5,31.5 C 195.5,31.5 198.5,31.5 201.5,31.5C 196.367,37.4689 191.033,43.3022 185.5,49C 184.5,49.3333 183.5,49.6667 182.5,50C 177.711,55.8633 172.377,61.03 166.5,65.5C 164.833,64.5 163.5,63.1667 162.5,61.5C 172.061,51.2724 182.061,41.2724 192.5,31.5 Z"/></g>
<g><path style="opacity:1" fill="#ff9b00" d="M 66.5,31.5 C 68.1667,31.5 69.8333,31.5 71.5,31.5C 70.15,34.5327 68.65,37.5327 67,40.5C 55.2969,51.7054 43.4635,62.7054 31.5,73.5C 31.5,71.1667 31.5,68.8333 31.5,66.5C 40.5606,59.6071 48.3939,51.6071 55,42.5C 59.335,39.3311 63.1684,35.6644 66.5,31.5 Z"/></g>
<g><path style="opacity:1" fill="#0086ff" d="M 223.5,47.5 C 223.5,48.5 223.5,49.5 223.5,50.5C 211.522,62.4767 199.188,74.1433 186.5,85.5C 185.5,85.1667 184.833,84.5 184.5,83.5C 197.004,70.7854 210.004,58.7854 223.5,47.5 Z"/></g>
<g><path style="opacity:1" fill="#01fe7e" d="M 179.5,31.5 C 181.167,31.5 182.833,31.5 184.5,31.5C 177.838,38.9953 170.671,45.9953 163,52.5C 162.667,53.5 162.333,54.5 162,55.5C 151.51,65.1126 141.01,74.7792 130.5,84.5C 130.5,82.5 130.5,80.5 130.5,78.5C 147.11,63.2253 163.443,47.5586 179.5,31.5 Z"/></g>
<g><path style="opacity:1" fill="#016bff" d="M 223.5,50.5 C 223.5,53.1667 223.5,55.8333 223.5,58.5C 212.172,68.495 201.172,78.8283 190.5,89.5C 188.833,88.5 187.5,87.1667 186.5,85.5C 199.188,74.1433 211.522,62.4767 223.5,50.5 Z"/></g>
<g><path style="opacity:1" fill="#0097ff" d="M 223.5,43.5 C 223.5,44.8333 223.5,46.1667 223.5,47.5C 210.004,58.7854 197.004,70.7854 184.5,83.5C 183.833,83.5 183.5,83.1667 183.5,82.5C 188.497,76.6705 193.997,71.3372 200,66.5C 200.336,62.9605 202.169,60.7939 205.5,60C 208.521,55.9824 211.854,52.3157 215.5,49C 218.065,46.9205 220.732,45.0872 223.5,43.5 Z"/></g>
<g><path style="opacity:1" fill="#003eff" d="M 223.5,63.5 C 223.5,65.1667 223.5,66.8333 223.5,68.5C 213.814,76.8555 204.48,85.5222 195.5,94.5C 194.167,93.8333 193.167,92.8333 192.5,91.5C 202.859,82.1382 213.192,72.8048 223.5,63.5 Z"/></g>
<g><path style="opacity:1" fill="#0050ff" d="M 223.5,58.5 C 223.5,60.1667 223.5,61.8333 223.5,63.5C 213.192,72.8048 202.859,82.1382 192.5,91.5C 191.5,91.1667 190.833,90.5 190.5,89.5C 201.172,78.8283 212.172,68.495 223.5,58.5 Z"/></g>
<g><path style="opacity:0.875" fill="#fefffe" d="M 59.5,77.5 C 61.5,77.5 63.5,77.5 65.5,77.5C 67.8333,77.5 70.1667,77.5 72.5,77.5C 76.8333,77.5 81.1667,77.5 85.5,77.5C 90.8746,77.1718 96.2079,77.5052 101.5,78.5C 102.859,80.306 102.525,81.806 100.5,83C 93.8417,83.4996 87.175,83.6663 80.5,83.5C 73.8333,83.5 67.1667,83.5 60.5,83.5C 57.5,83.5 54.5,83.5 51.5,83.5C 49.6211,82.0951 49.2878,80.4284 50.5,78.5C 53.4281,77.5159 56.4281,77.1826 59.5,77.5 Z"/></g>
<g><path style="opacity:1" fill="#01ffd9" d="M 160.5,68.5 C 162.167,69.5 163.5,70.8333 164.5,72.5C 154.061,84.6937 142.728,96.027 130.5,106.5C 130.5,104.5 130.5,102.5 130.5,100.5C 140.764,90.2306 150.764,79.5639 160.5,68.5 Z"/></g>
<g><path style="opacity:1" fill="#02feb0" d="M 157.5,64.5 C 158.5,65.8333 159.5,67.1667 160.5,68.5C 150.764,79.5639 140.764,90.2306 130.5,100.5C 130.5,96.1667 130.5,91.8333 130.5,87.5C 131.766,86.9101 133.099,86.4101 134.5,86C 142.062,78.6002 149.729,71.4336 157.5,64.5 Z"/></g>
<g><path style="opacity:1" fill="#e6ff00" d="M 95.5,31.5 C 98.8333,31.5 102.167,31.5 105.5,31.5C 99.0119,39.3321 91.6786,45.9987 83.5,51.5C 83.6495,52.552 83.4828,53.552 83,54.5C 80.9565,56.208 79.2899,58.208 78,60.5C 70.9849,65.3528 64.8182,71.0194 59.5,77.5C 56.4281,77.1826 53.4281,77.5159 50.5,78.5C 49.2878,80.4284 49.6211,82.0951 51.5,83.5C 49.6673,86.0752 47.6673,88.5752 45.5,91C 44.5,91.3333 43.5,91.6667 42.5,92C 39.2995,96.0349 35.6328,99.5349 31.5,102.5C 31.5,99.8333 31.5,97.1667 31.5,94.5C 53.545,74.1208 74.8784,53.1208 95.5,31.5 Z"/></g>
<g><path style="opacity:1" fill="#01fdf5" d="M 164.5,72.5 C 166.5,73.8333 168.167,75.5 169.5,77.5C 165.215,81.1185 161.215,85.1185 157.5,89.5C 154.328,91.9192 150.994,94.0858 147.5,96C 142.599,102.402 136.933,107.902 130.5,112.5C 130.5,110.5 130.5,108.5 130.5,106.5C 142.728,96.027 154.061,84.6937 164.5,72.5 Z"/></g>
<g><path style="opacity:1" fill="#beff00" d="M 51.5,83.5 C 54.5,83.5 57.5,83.5 60.5,83.5C 59.6799,85.1401 58.8466,86.8068 58,88.5C 49.2446,96.7638 40.4112,104.764 31.5,112.5C 31.5,109.167 31.5,105.833 31.5,102.5C 35.6328,99.5349 39.2995,96.0349 42.5,92C 43.5,91.6667 44.5,91.3333 45.5,91C 47.6673,88.5752 49.6673,86.0752 51.5,83.5 Z"/></g>
<g><path style="opacity:1" fill="#01e7ff" d="M 169.5,77.5 C 170.167,77.5 170.5,77.8333 170.5,78.5C 159.805,91.6968 147.805,103.863 134.5,115C 133.099,115.41 131.766,115.91 130.5,116.5C 130.5,115.167 130.5,113.833 130.5,112.5C 136.933,107.902 142.599,102.402 147.5,96C 150.994,94.0858 154.328,91.9192 157.5,89.5C 161.215,85.1185 165.215,81.1185 169.5,77.5 Z"/></g>
<g><path style="opacity:1" fill="#026bff" d="M 183.5,91.5 C 184.833,92.1667 185.833,93.1667 186.5,94.5C 179.14,101.528 171.807,108.528 164.5,115.5C 161.381,116.87 158.048,117.87 154.5,118.5C 163.813,109.189 173.48,100.189 183.5,91.5 Z"/></g>
<g><path style="opacity:1" fill="#1b0aff" d="M 223.5,68.5 C 223.5,77.8333 223.5,87.1667 223.5,96.5C 215.722,104.287 207.722,111.62 199.5,118.5C 191.679,116.188 183.679,114.855 175.5,114.5C 180.807,109.528 186.14,104.528 191.5,99.5C 195.536,99.7179 196.87,98.0512 195.5,94.5C 204.48,85.5222 213.814,76.8555 223.5,68.5 Z"/></g>
<g><path style="opacity:1" fill="#1dd4ff" d="M 170.5,78.5 C 172.085,79.0024 172.585,80.0024 172,81.5C 168.3,85.5352 164.3,89.2019 160,92.5C 158.441,94.2166 157.608,96.2166 157.5,98.5C 148.751,107.255 139.751,115.588 130.5,123.5C 130.5,121.167 130.5,118.833 130.5,116.5C 131.766,115.91 133.099,115.41 134.5,115C 147.805,103.863 159.805,91.6968 170.5,78.5 Z"/></g>
<g><path style="opacity:1" fill="#01fe58" d="M 124.5,73.5 C 124.5,77.8333 124.5,82.1667 124.5,86.5C 119.244,90.4146 114.244,94.748 109.5,99.5C 102.124,108.54 94.1242,116.874 85.5,124.5C 82.8333,124.5 80.1667,124.5 77.5,124.5C 77.7086,123.078 78.2086,121.745 79,120.5C 88.8117,112.36 97.4784,103.36 105,93.5C 113.07,88.2647 119.57,81.5981 124.5,73.5 Z"/></g>
<g><path style="opacity:1" fill="#01fe99" d="M 124.5,92.5 C 124.5,94.1667 124.5,95.8333 124.5,97.5C 120.39,100.437 117.223,104.103 115,108.5C 108.971,113.699 103.138,119.033 97.5,124.5C 95.1667,124.5 92.8333,124.5 90.5,124.5C 101.505,113.495 112.839,102.828 124.5,92.5 Z"/></g>
<g><path style="opacity:1" fill="#04fec1" d="M 124.5,97.5 C 124.5,102.167 124.5,106.833 124.5,111.5C 120.5,115.833 116.5,120.167 112.5,124.5C 107.5,124.5 102.5,124.5 97.5,124.5C 103.138,119.033 108.971,113.699 115,108.5C 117.223,104.103 120.39,100.437 124.5,97.5 Z"/></g>
<g><path style="opacity:1" fill="#0141ff" d="M 186.5,94.5 C 188.5,95.8333 190.167,97.5 191.5,99.5C 186.14,104.528 180.807,109.528 175.5,114.5C 171.865,115.114 168.198,115.448 164.5,115.5C 171.807,108.528 179.14,101.528 186.5,94.5 Z"/></g>
<g><path style="opacity:1" fill="#0998ff" d="M 178.5,86.5 C 179.5,86.8333 180.167,87.5 180.5,88.5C 168.083,100.921 155.416,112.921 142.5,124.5C 138.536,127.963 134.702,131.63 131,135.5C 130.51,134.207 130.343,132.873 130.5,131.5C 133.268,129.913 135.935,128.08 138.5,126C 151.086,112.063 164.419,98.8958 178.5,86.5 Z"/></g>
<g><path style="opacity:1" fill="#6c00ff" d="M 223.5,96.5 C 223.5,102.167 223.5,107.833 223.5,113.5C 218.868,116.798 214.534,120.464 210.5,124.5C 206.638,122.738 202.972,120.738 199.5,118.5C 207.722,111.62 215.722,104.287 223.5,96.5 Z"/></g>
<g><path style="opacity:1" fill="#0a86ff" d="M 180.5,88.5 C 181.833,89.1667 182.833,90.1667 183.5,91.5C 173.48,100.189 163.813,109.189 154.5,118.5C 150.539,120.481 146.539,122.481 142.5,124.5C 155.416,112.921 168.083,100.921 180.5,88.5 Z"/></g>
<g><path style="opacity:1" fill="#79ff00" d="M 60.5,83.5 C 67.1667,83.5 73.8333,83.5 80.5,83.5C 65.8072,97.1947 51.1405,110.861 36.5,124.5C 34.8333,124.5 33.1667,124.5 31.5,124.5C 31.5,120.5 31.5,116.5 31.5,112.5C 40.4112,104.764 49.2446,96.7638 58,88.5C 58.8466,86.8068 59.6799,85.1401 60.5,83.5 Z"/></g>
<g><path style="opacity:1" fill="#00fe80" d="M 124.5,86.5 C 124.5,88.5 124.5,90.5 124.5,92.5C 112.839,102.828 101.505,113.495 90.5,124.5C 88.8333,124.5 87.1667,124.5 85.5,124.5C 94.1242,116.874 102.124,108.54 109.5,99.5C 114.244,94.748 119.244,90.4146 124.5,86.5 Z"/></g>
<g><path style="opacity:1" fill="#ba00ff" d="M 223.5,113.5 C 223.666,120.841 223.5,128.174 223,135.5C 219.233,131.224 215.066,127.557 210.5,124.5C 214.534,120.464 218.868,116.798 223.5,113.5 Z"/></g>
<g><path style="opacity:1" fill="#02fdf4" d="M 124.5,111.5 C 124.5,115.833 124.5,120.167 124.5,124.5C 120.5,124.5 116.5,124.5 112.5,124.5C 116.5,120.167 120.5,115.833 124.5,111.5 Z"/></g>
<g><path style="opacity:1" fill="#02b1ff" d="M 178.5,86.5 C 164.419,98.8958 151.086,112.063 138.5,126C 135.935,128.08 133.268,129.913 130.5,131.5C 130.5,128.833 130.5,126.167 130.5,123.5C 139.751,115.588 148.751,107.255 157.5,98.5C 159.068,99.4731 160.735,99.6397 162.5,99C 167.333,94.1667 172.167,89.3333 177,84.5C 177.717,85.0442 178.217,85.7109 178.5,86.5 Z"/></g>
<g><path style="opacity:1" fill="#00ffe0" d="M 100.5,130.5 C 102.5,130.5 104.5,130.5 106.5,130.5C 97.6991,138.468 89.3658,146.968 81.5,156C 80.9056,156.464 80.2389,156.631 79.5,156.5C 79.634,154.708 79.3007,153.042 78.5,151.5C 83.6428,146.231 89.3095,141.398 95.5,137C 97.7044,135.235 99.3711,133.069 100.5,130.5 Z"/></g>
<g><path style="opacity:1" fill="#04ffad" d="M 87.5,130.5 C 89.8333,130.5 92.1667,130.5 94.5,130.5C 94.631,131.239 94.4643,131.906 94,132.5C 87.5628,138.624 81.0628,144.624 74.5,150.5C 73.6993,152.042 73.366,153.708 73.5,155.5C 67.0877,161.583 60.7543,167.583 54.5,173.5C 51.9368,173.731 50.2702,175.065 49.5,177.5C 43.4914,183.543 37.4914,189.543 31.5,195.5C 31.5,191.833 31.5,188.167 31.5,184.5C 43.0849,174.923 54.4183,164.923 65.5,154.5C 68.9918,151.346 71.8251,147.679 74,143.5C 75.6374,141.19 77.804,139.69 80.5,139C 83.0686,136.274 85.402,133.44 87.5,130.5 Z"/></g>
<g><path style="opacity:1" fill="#01fec8" d="M 94.5,130.5 C 96.5,130.5 98.5,130.5 100.5,130.5C 99.3711,133.069 97.7044,135.235 95.5,137C 89.3095,141.398 83.6428,146.231 78.5,151.5C 77.2921,150.766 75.9587,150.433 74.5,150.5C 81.0628,144.624 87.5628,138.624 94,132.5C 94.4643,131.906 94.631,131.239 94.5,130.5 Z"/></g>
<g><path style="opacity:1" fill="#02faf8" d="M 106.5,130.5 C 109.5,130.5 112.5,130.5 115.5,130.5C 115.244,132.776 113.91,133.943 111.5,134C 100.658,144.675 89.9918,155.508 79.5,166.5C 79.5,163.167 79.5,159.833 79.5,156.5C 80.2389,156.631 80.9056,156.464 81.5,156C 89.3658,146.968 97.6991,138.468 106.5,130.5 Z"/></g>
<g><path style="opacity:1" fill="#13ff14" d="M 65.5,130.5 C 53.8333,141.5 42.5,152.833 31.5,164.5C 31.5,153.167 31.5,141.833 31.5,130.5C 42.8333,130.5 54.1667,130.5 65.5,130.5 Z"/></g>
<g><path style="opacity:1" fill="#0034ff" d="M 169.5,121.5 C 154.784,138.516 138.784,154.182 121.5,168.5C 121.899,164.884 122.899,161.55 124.5,158.5C 136.058,147.608 147.392,136.275 158.5,124.5C 161.854,122.742 165.521,121.742 169.5,121.5 Z"/></g>
<g><path style="opacity:1" fill="#01bfff" d="M 121.5,130.5 C 122.5,130.5 123.5,130.5 124.5,130.5C 124.5,132.5 124.5,134.5 124.5,136.5C 111.167,147.833 98.8333,160.167 87.5,173.5C 84.3019,174.036 81.6353,173.369 79.5,171.5C 93.9745,158.697 107.974,145.03 121.5,130.5 Z"/></g>
<g><path style="opacity:1" fill="#c300ff" d="M 208.5,130.5 C 210.167,131.833 211.833,133.167 213.5,134.5C 213.631,135.239 213.464,135.906 213,136.5C 202.827,146.866 192.66,157.2 182.5,167.5C 179.167,167.5 175.833,167.5 172.5,167.5C 183.905,154.43 195.905,142.097 208.5,130.5 Z"/></g>
<g><path style="opacity:1" fill="#0256ff" d="M 158.5,124.5 C 147.392,136.275 136.058,147.608 124.5,158.5C 130.167,141.5 141.5,130.167 158.5,124.5 Z"/></g>
<g><path style="opacity:0.881" fill="#fefffe" d="M 74.5,150.5 C 75.9587,150.433 77.2921,150.766 78.5,151.5C 79.3007,153.042 79.634,154.708 79.5,156.5C 79.5,159.833 79.5,163.167 79.5,166.5C 79.5,168.167 79.5,169.833 79.5,171.5C 81.6353,173.369 84.3019,174.036 87.5,173.5C 89.1667,173.5 90.8333,173.5 92.5,173.5C 95.6085,173.264 98.6085,173.597 101.5,174.5C 102.728,176.01 102.728,177.51 101.5,179C 98.5184,179.498 95.5184,179.665 92.5,179.5C 88.1667,179.5 83.8333,179.5 79.5,179.5C 79.5,183.5 79.5,187.5 79.5,191.5C 79.7507,194.909 79.4173,198.242 78.5,201.5C 75.8073,203.996 74.1406,203.33 73.5,199.5C 73.5,198.167 73.5,196.833 73.5,195.5C 73.5,193.5 73.5,191.5 73.5,189.5C 73.5,186.833 73.5,184.167 73.5,181.5C 72.4479,179.744 70.7812,179.077 68.5,179.5C 66.5,179.5 64.5,179.5 62.5,179.5C 60.1667,179.5 57.8333,179.5 55.5,179.5C 53.1137,179.741 51.1137,179.075 49.5,177.5C 50.2702,175.065 51.9368,173.731 54.5,173.5C 60.8333,173.5 67.1667,173.5 73.5,173.5C 73.5,167.5 73.5,161.5 73.5,155.5C 73.366,153.708 73.6993,152.042 74.5,150.5 Z"/></g>
<g><path style="opacity:1" fill="#ef00fe" d="M 213.5,134.5 C 216.55,136.549 218.883,139.216 220.5,142.5C 217.067,144.882 214.067,147.715 211.5,151C 204.408,155.589 198.075,161.089 192.5,167.5C 189.167,167.5 185.833,167.5 182.5,167.5C 192.66,157.2 202.827,146.866 213,136.5C 213.464,135.906 213.631,135.239 213.5,134.5 Z"/></g>
<g><path style="opacity:1" fill="#00fe6e" d="M 75.5,130.5 C 77.1667,130.5 78.8333,130.5 80.5,130.5C 64.9102,147.088 48.5769,163.088 31.5,178.5C 31.5,176.167 31.5,173.833 31.5,171.5C 46.795,158.539 61.4617,144.873 75.5,130.5 Z"/></g>
<g><path style="opacity:1" fill="#00fe49" d="M 65.5,130.5 C 68.8333,130.5 72.1667,130.5 75.5,130.5C 61.4617,144.873 46.795,158.539 31.5,171.5C 31.5,169.167 31.5,166.833 31.5,164.5C 42.5,152.833 53.8333,141.5 65.5,130.5 Z"/></g>
<g><path style="opacity:1" fill="#01dbff" d="M 115.5,130.5 C 117.5,130.5 119.5,130.5 121.5,130.5C 107.974,145.03 93.9745,158.697 79.5,171.5C 79.5,169.833 79.5,168.167 79.5,166.5C 89.9918,155.508 100.658,144.675 111.5,134C 113.91,133.943 115.244,132.776 115.5,130.5 Z"/></g>
<g><path style="opacity:1" fill="#2205ff" d="M 195.5,124.5 C 186.365,133.467 177.031,142.3 167.5,151C 157.05,159.436 147.05,168.77 137.5,179C 133.843,181.658 130.509,184.658 127.5,188C 125.922,189.094 124.255,189.928 122.5,190.5C 120.544,183.236 120.211,175.902 121.5,168.5C 138.784,154.182 154.784,138.516 169.5,121.5C 178.54,120.079 187.206,121.079 195.5,124.5 Z"/></g>
<g><path style="opacity:1" fill="#9800ff" d="M 201.5,126.5 C 203.833,127.833 206.167,129.167 208.5,130.5C 195.905,142.097 183.905,154.43 172.5,167.5C 168.833,167.5 165.167,167.5 161.5,167.5C 173.676,154.328 186.676,141.661 200.5,129.5C 201.127,128.583 201.461,127.583 201.5,126.5 Z"/></g>
<g><path style="opacity:1" fill="#01a3ff" d="M 124.5,136.5 C 124.5,137.833 124.5,139.167 124.5,140.5C 114.588,152.081 103.921,163.081 92.5,173.5C 90.8333,173.5 89.1667,173.5 87.5,173.5C 98.8333,160.167 111.167,147.833 124.5,136.5 Z"/></g>
<g><path style="opacity:1" fill="#ff00eb" d="M 220.5,142.5 C 221.906,142.973 222.573,143.973 222.5,145.5C 217.034,149.796 211.701,154.296 206.5,159C 203.901,161.751 201.568,164.584 199.5,167.5C 197.167,167.5 194.833,167.5 192.5,167.5C 198.075,161.089 204.408,155.589 211.5,151C 214.067,147.715 217.067,144.882 220.5,142.5 Z"/></g>
<g><path style="opacity:1" fill="#ff00c3" d="M 222.5,145.5 C 224.326,147.147 225.66,149.147 226.5,151.5C 215.199,161.134 204.532,171.467 194.5,182.5C 190.833,182.5 187.167,182.5 183.5,182.5C 185.853,179.151 188.52,176.151 191.5,173.5C 194.85,173.665 198.183,173.498 201.5,173C 202.167,172.333 202.833,171.667 203.5,171C 202.897,168.929 201.564,167.762 199.5,167.5C 201.568,164.584 203.901,161.751 206.5,159C 211.701,154.296 217.034,149.796 222.5,145.5 Z"/></g>
<g><path style="opacity:1" fill="#01fe89" d="M 80.5,130.5 C 82.8333,130.5 85.1667,130.5 87.5,130.5C 85.402,133.44 83.0686,136.274 80.5,139C 77.804,139.69 75.6374,141.19 74,143.5C 71.8251,147.679 68.9918,151.346 65.5,154.5C 54.4183,164.923 43.0849,174.923 31.5,184.5C 31.5,182.5 31.5,180.5 31.5,178.5C 48.5769,163.088 64.9102,147.088 80.5,130.5 Z"/></g>
<g><path style="opacity:1" fill="#0382ff" d="M 124.5,140.5 C 122.199,146.448 119.865,152.448 117.5,158.5C 111.887,163.446 106.554,168.779 101.5,174.5C 98.6085,173.597 95.6085,173.264 92.5,173.5C 103.921,163.081 114.588,152.081 124.5,140.5 Z"/></g>
<g><path style="opacity:0.879" fill="#fffefe" d="M 161.5,167.5 C 165.167,167.5 168.833,167.5 172.5,167.5C 175.833,167.5 179.167,167.5 182.5,167.5C 185.833,167.5 189.167,167.5 192.5,167.5C 194.833,167.5 197.167,167.5 199.5,167.5C 201.564,167.762 202.897,168.929 203.5,171C 202.833,171.667 202.167,172.333 201.5,173C 198.183,173.498 194.85,173.665 191.5,173.5C 186.167,173.5 180.833,173.5 175.5,173.5C 171.167,173.5 166.833,173.5 162.5,173.5C 161.5,173.5 160.5,173.5 159.5,173.5C 156.813,173.664 154.146,173.497 151.5,173C 150.14,171.062 150.473,169.396 152.5,168C 155.482,167.502 158.482,167.335 161.5,167.5 Z"/></g>
<g><path style="opacity:1" fill="#05fedf" d="M 73.5,155.5 C 73.5,161.5 73.5,167.5 73.5,173.5C 67.1667,173.5 60.8333,173.5 54.5,173.5C 60.7543,167.583 67.0877,161.583 73.5,155.5 Z"/></g>
<g><path style="opacity:1" fill="#ff0099" d="M 226.5,151.5 C 227.736,153.649 228.736,155.982 229.5,158.5C 223.725,163.1 218.059,167.934 212.5,173C 209.975,177.56 206.642,181.393 202.5,184.5C 202.389,183.883 202.056,183.383 201.5,183C 199.19,182.503 196.857,182.337 194.5,182.5C 204.532,171.467 215.199,161.134 226.5,151.5 Z"/></g>
<g><path style="opacity:1" fill="#ff0170" d="M 229.5,158.5 C 230.167,160.167 230.833,161.833 231.5,163.5C 206.735,184.604 183.402,206.937 161.5,230.5C 160.508,230.672 159.842,230.338 159.5,229.5C 172.806,215.527 186.473,201.86 200.5,188.5C 202.762,187.655 203.429,186.322 202.5,184.5C 206.642,181.393 209.975,177.56 212.5,173C 218.059,167.934 223.725,163.1 229.5,158.5 Z"/></g>
<g><path style="opacity:1" fill="#c200ff" d="M 162.5,173.5 C 166.833,173.5 171.167,173.5 175.5,173.5C 173.889,177.051 171.556,180.051 168.5,182.5C 163.5,182.5 158.5,182.5 153.5,182.5C 156.728,179.694 159.728,176.694 162.5,173.5 Z"/></g>
<g><path style="opacity:1" fill="#6500ff" d="M 195.5,124.5 C 197.703,124.604 199.703,125.27 201.5,126.5C 201.461,127.583 201.127,128.583 200.5,129.5C 186.676,141.661 173.676,154.328 161.5,167.5C 158.482,167.335 155.482,167.502 152.5,168C 150.473,169.396 150.14,171.062 151.5,173C 154.146,173.497 156.813,173.664 159.5,173.5C 149.242,184.108 138.575,194.108 127.5,203.5C 125.246,199.407 123.579,195.073 122.5,190.5C 124.255,189.928 125.922,189.094 127.5,188C 130.509,184.658 133.843,181.658 137.5,179C 147.05,168.77 157.05,159.436 167.5,151C 177.031,142.3 186.365,133.467 195.5,124.5 Z"/></g>
<g><path style="opacity:1" fill="#0386ff" d="M 92.5,179.5 C 88.1927,183.472 83.8593,187.472 79.5,191.5C 79.5,187.5 79.5,183.5 79.5,179.5C 83.8333,179.5 88.1667,179.5 92.5,179.5 Z"/></g>
<g><path style="opacity:1" fill="#f600f9" d="M 175.5,173.5 C 180.833,173.5 186.167,173.5 191.5,173.5C 188.52,176.151 185.853,179.151 183.5,182.5C 178.5,182.5 173.5,182.5 168.5,182.5C 171.556,180.051 173.889,177.051 175.5,173.5 Z"/></g>
<g><path style="opacity:0.879" fill="#fffefe" d="M 153.5,182.5 C 158.5,182.5 163.5,182.5 168.5,182.5C 173.5,182.5 178.5,182.5 183.5,182.5C 187.167,182.5 190.833,182.5 194.5,182.5C 196.857,182.337 199.19,182.503 201.5,183C 202.056,183.383 202.389,183.883 202.5,184.5C 203.429,186.322 202.762,187.655 200.5,188.5C 198.833,188.5 197.167,188.5 195.5,188.5C 193.833,188.5 192.167,188.5 190.5,188.5C 187.5,188.5 184.5,188.5 181.5,188.5C 179.833,188.5 178.167,188.5 176.5,188.5C 173.5,188.5 170.5,188.5 167.5,188.5C 162.5,188.5 157.5,188.5 152.5,188.5C 149.811,186.185 150.145,184.185 153.5,182.5 Z"/></g>
<g><path style="opacity:1" fill="#ff0004" d="M 232.5,179.5 C 230.375,204.244 217.708,221.077 194.5,230C 188.654,231.951 182.654,232.785 176.5,232.5C 180.077,229.093 183.077,225.26 185.5,221C 187.49,219.249 189.823,218.249 192.5,218C 206.184,205.363 219.518,192.53 232.5,179.5 Z"/></g>
<g><path style="opacity:1" fill="#01edff" d="M 62.5,179.5 C 64.5,179.5 66.5,179.5 68.5,179.5C 56.4654,191.536 44.1321,203.203 31.5,214.5C 31.5,212.833 31.5,211.167 31.5,209.5C 41.9132,199.418 52.2465,189.418 62.5,179.5 Z"/></g>
<g><path style="opacity:1" fill="#01fef4" d="M 55.5,179.5 C 57.8333,179.5 60.1667,179.5 62.5,179.5C 52.2465,189.418 41.9132,199.418 31.5,209.5C 31.5,207.167 31.5,204.833 31.5,202.5C 40.1329,195.535 48.1329,187.868 55.5,179.5 Z"/></g>
<g><path style="opacity:1" fill="#0038ff" d="M 115.5,168.5 C 115.007,170.806 114.674,173.139 114.5,175.5C 100.699,187.571 87.0321,200.071 73.5,213C 70.3842,216.175 67.7176,219.675 65.5,223.5C 63.8333,223.5 62.1667,223.5 60.5,223.5C 72.2403,212.594 83.407,201.261 94,189.5C 94.3333,188.5 94.6667,187.5 95,186.5C 101.699,180.298 108.532,174.298 115.5,168.5 Z"/></g>
<g><path style="opacity:1" fill="#ff0021" d="M 232.5,173.5 C 232.5,175.5 232.5,177.5 232.5,179.5C 219.518,192.53 206.184,205.363 192.5,218C 189.823,218.249 187.49,219.249 185.5,221C 183.077,225.26 180.077,229.093 176.5,232.5C 175.167,232.5 173.833,232.5 172.5,232.5C 179.774,223.722 188.107,216.222 197.5,210C 208.28,197.052 219.946,184.886 232.5,173.5 Z"/></g>
<g><path style="opacity:1" fill="#01ffdb" d="M 49.5,177.5 C 51.1137,179.075 53.1137,179.741 55.5,179.5C 48.1329,187.868 40.1329,195.535 31.5,202.5C 31.5,200.167 31.5,197.833 31.5,195.5C 37.4914,189.543 43.4914,183.543 49.5,177.5 Z"/></g>
<g><path style="opacity:1" fill="#a900ff" d="M 159.5,173.5 C 160.5,173.5 161.5,173.5 162.5,173.5C 159.728,176.694 156.728,179.694 153.5,182.5C 150.145,184.185 149.811,186.185 152.5,188.5C 146.758,196.631 140.091,203.965 132.5,210.5C 130.6,208.381 128.934,206.047 127.5,203.5C 138.575,194.108 149.242,184.108 159.5,173.5 Z"/></g>
<g><path style="opacity:1" fill="#e300ff" d="M 152.5,188.5 C 157.5,188.5 162.5,188.5 167.5,188.5C 158.058,198.608 148.392,208.275 138.5,217.5C 135.8,215.766 133.8,213.432 132.5,210.5C 140.091,203.965 146.758,196.631 152.5,188.5 Z"/></g>
<g><path style="opacity:1" fill="#fe02ef" d="M 167.5,188.5 C 170.5,188.5 173.5,188.5 176.5,188.5C 173.721,191.456 171.054,194.623 168.5,198C 167.167,198.667 165.833,199.333 164.5,200C 157.65,207.35 150.317,214.183 142.5,220.5C 140.77,219.974 139.436,218.974 138.5,217.5C 148.392,208.275 158.058,198.608 167.5,188.5 Z"/></g>
<g><path style="opacity:1" fill="#ff0080" d="M 195.5,188.5 C 197.167,188.5 198.833,188.5 200.5,188.5C 186.473,201.86 172.806,215.527 159.5,229.5C 157.447,229.598 155.78,228.931 154.5,227.5C 168.436,214.9 182.103,201.9 195.5,188.5 Z"/></g>
<g><path style="opacity:1" fill="#ff0057" d="M 231.5,163.5 C 231.517,165.565 231.85,167.565 232.5,169.5C 224.152,176.015 216.652,183.349 210,191.5C 195.833,205.178 181.666,218.511 167.5,231.5C 165.379,231.675 163.379,231.341 161.5,230.5C 183.402,206.937 206.735,184.604 231.5,163.5 Z"/></g>
<g><path style="opacity:1" fill="#ff00d2" d="M 176.5,188.5 C 178.167,188.5 179.833,188.5 181.5,188.5C 169.807,200.192 158.474,212.192 147.5,224.5C 145.611,223.396 143.945,222.063 142.5,220.5C 150.317,214.183 157.65,207.35 164.5,200C 165.833,199.333 167.167,198.667 168.5,198C 171.054,194.623 173.721,191.456 176.5,188.5 Z"/></g>
<g><path style="opacity:1" fill="#ff00b1" d="M 181.5,188.5 C 184.5,188.5 187.5,188.5 190.5,188.5C 176.764,200.572 163.764,213.239 151.5,226.5C 149.938,226.267 148.605,225.6 147.5,224.5C 158.474,212.192 169.807,200.192 181.5,188.5 Z"/></g>
<g><path style="opacity:1" fill="#02d3ff" d="M 68.5,179.5 C 70.7812,179.077 72.4479,179.744 73.5,181.5C 60.0619,193.201 47.3952,205.701 35.5,219C 34.9056,219.464 34.2389,219.631 33.5,219.5C 32.0687,218.22 31.4021,216.553 31.5,214.5C 44.1321,203.203 56.4654,191.536 68.5,179.5 Z"/></g>
<g><path style="opacity:1" fill="#0357ff" d="M 117.5,158.5 C 116.518,161.763 115.851,165.097 115.5,168.5C 108.532,174.298 101.699,180.298 95,186.5C 94.6667,187.5 94.3333,188.5 94,189.5C 83.407,201.261 72.2403,212.594 60.5,223.5C 56.5,223.5 52.5,223.5 48.5,223.5C 56.8068,215.528 65.1402,207.528 73.5,199.5C 74.1406,203.33 75.8073,203.996 78.5,201.5C 79.4173,198.242 79.7507,194.909 79.5,191.5C 83.8593,187.472 88.1927,183.472 92.5,179.5C 95.5184,179.665 98.5184,179.498 101.5,179C 102.728,177.51 102.728,176.01 101.5,174.5C 106.554,168.779 111.887,163.446 117.5,158.5 Z"/></g>
<g><path style="opacity:1" fill="#3608ff" d="M 114.5,175.5 C 114.513,186.555 117.18,196.888 122.5,206.5C 115.896,211.435 109.896,217.102 104.5,223.5C 91.5,223.5 78.5,223.5 65.5,223.5C 67.7176,219.675 70.3842,216.175 73.5,213C 87.0321,200.071 100.699,187.571 114.5,175.5 Z"/></g>
<g><path style="opacity:1" fill="#ff0037" d="M 232.5,169.5 C 232.5,170.833 232.5,172.167 232.5,173.5C 219.946,184.886 208.28,197.052 197.5,210C 188.107,216.222 179.774,223.722 172.5,232.5C 170.585,232.784 168.919,232.451 167.5,231.5C 181.666,218.511 195.833,205.178 210,191.5C 216.652,183.349 224.152,176.015 232.5,169.5 Z"/></g>
<g><path style="opacity:1" fill="#007fff" d="M 73.5,195.5 C 73.5,196.833 73.5,198.167 73.5,199.5C 65.1402,207.528 56.8068,215.528 48.5,223.5C 46.8333,223.5 45.1667,223.5 43.5,223.5C 53.0873,213.919 63.0873,204.586 73.5,195.5 Z"/></g>
<g><path style="opacity:1" fill="#02b4ff" d="M 73.5,181.5 C 73.5,184.167 73.5,186.833 73.5,189.5C 61.9022,200.1 50.9022,211.433 40.5,223.5C 37.3183,223.416 34.985,222.083 33.5,219.5C 34.2389,219.631 34.9056,219.464 35.5,219C 47.3952,205.701 60.0619,193.201 73.5,181.5 Z"/></g>
<g><path style="opacity:1" fill="#0191ff" d="M 73.5,189.5 C 73.5,191.5 73.5,193.5 73.5,195.5C 63.0873,204.586 53.0873,213.919 43.5,223.5C 42.5,223.5 41.5,223.5 40.5,223.5C 50.9022,211.433 61.9022,200.1 73.5,189.5 Z"/></g>
<g><path style="opacity:1" fill="#c602fe" d="M 125.5,212.5 C 128.602,216.104 131.935,219.604 135.5,223C 128.508,223.5 121.508,223.666 114.5,223.5C 118.386,220.07 122.053,216.403 125.5,212.5 Z"/></g>
<g><path style="opacity:1" fill="#ff0598" d="M 190.5,188.5 C 192.167,188.5 193.833,188.5 195.5,188.5C 182.103,201.9 168.436,214.9 154.5,227.5C 153.209,227.737 152.209,227.404 151.5,226.5C 163.764,213.239 176.764,200.572 190.5,188.5 Z"/></g>
<g><path style="opacity:1" fill="#9900ff" d="M 122.5,206.5 C 123.529,208.517 124.529,210.517 125.5,212.5C 122.053,216.403 118.386,220.07 114.5,223.5C 111.167,223.5 107.833,223.5 104.5,223.5C 109.896,217.102 115.896,211.435 122.5,206.5 Z"/></g>
</svg>
