<?xml version="1.0" encoding="UTF-8"?>
<!DOCTYPE svg PUBLIC "-//W3C//DTD SVG 1.1//EN" "http://www.w3.org/Graphics/SVG/1.1/DTD/svg11.dtd">
<svg xmlns="http://www.w3.org/2000/svg" version="1.1" width="256px" height="256px" style="shape-rendering:geometricPrecision; text-rendering:geometricPrecision; image-rendering:optimizeQuality; fill-rule:evenodd; clip-rule:evenodd" xmlns:xlink="http://www.w3.org/1999/xlink">
<g><path style="opacity:0.244" fill="#223355" d="M -0.5,0.5 C -0.5,0.166667 -0.5,-0.166667 -0.5,-0.5C 84.8333,-0.5 170.167,-0.5 255.5,-0.5C 255.5,84.8333 255.5,170.167 255.5,255.5C 255.167,255.5 254.833,255.5 254.5,255.5C 254.5,170.5 254.5,85.5 254.5,0.5C 169.5,0.5 84.5,0.5 -0.5,0.5 Z"/></g>
<g><path style="opacity:0.004" fill="#223355" d="M -0.5,1.5 C 0.499338,85.9984 0.832671,170.665 0.5,255.5C 0.166667,255.5 -0.166667,255.5 -0.5,255.5C -0.5,170.833 -0.5,86.1667 -0.5,1.5 Z"/></g>
<g><path style="opacity:0.996" fill="#e1771f" d="M 73.5,26.5 C 71.8561,26.2865 70.3561,26.6198 69,27.5C 67.8861,23.5443 67.0527,23.5443 66.5,27.5C 62.8678,25.4354 59.0345,23.7688 55,22.5C 54.5,22.8333 54,23.1667 53.5,23.5C 50.8647,31.0944 47.8647,38.4277 44.5,45.5C 44.631,44.7611 44.4643,44.0944 44,43.5C 43.5017,45.5444 42.335,46.8777 40.5,47.5C 39.8333,47.5 39.5,47.1667 39.5,46.5C 43.1938,37.2704 47.1938,28.1038 51.5,19C 50.6315,17.5354 51.1315,16.3687 53,15.5C 60.2772,18.552 67.1105,22.2187 73.5,26.5 Z"/></g>
<g><path style="opacity:1" fill="#4cdae2" d="M 190.5,18.5 C 190.357,20.2624 190.691,21.9291 191.5,23.5C 191.043,24.2975 190.376,24.6309 189.5,24.5C 189.092,23.3569 188.425,22.3569 187.5,21.5C 182.368,23.5661 177.368,25.8995 172.5,28.5C 172.631,27.7611 172.464,27.0944 172,26.5C 170.384,27.8009 168.884,27.8009 167.5,26.5C 174.881,22.2605 182.548,18.5938 190.5,15.5C 190.5,16.5 190.5,17.5 190.5,18.5 Z"/></g>
<g><path style="opacity:1" fill="#efebea" d="M 66.5,27.5 C 70.4689,29.4844 74.4689,31.4844 78.5,33.5C 87.1932,37.8466 95.8599,42.1799 104.5,46.5C 94.6723,47.1665 84.6723,47.4998 74.5,47.5C 64.1436,47.4986 54.1436,46.8319 44.5,45.5C 47.8647,38.4277 50.8647,31.0944 53.5,23.5C 54,23.1667 54.5,22.8333 55,22.5C 59.0345,23.7688 62.8678,25.4354 66.5,27.5 Z"/></g>
<g><path style="opacity:1" fill="#edebeb" d="M 189.5,24.5 C 190.751,29.8781 192.751,34.8781 195.5,39.5C 196.167,42.1667 196.833,44.8333 197.5,47.5C 177.66,47.8304 157.993,47.4971 138.5,46.5C 149.973,40.4342 161.306,34.4342 172.5,28.5C 177.368,25.8995 182.368,23.5661 187.5,21.5C 188.425,22.3569 189.092,23.3569 189.5,24.5 Z"/></g>
<g><path style="opacity:1" fill="#d5cb25" d="M 73.5,26.5 C 77.7755,27.9711 81.7755,29.9711 85.5,32.5C 83.632,33.7569 81.9653,33.4236 80.5,31.5C 79.4777,31.8555 78.811,32.5222 78.5,33.5C 74.4689,31.4844 70.4689,29.4844 66.5,27.5C 67.0527,23.5443 67.8861,23.5443 69,27.5C 70.3561,26.6198 71.8561,26.2865 73.5,26.5 Z"/></g>
<g><path style="opacity:0.376" fill="#725a37" d="M 92.5,35.5 C 90.302,35.8799 88.6354,35.2132 87.5,33.5C 87.4346,33.0618 87.6012,32.7284 88,32.5C 89.6516,33.3994 91.1516,34.3994 92.5,35.5 Z"/></g>
<g><path style="opacity:1" fill="#5b78d5" d="M 190.5,18.5 C 193.98,24.8276 196.98,31.8276 199.5,39.5C 198.25,39.4226 197.417,38.756 197,37.5C 196.722,38.4158 196.222,39.0825 195.5,39.5C 192.751,34.8781 190.751,29.8781 189.5,24.5C 190.376,24.6309 191.043,24.2975 191.5,23.5C 190.691,21.9291 190.357,20.2624 190.5,18.5 Z"/></g>
<g><path style="opacity:1" fill="#7ae61c" d="M 85.5,32.5 C 86.1667,32.8333 86.8333,33.1667 87.5,33.5C 88.6354,35.2132 90.302,35.8799 92.5,35.5C 99.6608,38.9132 106.661,42.5799 113.5,46.5C 112.036,46.4974 110.369,46.8307 108.5,47.5C 107.333,49.1667 106.167,50.8333 105,52.5C 105.355,51.0406 105.189,49.7072 104.5,48.5C 105.833,47.8333 105.833,47.1667 104.5,46.5C 95.8599,42.1799 87.1932,37.8466 78.5,33.5C 78.811,32.5222 79.4777,31.8555 80.5,31.5C 81.9653,33.4236 83.632,33.7569 85.5,32.5 Z"/></g>
<g><path style="opacity:1" fill="#55db8b" d="M 167.5,26.5 C 168.884,27.8009 170.384,27.8009 172,26.5C 172.464,27.0944 172.631,27.7611 172.5,28.5C 161.306,34.4342 149.973,40.4342 138.5,46.5C 138.167,46.5 137.833,46.5 137.5,46.5C 137.631,45.6236 137.298,44.9569 136.5,44.5C 135.264,45.2458 133.93,45.5792 132.5,45.5C 132.649,46.552 132.483,47.552 132,48.5C 131.329,47.7476 130.496,47.4142 129.5,47.5C 128.833,47.5 128.5,47.1667 128.5,46.5C 141.346,39.5767 154.346,32.91 167.5,26.5 Z"/></g>
<g><path style="opacity:0.98" fill="#c46d16" d="M 114.5,46.5 C 118.833,46.5 123.167,46.5 127.5,46.5C 125.365,48.369 122.698,49.0356 119.5,48.5C 117.219,48.9227 115.552,48.256 114.5,46.5 Z"/></g>
<g><path style="opacity:1" fill="#e5657e" d="M 137.5,46.5 C 137.833,46.5 138.167,46.5 138.5,46.5C 157.993,47.4971 177.66,47.8304 197.5,47.5C 196.791,48.404 195.791,48.7373 194.5,48.5C 193.167,48.5 191.833,48.5 190.5,48.5C 188.833,48.5 187.167,48.5 185.5,48.5C 181.5,48.5 177.5,48.5 173.5,48.5C 171.167,48.5 168.833,48.5 166.5,48.5C 165.5,48.5 164.5,48.5 163.5,48.5C 160.833,48.5 158.167,48.5 155.5,48.5C 154.833,48.5 154.167,48.5 153.5,48.5C 151.167,48.5 148.833,48.5 146.5,48.5C 145.5,48.5 144.5,48.5 143.5,48.5C 141.5,48.5 139.5,48.5 137.5,48.5C 137.167,48.5 136.833,48.5 136.5,48.5C 136.833,47.8333 137.167,47.1667 137.5,46.5 Z"/></g>
<g><path style="opacity:0.98" fill="#b8125a" d="M 201.5,45.5 C 208.087,46.2953 214.754,46.7953 221.5,47C 222.942,47.3768 223.942,48.2101 224.5,49.5C 223.833,49.5 223.167,49.5 222.5,49.5C 221.833,49.1667 221.167,48.8333 220.5,48.5C 219.5,48.5 218.5,48.5 217.5,48.5C 212.5,48.5 207.5,48.5 202.5,48.5C 201.596,47.791 201.263,46.791 201.5,45.5 Z"/></g>
<g><path style="opacity:1" fill="#0819fe" d="M 202.5,48.5 C 207.5,48.5 212.5,48.5 217.5,48.5C 215.782,49.224 213.948,49.8906 212,50.5C 200.667,68.5 189.333,86.5 178,104.5C 177.329,105.252 176.496,105.586 175.5,105.5C 175.385,103.053 174.385,101.053 172.5,99.5C 172.728,96.4584 172.228,94.4584 171,93.5C 177.58,86.0181 182.913,77.6848 187,68.5C 189.911,64.4708 193.244,60.8042 197,57.5C 198.844,54.4721 200.678,51.4721 202.5,48.5 Z"/></g>
<g><path style="opacity:1" fill="#05fe3b" d="M 127.5,46.5 C 127.833,46.5 128.167,46.5 128.5,46.5C 128.5,47.1667 128.833,47.5 129.5,47.5C 125.008,55.8476 119.841,63.8476 114,71.5C 109.624,75.8908 105.958,80.8908 103,86.5C 102,87.1667 101,87.8333 100,88.5C 99.3333,91.1667 98.6667,93.8333 98,96.5C 96.6703,97.5822 95.1703,98.2488 93.5,98.5C 91.5,96.1667 89.5,93.8333 87.5,91.5C 89.2624,91.6427 90.9291,91.3094 92.5,90.5C 94.9018,86.2689 98.0685,82.9356 102,80.5C 104.889,76.9442 106.889,72.9442 108,68.5C 113.087,64.3252 116.087,58.9919 117,52.5C 118.095,51.3066 118.928,49.9733 119.5,48.5C 122.698,49.0356 125.365,48.369 127.5,46.5 Z"/></g>
<g><path style="opacity:1" fill="#ffb500" d="M 51.5,48.5 C 50.6266,51.5766 48.7932,53.91 46,55.5C 42.8355,63.8383 38.1688,71.1717 32,77.5C 30.7246,79.7173 29.7246,82.0506 29,84.5C 20.7556,92.4333 14.4223,101.767 10,112.5C 8.61813,115.043 6.7848,117.043 4.5,118.5C 2.9324,111.305 5.09907,105.638 11,101.5C 11.3333,100.167 11.6667,98.8333 12,97.5C 15.4251,93.0813 18.4251,88.4146 21,83.5C 23.3333,81.1667 25.6667,78.8333 28,76.5C 32.8302,67.6717 38.3302,59.3384 44.5,51.5C 46.2585,49.2623 48.5918,48.2623 51.5,48.5 Z"/></g>
<g><path style="opacity:1" fill="#05ebfe" d="M 163.5,48.5 C 164.5,48.5 165.5,48.5 166.5,48.5C 165.268,52.7281 163.435,56.7281 161,60.5C 145.342,83.5858 130.509,106.919 116.5,130.5C 115.84,139.198 111.506,142.865 103.5,141.5C 123.68,110.857 143.68,79.8568 163.5,48.5 Z"/></g>
<g><path style="opacity:1" fill="#035dfe" d="M 190.5,48.5 C 191.833,48.5 193.167,48.5 194.5,48.5C 191.19,54.3046 187.69,59.9713 184,65.5C 183.835,69.175 182.168,71.8416 179,73.5C 178.242,77.3565 176.242,80.3565 173,82.5C 172.233,86.8369 170.733,90.8369 168.5,94.5C 167.167,93.8333 166.167,92.8333 165.5,91.5C 170.521,84.1236 175.021,76.457 179,68.5C 180.397,63.3705 183.064,59.0372 187,55.5C 188.268,53.1875 189.435,50.8542 190.5,48.5 Z"/></g>
<g><path style="opacity:1" fill="#1346fd" d="M 199.5,39.5 C 200.363,41.4214 201.029,43.4214 201.5,45.5C 201.263,46.791 201.596,47.791 202.5,48.5C 200.678,51.4721 198.844,54.4721 197,57.5C 193.244,60.8042 189.911,64.4708 187,68.5C 182.913,77.6848 177.58,86.0181 171,93.5C 172.228,94.4584 172.728,96.4584 172.5,99.5C 170.937,98.0552 169.604,96.3885 168.5,94.5C 170.733,90.8369 172.233,86.8369 173,82.5C 176.242,80.3565 178.242,77.3565 179,73.5C 182.168,71.8416 183.835,69.175 184,65.5C 187.69,59.9713 191.19,54.3046 194.5,48.5C 195.791,48.7373 196.791,48.404 197.5,47.5C 196.833,44.8333 196.167,42.1667 195.5,39.5C 196.222,39.0825 196.722,38.4158 197,37.5C 197.417,38.756 198.25,39.4226 199.5,39.5 Z"/></g>
<g><path style="opacity:1" fill="#f58e14" d="M 44.5,45.5 C 54.1436,46.8319 64.1436,47.4986 74.5,47.5C 84.6723,47.4998 94.6723,47.1665 104.5,46.5C 105.833,47.1667 105.833,47.8333 104.5,48.5C 101.167,48.5 97.8333,48.5 94.5,48.5C 93.8333,48.5 93.1667,48.5 92.5,48.5C 91.5,48.5 90.5,48.5 89.5,48.5C 87.5,48.5 85.5,48.5 83.5,48.5C 82.8333,48.5 82.1667,48.5 81.5,48.5C 79.5,48.5 77.5,48.5 75.5,48.5C 72.8333,48.5 70.1667,48.5 67.5,48.5C 65.5,48.5 63.5,48.5 61.5,48.5C 58.8333,48.5 56.1667,48.5 53.5,48.5C 52.8333,48.5 52.1667,48.5 51.5,48.5C 48.5918,48.2623 46.2585,49.2623 44.5,51.5C 38.3302,59.3384 32.8302,67.6717 28,76.5C 25.6667,78.8333 23.3333,81.1667 21,83.5C 18.4251,88.4146 15.4251,93.0813 12,97.5C 11.6667,98.8333 11.3333,100.167 11,101.5C 5.09907,105.638 2.9324,111.305 4.5,118.5C 4.72137,121.279 4.38803,123.946 3.5,126.5C 2.25699,119.308 2.25699,111.975 3.5,104.5C 7.31925,100.21 10.1526,95.2101 12,89.5C 14.473,86.6054 17.1396,83.9387 20,81.5C 23.0691,76.751 25.7358,71.751 28,66.5C 30.4018,63.7214 32.9018,61.0547 35.5,58.5C 36.9438,54.6206 38.6105,50.9539 40.5,47.5C 42.335,46.8777 43.5017,45.5444 44,43.5C 44.4643,44.0944 44.631,44.7611 44.5,45.5 Z"/></g>
<g><path style="opacity:1" fill="#13a6fe" d="M 173.5,48.5 C 177.5,48.5 181.5,48.5 185.5,48.5C 176.824,60.5261 168.491,72.8595 160.5,85.5C 159.102,83.8912 157.435,83.0579 155.5,83C 151.968,87.3602 148.301,91.5268 144.5,95.5C 144.953,92.537 146.453,90.2037 149,88.5C 150.473,84.2211 152.473,80.2211 155,76.5C 158,74.1667 160.667,71.5 163,68.5C 166.258,61.6487 169.758,54.982 173.5,48.5 Z"/></g>
<g><path style="opacity:1" fill="#f5530a" d="M 34.5,46.5 C 33.7538,49.8267 31.7538,51.9934 28.5,53C 23.6589,60.8492 19.4923,69.0159 16,77.5C 11.1171,81.5261 7.2838,86.1927 4.5,91.5C 5.95988,81.6176 9.29321,72.451 14.5,64C 14.1667,63.6667 13.8333,63.3333 13.5,63C 17.5222,57.9803 21.8555,53.3136 26.5,49C 29.022,47.6591 31.6887,46.8257 34.5,46.5 Z"/></g>
<g><path style="opacity:1" fill="#0876fe" d="M 185.5,48.5 C 187.167,48.5 188.833,48.5 190.5,48.5C 189.435,50.8542 188.268,53.1875 187,55.5C 183.064,59.0372 180.397,63.3705 179,68.5C 175.021,76.457 170.521,84.1236 165.5,91.5C 163.844,89.5398 162.177,87.5398 160.5,85.5C 168.491,72.8595 176.824,60.5261 185.5,48.5 Z"/></g>
<g><path style="opacity:1" fill="#fc7602" d="M 34.5,46.5 C 36.1667,46.5 37.8333,46.5 39.5,46.5C 39.5,47.1667 39.8333,47.5 40.5,47.5C 38.6105,50.9539 36.9438,54.6206 35.5,58.5C 32.9018,61.0547 30.4018,63.7214 28,66.5C 25.7358,71.751 23.0691,76.751 20,81.5C 17.1396,83.9387 14.473,86.6054 12,89.5C 10.1526,95.2101 7.31925,100.21 3.5,104.5C 3.92719,100.176 4.26052,95.8422 4.5,91.5C 7.2838,86.1927 11.1171,81.5261 16,77.5C 19.4923,69.0159 23.6589,60.8492 28.5,53C 31.7538,51.9934 33.7538,49.8267 34.5,46.5 Z"/></g>
<g><path style="opacity:1" fill="#75ff00" d="M 89.5,48.5 C 90.5,48.5 91.5,48.5 92.5,48.5C 88.2614,54.6194 83.7614,60.6194 79,66.5C 77.2066,71.9112 74.2066,76.5779 70,80.5C 62.0427,94.1138 53.376,107.114 44,119.5C 43.0124,122.424 42.3457,125.424 42,128.5C 34.8121,140.226 27.1454,151.559 19,162.5C 18.3292,163.252 17.4959,163.586 16.5,163.5C 14.965,164.354 13.6316,164.354 12.5,163.5C 14.6435,160.878 15.9769,157.878 16.5,154.5C 21.895,152.928 25.0616,149.261 26,143.5C 29.2287,137.602 33.2287,132.269 38,127.5C 39.8247,124.689 41.158,121.689 42,118.5C 44.3333,117.5 46,115.833 47,113.5C 50.2245,105.004 54.8912,97.6705 61,91.5C 67.2235,82.07 73.2235,72.4033 79,62.5C 81.6667,59.8333 84.3333,57.1667 87,54.5C 88.122,52.5932 88.9553,50.5932 89.5,48.5 Z"/></g>
<g><path style="opacity:1" fill="#22fe07" d="M 113.5,46.5 C 113.833,46.5 114.167,46.5 114.5,46.5C 115.552,48.256 117.219,48.9227 119.5,48.5C 118.928,49.9733 118.095,51.3066 117,52.5C 116.087,58.9919 113.087,64.3252 108,68.5C 106.889,72.9442 104.889,76.9442 102,80.5C 98.0685,82.9356 94.9018,86.2689 92.5,90.5C 90.9291,91.3094 89.2624,91.6427 87.5,91.5C 84.8046,88.4744 82.1379,85.4744 79.5,82.5C 78.5159,78.5353 77.5159,78.5353 76.5,82.5C 75.3861,81.277 75.2195,79.9437 76,78.5C 81.9363,68.2811 88.103,58.2811 94.5,48.5C 97.8333,48.5 101.167,48.5 104.5,48.5C 105.189,49.7072 105.355,51.0406 105,52.5C 106.167,50.8333 107.333,49.1667 108.5,47.5C 110.369,46.8307 112.036,46.4974 113.5,46.5 Z"/></g>
<g><path style="opacity:1" fill="#0afe60" d="M 137.5,46.5 C 137.167,47.1667 136.833,47.8333 136.5,48.5C 124.412,63.2779 113.245,78.9446 103,95.5C 102.753,99.2321 100.919,101.565 97.5,102.5C 95.8333,101.5 94.5,100.167 93.5,98.5C 95.1703,98.2488 96.6703,97.5822 98,96.5C 98.6667,93.8333 99.3333,91.1667 100,88.5C 101,87.8333 102,87.1667 103,86.5C 105.958,80.8908 109.624,75.8908 114,71.5C 119.841,63.8476 125.008,55.8476 129.5,47.5C 130.496,47.4142 131.329,47.7476 132,48.5C 132.483,47.552 132.649,46.552 132.5,45.5C 133.93,45.5792 135.264,45.2458 136.5,44.5C 137.298,44.9569 137.631,45.6236 137.5,46.5 Z"/></g>
<g><path style="opacity:1" fill="#5700fe" d="M 222.5,49.5 C 223.167,49.5 223.833,49.5 224.5,49.5C 224.5,54.5 224.5,59.5 224.5,64.5C 220.201,67.7368 217.367,72.0702 216,77.5C 208.062,87.051 201.395,97.3843 196,108.5C 188.708,118.954 180.875,128.954 172.5,138.5C 169.665,144.532 166.831,150.532 164,156.5C 160.537,160.065 157.537,164.065 155,168.5C 152.571,169.029 150.738,170.363 149.5,172.5C 146.892,176.719 144.558,181.052 142.5,185.5C 141.167,185.5 139.833,185.5 138.5,185.5C 142.416,180.678 145.582,175.344 148,169.5C 154.336,162.84 159.169,155.173 162.5,146.5C 168.41,142.044 172.91,136.378 176,129.5C 182.279,121.839 186.946,113.172 190,103.5C 194.3,96.871 198.967,90.5376 204,84.5C 207.227,77.5941 211.227,71.2607 216,65.5C 216.274,60.0685 218.774,56.0685 223.5,53.5C 221.42,52.4718 221.086,51.1385 222.5,49.5 Z"/></g>
<g><path style="opacity:1" fill="#f0fe00" d="M 61.5,48.5 C 63.5,48.5 65.5,48.5 67.5,48.5C 65.2581,54.6481 61.7581,59.9815 57,64.5C 51.6748,71.4841 47.6748,79.1508 45,87.5C 42.7548,89.6227 40.7548,91.9561 39,94.5C 36.0568,101.99 32.7234,109.323 29,116.5C 27.114,117.93 25.4473,119.597 24,121.5C 18.9785,130.69 13.8118,139.69 8.5,148.5C 7.83333,148.5 7.16667,148.5 6.5,148.5C 8.26077,144.944 8.5941,141.277 7.5,137.5C 5.63397,138.563 5.13397,137.896 6,135.5C 18.4599,115.55 31.1265,95.8829 44,76.5C 49.9164,67.3748 55.7497,58.0415 61.5,48.5 Z"/></g>
<g><path style="opacity:1" fill="#ecded2" d="M 79.5,82.5 C 82.1379,85.4744 84.8046,88.4744 87.5,91.5C 89.5,93.8333 91.5,96.1667 93.5,98.5C 94.5,100.167 95.8333,101.5 97.5,102.5C 98.2923,104.756 97.2923,106.09 94.5,106.5C 93.9744,104.77 92.9744,103.436 91.5,102.5C 90.8333,101.167 89.8333,100.167 88.5,99.5C 87.2993,97.0905 85.6326,95.0905 83.5,93.5C 82.5213,91.8546 81.188,90.5213 79.5,89.5C 78.4777,89.8555 77.811,90.5222 77.5,91.5C 72.5,96.8333 67.5,102.167 62.5,107.5C 60.8872,106.162 60.3872,104.495 61,102.5C 67.0328,95.6368 73.1995,88.9701 79.5,82.5 Z"/></g>
<g><path style="opacity:1" fill="#ecd7df" d="M 160.5,85.5 C 162.177,87.5398 163.844,89.5398 165.5,91.5C 166.167,92.8333 167.167,93.8333 168.5,94.5C 169.604,96.3885 170.937,98.0552 172.5,99.5C 174.385,101.053 175.385,103.053 175.5,105.5C 174.609,106.11 173.609,106.443 172.5,106.5C 171.167,104.833 169.833,103.167 168.5,101.5C 168.5,100.833 168.167,100.5 167.5,100.5C 165.5,98.1667 163.5,95.8333 161.5,93.5C 160.833,92.1667 159.833,91.1667 158.5,90.5C 158.217,89.7109 157.717,89.0442 157,88.5C 154,92.1667 151,95.8333 148,99.5C 145.564,102.447 142.731,104.78 139.5,106.5C 139.5,105.833 139.167,105.5 138.5,105.5C 139.967,101.907 141.967,98.5738 144.5,95.5C 148.301,91.5268 151.968,87.3602 155.5,83C 157.435,83.0579 159.102,83.8912 160.5,85.5 Z"/></g>
<g><path style="opacity:1" fill="#fae506" d="M 53.5,48.5 C 56.1667,48.5 58.8333,48.5 61.5,48.5C 55.7497,58.0415 49.9164,67.3748 44,76.5C 31.1265,95.8829 18.4599,115.55 6,135.5C 5.13397,137.896 5.63397,138.563 7.5,137.5C 8.5941,141.277 8.26077,144.944 6.5,148.5C 4.82273,144.455 4.15606,140.122 4.5,135.5C 5.36699,128.757 8.20032,122.757 13,117.5C 13.9734,115.608 14.6401,113.608 15,111.5C 23.0613,99.768 30.728,87.768 38,75.5C 40.3333,74.5 42,72.8333 43,70.5C 46.7842,63.2663 50.2842,55.933 53.5,48.5 Z"/></g>
<g><path style="opacity:1" fill="#01fec5" d="M 146.5,48.5 C 148.833,48.5 151.167,48.5 153.5,48.5C 149.879,55.0663 146.212,61.7329 142.5,68.5C 137.042,72.0663 133.542,77.0663 132,83.5C 124.622,93.2153 117.622,103.215 111,113.5C 110.498,116.513 109.998,119.513 109.5,122.5C 108.5,122.5 107.5,122.5 106.5,122.5C 105.412,128.041 102.412,132.041 97.5,134.5C 97.1667,134.5 96.8333,134.5 96.5,134.5C 99.4148,129.748 101.748,124.748 103.5,119.5C 106.292,119.548 108.125,118.215 109,115.5C 110.773,111.618 112.273,107.618 113.5,103.5C 114.693,99.7758 116.859,96.7758 120,94.5C 129.309,79.3634 138.143,64.0301 146.5,48.5 Z"/></g>
<g><path style="opacity:1" fill="#02fe12" d="M 83.5,93.5 C 85.6326,95.0905 87.2993,97.0905 88.5,99.5C 87.1391,104.278 85.4724,108.944 83.5,113.5C 81.6916,113.491 80.0249,113.991 78.5,115C 74.4533,120.258 70.2866,125.425 66,130.5C 63.6228,134.29 61.6228,138.29 60,142.5C 54.8157,150.879 49.149,158.879 43,166.5C 41.5894,169.579 40.0894,172.579 38.5,175.5C 35.1648,178.179 31.8315,180.845 28.5,183.5C 27.2613,183.058 26.2613,182.391 25.5,181.5C 44.38,153.433 62.7133,124.933 80.5,96C 81.1301,94.6898 82.1301,93.8565 83.5,93.5 Z"/></g>
<g><path style="opacity:1" fill="#88fe00" d="M 83.5,48.5 C 85.5,48.5 87.5,48.5 89.5,48.5C 88.9553,50.5932 88.122,52.5932 87,54.5C 84.3333,57.1667 81.6667,59.8333 79,62.5C 73.2235,72.4033 67.2235,82.07 61,91.5C 54.8912,97.6705 50.2245,105.004 47,113.5C 46,115.833 44.3333,117.5 42,118.5C 41.158,121.689 39.8247,124.689 38,127.5C 33.2287,132.269 29.2287,137.602 26,143.5C 25.0616,149.261 21.895,152.928 16.5,154.5C 15.9769,157.878 14.6435,160.878 12.5,163.5C 11.8333,163.5 11.1667,163.5 10.5,163.5C 10.5,163.167 10.5,162.833 10.5,162.5C 11.1667,162.5 11.5,162.167 11.5,161.5C 17.3564,151.463 23.8564,141.796 31,132.5C 35.4849,122.198 41.4849,112.865 49,104.5C 54.1099,93.7238 60.4432,83.7238 68,74.5C 71.1145,67.05 75.4478,60.3834 81,54.5C 82.122,52.5932 82.9553,50.5932 83.5,48.5 Z"/></g>
<g><path style="opacity:1" fill="#3800fe" d="M 220.5,48.5 C 221.167,48.8333 221.833,49.1667 222.5,49.5C 221.086,51.1385 221.42,52.4718 223.5,53.5C 218.774,56.0685 216.274,60.0685 216,65.5C 211.227,71.2607 207.227,77.5941 204,84.5C 198.967,90.5376 194.3,96.871 190,103.5C 186.946,113.172 182.279,121.839 176,129.5C 172.91,136.378 168.41,142.044 162.5,146.5C 159.169,155.173 154.336,162.84 148,169.5C 145.582,175.344 142.416,180.678 138.5,185.5C 136.5,185.5 134.5,185.5 132.5,185.5C 137.819,176.357 143.319,167.357 149,158.5C 151.683,155.984 154.183,153.317 156.5,150.5C 157.97,146.952 158.97,143.285 159.5,139.5C 164.293,134.604 168.627,129.27 172.5,123.5C 174.813,118.207 177.646,113.207 181,108.5C 184.791,106.644 187.457,103.644 189,99.5C 190,98.8333 191,98.1667 192,97.5C 192.26,93.7502 192.927,90.0836 194,86.5C 199.82,80.5252 203.82,73.5252 206,65.5C 207.097,62.7352 209.097,61.0686 212,60.5C 212.333,59.1667 212.667,57.8333 213,56.5C 216.044,54.2913 218.544,51.6247 220.5,48.5 Z"/></g>
<g><path style="opacity:1" fill="#01fef4" d="M 155.5,48.5 C 158.167,48.5 160.833,48.5 163.5,48.5C 143.68,79.8568 123.68,110.857 103.5,141.5C 101.77,140.974 100.436,139.974 99.5,138.5C 102.075,135.063 104.909,131.729 108,128.5C 110.186,123.295 112.853,118.295 116,113.5C 121.164,105.183 126.831,97.183 133,89.5C 135.41,83.6818 138.077,78.0151 141,72.5C 142,71.8333 143,71.1667 144,70.5C 146.59,65.2529 149.923,60.5862 154,56.5C 154.395,53.7934 154.895,51.1267 155.5,48.5 Z"/></g>
<g><path style="opacity:1" fill="#0709fe" d="M 175.5,105.5 C 173.699,110.434 171.366,115.101 168.5,119.5C 154.004,141.153 140.004,163.153 126.5,185.5C 124.167,185.5 121.833,185.5 119.5,185.5C 131.004,167.823 142.504,150.156 154,132.5C 155.503,126.818 158.503,122.151 163,118.5C 164.825,115.689 166.158,112.689 167,109.5C 168.78,108.361 170.614,107.361 172.5,106.5C 173.609,106.443 174.609,106.11 175.5,105.5 Z"/></g>
<g><path style="opacity:1" fill="#09d0fe" d="M 166.5,48.5 C 168.833,48.5 171.167,48.5 173.5,48.5C 169.758,54.982 166.258,61.6487 163,68.5C 160.667,71.5 158,74.1667 155,76.5C 152.473,80.2211 150.473,84.2211 149,88.5C 146.453,90.2037 144.953,92.537 144.5,95.5C 141.967,98.5738 139.967,101.907 138.5,105.5C 132.459,114.196 126.459,122.862 120.5,131.5C 119.432,130.566 118.099,130.232 116.5,130.5C 130.509,106.919 145.342,83.5858 161,60.5C 163.435,56.7281 165.268,52.7281 166.5,48.5 Z"/></g>
<g><path style="opacity:1" fill="#1700ff" d="M 217.5,48.5 C 218.5,48.5 219.5,48.5 220.5,48.5C 218.544,51.6247 216.044,54.2913 213,56.5C 212.667,57.8333 212.333,59.1667 212,60.5C 209.097,61.0686 207.097,62.7352 206,65.5C 203.82,73.5252 199.82,80.5252 194,86.5C 192.927,90.0836 192.26,93.7502 192,97.5C 191,98.1667 190,98.8333 189,99.5C 187.457,103.644 184.791,106.644 181,108.5C 177.646,113.207 174.813,118.207 172.5,123.5C 168.627,129.27 164.293,134.604 159.5,139.5C 162.742,132.68 166.742,126.347 171.5,120.5C 171.124,118.197 170.124,117.863 168.5,119.5C 171.366,115.101 173.699,110.434 175.5,105.5C 176.496,105.586 177.329,105.252 178,104.5C 189.333,86.5 200.667,68.5 212,50.5C 213.948,49.8906 215.782,49.224 217.5,48.5 Z"/></g>
<g><path style="opacity:0.573" fill="#826728" d="M 238.5,108.5 C 241.542,108.733 244.208,109.733 246.5,111.5C 245.833,111.5 245.167,111.5 244.5,111.5C 243.167,111.167 241.833,110.833 240.5,110.5C 239.833,109.833 239.167,109.167 238.5,108.5 Z"/></g>
<g><path style="opacity:1" fill="#fcce06" d="M 51.5,48.5 C 52.1667,48.5 52.8333,48.5 53.5,48.5C 50.2842,55.933 46.7842,63.2663 43,70.5C 42,72.8333 40.3333,74.5 38,75.5C 30.728,87.768 23.0613,99.768 15,111.5C 14.6401,113.608 13.9734,115.608 13,117.5C 8.20032,122.757 5.36699,128.757 4.5,135.5C 3.52333,132.713 3.19,129.713 3.5,126.5C 4.38803,123.946 4.72137,121.279 4.5,118.5C 6.7848,117.043 8.61813,115.043 10,112.5C 14.4223,101.767 20.7556,92.4333 29,84.5C 29.7246,82.0506 30.7246,79.7173 32,77.5C 38.1688,71.1717 42.8355,63.8383 46,55.5C 48.7932,53.91 50.6266,51.5766 51.5,48.5 Z"/></g>
<g><path style="opacity:1" fill="#00fe86" d="M 112.5,89.5 C 112.114,91.9366 110.947,93.9366 109,95.5C 109.388,99.9214 107.721,103.255 104,105.5C 90.6895,127.183 76.8561,148.683 62.5,170C 59.5795,174.595 57.0795,179.428 55,184.5C 53.6439,185.38 52.1439,185.714 50.5,185.5C 51.602,180.895 54.102,177.228 58,174.5C 61.3333,169.167 64.6667,163.833 68,158.5C 70.1099,152.843 72.6099,147.343 75.5,142C 80.5748,135.392 85.7414,128.892 91,122.5C 93.3954,114.618 97.3954,107.618 103,101.5C 104.273,99.2864 105.273,96.953 106,94.5C 108.184,92.7122 110.351,91.0456 112.5,89.5 Z"/></g>
<g><path style="opacity:1" fill="#02fede" d="M 153.5,48.5 C 154.167,48.5 154.833,48.5 155.5,48.5C 154.895,51.1267 154.395,53.7934 154,56.5C 149.923,60.5862 146.59,65.2529 144,70.5C 143,71.1667 142,71.8333 141,72.5C 138.077,78.0151 135.41,83.6818 133,89.5C 126.831,97.183 121.164,105.183 116,113.5C 112.853,118.295 110.186,123.295 108,128.5C 104.909,131.729 102.075,135.063 99.5,138.5C 98.8333,137.167 98.1667,135.833 97.5,134.5C 102.412,132.041 105.412,128.041 106.5,122.5C 107.5,122.5 108.5,122.5 109.5,122.5C 109.998,119.513 110.498,116.513 111,113.5C 117.622,103.215 124.622,93.2153 132,83.5C 133.542,77.0663 137.042,72.0663 142.5,68.5C 146.212,61.7329 149.879,55.0663 153.5,48.5 Z"/></g>
<g><path style="opacity:1" fill="#1294fe" d="M 158.5,90.5 C 157.206,91.2899 156.039,92.2899 155,93.5C 151.703,100.146 148.369,106.813 145,113.5C 138.056,122.413 130.889,131.079 123.5,139.5C 124.878,135.742 126.544,132.075 128.5,128.5C 132.852,126.197 135.352,122.53 136,117.5C 137.667,115.167 139.333,112.833 141,110.5C 141.484,108.807 140.984,107.473 139.5,106.5C 142.731,104.78 145.564,102.447 148,99.5C 151,95.8333 154,92.1667 157,88.5C 157.717,89.0442 158.217,89.7109 158.5,90.5 Z"/></g>
<g><path style="opacity:1" fill="#0c7bfe" d="M 158.5,90.5 C 159.833,91.1667 160.833,92.1667 161.5,93.5C 160.542,93.9528 159.708,94.6195 159,95.5C 153.894,105.022 148.227,114.355 142,123.5C 141.152,128.246 138.652,131.58 134.5,133.5C 134.318,135.675 133.651,137.675 132.5,139.5C 132.543,140.416 132.876,141.083 133.5,141.5C 131.372,142.629 129.039,142.796 126.5,142C 125.058,141.623 124.058,140.79 123.5,139.5C 130.889,131.079 138.056,122.413 145,113.5C 148.369,106.813 151.703,100.146 155,93.5C 156.039,92.2899 157.206,91.2899 158.5,90.5 Z"/></g>
<g><path style="opacity:1" fill="#03fe96" d="M 137.5,48.5 C 139.5,48.5 141.5,48.5 143.5,48.5C 143.211,51.4118 141.711,53.4118 139,54.5C 136.678,60.1215 134.345,65.7882 132,71.5C 122.506,82.3603 114.506,94.3603 108,107.5C 105,109.833 102.333,112.5 100,115.5C 85.2022,138.766 70.7022,162.099 56.5,185.5C 56.5,185.833 56.5,186.167 56.5,186.5C 55.5,186.5 54.5,186.5 53.5,186.5C 51.8333,186.5 50.1667,186.5 48.5,186.5C 48.8417,185.662 49.5084,185.328 50.5,185.5C 52.1439,185.714 53.6439,185.38 55,184.5C 57.0795,179.428 59.5795,174.595 62.5,170C 76.8561,148.683 90.6895,127.183 104,105.5C 107.721,103.255 109.388,99.9214 109,95.5C 110.947,93.9366 112.114,91.9366 112.5,89.5C 112.343,88.1266 112.51,86.7932 113,85.5C 114.586,84.624 116.086,83.624 117.5,82.5C 118.628,77.8763 121.128,74.2096 125,71.5C 130.11,64.502 134.277,56.8353 137.5,48.5 Z"/></g>
<g><path style="opacity:1" fill="#887335" d="M 248.5,117.5 C 248.405,119.786 247.738,121.786 246.5,123.5C 246.025,120.918 246.692,118.918 248.5,117.5 Z"/></g>
<g><path style="opacity:1" fill="#0c5efe" d="M 161.5,93.5 C 163.5,95.8333 165.5,98.1667 167.5,100.5C 166.175,101.953 165.342,101.619 165,99.5C 161.132,105.929 156.799,111.929 152,117.5C 149.454,123.866 146.287,129.866 142.5,135.5C 141.735,135.077 140.902,134.743 140,134.5C 138.289,137.254 136.122,139.588 133.5,141.5C 132.876,141.083 132.543,140.416 132.5,139.5C 133.651,137.675 134.318,135.675 134.5,133.5C 138.652,131.58 141.152,128.246 142,123.5C 148.227,114.355 153.894,105.022 159,95.5C 159.708,94.6195 160.542,93.9528 161.5,93.5 Z"/></g>
<g><path style="opacity:1" fill="#17affe" d="M 138.5,105.5 C 139.167,105.5 139.5,105.833 139.5,106.5C 140.984,107.473 141.484,108.807 141,110.5C 139.333,112.833 137.667,115.167 136,117.5C 135.352,122.53 132.852,126.197 128.5,128.5C 126.544,132.075 124.878,135.742 123.5,139.5C 120.828,137.609 119.828,134.942 120.5,131.5C 126.459,122.862 132.459,114.196 138.5,105.5 Z"/></g>
<g><path style="opacity:1" fill="#a2ff00" d="M 240.5,110.5 C 241.833,110.833 243.167,111.167 244.5,111.5C 245.379,114.117 245.212,116.784 244,119.5C 240.897,124.269 238.231,129.269 236,134.5C 231.549,138.772 227.716,143.439 224.5,148.5C 224.5,145.833 224.5,143.167 224.5,140.5C 227.852,138.542 229.352,135.542 229,131.5C 234.345,125.323 238.178,118.323 240.5,110.5 Z"/></g>
<g><path style="opacity:1" fill="#1ffe00" d="M 83.5,93.5 C 82.1301,93.8565 81.1301,94.6898 80.5,96C 62.7133,124.933 44.38,153.433 25.5,181.5C 24.7109,181.217 24.0442,180.717 23.5,180C 27.6745,174.344 27.0079,173.511 21.5,177.5C 22.6056,174.946 23.439,172.279 24,169.5C 28.3555,166.809 31.6889,163.142 34,158.5C 38.3333,150.167 42.6667,141.833 47,133.5C 48.586,132.624 50.086,131.624 51.5,130.5C 56.3383,120.815 62.1716,111.815 69,103.5C 69.3173,105.301 69.984,105.634 71,104.5C 72.4398,99.0287 74.6064,94.6953 77.5,91.5C 77.811,90.5222 78.4777,89.8555 79.5,89.5C 81.188,90.5213 82.5213,91.8546 83.5,93.5 Z"/></g>
<g><path style="opacity:1" fill="#b4fe00" d="M 75.5,48.5 C 77.5,48.5 79.5,48.5 81.5,48.5C 68.5041,67.3658 56.0041,86.6992 44,106.5C 40.4652,108.18 37.7985,110.847 36,114.5C 32.3308,122.514 27.6642,129.847 22,136.5C 18.6781,143.968 15.1781,151.301 11.5,158.5C 9.1324,156.044 8.1324,153.044 8.5,149.5C 14.5649,143.053 19.3982,135.72 23,127.5C 24.3103,124.527 26.3103,122.193 29,120.5C 32.541,112.421 36.8744,104.755 42,97.5C 43.0674,96.8095 44.2341,96.3095 45.5,96C 51.3718,87.1119 56.8718,77.9452 62,68.5C 68.2511,63.0704 72.7511,56.4037 75.5,48.5 Z"/></g>
<g><path style="opacity:1" fill="#9eff00" d="M 81.5,48.5 C 82.1667,48.5 82.8333,48.5 83.5,48.5C 82.9553,50.5932 82.122,52.5932 81,54.5C 75.4478,60.3834 71.1145,67.05 68,74.5C 60.4432,83.7238 54.1099,93.7238 49,104.5C 41.4849,112.865 35.4849,122.198 31,132.5C 23.8564,141.796 17.3564,151.463 11.5,161.5C 11.5,160.5 11.5,159.5 11.5,158.5C 15.1781,151.301 18.6781,143.968 22,136.5C 27.6642,129.847 32.3308,122.514 36,114.5C 37.7985,110.847 40.4652,108.18 44,106.5C 56.0041,86.6992 68.5041,67.3658 81.5,48.5 Z"/></g>
<g><path style="opacity:1" fill="#cdff00" d="M 67.5,48.5 C 70.1667,48.5 72.8333,48.5 75.5,48.5C 72.7511,56.4037 68.2511,63.0704 62,68.5C 56.8718,77.9452 51.3718,87.1119 45.5,96C 44.2341,96.3095 43.0674,96.8095 42,97.5C 36.8744,104.755 32.541,112.421 29,120.5C 26.3103,122.193 24.3103,124.527 23,127.5C 19.3982,135.72 14.5649,143.053 8.5,149.5C 8.5,149.167 8.5,148.833 8.5,148.5C 13.8118,139.69 18.9785,130.69 24,121.5C 25.4473,119.597 27.114,117.93 29,116.5C 32.7234,109.323 36.0568,101.99 39,94.5C 40.7548,91.9561 42.7548,89.6227 45,87.5C 47.6748,79.1508 51.6748,71.4841 57,64.5C 61.7581,59.9815 65.2581,54.6481 67.5,48.5 Z"/></g>
<g><path style="opacity:1" fill="#eddadc" d="M 116.5,130.5 C 118.099,130.232 119.432,130.566 120.5,131.5C 119.828,134.942 120.828,137.609 123.5,139.5C 124.058,140.79 125.058,141.623 126.5,142C 129.039,142.796 131.372,142.629 133.5,141.5C 136.122,139.588 138.289,137.254 140,134.5C 140.902,134.743 141.735,135.077 142.5,135.5C 141.165,140.491 138.165,144.158 133.5,146.5C 131.565,147.15 129.565,147.483 127.5,147.5C 125.209,146.235 122.875,144.902 120.5,143.5C 119.878,142.373 119.045,141.373 118,140.5C 117.34,142.324 116.173,143.657 114.5,144.5C 110.882,147.356 106.882,148.023 102.5,146.5C 101.833,146.5 101.167,146.5 100.5,146.5C 98.4707,144.142 96.4707,141.808 94.5,139.5C 94.0773,137.219 94.744,135.552 96.5,134.5C 96.8333,134.5 97.1667,134.5 97.5,134.5C 98.1667,135.833 98.8333,137.167 99.5,138.5C 100.436,139.974 101.77,140.974 103.5,141.5C 111.506,142.865 115.84,139.198 116.5,130.5 Z"/></g>
<g><path style="opacity:1" fill="#0025fe" d="M 168.5,101.5 C 169.833,103.167 171.167,104.833 172.5,106.5C 170.614,107.361 168.78,108.361 167,109.5C 166.158,112.689 164.825,115.689 163,118.5C 158.503,122.151 155.503,126.818 154,132.5C 142.504,150.156 131.004,167.823 119.5,185.5C 118.448,185.649 117.448,185.483 116.5,185C 123.162,173.077 130.329,161.244 138,149.5C 141.166,143.816 143.666,137.816 145.5,131.5C 146.822,131.67 147.989,131.337 149,130.5C 150.967,126.592 153.301,122.926 156,119.5C 156.333,118.167 156.667,116.833 157,115.5C 159.675,112.791 162.342,110.124 165,107.5C 166.459,105.568 167.625,103.568 168.5,101.5 Z"/></g>
<g><path style="opacity:1" fill="#68fa05" d="M 224.5,103.5 C 229.167,105.167 233.833,106.833 238.5,108.5C 239.167,109.167 239.833,109.833 240.5,110.5C 238.178,118.323 234.345,125.323 229,131.5C 229.352,135.542 227.852,138.542 224.5,140.5C 224.5,137.5 224.5,134.5 224.5,131.5C 224.5,126.5 224.5,121.5 224.5,116.5C 224.5,112.833 224.5,109.167 224.5,105.5C 224.5,104.833 224.5,104.167 224.5,103.5 Z"/></g>
<g><path style="opacity:1" fill="#3efe00" d="M 77.5,91.5 C 74.6064,94.6953 72.4398,99.0287 71,104.5C 69.984,105.634 69.3173,105.301 69,103.5C 62.1716,111.815 56.3383,120.815 51.5,130.5C 50.086,131.624 48.586,132.624 47,133.5C 42.6667,141.833 38.3333,150.167 34,158.5C 31.6889,163.142 28.3555,166.809 24,169.5C 23.439,172.279 22.6056,174.946 21.5,177.5C 20.8333,177.5 20.5,177.167 20.5,176.5C 19.9246,174.658 20.0913,172.658 21,170.5C 30.2772,153.923 40.2772,137.923 51,122.5C 53.2257,117.258 55.8923,112.258 59,107.5C 59.3333,108.167 59.6667,108.833 60,109.5C 60.7083,108.619 61.5416,107.953 62.5,107.5C 67.5,102.167 72.5,96.8333 77.5,91.5 Z"/></g>
<g><path style="opacity:1" fill="#07fe57" d="M 91.5,102.5 C 92.9744,103.436 93.9744,104.77 94.5,106.5C 89.8937,114.249 85.0604,121.916 80,129.5C 76.7125,136.14 73.3792,142.807 70,149.5C 63.632,156.388 59.132,164.388 56.5,173.5C 53.5957,174.984 51.929,177.317 51.5,180.5C 48.5299,180.746 47.1966,182.412 47.5,185.5C 44.6146,185.194 41.9479,185.527 39.5,186.5C 37.901,186.232 36.5676,186.566 35.5,187.5C 34.209,187.737 33.209,187.404 32.5,186.5C 34.0345,184.588 36.0345,183.255 38.5,182.5C 47.9664,172.92 55.4664,161.92 61,149.5C 63.7611,148.501 65.0944,146.501 65,143.5C 71.9643,132.678 79.2977,122.011 87,111.5C 88.0476,108.244 89.5476,105.244 91.5,102.5 Z"/></g>
<g><path style="opacity:1" fill="#c5bd2d" d="M 246.5,124.5 C 244.715,133.211 242.715,141.877 240.5,150.5C 239.503,150.53 238.836,150.03 238.5,149C 240.22,145.025 240.887,140.859 240.5,136.5C 242.708,135.082 243.542,133.082 243,130.5C 241.753,132.881 241.42,132.547 242,129.5C 243.736,127.937 245.236,126.27 246.5,124.5 Z"/></g>
<g><path style="opacity:1" fill="#f202fe" d="M 224.5,102.5 C 224.5,102.833 224.5,103.167 224.5,103.5C 224.5,104.167 224.5,104.833 224.5,105.5C 223.834,108.358 223.167,111.358 222.5,114.5C 211.248,128.92 201.415,144.253 193,160.5C 188.011,166.505 183.344,172.838 179,179.5C 177.878,181.407 177.045,183.407 176.5,185.5C 175.833,185.5 175.5,185.833 175.5,186.5C 171.167,186.5 166.833,186.5 162.5,186.5C 161.833,186.5 161.167,186.5 160.5,186.5C 161.919,185.549 163.585,185.216 165.5,185.5C 167.5,185.5 169.5,185.5 171.5,185.5C 171.817,181.525 173.651,178.525 177,176.5C 181.275,169.678 184.775,162.511 187.5,155C 192.28,150.009 196.446,144.509 200,138.5C 202.17,129.473 206.837,122.14 214,116.5C 215.751,114.51 216.751,112.177 217,109.5C 219.598,108.32 221.264,106.32 222,103.5C 222.671,102.748 223.504,102.414 224.5,102.5 Z"/></g>
<g><path style="opacity:1" fill="#7400ff" d="M 224.5,64.5 C 224.5,65.8333 224.5,67.1667 224.5,68.5C 217.318,78.3851 210.151,88.3851 203,98.5C 201.603,103.629 198.936,107.963 195,111.5C 190.378,124.404 183.711,136.071 175,146.5C 173.187,151.97 170.187,156.637 166,160.5C 160.626,168.591 155.792,176.924 151.5,185.5C 150.5,185.5 149.5,185.5 148.5,185.5C 146.5,185.5 144.5,185.5 142.5,185.5C 144.558,181.052 146.892,176.719 149.5,172.5C 150.738,170.363 152.571,169.029 155,168.5C 157.537,164.065 160.537,160.065 164,156.5C 166.831,150.532 169.665,144.532 172.5,138.5C 180.875,128.954 188.708,118.954 196,108.5C 201.395,97.3843 208.062,87.051 216,77.5C 217.367,72.0702 220.201,67.7368 224.5,64.5 Z"/></g>
<g><path style="opacity:1" fill="#d700ff" d="M 224.5,94.5 C 224.5,97.1667 224.5,99.8333 224.5,102.5C 223.504,102.414 222.671,102.748 222,103.5C 221.264,106.32 219.598,108.32 217,109.5C 216.751,112.177 215.751,114.51 214,116.5C 206.837,122.14 202.17,129.473 200,138.5C 196.446,144.509 192.28,150.009 187.5,155C 184.775,162.511 181.275,169.678 177,176.5C 173.651,178.525 171.817,181.525 171.5,185.5C 169.5,185.5 167.5,185.5 165.5,185.5C 168.06,180.723 170.893,176.056 174,171.5C 176,166.833 178,162.167 180,157.5C 187.853,147.665 194.853,137.331 201,126.5C 202.955,125.547 204.622,124.213 206,122.5C 207.633,119.319 208.966,115.986 210,112.5C 211.586,111.624 213.086,110.624 214.5,109.5C 216.613,103.584 219.946,98.5843 224.5,94.5 Z"/></g>
<g><path style="opacity:1" fill="#1500ff" d="M 159.5,139.5 C 158.97,143.285 157.97,146.952 156.5,150.5C 154.183,153.317 151.683,155.984 149,158.5C 143.319,167.357 137.819,176.357 132.5,185.5C 130.5,185.5 128.5,185.5 126.5,185.5C 140.004,163.153 154.004,141.153 168.5,119.5C 170.124,117.863 171.124,118.197 171.5,120.5C 166.742,126.347 162.742,132.68 159.5,139.5 Z"/></g>
<g><path style="opacity:1" fill="#5efe00" d="M 92.5,48.5 C 93.1667,48.5 93.8333,48.5 94.5,48.5C 88.103,58.2811 81.9363,68.2811 76,78.5C 75.2195,79.9437 75.3861,81.277 76.5,82.5C 77.5159,78.5353 78.5159,78.5353 79.5,82.5C 73.1995,88.9701 67.0328,95.6368 61,102.5C 60.3872,104.495 60.8872,106.162 62.5,107.5C 61.5416,107.953 60.7083,108.619 60,109.5C 59.6667,108.833 59.3333,108.167 59,107.5C 55.8923,112.258 53.2257,117.258 51,122.5C 40.2772,137.923 30.2772,153.923 21,170.5C 20.0913,172.658 19.9246,174.658 20.5,176.5C 19.8333,176.5 19.1667,176.5 18.5,176.5C 18.573,174.973 17.9063,173.973 16.5,173.5C 15.1667,170.167 15.1667,166.833 16.5,163.5C 17.4959,163.586 18.3292,163.252 19,162.5C 27.1454,151.559 34.8121,140.226 42,128.5C 42.3457,125.424 43.0124,122.424 44,119.5C 53.376,107.114 62.0427,94.1138 70,80.5C 74.2066,76.5779 77.2066,71.9112 79,66.5C 83.7614,60.6194 88.2614,54.6194 92.5,48.5 Z"/></g>
<g><path style="opacity:1" fill="#9100ff" d="M 224.5,68.5 C 224.5,71.8333 224.5,75.1667 224.5,78.5C 219.217,85.024 214.383,92.024 210,99.5C 209.461,102.529 208.794,105.529 208,108.5C 203.279,114.298 199.279,120.631 196,127.5C 195,128.167 194,128.833 193,129.5C 186.111,142.065 178.778,154.398 171,166.5C 169.559,167.26 168.059,167.926 166.5,168.5C 162.624,173.873 158.958,179.373 155.5,185C 154.207,185.49 152.873,185.657 151.5,185.5C 155.792,176.924 160.626,168.591 166,160.5C 170.187,156.637 173.187,151.97 175,146.5C 183.711,136.071 190.378,124.404 195,111.5C 198.936,107.963 201.603,103.629 203,98.5C 210.151,88.3851 217.318,78.3851 224.5,68.5 Z"/></g>
<g><path style="opacity:1" fill="#0afe37" d="M 88.5,99.5 C 89.8333,100.167 90.8333,101.167 91.5,102.5C 89.5476,105.244 88.0476,108.244 87,111.5C 79.2977,122.011 71.9643,132.678 65,143.5C 65.0944,146.501 63.7611,148.501 61,149.5C 55.4664,161.92 47.9664,172.92 38.5,182.5C 36.0345,183.255 34.0345,184.588 32.5,186.5C 28.4023,185.728 25.069,183.728 22.5,180.5C 21.8902,179.609 21.5569,178.609 21.5,177.5C 27.0079,173.511 27.6745,174.344 23.5,180C 24.0442,180.717 24.7109,181.217 25.5,181.5C 26.2613,182.391 27.2613,183.058 28.5,183.5C 31.8315,180.845 35.1648,178.179 38.5,175.5C 40.0894,172.579 41.5894,169.579 43,166.5C 49.149,158.879 54.8157,150.879 60,142.5C 61.6228,138.29 63.6228,134.29 66,130.5C 70.2866,125.425 74.4533,120.258 78.5,115C 80.0249,113.991 81.6916,113.491 83.5,113.5C 85.4724,108.944 87.1391,104.278 88.5,99.5 Z"/></g>
<g><path style="opacity:1" fill="#fe04b8" d="M 224.5,116.5 C 224.5,121.5 224.5,126.5 224.5,131.5C 223.527,133.948 223.194,136.615 223.5,139.5C 210.503,152.226 200.503,167.226 193.5,184.5C 192.051,185.172 190.718,185.839 189.5,186.5C 187.5,186.5 185.5,186.5 183.5,186.5C 180.833,186.5 178.167,186.5 175.5,186.5C 175.5,185.833 175.833,185.5 176.5,185.5C 178.527,185.662 180.527,185.495 182.5,185C 185.641,180.196 189.141,175.696 193,171.5C 195.194,168.446 196.861,165.112 198,161.5C 202.814,155.881 207.148,149.881 211,143.5C 213.76,136.297 217.76,129.964 223,124.5C 223.183,121.635 223.683,118.969 224.5,116.5 Z"/></g>
<g><path style="opacity:1" fill="#d0fe01" d="M 244.5,111.5 C 245.167,111.5 245.833,111.5 246.5,111.5C 248.081,113.142 248.747,115.142 248.5,117.5C 246.692,118.918 246.025,120.918 246.5,123.5C 246.5,123.833 246.5,124.167 246.5,124.5C 245.236,126.27 243.736,127.937 242,129.5C 241.42,132.547 241.753,132.881 243,130.5C 243.542,133.082 242.708,135.082 240.5,136.5C 236.849,141.918 233.849,147.752 231.5,154C 229.042,156.445 226.708,158.945 224.5,161.5C 224.5,157.167 224.5,152.833 224.5,148.5C 227.716,143.439 231.549,138.772 236,134.5C 238.231,129.269 240.897,124.269 244,119.5C 245.212,116.784 245.379,114.117 244.5,111.5 Z"/></g>
<g><path style="opacity:0.824" fill="#957c33" d="M 6.5,148.5 C 7.16667,148.5 7.83333,148.5 8.5,148.5C 8.5,148.833 8.5,149.167 8.5,149.5C 8.1324,153.044 9.1324,156.044 11.5,158.5C 11.5,159.5 11.5,160.5 11.5,161.5C 11.5,162.167 11.1667,162.5 10.5,162.5C 8.28696,158.112 6.95363,153.446 6.5,148.5 Z"/></g>
<g><path style="opacity:1" fill="#f8f500" d="M 240.5,136.5 C 240.887,140.859 240.22,145.025 238.5,149C 238.836,150.03 239.503,150.53 240.5,150.5C 240.5,150.833 240.5,151.167 240.5,151.5C 239.265,151.721 238.265,152.388 237.5,153.5C 235.363,158.412 233.53,163.412 232,168.5C 228.696,172.132 226.196,176.132 224.5,180.5C 224.5,176.167 224.5,171.833 224.5,167.5C 224.5,165.5 224.5,163.5 224.5,161.5C 226.708,158.945 229.042,156.445 231.5,154C 233.849,147.752 236.849,141.918 240.5,136.5 Z"/></g>
<g><path style="opacity:1" fill="#08fe73" d="M 136.5,48.5 C 136.833,48.5 137.167,48.5 137.5,48.5C 134.277,56.8353 130.11,64.502 125,71.5C 121.128,74.2096 118.628,77.8763 117.5,82.5C 116.086,83.624 114.586,84.624 113,85.5C 112.51,86.7932 112.343,88.1266 112.5,89.5C 110.351,91.0456 108.184,92.7122 106,94.5C 105.273,96.953 104.273,99.2864 103,101.5C 97.3954,107.618 93.3954,114.618 91,122.5C 85.7414,128.892 80.5748,135.392 75.5,142C 72.6099,147.343 70.1099,152.843 68,158.5C 64.6667,163.833 61.3333,169.167 58,174.5C 54.102,177.228 51.602,180.895 50.5,185.5C 49.5084,185.328 48.8417,185.662 48.5,186.5C 45.5,186.5 42.5,186.5 39.5,186.5C 41.9479,185.527 44.6146,185.194 47.5,185.5C 47.1966,182.412 48.5299,180.746 51.5,180.5C 51.929,177.317 53.5957,174.984 56.5,173.5C 59.132,164.388 63.632,156.388 70,149.5C 73.3792,142.807 76.7125,136.14 80,129.5C 85.0604,121.916 89.8937,114.249 94.5,106.5C 97.2923,106.09 98.2923,104.756 97.5,102.5C 100.919,101.565 102.753,99.2321 103,95.5C 113.245,78.9446 124.412,63.2779 136.5,48.5 Z"/></g>
<g><path style="opacity:1" fill="#06fec0" d="M 113.5,103.5 C 112.273,107.618 110.773,111.618 109,115.5C 108.125,118.215 106.292,119.548 103.5,119.5C 101.748,124.748 99.4148,129.748 96.5,134.5C 94.744,135.552 94.0773,137.219 94.5,139.5C 86.3094,154.955 77.3094,169.955 67.5,184.5C 65.7086,185.17 64.0419,185.837 62.5,186.5C 62.1667,186.5 61.8333,186.5 61.5,186.5C 59.8333,186.5 58.1667,186.5 56.5,186.5C 56.5,186.167 56.5,185.833 56.5,185.5C 60.9895,184.943 63.4895,182.277 64,177.5C 66.6667,174.833 69.3333,172.167 72,169.5C 74.9452,163.944 77.6119,158.277 80,152.5C 81.0113,151.663 82.1779,151.33 83.5,151.5C 82.8047,144.39 85.638,139.39 92,136.5C 98.6671,125.164 105.834,114.164 113.5,103.5 Z"/></g>
<g><path style="opacity:1" fill="#b601fe" d="M 224.5,78.5 C 224.5,83.8333 224.5,89.1667 224.5,94.5C 219.946,98.5843 216.613,103.584 214.5,109.5C 213.086,110.624 211.586,111.624 210,112.5C 208.966,115.986 207.633,119.319 206,122.5C 204.622,124.213 202.955,125.547 201,126.5C 194.853,137.331 187.853,147.665 180,157.5C 178,162.167 176,166.833 174,171.5C 170.893,176.056 168.06,180.723 165.5,185.5C 163.585,185.216 161.919,185.549 160.5,186.5C 156.833,186.5 153.167,186.5 149.5,186.5C 149.167,186.5 148.833,186.5 148.5,186.5C 148.5,186.167 148.5,185.833 148.5,185.5C 149.5,185.5 150.5,185.5 151.5,185.5C 152.873,185.657 154.207,185.49 155.5,185C 158.958,179.373 162.624,173.873 166.5,168.5C 168.059,167.926 169.559,167.26 171,166.5C 178.778,154.398 186.111,142.065 193,129.5C 194,128.833 195,128.167 196,127.5C 199.279,120.631 203.279,114.298 208,108.5C 208.794,105.529 209.461,102.529 210,99.5C 214.383,92.024 219.217,85.024 224.5,78.5 Z"/></g>
<g><path style="opacity:1" fill="#8ab72b" d="M 10.5,163.5 C 11.1667,163.5 11.8333,163.5 12.5,163.5C 13.6316,164.354 14.965,164.354 16.5,163.5C 15.1667,166.833 15.1667,170.167 16.5,173.5C 14.1692,170.472 12.1692,167.138 10.5,163.5 Z"/></g>
<g><path style="opacity:1" fill="#07fee5" d="M 94.5,139.5 C 96.4707,141.808 98.4707,144.142 100.5,146.5C 93.2234,158.283 85.7234,169.95 78,181.5C 77.51,182.793 77.3433,184.127 77.5,185.5C 75.2646,185.205 73.2646,185.539 71.5,186.5C 68.5,186.5 65.5,186.5 62.5,186.5C 64.0419,185.837 65.7086,185.17 67.5,184.5C 77.3094,169.955 86.3094,154.955 94.5,139.5 Z"/></g>
<g><path style="opacity:1" fill="#08a9fe" d="M 120.5,143.5 C 115.775,151.923 110.275,159.923 104,167.5C 102,172.167 100,176.833 98,181.5C 96.2196,183.794 94.0529,185.461 91.5,186.5C 89.8333,186.5 88.1667,186.5 86.5,186.5C 94.5352,176.065 102.702,165.732 111,155.5C 111.114,151.432 112.28,147.765 114.5,144.5C 116.173,143.657 117.34,142.324 118,140.5C 119.045,141.373 119.878,142.373 120.5,143.5 Z"/></g>
<g><path style="opacity:1" fill="#0ec6fe" d="M 114.5,144.5 C 112.28,147.765 111.114,151.432 111,155.5C 102.702,165.732 94.5352,176.065 86.5,186.5C 85.5,186.5 84.5,186.5 83.5,186.5C 84.6084,180.957 87.4417,176.624 92,173.5C 94.9385,166.791 98.6052,160.458 103,154.5C 103.722,151.739 103.555,149.073 102.5,146.5C 106.882,148.023 110.882,147.356 114.5,144.5 Z"/></g>
<g><path style="opacity:1" fill="#01feaa" d="M 143.5,48.5 C 144.5,48.5 145.5,48.5 146.5,48.5C 138.143,64.0301 129.309,79.3634 120,94.5C 116.859,96.7758 114.693,99.7758 113.5,103.5C 105.834,114.164 98.6671,125.164 92,136.5C 85.638,139.39 82.8047,144.39 83.5,151.5C 82.1779,151.33 81.0113,151.663 80,152.5C 77.6119,158.277 74.9452,163.944 72,169.5C 69.3333,172.167 66.6667,174.833 64,177.5C 63.4895,182.277 60.9895,184.943 56.5,185.5C 70.7022,162.099 85.2022,138.766 100,115.5C 102.333,112.5 105,109.833 108,107.5C 114.506,94.3603 122.506,82.3603 132,71.5C 134.345,65.7882 136.678,60.1215 139,54.5C 141.711,53.4118 143.211,51.4118 143.5,48.5 Z"/></g>
<g><path style="opacity:1" fill="#fe0298" d="M 223.5,139.5 C 223.664,142.187 223.497,144.854 223,147.5C 218.747,154.994 213.747,161.994 208,168.5C 204.159,174.227 200.992,180.227 198.5,186.5C 195.5,186.5 192.5,186.5 189.5,186.5C 190.718,185.839 192.051,185.172 193.5,184.5C 200.503,167.226 210.503,152.226 223.5,139.5 Z"/></g>
<g><path style="opacity:1" fill="#fe0679" d="M 224.5,131.5 C 224.5,134.5 224.5,137.5 224.5,140.5C 224.5,143.167 224.5,145.833 224.5,148.5C 223.279,157.933 218.779,165.6 211,171.5C 210.061,177.735 207.228,182.735 202.5,186.5C 201.833,186.5 201.167,186.5 200.5,186.5C 199.833,186.5 199.167,186.5 198.5,186.5C 200.992,180.227 204.159,174.227 208,168.5C 213.747,161.994 218.747,154.994 223,147.5C 223.497,144.854 223.664,142.187 223.5,139.5C 223.194,136.615 223.527,133.948 224.5,131.5 Z"/></g>
<g><path style="opacity:1" fill="#0f8bfe" d="M 120.5,143.5 C 122.875,144.902 125.209,146.235 127.5,147.5C 125.61,147.297 124.11,147.963 123,149.5C 116.224,162.456 108.39,174.789 99.5,186.5C 96.8333,186.5 94.1667,186.5 91.5,186.5C 94.0529,185.461 96.2196,183.794 98,181.5C 100,176.833 102,172.167 104,167.5C 110.275,159.923 115.775,151.923 120.5,143.5 Z"/></g>
<g><path style="opacity:1" fill="#ff01e9" d="M 224.5,105.5 C 224.5,109.167 224.5,112.833 224.5,116.5C 223.683,118.969 223.183,121.635 223,124.5C 217.76,129.964 213.76,136.297 211,143.5C 207.148,149.881 202.814,155.881 198,161.5C 196.861,165.112 195.194,168.446 193,171.5C 189.141,175.696 185.641,180.196 182.5,185C 180.527,185.495 178.527,185.662 176.5,185.5C 177.045,183.407 177.878,181.407 179,179.5C 183.344,172.838 188.011,166.505 193,160.5C 201.415,144.253 211.248,128.92 222.5,114.5C 223.167,111.358 223.834,108.358 224.5,105.5 Z"/></g>
<g><path style="opacity:1" fill="#0270fe" d="M 127.5,147.5 C 125.155,154.377 121.655,160.711 117,166.5C 115.991,168.025 115.491,169.692 115.5,171.5C 114.178,171.33 113.011,171.663 112,172.5C 109.021,177.633 105.521,182.3 101.5,186.5C 100.833,186.5 100.167,186.5 99.5,186.5C 108.39,174.789 116.224,162.456 123,149.5C 124.11,147.963 125.61,147.297 127.5,147.5 Z"/></g>
<g><path style="opacity:0.016" fill="#62413c" d="M 16.5,173.5 C 17.9063,173.973 18.573,174.973 18.5,176.5C 17.0937,176.027 16.427,175.027 16.5,173.5 Z"/></g>
<g><path style="opacity:1" fill="#0ae4fe" d="M 100.5,146.5 C 101.167,146.5 101.833,146.5 102.5,146.5C 103.555,149.073 103.722,151.739 103,154.5C 98.6052,160.458 94.9385,166.791 92,173.5C 87.4417,176.624 84.6084,180.957 83.5,186.5C 79.5,186.5 75.5,186.5 71.5,186.5C 73.2646,185.539 75.2646,185.205 77.5,185.5C 77.3433,184.127 77.51,182.793 78,181.5C 85.7234,169.95 93.2234,158.283 100.5,146.5 Z"/></g>
<g><path style="opacity:0.89" fill="#a5691f" d="M 18.5,176.5 C 19.1667,176.5 19.8333,176.5 20.5,176.5C 20.5,177.167 20.8333,177.5 21.5,177.5C 21.5569,178.609 21.8902,179.609 22.5,180.5C 20.7356,179.674 19.4023,178.341 18.5,176.5 Z"/></g>
<g><path style="opacity:1" fill="#fe0c4f" d="M 224.5,148.5 C 224.5,152.833 224.5,157.167 224.5,161.5C 224.5,163.5 224.5,165.5 224.5,167.5C 222.346,170.305 220.013,173.139 217.5,176C 215.857,178.641 214.69,181.474 214,184.5C 211.393,185.123 208.893,185.79 206.5,186.5C 205.167,186.5 203.833,186.5 202.5,186.5C 207.228,182.735 210.061,177.735 211,171.5C 218.779,165.6 223.279,157.933 224.5,148.5 Z"/></g>
<g><path style="opacity:1" fill="#fe122a" d="M 224.5,167.5 C 224.5,171.833 224.5,176.167 224.5,180.5C 223.839,183.81 221.839,185.81 218.5,186.5C 216.833,186.5 215.167,186.5 213.5,186.5C 211.167,186.5 208.833,186.5 206.5,186.5C 208.893,185.79 211.393,185.123 214,184.5C 214.69,181.474 215.857,178.641 217.5,176C 220.013,173.139 222.346,170.305 224.5,167.5 Z"/></g>
<g><path style="opacity:1" fill="#f8b60a" d="M 240.5,151.5 C 238.605,158.55 236.605,165.55 234.5,172.5C 232.677,175.187 231.343,178.187 230.5,181.5C 221.007,193.736 212.507,206.736 205,220.5C 203.142,223.572 201.976,226.905 201.5,230.5C 200.557,233.66 199.223,236.66 197.5,239.5C 196.833,239.5 196.167,239.5 195.5,239.5C 191.786,239.41 188.452,238.41 185.5,236.5C 188.325,236.838 190.492,235.838 192,233.5C 195.071,229.089 197.237,224.255 198.5,219C 201.027,215.503 203.861,212.337 207,209.5C 208.596,203.184 211.763,197.851 216.5,193.5C 217.577,191.271 218.244,188.937 218.5,186.5C 221.839,185.81 223.839,183.81 224.5,180.5C 226.196,176.132 228.696,172.132 232,168.5C 233.53,163.412 235.363,158.412 237.5,153.5C 238.265,152.388 239.265,151.721 240.5,151.5 Z"/></g>
<g><path style="opacity:1" fill="#213cfd" d="M 167.5,100.5 C 168.167,100.5 168.5,100.833 168.5,101.5C 167.625,103.568 166.459,105.568 165,107.5C 162.342,110.124 159.675,112.791 157,115.5C 156.667,116.833 156.333,118.167 156,119.5C 153.301,122.926 150.967,126.592 149,130.5C 147.989,131.337 146.822,131.67 145.5,131.5C 143.666,137.816 141.166,143.816 138,149.5C 130.329,161.244 123.162,173.077 116.5,185C 117.448,185.483 118.448,185.649 119.5,185.5C 121.833,185.5 124.167,185.5 126.5,185.5C 128.5,185.5 130.5,185.5 132.5,185.5C 134.5,185.5 136.5,185.5 138.5,185.5C 139.833,185.5 141.167,185.5 142.5,185.5C 144.5,185.5 146.5,185.5 148.5,185.5C 148.5,185.833 148.5,186.167 148.5,186.5C 147.5,186.5 146.5,186.5 145.5,186.5C 141.833,186.5 138.167,186.5 134.5,186.5C 132.5,186.5 130.5,186.5 128.5,186.5C 126.833,186.5 125.167,186.5 123.5,186.5C 121.5,186.5 119.5,186.5 117.5,186.5C 115.5,186.5 113.5,186.5 111.5,186.5C 110.761,186.631 110.094,186.464 109.5,186C 118.125,173.258 126.125,160.091 133.5,146.5C 138.165,144.158 141.165,140.491 142.5,135.5C 146.287,129.866 149.454,123.866 152,117.5C 156.799,111.929 161.132,105.929 165,99.5C 165.342,101.619 166.175,101.953 167.5,100.5 Z"/></g>
<g><path style="opacity:0.435" fill="#b4632c" d="M 234.5,172.5 C 233.947,177.806 232.614,182.806 230.5,187.5C 229.167,185.5 229.167,183.5 230.5,181.5C 231.343,178.187 232.677,175.187 234.5,172.5 Z"/></g>
<g><path style="opacity:1" fill="#1050fd" d="M 133.5,146.5 C 126.125,160.091 118.125,173.258 109.5,186C 110.094,186.464 110.761,186.631 111.5,186.5C 111.723,189.114 110.556,190.781 108,191.5C 105.491,197.677 101.491,202.677 96,206.5C 95.0228,205.226 94.1894,205.226 93.5,206.5C 91.4471,206.598 89.7804,205.931 88.5,204.5C 92.3296,201.648 96.1629,198.648 100,195.5C 101.101,192.6 102.601,189.933 104.5,187.5C 103.675,186.614 102.675,186.281 101.5,186.5C 105.521,182.3 109.021,177.633 112,172.5C 113.011,171.663 114.178,171.33 115.5,171.5C 115.491,169.692 115.991,168.025 117,166.5C 121.655,160.711 125.155,154.377 127.5,147.5C 129.565,147.483 131.565,147.15 133.5,146.5 Z"/></g>
<g><path style="opacity:1" fill="#dd21a0" d="M 39.5,186.5 C 42.5,186.5 45.5,186.5 48.5,186.5C 50.1667,186.5 51.8333,186.5 53.5,186.5C 52.8466,187.807 52.1799,189.14 51.5,190.5C 53.3747,191.409 54.708,192.743 55.5,194.5C 48.732,192.135 42.0654,189.801 35.5,187.5C 36.5676,186.566 37.901,186.232 39.5,186.5 Z"/></g>
<g><path style="opacity:1" fill="#d810e8" d="M 53.5,186.5 C 54.5,186.5 55.5,186.5 56.5,186.5C 58.1667,186.5 59.8333,186.5 61.5,186.5C 63.4782,188.496 63.4782,190.829 61.5,193.5C 62.6313,194.604 63.4646,194.271 64,192.5C 64.3333,193.5 64.6667,194.5 65,195.5C 66.0847,193.627 67.418,191.96 69,190.5C 69.3932,192.199 68.8932,193.699 67.5,195C 69.1554,196.301 70.4887,197.801 71.5,199.5C 66.1563,197.826 60.8229,196.159 55.5,194.5C 54.708,192.743 53.3747,191.409 51.5,190.5C 52.1799,189.14 52.8466,187.807 53.5,186.5 Z"/></g>
<g><path style="opacity:1" fill="#9404f9" d="M 61.5,186.5 C 61.8333,186.5 62.1667,186.5 62.5,186.5C 65.5,186.5 68.5,186.5 71.5,186.5C 75.5,186.5 79.5,186.5 83.5,186.5C 84.5,186.5 85.5,186.5 86.5,186.5C 85.4324,187.434 84.099,187.768 82.5,187.5C 82.6567,188.873 82.49,190.207 82,191.5C 80.0704,193.758 78.5704,196.258 77.5,199C 78.4491,199.617 79.2825,199.451 80,198.5C 81.1433,201.915 82.81,202.249 85,199.5C 85.7848,201.249 86.6182,202.916 87.5,204.5C 82.1386,202.813 76.8052,201.147 71.5,199.5C 70.4887,197.801 69.1554,196.301 67.5,195C 68.8932,193.699 69.3932,192.199 69,190.5C 67.418,191.96 66.0847,193.627 65,195.5C 64.6667,194.5 64.3333,193.5 64,192.5C 63.4646,194.271 62.6313,194.604 61.5,193.5C 63.4782,190.829 63.4782,188.496 61.5,186.5 Z"/></g>
<g><path style="opacity:1" fill="#e0fc02" d="M 200.5,186.5 C 201.167,186.5 201.833,186.5 202.5,186.5C 203.833,186.5 205.167,186.5 206.5,186.5C 208.833,186.5 211.167,186.5 213.5,186.5C 206.652,199.523 199.152,212.19 191,224.5C 187.695,228.19 184.195,231.523 180.5,234.5C 178.035,234.233 175.701,233.566 173.5,232.5C 173.5,232.167 173.5,231.833 173.5,231.5C 180.198,226.505 185.032,220.171 188,212.5C 193.223,204.553 198.056,196.386 202.5,188C 201.584,187.722 200.918,187.222 200.5,186.5 Z"/></g>
<g><path style="opacity:1" fill="#05e5fe" d="M 128.5,186.5 C 130.5,186.5 132.5,186.5 134.5,186.5C 130.031,195.434 125.031,204.1 119.5,212.5C 118.675,213.386 117.675,213.719 116.5,213.5C 115.059,212.244 114.559,210.244 115,207.5C 118.544,199.809 123.044,192.809 128.5,186.5 Z"/></g>
<g><path style="opacity:1" fill="#ff9f00" d="M 230.5,181.5 C 229.167,183.5 229.167,185.5 230.5,187.5C 227.359,191.037 224.193,194.703 221,198.5C 219.422,201.657 218.422,204.991 218,208.5C 216.289,211.255 214.122,213.589 211.5,215.5C 209.249,221.315 205.916,226.315 201.5,230.5C 201.976,226.905 203.142,223.572 205,220.5C 212.507,206.736 221.007,193.736 230.5,181.5 Z"/></g>
<g><path style="opacity:1" fill="#209af9" d="M 117.5,186.5 C 119.5,186.5 121.5,186.5 123.5,186.5C 118.871,194.81 114.204,203.144 109.5,211.5C 107.214,211.405 105.214,210.738 103.5,209.5C 108.906,202.369 113.572,194.702 117.5,186.5 Z"/></g>
<g><path style="opacity:1" fill="#24b6f9" d="M 123.5,186.5 C 125.167,186.5 126.833,186.5 128.5,186.5C 123.044,192.809 118.544,199.809 115,207.5C 114.559,210.244 115.059,212.244 116.5,213.5C 113.772,213.829 111.438,213.163 109.5,211.5C 114.204,203.144 118.871,194.81 123.5,186.5 Z"/></g>
<g><path style="opacity:1" fill="#1e09fe" d="M 86.5,186.5 C 88.1667,186.5 89.8333,186.5 91.5,186.5C 94.1667,186.5 96.8333,186.5 99.5,186.5C 100.167,186.5 100.833,186.5 101.5,186.5C 102.675,186.281 103.675,186.614 104.5,187.5C 102.601,189.933 101.101,192.6 100,195.5C 96.1629,198.648 92.3296,201.648 88.5,204.5C 88.1667,204.5 87.8333,204.5 87.5,204.5C 86.6182,202.916 85.7848,201.249 85,199.5C 82.81,202.249 81.1433,201.915 80,198.5C 79.2825,199.451 78.4491,199.617 77.5,199C 78.5704,196.258 80.0704,193.758 82,191.5C 82.49,190.207 82.6567,188.873 82.5,187.5C 84.099,187.768 85.4324,187.434 86.5,186.5 Z"/></g>
<g><path style="opacity:1" fill="#0cfe22" d="M 162.5,186.5 C 166.833,186.5 171.167,186.5 175.5,186.5C 178.167,186.5 180.833,186.5 183.5,186.5C 183.5,186.833 183.5,187.167 183.5,187.5C 180.32,192.694 176.32,197.361 171.5,201.5C 167.33,208.923 163.663,216.589 160.5,224.5C 157.355,225.311 154.355,225.645 151.5,225.5C 151.167,225.5 150.833,225.5 150.5,225.5C 148.709,223.816 147.209,221.816 146,219.5C 145.465,221.271 144.631,221.604 143.5,220.5C 147.86,209.82 152.193,199.153 156.5,188.5C 158.631,187.831 160.631,187.165 162.5,186.5 Z"/></g>
<g><path style="opacity:1" fill="#2c68f5" d="M 111.5,186.5 C 113.5,186.5 115.5,186.5 117.5,186.5C 113.572,194.702 108.906,202.369 103.5,209.5C 100.072,208.49 96.7387,207.49 93.5,206.5C 94.1894,205.226 95.0228,205.226 96,206.5C 101.491,202.677 105.491,197.677 108,191.5C 110.556,190.781 111.723,189.114 111.5,186.5 Z"/></g>
<g><path style="opacity:1" fill="#2bf7e2" d="M 134.5,186.5 C 138.167,186.5 141.833,186.5 145.5,186.5C 143.909,187.219 142.409,188.219 141,189.5C 136.361,197.946 131.861,206.446 127.5,215C 128.429,216.077 129.096,217.244 129.5,218.5C 125.013,217.008 120.68,215.342 116.5,213.5C 117.675,213.719 118.675,213.386 119.5,212.5C 125.031,204.1 130.031,195.434 134.5,186.5 Z"/></g>
<g><path style="opacity:1" fill="#1dfab4" d="M 145.5,186.5 C 146.5,186.5 147.5,186.5 148.5,186.5C 148.833,186.5 149.167,186.5 149.5,186.5C 145.129,191.379 142.295,197.045 141,203.5C 136.204,207.445 133.371,212.445 132.5,218.5C 134.911,218.863 136.411,217.863 137,215.5C 137.494,217.134 137.66,218.801 137.5,220.5C 134.627,220.198 131.961,219.531 129.5,218.5C 129.096,217.244 128.429,216.077 127.5,215C 131.861,206.446 136.361,197.946 141,189.5C 142.409,188.219 143.909,187.219 145.5,186.5 Z"/></g>
<g><path style="opacity:1" fill="#19fc7f" d="M 149.5,186.5 C 153.167,186.5 156.833,186.5 160.5,186.5C 161.167,186.5 161.833,186.5 162.5,186.5C 160.631,187.165 158.631,187.831 156.5,188.5C 152.193,199.153 147.86,209.82 143.5,220.5C 144.631,221.604 145.465,221.271 146,219.5C 147.209,221.816 148.709,223.816 150.5,225.5C 145.989,224.069 141.655,222.402 137.5,220.5C 137.66,218.801 137.494,217.134 137,215.5C 136.411,217.863 134.911,218.863 132.5,218.5C 133.371,212.445 136.204,207.445 141,203.5C 142.295,197.045 145.129,191.379 149.5,186.5 Z"/></g>
<g><path style="opacity:1" fill="#4cff00" d="M 183.5,187.5 C 186.247,187.187 188.914,187.52 191.5,188.5C 188,194.172 184.167,199.505 180,204.5C 178.873,208.75 177.207,212.75 175,216.5C 171.277,218.557 168.61,221.557 167,225.5C 168.027,219.53 167.194,219.197 164.5,224.5C 163.252,225.04 162.085,225.707 161,226.5C 160.536,225.906 160.369,225.239 160.5,224.5C 163.663,216.589 167.33,208.923 171.5,201.5C 176.32,197.361 180.32,192.694 183.5,187.5 Z"/></g>
<g><path style="opacity:1" fill="#f2590c" d="M 227.5,202.5 C 225.372,211.333 223.038,219.999 220.5,228.5C 219.549,227.081 219.216,225.415 219.5,223.5C 217.097,223.393 215.264,224.393 214,226.5C 210.863,232.12 208.029,237.787 205.5,243.5C 202.011,242.342 198.678,241.009 195.5,239.5C 196.167,239.5 196.833,239.5 197.5,239.5C 200.263,239.256 202.429,237.923 204,235.5C 209.537,226.62 215.871,218.287 223,210.5C 223.986,208.222 224.82,205.889 225.5,203.5C 225.957,202.702 226.624,202.369 227.5,202.5 Z"/></g>
<g><path style="opacity:1" fill="#99fc03" d="M 183.5,187.5 C 183.5,187.167 183.5,186.833 183.5,186.5C 185.5,186.5 187.5,186.5 189.5,186.5C 192.5,186.5 195.5,186.5 198.5,186.5C 199.167,186.5 199.833,186.5 200.5,186.5C 200.918,187.222 201.584,187.722 202.5,188C 198.056,196.386 193.223,204.553 188,212.5C 185.032,220.171 180.198,226.505 173.5,231.5C 171.965,230.646 170.632,230.646 169.5,231.5C 163.42,229.445 157.42,227.445 151.5,225.5C 154.355,225.645 157.355,225.311 160.5,224.5C 160.369,225.239 160.536,225.906 161,226.5C 162.085,225.707 163.252,225.04 164.5,224.5C 167.194,219.197 168.027,219.53 167,225.5C 168.61,221.557 171.277,218.557 175,216.5C 177.207,212.75 178.873,208.75 180,204.5C 184.167,199.505 188,194.172 191.5,188.5C 188.914,187.52 186.247,187.187 183.5,187.5 Z"/></g>
<g><path style="opacity:1" fill="#fc7b03" d="M 230.5,187.5 C 229.708,192.542 228.708,197.542 227.5,202.5C 226.624,202.369 225.957,202.702 225.5,203.5C 224.82,205.889 223.986,208.222 223,210.5C 215.871,218.287 209.537,226.62 204,235.5C 202.429,237.923 200.263,239.256 197.5,239.5C 199.223,236.66 200.557,233.66 201.5,230.5C 205.916,226.315 209.249,221.315 211.5,215.5C 214.122,213.589 216.289,211.255 218,208.5C 218.422,204.991 219.422,201.657 221,198.5C 224.193,194.703 227.359,191.037 230.5,187.5 Z"/></g>
<g><path style="opacity:1" fill="#fce803" d="M 213.5,186.5 C 215.167,186.5 216.833,186.5 218.5,186.5C 218.244,188.937 217.577,191.271 216.5,193.5C 211.763,197.851 208.596,203.184 207,209.5C 203.861,212.337 201.027,215.503 198.5,219C 197.237,224.255 195.071,229.089 192,233.5C 190.492,235.838 188.325,236.838 185.5,236.5C 183.447,236.598 181.78,235.931 180.5,234.5C 184.195,231.523 187.695,228.19 191,224.5C 199.152,212.19 206.652,199.523 213.5,186.5 Z"/></g>
<g><path style="opacity:0.027" fill="#7c422b" d="M 173.5,231.5 C 173.5,231.833 173.5,232.167 173.5,232.5C 171.901,232.768 170.568,232.434 169.5,231.5C 170.632,230.646 171.965,230.646 173.5,231.5 Z"/></g>
<g><path style="opacity:1" fill="#f33909" d="M 220.5,228.5 C 219.44,233.196 218.273,237.862 217,242.5C 213.517,246.16 209.684,246.494 205.5,243.5C 208.029,237.787 210.863,232.12 214,226.5C 215.264,224.393 217.097,223.393 219.5,223.5C 219.216,225.415 219.549,227.081 220.5,228.5 Z"/></g>
</svg>
