<?xml version="1.0" encoding="UTF-8"?>
<!DOCTYPE svg PUBLIC "-//W3C//DTD SVG 1.1//EN" "http://www.w3.org/Graphics/SVG/1.1/DTD/svg11.dtd">
<svg xmlns="http://www.w3.org/2000/svg" version="1.1" width="256px" height="256px" style="shape-rendering:geometricPrecision; text-rendering:geometricPrecision; image-rendering:optimizeQuality; fill-rule:evenodd; clip-rule:evenodd" xmlns:xlink="http://www.w3.org/1999/xlink">
<g><path style="opacity:1" fill="#a29fc3" d="M 122.5,30.5 C 120.264,29.6109 118.264,28.2776 116.5,26.5C 115.817,26.8627 115.15,27.1961 114.5,27.5C 114.415,26.0047 115.081,25.0047 116.5,24.5C 118.854,26.1878 120.854,28.1878 122.5,30.5 Z"/></g>
<g><path style="opacity:0.447" fill="#9f9cc1" d="M 129.5,37.5 C 133.833,41.1667 137.833,45.1667 141.5,49.5C 139.938,49.2671 138.605,48.6005 137.5,47.5C 137.5,46.8333 137.167,46.5 136.5,46.5C 135.833,45.1667 134.833,44.1667 133.5,43.5C 133.167,42.5 132.5,41.8333 131.5,41.5C 130.4,40.3951 129.733,39.0618 129.5,37.5 Z"/></g>
<g><path style="opacity:1" fill="#fe9905" d="M 133.5,43.5 C 134.833,44.1667 135.833,45.1667 136.5,46.5C 126.201,52.9565 115.534,58.7898 104.5,64C 97.1915,70.3244 89.1915,75.6578 80.5,80C 79.6195,80.7083 78.9528,81.5416 78.5,82.5C 77.1667,81.8333 76.1667,80.8333 75.5,79.5C 75.5,79.1667 75.5,78.8333 75.5,78.5C 82.1358,72.6153 89.8025,68.6153 98.5,66.5C 109.885,58.4565 121.552,50.7898 133.5,43.5 Z"/></g>
<g><path style="opacity:1" fill="#ff5201" d="M 125.5,33.5 C 127.167,34.5 128.5,35.8333 129.5,37.5C 129.733,39.0618 130.4,40.3951 131.5,41.5C 120.121,46.8429 109.455,53.3429 99.5,61C 96.3599,62.7157 93.0266,64.049 89.5,65C 87.2542,66.2568 85.9209,68.0901 85.5,70.5C 81.5421,72.4789 77.5421,74.4789 73.5,76.5C 70.2742,75.1233 69.9409,73.4566 72.5,71.5C 74.9053,70.3129 77.2387,68.8129 79.5,67C 83.4421,67.0634 86.4421,65.3968 88.5,62C 96.3345,58.25 104.001,54.25 111.5,50C 116.955,46.0522 122.288,41.8855 127.5,37.5C 127.154,36.3044 126.654,36.3044 126,37.5C 125.51,36.2068 125.343,34.8734 125.5,33.5 Z"/></g>
<g><path style="opacity:0.447" fill="#b0adcb" d="M 143.5,51.5 C 153.555,60.5532 162.888,70.2199 171.5,80.5C 171.167,80.5 170.833,80.5 170.5,80.5C 169.833,79.1667 168.833,78.1667 167.5,77.5C 167.5,76.8333 167.167,76.5 166.5,76.5C 163.833,73.1667 160.833,70.1667 157.5,67.5C 156.833,66.1667 155.833,65.1667 154.5,64.5C 153.5,62.8333 152.167,61.5 150.5,60.5C 150.167,59.5 149.5,58.8333 148.5,58.5C 148.167,57.5 147.5,56.8333 146.5,56.5C 145.5,55.1667 144.5,53.8333 143.5,52.5C 143.5,52.1667 143.5,51.8333 143.5,51.5 Z"/></g>
<g><path style="opacity:0.588" fill="#8e8ab8" d="M 89.5,52.5 C 87.8333,56.1667 85.1667,58.8333 81.5,60.5C 83.8333,57.5 86.5,54.8333 89.5,52.5 Z"/></g>
<g><path style="opacity:1" fill="#ff7400" d="M 131.5,41.5 C 132.5,41.8333 133.167,42.5 133.5,43.5C 121.552,50.7898 109.885,58.4565 98.5,66.5C 89.8025,68.6153 82.1358,72.6153 75.5,78.5C 74.5,78.1667 73.8333,77.5 73.5,76.5C 77.5421,74.4789 81.5421,72.4789 85.5,70.5C 85.9209,68.0901 87.2542,66.2568 89.5,65C 93.0266,64.049 96.3599,62.7157 99.5,61C 109.455,53.3429 120.121,46.8429 131.5,41.5 Z"/></g>
<g><path style="opacity:1" fill="#fd300e" d="M 122.5,30.5 C 123.833,31.1667 124.833,32.1667 125.5,33.5C 125.343,34.8734 125.51,36.2068 126,37.5C 126.654,36.3044 127.154,36.3044 127.5,37.5C 122.288,41.8855 116.955,46.0522 111.5,50C 104.001,54.25 96.3345,58.25 88.5,62C 86.4421,65.3968 83.4421,67.0634 79.5,67C 77.2387,68.8129 74.9053,70.3129 72.5,71.5C 73.925,70.078 74.925,68.4113 75.5,66.5C 77.1667,64.1667 79.1667,62.1667 81.5,60.5C 85.1667,58.8333 87.8333,56.1667 89.5,52.5C 97.5,43.8333 105.833,35.5 114.5,27.5C 115.15,27.1961 115.817,26.8627 116.5,26.5C 118.264,28.2776 120.264,29.6109 122.5,30.5 Z"/></g>
<g><path style="opacity:1" fill="#feb907" d="M 136.5,46.5 C 137.167,46.5 137.5,46.8333 137.5,47.5C 130.629,51.8827 123.962,56.5494 117.5,61.5C 110.729,62.7639 105.396,66.2639 101.5,72C 98.6889,73.8247 95.6889,75.158 92.5,76C 90.0989,79.0637 87.0989,81.397 83.5,83C 82.2617,83.69 82.2617,84.19 83.5,84.5C 83.1667,85.1667 82.8333,85.8333 82.5,86.5C 80.8333,85.5 79.5,84.1667 78.5,82.5C 78.9528,81.5416 79.6195,80.7083 80.5,80C 89.1915,75.6578 97.1915,70.3244 104.5,64C 115.534,58.7898 126.201,52.9565 136.5,46.5 Z"/></g>
<g><path style="opacity:1" fill="#bdff00" d="M 146.5,56.5 C 147.5,56.8333 148.167,57.5 148.5,58.5C 141.889,60.9452 136.223,64.7785 131.5,70C 124.332,74.0827 117.332,78.4161 110.5,83C 108.5,83.3333 106.5,83.6667 104.5,84C 99.8245,87.1821 94.8245,89.6821 89.5,91.5C 88.5,91.1667 87.8333,90.5 87.5,89.5C 89.0495,88.5592 90.7162,87.8925 92.5,87.5C 94.4817,87.0046 96.4817,86.5046 98.5,86C 105.074,81.3402 111.741,76.6735 118.5,72C 120.957,70.4379 123.624,69.4379 126.5,69C 128.539,66.6255 130.872,64.6255 133.5,63C 138.172,61.491 142.505,59.3243 146.5,56.5 Z"/></g>
<g><path style="opacity:1" fill="#deff00" d="M 143.5,52.5 C 144.5,53.8333 145.5,55.1667 146.5,56.5C 142.505,59.3243 138.172,61.491 133.5,63C 130.872,64.6255 128.539,66.6255 126.5,69C 123.624,69.4379 120.957,70.4379 118.5,72C 111.741,76.6735 105.074,81.3402 98.5,86C 96.4817,86.5046 94.4817,87.0046 92.5,87.5C 94.6339,85.5298 96.6339,83.3631 98.5,81C 113.411,71.2346 128.411,61.7346 143.5,52.5 Z"/></g>
<g><path style="opacity:1" fill="#aaa8c8" d="M 75.5,66.5 C 74.925,68.4113 73.925,70.078 72.5,71.5C 69.9409,73.4566 70.2742,75.1233 73.5,76.5C 73.8333,77.5 74.5,78.1667 75.5,78.5C 75.5,78.8333 75.5,79.1667 75.5,79.5C 72.5927,78.2659 70.2593,76.2659 68.5,73.5C 70.5211,70.8122 72.8544,68.4789 75.5,66.5 Z"/></g>
<g><path style="opacity:1" fill="#ffd803" d="M 137.5,47.5 C 138.605,48.6005 139.938,49.2671 141.5,49.5C 142.5,49.8333 143.167,50.5 143.5,51.5C 134.073,53.8815 125.74,58.3815 118.5,65C 111.651,68.1287 104.984,71.462 98.5,75C 96.1667,76 94.5,77.6667 93.5,80C 90.0085,81.3703 86.6752,82.8703 83.5,84.5C 82.2617,84.19 82.2617,83.69 83.5,83C 87.0989,81.397 90.0989,79.0637 92.5,76C 95.6889,75.158 98.6889,73.8247 101.5,72C 105.396,66.2639 110.729,62.7639 117.5,61.5C 123.962,56.5494 130.629,51.8827 137.5,47.5 Z"/></g>
<g><path style="opacity:1" fill="#9cff00" d="M 148.5,58.5 C 149.5,58.8333 150.167,59.5 150.5,60.5C 145.678,61.7411 141.678,64.2411 138.5,68C 136.975,69.0086 135.308,69.5086 133.5,69.5C 133.5,70.5 133.5,71.5 133.5,72.5C 131.692,72.4914 130.025,72.9914 128.5,74C 117.081,82.0629 105.081,88.8963 92.5,94.5C 91.1667,93.8333 90.1667,92.8333 89.5,91.5C 94.8245,89.6821 99.8245,87.1821 104.5,84C 106.5,83.6667 108.5,83.3333 110.5,83C 117.332,78.4161 124.332,74.0827 131.5,70C 136.223,64.7785 141.889,60.9452 148.5,58.5 Z"/></g>
<g><path style="opacity:1" fill="#08fe1d" d="M 157.5,67.5 C 160.833,70.1667 163.833,73.1667 166.5,76.5C 147.388,88.0102 128.388,99.3435 109.5,110.5C 108.833,110.5 108.167,110.5 107.5,110.5C 106.5,107.5 104.5,105.5 101.5,104.5C 101.167,103.833 100.833,103.167 100.5,102.5C 112.011,96.1552 123.177,89.1552 134,81.5C 141.82,78.1988 149.32,74.1988 156.5,69.5C 157.298,69.0431 157.631,68.3764 157.5,67.5 Z"/></g>
<g><path style="opacity:1" fill="#ff00c2" d="M 69.5,79.5 C 69.5,112.833 69.5,146.167 69.5,179.5C 68.9924,181.233 68.159,181.566 67,180.5C 66.3333,145.833 66.3333,111.167 67,76.5C 68.045,77.3734 68.8783,78.3734 69.5,79.5 Z"/></g>
<g><path style="opacity:1" fill="#43ff00" d="M 154.5,64.5 C 155.833,65.1667 156.833,66.1667 157.5,67.5C 157.631,68.3764 157.298,69.0431 156.5,69.5C 149.32,74.1988 141.82,78.1988 134,81.5C 123.177,89.1552 112.011,96.1552 100.5,102.5C 98.5,101.167 96.8333,99.5 95.5,97.5C 101.347,94.5238 107.347,91.6904 113.5,89C 123.093,84.1692 132.093,78.3359 140.5,71.5C 145.499,69.6673 150.165,67.3339 154.5,64.5 Z"/></g>
<g><path style="opacity:1" fill="#f800f9" d="M 69.5,79.5 C 70.5,79.8333 71.1667,80.5 71.5,81.5C 71.5,113.5 71.5,145.5 71.5,177.5C 71.1667,178.5 70.5,179.167 69.5,179.5C 69.5,146.167 69.5,112.833 69.5,79.5 Z"/></g>
<g><path style="opacity:1" fill="#c300ff" d="M 71.5,81.5 C 72.8333,82.1667 73.8333,83.1667 74.5,84.5C 74.5,114.5 74.5,144.5 74.5,174.5C 73.8333,175.833 72.8333,176.833 71.5,177.5C 71.5,145.5 71.5,113.5 71.5,81.5 Z"/></g>
<g><path style="opacity:1" fill="#8000ff" d="M 74.5,84.5 C 75.4916,84.3284 76.1583,84.6618 76.5,85.5C 76.5,114.5 76.5,143.5 76.5,172.5C 76.1667,173.5 75.5,174.167 74.5,174.5C 74.5,144.5 74.5,114.5 74.5,84.5 Z"/></g>
<g><path style="opacity:1" fill="#f8fb00" d="M 143.5,51.5 C 143.5,51.8333 143.5,52.1667 143.5,52.5C 128.411,61.7346 113.411,71.2346 98.5,81C 96.6339,83.3631 94.6339,85.5298 92.5,87.5C 90.7162,87.8925 89.0495,88.5592 87.5,89.5C 86.078,88.075 84.4113,87.075 82.5,86.5C 82.8333,85.8333 83.1667,85.1667 83.5,84.5C 86.6752,82.8703 90.0085,81.3703 93.5,80C 94.5,77.6667 96.1667,76 98.5,75C 104.984,71.462 111.651,68.1287 118.5,65C 125.74,58.3815 134.073,53.8815 143.5,51.5 Z"/></g>
<g><path style="opacity:1" fill="#75ff00" d="M 150.5,60.5 C 152.167,61.5 153.5,62.8333 154.5,64.5C 150.165,67.3339 145.499,69.6673 140.5,71.5C 132.093,78.3359 123.093,84.1692 113.5,89C 107.347,91.6904 101.347,94.5238 95.5,97.5C 94.1667,96.8333 93.1667,95.8333 92.5,94.5C 105.081,88.8963 117.081,82.0629 128.5,74C 130.025,72.9914 131.692,72.4914 133.5,72.5C 133.5,71.5 133.5,70.5 133.5,69.5C 135.308,69.5086 136.975,69.0086 138.5,68C 141.678,64.2411 145.678,61.7411 150.5,60.5 Z"/></g>
<g><path style="opacity:0.588" fill="#aba8c9" d="M 82.5,86.5 C 84.4113,87.075 86.078,88.075 87.5,89.5C 87.8333,90.5 88.5,91.1667 89.5,91.5C 90.1667,92.8333 91.1667,93.8333 92.5,94.5C 93.1667,95.8333 94.1667,96.8333 95.5,97.5C 96.8333,99.5 98.5,101.167 100.5,102.5C 100.833,103.167 101.167,103.833 101.5,104.5C 94.5561,99.2249 88.2228,93.2249 82.5,86.5 Z"/></g>
<g><path style="opacity:1" fill="#00fe55" d="M 166.5,76.5 C 167.167,76.5 167.5,76.8333 167.5,77.5C 159.034,83.2378 150.367,88.7378 141.5,94C 138.879,97.9505 135.212,100.284 130.5,101C 125.461,106.438 119.294,109.938 112,111.5C 110.93,111.472 110.097,111.139 109.5,110.5C 128.388,99.3435 147.388,88.0102 166.5,76.5 Z"/></g>
<g><path style="opacity:1" fill="#290fff" d="M 76.5,85.5 C 79.1667,87.5 81.5,89.8333 83.5,92.5C 83.5,117.167 83.5,141.833 83.5,166.5C 81.7607,169.243 79.4274,171.243 76.5,172.5C 76.5,143.5 76.5,114.5 76.5,85.5 Z"/></g>
<g><path style="opacity:1" fill="#089dff" d="M 85.5,94.5 C 86.8333,95.1667 87.8333,96.1667 88.5,97.5C 88.5,118.833 88.5,140.167 88.5,161.5C 87.8333,162.833 86.8333,163.833 85.5,164.5C 85.5,141.167 85.5,117.833 85.5,94.5 Z"/></g>
<g><path style="opacity:1" fill="#02fe90" d="M 170.5,80.5 C 170.833,80.5 171.167,80.5 171.5,80.5C 171.649,81.552 171.483,82.552 171,83.5C 165.718,89.5576 159.218,93.7242 151.5,96C 147.853,99.3339 143.52,101.334 138.5,102C 132.855,106.154 126.855,109.654 120.5,112.5C 123.891,107.624 128.558,104.458 134.5,103C 142.51,97.9615 150.177,92.6282 157.5,87C 161.619,84.2739 165.952,82.1072 170.5,80.5 Z"/></g>
<g><path style="opacity:1" fill="#03e0ff" d="M 88.5,97.5 C 89.5,97.8333 90.1667,98.5 90.5,99.5C 90.5,119.5 90.5,139.5 90.5,159.5C 90.1667,160.5 89.5,161.167 88.5,161.5C 88.5,140.167 88.5,118.833 88.5,97.5 Z"/></g>
<g><path style="opacity:1" fill="#0f93fe" d="M 187.5,96.5 C 188.833,97.1667 189.833,98.1667 190.5,99.5C 179.869,102.596 170.536,108.096 162.5,116C 156.5,118.667 150.5,121.333 144.5,124C 136.282,129.056 127.949,133.889 119.5,138.5C 120.5,137.167 121.5,135.833 122.5,134.5C 144.198,121.498 165.865,108.832 187.5,96.5 Z"/></g>
<g><path style="opacity:1" fill="#02fdf0" d="M 90.5,99.5 C 91.5,99.8333 92.1667,100.5 92.5,101.5C 92.5,120.167 92.5,138.833 92.5,157.5C 92.1667,158.5 91.5,159.167 90.5,159.5C 90.5,139.5 90.5,119.5 90.5,99.5 Z"/></g>
<g><path style="opacity:1" fill="#13b1fe" d="M 183.5,92.5 C 185.167,93.5 186.5,94.8333 187.5,96.5C 165.865,108.832 144.198,121.498 122.5,134.5C 123.167,133.167 124.167,132.167 125.5,131.5C 127.048,131.179 127.715,130.179 127.5,128.5C 129.824,128.338 131.491,127.172 132.5,125C 140.901,122.965 147.901,118.631 153.5,112C 158.147,109.823 162.814,107.49 167.5,105C 172.682,100.583 178.016,96.4166 183.5,92.5 Z"/></g>
<g><path style="opacity:1" fill="#02febf" d="M 92.5,101.5 C 93.5,101.833 94.1667,102.5 94.5,103.5C 94.5,120.833 94.5,138.167 94.5,155.5C 94.1667,156.5 93.5,157.167 92.5,157.5C 92.5,138.833 92.5,120.167 92.5,101.5 Z"/></g>
<g><path style="opacity:1" fill="#01e2ff" d="M 180.5,90.5 C 181.289,90.7828 181.956,91.2828 182.5,92C 181.016,93.5737 179.349,94.907 177.5,96C 168.839,101.324 160.172,106.658 151.5,112C 149.257,113.136 146.924,113.97 144.5,114.5C 150.731,109.45 157.398,104.95 164.5,101C 165.167,100 165.833,99 166.5,98C 171.528,95.9536 176.195,93.4536 180.5,90.5 Z"/></g>
<g><path style="opacity:1" fill="#02fe8c" d="M 94.5,103.5 C 95.5,103.833 96.1667,104.5 96.5,105.5C 96.5,121.5 96.5,137.5 96.5,153.5C 96.1667,154.5 95.5,155.167 94.5,155.5C 94.5,138.167 94.5,120.833 94.5,103.5 Z"/></g>
<g><path style="opacity:0.231" fill="#9798bb" d="M 101.5,104.5 C 104.5,105.5 106.5,107.5 107.5,110.5C 105.167,108.833 103.167,106.833 101.5,104.5 Z"/></g>
<g><path style="opacity:1" fill="#2560fd" d="M 192.5,101.5 C 194.167,102.5 195.5,103.833 196.5,105.5C 190.209,102.296 185.209,103.796 181.5,110C 175.246,112.57 169.246,115.403 163.5,118.5C 164.635,117.526 165.635,116.359 166.5,115C 174.085,110.291 181.585,105.458 189,100.5C 189.953,102.373 191.12,102.706 192.5,101.5 Z"/></g>
<g><path style="opacity:1" fill="#01fe63" d="M 96.5,105.5 C 97.4916,105.328 98.1583,105.662 98.5,106.5C 98.5,121.5 98.5,136.5 98.5,151.5C 98.1667,152.5 97.5,153.167 96.5,153.5C 96.5,137.5 96.5,121.5 96.5,105.5 Z"/></g>
<g><path style="opacity:1" fill="#2ccbfd" d="M 177.5,86.5 C 180.5,87.5 182.5,89.5 183.5,92.5C 178.016,96.4166 172.682,100.583 167.5,105C 162.814,107.49 158.147,109.823 153.5,112C 147.901,118.631 140.901,122.965 132.5,125C 131.491,127.172 129.824,128.338 127.5,128.5C 127.715,130.179 127.048,131.179 125.5,131.5C 125.804,130.85 126.137,130.183 126.5,129.5C 125.476,128.148 124.476,126.815 123.5,125.5C 128.154,126.003 131.487,124.169 133.5,120C 137.31,118.401 140.976,116.568 144.5,114.5C 146.924,113.97 149.257,113.136 151.5,112C 160.172,106.658 168.839,101.324 177.5,96C 179.349,94.907 181.016,93.5737 182.5,92C 181.956,91.2828 181.289,90.7828 180.5,90.5C 179.5,89.1667 178.5,87.8333 177.5,86.5 Z"/></g>
<g><path style="opacity:1" fill="#0efe74" d="M 167.5,77.5 C 168.833,78.1667 169.833,79.1667 170.5,80.5C 165.952,82.1072 161.619,84.2739 157.5,87C 150.177,92.6282 142.51,97.9615 134.5,103C 128.558,104.458 123.891,107.624 120.5,112.5C 118.5,113.5 116.5,114.5 114.5,115.5C 113.395,114.4 112.062,113.733 110.5,113.5C 109.167,112.833 108.167,111.833 107.5,110.5C 108.167,110.5 108.833,110.5 109.5,110.5C 110.097,111.139 110.93,111.472 112,111.5C 119.294,109.938 125.461,106.438 130.5,101C 135.212,100.284 138.879,97.9505 141.5,94C 150.367,88.7378 159.034,83.2378 167.5,77.5 Z"/></g>
<g><path style="opacity:0.447" fill="#b1aecc" d="M 110.5,113.5 C 112.062,113.733 113.395,114.4 114.5,115.5C 115.5,117.167 116.833,118.5 118.5,119.5C 119.5,120.833 120.5,122.167 121.5,123.5C 117.229,120.899 113.563,117.566 110.5,113.5 Z"/></g>
<g><path style="opacity:1" fill="#0ff7fa" d="M 175.5,84.5 C 176.5,84.8333 177.167,85.5 177.5,86.5C 178.5,87.8333 179.5,89.1667 180.5,90.5C 176.195,93.4536 171.528,95.9536 166.5,98C 165.833,99 165.167,100 164.5,101C 157.398,104.95 150.731,109.45 144.5,114.5C 140.976,116.568 137.31,118.401 133.5,120C 131.487,124.169 128.154,126.003 123.5,125.5C 122.5,125.167 121.833,124.5 121.5,123.5C 132.249,117.524 142.749,110.857 153,103.5C 153.309,102.234 153.809,101.067 154.5,100C 159.098,97.7299 163.431,95.0632 167.5,92C 172.571,91.931 175.237,89.431 175.5,84.5 Z"/></g>
<g><path style="opacity:1" fill="#37ff0f" d="M 98.5,106.5 C 101.5,108.833 104.167,111.5 106.5,114.5C 106.5,124.5 106.5,134.5 106.5,144.5C 104.431,147.573 101.764,149.906 98.5,151.5C 98.5,136.5 98.5,121.5 98.5,106.5 Z"/></g>
<g><path style="opacity:1" fill="#a1ff00" d="M 106.5,114.5 C 107.5,114.833 108.167,115.5 108.5,116.5C 108.5,125.167 108.5,133.833 108.5,142.5C 108.167,143.5 107.5,144.167 106.5,144.5C 106.5,134.5 106.5,124.5 106.5,114.5 Z"/></g>
<g><path style="opacity:1" fill="#dbfc00" d="M 108.5,116.5 C 110.167,117.5 111.5,118.833 112.5,120.5C 112.5,126.5 112.5,132.5 112.5,138.5C 111.5,140.167 110.167,141.5 108.5,142.5C 108.5,133.833 108.5,125.167 108.5,116.5 Z"/></g>
<g><path style="opacity:1" fill="#04feac" d="M 171.5,80.5 C 172.5,80.8333 173.167,81.5 173.5,82.5C 172.91,83.766 172.41,85.0993 172,86.5C 163.924,92.0808 155.424,96.9141 146.5,101C 141.825,106.643 135.825,110.31 128.5,112C 125.879,115.455 122.546,117.955 118.5,119.5C 116.833,118.5 115.5,117.167 114.5,115.5C 116.5,114.5 118.5,113.5 120.5,112.5C 126.855,109.654 132.855,106.154 138.5,102C 143.52,101.334 147.853,99.3339 151.5,96C 159.218,93.7242 165.718,89.5576 171,83.5C 171.483,82.552 171.649,81.552 171.5,80.5 Z"/></g>
<g><path style="opacity:1" fill="#06fed6" d="M 173.5,82.5 C 174.5,82.8333 175.167,83.5 175.5,84.5C 175.237,89.431 172.571,91.931 167.5,92C 163.431,95.0632 159.098,97.7299 154.5,100C 153.809,101.067 153.309,102.234 153,103.5C 142.749,110.857 132.249,117.524 121.5,123.5C 120.5,122.167 119.5,120.833 118.5,119.5C 122.546,117.955 125.879,115.455 128.5,112C 135.825,110.31 141.825,106.643 146.5,101C 155.424,96.9141 163.924,92.0808 172,86.5C 172.41,85.0993 172.91,83.766 173.5,82.5 Z"/></g>
<g><path style="opacity:0.588" fill="#9f98c2" d="M 209.5,118.5 C 213.298,121.796 216.964,125.296 220.5,129C 219.956,129.717 219.289,130.217 218.5,130.5C 218.573,128.973 217.906,127.973 216.5,127.5C 216.167,126.5 215.5,125.833 214.5,125.5C 213.167,123.5 211.5,121.833 209.5,120.5C 209.5,119.833 209.5,119.167 209.5,118.5 Z"/></g>
<g><path style="opacity:1" fill="#ffbe00" d="M 112.5,120.5 C 113.833,121.167 114.833,122.167 115.5,123.5C 115.5,127.5 115.5,131.5 115.5,135.5C 114.833,136.833 113.833,137.833 112.5,138.5C 112.5,132.5 112.5,126.5 112.5,120.5 Z"/></g>
<g><path style="opacity:1" fill="#015fff" d="M 163.5,118.5 C 156.53,123.657 149.53,128.824 142.5,134C 138.16,135.679 133.827,137.346 129.5,139C 126.464,142.696 122.797,145.696 118.5,148C 111.069,151.916 103.736,156.082 96.5,160.5C 99.2109,156.788 102.544,153.788 106.5,151.5C 123.705,141.553 140.705,131.053 157.5,120C 159.345,118.872 161.345,118.372 163.5,118.5 Z"/></g>
<g><path style="opacity:1" fill="#3a00ff" d="M 199.5,111.5 C 200.376,111.369 201.043,111.702 201.5,112.5C 198.703,114.221 196.369,116.387 194.5,119C 197.167,118 199.833,117 202.5,116C 198.842,119.661 194.509,121.995 189.5,123C 184.979,128.354 179.312,131.854 172.5,133.5C 167.419,136.082 163.085,139.582 159.5,144C 154.915,145.585 150.248,146.918 145.5,148C 136.561,155.637 126.561,161.47 115.5,165.5C 121.832,161.325 127.832,156.659 133.5,151.5C 147.961,143.769 161.961,135.269 175.5,126C 178.167,125 180.833,124 183.5,123C 189.296,119.688 194.629,115.855 199.5,111.5 Z"/></g>
<g><path style="opacity:1" fill="#ff51ff" d="M 115.5,123.5 C 118.029,125.265 120.362,127.265 122.5,129.5C 120.147,131.523 117.814,133.523 115.5,135.5C 115.5,131.5 115.5,127.5 115.5,123.5 Z"/></g>
<g><path style="opacity:1" fill="#107dfe" d="M 190.5,99.5 C 191.5,99.8333 192.167,100.5 192.5,101.5C 191.12,102.706 189.953,102.373 189,100.5C 181.585,105.458 174.085,110.291 166.5,115C 165.635,116.359 164.635,117.526 163.5,118.5C 161.345,118.372 159.345,118.872 157.5,120C 140.705,131.053 123.705,141.553 106.5,151.5C 107.925,150.078 108.925,148.411 109.5,146.5C 110.167,145.167 111.167,144.167 112.5,143.5C 115.093,142.246 117.427,140.58 119.5,138.5C 127.949,133.889 136.282,129.056 144.5,124C 150.5,121.333 156.5,118.667 162.5,116C 170.536,108.096 179.869,102.596 190.5,99.5 Z"/></g>
<g><path style="opacity:1" fill="#c500ff" d="M 209.5,120.5 C 211.5,121.833 213.167,123.5 214.5,125.5C 200.739,134.37 186.739,143.204 172.5,152C 169.956,153.092 167.289,153.759 164.5,154C 163.833,155 163.167,156 162.5,157C 157.167,160.662 151.834,164.329 146.5,168C 139.676,170.825 133.343,174.491 127.5,179C 118.479,184.542 109.146,189.375 99.5,193.5C 100.234,192.292 100.567,190.959 100.5,189.5C 110.54,184.97 119.874,179.137 128.5,172C 133.971,171.102 138.304,168.435 141.5,164C 143.833,163 146.167,162 148.5,161C 154.058,155.776 160.391,151.776 167.5,149C 169.063,148.241 170.063,147.074 170.5,145.5C 171.028,144.279 171.695,143.113 172.5,142C 176.303,139.929 179.97,137.596 183.5,135C 187.668,134.661 191.002,132.828 193.5,129.5C 198.87,126.439 204.204,123.439 209.5,120.5 Z"/></g>
<g><path style="opacity:1" fill="#0e39fe" d="M 196.5,105.5 C 197.833,106.167 198.833,107.167 199.5,108.5C 197.948,109.622 196.282,110.122 194.5,110C 196.396,108.935 196.563,108.102 195,107.5C 192.806,109.969 189.973,111.135 186.5,111C 182.616,114.707 178.283,117.874 173.5,120.5C 162.67,123.676 153.337,129.176 145.5,137C 134.906,143.796 123.906,149.796 112.5,155C 108.919,157.314 105.585,159.981 102.5,163C 101.552,163.483 100.552,163.649 99.5,163.5C 99.67,164.822 99.3366,165.989 98.5,167C 96.8333,167.333 95.1667,167.667 93.5,168C 87.3321,172.014 81.3321,176.181 75.5,180.5C 76.1667,179.5 76.8333,178.5 77.5,177.5C 78.8333,175.5 80.5,173.833 82.5,172.5C 87.4416,168.897 92.1082,164.897 96.5,160.5C 103.736,156.082 111.069,151.916 118.5,148C 122.797,145.696 126.464,142.696 129.5,139C 133.827,137.346 138.16,135.679 142.5,134C 149.53,128.824 156.53,123.657 163.5,118.5C 169.246,115.403 175.246,112.57 181.5,110C 185.209,103.796 190.209,102.296 196.5,105.5 Z"/></g>
<g><path style="opacity:0.016" fill="#cccadc" d="M 217.5,131.5 C 215.5,135.5 212.5,138.5 208.5,140.5C 210.167,138.5 211.833,136.5 213.5,134.5C 214.833,133.5 216.167,132.5 217.5,131.5 Z"/></g>
<g><path style="opacity:1" fill="#a3a1c3" d="M 122.5,134.5 C 121.5,135.833 120.5,137.167 119.5,138.5C 117.427,140.58 115.093,142.246 112.5,143.5C 115.231,139.766 118.564,136.766 122.5,134.5 Z"/></g>
<g><path style="opacity:1" fill="#035aff" d="M 83.5,92.5 C 84.5,92.8333 85.1667,93.5 85.5,94.5C 85.5,117.833 85.5,141.167 85.5,164.5C 85.1667,165.5 84.5,166.167 83.5,166.5C 83.5,141.833 83.5,117.167 83.5,92.5 Z"/></g>
<g><path style="opacity:1" fill="#0012ff" d="M 173.5,120.5 C 170.064,123.094 166.731,125.927 163.5,129C 162.552,129.483 161.552,129.649 160.5,129.5C 160.548,132.292 159.215,134.125 156.5,135C 142.5,143.667 128.5,152.333 114.5,161C 108.156,162.668 102.489,165.668 97.5,170C 94.0847,170.406 91.418,172.072 89.5,175C 87.3921,175.36 85.3921,176.027 83.5,177C 79.8982,180.441 75.8982,183.275 71.5,185.5C 71.7377,183.522 73.0711,181.855 75.5,180.5C 81.3321,176.181 87.3321,172.014 93.5,168C 95.1667,167.667 96.8333,167.333 98.5,167C 99.3366,165.989 99.67,164.822 99.5,163.5C 100.552,163.649 101.552,163.483 102.5,163C 105.585,159.981 108.919,157.314 112.5,155C 123.906,149.796 134.906,143.796 145.5,137C 153.337,129.176 162.67,123.676 173.5,120.5 Z"/></g>
<g><path style="opacity:1" fill="#1601ff" d="M 199.5,108.5 C 199.5,109.5 199.5,110.5 199.5,111.5C 194.629,115.855 189.296,119.688 183.5,123C 180.833,124 178.167,125 175.5,126C 161.961,135.269 147.961,143.769 133.5,151.5C 127.832,156.659 121.832,161.325 115.5,165.5C 111.347,169.62 106.68,173.12 101.5,176C 94.5366,178.487 88.5366,182.487 83.5,188C 81.1924,188.991 78.8591,189.824 76.5,190.5C 74.5,189.167 72.8333,187.5 71.5,185.5C 75.8982,183.275 79.8982,180.441 83.5,177C 85.3921,176.027 87.3921,175.36 89.5,175C 91.418,172.072 94.0847,170.406 97.5,170C 102.489,165.668 108.156,162.668 114.5,161C 128.5,152.333 142.5,143.667 156.5,135C 159.215,134.125 160.548,132.292 160.5,129.5C 161.552,129.649 162.552,129.483 163.5,129C 166.731,125.927 170.064,123.094 173.5,120.5C 178.283,117.874 182.616,114.707 186.5,111C 189.973,111.135 192.806,109.969 195,107.5C 196.563,108.102 196.396,108.935 194.5,110C 196.282,110.122 197.948,109.622 199.5,108.5 Z"/></g>
<g><path style="opacity:1" fill="#b4b3ce" d="M 207.5,141.5 C 192.885,157.782 177.552,173.449 161.5,188.5C 165.772,182.89 170.438,177.557 175.5,172.5C 179.5,169.167 183.167,165.5 186.5,161.5C 191.5,157.167 196.167,152.5 200.5,147.5C 202.833,145.5 205.167,143.5 207.5,141.5 Z"/></g>
<g><path style="opacity:0.302" fill="#8884a7" d="M 109.5,146.5 C 108.925,148.411 107.925,150.078 106.5,151.5C 102.544,153.788 99.2109,156.788 96.5,160.5C 92.1082,164.897 87.4416,168.897 82.5,172.5C 90.8663,163.133 99.8663,154.466 109.5,146.5 Z"/></g>
<g><path style="opacity:1" fill="#ff00ea" d="M 216.5,127.5 C 217.906,127.973 218.573,128.973 218.5,130.5C 218.5,131.167 218.167,131.5 217.5,131.5C 216.167,132.5 214.833,133.5 213.5,134.5C 212.448,134.351 211.448,134.517 210.5,135C 208.466,138.359 205.466,140.026 201.5,140C 195.5,144 189.5,148 183.5,152C 178.03,152.33 174.03,154.83 171.5,159.5C 161.35,163.156 152.35,168.656 144.5,176C 139.923,178.239 135.589,180.905 131.5,184C 125.611,185.519 120.611,188.519 116.5,193C 108.094,196.705 100.094,201.205 92.5,206.5C 91.1667,205.833 90.1667,204.833 89.5,203.5C 92.3006,202.234 95.3006,201.401 98.5,201C 138.015,176.745 177.349,152.245 216.5,127.5 Z"/></g>
<g><path style="opacity:1" fill="#5901fe" d="M 199.5,108.5 C 203.167,111.5 206.5,114.833 209.5,118.5C 208.417,118.461 207.417,118.127 206.5,117.5C 203.057,119.118 200.057,121.285 197.5,124C 193.124,123.615 189.791,125.281 187.5,129C 166.125,141.664 144.792,153.997 123.5,166C 121.787,167.378 120.453,169.045 119.5,171C 109.698,176.737 100.032,182.737 90.5,189C 86.9304,190.736 83.2638,192.236 79.5,193.5C 78.1667,192.833 77.1667,191.833 76.5,190.5C 78.8591,189.824 81.1924,188.991 83.5,188C 88.5366,182.487 94.5366,178.487 101.5,176C 106.68,173.12 111.347,169.62 115.5,165.5C 126.561,161.47 136.561,155.637 145.5,148C 150.248,146.918 154.915,145.585 159.5,144C 163.085,139.582 167.419,136.082 172.5,133.5C 179.312,131.854 184.979,128.354 189.5,123C 194.509,121.995 198.842,119.661 202.5,116C 199.833,117 197.167,118 194.5,119C 196.369,116.387 198.703,114.221 201.5,112.5C 201.043,111.702 200.376,111.369 199.5,111.5C 199.5,110.5 199.5,109.5 199.5,108.5 Z"/></g>
<g><path style="opacity:1" fill="#f100fe" d="M 214.5,125.5 C 215.5,125.833 216.167,126.5 216.5,127.5C 177.349,152.245 138.015,176.745 98.5,201C 95.3006,201.401 92.3006,202.234 89.5,203.5C 88.5,203.167 87.8333,202.5 87.5,201.5C 91.636,199.014 95.636,196.347 99.5,193.5C 109.146,189.375 118.479,184.542 127.5,179C 133.343,174.491 139.676,170.825 146.5,168C 151.834,164.329 157.167,160.662 162.5,157C 163.167,156 163.833,155 164.5,154C 167.289,153.759 169.956,153.092 172.5,152C 186.739,143.204 200.739,134.37 214.5,125.5 Z"/></g>
<g><path style="opacity:1" fill="#ff0067" d="M 186.5,161.5 C 183.167,165.5 179.5,169.167 175.5,172.5C 157.717,183.634 139.717,194.301 121.5,204.5C 125.842,201.27 130.176,197.77 134.5,194C 139.307,192.853 142.974,190.187 145.5,186C 151.948,183.862 157.615,180.529 162.5,176C 167.954,174.211 172.621,171.211 176.5,167C 180.016,165.41 183.35,163.577 186.5,161.5 Z"/></g>
<g><path style="opacity:1" fill="#8100ff" d="M 209.5,118.5 C 209.5,119.167 209.5,119.833 209.5,120.5C 204.204,123.439 198.87,126.439 193.5,129.5C 191.002,132.828 187.668,134.661 183.5,135C 179.97,137.596 176.303,139.929 172.5,142C 171.695,143.113 171.028,144.279 170.5,145.5C 164.118,147.852 157.784,150.519 151.5,153.5C 140.796,159.18 130.796,165.847 121.5,173.5C 115.81,174.009 111.143,176.509 107.5,181C 102.002,182.855 97.3352,185.855 93.5,190C 89.4024,191.632 85.7358,193.799 82.5,196.5C 81.1667,195.833 80.1667,194.833 79.5,193.5C 83.2638,192.236 86.9304,190.736 90.5,189C 100.032,182.737 109.698,176.737 119.5,171C 120.453,169.045 121.787,167.378 123.5,166C 144.792,153.997 166.125,141.664 187.5,129C 189.791,125.281 193.124,123.615 197.5,124C 200.057,121.285 203.057,119.118 206.5,117.5C 207.417,118.127 208.417,118.461 209.5,118.5 Z"/></g>
<g><path style="opacity:1" fill="#ff009d" d="M 208.5,140.5 C 208.5,141.167 208.167,141.5 207.5,141.5C 205.167,143.5 202.833,145.5 200.5,147.5C 195.937,149.949 191.937,153.116 188.5,157C 179.48,160.348 171.813,165.681 165.5,173C 155.68,178.076 146.013,183.41 136.5,189C 134.702,192.737 131.702,194.737 127.5,195C 125.486,197.345 123.153,199.345 120.5,201C 113.388,205.213 106.388,209.379 99.5,213.5C 98.5,213.167 97.8333,212.5 97.5,211.5C 98.1408,210.518 98.8075,209.518 99.5,208.5C 106.128,205.185 112.461,201.351 118.5,197C 127.437,194.392 135.103,189.726 141.5,183C 150.74,178.556 159.073,172.889 166.5,166C 170.622,163.546 174.955,161.546 179.5,160C 185.273,155.039 191.106,150.206 197,145.5C 201.169,144.35 205.003,142.683 208.5,140.5 Z"/></g>
<g><path style="opacity:1" fill="#ff0081" d="M 200.5,147.5 C 196.167,152.5 191.5,157.167 186.5,161.5C 183.35,163.577 180.016,165.41 176.5,167C 172.621,171.211 167.954,174.211 162.5,176C 157.615,180.529 151.948,183.862 145.5,186C 142.974,190.187 139.307,192.853 134.5,194C 130.176,197.77 125.842,201.27 121.5,204.5C 114.421,207.538 107.421,210.872 100.5,214.5C 99.8333,214.5 99.5,214.167 99.5,213.5C 106.388,209.379 113.388,205.213 120.5,201C 123.153,199.345 125.486,197.345 127.5,195C 131.702,194.737 134.702,192.737 136.5,189C 146.013,183.41 155.68,178.076 165.5,173C 171.813,165.681 179.48,160.348 188.5,157C 191.937,153.116 195.937,149.949 200.5,147.5 Z"/></g>
<g><path style="opacity:1" fill="#ff00bd" d="M 213.5,134.5 C 211.833,136.5 210.167,138.5 208.5,140.5C 205.003,142.683 201.169,144.35 197,145.5C 191.106,150.206 185.273,155.039 179.5,160C 174.955,161.546 170.622,163.546 166.5,166C 159.073,172.889 150.74,178.556 141.5,183C 135.103,189.726 127.437,194.392 118.5,197C 112.461,201.351 106.128,205.185 99.5,208.5C 98.8075,209.518 98.1408,210.518 97.5,211.5C 96.5,211.167 95.8333,210.5 95.5,209.5C 104.999,202.581 114.999,196.414 125.5,191C 136.569,182.802 148.236,175.635 160.5,169.5C 161.624,168.086 162.624,166.586 163.5,165C 166.407,163.391 169.073,161.558 171.5,159.5C 174.03,154.83 178.03,152.33 183.5,152C 189.5,148 195.5,144 201.5,140C 205.466,140.026 208.466,138.359 210.5,135C 211.448,134.517 212.448,134.351 213.5,134.5 Z"/></g>
<g><path style="opacity:1" fill="#aba8c8" d="M 77.5,177.5 C 76.8333,178.5 76.1667,179.5 75.5,180.5C 73.0711,181.855 71.7377,183.522 71.5,185.5C 72.8333,187.5 74.5,189.167 76.5,190.5C 77.1667,191.833 78.1667,192.833 79.5,193.5C 80.1667,194.833 81.1667,195.833 82.5,196.5C 83.8333,198.5 85.5,200.167 87.5,201.5C 87.8333,202.5 88.5,203.167 89.5,203.5C 90.1667,204.833 91.1667,205.833 92.5,206.5C 93.1667,207.833 94.1667,208.833 95.5,209.5C 95.8333,210.5 96.5,211.167 97.5,211.5C 97.8333,212.5 98.5,213.167 99.5,213.5C 99.5,214.167 99.8333,214.5 100.5,214.5C 101.833,216.5 103.5,218.167 105.5,219.5C 106.925,220.922 107.925,222.589 108.5,224.5C 95.5348,212.035 82.7015,199.369 70,186.5C 70.7533,182.23 73.2533,179.23 77.5,177.5 Z"/></g>
<g><path style="opacity:1" fill="#a900ff" d="M 170.5,145.5 C 170.063,147.074 169.063,148.241 167.5,149C 160.391,151.776 154.058,155.776 148.5,161C 146.167,162 143.833,163 141.5,164C 138.304,168.435 133.971,171.102 128.5,172C 119.874,179.137 110.54,184.97 100.5,189.5C 100.567,190.959 100.234,192.292 99.5,193.5C 95.636,196.347 91.636,199.014 87.5,201.5C 85.5,200.167 83.8333,198.5 82.5,196.5C 85.7358,193.799 89.4024,191.632 93.5,190C 97.3352,185.855 102.002,182.855 107.5,181C 111.143,176.509 115.81,174.009 121.5,173.5C 130.796,165.847 140.796,159.18 151.5,153.5C 157.784,150.519 164.118,147.852 170.5,145.5 Z"/></g>
<g><path style="opacity:1" fill="#ff00d3" d="M 171.5,159.5 C 169.073,161.558 166.407,163.391 163.5,165C 162.624,166.586 161.624,168.086 160.5,169.5C 148.236,175.635 136.569,182.802 125.5,191C 114.999,196.414 104.999,202.581 95.5,209.5C 94.1667,208.833 93.1667,207.833 92.5,206.5C 100.094,201.205 108.094,196.705 116.5,193C 120.611,188.519 125.611,185.519 131.5,184C 135.589,180.905 139.923,178.239 144.5,176C 152.35,168.656 161.35,163.156 171.5,159.5 Z"/></g>
<g><path style="opacity:1" fill="#fd221b" d="M 152.5,195.5 C 150.42,197.573 148.754,199.907 147.5,202.5C 139.833,210.833 131.833,218.833 123.5,226.5C 121.519,228.144 119.519,229.81 117.5,231.5C 116.378,230.37 115.044,229.703 113.5,229.5C 111.5,228.167 109.833,226.5 108.5,224.5C 107.925,222.589 106.925,220.922 105.5,219.5C 112.948,215.225 120.281,210.725 127.5,206C 128.071,204.795 128.738,203.628 129.5,202.5C 136.268,199.951 142.935,197.117 149.5,194C 151.797,190.702 154.797,188.702 158.5,188C 155.759,189.95 153.759,192.45 152.5,195.5 Z"/></g>
<g><path style="opacity:1" fill="#a097bd" d="M 152.5,195.5 C 153.167,195.5 153.833,195.5 154.5,195.5C 152.5,198.167 150.167,200.5 147.5,202.5C 148.754,199.907 150.42,197.573 152.5,195.5 Z"/></g>
<g><path style="opacity:1" fill="#fe0b4a" d="M 175.5,172.5 C 170.438,177.557 165.772,182.89 161.5,188.5C 159.5,191.167 157.167,193.5 154.5,195.5C 153.833,195.5 153.167,195.5 152.5,195.5C 153.759,192.45 155.759,189.95 158.5,188C 154.797,188.702 151.797,190.702 149.5,194C 142.935,197.117 136.268,199.951 129.5,202.5C 128.738,203.628 128.071,204.795 127.5,206C 120.281,210.725 112.948,215.225 105.5,219.5C 103.5,218.167 101.833,216.5 100.5,214.5C 107.421,210.872 114.421,207.538 121.5,204.5C 139.717,194.301 157.717,183.634 175.5,172.5 Z"/></g>
<g><path style="opacity:0.373" fill="#b8b6d1" d="M 123.5,226.5 C 122.266,229.407 120.266,231.741 117.5,233.5C 115.812,232.479 114.479,231.145 113.5,229.5C 115.044,229.703 116.378,230.37 117.5,231.5C 119.519,229.81 121.519,228.144 123.5,226.5 Z"/></g>
</svg>
