<?xml version="1.0" encoding="UTF-8"?>
<!DOCTYPE svg PUBLIC "-//W3C//DTD SVG 1.1//EN" "http://www.w3.org/Graphics/SVG/1.1/DTD/svg11.dtd">
<svg xmlns="http://www.w3.org/2000/svg" version="1.1" width="256px" height="256px" style="shape-rendering:geometricPrecision; text-rendering:geometricPrecision; image-rendering:optimizeQuality; fill-rule:evenodd; clip-rule:evenodd" xmlns:xlink="http://www.w3.org/1999/xlink">
<g><path style="opacity:0.004" fill="#00fffe" d="M 104.5,0.5 C 105.833,1.16667 105.833,1.16667 104.5,0.5 Z"/></g>
<g><path style="opacity:0.008" fill="#00aaa9" d="M 95.5,2.5 C 96.8333,3.16667 96.8333,3.16667 95.5,2.5 Z"/></g>
<g><path style="opacity:0.008" fill="#00aaa9" d="M 91.5,3.5 C 92.8333,4.16667 92.8333,4.16667 91.5,3.5 Z"/></g>
<g><path style="opacity:0.008" fill="#00aaa9" d="M 87.5,4.5 C 88.8333,5.16667 88.8333,5.16667 87.5,4.5 Z"/></g>
<g><path style="opacity:0.004" fill="#00fffe" d="M 164.5,4.5 C 165.833,5.16667 165.833,5.16667 164.5,4.5 Z"/></g>
<g><path style="opacity:0.008" fill="#007fff" d="M 167.5,5.5 C 168.833,6.16667 168.833,6.16667 167.5,5.5 Z"/></g>
<g><path style="opacity:0.008" fill="#007fff" d="M 170.5,6.5 C 171.833,7.16667 171.833,7.16667 170.5,6.5 Z"/></g>
<g><path style="opacity:0.008" fill="#00bfbe" d="M 79.5,7.5 C 80.8333,8.16667 80.8333,8.16667 79.5,7.5 Z"/></g>
<g><path style="opacity:0.008" fill="#007fff" d="M 173.5,7.5 C 174.833,8.16667 174.833,8.16667 173.5,7.5 Z"/></g>
<g><path style="opacity:0.008" fill="#007fff" d="M 176.5,8.5 C 177.833,9.16667 177.833,9.16667 176.5,8.5 Z"/></g>
<g><path style="opacity:0.008" fill="#007fff" d="M 70.5,11.5 C 71.8333,12.1667 71.8333,12.1667 70.5,11.5 Z"/></g>
<g><path style="opacity:0.008" fill="#00aaa9" d="M 182.5,11.5 C 183.833,12.1667 183.833,12.1667 182.5,11.5 Z"/></g>
<g><path style="opacity:0.012" fill="#0099cc" d="M 68.5,12.5 C 69.8333,13.1667 69.8333,13.1667 68.5,12.5 Z"/></g>
<g><path style="opacity:0.008" fill="#00bfbe" d="M 188.5,14.5 C 189.833,15.1667 189.833,15.1667 188.5,14.5 Z"/></g>
<g><path style="opacity:0.004" fill="#00fffe" d="M 59.5,17.5 C 60.8333,18.1667 60.8333,18.1667 59.5,17.5 Z"/></g>
<g><path style="opacity:0.008" fill="#00bfbe" d="M 193.5,17.5 C 194.833,18.1667 194.833,18.1667 193.5,17.5 Z"/></g>
<g><path style="opacity:0.008" fill="#007fff" d="M 54.5,20.5 C 55.8333,21.1667 55.8333,21.1667 54.5,20.5 Z"/></g>
<g><path style="opacity:0.004" fill="#00fffe" d="M 202.5,23.5 C 203.833,24.1667 203.833,24.1667 202.5,23.5 Z"/></g>
<g><path style="opacity:0.004" fill="#00fffe" d="M 46.5,26.5 C 47.8333,27.1667 47.8333,27.1667 46.5,26.5 Z"/></g>
<g><path style="opacity:0.008" fill="#00aaa9" d="M 206.5,26.5 C 207.833,27.1667 207.833,27.1667 206.5,26.5 Z"/></g>
<g><path style="opacity:0.004" fill="#00fffe" d="M 38.5,33.5 C 39.8333,34.1667 39.8333,34.1667 38.5,33.5 Z"/></g>
<g><path style="opacity:0.008" fill="#00aaa9" d="M 214.5,33.5 C 215.833,34.1667 215.833,34.1667 214.5,33.5 Z"/></g>
<g><path style="opacity:0.008" fill="#007fff" d="M 33.5,38.5 C 34.8333,39.1667 34.8333,39.1667 33.5,38.5 Z"/></g>
<g><path style="opacity:0.008" fill="#00807f" d="M 219.5,38.5 C 220.833,39.1667 220.833,39.1667 219.5,38.5 Z"/></g>
<g><path style="opacity:0.008" fill="#00807f" d="M 226.5,46.5 C 227.833,47.1667 227.833,47.1667 226.5,46.5 Z"/></g>
<g><path style="opacity:0.008" fill="#007fff" d="M 23.5,50.5 C 24.8333,51.1667 24.8333,51.1667 23.5,50.5 Z"/></g>
<g><path style="opacity:0.008" fill="#00807f" d="M 229.5,50.5 C 230.833,51.1667 230.833,51.1667 229.5,50.5 Z"/></g>
<g><path style="opacity:1" fill="#bac6c7" d="M 176.5,178.5 C 176.5,178.167 176.5,177.833 176.5,177.5C 177.222,177.082 177.722,176.416 178,175.5C 178.499,171.848 178.665,168.182 178.5,164.5C 180.596,161.738 182.262,158.738 183.5,155.5C 185.071,153.365 186.404,151.032 187.5,148.5C 187.557,147.391 187.89,146.391 188.5,145.5C 189.167,142.833 189.833,140.167 190.5,137.5C 190.5,136.167 190.5,134.833 190.5,133.5C 191.341,131.621 191.675,129.621 191.5,127.5C 191.806,124.615 191.473,121.948 190.5,119.5C 190.448,115.802 190.114,112.135 189.5,108.5C 188.89,107.609 188.557,106.609 188.5,105.5C 187.89,104.609 187.557,103.609 187.5,102.5C 187.167,101.5 186.5,100.833 185.5,100.5C 185.204,98.597 184.537,96.9303 183.5,95.5C 183.573,93.9731 182.906,92.9731 181.5,92.5C 181.672,91.5084 181.338,90.8417 180.5,90.5C 180.167,89.5 179.5,88.8333 178.5,88.5C 178.672,87.5084 178.338,86.8417 177.5,86.5C 176.598,84.6593 175.264,83.326 173.5,82.5C 173.167,81.5 172.5,80.8333 171.5,80.5C 168.936,76.8831 165.603,74.2164 161.5,72.5C 160.035,71.2632 158.368,70.2632 156.5,69.5C 155.609,68.8902 154.609,68.5569 153.5,68.5C 153.158,67.6618 152.492,67.3284 151.5,67.5C 149.786,66.2616 147.786,65.595 145.5,65.5C 144.791,64.596 143.791,64.2627 142.5,64.5C 141.391,64.4431 140.391,64.1098 139.5,63.5C 138.833,63.5 138.167,63.5 137.5,63.5C 136.833,63.5 136.167,63.5 135.5,63.5C 133.784,63.3713 132.117,63.038 130.5,62.5C 127.763,62.4013 125.096,62.7347 122.5,63.5C 111.395,63.8876 101.395,67.3876 92.5,74C 87.9174,75.1447 83.2508,75.8113 78.5,76C 77.5842,76.2784 76.9175,76.7784 76.5,77.5C 75.8333,77.5 75.1667,77.5 74.5,77.5C 97.4665,55.4986 124.133,49.6653 154.5,60C 188.656,77.4763 202.823,105.31 197,143.5C 193.702,157.457 186.868,169.124 176.5,178.5 Z"/></g>
<g><path style="opacity:1" fill="#fe1a03" d="M 122.5,63.5 C 117.761,66.4024 113.761,70.2357 110.5,75C 103.711,79.043 97.3772,83.543 91.5,88.5C 86.7357,84.3864 81.7357,80.7197 76.5,77.5C 76.9175,76.7784 77.5842,76.2784 78.5,76C 83.2508,75.8113 87.9174,75.1447 92.5,74C 101.395,67.3876 111.395,63.8876 122.5,63.5 Z"/></g>
<g><path style="opacity:0.008" fill="#00bfbe" d="M 13.5,66.5 C 14.8333,67.1667 14.8333,67.1667 13.5,66.5 Z"/></g>
<g><path style="opacity:1" fill="#ff5500" d="M 130.5,62.5 C 121.979,69.1153 112.979,75.282 103.5,81C 100.367,84.3957 97.0341,87.5623 93.5,90.5C 92.5,90.1667 91.8333,89.5 91.5,88.5C 97.3772,83.543 103.711,79.043 110.5,75C 113.761,70.2357 117.761,66.4024 122.5,63.5C 125.096,62.7347 127.763,62.4013 130.5,62.5 Z"/></g>
<g><path style="opacity:0.008" fill="#00bfbe" d="M 12.5,68.5 C 13.8333,69.1667 13.8333,69.1667 12.5,68.5 Z"/></g>
<g><path style="opacity:0.004" fill="#00fffe" d="M 11.5,70.5 C 12.8333,71.1667 12.8333,71.1667 11.5,70.5 Z"/></g>
<g><path style="opacity:0.004" fill="#00fffe" d="M 241.5,70.5 C 242.833,71.1667 242.833,71.1667 241.5,70.5 Z"/></g>
<g><path style="opacity:0.004" fill="#00fffe" d="M 242.5,72.5 C 243.833,73.1667 243.833,73.1667 242.5,72.5 Z"/></g>
<g><path style="opacity:1" fill="#ff9300" d="M 135.5,63.5 C 136.167,63.5 136.833,63.5 137.5,63.5C 136.71,64.7942 135.71,65.9609 134.5,67C 121.134,75.1531 108.467,83.9865 96.5,93.5C 95.5,93.1667 94.8333,92.5 94.5,91.5C 108.167,82.1667 121.833,72.8333 135.5,63.5 Z"/></g>
<g><path style="opacity:1" fill="#f1fd01" d="M 145.5,65.5 C 147.786,65.595 149.786,66.2616 151.5,67.5C 137.589,75.2231 124.589,84.3898 112.5,95C 108.964,96.7906 105.297,98.2906 101.5,99.5C 101.5,99.1667 101.5,98.8333 101.5,98.5C 108.274,93.8942 114.608,88.7276 120.5,83C 129.637,78.1166 137.971,72.2833 145.5,65.5 Z"/></g>
<g><path style="opacity:1" fill="#ff7900" d="M 130.5,62.5 C 132.117,63.038 133.784,63.3713 135.5,63.5C 121.833,72.8333 108.167,82.1667 94.5,91.5C 93.8333,91.5 93.5,91.1667 93.5,90.5C 97.0341,87.5623 100.367,84.3957 103.5,81C 112.979,75.282 121.979,69.1153 130.5,62.5 Z"/></g>
<g><path style="opacity:1" fill="#ffe800" d="M 142.5,64.5 C 143.791,64.2627 144.791,64.596 145.5,65.5C 137.971,72.2833 129.637,78.1166 120.5,83C 114.608,88.7276 108.274,93.8942 101.5,98.5C 100.5,98.1667 99.8333,97.5 99.5,96.5C 107.068,92.8851 113.735,88.0518 119.5,82C 123.5,79.6667 127.5,77.3333 131.5,75C 134.774,71.0405 138.441,67.5405 142.5,64.5 Z"/></g>
<g><path style="opacity:1" fill="#72ff00" d="M 156.5,69.5 C 158.368,70.2632 160.035,71.2632 161.5,72.5C 152.774,77.8551 144.441,83.6884 136.5,90C 132.199,90.6514 129.199,92.9847 127.5,97C 121.856,100.631 116.523,104.465 111.5,108.5C 110.128,107.488 108.795,106.488 107.5,105.5C 112.458,103.524 116.458,100.357 119.5,96C 128.992,90.222 138.659,84.722 148.5,79.5C 151.645,76.5405 154.312,73.2071 156.5,69.5 Z"/></g>
<g><path style="opacity:1" fill="#faf3f2" d="M 74.5,77.5 C 75.1667,77.5 75.8333,77.5 76.5,77.5C 81.7357,80.7197 86.7357,84.3864 91.5,88.5C 91.8333,89.5 92.5,90.1667 93.5,90.5C 93.5,91.1667 93.8333,91.5 94.5,91.5C 94.8333,92.5 95.5,93.1667 96.5,93.5C 97.1667,94.1667 97.8333,94.8333 98.5,95.5C 98.5,96.1667 98.8333,96.5 99.5,96.5C 99.8333,97.5 100.5,98.1667 101.5,98.5C 101.5,98.8333 101.5,99.1667 101.5,99.5C 102.167,100.833 103.167,101.833 104.5,102.5C 105.167,103.833 106.167,104.833 107.5,105.5C 108.795,106.488 110.128,107.488 111.5,108.5C 113.062,112.392 115.395,115.725 118.5,118.5C 118.833,119.5 119.5,120.167 120.5,120.5C 121.167,121.833 122.167,122.833 123.5,123.5C 123.833,124.5 124.5,125.167 125.5,125.5C 125.5,126.167 125.833,126.5 126.5,126.5C 126.833,127.5 127.5,128.167 128.5,128.5C 129.864,130.191 131.197,131.858 132.5,133.5C 132.5,134.167 132.833,134.5 133.5,134.5C 134.29,135.401 135.29,136.068 136.5,136.5C 137.167,137.833 138.167,138.833 139.5,139.5C 140.29,140.401 141.29,141.068 142.5,141.5C 144.833,144.5 147.5,147.167 150.5,149.5C 151.026,151.23 152.026,152.564 153.5,153.5C 153.833,154.5 154.5,155.167 155.5,155.5C 156.795,156.488 158.128,157.488 159.5,158.5C 160.545,159.878 161.878,160.878 163.5,161.5C 163.833,162.5 164.5,163.167 165.5,163.5C 166.609,163.557 167.609,163.89 168.5,164.5C 169.11,166.434 170.11,168.101 171.5,169.5C 172.436,172.671 174.103,175.338 176.5,177.5C 176.5,177.833 176.5,178.167 176.5,178.5C 176.5,179.833 175.833,180.5 174.5,180.5C 170.23,182.131 166.23,181.798 162.5,179.5C 160.833,177.167 158.833,175.167 156.5,173.5C 155.5,171.833 154.167,170.5 152.5,169.5C 151.833,168.167 150.833,167.167 149.5,166.5C 149.167,165.5 148.5,164.833 147.5,164.5C 147.167,163.5 146.5,162.833 145.5,162.5C 144.5,160.833 143.167,159.5 141.5,158.5C 140.833,157.167 139.833,156.167 138.5,155.5C 137.833,154.167 136.833,153.167 135.5,152.5C 132.833,149.167 129.833,146.167 126.5,143.5C 126.167,142.5 125.5,141.833 124.5,141.5C 124.5,140.833 124.167,140.5 123.5,140.5C 122.833,139.167 121.833,138.167 120.5,137.5C 120.5,136.833 120.167,136.5 119.5,136.5C 119.167,135.5 118.5,134.833 117.5,134.5C 116.833,133.167 115.833,132.167 114.5,131.5C 114.167,130.5 113.5,129.833 112.5,129.5C 112.5,128.833 112.167,128.5 111.5,128.5C 111.167,127.5 110.5,126.833 109.5,126.5C 108.5,124.833 107.167,123.5 105.5,122.5C 105.5,121.833 105.167,121.5 104.5,121.5C 103.833,120.167 102.833,119.167 101.5,118.5C 99.1667,115.5 96.5,112.833 93.5,110.5C 92.8333,109.167 91.8333,108.167 90.5,107.5C 90.1667,106.5 89.5,105.833 88.5,105.5C 86.8333,103.167 84.8333,101.167 82.5,99.5C 81.8333,98.1667 80.8333,97.1667 79.5,96.5C 78.1667,94.8333 76.8333,93.1667 75.5,91.5C 74.8333,87.5 74.1667,83.5 73.5,79.5C 73.3284,78.5084 73.6618,77.8417 74.5,77.5 Z"/></g>
<g><path style="opacity:0.012" fill="#0099cc" d="M 7.5,79.5 C 8.83333,80.1667 8.83333,80.1667 7.5,79.5 Z"/></g>
<g><path style="opacity:0.004" fill="#00fffe" d="M 245.5,79.5 C 246.833,80.1667 246.833,80.1667 245.5,79.5 Z"/></g>
<g><path style="opacity:1" fill="#d2ff01" d="M 151.5,67.5 C 152.492,67.3284 153.158,67.6618 153.5,68.5C 148.712,71.7327 143.712,74.7327 138.5,77.5C 137.872,79.2581 136.872,80.7581 135.5,82C 124.967,88.6871 114.634,95.5204 104.5,102.5C 103.167,101.833 102.167,100.833 101.5,99.5C 105.297,98.2906 108.964,96.7906 112.5,95C 124.589,84.3898 137.589,75.2231 151.5,67.5 Z"/></g>
<g><path style="opacity:1" fill="#bbc7c9" d="M 73.5,79.5 C 74.1667,83.5 74.8333,87.5 75.5,91.5C 71.2156,96.398 68.2156,102.065 66.5,108.5C 65.1251,111.373 64.1251,114.373 63.5,117.5C 63.5,119.833 63.5,122.167 63.5,124.5C 62.1667,126.5 62.1667,128.5 63.5,130.5C 63.5,132.5 63.5,134.5 63.5,136.5C 63.8511,139.903 64.5178,143.237 65.5,146.5C 66.3627,148.421 67.0293,150.421 67.5,152.5C 67.8333,153.167 68.1667,153.833 68.5,154.5C 68.5,155.167 68.8333,155.5 69.5,155.5C 69.6596,157.153 70.3263,158.486 71.5,159.5C 71.3284,160.492 71.6618,161.158 72.5,161.5C 73.0256,163.23 74.0256,164.564 75.5,165.5C 75.5,166.167 75.8333,166.5 76.5,166.5C 77.0798,168.749 78.4131,170.415 80.5,171.5C 80.8333,172.5 81.5,173.167 82.5,173.5C 83.5,175.167 84.8333,176.5 86.5,177.5C 87.8333,178.5 89.1667,179.5 90.5,180.5C 93.5498,182.692 96.8832,184.358 100.5,185.5C 102.214,186.738 104.214,187.405 106.5,187.5C 107.209,188.404 108.209,188.737 109.5,188.5C 110.919,189.451 112.585,189.784 114.5,189.5C 115.209,190.404 116.209,190.737 117.5,190.5C 119.5,190.5 121.5,190.5 123.5,190.5C 125.981,191.258 128.648,191.258 131.5,190.5C 134.237,190.599 136.904,190.265 139.5,189.5C 147.805,187.511 155.472,184.178 162.5,179.5C 166.23,181.798 170.23,182.131 174.5,180.5C 156.131,196.594 134.798,202.094 110.5,197C 75.8099,186.804 57.1432,163.638 54.5,127.5C 54.5971,108.847 60.9305,92.847 73.5,79.5 Z"/></g>
<g><path style="opacity:1" fill="#e6e6e6" d="M 77.5,82.5 C 80.6032,84.4233 83.6032,86.59 86.5,89C 97.446,100.104 107.779,111.604 117.5,123.5C 124.667,131.832 132.667,139.332 141.5,146C 145.52,149.885 149.186,154.052 152.5,158.5C 157.244,162.288 162.077,165.955 167,169.5C 167.639,172.112 168.806,174.446 170.5,176.5C 169.652,178.283 168.319,178.783 166.5,178C 137.333,148.833 108.167,119.667 79,90.5C 78.1785,87.8832 77.6785,85.2165 77.5,82.5 Z"/></g>
<g><path style="opacity:1" fill="#ffcf00" d="M 139.5,63.5 C 140.391,64.1098 141.391,64.4431 142.5,64.5C 138.441,67.5405 134.774,71.0405 131.5,75C 127.5,77.3333 123.5,79.6667 119.5,82C 113.735,88.0518 107.068,92.8851 99.5,96.5C 98.8333,96.5 98.5,96.1667 98.5,95.5C 101.536,92.4577 104.869,89.6244 108.5,87C 115.167,83 121.833,79 128.5,75C 131.934,70.7555 135.6,66.9221 139.5,63.5 Z"/></g>
<g><path style="opacity:1" fill="#9fff00" d="M 153.5,68.5 C 154.609,68.5569 155.609,68.8902 156.5,69.5C 154.312,73.2071 151.645,76.5405 148.5,79.5C 138.659,84.722 128.992,90.222 119.5,96C 116.458,100.357 112.458,103.524 107.5,105.5C 106.167,104.833 105.167,103.833 104.5,102.5C 114.634,95.5204 124.967,88.6871 135.5,82C 136.872,80.7581 137.872,79.2581 138.5,77.5C 143.712,74.7327 148.712,71.7327 153.5,68.5 Z"/></g>
<g><path style="opacity:0.004" fill="#00fffe" d="M 248.5,87.5 C 249.833,88.1667 249.833,88.1667 248.5,87.5 Z"/></g>
<g><path style="opacity:1" fill="#01fe58" d="M 171.5,80.5 C 172.5,80.8333 173.167,81.5 173.5,82.5C 165.35,88.8034 157.016,94.97 148.5,101C 147.547,102.955 146.213,104.622 144.5,106C 136.859,111.484 128.859,116.317 120.5,120.5C 119.5,120.167 118.833,119.5 118.5,118.5C 123.277,115.94 127.944,113.107 132.5,110C 134.405,108.185 136.072,106.185 137.5,104C 146.669,98.5834 155.669,92.9167 164.5,87C 166.312,84.1395 168.646,81.9729 171.5,80.5 Z"/></g>
<g><path style="opacity:1" fill="#ffb100" d="M 137.5,63.5 C 138.167,63.5 138.833,63.5 139.5,63.5C 135.6,66.9221 131.934,70.7555 128.5,75C 121.833,79 115.167,83 108.5,87C 104.869,89.6244 101.536,92.4577 98.5,95.5C 97.8333,94.8333 97.1667,94.1667 96.5,93.5C 108.467,83.9865 121.134,75.1531 134.5,67C 135.71,65.9609 136.71,64.7942 137.5,63.5 Z"/></g>
<g><path style="opacity:0.008" fill="#00807f" d="M 249.5,91.5 C 250.833,92.1667 250.833,92.1667 249.5,91.5 Z"/></g>
<g><path style="opacity:1" fill="#2cff0c" d="M 161.5,72.5 C 165.603,74.2164 168.936,76.8831 171.5,80.5C 168.646,81.9729 166.312,84.1395 164.5,87C 155.669,92.9167 146.669,98.5834 137.5,104C 136.072,106.185 134.405,108.185 132.5,110C 127.944,113.107 123.277,115.94 118.5,118.5C 115.395,115.725 113.062,112.392 111.5,108.5C 116.523,104.465 121.856,100.631 127.5,97C 129.199,92.9847 132.199,90.6514 136.5,90C 144.441,83.6884 152.774,77.8551 161.5,72.5 Z"/></g>
<g><path style="opacity:0.008" fill="#00aaa9" d="M 0.5,104.5 C 1.83333,105.167 1.83333,105.167 0.5,104.5 Z"/></g>
<g><path style="opacity:1" fill="#ff01a0" d="M 75.5,91.5 C 76.8333,93.1667 78.1667,94.8333 79.5,96.5C 75.1927,100.472 70.8593,104.472 66.5,108.5C 68.2156,102.065 71.2156,96.398 75.5,91.5 Z"/></g>
<g><path style="opacity:1" fill="#ff01da" d="M 79.5,96.5 C 80.8333,97.1667 81.8333,98.1667 82.5,99.5C 81.7577,101.426 80.7577,103.259 79.5,105C 74.2482,109.436 68.9149,113.603 63.5,117.5C 64.1251,114.373 65.1251,111.373 66.5,108.5C 70.8593,104.472 75.1927,100.472 79.5,96.5 Z"/></g>
<g><path style="opacity:1" fill="#02feb1" d="M 177.5,86.5 C 178.338,86.8417 178.672,87.5084 178.5,88.5C 171.108,94.046 163.442,99.3793 155.5,104.5C 154.018,106.483 152.351,108.316 150.5,110C 141.808,114.675 133.475,119.841 125.5,125.5C 124.5,125.167 123.833,124.5 123.5,123.5C 134.036,116.465 144.702,109.632 155.5,103C 161.814,96.1921 169.147,90.6921 177.5,86.5 Z"/></g>
<g><path style="opacity:1" fill="#04feed" d="M 180.5,90.5 C 181.338,90.8417 181.672,91.5084 181.5,92.5C 172.067,99.4201 162.734,106.587 153.5,114C 145.621,119.839 137.288,124.673 128.5,128.5C 127.5,128.167 126.833,127.5 126.5,126.5C 137.815,120.675 148.148,113.508 157.5,105C 165.051,99.9425 172.717,95.1091 180.5,90.5 Z"/></g>
<g><path style="opacity:1" fill="#0667fe" d="M 187.5,102.5 C 187.557,103.609 187.89,104.609 188.5,105.5C 182.496,108.254 177.163,112.087 172.5,117C 164.984,121.706 157.651,126.539 150.5,131.5C 147.66,135.345 143.993,138.012 139.5,139.5C 138.167,138.833 137.167,137.833 136.5,136.5C 152.532,126.631 167.865,115.798 182.5,104C 184.025,102.991 185.692,102.491 187.5,102.5 Z"/></g>
<g><path style="opacity:0.008" fill="#00aaa9" d="M -0.5,111.5 C 0.833333,112.167 0.833333,112.167 -0.5,111.5 Z"/></g>
<g><path style="opacity:1" fill="#03fe8b" d="M 173.5,82.5 C 175.264,83.326 176.598,84.6593 177.5,86.5C 169.147,90.6921 161.814,96.1921 155.5,103C 144.702,109.632 134.036,116.465 123.5,123.5C 122.167,122.833 121.167,121.833 120.5,120.5C 128.859,116.317 136.859,111.484 144.5,106C 146.213,104.622 147.547,102.955 148.5,101C 157.016,94.97 165.35,88.8034 173.5,82.5 Z"/></g>
<g><path style="opacity:1" fill="#01ffcf" d="M 178.5,88.5 C 179.5,88.8333 180.167,89.5 180.5,90.5C 172.717,95.1091 165.051,99.9425 157.5,105C 148.148,113.508 137.815,120.675 126.5,126.5C 125.833,126.5 125.5,126.167 125.5,125.5C 133.475,119.841 141.808,114.675 150.5,110C 152.351,108.316 154.018,106.483 155.5,104.5C 163.442,99.3793 171.108,94.046 178.5,88.5 Z"/></g>
<g><path style="opacity:1" fill="#05b5ff" d="M 183.5,95.5 C 184.537,96.9303 185.204,98.597 185.5,100.5C 184.127,100.343 182.793,100.51 181.5,101C 180.072,103.185 178.405,105.185 176.5,107C 161.951,116.091 147.618,125.258 133.5,134.5C 132.833,134.5 132.5,134.167 132.5,133.5C 138.707,127.489 145.707,122.322 153.5,118C 163.073,109.927 173.073,102.427 183.5,95.5 Z"/></g>
<g><path style="opacity:1" fill="#e100fe" d="M 82.5,99.5 C 84.8333,101.167 86.8333,103.167 88.5,105.5C 80.2319,111.924 72.0652,118.591 64,125.5C 63.6012,125.272 63.4346,124.938 63.5,124.5C 63.5,122.167 63.5,119.833 63.5,117.5C 68.9149,113.603 74.2482,109.436 79.5,105C 80.7577,103.259 81.7577,101.426 82.5,99.5 Z"/></g>
<g><path style="opacity:1" fill="#7d00ff" d="M 90.5,107.5 C 91.8333,108.167 92.8333,109.167 93.5,110.5C 84.1666,119.826 74.1666,128.493 63.5,136.5C 63.5,134.5 63.5,132.5 63.5,130.5C 66.06,128.602 68.7266,126.769 71.5,125C 78.0296,119.301 84.3629,113.467 90.5,107.5 Z"/></g>
<g><path style="opacity:1" fill="#b105fe" d="M 88.5,105.5 C 89.5,105.833 90.1667,106.5 90.5,107.5C 84.3629,113.467 78.0296,119.301 71.5,125C 68.7266,126.769 66.06,128.602 63.5,130.5C 62.1667,128.5 62.1667,126.5 63.5,124.5C 63.4346,124.938 63.6012,125.272 64,125.5C 72.0652,118.591 80.2319,111.924 88.5,105.5 Z"/></g>
<g><path style="opacity:1" fill="#04e2fe" d="M 181.5,92.5 C 182.906,92.9731 183.573,93.9731 183.5,95.5C 173.073,102.427 163.073,109.927 153.5,118C 145.707,122.322 138.707,127.489 132.5,133.5C 131.197,131.858 129.864,130.191 128.5,128.5C 137.288,124.673 145.621,119.839 153.5,114C 162.734,106.587 172.067,99.4201 181.5,92.5 Z"/></g>
<g><path style="opacity:1" fill="#2a06ff" d="M 93.5,110.5 C 96.5,112.833 99.1667,115.5 101.5,118.5C 96.8345,123.8 91.6678,128.8 86,133.5C 85.5172,134.448 85.3505,135.448 85.5,136.5C 80.301,137.603 76.301,140.436 73.5,145C 71.481,145.45 69.6477,146.283 68,147.5C 67.3292,146.748 66.4959,146.414 65.5,146.5C 64.5178,143.237 63.8511,139.903 63.5,136.5C 74.1666,128.493 84.1666,119.826 93.5,110.5 Z"/></g>
<g><path style="opacity:1" fill="#058ffe" d="M 185.5,100.5 C 186.5,100.833 187.167,101.5 187.5,102.5C 185.692,102.491 184.025,102.991 182.5,104C 167.865,115.798 152.532,126.631 136.5,136.5C 135.29,136.068 134.29,135.401 133.5,134.5C 147.618,125.258 161.951,116.091 176.5,107C 178.405,105.185 180.072,103.185 181.5,101C 182.793,100.51 184.127,100.343 185.5,100.5 Z"/></g>
<g><path style="opacity:1" fill="#0231fe" d="M 101.5,118.5 C 102.833,119.167 103.833,120.167 104.5,121.5C 102.372,122.957 100.038,123.957 97.5,124.5C 97.762,125.978 97.4287,127.311 96.5,128.5C 86.7668,136.58 77.1002,144.58 67.5,152.5C 67.0293,150.421 66.3627,148.421 65.5,146.5C 66.4959,146.414 67.3292,146.748 68,147.5C 69.6477,146.283 71.481,145.45 73.5,145C 76.301,140.436 80.301,137.603 85.5,136.5C 85.3505,135.448 85.5172,134.448 86,133.5C 91.6678,128.8 96.8345,123.8 101.5,118.5 Z"/></g>
<g><path style="opacity:1" fill="#05cbfe" d="M 111.5,128.5 C 112.167,128.5 112.5,128.833 112.5,129.5C 112.141,131.371 111.141,132.871 109.5,134C 104.999,137.661 100.332,141.161 95.5,144.5C 94.9955,147.342 93.3289,148.675 90.5,148.5C 90.6495,149.552 90.4828,150.552 90,151.5C 87.3053,153.694 84.472,155.694 81.5,157.5C 80.0697,160.65 78.0697,163.317 75.5,165.5C 74.0256,164.564 73.0256,163.23 72.5,161.5C 80.1476,157.827 86.4809,152.493 91.5,145.5C 98.8239,140.502 105.491,134.835 111.5,128.5 Z"/></g>
<g><path style="opacity:1" fill="#033bfe" d="M 188.5,105.5 C 188.557,106.609 188.89,107.609 189.5,108.5C 186.747,109.022 184.08,109.856 181.5,111C 179.403,113.553 177.07,115.886 174.5,118C 169.173,120.15 164.84,123.483 161.5,128C 157.762,130.197 154.429,132.864 151.5,136C 148.806,138.347 145.806,140.18 142.5,141.5C 141.29,141.068 140.29,140.401 139.5,139.5C 143.993,138.012 147.66,135.345 150.5,131.5C 157.651,126.539 164.984,121.706 172.5,117C 177.163,112.087 182.496,108.254 188.5,105.5 Z"/></g>
<g><path style="opacity:1" fill="#3005ff" d="M 189.5,108.5 C 190.114,112.135 190.448,115.802 190.5,119.5C 190.067,122.195 188.734,124.362 186.5,126C 174.617,134.056 162.617,141.89 150.5,149.5C 147.5,147.167 144.833,144.5 142.5,141.5C 145.806,140.18 148.806,138.347 151.5,136C 154.429,132.864 157.762,130.197 161.5,128C 164.84,123.483 169.173,120.15 174.5,118C 177.07,115.886 179.403,113.553 181.5,111C 184.08,109.856 186.747,109.022 189.5,108.5 Z"/></g>
<g><path style="opacity:1" fill="#03e8fe" d="M 112.5,129.5 C 113.5,129.833 114.167,130.5 114.5,131.5C 114.141,133.371 113.141,134.871 111.5,136C 103.678,141.827 96.1779,147.993 89,154.5C 88.6339,156.452 87.8005,158.118 86.5,159.5C 83.1847,161.808 79.8514,164.141 76.5,166.5C 75.8333,166.5 75.5,166.167 75.5,165.5C 78.0697,163.317 80.0697,160.65 81.5,157.5C 84.472,155.694 87.3053,153.694 90,151.5C 90.4828,150.552 90.6495,149.552 90.5,148.5C 93.3289,148.675 94.9955,147.342 95.5,144.5C 100.332,141.161 104.999,137.661 109.5,134C 111.141,132.871 112.141,131.371 112.5,129.5 Z"/></g>
<g><path style="opacity:1" fill="#7d00fe" d="M 190.5,119.5 C 191.473,121.948 191.806,124.615 191.5,127.5C 185.941,129.95 180.607,132.95 175.5,136.5C 171.692,138.474 168.692,141.308 166.5,145C 162.102,147.857 157.768,150.691 153.5,153.5C 152.026,152.564 151.026,151.23 150.5,149.5C 162.617,141.89 174.617,134.056 186.5,126C 188.734,124.362 190.067,122.195 190.5,119.5 Z"/></g>
<g><path style="opacity:0.008" fill="#00aaa9" d="M -0.5,141.5 C 0.833333,142.167 0.833333,142.167 -0.5,141.5 Z"/></g>
<g><path style="opacity:1" fill="#05aaff" d="M 109.5,126.5 C 110.5,126.833 111.167,127.5 111.5,128.5C 105.491,134.835 98.8239,140.502 91.5,145.5C 86.4809,152.493 80.1476,157.827 72.5,161.5C 71.6618,161.158 71.3284,160.492 71.5,159.5C 84.0948,148.518 96.7615,137.518 109.5,126.5 Z"/></g>
<g><path style="opacity:1" fill="#05fed6" d="M 117.5,134.5 C 118.5,134.833 119.167,135.5 119.5,136.5C 116.495,140.188 112.828,143.188 108.5,145.5C 107.047,148.451 105.047,150.951 102.5,153C 93.777,157.56 86.4437,163.726 80.5,171.5C 78.4131,170.415 77.0798,168.749 76.5,166.5C 79.8514,164.141 83.1847,161.808 86.5,159.5C 91.9922,155.525 97.6589,151.692 103.5,148C 108.007,143.263 112.674,138.763 117.5,134.5 Z"/></g>
<g><path style="opacity:1" fill="#fe02dd" d="M 190.5,137.5 C 189.833,140.167 189.167,142.833 188.5,145.5C 186.821,145.892 185.154,146.392 183.5,147C 176.589,151.61 169.922,156.443 163.5,161.5C 161.878,160.878 160.545,159.878 159.5,158.5C 164.943,155.608 170.276,152.441 175.5,149C 177.741,147.261 179.408,145.094 180.5,142.5C 183.917,140.688 187.25,139.021 190.5,137.5 Z"/></g>
<g><path style="opacity:0.008" fill="#00aaa9" d="M 0.5,148.5 C 1.83333,149.167 1.83333,149.167 0.5,148.5 Z"/></g>
<g><path style="opacity:1" fill="#ff00ba" d="M 188.5,145.5 C 187.89,146.391 187.557,147.391 187.5,148.5C 180.177,153.485 172.844,158.485 165.5,163.5C 164.5,163.167 163.833,162.5 163.5,161.5C 169.922,156.443 176.589,151.61 183.5,147C 185.154,146.392 186.821,145.892 188.5,145.5 Z"/></g>
<g><path style="opacity:1" fill="#0654fe" d="M 104.5,121.5 C 105.167,121.5 105.5,121.833 105.5,122.5C 100.031,128.802 94.0305,134.635 87.5,140C 80.7084,144.377 74.375,149.211 68.5,154.5C 68.1667,153.833 67.8333,153.167 67.5,152.5C 77.1002,144.58 86.7668,136.58 96.5,128.5C 97.4287,127.311 97.762,125.978 97.5,124.5C 100.038,123.957 102.372,122.957 104.5,121.5 Z"/></g>
<g><path style="opacity:1" fill="#0388ff" d="M 109.5,126.5 C 96.7615,137.518 84.0948,148.518 71.5,159.5C 70.3263,158.486 69.6596,157.153 69.5,155.5C 70.552,155.649 71.552,155.483 72.5,155C 77.0501,149.947 82.0501,145.447 87.5,141.5C 94.0751,137.718 100.075,133.218 105.5,128C 106.745,127.209 108.078,126.709 109.5,126.5 Z"/></g>
<g><path style="opacity:1" fill="#e800fe" d="M 190.5,133.5 C 190.5,134.833 190.5,136.167 190.5,137.5C 187.25,139.021 183.917,140.688 180.5,142.5C 179.408,145.094 177.741,147.261 175.5,149C 170.276,152.441 164.943,155.608 159.5,158.5C 158.128,157.488 156.795,156.488 155.5,155.5C 167.208,148.104 178.874,140.771 190.5,133.5 Z"/></g>
<g><path style="opacity:1" fill="#036fff" d="M 105.5,122.5 C 107.167,123.5 108.5,124.833 109.5,126.5C 108.078,126.709 106.745,127.209 105.5,128C 100.075,133.218 94.0751,137.718 87.5,141.5C 82.0501,145.447 77.0501,149.947 72.5,155C 71.552,155.483 70.552,155.649 69.5,155.5C 68.8333,155.5 68.5,155.167 68.5,154.5C 74.375,149.211 80.7084,144.377 87.5,140C 94.0305,134.635 100.031,128.802 105.5,122.5 Z"/></g>
<g><path style="opacity:1" fill="#b700fe" d="M 191.5,127.5 C 191.675,129.621 191.341,131.621 190.5,133.5C 178.874,140.771 167.208,148.104 155.5,155.5C 154.5,155.167 153.833,154.5 153.5,153.5C 157.768,150.691 162.102,147.857 166.5,145C 168.692,141.308 171.692,138.474 175.5,136.5C 180.607,132.95 185.941,129.95 191.5,127.5 Z"/></g>
<g><path style="opacity:1" fill="#fe0d92" d="M 187.5,148.5 C 186.404,151.032 185.071,153.365 183.5,155.5C 178.745,158.925 173.745,161.925 168.5,164.5C 167.609,163.89 166.609,163.557 165.5,163.5C 172.844,158.485 180.177,153.485 187.5,148.5 Z"/></g>
<g><path style="opacity:1" fill="#02fdf3" d="M 114.5,131.5 C 115.833,132.167 116.833,133.167 117.5,134.5C 112.674,138.763 108.007,143.263 103.5,148C 97.6589,151.692 91.9922,155.525 86.5,159.5C 87.8005,158.118 88.6339,156.452 89,154.5C 96.1779,147.993 103.678,141.827 111.5,136C 113.141,134.871 114.141,133.371 114.5,131.5 Z"/></g>
<g><path style="opacity:1" fill="#01feb5" d="M 119.5,136.5 C 120.167,136.5 120.5,136.833 120.5,137.5C 113.452,145.545 105.452,152.545 96.5,158.5C 92.7083,161.79 89.0416,165.29 85.5,169C 83.9221,170.094 82.2554,170.928 80.5,171.5C 86.4437,163.726 93.777,157.56 102.5,153C 105.047,150.951 107.047,148.451 108.5,145.5C 112.828,143.188 116.495,140.188 119.5,136.5 Z"/></g>
<g><path style="opacity:1" fill="#05fe52" d="M 124.5,141.5 C 125.5,141.833 126.167,142.5 126.5,143.5C 124.078,147.077 120.745,149.743 116.5,151.5C 111.316,158.096 105.65,164.263 99.5,170C 96.1667,172.667 92.8333,175.333 89.5,178C 91.6192,178.342 91.9526,179.175 90.5,180.5C 89.1667,179.5 87.8333,178.5 86.5,177.5C 87.5981,176.603 87.5981,175.77 86.5,175C 89.2489,172.577 92.2489,170.577 95.5,169C 99.364,165.222 103.031,161.222 106.5,157C 113.172,152.515 119.172,147.348 124.5,141.5 Z"/></g>
<g><path style="opacity:1" fill="#68ff00" d="M 135.5,152.5 C 136.833,153.167 137.833,154.167 138.5,155.5C 138.631,156.239 138.464,156.906 138,157.5C 131.299,161.535 125.965,166.868 122,173.5C 116.314,177.742 111.147,182.408 106.5,187.5C 104.214,187.405 102.214,186.738 100.5,185.5C 103.85,183.137 106.85,180.303 109.5,177C 113.933,175.275 116.933,172.109 118.5,167.5C 124.096,162.327 129.763,157.327 135.5,152.5 Z"/></g>
<g><path style="opacity:1" fill="#ff015c" d="M 183.5,155.5 C 182.262,158.738 180.596,161.738 178.5,164.5C 175.907,165.754 173.573,167.42 171.5,169.5C 170.11,168.101 169.11,166.434 168.5,164.5C 173.745,161.925 178.745,158.925 183.5,155.5 Z"/></g>
<g><path style="opacity:1" fill="#04fe7c" d="M 123.5,140.5 C 124.167,140.5 124.5,140.833 124.5,141.5C 119.172,147.348 113.172,152.515 106.5,157C 103.031,161.222 99.364,165.222 95.5,169C 92.2489,170.577 89.2489,172.577 86.5,175C 87.5981,175.77 87.5981,176.603 86.5,177.5C 84.8333,176.5 83.5,175.167 82.5,173.5C 88.4293,170.237 93.4293,165.904 97.5,160.5C 106.495,154.161 115.161,147.495 123.5,140.5 Z"/></g>
<g><path style="opacity:0.012" fill="#0099cc" d="M 6.5,170.5 C 7.83333,171.167 7.83333,171.167 6.5,170.5 Z"/></g>
<g><path style="opacity:1" fill="#ff031c" d="M 178.5,164.5 C 178.665,168.182 178.499,171.848 178,175.5C 177.722,176.416 177.222,177.082 176.5,177.5C 174.103,175.338 172.436,172.671 171.5,169.5C 173.573,167.42 175.907,165.754 178.5,164.5 Z"/></g>
<g><path style="opacity:1" fill="#01fe9a" d="M 120.5,137.5 C 121.833,138.167 122.833,139.167 123.5,140.5C 115.161,147.495 106.495,154.161 97.5,160.5C 93.4293,165.904 88.4293,170.237 82.5,173.5C 81.5,173.167 80.8333,172.5 80.5,171.5C 82.2554,170.928 83.9221,170.094 85.5,169C 89.0416,165.29 92.7083,161.79 96.5,158.5C 105.452,152.545 113.452,145.545 120.5,137.5 Z"/></g>
<g><path style="opacity:1" fill="#c7ff00" d="M 141.5,158.5 C 143.167,159.5 144.5,160.833 145.5,162.5C 140.319,166.85 135.319,171.35 130.5,176C 124.264,179.727 118.93,184.227 114.5,189.5C 112.585,189.784 110.919,189.451 109.5,188.5C 114.165,184.833 118.165,180.5 121.5,175.5C 126.528,171.991 131.528,168.491 136.5,165C 138.765,163.242 140.432,161.075 141.5,158.5 Z"/></g>
<g><path style="opacity:0.004" fill="#00fffe" d="M 7.5,173.5 C 8.83333,174.167 8.83333,174.167 7.5,173.5 Z"/></g>
<g><path style="opacity:0.004" fill="#00fffe" d="M 245.5,173.5 C 246.833,174.167 246.833,174.167 245.5,173.5 Z"/></g>
<g><path style="opacity:1" fill="#ffb304" d="M 149.5,166.5 C 150.833,167.167 151.833,168.167 152.5,169.5C 145.264,176.349 138.264,183.349 131.5,190.5C 128.648,191.258 125.981,191.258 123.5,190.5C 125.532,189.952 126.532,188.619 126.5,186.5C 127.552,186.649 128.552,186.483 129.5,186C 136.248,180.962 142.581,175.462 148.5,169.5C 149.386,168.675 149.719,167.675 149.5,166.5 Z"/></g>
<g><path style="opacity:1" fill="#99ff00" d="M 138.5,155.5 C 139.833,156.167 140.833,157.167 141.5,158.5C 140.432,161.075 138.765,163.242 136.5,165C 131.528,168.491 126.528,171.991 121.5,175.5C 118.165,180.5 114.165,184.833 109.5,188.5C 108.209,188.737 107.209,188.404 106.5,187.5C 111.147,182.408 116.314,177.742 122,173.5C 125.965,166.868 131.299,161.535 138,157.5C 138.464,156.906 138.631,156.239 138.5,155.5 Z"/></g>
<g><path style="opacity:1" fill="#f3fd00" d="M 145.5,162.5 C 146.5,162.833 147.167,163.5 147.5,164.5C 144.646,166.859 142.312,169.692 140.5,173C 138.913,173.862 137.246,174.529 135.5,175C 129.615,180.421 123.615,185.588 117.5,190.5C 116.209,190.737 115.209,190.404 114.5,189.5C 118.93,184.227 124.264,179.727 130.5,176C 135.319,171.35 140.319,166.85 145.5,162.5 Z"/></g>
<g><path style="opacity:1" fill="#20fe0e" d="M 126.5,143.5 C 129.833,146.167 132.833,149.167 135.5,152.5C 129.763,157.327 124.096,162.327 118.5,167.5C 116.933,172.109 113.933,175.275 109.5,177C 106.85,180.303 103.85,183.137 100.5,185.5C 96.8832,184.358 93.5498,182.692 90.5,180.5C 91.9526,179.175 91.6192,178.342 89.5,178C 92.8333,175.333 96.1667,172.667 99.5,170C 105.65,164.263 111.316,158.096 116.5,151.5C 120.745,149.743 124.078,147.077 126.5,143.5 Z"/></g>
<g><path style="opacity:1" fill="#ffdf00" d="M 147.5,164.5 C 148.5,164.833 149.167,165.5 149.5,166.5C 149.719,167.675 149.386,168.675 148.5,169.5C 142.581,175.462 136.248,180.962 129.5,186C 128.552,186.483 127.552,186.649 126.5,186.5C 126.532,188.619 125.532,189.952 123.5,190.5C 121.5,190.5 119.5,190.5 117.5,190.5C 123.615,185.588 129.615,180.421 135.5,175C 137.246,174.529 138.913,173.862 140.5,173C 142.312,169.692 144.646,166.859 147.5,164.5 Z"/></g>
<g><path style="opacity:0.004" fill="#00fffe" d="M 10.5,180.5 C 11.8333,181.167 11.8333,181.167 10.5,180.5 Z"/></g>
<g><path style="opacity:0.004" fill="#00fffe" d="M 242.5,180.5 C 243.833,181.167 243.833,181.167 242.5,180.5 Z"/></g>
<g><path style="opacity:0.008" fill="#00bfbe" d="M 11.5,182.5 C 12.8333,183.167 12.8333,183.167 11.5,182.5 Z"/></g>
<g><path style="opacity:0.004" fill="#00fffe" d="M 241.5,182.5 C 242.833,183.167 242.833,183.167 241.5,182.5 Z"/></g>
<g><path style="opacity:1" fill="#ff8400" d="M 152.5,169.5 C 154.167,170.5 155.5,171.833 156.5,173.5C 150.684,178.593 145.017,183.926 139.5,189.5C 136.904,190.265 134.237,190.599 131.5,190.5C 138.264,183.349 145.264,176.349 152.5,169.5 Z"/></g>
<g><path style="opacity:1" fill="#ff4004" d="M 156.5,173.5 C 158.833,175.167 160.833,177.167 162.5,179.5C 155.472,184.178 147.805,187.511 139.5,189.5C 145.017,183.926 150.684,178.593 156.5,173.5 Z"/></g>
<g><path style="opacity:0.008" fill="#00aaa9" d="M 14.5,188.5 C 15.8333,189.167 15.8333,189.167 14.5,188.5 Z"/></g>
<g><path style="opacity:0.008" fill="#00aaa9" d="M 17.5,193.5 C 18.8333,194.167 18.8333,194.167 17.5,193.5 Z"/></g>
<g><path style="opacity:0.012" fill="#00aaa9" d="M 21.5,199.5 C 22.8333,200.167 22.8333,200.167 21.5,199.5 Z"/></g>
<g><path style="opacity:0.008" fill="#007fff" d="M 34.5,215.5 C 33.8333,214.167 33.8333,214.167 34.5,215.5 Z"/></g>
<g><path style="opacity:0.012" fill="#0099cc" d="M 34.5,215.5 C 35.8333,216.167 35.8333,216.167 34.5,215.5 Z"/></g>
<g><path style="opacity:0.004" fill="#00fffe" d="M 50.5,229.5 C 51.8333,230.167 51.8333,230.167 50.5,229.5 Z"/></g>
<g><path style="opacity:0.004" fill="#00fffe" d="M 202.5,229.5 C 203.833,230.167 203.833,230.167 202.5,229.5 Z"/></g>
<g><path style="opacity:0.008" fill="#00807f" d="M 59.5,235.5 C 60.8333,236.167 60.8333,236.167 59.5,235.5 Z"/></g>
<g><path style="opacity:0.004" fill="#00fffe" d="M 193.5,235.5 C 194.833,236.167 194.833,236.167 193.5,235.5 Z"/></g>
<g><path style="opacity:0.004" fill="#00fffe" d="M 64.5,238.5 C 65.8333,239.167 65.8333,239.167 64.5,238.5 Z"/></g>
<g><path style="opacity:0.004" fill="#00fffe" d="M 188.5,238.5 C 189.833,239.167 189.833,239.167 188.5,238.5 Z"/></g>
<g><path style="opacity:0.004" fill="#00fffe" d="M 79.5,245.5 C 80.8333,246.167 80.8333,246.167 79.5,245.5 Z"/></g>
<g><path style="opacity:0.004" fill="#00fffe" d="M 173.5,245.5 C 174.833,246.167 174.833,246.167 173.5,245.5 Z"/></g>
</svg>
