<?xml version="1.0" encoding="UTF-8"?>
<!DOCTYPE svg PUBLIC "-//W3C//DTD SVG 1.1//EN" "http://www.w3.org/Graphics/SVG/1.1/DTD/svg11.dtd">
<svg xmlns="http://www.w3.org/2000/svg" version="1.1" width="256px" height="256px" style="shape-rendering:geometricPrecision; text-rendering:geometricPrecision; image-rendering:optimizeQuality; fill-rule:evenodd; clip-rule:evenodd" xmlns:xlink="http://www.w3.org/1999/xlink">
<g><path style="opacity:0.004" fill="#00fffe" d="M 104.5,0.5 C 105.833,1.16667 105.833,1.16667 104.5,0.5 Z"/></g>
<g><path style="opacity:0.004" fill="#00fffe" d="M 164.5,4.5 C 165.833,5.16667 165.833,5.16667 164.5,4.5 Z"/></g>
<g><path style="opacity:0.016" fill="#00bfff" d="M 79.5,7.5 C 80.8333,8.16667 80.8333,8.16667 79.5,7.5 Z"/></g>
<g><path style="opacity:0.004" fill="#00a1ff" d="M 184.5,12.5 C 185.833,13.1667 185.833,13.1667 184.5,12.5 Z"/></g>
<g><path style="opacity:0.016" fill="#00bfff" d="M 188.5,14.5 C 189.833,15.1667 189.833,15.1667 188.5,14.5 Z"/></g>
<g><path style="opacity:0.004" fill="#00fffe" d="M 59.5,17.5 C 60.8333,18.1667 60.8333,18.1667 59.5,17.5 Z"/></g>
<g><path style="opacity:0.016" fill="#00bfff" d="M 193.5,17.5 C 194.833,18.1667 194.833,18.1667 193.5,17.5 Z"/></g>
<g><path style="opacity:0.004" fill="#15a9ff" d="M 199.5,21.5 C 200.833,22.1667 200.833,22.1667 199.5,21.5 Z"/></g>
<g><path style="opacity:0.004" fill="#00fffe" d="M 202.5,23.5 C 203.833,24.1667 203.833,24.1667 202.5,23.5 Z"/></g>
<g><path style="opacity:0.004" fill="#00fffe" d="M 46.5,26.5 C 47.8333,27.1667 47.8333,27.1667 46.5,26.5 Z"/></g>
<g><path style="opacity:0.004" fill="#11a9ff" d="M 207.5,27.5 C 208.833,28.1667 208.833,28.1667 207.5,27.5 Z"/></g>
<g><path style="opacity:0.004" fill="#00fffe" d="M 38.5,33.5 C 39.8333,34.1667 39.8333,34.1667 38.5,33.5 Z"/></g>
<g><path style="opacity:0.004" fill="#0091ff" d="M 38.5,34.5 C 37.8333,35.1667 37.8333,35.1667 38.5,34.5 Z"/></g>
<g><path style="opacity:0.004" fill="#0098ff" d="M 215.5,34.5 C 216.833,35.1667 216.833,35.1667 215.5,34.5 Z"/></g>
<g><path style="opacity:0.004" fill="#009eff" d="M 218.5,37.5 C 217.833,36.1667 217.833,36.1667 218.5,37.5 Z"/></g>
<g><path style="opacity:0.016" fill="#00bfff" d="M 218.5,37.5 C 219.833,38.1667 219.833,38.1667 218.5,37.5 Z"/></g>
<g><path style="opacity:1" fill="#68c0ef" d="M 166.5,57.5 C 140.167,56.1667 113.833,56.1667 87.5,57.5C 87.6107,56.8826 87.944,56.3826 88.5,56C 114.167,55.3333 139.833,55.3333 165.5,56C 166.056,56.3826 166.389,56.8826 166.5,57.5 Z"/></g>
<g><path style="opacity:1" fill="#fdfdfe" d="M 166.5,57.5 C 166.768,60.1194 166.435,62.6194 165.5,65C 139.502,65.5 113.502,65.6666 87.5,65.5C 87.5,65.1667 87.5,64.8333 87.5,64.5C 87.5,62.1667 87.5,59.8333 87.5,57.5C 113.833,56.1667 140.167,56.1667 166.5,57.5 Z"/></g>
<g><path style="opacity:0.004" fill="#149cff" d="M 233.5,56.5 C 234.833,57.1667 234.833,57.1667 233.5,56.5 Z"/></g>
<g><path style="opacity:0.945" fill="#366684" d="M 87.5,57.5 C 87.5,59.8333 87.5,62.1667 87.5,64.5C 87.1667,64.5 86.8333,64.5 86.5,64.5C 85.0761,61.8752 85.4094,59.5419 87.5,57.5 Z"/></g>
<g><path style="opacity:0.008" fill="#00b6ff" d="M 238.5,64.5 C 239.833,65.1667 239.833,65.1667 238.5,64.5 Z"/></g>
<g><path style="opacity:1" fill="#9acbe6" d="M 166.5,57.5 C 167.947,58.1342 168.613,59.3009 168.5,61C 168.227,62.5328 167.894,64.0328 167.5,65.5C 166.833,65.5 166.5,65.8333 166.5,66.5C 165.833,66.5 165.167,66.5 164.5,66.5C 139.5,66.5 114.5,66.5 89.5,66.5C 88.5084,66.6716 87.8417,66.3382 87.5,65.5C 113.502,65.6666 139.502,65.5 165.5,65C 166.435,62.6194 166.768,60.1194 166.5,57.5 Z"/></g>
<g><path style="opacity:1" fill="#46b7f2" d="M 89.5,67.5 C 89.5,67.1667 89.5,66.8333 89.5,66.5C 114.5,66.5 139.5,66.5 164.5,66.5C 163.432,67.4345 162.099,67.7678 160.5,67.5C 158.856,67.2865 157.356,67.6198 156,68.5C 155.128,71.3612 153.962,74.0279 152.5,76.5C 151.167,76.5 149.833,76.5 148.5,76.5C 149.514,73.3111 151.18,70.4778 153.5,68C 150.854,67.5026 148.187,67.3359 145.5,67.5C 143.167,67.5 140.833,67.5 138.5,67.5C 137.167,67.5 135.833,67.5 134.5,67.5C 126.833,67.5 119.167,67.5 111.5,67.5C 107.833,67.5 104.167,67.5 100.5,67.5C 98.8333,67.5 97.1667,67.5 95.5,67.5C 93.5,67.5 91.5,67.5 89.5,67.5 Z"/></g>
<g><path style="opacity:0.004" fill="#00a9ff" d="M 239.5,66.5 C 240.833,67.1667 240.833,67.1667 239.5,66.5 Z"/></g>
<g><path style="opacity:0.016" fill="#00bfff" d="M 240.5,68.5 C 241.833,69.1667 241.833,69.1667 240.5,68.5 Z"/></g>
<g><path style="opacity:0.004" fill="#00fffe" d="M 11.5,70.5 C 12.8333,71.1667 12.8333,71.1667 11.5,70.5 Z"/></g>
<g><path style="opacity:1" fill="#fe6900" d="M 86.5,64.5 C 86.8333,64.5 87.1667,64.5 87.5,64.5C 87.5,64.8333 87.5,65.1667 87.5,65.5C 87.8417,66.3382 88.5084,66.6716 89.5,66.5C 89.5,66.8333 89.5,67.1667 89.5,67.5C 87.5832,70.331 85.9166,73.331 84.5,76.5C 83.5,76.5 82.5,76.5 81.5,76.5C 82.8718,72.3059 84.5384,68.3059 86.5,64.5 Z"/></g>
<g><path style="opacity:1" fill="#ff9800" d="M 89.5,67.5 C 91.5,67.5 93.5,67.5 95.5,67.5C 93.4042,70.2622 91.7375,73.2622 90.5,76.5C 88.5,76.5 86.5,76.5 84.5,76.5C 85.9166,73.331 87.5832,70.331 89.5,67.5 Z"/></g>
<g><path style="opacity:0.004" fill="#00fffe" d="M 241.5,70.5 C 242.833,71.1667 242.833,71.1667 241.5,70.5 Z"/></g>
<g><path style="opacity:1" fill="#cdff00" d="M 100.5,67.5 C 104.167,67.5 107.833,67.5 111.5,67.5C 110.199,68.8816 109.366,70.5483 109,72.5C 107.333,73.7332 105.833,75.0665 104.5,76.5C 101.833,76.5 99.1667,76.5 96.5,76.5C 97.8386,73.4971 99.1719,70.4971 100.5,67.5 Z"/></g>
<g><path style="opacity:1" fill="#30ff21" d="M 111.5,67.5 C 119.167,67.5 126.833,67.5 134.5,67.5C 132.252,70.328 130.252,73.328 128.5,76.5C 120.5,76.5 112.5,76.5 104.5,76.5C 105.833,75.0665 107.333,73.7332 109,72.5C 109.366,70.5483 110.199,68.8816 111.5,67.5 Z"/></g>
<g><path style="opacity:1" fill="#ffe400" d="M 95.5,67.5 C 97.1667,67.5 98.8333,67.5 100.5,67.5C 99.1719,70.4971 97.8386,73.4971 96.5,76.5C 94.5,76.5 92.5,76.5 90.5,76.5C 91.7375,73.2622 93.4042,70.2622 95.5,67.5 Z"/></g>
<g><path style="opacity:1" fill="#0459ff" d="M 164.5,66.5 C 165.167,66.5 165.833,66.5 166.5,66.5C 164.804,69.8501 163.137,73.1835 161.5,76.5C 159.833,76.5 158.167,76.5 156.5,76.5C 157.833,73.5 159.167,70.5 160.5,67.5C 162.099,67.7678 163.432,67.4345 164.5,66.5 Z"/></g>
<g><path style="opacity:0.004" fill="#00fffe" d="M 242.5,72.5 C 243.833,73.1667 243.833,73.1667 242.5,72.5 Z"/></g>
<g><path style="opacity:1" fill="#01fe71" d="M 134.5,67.5 C 135.833,67.5 137.167,67.5 138.5,67.5C 135.785,70.2139 133.451,73.2139 131.5,76.5C 130.5,76.5 129.5,76.5 128.5,76.5C 130.252,73.328 132.252,70.328 134.5,67.5 Z"/></g>
<g><path style="opacity:1" fill="#0e1cfe" d="M 167.5,65.5 C 169.246,69.3267 171.246,72.9934 173.5,76.5C 169.5,76.5 165.5,76.5 161.5,76.5C 163.137,73.1835 164.804,69.8501 166.5,66.5C 166.5,65.8333 166.833,65.5 167.5,65.5 Z"/></g>
<g><path style="opacity:1" fill="#08f4f9" d="M 145.5,67.5 C 148.187,67.3359 150.854,67.5026 153.5,68C 151.18,70.4778 149.514,73.3111 148.5,76.5C 145.5,76.5 142.5,76.5 139.5,76.5C 142.231,74.0536 144.231,71.0536 145.5,67.5 Z"/></g>
<g><path style="opacity:1" fill="#09febd" d="M 138.5,67.5 C 140.833,67.5 143.167,67.5 145.5,67.5C 144.231,71.0536 142.231,74.0536 139.5,76.5C 136.833,76.5 134.167,76.5 131.5,76.5C 133.451,73.2139 135.785,70.2139 138.5,67.5 Z"/></g>
<g><path style="opacity:1" fill="#038dff" d="M 160.5,67.5 C 159.167,70.5 157.833,73.5 156.5,76.5C 155.167,76.5 153.833,76.5 152.5,76.5C 153.962,74.0279 155.128,71.3612 156,68.5C 157.356,67.6198 158.856,67.2865 160.5,67.5 Z"/></g>
<g><path style="opacity:1" fill="#fdfefe" d="M 80.5,77.5 C 111.835,77.3334 143.168,77.5 174.5,78C 176.418,79.7702 176.918,81.9369 176,84.5C 143.167,85.8299 110.333,85.8299 77.5,84.5C 77.5516,81.6538 78.5516,79.3204 80.5,77.5 Z"/></g>
<g><path style="opacity:1" fill="#40505a" d="M 80.5,76.5 C 80.5,76.8333 80.5,77.1667 80.5,77.5C 78.5516,79.3204 77.5516,81.6538 77.5,84.5C 77.5,84.8333 77.5,85.1667 77.5,85.5C 76.3569,82.9321 76.5236,80.2654 78,77.5C 78.6708,76.7476 79.5041,76.4142 80.5,76.5 Z"/></g>
<g><path style="opacity:0.004" fill="#00fffe" d="M 245.5,79.5 C 246.833,80.1667 246.833,80.1667 245.5,79.5 Z"/></g>
<g><path style="opacity:0.004" fill="#00a9ff" d="M 246.5,82.5 C 247.833,83.1667 247.833,83.1667 246.5,82.5 Z"/></g>
<g><path style="opacity:1" fill="#b6dcf2" d="M 80.5,77.5 C 80.5,77.1667 80.5,76.8333 80.5,76.5C 80.8333,76.5 81.1667,76.5 81.5,76.5C 82.5,76.5 83.5,76.5 84.5,76.5C 86.5,76.5 88.5,76.5 90.5,76.5C 92.5,76.5 94.5,76.5 96.5,76.5C 99.1667,76.5 101.833,76.5 104.5,76.5C 112.5,76.5 120.5,76.5 128.5,76.5C 129.5,76.5 130.5,76.5 131.5,76.5C 134.167,76.5 136.833,76.5 139.5,76.5C 142.5,76.5 145.5,76.5 148.5,76.5C 149.833,76.5 151.167,76.5 152.5,76.5C 153.833,76.5 155.167,76.5 156.5,76.5C 158.167,76.5 159.833,76.5 161.5,76.5C 165.5,76.5 169.5,76.5 173.5,76.5C 175.911,76.1367 177.411,77.1367 178,79.5C 178.49,81.5454 178.323,83.5454 177.5,85.5C 176.292,86.2341 174.959,86.5674 173.5,86.5C 142.5,86.5 111.5,86.5 80.5,86.5C 79.5,86.5 78.5,86.5 77.5,86.5C 77.5,86.1667 77.5,85.8333 77.5,85.5C 77.5,85.1667 77.5,84.8333 77.5,84.5C 110.333,85.8299 143.167,85.8299 176,84.5C 176.918,81.9369 176.418,79.7702 174.5,78C 143.168,77.5 111.835,77.3334 80.5,77.5 Z"/></g>
<g><path style="opacity:0.004" fill="#00fffe" d="M 248.5,87.5 C 249.833,88.1667 249.833,88.1667 248.5,87.5 Z"/></g>
<g><path style="opacity:1" fill="#fea400" d="M 77.5,86.5 C 78.5,86.5 79.5,86.5 80.5,86.5C 81.5676,87.4345 82.901,87.7678 84.5,87.5C 81.7623,89.5767 79.7623,92.2433 78.5,95.5C 76.5,95.5 74.5,95.5 72.5,95.5C 73.9009,92.3661 75.5675,89.3661 77.5,86.5 Z"/></g>
<g><path style="opacity:1" fill="#d1ff00" d="M 88.5,87.5 C 90.5,87.5 92.5,87.5 94.5,87.5C 92.6369,89.8929 91.3035,92.5596 90.5,95.5C 88.5,95.5 86.5,95.5 84.5,95.5C 85.8333,92.8333 87.1667,90.1667 88.5,87.5 Z"/></g>
<g><path style="opacity:1" fill="#b5fefe" d="M 177.5,85.5 C 179.029,88.7536 180.362,92.087 181.5,95.5C 176.5,95.5 171.5,95.5 166.5,95.5C 167.82,92.8599 169.153,90.1932 170.5,87.5C 171.791,87.7373 172.791,87.404 173.5,86.5C 174.959,86.5674 176.292,86.2341 177.5,85.5 Z"/></g>
<g><path style="opacity:1" fill="#1bfe25" d="M 103.5,87.5 C 109.5,87.5 115.5,87.5 121.5,87.5C 119.833,90.1667 118.167,92.8333 116.5,95.5C 110.833,95.5 105.167,95.5 99.5,95.5C 100.833,92.8333 102.167,90.1667 103.5,87.5 Z"/></g>
<g><path style="opacity:1" fill="#2921ff" d="M 150.5,87.5 C 157.167,87.5 163.833,87.5 170.5,87.5C 169.153,90.1932 167.82,92.8599 166.5,95.5C 159.833,95.5 153.167,95.5 146.5,95.5C 148.267,93.0616 149.601,90.395 150.5,87.5 Z"/></g>
<g><path style="opacity:1" fill="#fef000" d="M 84.5,87.5 C 85.8333,87.5 87.1667,87.5 88.5,87.5C 87.1667,90.1667 85.8333,92.8333 84.5,95.5C 82.5,95.5 80.5,95.5 78.5,95.5C 79.7623,92.2433 81.7623,89.5767 84.5,87.5 Z"/></g>
<g><path style="opacity:1" fill="#0772ff" d="M 150.5,87.5 C 149.601,90.395 148.267,93.0616 146.5,95.5C 144.473,95.6621 142.473,95.4955 140.5,95C 142.266,92.904 143.599,90.5707 144.5,88C 146.473,87.5045 148.473,87.3379 150.5,87.5 Z"/></g>
<g><path style="opacity:1" fill="#82ff00" d="M 94.5,87.5 C 97.5,87.5 100.5,87.5 103.5,87.5C 102.167,90.1667 100.833,92.8333 99.5,95.5C 96.5,95.5 93.5,95.5 90.5,95.5C 91.3035,92.5596 92.6369,89.8929 94.5,87.5 Z"/></g>
<g><path style="opacity:1" fill="#04fe84" d="M 121.5,87.5 C 123.5,87.5 125.5,87.5 127.5,87.5C 125.833,90.1667 124.167,92.8333 122.5,95.5C 120.5,95.5 118.5,95.5 116.5,95.5C 118.167,92.8333 119.833,90.1667 121.5,87.5 Z"/></g>
<g><path style="opacity:1" fill="#0bfed8" d="M 127.5,87.5 C 130.518,87.3354 133.518,87.502 136.5,88C 134.833,90.3333 133.167,92.6667 131.5,95C 128.518,95.498 125.518,95.6646 122.5,95.5C 124.167,92.8333 125.833,90.1667 127.5,87.5 Z"/></g>
<g><path style="opacity:1" fill="#3aace7" d="M 80.5,86.5 C 111.5,86.5 142.5,86.5 173.5,86.5C 172.791,87.404 171.791,87.7373 170.5,87.5C 163.833,87.5 157.167,87.5 150.5,87.5C 148.473,87.3379 146.473,87.5045 144.5,88C 143.599,90.5707 142.266,92.904 140.5,95C 142.473,95.4955 144.473,95.6621 146.5,95.5C 153.167,95.5 159.833,95.5 166.5,95.5C 171.5,95.5 176.5,95.5 181.5,95.5C 184.365,96.1912 186.532,97.8579 188,100.5C 188.765,102.066 188.598,103.399 187.5,104.5C 187.649,103.448 187.483,102.448 187,101.5C 185.532,100.011 184.032,98.6774 182.5,97.5C 145.337,96.5015 108.004,96.1682 70.5,96.5C 70.8417,95.6618 71.5084,95.3284 72.5,95.5C 74.5,95.5 76.5,95.5 78.5,95.5C 80.5,95.5 82.5,95.5 84.5,95.5C 86.5,95.5 88.5,95.5 90.5,95.5C 93.5,95.5 96.5,95.5 99.5,95.5C 105.167,95.5 110.833,95.5 116.5,95.5C 118.5,95.5 120.5,95.5 122.5,95.5C 125.518,95.6646 128.518,95.498 131.5,95C 133.167,92.6667 134.833,90.3333 136.5,88C 133.518,87.502 130.518,87.3354 127.5,87.5C 125.5,87.5 123.5,87.5 121.5,87.5C 115.5,87.5 109.5,87.5 103.5,87.5C 100.5,87.5 97.5,87.5 94.5,87.5C 92.5,87.5 90.5,87.5 88.5,87.5C 87.1667,87.5 85.8333,87.5 84.5,87.5C 82.901,87.7678 81.5676,87.4345 80.5,86.5 Z"/></g>
<g><path style="opacity:0.004" fill="#009eff" d="M 250.5,95.5 C 251.833,96.1667 251.833,96.1667 250.5,95.5 Z"/></g>
<g><path style="opacity:1" fill="#97cdeb" d="M 70.5,96.5 C 108.004,96.1682 145.337,96.5015 182.5,97.5C 144.833,97.5 107.167,97.5 69.5,97.5C 69.2962,100.518 68.9629,103.518 68.5,106.5C 68.1667,106.5 67.8333,106.5 67.5,106.5C 66.4761,103.527 66.6427,100.527 68,97.5C 68.6708,96.7476 69.5041,96.4142 70.5,96.5 Z"/></g>
<g><path style="opacity:1" fill="#fcfdfe" d="M 182.5,97.5 C 184.032,98.6774 185.532,100.011 187,101.5C 187.483,102.448 187.649,103.448 187.5,104.5C 187.5,105.167 187.5,105.833 187.5,106.5C 187.167,106.5 186.833,106.5 186.5,106.5C 186.167,106.5 185.833,106.5 185.5,106.5C 146.5,106.5 107.5,106.5 68.5,106.5C 68.9629,103.518 69.2962,100.518 69.5,97.5C 107.167,97.5 144.833,97.5 182.5,97.5 Z"/></g>
<g><path style="opacity:1" fill="#ff0031" d="M 186.5,106.5 C 186.833,106.5 187.167,106.5 187.5,106.5C 188.93,110.353 190.596,114.02 192.5,117.5C 192.167,117.5 191.833,117.5 191.5,117.5C 191.082,116.778 190.416,116.278 189.5,116C 186.518,115.502 183.518,115.335 180.5,115.5C 183.277,113.049 185.277,110.049 186.5,106.5 Z"/></g>
<g><path style="opacity:1" fill="#fed900" d="M 67.5,106.5 C 67.8333,106.5 68.1667,106.5 68.5,106.5C 69.9187,107.451 71.5853,107.784 73.5,107.5C 71.4589,109.839 70.1256,112.505 69.5,115.5C 68.1667,115.5 66.8333,115.5 65.5,115.5C 66.5778,112.598 67.2444,109.598 67.5,106.5 Z"/></g>
<g><path style="opacity:1" fill="#19efe0" d="M 88.5,107.5 C 101.199,107.239 113.866,107.739 126.5,109C 124.919,110.828 123.585,112.828 122.5,115C 118.848,115.499 115.182,115.665 111.5,115.5C 112.441,113.534 113.441,111.534 114.5,109.5C 112.955,108.548 111.288,108.215 109.5,108.5C 102.313,108.825 95.3134,108.491 88.5,107.5 Z"/></g>
<g><path style="opacity:1" fill="#f0fd00" d="M 73.5,107.5 C 75.1667,107.5 76.8333,107.5 78.5,107.5C 76.6418,109.883 75.3084,112.55 74.5,115.5C 72.8333,115.5 71.1667,115.5 69.5,115.5C 70.1256,112.505 71.4589,109.839 73.5,107.5 Z"/></g>
<g><path style="opacity:1" fill="#b3ff00" d="M 78.5,107.5 C 79.8333,107.5 81.1667,107.5 82.5,107.5C 82.0598,110.38 81.0598,113.046 79.5,115.5C 77.8333,115.5 76.1667,115.5 74.5,115.5C 75.3084,112.55 76.6418,109.883 78.5,107.5 Z"/></g>
<g><path style="opacity:1" fill="#36ff22" d="M 82.5,107.5 C 84.5,107.5 86.5,107.5 88.5,107.5C 95.3134,108.491 102.313,108.825 109.5,108.5C 107.445,110.555 105.779,112.888 104.5,115.5C 96.1667,115.5 87.8333,115.5 79.5,115.5C 81.0598,113.046 82.0598,110.38 82.5,107.5 Z"/></g>
<g><path style="opacity:1" fill="#05fe9a" d="M 109.5,108.5 C 111.288,108.215 112.955,108.548 114.5,109.5C 113.441,111.534 112.441,113.534 111.5,115.5C 109.167,115.5 106.833,115.5 104.5,115.5C 105.779,112.888 107.445,110.555 109.5,108.5 Z"/></g>
<g><path style="opacity:1" fill="#0952ff" d="M 140.5,108.5 C 139.246,111.093 137.58,113.427 135.5,115.5C 133.473,115.662 131.473,115.495 129.5,115C 130.627,113.247 131.627,111.413 132.5,109.5C 135.086,108.52 137.753,108.187 140.5,108.5 Z"/></g>
<g><path style="opacity:1" fill="#f3fff5" d="M 163.5,108.5 C 166.5,108.5 169.5,108.5 172.5,108.5C 171.305,110.751 170.305,113.085 169.5,115.5C 166.167,115.5 162.833,115.5 159.5,115.5C 161.086,113.33 162.42,110.996 163.5,108.5 Z"/></g>
<g><path style="opacity:1" fill="#6b00ff" d="M 140.5,108.5 C 148.167,108.5 155.833,108.5 163.5,108.5C 162.42,110.996 161.086,113.33 159.5,115.5C 151.5,115.5 143.5,115.5 135.5,115.5C 137.58,113.427 139.246,111.093 140.5,108.5 Z"/></g>
<g><path style="opacity:1" fill="#ff00a7" d="M 172.5,108.5 C 174.833,108.5 177.167,108.5 179.5,108.5C 178.431,110.969 177.098,113.302 175.5,115.5C 173.5,115.5 171.5,115.5 169.5,115.5C 170.305,113.085 171.305,110.751 172.5,108.5 Z"/></g>
<g><path style="opacity:1" fill="#ff0072" d="M 185.5,106.5 C 185.833,106.5 186.167,106.5 186.5,106.5C 185.277,110.049 183.277,113.049 180.5,115.5C 178.833,115.5 177.167,115.5 175.5,115.5C 177.098,113.302 178.431,110.969 179.5,108.5C 181.786,108.405 183.786,107.738 185.5,106.5 Z"/></g>
<g><path style="opacity:1" fill="#45afec" d="M 68.5,106.5 C 107.5,106.5 146.5,106.5 185.5,106.5C 183.786,107.738 181.786,108.405 179.5,108.5C 177.167,108.5 174.833,108.5 172.5,108.5C 169.5,108.5 166.5,108.5 163.5,108.5C 155.833,108.5 148.167,108.5 140.5,108.5C 137.753,108.187 135.086,108.52 132.5,109.5C 131.627,111.413 130.627,113.247 129.5,115C 131.473,115.495 133.473,115.662 135.5,115.5C 143.5,115.5 151.5,115.5 159.5,115.5C 162.833,115.5 166.167,115.5 169.5,115.5C 171.5,115.5 173.5,115.5 175.5,115.5C 177.167,115.5 178.833,115.5 180.5,115.5C 183.518,115.335 186.518,115.502 189.5,116C 190.416,116.278 191.082,116.778 191.5,117.5C 190.5,117.5 189.5,117.5 188.5,117.5C 147.337,116.501 106.003,116.168 64.5,116.5C 64.5,115.833 64.8333,115.5 65.5,115.5C 66.8333,115.5 68.1667,115.5 69.5,115.5C 71.1667,115.5 72.8333,115.5 74.5,115.5C 76.1667,115.5 77.8333,115.5 79.5,115.5C 87.8333,115.5 96.1667,115.5 104.5,115.5C 106.833,115.5 109.167,115.5 111.5,115.5C 115.182,115.665 118.848,115.499 122.5,115C 123.585,112.828 124.919,110.828 126.5,109C 113.866,107.739 101.199,107.239 88.5,107.5C 86.5,107.5 84.5,107.5 82.5,107.5C 81.1667,107.5 79.8333,107.5 78.5,107.5C 76.8333,107.5 75.1667,107.5 73.5,107.5C 71.5853,107.784 69.9187,107.451 68.5,106.5 Z"/></g>
<g><path style="opacity:1" fill="#8ac4e5" d="M 64.5,116.5 C 106.003,116.168 147.337,116.501 188.5,117.5C 146.833,117.5 105.167,117.5 63.5,117.5C 62.9512,119.901 62.1178,122.235 61,124.5C 59.6439,125.38 58.1439,125.714 56.5,125.5C 56.1879,147.879 56.5212,170.212 57.5,192.5C 56.8826,192.389 56.3826,192.056 56,191.5C 55.3333,168.833 55.3333,146.167 56,123.5C 56.6667,122.167 57.3333,122.167 58,123.5C 59.0117,119.992 61.1783,117.658 64.5,116.5 Z"/></g>
<g><path style="opacity:1" fill="#fefefe" d="M 188.5,117.5 C 189.5,117.5 190.5,117.5 191.5,117.5C 191.833,117.5 192.167,117.5 192.5,117.5C 194.19,117.856 195.19,118.856 195.5,120.5C 195.461,121.756 195.961,122.756 197,123.5C 197.667,145.833 197.667,168.167 197,190.5C 195.579,192.405 194.412,194.405 193.5,196.5C 151.196,197.65 108.862,197.817 66.5,197C 64.1341,196.56 61.8008,196.06 59.5,195.5C 58.0937,195.027 57.427,194.027 57.5,192.5C 56.5212,170.212 56.1879,147.879 56.5,125.5C 58.1439,125.714 59.6439,125.38 61,124.5C 62.1178,122.235 62.9512,119.901 63.5,117.5C 105.167,117.5 146.833,117.5 188.5,117.5 Z"/></g>
<g><path style="opacity:1" fill="#6ebfec" d="M 195.5,120.5 C 196.458,120.953 197.292,121.619 198,122.5C 198.667,145.5 198.667,168.5 198,191.5C 197.004,193.66 195.504,195.327 193.5,196.5C 194.412,194.405 195.579,192.405 197,190.5C 197.667,168.167 197.667,145.833 197,123.5C 195.961,122.756 195.461,121.756 195.5,120.5 Z"/></g>
<g><path style="opacity:0.004" fill="#0091ff" d="M 251.5,153.5 C 252.833,154.167 252.833,154.167 251.5,153.5 Z"/></g>
<g><path style="opacity:0.004" fill="#0091ff" d="M 250.5,157.5 C 251.833,158.167 251.833,158.167 250.5,157.5 Z"/></g>
<g><path style="opacity:0.004" fill="#0091ff" d="M 249.5,161.5 C 250.833,162.167 250.833,162.167 249.5,161.5 Z"/></g>
<g><path style="opacity:0.004" fill="#00fffe" d="M 7.5,173.5 C 8.83333,174.167 8.83333,174.167 7.5,173.5 Z"/></g>
<g><path style="opacity:0.004" fill="#00fffe" d="M 245.5,173.5 C 246.833,174.167 246.833,174.167 245.5,173.5 Z"/></g>
<g><path style="opacity:0.004" fill="#00fffe" d="M 10.5,180.5 C 11.8333,181.167 11.8333,181.167 10.5,180.5 Z"/></g>
<g><path style="opacity:0.004" fill="#00fffe" d="M 242.5,180.5 C 243.833,181.167 243.833,181.167 242.5,180.5 Z"/></g>
<g><path style="opacity:0.004" fill="#00fffe" d="M 241.5,182.5 C 242.833,183.167 242.833,183.167 241.5,182.5 Z"/></g>
<g><path style="opacity:0.016" fill="#00bfff" d="M 240.5,184.5 C 241.833,185.167 241.833,185.167 240.5,184.5 Z"/></g>
<g><path style="opacity:1" fill="#75c1eb" d="M 59.5,195.5 C 61.8008,196.06 64.1341,196.56 66.5,197C 108.862,197.817 151.196,197.65 193.5,196.5C 193.389,197.117 193.056,197.617 192.5,198C 149.167,198.667 105.833,198.667 62.5,198C 61.0577,197.623 60.0577,196.79 59.5,195.5 Z"/></g>
<g><path style="opacity:0.004" fill="#0091ff" d="M 215.5,218.5 C 216.833,219.167 216.833,219.167 215.5,218.5 Z"/></g>
<g><path style="opacity:0.004" fill="#00fffe" d="M 50.5,229.5 C 51.8333,230.167 51.8333,230.167 50.5,229.5 Z"/></g>
<g><path style="opacity:0.004" fill="#00fffe" d="M 202.5,229.5 C 203.833,230.167 203.833,230.167 202.5,229.5 Z"/></g>
<g><path style="opacity:0.004" fill="#00fffe" d="M 193.5,235.5 C 194.833,236.167 194.833,236.167 193.5,235.5 Z"/></g>
<g><path style="opacity:0.004" fill="#00fffe" d="M 64.5,238.5 C 65.8333,239.167 65.8333,239.167 64.5,238.5 Z"/></g>
<g><path style="opacity:0.004" fill="#00fffe" d="M 188.5,238.5 C 189.833,239.167 189.833,239.167 188.5,238.5 Z"/></g>
<g><path style="opacity:0.004" fill="#00fffe" d="M 79.5,245.5 C 80.8333,246.167 80.8333,246.167 79.5,245.5 Z"/></g>
<g><path style="opacity:0.004" fill="#00fffe" d="M 173.5,245.5 C 174.833,246.167 174.833,246.167 173.5,245.5 Z"/></g>
<g><path style="opacity:0.004" fill="#007fff" d="M 170.5,246.5 C 171.833,247.167 171.833,247.167 170.5,246.5 Z"/></g>
</svg>
