<?xml version="1.0" encoding="UTF-8"?>
<!DOCTYPE svg PUBLIC "-//W3C//DTD SVG 1.1//EN" "http://www.w3.org/Graphics/SVG/1.1/DTD/svg11.dtd">
<svg xmlns="http://www.w3.org/2000/svg" version="1.1" width="256px" height="256px" style="shape-rendering:geometricPrecision; text-rendering:geometricPrecision; image-rendering:optimizeQuality; fill-rule:evenodd; clip-rule:evenodd" xmlns:xlink="http://www.w3.org/1999/xlink">
<g><path style="opacity:0.849" fill="#fffefe" d="M 118.5,9.5 C 168.083,8.03395 205.583,28.3673 231,70.5C 253.62,117.578 249.286,161.912 218,203.5C 184.553,239.758 143.72,252.258 95.5,241C 54.3333,227.833 27.1667,200.667 14,159.5C 2.74174,111.282 15.2417,70.4485 51.5,37C 71.1354,21.1799 93.4688,12.0132 118.5,9.5 Z"/></g>
<g><path style="opacity:1" fill="#fef700" d="M 129.5,15.5 C 131.292,15.366 132.958,15.6993 134.5,16.5C 95.541,51.3049 56.2077,85.6383 16.5,119.5C 16.2641,116.391 16.5975,113.391 17.5,110.5C 21.5939,107.744 25.9272,105.41 30.5,103.5C 32.6499,100.849 34.9832,98.3494 37.5,96C 66.6004,71.4259 95.2671,46.4259 123.5,21C 126.625,20.3748 128.625,18.5415 129.5,15.5 Z"/></g>
<g><path style="opacity:1" fill="#ff3a00" d="M 85.5,24.5 C 75.9438,33.7744 66.2772,42.9411 56.5,52C 47.464,56.6835 39.7973,63.0168 33.5,71C 32.9056,71.4643 32.2389,71.631 31.5,71.5C 43.9217,49.4109 61.9217,33.7442 85.5,24.5 Z"/></g>
<g><path style="opacity:1" fill="#ff5700" d="M 92.5,21.5 C 83.754,28.5799 75.754,36.4132 68.5,45C 65.9293,45.9009 63.596,47.2342 61.5,49C 57.2245,54.1574 52.8911,59.3241 48.5,64.5C 46.1111,65.1805 43.7778,66.0138 41.5,67C 37.2418,73.4273 31.9085,78.5939 25.5,82.5C 26.7417,78.3447 28.7417,74.678 31.5,71.5C 32.2389,71.631 32.9056,71.4643 33.5,71C 39.7973,63.0168 47.464,56.6835 56.5,52C 66.2772,42.9411 75.9438,33.7744 85.5,24.5C 87.649,23.2638 89.9823,22.2638 92.5,21.5 Z"/></g>
<g><path style="opacity:1" fill="#00fe48" d="M 183.5,31.5 C 185.062,31.7329 186.395,32.3995 187.5,33.5C 184.044,37.0928 180.044,40.2595 175.5,43C 174.167,44.6667 172.833,46.3333 171.5,48C 167.449,49.3449 164.782,52.0116 163.5,56C 155.439,60.5655 148.105,66.0655 141.5,72.5C 140.5,71.1667 139.5,69.8333 138.5,68.5C 143.57,65.5592 147.903,61.7259 151.5,57C 153.596,55.2342 155.929,53.9009 158.5,53C 161.69,47.7963 166.023,44.1296 171.5,42C 175.076,37.9184 179.076,34.4184 183.5,31.5 Z"/></g>
<g><path style="opacity:1" fill="#02fe7e" d="M 190.5,35.5 C 191.5,36.1667 192.5,36.8333 193.5,37.5C 193.67,38.8221 193.337,39.9887 192.5,41C 187.355,43.6804 183.188,47.5138 180,52.5C 175.52,55.9991 171.02,59.4991 166.5,63C 163.536,66.9658 160.203,70.6325 156.5,74C 152.558,73.9366 149.558,75.6032 147.5,79C 146.255,79.7914 144.922,80.2914 143.5,80.5C 143.5,78.8333 143.5,77.1667 143.5,75.5C 155.227,65.3187 166.893,55.152 178.5,45C 179.833,44.6667 181.167,44.3333 182.5,44C 185.393,41.2768 188.06,38.4435 190.5,35.5 Z"/></g>
<g><path style="opacity:1" fill="#00fe62" d="M 187.5,33.5 C 188.71,33.9321 189.71,34.5987 190.5,35.5C 188.06,38.4435 185.393,41.2768 182.5,44C 181.167,44.3333 179.833,44.6667 178.5,45C 166.893,55.152 155.227,65.3187 143.5,75.5C 142.599,74.7095 141.932,73.7095 141.5,72.5C 148.105,66.0655 155.439,60.5655 163.5,56C 164.782,52.0116 167.449,49.3449 171.5,48C 172.833,46.3333 174.167,44.6667 175.5,43C 180.044,40.2595 184.044,37.0928 187.5,33.5 Z"/></g>
<g><path style="opacity:0.9" fill="#fefffe" d="M 138.5,68.5 C 139.5,69.8333 140.5,71.1667 141.5,72.5C 141.932,73.7095 142.599,74.7095 143.5,75.5C 143.5,77.1667 143.5,78.8333 143.5,80.5C 143.014,90.1755 138.014,95.5088 128.5,96.5C 126.5,96.5 124.5,96.5 122.5,96.5C 122.158,95.6618 121.492,95.3284 120.5,95.5C 118.46,93.823 116.46,92.1563 114.5,90.5C 114.068,89.2905 113.401,88.2905 112.5,87.5C 111.676,84.2356 111.342,80.9023 111.5,77.5C 116.989,63.9205 125.989,60.9205 138.5,68.5 Z"/></g>
<g><path style="opacity:1" fill="#01fef4" d="M 203.5,46.5 C 204.833,47.1667 205.833,48.1667 206.5,49.5C 180.871,71.1267 155.538,93.1267 130.5,115.5C 130.88,113.302 130.213,111.635 128.5,110.5C 133.079,107.593 137.079,103.926 140.5,99.5C 151.114,93.4219 160.447,85.7553 168.5,76.5C 177.356,69.1432 186.356,61.9765 195.5,55C 198.004,51.9362 200.671,49.1029 203.5,46.5 Z"/></g>
<g><path style="opacity:1" fill="#ffa600" d="M 115.5,16.5 C 111.824,21.5093 107.157,25.3427 101.5,28C 97.8155,33.3302 93.1488,37.4969 87.5,40.5C 77.8092,50.3577 67.6426,59.691 57,68.5C 56.6905,69.7659 56.1905,70.9326 55.5,72C 52.177,74.3242 49.177,76.9908 46.5,80C 45.1667,80.3333 43.8333,80.6667 42.5,81C 35.7495,87.7508 29.0828,94.5842 22.5,101.5C 21.2342,102.362 19.9008,103.029 18.5,103.5C 19.0147,101.106 19.6814,98.7722 20.5,96.5C 33.6268,85.8781 46.6268,75.0447 59.5,64C 60.8065,61.4272 62.4731,59.0939 64.5,57C 75.5404,47.49 86.5404,37.99 97.5,28.5C 98.3857,27.675 98.719,26.675 98.5,25.5C 99.9217,25.2914 101.255,24.7914 102.5,24C 104.027,21.3098 106.027,19.1432 108.5,17.5C 110.806,17.0074 113.139,16.6741 115.5,16.5 Z"/></g>
<g><path style="opacity:1" fill="#01b7ff" d="M 212.5,55.5 C 213.167,55.5 213.5,55.8333 213.5,56.5C 210.747,59.5876 208.08,62.7543 205.5,66C 200.334,68.6413 196.001,72.308 192.5,77C 186.824,80.3148 181.824,84.3148 177.5,89C 171.024,93.748 164.691,98.748 158.5,104C 150.806,111.694 143.14,119.36 135.5,127C 133.922,128.094 132.255,128.928 130.5,129.5C 130.5,127.833 130.5,126.167 130.5,124.5C 137.86,116.809 145.86,109.809 154.5,103.5C 156.541,102.764 158.541,101.931 160.5,101C 165.2,96.3859 169.533,91.5525 173.5,86.5C 181.086,83.3776 187.086,78.3776 191.5,71.5C 198.688,67.9086 204.688,62.9086 209.5,56.5C 210.417,55.8728 211.417,55.5394 212.5,55.5 Z"/></g>
<g><path style="opacity:1" fill="#01d9ff" d="M 208.5,51.5 C 209.5,51.8333 210.167,52.5 210.5,53.5C 205.037,59.0563 199.037,63.8897 192.5,68C 185.643,73.6913 179.31,79.858 173.5,86.5C 169.533,91.5525 165.2,96.3859 160.5,101C 158.541,101.931 156.541,102.764 154.5,103.5C 145.86,109.809 137.86,116.809 130.5,124.5C 130.5,122.833 130.5,121.167 130.5,119.5C 131.239,119.631 131.906,119.464 132.5,119C 137.952,112.225 143.952,106.058 150.5,100.5C 156.705,96.7462 162.038,92.0795 166.5,86.5C 168.22,85.066 170.22,84.2326 172.5,84C 179.353,78.6475 185.353,72.4808 190.5,65.5C 196.514,60.7372 202.514,56.0705 208.5,51.5 Z"/></g>
<g><path style="opacity:1" fill="#ffd900" d="M 129.5,15.5 C 128.625,18.5415 126.625,20.3748 123.5,21C 95.2671,46.4259 66.6004,71.4259 37.5,96C 34.9832,98.3494 32.6499,100.849 30.5,103.5C 25.9272,105.41 21.5939,107.744 17.5,110.5C 17.5,109.5 17.5,108.5 17.5,107.5C 23.9915,103.084 30.3249,98.4169 36.5,93.5C 42.6111,88.1085 48.2778,82.2751 53.5,76C 60.5497,72.794 66.5497,68.1273 71.5,62C 72.448,61.5172 73.448,61.3505 74.5,61.5C 78.0124,56.149 82.5124,51.4824 88,47.5C 94.8349,38.6699 103.002,31.1699 112.5,25C 115.343,22.3235 118.01,19.4901 120.5,16.5C 123.391,15.5975 126.391,15.2641 129.5,15.5 Z"/></g>
<g><path style="opacity:1" fill="#93ff00" d="M 149.5,18.5 C 151.292,18.366 152.958,18.6993 154.5,19.5C 152.648,21.9912 150.648,24.4912 148.5,27C 140.339,33.9098 132.006,40.5764 123.5,47C 109.945,58.886 96.9446,71.5527 84.5,85C 78.0997,88.4913 72.7663,93.158 68.5,99C 50.9857,113.355 33.9857,128.188 17.5,143.5C 16.5206,140.375 16.1872,137.042 16.5,133.5C 18.5952,132.588 20.5952,131.421 22.5,130C 29.7781,121.38 38.4448,114.713 48.5,110C 49.3366,108.989 49.67,107.822 49.5,106.5C 54.9895,105.325 58.4895,101.992 60,96.5C 61.0674,95.8095 62.2341,95.3095 63.5,95C 67.212,89.6207 71.8787,85.2873 77.5,82C 85.616,73.2112 94.616,65.5445 104.5,59C 108.552,51.9476 114.219,46.6143 121.5,43C 125.922,37.5495 131.256,33.0495 137.5,29.5C 141.546,25.7831 145.546,22.1165 149.5,18.5 Z"/></g>
<g><path style="opacity:1" fill="#01a1ff" d="M 213.5,56.5 C 214.488,57.795 215.488,59.1283 216.5,60.5C 214.228,64.2546 210.894,66.7546 206.5,68C 193.22,80.4121 179.553,92.4121 165.5,104C 163.229,106.092 160.563,107.426 157.5,108C 150.525,114.876 143.525,121.876 136.5,129C 134.595,130.421 132.595,131.588 130.5,132.5C 130.5,131.5 130.5,130.5 130.5,129.5C 132.255,128.928 133.922,128.094 135.5,127C 143.14,119.36 150.806,111.694 158.5,104C 164.691,98.748 171.024,93.748 177.5,89C 181.824,84.3148 186.824,80.3148 192.5,77C 196.001,72.308 200.334,68.6413 205.5,66C 208.08,62.7543 210.747,59.5876 213.5,56.5 Z"/></g>
<g><path style="opacity:1" fill="#ff9201" d="M 98.5,25.5 C 98.719,26.675 98.3857,27.675 97.5,28.5C 86.5404,37.99 75.5404,47.49 64.5,57C 62.4731,59.0939 60.8065,61.4272 59.5,64C 46.6268,75.0447 33.6268,85.8781 20.5,96.5C 20.595,94.2143 21.2616,92.2143 22.5,90.5C 24.6125,89.5604 26.6125,88.3937 28.5,87C 34.1716,80.9954 40.1716,75.3287 46.5,70C 47.5,69.6667 48.5,69.3333 49.5,69C 51.7945,66.0304 54.1279,63.0304 56.5,60C 58.087,59.1376 59.7536,58.4709 61.5,58C 73.4027,46.5922 85.736,35.7589 98.5,25.5 Z"/></g>
<g><path style="opacity:1" fill="#00fe24" d="M 136.5,76.5 C 132.875,79.2525 128.875,81.4191 124.5,83C 123.267,84.6667 121.933,86.1667 120.5,87.5C 118.172,85.8339 117.172,83.5005 117.5,80.5C 118.517,72.1481 123.184,68.9814 131.5,71C 134.079,72.0757 135.746,73.909 136.5,76.5 Z"/></g>
<g><path style="opacity:1" fill="#00c8ff" d="M 210.5,53.5 C 211.5,53.8333 212.167,54.5 212.5,55.5C 211.417,55.5394 210.417,55.8728 209.5,56.5C 204.688,62.9086 198.688,67.9086 191.5,71.5C 187.086,78.3776 181.086,83.3776 173.5,86.5C 179.31,79.858 185.643,73.6913 192.5,68C 199.037,63.8897 205.037,59.0563 210.5,53.5 Z"/></g>
<g><path style="opacity:1" fill="#ffbe00" d="M 115.5,16.5 C 117.167,16.5 118.833,16.5 120.5,16.5C 118.01,19.4901 115.343,22.3235 112.5,25C 103.002,31.1699 94.8349,38.6699 88,47.5C 82.5124,51.4824 78.0124,56.149 74.5,61.5C 73.448,61.3505 72.448,61.5172 71.5,62C 66.5497,68.1273 60.5497,72.794 53.5,76C 48.2778,82.2751 42.6111,88.1085 36.5,93.5C 30.3249,98.4169 23.9915,103.084 17.5,107.5C 17.8333,106.167 18.1667,104.833 18.5,103.5C 19.9008,103.029 21.2342,102.362 22.5,101.5C 29.0828,94.5842 35.7495,87.7508 42.5,81C 43.8333,80.6667 45.1667,80.3333 46.5,80C 49.177,76.9908 52.177,74.3242 55.5,72C 56.1905,70.9326 56.6905,69.7659 57,68.5C 67.6426,59.691 77.8092,50.3577 87.5,40.5C 93.1488,37.4969 97.8155,33.3302 101.5,28C 107.157,25.3427 111.824,21.5093 115.5,16.5 Z"/></g>
<g><path style="opacity:1" fill="#06fe0e" d="M 111.5,77.5 C 111.342,80.9023 111.676,84.2356 112.5,87.5C 112.631,88.2389 112.464,88.9056 112,89.5C 107.92,91.9107 104.92,95.244 103,99.5C 92.1713,109.673 81.0047,119.506 69.5,129C 68.87,130.892 67.87,132.559 66.5,134C 60.6881,138.181 54.6881,141.848 48.5,145C 40.6144,152.721 32.2811,159.888 23.5,166.5C 21.5275,163.916 20.5275,160.916 20.5,157.5C 24.1388,153.873 28.1388,150.539 32.5,147.5C 37.7024,140.2 44.369,134.7 52.5,131C 55.6991,128.866 58.0324,126.033 59.5,122.5C 68.622,116.862 76.9553,110.362 84.5,103C 86.6948,99.8723 89.0282,96.8723 91.5,94C 92.5,93.6667 93.5,93.3333 94.5,93C 98.6821,88.985 102.682,84.8183 106.5,80.5C 108.201,79.4457 109.868,78.4457 111.5,77.5 Z"/></g>
<g><path style="opacity:1" fill="#018aff" d="M 216.5,60.5 C 217.338,60.8417 217.672,61.5084 217.5,62.5C 215.599,64.7957 213.266,66.629 210.5,68C 205.812,72.5625 201.479,77.3959 197.5,82.5C 195.076,83.0305 192.743,83.8638 190.5,85C 186.774,89.7007 182.441,93.7007 177.5,97C 176.552,97.4828 175.552,97.6495 174.5,97.5C 174.66,99.1992 174.494,100.866 174,102.5C 169.151,106.328 163.984,109.828 158.5,113C 149.27,121.735 139.937,130.235 130.5,138.5C 130.5,136.5 130.5,134.5 130.5,132.5C 132.595,131.588 134.595,130.421 136.5,129C 143.525,121.876 150.525,114.876 157.5,108C 160.563,107.426 163.229,106.092 165.5,104C 179.553,92.4121 193.22,80.4121 206.5,68C 210.894,66.7546 214.228,64.2546 216.5,60.5 Z"/></g>
<g><path style="opacity:1" fill="#6fff00" d="M 154.5,19.5 C 155.167,19.5 155.833,19.5 156.5,19.5C 153.544,24.6204 149.377,28.6204 144,31.5C 141.646,37.2672 137.479,41.1006 131.5,43C 128.826,45.8089 126.493,48.8089 124.5,52C 122.473,53.8793 120.14,55.046 117.5,55.5C 115.405,60.1406 112.405,64.3073 108.5,68C 87.8738,85.9901 67.2072,103.99 46.5,122C 44.5125,123.319 43.3459,125.152 43,127.5C 37.8595,132.305 32.6928,137.139 27.5,142C 24.6867,144.91 21.3534,147.077 17.5,148.5C 17.5,146.833 17.5,145.167 17.5,143.5C 33.9857,128.188 50.9857,113.355 68.5,99C 72.7663,93.158 78.0997,88.4913 84.5,85C 96.9446,71.5527 109.945,58.886 123.5,47C 132.006,40.5764 140.339,33.9098 148.5,27C 150.648,24.4912 152.648,21.9912 154.5,19.5 Z"/></g>
<g><path style="opacity:1" fill="#03fe55" d="M 136.5,76.5 C 138.642,86.8629 134.309,91.3629 123.5,90C 122.058,89.6232 121.058,88.7899 120.5,87.5C 121.933,86.1667 123.267,84.6667 124.5,83C 128.875,81.4191 132.875,79.2525 136.5,76.5 Z"/></g>
<g><path style="opacity:1" fill="#ff7700" d="M 108.5,17.5 C 106.027,19.1432 104.027,21.3098 102.5,24C 101.255,24.7914 99.9217,25.2914 98.5,25.5C 85.736,35.7589 73.4027,46.5922 61.5,58C 59.7536,58.4709 58.087,59.1376 56.5,60C 54.1279,63.0304 51.7945,66.0304 49.5,69C 48.5,69.3333 47.5,69.6667 46.5,70C 40.1716,75.3287 34.1716,80.9954 28.5,87C 26.6125,88.3937 24.6125,89.5604 22.5,90.5C 23.1084,87.6733 24.1084,85.0067 25.5,82.5C 31.9085,78.5939 37.2418,73.4273 41.5,67C 43.7778,66.0138 46.1111,65.1805 48.5,64.5C 52.8911,59.3241 57.2245,54.1574 61.5,49C 63.596,47.2342 65.9293,45.9009 68.5,45C 75.754,36.4132 83.754,28.5799 92.5,21.5C 97.7335,19.8583 103.067,18.525 108.5,17.5 Z"/></g>
<g><path style="opacity:1" fill="#0152ff" d="M 220.5,65.5 C 221.11,66.391 221.443,67.391 221.5,68.5C 218.323,71.0107 215.99,74.1773 214.5,78C 207.249,84.1012 199.915,89.9346 192.5,95.5C 184.646,102.17 176.312,108.336 167.5,114C 163.746,117.084 160.746,120.75 158.5,125C 149.057,132.741 139.724,140.574 130.5,148.5C 130.5,147.167 130.5,145.833 130.5,144.5C 138.664,138.58 146.664,132.414 154.5,126C 156.482,123.693 158.149,121.193 159.5,118.5C 179.948,102.218 199.281,84.7184 217.5,66C 218.448,65.5172 219.448,65.3505 220.5,65.5 Z"/></g>
<g><path style="opacity:1" fill="#01fec7" d="M 199.5,42.5 C 200.833,43.1667 201.833,44.1667 202.5,45.5C 198.561,50.2344 193.561,53.7344 187.5,56C 185.787,57.3782 184.453,59.0448 183.5,61C 172.912,69.6453 162.246,78.312 151.5,87C 148.374,89.4503 146.041,92.4503 144.5,96C 136.408,99.4185 129.408,104.418 123.5,111C 121.753,111.352 120.086,111.852 118.5,112.5C 119.048,110.606 120.048,108.94 121.5,107.5C 133.559,99.3199 144.559,89.9866 154.5,79.5C 157.676,77.1702 161.009,75.0035 164.5,73C 167.577,67.9285 171.911,64.2618 177.5,62C 178.453,60.0448 179.787,58.3782 181.5,57C 187.396,51.9657 193.396,47.1324 199.5,42.5 Z"/></g>
<g><path style="opacity:1" fill="#0177ff" d="M 197.5,82.5 C 197.489,84.0174 196.823,85.1841 195.5,86C 192.986,87.7573 190.319,89.2573 187.5,90.5C 182.771,96.5788 177.437,102.079 171.5,107C 168.076,110.259 164.076,112.592 159.5,114C 149.992,123.675 140.325,133.175 130.5,142.5C 130.5,141.167 130.5,139.833 130.5,138.5C 139.937,130.235 149.27,121.735 158.5,113C 163.984,109.828 169.151,106.328 174,102.5C 174.494,100.866 174.66,99.1992 174.5,97.5C 175.552,97.6495 176.552,97.4828 177.5,97C 182.441,93.7007 186.774,89.7007 190.5,85C 192.743,83.8638 195.076,83.0305 197.5,82.5 Z"/></g>
<g><path style="opacity:1" fill="#0168ff" d="M 217.5,62.5 C 218.833,63.1667 219.833,64.1667 220.5,65.5C 219.448,65.3505 218.448,65.5172 217.5,66C 199.281,84.7184 179.948,102.218 159.5,118.5C 158.149,121.193 156.482,123.693 154.5,126C 146.664,132.414 138.664,138.58 130.5,144.5C 130.5,143.833 130.5,143.167 130.5,142.5C 140.325,133.175 149.992,123.675 159.5,114C 164.076,112.592 168.076,110.259 171.5,107C 177.437,102.079 182.771,96.5788 187.5,90.5C 190.319,89.2573 192.986,87.7573 195.5,86C 196.823,85.1841 197.489,84.0174 197.5,82.5C 201.479,77.3959 205.812,72.5625 210.5,68C 213.266,66.629 215.599,64.7957 217.5,62.5 Z"/></g>
<g><path style="opacity:1" fill="#e4ff00" d="M 134.5,16.5 C 137.167,16.5 139.833,16.5 142.5,16.5C 141.928,18.2554 141.094,19.9221 140,21.5C 131.063,27.9335 122.563,34.9335 114.5,42.5C 113.614,43.325 113.281,44.325 113.5,45.5C 109.9,46.473 107.233,48.6397 105.5,52C 98.8953,55.8573 92.8953,60.524 87.5,66C 85.444,66.3108 83.444,66.8108 81.5,67.5C 76.0149,73.4854 70.3482,79.3188 64.5,85C 58.5593,88.2853 53.226,92.2853 48.5,97C 45.5555,99.8692 43.0555,103.036 41,106.5C 39.2197,107.594 37.3864,108.594 35.5,109.5C 32.3258,115.348 27.6591,119.348 21.5,121.5C 19.4934,123.533 17.4934,125.533 15.5,127.5C 15.4013,124.763 15.7347,122.096 16.5,119.5C 56.2077,85.6383 95.541,51.3049 134.5,16.5 Z"/></g>
<g><path style="opacity:1" fill="#00efff" d="M 206.5,49.5 C 207.5,49.8333 208.167,50.5 208.5,51.5C 202.514,56.0705 196.514,60.7372 190.5,65.5C 185.353,72.4808 179.353,78.6475 172.5,84C 170.22,84.2326 168.22,85.066 166.5,86.5C 162.038,92.0795 156.705,96.7462 150.5,100.5C 143.952,106.058 137.952,112.225 132.5,119C 131.906,119.464 131.239,119.631 130.5,119.5C 130.5,118.167 130.5,116.833 130.5,115.5C 155.538,93.1267 180.871,71.1267 206.5,49.5 Z"/></g>
<g><path style="opacity:0.88" fill="#fefffe" d="M 128.5,110.5 C 130.213,111.635 130.88,113.302 130.5,115.5C 130.5,116.833 130.5,118.167 130.5,119.5C 130.5,121.167 130.5,122.833 130.5,124.5C 130.5,126.167 130.5,127.833 130.5,129.5C 130.5,130.5 130.5,131.5 130.5,132.5C 130.5,134.5 130.5,136.5 130.5,138.5C 130.5,139.833 130.5,141.167 130.5,142.5C 130.5,143.167 130.5,143.833 130.5,144.5C 130.5,145.833 130.5,147.167 130.5,148.5C 130.5,149.833 130.5,151.167 130.5,152.5C 130.5,154.167 130.5,155.833 130.5,157.5C 130.5,162.833 130.5,168.167 130.5,173.5C 130.5,175.833 130.5,178.167 130.5,180.5C 130.5,182.833 130.5,185.167 130.5,187.5C 129.952,190.084 128.285,191.084 125.5,190.5C 124.612,187.946 124.279,185.279 124.5,182.5C 124.5,176.167 124.5,169.833 124.5,163.5C 124.5,161.167 124.5,158.833 124.5,156.5C 124.5,155.167 124.5,153.833 124.5,152.5C 124.5,151.167 124.5,149.833 124.5,148.5C 124.5,145.5 124.5,142.5 124.5,139.5C 124.5,138.833 124.5,138.167 124.5,137.5C 124.5,134.167 124.5,130.833 124.5,127.5C 124.5,126.5 124.5,125.5 124.5,124.5C 124.5,123.5 124.5,122.5 124.5,121.5C 124.5,120.167 124.5,118.833 124.5,117.5C 124.338,115.473 124.505,113.473 125,111.5C 126.011,110.663 127.178,110.33 128.5,110.5 Z"/></g>
<g><path style="opacity:1" fill="#00fe3b" d="M 112.5,87.5 C 113.401,88.2905 114.068,89.2905 114.5,90.5C 114.657,91.8734 114.49,93.2068 114,94.5C 99.9694,107.697 85.4694,120.363 70.5,132.5C 64.8416,139.825 58.5083,146.491 51.5,152.5C 42.781,159.564 34.1144,166.564 25.5,173.5C 24.5448,171.254 23.8782,168.921 23.5,166.5C 32.2811,159.888 40.6144,152.721 48.5,145C 54.6881,141.848 60.6881,138.181 66.5,134C 67.87,132.559 68.87,130.892 69.5,129C 81.0047,119.506 92.1713,109.673 103,99.5C 104.92,95.244 107.92,91.9107 112,89.5C 112.464,88.9056 112.631,88.2389 112.5,87.5 Z"/></g>
<g><path style="opacity:1" fill="#34ff06" d="M 156.5,19.5 C 166.174,22.1742 175.174,26.1742 183.5,31.5C 179.076,34.4184 175.076,37.9184 171.5,42C 166.023,44.1296 161.69,47.7963 158.5,53C 155.929,53.9009 153.596,55.2342 151.5,57C 147.903,61.7259 143.57,65.5592 138.5,68.5C 125.989,60.9205 116.989,63.9205 111.5,77.5C 109.868,78.4457 108.201,79.4457 106.5,80.5C 102.682,84.8183 98.6821,88.985 94.5,93C 93.5,93.3333 92.5,93.6667 91.5,94C 89.0282,96.8723 86.6948,99.8723 84.5,103C 76.9553,110.362 68.622,116.862 59.5,122.5C 58.0324,126.033 55.6991,128.866 52.5,131C 44.369,134.7 37.7024,140.2 32.5,147.5C 28.1388,150.539 24.1388,153.873 20.5,157.5C 19.36,154.632 18.36,151.632 17.5,148.5C 21.3534,147.077 24.6867,144.91 27.5,142C 32.6928,137.139 37.8595,132.305 43,127.5C 43.3459,125.152 44.5125,123.319 46.5,122C 67.2072,103.99 87.8738,85.9901 108.5,68C 112.405,64.3073 115.405,60.1406 117.5,55.5C 120.14,55.046 122.473,53.8793 124.5,52C 126.493,48.8089 128.826,45.8089 131.5,43C 137.479,41.1006 141.646,37.2672 144,31.5C 149.377,28.6204 153.544,24.6204 156.5,19.5 Z"/></g>
<g><path style="opacity:1" fill="#c8ff00" d="M 113.5,45.5 C 111.388,47.7933 109.388,50.2933 107.5,53C 98.8455,58.7205 90.5122,64.8872 82.5,71.5C 80.1397,74.3603 77.973,77.3603 76,80.5C 69.297,87.0348 62.1303,93.0348 54.5,98.5C 47.4196,106.245 39.4196,112.912 30.5,118.5C 28.7123,120.576 27.0456,122.743 25.5,125C 23.5,125.333 21.5,125.667 19.5,126C 18.6719,127.992 17.3386,129.492 15.5,130.5C 15.5,129.5 15.5,128.5 15.5,127.5C 17.4934,125.533 19.4934,123.533 21.5,121.5C 27.6591,119.348 32.3258,115.348 35.5,109.5C 37.3864,108.594 39.2197,107.594 41,106.5C 43.0555,103.036 45.5555,99.8692 48.5,97C 53.226,92.2853 58.5593,88.2853 64.5,85C 70.3482,79.3188 76.0149,73.4854 81.5,67.5C 83.444,66.8108 85.444,66.3108 87.5,66C 92.8953,60.524 98.8953,55.8573 105.5,52C 107.233,48.6397 109.9,46.473 113.5,45.5 Z"/></g>
<g><path style="opacity:1" fill="#02ffd3" d="M 202.5,45.5 C 203.167,45.5 203.5,45.8333 203.5,46.5C 200.671,49.1029 198.004,51.9362 195.5,55C 186.356,61.9765 177.356,69.1432 168.5,76.5C 160.447,85.7553 151.114,93.4219 140.5,99.5C 137.079,103.926 133.079,107.593 128.5,110.5C 127.178,110.33 126.011,110.663 125,111.5C 124.505,113.473 124.338,115.473 124.5,117.5C 122.184,118.422 120.517,120.089 119.5,122.5C 118.448,122.351 117.448,122.517 116.5,123C 112.5,127 108.5,131 104.5,135C 101.221,137.411 97.5548,139.078 93.5,140C 88.9939,144.839 84.1605,149.339 79,153.5C 78.6541,155.848 77.4875,157.681 75.5,159C 67.6921,162.657 61.3588,167.99 56.5,175C 49.6932,180.305 43.0266,185.805 36.5,191.5C 35.0937,191.027 34.427,190.027 34.5,188.5C 40.0369,184.439 45.3702,180.105 50.5,175.5C 57.1403,169.857 63.1403,163.524 68.5,156.5C 77.1064,150.027 85.1064,142.86 92.5,135C 94.4899,133.249 96.8232,132.249 99.5,132C 105.328,124.863 111.662,118.363 118.5,112.5C 120.086,111.852 121.753,111.352 123.5,111C 129.408,104.418 136.408,99.4185 144.5,96C 146.041,92.4503 148.374,89.4503 151.5,87C 162.246,78.312 172.912,69.6453 183.5,61C 184.453,59.0448 185.787,57.3782 187.5,56C 193.561,53.7344 198.561,50.2344 202.5,45.5 Z"/></g>
<g><path style="opacity:1" fill="#00fdfd" d="M 124.5,117.5 C 124.5,118.833 124.5,120.167 124.5,121.5C 96.169,146.164 67.8356,170.831 39.5,195.5C 38.8333,195.5 38.5,195.167 38.5,194.5C 65.6473,170.744 92.6473,146.744 119.5,122.5C 120.517,120.089 122.184,118.422 124.5,117.5 Z"/></g>
<g><path style="opacity:1" fill="#b5ff00" d="M 142.5,16.5 C 144.952,17.0654 147.285,17.7321 149.5,18.5C 145.546,22.1165 141.546,25.7831 137.5,29.5C 131.256,33.0495 125.922,37.5495 121.5,43C 114.219,46.6143 108.552,51.9476 104.5,59C 94.616,65.5445 85.616,73.2112 77.5,82C 71.8787,85.2873 67.212,89.6207 63.5,95C 62.2341,95.3095 61.0674,95.8095 60,96.5C 58.4895,101.992 54.9895,105.325 49.5,106.5C 49.67,107.822 49.3366,108.989 48.5,110C 38.4448,114.713 29.7781,121.38 22.5,130C 20.5952,131.421 18.5952,132.588 16.5,133.5C 15.596,132.791 15.2627,131.791 15.5,130.5C 17.3386,129.492 18.6719,127.992 19.5,126C 21.5,125.667 23.5,125.333 25.5,125C 27.0456,122.743 28.7123,120.576 30.5,118.5C 39.4196,112.912 47.4196,106.245 54.5,98.5C 62.1303,93.0348 69.297,87.0348 76,80.5C 77.973,77.3603 80.1397,74.3603 82.5,71.5C 90.5122,64.8872 98.8455,58.7205 107.5,53C 109.388,50.2933 111.388,47.7933 113.5,45.5C 113.281,44.325 113.614,43.325 114.5,42.5C 122.563,34.9335 131.063,27.9335 140,21.5C 141.094,19.9221 141.928,18.2554 142.5,16.5 Z"/></g>
<g><path style="opacity:1" fill="#01fe70" d="M 120.5,95.5 C 121.492,95.3284 122.158,95.6618 122.5,96.5C 120.968,99.0574 119.301,101.557 117.5,104C 105.177,111.997 94.5099,121.664 85.5,133C 80.6259,136.362 75.7926,139.862 71,143.5C 70.6397,145.421 69.8064,147.088 68.5,148.5C 65.5,150.333 62.5,152.167 59.5,154C 54.9125,157.254 50.9125,161.254 47.5,166C 40.7087,169.969 34.7087,174.802 29.5,180.5C 28.6618,180.158 28.3284,179.492 28.5,178.5C 32.3618,175.8 35.3618,172.3 37.5,168C 41.674,164.992 45.3407,161.492 48.5,157.5C 54.4557,154.712 58.9557,150.378 62,144.5C 72.0209,137.146 81.1876,128.813 89.5,119.5C 94.0765,115.775 99.0765,112.608 104.5,110C 110.029,105.301 115.362,100.468 120.5,95.5 Z"/></g>
<g><path style="opacity:1" fill="#0028ff" d="M 221.5,68.5 C 223.25,69.6594 224.25,71.326 224.5,73.5C 214.798,81.2015 206.132,89.8682 198.5,99.5C 187.305,107.352 176.971,116.352 167.5,126.5C 154.855,136.48 142.521,146.813 130.5,157.5C 130.5,155.833 130.5,154.167 130.5,152.5C 149.662,137.165 167.995,120.999 185.5,104C 188.447,101.564 190.78,98.7311 192.5,95.5C 199.915,89.9346 207.249,84.1012 214.5,78C 215.99,74.1773 218.323,71.0107 221.5,68.5 Z"/></g>
<g><path style="opacity:1" fill="#ff00ea" d="M 238.5,117.5 C 238.5,118.833 238.5,120.167 238.5,121.5C 238.5,121.833 238.5,122.167 238.5,122.5C 220.635,138.201 202.635,153.701 184.5,169C 177.269,173.228 170.936,178.561 165.5,185C 162.499,184.906 160.499,186.239 159.5,189C 157.922,190.094 156.255,190.928 154.5,191.5C 181.799,166.211 209.799,141.545 238.5,117.5 Z"/></g>
<g><path style="opacity:1" fill="#01dbff" d="M 124.5,124.5 C 124.5,125.5 124.5,126.5 124.5,127.5C 119.667,134.162 113.667,139.662 106.5,144C 102.998,148.696 98.6649,152.363 93.5,155C 85.5663,165.431 75.8997,173.931 64.5,180.5C 57.4027,187.269 50.4027,193.936 43.5,200.5C 42.5,200.167 41.8333,199.5 41.5,198.5C 54.7014,186.467 68.3681,174.967 82.5,164C 86.1829,160.146 89.5162,155.98 92.5,151.5C 93.7287,150.719 95.062,150.219 96.5,150C 98.6248,146.375 101.291,143.209 104.5,140.5C 111.165,135.177 117.832,129.844 124.5,124.5 Z"/></g>
<g><path style="opacity:1" fill="#02feae" d="M 193.5,37.5 C 195.54,39.177 197.54,40.8437 199.5,42.5C 193.396,47.1324 187.396,51.9657 181.5,57C 179.787,58.3782 178.453,60.0448 177.5,62C 171.911,64.2618 167.577,67.9285 164.5,73C 161.009,75.0035 157.676,77.1702 154.5,79.5C 144.559,89.9866 133.559,99.3199 121.5,107.5C 120.048,108.94 119.048,110.606 118.5,112.5C 111.662,118.363 105.328,124.863 99.5,132C 96.8232,132.249 94.4899,133.249 92.5,135C 85.1064,142.86 77.1064,150.027 68.5,156.5C 63.1403,163.524 57.1403,169.857 50.5,175.5C 45.3702,180.105 40.0369,184.439 34.5,188.5C 32.7497,187.341 31.7497,185.674 31.5,183.5C 37.9776,178.524 44.3109,173.357 50.5,168C 53.5924,163.826 56.9257,159.826 60.5,156C 69.5496,150.147 78.2163,143.813 86.5,137C 90.904,133.766 94.904,129.933 98.5,125.5C 100.22,124.066 102.22,123.233 104.5,123C 111.94,113.589 119.94,104.756 128.5,96.5C 138.014,95.5088 143.014,90.1755 143.5,80.5C 144.922,80.2914 146.255,79.7914 147.5,79C 149.558,75.6032 152.558,73.9366 156.5,74C 160.203,70.6325 163.536,66.9658 166.5,63C 171.02,59.4991 175.52,55.9991 180,52.5C 183.188,47.5138 187.355,43.6804 192.5,41C 193.337,39.9887 193.67,38.8221 193.5,37.5 Z"/></g>
<g><path style="opacity:1" fill="#003dff" d="M 192.5,95.5 C 190.78,98.7311 188.447,101.564 185.5,104C 167.995,120.999 149.662,137.165 130.5,152.5C 130.5,151.167 130.5,149.833 130.5,148.5C 139.724,140.574 149.057,132.741 158.5,125C 160.746,120.75 163.746,117.084 167.5,114C 176.312,108.336 184.646,102.17 192.5,95.5 Z"/></g>
<g><path style="opacity:1" fill="#4a00ff" d="M 228.5,80.5 C 230.346,83.54 231.679,86.8733 232.5,90.5C 227.443,95.0537 222.443,99.8871 217.5,105C 212.513,108.513 207.847,112.513 203.5,117C 202.5,117.333 201.5,117.667 200.5,118C 193.63,125.929 185.63,132.429 176.5,137.5C 174.37,140.918 171.37,143.418 167.5,145C 161.951,150.73 156.618,156.73 151.5,163C 144.479,168.839 137.479,174.672 130.5,180.5C 130.5,178.167 130.5,175.833 130.5,173.5C 137.315,168.184 143.649,162.351 149.5,156C 156.55,152.121 162.55,146.954 167.5,140.5C 171.628,137.928 175.628,135.095 179.5,132C 182.353,126.206 186.687,121.706 192.5,118.5C 195.618,115.093 198.618,111.593 201.5,108C 205.715,107.622 208.715,105.622 210.5,102C 214.857,98.6357 219.191,95.3024 223.5,92C 227.285,89.0598 228.952,85.2265 228.5,80.5 Z"/></g>
<g><path style="opacity:1" fill="#a200ff" d="M 234.5,97.5 C 235.612,99.5994 236.279,101.933 236.5,104.5C 235.127,104.343 233.793,104.51 232.5,105C 212.417,122.761 192.417,140.427 172.5,158C 171.5,158.333 170.5,158.667 169.5,159C 168.266,161.924 166.599,164.591 164.5,167C 156.204,173.627 148.204,180.627 140.5,188C 136.181,189.398 133.348,192.232 132,196.5C 126.949,199.398 122.782,203.064 119.5,207.5C 108.918,214.747 99.251,223.081 90.5,232.5C 89.1667,232.167 87.8333,231.833 86.5,231.5C 97.2544,221.564 107.921,211.397 118.5,201C 121.813,199.032 125.146,197.032 128.5,195C 135.41,188.594 141.744,181.761 147.5,174.5C 169.969,154.871 192.636,135.371 215.5,116C 218.151,112.039 221.151,108.372 224.5,105C 227.792,102.224 231.125,99.7244 234.5,97.5 Z"/></g>
<g><path style="opacity:1" fill="#01fe5b" d="M 114.5,90.5 C 116.46,92.1563 118.46,93.823 120.5,95.5C 115.362,100.468 110.029,105.301 104.5,110C 99.0765,112.608 94.0765,115.775 89.5,119.5C 81.1876,128.813 72.0209,137.146 62,144.5C 58.9557,150.378 54.4557,154.712 48.5,157.5C 45.3407,161.492 41.674,164.992 37.5,168C 35.3618,172.3 32.3618,175.8 28.5,178.5C 27.2632,177.035 26.2632,175.368 25.5,173.5C 34.1144,166.564 42.781,159.564 51.5,152.5C 58.5083,146.491 64.8416,139.825 70.5,132.5C 85.4694,120.363 99.9694,107.697 114,94.5C 114.49,93.2068 114.657,91.8734 114.5,90.5 Z"/></g>
<g><path style="opacity:1" fill="#6f00ff" d="M 232.5,90.5 C 233.404,91.209 233.737,92.209 233.5,93.5C 233.013,94.4734 232.513,95.4734 232,96.5C 224.413,102.21 217.579,108.71 211.5,116C 210.5,116.333 209.5,116.667 208.5,117C 202.14,122.027 196.473,127.694 191.5,134C 190.167,134.333 188.833,134.667 187.5,135C 179.166,141.703 171.499,149.036 164.5,157C 155.984,163.426 147.651,170.093 139.5,177C 137.381,181.283 134.381,184.783 130.5,187.5C 130.5,185.167 130.5,182.833 130.5,180.5C 137.479,174.672 144.479,168.839 151.5,163C 156.618,156.73 161.951,150.73 167.5,145C 171.37,143.418 174.37,140.918 176.5,137.5C 185.63,132.429 193.63,125.929 200.5,118C 201.5,117.667 202.5,117.333 203.5,117C 207.847,112.513 212.513,108.513 217.5,105C 222.443,99.8871 227.443,95.0537 232.5,90.5 Z"/></g>
<g><path style="opacity:1" fill="#01fe93" d="M 122.5,96.5 C 124.5,96.5 126.5,96.5 128.5,96.5C 119.94,104.756 111.94,113.589 104.5,123C 102.22,123.233 100.22,124.066 98.5,125.5C 94.904,129.933 90.904,133.766 86.5,137C 78.2163,143.813 69.5496,150.147 60.5,156C 56.9257,159.826 53.5924,163.826 50.5,168C 44.3109,173.357 37.9776,178.524 31.5,183.5C 30.5987,182.71 29.9321,181.71 29.5,180.5C 34.7087,174.802 40.7087,169.969 47.5,166C 50.9125,161.254 54.9125,157.254 59.5,154C 62.5,152.167 65.5,150.333 68.5,148.5C 69.8064,147.088 70.6397,145.421 71,143.5C 75.7926,139.862 80.6259,136.362 85.5,133C 94.5099,121.664 105.177,111.997 117.5,104C 119.301,101.557 120.968,99.0574 122.5,96.5 Z"/></g>
<g><path style="opacity:1" fill="#1702ff" d="M 224.5,73.5 C 226.588,75.3356 227.921,77.6689 228.5,80.5C 228.952,85.2265 227.285,89.0598 223.5,92C 219.191,95.3024 214.857,98.6357 210.5,102C 208.715,105.622 205.715,107.622 201.5,108C 198.618,111.593 195.618,115.093 192.5,118.5C 186.687,121.706 182.353,126.206 179.5,132C 175.628,135.095 171.628,137.928 167.5,140.5C 162.55,146.954 156.55,152.121 149.5,156C 143.649,162.351 137.315,168.184 130.5,173.5C 130.5,168.167 130.5,162.833 130.5,157.5C 142.521,146.813 154.855,136.48 167.5,126.5C 176.971,116.352 187.305,107.352 198.5,99.5C 206.132,89.8682 214.798,81.2015 224.5,73.5 Z"/></g>
<g><path style="opacity:1" fill="#ff0071" d="M 238.5,139.5 C 238.483,141.565 238.15,143.565 237.5,145.5C 233.342,149.157 229.342,152.991 225.5,157C 215.675,164.329 206.008,171.829 196.5,179.5C 198.497,176.533 200.497,173.533 202.5,170.5C 215.169,160.822 227.169,150.489 238.5,139.5 Z"/></g>
<g><path style="opacity:1" fill="#ff00c3" d="M 238.5,121.5 C 239.468,123.607 239.802,125.941 239.5,128.5C 221.691,143.143 204.358,158.31 187.5,174C 183.469,174.709 180.635,176.875 179,180.5C 174.614,185.389 169.78,189.722 164.5,193.5C 163.614,194.325 163.281,195.325 163.5,196.5C 156.212,201.125 149.212,206.125 142.5,211.5C 147.159,206.198 151.826,200.865 156.5,195.5C 163.207,190.472 169.54,184.972 175.5,179C 181.329,176.591 185.663,172.591 188.5,167C 191.956,165.519 195.289,163.852 198.5,162C 201.891,157.943 205.891,154.61 210.5,152C 217.942,141.726 226.942,132.893 237.5,125.5C 238.386,124.675 238.719,123.675 238.5,122.5C 238.5,122.167 238.5,121.833 238.5,121.5 Z"/></g>
<g><path style="opacity:1" fill="#f300fe" d="M 237.5,111.5 C 238.461,113.265 238.795,115.265 238.5,117.5C 209.799,141.545 181.799,166.211 154.5,191.5C 136.571,205.759 119.237,220.759 102.5,236.5C 100.694,235.976 99.0276,235.309 97.5,234.5C 100.496,231.836 103.496,229.169 106.5,226.5C 110.164,225.509 112.83,223.342 114.5,220C 115.448,219.517 116.448,219.351 117.5,219.5C 117.33,218.178 117.663,217.011 118.5,216C 123.783,211.391 129.116,206.725 134.5,202C 138.193,201.09 140.693,198.923 142,195.5C 146.113,191.387 150.279,187.221 154.5,183C 159.161,178.981 164.161,175.314 169.5,172C 175.781,164.55 183.115,158.383 191.5,153.5C 194.205,150.795 196.538,147.795 198.5,144.5C 203.786,141.173 208.786,137.34 213.5,133C 214.5,132.667 215.5,132.333 216.5,132C 221.504,126.658 226.171,120.991 230.5,115C 232.953,114.041 235.286,112.874 237.5,111.5 Z"/></g>
<g><path style="opacity:1" fill="#01ebff" d="M 124.5,121.5 C 124.5,122.5 124.5,123.5 124.5,124.5C 117.832,129.844 111.165,135.177 104.5,140.5C 101.291,143.209 98.6248,146.375 96.5,150C 95.062,150.219 93.7287,150.719 92.5,151.5C 89.5162,155.98 86.1829,160.146 82.5,164C 68.3681,174.967 54.7014,186.467 41.5,198.5C 40.5987,197.71 39.9321,196.71 39.5,195.5C 67.8356,170.831 96.169,146.164 124.5,121.5 Z"/></g>
<g><path style="opacity:1" fill="#01ffed" d="M 119.5,122.5 C 92.6473,146.744 65.6473,170.744 38.5,194.5C 37.5987,193.71 36.9321,192.71 36.5,191.5C 43.0266,185.805 49.6932,180.305 56.5,175C 61.3588,167.99 67.6921,162.657 75.5,159C 77.4875,157.681 78.6541,155.848 79,153.5C 84.1605,149.339 88.9939,144.839 93.5,140C 97.5548,139.078 101.221,137.411 104.5,135C 108.5,131 112.5,127 116.5,123C 117.448,122.517 118.448,122.351 119.5,122.5 Z"/></g>
<g><path style="opacity:1" fill="#ff0046" d="M 236.5,152.5 C 235.89,153.391 235.557,154.391 235.5,155.5C 229.945,160.305 224.278,165.139 218.5,170C 217.929,171.205 217.262,172.372 216.5,173.5C 212.304,176.527 207.97,179.36 203.5,182C 200.436,184.401 198.103,187.401 196.5,191C 193.146,193.032 189.813,195.032 186.5,197C 184.866,201.301 181.866,204.301 177.5,206C 170.142,212.991 162.476,219.491 154.5,225.5C 157.795,222.192 160.795,218.526 163.5,214.5C 171.369,208.464 178.369,201.63 184.5,194C 187.751,192.423 190.751,190.423 193.5,188C 197.61,183.102 201.944,178.435 206.5,174C 210.71,172.444 214.377,170.111 217.5,167C 219.607,165.736 220.607,163.903 220.5,161.5C 223.979,160.378 226.979,158.378 229.5,155.5C 231.974,154.68 234.307,153.68 236.5,152.5 Z"/></g>
<g><path style="opacity:1" fill="#0185ff" d="M 124.5,139.5 C 124.5,142.5 124.5,145.5 124.5,148.5C 122.586,149.185 120.586,149.685 118.5,150C 112.145,155.357 106.145,161.023 100.5,167C 92.5554,172.164 85.5554,178.497 79.5,186C 76.8333,187.667 74.1667,189.333 71.5,191C 64.6145,196.605 57.9479,202.439 51.5,208.5C 50.8333,208.5 50.5,208.167 50.5,207.5C 61.7066,196.861 73.0399,186.194 84.5,175.5C 94.3219,168.51 102.989,160.343 110.5,151C 115.06,146.931 119.726,143.098 124.5,139.5 Z"/></g>
<g><path style="opacity:1" fill="#bc00ff" d="M 236.5,104.5 C 237.301,106.042 237.634,107.708 237.5,109.5C 234.99,109.991 232.656,110.991 230.5,112.5C 227.131,116.199 223.798,119.866 220.5,123.5C 212.743,129.891 204.743,136.057 196.5,142C 189.221,148.276 182.221,154.943 175.5,162C 167.879,165.504 161.546,170.671 156.5,177.5C 155.271,178.281 153.938,178.781 152.5,179C 148.594,183.113 144.26,186.779 139.5,190C 138.707,191.085 138.04,192.252 137.5,193.5C 132.089,198.909 126.089,203.576 119.5,207.5C 122.782,203.064 126.949,199.398 132,196.5C 133.348,192.232 136.181,189.398 140.5,188C 148.204,180.627 156.204,173.627 164.5,167C 166.599,164.591 168.266,161.924 169.5,159C 170.5,158.667 171.5,158.333 172.5,158C 192.417,140.427 212.417,122.761 232.5,105C 233.793,104.51 235.127,104.343 236.5,104.5 Z"/></g>
<g><path style="opacity:1" fill="#0027ff" d="M 124.5,156.5 C 124.5,158.833 124.5,161.167 124.5,163.5C 117.705,169.125 111.038,174.958 104.5,181C 101.629,181.131 99.2954,182.297 97.5,184.5C 94.5434,188.792 91.2101,192.792 87.5,196.5C 78.861,203.139 70.5277,210.139 62.5,217.5C 60.5956,217.262 59.2623,216.262 58.5,214.5C 62.5641,211.946 66.2308,208.779 69.5,205C 71.6147,204.443 73.6147,203.609 75.5,202.5C 81.715,196.151 88.215,190.151 95,184.5C 96.8333,180 100,176.833 104.5,175C 110.658,168.344 117.325,162.178 124.5,156.5 Z"/></g>
<g><path style="opacity:1" fill="#ff0103" d="M 232.5,164.5 C 218.059,202.607 191.059,226.607 151.5,236.5C 160.655,229.178 168.988,221.012 176.5,212C 193.047,200.455 208.047,187.122 221.5,172C 224.784,170.383 227.451,168.05 229.5,165C 230.416,164.626 231.25,164.126 232,163.5C 232.399,163.728 232.565,164.062 232.5,164.5 Z"/></g>
<g><path style="opacity:1" fill="#ff009c" d="M 239.5,132.5 C 238.699,134.042 238.366,135.708 238.5,137.5C 237.448,137.351 236.448,137.517 235.5,138C 232.936,141.91 229.936,145.577 226.5,149C 220.208,153.623 214.208,158.623 208.5,164C 200.315,168.183 193.315,173.85 187.5,181C 182.833,184.667 178.167,188.333 173.5,192C 170.865,193.961 169.031,196.461 168,199.5C 159.275,207.918 149.775,215.084 139.5,221C 133.631,227.036 127.631,232.87 121.5,238.5C 119.5,238.5 117.5,238.5 115.5,238.5C 122.714,231.788 130.381,225.621 138.5,220C 146.192,211.312 154.859,203.646 164.5,197C 174.702,186.555 185.368,176.555 196.5,167C 198.49,165.249 200.823,164.249 203.5,164C 215.474,153.174 227.474,142.674 239.5,132.5 Z"/></g>
<g><path style="opacity:1" fill="#ff00d7" d="M 238.5,122.5 C 238.719,123.675 238.386,124.675 237.5,125.5C 226.942,132.893 217.942,141.726 210.5,152C 205.891,154.61 201.891,157.943 198.5,162C 195.289,163.852 191.956,165.519 188.5,167C 185.663,172.591 181.329,176.591 175.5,179C 169.54,184.972 163.207,190.472 156.5,195.5C 151.826,200.865 147.159,206.198 142.5,211.5C 140.405,212.412 138.405,213.579 136.5,215C 128.296,222.707 119.963,230.207 111.5,237.5C 110.5,237.5 109.5,237.5 108.5,237.5C 110.47,234.931 112.47,232.264 114.5,229.5C 121.817,224.014 128.817,218.18 135.5,212C 137.617,210.269 139.117,208.102 140,205.5C 142.979,202.07 146.479,199.237 150.5,197C 152.076,195.27 153.41,193.437 154.5,191.5C 156.255,190.928 157.922,190.094 159.5,189C 160.499,186.239 162.499,184.906 165.5,185C 170.936,178.561 177.269,173.228 184.5,169C 202.635,153.701 220.635,138.201 238.5,122.5 Z"/></g>
<g><path style="opacity:1" fill="#02beff" d="M 124.5,127.5 C 124.5,130.833 124.5,134.167 124.5,137.5C 116.351,144.796 107.684,151.63 98.5,158C 97.7433,159.512 96.7433,160.846 95.5,162C 86.1844,165.816 79.1844,172.15 74.5,181C 69.3051,182.858 65.3051,186.192 62.5,191C 57.6018,195.732 52.2685,199.899 46.5,203.5C 45.1667,202.833 44.1667,201.833 43.5,200.5C 50.4027,193.936 57.4027,187.269 64.5,180.5C 75.8997,173.931 85.5663,165.431 93.5,155C 98.6649,152.363 102.998,148.696 106.5,144C 113.667,139.662 119.667,134.162 124.5,127.5 Z"/></g>
<g><path style="opacity:1" fill="#ff0058" d="M 237.5,145.5 C 237.326,147.861 236.993,150.194 236.5,152.5C 234.307,153.68 231.974,154.68 229.5,155.5C 226.979,158.378 223.979,160.378 220.5,161.5C 220.607,163.903 219.607,165.736 217.5,167C 214.377,170.111 210.71,172.444 206.5,174C 201.944,178.435 197.61,183.102 193.5,188C 190.751,190.423 187.751,192.423 184.5,194C 178.369,201.63 171.369,208.464 163.5,214.5C 160.795,218.526 157.795,222.192 154.5,225.5C 148.03,228.221 143.03,232.554 139.5,238.5C 137.5,238.5 135.5,238.5 133.5,238.5C 135.089,235.837 137.422,233.837 140.5,232.5C 147.705,223.473 156.371,215.973 166.5,210C 168.776,205.725 171.776,202.059 175.5,199C 176.833,198.667 178.167,198.333 179.5,198C 184.144,193.863 187.811,189.03 190.5,183.5C 192.813,182.5 194.813,181.166 196.5,179.5C 206.008,171.829 215.675,164.329 225.5,157C 229.342,152.991 233.342,149.157 237.5,145.5 Z"/></g>
<g><path style="opacity:1" fill="#0267ff" d="M 124.5,148.5 C 124.5,149.833 124.5,151.167 124.5,152.5C 115.277,160.896 105.944,169.063 96.5,177C 90.3467,178.825 85.68,182.491 82.5,188C 77.8406,189.993 74.5073,193.326 72.5,198C 71.5,198.333 70.5,198.667 69.5,199C 64.6942,203.416 60.0275,207.916 55.5,212.5C 53.8333,211.5 52.5,210.167 51.5,208.5C 57.9479,202.439 64.6145,196.605 71.5,191C 74.1667,189.333 76.8333,187.667 79.5,186C 85.5554,178.497 92.5554,172.164 100.5,167C 106.145,161.023 112.145,155.357 118.5,150C 120.586,149.685 122.586,149.185 124.5,148.5 Z"/></g>
<g><path style="opacity:1" fill="#0143ff" d="M 124.5,152.5 C 124.5,153.833 124.5,155.167 124.5,156.5C 117.325,162.178 110.658,168.344 104.5,175C 100,176.833 96.8333,180 95,184.5C 88.215,190.151 81.715,196.151 75.5,202.5C 73.6147,203.609 71.6147,204.443 69.5,205C 66.2308,208.779 62.5641,211.946 58.5,214.5C 56.9731,214.573 55.9731,213.906 55.5,212.5C 60.0275,207.916 64.6942,203.416 69.5,199C 70.5,198.667 71.5,198.333 72.5,198C 74.5073,193.326 77.8406,189.993 82.5,188C 85.68,182.491 90.3467,178.825 96.5,177C 105.944,169.063 115.277,160.896 124.5,152.5 Z"/></g>
<g><path style="opacity:1" fill="#ff0081" d="M 238.5,137.5 C 238.5,138.167 238.5,138.833 238.5,139.5C 227.169,150.489 215.169,160.822 202.5,170.5C 200.497,173.533 198.497,176.533 196.5,179.5C 194.813,181.166 192.813,182.5 190.5,183.5C 187.989,186.113 184.989,188.28 181.5,190C 177.963,195.615 173.296,200.115 167.5,203.5C 163.044,207.125 159.044,211.292 155.5,216C 146.259,223.754 137.259,231.587 128.5,239.5C 125.941,239.802 123.607,239.468 121.5,238.5C 127.631,232.87 133.631,227.036 139.5,221C 149.775,215.084 159.275,207.918 168,199.5C 169.031,196.461 170.865,193.961 173.5,192C 178.167,188.333 182.833,184.667 187.5,181C 193.315,173.85 200.315,168.183 208.5,164C 214.208,158.623 220.208,153.623 226.5,149C 229.936,145.577 232.936,141.91 235.5,138C 236.448,137.517 237.448,137.351 238.5,137.5 Z"/></g>
<g><path style="opacity:1" fill="#029aff" d="M 124.5,137.5 C 124.5,138.167 124.5,138.833 124.5,139.5C 119.726,143.098 115.06,146.931 110.5,151C 102.989,160.343 94.3219,168.51 84.5,175.5C 73.0399,186.194 61.7066,196.861 50.5,207.5C 48.8333,206.5 47.5,205.167 46.5,203.5C 52.2685,199.899 57.6018,195.732 62.5,191C 65.3051,186.192 69.3051,182.858 74.5,181C 79.1844,172.15 86.1844,165.816 95.5,162C 96.7433,160.846 97.7433,159.512 98.5,158C 107.684,151.63 116.351,144.796 124.5,137.5 Z"/></g>
<g><path style="opacity:1" fill="#ff0069" d="M 190.5,183.5 C 187.811,189.03 184.144,193.863 179.5,198C 178.167,198.333 176.833,198.667 175.5,199C 171.776,202.059 168.776,205.725 166.5,210C 156.371,215.973 147.705,223.473 140.5,232.5C 137.422,233.837 135.089,235.837 133.5,238.5C 132.081,239.451 130.415,239.784 128.5,239.5C 137.259,231.587 146.259,223.754 155.5,216C 159.044,211.292 163.044,207.125 167.5,203.5C 173.296,200.115 177.963,195.615 181.5,190C 184.989,188.28 187.989,186.113 190.5,183.5 Z"/></g>
<g><path style="opacity:1" fill="#ff0027" d="M 235.5,155.5 C 234.946,158.746 233.946,161.746 232.5,164.5C 232.565,164.062 232.399,163.728 232,163.5C 231.25,164.126 230.416,164.626 229.5,165C 227.451,168.05 224.784,170.383 221.5,172C 208.047,187.122 193.047,200.455 176.5,212C 168.988,221.012 160.655,229.178 151.5,236.5C 147.546,237.381 143.546,238.048 139.5,238.5C 143.03,232.554 148.03,228.221 154.5,225.5C 162.476,219.491 170.142,212.991 177.5,206C 181.866,204.301 184.866,201.301 186.5,197C 189.813,195.032 193.146,193.032 196.5,191C 198.103,187.401 200.436,184.401 203.5,182C 207.97,179.36 212.304,176.527 216.5,173.5C 217.262,172.372 217.929,171.205 218.5,170C 224.278,165.139 229.945,160.305 235.5,155.5 Z"/></g>
<g><path style="opacity:1" fill="#2102ff" d="M 124.5,163.5 C 124.5,169.833 124.5,176.167 124.5,182.5C 123.325,182.281 122.325,182.614 121.5,183.5C 114.296,191.536 106.296,198.703 97.5,205C 95.4376,206.532 94.1043,208.532 93.5,211C 86.9521,215.721 80.2854,220.221 73.5,224.5C 69.0243,223.343 65.3577,221.01 62.5,217.5C 70.5277,210.139 78.861,203.139 87.5,196.5C 91.2101,192.792 94.5434,188.792 97.5,184.5C 99.2954,182.297 101.629,181.131 104.5,181C 111.038,174.958 117.705,169.125 124.5,163.5 Z"/></g>
<g><path style="opacity:1" fill="#5d00ff" d="M 124.5,182.5 C 124.279,185.279 124.612,187.946 125.5,190.5C 123.155,192.331 120.488,193.498 117.5,194C 113.585,198.748 108.919,202.581 103.5,205.5C 99.1652,210.668 94.3318,215.335 89,219.5C 87.378,223.623 84.5446,226.623 80.5,228.5C 77.6689,227.921 75.3356,226.588 73.5,224.5C 80.2854,220.221 86.9521,215.721 93.5,211C 94.1043,208.532 95.4376,206.532 97.5,205C 106.296,198.703 114.296,191.536 121.5,183.5C 122.325,182.614 123.325,182.281 124.5,182.5 Z"/></g>
<g><path style="opacity:1" fill="#8900ff" d="M 233.5,93.5 C 234.434,94.5676 234.768,95.901 234.5,97.5C 231.125,99.7244 227.792,102.224 224.5,105C 221.151,108.372 218.151,112.039 215.5,116C 192.636,135.371 169.969,154.871 147.5,174.5C 141.744,181.761 135.41,188.594 128.5,195C 125.146,197.032 121.813,199.032 118.5,201C 107.921,211.397 97.2544,221.564 86.5,231.5C 84.4261,230.486 82.4261,229.486 80.5,228.5C 84.5446,226.623 87.378,223.623 89,219.5C 94.3318,215.335 99.1652,210.668 103.5,205.5C 108.919,202.581 113.585,198.748 117.5,194C 120.488,193.498 123.155,192.331 125.5,190.5C 128.285,191.084 129.952,190.084 130.5,187.5C 134.381,184.783 137.381,181.283 139.5,177C 147.651,170.093 155.984,163.426 164.5,157C 171.499,149.036 179.166,141.703 187.5,135C 188.833,134.667 190.167,134.333 191.5,134C 196.473,127.694 202.14,122.027 208.5,117C 209.5,116.667 210.5,116.333 211.5,116C 217.579,108.71 224.413,102.21 232,96.5C 232.513,95.4734 233.013,94.4734 233.5,93.5 Z"/></g>
<g><path style="opacity:1" fill="#ff00b2" d="M 239.5,128.5 C 239.5,129.833 239.5,131.167 239.5,132.5C 227.474,142.674 215.474,153.174 203.5,164C 200.823,164.249 198.49,165.249 196.5,167C 185.368,176.555 174.702,186.555 164.5,197C 154.859,203.646 146.192,211.312 138.5,220C 130.381,225.621 122.714,231.788 115.5,238.5C 113.901,238.768 112.568,238.434 111.5,237.5C 119.963,230.207 128.296,222.707 136.5,215C 138.405,213.579 140.405,212.412 142.5,211.5C 149.212,206.125 156.212,201.125 163.5,196.5C 163.281,195.325 163.614,194.325 164.5,193.5C 169.78,189.722 174.614,185.389 179,180.5C 180.635,176.875 183.469,174.709 187.5,174C 204.358,158.31 221.691,143.143 239.5,128.5 Z"/></g>
<g><path style="opacity:1" fill="#d200ff" d="M 237.5,109.5 C 237.5,110.167 237.5,110.833 237.5,111.5C 235.286,112.874 232.953,114.041 230.5,115C 226.171,120.991 221.504,126.658 216.5,132C 215.5,132.333 214.5,132.667 213.5,133C 208.786,137.34 203.786,141.173 198.5,144.5C 196.538,147.795 194.205,150.795 191.5,153.5C 183.115,158.383 175.781,164.55 169.5,172C 164.161,175.314 159.161,178.981 154.5,183C 150.279,187.221 146.113,191.387 142,195.5C 140.693,198.923 138.193,201.09 134.5,202C 129.116,206.725 123.783,211.391 118.5,216C 117.663,217.011 117.33,218.178 117.5,219.5C 116.448,219.351 115.448,219.517 114.5,220C 112.83,223.342 110.164,225.509 106.5,226.5C 103.496,229.169 100.496,231.836 97.5,234.5C 94.8478,234.59 92.5145,233.924 90.5,232.5C 99.251,223.081 108.918,214.747 119.5,207.5C 126.089,203.576 132.089,198.909 137.5,193.5C 138.04,192.252 138.707,191.085 139.5,190C 144.26,186.779 148.594,183.113 152.5,179C 153.938,178.781 155.271,178.281 156.5,177.5C 161.546,170.671 167.879,165.504 175.5,162C 182.221,154.943 189.221,148.276 196.5,142C 204.743,136.057 212.743,129.891 220.5,123.5C 223.798,119.866 227.131,116.199 230.5,112.5C 232.656,110.991 234.99,109.991 237.5,109.5 Z"/></g>
<g><path style="opacity:1" fill="#ff00e9" d="M 154.5,191.5 C 153.41,193.437 152.076,195.27 150.5,197C 146.479,199.237 142.979,202.07 140,205.5C 139.117,208.102 137.617,210.269 135.5,212C 128.817,218.18 121.817,224.014 114.5,229.5C 112.47,232.264 110.47,234.931 108.5,237.5C 106.5,237.167 104.5,236.833 102.5,236.5C 119.237,220.759 136.571,205.759 154.5,191.5 Z"/></g>
</svg>
