<?xml version="1.0" encoding="UTF-8"?>
<!DOCTYPE svg PUBLIC "-//W3C//DTD SVG 1.1//EN" "http://www.w3.org/Graphics/SVG/1.1/DTD/svg11.dtd">
<svg xmlns="http://www.w3.org/2000/svg" version="1.1" width="256px" height="256px" style="shape-rendering:geometricPrecision; text-rendering:geometricPrecision; image-rendering:optimizeQuality; fill-rule:evenodd; clip-rule:evenodd" xmlns:xlink="http://www.w3.org/1999/xlink">
<g><path style="opacity:0.826" fill="#000000" d="M 22.5,61.5 C 92.5008,61.3333 162.501,61.5 232.5,62C 233.816,69.5991 234.483,77.4324 234.5,85.5C 234.333,93.1667 234.167,100.833 234,108.5C 169.901,109.831 105.734,109.831 41.5,108.5C 34.0849,94.1706 27.0849,79.6706 20.5,65C 20.8618,63.5657 21.5285,62.3991 22.5,61.5 Z"/></g>
<g><path style="opacity:1" fill="#0155ff" d="M 190.5,68.5 C 192.167,68.5 193.833,68.5 195.5,68.5C 192.09,72.9142 188.09,76.5809 183.5,79.5C 183.046,82.1398 181.879,84.4732 180,86.5C 174.835,92.1574 169.669,97.8241 164.5,103.5C 162.5,103.5 160.5,103.5 158.5,103.5C 159.989,101.195 161.489,98.8616 163,96.5C 165.627,95.6864 167.96,94.3531 170,92.5C 176.698,84.3083 183.531,76.3083 190.5,68.5 Z"/></g>
<g><path style="opacity:1" fill="#ff7100" d="M 41.5,68.5 C 39.588,72.4167 37.2546,76.0834 34.5,79.5C 32.4007,76.1441 30.4007,72.6441 28.5,69C 32.8206,68.501 37.1539,68.3343 41.5,68.5 Z"/></g>
<g><path style="opacity:1" fill="#02bdff" d="M 168.5,68.5 C 170.833,68.5 173.167,68.5 175.5,68.5C 171.954,75.5507 166.787,81.2173 160,85.5C 155.682,91.9774 150.849,97.9774 145.5,103.5C 143.833,103.5 142.167,103.5 140.5,103.5C 149.868,91.8058 159.201,80.1392 168.5,68.5 Z"/></g>
<g><path style="opacity:1" fill="#ff9800" d="M 41.5,68.5 C 44.1667,68.5 46.8333,68.5 49.5,68.5C 49.2969,70.0443 48.6302,71.3777 47.5,72.5C 43.5902,76.0489 39.9235,79.7156 36.5,83.5C 35.3263,82.4863 34.6596,81.153 34.5,79.5C 37.2546,76.0834 39.588,72.4167 41.5,68.5 Z"/></g>
<g><path style="opacity:1" fill="#2807ff" d="M 198.5,68.5 C 207.833,68.5 217.167,68.5 226.5,68.5C 224.217,71.9563 221.717,75.2896 219,78.5C 211.968,85.1972 205.302,92.1972 199,99.5C 198.51,100.793 198.343,102.127 198.5,103.5C 188.833,103.5 179.167,103.5 169.5,103.5C 177.816,94.3475 185.982,85.0142 194,75.5C 195.511,73.1384 197.011,70.8051 198.5,68.5 Z"/></g>
<g><path style="opacity:1" fill="#01feb8" d="M 145.5,68.5 C 147.167,68.5 148.833,68.5 150.5,68.5C 142.614,77.0478 134.781,85.7145 127,94.5C 126.517,95.448 126.351,96.448 126.5,97.5C 124.567,97.7286 122.9,98.5619 121.5,100C 120.177,100.816 119.511,101.983 119.5,103.5C 117.167,103.5 114.833,103.5 112.5,103.5C 113.11,102.609 113.443,101.609 113.5,100.5C 115.471,98.8476 117.804,97.6809 120.5,97C 128.723,87.3748 137.057,77.8748 145.5,68.5 Z"/></g>
<g><path style="opacity:1" fill="#018aff" d="M 180.5,68.5 C 182.167,68.5 183.833,68.5 185.5,68.5C 175.473,80.5215 165.14,92.1881 154.5,103.5C 152.5,103.5 150.5,103.5 148.5,103.5C 152.397,97.3505 157.397,92.3505 163.5,88.5C 169.565,82.1076 175.231,75.441 180.5,68.5 Z"/></g>
<g><path style="opacity:1" fill="#016dff" d="M 185.5,68.5 C 187.167,68.5 188.833,68.5 190.5,68.5C 183.531,76.3083 176.698,84.3083 170,92.5C 167.96,94.3531 165.627,95.6864 163,96.5C 161.489,98.8616 159.989,101.195 158.5,103.5C 157.167,103.5 155.833,103.5 154.5,103.5C 165.14,92.1881 175.473,80.5215 185.5,68.5 Z"/></g>
<g><path style="opacity:1" fill="#ffcb00" d="M 49.5,68.5 C 52.8333,68.5 56.1667,68.5 59.5,68.5C 54.598,77.6395 48.2647,85.6395 40.5,92.5C 38.8946,89.6223 37.5612,86.6223 36.5,83.5C 39.9235,79.7156 43.5902,76.0489 47.5,72.5C 48.6302,71.3777 49.2969,70.0443 49.5,68.5 Z"/></g>
<g><path style="opacity:1" fill="#01fef5" d="M 156.5,68.5 C 158.167,68.5 159.833,68.5 161.5,68.5C 152.218,80.6941 142.218,92.3608 131.5,103.5C 129.833,103.5 128.167,103.5 126.5,103.5C 136.727,92.0598 146.727,80.3932 156.5,68.5 Z"/></g>
<g><path style="opacity:1" fill="#eafd00" d="M 59.5,68.5 C 64.5,68.5 69.5,68.5 74.5,68.5C 64.49,79.1781 54.8233,90.1781 45.5,101.5C 43.5954,98.6963 41.9287,95.6963 40.5,92.5C 48.2647,85.6395 54.598,77.6395 59.5,68.5 Z"/></g>
<g><path style="opacity:1" fill="#01edff" d="M 161.5,68.5 C 163.167,68.5 164.833,68.5 166.5,68.5C 158.349,78.1045 150.183,87.7712 142,97.5C 138.852,98.7114 136.352,100.711 134.5,103.5C 133.5,103.5 132.5,103.5 131.5,103.5C 142.218,92.3608 152.218,80.6941 161.5,68.5 Z"/></g>
<g><path style="opacity:1" fill="#0afe15" d="M 104.5,68.5 C 110.5,68.5 116.5,68.5 122.5,68.5C 119.065,72.7163 115.398,76.7163 111.5,80.5C 110.023,83.5914 108.356,86.5914 106.5,89.5C 102.484,94.5139 98.1508,99.1806 93.5,103.5C 87.1667,103.5 80.8333,103.5 74.5,103.5C 76.0872,100.732 77.9205,98.0652 80,95.5C 88.3734,86.6295 96.5401,77.6295 104.5,68.5 Z"/></g>
<g><path style="opacity:1" fill="#01fe4b" d="M 122.5,68.5 C 126.833,68.5 131.167,68.5 135.5,68.5C 133.755,72.0725 130.921,74.4058 127,75.5C 124.467,80.6054 120.633,84.2721 115.5,86.5C 110.728,92.386 105.728,98.0527 100.5,103.5C 98.1667,103.5 95.8333,103.5 93.5,103.5C 98.1508,99.1806 102.484,94.5139 106.5,89.5C 108.356,86.5914 110.023,83.5914 111.5,80.5C 115.398,76.7163 119.065,72.7163 122.5,68.5 Z"/></g>
<g><path style="opacity:1" fill="#00d6ff" d="M 166.5,68.5 C 167.167,68.5 167.833,68.5 168.5,68.5C 159.201,80.1392 149.868,91.8058 140.5,103.5C 138.5,103.5 136.5,103.5 134.5,103.5C 136.352,100.711 138.852,98.7114 142,97.5C 150.183,87.7712 158.349,78.1045 166.5,68.5 Z"/></g>
<g><path style="opacity:1" fill="#bdff00" d="M 74.5,68.5 C 76.5,68.5 78.5,68.5 80.5,68.5C 70.5,80.1667 60.5,91.8333 50.5,103.5C 48.2188,103.923 46.5521,103.256 45.5,101.5C 54.8233,90.1781 64.49,79.1781 74.5,68.5 Z"/></g>
<g><path style="opacity:1" fill="#8dff00" d="M 80.5,68.5 C 84.5,68.5 88.5,68.5 92.5,68.5C 89.284,72.5511 85.6174,76.0511 81.5,79C 79.632,82.2014 77.132,84.7014 74,86.5C 71.7773,88.7225 70.444,91.3892 70,94.5C 67.1506,97.5743 64.3172,100.574 61.5,103.5C 57.8333,103.5 54.1667,103.5 50.5,103.5C 60.5,91.8333 70.5,80.1667 80.5,68.5 Z"/></g>
<g><path style="opacity:1" fill="#01fe9a" d="M 138.5,68.5 C 140.833,68.5 143.167,68.5 145.5,68.5C 137.057,77.8748 128.723,87.3748 120.5,97C 117.804,97.6809 115.471,98.8476 113.5,100.5C 116.398,96.4182 119.565,92.4182 123,88.5C 123.333,87.1667 123.667,85.8333 124,84.5C 129.41,79.595 134.243,74.2617 138.5,68.5 Z"/></g>
<g><path style="opacity:1" fill="#003bff" d="M 195.5,68.5 C 196.5,68.5 197.5,68.5 198.5,68.5C 197.011,70.8051 195.511,73.1384 194,75.5C 185.982,85.0142 177.816,94.3475 169.5,103.5C 167.833,103.5 166.167,103.5 164.5,103.5C 169.669,97.8241 174.835,92.1574 180,86.5C 181.879,84.4732 183.046,82.1398 183.5,79.5C 188.09,76.5809 192.09,72.9142 195.5,68.5 Z"/></g>
<g><path style="opacity:1" fill="#02ffd8" d="M 150.5,68.5 C 152.5,68.5 154.5,68.5 156.5,68.5C 146.727,80.3932 136.727,92.0598 126.5,103.5C 124.167,103.5 121.833,103.5 119.5,103.5C 119.511,101.983 120.177,100.816 121.5,100C 122.9,98.5619 124.567,97.7286 126.5,97.5C 126.351,96.448 126.517,95.448 127,94.5C 134.781,85.7145 142.614,77.0478 150.5,68.5 Z"/></g>
<g><path style="opacity:1" fill="#01a4ff" d="M 175.5,68.5 C 177.167,68.5 178.833,68.5 180.5,68.5C 175.231,75.441 169.565,82.1076 163.5,88.5C 157.397,92.3505 152.397,97.3505 148.5,103.5C 147.5,103.5 146.5,103.5 145.5,103.5C 150.849,97.9774 155.682,91.9774 160,85.5C 166.787,81.2173 171.954,75.5507 175.5,68.5 Z"/></g>
<g><path style="opacity:1" fill="#02fe74" d="M 135.5,68.5 C 136.5,68.5 137.5,68.5 138.5,68.5C 134.243,74.2617 129.41,79.595 124,84.5C 123.667,85.8333 123.333,87.1667 123,88.5C 119.565,92.4182 116.398,96.4182 113.5,100.5C 113.443,101.609 113.11,102.609 112.5,103.5C 108.5,103.5 104.5,103.5 100.5,103.5C 105.728,98.0527 110.728,92.386 115.5,86.5C 120.633,84.2721 124.467,80.6054 127,75.5C 130.921,74.4058 133.755,72.0725 135.5,68.5 Z"/></g>
<g><path style="opacity:1" fill="#4eff00" d="M 92.5,68.5 C 96.5,68.5 100.5,68.5 104.5,68.5C 96.5401,77.6295 88.3734,86.6295 80,95.5C 77.9205,98.0652 76.0872,100.732 74.5,103.5C 70.1667,103.5 65.8333,103.5 61.5,103.5C 64.3172,100.574 67.1506,97.5743 70,94.5C 70.444,91.3892 71.7773,88.7225 74,86.5C 77.132,84.7014 79.632,82.2014 81.5,79C 85.6174,76.0511 89.284,72.5511 92.5,68.5 Z"/></g>
<g><path style="opacity:1" fill="#7a00ff" d="M 226.5,68.5 C 228.43,72.3727 229.097,76.706 228.5,81.5C 225.244,83.25 222.411,85.5834 220,88.5C 215.896,93.4189 212.063,98.4189 208.5,103.5C 205.167,103.5 201.833,103.5 198.5,103.5C 198.343,102.127 198.51,100.793 199,99.5C 205.302,92.1972 211.968,85.1972 219,78.5C 221.717,75.2896 224.217,71.9563 226.5,68.5 Z"/></g>
<g><path style="opacity:1" fill="#b100ff" d="M 228.5,81.5 C 228.5,83.5 228.5,85.5 228.5,87.5C 223.833,92.8333 219.167,98.1667 214.5,103.5C 212.5,103.5 210.5,103.5 208.5,103.5C 212.063,98.4189 215.896,93.4189 220,88.5C 222.411,85.5834 225.244,83.25 228.5,81.5 Z"/></g>
<g><path style="opacity:1" fill="#db00fe" d="M 228.5,87.5 C 228.5,92.8333 228.5,98.1667 228.5,103.5C 223.833,103.5 219.167,103.5 214.5,103.5C 219.167,98.1667 223.833,92.8333 228.5,87.5 Z"/></g>
<g><path style="opacity:0.833" fill="#000000" d="M 62.5,145.5 C 119.501,145.333 176.501,145.5 233.5,146C 234.823,161.436 234.823,176.936 233.5,192.5C 184.208,193.662 134.874,193.828 85.5,193C 84.5838,192.626 83.7504,192.126 83,191.5C 75.8333,177.167 68.6667,162.833 61.5,148.5C 62.1272,147.583 62.4606,146.583 62.5,145.5 Z"/></g>
<g><path style="opacity:1" fill="#ff0008" d="M 220.5,151.5 C 223.167,151.5 225.833,151.5 228.5,151.5C 228.5,163.167 228.5,174.833 228.5,186.5C 216.5,186.5 204.5,186.5 192.5,186.5C 193.313,182.851 195.48,180.518 199,179.5C 199.956,176.623 201.289,173.956 203,171.5C 209.538,165.404 215.372,158.738 220.5,151.5 Z"/></g>
<g><path style="opacity:1" fill="#0275ff" d="M 109.5,151.5 C 111.5,151.5 113.5,151.5 115.5,151.5C 106.52,163.144 96.8533,174.144 86.5,184.5C 85.5592,182.95 84.8925,181.284 84.5,179.5C 88.1349,174.532 92.4683,170.198 97.5,166.5C 101.279,161.248 105.279,156.248 109.5,151.5 Z"/></g>
<g><path style="opacity:1" fill="#0054ff" d="M 115.5,151.5 C 117.167,151.5 118.833,151.5 120.5,151.5C 110.529,163.142 100.529,174.808 90.5,186.5C 88.6203,186.771 87.287,186.104 86.5,184.5C 96.8533,174.144 106.52,163.144 115.5,151.5 Z"/></g>
<g><path style="opacity:1" fill="#ff0039" d="M 216.5,151.5 C 217.833,151.5 219.167,151.5 220.5,151.5C 215.372,158.738 209.538,165.404 203,171.5C 201.289,173.956 199.956,176.623 199,179.5C 195.48,180.518 193.313,182.851 192.5,186.5C 190.833,186.5 189.167,186.5 187.5,186.5C 189.879,182.849 192.379,179.183 195,175.5C 202.403,167.603 209.569,159.603 216.5,151.5 Z"/></g>
<g><path style="opacity:1" fill="#06fee9" d="M 87.5,151.5 C 84.1793,156.152 80.5126,160.485 76.5,164.5C 74.5133,160.527 72.5133,156.527 70.5,152.5C 76.1278,151.505 81.7945,151.171 87.5,151.5 Z"/></g>
<g><path style="opacity:1" fill="#01edff" d="M 87.5,151.5 C 89.5,151.5 91.5,151.5 93.5,151.5C 91.1275,154.891 88.2941,157.891 85,160.5C 83.2169,163.604 81.3835,166.604 79.5,169.5C 78.2632,168.035 77.2632,166.368 76.5,164.5C 80.5126,160.485 84.1793,156.152 87.5,151.5 Z"/></g>
<g><path style="opacity:1" fill="#ff0058" d="M 209.5,151.5 C 211.833,151.5 214.167,151.5 216.5,151.5C 209.569,159.603 202.403,167.603 195,175.5C 192.379,179.183 189.879,182.849 187.5,186.5C 185.167,186.5 182.833,186.5 180.5,186.5C 182.834,183.334 185.667,180.667 189,178.5C 195.313,169.032 202.146,160.032 209.5,151.5 Z"/></g>
<g><path style="opacity:1" fill="#0193ff" d="M 106.5,151.5 C 107.5,151.5 108.5,151.5 109.5,151.5C 105.279,156.248 101.279,161.248 97.5,166.5C 92.4683,170.198 88.1349,174.532 84.5,179.5C 83.5987,178.71 82.9321,177.71 82.5,176.5C 84.475,173.694 86.975,171.361 90,169.5C 93.4229,163.06 98.2562,158.227 104.5,155C 105.823,154.184 106.489,153.017 106.5,151.5 Z"/></g>
<g><path style="opacity:1" fill="#01a9ff" d="M 99.5,151.5 C 101.833,151.5 104.167,151.5 106.5,151.5C 106.489,153.017 105.823,154.184 104.5,155C 98.2562,158.227 93.4229,163.06 90,169.5C 86.975,171.361 84.475,173.694 82.5,176.5C 81.8902,175.609 81.5569,174.609 81.5,173.5C 87.5,166.167 93.5,158.833 99.5,151.5 Z"/></g>
<g><path style="opacity:1" fill="#003bff" d="M 120.5,151.5 C 122.167,151.5 123.833,151.5 125.5,151.5C 115.421,163.273 105.088,174.94 94.5,186.5C 93.1667,186.5 91.8333,186.5 90.5,186.5C 100.529,174.808 110.529,163.142 120.5,151.5 Z"/></g>
<g><path style="opacity:1" fill="#02c9ff" d="M 93.5,151.5 C 95.5,151.5 97.5,151.5 99.5,151.5C 93.5,158.833 87.5,166.167 81.5,173.5C 80.3263,172.486 79.6596,171.153 79.5,169.5C 81.3835,166.604 83.2169,163.604 85,160.5C 88.2941,157.891 91.1275,154.891 93.5,151.5 Z"/></g>
<g><path style="opacity:1" fill="#ff00e6" d="M 183.5,151.5 C 185.833,151.5 188.167,151.5 190.5,151.5C 185.652,157.554 180.152,162.888 174,167.5C 168.32,173.68 162.82,180.013 157.5,186.5C 155.833,186.5 154.167,186.5 152.5,186.5C 162.462,174.536 172.795,162.87 183.5,151.5 Z"/></g>
<g><path style="opacity:1" fill="#200aff" d="M 125.5,151.5 C 133.167,151.5 140.833,151.5 148.5,151.5C 142.48,160.34 136.313,169.007 130,177.5C 126.99,180.343 124.157,183.343 121.5,186.5C 112.5,186.5 103.5,186.5 94.5,186.5C 105.088,174.94 115.421,163.273 125.5,151.5 Z"/></g>
<g><path style="opacity:1" fill="#7e00ff" d="M 148.5,151.5 C 153.5,151.5 158.5,151.5 163.5,151.5C 157.513,158.654 151.346,165.654 145,172.5C 141.549,177.099 138.383,181.765 135.5,186.5C 130.833,186.5 126.167,186.5 121.5,186.5C 124.157,183.343 126.99,180.343 130,177.5C 136.313,169.007 142.48,160.34 148.5,151.5 Z"/></g>
<g><path style="opacity:1" fill="#df00fe" d="M 171.5,151.5 C 175.5,151.5 179.5,151.5 183.5,151.5C 172.795,162.87 162.462,174.536 152.5,186.5C 148.833,186.5 145.167,186.5 141.5,186.5C 143.824,183.196 146.157,179.862 148.5,176.5C 155.96,167.946 163.626,159.612 171.5,151.5 Z"/></g>
<g><path style="opacity:1" fill="#ff0077" d="M 204.5,151.5 C 206.167,151.5 207.833,151.5 209.5,151.5C 202.146,160.032 195.313,169.032 189,178.5C 185.667,180.667 182.834,183.334 180.5,186.5C 178.5,186.5 176.5,186.5 174.5,186.5C 184.701,175.161 194.701,163.494 204.5,151.5 Z"/></g>
<g><path style="opacity:1" fill="#b100ff" d="M 163.5,151.5 C 166.167,151.5 168.833,151.5 171.5,151.5C 163.626,159.612 155.96,167.946 148.5,176.5C 146.157,179.862 143.824,183.196 141.5,186.5C 139.5,186.5 137.5,186.5 135.5,186.5C 138.383,181.765 141.549,177.099 145,172.5C 151.346,165.654 157.513,158.654 163.5,151.5 Z"/></g>
<g><path style="opacity:1" fill="#ff0091" d="M 199.5,151.5 C 201.167,151.5 202.833,151.5 204.5,151.5C 194.701,163.494 184.701,175.161 174.5,186.5C 173.5,186.5 172.5,186.5 171.5,186.5C 174.688,179.975 178.688,173.975 183.5,168.5C 188.867,162.827 194.201,157.16 199.5,151.5 Z"/></g>
<g><path style="opacity:1" fill="#ff00c6" d="M 190.5,151.5 C 192.167,151.5 193.833,151.5 195.5,151.5C 184.918,163.035 174.585,174.702 164.5,186.5C 162.167,186.5 159.833,186.5 157.5,186.5C 162.82,180.013 168.32,173.68 174,167.5C 180.152,162.888 185.652,157.554 190.5,151.5 Z"/></g>
<g><path style="opacity:1" fill="#ff00aa" d="M 195.5,151.5 C 196.833,151.5 198.167,151.5 199.5,151.5C 194.201,157.16 188.867,162.827 183.5,168.5C 178.688,173.975 174.688,179.975 171.5,186.5C 169.167,186.5 166.833,186.5 164.5,186.5C 174.585,174.702 184.918,163.035 195.5,151.5 Z"/></g>
</svg>
