<?xml version="1.0" encoding="UTF-8"?>
<!DOCTYPE svg PUBLIC "-//W3C//DTD SVG 1.1//EN" "http://www.w3.org/Graphics/SVG/1.1/DTD/svg11.dtd">
<svg xmlns="http://www.w3.org/2000/svg" version="1.1" width="256px" height="256px" style="shape-rendering:geometricPrecision; text-rendering:geometricPrecision; image-rendering:optimizeQuality; fill-rule:evenodd; clip-rule:evenodd" xmlns:xlink="http://www.w3.org/1999/xlink">
<g><path style="opacity:1" fill="#fef600" d="M 129.5,-0.5 C 132.833,-0.5 136.167,-0.5 139.5,-0.5C 93.1282,41.655 46.4616,83.3217 -0.5,124.5C -0.5,122.5 -0.5,120.5 -0.5,118.5C 5.58945,112.537 12.2561,107.37 19.5,103C 22.7099,97.9602 27.0433,94.1269 32.5,91.5C 35.4426,88.538 38.1092,85.3714 40.5,82C 43.5847,81.2999 45.5847,79.4666 46.5,76.5C 57.2998,68.1992 67.6331,59.3659 77.5,50C 78.207,47.4572 79.5403,45.2905 81.5,43.5C 85.228,40.4411 89.228,37.7744 93.5,35.5C 94.794,33.0383 96.294,30.7049 98,28.5C 103.507,24.1197 109.007,19.7863 114.5,15.5C 120.199,10.8019 125.199,5.46853 129.5,-0.5 Z"/></g>
<g><path style="opacity:1" fill="#ff6e00" d="M 104.5,1.5 C 104.5,1.83333 104.5,2.16667 104.5,2.5C 93.0773,11.5395 82.0773,21.0395 71.5,31C 67.3495,32.9923 64.0162,35.8256 61.5,39.5C 57.3575,41.809 54.0242,44.9757 51.5,49C 50.5,49.3333 49.5,49.6667 48.5,50C 45.4433,54.0502 42.1099,57.7169 38.5,61C 29.8109,64.9832 22.8109,70.8165 17.5,78.5C 13.4807,81.8564 9.48073,85.1897 5.5,88.5C 5.26269,87.209 5.59603,86.209 6.5,85.5C 12.6264,78.5415 19.293,72.0415 26.5,66C 34.7213,62.045 41.0546,56.045 45.5,48C 62.1781,34.3158 78.5114,20.3158 94.5,6C 95.8228,5.18405 96.4894,4.01739 96.5,2.5C 99.1667,2.16667 101.833,1.83333 104.5,1.5 Z"/></g>
<g><path style="opacity:1" fill="#b4ff00" d="M 147.5,0.5 C 149.626,1.04816 151.626,1.71482 153.5,2.5C 150.189,6.65645 147.023,10.9898 144,15.5C 141.512,17.7433 138.846,19.7433 136,21.5C 135.517,22.448 135.351,23.448 135.5,24.5C 133.302,25.0144 131.302,26.0144 129.5,27.5C 124.011,33.9205 117.678,39.4205 110.5,44C 109.695,45.1127 109.028,46.2794 108.5,47.5C 104.833,47.5 101.167,47.5 97.5,47.5C 97.4142,46.5041 97.7476,45.6708 98.5,45C 107.383,38.5708 115.383,31.2375 122.5,23C 128.425,19.7351 133.758,15.7351 138.5,11C 141.581,7.48677 144.581,3.98677 147.5,0.5 Z"/></g>
<g><path style="opacity:1" fill="#ff8600" d="M 2.5,97.5 C 3.05414,94.2542 4.05414,91.2542 5.5,88.5C 9.48073,85.1897 13.4807,81.8564 17.5,78.5C 22.8109,70.8165 29.8109,64.9832 38.5,61C 42.1099,57.7169 45.4433,54.0502 48.5,50C 49.5,49.6667 50.5,49.3333 51.5,49C 54.0242,44.9757 57.3575,41.809 61.5,39.5C 64.0162,35.8256 67.3495,32.9923 71.5,31C 82.0773,21.0395 93.0773,11.5395 104.5,2.5C 105.767,1.91297 106.767,1.91297 107.5,2.5C 104.726,6.89571 101.059,10.3957 96.5,13C 93.0111,18.1653 88.6778,22.1653 83.5,25C 80.7951,29.1844 77.1285,32.1844 72.5,34C 68.2617,39.7403 63.2617,44.5737 57.5,48.5C 50.9367,54.9012 44.2701,61.0679 37.5,67C 32.5253,71.3042 27.5253,75.6376 22.5,80C 21.552,80.4828 20.552,80.6495 19.5,80.5C 19.6567,81.8734 19.49,83.2068 19,84.5C 13.4875,88.9168 7.98752,93.2502 2.5,97.5 Z"/></g>
<g><path style="opacity:1" fill="#21fe14" d="M 177.5,9.5 C 183.112,11.6394 188.446,14.3061 193.5,17.5C 192.132,19.6052 191.132,21.9386 190.5,24.5C 182.075,33.2649 173.075,41.2649 163.5,48.5C 150.526,47.5988 137.526,47.2655 124.5,47.5C 136.233,38.9392 147.233,29.4392 157.5,19C 162.96,15.8594 168.127,12.3594 173,8.5C 173.333,9.16667 173.667,9.83333 174,10.5C 175.011,9.66337 176.178,9.33003 177.5,9.5 Z"/></g>
<g><path style="opacity:1" fill="#fe3303" d="M 85.5,6.5 C 83.851,8.17479 82.5177,10.1748 81.5,12.5C 77.6721,13.8884 75.0054,16.3884 73.5,20C 69.6296,21.582 66.6296,24.082 64.5,27.5C 52.0838,38.9199 39.0838,49.5865 25.5,59.5C 21.8147,64.7167 17.148,68.7167 11.5,71.5C 27.4285,39.906 52.0951,18.2394 85.5,6.5 Z"/></g>
<g><path style="opacity:1" fill="#87fe02" d="M 153.5,2.5 C 161.943,3.65128 169.943,5.98461 177.5,9.5C 176.178,9.33003 175.011,9.66337 174,10.5C 173.667,9.83333 173.333,9.16667 173,8.5C 168.127,12.3594 162.96,15.8594 157.5,19C 147.233,29.4392 136.233,38.9392 124.5,47.5C 119.167,47.5 113.833,47.5 108.5,47.5C 109.028,46.2794 109.695,45.1127 110.5,44C 117.678,39.4205 124.011,33.9205 129.5,27.5C 131.302,26.0144 133.302,25.0144 135.5,24.5C 135.351,23.448 135.517,22.448 136,21.5C 138.846,19.7433 141.512,17.7433 144,15.5C 147.023,10.9898 150.189,6.65645 153.5,2.5 Z"/></g>
<g><path style="opacity:1" fill="#09fe93" d="M 202.5,23.5 C 203.833,24.5 205.167,25.5 206.5,26.5C 206.047,27.4584 205.381,28.2917 204.5,29C 205.956,29.4226 206.456,30.2559 206,31.5C 202.018,33.3243 198.852,35.991 196.5,39.5C 192.802,41.4944 189.802,44.1611 187.5,47.5C 185.167,49 182.833,50.5 180.5,52C 179.156,54.8243 177.156,56.9909 174.5,58.5C 174.167,58.5 173.833,58.5 173.5,58.5C 172.925,56.5887 171.925,54.922 170.5,53.5C 174.549,52.3067 178.216,50.3067 181.5,47.5C 185.238,43.6532 188.905,39.8198 192.5,36C 195.341,34.4136 198.007,32.5803 200.5,30.5C 199.975,29.8076 199.308,29.3076 198.5,29C 200.464,27.549 201.797,25.7157 202.5,23.5 Z"/></g>
<g><path style="opacity:1" fill="#fe5600" d="M 96.5,2.5 C 96.4894,4.01739 95.8228,5.18405 94.5,6C 78.5114,20.3158 62.1781,34.3158 45.5,48C 41.0546,56.045 34.7213,62.045 26.5,66C 19.293,72.0415 12.6264,78.5415 6.5,85.5C 7.6025,80.629 9.26917,75.9624 11.5,71.5C 17.148,68.7167 21.8147,64.7167 25.5,59.5C 39.0838,49.5865 52.0838,38.9199 64.5,27.5C 66.6296,24.082 69.6296,21.582 73.5,20C 75.0054,16.3884 77.6721,13.8884 81.5,12.5C 82.5177,10.1748 83.851,8.17479 85.5,6.5C 88.9191,4.72003 92.5857,3.3867 96.5,2.5 Z"/></g>
<g><path style="opacity:1" fill="#04fe66" d="M 193.5,17.5 C 196.5,19.5 199.5,21.5 202.5,23.5C 201.797,25.7157 200.464,27.549 198.5,29C 199.308,29.3076 199.975,29.8076 200.5,30.5C 198.007,32.5803 195.341,34.4136 192.5,36C 188.905,39.8198 185.238,43.6532 181.5,47.5C 178.216,50.3067 174.549,52.3067 170.5,53.5C 168.305,51.5756 165.972,49.9089 163.5,48.5C 173.075,41.2649 182.075,33.2649 190.5,24.5C 191.132,21.9386 192.132,19.6052 193.5,17.5 Z"/></g>
<g><path style="opacity:1" fill="#05febf" d="M 206.5,26.5 C 209.167,28.8333 211.833,31.1667 214.5,33.5C 212.565,34.81 210.565,36.1433 208.5,37.5C 198.753,47.9158 188.086,57.2491 176.5,65.5C 176.606,62.9214 175.939,60.588 174.5,58.5C 177.156,56.9909 179.156,54.8243 180.5,52C 182.833,50.5 185.167,49 187.5,47.5C 189.802,44.1611 192.802,41.4944 196.5,39.5C 198.852,35.991 202.018,33.3243 206,31.5C 206.456,30.2559 205.956,29.4226 204.5,29C 205.381,28.2917 206.047,27.4584 206.5,26.5 Z"/></g>
<g><path style="opacity:1" fill="#04fee9" d="M 214.5,33.5 C 216.167,34.5 217.5,35.8333 218.5,37.5C 205.099,50.571 191.099,62.9043 176.5,74.5C 176.5,71.5 176.5,68.5 176.5,65.5C 188.086,57.2491 198.753,47.9158 208.5,37.5C 210.565,36.1433 212.565,34.81 214.5,33.5 Z"/></g>
<g><path style="opacity:1" fill="#0291ff" d="M 229.5,50.5 C 230.488,51.795 231.488,53.1283 232.5,54.5C 230.745,55.0722 229.078,55.9055 227.5,57C 225.074,60.5159 222.407,63.8492 219.5,67C 215.109,71.3755 210.109,75.0422 204.5,78C 195.6,87.4034 186.266,96.2367 176.5,104.5C 176.5,101.833 176.5,99.1667 176.5,96.5C 179.788,93.2285 183.455,90.2285 187.5,87.5C 188.262,86.3717 188.929,85.2051 189.5,84C 195.446,81.0403 200.446,77.0403 204.5,72C 206.37,70.6338 208.37,69.4672 210.5,68.5C 216.996,62.5568 223.33,56.5568 229.5,50.5 Z"/></g>
<g><path style="opacity:1" fill="#ffdb00" d="M 125.5,-0.5 C 126.833,-0.5 128.167,-0.5 129.5,-0.5C 125.199,5.46853 120.199,10.8019 114.5,15.5C 109.007,19.7863 103.507,24.1197 98,28.5C 96.294,30.7049 94.794,33.0383 93.5,35.5C 89.228,37.7744 85.228,40.4411 81.5,43.5C 79.5403,45.2905 78.207,47.4572 77.5,50C 67.6331,59.3659 57.2998,68.1992 46.5,76.5C 45.5847,79.4666 43.5847,81.2999 40.5,82C 38.1092,85.3714 35.4426,88.538 32.5,91.5C 27.0433,94.1269 22.7099,97.9602 19.5,103C 12.2561,107.37 5.58945,112.537 -0.5,118.5C -0.5,116.5 -0.5,114.5 -0.5,112.5C 2.75253,109.669 5.75253,106.503 8.5,103C 14.6912,100.426 19.3579,96.259 22.5,90.5C 46.9719,69.1971 71.3052,47.6971 95.5,26C 96.9003,24.5619 98.567,23.7286 100.5,23.5C 100.33,22.1779 100.663,21.0113 101.5,20C 109.824,13.369 117.824,6.53568 125.5,-0.5 Z"/></g>
<g><path style="opacity:1" fill="#0172ff" d="M 232.5,54.5 C 233.6,55.6049 234.267,56.9382 234.5,58.5C 223.707,67.7919 213.373,77.6252 203.5,88C 200.833,89.3333 198.167,90.6667 195.5,92C 191.39,96.8985 187.056,101.565 182.5,106C 180.612,107.394 178.612,108.56 176.5,109.5C 176.5,107.833 176.5,106.167 176.5,104.5C 186.266,96.2367 195.6,87.4034 204.5,78C 210.109,75.0422 215.109,71.3755 219.5,67C 222.407,63.8492 225.074,60.5159 227.5,57C 229.078,55.9055 230.745,55.0722 232.5,54.5 Z"/></g>
<g><path style="opacity:1" fill="#03f2fe" d="M 218.5,37.5 C 219.167,37.5 219.5,37.8333 219.5,38.5C 215.895,42.9591 212.395,47.6258 209,52.5C 202.317,57.9043 195.817,63.4043 189.5,69C 186.39,74.758 182.056,79.258 176.5,82.5C 176.5,79.8333 176.5,77.1667 176.5,74.5C 191.099,62.9043 205.099,50.571 218.5,37.5 Z"/></g>
<g><path style="opacity:1" fill="#febb01" d="M 119.5,-0.5 C 121.5,-0.5 123.5,-0.5 125.5,-0.5C 117.824,6.53568 109.824,13.369 101.5,20C 100.663,21.0113 100.33,22.1779 100.5,23.5C 98.567,23.7286 96.9003,24.5619 95.5,26C 71.3052,47.6971 46.9719,69.1971 22.5,90.5C 19.3579,96.259 14.6912,100.426 8.5,103C 5.75253,106.503 2.75253,109.669 -0.5,112.5C -0.5,112.167 -0.5,111.833 -0.5,111.5C 0.461384,109.735 0.794717,107.735 0.5,105.5C 1.58317,105.461 2.58317,105.127 3.5,104.5C 9.09887,96.4447 16.0989,89.9447 24.5,85C 30.7489,77.8733 37.5822,71.3733 45,65.5C 46.8653,61.9718 49.6986,59.4718 53.5,58C 60.2893,49.877 68.2893,43.2104 77.5,38C 79.2907,35.586 80.9574,33.086 82.5,30.5C 88.8701,25.263 95.5368,20.4297 102.5,16C 104.146,11.8251 107.146,8.99179 111.5,7.5C 113.716,4.3902 116.382,1.72353 119.5,-0.5 Z"/></g>
<g><path style="opacity:1" fill="#03b4ff" d="M 225.5,45.5 C 227.063,46.9448 228.396,48.6115 229.5,50.5C 223.33,56.5568 216.996,62.5568 210.5,68.5C 208.37,69.4672 206.37,70.6338 204.5,72C 200.446,77.0403 195.446,81.0403 189.5,84C 188.929,85.2051 188.262,86.3717 187.5,87.5C 183.455,90.2285 179.788,93.2285 176.5,96.5C 176.5,93.1667 176.5,89.8333 176.5,86.5C 180,83.2473 184,80.7473 188.5,79C 194.935,73.1748 200.935,66.8414 206.5,60C 209.377,59.0438 212.044,57.7105 214.5,56C 217.816,52.0314 221.483,48.5314 225.5,45.5 Z"/></g>
<g><path style="opacity:1" fill="#02d6ff" d="M 219.5,38.5 C 221.471,40.8082 223.471,43.1415 225.5,45.5C 221.483,48.5314 217.816,52.0314 214.5,56C 212.044,57.7105 209.377,59.0438 206.5,60C 200.935,66.8414 194.935,73.1748 188.5,79C 184,80.7473 180,83.2473 176.5,86.5C 176.5,85.1667 176.5,83.8333 176.5,82.5C 182.056,79.258 186.39,74.758 189.5,69C 195.817,63.4043 202.317,57.9043 209,52.5C 212.395,47.6258 215.895,42.9591 219.5,38.5 Z"/></g>
<g><path style="opacity:1" fill="#002bff" d="M 238.5,64.5 C 239.737,65.9649 240.737,67.6316 241.5,69.5C 240.448,69.3505 239.448,69.5172 238.5,70C 232.677,74.5724 227.01,79.2391 221.5,84C 218.16,88.5168 213.827,91.8501 208.5,94C 205.301,97.5662 202.467,101.4 200,105.5C 197.766,107.7 195.266,109.533 192.5,111C 190.806,114.355 188.14,116.689 184.5,118C 182.487,121.494 179.82,124.327 176.5,126.5C 176.5,123.833 176.5,121.167 176.5,118.5C 197.357,100.954 218.024,82.9545 238.5,64.5 Z"/></g>
<g><path style="opacity:1" fill="#0059ff" d="M 234.5,58.5 C 235.167,58.5 235.5,58.8333 235.5,59.5C 222.061,73.1052 208.394,86.6052 194.5,100C 188.612,105.395 182.612,110.562 176.5,115.5C 176.5,113.5 176.5,111.5 176.5,109.5C 178.612,108.56 180.612,107.394 182.5,106C 187.056,101.565 191.39,96.8985 195.5,92C 198.167,90.6667 200.833,89.3333 203.5,88C 213.373,77.6252 223.707,67.7919 234.5,58.5 Z"/></g>
<g><path style="opacity:1" fill="#fea202" d="M 111.5,-0.5 C 114.167,-0.5 116.833,-0.5 119.5,-0.5C 116.382,1.72353 113.716,4.3902 111.5,7.5C 107.146,8.99179 104.146,11.8251 102.5,16C 95.5368,20.4297 88.8701,25.263 82.5,30.5C 80.9574,33.086 79.2907,35.586 77.5,38C 68.2893,43.2104 60.2893,49.877 53.5,58C 49.6986,59.4718 46.8653,61.9718 45,65.5C 37.5822,71.3733 30.7489,77.8733 24.5,85C 16.0989,89.9447 9.09887,96.4447 3.5,104.5C 2.58317,105.127 1.58317,105.461 0.5,105.5C 1.29063,102.885 1.9573,100.218 2.5,97.5C 7.98752,93.2502 13.4875,88.9168 19,84.5C 19.49,83.2068 19.6567,81.8734 19.5,80.5C 20.552,80.6495 21.552,80.4828 22.5,80C 27.5253,75.6376 32.5253,71.3042 37.5,67C 44.2701,61.0679 50.9367,54.9012 57.5,48.5C 63.2617,44.5737 68.2617,39.7403 72.5,34C 77.1285,32.1844 80.7951,29.1844 83.5,25C 88.6778,22.1653 93.0111,18.1653 96.5,13C 101.059,10.3957 104.726,6.89571 107.5,2.5C 106.767,1.91297 105.767,1.91297 104.5,2.5C 104.5,2.16667 104.5,1.83333 104.5,1.5C 106.833,0.833333 109.167,0.166667 111.5,-0.5 Z"/></g>
<g><path style="opacity:1" fill="#e8fe01" d="M 139.5,-0.5 C 140.5,-0.5 141.5,-0.5 142.5,-0.5C 143.919,0.451145 145.585,0.784479 147.5,0.5C 144.581,3.98677 141.581,7.48677 138.5,11C 133.758,15.7351 128.425,19.7351 122.5,23C 115.383,31.2375 107.383,38.5708 98.5,45C 97.7476,45.6708 97.4142,46.5041 97.5,47.5C 86.7136,48.9543 80.047,54.9543 77.5,65.5C 69.4447,71.4941 61.1114,77.3274 52.5,83C 47.4071,88.4374 41.7404,93.2707 35.5,97.5C 31.8825,102.281 27.8825,106.615 23.5,110.5C 19.4433,112.384 15.7766,114.884 12.5,118C 8.13399,122.174 3.80065,126.34 -0.5,130.5C -0.5,128.5 -0.5,126.5 -0.5,124.5C 46.4616,83.3217 93.1282,41.655 139.5,-0.5 Z"/></g>
<g><path style="opacity:1" fill="#1804ff" d="M 241.5,69.5 C 243.5,74.1667 245.5,78.8333 247.5,83.5C 245.692,84.9073 243.692,86.074 241.5,87C 235.553,92.6552 229.553,98.3219 223.5,104C 216.88,107.293 211.546,111.959 207.5,118C 201.957,122.032 196.624,126.365 191.5,131C 185.057,133.945 180.057,138.445 176.5,144.5C 176.5,138.5 176.5,132.5 176.5,126.5C 179.82,124.327 182.487,121.494 184.5,118C 188.14,116.689 190.806,114.355 192.5,111C 195.266,109.533 197.766,107.7 200,105.5C 202.467,101.4 205.301,97.5662 208.5,94C 213.827,91.8501 218.16,88.5168 221.5,84C 227.01,79.2391 232.677,74.5724 238.5,70C 239.448,69.5172 240.448,69.3505 241.5,69.5 Z"/></g>
<g><path style="opacity:1" fill="#c6fe01" d="M 77.5,65.5 C 77.5,66.8333 77.5,68.1667 77.5,69.5C 74.945,71.3138 72.2784,72.9805 69.5,74.5C 68.5713,75.6888 68.238,77.0222 68.5,78.5C 65.8602,78.954 63.5268,80.1207 61.5,82C 60.8095,83.0674 60.3095,84.2341 60,85.5C 52.5591,93.1126 44.3925,99.7793 35.5,105.5C 30.5847,111.915 24.5847,117.081 17.5,121C 13.0006,125.777 8.50057,130.61 4,135.5C 2.80678,137.886 1.64011,140.22 0.5,142.5C 0.166667,142.5 -0.166667,142.5 -0.5,142.5C -0.5,138.5 -0.5,134.5 -0.5,130.5C 3.80065,126.34 8.13399,122.174 12.5,118C 15.7766,114.884 19.4433,112.384 23.5,110.5C 27.8825,106.615 31.8825,102.281 35.5,97.5C 41.7404,93.2707 47.4071,88.4374 52.5,83C 61.1114,77.3274 69.4447,71.4941 77.5,65.5 Z"/></g>
<g><path style="opacity:1" fill="#0145ff" d="M 235.5,59.5 C 236.737,60.9649 237.737,62.6316 238.5,64.5C 218.024,82.9545 197.357,100.954 176.5,118.5C 176.5,117.5 176.5,116.5 176.5,115.5C 182.612,110.562 188.612,105.395 194.5,100C 208.394,86.6052 222.061,73.1052 235.5,59.5 Z"/></g>
<g><path style="opacity:1" fill="#a7fe01" d="M 77.5,69.5 C 77.5,70.8333 77.5,72.1667 77.5,73.5C 72.3968,78.6624 67.0635,83.6624 61.5,88.5C 60.5,90.5 59.5,92.5 58.5,94.5C 55.027,96.1397 52.3603,98.6397 50.5,102C 48.8333,103 47.1667,104 45.5,105C 41.1667,109.333 36.8333,113.667 32.5,118C 27.0289,120.724 22.3622,124.391 18.5,129C 16.641,129.684 14.9743,130.684 13.5,132C 10.3762,135.621 7.20949,139.121 4,142.5C 2.58725,144.652 1.75392,146.986 1.5,149.5C 0.531782,147.393 0.198448,145.059 0.5,142.5C 1.64011,140.22 2.80678,137.886 4,135.5C 8.50057,130.61 13.0006,125.777 17.5,121C 24.5847,117.081 30.5847,111.915 35.5,105.5C 44.3925,99.7793 52.5591,93.1126 60,85.5C 60.3095,84.2341 60.8095,83.0674 61.5,82C 63.5268,80.1207 65.8602,78.954 68.5,78.5C 68.238,77.0222 68.5713,75.6888 69.5,74.5C 72.2784,72.9805 74.945,71.3138 77.5,69.5 Z"/></g>
<g><path style="opacity:1" fill="#9900ff" d="M 250.5,93.5 C 251.167,96.1667 251.833,98.8333 252.5,101.5C 246.172,107.939 239.505,114.106 232.5,120C 223.135,126.714 214.468,134.38 206.5,143C 202.333,144.5 199.5,147.333 198,151.5C 190.61,158.061 183.444,164.728 176.5,171.5C 176.5,166.5 176.5,161.5 176.5,156.5C 185.342,149.831 194.342,143.331 203.5,137C 205.281,132.096 208.614,128.763 213.5,127C 214.167,125.667 214.833,124.333 215.5,123C 221.142,118.363 226.809,113.697 232.5,109C 235.607,108.222 237.774,106.389 239,103.5C 243.676,100.982 247.509,97.6482 250.5,93.5 Z"/></g>
<g><path style="opacity:1" fill="#5c00ff" d="M 247.5,83.5 C 248.808,86.7302 249.808,90.0636 250.5,93.5C 247.509,97.6482 243.676,100.982 239,103.5C 237.774,106.389 235.607,108.222 232.5,109C 226.809,113.697 221.142,118.363 215.5,123C 214.833,124.333 214.167,125.667 213.5,127C 208.614,128.763 205.281,132.096 203.5,137C 194.342,143.331 185.342,149.831 176.5,156.5C 176.5,152.5 176.5,148.5 176.5,144.5C 180.057,138.445 185.057,133.945 191.5,131C 196.624,126.365 201.957,122.032 207.5,118C 211.546,111.959 216.88,107.293 223.5,104C 229.553,98.3219 235.553,92.6552 241.5,87C 243.692,86.074 245.692,84.9073 247.5,83.5 Z"/></g>
<g><path style="opacity:1" fill="#bb00ff" d="M 252.5,101.5 C 252.366,103.292 252.699,104.958 253.5,106.5C 242.915,117.408 231.582,127.741 219.5,137.5C 218.738,138.628 218.071,139.795 217.5,141C 214.156,143.001 210.823,145.001 207.5,147C 197.234,156.188 186.901,165.021 176.5,173.5C 176.5,172.833 176.5,172.167 176.5,171.5C 183.444,164.728 190.61,158.061 198,151.5C 199.5,147.333 202.333,144.5 206.5,143C 214.468,134.38 223.135,126.714 232.5,120C 239.505,114.106 246.172,107.939 252.5,101.5 Z"/></g>
<g><path style="opacity:1" fill="#1efe13" d="M 77.5,90.5 C 77.5,102.167 77.5,113.833 77.5,125.5C 70.9982,131.166 64.3315,136.666 57.5,142C 54.4428,146.374 50.4428,149.707 45.5,152C 38.2215,159.656 30.8882,167.323 23.5,175C 19.4461,177.51 15.1127,179.343 10.5,180.5C 7.36479,173.427 5.03145,166.094 3.5,158.5C 5.3386,157.492 6.67193,155.992 7.5,154C 10.8333,152 14.1667,150 17.5,148C 21.548,143.62 25.2147,138.954 28.5,134C 32.1062,132.726 34.7728,130.393 36.5,127C 41.8925,122.399 47.3925,117.899 53,113.5C 53.2189,112.062 53.7189,110.729 54.5,109.5C 62.007,102.888 69.6736,96.5547 77.5,90.5 Z"/></g>
<g><path style="opacity:1" fill="#da02fe" d="M 253.5,106.5 C 253.325,108.621 253.659,110.621 254.5,112.5C 247.82,117.18 242.153,122.847 237.5,129.5C 233.993,131.176 231.326,133.676 229.5,137C 225.833,139.333 222.167,141.667 218.5,144C 212.538,148.83 207.205,154.33 202.5,160.5C 197.244,164.713 191.91,168.879 186.5,173C 184.342,176.656 181.342,179.49 177.5,181.5C 176.828,182.949 176.161,184.282 175.5,185.5C 175.307,181.434 175.64,177.434 176.5,173.5C 186.901,165.021 197.234,156.188 207.5,147C 210.823,145.001 214.156,143.001 217.5,141C 218.071,139.795 218.738,138.628 219.5,137.5C 231.582,127.741 242.915,117.408 253.5,106.5 Z"/></g>
<g><path style="opacity:1" fill="#6bff00" d="M 77.5,73.5 C 77.5,79.1667 77.5,84.8333 77.5,90.5C 69.6736,96.5547 62.007,102.888 54.5,109.5C 53.7189,110.729 53.2189,112.062 53,113.5C 47.3925,117.899 41.8925,122.399 36.5,127C 34.7728,130.393 32.1062,132.726 28.5,134C 25.2147,138.954 21.548,143.62 17.5,148C 14.1667,150 10.8333,152 7.5,154C 6.67193,155.992 5.3386,157.492 3.5,158.5C 2.08699,155.781 1.42032,152.781 1.5,149.5C 1.75392,146.986 2.58725,144.652 4,142.5C 7.20949,139.121 10.3762,135.621 13.5,132C 14.9743,130.684 16.641,129.684 18.5,129C 22.3622,124.391 27.0289,120.724 32.5,118C 36.8333,113.667 41.1667,109.333 45.5,105C 47.1667,104 48.8333,103 50.5,102C 52.3603,98.6397 55.027,96.1397 58.5,94.5C 59.5,92.5 60.5,90.5 61.5,88.5C 67.0635,83.6624 72.3968,78.6624 77.5,73.5 Z"/></g>
<g><path style="opacity:1" fill="#04fe5f" d="M 77.5,125.5 C 77.5,129.167 77.5,132.833 77.5,136.5C 72.5371,139.738 68.2037,143.905 64.5,149C 57.8725,152.652 51.8725,156.985 46.5,162C 45.624,163.586 44.624,165.086 43.5,166.5C 38.5648,168.773 34.5648,172.107 31.5,176.5C 27.022,179.81 22.6886,183.31 18.5,187C 17.255,187.791 15.9217,188.291 14.5,188.5C 13.1667,185.833 11.8333,183.167 10.5,180.5C 15.1127,179.343 19.4461,177.51 23.5,175C 30.8882,167.323 38.2215,159.656 45.5,152C 50.4428,149.707 54.4428,146.374 57.5,142C 64.3315,136.666 70.9982,131.166 77.5,125.5 Z"/></g>
<g><path style="opacity:1" fill="#f800f9" d="M 254.5,112.5 C 254.5,115.833 254.5,119.167 254.5,122.5C 246.169,130.159 237.502,137.492 228.5,144.5C 225.331,147.837 222.331,151.337 219.5,155C 217.167,156 214.833,157 212.5,158C 210.652,160.179 208.485,162.013 206,163.5C 205.888,166.447 204.388,167.78 201.5,167.5C 201.66,169.199 201.494,170.866 201,172.5C 195.469,177.399 189.636,181.899 183.5,186C 179.957,189.712 176.457,193.546 173,197.5C 172.601,197.272 172.435,196.938 172.5,196.5C 174.88,193.238 175.88,189.571 175.5,185.5C 176.161,184.282 176.828,182.949 177.5,181.5C 181.342,179.49 184.342,176.656 186.5,173C 191.91,168.879 197.244,164.713 202.5,160.5C 207.205,154.33 212.538,148.83 218.5,144C 222.167,141.667 225.833,139.333 229.5,137C 231.326,133.676 233.993,131.176 237.5,129.5C 242.153,122.847 247.82,117.18 254.5,112.5 Z"/></g>
<g><path style="opacity:1" fill="#01feeb" d="M 77.5,158.5 C 78.1776,162.273 76.8442,165.106 73.5,167C 57.9731,180.365 42.6398,193.865 27.5,207.5C 26.075,206.078 25.075,204.411 24.5,202.5C 27.3013,201.265 29.9679,199.765 32.5,198C 42.8265,188.341 53.1599,178.674 63.5,169C 68.3266,165.668 72.9933,162.168 77.5,158.5 Z"/></g>
<g><path style="opacity:1" fill="#fe01d9" d="M 254.5,122.5 C 254.5,124.833 254.5,127.167 254.5,129.5C 246.519,135.654 239.186,142.487 232.5,150C 225.698,153.723 219.698,158.389 214.5,164C 206.753,168.962 199.753,174.796 193.5,181.5C 189.802,183.494 186.802,186.161 184.5,189.5C 179.727,192.541 175.393,196.041 171.5,200C 166.505,205.995 161.172,211.661 155.5,217C 146.111,221.979 138.111,228.479 131.5,236.5C 126.198,238.716 122.365,242.383 120,247.5C 117.522,249.639 115.022,251.639 112.5,253.5C 111.5,253.5 110.5,253.5 109.5,253.5C 115.49,247.514 121.823,241.847 128.5,236.5C 129.262,235.372 129.929,234.205 130.5,233C 136.636,228.899 142.469,224.399 148,219.5C 149.198,215.254 151.698,212.087 155.5,210C 154.5,209.667 153.5,209.333 152.5,209C 154.544,208.502 155.878,207.335 156.5,205.5C 163.319,205.268 168.319,202.268 171.5,196.5C 171.833,196.5 172.167,196.5 172.5,196.5C 172.435,196.938 172.601,197.272 173,197.5C 176.457,193.546 179.957,189.712 183.5,186C 189.636,181.899 195.469,177.399 201,172.5C 201.494,170.866 201.66,169.199 201.5,167.5C 204.388,167.78 205.888,166.447 206,163.5C 208.485,162.013 210.652,160.179 212.5,158C 214.833,157 217.167,156 219.5,155C 222.331,151.337 225.331,147.837 228.5,144.5C 237.502,137.492 246.169,130.159 254.5,122.5 Z"/></g>
<g><path style="opacity:1" fill="#11f2fb" d="M 77.5,139.5 C 78.4936,148.652 78.8269,157.985 78.5,167.5C 62.2868,181.59 46.2868,195.924 30.5,210.5C 29.1667,209.833 28.1667,208.833 27.5,207.5C 42.6398,193.865 57.9731,180.365 73.5,167C 76.8442,165.106 78.1776,162.273 77.5,158.5C 77.5,155.833 77.5,153.167 77.5,150.5C 77.5,146.833 77.5,143.167 77.5,139.5 Z"/></g>
<g><path style="opacity:1" fill="#06fe9c" d="M 77.5,136.5 C 77.5,137.5 77.5,138.5 77.5,139.5C 77.5,143.167 77.5,146.833 77.5,150.5C 70.5645,154.882 63.8979,159.716 57.5,165C 53.5206,170.977 48.8539,176.31 43.5,181C 38.7803,185.706 33.4469,189.706 27.5,193C 25.5998,195.335 23.5998,197.502 21.5,199.5C 18.917,196.003 16.5836,192.336 14.5,188.5C 15.9217,188.291 17.255,187.791 18.5,187C 22.6886,183.31 27.022,179.81 31.5,176.5C 34.5648,172.107 38.5648,168.773 43.5,166.5C 44.624,165.086 45.624,163.586 46.5,162C 51.8725,156.985 57.8725,152.652 64.5,149C 68.2037,143.905 72.5371,139.738 77.5,136.5 Z"/></g>
<g><path style="opacity:1" fill="#ff0054" d="M 251.5,154.5 C 251.634,156.292 251.301,157.958 250.5,159.5C 248.494,162.355 245.828,164.521 242.5,166C 240.124,171.547 236.124,175.547 230.5,178C 229.929,179.205 229.262,180.372 228.5,181.5C 224.032,184.137 219.698,186.97 215.5,190C 210.318,194.683 205.652,199.849 201.5,205.5C 197.157,207.168 193.824,210.001 191.5,214C 183.917,219.07 176.584,224.403 169.5,230C 160.897,238.708 151.564,246.541 141.5,253.5C 140.081,254.451 138.415,254.784 136.5,254.5C 140.643,250.205 145.31,246.372 150.5,243C 152.194,239.645 154.86,237.311 158.5,236C 161.557,231.95 164.89,228.283 168.5,225C 173.001,222.584 177.334,219.917 181.5,217C 185.025,212.768 188.692,208.768 192.5,205C 197.804,201.688 202.804,198.021 207.5,194C 208.928,191.815 210.595,189.815 212.5,188C 225.516,176.829 238.516,165.663 251.5,154.5 Z"/></g>
<g><path style="opacity:1" fill="#fe000a" d="M 241.5,183.5 C 224.308,218.681 196.641,241.014 158.5,250.5C 161.289,247.598 164.623,245.432 168.5,244C 173.306,238.772 178.306,233.772 183.5,229C 189.102,226.595 193.102,222.595 195.5,217C 200.044,213.87 204.377,210.536 208.5,207C 216.189,200.309 223.522,193.309 230.5,186C 232.933,184.368 235.433,182.868 238,181.5C 239.459,181.808 240.626,182.475 241.5,183.5 Z"/></g>
<g><path style="opacity:1" fill="#04acff" d="M 78.5,178.5 C 78.5,180.833 78.5,183.167 78.5,185.5C 73.6358,187.961 69.9692,191.628 67.5,196.5C 63.8639,198.471 60.8639,201.137 58.5,204.5C 51.223,208.789 44.5563,213.789 38.5,219.5C 36.5,218.167 34.8333,216.5 33.5,214.5C 37.0607,212.952 40.394,210.952 43.5,208.5C 52.2377,200.254 60.9044,191.754 69.5,183C 72.4111,181.239 75.4111,179.739 78.5,178.5 Z"/></g>
<g><path style="opacity:1" fill="#01ffcb" d="M 77.5,150.5 C 77.5,153.167 77.5,155.833 77.5,158.5C 72.9933,162.168 68.3266,165.668 63.5,169C 53.1599,178.674 42.8265,188.341 32.5,198C 29.9679,199.765 27.3013,201.265 24.5,202.5C 23.1667,201.833 22.1667,200.833 21.5,199.5C 23.5998,197.502 25.5998,195.335 27.5,193C 33.4469,189.706 38.7803,185.706 43.5,181C 48.8539,176.31 53.5206,170.977 57.5,165C 63.8979,159.716 70.5645,154.882 77.5,150.5 Z"/></g>
<g><path style="opacity:1" fill="#0389fe" d="M 78.5,185.5 C 78.3253,187.621 78.6586,189.621 79.5,191.5C 78.1184,192.801 76.4517,193.634 74.5,194C 71.0227,197.312 67.6894,200.812 64.5,204.5C 62.8689,206.297 60.8689,207.464 58.5,208C 55.9813,212.182 52.4813,215.349 48,217.5C 47.5363,220.652 45.703,222.318 42.5,222.5C 41.1283,221.488 39.795,220.488 38.5,219.5C 44.5563,213.789 51.223,208.789 58.5,204.5C 60.8639,201.137 63.8639,198.471 67.5,196.5C 69.9692,191.628 73.6358,187.961 78.5,185.5 Z"/></g>
<g><path style="opacity:1" fill="#fe002a" d="M 248.5,166.5 C 246.955,172.577 244.622,178.244 241.5,183.5C 240.626,182.475 239.459,181.808 238,181.5C 235.433,182.868 232.933,184.368 230.5,186C 223.522,193.309 216.189,200.309 208.5,207C 204.377,210.536 200.044,213.87 195.5,217C 193.102,222.595 189.102,226.595 183.5,229C 178.306,233.772 173.306,238.772 168.5,244C 164.623,245.432 161.289,247.598 158.5,250.5C 157.609,251.11 156.609,251.443 155.5,251.5C 157.018,246.989 160.018,243.823 164.5,242C 166.833,239 169.167,236 171.5,233C 179.833,226.167 188.167,219.333 196.5,212.5C 197.415,209.533 199.415,207.7 202.5,207C 212.833,197.333 223.167,187.667 233.5,178C 237.477,176.352 240.477,173.686 242.5,170C 244.388,168.606 246.388,167.44 248.5,166.5 Z"/></g>
<g><path style="opacity:1" fill="#03d5fe" d="M 78.5,167.5 C 78.5,171.167 78.5,174.833 78.5,178.5C 75.4111,179.739 72.4111,181.239 69.5,183C 60.9044,191.754 52.2377,200.254 43.5,208.5C 40.394,210.952 37.0607,212.952 33.5,214.5C 32.5,213.167 31.5,211.833 30.5,210.5C 46.2868,195.924 62.2868,181.59 78.5,167.5 Z"/></g>
<g><path style="opacity:1" fill="#97afd8" d="M 97.5,47.5 C 101.167,47.5 104.833,47.5 108.5,47.5C 113.833,47.5 119.167,47.5 124.5,47.5C 137.526,47.2655 150.526,47.5988 163.5,48.5C 165.972,49.9089 168.305,51.5756 170.5,53.5C 171.925,54.922 172.925,56.5887 173.5,58.5C 173.833,58.5 174.167,58.5 174.5,58.5C 175.939,60.588 176.606,62.9214 176.5,65.5C 176.5,68.5 176.5,71.5 176.5,74.5C 176.5,77.1667 176.5,79.8333 176.5,82.5C 176.5,83.8333 176.5,85.1667 176.5,86.5C 176.5,89.8333 176.5,93.1667 176.5,96.5C 176.5,99.1667 176.5,101.833 176.5,104.5C 176.5,106.167 176.5,107.833 176.5,109.5C 176.5,111.5 176.5,113.5 176.5,115.5C 176.5,116.5 176.5,117.5 176.5,118.5C 176.5,121.167 176.5,123.833 176.5,126.5C 176.5,132.5 176.5,138.5 176.5,144.5C 176.5,148.5 176.5,152.5 176.5,156.5C 176.5,161.5 176.5,166.5 176.5,171.5C 176.5,172.167 176.5,172.833 176.5,173.5C 175.64,177.434 175.307,181.434 175.5,185.5C 175.88,189.571 174.88,193.238 172.5,196.5C 172.167,196.5 171.833,196.5 171.5,196.5C 168.535,199.071 165.202,201.071 161.5,202.5C 137.15,203.794 112.817,203.794 88.5,202.5C 87.391,202.443 86.391,202.11 85.5,201.5C 84.5,199.833 83.1667,198.5 81.5,197.5C 80.6373,195.579 79.9707,193.579 79.5,191.5C 78.6586,189.621 78.3253,187.621 78.5,185.5C 78.5,183.167 78.5,180.833 78.5,178.5C 78.5,174.833 78.5,171.167 78.5,167.5C 78.8269,157.985 78.4936,148.652 77.5,139.5C 77.5,138.5 77.5,137.5 77.5,136.5C 77.5,132.833 77.5,129.167 77.5,125.5C 77.5,113.833 77.5,102.167 77.5,90.5C 77.5,84.8333 77.5,79.1667 77.5,73.5C 77.5,72.1667 77.5,70.8333 77.5,69.5C 77.5,68.1667 77.5,66.8333 77.5,65.5C 80.047,54.9543 86.7136,48.9543 97.5,47.5 Z"/></g>
<g><path style="opacity:1" fill="#c6d3ed" d="M 79.5,90.5 C 80.3019,91.9516 80.8019,93.6183 81,95.5C 81.8323,104.819 82.3323,114.152 82.5,123.5C 94.1667,123.5 105.833,123.5 117.5,123.5C 117.799,114.274 118.799,105.274 120.5,96.5C 120.5,103.5 120.5,110.5 120.5,117.5C 120.5,121.833 120.5,126.167 120.5,130.5C 120.799,132.604 120.466,134.604 119.5,136.5C 117.754,134.748 115.754,133.415 113.5,132.5C 109.914,126.57 105.414,125.57 100,129.5C 99.3333,131.833 99.3333,134.167 100,136.5C 101.736,138.063 103.236,139.73 104.5,141.5C 107.141,143.804 109.808,146.138 112.5,148.5C 113.5,150.167 114.833,151.5 116.5,152.5C 118.167,153.833 119.833,155.167 121.5,156.5C 124.005,160.5 127.338,161.333 131.5,159C 139,152.167 146.5,145.333 154,138.5C 156.141,135.187 155.974,132.187 153.5,129.5C 153.389,128.883 153.056,128.383 152.5,128C 150.5,127.333 148.5,127.333 146.5,128C 142.641,131.032 138.974,134.198 135.5,137.5C 134.527,135.052 134.194,132.385 134.5,129.5C 134.5,125.5 134.5,121.5 134.5,117.5C 134.5,114.167 134.5,110.833 134.5,107.5C 134.605,103.452 134.272,99.4517 133.5,95.5C 134.117,95.6107 134.617,95.944 135,96.5C 136.217,105.459 136.717,114.459 136.5,123.5C 148.167,123.5 159.833,123.5 171.5,123.5C 171.685,112.274 172.685,101.274 174.5,90.5C 174.833,123.84 174.5,157.173 173.5,190.5C 170.836,195.328 166.836,198.494 161.5,200C 139.5,200.667 117.5,200.667 95.5,200C 92.8333,199 90.1667,198 87.5,197C 85.8767,194.92 84.3767,192.754 83,190.5C 81.6497,179.895 80.6497,169.229 80,158.5C 79.5,135.836 79.3334,113.169 79.5,90.5 Z"/></g>
<g><path style="opacity:1" fill="#0657fe" d="M 153.5,129.5 C 155.974,132.187 156.141,135.187 154,138.5C 146.5,145.333 139,152.167 131.5,159C 127.338,161.333 124.005,160.5 121.5,156.5C 124.846,153.389 128.513,150.555 132.5,148C 135.373,143.924 138.707,140.258 142.5,137C 144.167,136.667 145.833,136.333 147.5,136C 149.734,133.937 151.734,131.771 153.5,129.5 Z"/></g>
<g><path style="opacity:1" fill="#08d2fe" d="M 134.5,117.5 C 134.5,121.5 134.5,125.5 134.5,129.5C 131.029,132.14 128.029,135.306 125.5,139C 122.562,140.808 119.562,142.308 116.5,143.5C 116.657,146.344 115.324,148.011 112.5,148.5C 109.808,146.138 107.141,143.804 104.5,141.5C 107.909,138.758 110.909,135.758 113.5,132.5C 115.754,133.415 117.754,134.748 119.5,136.5C 120.466,134.604 120.799,132.604 120.5,130.5C 125.141,126.195 129.807,121.861 134.5,117.5 Z"/></g>
<g><path style="opacity:1" fill="#039ffe" d="M 134.5,129.5 C 134.194,132.385 134.527,135.052 135.5,137.5C 129.552,142.889 123.218,147.889 116.5,152.5C 114.833,151.5 113.5,150.167 112.5,148.5C 115.324,148.011 116.657,146.344 116.5,143.5C 119.562,142.308 122.562,140.808 125.5,139C 128.029,135.306 131.029,132.14 134.5,129.5 Z"/></g>
<g><path style="opacity:1" fill="#047cfe" d="M 153.5,129.5 C 151.734,131.771 149.734,133.937 147.5,136C 145.833,136.333 144.167,136.667 142.5,137C 138.707,140.258 135.373,143.924 132.5,148C 128.513,150.555 124.846,153.389 121.5,156.5C 119.833,155.167 118.167,153.833 116.5,152.5C 123.218,147.889 129.552,142.889 135.5,137.5C 138.974,134.198 142.641,131.032 146.5,128C 148.5,127.333 150.5,127.333 152.5,128C 153.056,128.383 153.389,128.883 153.5,129.5 Z"/></g>
<g><path style="opacity:1" fill="#09fde7" d="M 113.5,132.5 C 110.909,135.758 107.909,138.758 104.5,141.5C 103.236,139.73 101.736,138.063 100,136.5C 99.3333,134.167 99.3333,131.833 100,129.5C 105.414,125.57 109.914,126.57 113.5,132.5 Z"/></g>
<g><path style="opacity:1" fill="#04f9f8" d="M 134.5,107.5 C 134.5,110.833 134.5,114.167 134.5,117.5C 129.807,121.861 125.141,126.195 120.5,130.5C 120.5,126.167 120.5,121.833 120.5,117.5C 125.172,114.129 129.839,110.795 134.5,107.5 Z"/></g>
<g><path style="opacity:1" fill="#d4def2" d="M 88.5,52.5 C 86.0216,56.7829 83.5216,61.1163 81,65.5C 80.5722,71.6723 81.4056,77.6723 83.5,83.5C 112.5,82.1667 141.5,82.1667 170.5,83.5C 172.889,76.7218 173.722,69.7218 173,62.5C 171.361,59.0418 169.195,56.0418 166.5,53.5C 169.093,54.7536 171.427,56.4202 173.5,58.5C 174.454,69.1152 174.787,79.7819 174.5,90.5C 172.685,101.274 171.685,112.274 171.5,123.5C 159.833,123.5 148.167,123.5 136.5,123.5C 136.717,114.459 136.217,105.459 135,96.5C 134.617,95.944 134.117,95.6107 133.5,95.5C 128.842,91.2708 124.508,91.6041 120.5,96.5C 118.799,105.274 117.799,114.274 117.5,123.5C 105.833,123.5 94.1667,123.5 82.5,123.5C 82.3323,114.152 81.8323,104.819 81,95.5C 80.8019,93.6183 80.3019,91.9516 79.5,90.5C 79.3335,81.1607 79.5002,71.8274 80,62.5C 81.2545,57.7512 84.0878,54.4178 88.5,52.5 Z"/></g>
<g><path style="opacity:1" fill="#0afeb8" d="M 133.5,95.5 C 134.272,99.4517 134.605,103.452 134.5,107.5C 129.839,110.795 125.172,114.129 120.5,117.5C 120.5,110.5 120.5,103.5 120.5,96.5C 124.508,91.6041 128.842,91.2708 133.5,95.5 Z"/></g>
<g><path style="opacity:1" fill="#e0e7f6" d="M 166.5,53.5 C 169.195,56.0418 171.361,59.0418 173,62.5C 173.722,69.7218 172.889,76.7218 170.5,83.5C 141.5,82.1667 112.5,82.1667 83.5,83.5C 81.4056,77.6723 80.5722,71.6723 81,65.5C 83.5216,61.1163 86.0216,56.7829 88.5,52.5C 89.9311,51.9181 91.2644,51.0848 92.5,50C 115.5,49.3333 138.5,49.3333 161.5,50C 163.584,50.6972 165.251,51.8639 166.5,53.5 Z"/></g>
<g><path style="opacity:1" fill="#6179a9" d="M 171.5,196.5 C 168.319,202.268 163.319,205.268 156.5,205.5C 154.5,205.5 152.5,205.5 150.5,205.5C 143.5,205.5 136.5,205.5 129.5,205.5C 123.167,205.5 116.833,205.5 110.5,205.5C 105.156,205.666 99.8229,205.499 94.5,205C 92.1484,204.76 90.1484,203.927 88.5,202.5C 112.817,203.794 137.15,203.794 161.5,202.5C 165.202,201.071 168.535,199.071 171.5,196.5 Z"/></g>
<g><path style="opacity:1" fill="#013efe" d="M 81.5,197.5 C 83.1667,198.5 84.5,199.833 85.5,201.5C 74.8858,211.488 64.2192,221.488 53.5,231.5C 50.8646,230.189 48.5313,228.522 46.5,226.5C 49.6067,225.111 52.6067,223.445 55.5,221.5C 60.0188,217.815 64.0188,213.648 67.5,209C 72.0382,204.957 76.7048,201.124 81.5,197.5 Z"/></g>
<g><path style="opacity:1" fill="#ff0074" d="M 252.5,152.5 C 252.672,153.492 252.338,154.158 251.5,154.5C 238.516,165.663 225.516,176.829 212.5,188C 210.595,189.815 208.928,191.815 207.5,194C 202.804,198.021 197.804,201.688 192.5,205C 188.692,208.768 185.025,212.768 181.5,217C 177.334,219.917 173.001,222.584 168.5,225C 164.89,228.283 161.557,231.95 158.5,236C 154.86,237.311 152.194,239.645 150.5,243C 145.31,246.372 140.643,250.205 136.5,254.5C 134.167,254.5 131.833,254.5 129.5,254.5C 131.276,250.602 134.276,248.102 138.5,247C 141.107,242.556 144.774,239.39 149.5,237.5C 153.327,233.843 157.327,230.343 161.5,227C 164.4,224.603 166.733,221.77 168.5,218.5C 171.994,216.586 175.328,214.419 178.5,212C 183.295,207.04 188.295,202.207 193.5,197.5C 200.851,193.807 207.185,188.807 212.5,182.5C 221.637,176.853 229.637,170.019 236.5,162C 241.724,158.559 247.057,155.392 252.5,152.5 Z"/></g>
<g><path style="opacity:1" fill="#ff00c4" d="M 254.5,129.5 C 254.5,131.5 254.5,133.5 254.5,135.5C 253.118,136.801 251.452,137.634 249.5,138C 247.113,142.053 243.78,145.053 239.5,147C 238.929,148.205 238.262,149.372 237.5,150.5C 225.018,161.147 212.685,171.981 200.5,183C 187.746,190.384 176.746,199.718 167.5,211C 164.269,212.269 161.936,214.435 160.5,217.5C 158.664,218.919 156.664,220.086 154.5,221C 153.547,222.955 152.213,224.622 150.5,226C 139.653,235.68 128.653,245.18 117.5,254.5C 115.585,254.784 113.919,254.451 112.5,253.5C 115.022,251.639 117.522,249.639 120,247.5C 122.365,242.383 126.198,238.716 131.5,236.5C 138.111,228.479 146.111,221.979 155.5,217C 161.172,211.661 166.505,205.995 171.5,200C 175.393,196.041 179.727,192.541 184.5,189.5C 186.802,186.161 189.802,183.494 193.5,181.5C 199.753,174.796 206.753,168.962 214.5,164C 219.698,158.389 225.698,153.723 232.5,150C 239.186,142.487 246.519,135.654 254.5,129.5 Z"/></g>
<g><path style="opacity:1" fill="#0364ff" d="M 79.5,191.5 C 79.9707,193.579 80.6373,195.579 81.5,197.5C 76.7048,201.124 72.0382,204.957 67.5,209C 64.0188,213.648 60.0188,217.815 55.5,221.5C 52.6067,223.445 49.6067,225.111 46.5,226.5C 44.8333,225.5 43.5,224.167 42.5,222.5C 45.703,222.318 47.5363,220.652 48,217.5C 52.4813,215.349 55.9813,212.182 58.5,208C 60.8689,207.464 62.8689,206.297 64.5,204.5C 67.6894,200.812 71.0227,197.312 74.5,194C 76.4517,193.634 78.1184,192.801 79.5,191.5 Z"/></g>
<g><path style="opacity:1" fill="#3005fe" d="M 85.5,201.5 C 86.391,202.11 87.391,202.443 88.5,202.5C 90.1484,203.927 92.1484,204.76 94.5,205C 99.8229,205.499 105.156,205.666 110.5,205.5C 106.443,207.22 102.11,208.386 97.5,209C 104.5,209.333 111.5,209.667 118.5,210C 112.812,211.666 108.478,214.999 105.5,220C 96.5683,224.944 88.9016,231.277 82.5,239C 80.1384,240.511 77.8051,242.011 75.5,243.5C 67.422,240.73 60.0887,236.73 53.5,231.5C 64.2192,221.488 74.8858,211.488 85.5,201.5 Z"/></g>
<g><path style="opacity:1" fill="#ff008e" d="M 253.5,142.5 C 253.384,145.86 253.051,149.193 252.5,152.5C 247.057,155.392 241.724,158.559 236.5,162C 229.637,170.019 221.637,176.853 212.5,182.5C 207.185,188.807 200.851,193.807 193.5,197.5C 188.295,202.207 183.295,207.04 178.5,212C 175.328,214.419 171.994,216.586 168.5,218.5C 166.733,221.77 164.4,224.603 161.5,227C 157.327,230.343 153.327,233.843 149.5,237.5C 144.774,239.39 141.107,242.556 138.5,247C 134.276,248.102 131.276,250.602 129.5,254.5C 127.5,254.5 125.5,254.5 123.5,254.5C 127.675,249.504 132.675,245.338 138.5,242C 140.802,238.661 143.802,235.994 147.5,234C 148.833,232.333 150.167,230.667 151.5,229C 161.445,220.896 171.445,213.062 181.5,205.5C 185.669,199.834 190.336,194.667 195.5,190C 204.196,184.148 211.863,177.148 218.5,169C 221.412,167.76 224.079,166.094 226.5,164C 234.303,155.871 242.637,148.371 251.5,141.5C 252.183,141.863 252.85,142.196 253.5,142.5 Z"/></g>
<g><path style="opacity:1" fill="#fe00a7" d="M 254.5,135.5 C 254.802,138.059 254.468,140.393 253.5,142.5C 252.85,142.196 252.183,141.863 251.5,141.5C 242.637,148.371 234.303,155.871 226.5,164C 224.079,166.094 221.412,167.76 218.5,169C 211.863,177.148 204.196,184.148 195.5,190C 190.336,194.667 185.669,199.834 181.5,205.5C 171.445,213.062 161.445,220.896 151.5,229C 150.167,230.667 148.833,232.333 147.5,234C 143.802,235.994 140.802,238.661 138.5,242C 132.675,245.338 127.675,249.504 123.5,254.5C 121.5,254.5 119.5,254.5 117.5,254.5C 128.653,245.18 139.653,235.68 150.5,226C 152.213,224.622 153.547,222.955 154.5,221C 156.664,220.086 158.664,218.919 160.5,217.5C 161.936,214.435 164.269,212.269 167.5,211C 176.746,199.718 187.746,190.384 200.5,183C 212.685,171.981 225.018,161.147 237.5,150.5C 238.262,149.372 238.929,148.205 239.5,147C 243.78,145.053 247.113,142.053 249.5,138C 251.452,137.634 253.118,136.801 254.5,135.5 Z"/></g>
<g><path style="opacity:1" fill="#ff0041" d="M 250.5,159.5 C 250.233,161.965 249.566,164.299 248.5,166.5C 246.388,167.44 244.388,168.606 242.5,170C 240.477,173.686 237.477,176.352 233.5,178C 223.167,187.667 212.833,197.333 202.5,207C 199.415,207.7 197.415,209.533 196.5,212.5C 188.167,219.333 179.833,226.167 171.5,233C 169.167,236 166.833,239 164.5,242C 160.018,243.823 157.018,246.989 155.5,251.5C 150.939,252.811 146.272,253.478 141.5,253.5C 151.564,246.541 160.897,238.708 169.5,230C 176.584,224.403 183.917,219.07 191.5,214C 193.824,210.001 197.157,207.168 201.5,205.5C 205.652,199.849 210.318,194.683 215.5,190C 219.698,186.97 224.032,184.137 228.5,181.5C 229.262,180.372 229.929,179.205 230.5,178C 236.124,175.547 240.124,171.547 242.5,166C 245.828,164.521 248.494,162.355 250.5,159.5 Z"/></g>
<g><path style="opacity:1" fill="#8b03fd" d="M 110.5,205.5 C 116.833,205.5 123.167,205.5 129.5,205.5C 131.025,207.036 133.025,208.036 135.5,208.5C 133.225,212.406 129.891,214.906 125.5,216C 121.226,221.775 115.893,226.275 109.5,229.5C 107.167,232.333 104.833,235.167 102.5,238C 97.2262,240.437 93.5595,244.271 91.5,249.5C 85.715,248.464 80.3817,246.464 75.5,243.5C 77.8051,242.011 80.1384,240.511 82.5,239C 88.9016,231.277 96.5683,224.944 105.5,220C 108.478,214.999 112.812,211.666 118.5,210C 111.5,209.667 104.5,209.333 97.5,209C 102.11,208.386 106.443,207.22 110.5,205.5 Z"/></g>
<g><path style="opacity:1" fill="#fb00f4" d="M 150.5,205.5 C 152.5,205.5 154.5,205.5 156.5,205.5C 155.878,207.335 154.544,208.502 152.5,209C 153.5,209.333 154.5,209.667 155.5,210C 151.698,212.087 149.198,215.254 148,219.5C 142.469,224.399 136.636,228.899 130.5,233C 129.929,234.205 129.262,235.372 128.5,236.5C 121.823,241.847 115.49,247.514 109.5,253.5C 105.779,253.089 102.112,252.422 98.5,251.5C 100.767,249.222 103.433,247.389 106.5,246C 109.246,242.455 112.246,239.122 115.5,236C 117.833,234.5 120.167,233 122.5,231.5C 128.734,224.685 135.067,217.851 141.5,211C 145.492,210.676 148.492,208.843 150.5,205.5 Z"/></g>
<g><path style="opacity:1" fill="#d201fd" d="M 129.5,205.5 C 136.5,205.5 143.5,205.5 150.5,205.5C 148.492,208.843 145.492,210.676 141.5,211C 135.067,217.851 128.734,224.685 122.5,231.5C 120.167,233 117.833,234.5 115.5,236C 112.246,239.122 109.246,242.455 106.5,246C 103.433,247.389 100.767,249.222 98.5,251.5C 96.1055,250.985 93.7722,250.319 91.5,249.5C 93.5595,244.271 97.2262,240.437 102.5,238C 104.833,235.167 107.167,232.333 109.5,229.5C 115.893,226.275 121.226,221.775 125.5,216C 129.891,214.906 133.225,212.406 135.5,208.5C 133.025,208.036 131.025,207.036 129.5,205.5 Z"/></g>
</svg>
