<?xml version="1.0" encoding="UTF-8"?>
<!DOCTYPE svg PUBLIC "-//W3C//DTD SVG 1.1//EN" "http://www.w3.org/Graphics/SVG/1.1/DTD/svg11.dtd">
<svg xmlns="http://www.w3.org/2000/svg" version="1.1" width="192px" height="192px" style="shape-rendering:geometricPrecision; text-rendering:geometricPrecision; image-rendering:optimizeQuality; fill-rule:evenodd; clip-rule:evenodd" xmlns:xlink="http://www.w3.org/1999/xlink">
<g><path style="opacity:0.916" fill="#0961d3" d="M 49.5,95.5 C 49.0074,97.8056 48.6741,100.139 48.5,102.5C 43.2656,107.74 37.2656,108.74 30.5,105.5C 28.2534,106.374 25.9201,106.708 23.5,106.5C 23.5,105.167 23.5,103.833 23.5,102.5C 23.5,101.5 23.5,100.5 23.5,99.5C 23.5,98.8333 23.5,98.1667 23.5,97.5C 23.5,94.8333 23.5,92.1667 23.5,89.5C 23.5,84.8333 23.5,80.1667 23.5,75.5C 25.5,75.5 27.5,75.5 29.5,75.5C 29.3347,79.1817 29.5014,82.8484 30,86.5C 35.8757,82.3358 41.5424,82.6691 47,87.5C 48.7068,89.9088 49.5402,92.5755 49.5,95.5 Z M 34.5,87.5 C 42.1788,88.0177 45.0121,92.0177 43,99.5C 38.6667,103.5 34.3333,103.5 30,99.5C 28.3087,94.1311 29.8087,90.1311 34.5,87.5 Z"/></g>
<g><path style="opacity:0.878" fill="#e53137" d="M 23.5,89.5 C 23.5,92.1667 23.5,94.8333 23.5,97.5C 17.5,97.5 11.5,97.5 5.5,97.5C 5.8369,101.333 8.00357,103.333 12,103.5C 14.2644,103.146 16.0978,102.146 17.5,100.5C 19.396,99.5344 21.396,99.2011 23.5,99.5C 23.5,100.5 23.5,101.5 23.5,102.5C 18.0141,107.617 11.6808,108.784 4.5,106C 2.59809,104.27 0.93142,102.437 -0.5,100.5C -0.5,97.1667 -0.5,93.8333 -0.5,90.5C 5.12631,83.2365 12.1263,81.7365 20.5,86C 21.6364,87.1451 22.6364,88.3117 23.5,89.5 Z M 9.5,87.5 C 13.8658,86.8469 16.8658,88.5135 18.5,92.5C 14.2172,93.4922 9.88387,93.8256 5.5,93.5C 5.65745,90.6824 6.99078,88.6824 9.5,87.5 Z"/></g>
<g><path style="opacity:0.884" fill="#f5ae02" d="M 68.5,84.5 C 70.3582,86.8831 71.6916,89.5498 72.5,92.5C 72.5,97.1667 72.5,101.833 72.5,106.5C 70.2341,106.859 68.4007,106.192 67,104.5C 63.2756,107.24 59.109,108.074 54.5,107C 51.7713,106.434 49.7713,104.934 48.5,102.5C 48.6741,100.139 49.0074,97.8056 49.5,95.5C 54.8476,92.9947 60.5143,91.9947 66.5,92.5C 66.3487,89.1504 64.5154,87.4837 61,87.5C 58.3385,88.49 55.6718,89.49 53,90.5C 49.156,90.3837 48.9894,88.8837 52.5,86C 57.6219,83.2923 62.9552,82.7923 68.5,84.5 Z M 57.5,96.5 C 60.5,96.5 63.5,96.5 66.5,96.5C 66.5715,101.096 64.2382,103.429 59.5,103.5C 53.8548,102.252 53.1882,99.9187 57.5,96.5 Z"/></g>
<g><path style="opacity:0.897" fill="#88b900" d="M 68.5,84.5 C 70.8568,84.3367 73.1902,84.5034 75.5,85C 77.5179,90.2034 80.1846,95.0367 83.5,99.5C 86.3079,94.7152 88.9746,89.8819 91.5,85C 93.5,84.3333 95.5,84.3333 97.5,85C 92.466,94.6864 87.466,104.353 82.5,114C 80.4213,114.808 78.4213,114.641 76.5,113.5C 77.7783,111.278 78.7783,108.944 79.5,106.5C 77.666,101.499 75.3327,96.832 72.5,92.5C 71.6916,89.5498 70.3582,86.8831 68.5,84.5 Z"/></g>
<g><path style="opacity:0.728" fill="#eb2626" d="M 191.5,93.5 C 191.5,95.8333 191.5,98.1667 191.5,100.5C 189.39,102.772 187.056,104.939 184.5,107C 176.864,109.991 169.031,112.158 161,113.5C 150.667,113.5 140.333,113.5 130,113.5C 125.186,112.549 120.353,111.549 115.5,110.5C 114.914,110.709 114.414,111.043 114,111.5C 111.586,109.188 108.753,107.521 105.5,106.5C 101.69,103.62 101.024,100.286 103.5,96.5C 111.539,91.401 119.873,89.401 128.5,90.5C 143.351,86.0387 158.351,84.3721 173.5,85.5C 177.476,85.8663 181.31,87.1997 185,89.5C 185.333,89.1667 185.667,88.8333 186,88.5C 187.724,90.3955 189.557,92.0622 191.5,93.5 Z M 179.5,104.5 C 169.491,108.463 159.324,110.796 149,111.5C 141.287,111.318 133.454,110.818 125.5,110C 118.317,109.704 111.817,107.537 106,103.5C 103.479,99.4168 104.646,96.9168 109.5,96C 114.748,94.0662 120.082,93.5662 125.5,94.5C 135.654,92.1632 145.821,92.1632 156,94.5C 156.5,94.3333 157,94.1667 157.5,94C 154.513,91.9177 151.179,90.751 147.5,90.5C 159.34,87.576 171.674,88.076 184.5,92C 188.104,93.3339 189.271,95.8339 188,99.5C 185.522,101.82 182.689,103.486 179.5,104.5 Z M 120.5,97.5 C 121.598,98.6009 121.765,99.9343 121,101.5C 119.666,100.122 119.499,98.7887 120.5,97.5 Z M 149.5,99.5 C 151.646,99.6964 151.812,100.696 150,102.5C 149.517,101.552 149.351,100.552 149.5,99.5 Z M 153.5,99.5 C 154.776,100.386 154.776,101.386 153.5,102.5C 152.913,101.767 152.913,100.767 153.5,99.5 Z"/></g>
<g><path style="opacity:0.661" fill="#786e64" d="M 115.5,95.5 C 116.75,95.5774 117.583,96.244 118,97.5C 119.789,95.771 121.956,95.1043 124.5,95.5C 124.351,96.552 124.517,97.552 125,98.5C 126.458,97.2532 127.958,97.2532 129.5,98.5C 130.386,97.675 130.719,96.675 130.5,95.5C 133.036,96.3492 135.536,97.3492 138,98.5C 138.808,100.579 138.641,102.579 137.5,104.5C 136.702,102.922 136.202,101.256 136,99.5C 135.798,101.256 135.298,102.922 134.5,104.5C 131.015,103.909 127.348,103.909 123.5,104.5C 122.808,103.975 122.308,103.308 122,102.5C 120.314,105.022 118.981,104.689 118,101.5C 117.751,102.624 117.251,103.624 116.5,104.5C 115.516,101.572 115.183,98.5719 115.5,95.5 Z M 120.5,97.5 C 119.499,98.7887 119.666,100.122 121,101.5C 121.765,99.9343 121.598,98.6009 120.5,97.5 Z"/></g>
<g><path style="opacity:0.695" fill="#786f66" d="M 139.5,97.5 C 145.872,97.3922 152.205,97.5588 158.5,98C 159.833,100 159.833,102 158.5,104C 155.02,104.074 151.353,104.24 147.5,104.5C 147.167,97.8333 146.833,97.8333 146.5,104.5C 144.167,104.5 141.833,104.5 139.5,104.5C 139.5,102.167 139.5,99.8333 139.5,97.5 Z M 149.5,99.5 C 149.351,100.552 149.517,101.552 150,102.5C 151.812,100.696 151.646,99.6964 149.5,99.5 Z M 153.5,99.5 C 152.913,100.767 152.913,101.767 153.5,102.5C 154.776,101.386 154.776,100.386 153.5,99.5 Z"/></g>
<g><path style="opacity:0.792" fill="#776d64" d="M 160.5,95.5 C 162.045,96.2297 162.878,97.563 163,99.5C 163.674,98.4216 164.674,97.7549 166,97.5C 168.117,98.3774 170.284,98.5441 172.5,98C 173.423,100.041 173.756,102.208 173.5,104.5C 171.856,104.714 170.356,104.38 169,103.5C 168.072,106.035 166.238,107.035 163.5,106.5C 163.657,105.127 163.49,103.793 163,102.5C 162.692,103.308 162.192,103.975 161.5,104.5C 160.516,101.572 160.183,98.5719 160.5,95.5 Z"/></g>
<g><path style="opacity:0.72" fill="#6e645d" d="M 179.5,104.5 C 178.06,103.637 176.726,103.637 175.5,104.5C 174.526,102.257 174.192,99.924 174.5,97.5C 176.144,97.2865 177.644,97.6198 179,98.5C 179.495,100.473 179.662,102.473 179.5,104.5 Z"/></g>
</svg>
