<?xml version="1.0" encoding="UTF-8"?>
<!DOCTYPE svg PUBLIC "-//W3C//DTD SVG 1.1//EN" "http://www.w3.org/Graphics/SVG/1.1/DTD/svg11.dtd">
<svg xmlns="http://www.w3.org/2000/svg" version="1.1" width="256px" height="256px" style="shape-rendering:geometricPrecision; text-rendering:geometricPrecision; image-rendering:optimizeQuality; fill-rule:evenodd; clip-rule:evenodd" xmlns:xlink="http://www.w3.org/1999/xlink">
<g><path style="opacity:0.884" fill="#fefffe" d="M 36.5,25.5 C 97.1676,25.3333 157.834,25.5 218.5,26C 224,27.5 227.5,31 229,36.5C 229.667,97.1667 229.667,157.833 229,218.5C 227.5,224 224,227.5 218.5,229C 157.833,229.667 97.1667,229.667 36.5,229C 31,227.5 27.5,224 26,218.5C 25.3333,157.833 25.3333,97.1667 26,36.5C 27.6844,30.9845 31.1844,27.3178 36.5,25.5 Z"/></g>
<g><path style="opacity:1" fill="#bfff00" d="M 112.5,31.5 C 113.833,31.5 115.167,31.5 116.5,31.5C 104.438,42.5443 92.771,54.0443 81.5,66C 78.5,68.3333 75.5,70.6667 72.5,73C 59.6197,86.715 45.953,99.5483 31.5,111.5C 31.5,109.833 31.5,108.167 31.5,106.5C 38.3347,100.501 45.3347,94.668 52.5,89C 67.2815,72.2146 83.6149,57.2146 101.5,44C 104.317,39.0207 107.984,34.8541 112.5,31.5 Z"/></g>
<g><path style="opacity:1" fill="#ff1d00" d="M 52.5,31.5 C 50.9055,34.2599 48.5721,36.0932 45.5,37C 40.6548,42.0116 35.9881,47.1782 31.5,52.5C 28.1667,35.1667 35.1667,28.1667 52.5,31.5 Z"/></g>
<g><path style="opacity:1" fill="#ffd100" d="M 86.5,31.5 C 88.1667,31.5 89.8333,31.5 91.5,31.5C 76.0617,46.4376 60.7284,61.6043 45.5,77C 40.9596,81.0455 36.2929,84.8788 31.5,88.5C 31.5,86.1667 31.5,83.8333 31.5,81.5C 40.9604,73.8777 50.2937,66.0444 59.5,58C 68.0098,48.6568 77.0098,39.8235 86.5,31.5 Z"/></g>
<g><path style="opacity:1" fill="#01feb5" d="M 198.5,31.5 C 201.167,31.5 203.833,31.5 206.5,31.5C 194.904,43.268 182.571,54.1013 169.5,64C 153.165,80.9882 135.831,96.8216 117.5,111.5C 116.833,111.5 116.5,111.167 116.5,110.5C 119.328,108.203 122.161,105.869 125,103.5C 125.516,100.966 126.683,98.7998 128.5,97C 132.406,93.9107 136.406,91.0773 140.5,88.5C 141.711,86.5781 143.044,84.7448 144.5,83C 153.766,76.0752 162.766,68.7419 171.5,61C 178.333,52.8333 185.833,45.3333 194,38.5C 195.723,36.2833 197.223,33.95 198.5,31.5 Z"/></g>
<g><path style="opacity:1" fill="#00ffde" d="M 209.5,31.5 C 210.833,31.5 212.167,31.5 213.5,31.5C 204.334,40.1666 195.668,49.3333 187.5,59C 186.5,59.3333 185.5,59.6667 184.5,60C 169.574,74.1851 154.908,88.8518 140.5,104C 134.019,108.65 128.019,113.817 122.5,119.5C 121.655,118.329 120.989,116.995 120.5,115.5C 131.695,107.136 141.695,97.6357 150.5,87C 155.454,83.7147 160.12,80.048 164.5,76C 174.226,65.0638 184.726,54.8972 196,45.5C 196.333,44.5 196.667,43.5 197,42.5C 201.36,38.9681 205.527,35.3014 209.5,31.5 Z"/></g>
<g><path style="opacity:1" fill="#f4fe00" d="M 97.5,31.5 C 99.8333,31.5 102.167,31.5 104.5,31.5C 85.5056,51.0029 65.839,69.5029 45.5,87C 40.5978,92.0631 35.9311,97.2297 31.5,102.5C 31.5,99.5 31.5,96.5 31.5,93.5C 33.0843,92.6182 34.751,91.7848 36.5,91C 57.0865,71.2446 77.4198,51.4113 97.5,31.5 Z"/></g>
<g><path style="opacity:1" fill="#01fe8e" d="M 190.5,31.5 C 192.5,31.5 194.5,31.5 196.5,31.5C 194.571,36.8017 190.904,40.3017 185.5,42C 181.76,47.7367 176.76,52.07 170.5,55C 164.805,61.359 159.138,67.6923 153.5,74C 147.688,76.6159 143.022,80.6159 139.5,86C 137.833,87 136.167,88 134.5,89C 127.368,95.514 120.368,102.014 113.5,108.5C 112.508,108.672 111.842,108.338 111.5,107.5C 117.388,101.546 123.721,96.0455 130.5,91C 136.965,83.0364 144.298,75.8698 152.5,69.5C 153.924,65.588 156.258,62.4213 159.5,60C 166.345,55.4861 172.178,49.9861 177,43.5C 181.478,39.3654 185.978,35.3654 190.5,31.5 Z"/></g>
<g><path style="opacity:1" fill="#ff4900" d="M 52.5,31.5 C 55.8333,31.5 59.1667,31.5 62.5,31.5C 52.9073,41.7528 42.574,51.4194 31.5,60.5C 31.5,57.8333 31.5,55.1667 31.5,52.5C 35.9881,47.1782 40.6548,42.0116 45.5,37C 48.5721,36.0932 50.9055,34.2599 52.5,31.5 Z"/></g>
<g><path style="opacity:1" fill="#00fe76" d="M 184.5,31.5 C 186.5,31.5 188.5,31.5 190.5,31.5C 185.978,35.3654 181.478,39.3654 177,43.5C 172.178,49.9861 166.345,55.4861 159.5,60C 156.258,62.4213 153.924,65.588 152.5,69.5C 144.298,75.8698 136.965,83.0364 130.5,91C 123.721,96.0455 117.388,101.546 111.5,107.5C 109.901,107.768 108.568,107.434 107.5,106.5C 132.782,81.2193 158.449,56.2193 184.5,31.5 Z"/></g>
<g><path style="opacity:1" fill="#ffb900" d="M 79.5,31.5 C 81.8333,31.5 84.1667,31.5 86.5,31.5C 77.0098,39.8235 68.0098,48.6568 59.5,58C 50.2937,66.0444 40.9604,73.8777 31.5,81.5C 31.5,79.8333 31.5,78.1667 31.5,76.5C 38.5546,71.9534 44.8879,66.4534 50.5,60C 51.5,59.6667 52.5,59.3333 53.5,59C 62.0889,49.5829 70.7556,40.4162 79.5,31.5 Z"/></g>
<g><path style="opacity:1" fill="#01fea3" d="M 196.5,31.5 C 197.167,31.5 197.833,31.5 198.5,31.5C 197.223,33.95 195.723,36.2833 194,38.5C 185.833,45.3333 178.333,52.8333 171.5,61C 162.766,68.7419 153.766,76.0752 144.5,83C 143.044,84.7448 141.711,86.5781 140.5,88.5C 136.406,91.0773 132.406,93.9107 128.5,97C 126.683,98.7998 125.516,100.966 125,103.5C 122.161,105.869 119.328,108.203 116.5,110.5C 115.29,110.068 114.29,109.401 113.5,108.5C 120.368,102.014 127.368,95.514 134.5,89C 136.167,88 137.833,87 139.5,86C 143.022,80.6159 147.688,76.6159 153.5,74C 159.138,67.6923 164.805,61.359 170.5,55C 176.76,52.07 181.76,47.7367 185.5,42C 190.904,40.3017 194.571,36.8017 196.5,31.5 Z"/></g>
<g><path style="opacity:1" fill="#ff8900" d="M 66.5,31.5 C 68.5,31.5 70.5,31.5 72.5,31.5C 60.1584,46.1748 46.4917,59.5081 31.5,71.5C 31.5,69.5 31.5,67.5 31.5,65.5C 37.3957,59.4335 43.7291,53.9335 50.5,49C 51.8932,47.8289 52.7265,46.3289 53,44.5C 58.0026,40.6636 62.5026,36.3303 66.5,31.5 Z"/></g>
<g><path style="opacity:1" fill="#13fe10" d="M 147.5,31.5 C 155.833,31.5 164.167,31.5 172.5,31.5C 171.883,33.2292 170.883,34.7292 169.5,36C 154.619,46.5435 141.285,58.8769 129.5,73C 121.271,78.7303 114.271,85.5636 108.5,93.5C 103.447,96.8929 99.1135,100.893 95.5,105.5C 95.5,100.167 95.5,94.8333 95.5,89.5C 93.2341,89.1412 91.4007,89.8078 90,91.5C 89.5003,99.1594 89.3336,106.826 89.5,114.5C 86.4552,117.547 83.1219,120.213 79.5,122.5C 79.0533,114.586 75.0533,109.586 67.5,107.5C 71.4986,103.67 75.6653,100.003 80,96.5C 82.4718,92.0341 85.6384,88.2008 89.5,85C 110.055,68.2698 129.388,50.4364 147.5,31.5 Z"/></g>
<g><path style="opacity:1" fill="#ff6d00" d="M 62.5,31.5 C 63.8333,31.5 65.1667,31.5 66.5,31.5C 62.5026,36.3303 58.0026,40.6636 53,44.5C 52.7265,46.3289 51.8932,47.8289 50.5,49C 43.7291,53.9335 37.3957,59.4335 31.5,65.5C 31.5,63.8333 31.5,62.1667 31.5,60.5C 42.574,51.4194 52.9073,41.7528 62.5,31.5 Z"/></g>
<g><path style="opacity:1" fill="#80ff00" d="M 121.5,31.5 C 125.833,31.5 130.167,31.5 134.5,31.5C 123.05,43.1114 111.05,54.2781 98.5,65C 85.4547,79.0459 71.4547,92.0459 56.5,104C 48.9347,113.067 40.6013,121.233 31.5,128.5C 31.5,125.833 31.5,123.167 31.5,120.5C 35.7413,115.089 40.5746,110.089 46,105.5C 46.5,102.333 48.3333,100.5 51.5,100C 54.5092,97.323 57.1758,94.323 59.5,91C 73.9745,81.1906 86.4745,69.3573 97,55.5C 105.671,47.995 113.838,39.995 121.5,31.5 Z"/></g>
<g><path style="opacity:1" fill="#4fff00" d="M 134.5,31.5 C 138.833,31.5 143.167,31.5 147.5,31.5C 129.388,50.4364 110.055,68.2698 89.5,85C 85.6384,88.2008 82.4718,92.0341 80,96.5C 75.6653,100.003 71.4986,103.67 67.5,107.5C 56.3588,105.74 49.6921,110.406 47.5,121.5C 46.325,121.281 45.325,121.614 44.5,122.5C 40.8254,127.173 36.4921,131.173 31.5,134.5C 31.5,132.5 31.5,130.5 31.5,128.5C 40.6013,121.233 48.9347,113.067 56.5,104C 71.4547,92.0459 85.4547,79.0459 98.5,65C 111.05,54.2781 123.05,43.1114 134.5,31.5 Z"/></g>
<g><path style="opacity:1" fill="#ff9e00" d="M 72.5,31.5 C 74.8333,31.5 77.1667,31.5 79.5,31.5C 70.7556,40.4162 62.0889,49.5829 53.5,59C 52.5,59.3333 51.5,59.6667 50.5,60C 44.8879,66.4534 38.5546,71.9534 31.5,76.5C 31.5,74.8333 31.5,73.1667 31.5,71.5C 46.4917,59.5081 60.1584,46.1748 72.5,31.5 Z"/></g>
<g><path style="opacity:1" fill="#01fec5" d="M 206.5,31.5 C 207.5,31.5 208.5,31.5 209.5,31.5C 205.527,35.3014 201.36,38.9681 197,42.5C 196.667,43.5 196.333,44.5 196,45.5C 184.726,54.8972 174.226,65.0638 164.5,76C 160.12,80.048 155.454,83.7147 150.5,87C 141.695,97.6357 131.695,107.136 120.5,115.5C 119.5,114.167 118.5,112.833 117.5,111.5C 135.831,96.8216 153.165,80.9882 169.5,64C 182.571,54.1013 194.904,43.268 206.5,31.5 Z"/></g>
<g><path style="opacity:1" fill="#00fe61" d="M 176.5,31.5 C 179.167,31.5 181.833,31.5 184.5,31.5C 158.449,56.2193 132.782,81.2193 107.5,106.5C 105.5,106.833 103.5,107.167 101.5,107.5C 104.924,102.899 108.591,98.3986 112.5,94C 114.167,93 115.833,92 117.5,91C 131.147,76.345 145.647,62.845 161,50.5C 166.581,44.4713 171.748,38.138 176.5,31.5 Z"/></g>
<g><path style="opacity:1" fill="#ffec00" d="M 91.5,31.5 C 93.5,31.5 95.5,31.5 97.5,31.5C 77.4198,51.4113 57.0865,71.2446 36.5,91C 34.751,91.7848 33.0843,92.6182 31.5,93.5C 31.5,91.8333 31.5,90.1667 31.5,88.5C 36.2929,84.8788 40.9596,81.0455 45.5,77C 60.7284,61.6043 76.0617,46.4376 91.5,31.5 Z"/></g>
<g><path style="opacity:1" fill="#00fff1" d="M 213.5,31.5 C 214.959,31.4326 216.292,31.7659 217.5,32.5C 185.53,62.4689 153.863,92.8022 122.5,123.5C 122.5,122.167 122.5,120.833 122.5,119.5C 128.019,113.817 134.019,108.65 140.5,104C 154.908,88.8518 169.574,74.1851 184.5,60C 185.5,59.6667 186.5,59.3333 187.5,59C 195.668,49.3333 204.334,40.1666 213.5,31.5 Z"/></g>
<g><path style="opacity:1" fill="#01f4fe" d="M 217.5,32.5 C 219.404,32.7376 220.738,33.7376 221.5,35.5C 209.31,47.2789 196.643,58.6122 183.5,69.5C 171.149,81.5023 159.149,93.8356 147.5,106.5C 138.172,108.833 133.172,114.833 132.5,124.5C 128.878,126.787 125.545,129.453 122.5,132.5C 122.5,129.5 122.5,126.5 122.5,123.5C 153.863,92.8022 185.53,62.4689 217.5,32.5 Z"/></g>
<g><path style="opacity:1" fill="#d8ff00" d="M 104.5,31.5 C 107.167,31.5 109.833,31.5 112.5,31.5C 107.984,34.8541 104.317,39.0207 101.5,44C 83.6149,57.2146 67.2815,72.2146 52.5,89C 45.3347,94.668 38.3347,100.501 31.5,106.5C 31.5,105.167 31.5,103.833 31.5,102.5C 35.9311,97.2297 40.5978,92.0631 45.5,87C 65.839,69.5029 85.5056,51.0029 104.5,31.5 Z"/></g>
<g><path style="opacity:1" fill="#00fe44" d="M 172.5,31.5 C 173.833,31.5 175.167,31.5 176.5,31.5C 171.748,38.138 166.581,44.4713 161,50.5C 145.647,62.845 131.147,76.345 117.5,91C 115.833,92 114.167,93 112.5,94C 108.591,98.3986 104.924,102.899 101.5,107.5C 99.6137,108.361 97.7804,109.361 96,110.5C 95.5065,108.866 95.3398,107.199 95.5,105.5C 99.1135,100.893 103.447,96.8929 108.5,93.5C 114.271,85.5636 121.271,78.7303 129.5,73C 141.285,58.8769 154.619,46.5435 169.5,36C 170.883,34.7292 171.883,33.2292 172.5,31.5 Z"/></g>
<g><path style="opacity:1" fill="#01e0ff" d="M 221.5,35.5 C 222.404,36.209 222.737,37.209 222.5,38.5C 214.001,46.1642 205.334,53.6642 196.5,61C 188.601,68.8976 181.434,77.3976 175,86.5C 166.972,93.3655 159.139,100.365 151.5,107.5C 150.292,106.766 148.959,106.433 147.5,106.5C 159.149,93.8356 171.149,81.5023 183.5,69.5C 196.643,58.6122 209.31,47.2789 221.5,35.5 Z"/></g>
<g><path style="opacity:1" fill="#01a2ff" d="M 223.5,47.5 C 223.5,49.1667 223.5,50.8333 223.5,52.5C 216.664,57.1616 210.831,62.8283 206,69.5C 201.425,74.7462 196.258,79.2462 190.5,83C 184.801,88.3648 179.467,94.0315 174.5,100C 171.271,102.741 167.938,105.241 164.5,107.5C 163.508,107.672 162.842,107.338 162.5,106.5C 164.954,101.882 168.621,98.3823 173.5,96C 185.167,83.6667 196.833,71.3333 208.5,59C 213.68,55.3101 218.68,51.4767 223.5,47.5 Z"/></g>
<g><path style="opacity:1" fill="#01b9ff" d="M 223.5,39.5 C 223.5,42.1667 223.5,44.8333 223.5,47.5C 218.68,51.4767 213.68,55.3101 208.5,59C 196.833,71.3333 185.167,83.6667 173.5,96C 168.621,98.3823 164.954,101.882 162.5,106.5C 160.583,107.116 159.416,108.45 159,110.5C 157.348,109.601 155.848,108.601 154.5,107.5C 161.01,100.827 168.01,94.6599 175.5,89C 180.142,81.6916 186.142,75.6916 193.5,71C 196.135,69.0395 197.969,66.5395 199,63.5C 203.167,60 207.333,56.5 211.5,53C 215.165,48.1453 219.165,43.6453 223.5,39.5 Z"/></g>
<g><path style="opacity:1" fill="#270aff" d="M 223.5,74.5 C 223.5,86.5 223.5,98.5 223.5,110.5C 217.458,114.879 212.125,119.879 207.5,125.5C 207.829,119.463 207.496,113.463 206.5,107.5C 205.188,106.54 203.854,106.706 202.5,108C 201.681,117.089 201.181,126.256 201,135.5C 194.667,144.833 188.333,144.833 182,135.5C 181.5,128.508 181.334,121.508 181.5,114.5C 190.959,104.214 201.292,94.7143 212.5,86C 215.351,83.809 217.351,80.9756 218.5,77.5C 220.029,76.2371 221.695,75.2371 223.5,74.5 Z"/></g>
<g><path style="opacity:1" fill="#0174ff" d="M 223.5,56.5 C 223.5,59.1667 223.5,61.8333 223.5,64.5C 205.893,78.7683 188.559,93.435 171.5,108.5C 172.511,106.628 173.345,104.628 174,102.5C 186.364,92.3008 197.864,81.3008 208.5,69.5C 213.783,65.3791 218.783,61.0458 223.5,56.5 Z"/></g>
<g><path style="opacity:1" fill="#0145ff" d="M 223.5,69.5 C 223.5,71.1667 223.5,72.8333 223.5,74.5C 221.695,75.2371 220.029,76.2371 218.5,77.5C 217.351,80.9756 215.351,83.809 212.5,86C 201.292,94.7143 190.959,104.214 181.5,114.5C 181.702,112.05 181.369,109.717 180.5,107.5C 188.607,101.228 195.94,94.0611 202.5,86C 209.367,80.2963 216.367,74.7963 223.5,69.5 Z"/></g>
<g><path style="opacity:0.883" fill="#fefefe" d="M 95.5,105.5 C 95.3398,107.199 95.5065,108.866 96,110.5C 97.7804,109.361 99.6137,108.361 101.5,107.5C 103.5,107.167 105.5,106.833 107.5,106.5C 108.568,107.434 109.901,107.768 111.5,107.5C 111.842,108.338 112.508,108.672 113.5,108.5C 114.29,109.401 115.29,110.068 116.5,110.5C 116.5,111.167 116.833,111.5 117.5,111.5C 118.5,112.833 119.5,114.167 120.5,115.5C 120.989,116.995 121.655,118.329 122.5,119.5C 122.5,120.833 122.5,122.167 122.5,123.5C 122.5,126.5 122.5,129.5 122.5,132.5C 120.622,142.374 114.622,147.707 104.5,148.5C 104.5,147.833 104.167,147.5 103.5,147.5C 101.784,147.371 100.117,147.038 98.5,146.5C 97.828,145.733 96.9947,145.066 96,144.5C 95.5838,146.55 94.4171,147.884 92.5,148.5C 91.5,147.5 90.5,146.5 89.5,145.5C 89.5,144.167 89.5,142.833 89.5,141.5C 89.5,139.167 89.5,136.833 89.5,134.5C 89.5,131.167 89.5,127.833 89.5,124.5C 89.5,121.167 89.5,117.833 89.5,114.5C 89.3336,106.826 89.5003,99.1594 90,91.5C 91.4007,89.8078 93.2341,89.1412 95.5,89.5C 95.5,94.8333 95.5,100.167 95.5,105.5 Z"/></g>
<g><path style="opacity:1" fill="#008aff" d="M 223.5,52.5 C 223.5,53.8333 223.5,55.1667 223.5,56.5C 218.783,61.0458 213.783,65.3791 208.5,69.5C 197.864,81.3008 186.364,92.3008 174,102.5C 173.345,104.628 172.511,106.628 171.5,108.5C 169.685,109.63 167.685,110.296 165.5,110.5C 164.89,109.609 164.557,108.609 164.5,107.5C 167.938,105.241 171.271,102.741 174.5,100C 179.467,94.0315 184.801,88.3648 190.5,83C 196.258,79.2462 201.425,74.7462 206,69.5C 210.831,62.8283 216.664,57.1616 223.5,52.5 Z"/></g>
<g><path style="opacity:1" fill="#a8ff00" d="M 116.5,31.5 C 118.167,31.5 119.833,31.5 121.5,31.5C 113.838,39.995 105.671,47.995 97,55.5C 86.4745,69.3573 73.9745,81.1906 59.5,91C 57.1758,94.323 54.5092,97.323 51.5,100C 48.3333,100.5 46.5,102.333 46,105.5C 40.5746,110.089 35.7413,115.089 31.5,120.5C 31.5,117.5 31.5,114.5 31.5,111.5C 45.953,99.5483 59.6197,86.715 72.5,73C 75.5,70.6667 78.5,68.3333 81.5,66C 92.771,54.0443 104.438,42.5443 116.5,31.5 Z"/></g>
<g><path style="opacity:1" fill="#01ccff" d="M 222.5,38.5 C 223.167,38.5 223.5,38.8333 223.5,39.5C 219.165,43.6453 215.165,48.1453 211.5,53C 207.333,56.5 203.167,60 199,63.5C 197.969,66.5395 196.135,69.0395 193.5,71C 186.142,75.6916 180.142,81.6916 175.5,89C 168.01,94.6599 161.01,100.827 154.5,107.5C 153.5,107.5 152.5,107.5 151.5,107.5C 159.139,100.365 166.972,93.3655 175,86.5C 181.434,77.3976 188.601,68.8976 196.5,61C 205.334,53.6642 214.001,46.1642 222.5,38.5 Z"/></g>
<g><path style="opacity:1" fill="#0363ff" d="M 223.5,64.5 C 223.5,66.1667 223.5,67.8333 223.5,69.5C 216.367,74.7963 209.367,80.2963 202.5,86C 195.94,94.0611 188.607,101.228 180.5,107.5C 179.06,106.637 177.726,106.637 176.5,107.5C 175.534,109.396 175.201,111.396 175.5,113.5C 172.167,116.5 168.833,119.5 165.5,122.5C 165.5,118.5 165.5,114.5 165.5,110.5C 167.685,110.296 169.685,109.63 171.5,108.5C 188.559,93.435 205.893,78.7683 223.5,64.5 Z"/></g>
<g><path style="opacity:0.89" fill="#fefffe" d="M 67.5,107.5 C 75.0533,109.586 79.0533,114.586 79.5,122.5C 79.6633,124.857 79.4966,127.19 79,129.5C 77.9887,130.337 76.8221,130.67 75.5,130.5C 68.1667,130.5 60.8333,130.5 53.5,130.5C 53.2712,136.929 56.2712,140.596 62.5,141.5C 66.6411,142.099 69.9744,140.432 72.5,136.5C 73.6888,135.571 75.0222,135.238 76.5,135.5C 77.9291,138.463 77.4291,141.13 75,143.5C 71.8534,146.159 68.3534,147.826 64.5,148.5C 63.391,148.443 62.391,148.11 61.5,147.5C 58.9214,147.606 56.588,146.939 54.5,145.5C 51.3645,143.24 49.1979,140.24 48,136.5C 47.5007,131.511 47.3341,126.511 47.5,121.5C 49.6921,110.406 56.3588,105.74 67.5,107.5 Z"/></g>
<g><path style="opacity:0.884" fill="#fefeff" d="M 147.5,106.5 C 148.959,106.433 150.292,106.766 151.5,107.5C 152.5,107.5 153.5,107.5 154.5,107.5C 155.848,108.601 157.348,109.601 159,110.5C 159.416,108.45 160.583,107.116 162.5,106.5C 162.842,107.338 163.508,107.672 164.5,107.5C 164.557,108.609 164.89,109.609 165.5,110.5C 165.5,114.5 165.5,118.5 165.5,122.5C 165.5,124.5 165.5,126.5 165.5,128.5C 165.79,134.561 165.457,140.561 164.5,146.5C 161.873,148.958 160.04,148.292 159,144.5C 155.519,146.829 151.685,148.162 147.5,148.5C 147.158,147.662 146.492,147.328 145.5,147.5C 144.167,147.167 142.833,146.833 141.5,146.5C 140.71,145.599 139.71,144.932 138.5,144.5C 138.5,143.833 138.167,143.5 137.5,143.5C 137.5,142.833 137.167,142.5 136.5,142.5C 135.833,141.5 135.167,140.5 134.5,139.5C 134.5,138.833 134.167,138.5 133.5,138.5C 133.737,137.209 133.404,136.209 132.5,135.5C 132.5,134.167 132.5,132.833 132.5,131.5C 132.5,129.167 132.5,126.833 132.5,124.5C 133.172,114.833 138.172,108.833 147.5,106.5 Z"/></g>
<g><path style="opacity:0.891" fill="#fefeff" d="M 180.5,107.5 C 181.369,109.717 181.702,112.05 181.5,114.5C 181.334,121.508 181.5,128.508 182,135.5C 188.333,144.833 194.667,144.833 201,135.5C 201.181,126.256 201.681,117.089 202.5,108C 203.854,106.706 205.188,106.54 206.5,107.5C 207.496,113.463 207.829,119.463 207.5,125.5C 207.5,131.167 207.5,136.833 207.5,142.5C 209.431,151.558 206.764,158.725 199.5,164C 196.274,165.199 192.941,165.699 189.5,165.5C 188.041,165.567 186.708,165.234 185.5,164.5C 183.5,163.5 181.5,162.5 179.5,161.5C 179.5,159.833 179.5,158.167 179.5,156.5C 181.621,156.325 183.621,156.659 185.5,157.5C 197.289,161.564 202.455,157.231 201,144.5C 199.512,146.16 197.679,147.16 195.5,147.5C 190.433,148.553 185.766,147.553 181.5,144.5C 178.949,142.422 177.116,139.756 176,136.5C 175.501,131.177 175.334,125.844 175.5,120.5C 175.5,118.167 175.5,115.833 175.5,113.5C 175.201,111.396 175.534,109.396 176.5,107.5C 177.726,106.637 179.06,106.637 180.5,107.5 Z"/></g>
<g><path style="opacity:1" fill="#0043ff" d="M 175.5,113.5 C 175.5,115.833 175.5,118.167 175.5,120.5C 172.158,123.226 168.824,125.892 165.5,128.5C 165.5,126.5 165.5,124.5 165.5,122.5C 168.833,119.5 172.167,116.5 175.5,113.5 Z"/></g>
<g><path style="opacity:1" fill="#0bff9a" d="M 113.5,116.5 C 107.805,121.525 101.805,126.191 95.5,130.5C 94.8911,124.767 96.2245,119.6 99.5,115C 104.516,111.917 109.183,112.417 113.5,116.5 Z"/></g>
<g><path style="opacity:1" fill="#01c0ff" d="M 151.5,113.5 C 147.193,117.472 142.859,121.472 138.5,125.5C 138.547,116.442 142.88,112.442 151.5,113.5 Z"/></g>
<g><path style="opacity:1" fill="#1bff04" d="M 62.5,112.5 C 69.6534,113.32 73.32,117.32 73.5,124.5C 66.8333,124.5 60.1667,124.5 53.5,124.5C 53.5318,118.15 56.5318,114.15 62.5,112.5 Z"/></g>
<g><path style="opacity:1" fill="#06a3ff" d="M 151.5,113.5 C 154.198,113.845 156.198,115.178 157.5,117.5C 150.86,122.143 144.527,127.143 138.5,132.5C 138.5,130.167 138.5,127.833 138.5,125.5C 142.859,121.472 147.193,117.472 151.5,113.5 Z"/></g>
<g><path style="opacity:1" fill="#01fe5a" d="M 89.5,114.5 C 89.5,117.833 89.5,121.167 89.5,124.5C 84.8733,127.791 80.54,131.458 76.5,135.5C 75.0222,135.238 73.6888,135.571 72.5,136.5C 69.9744,140.432 66.6411,142.099 62.5,141.5C 67.2779,138.353 71.6112,134.687 75.5,130.5C 76.8221,130.67 77.9887,130.337 79,129.5C 79.4966,127.19 79.6633,124.857 79.5,122.5C 83.1219,120.213 86.4552,117.547 89.5,114.5 Z"/></g>
<g><path style="opacity:1" fill="#047cff" d="M 157.5,117.5 C 158.167,119.5 158.833,121.5 159.5,123.5C 153.86,128.805 148.193,134.139 142.5,139.5C 140.412,137.664 139.079,135.331 138.5,132.5C 144.527,127.143 150.86,122.143 157.5,117.5 Z"/></g>
<g><path style="opacity:1" fill="#05ffc7" d="M 113.5,116.5 C 115.585,118.684 116.585,121.351 116.5,124.5C 110.511,129.157 104.844,134.157 99.5,139.5C 97.1256,137.066 95.7922,134.066 95.5,130.5C 101.805,126.191 107.805,121.525 113.5,116.5 Z"/></g>
<g><path style="opacity:1" fill="#9500ff" d="M 223.5,110.5 C 223.5,116.167 223.5,121.833 223.5,127.5C 217.511,131.823 212.178,136.823 207.5,142.5C 207.5,136.833 207.5,131.167 207.5,125.5C 212.125,119.879 217.458,114.879 223.5,110.5 Z"/></g>
<g><path style="opacity:1" fill="#19ff13" d="M 47.5,121.5 C 47.3341,126.511 47.5007,131.511 48,136.5C 49.1979,140.24 51.3645,143.24 54.5,145.5C 54.631,146.239 54.4643,146.906 54,147.5C 45.6241,153.714 38.1241,160.714 31.5,168.5C 31.5,157.167 31.5,145.833 31.5,134.5C 36.4921,131.173 40.8254,127.173 44.5,122.5C 45.325,121.614 46.325,121.281 47.5,121.5 Z"/></g>
<g><path style="opacity:1" fill="#01fe35" d="M 75.5,130.5 C 71.6112,134.687 67.2779,138.353 62.5,141.5C 56.2712,140.596 53.2712,136.929 53.5,130.5C 60.8333,130.5 68.1667,130.5 75.5,130.5 Z"/></g>
<g><path style="opacity:1" fill="#04f8f8" d="M 116.5,124.5 C 117.412,130.324 116.078,135.49 112.5,140C 108.005,143.319 103.672,143.153 99.5,139.5C 104.844,134.157 110.511,129.157 116.5,124.5 Z"/></g>
<g><path style="opacity:1" fill="#0b4eff" d="M 159.5,123.5 C 160.223,129.572 158.889,135.072 155.5,140C 150.976,143.266 146.642,143.099 142.5,139.5C 148.193,134.139 153.86,128.805 159.5,123.5 Z"/></g>
<g><path style="opacity:1" fill="#00a3ff" d="M 132.5,135.5 C 133.404,136.209 133.737,137.209 133.5,138.5C 125.58,143.584 118.747,149.917 113,157.5C 100.478,167.689 88.9783,178.856 78.5,191C 65.2098,200.076 53.5431,210.909 43.5,223.5C 42.5,223.5 41.5,223.5 40.5,223.5C 44.013,219.16 48.1797,215.16 53,211.5C 53.6898,208.804 55.1898,206.637 57.5,205C 63.5404,199.291 69.8737,193.957 76.5,189C 89.8333,177 102.5,164.333 114.5,151C 120.987,146.342 126.987,141.176 132.5,135.5 Z"/></g>
<g><path style="opacity:1" fill="#01f8fe" d="M 98.5,146.5 C 100.117,147.038 101.784,147.371 103.5,147.5C 91.726,158.773 80.0593,170.273 68.5,182C 66.8333,183 65.1667,184 63.5,185C 58.7365,190.219 53.7365,195.219 48.5,200C 47.552,200.483 46.552,200.649 45.5,200.5C 45.6495,201.552 45.4828,202.552 45,203.5C 40.2655,207.399 36.0989,211.732 32.5,216.5C 31.5386,214.735 31.2053,212.735 31.5,210.5C 53.8069,189.194 76.1402,167.861 98.5,146.5 Z"/></g>
<g><path style="opacity:1" fill="#01fea3" d="M 89.5,134.5 C 89.5,136.833 89.5,139.167 89.5,141.5C 78.0486,150.117 67.7152,159.95 58.5,171C 49.5958,178.678 40.5958,186.178 31.5,193.5C 31.5,191.167 31.5,188.833 31.5,186.5C 44.1268,175.681 56.1268,164.181 67.5,152C 74.6816,145.986 82.015,140.153 89.5,134.5 Z"/></g>
<g><path style="opacity:1" fill="#b602ff" d="M 185.5,157.5 C 189.641,155 192.974,151.667 195.5,147.5C 197.679,147.16 199.512,146.16 201,144.5C 202.455,157.231 197.289,161.564 185.5,157.5 Z"/></g>
<g><path style="opacity:1" fill="#0095ff" d="M 133.5,138.5 C 134.167,138.5 134.5,138.833 134.5,139.5C 127.706,144.064 121.539,149.397 116,155.5C 115.667,156.5 115.333,157.5 115,158.5C 102.826,170.308 90.3258,181.808 77.5,193C 70.3675,201.466 62.5341,209.299 54,216.5C 53.5357,217.094 53.369,217.761 53.5,218.5C 52.0527,220.403 50.386,222.07 48.5,223.5C 46.8333,223.5 45.1667,223.5 43.5,223.5C 53.5431,210.909 65.2098,200.076 78.5,191C 88.9783,178.856 100.478,167.689 113,157.5C 118.747,149.917 125.58,143.584 133.5,138.5 Z"/></g>
<g><path style="opacity:1" fill="#00fe4e" d="M 54.5,145.5 C 56.588,146.939 58.9214,147.606 61.5,147.5C 51.3734,157.193 41.3734,166.86 31.5,176.5C 31.5,173.833 31.5,171.167 31.5,168.5C 38.1241,160.714 45.6241,153.714 54,147.5C 54.4643,146.906 54.631,146.239 54.5,145.5 Z"/></g>
<g><path style="opacity:1" fill="#03ff85" d="M 89.5,124.5 C 89.5,127.833 89.5,131.167 89.5,134.5C 82.015,140.153 74.6816,145.986 67.5,152C 56.1268,164.181 44.1268,175.681 31.5,186.5C 31.5,184.833 31.5,183.167 31.5,181.5C 39.0255,174.806 46.6922,168.306 54.5,162C 57.4526,156.714 61.4526,152.38 66.5,149C 65.9056,148.536 65.2389,148.369 64.5,148.5C 68.3534,147.826 71.8534,146.159 75,143.5C 77.4291,141.13 77.9291,138.463 76.5,135.5C 80.54,131.458 84.8733,127.791 89.5,124.5 Z"/></g>
<g><path style="opacity:1" fill="#006eff" d="M 137.5,143.5 C 138.167,143.5 138.5,143.833 138.5,144.5C 133.699,149.472 129.032,154.638 124.5,160C 119.555,162.945 115.222,166.612 111.5,171C 110.5,171.333 109.5,171.667 108.5,172C 90.5865,189.083 72.9198,206.249 55.5,223.5C 54.1667,223.5 52.8333,223.5 51.5,223.5C 58.3422,216.494 65.6755,209.994 73.5,204C 87.5,190 101.5,176 115.5,162C 123.024,155.969 130.357,149.802 137.5,143.5 Z"/></g>
<g><path style="opacity:1" fill="#01fe70" d="M 61.5,147.5 C 62.391,148.11 63.391,148.443 64.5,148.5C 65.2389,148.369 65.9056,148.536 66.5,149C 61.4526,152.38 57.4526,156.714 54.5,162C 46.6922,168.306 39.0255,174.806 31.5,181.5C 31.5,179.833 31.5,178.167 31.5,176.5C 41.3734,166.86 51.3734,157.193 61.5,147.5 Z"/></g>
<g><path style="opacity:1" fill="#01b6ff" d="M 132.5,131.5 C 132.5,132.833 132.5,134.167 132.5,135.5C 126.987,141.176 120.987,146.342 114.5,151C 102.5,164.333 89.8333,177 76.5,189C 69.8737,193.957 63.5404,199.291 57.5,205C 55.1898,206.637 53.6898,208.804 53,211.5C 48.1797,215.16 44.013,219.16 40.5,223.5C 38.597,223.204 36.9303,222.537 35.5,221.5C 39.625,218.547 43.625,215.381 47.5,212C 61.1667,198.333 74.8333,184.667 88.5,171C 103.705,158.287 118.372,145.121 132.5,131.5 Z"/></g>
<g><path style="opacity:1" fill="#007bff" d="M 136.5,142.5 C 137.167,142.5 137.5,142.833 137.5,143.5C 130.357,149.802 123.024,155.969 115.5,162C 101.5,176 87.5,190 73.5,204C 65.6755,209.994 58.3422,216.494 51.5,223.5C 50.5,223.5 49.5,223.5 48.5,223.5C 50.386,222.07 52.0527,220.403 53.5,218.5C 60.1283,213.042 66.6283,207.376 73,201.5C 77.7977,195.039 83.6311,189.539 90.5,185C 104.391,169.276 119.724,155.11 136.5,142.5 Z"/></g>
<g><path style="opacity:1" fill="#ff00cc" d="M 223.5,154.5 C 223.5,155.167 223.5,155.833 223.5,156.5C 220.124,159.611 216.624,162.611 213,165.5C 212.31,168.196 210.81,170.363 208.5,172C 193.992,182.92 181.159,195.42 170,209.5C 164.638,214.032 159.472,218.699 154.5,223.5C 152.167,223.5 149.833,223.5 147.5,223.5C 166.034,206.132 185.034,189.298 204.5,173C 205.893,171.829 206.727,170.329 207,168.5C 210.981,165.687 214.481,162.353 217.5,158.5C 219.264,156.722 221.264,155.389 223.5,154.5 Z"/></g>
<g><path style="opacity:1" fill="#00e2ff" d="M 103.5,147.5 C 104.167,147.5 104.5,147.833 104.5,148.5C 100.542,154.292 95.7089,159.292 90,163.5C 89.6667,164.5 89.3333,165.5 89,166.5C 83,171.833 77,177.167 71,182.5C 70.6905,183.766 70.1905,184.933 69.5,186C 57.0003,196.335 44.6669,206.835 32.5,217.5C 32.5,217.167 32.5,216.833 32.5,216.5C 36.0989,211.732 40.2655,207.399 45,203.5C 45.4828,202.552 45.6495,201.552 45.5,200.5C 46.552,200.649 47.552,200.483 48.5,200C 53.7365,195.219 58.7365,190.219 63.5,185C 65.1667,184 66.8333,183 68.5,182C 80.0593,170.273 91.726,158.773 103.5,147.5 Z"/></g>
<g><path style="opacity:1" fill="#002fff" d="M 145.5,147.5 C 146.492,147.328 147.158,147.662 147.5,148.5C 144.992,151.334 142.658,154.334 140.5,157.5C 132.851,163.981 125.351,170.648 118,177.5C 112.205,184.959 105.371,191.459 97.5,197C 89.3464,206.653 80.3464,215.487 70.5,223.5C 69.8333,223.5 69.1667,223.5 68.5,223.5C 77.9962,212.837 87.6629,202.337 97.5,192C 103.507,187.651 109.174,182.985 114.5,178C 116.167,175.667 117.833,173.333 119.5,171C 128.732,163.592 137.399,155.758 145.5,147.5 Z"/></g>
<g><path style="opacity:1" fill="#01ffde" d="M 89.5,145.5 C 90.5,146.5 91.5,147.5 92.5,148.5C 90.4137,152.092 87.747,155.259 84.5,158C 80.3555,161.012 76.1888,164.179 72,167.5C 69.1927,172.302 65.6927,176.469 61.5,180C 57.0685,182.596 53.0685,185.762 49.5,189.5C 44.8503,195.284 39.8503,200.784 34.5,206C 33.552,206.483 32.552,206.649 31.5,206.5C 31.5,204.5 31.5,202.5 31.5,200.5C 39.6719,194.161 47.0052,186.994 53.5,179C 61.6545,173.178 68.8212,166.345 75,158.5C 79.4206,153.602 84.254,149.268 89.5,145.5 Z"/></g>
<g><path style="opacity:1" fill="#00fff2" d="M 98.5,146.5 C 76.1402,167.861 53.8069,189.194 31.5,210.5C 31.5,209.167 31.5,207.833 31.5,206.5C 32.552,206.649 33.552,206.483 34.5,206C 39.8503,200.784 44.8503,195.284 49.5,189.5C 53.0685,185.762 57.0685,182.596 61.5,180C 65.6927,176.469 69.1927,172.302 72,167.5C 76.1888,164.179 80.3555,161.012 84.5,158C 87.747,155.259 90.4137,152.092 92.5,148.5C 94.4171,147.884 95.5838,146.55 96,144.5C 96.9947,145.066 97.828,145.733 98.5,146.5 Z"/></g>
<g><path style="opacity:1" fill="#015bff" d="M 138.5,144.5 C 139.71,144.932 140.71,145.599 141.5,146.5C 127.491,158.394 114.491,171.227 102.5,185C 101.167,185.333 99.8333,185.667 98.5,186C 86.0262,198.307 73.6929,210.807 61.5,223.5C 59.5,223.5 57.5,223.5 55.5,223.5C 72.9198,206.249 90.5865,189.083 108.5,172C 109.5,171.667 110.5,171.333 111.5,171C 115.222,166.612 119.555,162.945 124.5,160C 129.032,154.638 133.699,149.472 138.5,144.5 Z"/></g>
<g><path style="opacity:1" fill="#0045ff" d="M 141.5,146.5 C 142.833,146.833 144.167,147.167 145.5,147.5C 137.399,155.758 128.732,163.592 119.5,171C 117.833,173.333 116.167,175.667 114.5,178C 109.174,182.985 103.507,187.651 97.5,192C 87.6629,202.337 77.9962,212.837 68.5,223.5C 66.1667,223.5 63.8333,223.5 61.5,223.5C 73.6929,210.807 86.0262,198.307 98.5,186C 99.8333,185.667 101.167,185.333 102.5,185C 114.491,171.227 127.491,158.394 141.5,146.5 Z"/></g>
<g><path style="opacity:1" fill="#a800ff" d="M 179.5,161.5 C 181.5,162.5 183.5,163.5 185.5,164.5C 181.693,168.135 177.693,171.635 173.5,175C 171.513,176.319 170.346,178.152 170,180.5C 166.483,184.014 162.649,187.181 158.5,190C 147.858,201.469 137.192,212.635 126.5,223.5C 122.5,223.5 118.5,223.5 114.5,223.5C 126.99,212.177 139.323,200.677 151.5,189C 154.955,186.221 157.621,182.888 159.5,179C 165.426,175.079 170.759,170.412 175.5,165C 177.91,164.943 179.244,163.776 179.5,161.5 Z"/></g>
<g><path style="opacity:1" fill="#01fec2" d="M 89.5,141.5 C 89.5,142.833 89.5,144.167 89.5,145.5C 84.254,149.268 79.4206,153.602 75,158.5C 68.8212,166.345 61.6545,173.178 53.5,179C 47.0052,186.994 39.6719,194.161 31.5,200.5C 31.5,198.167 31.5,195.833 31.5,193.5C 40.5958,186.178 49.5958,178.678 58.5,171C 67.7152,159.95 78.0486,150.117 89.5,141.5 Z"/></g>
<g><path style="opacity:1" fill="#ff0071" d="M 223.5,173.5 C 223.5,175.5 223.5,177.5 223.5,179.5C 215.621,185.872 208.121,192.872 201,200.5C 200.293,202.081 199.46,203.581 198.5,205C 191.032,210.964 183.699,217.131 176.5,223.5C 174.167,223.5 171.833,223.5 169.5,223.5C 172.657,219.843 175.99,216.343 179.5,213C 186.833,207 194.167,201 201.5,195C 208.012,186.988 215.346,179.821 223.5,173.5 Z"/></g>
<g><path style="opacity:1" fill="#ff0087" d="M 223.5,169.5 C 223.5,170.833 223.5,172.167 223.5,173.5C 215.346,179.821 208.012,186.988 201.5,195C 194.167,201 186.833,207 179.5,213C 175.99,216.343 172.657,219.843 169.5,223.5C 168.167,223.5 166.833,223.5 165.5,223.5C 178.294,210.213 191.96,197.713 206.5,186C 208.041,182.45 210.374,179.45 213.5,177C 216.729,174.259 220.062,171.759 223.5,169.5 Z"/></g>
<g><path style="opacity:1" fill="#ed00fe" d="M 223.5,127.5 C 223.5,133.5 223.5,139.5 223.5,145.5C 205.707,161.921 188.04,178.588 170.5,195.5C 166.834,202.674 161.834,208.841 155.5,214C 151.649,217.35 147.649,220.517 143.5,223.5C 138.5,223.5 133.5,223.5 128.5,223.5C 138.473,214.365 148.639,205.365 159,196.5C 159.333,195.5 159.667,194.5 160,193.5C 165.079,189.754 169.413,185.421 173,180.5C 178.668,175.6 184.168,170.6 189.5,165.5C 192.941,165.699 196.274,165.199 199.5,164C 206.764,158.725 209.431,151.558 207.5,142.5C 212.178,136.823 217.511,131.823 223.5,127.5 Z"/></g>
<g><path style="opacity:1" fill="#02caff" d="M 132.5,124.5 C 132.5,126.833 132.5,129.167 132.5,131.5C 118.372,145.121 103.705,158.287 88.5,171C 74.8333,184.667 61.1667,198.333 47.5,212C 43.625,215.381 39.625,218.547 35.5,221.5C 33.7376,220.738 32.7376,219.404 32.5,217.5C 44.6669,206.835 57.0003,196.335 69.5,186C 70.1905,184.933 70.6905,183.766 71,182.5C 77,177.167 83,171.833 89,166.5C 89.3333,165.5 89.6667,164.5 90,163.5C 95.7089,159.292 100.542,154.292 104.5,148.5C 114.622,147.707 120.622,142.374 122.5,132.5C 125.545,129.453 128.878,126.787 132.5,124.5 Z"/></g>
<g><path style="opacity:1" fill="#7a00ff" d="M 181.5,144.5 C 185.766,147.553 190.433,148.553 195.5,147.5C 192.974,151.667 189.641,155 185.5,157.5C 183.621,156.659 181.621,156.325 179.5,156.5C 179.5,158.167 179.5,159.833 179.5,161.5C 179.244,163.776 177.91,164.943 175.5,165C 170.759,170.412 165.426,175.079 159.5,179C 157.621,182.888 154.955,186.221 151.5,189C 139.323,200.677 126.99,212.177 114.5,223.5C 111.5,223.5 108.5,223.5 105.5,223.5C 116.163,210.67 127.997,199.003 141,188.5C 145.574,183.6 149.74,178.434 153.5,173C 162.533,165.058 171.7,157.225 181,149.5C 181.494,147.866 181.66,146.199 181.5,144.5 Z"/></g>
<g><path style="opacity:1" fill="#ff00b8" d="M 223.5,156.5 C 223.5,158.5 223.5,160.5 223.5,162.5C 202.319,182.601 181.319,202.934 160.5,223.5C 158.5,223.5 156.5,223.5 154.5,223.5C 159.472,218.699 164.638,214.032 170,209.5C 181.159,195.42 193.992,182.92 208.5,172C 210.81,170.363 212.31,168.196 213,165.5C 216.624,162.611 220.124,159.611 223.5,156.5 Z"/></g>
<g><path style="opacity:1" fill="#ff009b" d="M 223.5,162.5 C 223.5,164.833 223.5,167.167 223.5,169.5C 220.062,171.759 216.729,174.259 213.5,177C 210.374,179.45 208.041,182.45 206.5,186C 191.96,197.713 178.294,210.213 165.5,223.5C 163.833,223.5 162.167,223.5 160.5,223.5C 181.319,202.934 202.319,182.601 223.5,162.5 Z"/></g>
<g><path style="opacity:1" fill="#ca00ff" d="M 185.5,164.5 C 186.708,165.234 188.041,165.567 189.5,165.5C 184.168,170.6 178.668,175.6 173,180.5C 169.413,185.421 165.079,189.754 160,193.5C 159.667,194.5 159.333,195.5 159,196.5C 148.639,205.365 138.473,214.365 128.5,223.5C 127.833,223.5 127.167,223.5 126.5,223.5C 137.192,212.635 147.858,201.469 158.5,190C 162.649,187.181 166.483,184.014 170,180.5C 170.346,178.152 171.513,176.319 173.5,175C 177.693,171.635 181.693,168.135 185.5,164.5 Z"/></g>
<g><path style="opacity:1" fill="#ff003b" d="M 223.5,184.5 C 223.5,186.5 223.5,188.5 223.5,190.5C 217.181,194.986 211.681,200.319 207,206.5C 200.637,212.033 194.471,217.699 188.5,223.5C 186.833,223.5 185.167,223.5 183.5,223.5C 196.198,209.802 209.531,196.802 223.5,184.5 Z"/></g>
<g><path style="opacity:1" fill="#ff00e5" d="M 223.5,145.5 C 223.5,148.5 223.5,151.5 223.5,154.5C 221.264,155.389 219.264,156.722 217.5,158.5C 214.481,162.353 210.981,165.687 207,168.5C 206.727,170.329 205.893,171.829 204.5,173C 185.034,189.298 166.034,206.132 147.5,223.5C 146.167,223.5 144.833,223.5 143.5,223.5C 147.649,220.517 151.649,217.35 155.5,214C 161.834,208.841 166.834,202.674 170.5,195.5C 188.04,178.588 205.707,161.921 223.5,145.5 Z"/></g>
<g><path style="opacity:1" fill="#0087ff" d="M 134.5,139.5 C 135.167,140.5 135.833,141.5 136.5,142.5C 119.724,155.11 104.391,169.276 90.5,185C 83.6311,189.539 77.7977,195.039 73,201.5C 66.6283,207.376 60.1283,213.042 53.5,218.5C 53.369,217.761 53.5357,217.094 54,216.5C 62.5341,209.299 70.3675,201.466 77.5,193C 90.3258,181.808 102.826,170.308 115,158.5C 115.333,157.5 115.667,156.5 116,155.5C 121.539,149.397 127.706,144.064 134.5,139.5 Z"/></g>
<g><path style="opacity:1" fill="#ff0053" d="M 223.5,179.5 C 223.5,181.167 223.5,182.833 223.5,184.5C 209.531,196.802 196.198,209.802 183.5,223.5C 181.167,223.5 178.833,223.5 176.5,223.5C 183.699,217.131 191.032,210.964 198.5,205C 199.46,203.581 200.293,202.081 201,200.5C 208.121,192.872 215.621,185.872 223.5,179.5 Z"/></g>
<g><path style="opacity:1" fill="#2e03ff" d="M 175.5,120.5 C 175.334,125.844 175.501,131.177 176,136.5C 177.116,139.756 178.949,142.422 181.5,144.5C 181.66,146.199 181.494,147.866 181,149.5C 171.7,157.225 162.533,165.058 153.5,173C 149.74,178.434 145.574,183.6 141,188.5C 127.997,199.003 116.163,210.67 105.5,223.5C 93.8333,223.5 82.1667,223.5 70.5,223.5C 80.3464,215.487 89.3464,206.653 97.5,197C 105.371,191.459 112.205,184.959 118,177.5C 125.351,170.648 132.851,163.981 140.5,157.5C 142.658,154.334 144.992,151.334 147.5,148.5C 151.685,148.162 155.519,146.829 159,144.5C 160.04,148.292 161.873,148.958 164.5,146.5C 165.457,140.561 165.79,134.561 165.5,128.5C 168.824,125.892 172.158,123.226 175.5,120.5 Z"/></g>
<g><path style="opacity:1" fill="#ff0013" d="M 223.5,190.5 C 223.666,199.173 223.5,207.84 223,216.5C 222.654,218.848 221.487,220.681 219.5,222C 209.246,223.426 198.912,223.926 188.5,223.5C 194.471,217.699 200.637,212.033 207,206.5C 211.681,200.319 217.181,194.986 223.5,190.5 Z"/></g>
</svg>
