<?xml version="1.0" encoding="UTF-8"?>
<!DOCTYPE svg PUBLIC "-//W3C//DTD SVG 1.1//EN" "http://www.w3.org/Graphics/SVG/1.1/DTD/svg11.dtd">
<svg xmlns="http://www.w3.org/2000/svg" version="1.1" width="380px" height="380px" style="shape-rendering:geometricPrecision; text-rendering:geometricPrecision; image-rendering:optimizeQuality; fill-rule:evenodd; clip-rule:evenodd" xmlns:xlink="http://www.w3.org/1999/xlink">
<g><path style="opacity:1" fill="#00fe2c" d="M 237.5,58.5 C 233.934,60.1929 231.434,62.8596 230,66.5C 229.501,61.5111 229.334,56.5111 229.5,51.5C 231.948,50.5269 234.615,50.1936 237.5,50.5C 237.5,53.1667 237.5,55.8333 237.5,58.5 Z"/></g>
<g><path style="opacity:1" fill="#f1fd00" d="M 149.5,63.5 C 146.878,65.7819 144.212,68.1152 141.5,70.5C 141.5,63.8333 141.5,57.1667 141.5,50.5C 144.167,50.5 146.833,50.5 149.5,50.5C 149.5,54.8333 149.5,59.1667 149.5,63.5 Z"/></g>
<g><path style="opacity:1" fill="#24fb58" d="M 229.5,51.5 C 229.334,56.5111 229.501,61.5111 230,66.5C 231.434,62.8596 233.934,60.1929 237.5,58.5C 237.5,62.5 237.5,66.5 237.5,70.5C 232.398,76.3576 227.065,82.0243 221.5,87.5C 221.5,82.8333 221.5,78.1667 221.5,73.5C 224.397,73.8747 227.063,73.3747 229.5,72C 228.173,65.068 228.173,58.2347 229.5,51.5 Z"/></g>
<g><path style="opacity:1" fill="#d4ff00" d="M 149.5,63.5 C 149.5,66.1667 149.5,68.8333 149.5,71.5C 146.006,73.5004 143.84,76.5004 143,80.5C 140.253,83.7537 137.086,86.4203 133.5,88.5C 133.334,83.8215 133.501,79.1548 134,74.5C 136.381,73.565 138.881,73.2317 141.5,73.5C 141.5,72.5 141.5,71.5 141.5,70.5C 144.212,68.1152 146.878,65.7819 149.5,63.5 Z"/></g>
<g><path style="opacity:1" fill="#b5fe04" d="M 149.5,71.5 C 150.99,73.2798 152.99,73.9465 155.5,73.5C 148.956,81.9362 141.956,89.9362 134.5,97.5C 133.523,94.7131 133.19,91.7131 133.5,88.5C 137.086,86.4203 140.253,83.7537 143,80.5C 143.84,76.5004 146.006,73.5004 149.5,71.5 Z"/></g>
<g><path style="opacity:1" fill="#90ff00" d="M 155.5,73.5 C 157.467,81.0968 158.134,89.0968 157.5,97.5C 149.833,97.5 142.167,97.5 134.5,97.5C 141.956,89.9362 148.956,81.9362 155.5,73.5 Z"/></g>
<g><path style="opacity:1" fill="#04feb1" d="M 245.5,82.5 C 245.5,87.5 245.5,92.5 245.5,97.5C 240.5,97.5 235.5,97.5 230.5,97.5C 234.5,91.5 239.5,86.5 245.5,82.5 Z"/></g>
<g><path style="opacity:1" fill="#02fe82" d="M 237.5,70.5 C 237.5,71.5 237.5,72.5 237.5,73.5C 240.167,73.5 242.833,73.5 245.5,73.5C 245.5,76.5 245.5,79.5 245.5,82.5C 239.5,86.5 234.5,91.5 230.5,97.5C 227.5,97.5 224.5,97.5 221.5,97.5C 221.5,94.1667 221.5,90.8333 221.5,87.5C 227.065,82.0243 232.398,76.3576 237.5,70.5 Z"/></g>
<g><path style="opacity:1" fill="#2bff03" d="M 185.5,50.5 C 188.167,50.5 190.833,50.5 193.5,50.5C 193.5,58.1667 193.5,65.8333 193.5,73.5C 196.167,73.5 198.833,73.5 201.5,73.5C 201.5,81.5 201.5,89.5 201.5,97.5C 193.5,97.5 185.5,97.5 177.5,97.5C 177.5,89.5 177.5,81.5 177.5,73.5C 180.167,73.5 182.833,73.5 185.5,73.5C 185.5,65.8333 185.5,58.1667 185.5,50.5 Z"/></g>
<g><path style="opacity:1" fill="#fe3201" d="M 131.5,102.5 C 130.928,104.255 130.094,105.922 129,107.5C 121.232,116.438 112.398,124.104 102.5,130.5C 103.633,112.367 113.3,103.034 131.5,102.5 Z"/></g>
<g><path style="opacity:1" fill="#e4fe00" d="M 169.5,102.5 C 173.167,102.5 176.833,102.5 180.5,102.5C 175.939,107.401 171.272,112.401 166.5,117.5C 162.833,117.5 159.167,117.5 155.5,117.5C 160.117,112.546 164.784,107.546 169.5,102.5 Z"/></g>
<g><path style="opacity:1" fill="#ffe600" d="M 160.5,102.5 C 163.5,102.5 166.5,102.5 169.5,102.5C 164.784,107.546 160.117,112.546 155.5,117.5C 152.615,117.194 149.948,117.527 147.5,118.5C 146.833,118.5 146.167,118.5 145.5,118.5C 150.5,113.167 155.5,107.833 160.5,102.5 Z"/></g>
<g><path style="opacity:1" fill="#4cf77a" d="M 249.5,102.5 C 250.833,102.5 252.167,102.5 253.5,102.5C 249.199,108.135 244.533,113.468 239.5,118.5C 239.167,118.5 238.833,118.5 238.5,118.5C 208.167,118.5 177.833,118.5 147.5,118.5C 149.948,117.527 152.615,117.194 155.5,117.5C 159.167,117.5 162.833,117.5 166.5,117.5C 169.833,117.5 173.167,117.5 176.5,117.5C 182.833,117.5 189.167,117.5 195.5,117.5C 205.167,117.5 214.833,117.5 224.5,117.5C 227.85,117.665 231.183,117.498 234.5,117C 239.395,111.936 244.395,107.103 249.5,102.5 Z"/></g>
<g><path style="opacity:1" fill="#22ff13" d="M 208.5,102.5 C 219.167,102.5 229.833,102.5 240.5,102.5C 235.167,107.5 229.833,112.5 224.5,117.5C 214.833,117.5 205.167,117.5 195.5,117.5C 199.437,112.224 203.771,107.224 208.5,102.5 Z"/></g>
<g><path style="opacity:1" fill="#0afeb3" d="M 253.5,102.5 C 256.673,103.042 259.673,104.042 262.5,105.5C 257.473,111.194 252.14,116.527 246.5,121.5C 246.167,121.5 245.833,121.5 245.5,121.5C 245.5,120.833 245.167,120.5 244.5,120.5C 243.833,120.5 243.167,120.5 242.5,120.5C 242.5,119.833 242.167,119.5 241.5,119.5C 241.167,119.5 240.833,119.5 240.5,119.5C 240.167,119.5 239.833,119.5 239.5,119.5C 239.5,119.167 239.5,118.833 239.5,118.5C 244.533,113.468 249.199,108.135 253.5,102.5 Z"/></g>
<g><path style="opacity:1" fill="#b3ff00" d="M 180.5,102.5 C 183.833,102.5 187.167,102.5 190.5,102.5C 186.172,107.827 181.506,112.827 176.5,117.5C 173.167,117.5 169.833,117.5 166.5,117.5C 171.272,112.401 175.939,107.401 180.5,102.5 Z"/></g>
<g><path style="opacity:1" fill="#ffbc00" d="M 154.5,102.5 C 156.5,102.5 158.5,102.5 160.5,102.5C 155.5,107.833 150.5,113.167 145.5,118.5C 143.833,118.5 142.167,118.5 140.5,118.5C 139.833,118.5 139.167,118.5 138.5,118.5C 143.806,113.194 149.14,107.86 154.5,102.5 Z"/></g>
<g><path style="opacity:1" fill="#01fe5e" d="M 240.5,102.5 C 243.5,102.5 246.5,102.5 249.5,102.5C 244.395,107.103 239.395,111.936 234.5,117C 231.183,117.498 227.85,117.665 224.5,117.5C 229.833,112.5 235.167,107.5 240.5,102.5 Z"/></g>
<g><path style="opacity:1" fill="#ff5b00" d="M 131.5,102.5 C 134.167,102.5 136.833,102.5 139.5,102.5C 131.8,110.532 124.133,118.532 116.5,126.5C 112.089,130.92 107.422,134.92 102.5,138.5C 102.5,135.833 102.5,133.167 102.5,130.5C 112.398,124.104 121.232,116.438 129,107.5C 130.094,105.922 130.928,104.255 131.5,102.5 Z"/></g>
<g><path style="opacity:1" fill="#ff7e00" d="M 139.5,102.5 C 142.5,102.5 145.5,102.5 148.5,102.5C 133.193,117.473 117.86,132.473 102.5,147.5C 102.5,144.5 102.5,141.5 102.5,138.5C 107.422,134.92 112.089,130.92 116.5,126.5C 124.133,118.532 131.8,110.532 139.5,102.5 Z"/></g>
<g><path style="opacity:1" fill="#6aff00" d="M 190.5,102.5 C 196.5,102.5 202.5,102.5 208.5,102.5C 203.771,107.224 199.437,112.224 195.5,117.5C 189.167,117.5 182.833,117.5 176.5,117.5C 181.506,112.827 186.172,107.827 190.5,102.5 Z"/></g>
<g><path style="opacity:1" fill="#06fef1" d="M 264.5,107.5 C 266.749,108.08 268.415,109.413 269.5,111.5C 264.219,116.444 258.886,121.444 253.5,126.5C 253.167,126.5 252.833,126.5 252.5,126.5C 252.5,125.833 252.167,125.5 251.5,125.5C 251.5,124.833 251.167,124.5 250.5,124.5C 249.833,124.5 249.5,124.167 249.5,123.5C 251.764,122.419 253.931,121.085 256,119.5C 258.664,115.343 261.497,111.343 264.5,107.5 Z"/></g>
<g><path style="opacity:1" fill="#02fed5" d="M 262.5,105.5 C 263.5,105.833 264.167,106.5 264.5,107.5C 261.497,111.343 258.664,115.343 256,119.5C 253.931,121.085 251.764,122.419 249.5,123.5C 248.833,123.167 248.167,122.833 247.5,122.5C 247.5,121.833 247.167,121.5 246.5,121.5C 252.14,116.527 257.473,111.194 262.5,105.5 Z"/></g>
<g><path style="opacity:1" fill="#07ff01" d="M 196.5,122.5 C 199.167,122.5 201.833,122.5 204.5,122.5C 192.925,134.909 180.925,146.743 168.5,158C 152.804,173.527 137.471,189.027 122.5,204.5C 122.5,201.833 122.5,199.167 122.5,196.5C 140.231,180.092 157.898,163.426 175.5,146.5C 182.499,138.568 189.499,130.568 196.5,122.5 Z"/></g>
<g><path style="opacity:1" fill="#03dcff" d="M 269.5,111.5 C 271.326,113.147 272.66,115.147 273.5,117.5C 268.437,122.568 263.104,127.235 257.5,131.5C 257.167,131.5 256.833,131.5 256.5,131.5C 256.167,130.833 255.833,130.167 255.5,129.5C 255.5,128.833 255.167,128.5 254.5,128.5C 254.5,127.833 254.167,127.5 253.5,127.5C 253.5,127.167 253.5,126.833 253.5,126.5C 258.886,121.444 264.219,116.444 269.5,111.5 Z"/></g>
<g><path style="opacity:1" fill="#f4fb00" d="M 145.5,122.5 C 150.167,122.5 154.833,122.5 159.5,122.5C 146.911,133.082 134.578,144.082 122.5,155.5C 122.5,151.833 122.5,148.167 122.5,144.5C 128.58,139.599 134.58,134.432 140.5,129C 142.539,127.074 144.206,124.907 145.5,122.5 Z"/></g>
<g><path style="opacity:1" fill="#faf9fa" d="M 240.5,119.5 C 240.833,119.5 241.167,119.5 241.5,119.5C 242.167,119.5 242.5,119.833 242.5,120.5C 243.167,120.5 243.833,120.5 244.5,120.5C 245.167,120.5 245.5,120.833 245.5,121.5C 245.833,121.5 246.167,121.5 246.5,121.5C 247.167,121.5 247.5,121.833 247.5,122.5C 248.167,122.833 248.833,123.167 249.5,123.5C 249.5,124.167 249.833,124.5 250.5,124.5C 251.167,124.5 251.5,124.833 251.5,125.5C 252.167,125.5 252.5,125.833 252.5,126.5C 252.5,127.167 252.833,127.5 253.5,127.5C 254.167,127.5 254.5,127.833 254.5,128.5C 255.167,128.5 255.5,128.833 255.5,129.5C 255.833,130.167 256.167,130.833 256.5,131.5C 256.5,132.167 256.833,132.5 257.5,132.5C 257.5,132.833 257.5,133.167 257.5,133.5C 257.5,134.167 257.833,134.5 258.5,134.5C 258.5,135.167 258.5,135.833 258.5,136.5C 258.5,137.167 258.833,137.5 259.5,137.5C 259.5,137.833 259.5,138.167 259.5,138.5C 259.328,139.492 259.662,140.158 260.5,140.5C 260.5,141.167 260.5,141.833 260.5,142.5C 260.5,164.833 260.5,187.167 260.5,209.5C 260.5,218.167 260.5,226.833 260.5,235.5C 260.5,236.5 260.5,237.5 260.5,238.5C 259.833,238.5 259.5,238.833 259.5,239.5C 259.5,240.167 259.5,240.833 259.5,241.5C 258.662,241.842 258.328,242.508 258.5,243.5C 258.5,243.833 258.5,244.167 258.5,244.5C 257.833,244.5 257.5,244.833 257.5,245.5C 257.5,245.833 257.5,246.167 257.5,246.5C 256.833,246.5 256.5,246.833 256.5,247.5C 256.167,248.167 255.833,248.833 255.5,249.5C 254.833,249.5 254.5,249.833 254.5,250.5C 253.833,250.5 253.5,250.833 253.5,251.5C 252.833,251.5 252.5,251.833 252.5,252.5C 251.833,252.5 251.5,252.833 251.5,253.5C 250.833,253.5 250.5,253.833 250.5,254.5C 249.833,254.5 249.5,254.833 249.5,255.5C 248.833,255.833 248.167,256.167 247.5,256.5C 246.833,256.5 246.5,256.833 246.5,257.5C 246.167,257.5 245.833,257.5 245.5,257.5C 244.833,257.5 244.5,257.833 244.5,258.5C 244.167,258.5 243.833,258.5 243.5,258.5C 242.508,258.328 241.842,258.662 241.5,259.5C 240.833,259.5 240.167,259.5 239.5,259.5C 239.167,259.5 238.833,259.5 238.5,259.5C 238.027,258.094 237.027,257.427 235.5,257.5C 235.5,257.167 235.5,256.833 235.5,256.5C 236.5,256.5 237.5,256.5 238.5,256.5C 239.167,256.5 239.5,256.167 239.5,255.5C 240.167,255.5 240.833,255.5 241.5,255.5C 242.167,255.5 242.5,255.167 242.5,254.5C 242.833,254.5 243.167,254.5 243.5,254.5C 244.167,254.5 244.5,254.167 244.5,253.5C 244.833,253.5 245.167,253.5 245.5,253.5C 246.167,253.5 246.5,253.167 246.5,252.5C 248.833,250.833 250.833,248.833 252.5,246.5C 253.167,246.5 253.5,246.167 253.5,245.5C 253.5,245.167 253.5,244.833 253.5,244.5C 254.167,244.5 254.5,244.167 254.5,243.5C 254.5,243.167 254.5,242.833 254.5,242.5C 255.167,242.5 255.5,242.167 255.5,241.5C 255.5,240.833 255.5,240.167 255.5,239.5C 256.167,239.5 256.5,239.167 256.5,238.5C 256.5,237.5 256.5,236.5 256.5,235.5C 257.833,204.833 257.833,174.167 256.5,143.5C 256.5,142.833 256.5,142.167 256.5,141.5C 256.5,141.167 256.5,140.833 256.5,140.5C 256.5,139.833 256.167,139.5 255.5,139.5C 255.5,138.833 255.5,138.167 255.5,137.5C 255.5,136.833 255.167,136.5 254.5,136.5C 254.5,136.167 254.5,135.833 254.5,135.5C 254.5,134.833 254.167,134.5 253.5,134.5C 253.5,134.167 253.5,133.833 253.5,133.5C 253.5,132.833 253.167,132.5 252.5,132.5C 252.167,131.5 251.5,130.833 250.5,130.5C 249.5,128.833 248.167,127.5 246.5,126.5C 246.5,125.833 246.167,125.5 245.5,125.5C 245.167,125.5 244.833,125.5 244.5,125.5C 244.5,124.833 244.167,124.5 243.5,124.5C 243.167,124.5 242.833,124.5 242.5,124.5C 242.5,123.833 242.167,123.5 241.5,123.5C 241.167,123.5 240.833,123.5 240.5,123.5C 240.5,123.167 240.5,122.833 240.5,122.5C 240.5,121.5 240.5,120.5 240.5,119.5 Z"/></g>
<g><path style="opacity:1" fill="#05b8fe" d="M 273.5,117.5 C 274.345,118.671 275.011,120.005 275.5,121.5C 273.784,123.208 271.784,124.542 269.5,125.5C 266.86,129.766 263.527,133.433 259.5,136.5C 259.167,136.5 258.833,136.5 258.5,136.5C 258.5,135.833 258.5,135.167 258.5,134.5C 257.833,134.5 257.5,134.167 257.5,133.5C 257.5,133.167 257.5,132.833 257.5,132.5C 257.5,132.167 257.5,131.833 257.5,131.5C 263.104,127.235 268.437,122.568 273.5,117.5 Z"/></g>
<g><path style="opacity:1" fill="#fe9d00" d="M 148.5,102.5 C 150.5,102.5 152.5,102.5 154.5,102.5C 149.14,107.86 143.806,113.194 138.5,118.5C 138.5,118.833 138.5,119.167 138.5,119.5C 137.833,119.5 137.167,119.5 136.5,119.5C 135.833,119.5 135.5,119.833 135.5,120.5C 135.167,120.5 134.833,120.5 134.5,120.5C 133.833,120.5 133.5,120.833 133.5,121.5C 133.167,121.5 132.833,121.5 132.5,121.5C 131.833,121.5 131.5,121.833 131.5,122.5C 130.5,123.167 129.5,123.833 128.5,124.5C 127.833,124.5 127.5,124.833 127.5,125.5C 126.833,125.5 126.5,125.833 126.5,126.5C 125.833,126.5 125.5,126.833 125.5,127.5C 124.833,127.5 124.5,127.833 124.5,128.5C 123.833,128.5 123.5,128.833 123.5,129.5C 123.5,129.833 123.5,130.167 123.5,130.5C 122.833,130.5 122.5,130.833 122.5,131.5C 121.833,131.5 121.5,131.833 121.5,132.5C 121.5,132.833 121.5,133.167 121.5,133.5C 120.833,133.5 120.5,133.833 120.5,134.5C 120.5,134.833 120.5,135.167 120.5,135.5C 120.167,135.5 119.833,135.5 119.5,135.5C 116.084,137.748 113.584,140.748 112,144.5C 109.037,147.448 105.87,150.115 102.5,152.5C 102.5,150.833 102.5,149.167 102.5,147.5C 117.86,132.473 133.193,117.473 148.5,102.5 Z"/></g>
<g><path style="opacity:1" fill="#ffd701" d="M 143.5,122.5 C 144.167,122.5 144.833,122.5 145.5,122.5C 144.206,124.907 142.539,127.074 140.5,129C 134.58,134.432 128.58,139.599 122.5,144.5C 122.5,144.167 122.5,143.833 122.5,143.5C 122.517,141.435 122.85,139.435 123.5,137.5C 124.167,137.5 124.5,137.167 124.5,136.5C 124.5,136.167 124.5,135.833 124.5,135.5C 125.167,135.5 125.5,135.167 125.5,134.5C 125.5,134.167 125.5,133.833 125.5,133.5C 126.167,133.5 126.5,133.167 126.5,132.5C 128.167,130.167 130.167,128.167 132.5,126.5C 133.167,126.5 133.5,126.167 133.5,125.5C 133.833,125.5 134.167,125.5 134.5,125.5C 135.167,125.5 135.5,125.167 135.5,124.5C 135.833,124.5 136.167,124.5 136.5,124.5C 137.167,124.5 137.5,124.167 137.5,123.5C 139.435,122.85 141.435,122.517 143.5,122.5 Z"/></g>
<g><path style="opacity:1" fill="#c4fe02" d="M 90.5,133.5 C 92.8333,133.5 95.1667,133.5 97.5,133.5C 97.5,134.5 97.5,135.5 97.5,136.5C 89.3633,141.841 83.3633,148.841 79.5,157.5C 77.5,157.5 75.5,157.5 73.5,157.5C 73.5,155.833 73.5,154.167 73.5,152.5C 79.3915,146.396 85.0582,140.063 90.5,133.5 Z"/></g>
<g><path style="opacity:1" fill="#01feb7" d="M 237.5,122.5 C 237.833,122.5 238.167,122.5 238.5,122.5C 238.842,123.338 239.508,123.672 240.5,123.5C 240.833,123.5 241.167,123.5 241.5,123.5C 242.167,123.5 242.5,123.833 242.5,124.5C 239.93,129.566 235.93,133.066 230.5,135C 216.542,148.762 202.542,162.262 188.5,175.5C 188.167,175.5 187.833,175.5 187.5,175.5C 187.167,175.5 186.833,175.5 186.5,175.5C 186.5,175.167 186.5,174.833 186.5,174.5C 193.689,166.477 201.355,158.977 209.5,152C 215.005,146.162 220.838,140.662 227,135.5C 230.737,131.273 234.237,126.94 237.5,122.5 Z"/></g>
<g><path style="opacity:1" fill="#fbfbfb" d="M 140.5,118.5 C 142.167,118.5 143.833,118.5 145.5,118.5C 146.167,118.5 146.833,118.5 147.5,118.5C 177.833,118.5 208.167,118.5 238.5,118.5C 238.5,119.167 238.833,119.5 239.5,119.5C 239.833,119.5 240.167,119.5 240.5,119.5C 240.5,120.5 240.5,121.5 240.5,122.5C 239.833,122.5 239.167,122.5 238.5,122.5C 238.167,122.5 237.833,122.5 237.5,122.5C 236.833,122.5 236.167,122.5 235.5,122.5C 204.833,121.167 174.167,121.167 143.5,122.5C 141.435,122.517 139.435,122.85 137.5,123.5C 136.833,123.5 136.5,123.833 136.5,124.5C 136.167,124.5 135.833,124.5 135.5,124.5C 134.833,124.5 134.5,124.833 134.5,125.5C 134.167,125.5 133.833,125.5 133.5,125.5C 132.833,125.5 132.5,125.833 132.5,126.5C 130.167,128.167 128.167,130.167 126.5,132.5C 125.833,132.5 125.5,132.833 125.5,133.5C 125.5,133.833 125.5,134.167 125.5,134.5C 124.833,134.5 124.5,134.833 124.5,135.5C 124.5,135.833 124.5,136.167 124.5,136.5C 123.833,136.5 123.5,136.833 123.5,137.5C 122.85,139.435 122.517,141.435 122.5,143.5C 121.167,174.167 121.167,204.833 122.5,235.5C 122.5,236.833 122.5,238.167 122.5,239.5C 122.5,240.167 122.833,240.5 123.5,240.5C 123.5,240.833 123.5,241.167 123.5,241.5C 123.5,242.167 123.833,242.5 124.5,242.5C 124.5,242.833 124.5,243.167 124.5,243.5C 124.833,244.167 125.167,244.833 125.5,245.5C 125.5,246.167 125.833,246.5 126.5,246.5C 127.167,247.833 128.167,248.833 129.5,249.5C 129.833,250.5 130.5,251.167 131.5,251.5C 131.5,252.167 131.833,252.5 132.5,252.5C 132.5,253.167 132.833,253.5 133.5,253.5C 133.833,253.5 134.167,253.5 134.5,253.5C 134.5,253.833 134.5,254.167 134.5,254.5C 133.596,255.209 133.263,256.209 133.5,257.5C 133.167,257.5 132.833,257.5 132.5,257.5C 132.5,256.833 132.167,256.5 131.5,256.5C 130.833,256.167 130.167,255.833 129.5,255.5C 129.5,254.833 129.167,254.5 128.5,254.5C 128.5,253.833 128.167,253.5 127.5,253.5C 127.5,252.833 127.167,252.5 126.5,252.5C 126.5,251.833 126.167,251.5 125.5,251.5C 125.5,250.833 125.167,250.5 124.5,250.5C 124.167,249.5 123.5,248.833 122.5,248.5C 122.5,248.167 122.5,247.833 122.5,247.5C 122.5,246.833 122.167,246.5 121.5,246.5C 121.5,246.167 121.5,245.833 121.5,245.5C 121.5,244.833 121.167,244.5 120.5,244.5C 120.5,243.833 120.5,243.167 120.5,242.5C 120.5,241.833 120.167,241.5 119.5,241.5C 118.962,239.883 118.629,238.216 118.5,236.5C 118.5,206.833 118.5,177.167 118.5,147.5C 118.5,146.5 118.5,145.5 118.5,144.5C 118.401,141.763 118.735,139.096 119.5,136.5C 120.167,136.5 120.5,136.167 120.5,135.5C 120.5,135.167 120.5,134.833 120.5,134.5C 121.167,134.5 121.5,134.167 121.5,133.5C 121.5,133.167 121.5,132.833 121.5,132.5C 122.167,132.5 122.5,132.167 122.5,131.5C 123.167,131.5 123.5,131.167 123.5,130.5C 123.5,130.167 123.5,129.833 123.5,129.5C 124.167,129.5 124.5,129.167 124.5,128.5C 125.167,128.5 125.5,128.167 125.5,127.5C 125.5,126.833 125.833,126.5 126.5,126.5C 127.167,126.5 127.5,126.167 127.5,125.5C 128.167,125.5 128.5,125.167 128.5,124.5C 129.5,123.833 130.5,123.167 131.5,122.5C 132.167,122.5 132.5,122.167 132.5,121.5C 132.833,121.5 133.167,121.5 133.5,121.5C 134.167,121.5 134.5,121.167 134.5,120.5C 134.833,120.5 135.167,120.5 135.5,120.5C 136.167,120.5 136.5,120.167 136.5,119.5C 137.167,119.5 137.833,119.5 138.5,119.5C 139.492,119.672 140.158,119.338 140.5,118.5 Z"/></g>
<g><path style="opacity:1" fill="#029cff" d="M 275.5,121.5 C 275.366,123.292 275.699,124.958 276.5,126.5C 270.833,131.5 265.5,136.833 260.5,142.5C 260.5,141.833 260.5,141.167 260.5,140.5C 260.672,139.508 260.338,138.842 259.5,138.5C 259.5,138.167 259.5,137.833 259.5,137.5C 259.5,137.167 259.5,136.833 259.5,136.5C 263.527,133.433 266.86,129.766 269.5,125.5C 271.784,124.542 273.784,123.208 275.5,121.5 Z"/></g>
<g><path style="opacity:1" fill="#40ff00" d="M 184.5,122.5 C 187.167,122.5 189.833,122.5 192.5,122.5C 180.501,135.665 167.668,147.998 154,159.5C 149.863,164.308 145.696,169.141 141.5,174C 135.3,179.703 128.967,185.203 122.5,190.5C 122.5,188.167 122.5,185.833 122.5,183.5C 139.208,169.297 155.208,154.131 170.5,138C 172.833,136.333 175.167,134.667 177.5,133C 179.26,128.938 181.594,125.438 184.5,122.5 Z"/></g>
<g><path style="opacity:1" fill="#e6fe01" d="M 90.5,133.5 C 85.0582,140.063 79.3915,146.396 73.5,152.5C 73.5858,151.504 73.2524,150.671 72.5,150C 68.8484,149.501 65.1817,149.335 61.5,149.5C 63.0908,146.569 65.0908,143.902 67.5,141.5C 69.5,141.5 71.5,141.5 73.5,141.5C 73.2317,138.881 73.565,136.381 74.5,134C 79.8229,133.501 85.1563,133.334 90.5,133.5 Z"/></g>
<g><path style="opacity:1" fill="#01fe3f" d="M 211.5,122.5 C 214.5,122.5 217.5,122.5 220.5,122.5C 211.405,133.931 201.072,143.931 189.5,152.5C 185.404,156.422 181.904,160.755 179,165.5C 174.525,169.304 170.025,173.137 165.5,177C 163.21,178.777 161.543,180.944 160.5,183.5C 160.167,183.5 159.833,183.5 159.5,183.5C 159.158,182.662 158.492,182.328 157.5,182.5C 156.167,182.5 154.833,182.5 153.5,182.5C 153.167,182.5 152.833,182.5 152.5,182.5C 158.292,178.373 162.625,173.039 165.5,166.5C 174.093,158.397 183.093,150.897 192.5,144C 198.356,136.317 204.689,129.15 211.5,122.5 Z"/></g>
<g><path style="opacity:1" fill="#ffe200" d="M 67.5,141.5 C 65.0908,143.902 63.0908,146.569 61.5,149.5C 57.8333,149.5 54.1667,149.5 50.5,149.5C 50.5,146.833 50.5,144.167 50.5,141.5C 56.1667,141.5 61.8333,141.5 67.5,141.5 Z"/></g>
<g><path style="opacity:1" fill="#cfff00" d="M 159.5,122.5 C 161.167,122.5 162.833,122.5 164.5,122.5C 150.1,134.527 136.1,147.194 122.5,160.5C 122.5,158.833 122.5,157.167 122.5,155.5C 134.578,144.082 146.911,133.082 159.5,122.5 Z"/></g>
<g><path style="opacity:1" fill="#00fe86" d="M 229.5,122.5 C 230.833,122.5 232.167,122.5 233.5,122.5C 229.858,127.193 225.858,131.693 221.5,136C 211.31,143.031 202.31,151.198 194.5,160.5C 190.413,165.051 186.079,169.384 181.5,173.5C 179.833,173.5 178.167,173.5 176.5,173.5C 183.626,166.9 190.626,160.067 197.5,153C 201.536,149.923 205.536,146.756 209.5,143.5C 213.274,136.12 218.94,130.787 226.5,127.5C 227.065,125.491 228.065,123.824 229.5,122.5 Z"/></g>
<g><path style="opacity:1" fill="#3e6ff9" d="M 276.5,126.5 C 276.5,129.5 276.5,132.5 276.5,135.5C 272.076,138.418 268.076,141.918 264.5,146C 263.552,146.483 262.552,146.649 261.5,146.5C 261.5,148.833 261.5,151.167 261.5,153.5C 261.5,155.5 261.5,157.5 261.5,159.5C 261.5,170.5 261.5,181.5 261.5,192.5C 261.5,195.833 261.5,199.167 261.5,202.5C 261.5,204.833 261.5,207.167 261.5,209.5C 261.167,209.5 260.833,209.5 260.5,209.5C 260.5,187.167 260.5,164.833 260.5,142.5C 265.5,136.833 270.833,131.5 276.5,126.5 Z"/></g>
<g><path style="opacity:1" fill="#0156ff" d="M 276.5,135.5 C 276.5,137.167 276.5,138.833 276.5,140.5C 271.687,145.07 266.687,149.403 261.5,153.5C 261.5,151.167 261.5,148.833 261.5,146.5C 262.552,146.649 263.552,146.483 264.5,146C 268.076,141.918 272.076,138.418 276.5,135.5 Z"/></g>
<g><path style="opacity:1" fill="#a5ff00" d="M 97.5,136.5 C 97.5,143.5 97.5,150.5 97.5,157.5C 91.5,157.5 85.5,157.5 79.5,157.5C 83.3633,148.841 89.3633,141.841 97.5,136.5 Z"/></g>
<g><path style="opacity:1" fill="#b6ff00" d="M 164.5,122.5 C 165.5,122.5 166.5,122.5 167.5,122.5C 161.962,126.872 157.295,132.038 153.5,138C 142.614,147.059 132.281,156.559 122.5,166.5C 122.5,164.5 122.5,162.5 122.5,160.5C 136.1,147.194 150.1,134.527 164.5,122.5 Z"/></g>
<g><path style="opacity:1" fill="#01fe9f" d="M 233.5,122.5 C 234.167,122.5 234.833,122.5 235.5,122.5C 236.167,122.5 236.833,122.5 237.5,122.5C 234.237,126.94 230.737,131.273 227,135.5C 220.838,140.662 215.005,146.162 209.5,152C 201.355,158.977 193.689,166.477 186.5,174.5C 186.167,174.5 185.833,174.5 185.5,174.5C 184.833,174.5 184.167,174.5 183.5,174.5C 183.158,173.662 182.492,173.328 181.5,173.5C 186.079,169.384 190.413,165.051 194.5,160.5C 202.31,151.198 211.31,143.031 221.5,136C 225.858,131.693 229.858,127.193 233.5,122.5 Z"/></g>
<g><path style="opacity:1" fill="#0135ff" d="M 276.5,140.5 C 276.5,142.833 276.5,145.167 276.5,147.5C 272.047,152.221 267.047,156.221 261.5,159.5C 261.5,157.5 261.5,155.5 261.5,153.5C 266.687,149.403 271.687,145.07 276.5,140.5 Z"/></g>
<g><path style="opacity:1" fill="#00fe1c" d="M 204.5,122.5 C 206.833,122.5 209.167,122.5 211.5,122.5C 204.689,129.15 198.356,136.317 192.5,144C 183.093,150.897 174.093,158.397 165.5,166.5C 162.625,173.039 158.292,178.373 152.5,182.5C 151.833,182.5 151.5,182.833 151.5,183.5C 151.167,183.5 150.833,183.5 150.5,183.5C 149.833,183.5 149.5,183.833 149.5,184.5C 148.833,184.5 148.5,184.833 148.5,185.5C 147.833,185.5 147.5,185.833 147.5,186.5C 146.89,187.391 146.557,188.391 146.5,189.5C 145.662,189.842 145.328,190.508 145.5,191.5C 138.435,198.865 130.768,205.531 122.5,211.5C 122.5,209.167 122.5,206.833 122.5,204.5C 137.471,189.027 152.804,173.527 168.5,158C 180.925,146.743 192.925,134.909 204.5,122.5 Z"/></g>
<g><path style="opacity:1" fill="#01bbfe" d="M 254.5,136.5 C 255.167,136.5 255.5,136.833 255.5,137.5C 255.5,138.167 255.5,138.833 255.5,139.5C 256.167,139.5 256.5,139.833 256.5,140.5C 256.5,140.833 256.5,141.167 256.5,141.5C 255.448,141.351 254.448,141.517 253.5,142C 240.193,152.321 228.193,163.987 217.5,177C 216.099,177.41 214.766,177.91 213.5,178.5C 213.167,178.5 212.833,178.5 212.5,178.5C 212.5,178.167 212.5,177.833 212.5,177.5C 212.5,177.167 212.5,176.833 212.5,176.5C 226.152,162.849 240.152,149.515 254.5,136.5 Z"/></g>
<g><path style="opacity:1" fill="#2a06fe" d="M 281.5,133.5 C 289.5,133.5 297.5,133.5 305.5,133.5C 305.5,136.167 305.5,138.833 305.5,141.5C 313.167,141.5 320.833,141.5 328.5,141.5C 328.5,144.167 328.5,146.833 328.5,149.5C 321.159,149.334 313.826,149.5 306.5,150C 305.565,152.381 305.232,154.881 305.5,157.5C 297.5,157.5 289.5,157.5 281.5,157.5C 281.5,149.5 281.5,141.5 281.5,133.5 Z"/></g>
<g><path style="opacity:1" fill="#05fecc" d="M 242.5,124.5 C 242.833,124.5 243.167,124.5 243.5,124.5C 244.167,124.5 244.5,124.833 244.5,125.5C 244.833,125.5 245.167,125.5 245.5,125.5C 245.5,125.833 245.5,126.167 245.5,126.5C 240.861,131.721 236.194,137.054 231.5,142.5C 219.547,151.452 208.88,161.786 199.5,173.5C 198.167,173.5 196.833,173.5 195.5,173.5C 194.549,174.919 194.216,176.585 194.5,178.5C 190.817,181.185 187.817,184.518 185.5,188.5C 185.167,188.5 184.833,188.5 184.5,188.5C 184.5,187.833 184.167,187.5 183.5,187.5C 182.5,187.5 181.5,187.5 180.5,187.5C 179.791,186.596 178.791,186.263 177.5,186.5C 176.833,186.5 176.167,186.5 175.5,186.5C 175.5,185.833 175.167,185.5 174.5,185.5C 174.5,184.833 174.167,184.5 173.5,184.5C 173.5,183.167 173.5,181.833 173.5,180.5C 174.167,180.5 174.5,180.167 174.5,179.5C 176.717,178.631 179.05,178.298 181.5,178.5C 181.842,179.338 182.508,179.672 183.5,179.5C 183.833,179.5 184.167,179.5 184.5,179.5C 184.5,180.167 184.833,180.5 185.5,180.5C 186.5,180.167 187.167,179.5 187.5,178.5C 188.167,178.5 188.5,178.167 188.5,177.5C 188.5,177.167 188.5,176.833 188.5,176.5C 188.5,176.167 188.5,175.833 188.5,175.5C 202.542,162.262 216.542,148.762 230.5,135C 235.93,133.066 239.93,129.566 242.5,124.5 Z"/></g>
<g><path style="opacity:1" fill="#22ff00" d="M 192.5,122.5 C 193.833,122.5 195.167,122.5 196.5,122.5C 189.499,130.568 182.499,138.568 175.5,146.5C 157.898,163.426 140.231,180.092 122.5,196.5C 122.5,194.5 122.5,192.5 122.5,190.5C 128.967,185.203 135.3,179.703 141.5,174C 145.696,169.141 149.863,164.308 154,159.5C 167.668,147.998 180.501,135.665 192.5,122.5 Z"/></g>
<g><path style="opacity:1" fill="#ffbb00" d="M 119.5,135.5 C 119.5,135.833 119.5,136.167 119.5,136.5C 118.735,139.096 118.401,141.763 118.5,144.5C 113.219,149.444 107.886,154.444 102.5,159.5C 102.5,157.167 102.5,154.833 102.5,152.5C 105.87,150.115 109.037,147.448 112,144.5C 113.584,140.748 116.084,137.748 119.5,135.5 Z"/></g>
<g><path style="opacity:1" fill="#6bff00" d="M 174.5,122.5 C 177.833,122.5 181.167,122.5 184.5,122.5C 181.594,125.438 179.26,128.938 177.5,133C 175.167,134.667 172.833,136.333 170.5,138C 155.208,154.131 139.208,169.297 122.5,183.5C 122.5,180.5 122.5,177.5 122.5,174.5C 130.234,167.433 137.567,160.099 144.5,152.5C 146.63,151.533 148.63,150.366 150.5,149C 158.416,139.926 166.416,131.092 174.5,122.5 Z"/></g>
<g><path style="opacity:1" fill="#ffdd00" d="M 118.5,144.5 C 118.5,145.5 118.5,146.5 118.5,147.5C 117.566,148.568 117.232,149.901 117.5,151.5C 112.154,155.518 107.154,159.851 102.5,164.5C 102.5,162.833 102.5,161.167 102.5,159.5C 107.886,154.444 113.219,149.444 118.5,144.5 Z"/></g>
<g><path style="opacity:1" fill="#94ff00" d="M 167.5,122.5 C 169.833,122.5 172.167,122.5 174.5,122.5C 166.416,131.092 158.416,139.926 150.5,149C 148.63,150.366 146.63,151.533 144.5,152.5C 137.567,160.099 130.234,167.433 122.5,174.5C 122.5,171.833 122.5,169.167 122.5,166.5C 132.281,156.559 142.614,147.059 153.5,138C 157.295,132.038 161.962,126.872 167.5,122.5 Z"/></g>
<g><path style="opacity:1" fill="#088afe" d="M 256.5,145.5 C 256.5,146.167 256.5,146.833 256.5,147.5C 249.007,156.338 241.007,165.005 232.5,173.5C 230.901,173.232 229.568,173.566 228.5,174.5C 227.833,174.5 227.5,174.833 227.5,175.5C 227.167,176.833 226.833,178.167 226.5,179.5C 226.167,179.5 225.833,179.5 225.5,179.5C 224.883,179.389 224.383,179.056 224,178.5C 221.612,181.384 219.112,184.051 216.5,186.5C 216.672,185.508 216.338,184.842 215.5,184.5C 215.5,184.167 215.5,183.833 215.5,183.5C 215.5,183.167 215.5,182.833 215.5,182.5C 217.757,180.077 220.424,178.243 223.5,177C 224.588,174.849 226.422,172.682 229,170.5C 229.483,169.552 229.649,168.552 229.5,167.5C 230.552,167.649 231.552,167.483 232.5,167C 240.397,159.597 248.397,152.431 256.5,145.5 Z"/></g>
<g><path style="opacity:1" fill="#03d0fe" d="M 252.5,133.5 C 252.833,133.5 253.167,133.5 253.5,133.5C 253.5,133.833 253.5,134.167 253.5,134.5C 254.167,134.5 254.5,134.833 254.5,135.5C 254.5,135.833 254.5,136.167 254.5,136.5C 240.152,149.515 226.152,162.849 212.5,176.5C 212.167,176.5 211.833,176.5 211.5,176.5C 211.5,175.833 211.5,175.167 211.5,174.5C 211.5,174.167 211.5,173.833 211.5,173.5C 225.194,160.026 238.861,146.693 252.5,133.5 Z"/></g>
<g><path style="opacity:1" fill="#06eafe" d="M 250.5,130.5 C 251.5,130.833 252.167,131.5 252.5,132.5C 252.5,132.833 252.5,133.167 252.5,133.5C 238.861,146.693 225.194,160.026 211.5,173.5C 211.167,173.5 210.833,173.5 210.5,173.5C 209.167,173.5 207.833,173.5 206.5,173.5C 206.5,176.167 206.5,178.833 206.5,181.5C 204.527,184.139 202.194,186.473 199.5,188.5C 199.5,185.167 199.5,181.833 199.5,178.5C 216.629,162.363 233.629,146.363 250.5,130.5 Z"/></g>
<g><path style="opacity:1" fill="#f8fa00" d="M 117.5,151.5 C 117.5,154.167 117.5,156.833 117.5,159.5C 111.887,163.48 106.887,168.146 102.5,173.5C 102.5,170.5 102.5,167.5 102.5,164.5C 107.154,159.851 112.154,155.518 117.5,151.5 Z"/></g>
<g><path style="opacity:1" fill="#02fef2" d="M 245.5,126.5 C 245.833,126.5 246.167,126.5 246.5,126.5C 248.167,127.5 249.5,128.833 250.5,130.5C 233.629,146.363 216.629,162.363 199.5,178.5C 199.5,176.833 199.5,175.167 199.5,173.5C 208.88,161.786 219.547,151.452 231.5,142.5C 236.194,137.054 240.861,131.721 245.5,126.5 Z"/></g>
<g><path style="opacity:1" fill="#0364ff" d="M 256.5,147.5 C 256.5,151.5 256.5,155.5 256.5,159.5C 251.07,162.097 246.737,165.93 243.5,171C 240.006,173.008 236.673,175.174 233.5,177.5C 233.768,175.901 233.434,174.568 232.5,173.5C 241.007,165.005 249.007,156.338 256.5,147.5 Z"/></g>
<g><path style="opacity:1" fill="#cfff00" d="M 117.5,159.5 C 117.5,163.167 117.5,166.833 117.5,170.5C 112.211,174.12 107.211,178.12 102.5,182.5C 102.5,179.5 102.5,176.5 102.5,173.5C 106.887,168.146 111.887,163.48 117.5,159.5 Z"/></g>
<g><path style="opacity:1" fill="#0ea3fe" d="M 256.5,141.5 C 256.5,142.167 256.5,142.833 256.5,143.5C 256.5,144.167 256.5,144.833 256.5,145.5C 248.397,152.431 240.397,159.597 232.5,167C 231.552,167.483 230.552,167.649 229.5,167.5C 229.649,168.552 229.483,169.552 229,170.5C 226.422,172.682 224.588,174.849 223.5,177C 220.424,178.243 217.757,180.077 215.5,182.5C 215.167,182.5 214.833,182.5 214.5,182.5C 214.5,182.167 214.5,181.833 214.5,181.5C 214.5,180.833 214.167,180.5 213.5,180.5C 213.5,180.167 213.5,179.833 213.5,179.5C 213.5,179.167 213.5,178.833 213.5,178.5C 214.766,177.91 216.099,177.41 217.5,177C 228.193,163.987 240.193,152.321 253.5,142C 254.448,141.517 255.448,141.351 256.5,141.5 Z"/></g>
<g><path style="opacity:1" fill="#3405ff" d="M 276.5,147.5 C 276.5,157.5 276.5,167.5 276.5,177.5C 272.781,180.054 269.948,183.387 268,187.5C 265.629,189.054 263.463,190.721 261.5,192.5C 261.5,181.5 261.5,170.5 261.5,159.5C 267.047,156.221 272.047,152.221 276.5,147.5 Z"/></g>
<g><path style="opacity:1" fill="#f6f6f6" d="M 175.5,173.5 C 175.833,173.5 176.167,173.5 176.5,173.5C 178.167,173.5 179.833,173.5 181.5,173.5C 181.842,174.338 182.508,174.672 183.5,174.5C 184.167,174.5 184.833,174.5 185.5,174.5C 185.5,175.167 185.833,175.5 186.5,175.5C 186.833,175.5 187.167,175.5 187.5,175.5C 187.5,176.167 187.833,176.5 188.5,176.5C 188.5,176.833 188.5,177.167 188.5,177.5C 187.833,177.5 187.5,177.833 187.5,178.5C 187.167,179.5 186.5,180.167 185.5,180.5C 184.833,180.5 184.5,180.167 184.5,179.5C 184.167,179.5 183.833,179.5 183.5,179.5C 183.158,178.662 182.492,178.328 181.5,178.5C 179.05,178.298 176.717,178.631 174.5,179.5C 173.833,179.5 173.5,179.833 173.5,180.5C 173.5,181.833 173.5,183.167 173.5,184.5C 174.167,184.5 174.5,184.833 174.5,185.5C 175.167,185.5 175.5,185.833 175.5,186.5C 176.167,186.5 176.833,186.5 177.5,186.5C 178.209,187.404 179.209,187.737 180.5,187.5C 181.5,187.5 182.5,187.5 183.5,187.5C 184.167,187.5 184.5,187.833 184.5,188.5C 184.833,188.5 185.167,188.5 185.5,188.5C 185.5,189.167 185.833,189.5 186.5,189.5C 187.167,189.5 187.5,189.833 187.5,190.5C 187.5,191.167 187.833,191.5 188.5,191.5C 188.5,191.833 188.5,192.167 188.5,192.5C 188.5,193.167 188.833,193.5 189.5,193.5C 189.5,193.833 189.5,194.167 189.5,194.5C 189.5,196.167 189.5,197.833 189.5,199.5C 188.833,199.5 188.5,199.833 188.5,200.5C 188.5,200.833 188.5,201.167 188.5,201.5C 187.833,201.5 187.5,201.833 187.5,202.5C 186.833,202.5 186.5,202.833 186.5,203.5C 185.609,204.11 184.609,204.443 183.5,204.5C 182.833,204.5 182.5,204.833 182.5,205.5C 180.833,205.5 179.167,205.5 177.5,205.5C 176.833,205.5 176.167,205.5 175.5,205.5C 175.158,204.662 174.492,204.328 173.5,204.5C 173.167,204.5 172.833,204.5 172.5,204.5C 172.167,204.5 171.833,204.5 171.5,204.5C 171.5,203.833 171.167,203.5 170.5,203.5C 170.167,203.5 169.833,203.5 169.5,203.5C 169.5,202.833 169.167,202.5 168.5,202.5C 168.5,201.833 168.167,201.5 167.5,201.5C 167.5,201.167 167.5,200.833 167.5,200.5C 167.833,199.5 168.5,198.833 169.5,198.5C 169.833,198.5 170.167,198.5 170.5,198.5C 170.833,198.5 171.167,198.5 171.5,198.5C 171.5,199.167 171.833,199.5 172.5,199.5C 172.833,199.5 173.167,199.5 173.5,199.5C 173.842,200.338 174.508,200.672 175.5,200.5C 177.5,200.5 179.5,200.5 181.5,200.5C 182.492,200.672 183.158,200.338 183.5,199.5C 184.167,199.5 184.5,199.167 184.5,198.5C 184.5,198.167 184.5,197.833 184.5,197.5C 185.833,196.5 185.833,195.5 184.5,194.5C 184.5,193.833 184.167,193.5 183.5,193.5C 183.5,192.833 183.167,192.5 182.5,192.5C 182.167,192.5 181.833,192.5 181.5,192.5C 181.158,191.662 180.492,191.328 179.5,191.5C 178.833,191.5 178.167,191.5 177.5,191.5C 176.833,191.5 176.167,191.5 175.5,191.5C 175.158,190.662 174.492,190.328 173.5,190.5C 173.167,190.5 172.833,190.5 172.5,190.5C 172.5,189.833 172.167,189.5 171.5,189.5C 171.5,188.833 171.167,188.5 170.5,188.5C 170.167,187.833 169.833,187.167 169.5,186.5C 169.5,185.833 169.167,185.5 168.5,185.5C 168.5,183.5 168.5,181.5 168.5,179.5C 169.167,179.5 169.5,179.167 169.5,178.5C 169.833,177.833 170.167,177.167 170.5,176.5C 171.167,176.5 171.5,176.167 171.5,175.5C 172.167,175.5 172.5,175.167 172.5,174.5C 173.167,174.5 173.833,174.5 174.5,174.5C 175.167,174.5 175.5,174.167 175.5,173.5 Z"/></g>
<g><path style="opacity:1" fill="#0143ff" d="M 256.5,159.5 C 256.5,160.833 256.5,162.167 256.5,163.5C 248.768,170.238 241.101,177.238 233.5,184.5C 233.5,182.167 233.5,179.833 233.5,177.5C 236.673,175.174 240.006,173.008 243.5,171C 246.737,165.93 251.07,162.097 256.5,159.5 Z"/></g>
<g><path style="opacity:1" fill="#7700ff" d="M 302.5,177.5 C 296.21,185.792 289.543,193.792 282.5,201.5C 281.508,193.684 281.174,185.684 281.5,177.5C 288.5,177.5 295.5,177.5 302.5,177.5 Z"/></g>
<g><path style="opacity:1" fill="#05fe6b" d="M 220.5,122.5 C 223.5,122.5 226.5,122.5 229.5,122.5C 228.065,123.824 227.065,125.491 226.5,127.5C 218.94,130.787 213.274,136.12 209.5,143.5C 205.536,146.756 201.536,149.923 197.5,153C 190.626,160.067 183.626,166.9 176.5,173.5C 176.167,173.5 175.833,173.5 175.5,173.5C 174.833,173.5 174.5,173.833 174.5,174.5C 173.833,174.5 173.167,174.5 172.5,174.5C 171.833,174.5 171.5,174.833 171.5,175.5C 170.833,175.5 170.5,175.833 170.5,176.5C 170.167,177.167 169.833,177.833 169.5,178.5C 168.833,178.5 168.5,178.833 168.5,179.5C 168.5,181.5 168.5,183.5 168.5,185.5C 168.5,185.833 168.5,186.167 168.5,186.5C 167.486,187.674 166.153,188.34 164.5,188.5C 164.167,188.5 163.833,188.5 163.5,188.5C 163.5,188.167 163.5,187.833 163.5,187.5C 163.5,186.833 163.167,186.5 162.5,186.5C 162.167,185.5 161.5,184.833 160.5,184.5C 160.5,184.167 160.5,183.833 160.5,183.5C 161.543,180.944 163.21,178.777 165.5,177C 170.025,173.137 174.525,169.304 179,165.5C 181.904,160.755 185.404,156.422 189.5,152.5C 201.072,143.931 211.405,133.931 220.5,122.5 Z"/></g>
<g><path style="opacity:1" fill="#9a00ff" d="M 302.5,177.5 C 303.5,177.5 304.5,177.5 305.5,177.5C 305.5,180.167 305.5,182.833 305.5,185.5C 305.649,186.552 305.483,187.552 305,188.5C 300.245,192.102 296.411,196.435 293.5,201.5C 289.833,201.5 286.167,201.5 282.5,201.5C 289.543,193.792 296.21,185.792 302.5,177.5 Z"/></g>
<g><path style="opacity:1" fill="#0bf7f6" d="M 194.5,178.5 C 194.5,183.167 194.5,187.833 194.5,192.5C 192.486,192.392 190.82,193.058 189.5,194.5C 189.5,194.167 189.5,193.833 189.5,193.5C 188.833,193.5 188.5,193.167 188.5,192.5C 188.5,192.167 188.5,191.833 188.5,191.5C 187.833,191.5 187.5,191.167 187.5,190.5C 187.5,189.833 187.167,189.5 186.5,189.5C 185.833,189.5 185.5,189.167 185.5,188.5C 187.817,184.518 190.817,181.185 194.5,178.5 Z"/></g>
<g><path style="opacity:1" fill="#f5f5f5" d="M 153.5,182.5 C 154.833,182.5 156.167,182.5 157.5,182.5C 157.842,183.338 158.508,183.672 159.5,183.5C 159.5,184.167 159.833,184.5 160.5,184.5C 161.5,184.833 162.167,185.5 162.5,186.5C 163.167,186.5 163.5,186.833 163.5,187.5C 163.5,187.833 163.5,188.167 163.5,188.5C 163.328,189.492 163.662,190.158 164.5,190.5C 164.5,192.167 164.5,193.833 164.5,195.5C 162.833,195.5 161.167,195.5 159.5,195.5C 159.167,195.5 158.833,195.5 158.5,195.5C 155.833,195.5 153.167,195.5 150.5,195.5C 150.433,196.959 150.766,198.292 151.5,199.5C 151.5,200.167 151.833,200.5 152.5,200.5C 152.833,200.5 153.167,200.5 153.5,200.5C 153.842,201.338 154.508,201.672 155.5,201.5C 155.833,201.5 156.167,201.5 156.5,201.5C 157.167,201.5 157.5,201.167 157.5,200.5C 158.609,200.443 159.609,200.11 160.5,199.5C 161.167,199.833 161.833,200.167 162.5,200.5C 162.5,201.167 162.833,201.5 163.5,201.5C 163.167,202.5 162.5,203.167 161.5,203.5C 160.833,203.5 160.5,203.833 160.5,204.5C 158.283,205.369 155.95,205.702 153.5,205.5C 153.167,205.5 152.833,205.5 152.5,205.5C 152.5,204.833 152.167,204.5 151.5,204.5C 151.167,204.5 150.833,204.5 150.5,204.5C 150.5,203.833 150.167,203.5 149.5,203.5C 149.167,203.5 148.833,203.5 148.5,203.5C 148.5,203.167 148.5,202.833 148.5,202.5C 148.5,201.833 148.167,201.5 147.5,201.5C 147.5,201.167 147.5,200.833 147.5,200.5C 147.5,199.833 147.167,199.5 146.5,199.5C 146.5,198.833 146.5,198.167 146.5,197.5C 146.768,195.901 146.434,194.568 145.5,193.5C 145.5,193.167 145.5,192.833 145.5,192.5C 146.404,191.791 146.737,190.791 146.5,189.5C 146.557,188.391 146.89,187.391 147.5,186.5C 148.167,186.5 148.5,186.167 148.5,185.5C 148.5,184.833 148.833,184.5 149.5,184.5C 150.167,184.5 150.5,184.167 150.5,183.5C 150.833,183.5 151.167,183.5 151.5,183.5C 152.492,183.672 153.158,183.338 153.5,182.5 Z"/></g>
<g><path style="opacity:1" fill="#27bbfb" d="M 206.5,181.5 C 206.5,184.833 206.5,188.167 206.5,191.5C 205.778,191.082 205.278,190.416 205,189.5C 203.383,191.763 201.55,193.763 199.5,195.5C 199.5,193.167 199.5,190.833 199.5,188.5C 202.194,186.473 204.527,184.139 206.5,181.5 Z"/></g>
<g><path style="opacity:1" fill="#83ff00" d="M 82.5,177.5 C 78.1255,183.2 73.4588,188.533 68.5,193.5C 62.5,193.5 56.5,193.5 50.5,193.5C 50.5,190.833 50.5,188.167 50.5,185.5C 58.1667,185.5 65.8333,185.5 73.5,185.5C 73.5,182.833 73.5,180.167 73.5,177.5C 76.5,177.5 79.5,177.5 82.5,177.5 Z"/></g>
<g><path style="opacity:1" fill="#36ff00" d="M 82.5,177.5 C 87.5,177.5 92.5,177.5 97.5,177.5C 97.5,185.5 97.5,193.5 97.5,201.5C 89.5,201.5 81.5,201.5 73.5,201.5C 73.5,198.833 73.5,196.167 73.5,193.5C 71.8333,193.5 70.1667,193.5 68.5,193.5C 73.4588,188.533 78.1255,183.2 82.5,177.5 Z"/></g>
<g><path style="opacity:1" fill="#f6f6f6" d="M 210.5,173.5 C 210.5,174.167 210.833,174.5 211.5,174.5C 211.5,175.167 211.5,175.833 211.5,176.5C 211.5,177.167 211.833,177.5 212.5,177.5C 212.5,177.833 212.5,178.167 212.5,178.5C 212.5,179.167 212.833,179.5 213.5,179.5C 213.5,179.833 213.5,180.167 213.5,180.5C 214.167,180.5 214.5,180.833 214.5,181.5C 214.5,181.833 214.5,182.167 214.5,182.5C 214.5,183.167 214.833,183.5 215.5,183.5C 215.5,183.833 215.5,184.167 215.5,184.5C 215.328,185.492 215.662,186.158 216.5,186.5C 216.5,186.833 216.5,187.167 216.5,187.5C 216.5,188.167 216.833,188.5 217.5,188.5C 217.5,189.167 217.5,189.833 217.5,190.5C 217.5,191.167 217.833,191.5 218.5,191.5C 218.328,192.492 218.662,193.158 219.5,193.5C 219.833,194.833 220.167,194.833 220.5,193.5C 220.5,193.167 220.5,192.833 220.5,192.5C 221.167,192.5 221.5,192.167 221.5,191.5C 221.5,190.833 221.5,190.167 221.5,189.5C 222.167,189.5 222.5,189.167 222.5,188.5C 222.5,188.167 222.5,187.833 222.5,187.5C 223.167,187.5 223.5,187.167 223.5,186.5C 223.5,185.833 223.5,185.167 223.5,184.5C 224.167,184.5 224.5,184.167 224.5,183.5C 224.5,183.167 224.5,182.833 224.5,182.5C 225.167,182.5 225.5,182.167 225.5,181.5C 225.5,181.167 225.5,180.833 225.5,180.5C 226.167,180.5 226.5,180.167 226.5,179.5C 226.833,178.167 227.167,176.833 227.5,175.5C 228.167,175.5 228.5,175.167 228.5,174.5C 229.568,173.566 230.901,173.232 232.5,173.5C 232.181,178.363 232.514,183.03 233.5,187.5C 233.5,187.833 233.5,188.167 233.5,188.5C 232.167,188.833 232.167,189.167 233.5,189.5C 233.5,189.833 233.5,190.167 233.5,190.5C 232.167,192.5 232.167,194.5 233.5,196.5C 233.5,197.5 233.5,198.5 233.5,199.5C 232.167,199.833 232.167,200.167 233.5,200.5C 233.5,201.167 233.5,201.833 233.5,202.5C 232.167,202.833 232.167,203.167 233.5,203.5C 233.5,203.833 233.5,204.167 233.5,204.5C 232.833,204.5 232.5,204.833 232.5,205.5C 231.167,205.5 229.833,205.5 228.5,205.5C 228.5,203.5 228.5,201.5 228.5,199.5C 228.5,195.5 228.5,191.5 228.5,187.5C 228.167,186.167 227.833,186.167 227.5,187.5C 226.89,188.391 226.557,189.391 226.5,190.5C 225.833,190.5 225.5,190.833 225.5,191.5C 225.5,191.833 225.5,192.167 225.5,192.5C 224.833,192.5 224.5,192.833 224.5,193.5C 223.833,195.5 223.167,197.5 222.5,199.5C 221.833,199.5 221.5,199.833 221.5,200.5C 220.833,200.5 220.167,200.5 219.5,200.5C 218.508,200.672 217.842,200.338 217.5,199.5C 217.5,198.833 217.167,198.5 216.5,198.5C 216.5,198.167 216.5,197.833 216.5,197.5C 216.5,196.833 216.167,196.5 215.5,196.5C 215.5,195.833 215.5,195.167 215.5,194.5C 215.5,193.833 215.167,193.5 214.5,193.5C 214.5,193.167 214.5,192.833 214.5,192.5C 214.5,191.833 214.167,191.5 213.5,191.5C 213.5,191.167 213.5,190.833 213.5,190.5C 213.5,189.833 213.167,189.5 212.5,189.5C 212.672,188.508 212.338,187.842 211.5,187.5C 210.5,192.738 210.167,198.738 210.5,205.5C 209.5,205.5 208.5,205.5 207.5,205.5C 206.662,205.158 206.328,204.492 206.5,203.5C 206.5,202.833 206.5,202.167 206.5,201.5C 206.5,200.833 206.5,200.167 206.5,199.5C 206.5,198.167 206.5,196.833 206.5,195.5C 206.5,195.167 206.5,194.833 206.5,194.5C 206.5,194.167 206.5,193.833 206.5,193.5C 206.5,192.833 206.5,192.167 206.5,191.5C 206.5,188.167 206.5,184.833 206.5,181.5C 206.5,178.833 206.5,176.167 206.5,173.5C 207.833,173.5 209.167,173.5 210.5,173.5 Z"/></g>
<g><path style="opacity:1" fill="#1373fd" d="M 225.5,179.5 C 225.5,179.833 225.5,180.167 225.5,180.5C 225.5,180.833 225.5,181.167 225.5,181.5C 224.833,181.5 224.5,181.833 224.5,182.5C 224.5,182.833 224.5,183.167 224.5,183.5C 223.833,183.5 223.5,183.833 223.5,184.5C 223.5,185.167 223.5,185.833 223.5,186.5C 222.833,186.5 222.5,186.833 222.5,187.5C 222.5,187.833 222.5,188.167 222.5,188.5C 221.833,188.5 221.5,188.833 221.5,189.5C 221.5,190.167 221.5,190.833 221.5,191.5C 220.833,191.5 220.5,191.833 220.5,192.5C 220.5,192.833 220.5,193.167 220.5,193.5C 220.167,193.5 219.833,193.5 219.5,193.5C 219.672,192.508 219.338,191.842 218.5,191.5C 217.833,191.5 217.5,191.167 217.5,190.5C 217.5,189.833 217.5,189.167 217.5,188.5C 216.833,188.5 216.5,188.167 216.5,187.5C 216.5,187.167 216.5,186.833 216.5,186.5C 219.112,184.051 221.612,181.384 224,178.5C 224.383,179.056 224.883,179.389 225.5,179.5 Z"/></g>
<g><path style="opacity:1" fill="#9aff00" d="M 117.5,170.5 C 117.5,174.167 117.5,177.833 117.5,181.5C 111.611,184.389 106.611,188.389 102.5,193.5C 102.5,189.833 102.5,186.167 102.5,182.5C 107.211,178.12 112.211,174.12 117.5,170.5 Z"/></g>
<g><path style="opacity:1" fill="#cb00fe" d="M 305.5,185.5 C 313.167,185.5 320.833,185.5 328.5,185.5C 328.5,188.167 328.5,190.833 328.5,193.5C 320.833,193.5 313.167,193.5 305.5,193.5C 305.5,196.167 305.5,198.833 305.5,201.5C 301.5,201.5 297.5,201.5 293.5,201.5C 296.411,196.435 300.245,192.102 305,188.5C 305.483,187.552 305.649,186.552 305.5,185.5 Z"/></g>
<g><path style="opacity:1" fill="#01fe61" d="M 154.5,186.5 C 154.833,186.5 155.167,186.5 155.5,186.5C 155.842,187.338 156.508,187.672 157.5,187.5C 157.5,188.167 157.833,188.5 158.5,188.5C 158.5,189.167 158.833,189.5 159.5,189.5C 159.5,190.167 159.5,190.833 159.5,191.5C 156.5,191.5 153.5,191.5 150.5,191.5C 150.5,190.833 150.5,190.167 150.5,189.5C 151.167,189.5 151.5,189.167 151.5,188.5C 152.167,188.5 152.5,188.167 152.5,187.5C 153.492,187.672 154.158,187.338 154.5,186.5 Z"/></g>
<g><path style="opacity:1" fill="#11fe9f" d="M 168.5,186.5 C 168.833,186.5 169.167,186.5 169.5,186.5C 169.833,187.167 170.167,187.833 170.5,188.5C 171.167,188.5 171.5,188.833 171.5,189.5C 171.5,189.833 171.5,190.167 171.5,190.5C 168.101,193.906 164.435,196.906 160.5,199.5C 159.609,200.11 158.609,200.443 157.5,200.5C 156.833,200.5 156.5,200.833 156.5,201.5C 156.167,201.5 155.833,201.5 155.5,201.5C 155.158,200.662 154.492,200.328 153.5,200.5C 153.167,200.5 152.833,200.5 152.5,200.5C 151.833,200.5 151.5,200.167 151.5,199.5C 150.766,198.292 150.433,196.959 150.5,195.5C 153.167,195.5 155.833,195.5 158.5,195.5C 158.833,196.833 159.167,196.833 159.5,195.5C 161.167,195.5 162.833,195.5 164.5,195.5C 164.5,193.833 164.5,192.167 164.5,190.5C 164.5,189.833 164.5,189.167 164.5,188.5C 166.153,188.34 167.486,187.674 168.5,186.5 Z"/></g>
<g><path style="opacity:1" fill="#f7f7f7" d="M 195.5,173.5 C 196.833,173.5 198.167,173.5 199.5,173.5C 199.5,175.167 199.5,176.833 199.5,178.5C 199.5,181.833 199.5,185.167 199.5,188.5C 199.5,190.833 199.5,193.167 199.5,195.5C 199.5,198.833 199.5,202.167 199.5,205.5C 198.167,205.5 196.833,205.5 195.5,205.5C 195.795,203.265 195.461,201.265 194.5,199.5C 194.5,199.167 194.5,198.833 194.5,198.5C 195.493,190.35 195.826,182.017 195.5,173.5 Z"/></g>
<g><path style="opacity:1" fill="#9000ff" d="M 276.5,177.5 C 276.5,181.5 276.5,185.5 276.5,189.5C 275.078,189.709 273.745,190.209 272.5,191C 268.748,194.902 265.082,198.735 261.5,202.5C 261.5,199.167 261.5,195.833 261.5,192.5C 263.463,190.721 265.629,189.054 268,187.5C 269.948,183.387 272.781,180.054 276.5,177.5 Z"/></g>
<g><path style="opacity:1" fill="#5bff00" d="M 117.5,181.5 C 117.5,185.833 117.5,190.167 117.5,194.5C 112.239,198.281 107.239,202.281 102.5,206.5C 102.5,202.167 102.5,197.833 102.5,193.5C 106.611,188.389 111.611,184.389 117.5,181.5 Z"/></g>
<g><path style="opacity:1" fill="#10fcf0" d="M 177.5,191.5 C 178.167,191.5 178.833,191.5 179.5,191.5C 179.842,192.338 180.508,192.672 181.5,192.5C 181.833,192.5 182.167,192.5 182.5,192.5C 183.167,192.5 183.5,192.833 183.5,193.5C 184.167,193.5 184.5,193.833 184.5,194.5C 184.5,195.5 184.5,196.5 184.5,197.5C 184.5,197.833 184.5,198.167 184.5,198.5C 183.833,198.5 183.5,198.833 183.5,199.5C 182.508,199.328 181.842,199.662 181.5,200.5C 179.5,200.5 177.5,200.5 175.5,200.5C 175.158,199.662 174.492,199.328 173.5,199.5C 173.167,199.5 172.833,199.5 172.5,199.5C 172.5,199.167 172.5,198.833 172.5,198.5C 174.224,196.125 175.89,193.792 177.5,191.5 Z"/></g>
<g><path style="opacity:1" fill="#0605ff" d="M 228.5,199.5 C 228.5,201.5 228.5,203.5 228.5,205.5C 220.359,215.175 211.359,223.842 201.5,231.5C 194.801,240.19 187.801,248.523 180.5,256.5C 176.5,256.5 172.5,256.5 168.5,256.5C 185.856,238.642 203.523,220.809 221.5,203C 223.285,200.774 225.618,199.608 228.5,199.5 Z"/></g>
<g><path style="opacity:1" fill="#c100ff" d="M 276.5,189.5 C 276.5,192.167 276.5,194.833 276.5,197.5C 271.826,202.369 266.826,207.035 261.5,211.5C 261.5,210.833 261.5,210.167 261.5,209.5C 261.5,207.167 261.5,204.833 261.5,202.5C 265.082,198.735 268.748,194.902 272.5,191C 273.745,190.209 275.078,189.709 276.5,189.5 Z"/></g>
<g><path style="opacity:1" fill="#00fe48" d="M 145.5,191.5 C 145.5,191.833 145.5,192.167 145.5,192.5C 145.5,192.833 145.5,193.167 145.5,193.5C 145.5,194.833 145.5,196.167 145.5,197.5C 142.99,202.176 139.324,205.676 134.5,208C 131.249,212.726 127.249,216.559 122.5,219.5C 122.5,216.833 122.5,214.167 122.5,211.5C 130.768,205.531 138.435,198.865 145.5,191.5 Z"/></g>
<g><path style="opacity:1" fill="#02fe92" d="M 148.5,203.5 C 148.833,203.5 149.167,203.5 149.5,203.5C 150.167,203.5 150.5,203.833 150.5,204.5C 150.833,204.5 151.167,204.5 151.5,204.5C 152.167,204.5 152.5,204.833 152.5,205.5C 152.833,205.5 153.167,205.5 153.5,205.5C 149.238,210.1 144.905,214.767 140.5,219.5C 137.742,222.289 134.576,224.623 131,226.5C 129.507,230.86 126.674,233.86 122.5,235.5C 122.5,232.5 122.5,229.5 122.5,226.5C 131.167,218.833 139.833,211.167 148.5,203.5 Z"/></g>
<g><path style="opacity:1" fill="#f000fd" d="M 276.5,197.5 C 276.5,201.833 276.5,206.167 276.5,210.5C 271.509,214.991 266.675,219.658 262,224.5C 261.501,220.179 261.334,215.846 261.5,211.5C 266.826,207.035 271.826,202.369 276.5,197.5 Z"/></g>
<g><path style="opacity:1" fill="#a300ff" d="M 256.5,206.5 C 256.5,208.167 256.5,209.833 256.5,211.5C 240.44,225.895 225.106,240.895 210.5,256.5C 208.833,256.5 207.167,256.5 205.5,256.5C 207.27,254.887 208.436,252.887 209,250.5C 219.833,239.667 230.667,228.833 241.5,218C 245.106,215.399 248.439,212.399 251.5,209C 252.9,207.562 254.567,206.729 256.5,206.5 Z"/></g>
<g><path style="opacity:1" fill="#16ff0d" d="M 117.5,194.5 C 117.5,202.167 117.5,209.833 117.5,217.5C 112.224,221.437 107.224,225.771 102.5,230.5C 102.5,222.5 102.5,214.5 102.5,206.5C 107.239,202.281 112.239,198.281 117.5,194.5 Z"/></g>
<g><path style="opacity:1" fill="#02fe73" d="M 145.5,197.5 C 145.833,197.5 146.167,197.5 146.5,197.5C 146.5,198.167 146.5,198.833 146.5,199.5C 147.167,199.5 147.5,199.833 147.5,200.5C 147.5,200.833 147.5,201.167 147.5,201.5C 148.167,201.5 148.5,201.833 148.5,202.5C 148.5,202.833 148.5,203.167 148.5,203.5C 139.833,211.167 131.167,218.833 122.5,226.5C 122.5,224.167 122.5,221.833 122.5,219.5C 127.249,216.559 131.249,212.726 134.5,208C 139.324,205.676 142.99,202.176 145.5,197.5 Z"/></g>
<g><path style="opacity:1" fill="#0123fe" d="M 227.5,187.5 C 227.833,187.5 228.167,187.5 228.5,187.5C 228.5,191.5 228.5,195.5 228.5,199.5C 225.618,199.608 223.285,200.774 221.5,203C 203.523,220.809 185.856,238.642 168.5,256.5C 166.5,256.5 164.5,256.5 162.5,256.5C 180.325,238.174 198.325,220.008 216.5,202C 217.448,201.517 218.448,201.351 219.5,201.5C 220.492,201.672 221.158,201.338 221.5,200.5C 222.167,200.5 222.5,200.167 222.5,199.5C 223.167,197.5 223.833,195.5 224.5,193.5C 225.167,193.5 225.5,193.167 225.5,192.5C 225.5,192.167 225.5,191.833 225.5,191.5C 226.167,191.5 226.5,191.167 226.5,190.5C 226.557,189.391 226.89,188.391 227.5,187.5 Z"/></g>
<g><path style="opacity:1" fill="#0151ff" d="M 206.5,203.5 C 206.328,204.492 206.662,205.158 207.5,205.5C 205.768,208.082 203.768,210.582 201.5,213C 199.152,213.346 197.319,214.513 196,216.5C 193.917,220.257 191.417,223.757 188.5,227C 177.82,237.531 166.82,247.365 155.5,256.5C 154.833,256.5 154.167,256.5 153.5,256.5C 153.369,255.761 153.536,255.094 154,254.5C 171.142,236.854 188.642,219.854 206.5,203.5 Z"/></g>
<g><path style="opacity:1" fill="#0580fe" d="M 206.5,191.5 C 206.5,192.167 206.5,192.833 206.5,193.5C 205.167,193.833 205.167,194.167 206.5,194.5C 206.5,194.833 206.5,195.167 206.5,195.5C 205.167,196.833 205.167,198.167 206.5,199.5C 206.5,200.167 206.5,200.833 206.5,201.5C 198.697,209.134 190.697,216.634 182.5,224C 176.09,227.904 170.09,232.404 164.5,237.5C 171.767,228.399 179.933,220.065 189,212.5C 190.094,210.922 190.928,209.255 191.5,207.5C 192.778,207.218 193.778,206.551 194.5,205.5C 194.833,205.5 195.167,205.5 195.5,205.5C 196.833,205.5 198.167,205.5 199.5,205.5C 199.5,202.167 199.5,198.833 199.5,195.5C 201.55,193.763 203.383,191.763 205,189.5C 205.278,190.416 205.778,191.082 206.5,191.5 Z"/></g>
<g><path style="opacity:1" fill="#f100fe" d="M 300.5,221.5 C 294.479,228.85 288.146,235.85 281.5,242.5C 281.5,235.5 281.5,228.5 281.5,221.5C 287.833,221.5 294.167,221.5 300.5,221.5 Z"/></g>
<g><path style="opacity:1" fill="#ff00e6" d="M 300.5,221.5 C 302.167,221.5 303.833,221.5 305.5,221.5C 305.5,223.833 305.5,226.167 305.5,228.5C 301.547,234.453 297.214,240.12 292.5,245.5C 288.833,245.5 285.167,245.5 281.5,245.5C 281.5,244.5 281.5,243.5 281.5,242.5C 288.146,235.85 294.479,228.85 300.5,221.5 Z"/></g>
<g><path style="opacity:1" fill="#04fec8" d="M 171.5,190.5 C 171.833,190.5 172.167,190.5 172.5,190.5C 172.833,190.5 173.167,190.5 173.5,190.5C 173.842,191.338 174.508,191.672 175.5,191.5C 176.167,191.5 176.833,191.5 177.5,191.5C 175.89,193.792 174.224,196.125 172.5,198.5C 172.167,198.5 171.833,198.5 171.5,198.5C 171.167,198.5 170.833,198.5 170.5,198.5C 170.167,197.167 169.833,197.167 169.5,198.5C 168.5,198.833 167.833,199.5 167.5,200.5C 166.167,200.833 166.167,201.167 167.5,201.5C 168.167,201.5 168.5,201.833 168.5,202.5C 168.5,202.833 168.5,203.167 168.5,203.5C 165.044,205.783 161.71,208.283 158.5,211C 149.155,219.679 140.488,229.013 132.5,239C 129.671,240.356 127.004,241.856 124.5,243.5C 124.5,243.167 124.5,242.833 124.5,242.5C 123.833,242.5 123.5,242.167 123.5,241.5C 123.5,241.167 123.5,240.833 123.5,240.5C 122.833,240.5 122.5,240.167 122.5,239.5C 122.5,238.167 122.5,236.833 122.5,235.5C 126.674,233.86 129.507,230.86 131,226.5C 134.576,224.623 137.742,222.289 140.5,219.5C 144.905,214.767 149.238,210.1 153.5,205.5C 155.95,205.702 158.283,205.369 160.5,204.5C 161.167,204.5 161.5,204.167 161.5,203.5C 162.5,203.167 163.167,202.5 163.5,201.5C 162.833,201.5 162.5,201.167 162.5,200.5C 161.833,200.167 161.167,199.833 160.5,199.5C 164.435,196.906 168.101,193.906 171.5,190.5 Z"/></g>
<g><path style="opacity:1" fill="#00fe4b" d="M 93.5,221.5 C 94.8333,221.5 96.1667,221.5 97.5,221.5C 97.5,223.5 97.5,225.5 97.5,227.5C 92.7591,229.745 89.5924,233.412 88,238.5C 84.8048,242.816 80.6381,245.149 75.5,245.5C 74.1667,245.5 73.5,244.833 73.5,243.5C 80.4791,236.518 87.1458,229.184 93.5,221.5 Z"/></g>
<g><path style="opacity:1" fill="#01d2ff" d="M 177.5,205.5 C 179.167,205.5 180.833,205.5 182.5,205.5C 177.504,210.664 172.671,215.997 168,221.5C 162.105,227.015 155.939,232.181 149.5,237C 145.344,243.32 140.344,248.82 134.5,253.5C 134.167,253.5 133.833,253.5 133.5,253.5C 132.833,253.5 132.5,253.167 132.5,252.5C 132.5,252.167 132.5,251.833 132.5,251.5C 132.369,250.761 132.536,250.094 133,249.5C 148.42,235.246 163.253,220.579 177.5,205.5 Z"/></g>
<g><path style="opacity:1" fill="#fa21d4" d="M 260.5,209.5 C 260.833,209.5 261.167,209.5 261.5,209.5C 261.5,210.167 261.5,210.833 261.5,211.5C 261.334,215.846 261.501,220.179 262,224.5C 266.675,219.658 271.509,214.991 276.5,210.5C 276.5,213.167 276.5,215.833 276.5,218.5C 270.465,223.534 265.131,229.201 260.5,235.5C 260.5,226.833 260.5,218.167 260.5,209.5 Z"/></g>
<g><path style="opacity:1" fill="#03a8fe" d="M 194.5,196.5 C 194.5,197.167 194.5,197.833 194.5,198.5C 194.5,198.833 194.5,199.167 194.5,199.5C 194.5,201.5 194.5,203.5 194.5,205.5C 193.778,206.551 192.778,207.218 191.5,207.5C 179.855,216.312 169.355,226.312 160,237.5C 153.631,243.702 147.464,250.035 141.5,256.5C 141.167,256.5 140.833,256.5 140.5,256.5C 140.5,255.833 140.167,255.5 139.5,255.5C 138.833,255.5 138.167,255.5 137.5,255.5C 137.5,255.167 137.5,254.833 137.5,254.5C 142.926,247.57 148.926,241.07 155.5,235C 161.729,229.098 168.229,223.598 175,218.5C 181.934,211.474 188.434,204.14 194.5,196.5 Z"/></g>
<g><path style="opacity:1" fill="#06fe6b" d="M 97.5,227.5 C 97.5,233.5 97.5,239.5 97.5,245.5C 90.1667,245.5 82.8333,245.5 75.5,245.5C 80.6381,245.149 84.8048,242.816 88,238.5C 89.5924,233.412 92.7591,229.745 97.5,227.5 Z"/></g>
<g><path style="opacity:1" fill="#1e09ff" d="M 256.5,163.5 C 256.5,171.167 256.5,178.833 256.5,186.5C 247.573,191.042 240.74,197.709 236,206.5C 229.86,211.306 224.36,216.806 219.5,223C 212.68,226.58 206.347,230.914 200.5,236C 198.667,238.825 196.834,241.659 195,244.5C 190.61,248.295 186.443,252.295 182.5,256.5C 181.833,256.5 181.167,256.5 180.5,256.5C 187.801,248.523 194.801,240.19 201.5,231.5C 211.359,223.842 220.359,215.175 228.5,205.5C 229.833,205.5 231.167,205.5 232.5,205.5C 233.167,205.5 233.5,205.167 233.5,204.5C 233.5,204.167 233.5,203.833 233.5,203.5C 233.5,203.167 233.5,202.833 233.5,202.5C 233.5,201.833 233.5,201.167 233.5,200.5C 233.5,200.167 233.5,199.833 233.5,199.5C 233.5,198.5 233.5,197.5 233.5,196.5C 233.5,194.5 233.5,192.5 233.5,190.5C 233.5,190.167 233.5,189.833 233.5,189.5C 233.5,189.167 233.5,188.833 233.5,188.5C 233.5,188.167 233.5,187.833 233.5,187.5C 233.5,186.5 233.5,185.5 233.5,184.5C 241.101,177.238 248.768,170.238 256.5,163.5 Z"/></g>
<g><path style="opacity:1" fill="#fe01be" d="M 305.5,228.5 C 308.728,229.414 312.061,229.747 315.5,229.5C 313.091,231.902 311.091,234.569 309.5,237.5C 308.167,237.5 306.833,237.5 305.5,237.5C 305.5,240.167 305.5,242.833 305.5,245.5C 301.167,245.5 296.833,245.5 292.5,245.5C 297.214,240.12 301.547,234.453 305.5,228.5 Z"/></g>
<g><path style="opacity:1" fill="#ff0091" d="M 315.5,229.5 C 319.833,229.5 324.167,229.5 328.5,229.5C 328.5,232.167 328.5,234.833 328.5,237.5C 322.167,237.5 315.833,237.5 309.5,237.5C 311.091,234.569 313.091,231.902 315.5,229.5 Z"/></g>
<g><path style="opacity:1" fill="#01fe4e" d="M 117.5,217.5 C 117.5,220.833 117.5,224.167 117.5,227.5C 116.448,227.351 115.448,227.517 114.5,228C 110.997,232.669 106.997,236.836 102.5,240.5C 102.5,237.167 102.5,233.833 102.5,230.5C 107.224,225.771 112.224,221.437 117.5,217.5 Z"/></g>
<g><path style="opacity:1" fill="#8300ff" d="M 256.5,196.5 C 256.5,199.833 256.5,203.167 256.5,206.5C 254.567,206.729 252.9,207.562 251.5,209C 248.439,212.399 245.106,215.399 241.5,218C 230.667,228.833 219.833,239.667 209,250.5C 208.436,252.887 207.27,254.887 205.5,256.5C 202.5,256.5 199.5,256.5 196.5,256.5C 206.714,247.792 216.547,238.459 226,228.5C 226.333,227.167 226.667,225.833 227,224.5C 229.874,223.468 231.374,221.468 231.5,218.5C 232.552,218.649 233.552,218.483 234.5,218C 241.621,210.446 248.954,203.279 256.5,196.5 Z"/></g>
<g><path style="opacity:1" fill="#ff00ab" d="M 276.5,218.5 C 276.5,221.167 276.5,223.833 276.5,226.5C 271.477,231.358 266.31,236.025 261,240.5C 260.601,240.272 260.435,239.938 260.5,239.5C 260.5,239.167 260.5,238.833 260.5,238.5C 260.5,237.5 260.5,236.5 260.5,235.5C 265.131,229.201 270.465,223.534 276.5,218.5 Z"/></g>
<g><path style="opacity:1" fill="#04fef1" d="M 168.5,203.5 C 168.833,203.5 169.167,203.5 169.5,203.5C 169.833,203.5 170.167,203.5 170.5,203.5C 171.167,203.5 171.5,203.833 171.5,204.5C 171.833,204.5 172.167,204.5 172.5,204.5C 169.414,210.755 164.747,215.588 158.5,219C 149.304,228.53 139.804,237.697 130,246.5C 129.517,247.448 129.351,248.448 129.5,249.5C 128.167,248.833 127.167,247.833 126.5,246.5C 125.833,246.5 125.5,246.167 125.5,245.5C 125.167,244.833 124.833,244.167 124.5,243.5C 127.004,241.856 129.671,240.356 132.5,239C 140.488,229.013 149.155,219.679 158.5,211C 161.71,208.283 165.044,205.783 168.5,203.5 Z"/></g>
<g><path style="opacity:1" fill="#ff00e7" d="M 256.5,227.5 C 256.5,229.833 256.5,232.167 256.5,234.5C 255.234,235.09 253.901,235.59 252.5,236C 246.272,243.056 239.939,249.889 233.5,256.5C 231.167,256.5 228.833,256.5 226.5,256.5C 236.289,246.878 246.289,237.211 256.5,227.5 Z"/></g>
<g><path style="opacity:1" fill="#20fd23" d="M 93.5,221.5 C 87.1458,229.184 80.4791,236.518 73.5,243.5C 73.5,241.5 73.5,239.5 73.5,237.5C 65.8333,237.5 58.1667,237.5 50.5,237.5C 50.2229,234.552 50.5562,231.719 51.5,229C 58.4143,228.189 65.2476,228.355 72,229.5C 73.3747,227.063 73.8747,224.397 73.5,221.5C 80.1667,221.5 86.8333,221.5 93.5,221.5 Z"/></g>
<g><path style="opacity:1" fill="#018fff" d="M 191.5,207.5 C 190.928,209.255 190.094,210.922 189,212.5C 179.933,220.065 171.767,228.399 164.5,237.5C 161.572,242.263 157.739,246.263 153,249.5C 151.277,251.717 149.777,254.05 148.5,256.5C 146.833,256.5 145.167,256.5 143.5,256.5C 142.833,256.5 142.167,256.5 141.5,256.5C 147.464,250.035 153.631,243.702 160,237.5C 169.355,226.312 179.855,216.312 191.5,207.5 Z"/></g>
<g><path style="opacity:1" fill="#4200ff" d="M 256.5,186.5 C 256.5,189.167 256.5,191.833 256.5,194.5C 251.414,199.864 245.747,204.531 239.5,208.5C 238.938,211.229 237.272,212.729 234.5,213C 232.389,216.784 229.389,219.45 225.5,221C 218.597,227.735 211.931,234.568 205.5,241.5C 198.668,244.757 193.335,249.757 189.5,256.5C 187.167,256.5 184.833,256.5 182.5,256.5C 186.443,252.295 190.61,248.295 195,244.5C 196.834,241.659 198.667,238.825 200.5,236C 206.347,230.914 212.68,226.58 219.5,223C 224.36,216.806 229.86,211.306 236,206.5C 240.74,197.709 247.573,191.042 256.5,186.5 Z"/></g>
<g><path style="opacity:1" fill="#01ebfe" d="M 172.5,204.5 C 172.833,204.5 173.167,204.5 173.5,204.5C 173.842,205.338 174.508,205.672 175.5,205.5C 176.167,205.5 176.833,205.5 177.5,205.5C 163.253,220.579 148.42,235.246 133,249.5C 132.536,250.094 132.369,250.761 132.5,251.5C 132.167,251.5 131.833,251.5 131.5,251.5C 130.5,251.167 129.833,250.5 129.5,249.5C 129.351,248.448 129.517,247.448 130,246.5C 139.804,237.697 149.304,228.53 158.5,219C 164.747,215.588 169.414,210.755 172.5,204.5 Z"/></g>
<g><path style="opacity:1" fill="#016eff" d="M 206.5,201.5 C 206.5,202.167 206.5,202.833 206.5,203.5C 188.642,219.854 171.142,236.854 154,254.5C 153.536,255.094 153.369,255.761 153.5,256.5C 151.833,256.5 150.167,256.5 148.5,256.5C 149.777,254.05 151.277,251.717 153,249.5C 157.739,246.263 161.572,242.263 164.5,237.5C 170.09,232.404 176.09,227.904 182.5,224C 190.697,216.634 198.697,209.134 206.5,201.5 Z"/></g>
<g><path style="opacity:1" fill="#6200ff" d="M 256.5,194.5 C 256.5,195.167 256.5,195.833 256.5,196.5C 248.954,203.279 241.621,210.446 234.5,218C 233.552,218.483 232.552,218.649 231.5,218.5C 231.374,221.468 229.874,223.468 227,224.5C 226.667,225.833 226.333,227.167 226,228.5C 216.547,238.459 206.714,247.792 196.5,256.5C 194.167,256.5 191.833,256.5 189.5,256.5C 193.335,249.757 198.668,244.757 205.5,241.5C 211.931,234.568 218.597,227.735 225.5,221C 229.389,219.45 232.389,216.784 234.5,213C 237.272,212.729 238.938,211.229 239.5,208.5C 245.747,204.531 251.414,199.864 256.5,194.5 Z"/></g>
<g><path style="opacity:1" fill="#fe04c8" d="M 256.5,234.5 C 256.5,234.833 256.5,235.167 256.5,235.5C 256.5,236.5 256.5,237.5 256.5,238.5C 255.833,238.5 255.5,238.833 255.5,239.5C 255.5,240.167 255.5,240.833 255.5,241.5C 254.833,241.5 254.5,241.833 254.5,242.5C 254.5,242.833 254.5,243.167 254.5,243.5C 253.833,243.5 253.5,243.833 253.5,244.5C 253.5,244.833 253.5,245.167 253.5,245.5C 252.833,245.5 252.5,245.833 252.5,246.5C 250.833,248.833 248.833,250.833 246.5,252.5C 245.833,252.5 245.5,252.833 245.5,253.5C 245.167,253.5 244.833,253.5 244.5,253.5C 243.833,253.5 243.5,253.833 243.5,254.5C 243.167,254.5 242.833,254.5 242.5,254.5C 241.833,254.5 241.5,254.833 241.5,255.5C 240.833,255.5 240.167,255.5 239.5,255.5C 238.833,255.5 238.5,255.833 238.5,256.5C 237.5,256.5 236.5,256.5 235.5,256.5C 234.833,256.5 234.167,256.5 233.5,256.5C 239.939,249.889 246.272,243.056 252.5,236C 253.901,235.59 255.234,235.09 256.5,234.5 Z"/></g>
<g><path style="opacity:1" fill="#45f77a" d="M 118.5,147.5 C 118.5,177.167 118.5,206.833 118.5,236.5C 116.567,238.596 114.233,240.096 111.5,241C 108.822,244.57 105.822,247.737 102.5,250.5C 102.5,247.167 102.5,243.833 102.5,240.5C 106.997,236.836 110.997,232.669 114.5,228C 115.448,227.517 116.448,227.351 117.5,227.5C 117.5,224.167 117.5,220.833 117.5,217.5C 117.5,209.833 117.5,202.167 117.5,194.5C 117.5,190.167 117.5,185.833 117.5,181.5C 117.5,177.833 117.5,174.167 117.5,170.5C 117.5,166.833 117.5,163.167 117.5,159.5C 117.5,156.833 117.5,154.167 117.5,151.5C 117.232,149.901 117.566,148.568 118.5,147.5 Z"/></g>
<g><path style="opacity:1" fill="#03bdfe" d="M 194.5,192.5 C 194.5,193.833 194.5,195.167 194.5,196.5C 188.434,204.14 181.934,211.474 175,218.5C 168.229,223.598 161.729,229.098 155.5,235C 148.926,241.07 142.926,247.57 137.5,254.5C 137.167,254.5 136.833,254.5 136.5,254.5C 136.167,254.5 135.833,254.5 135.5,254.5C 135.5,253.833 135.167,253.5 134.5,253.5C 140.344,248.82 145.344,243.32 149.5,237C 155.939,232.181 162.105,227.015 168,221.5C 172.671,215.997 177.504,210.664 182.5,205.5C 183.167,205.5 183.5,205.167 183.5,204.5C 184.609,204.443 185.609,204.11 186.5,203.5C 187.167,203.5 187.5,203.167 187.5,202.5C 188.167,202.5 188.5,202.167 188.5,201.5C 188.5,201.167 188.5,200.833 188.5,200.5C 189.167,200.5 189.5,200.167 189.5,199.5C 189.5,197.833 189.5,196.167 189.5,194.5C 190.82,193.058 192.486,192.392 194.5,192.5 Z"/></g>
<g><path style="opacity:1" fill="#023dfe" d="M 211.5,187.5 C 212.338,187.842 212.672,188.508 212.5,189.5C 213.167,189.5 213.5,189.833 213.5,190.5C 213.5,190.833 213.5,191.167 213.5,191.5C 214.167,191.5 214.5,191.833 214.5,192.5C 214.5,192.833 214.5,193.167 214.5,193.5C 215.167,193.5 215.5,193.833 215.5,194.5C 215.5,195.167 215.5,195.833 215.5,196.5C 216.167,196.5 216.5,196.833 216.5,197.5C 216.5,197.833 216.5,198.167 216.5,198.5C 217.167,198.5 217.5,198.833 217.5,199.5C 217.842,200.338 218.508,200.672 219.5,200.5C 219.5,200.833 219.5,201.167 219.5,201.5C 218.448,201.351 217.448,201.517 216.5,202C 198.325,220.008 180.325,238.174 162.5,256.5C 160.167,256.5 157.833,256.5 155.5,256.5C 166.82,247.365 177.82,237.531 188.5,227C 191.417,223.757 193.917,220.257 196,216.5C 197.319,214.513 199.152,213.346 201.5,213C 203.768,210.582 205.768,208.082 207.5,205.5C 208.5,205.5 209.5,205.5 210.5,205.5C 211.49,199.69 211.823,193.69 211.5,187.5 Z"/></g>
<g><path style="opacity:1" fill="#cc00ff" d="M 256.5,211.5 C 256.5,214.5 256.5,217.5 256.5,220.5C 244.556,233.434 231.89,245.434 218.5,256.5C 215.833,256.5 213.167,256.5 210.5,256.5C 225.106,240.895 240.44,225.895 256.5,211.5 Z"/></g>
<g><path style="opacity:1" fill="#ff008a" d="M 276.5,226.5 C 276.5,228.833 276.5,231.167 276.5,233.5C 267.536,244.302 257.203,253.469 245.5,261C 240.245,266.425 234.911,271.591 229.5,276.5C 227.5,276.5 225.5,276.5 223.5,276.5C 228.843,270.157 234.843,264.491 241.5,259.5C 242.492,259.672 243.158,259.338 243.5,258.5C 243.833,258.5 244.167,258.5 244.5,258.5C 245.167,258.5 245.5,258.167 245.5,257.5C 245.833,257.5 246.167,257.5 246.5,257.5C 247.167,257.5 247.5,257.167 247.5,256.5C 248.167,256.167 248.833,255.833 249.5,255.5C 250.167,255.5 250.5,255.167 250.5,254.5C 251.167,254.5 251.5,254.167 251.5,253.5C 252.167,253.5 252.5,253.167 252.5,252.5C 253.167,252.5 253.5,252.167 253.5,251.5C 254.167,251.5 254.5,251.167 254.5,250.5C 255.167,250.5 255.5,250.167 255.5,249.5C 255.833,248.833 256.167,248.167 256.5,247.5C 257.167,247.5 257.5,247.167 257.5,246.5C 257.5,246.167 257.5,245.833 257.5,245.5C 258.167,245.5 258.5,245.167 258.5,244.5C 258.5,244.167 258.5,243.833 258.5,243.5C 259.338,243.158 259.672,242.492 259.5,241.5C 259.5,240.833 259.5,240.167 259.5,239.5C 259.833,239.5 260.167,239.5 260.5,239.5C 260.435,239.938 260.601,240.272 261,240.5C 266.31,236.025 271.477,231.358 276.5,226.5 Z"/></g>
<g><path style="opacity:1" fill="#08feb0" d="M 118.5,236.5 C 118.629,238.216 118.962,239.883 119.5,241.5C 119.5,241.833 119.5,242.167 119.5,242.5C 114.153,247.848 109.153,253.514 104.5,259.5C 103.343,256.727 102.676,253.727 102.5,250.5C 105.822,247.737 108.822,244.57 111.5,241C 114.233,240.096 116.567,238.596 118.5,236.5 Z"/></g>
<g><path style="opacity:1" fill="#05fed3" d="M 119.5,242.5 C 119.833,242.5 120.167,242.5 120.5,242.5C 120.5,243.167 120.5,243.833 120.5,244.5C 121.167,244.5 121.5,244.833 121.5,245.5C 121.5,245.833 121.5,246.167 121.5,246.5C 122.167,246.5 122.5,246.833 122.5,247.5C 122.5,247.833 122.5,248.167 122.5,248.5C 117.415,253.922 111.749,258.589 105.5,262.5C 104.89,261.609 104.557,260.609 104.5,259.5C 109.153,253.514 114.153,247.848 119.5,242.5 Z"/></g>
<g><path style="opacity:1" fill="#f300fe" d="M 256.5,220.5 C 256.5,222.833 256.5,225.167 256.5,227.5C 246.289,237.211 236.289,246.878 226.5,256.5C 223.833,256.5 221.167,256.5 218.5,256.5C 231.89,245.434 244.556,233.434 256.5,220.5 Z"/></g>
<g><path style="opacity:1" fill="#fdfdfd" d="M 134.5,254.5 C 134.833,254.5 135.167,254.5 135.5,254.5C 135.833,254.5 136.167,254.5 136.5,254.5C 136.5,255.167 136.833,255.5 137.5,255.5C 138.167,255.5 138.833,255.5 139.5,255.5C 140.167,255.5 140.5,255.833 140.5,256.5C 140.833,256.5 141.167,256.5 141.5,256.5C 142.167,256.5 142.833,256.5 143.5,256.5C 173.995,257.498 204.662,257.831 235.5,257.5C 237.027,257.427 238.027,258.094 238.5,259.5C 238.5,259.833 238.5,260.167 238.5,260.5C 234.833,260.5 231.167,260.5 227.5,260.5C 226.167,260.5 224.833,260.5 223.5,260.5C 221.833,260.5 220.167,260.5 218.5,260.5C 214.167,260.5 209.833,260.5 205.5,260.5C 202.833,260.5 200.167,260.5 197.5,260.5C 192.5,260.5 187.5,260.5 182.5,260.5C 176.5,260.5 170.5,260.5 164.5,260.5C 160.5,260.5 156.5,260.5 152.5,260.5C 151.167,260.5 149.833,260.5 148.5,260.5C 145.833,260.5 143.167,260.5 140.5,260.5C 140.158,259.662 139.492,259.328 138.5,259.5C 138.167,259.5 137.833,259.5 137.5,259.5C 137.5,258.833 137.167,258.5 136.5,258.5C 135.833,258.5 135.167,258.5 134.5,258.5C 134.5,257.833 134.167,257.5 133.5,257.5C 133.263,256.209 133.596,255.209 134.5,254.5 Z"/></g>
<g><path style="opacity:1" fill="#08fef2" d="M 122.5,248.5 C 123.5,248.833 124.167,249.5 124.5,250.5C 124.5,250.833 124.5,251.167 124.5,251.5C 119.653,257.065 114.653,262.399 109.5,267.5C 107.937,266.055 106.604,264.389 105.5,262.5C 111.749,258.589 117.415,253.922 122.5,248.5 Z"/></g>
<g><path style="opacity:1" fill="#01ecff" d="M 124.5,251.5 C 124.833,251.5 125.167,251.5 125.5,251.5C 126.167,251.5 126.5,251.833 126.5,252.5C 127.167,252.5 127.5,252.833 127.5,253.5C 127.5,253.833 127.5,254.167 127.5,254.5C 122.556,259.781 117.556,265.114 112.5,270.5C 111.167,269.833 110.167,268.833 109.5,267.5C 114.653,262.399 119.653,257.065 124.5,251.5 Z"/></g>
<g><path style="opacity:1" fill="#039dfe" d="M 134.5,258.5 C 135.167,258.5 135.833,258.5 136.5,258.5C 137.167,258.5 137.5,258.833 137.5,259.5C 137.833,259.5 138.167,259.5 138.5,259.5C 138.5,259.833 138.5,260.167 138.5,260.5C 132.521,264.479 127.521,269.479 123.5,275.5C 121.784,275.371 120.117,275.038 118.5,274.5C 123.14,268.527 128.473,263.194 134.5,258.5 Z"/></g>
<g><path style="opacity:1" fill="#06c7fe" d="M 127.5,254.5 C 127.833,254.5 128.167,254.5 128.5,254.5C 129.167,254.5 129.5,254.833 129.5,255.5C 130.167,255.833 130.833,256.167 131.5,256.5C 132.167,256.5 132.5,256.833 132.5,257.5C 132.833,257.5 133.167,257.5 133.5,257.5C 134.167,257.5 134.5,257.833 134.5,258.5C 128.473,263.194 123.14,268.527 118.5,274.5C 116.205,273.525 114.205,272.192 112.5,270.5C 117.556,265.114 122.556,259.781 127.5,254.5 Z"/></g>
<g><path style="opacity:1" fill="#ff0066" d="M 276.5,233.5 C 276.5,236.167 276.5,238.833 276.5,241.5C 263.864,252.801 251.531,264.468 239.5,276.5C 236.167,276.5 232.833,276.5 229.5,276.5C 234.911,271.591 240.245,266.425 245.5,261C 257.203,253.469 267.536,244.302 276.5,233.5 Z"/></g>
<g><path style="opacity:1" fill="#0050ff" d="M 148.5,260.5 C 149.833,260.5 151.167,260.5 152.5,260.5C 147.541,265.467 142.874,270.8 138.5,276.5C 136.167,276.5 133.833,276.5 131.5,276.5C 137.14,271.195 142.807,265.861 148.5,260.5 Z"/></g>
<g><path style="opacity:1" fill="#ff0044" d="M 276.5,241.5 C 276.5,243.167 276.5,244.833 276.5,246.5C 266.113,256.221 256.113,266.221 246.5,276.5C 244.167,276.5 241.833,276.5 239.5,276.5C 251.531,264.468 263.864,252.801 276.5,241.5 Z"/></g>
<g><path style="opacity:1" fill="#fe0421" d="M 276.5,246.5 C 276.167,266.167 266.167,276.167 246.5,276.5C 256.113,266.221 266.113,256.221 276.5,246.5 Z"/></g>
<g><path style="opacity:1" fill="#a500fe" d="M 197.5,260.5 C 200.167,260.5 202.833,260.5 205.5,260.5C 200.803,265.531 196.47,270.864 192.5,276.5C 189.167,276.5 185.833,276.5 182.5,276.5C 186.816,270.518 191.816,265.185 197.5,260.5 Z"/></g>
<g><path style="opacity:1" fill="#fe00f4" d="M 218.5,260.5 C 220.167,260.5 221.833,260.5 223.5,260.5C 219.235,266.104 214.568,271.437 209.5,276.5C 207.5,276.5 205.5,276.5 203.5,276.5C 208.491,271.208 213.491,265.875 218.5,260.5 Z"/></g>
<g><path style="opacity:1" fill="#ff00b8" d="M 239.5,259.5 C 240.167,259.5 240.833,259.5 241.5,259.5C 234.843,264.491 228.843,270.157 223.5,276.5C 220.833,276.5 218.167,276.5 215.5,276.5C 217.873,273.109 220.706,270.109 224,267.5C 224.989,265.03 226.155,262.697 227.5,260.5C 231.167,260.5 234.833,260.5 238.5,260.5C 239.167,260.5 239.5,260.167 239.5,259.5 Z"/></g>
<g><path style="opacity:1" fill="#0577fe" d="M 138.5,260.5 C 139.167,260.5 139.833,260.5 140.5,260.5C 143.167,260.5 145.833,260.5 148.5,260.5C 142.807,265.861 137.14,271.195 131.5,276.5C 128.721,276.721 126.054,276.388 123.5,275.5C 127.521,269.479 132.521,264.479 138.5,260.5 Z"/></g>
<g><path style="opacity:1" fill="#7200fe" d="M 182.5,260.5 C 187.5,260.5 192.5,260.5 197.5,260.5C 191.816,265.185 186.816,270.518 182.5,276.5C 178.5,276.5 174.5,276.5 170.5,276.5C 174.448,271.529 178.781,266.696 183.5,262C 182.944,261.617 182.611,261.117 182.5,260.5 Z"/></g>
<g><path style="opacity:1" fill="#d900fe" d="M 205.5,260.5 C 209.833,260.5 214.167,260.5 218.5,260.5C 213.491,265.875 208.491,271.208 203.5,276.5C 199.833,276.5 196.167,276.5 192.5,276.5C 196.47,270.864 200.803,265.531 205.5,260.5 Z"/></g>
<g><path style="opacity:1" fill="#0124fe" d="M 152.5,260.5 C 156.5,260.5 160.5,260.5 164.5,260.5C 160.126,266.2 155.459,271.533 150.5,276.5C 146.5,276.5 142.5,276.5 138.5,276.5C 142.874,270.8 147.541,265.467 152.5,260.5 Z"/></g>
<g><path style="opacity:1" fill="#2c00fe" d="M 164.5,260.5 C 170.5,260.5 176.5,260.5 182.5,260.5C 182.611,261.117 182.944,261.617 183.5,262C 178.781,266.696 174.448,271.529 170.5,276.5C 163.833,276.5 157.167,276.5 150.5,276.5C 155.459,271.533 160.126,266.2 164.5,260.5 Z"/></g>
<g><path style="opacity:1" fill="#ff00db" d="M 223.5,260.5 C 224.833,260.5 226.167,260.5 227.5,260.5C 226.155,262.697 224.989,265.03 224,267.5C 220.706,270.109 217.873,273.109 215.5,276.5C 213.5,276.5 211.5,276.5 209.5,276.5C 214.568,271.437 219.235,266.104 223.5,260.5 Z"/></g>
<g><path style="opacity:1" fill="#db00ff" d="M 239.5,281.5 C 238.91,282.766 238.41,284.099 238,285.5C 234.95,287.549 232.617,290.216 231,293.5C 228.253,296.754 225.086,299.42 221.5,301.5C 221.5,294.833 221.5,288.167 221.5,281.5C 227.5,281.5 233.5,281.5 239.5,281.5 Z"/></g>
<g><path style="opacity:1" fill="#f800f8" d="M 239.5,281.5 C 241.5,281.5 243.5,281.5 245.5,281.5C 245.5,285.5 245.5,289.5 245.5,293.5C 239.935,298.976 234.602,304.642 229.5,310.5C 229.768,308.901 229.434,307.568 228.5,306.5C 226.393,305.532 224.059,305.198 221.5,305.5C 221.5,304.167 221.5,302.833 221.5,301.5C 225.086,299.42 228.253,296.754 231,293.5C 232.617,290.216 234.95,287.549 238,285.5C 238.41,284.099 238.91,282.766 239.5,281.5 Z"/></g>
<g><path style="opacity:1" fill="#025dfe" d="M 147.5,281.5 C 143.214,287.123 138.547,292.456 133.5,297.5C 133.5,292.167 133.5,286.833 133.5,281.5C 138.167,281.5 142.833,281.5 147.5,281.5 Z"/></g>
<g><path style="opacity:1" fill="#4400ff" d="M 196.5,281.5 C 190.885,289.449 184.552,296.782 177.5,303.5C 177.5,296.167 177.5,288.833 177.5,281.5C 183.833,281.5 190.167,281.5 196.5,281.5 Z"/></g>
<g><path style="opacity:1" fill="#ff00d1" d="M 245.5,293.5 C 245.5,297.5 245.5,301.5 245.5,305.5C 242.833,305.5 240.167,305.5 237.5,305.5C 237.5,308.5 237.5,311.5 237.5,314.5C 234.785,316.902 232.285,319.568 230,322.5C 229.501,318.514 229.334,314.514 229.5,310.5C 234.602,304.642 239.935,298.976 245.5,293.5 Z"/></g>
<g><path style="opacity:1" fill="#0f0ffe" d="M 157.5,285.5 C 157.5,292.167 157.5,298.833 157.5,305.5C 154.881,305.232 152.381,305.565 150,306.5C 149.5,313.826 149.334,321.159 149.5,328.5C 146.833,328.5 144.167,328.5 141.5,328.5C 141.5,320.833 141.5,313.167 141.5,305.5C 140.5,305.5 139.5,305.5 138.5,305.5C 142.746,299.418 147.913,294.085 154,289.5C 154.057,287.09 155.224,285.756 157.5,285.5 Z"/></g>
<g><path style="opacity:1" fill="#7800ff" d="M 196.5,281.5 C 198.167,281.5 199.833,281.5 201.5,281.5C 201.5,289.5 201.5,297.5 201.5,305.5C 198.833,305.5 196.167,305.5 193.5,305.5C 193.5,306.833 193.5,308.167 193.5,309.5C 190.833,312.167 188.167,314.833 185.5,317.5C 185.5,313.5 185.5,309.5 185.5,305.5C 182.302,306.036 179.635,305.369 177.5,303.5C 184.552,296.782 190.885,289.449 196.5,281.5 Z"/></g>
<g><path style="opacity:1" fill="#0336fe" d="M 147.5,281.5 C 150.833,281.5 154.167,281.5 157.5,281.5C 157.5,282.833 157.5,284.167 157.5,285.5C 155.224,285.756 154.057,287.09 154,289.5C 147.913,294.085 142.746,299.418 138.5,305.5C 136.833,305.5 135.167,305.5 133.5,305.5C 133.5,302.833 133.5,300.167 133.5,297.5C 138.547,292.456 143.214,287.123 147.5,281.5 Z"/></g>
<g><path style="opacity:1" fill="#f835af" d="M 228.5,306.5 C 229.434,307.568 229.768,308.901 229.5,310.5C 229.334,314.514 229.501,318.514 230,322.5C 232.285,319.568 234.785,316.902 237.5,314.5C 237.5,319.167 237.5,323.833 237.5,328.5C 234.552,328.777 231.719,328.444 229,327.5C 228.5,320.508 228.334,313.508 228.5,306.5 Z"/></g>
<g><path style="opacity:1" fill="#b900fe" d="M 193.5,309.5 C 193.5,315.833 193.5,322.167 193.5,328.5C 190.833,328.5 188.167,328.5 185.5,328.5C 185.5,324.833 185.5,321.167 185.5,317.5C 188.167,314.833 190.833,312.167 193.5,309.5 Z"/></g>
</svg>
