<?xml version="1.0" encoding="UTF-8"?>
<!DOCTYPE svg PUBLIC "-//W3C//DTD SVG 1.1//EN" "http://www.w3.org/Graphics/SVG/1.1/DTD/svg11.dtd">
<svg xmlns="http://www.w3.org/2000/svg" version="1.1" width="256px" height="256px" style="shape-rendering:geometricPrecision; text-rendering:geometricPrecision; image-rendering:optimizeQuality; fill-rule:evenodd; clip-rule:evenodd" xmlns:xlink="http://www.w3.org/1999/xlink">
<g><path style="opacity:0.873" fill="#fefffe" d="M 28.5,55.5 C 95.2495,55.007 161.916,55.507 228.5,57C 231.106,58.9384 232.939,61.4384 234,64.5C 234.667,106.5 234.667,148.5 234,190.5C 232.558,194.275 230.058,197.108 226.5,199C 159.751,199.993 93.0847,199.66 26.5,198C 23.8941,196.062 22.0608,193.562 21,190.5C 20.3333,148.5 20.3333,106.5 21,64.5C 22.6416,60.6997 25.1416,57.6997 28.5,55.5 Z"/></g>
<g><path style="opacity:1" fill="#04fe7b" d="M 150.5,61.5 C 148.878,64.4549 146.878,67.1215 144.5,69.5C 141.703,67.205 139.036,64.705 136.5,62C 141.155,61.5008 145.821,61.3342 150.5,61.5 Z"/></g>
<g><path style="opacity:1" fill="#02feac" d="M 150.5,61.5 C 153.5,61.5 156.5,61.5 159.5,61.5C 156.174,65.8258 152.507,69.8258 148.5,73.5C 146.833,72.5 145.5,71.1667 144.5,69.5C 146.878,67.1215 148.878,64.4549 150.5,61.5 Z"/></g>
<g><path style="opacity:1" fill="#02ffce" d="M 159.5,61.5 C 162.167,61.5 164.833,61.5 167.5,61.5C 167.489,63.0174 166.823,64.1841 165.5,65C 161.417,66.9647 158.584,70.1314 157,74.5C 155.729,75.8825 154.229,76.8825 152.5,77.5C 150.833,76.5 149.5,75.1667 148.5,73.5C 152.507,69.8258 156.174,65.8258 159.5,61.5 Z"/></g>
<g><path style="opacity:1" fill="#ff2c00" d="M 44.5,61.5 C 41.5352,64.7345 39.0352,68.4011 37,72.5C 32.9723,75.363 29.4723,78.6963 26.5,82.5C 26.0899,76.3792 26.5899,70.3792 28,64.5C 28.8333,63.6667 29.6667,62.8333 30.5,62C 35.1548,61.5008 39.8215,61.3342 44.5,61.5 Z"/></g>
<g><path style="opacity:1" fill="#01e5ff" d="M 172.5,61.5 C 175.187,61.3359 177.854,61.5026 180.5,62C 173.5,69 166.5,76 159.5,83C 158.002,83.5847 157.002,83.0847 156.5,81.5C 161.853,74.7637 167.186,68.097 172.5,61.5 Z"/></g>
<g><path style="opacity:1" fill="#01fef3" d="M 167.5,61.5 C 169.167,61.5 170.833,61.5 172.5,61.5C 167.186,68.097 161.853,74.7637 156.5,81.5C 154.833,80.5 153.5,79.1667 152.5,77.5C 154.229,76.8825 155.729,75.8825 157,74.5C 158.584,70.1314 161.417,66.9647 165.5,65C 166.823,64.1841 167.489,63.0174 167.5,61.5 Z"/></g>
<g><path style="opacity:1" fill="#0046ff" d="M 202.5,61.5 C 204.5,61.5 206.5,61.5 208.5,61.5C 202.494,68.3387 196.327,75.0053 190,81.5C 187.936,84.5437 185.936,87.5437 184,90.5C 180.99,93.2231 177.99,95.8898 175,98.5C 174.667,99.8333 174.333,101.167 174,102.5C 165.586,110.077 158.086,118.411 151.5,127.5C 150.423,128.705 149.09,129.372 147.5,129.5C 149.033,125.129 151.866,121.795 156,119.5C 162.684,111.812 169.017,103.812 175,95.5C 179.192,93.4557 181.692,90.1224 182.5,85.5C 189.195,77.3894 195.862,69.3894 202.5,61.5 Z"/></g>
<g><path style="opacity:1" fill="#ff6700" d="M 44.5,61.5 C 47.5,61.5 50.5,61.5 53.5,61.5C 44.3255,72.3547 35.3255,83.3547 26.5,94.5C 26.5,90.5 26.5,86.5 26.5,82.5C 29.4723,78.6963 32.9723,75.363 37,72.5C 39.0352,68.4011 41.5352,64.7345 44.5,61.5 Z"/></g>
<g><path style="opacity:1" fill="#ffa900" d="M 58.5,61.5 C 60.5,61.5 62.5,61.5 64.5,61.5C 56.4842,70.6928 48.9842,80.3594 42,90.5C 36.7646,95.7706 31.598,101.104 26.5,106.5C 26.5,104.5 26.5,102.5 26.5,100.5C 31.3168,92.8792 37.4835,86.5458 45,81.5C 49.2625,74.6319 53.7625,67.9652 58.5,61.5 Z"/></g>
<g><path style="opacity:1" fill="#25ff08" d="M 105.5,61.5 C 113.174,61.3336 120.841,61.5003 128.5,62C 129.71,63.0391 130.71,64.2058 131.5,65.5C 120.89,76.0701 111.223,87.4035 102.5,99.5C 97.4739,94.8053 92.4739,90.1387 87.5,85.5C 93.4974,77.5086 99.4974,69.5086 105.5,61.5 Z"/></g>
<g><path style="opacity:1" fill="#ff9000" d="M 53.5,61.5 C 55.1667,61.5 56.8333,61.5 58.5,61.5C 53.7625,67.9652 49.2625,74.6319 45,81.5C 37.4835,86.5458 31.3168,92.8792 26.5,100.5C 26.5,98.5 26.5,96.5 26.5,94.5C 35.3255,83.3547 44.3255,72.3547 53.5,61.5 Z"/></g>
<g><path style="opacity:1" fill="#ffd200" d="M 64.5,61.5 C 67.5,61.5 70.5,61.5 73.5,61.5C 72.2783,65.7251 69.6116,68.7251 65.5,70.5C 60.8873,75.9503 56.0539,81.2837 51,86.5C 43.0441,97.4539 34.8775,108.121 26.5,118.5C 26.5,114.5 26.5,110.5 26.5,106.5C 31.598,101.104 36.7646,95.7706 42,90.5C 48.9842,80.3594 56.4842,70.6928 64.5,61.5 Z"/></g>
<g><path style="opacity:1" fill="#015eff" d="M 198.5,61.5 C 199.833,61.5 201.167,61.5 202.5,61.5C 195.862,69.3894 189.195,77.3894 182.5,85.5C 181.692,90.1224 179.192,93.4557 175,95.5C 169.017,103.812 162.684,111.812 156,119.5C 151.866,121.795 149.033,125.129 147.5,129.5C 145.168,132.109 142.835,134.775 140.5,137.5C 139.5,137.167 138.833,136.5 138.5,135.5C 147.616,122.23 157.616,109.563 168.5,97.5C 169.86,94.7802 171.193,92.1136 172.5,89.5C 179.589,85.0766 184.922,79.0766 188.5,71.5C 191.854,68.0629 195.187,64.7296 198.5,61.5 Z"/></g>
<g><path style="opacity:1" fill="#0287ff" d="M 191.5,61.5 C 193.833,61.5 196.167,61.5 198.5,61.5C 195.187,64.7296 191.854,68.0629 188.5,71.5C 184.922,79.0766 179.589,85.0766 172.5,89.5C 170.446,92.2361 167.946,94.5695 165,96.5C 155.09,108.861 145.59,121.194 136.5,133.5C 134.833,132.5 133.5,131.167 132.5,129.5C 140.497,120.668 148.331,111.668 156,102.5C 159.04,100.614 161.706,98.2803 164,95.5C 168,89.5 172,83.5 176,77.5C 181.861,72.72 187.028,67.3866 191.5,61.5 Z"/></g>
<g><path style="opacity:1" fill="#eaff00" d="M 79.5,61.5 C 80.5,61.5 81.5,61.5 82.5,61.5C 77.5833,69.914 71.4167,77.2473 64,83.5C 56.3442,94.5362 48.0109,104.869 39,114.5C 34.9567,119.371 30.79,124.038 26.5,128.5C 26.5,126.833 26.5,125.167 26.5,123.5C 44.1374,102.858 61.804,82.1918 79.5,61.5 Z"/></g>
<g><path style="opacity:1" fill="#01fe7b" d="M 136.5,70.5 C 138.5,71.8333 140.167,73.5 141.5,75.5C 136.584,79.1699 132.584,83.6699 129.5,89C 127.779,89.7393 126.113,90.5726 124.5,91.5C 119.983,97.308 115.65,102.975 111.5,108.5C 110.167,107.833 109.167,106.833 108.5,105.5C 112.588,100.912 116.088,95.9117 119,90.5C 125.538,84.4043 131.372,77.7376 136.5,70.5 Z"/></g>
<g><path style="opacity:1" fill="#fef500" d="M 73.5,61.5 C 75.5,61.5 77.5,61.5 79.5,61.5C 61.804,82.1918 44.1374,102.858 26.5,123.5C 26.5,121.833 26.5,120.167 26.5,118.5C 34.8775,108.121 43.0441,97.4539 51,86.5C 56.0539,81.2837 60.8873,75.9503 65.5,70.5C 69.6116,68.7251 72.2783,65.7251 73.5,61.5 Z"/></g>
<g><path style="opacity:1" fill="#01ffcf" d="M 145.5,79.5 C 146.833,80.1667 147.833,81.1667 148.5,82.5C 147.602,83.1577 146.602,83.8243 145.5,84.5C 137.811,96.184 128.477,106.184 117.5,114.5C 116.833,114.5 116.5,114.167 116.5,113.5C 126.557,102.448 136.223,91.1144 145.5,79.5 Z"/></g>
<g><path style="opacity:1" fill="#02fe50" d="M 131.5,65.5 C 133.5,66.8333 135.167,68.5 136.5,70.5C 131.372,77.7376 125.538,84.4043 119,90.5C 116.088,95.9117 112.588,100.912 108.5,105.5C 106.167,103.833 104.167,101.833 102.5,99.5C 111.223,87.4035 120.89,76.0701 131.5,65.5 Z"/></g>
<g><path style="opacity:1" fill="#81ff00" d="M 99.5,61.5 C 101.5,61.5 103.5,61.5 105.5,61.5C 99.4974,69.5086 93.4974,77.5086 87.5,85.5C 86.448,85.3505 85.448,85.5172 84.5,86C 69.9652,100.702 55.2985,115.202 40.5,129.5C 54.8022,112.904 68.6355,95.9041 82,78.5C 85.647,75.7941 88.8136,72.6275 91.5,69C 95.1404,67.5658 97.8071,65.0658 99.5,61.5 Z"/></g>
<g><path style="opacity:1" fill="#02fef1" d="M 148.5,82.5 C 150.167,83.5 151.5,84.8333 152.5,86.5C 142.12,97.2145 132.453,108.548 123.5,120.5C 121.167,118.833 119.167,116.833 117.5,114.5C 128.477,106.184 137.811,96.184 145.5,84.5C 146.602,83.8243 147.602,83.1577 148.5,82.5 Z"/></g>
<g><path style="opacity:1" fill="#1306ff" d="M 209.5,61.5 C 214.511,61.3341 219.511,61.5007 224.5,62C 226.141,63.129 227.141,64.629 227.5,66.5C 221.908,69.9281 217.408,74.5948 214,80.5C 212,81.8333 210,83.1667 208,84.5C 202.672,91.9879 196.839,98.9879 190.5,105.5C 188.709,107.46 186.543,108.793 184,109.5C 173.031,122.398 162.197,135.398 151.5,148.5C 148.833,146.5 146.5,144.167 144.5,141.5C 148.173,137.161 152.173,133.161 156.5,129.5C 158.352,127.143 159.519,124.477 160,121.5C 163.035,118.963 165.535,115.963 167.5,112.5C 173.25,109.25 177.416,104.584 180,98.5C 184.83,94.3098 189.497,89.9765 194,85.5C 198.6,77.0798 203.767,69.0798 209.5,61.5 Z"/></g>
<g><path style="opacity:1" fill="#01fe9d" d="M 141.5,75.5 C 142.167,75.5 142.5,75.8333 142.5,76.5C 142.313,78.5643 141.813,80.5643 141,82.5C 131.022,91.2121 122.189,100.879 114.5,111.5C 113.167,110.833 112.167,109.833 111.5,108.5C 115.65,102.975 119.983,97.308 124.5,91.5C 126.113,90.5726 127.779,89.7393 129.5,89C 132.584,83.6699 136.584,79.1699 141.5,75.5 Z"/></g>
<g><path style="opacity:1" fill="#0030ff" d="M 208.5,61.5 C 208.833,61.5 209.167,61.5 209.5,61.5C 203.767,69.0798 198.6,77.0798 194,85.5C 189.497,89.9765 184.83,94.3098 180,98.5C 177.416,104.584 173.25,109.25 167.5,112.5C 165.535,115.963 163.035,118.963 160,121.5C 159.519,124.477 158.352,127.143 156.5,129.5C 152.173,133.161 148.173,137.161 144.5,141.5C 142.833,140.5 141.5,139.167 140.5,137.5C 142.835,134.775 145.168,132.109 147.5,129.5C 149.09,129.372 150.423,128.705 151.5,127.5C 158.086,118.411 165.586,110.077 174,102.5C 174.333,101.167 174.667,99.8333 175,98.5C 177.99,95.8898 180.99,93.2231 184,90.5C 185.936,87.5437 187.936,84.5437 190,81.5C 196.327,75.0053 202.494,68.3387 208.5,61.5 Z"/></g>
<g><path style="opacity:1" fill="#7e00ff" d="M 228.5,73.5 C 228.666,78.1785 228.499,82.8452 228,87.5C 205,110.5 182,133.5 159,156.5C 158.283,155.956 157.783,155.289 157.5,154.5C 162.411,150.092 167.245,145.425 172,140.5C 180.281,130.046 188.781,119.713 197.5,109.5C 199.561,106.73 202.061,104.396 205,102.5C 207.621,96.5536 211.621,91.8869 217,88.5C 218.333,84.6693 220.833,82.0026 224.5,80.5C 224.998,77.6737 226.331,75.3403 228.5,73.5 Z"/></g>
<g><path style="opacity:1" fill="#00feb8" d="M 142.5,76.5 C 143.833,77.1667 144.833,78.1667 145.5,79.5C 136.223,91.1144 126.557,102.448 116.5,113.5C 115.5,113.167 114.833,112.5 114.5,111.5C 122.189,100.879 131.022,91.2121 141,82.5C 141.813,80.5643 142.313,78.5643 142.5,76.5 Z"/></g>
<g><path style="opacity:1" fill="#02e3ff" d="M 152.5,86.5 C 153.833,87.1667 154.833,88.1667 155.5,89.5C 149.229,97.2897 143.062,105.29 137,113.5C 133.647,117.02 130.147,120.354 126.5,123.5C 125.167,122.833 124.167,121.833 123.5,120.5C 132.453,108.548 142.12,97.2145 152.5,86.5 Z"/></g>
<g><path style="opacity:1" fill="#0171ff" d="M 172.5,89.5 C 171.193,92.1136 169.86,94.7802 168.5,97.5C 157.616,109.563 147.616,122.23 138.5,135.5C 137.5,135.167 136.833,134.5 136.5,133.5C 145.59,121.194 155.09,108.861 165,96.5C 167.946,94.5695 170.446,92.2361 172.5,89.5 Z"/></g>
<g><path style="opacity:1" fill="#02bfff" d="M 155.5,89.5 C 156.605,90.6005 157.938,91.2671 159.5,91.5C 152.12,98.6089 145.953,106.609 141,115.5C 137.276,119.263 133.776,123.263 130.5,127.5C 128.833,126.5 127.5,125.167 126.5,123.5C 130.147,120.354 133.647,117.02 137,113.5C 143.062,105.29 149.229,97.2897 155.5,89.5 Z"/></g>
<g><path style="opacity:1" fill="#cdff00" d="M 82.5,61.5 C 84.1667,61.5 85.8333,61.5 87.5,61.5C 84.885,65.9538 82.0516,70.2871 79,74.5C 75.4563,76.0394 73.4563,78.7061 73,82.5C 68.4745,85.8688 65.1412,90.2021 63,95.5C 53.3345,105.099 44.3345,115.433 36,126.5C 32.2103,127.29 30.2103,129.624 30,133.5C 29.0513,135.093 27.8846,136.426 26.5,137.5C 26.5,134.5 26.5,131.5 26.5,128.5C 30.79,124.038 34.9567,119.371 39,114.5C 48.0109,104.869 56.3442,94.5362 64,83.5C 71.4167,77.2473 77.5833,69.914 82.5,61.5 Z"/></g>
<g><path style="opacity:1" fill="#a7ff00" d="M 87.5,61.5 C 91.5,61.5 95.5,61.5 99.5,61.5C 97.8071,65.0658 95.1404,67.5658 91.5,69C 88.8136,72.6275 85.647,75.7941 82,78.5C 68.6355,95.9041 54.8022,112.904 40.5,129.5C 36.2033,134.298 31.7033,138.965 27,143.5C 26.5045,141.527 26.3379,139.527 26.5,137.5C 27.8846,136.426 29.0513,135.093 30,133.5C 30.2103,129.624 32.2103,127.29 36,126.5C 44.3345,115.433 53.3345,105.099 63,95.5C 65.1412,90.2021 68.4745,85.8688 73,82.5C 73.4563,78.7061 75.4563,76.0394 79,74.5C 82.0516,70.2871 84.885,65.9538 87.5,61.5 Z"/></g>
<g><path style="opacity:1" fill="#02a5ff" d="M 191.5,61.5 C 187.028,67.3866 181.861,72.72 176,77.5C 172,83.5 168,89.5 164,95.5C 161.706,98.2803 159.04,100.614 156,102.5C 148.331,111.668 140.497,120.668 132.5,129.5C 131.5,129.167 130.833,128.5 130.5,127.5C 133.776,123.263 137.276,119.263 141,115.5C 145.953,106.609 152.12,98.6089 159.5,91.5C 169.632,81.8688 179.632,72.0355 189.5,62C 190.094,61.5357 190.761,61.369 191.5,61.5 Z"/></g>
<g><path style="opacity:1" fill="#4700ff" d="M 227.5,66.5 C 228.468,68.6074 228.802,70.9407 228.5,73.5C 226.331,75.3403 224.998,77.6737 224.5,80.5C 220.833,82.0026 218.333,84.6693 217,88.5C 211.621,91.8869 207.621,96.5536 205,102.5C 202.061,104.396 199.561,106.73 197.5,109.5C 188.781,119.713 180.281,130.046 172,140.5C 167.245,145.425 162.411,150.092 157.5,154.5C 155.167,152.833 153.167,150.833 151.5,148.5C 162.197,135.398 173.031,122.398 184,109.5C 186.543,108.793 188.709,107.46 190.5,105.5C 196.839,98.9879 202.672,91.9879 208,84.5C 210,83.1667 212,81.8333 214,80.5C 217.408,74.5948 221.908,69.9281 227.5,66.5 Z"/></g>
<g><path style="opacity:1" fill="#01fec6" d="M 110.5,117.5 C 111.833,118.167 112.833,119.167 113.5,120.5C 105.122,130.596 96.2883,140.263 87,149.5C 81.3939,156.394 76.5605,163.728 72.5,171.5C 70.6162,172.382 69.2829,173.882 68.5,176C 66.1311,176.536 64.1311,177.703 62.5,179.5C 60.8917,183.043 58.5584,186.043 55.5,188.5C 54.5435,190.075 53.8769,191.742 53.5,193.5C 51.1667,193.5 48.8333,193.5 46.5,193.5C 57.3696,179.784 68.8696,166.451 81,153.5C 82.5,151.167 84,148.833 85.5,146.5C 94.6971,137.55 103.03,127.883 110.5,117.5 Z"/></g>
<g><path style="opacity:1" fill="#02fef1" d="M 115.5,122.5 C 116.833,123.167 117.833,124.167 118.5,125.5C 98.8212,147.848 79.4879,170.514 60.5,193.5C 58.1667,193.5 55.8333,193.5 53.5,193.5C 53.8769,191.742 54.5435,190.075 55.5,188.5C 58.5584,186.043 60.8917,183.043 62.5,179.5C 64.1311,177.703 66.1311,176.536 68.5,176C 69.2829,173.882 70.6162,172.382 72.5,171.5C 73.2389,171.631 73.9056,171.464 74.5,171C 88.7398,155.24 102.406,139.073 115.5,122.5 Z"/></g>
<g><path style="opacity:1" fill="#c700ff" d="M 228.5,98.5 C 208.375,120.945 188.709,143.611 169.5,166.5C 167.37,164.873 165.37,163.04 163.5,161C 185,139.5 206.5,118 228,96.5C 228.464,97.0944 228.631,97.7611 228.5,98.5 Z"/></g>
<g><path style="opacity:1" fill="#01fe5e" d="M 100.5,107.5 C 101.833,108.167 102.833,109.167 103.5,110.5C 100.723,115.277 97.0565,118.944 92.5,121.5C 92.6567,122.873 92.49,124.207 92,125.5C 86.2302,132.183 80.5635,138.85 75,145.5C 70.1595,148.184 66.9928,152.184 65.5,157.5C 60.2359,160.926 55.4026,164.926 51,169.5C 47.4872,177.661 42.4872,184.661 36,190.5C 35.5172,191.448 35.3505,192.448 35.5,193.5C 33.5853,193.784 31.9187,193.451 30.5,192.5C 36.4962,185.157 42.1629,177.49 47.5,169.5C 50.7843,167.883 53.4509,165.55 55.5,162.5C 57.7501,157.757 60.5834,153.423 64,149.5C 64.4828,148.552 64.6495,147.552 64.5,146.5C 65.675,146.719 66.675,146.386 67.5,145.5C 75.5788,134.931 84.4122,125.264 94,116.5C 95.6833,113.009 97.8499,110.009 100.5,107.5 Z"/></g>
<g><path style="opacity:1" fill="#00fe78" d="M 103.5,110.5 C 104.167,110.5 104.5,110.833 104.5,111.5C 99.7327,118.658 94.2327,125.324 88,131.5C 86.2494,133.49 85.2494,135.823 85,138.5C 79.5819,141.92 75.5819,146.587 73,152.5C 69.3142,154.523 66.6475,157.523 65,161.5C 59.652,167.015 54.152,172.348 48.5,177.5C 46.7326,180.037 45.2326,182.703 44,185.5C 40.5159,187.146 38.3493,189.812 37.5,193.5C 36.8333,193.5 36.1667,193.5 35.5,193.5C 35.3505,192.448 35.5172,191.448 36,190.5C 42.4872,184.661 47.4872,177.661 51,169.5C 55.4026,164.926 60.2359,160.926 65.5,157.5C 66.9928,152.184 70.1595,148.184 75,145.5C 80.5635,138.85 86.2302,132.183 92,125.5C 92.49,124.207 92.6567,122.873 92.5,121.5C 97.0565,118.944 100.723,115.277 103.5,110.5 Z"/></g>
<g><path style="opacity:1" fill="#01d4ff" d="M 121.5,128.5 C 122.5,128.833 123.167,129.5 123.5,130.5C 105.647,151.373 87.6474,172.373 69.5,193.5C 68.1667,193.5 66.8333,193.5 65.5,193.5C 72.4691,185.356 79.3025,177.023 86,168.5C 88.1365,165.789 90.8032,163.789 94,162.5C 94.4813,159.523 95.6479,156.857 97.5,154.5C 105.182,145.487 113.182,136.82 121.5,128.5 Z"/></g>
<g><path style="opacity:1" fill="#ff007b" d="M 228.5,133.5 C 228.5,134.5 228.5,135.5 228.5,136.5C 220.922,142.967 214.755,150.634 210,159.5C 202.961,168.243 195.461,176.576 187.5,184.5C 186.167,183.833 185.167,182.833 184.5,181.5C 189.446,175.707 194.279,169.707 199,163.5C 208.875,153.624 218.709,143.624 228.5,133.5 Z"/></g>
<g><path style="opacity:1" fill="#ff0091" d="M 228.5,123.5 C 228.5,126.833 228.5,130.167 228.5,133.5C 218.709,143.624 208.875,153.624 199,163.5C 194.279,169.707 189.446,175.707 184.5,181.5C 183.5,181.167 182.833,180.5 182.5,179.5C 185.044,176.789 187.377,173.789 189.5,170.5C 193.12,170.046 195.287,168.046 196,164.5C 201.488,158.218 206.988,151.884 212.5,145.5C 213.309,143.929 213.643,142.262 213.5,140.5C 214.822,140.67 215.989,140.337 217,139.5C 220.594,133.971 224.428,128.637 228.5,123.5 Z"/></g>
<g><path style="opacity:1" fill="#01fea5" d="M 107.5,114.5 C 108.833,115.167 109.833,116.167 110.5,117.5C 103.03,127.883 94.6971,137.55 85.5,146.5C 84,148.833 82.5,151.167 81,153.5C 68.8696,166.451 57.3696,179.784 46.5,193.5C 44.8333,193.5 43.1667,193.5 41.5,193.5C 43.823,190.677 46.323,188.01 49,185.5C 51.4133,182.938 53.08,179.938 54,176.5C 57.7644,173.408 60.7644,169.741 63,165.5C 78.0133,148.654 92.8466,131.654 107.5,114.5 Z"/></g>
<g><path style="opacity:1" fill="#ff00d4" d="M 228.5,109.5 C 228.5,112.5 228.5,115.5 228.5,118.5C 223.946,124.538 219.113,130.538 214,136.5C 212.989,137.337 211.822,137.67 210.5,137.5C 210.657,138.873 210.49,140.207 210,141.5C 203.88,147.45 198.714,154.117 194.5,161.5C 190.641,164.653 187.474,168.319 185,172.5C 183.008,173.665 181.175,174.998 179.5,176.5C 177.833,175.5 176.5,174.167 175.5,172.5C 178.982,169.516 181.482,165.849 183,161.5C 184.307,160.228 185.807,159.228 187.5,158.5C 193.467,150.364 199.634,142.364 206,134.5C 209.82,132.526 212.487,129.526 214,125.5C 218.047,122.714 221.047,119.047 223,114.5C 224.839,112.799 226.673,111.132 228.5,109.5 Z"/></g>
<g><path style="opacity:1" fill="#ff003b" d="M 228.5,144.5 C 228.5,146.833 228.5,149.167 228.5,151.5C 217.34,162.744 206.84,174.744 197,187.5C 195.53,188.267 194.03,188.933 192.5,189.5C 191.833,189.5 191.5,189.167 191.5,188.5C 197.525,181.135 203.192,173.469 208.5,165.5C 212.131,163.368 215.298,160.701 218,157.5C 221.015,152.664 224.515,148.331 228.5,144.5 Z"/></g>
<g><path style="opacity:1" fill="#23ff0d" d="M 99.5,106.5 C 95.8632,108.639 92.6965,111.306 90,114.5C 88.2223,119.115 85.0556,122.115 80.5,123.5C 80.6495,124.552 80.4828,125.552 80,126.5C 67.5732,139.332 56.0732,152.998 45.5,167.5C 43.2529,168.245 41.4196,169.578 40,171.5C 36.581,175.979 32.9143,180.312 29,184.5C 28.5899,185.901 28.0899,187.234 27.5,188.5C 26.3403,176.674 26.1737,164.674 27,152.5C 46.5,133 66,113.5 85.5,94C 90.8233,97.1411 95.49,101.308 99.5,106.5 Z"/></g>
<g><path style="opacity:1" fill="#f200fd" d="M 228.5,98.5 C 228.5,102.167 228.5,105.833 228.5,109.5C 226.673,111.132 224.839,112.799 223,114.5C 221.047,119.047 218.047,122.714 214,125.5C 212.487,129.526 209.82,132.526 206,134.5C 199.634,142.364 193.467,150.364 187.5,158.5C 185.807,159.228 184.307,160.228 183,161.5C 181.482,165.849 178.982,169.516 175.5,172.5C 173.167,170.833 171.167,168.833 169.5,166.5C 188.709,143.611 208.375,120.945 228.5,98.5 Z"/></g>
<g><path style="opacity:1" fill="#01ffdf" d="M 113.5,120.5 C 114.5,120.833 115.167,121.5 115.5,122.5C 102.406,139.073 88.7398,155.24 74.5,171C 73.9056,171.464 73.2389,171.631 72.5,171.5C 76.5605,163.728 81.3939,156.394 87,149.5C 96.2883,140.263 105.122,130.596 113.5,120.5 Z"/></g>
<g><path style="opacity:1" fill="#00fe8b" d="M 104.5,111.5 C 105.833,112.167 106.833,113.167 107.5,114.5C 92.8466,131.654 78.0133,148.654 63,165.5C 60.7644,169.741 57.7644,173.408 54,176.5C 53.08,179.938 51.4133,182.938 49,185.5C 46.323,188.01 43.823,190.677 41.5,193.5C 40.1667,193.5 38.8333,193.5 37.5,193.5C 38.3493,189.812 40.5159,187.146 44,185.5C 45.2326,182.703 46.7326,180.037 48.5,177.5C 54.152,172.348 59.652,167.015 65,161.5C 66.6475,157.523 69.3142,154.523 73,152.5C 75.5819,146.587 79.5819,141.92 85,138.5C 85.2494,135.823 86.2494,133.49 88,131.5C 94.2327,125.324 99.7327,118.658 104.5,111.5 Z"/></g>
<g><path style="opacity:1" fill="#014dff" d="M 134.5,141.5 C 135.5,141.833 136.167,142.5 136.5,143.5C 132.021,146.323 129.021,150.323 127.5,155.5C 116.154,167.935 105.154,180.601 94.5,193.5C 93.1667,193.5 91.8333,193.5 90.5,193.5C 96.1384,186.18 102.138,179.18 108.5,172.5C 109.651,170.227 110.651,167.894 111.5,165.5C 114.455,163.585 116.789,161.085 118.5,158C 119.448,157.517 120.448,157.351 121.5,157.5C 121.608,155.217 122.441,153.217 124,151.5C 127.29,147.893 130.79,144.56 134.5,141.5 Z"/></g>
<g><path style="opacity:1" fill="#ff0007" d="M 228.5,151.5 C 228.962,164.599 228.462,177.599 227,190.5C 226.167,191.333 225.333,192.167 224.5,193C 214.833,193.667 205.167,193.667 195.5,193C 194.29,191.961 193.29,190.794 192.5,189.5C 194.03,188.933 195.53,188.267 197,187.5C 206.84,174.744 217.34,162.744 228.5,151.5 Z"/></g>
<g><path style="opacity:1" fill="#ff005e" d="M 228.5,136.5 C 228.5,139.167 228.5,141.833 228.5,144.5C 224.515,148.331 221.015,152.664 218,157.5C 215.298,160.701 212.131,163.368 208.5,165.5C 203.192,173.469 197.525,181.135 191.5,188.5C 189.833,187.5 188.5,186.167 187.5,184.5C 195.461,176.576 202.961,168.243 210,159.5C 214.755,150.634 220.922,142.967 228.5,136.5 Z"/></g>
<g><path style="opacity:1" fill="#00fe45" d="M 99.5,106.5 C 100.167,106.5 100.5,106.833 100.5,107.5C 97.8499,110.009 95.6833,113.009 94,116.5C 84.4122,125.264 75.5788,134.931 67.5,145.5C 66.675,146.386 65.675,146.719 64.5,146.5C 64.6495,147.552 64.4828,148.552 64,149.5C 60.5834,153.423 57.7501,157.757 55.5,162.5C 53.4509,165.55 50.7843,167.883 47.5,169.5C 42.1629,177.49 36.4962,185.157 30.5,192.5C 28.7376,191.738 27.7376,190.404 27.5,188.5C 28.0899,187.234 28.5899,185.901 29,184.5C 32.9143,180.312 36.581,175.979 40,171.5C 41.4196,169.578 43.2529,168.245 45.5,167.5C 56.0732,152.998 67.5732,139.332 80,126.5C 80.4828,125.552 80.6495,124.552 80.5,123.5C 85.0556,122.115 88.2223,119.115 90,114.5C 92.6965,111.306 95.8632,108.639 99.5,106.5 Z"/></g>
<g><path style="opacity:1" fill="#02b9ff" d="M 123.5,130.5 C 124.5,130.833 125.167,131.5 125.5,132.5C 117.59,141.721 109.757,151.055 102,160.5C 99.7315,164.038 97.7315,167.705 96,171.5C 94.9887,172.337 93.8221,172.67 92.5,172.5C 92.6495,173.552 92.4828,174.552 92,175.5C 86.5864,181.355 81.4198,187.355 76.5,193.5C 74.1667,193.5 71.8333,193.5 69.5,193.5C 87.6474,172.373 105.647,151.373 123.5,130.5 Z"/></g>
<g><path style="opacity:1" fill="#ff00ad" d="M 228.5,118.5 C 228.5,120.167 228.5,121.833 228.5,123.5C 224.428,128.637 220.594,133.971 217,139.5C 215.989,140.337 214.822,140.67 213.5,140.5C 213.643,142.262 213.309,143.929 212.5,145.5C 206.988,151.884 201.488,158.218 196,164.5C 195.287,168.046 193.12,170.046 189.5,170.5C 187.377,173.789 185.044,176.789 182.5,179.5C 181.167,178.833 180.167,177.833 179.5,176.5C 181.175,174.998 183.008,173.665 185,172.5C 187.474,168.319 190.641,164.653 194.5,161.5C 198.714,154.117 203.88,147.45 210,141.5C 210.49,140.207 210.657,138.873 210.5,137.5C 211.822,137.67 212.989,137.337 214,136.5C 219.113,130.538 223.946,124.538 228.5,118.5 Z"/></g>
<g><path style="opacity:1" fill="#027aff" d="M 129.5,136.5 C 130.5,136.833 131.167,137.5 131.5,138.5C 124.93,147.578 117.764,156.245 110,164.5C 109.027,166.392 108.36,168.392 108,170.5C 102.951,176.594 97.4507,182.26 91.5,187.5C 90.6279,189.45 89.9612,191.45 89.5,193.5C 87.5,193.5 85.5,193.5 83.5,193.5C 84.0649,190.579 85.2316,187.912 87,185.5C 92.5737,179.751 98.0737,173.751 103.5,167.5C 104.154,165.885 104.654,164.218 105,162.5C 111.672,156.827 118.006,150.827 124,144.5C 125.276,141.401 127.11,138.734 129.5,136.5 Z"/></g>
<g><path style="opacity:1" fill="#0032ff" d="M 136.5,143.5 C 137.833,144.167 138.833,145.167 139.5,146.5C 135.204,152.795 130.538,158.795 125.5,164.5C 123.063,165.803 120.896,167.47 119,169.5C 111.945,177.382 105.112,185.382 98.5,193.5C 97.1667,193.5 95.8333,193.5 94.5,193.5C 105.154,180.601 116.154,167.935 127.5,155.5C 129.021,150.323 132.021,146.323 136.5,143.5 Z"/></g>
<g><path style="opacity:1" fill="#01edff" d="M 118.5,125.5 C 119.833,126.167 120.833,127.167 121.5,128.5C 113.182,136.82 105.182,145.487 97.5,154.5C 95.6479,156.857 94.4813,159.523 94,162.5C 90.8032,163.789 88.1365,165.789 86,168.5C 79.3025,177.023 72.4691,185.356 65.5,193.5C 63.8333,193.5 62.1667,193.5 60.5,193.5C 79.4879,170.514 98.8212,147.848 118.5,125.5 Z"/></g>
<g><path style="opacity:1" fill="#029aff" d="M 125.5,132.5 C 127.167,133.5 128.5,134.833 129.5,136.5C 127.11,138.734 125.276,141.401 124,144.5C 118.006,150.827 111.672,156.827 105,162.5C 104.654,164.218 104.154,165.885 103.5,167.5C 98.0737,173.751 92.5737,179.751 87,185.5C 85.2316,187.912 84.0649,190.579 83.5,193.5C 81.1667,193.5 78.8333,193.5 76.5,193.5C 81.4198,187.355 86.5864,181.355 92,175.5C 92.4828,174.552 92.6495,173.552 92.5,172.5C 93.8221,172.67 94.9887,172.337 96,171.5C 97.7315,167.705 99.7315,164.038 102,160.5C 109.757,151.055 117.59,141.721 125.5,132.5 Z"/></g>
<g><path style="opacity:1" fill="#9d00ff" d="M 156.5,163.5 C 158.833,165.167 160.833,167.167 162.5,169.5C 155.836,177.828 148.836,185.828 141.5,193.5C 137.833,193.5 134.167,193.5 130.5,193.5C 138.714,183.046 147.381,173.046 156.5,163.5 Z"/></g>
<g><path style="opacity:1" fill="#de00fe" d="M 162.5,169.5 C 165.167,171.5 167.5,173.833 169.5,176.5C 164.157,181.844 159.157,187.511 154.5,193.5C 150.167,193.5 145.833,193.5 141.5,193.5C 148.836,185.828 155.836,177.828 162.5,169.5 Z"/></g>
<g><path style="opacity:1" fill="#ff00e7" d="M 169.5,176.5 C 171.167,177.5 172.5,178.833 173.5,180.5C 171.606,181.048 169.94,182.048 168.5,183.5C 166.963,186.96 165.297,190.293 163.5,193.5C 160.5,193.5 157.5,193.5 154.5,193.5C 159.157,187.511 164.157,181.844 169.5,176.5 Z"/></g>
<g><path style="opacity:1" fill="#0162ff" d="M 131.5,138.5 C 132.833,139.167 133.833,140.167 134.5,141.5C 130.79,144.56 127.29,147.893 124,151.5C 122.441,153.217 121.608,155.217 121.5,157.5C 120.448,157.351 119.448,157.517 118.5,158C 116.789,161.085 114.455,163.585 111.5,165.5C 110.651,167.894 109.651,170.227 108.5,172.5C 102.138,179.18 96.1384,186.18 90.5,193.5C 90.1667,193.5 89.8333,193.5 89.5,193.5C 89.9612,191.45 90.6279,189.45 91.5,187.5C 97.4507,182.26 102.951,176.594 108,170.5C 108.36,168.392 109.027,166.392 110,164.5C 117.764,156.245 124.93,147.578 131.5,138.5 Z"/></g>
<g><path style="opacity:1" fill="#3704ff" d="M 139.5,146.5 C 145.5,151.833 151.167,157.5 156.5,163.5C 147.381,173.046 138.714,183.046 130.5,193.5C 119.833,193.5 109.167,193.5 98.5,193.5C 105.112,185.382 111.945,177.382 119,169.5C 120.896,167.47 123.063,165.803 125.5,164.5C 130.538,158.795 135.204,152.795 139.5,146.5 Z"/></g>
<g><path style="opacity:1" fill="#ff00be" d="M 173.5,180.5 C 175.167,181.5 176.5,182.833 177.5,184.5C 174.728,187.694 171.728,190.694 168.5,193.5C 166.833,193.5 165.167,193.5 163.5,193.5C 165.297,190.293 166.963,186.96 168.5,183.5C 169.94,182.048 171.606,181.048 173.5,180.5 Z"/></g>
<g><path style="opacity:1" fill="#ff0082" d="M 177.5,184.5 C 180.631,187.129 183.631,189.962 186.5,193C 180.509,193.499 174.509,193.666 168.5,193.5C 171.728,190.694 174.728,187.694 177.5,184.5 Z"/></g>
</svg>
