<?xml version="1.0" encoding="UTF-8"?>
<!DOCTYPE svg PUBLIC "-//W3C//DTD SVG 1.1//EN" "http://www.w3.org/Graphics/SVG/1.1/DTD/svg11.dtd">
<svg xmlns="http://www.w3.org/2000/svg" version="1.1" width="256px" height="256px" style="shape-rendering:geometricPrecision; text-rendering:geometricPrecision; image-rendering:optimizeQuality; fill-rule:evenodd; clip-rule:evenodd" xmlns:xlink="http://www.w3.org/1999/xlink">
<g><path style="opacity:0.996" fill="#fc00fb" d="M 110.5,0.5 C 93.656,16.1741 76.3226,31.3408 58.5,46C 54.2235,49.7672 50.5569,53.9339 47.5,58.5C 46.5,58.5 45.5,58.5 44.5,58.5C 44.3893,57.8826 44.056,57.3826 43.5,57C 52.1288,50.7053 59.7955,43.3719 66.5,35C 73.1905,29.9686 79.8571,24.9686 86.5,20C 92.0663,13.269 98.0663,7.10233 104.5,1.5C 106.265,0.538616 108.265,0.205283 110.5,0.5 Z"/></g>
<g><path style="opacity:1" fill="#f91ddf" d="M 100.5,2.5 C 86.914,14.5973 73.2473,26.4307 59.5,38C 53.2177,46.0344 45.8844,52.7011 37.5,58C 39.8098,58.4966 42.1432,58.6633 44.5,58.5C 45.5,58.5 46.5,58.5 47.5,58.5C 48.8333,58.5 50.1667,58.5 51.5,58.5C 53.1667,58.5 54.8333,58.5 56.5,58.5C 60.5,58.5 64.5,58.5 68.5,58.5C 70.1667,58.5 71.8333,58.5 73.5,58.5C 76.1667,58.5 78.8333,58.5 81.5,58.5C 81.5,58.8333 81.5,59.1667 81.5,59.5C 62.1667,59.5 42.8333,59.5 23.5,59.5C 24.209,58.596 25.209,58.2627 26.5,58.5C 27.552,58.6495 28.552,58.4828 29.5,58C 41.4257,47.4169 53.4257,36.7502 65.5,26C 72.6926,24.3175 78.0259,20.1508 81.5,13.5C 85.7911,10.844 89.1245,7.84396 91.5,4.5C 94.2186,3.08699 97.2186,2.42032 100.5,2.5 Z"/></g>
<g><path style="opacity:0.954" fill="#ff00a5" d="M 71.5,11.5 C 55.6861,27.0835 39.0194,41.7501 21.5,55.5C 34.0608,36.2788 50.7275,21.6122 71.5,11.5 Z"/></g>
<g><path style="opacity:0.999" fill="#014cfe" d="M 190.5,16.5 C 192.153,16.6596 193.486,17.3263 194.5,18.5C 191.053,21.2688 187.386,23.7688 183.5,26C 176.984,31.6848 170.65,37.5182 164.5,43.5C 161.11,45.9122 157.777,48.2455 154.5,50.5C 152.735,51.4614 150.735,51.7947 148.5,51.5C 153.299,48.2377 158.299,45.0711 163.5,42C 172.114,32.8801 181.114,24.3801 190.5,16.5 Z"/></g>
<g><path style="opacity:1" fill="#a600fe" d="M 134.5,-0.5 C 136.5,-0.5 138.5,-0.5 140.5,-0.5C 132.656,6.18033 124.989,13.0137 117.5,20C 115.51,21.7506 113.177,22.7506 110.5,23C 104.19,28.9783 98.1901,35.3116 92.5,42C 85.6465,47.0285 79.3131,52.5285 73.5,58.5C 71.8333,58.5 70.1667,58.5 68.5,58.5C 90.5323,38.7973 112.532,19.1306 134.5,-0.5 Z"/></g>
<g><path style="opacity:1" fill="#1a03fe" d="M 161.5,4.5 C 169.449,5.81302 176.782,8.47968 183.5,12.5C 168.869,23.2742 154.869,35.1076 141.5,48C 137.672,49.6983 134.006,51.5317 130.5,53.5C 126.818,53.6653 123.152,53.4986 119.5,53C 120.706,51.9823 120.373,51.4823 118.5,51.5C 116.594,53.2424 114.26,54.2424 111.5,54.5C 110.167,54.3333 108.833,54.1667 107.5,54C 113.918,48.3145 120.585,42.9812 127.5,38C 131.246,32.9208 135.579,28.5875 140.5,25C 144.763,21.3334 148.763,17.3334 152.5,13C 156.633,11.3672 159.633,8.53382 161.5,4.5 Z"/></g>
<g><path style="opacity:1" fill="#0124fe" d="M 183.5,12.5 C 185.153,12.6596 186.486,13.3263 187.5,14.5C 175.793,23.6996 164.793,33.8663 154.5,45C 153.167,45.3333 151.833,45.6667 150.5,46C 148.201,48.8167 145.535,50.9833 142.5,52.5C 138.5,52.8333 134.5,53.1667 130.5,53.5C 134.006,51.5317 137.672,49.6983 141.5,48C 154.869,35.1076 168.869,23.2742 183.5,12.5 Z"/></g>
<g><path style="opacity:1" fill="#fe00f0" d="M 104.5,1.5 C 98.0663,7.10233 92.0663,13.269 86.5,20C 79.8571,24.9686 73.1905,29.9686 66.5,35C 59.7955,43.3719 52.1288,50.7053 43.5,57C 44.056,57.3826 44.3893,57.8826 44.5,58.5C 42.1432,58.6633 39.8098,58.4966 37.5,58C 45.8844,52.7011 53.2177,46.0344 59.5,38C 73.2473,26.4307 86.914,14.5973 100.5,2.5C 101.568,1.56552 102.901,1.23219 104.5,1.5 Z"/></g>
<g><path style="opacity:1" fill="#fe00ca" d="M 91.5,4.5 C 89.1245,7.84396 85.7911,10.844 81.5,13.5C 78.0259,20.1508 72.6926,24.3175 65.5,26C 53.4257,36.7502 41.4257,47.4169 29.5,58C 28.552,58.4828 27.552,58.6495 26.5,58.5C 39.0862,48.7496 50.5862,37.7496 61,25.5C 67.7415,19.5557 73.9082,13.889 79.5,8.5C 83.233,6.58896 87.233,5.25563 91.5,4.5 Z"/></g>
<g><path style="opacity:1" fill="#036ffe" d="M 195.5,19.5 C 197.853,20.3403 199.853,21.6736 201.5,23.5C 196.52,28.1449 191.52,32.8116 186.5,37.5C 180.875,39.9345 175.875,43.4345 171.5,48C 169.618,48.1981 167.952,48.6981 166.5,49.5C 166.5,49.8333 166.5,50.1667 166.5,50.5C 164.5,50.5 162.5,50.5 160.5,50.5C 171.815,39.8563 183.482,29.523 195.5,19.5 Z"/></g>
<g><path style="opacity:1" fill="#0159fe" d="M 194.5,18.5 C 195.167,18.5 195.5,18.8333 195.5,19.5C 183.482,29.523 171.815,39.8563 160.5,50.5C 158.5,50.5 156.5,50.5 154.5,50.5C 157.777,48.2455 161.11,45.9122 164.5,43.5C 170.65,37.5182 176.984,31.6848 183.5,26C 187.386,23.7688 191.053,21.2688 194.5,18.5 Z"/></g>
<g><path style="opacity:1" fill="#5402fe" d="M 154.5,2.5 C 157.067,2.72148 159.401,3.38815 161.5,4.5C 159.633,8.53382 156.633,11.3672 152.5,13C 148.763,17.3334 144.763,21.3334 140.5,25C 135.579,28.5875 131.246,32.9208 127.5,38C 120.585,42.9812 113.918,48.3145 107.5,54C 108.833,54.1667 110.167,54.3333 111.5,54.5C 114.26,54.2424 116.594,53.2424 118.5,51.5C 120.373,51.4823 120.706,51.9823 119.5,53C 123.152,53.4986 126.818,53.6653 130.5,53.5C 126.5,54.1667 122.5,54.8333 118.5,55.5C 114.167,55.5 109.833,55.5 105.5,55.5C 102.482,55.6646 99.4816,55.498 96.5,55C 98.0488,53.786 99.2155,52.286 100,50.5C 118.064,34.2627 136.23,18.2627 154.5,2.5 Z"/></g>
<g><path style="opacity:1" fill="#023bfe" d="M 187.5,14.5 C 189.027,14.427 190.027,15.0937 190.5,16.5C 181.114,24.3801 172.114,32.8801 163.5,42C 158.299,45.0711 153.299,48.2377 148.5,51.5C 147.833,51.8333 147.167,52.1667 146.5,52.5C 145.167,52.5 143.833,52.5 142.5,52.5C 145.535,50.9833 148.201,48.8167 150.5,46C 151.833,45.6667 153.167,45.3333 154.5,45C 164.793,33.8663 175.793,23.6996 187.5,14.5 Z"/></g>
<g><path style="opacity:1" fill="#028efe" d="M 201.5,23.5 C 203.404,23.7376 204.738,24.7376 205.5,26.5C 197.334,35.0532 188.334,42.3865 178.5,48.5C 174.5,48.8333 170.5,49.1667 166.5,49.5C 167.952,48.6981 169.618,48.1981 171.5,48C 175.875,43.4345 180.875,39.9345 186.5,37.5C 191.52,32.8116 196.52,28.1449 201.5,23.5 Z"/></g>
<g><path style="opacity:1" fill="#01bcfe" d="M 209.5,29.5 C 210.5,29.8333 211.167,30.5 211.5,31.5C 206.911,36.4858 202.245,41.4858 197.5,46.5C 194.119,46.4595 190.786,46.7929 187.5,47.5C 194.537,41.1285 201.871,35.1285 209.5,29.5 Z"/></g>
<g><path style="opacity:1" fill="#eb00fe" d="M 111.5,-0.5 C 114.167,-0.5 116.833,-0.5 119.5,-0.5C 97.4331,19.9032 74.7665,39.5698 51.5,58.5C 50.1667,58.5 48.8333,58.5 47.5,58.5C 50.5569,53.9339 54.2235,49.7672 58.5,46C 76.3226,31.3408 93.656,16.1741 110.5,0.5C 111.167,0.5 111.5,0.166667 111.5,-0.5 Z"/></g>
<g><path style="opacity:1" fill="#03a4fe" d="M 205.5,26.5 C 207.404,26.7376 208.738,27.7376 209.5,29.5C 201.871,35.1285 194.537,41.1285 187.5,47.5C 184.57,48.299 181.57,48.6323 178.5,48.5C 188.334,42.3865 197.334,35.0532 205.5,26.5 Z"/></g>
<g><path style="opacity:0.87" fill="#0af8f9" d="M 217.5,36.5 C 219.727,38.6068 221.727,40.9401 223.5,43.5C 219.524,44.2952 215.524,44.9619 211.5,45.5C 210.5,45.5 209.5,45.5 208.5,45.5C 210.187,43.8338 212.187,42.5005 214.5,41.5C 215.952,40.0603 216.952,38.3936 217.5,36.5 Z"/></g>
<g><path style="opacity:1" fill="#fd0abc" d="M 79.5,8.5 C 73.9082,13.889 67.7415,19.5557 61,25.5C 50.5862,37.7496 39.0862,48.7496 26.5,58.5C 25.209,58.2627 24.209,58.596 23.5,59.5C 23.6747,61.6208 23.3414,63.6208 22.5,65.5C 21.8333,65.5 21.1667,65.5 20.5,65.5C 18.8333,65.5 17.1667,65.5 15.5,65.5C 17.0002,61.827 19.0002,58.4937 21.5,55.5C 39.0194,41.7501 55.6861,27.0835 71.5,11.5C 74.1667,10.5 76.8333,9.5 79.5,8.5 Z"/></g>
<g><path style="opacity:1" fill="#9002fe" d="M 140.5,-0.5 C 141.167,-0.5 141.833,-0.5 142.5,-0.5C 143.568,0.434475 144.901,0.767809 146.5,0.5C 125.378,18.7861 104.712,37.6194 84.5,57C 87.4816,57.498 90.4816,57.6646 93.5,57.5C 93.5,57.8333 93.5,58.1667 93.5,58.5C 89.5,58.5 85.5,58.5 81.5,58.5C 78.8333,58.5 76.1667,58.5 73.5,58.5C 79.3131,52.5285 85.6465,47.0285 92.5,42C 98.1901,35.3116 104.19,28.9783 110.5,23C 113.177,22.7506 115.51,21.7506 117.5,20C 124.989,13.0137 132.656,6.18033 140.5,-0.5 Z"/></g>
<g><path style="opacity:1" fill="#d700fe" d="M 119.5,-0.5 C 121.167,-0.5 122.833,-0.5 124.5,-0.5C 121.854,3.6454 118.187,6.47873 113.5,8C 99.853,21.3112 85.853,34.3112 71.5,47C 66.7182,51.282 61.7182,55.1153 56.5,58.5C 54.8333,58.5 53.1667,58.5 51.5,58.5C 74.7665,39.5698 97.4331,19.9032 119.5,-0.5 Z"/></g>
<g><path style="opacity:1" fill="#03d9fe" d="M 211.5,31.5 C 213.909,32.7007 215.909,34.3674 217.5,36.5C 216.952,38.3936 215.952,40.0603 214.5,41.5C 212.187,42.5005 210.187,43.8338 208.5,45.5C 204.821,45.7244 201.154,46.0578 197.5,46.5C 202.245,41.4858 206.911,36.4858 211.5,31.5 Z"/></g>
<g><path style="opacity:1" fill="#bc00fe" d="M 124.5,-0.5 C 127.833,-0.5 131.167,-0.5 134.5,-0.5C 112.532,19.1306 90.5323,38.7973 68.5,58.5C 64.5,58.5 60.5,58.5 56.5,58.5C 61.7182,55.1153 66.7182,51.282 71.5,47C 85.853,34.3112 99.853,21.3112 113.5,8C 118.187,6.47873 121.854,3.6454 124.5,-0.5 Z"/></g>
<g><path style="opacity:1" fill="#7300fe" d="M 146.5,0.5 C 149.218,1.0427 151.885,1.70937 154.5,2.5C 136.23,18.2627 118.064,34.2627 100,50.5C 99.2155,52.286 98.0488,53.786 96.5,55C 99.4816,55.498 102.482,55.6646 105.5,55.5C 101.605,56.2248 97.6047,56.8914 93.5,57.5C 90.4816,57.6646 87.4816,57.498 84.5,57C 104.712,37.6194 125.378,18.7861 146.5,0.5 Z"/></g>
<g><path style="opacity:1" fill="#6bded6" d="M 208.5,45.5 C 209.5,45.5 210.5,45.5 211.5,45.5C 208.826,48.6826 205.826,51.8493 202.5,55C 205.146,55.4974 207.813,55.6641 210.5,55.5C 203.361,56.7071 196.028,57.3738 188.5,57.5C 191.158,53.8425 194.158,50.5092 197.5,47.5C 197.5,47.1667 197.5,46.8333 197.5,46.5C 201.154,46.0578 204.821,45.7244 208.5,45.5 Z"/></g>
<g><path style="opacity:1" fill="#66e9cf" d="M 223.5,43.5 C 224.5,43.8333 225.167,44.5 225.5,45.5C 222.369,48.1288 219.369,50.9621 216.5,54C 217.416,54.2784 218.082,54.7784 218.5,55.5C 215.833,55.5 213.167,55.5 210.5,55.5C 207.813,55.6641 205.146,55.4974 202.5,55C 205.826,51.8493 208.826,48.6826 211.5,45.5C 215.524,44.9619 219.524,44.2952 223.5,43.5 Z"/></g>
<g><path style="opacity:1" fill="#63b1db" d="M 197.5,46.5 C 197.5,46.8333 197.5,47.1667 197.5,47.5C 193.575,47.4299 189.909,48.0966 186.5,49.5C 182.116,49.1744 177.783,49.5078 173.5,50.5C 171.322,53.1768 168.989,55.6768 166.5,58C 162.848,58.4986 159.182,58.6653 155.5,58.5C 158.133,54.1718 161.799,51.5052 166.5,50.5C 166.5,50.1667 166.5,49.8333 166.5,49.5C 170.5,49.1667 174.5,48.8333 178.5,48.5C 181.57,48.6323 184.57,48.299 187.5,47.5C 190.786,46.7929 194.119,46.4595 197.5,46.5 Z"/></g>
<g><path style="opacity:1" fill="#79c2d7" d="M 186.5,49.5 C 184.796,52.223 182.629,54.5563 180,56.5C 179.517,57.448 179.351,58.448 179.5,59.5C 170.833,59.5 162.167,59.5 153.5,59.5C 153.842,58.6618 154.508,58.3284 155.5,58.5C 159.182,58.6653 162.848,58.4986 166.5,58C 168.989,55.6768 171.322,53.1768 173.5,50.5C 177.783,49.5078 182.116,49.1744 186.5,49.5 Z"/></g>
<g><path style="opacity:1" fill="#77eabd" d="M 225.5,45.5 C 226.974,46.4363 227.974,47.7697 228.5,49.5C 228.253,52.9387 228.586,56.272 229.5,59.5C 225.833,59.5 222.167,59.5 218.5,59.5C 218.5,59.1667 218.5,58.8333 218.5,58.5C 218.5,57.5 218.5,56.5 218.5,55.5C 218.082,54.7784 217.416,54.2784 216.5,54C 219.369,50.9621 222.369,48.1288 225.5,45.5 Z"/></g>
<g><path style="opacity:1" fill="#81abda" d="M 154.5,50.5 C 156.5,50.5 158.5,50.5 160.5,50.5C 162.5,50.5 164.5,50.5 166.5,50.5C 161.799,51.5052 158.133,54.1718 155.5,58.5C 154.508,58.3284 153.842,58.6618 153.5,59.5C 129.5,59.5 105.5,59.5 81.5,59.5C 81.5,59.1667 81.5,58.8333 81.5,58.5C 85.5,58.5 89.5,58.5 93.5,58.5C 108.5,58.5 123.5,58.5 138.5,58.5C 142.015,57.6547 144.681,55.6547 146.5,52.5C 147.167,52.1667 147.833,51.8333 148.5,51.5C 150.735,51.7947 152.735,51.4614 154.5,50.5 Z"/></g>
<g><path style="opacity:1" fill="#70ced8" d="M 197.5,47.5 C 194.158,50.5092 191.158,53.8425 188.5,57.5C 197.749,58.499 207.749,58.8323 218.5,58.5C 218.5,58.8333 218.5,59.1667 218.5,59.5C 205.5,59.5 192.5,59.5 179.5,59.5C 179.351,58.448 179.517,57.448 180,56.5C 182.629,54.5563 184.796,52.223 186.5,49.5C 189.909,48.0966 193.575,47.4299 197.5,47.5 Z"/></g>
<g><path style="opacity:1" fill="#618dd9" d="M 142.5,52.5 C 143.833,52.5 145.167,52.5 146.5,52.5C 144.681,55.6547 142.015,57.6547 138.5,58.5C 138.511,56.9826 139.177,55.8159 140.5,55C 136.05,53.8864 132.05,54.7197 128.5,57.5C 125.444,55.7108 122.111,55.0441 118.5,55.5C 122.5,54.8333 126.5,54.1667 130.5,53.5C 134.5,53.1667 138.5,52.8333 142.5,52.5 Z"/></g>
<g><path style="opacity:1" fill="#26fba6" d="M 228.5,49.5 C 231.313,52.4459 233.646,55.7792 235.5,59.5C 233.5,59.5 231.5,59.5 229.5,59.5C 228.586,56.272 228.253,52.9387 228.5,49.5 Z"/></g>
<g><path style="opacity:1" fill="#7594d9" d="M 138.5,58.5 C 123.5,58.5 108.5,58.5 93.5,58.5C 93.5,58.1667 93.5,57.8333 93.5,57.5C 97.6047,56.8914 101.605,56.2248 105.5,55.5C 109.833,55.5 114.167,55.5 118.5,55.5C 122.111,55.0441 125.444,55.7108 128.5,57.5C 132.05,54.7197 136.05,53.8864 140.5,55C 139.177,55.8159 138.511,56.9826 138.5,58.5 Z"/></g>
<g><path style="opacity:1" fill="#0fbdcb" d="M 210.5,55.5 C 213.167,55.5 215.833,55.5 218.5,55.5C 218.5,56.5 218.5,57.5 218.5,58.5C 207.749,58.8323 197.749,58.499 188.5,57.5C 196.028,57.3738 203.361,56.7071 210.5,55.5 Z"/></g>
<g><path style="opacity:1" fill="#d08bc3" d="M 15.5,65.5 C 17.1667,65.5 18.8333,65.5 20.5,65.5C 19.6267,67.8863 18.1267,69.8863 16,71.5C 15.5172,72.448 15.3505,73.448 15.5,74.5C 14.5269,72.0521 14.1936,69.3854 14.5,66.5C 14.5,65.8333 14.8333,65.5 15.5,65.5 Z"/></g>
<g><path style="opacity:1" fill="#c3a4cd" d="M 20.5,65.5 C 21.1667,65.5 21.8333,65.5 22.5,65.5C 22.5,72.8333 22.5,80.1667 22.5,87.5C 21.6618,87.1583 21.3284,86.4916 21.5,85.5C 21.6653,81.8183 21.4986,78.1516 21,74.5C 19.5736,76.7658 17.7402,78.4324 15.5,79.5C 15.5,77.8333 15.5,76.1667 15.5,74.5C 15.3505,73.448 15.5172,72.448 16,71.5C 18.1267,69.8863 19.6267,67.8863 20.5,65.5 Z"/></g>
<g><path style="opacity:1" fill="#ba96d6" d="M 21.5,85.5 C 18.1539,85.0555 16.9872,86.7221 18,90.5C 19.1855,88.4407 20.3521,88.274 21.5,90C 20.3955,91.7153 19.0622,93.2153 17.5,94.5C 17.0372,91.6697 16.3705,89.003 15.5,86.5C 15.5,84.5 15.5,82.5 15.5,80.5C 15.5,80.1667 15.5,79.8333 15.5,79.5C 17.7402,78.4324 19.5736,76.7658 21,74.5C 21.4986,78.1516 21.6653,81.8183 21.5,85.5 Z"/></g>
<g><path style="opacity:0.941" fill="#2dfe13" d="M 238.5,64.5 C 245.867,77.5968 250.867,91.5968 253.5,106.5C 248.843,109.992 244.343,113.659 240,117.5C 239.722,116.584 239.222,115.918 238.5,115.5C 238.5,98.5 238.5,81.5 238.5,64.5 Z"/></g>
<g><path style="opacity:0.832" fill="#fb17e3" d="M 14.5,66.5 C 14.1936,69.3854 14.5269,72.0521 15.5,74.5C 15.5,76.1667 15.5,77.8333 15.5,79.5C 15.5,79.8333 15.5,80.1667 15.5,80.5C 14.325,80.281 13.325,80.6143 12.5,81.5C 9.78231,84.5454 7.11564,87.5454 4.5,90.5C 6.76926,81.9732 10.1026,73.9732 14.5,66.5 Z"/></g>
<g><path style="opacity:1" fill="#dee3e7" d="M 23.5,59.5 C 42.8333,59.5 62.1667,59.5 81.5,59.5C 105.5,59.5 129.5,59.5 153.5,59.5C 162.167,59.5 170.833,59.5 179.5,59.5C 192.5,59.5 205.5,59.5 218.5,59.5C 222.167,59.5 225.833,59.5 229.5,59.5C 231.5,59.5 233.5,59.5 235.5,59.5C 236.674,60.5137 237.34,61.847 237.5,63.5C 237.5,92.8333 237.5,122.167 237.5,151.5C 237.5,162.833 237.5,174.167 237.5,185.5C 237.5,187.167 237.5,188.833 237.5,190.5C 235.913,194.683 233.579,198.35 230.5,201.5C 224.5,201.5 218.5,201.5 212.5,201.5C 209.167,201.5 205.833,201.5 202.5,201.5C 198.833,201.5 195.167,201.5 191.5,201.5C 185.167,201.5 178.833,201.5 172.5,201.5C 165.5,201.5 158.5,201.5 151.5,201.5C 143.833,201.5 136.167,201.5 128.5,201.5C 117.5,201.5 106.5,201.5 95.5,201.5C 89.1667,201.5 82.8333,201.5 76.5,201.5C 65.5,201.5 54.5,201.5 43.5,201.5C 36.8333,201.5 30.1667,201.5 23.5,201.5C 23.5,192.833 23.5,184.167 23.5,175.5C 23.8229,169.31 23.4896,163.31 22.5,157.5C 22.5,154.167 22.5,150.833 22.5,147.5C 22.5,127.5 22.5,107.5 22.5,87.5C 22.5,80.1667 22.5,72.8333 22.5,65.5C 23.3414,63.6208 23.6747,61.6208 23.5,59.5 Z"/></g>
<g><path style="opacity:1" fill="#13c4d7" d="M 228.5,147.5 C 202.5,147.5 176.5,147.5 150.5,147.5C 140.297,133.607 129.964,119.774 119.5,106C 116.594,106.852 114.094,108.685 112,111.5C 107.328,118.33 102.495,124.997 97.5,131.5C 86.8448,117.539 76.1781,103.539 65.5,89.5C 59.7132,95.6142 54.7132,102.281 50.5,109.5C 44.5,116.833 38.5,124.167 32.5,131.5C 32.5,110.5 32.5,89.5 32.5,68.5C 97.8333,68.5 163.167,68.5 228.5,68.5C 228.5,94.8333 228.5,121.167 228.5,147.5 Z"/></g>
<g><path style="opacity:0.951" fill="#ea01fd" d="M 15.5,80.5 C 15.5,82.5 15.5,84.5 15.5,86.5C 13.9445,95.4057 8.94455,101.739 0.5,105.5C 1.67636,100.461 3.00969,95.4614 4.5,90.5C 7.11564,87.5454 9.78231,84.5454 12.5,81.5C 13.325,80.6143 14.325,80.281 15.5,80.5 Z"/></g>
<g><path style="opacity:1" fill="#474f59" d="M 150.5,147.5 C 175.995,148.498 201.661,148.831 227.5,148.5C 227.5,162.5 227.5,176.5 227.5,190.5C 162.833,190.5 98.1667,190.5 33.5,190.5C 33.3334,171.164 33.5,151.83 34,132.5C 40.0094,125.127 45.5094,117.461 50.5,109.5C 54.7132,102.281 59.7132,95.6142 65.5,89.5C 76.1781,103.539 86.8448,117.539 97.5,131.5C 102.495,124.997 107.328,118.33 112,111.5C 114.094,108.685 116.594,106.852 119.5,106C 129.964,119.774 140.297,133.607 150.5,147.5 Z"/></g>
<g><path style="opacity:1" fill="#99d1a1" d="M 178.5,89.5 C 177.167,91.5 175.5,93.1667 173.5,94.5C 174.167,91.8333 175.833,90.1667 178.5,89.5 Z"/></g>
<g><path style="opacity:1" fill="#eed780" d="M 173.5,94.5 C 175.5,93.1667 177.167,91.5 178.5,89.5C 186.146,86.0236 192.98,87.357 199,93.5C 203.46,103.791 200.626,111.291 190.5,116C 181.535,118.268 175.369,115.101 172,106.5C 171.088,102.194 171.588,98.1936 173.5,94.5 Z"/></g>
<g><path style="opacity:1" fill="#9da1d9" d="M 21.5,85.5 C 21.3284,86.4916 21.6618,87.1583 22.5,87.5C 22.5,107.5 22.5,127.5 22.5,147.5C 22.1667,147.5 21.8333,147.5 21.5,147.5C 21.8168,143.298 21.4834,139.298 20.5,135.5C 20.5,131.5 20.5,127.5 20.5,123.5C 20.3645,120.449 20.6978,117.449 21.5,114.5C 18.8884,110.274 18.8884,106.108 21.5,102C 20.8979,100.437 20.0646,100.604 19,102.5C 18.7679,101.263 18.2679,100.263 17.5,99.5C 17.5,97.8333 17.5,96.1667 17.5,94.5C 19.0622,93.2153 20.3955,91.7153 21.5,90C 20.3521,88.274 19.1855,88.4407 18,90.5C 16.9872,86.7221 18.1539,85.0555 21.5,85.5 Z"/></g>
<g><path style="opacity:0.897" fill="#c408fe" d="M 15.5,86.5 C 16.3705,89.003 17.0372,91.6697 17.5,94.5C 17.5,96.1667 17.5,97.8333 17.5,99.5C 17.5,101.167 17.5,102.833 17.5,104.5C 16.7321,103.737 16.2321,102.737 16,101.5C 10.9426,106.39 5.44263,110.724 -0.5,114.5C -0.5,113.5 -0.5,112.5 -0.5,111.5C 0.461384,109.735 0.794717,107.735 0.5,105.5C 8.94455,101.739 13.9445,95.4057 15.5,86.5 Z"/></g>
<g><path style="opacity:1" fill="#8f8bda" d="M 17.5,99.5 C 18.2679,100.263 18.7679,101.263 19,102.5C 20.0646,100.604 20.8979,100.437 21.5,102C 18.8884,106.108 18.8884,110.274 21.5,114.5C 20.6978,117.449 20.3645,120.449 20.5,123.5C 19.6562,120.655 18.9896,117.655 18.5,114.5C 18.8128,110.958 18.4794,107.625 17.5,104.5C 17.5,102.833 17.5,101.167 17.5,99.5 Z"/></g>
<g><path style="opacity:1" fill="#75fe01" d="M 253.5,106.5 C 253.575,109.206 253.908,111.873 254.5,114.5C 248.613,117.549 243.779,121.882 240,127.5C 239.722,126.584 239.222,125.918 238.5,125.5C 238.5,122.167 238.5,118.833 238.5,115.5C 239.222,115.918 239.722,116.584 240,117.5C 244.343,113.659 248.843,109.992 253.5,106.5 Z"/></g>
<g><path style="opacity:1" fill="#9a02fe" d="M 17.5,104.5 C 18.4794,107.625 18.8128,110.958 18.5,114.5C 17.7784,114.082 17.2784,113.416 17,112.5C 11.2692,117.739 5.43591,122.739 -0.5,127.5C -0.5,123.167 -0.5,118.833 -0.5,114.5C 5.44263,110.724 10.9426,106.39 16,101.5C 16.2321,102.737 16.7321,103.737 17.5,104.5 Z"/></g>
<g><path style="opacity:1" fill="#91fe02" d="M 254.5,114.5 C 254.5,116.5 254.5,118.5 254.5,120.5C 248.866,124.467 243.866,129.134 239.5,134.5C 238.516,131.572 238.183,128.572 238.5,125.5C 239.222,125.918 239.722,126.584 240,127.5C 243.779,121.882 248.613,117.549 254.5,114.5 Z"/></g>
<g><path style="opacity:1" fill="#6401fe" d="M 18.5,114.5 C 18.9896,117.655 19.6562,120.655 20.5,123.5C 20.5,127.5 20.5,131.5 20.5,135.5C 19.8763,133.166 19.043,130.833 18,128.5C 12.5615,133.784 6.72821,138.45 0.5,142.5C 0.166667,142.5 -0.166667,142.5 -0.5,142.5C -0.5,137.5 -0.5,132.5 -0.5,127.5C 5.43591,122.739 11.2692,117.739 17,112.5C 17.2784,113.416 17.7784,114.082 18.5,114.5 Z"/></g>
<g><path style="opacity:1" fill="#b2fb31" d="M 237.5,63.5 C 238.167,63.5 238.5,63.8333 238.5,64.5C 238.5,81.5 238.5,98.5 238.5,115.5C 238.5,118.833 238.5,122.167 238.5,125.5C 238.183,128.572 238.516,131.572 239.5,134.5C 243.866,129.134 248.866,124.467 254.5,120.5C 254.5,124.5 254.5,128.5 254.5,132.5C 249.538,136.453 244.538,140.453 239.5,144.5C 238.526,146.743 238.192,149.076 238.5,151.5C 238.167,151.5 237.833,151.5 237.5,151.5C 237.5,122.167 237.5,92.8333 237.5,63.5 Z"/></g>
<g><path style="opacity:1" fill="#e4fe06" d="M 254.5,132.5 C 254.686,138.31 254.02,143.977 252.5,149.5C 247.877,152.289 244.044,155.955 241,160.5C 240.722,159.584 240.222,158.918 239.5,158.5C 239.167,158.5 238.833,158.5 238.5,158.5C 238.5,156.167 238.5,153.833 238.5,151.5C 238.192,149.076 238.526,146.743 239.5,144.5C 244.538,140.453 249.538,136.453 254.5,132.5 Z"/></g>
<g><path style="opacity:0.917" fill="#2301fe" d="M 20.5,135.5 C 20.666,140.844 20.4994,146.177 20,151.5C 14.8818,156.773 10.3818,162.439 6.5,168.5C 2.95148,160.298 0.951483,151.632 0.5,142.5C 6.72821,138.45 12.5615,133.784 18,128.5C 19.043,130.833 19.8763,133.166 20.5,135.5 Z"/></g>
<g><path style="opacity:1" fill="#0728fe" d="M 20.5,135.5 C 21.4834,139.298 21.8168,143.298 21.5,147.5C 21.5,152.5 21.5,157.5 21.5,162.5C 16.2135,165.453 11.8802,169.453 8.5,174.5C 7.26162,172.786 6.59495,170.786 6.5,168.5C 10.3818,162.439 14.8818,156.773 20,151.5C 20.4994,146.177 20.666,140.844 20.5,135.5 Z"/></g>
<g><path style="opacity:1" fill="#fee902" d="M 252.5,149.5 C 252.552,151.903 252.219,154.236 251.5,156.5C 247.835,159.333 244.668,162.666 242,166.5C 241.722,165.584 241.222,164.918 240.5,164.5C 239.539,162.735 239.205,160.735 239.5,158.5C 240.222,158.918 240.722,159.584 241,160.5C 244.044,155.955 247.877,152.289 252.5,149.5 Z"/></g>
<g><path style="opacity:1" fill="#d1dbb5" d="M 237.5,151.5 C 237.833,151.5 238.167,151.5 238.5,151.5C 238.5,153.833 238.5,156.167 238.5,158.5C 239.001,167.17 239.167,175.837 239,184.5C 238.617,185.056 238.117,185.389 237.5,185.5C 237.5,174.167 237.5,162.833 237.5,151.5 Z"/></g>
<g><path style="opacity:1" fill="#fdd603" d="M 251.5,156.5 C 250.946,159.746 249.946,162.746 248.5,165.5C 248.565,165.062 248.399,164.728 248,164.5C 246.281,167.288 244.115,169.621 241.5,171.5C 240.631,169.283 240.298,166.95 240.5,164.5C 241.222,164.918 241.722,165.584 242,166.5C 244.668,162.666 247.835,159.333 251.5,156.5 Z"/></g>
<g><path style="opacity:1" fill="#0048ff" d="M 21.5,162.5 C 21.6602,164.199 21.4935,165.866 21,167.5C 16.9992,170.669 13.1659,174.003 9.5,177.5C 8.89022,176.609 8.55688,175.609 8.5,174.5C 11.8802,169.453 16.2135,165.453 21.5,162.5 Z"/></g>
<g><path style="opacity:0.995" fill="#fdbe03" d="M 248.5,165.5 C 247.241,172.003 244.907,178.003 241.5,183.5C 241.5,179.5 241.5,175.5 241.5,171.5C 244.115,169.621 246.281,167.288 248,164.5C 248.399,164.728 248.565,165.062 248.5,165.5 Z"/></g>
<g><path style="opacity:0.955" fill="#1060fd" d="M 21.5,147.5 C 21.8333,147.5 22.1667,147.5 22.5,147.5C 22.5,150.833 22.5,154.167 22.5,157.5C 24.5723,167.342 21.9057,175.509 14.5,182C 13.552,182.483 12.552,182.649 11.5,182.5C 10.8333,180.833 10.1667,179.167 9.5,177.5C 13.1659,174.003 16.9992,170.669 21,167.5C 21.4935,165.866 21.6602,164.199 21.5,162.5C 21.5,157.5 21.5,152.5 21.5,147.5 Z"/></g>
<g><path style="opacity:1" fill="#d6c768" d="M 238.5,158.5 C 238.833,158.5 239.167,158.5 239.5,158.5C 239.205,160.735 239.539,162.735 240.5,164.5C 240.298,166.95 240.631,169.283 241.5,171.5C 241.5,175.5 241.5,179.5 241.5,183.5C 240.921,186.331 239.588,188.664 237.5,190.5C 237.5,188.833 237.5,187.167 237.5,185.5C 238.117,185.389 238.617,185.056 239,184.5C 239.167,175.837 239.001,167.17 238.5,158.5 Z"/></g>
<g><path style="opacity:1" fill="#317ffc" d="M 22.5,157.5 C 23.4896,163.31 23.8229,169.31 23.5,175.5C 22.8333,175.5 22.5,175.833 22.5,176.5C 20.9643,181.041 17.9643,184.375 13.5,186.5C 12.8333,185.167 12.1667,183.833 11.5,182.5C 12.552,182.649 13.552,182.483 14.5,182C 21.9057,175.509 24.5723,167.342 22.5,157.5 Z"/></g>
<g><path style="opacity:1" fill="#088afe" d="M 22.5,176.5 C 22.5,179.167 22.5,181.833 22.5,184.5C 19.4357,185.221 16.7691,186.555 14.5,188.5C 14.1667,187.833 13.8333,187.167 13.5,186.5C 17.9643,184.375 20.9643,181.041 22.5,176.5 Z"/></g>
<g><path style="opacity:0.99" fill="#07a2fe" d="M 22.5,184.5 C 22.6646,187.518 22.498,190.518 22,193.5C 21.6232,194.942 20.7899,195.942 19.5,196.5C 17.8333,193.833 16.1667,191.167 14.5,188.5C 16.7691,186.555 19.4357,185.221 22.5,184.5 Z"/></g>
<g><path style="opacity:1" fill="#637882" d="M 50.5,109.5 C 45.5094,117.461 40.0094,125.127 34,132.5C 33.5,151.83 33.3334,171.164 33.5,190.5C 98.1667,190.5 162.833,190.5 227.5,190.5C 227.5,176.5 227.5,162.5 227.5,148.5C 201.661,148.831 175.995,148.498 150.5,147.5C 176.5,147.5 202.5,147.5 228.5,147.5C 228.5,162.167 228.5,176.833 228.5,191.5C 163.167,191.5 97.8333,191.5 32.5,191.5C 32.5,171.5 32.5,151.5 32.5,131.5C 38.5,124.167 44.5,116.833 50.5,109.5 Z"/></g>
<g><path style="opacity:0.944" fill="#5dc8f6" d="M 23.5,175.5 C 23.5,184.167 23.5,192.833 23.5,201.5C 21.9373,200.055 20.604,198.389 19.5,196.5C 20.7899,195.942 21.6232,194.942 22,193.5C 22.498,190.518 22.6646,187.518 22.5,184.5C 22.5,181.833 22.5,179.167 22.5,176.5C 22.5,175.833 22.8333,175.5 23.5,175.5 Z"/></g>
<g><path style="opacity:1" fill="#80eabd" d="M 43.5,201.5 C 54.5,201.5 65.5,201.5 76.5,201.5C 76.5,201.833 76.5,202.167 76.5,202.5C 73.8333,202.5 71.1667,202.5 68.5,202.5C 66.8333,202.5 65.1667,202.5 63.5,202.5C 57.7053,202.44 52.0387,203.107 46.5,204.5C 44.5,204.5 42.5,204.5 40.5,204.5C 41.3065,203.272 42.3065,202.272 43.5,201.5 Z"/></g>
<g><path style="opacity:1" fill="#63eedc" d="M 23.5,201.5 C 30.1667,201.5 36.8333,201.5 43.5,201.5C 42.3065,202.272 41.3065,203.272 40.5,204.5C 36.6956,205.619 33.6956,207.953 31.5,211.5C 28.3637,208.571 25.697,205.238 23.5,201.5 Z"/></g>
<g><path style="opacity:1" fill="#00fe54" d="M 89.5,202.5 C 78.7536,211.401 68.0869,220.568 57.5,230C 55.9419,230.21 54.6085,230.71 53.5,231.5C 52.2905,231.068 51.2905,230.401 50.5,229.5C 59.9214,220.924 69.5881,212.424 79.5,204C 82.7928,203.174 86.1262,202.674 89.5,202.5 Z"/></g>
<g><path style="opacity:1" fill="#15fcd8" d="M 40.5,204.5 C 42.5,204.5 44.5,204.5 46.5,204.5C 45.3915,205.29 44.0581,205.79 42.5,206C 39.9983,209.333 37.3316,212.499 34.5,215.5C 33.5116,214.205 32.5116,212.872 31.5,211.5C 33.6956,207.953 36.6956,205.619 40.5,204.5 Z"/></g>
<g><path style="opacity:1" fill="#09fe6f" d="M 76.5,201.5 C 82.8333,201.5 89.1667,201.5 95.5,201.5C 93.7354,202.461 91.7354,202.795 89.5,202.5C 86.1262,202.674 82.7928,203.174 79.5,204C 69.5881,212.424 59.9214,220.924 50.5,229.5C 48.6115,228.396 46.9448,227.063 45.5,225.5C 47.5952,224.588 49.5952,223.421 51.5,222C 58.9587,214.001 67.292,207.501 76.5,202.5C 76.5,202.167 76.5,201.833 76.5,201.5 Z"/></g>
<g><path style="opacity:1" fill="#feee00" d="M 190.5,202.5 C 190.833,202.5 191.167,202.5 191.5,202.5C 192.675,202.281 193.675,202.614 194.5,203.5C 182.003,215.492 169.003,226.992 155.5,238C 152.167,241.667 148.833,245.333 145.5,249C 141.812,249.195 139.478,251.029 138.5,254.5C 137.5,254.5 136.5,254.5 135.5,254.5C 142.606,247.223 149.606,239.723 156.5,232C 168.354,222.823 179.688,212.989 190.5,202.5 Z"/></g>
<g><path style="opacity:0.995" fill="#ffb100" d="M 212.5,202.5 C 212.938,202.435 213.272,202.601 213.5,203C 211.5,205.667 209.5,208.333 207.5,211C 200.324,215.755 193.324,220.755 186.5,226C 178.463,233.705 170.13,241.039 161.5,248C 160.748,248.671 160.414,249.504 160.5,250.5C 158.5,250.833 156.5,251.167 154.5,251.5C 155.924,247.953 158.591,246.12 162.5,246C 166.648,241.147 171.315,236.98 176.5,233.5C 178.78,228.72 182.446,225.553 187.5,224C 195.375,216.382 203.708,209.215 212.5,202.5 Z"/></g>
<g><path style="opacity:1" fill="#12fdbe" d="M 63.5,202.5 C 59.5307,203.185 55.864,204.685 52.5,207C 48.9662,210.869 45.1328,214.369 41,217.5C 40.4867,218.527 39.9867,219.527 39.5,220.5C 37.5,219.167 35.8333,217.5 34.5,215.5C 37.3316,212.499 39.9983,209.333 42.5,206C 44.0581,205.79 45.3915,205.29 46.5,204.5C 52.0387,203.107 57.7053,202.44 63.5,202.5 Z"/></g>
<g><path style="opacity:1" fill="#05fea1" d="M 63.5,202.5 C 65.1667,202.5 66.8333,202.5 68.5,202.5C 63.9912,203.271 60.6579,205.771 58.5,210C 53.0545,213.936 47.7211,218.103 42.5,222.5C 41.5,221.833 40.5,221.167 39.5,220.5C 39.9867,219.527 40.4867,218.527 41,217.5C 45.1328,214.369 48.9662,210.869 52.5,207C 55.864,204.685 59.5307,203.185 63.5,202.5 Z"/></g>
<g><path style="opacity:1" fill="#0efe3c" d="M 95.5,201.5 C 106.5,201.5 117.5,201.5 128.5,201.5C 128.5,201.833 128.5,202.167 128.5,202.5C 127.833,202.5 127.167,202.5 126.5,202.5C 115.769,202.097 105.102,202.597 94.5,204C 82.6194,214.387 70.9528,224.887 59.5,235.5C 57.2048,234.525 55.2048,233.192 53.5,231.5C 54.6085,230.71 55.9419,230.21 57.5,230C 68.0869,220.568 78.7536,211.401 89.5,202.5C 91.7354,202.795 93.7354,202.461 95.5,201.5 Z"/></g>
<g><path style="opacity:1" fill="#e7fe07" d="M 172.5,201.5 C 178.833,201.5 185.167,201.5 191.5,201.5C 191.5,201.833 191.5,202.167 191.5,202.5C 191.167,202.5 190.833,202.5 190.5,202.5C 186.216,201.923 183.216,203.59 181.5,207.5C 178.967,209.191 176.3,210.691 173.5,212C 157.207,226.808 140.54,240.975 123.5,254.5C 122.167,254.5 120.833,254.5 119.5,254.5C 122.824,251.795 125.824,248.629 128.5,245C 130.167,244.667 131.833,244.333 133.5,244C 146.167,232.667 158.833,221.333 171.5,210C 172.833,209.667 174.167,209.333 175.5,209C 177.539,206.626 179.872,204.626 182.5,203C 180.866,202.506 179.199,202.34 177.5,202.5C 175.585,202.784 173.919,202.451 172.5,201.5 Z"/></g>
<g><path style="opacity:1" fill="#fe8900" d="M 229.5,202.5 C 229.672,203.492 229.338,204.158 228.5,204.5C 228.565,204.062 228.399,203.728 228,203.5C 219.261,211.451 210.427,219.284 201.5,227C 194.009,230.746 187.676,235.912 182.5,242.5C 179.833,243.5 177.167,244.5 174.5,245.5C 178.291,239.875 182.957,235.042 188.5,231C 193.098,228.73 197.431,226.063 201.5,223C 206.876,214.991 213.543,208.325 221.5,203C 224.146,202.503 226.813,202.336 229.5,202.5 Z"/></g>
<g><path style="opacity:1" fill="#02fe89" d="M 68.5,202.5 C 71.1667,202.5 73.8333,202.5 76.5,202.5C 67.292,207.501 58.9587,214.001 51.5,222C 49.5952,223.421 47.5952,224.588 45.5,225.5C 44.1667,224.833 43.1667,223.833 42.5,222.5C 47.7211,218.103 53.0545,213.936 58.5,210C 60.6579,205.771 63.9912,203.271 68.5,202.5 Z"/></g>
<g><path style="opacity:1" fill="#fedc01" d="M 191.5,202.5 C 191.5,202.167 191.5,201.833 191.5,201.5C 195.167,201.5 198.833,201.5 202.5,201.5C 203.317,203.308 202.65,204.808 200.5,206C 196.783,209.385 192.783,212.385 188.5,215C 176.346,227.313 163.346,238.813 149.5,249.5C 148.37,250.622 147.703,251.956 147.5,253.5C 144.455,253.508 141.455,253.841 138.5,254.5C 139.478,251.029 141.812,249.195 145.5,249C 148.833,245.333 152.167,241.667 155.5,238C 169.003,226.992 182.003,215.492 194.5,203.5C 193.675,202.614 192.675,202.281 191.5,202.5 Z"/></g>
<g><path style="opacity:1" fill="#17fe09" d="M 126.5,202.5 C 126.611,203.117 126.944,203.617 127.5,204C 125.356,206.979 123.022,209.812 120.5,212.5C 117.326,213.977 114.66,216.143 112.5,219C 110.913,219.862 109.246,220.529 107.5,221C 102.021,226.235 96.3544,231.235 90.5,236C 86.9658,238.931 84.2992,242.431 82.5,246.5C 74.1358,244.15 66.4691,240.483 59.5,235.5C 70.9528,224.887 82.6194,214.387 94.5,204C 105.102,202.597 115.769,202.097 126.5,202.5 Z"/></g>
<g><path style="opacity:1" fill="#d8fe00" d="M 177.5,202.5 C 179.199,202.34 180.866,202.506 182.5,203C 179.872,204.626 177.539,206.626 175.5,209C 174.167,209.333 172.833,209.667 171.5,210C 158.833,221.333 146.167,232.667 133.5,244C 131.833,244.333 130.167,244.667 128.5,245C 125.824,248.629 122.824,251.795 119.5,254.5C 118.167,254.5 116.833,254.5 115.5,254.5C 126.137,245.82 136.47,236.654 146.5,227C 148.275,225.561 150.275,224.561 152.5,224C 155.266,220.478 158.266,217.145 161.5,214C 162.833,213.667 164.167,213.333 165.5,213C 169.385,209.247 173.385,205.747 177.5,202.5 Z"/></g>
<g><path style="opacity:1" fill="#ff7500" d="M 228.5,204.5 C 216.496,221.169 201.162,233.835 182.5,242.5C 187.676,235.912 194.009,230.746 201.5,227C 210.427,219.284 219.261,211.451 228,203.5C 228.399,203.728 228.565,204.062 228.5,204.5 Z"/></g>
<g><path style="opacity:1" fill="#c1fe05" d="M 151.5,201.5 C 158.5,201.5 165.5,201.5 172.5,201.5C 173.919,202.451 175.585,202.784 177.5,202.5C 173.385,205.747 169.385,209.247 165.5,213C 164.167,213.333 162.833,213.667 161.5,214C 158.266,217.145 155.266,220.478 152.5,224C 150.275,224.561 148.275,225.561 146.5,227C 136.47,236.654 126.137,245.82 115.5,254.5C 114.041,254.567 112.708,254.234 111.5,253.5C 114.753,247.747 119.42,243.58 125.5,241C 128.734,237.855 131.734,234.522 134.5,231C 145.116,221.725 155.783,212.391 166.5,203C 162.514,202.501 158.514,202.334 154.5,202.5C 153.209,202.737 152.209,202.404 151.5,201.5 Z"/></g>
<g><path style="opacity:1" fill="#92fe03" d="M 128.5,202.5 C 128.5,202.167 128.5,201.833 128.5,201.5C 136.167,201.5 143.833,201.5 151.5,201.5C 152.209,202.404 153.209,202.737 154.5,202.5C 140.948,218.375 125.948,232.875 109.5,246C 107.21,247.777 105.543,249.944 104.5,252.5C 101.572,252.435 98.9052,251.768 96.5,250.5C 97.8816,249.199 99.5483,248.366 101.5,248C 102.79,245.708 104.457,243.708 106.5,242C 117.091,233.219 127.424,224.219 137.5,215C 140.578,212.248 143.911,209.914 147.5,208C 152.03,203.619 151.03,201.785 144.5,202.5C 139.167,202.5 133.833,202.5 128.5,202.5 Z"/></g>
<g><path style="opacity:1" fill="#4ffe00" d="M 126.5,202.5 C 127.167,202.5 127.833,202.5 128.5,202.5C 133.833,202.5 139.167,202.5 144.5,202.5C 139.416,207.759 134.416,213.259 129.5,219C 124.671,220.405 121.004,223.239 118.5,227.5C 107.935,232.731 99.6017,240.398 93.5,250.5C 89.6212,249.542 85.9545,248.209 82.5,246.5C 84.2992,242.431 86.9658,238.931 90.5,236C 96.3544,231.235 102.021,226.235 107.5,221C 109.246,220.529 110.913,219.862 112.5,219C 114.66,216.143 117.326,213.977 120.5,212.5C 123.022,209.812 125.356,206.979 127.5,204C 126.944,203.617 126.611,203.117 126.5,202.5 Z"/></g>
<g><path style="opacity:1" fill="#f5fd00" d="M 190.5,202.5 C 179.688,212.989 168.354,222.823 156.5,232C 149.606,239.723 142.606,247.223 135.5,254.5C 131.5,254.5 127.5,254.5 123.5,254.5C 140.54,240.975 157.207,226.808 173.5,212C 176.3,210.691 178.967,209.191 181.5,207.5C 183.216,203.59 186.216,201.923 190.5,202.5 Z"/></g>
<g><path style="opacity:1" fill="#fea104" d="M 212.5,202.5 C 212.5,202.167 212.5,201.833 212.5,201.5C 218.5,201.5 224.5,201.5 230.5,201.5C 230.5,202.167 230.167,202.5 229.5,202.5C 226.813,202.336 224.146,202.503 221.5,203C 213.543,208.325 206.876,214.991 201.5,223C 197.431,226.063 193.098,228.73 188.5,231C 182.957,235.042 178.291,239.875 174.5,245.5C 170.044,247.542 165.377,249.209 160.5,250.5C 160.414,249.504 160.748,248.671 161.5,248C 170.13,241.039 178.463,233.705 186.5,226C 193.324,220.755 200.324,215.755 207.5,211C 209.5,208.333 211.5,205.667 213.5,203C 213.272,202.601 212.938,202.435 212.5,202.5 Z"/></g>
<g><path style="opacity:1" fill="#fec403" d="M 202.5,201.5 C 205.833,201.5 209.167,201.5 212.5,201.5C 212.5,201.833 212.5,202.167 212.5,202.5C 203.708,209.215 195.375,216.382 187.5,224C 182.446,225.553 178.78,228.72 176.5,233.5C 171.315,236.98 166.648,241.147 162.5,246C 158.591,246.12 155.924,247.953 154.5,251.5C 152.167,252.167 149.833,252.833 147.5,253.5C 147.703,251.956 148.37,250.622 149.5,249.5C 163.346,238.813 176.346,227.313 188.5,215C 192.783,212.385 196.783,209.385 200.5,206C 202.65,204.808 203.317,203.308 202.5,201.5 Z"/></g>
<g><path style="opacity:1" fill="#a6fe00" d="M 154.5,202.5 C 158.514,202.334 162.514,202.501 166.5,203C 155.783,212.391 145.116,221.725 134.5,231C 131.734,234.522 128.734,237.855 125.5,241C 119.42,243.58 114.753,247.747 111.5,253.5C 109.05,253.702 106.717,253.369 104.5,252.5C 105.543,249.944 107.21,247.777 109.5,246C 125.948,232.875 140.948,218.375 154.5,202.5 Z"/></g>
<g><path style="opacity:0.964" fill="#78fe00" d="M 144.5,202.5 C 151.03,201.785 152.03,203.619 147.5,208C 143.911,209.914 140.578,212.248 137.5,215C 127.424,224.219 117.091,233.219 106.5,242C 104.457,243.708 102.79,245.708 101.5,248C 99.5483,248.366 97.8816,249.199 96.5,250.5C 95.5,250.5 94.5,250.5 93.5,250.5C 99.6017,240.398 107.935,232.731 118.5,227.5C 121.004,223.239 124.671,220.405 129.5,219C 134.416,213.259 139.416,207.759 144.5,202.5 Z"/></g>
</svg>
