<?xml version="1.0" encoding="UTF-8"?>
<!DOCTYPE svg PUBLIC "-//W3C//DTD SVG 1.1//EN" "http://www.w3.org/Graphics/SVG/1.1/DTD/svg11.dtd">
<svg xmlns="http://www.w3.org/2000/svg" version="1.1" width="256px" height="256px" style="shape-rendering:geometricPrecision; text-rendering:geometricPrecision; image-rendering:optimizeQuality; fill-rule:evenodd; clip-rule:evenodd" xmlns:xlink="http://www.w3.org/1999/xlink">
<g><path style="opacity:0.004" fill="#00ff00" d="M 104.5,0.5 C 105.833,1.16667 105.833,1.16667 104.5,0.5 Z"/></g>
<g><path style="opacity:0.008" fill="#00aa00" d="M 95.5,2.5 C 96.8333,3.16667 96.8333,3.16667 95.5,2.5 Z"/></g>
<g><path style="opacity:0.008" fill="#00aa00" d="M 91.5,3.5 C 92.8333,4.16667 92.8333,4.16667 91.5,3.5 Z"/></g>
<g><path style="opacity:0.008" fill="#00aa00" d="M 87.5,4.5 C 88.8333,5.16667 88.8333,5.16667 87.5,4.5 Z"/></g>
<g><path style="opacity:0.004" fill="#00ff00" d="M 164.5,4.5 C 165.833,5.16667 165.833,5.16667 164.5,4.5 Z"/></g>
<g><path style="opacity:0.004" fill="#008000" d="M 167.5,5.5 C 168.833,6.16667 168.833,6.16667 167.5,5.5 Z"/></g>
<g><path style="opacity:0.004" fill="#008000" d="M 170.5,6.5 C 171.833,7.16667 171.833,7.16667 170.5,6.5 Z"/></g>
<g><path style="opacity:0.012" fill="#008000" d="M 79.5,7.5 C 80.8333,8.16667 80.8333,8.16667 79.5,7.5 Z"/></g>
<g><path style="opacity:0.004" fill="#008000" d="M 173.5,7.5 C 174.833,8.16667 174.833,8.16667 173.5,7.5 Z"/></g>
<g><path style="opacity:0.004" fill="#008000" d="M 176.5,8.5 C 177.833,9.16667 177.833,9.16667 176.5,8.5 Z"/></g>
<g><path style="opacity:0.004" fill="#008000" d="M 70.5,11.5 C 71.8333,12.1667 71.8333,12.1667 70.5,11.5 Z"/></g>
<g><path style="opacity:0.008" fill="#00aa00" d="M 182.5,11.5 C 183.833,12.1667 183.833,12.1667 182.5,11.5 Z"/></g>
<g><path style="opacity:0.016" fill="#009900" d="M 68.5,12.5 C 69.8333,13.1667 69.8333,13.1667 68.5,12.5 Z"/></g>
<g><path style="opacity:0.012" fill="#008000" d="M 188.5,14.5 C 189.833,15.1667 189.833,15.1667 188.5,14.5 Z"/></g>
<g><path style="opacity:0.004" fill="#00ff00" d="M 59.5,17.5 C 60.8333,18.1667 60.8333,18.1667 59.5,17.5 Z"/></g>
<g><path style="opacity:0.012" fill="#008000" d="M 193.5,17.5 C 194.833,18.1667 194.833,18.1667 193.5,17.5 Z"/></g>
<g><path style="opacity:0.004" fill="#008000" d="M 54.5,20.5 C 55.8333,21.1667 55.8333,21.1667 54.5,20.5 Z"/></g>
<g><path style="opacity:0.004" fill="#00ff00" d="M 202.5,23.5 C 203.833,24.1667 203.833,24.1667 202.5,23.5 Z"/></g>
<g><path style="opacity:0.004" fill="#00ff00" d="M 46.5,26.5 C 47.8333,27.1667 47.8333,27.1667 46.5,26.5 Z"/></g>
<g><path style="opacity:0.008" fill="#00aa00" d="M 206.5,26.5 C 207.833,27.1667 207.833,27.1667 206.5,26.5 Z"/></g>
<g><path style="opacity:0.004" fill="#00ff00" d="M 38.5,33.5 C 39.8333,34.1667 39.8333,34.1667 38.5,33.5 Z"/></g>
<g><path style="opacity:0.008" fill="#00aa00" d="M 214.5,33.5 C 215.833,34.1667 215.833,34.1667 214.5,33.5 Z"/></g>
<g><path style="opacity:0.012" fill="#008000" d="M 219.5,38.5 C 218.833,37.1667 218.833,37.1667 219.5,38.5 Z"/></g>
<g><path style="opacity:0.004" fill="#008000" d="M 33.5,38.5 C 34.8333,39.1667 34.8333,39.1667 33.5,38.5 Z"/></g>
<g><path style="opacity:0.004" fill="#008000" d="M 219.5,38.5 C 220.833,39.1667 220.833,39.1667 219.5,38.5 Z"/></g>
<g><path style="opacity:0.004" fill="#008000" d="M 226.5,46.5 C 227.833,47.1667 227.833,47.1667 226.5,46.5 Z"/></g>
<g><path style="opacity:1" fill="#7abf77" d="M 70.5,48.5 C 80.3247,47.3417 90.3247,47.1751 100.5,48C 106.416,49.748 110.083,53.5813 111.5,59.5C 108.816,57.8277 106.816,55.4944 105.5,52.5C 103.123,51.4147 100.789,50.2481 98.5,49C 89.1726,48.5002 79.8393,48.3335 70.5,48.5 Z"/></g>
<g><path style="opacity:1" fill="#f8fbf8" d="M 70.5,48.5 C 79.8393,48.3335 89.1726,48.5002 98.5,49C 100.789,50.2481 103.123,51.4147 105.5,52.5C 106.816,55.4944 108.816,57.8277 111.5,59.5C 111.41,62.6412 112.41,65.3078 114.5,67.5C 137.33,68.3321 160.33,68.8321 183.5,69C 186.597,70.2734 189.264,72.1067 191.5,74.5C 192.825,101.821 192.825,129.154 191.5,156.5C 191.167,158.833 189.833,160.167 187.5,160.5C 186.078,160.709 184.745,161.209 183.5,162C 145.501,162.5 107.501,162.667 69.5,162.5C 67.2166,162.392 65.2166,161.559 63.5,160C 62.7476,159.329 62.4142,158.496 62.5,157.5C 62.1077,155.821 61.6077,154.154 61,152.5C 60.3333,121.167 60.3333,89.8333 61,58.5C 62.2433,55.4241 64.0767,52.7574 66.5,50.5C 67.5137,49.3263 68.847,48.6596 70.5,48.5 Z"/></g>
<g><path style="opacity:0.004" fill="#008000" d="M 23.5,50.5 C 24.8333,51.1667 24.8333,51.1667 23.5,50.5 Z"/></g>
<g><path style="opacity:0.004" fill="#008000" d="M 229.5,50.5 C 230.833,51.1667 230.833,51.1667 229.5,50.5 Z"/></g>
<g><path style="opacity:0.008" fill="#00aa00" d="M 235.5,59.5 C 236.833,60.1667 236.833,60.1667 235.5,59.5 Z"/></g>
<g><path style="opacity:1" fill="#88c586" d="M 66.5,50.5 C 64.0767,52.7574 62.2433,55.4241 61,58.5C 60.3333,89.8333 60.3333,121.167 61,152.5C 61.6077,154.154 62.1077,155.821 62.5,157.5C 60.3057,155.779 59.139,153.445 59,150.5C 58.3333,120.5 58.3333,90.5 59,60.5C 59.4639,55.5482 61.9639,52.2148 66.5,50.5 Z"/></g>
<g><path style="opacity:0.012" fill="#008000" d="M 13.5,66.5 C 14.8333,67.1667 14.8333,67.1667 13.5,66.5 Z"/></g>
<g><path style="opacity:1" fill="#77be75" d="M 97.5,58.5 C 102.224,59.6014 104.224,62.6014 103.5,67.5C 92.1667,67.5 80.8333,67.5 69.5,67.5C 68.9935,63.9929 69.6602,60.8263 71.5,58C 80.3433,57.1764 89.0099,57.3431 97.5,58.5 Z"/></g>
<g><path style="opacity:1" fill="#ffd300" d="M 92.5,58.5 C 94.1667,58.5 95.8333,58.5 97.5,58.5C 99.7594,60.595 101.426,63.095 102.5,66C 96.5092,66.4995 90.5092,66.6662 84.5,66.5C 88.0266,64.7284 90.6933,62.0617 92.5,58.5 Z"/></g>
<g><path style="opacity:1" fill="#ff8300" d="M 85.5,58.5 C 87.8333,58.5 90.1667,58.5 92.5,58.5C 90.6933,62.0617 88.0266,64.7284 84.5,66.5C 82.5,66.5 80.5,66.5 78.5,66.5C 81.1227,64.0375 83.456,61.3709 85.5,58.5 Z"/></g>
<g><path style="opacity:1" fill="#ff3f00" d="M 85.5,58.5 C 83.456,61.3709 81.1227,64.0375 78.5,66.5C 75.8333,66.5 73.1667,66.5 70.5,66.5C 70.2436,64.2075 70.5769,62.0408 71.5,60C 76.036,58.6211 80.7027,58.1211 85.5,58.5 Z"/></g>
<g><path style="opacity:1" fill="#66b665" d="M 111.5,59.5 C 112.81,61.4346 114.143,63.4346 115.5,65.5C 137.996,66.1667 160.33,66.8333 182.5,67.5C 159.833,67.5 137.167,67.5 114.5,67.5C 112.41,65.3078 111.41,62.6412 111.5,59.5 Z"/></g>
<g><path style="opacity:1" fill="#b7dcb7" d="M 114.5,67.5 C 137.167,67.5 159.833,67.5 182.5,67.5C 186.975,67.9787 189.975,70.312 191.5,74.5C 189.264,72.1067 186.597,70.2734 183.5,69C 160.33,68.8321 137.33,68.3321 114.5,67.5 Z"/></g>
<g><path style="opacity:0.012" fill="#008000" d="M 12.5,68.5 C 13.8333,69.1667 13.8333,69.1667 12.5,68.5 Z"/></g>
<g><path style="opacity:0.012" fill="#008000" d="M 240.5,68.5 C 241.833,69.1667 241.833,69.1667 240.5,68.5 Z"/></g>
<g><path style="opacity:0.004" fill="#00ff00" d="M 11.5,70.5 C 12.8333,71.1667 12.8333,71.1667 11.5,70.5 Z"/></g>
<g><path style="opacity:0.004" fill="#00ff00" d="M 241.5,70.5 C 242.833,71.1667 242.833,71.1667 241.5,70.5 Z"/></g>
<g><path style="opacity:0.004" fill="#00ff00" d="M 242.5,72.5 C 243.833,73.1667 243.833,73.1667 242.5,72.5 Z"/></g>
<g><path style="opacity:1" fill="#85c484" d="M 181.5,78.5 C 180.391,78.4431 179.391,78.1098 178.5,77.5C 177.167,77.5 175.833,77.5 174.5,77.5C 171.833,77.5 169.167,77.5 166.5,77.5C 164.833,77.5 163.167,77.5 161.5,77.5C 159.5,77.5 157.5,77.5 155.5,77.5C 153.5,77.5 151.5,77.5 149.5,77.5C 145.5,77.5 141.5,77.5 137.5,77.5C 137.665,80.5184 137.498,83.5184 137,86.5C 133.943,87.4505 130.777,87.7839 127.5,87.5C 127.198,90.0593 127.532,92.3926 128.5,94.5C 129.919,95.4511 131.585,95.7845 133.5,95.5C 135.973,95.0882 137.306,96.0882 137.5,98.5C 137.5,99.8333 137.5,101.167 137.5,102.5C 137.67,103.822 137.337,104.989 136.5,106C 133.518,106.498 130.518,106.665 127.5,106.5C 127.194,109.385 127.527,112.052 128.5,114.5C 130.833,114.5 133.167,114.5 135.5,114.5C 136.906,114.973 137.573,115.973 137.5,117.5C 137.5,118.833 137.5,120.167 137.5,121.5C 137.666,126.511 137.499,131.511 137,136.5C 136.722,137.416 136.222,138.082 135.5,138.5C 135.5,130.833 135.5,123.167 135.5,115.5C 132.5,115.5 129.5,115.5 126.5,115.5C 126.813,111.958 126.479,108.625 125.5,105.5C 125.664,102.813 125.497,100.146 125,97.5C 123.989,96.6634 122.822,96.33 121.5,96.5C 120.833,96.5 120.167,96.5 119.5,96.5C 118.5,96.5 117.5,96.5 116.5,96.5C 116.5,95.1667 116.5,93.8333 116.5,92.5C 116.205,90.2646 116.539,88.2646 117.5,86.5C 119.948,85.5269 122.615,85.1936 125.5,85.5C 125.5,82.8333 125.5,80.1667 125.5,77.5C 121.167,77.5 116.833,77.5 112.5,77.5C 108.5,77.5 104.5,77.5 100.5,77.5C 96.5,77.5 92.5,77.5 88.5,77.5C 82.5,77.5 76.5,77.5 70.5,77.5C 70.5,82.1667 70.5,86.8333 70.5,91.5C 70.5,95.1667 70.5,98.8333 70.5,102.5C 70.5,106.5 70.5,110.5 70.5,114.5C 70.5,120.833 70.5,127.167 70.5,133.5C 70.5,134.167 70.5,134.833 70.5,135.5C 70.5,137.5 70.5,139.5 70.5,141.5C 70.5,144.167 70.5,146.833 70.5,149.5C 70.5,149.833 70.5,150.167 70.5,150.5C 69.1676,138.686 68.5009,126.519 68.5,114C 68.6667,101.833 68.8333,89.6667 69,77.5C 88.4239,76.5071 107.924,76.1737 127.5,76.5C 127.5,79.5 127.5,82.5 127.5,85.5C 130.167,85.5 132.833,85.5 135.5,85.5C 135.5,82.5 135.5,79.5 135.5,76.5C 150.504,76.3334 165.504,76.5001 180.5,77C 181.056,77.3826 181.389,77.8826 181.5,78.5 Z"/></g>
<g><path style="opacity:0.016" fill="#009900" d="M 7.5,79.5 C 8.83333,80.1667 8.83333,80.1667 7.5,79.5 Z"/></g>
<g><path style="opacity:0.004" fill="#00ff00" d="M 245.5,79.5 C 246.833,80.1667 246.833,80.1667 245.5,79.5 Z"/></g>
<g><path style="opacity:1" fill="#06fe9c" d="M 149.5,77.5 C 149.461,78.5832 149.127,79.5832 148.5,80.5C 141.82,85.1854 135.153,89.8521 128.5,94.5C 127.532,92.3926 127.198,90.0593 127.5,87.5C 130.777,87.7839 133.943,87.4505 137,86.5C 137.498,83.5184 137.665,80.5184 137.5,77.5C 141.5,77.5 145.5,77.5 149.5,77.5 Z"/></g>
<g><path style="opacity:1" fill="#bdff00" d="M 88.5,77.5 C 92.5,77.5 96.5,77.5 100.5,77.5C 94.708,81.4577 89.708,86.2911 85.5,92C 80.0702,94.937 75.0702,98.437 70.5,102.5C 70.5,98.8333 70.5,95.1667 70.5,91.5C 76.5388,86.8221 82.5388,82.1555 88.5,77.5 Z"/></g>
<g><path style="opacity:1" fill="#02fef1" d="M 155.5,77.5 C 157.5,77.5 159.5,77.5 161.5,77.5C 153.5,84.5 145.5,91.5 137.5,98.5C 137.306,96.0882 135.973,95.0882 133.5,95.5C 138.055,92.5111 142.722,89.5111 147.5,86.5C 150.903,84.1002 153.57,81.1002 155.5,77.5 Z"/></g>
<g><path style="opacity:1" fill="#90ca91" d="M 181.5,79.5 C 181.5,79.1667 181.5,78.8333 181.5,78.5C 182.75,78.5774 183.583,79.244 184,80.5C 184.667,103.833 184.667,127.167 184,150.5C 183.617,151.056 183.117,151.389 182.5,151.5C 183.272,147.548 183.605,143.548 183.5,139.5C 183.5,138.167 183.5,136.833 183.5,135.5C 183.5,132.833 183.5,130.167 183.5,127.5C 183.5,126.167 183.5,124.833 183.5,123.5C 183.5,120.833 183.5,118.167 183.5,115.5C 183.5,111.5 183.5,107.5 183.5,103.5C 183.825,96.3134 183.491,89.3134 182.5,82.5C 182.5,81.8333 182.5,81.1667 182.5,80.5C 182.5,79.8333 182.167,79.5 181.5,79.5 Z"/></g>
<g><path style="opacity:1" fill="#a1d2a0" d="M 191.5,74.5 C 192.966,75.347 193.8,76.6803 194,78.5C 194.667,103.167 194.667,127.833 194,152.5C 193.8,154.32 192.966,155.653 191.5,156.5C 192.825,129.154 192.825,101.821 191.5,74.5 Z"/></g>
<g><path style="opacity:1" fill="#fee800" d="M 88.5,77.5 C 82.5388,82.1555 76.5388,86.8221 70.5,91.5C 70.5,86.8333 70.5,82.1667 70.5,77.5C 76.5,77.5 82.5,77.5 88.5,77.5 Z"/></g>
<g><path style="opacity:1" fill="#03fecb" d="M 149.5,77.5 C 151.5,77.5 153.5,77.5 155.5,77.5C 153.57,81.1002 150.903,84.1002 147.5,86.5C 142.722,89.5111 138.055,92.5111 133.5,95.5C 131.585,95.7845 129.919,95.4511 128.5,94.5C 135.153,89.8521 141.82,85.1854 148.5,80.5C 149.127,79.5832 149.461,78.5832 149.5,77.5 Z"/></g>
<g><path style="opacity:1" fill="#0166ff" d="M 181.5,79.5 C 182.167,79.5 182.5,79.8333 182.5,80.5C 170.63,91.7251 157.964,101.725 144.5,110.5C 155.06,100.213 166.06,90.3793 177.5,81C 178.901,80.5899 180.234,80.0899 181.5,79.5 Z"/></g>
<g><path style="opacity:0.004" fill="#00ff00" d="M 248.5,87.5 C 249.833,88.1667 249.833,88.1667 248.5,87.5 Z"/></g>
<g><path style="opacity:1" fill="#6cff00" d="M 100.5,77.5 C 104.5,77.5 108.5,77.5 112.5,77.5C 110.161,80.5061 107.494,83.1727 104.5,85.5C 94.488,90.3414 86.488,97.508 80.5,107C 76.7238,108.947 73.3904,111.447 70.5,114.5C 70.5,110.5 70.5,106.5 70.5,102.5C 75.0702,98.437 80.0702,94.937 85.5,92C 89.708,86.2911 94.708,81.4577 100.5,77.5 Z"/></g>
<g><path style="opacity:0.004" fill="#008000" d="M 249.5,91.5 C 250.833,92.1667 250.833,92.1667 249.5,91.5 Z"/></g>
<g><path style="opacity:1" fill="#02e2ff" d="M 161.5,77.5 C 163.167,77.5 164.833,77.5 166.5,77.5C 162.416,81.8271 158.416,86.3271 154.5,91C 151.823,91.2494 149.49,92.2494 147.5,94C 143.975,96.698 140.642,99.5314 137.5,102.5C 137.5,101.167 137.5,99.8333 137.5,98.5C 145.5,91.5 153.5,84.5 161.5,77.5 Z"/></g>
<g><path style="opacity:1" fill="#039dff" d="M 174.5,77.5 C 175.833,77.5 177.167,77.5 178.5,77.5C 176.178,81.3189 172.845,83.8189 168.5,85C 166.787,86.3782 165.453,88.0448 164.5,90C 160.86,91.3112 158.194,93.6446 156.5,97C 153.405,97.8184 151.405,99.8184 150.5,103C 146.268,105.923 141.935,108.757 137.5,111.5C 136.575,112.357 135.908,113.357 135.5,114.5C 133.167,114.5 130.833,114.5 128.5,114.5C 143.255,101.408 158.589,89.0743 174.5,77.5 Z"/></g>
<g><path style="opacity:1" fill="#e3f1e3" d="M 117.5,86.5 C 120.5,86.5 123.5,86.5 126.5,86.5C 126.5,89.5 126.5,92.5 126.5,95.5C 123.5,95.5 120.5,95.5 117.5,95.5C 117.5,92.5 117.5,89.5 117.5,86.5 Z"/></g>
<g><path style="opacity:0.008" fill="#00aa00" d="M 0.5,104.5 C 1.83333,105.167 1.83333,105.167 0.5,104.5 Z"/></g>
<g><path style="opacity:1" fill="#f0f8f0" d="M 127.5,96.5 C 130.167,96.5 132.833,96.5 135.5,96.5C 135.5,99.5 135.5,102.5 135.5,105.5C 132.833,105.5 130.167,105.5 127.5,105.5C 127.5,102.5 127.5,99.5 127.5,96.5 Z"/></g>
<g><path style="opacity:1" fill="#83c483" d="M 117.5,105.5 C 117.21,116.884 117.543,128.217 118.5,139.5C 118.167,139.5 117.833,139.5 117.5,139.5C 117.167,138.833 116.833,138.167 116.5,137.5C 116.5,135.167 116.5,132.833 116.5,130.5C 116.5,129.5 116.5,128.5 116.5,127.5C 116.5,125.167 116.5,122.833 116.5,120.5C 116.5,119.833 116.5,119.167 116.5,118.5C 116.5,115.833 116.5,113.167 116.5,110.5C 116.216,108.585 116.549,106.919 117.5,105.5 Z"/></g>
<g><path style="opacity:1" fill="#f6faf5" d="M 117.5,105.5 C 120.167,105.5 122.833,105.5 125.5,105.5C 126.479,108.625 126.813,111.958 126.5,115.5C 129.5,115.5 132.5,115.5 135.5,115.5C 135.5,123.167 135.5,130.833 135.5,138.5C 134.08,142.719 131.08,144.719 126.5,144.5C 122.453,144.82 119.786,143.153 118.5,139.5C 117.543,128.217 117.21,116.884 117.5,105.5 Z"/></g>
<g><path style="opacity:1" fill="#027bff" d="M 178.5,77.5 C 179.391,78.1098 180.391,78.4431 181.5,78.5C 181.5,78.8333 181.5,79.1667 181.5,79.5C 180.234,80.0899 178.901,80.5899 177.5,81C 166.06,90.3793 155.06,100.213 144.5,110.5C 142.548,113.118 140.215,115.452 137.5,117.5C 137.573,115.973 136.906,114.973 135.5,114.5C 135.908,113.357 136.575,112.357 137.5,111.5C 141.935,108.757 146.268,105.923 150.5,103C 151.405,99.8184 153.405,97.8184 156.5,97C 158.194,93.6446 160.86,91.3112 164.5,90C 165.453,88.0448 166.787,86.3782 168.5,85C 172.845,83.8189 176.178,81.3189 178.5,77.5 Z"/></g>
<g><path style="opacity:1" fill="#1cfe14" d="M 112.5,77.5 C 116.833,77.5 121.167,77.5 125.5,77.5C 125.5,80.1667 125.5,82.8333 125.5,85.5C 122.615,85.1936 119.948,85.5269 117.5,86.5C 116.539,88.2646 116.205,90.2646 116.5,92.5C 111.715,95.7822 107.382,99.6155 103.5,104C 102.167,104.333 100.833,104.667 99.5,105C 96.6561,108.512 93.9894,112.178 91.5,116C 84.3733,121.85 77.3733,127.684 70.5,133.5C 70.5,127.167 70.5,120.833 70.5,114.5C 73.3904,111.447 76.7238,108.947 80.5,107C 86.488,97.508 94.488,90.3414 104.5,85.5C 107.494,83.1727 110.161,80.5061 112.5,77.5 Z"/></g>
<g><path style="opacity:1" fill="#014dff" d="M 182.5,80.5 C 182.5,81.1667 182.5,81.8333 182.5,82.5C 176.559,87.4216 171.226,92.7549 166.5,98.5C 159.483,101.678 153.817,106.512 149.5,113C 145.877,116.471 141.877,119.304 137.5,121.5C 137.5,120.167 137.5,118.833 137.5,117.5C 140.215,115.452 142.548,113.118 144.5,110.5C 157.964,101.725 170.63,91.7251 182.5,80.5 Z"/></g>
<g><path style="opacity:0.008" fill="#00aa00" d="M -0.5,111.5 C 0.833333,112.167 0.833333,112.167 -0.5,111.5 Z"/></g>
<g><path style="opacity:1" fill="#01fe60" d="M 116.5,92.5 C 116.5,93.8333 116.5,95.1667 116.5,96.5C 117.5,96.5 118.5,96.5 119.5,96.5C 111.571,102.092 104.238,108.426 97.5,115.5C 88.466,120.041 80.7994,126.208 74.5,134C 73.0993,134.41 71.766,134.91 70.5,135.5C 70.5,134.833 70.5,134.167 70.5,133.5C 77.3733,127.684 84.3733,121.85 91.5,116C 93.9894,112.178 96.6561,108.512 99.5,105C 100.833,104.667 102.167,104.333 103.5,104C 107.382,99.6155 111.715,95.7822 116.5,92.5 Z"/></g>
<g><path style="opacity:1" fill="#03c4ff" d="M 166.5,77.5 C 169.167,77.5 171.833,77.5 174.5,77.5C 158.589,89.0743 143.255,101.408 128.5,114.5C 127.527,112.052 127.194,109.385 127.5,106.5C 130.518,106.665 133.518,106.498 136.5,106C 137.337,104.989 137.67,103.822 137.5,102.5C 140.642,99.5314 143.975,96.698 147.5,94C 149.49,92.2494 151.823,91.2494 154.5,91C 158.416,86.3271 162.416,81.8271 166.5,77.5 Z"/></g>
<g><path style="opacity:1" fill="#310bff" d="M 182.5,82.5 C 183.491,89.3134 183.825,96.3134 183.5,103.5C 177.755,109.752 171.422,115.585 164.5,121C 160.281,124.061 155.948,126.894 151.5,129.5C 149.368,133.131 146.701,136.298 143.5,139C 137.692,140.819 133.025,144.152 129.5,149C 128.552,149.483 127.552,149.649 126.5,149.5C 126.5,150.5 126.5,151.5 126.5,152.5C 118.167,152.5 109.833,152.5 101.5,152.5C 104.069,149.34 107.402,147.174 111.5,146C 113.706,143.963 115.706,141.797 117.5,139.5C 117.833,139.5 118.167,139.5 118.5,139.5C 119.786,143.153 122.453,144.82 126.5,144.5C 131.08,144.719 134.08,142.719 135.5,138.5C 136.222,138.082 136.722,137.416 137,136.5C 137.499,131.511 137.666,126.511 137.5,121.5C 141.877,119.304 145.877,116.471 149.5,113C 153.817,106.512 159.483,101.678 166.5,98.5C 171.226,92.7549 176.559,87.4216 182.5,82.5 Z"/></g>
<g><path style="opacity:1" fill="#06feb7" d="M 121.5,96.5 C 122.822,96.33 123.989,96.6634 125,97.5C 125.497,100.146 125.664,102.813 125.5,105.5C 122.833,105.5 120.167,105.5 117.5,105.5C 116.549,106.919 116.216,108.585 116.5,110.5C 101.811,124.146 86.4779,137.146 70.5,149.5C 70.5,146.833 70.5,144.167 70.5,141.5C 73.0573,140.812 75.3907,139.646 77.5,138C 83.4079,131.265 89.4079,124.765 95.5,118.5C 98.5644,117.149 101.564,115.649 104.5,114C 110.671,108.663 116.337,102.829 121.5,96.5 Z"/></g>
<g><path style="opacity:1" fill="#02fe83" d="M 119.5,96.5 C 120.167,96.5 120.833,96.5 121.5,96.5C 116.337,102.829 110.671,108.663 104.5,114C 101.564,115.649 98.5644,117.149 95.5,118.5C 89.4079,124.765 83.4079,131.265 77.5,138C 75.3907,139.646 73.0573,140.812 70.5,141.5C 70.5,139.5 70.5,137.5 70.5,135.5C 71.766,134.91 73.0993,134.41 74.5,134C 80.7994,126.208 88.466,120.041 97.5,115.5C 104.238,108.426 111.571,102.092 119.5,96.5 Z"/></g>
<g><path style="opacity:1" fill="#03feee" d="M 116.5,110.5 C 116.5,113.167 116.5,115.833 116.5,118.5C 113.139,119.684 110.139,121.517 107.5,124C 96.055,133.045 85.055,142.545 74.5,152.5C 73.1667,152.167 71.8333,151.833 70.5,151.5C 70.5,151.167 70.5,150.833 70.5,150.5C 70.5,150.167 70.5,149.833 70.5,149.5C 86.4779,137.146 101.811,124.146 116.5,110.5 Z"/></g>
<g><path style="opacity:1" fill="#01eaff" d="M 116.5,118.5 C 116.5,119.167 116.5,119.833 116.5,120.5C 111.718,124.415 107.051,128.582 102.5,133C 94.042,138.629 86.3753,145.129 79.5,152.5C 77.8333,152.5 76.1667,152.5 74.5,152.5C 85.055,142.545 96.055,133.045 107.5,124C 110.139,121.517 113.139,119.684 116.5,118.5 Z"/></g>
<g><path style="opacity:1" fill="#e800fe" d="M 183.5,115.5 C 183.5,118.167 183.5,120.833 183.5,123.5C 172.167,133.167 160.833,142.833 149.5,152.5C 146.5,152.5 143.5,152.5 140.5,152.5C 142.204,148.948 144.538,145.781 147.5,143C 152.023,138.908 157.023,135.575 162.5,133C 168.789,126.202 175.789,120.368 183.5,115.5 Z"/></g>
<g><path style="opacity:1" fill="#ff00e9" d="M 183.5,123.5 C 183.5,124.833 183.5,126.167 183.5,127.5C 181.407,128.045 179.407,128.878 177.5,130C 175.498,132.695 173.498,135.362 171.5,138C 164.76,142.072 158.76,146.906 153.5,152.5C 152.167,152.5 150.833,152.5 149.5,152.5C 160.833,142.833 172.167,133.167 183.5,123.5 Z"/></g>
<g><path style="opacity:0.008" fill="#00aa00" d="M -0.5,141.5 C 0.833333,142.167 0.833333,142.167 -0.5,141.5 Z"/></g>
<g><path style="opacity:1" fill="#9400ff" d="M 183.5,103.5 C 183.5,107.5 183.5,111.5 183.5,115.5C 175.789,120.368 168.789,126.202 162.5,133C 157.023,135.575 152.023,138.908 147.5,143C 144.538,145.781 142.204,148.948 140.5,152.5C 135.833,152.5 131.167,152.5 126.5,152.5C 126.5,151.5 126.5,150.5 126.5,149.5C 127.552,149.649 128.552,149.483 129.5,149C 133.025,144.152 137.692,140.819 143.5,139C 146.701,136.298 149.368,133.131 151.5,129.5C 155.948,126.894 160.281,124.061 164.5,121C 171.422,115.585 177.755,109.752 183.5,103.5 Z"/></g>
<g><path style="opacity:0.008" fill="#00aa00" d="M 253.5,141.5 C 254.833,142.167 254.833,142.167 253.5,141.5 Z"/></g>
<g><path style="opacity:1" fill="#0473ff" d="M 116.5,130.5 C 116.5,132.833 116.5,135.167 116.5,137.5C 109.858,142.467 103.191,147.467 96.5,152.5C 94.8333,152.5 93.1667,152.5 91.5,152.5C 99.8013,145.203 108.135,137.87 116.5,130.5 Z"/></g>
<g><path style="opacity:1" fill="#ff005c" d="M 183.5,139.5 C 183.605,143.548 183.272,147.548 182.5,151.5C 177.897,152.383 173.23,152.717 168.5,152.5C 172.94,147.458 177.94,143.125 183.5,139.5 Z"/></g>
<g><path style="opacity:1" fill="#05bfff" d="M 116.5,120.5 C 116.5,122.833 116.5,125.167 116.5,127.5C 107.318,132.91 99.6514,139.91 93.5,148.5C 91.7097,150.316 89.7097,151.649 87.5,152.5C 84.8333,152.5 82.1667,152.5 79.5,152.5C 86.3753,145.129 94.042,138.629 102.5,133C 107.051,128.582 111.718,124.415 116.5,120.5 Z"/></g>
<g><path style="opacity:1" fill="#024aff" d="M 116.5,137.5 C 116.833,138.167 117.167,138.833 117.5,139.5C 115.706,141.797 113.706,143.963 111.5,146C 107.402,147.174 104.069,149.34 101.5,152.5C 99.8333,152.5 98.1667,152.5 96.5,152.5C 103.191,147.467 109.858,142.467 116.5,137.5 Z"/></g>
<g><path style="opacity:1" fill="#ff00bf" d="M 183.5,127.5 C 183.5,130.167 183.5,132.833 183.5,135.5C 181.528,136.451 179.528,137.451 177.5,138.5C 173.081,143.861 168.081,148.528 162.5,152.5C 159.5,152.5 156.5,152.5 153.5,152.5C 158.76,146.906 164.76,142.072 171.5,138C 173.498,135.362 175.498,132.695 177.5,130C 179.407,128.878 181.407,128.045 183.5,127.5 Z"/></g>
<g><path style="opacity:0.008" fill="#00aa00" d="M 0.5,148.5 C 1.83333,149.167 1.83333,149.167 0.5,148.5 Z"/></g>
<g><path style="opacity:1" fill="#0293ff" d="M 116.5,127.5 C 116.5,128.5 116.5,129.5 116.5,130.5C 108.135,137.87 99.8013,145.203 91.5,152.5C 90.1667,152.5 88.8333,152.5 87.5,152.5C 89.7097,151.649 91.7097,150.316 93.5,148.5C 99.6514,139.91 107.318,132.91 116.5,127.5 Z"/></g>
<g><path style="opacity:1" fill="#ff0090" d="M 183.5,135.5 C 183.5,136.833 183.5,138.167 183.5,139.5C 177.94,143.125 172.94,147.458 168.5,152.5C 166.5,152.5 164.5,152.5 162.5,152.5C 168.081,148.528 173.081,143.861 177.5,138.5C 179.528,137.451 181.528,136.451 183.5,135.5 Z"/></g>
<g><path style="opacity:1" fill="#66b766" d="M 70.5,151.5 C 71.8333,151.833 73.1667,152.167 74.5,152.5C 76.1667,152.5 77.8333,152.5 79.5,152.5C 82.1667,152.5 84.8333,152.5 87.5,152.5C 88.8333,152.5 90.1667,152.5 91.5,152.5C 93.1667,152.5 94.8333,152.5 96.5,152.5C 98.1667,152.5 99.8333,152.5 101.5,152.5C 109.833,152.5 118.167,152.5 126.5,152.5C 131.167,152.5 135.833,152.5 140.5,152.5C 143.5,152.5 146.5,152.5 149.5,152.5C 150.833,152.5 152.167,152.5 153.5,152.5C 156.5,152.5 159.5,152.5 162.5,152.5C 164.5,152.5 166.5,152.5 168.5,152.5C 173.23,152.717 177.897,152.383 182.5,151.5C 164.346,152.833 145.846,153.5 127,153.5C 108.5,153.333 90,153.167 71.5,153C 70.944,152.617 70.6107,152.117 70.5,151.5 Z"/></g>
<g><path style="opacity:1" fill="#81c381" d="M 187.5,160.5 C 186.942,161.79 185.942,162.623 184.5,163C 145.998,163.831 107.664,163.664 69.5,162.5C 107.501,162.667 145.501,162.5 183.5,162C 184.745,161.209 186.078,160.709 187.5,160.5 Z"/></g>
<g><path style="opacity:0.016" fill="#009900" d="M 6.5,170.5 C 7.83333,171.167 7.83333,171.167 6.5,170.5 Z"/></g>
<g><path style="opacity:0.016" fill="#009900" d="M 246.5,170.5 C 247.833,171.167 247.833,171.167 246.5,170.5 Z"/></g>
<g><path style="opacity:0.004" fill="#00ff00" d="M 7.5,173.5 C 8.83333,174.167 8.83333,174.167 7.5,173.5 Z"/></g>
<g><path style="opacity:1" fill="#8bc78a" d="M 101.5,179.5 C 101.5,177.833 101.5,176.167 101.5,174.5C 94.8333,174.5 88.1667,174.5 81.5,174.5C 81.5,175.833 81.5,177.167 81.5,178.5C 79.4012,177.63 79.0679,176.297 80.5,174.5C 87.8107,173.335 95.144,173.169 102.5,174C 103.98,176.235 103.647,178.068 101.5,179.5 Z"/></g>
<g><path style="opacity:0.004" fill="#00ff00" d="M 245.5,173.5 C 246.833,174.167 246.833,174.167 245.5,173.5 Z"/></g>
<g><path style="opacity:1" fill="#d3ead2" d="M 69.5,198.5 C 70.4682,196.393 70.8016,194.059 70.5,191.5C 68.8333,191.5 67.1667,191.5 65.5,191.5C 65.5,190.5 65.5,189.5 65.5,188.5C 68.8333,188.5 72.1667,188.5 75.5,188.5C 75.5,193.167 75.5,197.833 75.5,202.5C 69.4559,206.305 63.4559,206.305 57.5,202.5C 51.6445,196.235 49.9779,188.902 52.5,180.5C 54.4353,176.343 57.7686,173.843 62.5,173C 66.6645,172.187 70.6645,172.687 74.5,174.5C 75.7596,176.353 75.7596,178.186 74.5,180C 60.7586,176.408 55.5919,181.574 59,195.5C 61.9836,198.1 65.4836,199.1 69.5,198.5 Z"/></g>
<g><path style="opacity:1" fill="#dceedb" d="M 101.5,179.5 C 98.5635,185.041 94.8969,190.041 90.5,194.5C 88.2729,195.401 87.2729,197.067 87.5,199.5C 92.1667,199.5 96.8333,199.5 101.5,199.5C 101.5,200.833 101.5,202.167 101.5,203.5C 94.5,203.5 87.5,203.5 80.5,203.5C 80.5,201.833 80.5,200.167 80.5,198.5C 84.016,192.8 88.016,187.467 92.5,182.5C 94.1042,181.713 94.7709,180.38 94.5,178.5C 90.1667,178.5 85.8333,178.5 81.5,178.5C 81.5,177.167 81.5,175.833 81.5,174.5C 88.1667,174.5 94.8333,174.5 101.5,174.5C 101.5,176.167 101.5,177.833 101.5,179.5 Z"/></g>
<g><path style="opacity:1" fill="#d5ebd4" d="M 178.5,198.5 C 178.703,200.044 179.37,201.378 180.5,202.5C 178.604,203.466 176.604,203.799 174.5,203.5C 173.388,199.219 171.221,195.552 168,192.5C 164.501,195.501 162.001,199.168 160.5,203.5C 158.712,203.785 157.045,203.452 155.5,202.5C 157.952,199.394 159.952,196.061 161.5,192.5C 161.751,190.83 162.418,189.33 163.5,188C 159.584,183.653 156.584,178.82 154.5,173.5C 156.857,173.337 159.19,173.503 161.5,174C 163.667,176.833 165.833,179.667 168,182.5C 170.167,179.667 172.333,176.833 174.5,174C 176.902,173.186 179.235,173.353 181.5,174.5C 178.5,179.167 175.5,183.833 172.5,188.5C 174.925,191.589 176.925,194.922 178.5,198.5 Z"/></g>
<g><path style="opacity:1" fill="#e9f4e9" d="M 195.5,191.5 C 192.528,193.778 190.861,196.778 190.5,200.5C 195.214,200.173 199.88,200.507 204.5,201.5C 197.866,202.497 191.2,202.83 184.5,202.5C 185.68,198.784 187.013,195.117 188.5,191.5C 190.344,187.808 192.677,184.475 195.5,181.5C 196.478,181.189 197.145,180.522 197.5,179.5C 192.88,178.507 188.214,178.173 183.5,178.5C 183.5,177.167 183.5,175.833 183.5,174.5C 190.5,174.5 197.5,174.5 204.5,174.5C 204.657,175.873 204.49,177.207 204,178.5C 200.15,182.207 197.317,186.54 195.5,191.5 Z"/></g>
<g><path style="opacity:0.74" fill="#57af56" d="M 81.5,178.5 C 85.8333,178.5 90.1667,178.5 94.5,178.5C 94.7709,180.38 94.1042,181.713 92.5,182.5C 92.4142,181.504 92.7476,180.671 93.5,180C 89.3123,179.824 85.3123,179.324 81.5,178.5 Z"/></g>
<g><path style="opacity:0.761" fill="#53ad52" d="M 183.5,178.5 C 188.214,178.173 192.88,178.507 197.5,179.5C 197.145,180.522 196.478,181.189 195.5,181.5C 191.768,179.869 187.768,178.869 183.5,178.5 Z"/></g>
<g><path style="opacity:0.004" fill="#00ff00" d="M 10.5,180.5 C 11.8333,181.167 11.8333,181.167 10.5,180.5 Z"/></g>
<g><path style="opacity:1" fill="#7fc27e" d="M 195.5,191.5 C 197.317,186.54 200.15,182.207 204,178.5C 204.49,177.207 204.657,175.873 204.5,174.5C 197.5,174.5 190.5,174.5 183.5,174.5C 183.5,175.833 183.5,177.167 183.5,178.5C 182.549,177.081 182.216,175.415 182.5,173.5C 190.167,173.5 197.833,173.5 205.5,173.5C 204.365,180.656 201.032,186.656 195.5,191.5 Z"/></g>
<g><path style="opacity:0.004" fill="#00ff00" d="M 242.5,180.5 C 243.833,181.167 243.833,181.167 242.5,180.5 Z"/></g>
<g><path style="opacity:0.012" fill="#008000" d="M 11.5,182.5 C 12.8333,183.167 12.8333,183.167 11.5,182.5 Z"/></g>
<g><path style="opacity:0.004" fill="#00ff00" d="M 241.5,182.5 C 242.833,183.167 242.833,183.167 241.5,182.5 Z"/></g>
<g><path style="opacity:0.012" fill="#008000" d="M 240.5,184.5 C 241.833,185.167 241.833,185.167 240.5,184.5 Z"/></g>
<g><path style="opacity:0.008" fill="#00aa00" d="M 14.5,188.5 C 15.8333,189.167 15.8333,189.167 14.5,188.5 Z"/></g>
<g><path style="opacity:0.008" fill="#00aa00" d="M 238.5,188.5 C 239.833,189.167 239.833,189.167 238.5,188.5 Z"/></g>
<g><path style="opacity:1" fill="#83c381" d="M 75.5,202.5 C 75.5,197.833 75.5,193.167 75.5,188.5C 72.1667,188.5 68.8333,188.5 65.5,188.5C 65.5,189.5 65.5,190.5 65.5,191.5C 67.1667,191.5 68.8333,191.5 70.5,191.5C 70.8016,194.059 70.4682,196.393 69.5,198.5C 70.4463,193.949 68.613,191.616 64,191.5C 63.2195,190.056 63.3861,188.723 64.5,187.5C 68.1078,186.407 71.7745,186.24 75.5,187C 76.8243,192.266 76.8243,197.433 75.5,202.5 Z"/></g>
<g><path style="opacity:1" fill="#7bc07a" d="M 52.5,180.5 C 49.9779,188.902 51.6445,196.235 57.5,202.5C 53.7427,201.233 51.5761,198.566 51,194.5C 50.3333,190.833 50.3333,187.167 51,183.5C 51.2321,182.263 51.7321,181.263 52.5,180.5 Z"/></g>
<g><path style="opacity:0.008" fill="#00aa00" d="M 17.5,193.5 C 18.8333,194.167 18.8333,194.167 17.5,193.5 Z"/></g>
<g><path style="opacity:1" fill="#abd6a8" d="M 136.5,193.5 C 135.653,194.966 134.32,195.8 132.5,196C 133.337,197.011 133.67,198.178 133.5,199.5C 131.406,200.242 129.239,200.909 127,201.5C 122.766,201.304 120.266,199.137 119.5,195C 119.684,193.624 120.351,192.791 121.5,192.5C 120.364,196.51 122.03,198.844 126.5,199.5C 128.824,199.471 129.99,198.471 130,196.5C 128,194.5 126,192.5 124,190.5C 123.617,191.056 123.117,191.389 122.5,191.5C 122.47,190.503 122.97,189.836 124,189.5C 126.281,190.776 128.281,192.443 130,194.5C 130.75,193.874 131.584,193.374 132.5,193C 130.981,191.649 129.648,190.149 128.5,188.5C 129.815,186.684 131.315,185.017 133,183.5C 133.497,181.19 133.663,178.857 133.5,176.5C 131.488,175.986 129.488,175.82 127.5,176C 131.644,179.215 131.477,182.049 127,184.5C 126.235,184.43 125.735,184.097 125.5,183.5C 128.244,182.928 129.077,181.262 128,178.5C 126.51,177.272 125.01,177.272 123.5,178.5C 122.789,176.158 121.456,175.825 119.5,177.5C 121.359,173.074 124.692,171.574 129.5,173C 133.295,173.795 135.295,176.128 135.5,180C 134.878,183.454 133.211,186.287 130.5,188.5C 131.931,190.938 133.931,192.604 136.5,193.5 Z"/></g>
<g><path style="opacity:1" fill="#e4f1e3" d="M 122.5,191.5 C 122.5,192.167 122.167,192.5 121.5,192.5C 120.351,192.791 119.684,193.624 119.5,195C 120.266,199.137 122.766,201.304 127,201.5C 129.239,200.909 131.406,200.242 133.5,199.5C 133.67,198.178 133.337,197.011 132.5,196C 134.32,195.8 135.653,194.966 136.5,193.5C 136.837,190.664 138.171,189.998 140.5,191.5C 140.604,194.09 139.937,196.423 138.5,198.5C 138.722,200.055 139.389,201.389 140.5,202.5C 140,202.833 139.5,203.167 139,203.5C 137.604,202.606 136.104,201.939 134.5,201.5C 130.009,203.217 125.343,203.883 120.5,203.5C 114.597,200.861 113.097,196.527 116,190.5C 117.351,188.981 118.851,187.648 120.5,186.5C 118.494,183.52 118.161,180.52 119.5,177.5C 121.456,175.825 122.789,176.158 123.5,178.5C 123.12,180.698 123.787,182.365 125.5,183.5C 125.735,184.097 126.235,184.43 127,184.5C 131.477,182.049 131.644,179.215 127.5,176C 129.488,175.82 131.488,175.986 133.5,176.5C 133.663,178.857 133.497,181.19 133,183.5C 131.315,185.017 129.815,186.684 128.5,188.5C 129.648,190.149 130.981,191.649 132.5,193C 131.584,193.374 130.75,193.874 130,194.5C 128.281,192.443 126.281,190.776 124,189.5C 122.97,189.836 122.47,190.503 122.5,191.5 Z"/></g>
<g><path style="opacity:1" fill="#ff00af" d="M 125.5,183.5 C 123.787,182.365 123.12,180.698 123.5,178.5C 125.01,177.272 126.51,177.272 128,178.5C 129.077,181.262 128.244,182.928 125.5,183.5 Z"/></g>
<g><path style="opacity:1" fill="#7ec17c" d="M 174.5,203.5 C 171.865,200.921 169.699,197.921 168,194.5C 165.482,197.571 162.982,200.571 160.5,203.5C 162.001,199.168 164.501,195.501 168,192.5C 171.221,195.552 173.388,199.219 174.5,203.5 Z"/></g>
<g><path style="opacity:1" fill="#ff003c" d="M 121.5,192.5 C 122.167,192.5 122.5,192.167 122.5,191.5C 123.117,191.389 123.617,191.056 124,190.5C 126,192.5 128,194.5 130,196.5C 129.99,198.471 128.824,199.471 126.5,199.5C 122.03,198.844 120.364,196.51 121.5,192.5 Z"/></g>
<g><path style="opacity:0.016" fill="#009900" d="M 231.5,199.5 C 232.833,200.167 232.833,200.167 231.5,199.5 Z"/></g>
<g><path style="opacity:1" fill="#7fc17e" d="M 140.5,191.5 C 141.478,191.811 142.145,192.478 142.5,193.5C 141.752,195.332 140.752,196.999 139.5,198.5C 143.933,203.133 142.933,204.966 136.5,204C 135.975,203.308 135.308,202.808 134.5,202.5C 129.817,205.553 125.151,205.887 120.5,203.5C 125.343,203.883 130.009,203.217 134.5,201.5C 136.104,201.939 137.604,202.606 139,203.5C 139.5,203.167 140,202.833 140.5,202.5C 139.389,201.389 138.722,200.055 138.5,198.5C 139.937,196.423 140.604,194.09 140.5,191.5 Z"/></g>
<g><path style="opacity:1" fill="#71bb70" d="M 161.5,192.5 C 159.952,196.061 157.952,199.394 155.5,202.5C 157.045,203.452 158.712,203.785 160.5,203.5C 158.153,204.895 155.819,204.728 153.5,203C 155.647,199.031 158.313,195.531 161.5,192.5 Z"/></g>
<g><path style="opacity:1" fill="#a7d5a5" d="M 188.5,191.5 C 187.013,195.117 185.68,198.784 184.5,202.5C 191.2,202.83 197.866,202.497 204.5,201.5C 199.88,200.507 195.214,200.173 190.5,200.5C 190.861,196.778 192.528,193.778 195.5,191.5C 194.559,193.466 193.559,195.466 192.5,197.5C 196.459,198.327 200.459,198.827 204.5,199C 205.833,200.667 205.833,202.333 204.5,204C 194.325,204.825 184.325,204.658 174.5,203.5C 176.604,203.799 178.604,203.466 180.5,202.5C 179.37,201.378 178.703,200.044 178.5,198.5C 179.458,198.953 180.292,199.619 181,200.5C 183.364,197.31 185.864,194.31 188.5,191.5 Z"/></g>
<g><path style="opacity:1" fill="#72bb71" d="M 90.5,194.5 C 90.4606,195.583 90.1272,196.583 89.5,197.5C 93.7956,198.328 98.1289,198.828 102.5,199C 103.833,200.667 103.833,202.333 102.5,204C 94.8406,204.5 87.1739,204.666 79.5,204.5C 79.2053,202.265 79.5386,200.265 80.5,198.5C 80.5,200.167 80.5,201.833 80.5,203.5C 87.5,203.5 94.5,203.5 101.5,203.5C 101.5,202.167 101.5,200.833 101.5,199.5C 96.8333,199.5 92.1667,199.5 87.5,199.5C 87.2729,197.067 88.2729,195.401 90.5,194.5 Z"/></g>
<g><path style="opacity:0.004" fill="#008000" d="M 34.5,215.5 C 33.8333,214.167 33.8333,214.167 34.5,215.5 Z"/></g>
<g><path style="opacity:0.016" fill="#009900" d="M 34.5,215.5 C 35.8333,216.167 35.8333,216.167 34.5,215.5 Z"/></g>
<g><path style="opacity:0.012" fill="#008000" d="M 218.5,215.5 C 219.833,216.167 219.833,216.167 218.5,215.5 Z"/></g>
<g><path style="opacity:0.012" fill="#008000" d="M 38.5,219.5 C 39.8333,220.167 39.8333,220.167 38.5,219.5 Z"/></g>
<g><path style="opacity:0.008" fill="#00aa00" d="M 214.5,219.5 C 215.833,220.167 215.833,220.167 214.5,219.5 Z"/></g>
<g><path style="opacity:0.008" fill="#00aa00" d="M 46.5,226.5 C 47.8333,227.167 47.8333,227.167 46.5,226.5 Z"/></g>
<g><path style="opacity:0.008" fill="#00aa00" d="M 206.5,226.5 C 207.833,227.167 207.833,227.167 206.5,226.5 Z"/></g>
<g><path style="opacity:0.004" fill="#00ff00" d="M 50.5,229.5 C 51.8333,230.167 51.8333,230.167 50.5,229.5 Z"/></g>
<g><path style="opacity:0.004" fill="#00ff00" d="M 202.5,229.5 C 203.833,230.167 203.833,230.167 202.5,229.5 Z"/></g>
<g><path style="opacity:0.004" fill="#008000" d="M 59.5,235.5 C 60.8333,236.167 60.8333,236.167 59.5,235.5 Z"/></g>
<g><path style="opacity:0.004" fill="#00ff00" d="M 193.5,235.5 C 194.833,236.167 194.833,236.167 193.5,235.5 Z"/></g>
<g><path style="opacity:0.004" fill="#00ff00" d="M 64.5,238.5 C 65.8333,239.167 65.8333,239.167 64.5,238.5 Z"/></g>
<g><path style="opacity:0.004" fill="#00ff00" d="M 188.5,238.5 C 189.833,239.167 189.833,239.167 188.5,238.5 Z"/></g>
<g><path style="opacity:0.008" fill="#00aa00" d="M 70.5,241.5 C 71.8333,242.167 71.8333,242.167 70.5,241.5 Z"/></g>
<g><path style="opacity:0.008" fill="#00aa00" d="M 182.5,241.5 C 183.833,242.167 183.833,242.167 182.5,241.5 Z"/></g>
<g><path style="opacity:0.004" fill="#00ff00" d="M 79.5,245.5 C 80.8333,246.167 80.8333,246.167 79.5,245.5 Z"/></g>
<g><path style="opacity:0.004" fill="#00ff00" d="M 173.5,245.5 C 174.833,246.167 174.833,246.167 173.5,245.5 Z"/></g>
</svg>
