<?xml version="1.0" encoding="UTF-8"?>
<!DOCTYPE svg PUBLIC "-//W3C//DTD SVG 1.1//EN" "http://www.w3.org/Graphics/SVG/1.1/DTD/svg11.dtd">
<svg xmlns="http://www.w3.org/2000/svg" version="1.1" width="256px" height="255px" style="shape-rendering:geometricPrecision; text-rendering:geometricPrecision; image-rendering:optimizeQuality; fill-rule:evenodd; clip-rule:evenodd" xmlns:xlink="http://www.w3.org/1999/xlink">
<g><path style="opacity:1" fill="#fdf3f3" d="M 194.5,17.5 C 193.501,90.3314 193.167,163.331 193.5,236.5C 193.084,238.752 191.751,240.252 189.5,241C 148.167,241.667 106.833,241.667 65.5,241C 63.249,240.252 61.9156,238.752 61.5,236.5C 61.5058,162.862 61.5058,89.5282 61.5,16.5C 61.9156,14.2475 63.249,12.7475 65.5,12C 106.833,11.3333 148.167,11.3333 189.5,12C 192.056,13.0545 193.723,14.8878 194.5,17.5 Z"/></g>
<g><path style="opacity:0.518" fill="#f6dede" d="M 61.5,16.5 C 61.5058,89.5282 61.5058,162.862 61.5,236.5C 60.71,235.391 60.21,234.058 60,232.5C 59.3333,161.833 59.3333,91.1667 60,20.5C 60.21,18.9419 60.71,17.6085 61.5,16.5 Z"/></g>
<g><path style="opacity:0.518" fill="#f6dede" d="M 194.5,17.5 C 195.657,89.1385 195.824,160.805 195,232.5C 194.79,234.058 194.29,235.391 193.5,236.5C 193.167,163.331 193.501,90.3314 194.5,17.5 Z"/></g>
<g><path style="opacity:1" fill="#fbeded" d="M 127.5,23.5 C 130.898,23.1796 134.232,23.513 137.5,24.5C 138.558,27.7962 137.225,29.4628 133.5,29.5C 128.5,29.5 123.5,29.5 118.5,29.5C 115.833,29.5 113.167,29.5 110.5,29.5C 109.833,29.5 109.5,29.1667 109.5,28.5C 107.086,27.2233 106.919,25.5566 109,23.5C 114.956,23.5836 121.123,23.5836 127.5,23.5 Z"/></g>
<g><path style="opacity:1" fill="#f8dddb" d="M 148.5,23.5 C 151.376,26.447 150.709,28.447 146.5,29.5C 145.261,29.0576 144.261,28.3909 143.5,27.5C 143.384,24.0897 145.05,22.7564 148.5,23.5 Z"/></g>
<g><path style="opacity:1" fill="#fef400" d="M 130.5,20.5 C 137.5,20.5 144.5,20.5 151.5,20.5C 150.694,21.7281 149.694,22.7281 148.5,23.5C 145.05,22.7564 143.384,24.0897 143.5,27.5C 118.802,41.1809 94.1348,54.8476 69.5,68.5C 69.5,66.1667 69.5,63.8333 69.5,61.5C 73.3791,59.7292 77.3791,58.2292 81.5,57C 86.2179,51.6537 92.2179,48.9871 99.5,49C 110.407,41.7145 121.74,35.2145 133.5,29.5C 137.225,29.4628 138.558,27.7962 137.5,24.5C 134.232,23.513 130.898,23.1796 127.5,23.5C 128.306,22.2719 129.306,21.2719 130.5,20.5 Z"/></g>
<g><path style="opacity:1" fill="#ff8200" d="M 109.5,20.5 C 116.5,20.5 123.5,20.5 130.5,20.5C 129.306,21.2719 128.306,22.2719 127.5,23.5C 121.123,23.5836 114.956,23.5836 109,23.5C 106.919,25.5566 107.086,27.2233 109.5,28.5C 102.11,29.5282 95.777,32.6948 90.5,38C 83.7827,41.6902 76.7827,44.8568 69.5,47.5C 69.2011,45.396 69.5344,43.396 70.5,41.5C 83.432,34.3062 96.432,27.3062 109.5,20.5 Z"/></g>
<g><path style="opacity:1" fill="#f25e2f" d="M 97.5,20.5 C 101.5,20.5 105.5,20.5 109.5,20.5C 96.432,27.3062 83.432,34.3062 70.5,41.5C 69.5344,43.396 69.2011,45.396 69.5,47.5C 69.5,49.5 69.5,51.5 69.5,53.5C 69.5,55.5 69.5,57.5 69.5,59.5C 69.5,60.1667 69.5,60.8333 69.5,61.5C 69.5,63.8333 69.5,66.1667 69.5,68.5C 69.5,70.5 69.5,72.5 69.5,74.5C 69.5,75.5 69.5,76.5 69.5,77.5C 69.5,80.8333 69.5,84.1667 69.5,87.5C 69.5,89.5 69.5,91.5 69.5,93.5C 69.5,104.167 69.5,114.833 69.5,125.5C 69.5,128.833 69.5,132.167 69.5,135.5C 69.5,138.833 69.5,142.167 69.5,145.5C 69.5,149.167 69.5,152.833 69.5,156.5C 69.5,158.833 69.5,161.167 69.5,163.5C 69.5,166.833 69.5,170.167 69.5,173.5C 69.5,176.167 69.5,178.833 69.5,181.5C 69.5,182.833 69.5,184.167 69.5,185.5C 69.5,187.5 69.5,189.5 69.5,191.5C 69.5,198.833 69.5,206.167 69.5,213.5C 69.5,215.5 69.5,217.5 69.5,219.5C 69.5,221.5 69.5,223.5 69.5,225.5C 69.5,226.167 69.5,226.833 69.5,227.5C 68.1667,160.167 68.1667,92.8333 69.5,25.5C 69.3345,29.5138 69.5012,33.5138 70,37.5C 72.6566,36.4271 74.8232,34.7605 76.5,32.5C 84.5232,30.1113 91.5232,26.1113 97.5,20.5 Z"/></g>
<g><path style="opacity:1" fill="#ff9c00" d="M 109.5,28.5 C 109.5,29.1667 109.833,29.5 110.5,29.5C 110.631,30.3764 110.298,31.0431 109.5,31.5C 101.141,33.8464 93.8081,38.0131 87.5,44C 80.7203,45.8875 74.7203,49.0542 69.5,53.5C 69.5,51.5 69.5,49.5 69.5,47.5C 76.7827,44.8568 83.7827,41.6902 90.5,38C 95.777,32.6948 102.11,29.5282 109.5,28.5 Z"/></g>
<g><path style="opacity:1" fill="#fe3800" d="M 97.5,20.5 C 91.5232,26.1113 84.5232,30.1113 76.5,32.5C 74.8232,34.7605 72.6566,36.4271 70,37.5C 69.5012,33.5138 69.3345,29.5138 69.5,25.5C 70.5981,24.603 70.5981,23.7697 69.5,23C 70.8333,22.3333 72.1667,21.6667 73.5,21C 81.4931,20.5003 89.4931,20.3336 97.5,20.5 Z"/></g>
<g><path style="opacity:1" fill="#ffdf00" d="M 118.5,29.5 C 123.5,29.5 128.5,29.5 133.5,29.5C 121.74,35.2145 110.407,41.7145 99.5,49C 92.2179,48.9871 86.2179,51.6537 81.5,57C 77.3791,58.2292 73.3791,59.7292 69.5,61.5C 69.5,60.8333 69.5,60.1667 69.5,59.5C 78.5746,54.6211 87.5746,49.4544 96.5,44C 97.7932,43.51 99.1266,43.3433 100.5,43.5C 100.5,42.5 100.5,41.5 100.5,40.5C 103.981,39.7677 107.314,38.4343 110.5,36.5C 113.198,34.159 115.865,31.8257 118.5,29.5 Z"/></g>
<g><path style="opacity:1" fill="#a6ff00" d="M 176.5,20.5 C 178.415,20.2155 180.081,20.5489 181.5,21.5C 167.169,31.8531 151.836,41.0198 135.5,49C 130.852,53.0548 125.519,55.8882 119.5,57.5C 114.5,61.5715 109.167,65.0715 103.5,68C 97.7536,70.3718 92.0869,73.0385 86.5,76C 81.4828,80.8383 75.8161,84.6717 69.5,87.5C 69.5,84.1667 69.5,80.8333 69.5,77.5C 78.9577,74.1045 87.9577,69.6045 96.5,64C 99.6303,62.2143 102.964,60.881 106.5,60C 112.277,54.7768 118.944,51.1102 126.5,49C 143.016,39.2081 159.683,29.7081 176.5,20.5 Z"/></g>
<g><path style="opacity:1" fill="#ffbd00" d="M 110.5,29.5 C 113.167,29.5 115.833,29.5 118.5,29.5C 115.865,31.8257 113.198,34.159 110.5,36.5C 107.314,38.4343 103.981,39.7677 100.5,40.5C 100.5,41.5 100.5,42.5 100.5,43.5C 99.1266,43.3433 97.7932,43.51 96.5,44C 87.5746,49.4544 78.5746,54.6211 69.5,59.5C 69.5,57.5 69.5,55.5 69.5,53.5C 74.7203,49.0542 80.7203,45.8875 87.5,44C 93.8081,38.0131 101.141,33.8464 109.5,31.5C 110.298,31.0431 110.631,30.3764 110.5,29.5 Z"/></g>
<g><path style="opacity:1" fill="#18fe17" d="M 185.5,37.5 C 185.5,45.5 185.5,53.5 185.5,61.5C 181.738,63.5555 178.071,65.8888 174.5,68.5C 167.644,71.3758 161.311,75.0425 155.5,79.5C 137.833,79.5 120.167,79.5 102.5,79.5C 117.986,71.2566 133.653,63.2566 149.5,55.5C 150.5,53.8333 151.833,52.5 153.5,51.5C 157.61,50.279 161.277,48.279 164.5,45.5C 171.898,43.5942 178.898,40.9275 185.5,37.5 Z"/></g>
<g><path style="opacity:1" fill="#e1ff00" d="M 151.5,20.5 C 158.167,20.5 164.833,20.5 171.5,20.5C 169.075,23.7616 165.742,25.2616 161.5,25C 155.878,27.9719 150.545,31.3053 145.5,35C 140.211,36.987 134.878,38.987 129.5,41C 123.265,44.7128 117.265,48.7128 111.5,53C 107.947,54.7043 104.28,56.2043 100.5,57.5C 95.7917,61.5231 90.4584,64.5231 84.5,66.5C 79.7401,69.3832 74.7401,72.0499 69.5,74.5C 69.5,72.5 69.5,70.5 69.5,68.5C 94.1348,54.8476 118.802,41.1809 143.5,27.5C 144.261,28.3909 145.261,29.0576 146.5,29.5C 150.709,28.447 151.376,26.447 148.5,23.5C 149.694,22.7281 150.694,21.7281 151.5,20.5 Z"/></g>
<g><path style="opacity:1" fill="#c5ff00" d="M 171.5,20.5 C 173.167,20.5 174.833,20.5 176.5,20.5C 159.683,29.7081 143.016,39.2081 126.5,49C 118.944,51.1102 112.277,54.7768 106.5,60C 102.964,60.881 99.6303,62.2143 96.5,64C 87.9577,69.6045 78.9577,74.1045 69.5,77.5C 69.5,76.5 69.5,75.5 69.5,74.5C 74.7401,72.0499 79.7401,69.3832 84.5,66.5C 90.4584,64.5231 95.7917,61.5231 100.5,57.5C 104.28,56.2043 107.947,54.7043 111.5,53C 117.265,48.7128 123.265,44.7128 129.5,41C 134.878,38.987 140.211,36.987 145.5,35C 150.545,31.3053 155.878,27.9719 161.5,25C 165.742,25.2616 169.075,23.7616 171.5,20.5 Z"/></g>
<g><path style="opacity:1" fill="#80ff00" d="M 181.5,21.5 C 183.43,21.7706 184.764,22.7706 185.5,24.5C 185.5,26.5 185.5,28.5 185.5,30.5C 172.627,37.1006 159.961,43.9339 147.5,51C 138.444,51.6868 131.444,55.6868 126.5,63C 119.885,67.141 112.885,70.4743 105.5,73C 101.931,74.9417 98.5978,77.1084 95.5,79.5C 87.4153,79.6083 81.7487,83.275 78.5,90.5C 75.4061,91.2134 72.4061,92.2134 69.5,93.5C 69.5,91.5 69.5,89.5 69.5,87.5C 75.8161,84.6717 81.4828,80.8383 86.5,76C 92.0869,73.0385 97.7536,70.3718 103.5,68C 109.167,65.0715 114.5,61.5715 119.5,57.5C 125.519,55.8882 130.852,53.0548 135.5,49C 151.836,41.0198 167.169,31.8531 181.5,21.5 Z"/></g>
<g><path style="opacity:1" fill="#59ff00" d="M 185.5,30.5 C 185.5,32.8333 185.5,35.1667 185.5,37.5C 178.898,40.9275 171.898,43.5942 164.5,45.5C 161.277,48.279 157.61,50.279 153.5,51.5C 151.833,52.5 150.5,53.8333 149.5,55.5C 133.653,63.2566 117.986,71.2566 102.5,79.5C 100.167,79.5 97.8333,79.5 95.5,79.5C 98.5978,77.1084 101.931,74.9417 105.5,73C 112.885,70.4743 119.885,67.141 126.5,63C 131.444,55.6868 138.444,51.6868 147.5,51C 159.961,43.9339 172.627,37.1006 185.5,30.5 Z"/></g>
<g><path style="opacity:1" fill="#01fe63" d="M 185.5,61.5 C 185.5,63.5 185.5,65.5 185.5,67.5C 181.557,67.8044 178.557,69.6377 176.5,73C 172.103,75.1987 167.769,77.3654 163.5,79.5C 160.833,79.5 158.167,79.5 155.5,79.5C 161.311,75.0425 167.644,71.3758 174.5,68.5C 178.071,65.8888 181.738,63.5555 185.5,61.5 Z"/></g>
<g><path style="opacity:1" fill="#05fe8b" d="M 185.5,67.5 C 185.5,71.5 185.5,75.5 185.5,79.5C 181.221,80.9728 177.221,82.9728 173.5,85.5C 170.753,82.4625 167.42,80.4625 163.5,79.5C 167.769,77.3654 172.103,75.1987 176.5,73C 178.557,69.6377 181.557,67.8044 185.5,67.5 Z"/></g>
<g><path style="opacity:1" fill="#fae8e8" d="M 95.5,79.5 C 97.8333,79.5 100.167,79.5 102.5,79.5C 120.167,79.5 137.833,79.5 155.5,79.5C 158.167,79.5 160.833,79.5 163.5,79.5C 167.42,80.4625 170.753,82.4625 173.5,85.5C 175.025,87.2163 176.025,89.2163 176.5,91.5C 177.159,94.4552 177.492,97.4552 177.5,100.5C 177.5,103.5 177.5,106.5 177.5,109.5C 177.5,112.167 177.5,114.833 177.5,117.5C 177.5,120.167 177.5,122.833 177.5,125.5C 177.5,138.167 177.5,150.833 177.5,163.5C 175.265,174.81 168.265,180.143 156.5,179.5C 152.167,179.5 147.833,179.5 143.5,179.5C 138.833,179.5 134.167,179.5 129.5,179.5C 116.833,179.5 104.167,179.5 91.5,179.5C 89.6976,178.542 87.6976,177.875 85.5,177.5C 84.5637,176.026 83.2303,175.026 81.5,174.5C 80.5294,172.517 79.5294,170.517 78.5,168.5C 78.1667,165.833 77.8333,163.167 77.5,160.5C 77.5,157.833 77.5,155.167 77.5,152.5C 77.5,149.167 77.5,145.833 77.5,142.5C 77.5,139.167 77.5,135.833 77.5,132.5C 77.5,128.833 77.5,125.167 77.5,121.5C 77.2667,111.135 77.6,100.802 78.5,90.5C 81.7487,83.275 87.4153,79.6083 95.5,79.5 Z"/></g>
<g><path style="opacity:1" fill="#03ffce" d="M 185.5,79.5 C 185.5,82.1667 185.5,84.8333 185.5,87.5C 182.622,89.1054 179.622,90.4388 176.5,91.5C 176.025,89.2163 175.025,87.2163 173.5,85.5C 177.221,82.9728 181.221,80.9728 185.5,79.5 Z"/></g>
<g><path style="opacity:1" fill="#16fe27" d="M 150.5,86.5 C 148.267,88.3481 145.934,90.0148 143.5,91.5C 128.496,91.3334 113.496,91.5001 98.5,92C 94.0223,92.6462 91.3556,95.1462 90.5,99.5C 89.5206,102.625 89.1872,105.958 89.5,109.5C 87.8333,109.5 86.1667,109.5 84.5,109.5C 84.5,104.167 84.5,98.8333 84.5,93.5C 85.6141,90.5512 87.6141,88.3845 90.5,87C 110.497,86.5 130.497,86.3334 150.5,86.5 Z"/></g>
<g><path style="opacity:1" fill="#06fe9a" d="M 150.5,86.5 C 155.179,86.3342 159.845,86.5008 164.5,87C 166.324,87.66 167.657,88.8267 168.5,90.5C 166.512,91.7445 164.512,93.0778 162.5,94.5C 160.811,93.0693 158.811,92.2359 156.5,92C 152.179,91.501 147.846,91.3343 143.5,91.5C 145.934,90.0148 148.267,88.3481 150.5,86.5 Z"/></g>
<g><path style="opacity:1" fill="#e18789" d="M 146.5,109.5 C 146.5,106.5 146.5,103.5 146.5,100.5C 142.627,98.5698 138.294,97.9031 133.5,98.5C 125.167,98.5 116.833,98.5 108.5,98.5C 108.5,102.167 108.5,105.833 108.5,109.5C 107.498,106.278 107.165,102.278 107.5,97.5C 120.833,97.5 134.167,97.5 147.5,97.5C 147.835,102.278 147.502,106.278 146.5,109.5 Z"/></g>
<g><path style="opacity:1" fill="#04f1fc" d="M 185.5,87.5 C 185.5,90.8333 185.5,94.1667 185.5,97.5C 182.86,98.4485 180.193,99.4485 177.5,100.5C 177.492,97.4552 177.159,94.4552 176.5,91.5C 179.622,90.4388 182.622,89.1054 185.5,87.5 Z"/></g>
<g><path style="opacity:1" fill="#08fded" d="M 168.5,90.5 C 169.401,91.2905 170.068,92.2905 170.5,93.5C 170.5,96.5 170.5,99.5 170.5,102.5C 168.678,102.831 167.011,103.498 165.5,104.5C 165.5,103.167 165.5,101.833 165.5,100.5C 164.877,98.2895 163.877,96.2895 162.5,94.5C 164.512,93.0778 166.512,91.7445 168.5,90.5 Z"/></g>
<g><path style="opacity:1" fill="#ebaaab" d="M 84.5,93.5 C 84.5,98.8333 84.5,104.167 84.5,109.5C 86.1667,109.5 87.8333,109.5 89.5,109.5C 89.1872,105.958 89.5206,102.625 90.5,99.5C 90.5,103.167 90.5,106.833 90.5,110.5C 88.1667,110.5 85.8333,110.5 83.5,110.5C 83.1778,104.642 83.5111,98.9753 84.5,93.5 Z"/></g>
<g><path style="opacity:1" fill="#eba9aa" d="M 170.5,93.5 C 171.489,98.9753 171.822,104.642 171.5,110.5C 169.167,110.5 166.833,110.5 164.5,110.5C 164.187,106.958 164.521,103.625 165.5,100.5C 165.5,101.833 165.5,103.167 165.5,104.5C 165.5,106.167 165.5,107.833 165.5,109.5C 167.167,109.5 168.833,109.5 170.5,109.5C 170.5,107.167 170.5,104.833 170.5,102.5C 170.5,99.5 170.5,96.5 170.5,93.5 Z"/></g>
<g><path style="opacity:1" fill="#03fe6e" d="M 133.5,98.5 C 132.548,99.452 131.548,100.452 130.5,101.5C 126.141,103.547 121.807,105.547 117.5,107.5C 116.702,107.957 116.369,108.624 116.5,109.5C 113.833,109.5 111.167,109.5 108.5,109.5C 108.5,105.833 108.5,102.167 108.5,98.5C 116.833,98.5 125.167,98.5 133.5,98.5 Z"/></g>
<g><path style="opacity:1" fill="#05feea" d="M 157.5,98.5 C 158.414,101.728 158.747,105.061 158.5,108.5C 157.18,109.942 155.514,110.608 153.5,110.5C 153.5,106.5 153.5,102.5 153.5,98.5C 154.833,98.5 156.167,98.5 157.5,98.5 Z"/></g>
<g><path style="opacity:1" fill="#05c0ff" d="M 185.5,97.5 C 185.5,100.167 185.5,102.833 185.5,105.5C 182.833,106.833 180.167,108.167 177.5,109.5C 177.5,106.5 177.5,103.5 177.5,100.5C 180.193,99.4485 182.86,98.4485 185.5,97.5 Z"/></g>
<g><path style="opacity:1" fill="#01fe3d" d="M 97.5,98.5 C 98.8333,98.5 100.167,98.5 101.5,98.5C 101.5,102.5 101.5,106.5 101.5,110.5C 99.8828,111.038 98.2161,111.371 96.5,111.5C 96.2307,107.069 96.564,102.735 97.5,98.5 Z"/></g>
<g><path style="opacity:1" fill="#03fea1" d="M 133.5,98.5 C 138.294,97.9031 142.627,98.5698 146.5,100.5C 140.733,103.042 135.4,106.042 130.5,109.5C 125.833,109.5 121.167,109.5 116.5,109.5C 116.369,108.624 116.702,107.957 117.5,107.5C 121.807,105.547 126.141,103.547 130.5,101.5C 131.548,100.452 132.548,99.452 133.5,98.5 Z"/></g>
<g><path style="opacity:1" fill="#23ff1a" d="M 78.5,90.5 C 77.6,100.802 77.2667,111.135 77.5,121.5C 74.5498,122.308 71.8831,123.642 69.5,125.5C 69.5,114.833 69.5,104.167 69.5,93.5C 72.4061,92.2134 75.4061,91.2134 78.5,90.5 Z"/></g>
<g><path style="opacity:1" fill="#02ffcc" d="M 146.5,100.5 C 146.5,103.5 146.5,106.5 146.5,109.5C 141.167,109.5 135.833,109.5 130.5,109.5C 135.4,106.042 140.733,103.042 146.5,100.5 Z"/></g>
<g><path style="opacity:1" fill="#01ddff" d="M 170.5,102.5 C 170.5,104.833 170.5,107.167 170.5,109.5C 168.833,109.5 167.167,109.5 165.5,109.5C 165.5,107.833 165.5,106.167 165.5,104.5C 167.011,103.498 168.678,102.831 170.5,102.5 Z"/></g>
<g><path style="opacity:1" fill="#02d5ff" d="M 158.5,108.5 C 158.5,110.833 158.5,113.167 158.5,115.5C 153.801,118.181 149.135,120.847 144.5,123.5C 144.5,121.167 144.5,118.833 144.5,116.5C 147.5,116.5 150.5,116.5 153.5,116.5C 153.5,114.5 153.5,112.5 153.5,110.5C 155.514,110.608 157.18,109.942 158.5,108.5 Z"/></g>
<g><path style="opacity:1" fill="#048eff" d="M 185.5,105.5 C 185.5,108.5 185.5,111.5 185.5,114.5C 182.833,115.5 180.167,116.5 177.5,117.5C 177.5,114.833 177.5,112.167 177.5,109.5C 180.167,108.167 182.833,106.833 185.5,105.5 Z"/></g>
<g><path style="opacity:1" fill="#df7d80" d="M 89.5,116.5 C 87.8333,116.5 86.1667,116.5 84.5,116.5C 84.5,121.5 84.5,126.5 84.5,131.5C 84.5,134.167 84.5,136.833 84.5,139.5C 86.1667,139.5 87.8333,139.5 89.5,139.5C 88.3409,140.513 86.3409,140.847 83.5,140.5C 83.5,132.167 83.5,123.833 83.5,115.5C 86.3409,115.153 88.3409,115.487 89.5,116.5 Z"/></g>
<g><path style="opacity:1" fill="#e39c9e" d="M 116.5,115.5 C 123.833,115.5 131.167,115.5 138.5,115.5C 138.5,124.833 138.5,134.167 138.5,143.5C 131.167,143.5 123.833,143.5 116.5,143.5C 116.5,134.167 116.5,124.833 116.5,115.5 Z"/></g>
<g><path style="opacity:1" fill="#df7d80" d="M 165.5,139.5 C 167.167,139.5 168.833,139.5 170.5,139.5C 170.5,137.167 170.5,134.833 170.5,132.5C 170.5,129.167 170.5,125.833 170.5,122.5C 170.5,120.5 170.5,118.5 170.5,116.5C 168.833,116.5 167.167,116.5 165.5,116.5C 166.659,115.487 168.659,115.153 171.5,115.5C 171.5,123.833 171.5,132.167 171.5,140.5C 168.659,140.847 166.659,140.513 165.5,139.5 Z"/></g>
<g><path style="opacity:1" fill="#03fe7f" d="M 101.5,110.5 C 101.5,112.5 101.5,114.5 101.5,116.5C 102.5,116.5 103.5,116.5 104.5,116.5C 102.104,118.555 99.4377,120.221 96.5,121.5C 96.5,118.167 96.5,114.833 96.5,111.5C 98.2161,111.371 99.8828,111.038 101.5,110.5 Z"/></g>
<g><path style="opacity:1" fill="#0362ff" d="M 185.5,114.5 C 185.5,116.833 185.5,119.167 185.5,121.5C 182.833,122.833 180.167,124.167 177.5,125.5C 177.5,122.833 177.5,120.167 177.5,117.5C 180.167,116.5 182.833,115.5 185.5,114.5 Z"/></g>
<g><path style="opacity:1" fill="#03ffe5" d="M 137.5,117.5 C 130.833,120.833 124.167,124.167 117.5,127.5C 117.5,123.833 117.5,120.167 117.5,116.5C 124.354,116.176 131.021,116.509 137.5,117.5 Z"/></g>
<g><path style="opacity:1" fill="#01b7ff" d="M 158.5,115.5 C 158.5,117.5 158.5,119.5 158.5,121.5C 153.551,122.978 148.885,124.978 144.5,127.5C 144.5,126.167 144.5,124.833 144.5,123.5C 149.135,120.847 153.801,118.181 158.5,115.5 Z"/></g>
<g><path style="opacity:1" fill="#048cff" d="M 165.5,116.5 C 167.167,116.5 168.833,116.5 170.5,116.5C 170.5,118.5 170.5,120.5 170.5,122.5C 168.833,123.167 167.167,123.833 165.5,124.5C 165.5,121.833 165.5,119.167 165.5,116.5 Z"/></g>
<g><path style="opacity:1" fill="#02fead" d="M 104.5,116.5 C 106.5,116.5 108.5,116.5 110.5,116.5C 110.5,118.5 110.5,120.5 110.5,122.5C 107.081,124.225 103.414,125.391 99.5,126C 98.6266,127.045 97.6266,127.878 96.5,128.5C 96.5,126.167 96.5,123.833 96.5,121.5C 99.4377,120.221 102.104,118.555 104.5,116.5 Z"/></g>
<g><path style="opacity:1" fill="#04e5fe" d="M 137.5,117.5 C 137.5,120.167 137.5,122.833 137.5,125.5C 131.468,129.756 124.802,133.089 117.5,135.5C 117.5,132.833 117.5,130.167 117.5,127.5C 124.167,124.167 130.833,120.833 137.5,117.5 Z"/></g>
<g><path style="opacity:1" fill="#017fff" d="M 158.5,127.5 C 158.5,128.833 158.5,130.167 158.5,131.5C 153.829,133.503 149.162,135.503 144.5,137.5C 144.5,136.167 144.5,134.833 144.5,133.5C 149.057,131.197 153.724,129.197 158.5,127.5 Z"/></g>
<g><path style="opacity:1" fill="#06fedd" d="M 110.5,122.5 C 110.5,126.5 110.5,130.5 110.5,134.5C 105.561,136.303 100.894,138.636 96.5,141.5C 96.5,137.167 96.5,132.833 96.5,128.5C 97.6266,127.878 98.6266,127.045 99.5,126C 103.414,125.391 107.081,124.225 110.5,122.5 Z"/></g>
<g><path style="opacity:1" fill="#04fe78" d="M 77.5,121.5 C 77.5,125.167 77.5,128.833 77.5,132.5C 74.8333,133.5 72.1667,134.5 69.5,135.5C 69.5,132.167 69.5,128.833 69.5,125.5C 71.8831,123.642 74.5498,122.308 77.5,121.5 Z"/></g>
<g><path style="opacity:1" fill="#0afe8d" d="M 89.5,116.5 C 89.5,121.5 89.5,126.5 89.5,131.5C 87.8333,131.5 86.1667,131.5 84.5,131.5C 84.5,126.5 84.5,121.5 84.5,116.5C 86.1667,116.5 87.8333,116.5 89.5,116.5 Z"/></g>
<g><path style="opacity:1" fill="#0459ff" d="M 170.5,122.5 C 170.5,125.833 170.5,129.167 170.5,132.5C 168.716,132.893 167.05,133.559 165.5,134.5C 165.5,131.167 165.5,127.833 165.5,124.5C 167.167,123.833 168.833,123.167 170.5,122.5 Z"/></g>
<g><path style="opacity:1" fill="#0397ff" d="M 158.5,121.5 C 158.5,123.5 158.5,125.5 158.5,127.5C 153.724,129.197 149.057,131.197 144.5,133.5C 144.5,131.5 144.5,129.5 144.5,127.5C 148.885,124.978 153.551,122.978 158.5,121.5 Z"/></g>
<g><path style="opacity:1" fill="#035aff" d="M 158.5,131.5 C 158.5,134.167 158.5,136.833 158.5,139.5C 156.816,140.527 155.149,141.527 153.5,142.5C 150.5,142.5 147.5,142.5 144.5,142.5C 144.5,140.833 144.5,139.167 144.5,137.5C 149.162,135.503 153.829,133.503 158.5,131.5 Z"/></g>
<g><path style="opacity:1" fill="#0030ff" d="M 170.5,132.5 C 170.5,134.833 170.5,137.167 170.5,139.5C 168.833,139.5 167.167,139.5 165.5,139.5C 165.5,137.833 165.5,136.167 165.5,134.5C 167.05,133.559 168.716,132.893 170.5,132.5 Z"/></g>
<g><path style="opacity:1" fill="#03feca" d="M 84.5,131.5 C 86.1667,131.5 87.8333,131.5 89.5,131.5C 89.5,134.167 89.5,136.833 89.5,139.5C 87.8333,139.5 86.1667,139.5 84.5,139.5C 84.5,136.833 84.5,134.167 84.5,131.5 Z"/></g>
<g><path style="opacity:1" fill="#02c0ff" d="M 137.5,125.5 C 137.5,127.5 137.5,129.5 137.5,131.5C 133.236,131.965 129.902,133.965 127.5,137.5C 124.286,138.937 121.286,140.603 118.5,142.5C 117.532,140.393 117.198,138.059 117.5,135.5C 124.802,133.089 131.468,129.756 137.5,125.5 Z"/></g>
<g><path style="opacity:1" fill="#0599ff" d="M 137.5,131.5 C 137.5,135.167 137.5,138.833 137.5,142.5C 131.167,142.5 124.833,142.5 118.5,142.5C 121.286,140.603 124.286,138.937 127.5,137.5C 129.902,133.965 133.236,131.965 137.5,131.5 Z"/></g>
<g><path style="opacity:1" fill="#3d11ff" d="M 185.5,121.5 C 185.5,134.5 185.5,147.5 185.5,160.5C 182.828,161.501 180.162,162.501 177.5,163.5C 177.5,150.833 177.5,138.167 177.5,125.5C 180.167,124.167 182.833,122.833 185.5,121.5 Z"/></g>
<g><path style="opacity:1" fill="#05feb4" d="M 77.5,132.5 C 77.5,135.833 77.5,139.167 77.5,142.5C 74.5944,142.957 71.9278,143.957 69.5,145.5C 69.5,142.167 69.5,138.833 69.5,135.5C 72.1667,134.5 74.8333,133.5 77.5,132.5 Z"/></g>
<g><path style="opacity:1" fill="#04e4ff" d="M 110.5,134.5 C 110.5,137.167 110.5,139.833 110.5,142.5C 107.5,142.5 104.5,142.5 101.5,142.5C 101.5,144.167 101.5,145.833 101.5,147.5C 99.8333,148.167 98.1667,148.833 96.5,149.5C 96.5,146.833 96.5,144.167 96.5,141.5C 100.894,138.636 105.561,136.303 110.5,134.5 Z"/></g>
<g><path style="opacity:1" fill="#eab7b8" d="M 97.5,98.5 C 98.9187,97.5489 100.585,97.2155 102.5,97.5C 102.5,103.5 102.5,109.5 102.5,115.5C 105.5,115.5 108.5,115.5 111.5,115.5C 111.5,124.833 111.5,134.167 111.5,143.5C 108.5,143.5 105.5,143.5 102.5,143.5C 102.5,149.5 102.5,155.5 102.5,161.5C 100.585,161.784 98.9187,161.451 97.5,160.5C 98.8333,160.5 100.167,160.5 101.5,160.5C 101.5,156.167 101.5,151.833 101.5,147.5C 101.5,145.833 101.5,144.167 101.5,142.5C 104.5,142.5 107.5,142.5 110.5,142.5C 110.5,139.833 110.5,137.167 110.5,134.5C 110.5,130.5 110.5,126.5 110.5,122.5C 110.5,120.5 110.5,118.5 110.5,116.5C 108.5,116.5 106.5,116.5 104.5,116.5C 103.5,116.5 102.5,116.5 101.5,116.5C 101.5,114.5 101.5,112.5 101.5,110.5C 101.5,106.5 101.5,102.5 101.5,98.5C 100.167,98.5 98.8333,98.5 97.5,98.5 Z"/></g>
<g><path style="opacity:1" fill="#eab6b7" d="M 157.5,98.5 C 156.167,98.5 154.833,98.5 153.5,98.5C 153.5,102.5 153.5,106.5 153.5,110.5C 153.5,112.5 153.5,114.5 153.5,116.5C 150.5,116.5 147.5,116.5 144.5,116.5C 144.5,118.833 144.5,121.167 144.5,123.5C 144.5,124.833 144.5,126.167 144.5,127.5C 144.5,129.5 144.5,131.5 144.5,133.5C 144.5,134.833 144.5,136.167 144.5,137.5C 144.5,139.167 144.5,140.833 144.5,142.5C 147.5,142.5 150.5,142.5 153.5,142.5C 153.5,148.5 153.5,154.5 153.5,160.5C 154.833,160.5 156.167,160.5 157.5,160.5C 156.081,161.451 154.415,161.784 152.5,161.5C 152.5,155.5 152.5,149.5 152.5,143.5C 149.5,143.5 146.5,143.5 143.5,143.5C 143.5,134.167 143.5,124.833 143.5,115.5C 146.5,115.5 149.5,115.5 152.5,115.5C 152.5,109.5 152.5,103.5 152.5,97.5C 154.415,97.2155 156.081,97.5489 157.5,98.5 Z"/></g>
<g><path style="opacity:1" fill="#ecaaab" d="M 90.5,159.5 C 90.1667,159.5 89.8333,159.5 89.5,159.5C 89.5,157.167 89.5,154.833 89.5,152.5C 89.5,150.5 89.5,148.5 89.5,146.5C 87.8333,146.5 86.1667,146.5 84.5,146.5C 84.5,149.167 84.5,151.833 84.5,154.5C 84.5,157.167 84.5,159.833 84.5,162.5C 84.5,163.5 84.5,164.5 84.5,165.5C 83.5093,159.021 83.176,152.354 83.5,145.5C 85.8333,145.5 88.1667,145.5 90.5,145.5C 90.5,150.167 90.5,154.833 90.5,159.5 Z"/></g>
<g><path style="opacity:1" fill="#05feea" d="M 77.5,142.5 C 77.5,145.833 77.5,149.167 77.5,152.5C 74.5498,153.308 71.8831,154.642 69.5,156.5C 69.5,152.833 69.5,149.167 69.5,145.5C 71.9278,143.957 74.5944,142.957 77.5,142.5 Z"/></g>
<g><path style="opacity:1" fill="#1011ff" d="M 158.5,139.5 C 158.795,146.588 158.462,153.588 157.5,160.5C 156.167,160.5 154.833,160.5 153.5,160.5C 153.5,154.5 153.5,148.5 153.5,142.5C 155.149,141.527 156.816,140.527 158.5,139.5 Z"/></g>
<g><path style="opacity:1" fill="#02e1ff" d="M 89.5,152.5 C 87.7162,152.893 86.0495,153.559 84.5,154.5C 84.5,151.833 84.5,149.167 84.5,146.5C 86.1667,146.5 87.8333,146.5 89.5,146.5C 89.5,148.5 89.5,150.5 89.5,152.5 Z"/></g>
<g><path style="opacity:1" fill="#03e0ff" d="M 77.5,152.5 C 77.5,155.167 77.5,157.833 77.5,160.5C 74.6202,160.94 71.9535,161.94 69.5,163.5C 69.5,161.167 69.5,158.833 69.5,156.5C 71.8831,154.642 74.5498,153.308 77.5,152.5 Z"/></g>
<g><path style="opacity:1" fill="#07a1ff" d="M 101.5,147.5 C 101.5,151.833 101.5,156.167 101.5,160.5C 100.167,160.5 98.8333,160.5 97.5,160.5C 96.5773,156.936 96.244,153.269 96.5,149.5C 98.1667,148.833 99.8333,148.167 101.5,147.5 Z"/></g>
<g><path style="opacity:1" fill="#04b3ff" d="M 89.5,152.5 C 89.5,154.833 89.5,157.167 89.5,159.5C 88.3406,161.25 86.674,162.25 84.5,162.5C 84.5,159.833 84.5,157.167 84.5,154.5C 86.0495,153.559 87.7162,152.893 89.5,152.5 Z"/></g>
<g><path style="opacity:1" fill="#df8688" d="M 108.5,149.5 C 108.5,153.167 108.5,156.833 108.5,160.5C 110.5,160.5 112.5,160.5 114.5,160.5C 116.833,160.5 119.167,160.5 121.5,160.5C 129.833,160.5 138.167,160.5 146.5,160.5C 146.5,156.833 146.5,153.167 146.5,149.5C 147.502,152.722 147.835,156.722 147.5,161.5C 134.167,161.5 120.833,161.5 107.5,161.5C 107.165,156.722 107.498,152.722 108.5,149.5 Z"/></g>
<g><path style="opacity:1" fill="#0121ff" d="M 141.5,149.5 C 143.167,149.5 144.833,149.5 146.5,149.5C 146.5,153.167 146.5,156.833 146.5,160.5C 138.167,160.5 129.833,160.5 121.5,160.5C 124.52,157.643 128.187,155.809 132.5,155C 135.564,153.141 138.564,151.308 141.5,149.5 Z"/></g>
<g><path style="opacity:1" fill="#0147ff" d="M 129.5,149.5 C 133.5,149.5 137.5,149.5 141.5,149.5C 138.564,151.308 135.564,153.141 132.5,155C 128.187,155.809 124.52,157.643 121.5,160.5C 119.167,160.5 116.833,160.5 114.5,160.5C 119.687,157.075 124.687,153.408 129.5,149.5 Z"/></g>
<g><path style="opacity:1" fill="#066eff" d="M 108.5,149.5 C 115.5,149.5 122.5,149.5 129.5,149.5C 124.687,153.408 119.687,157.075 114.5,160.5C 112.5,160.5 110.5,160.5 108.5,160.5C 108.5,156.833 108.5,153.167 108.5,149.5 Z"/></g>
<g><path style="opacity:1" fill="#0587ff" d="M 89.5,159.5 C 89.8333,159.5 90.1667,159.5 90.5,159.5C 90.9613,162.303 92.2947,164.637 94.5,166.5C 92.6051,168.241 90.2718,169.241 87.5,169.5C 86.0256,168.564 85.0256,167.23 84.5,165.5C 84.5,164.5 84.5,163.5 84.5,162.5C 86.674,162.25 88.3406,161.25 89.5,159.5 Z"/></g>
<g><path style="opacity:1" fill="#6300ff" d="M 138.5,172.5 C 140.969,171.092 143.303,169.425 145.5,167.5C 161.667,169.665 168.334,162.665 165.5,146.5C 167.167,146.5 168.833,146.5 170.5,146.5C 170.666,153.175 170.5,159.842 170,166.5C 169.215,168.286 168.049,169.786 166.5,171C 157.274,172.445 147.94,172.945 138.5,172.5 Z"/></g>
<g><path style="opacity:1" fill="#05a8ff" d="M 77.5,160.5 C 77.8333,163.167 78.1667,165.833 78.5,168.5C 75.5914,170.356 72.5914,172.023 69.5,173.5C 69.5,170.167 69.5,166.833 69.5,163.5C 71.9535,161.94 74.6202,160.94 77.5,160.5 Z"/></g>
<g><path style="opacity:1" fill="#0158ff" d="M 94.5,166.5 C 97.1272,167.092 99.7938,167.425 102.5,167.5C 100.031,168.908 97.6973,170.575 95.5,172.5C 92.1694,172.982 89.5027,171.982 87.5,169.5C 90.2718,169.241 92.6051,168.241 94.5,166.5 Z"/></g>
<g><path style="opacity:1" fill="#1714ff" d="M 102.5,167.5 C 116.833,167.5 131.167,167.5 145.5,167.5C 143.303,169.425 140.969,171.092 138.5,172.5C 124.167,172.5 109.833,172.5 95.5,172.5C 97.6973,170.575 100.031,168.908 102.5,167.5 Z"/></g>
<g><path style="opacity:1" fill="#0574ff" d="M 78.5,168.5 C 79.5294,170.517 80.5294,172.517 81.5,174.5C 78.071,177.879 74.071,180.212 69.5,181.5C 69.5,178.833 69.5,176.167 69.5,173.5C 72.5914,172.023 75.5914,170.356 78.5,168.5 Z"/></g>
<g><path style="opacity:1" fill="#0054ff" d="M 81.5,174.5 C 83.2303,175.026 84.5637,176.026 85.5,177.5C 80.4079,180.713 75.0745,183.379 69.5,185.5C 69.5,184.167 69.5,182.833 69.5,181.5C 74.071,180.212 78.071,177.879 81.5,174.5 Z"/></g>
<g><path style="opacity:1" fill="#0039ff" d="M 85.5,177.5 C 87.6976,177.875 89.6976,178.542 91.5,179.5C 83.6873,182.62 76.354,186.62 69.5,191.5C 69.5,189.5 69.5,187.5 69.5,185.5C 75.0745,183.379 80.4079,180.713 85.5,177.5 Z"/></g>
<g><path style="opacity:1" fill="#6e00ff" d="M 129.5,179.5 C 134.167,179.5 138.833,179.5 143.5,179.5C 142.222,180.749 141.222,182.249 140.5,184C 130.996,188.581 121.996,193.915 113.5,200C 106.192,203.181 99.1924,206.848 92.5,211C 87.3052,212.933 81.9719,214.267 76.5,215C 74.5203,217.164 72.187,218.664 69.5,219.5C 69.5,217.5 69.5,215.5 69.5,213.5C 75.828,213.007 80.4947,210.007 83.5,204.5C 86.4501,203.512 89.4501,202.679 92.5,202C 96.4387,199.024 100.772,196.524 105.5,194.5C 106.685,193.147 108.019,191.98 109.5,191C 116.901,188.374 123.568,184.54 129.5,179.5 Z"/></g>
<g><path style="opacity:1" fill="#b600ff" d="M 185.5,160.5 C 185.5,163.167 185.5,165.833 185.5,168.5C 174.326,176.259 162.326,182.759 149.5,188C 143.456,195.357 135.789,200.357 126.5,203C 121.906,206.483 116.906,209.316 111.5,211.5C 110.713,212.242 110.047,213.075 109.5,214C 97.5909,220.122 85.5909,225.955 73.5,231.5C 71.2901,231.106 69.9568,229.773 69.5,227.5C 69.5,226.833 69.5,226.167 69.5,225.5C 72.8145,224.336 76.1478,223.17 79.5,222C 84.6518,217.204 90.6518,213.871 97.5,212C 100.563,210.475 103.23,208.475 105.5,206C 122.959,197.608 139.959,188.774 156.5,179.5C 168.265,180.143 175.265,174.81 177.5,163.5C 180.162,162.501 182.828,161.501 185.5,160.5 Z"/></g>
<g><path style="opacity:1" fill="#2806ff" d="M 91.5,179.5 C 104.167,179.5 116.833,179.5 129.5,179.5C 123.568,184.54 116.901,188.374 109.5,191C 108.019,191.98 106.685,193.147 105.5,194.5C 100.772,196.524 96.4387,199.024 92.5,202C 89.4501,202.679 86.4501,203.512 83.5,204.5C 80.4947,210.007 75.828,213.007 69.5,213.5C 69.5,206.167 69.5,198.833 69.5,191.5C 76.354,186.62 83.6873,182.62 91.5,179.5 Z"/></g>
<g><path style="opacity:1" fill="#ff00c0" d="M 185.5,190.5 C 185.5,191.167 185.5,191.833 185.5,192.5C 180.66,192.92 176.66,194.92 173.5,198.5C 169.952,200.353 166.285,202.019 162.5,203.5C 161.738,204.628 161.071,205.795 160.5,207C 153.715,210.786 146.715,214.119 139.5,217C 131.474,222.679 123.141,227.845 114.5,232.5C 111.167,232.5 107.833,232.5 104.5,232.5C 109.274,228.115 114.607,224.449 120.5,221.5C 124.899,219.132 129.565,217.632 134.5,217C 146.241,209.471 158.574,202.971 171.5,197.5C 175.413,193.686 180.08,191.353 185.5,190.5 Z"/></g>
<g><path style="opacity:1" fill="#ff00d3" d="M 185.5,183.5 C 185.5,185.833 185.5,188.167 185.5,190.5C 180.08,191.353 175.413,193.686 171.5,197.5C 158.574,202.971 146.241,209.471 134.5,217C 129.565,217.632 124.899,219.132 120.5,221.5C 114.607,224.449 109.274,228.115 104.5,232.5C 102.833,232.5 101.167,232.5 99.5,232.5C 101.396,231.519 103.396,230.519 105.5,229.5C 108.404,225.428 112.071,222.261 116.5,220C 125.101,218.804 132.434,215.137 138.5,209C 140.577,208.808 142.577,208.308 144.5,207.5C 149.723,203.721 155.39,200.721 161.5,198.5C 169.81,194.011 177.81,189.011 185.5,183.5 Z"/></g>
<g><path style="opacity:1" fill="#da00ff" d="M 185.5,168.5 C 185.5,170.833 185.5,173.167 185.5,175.5C 171.348,183.539 157.015,191.373 142.5,199C 135.984,200.505 130.484,203.671 126,208.5C 111.213,216.14 96.7127,224.14 82.5,232.5C 79.2869,232.81 76.2869,232.477 73.5,231.5C 85.5909,225.955 97.5909,220.122 109.5,214C 110.047,213.075 110.713,212.242 111.5,211.5C 116.906,209.316 121.906,206.483 126.5,203C 135.789,200.357 143.456,195.357 149.5,188C 162.326,182.759 174.326,176.259 185.5,168.5 Z"/></g>
<g><path style="opacity:1" fill="#9400ff" d="M 143.5,179.5 C 147.833,179.5 152.167,179.5 156.5,179.5C 139.959,188.774 122.959,197.608 105.5,206C 103.23,208.475 100.563,210.475 97.5,212C 90.6518,213.871 84.6518,217.204 79.5,222C 76.1478,223.17 72.8145,224.336 69.5,225.5C 69.5,223.5 69.5,221.5 69.5,219.5C 72.187,218.664 74.5203,217.164 76.5,215C 81.9719,214.267 87.3052,212.933 92.5,211C 99.1924,206.848 106.192,203.181 113.5,200C 121.996,193.915 130.996,188.581 140.5,184C 141.222,182.249 142.222,180.749 143.5,179.5 Z"/></g>
<g><path style="opacity:1" fill="#ff009b" d="M 185.5,192.5 C 185.5,195.167 185.5,197.833 185.5,200.5C 175.701,205.148 166.035,209.981 156.5,215C 148.33,220.68 140.33,226.513 132.5,232.5C 126.5,232.5 120.5,232.5 114.5,232.5C 123.141,227.845 131.474,222.679 139.5,217C 146.715,214.119 153.715,210.786 160.5,207C 161.071,205.795 161.738,204.628 162.5,203.5C 166.285,202.019 169.952,200.353 173.5,198.5C 176.66,194.92 180.66,192.92 185.5,192.5 Z"/></g>
<g><path style="opacity:1" fill="#ff0073" d="M 185.5,200.5 C 185.982,204.234 184.649,207.067 181.5,209C 175.816,211.178 170.149,213.511 164.5,216C 163.833,217 163.167,218 162.5,219C 156.485,222.86 150.152,226.026 143.5,228.5C 141.581,229.612 139.914,230.946 138.5,232.5C 136.5,232.5 134.5,232.5 132.5,232.5C 140.33,226.513 148.33,220.68 156.5,215C 166.035,209.981 175.701,205.148 185.5,200.5 Z"/></g>
<g><path style="opacity:1" fill="#f53755" d="M 185.5,24.5 C 186.833,92.5 186.833,160.5 185.5,228.5C 185.666,223.156 185.499,217.823 185,212.5C 173.663,219.03 162.496,225.697 151.5,232.5C 147.167,232.5 142.833,232.5 138.5,232.5C 139.914,230.946 141.581,229.612 143.5,228.5C 150.152,226.026 156.485,222.86 162.5,219C 163.167,218 163.833,217 164.5,216C 170.149,213.511 175.816,211.178 181.5,209C 184.649,207.067 185.982,204.234 185.5,200.5C 185.5,197.833 185.5,195.167 185.5,192.5C 185.5,191.833 185.5,191.167 185.5,190.5C 185.5,188.167 185.5,185.833 185.5,183.5C 185.5,182.5 185.5,181.5 185.5,180.5C 185.5,178.833 185.5,177.167 185.5,175.5C 185.5,173.167 185.5,170.833 185.5,168.5C 185.5,165.833 185.5,163.167 185.5,160.5C 185.5,147.5 185.5,134.5 185.5,121.5C 185.5,119.167 185.5,116.833 185.5,114.5C 185.5,111.5 185.5,108.5 185.5,105.5C 185.5,102.833 185.5,100.167 185.5,97.5C 185.5,94.1667 185.5,90.8333 185.5,87.5C 185.5,84.8333 185.5,82.1667 185.5,79.5C 185.5,75.5 185.5,71.5 185.5,67.5C 185.5,65.5 185.5,63.5 185.5,61.5C 185.5,53.5 185.5,45.5 185.5,37.5C 185.5,35.1667 185.5,32.8333 185.5,30.5C 185.5,28.5 185.5,26.5 185.5,24.5 Z"/></g>
<g><path style="opacity:1" fill="#ff00ed" d="M 185.5,180.5 C 185.5,181.5 185.5,182.5 185.5,183.5C 177.81,189.011 169.81,194.011 161.5,198.5C 155.39,200.721 149.723,203.721 144.5,207.5C 142.577,208.308 140.577,208.808 138.5,209C 132.434,215.137 125.101,218.804 116.5,220C 112.071,222.261 108.404,225.428 105.5,229.5C 103.396,230.519 101.396,231.519 99.5,232.5C 96.8333,232.5 94.1667,232.5 91.5,232.5C 122.284,214.762 153.617,197.428 185.5,180.5 Z"/></g>
<g><path style="opacity:1" fill="#fe001a" d="M 185.5,228.5 C 184.262,228.81 184.262,229.31 185.5,230C 184.167,230.667 182.833,231.333 181.5,232C 171.506,232.5 161.506,232.666 151.5,232.5C 162.496,225.697 173.663,219.03 185,212.5C 185.499,217.823 185.666,223.156 185.5,228.5 Z"/></g>
<g><path style="opacity:1" fill="#f300fe" d="M 185.5,175.5 C 185.5,177.167 185.5,178.833 185.5,180.5C 153.617,197.428 122.284,214.762 91.5,232.5C 88.5,232.5 85.5,232.5 82.5,232.5C 96.7127,224.14 111.213,216.14 126,208.5C 130.484,203.671 135.984,200.505 142.5,199C 157.015,191.373 171.348,183.539 185.5,175.5 Z"/></g>
</svg>
