<?xml version="1.0" encoding="UTF-8"?>
<!DOCTYPE svg PUBLIC "-//W3C//DTD SVG 1.1//EN" "http://www.w3.org/Graphics/SVG/1.1/DTD/svg11.dtd">
<svg xmlns="http://www.w3.org/2000/svg" version="1.1" width="256px" height="256px" style="shape-rendering:geometricPrecision; text-rendering:geometricPrecision; image-rendering:optimizeQuality; fill-rule:evenodd; clip-rule:evenodd" xmlns:xlink="http://www.w3.org/1999/xlink">
<g><path style="opacity:0.004" fill="#feff00" d="M 104.5,0.5 C 105.833,1.16667 105.833,1.16667 104.5,0.5 Z"/></g>
<g><path style="opacity:0.004" fill="#feaa00" d="M 95.5,2.5 C 96.8333,3.16667 96.8333,3.16667 95.5,2.5 Z"/></g>
<g><path style="opacity:0.004" fill="#feaa00" d="M 91.5,3.5 C 92.8333,4.16667 92.8333,4.16667 91.5,3.5 Z"/></g>
<g><path style="opacity:0.004" fill="#feaa00" d="M 87.5,4.5 C 88.8333,5.16667 88.8333,5.16667 87.5,4.5 Z"/></g>
<g><path style="opacity:0.004" fill="#feff00" d="M 164.5,4.5 C 165.833,5.16667 165.833,5.16667 164.5,4.5 Z"/></g>
<g><path style="opacity:0.004" fill="#feaa00" d="M 182.5,11.5 C 183.833,12.1667 183.833,12.1667 182.5,11.5 Z"/></g>
<g><path style="opacity:0.004" fill="#feff00" d="M 59.5,17.5 C 60.8333,18.1667 60.8333,18.1667 59.5,17.5 Z"/></g>
<g><path style="opacity:0.004" fill="#feff00" d="M 202.5,23.5 C 203.833,24.1667 203.833,24.1667 202.5,23.5 Z"/></g>
<g><path style="opacity:0.004" fill="#feff00" d="M 46.5,26.5 C 47.8333,27.1667 47.8333,27.1667 46.5,26.5 Z"/></g>
<g><path style="opacity:0.004" fill="#feaa00" d="M 206.5,26.5 C 207.833,27.1667 207.833,27.1667 206.5,26.5 Z"/></g>
<g><path style="opacity:0.004" fill="#feff00" d="M 38.5,33.5 C 39.8333,34.1667 39.8333,34.1667 38.5,33.5 Z"/></g>
<g><path style="opacity:0.004" fill="#feaa00" d="M 214.5,33.5 C 215.833,34.1667 215.833,34.1667 214.5,33.5 Z"/></g>
<g><path style="opacity:1" fill="#ffa746" d="M 187.5,53.5 C 167.326,53.1695 147.326,53.5029 127.5,54.5C 128.475,57.0667 129.142,59.7334 129.5,62.5C 127.025,59.7491 126.025,56.4158 126.5,52.5C 147.007,52.1695 167.34,52.5028 187.5,53.5 Z"/></g>
<g><path style="opacity:1" fill="#ffd3a1" d="M 127.5,54.5 C 147.326,53.5029 167.326,53.1695 187.5,53.5C 192.249,53.8698 195.582,56.2032 197.5,60.5C 197.167,60.5 196.833,60.5 196.5,60.5C 196.167,59.5 195.5,58.8333 194.5,58.5C 194.027,57.0937 193.027,56.427 191.5,56.5C 189.22,54.7773 186.553,54.1107 183.5,54.5C 182.167,54.5 180.833,54.5 179.5,54.5C 176.833,54.5 174.167,54.5 171.5,54.5C 165.833,54.5 160.167,54.5 154.5,54.5C 151.833,54.5 149.167,54.5 146.5,54.5C 140.167,54.5 133.833,54.5 127.5,54.5 Z"/></g>
<g><path style="opacity:1" fill="#01fe55" d="M 179.5,54.5 C 180.833,54.5 182.167,54.5 183.5,54.5C 180.245,58.1384 176.245,60.8051 171.5,62.5C 169.431,65.5725 166.764,67.9059 163.5,69.5C 161.5,69.5 159.5,69.5 157.5,69.5C 160.569,65.6142 164.569,63.1142 169.5,62C 172.828,59.3961 176.162,56.8961 179.5,54.5 Z"/></g>
<g><path style="opacity:1" fill="#00fe2e" d="M 171.5,54.5 C 174.167,54.5 176.833,54.5 179.5,54.5C 176.162,56.8961 172.828,59.3961 169.5,62C 164.569,63.1142 160.569,65.6142 157.5,69.5C 155.5,69.5 153.5,69.5 151.5,69.5C 153.606,67.5559 155.606,65.3892 157.5,63C 162.808,61.2114 167.474,58.3781 171.5,54.5 Z"/></g>
<g><path style="opacity:0.004" fill="#feaa00" d="M 235.5,59.5 C 236.833,60.1667 236.833,60.1667 235.5,59.5 Z"/></g>
<g><path style="opacity:1" fill="#03fe9f" d="M 191.5,56.5 C 193.027,56.427 194.027,57.0937 194.5,58.5C 190.238,58.5925 186.905,60.4259 184.5,64C 181.233,66.1297 177.9,67.963 174.5,69.5C 171.833,69.5 169.167,69.5 166.5,69.5C 171.181,65.66 176.515,63.16 182.5,62C 185.525,60.0649 188.525,58.2315 191.5,56.5 Z"/></g>
<g><path style="opacity:1" fill="#9efe02" d="M 127.5,54.5 C 133.833,54.5 140.167,54.5 146.5,54.5C 143.465,56.0167 140.799,58.1833 138.5,61C 136.359,61.5725 134.359,62.4058 132.5,63.5C 131.833,63.5 131.167,63.5 130.5,63.5C 129.833,63.5 129.5,63.1667 129.5,62.5C 129.142,59.7334 128.475,57.0667 127.5,54.5 Z"/></g>
<g><path style="opacity:1" fill="#65fe04" d="M 146.5,54.5 C 149.167,54.5 151.833,54.5 154.5,54.5C 153.375,56.1288 152.041,57.6288 150.5,59C 145.95,61.5197 141.284,63.8531 136.5,66C 137.252,66.6708 137.586,67.5041 137.5,68.5C 137.167,68.5 136.833,68.5 136.5,68.5C 135.167,66.8333 133.833,65.1667 132.5,63.5C 134.359,62.4058 136.359,61.5725 138.5,61C 140.799,58.1833 143.465,56.0167 146.5,54.5 Z"/></g>
<g><path style="opacity:1" fill="#1eff03" d="M 154.5,54.5 C 160.167,54.5 165.833,54.5 171.5,54.5C 167.474,58.3781 162.808,61.2114 157.5,63C 155.606,65.3892 153.606,67.5559 151.5,69.5C 146.786,69.6469 142.119,69.3136 137.5,68.5C 137.586,67.5041 137.252,66.6708 136.5,66C 141.284,63.8531 145.95,61.5197 150.5,59C 152.041,57.6288 153.375,56.1288 154.5,54.5 Z"/></g>
<g><path style="opacity:1" fill="#01fef5" d="M 196.5,60.5 C 196.833,60.5 197.167,60.5 197.5,60.5C 197.833,61.8333 198.167,63.1667 198.5,64.5C 193.544,67.0927 188.544,69.7593 183.5,72.5C 182.833,72.5 182.5,72.1667 182.5,71.5C 186.964,67.4778 191.631,63.8112 196.5,60.5 Z"/></g>
<g><path style="opacity:1" fill="#ffb96c" d="M 197.5,60.5 C 199.975,61.6874 200.975,63.6874 200.5,66.5C 199.833,65.8333 199.167,65.1667 198.5,64.5C 198.167,63.1667 197.833,61.8333 197.5,60.5 Z"/></g>
<g><path style="opacity:1" fill="#fcc174" d="M 130.5,63.5 C 131.167,63.5 131.833,63.5 132.5,63.5C 133.833,65.1667 135.167,66.8333 136.5,68.5C 133.268,68.2283 131.268,66.5616 130.5,63.5 Z"/></g>
<g><path style="opacity:1" fill="#04ffc7" d="M 194.5,58.5 C 195.5,58.8333 196.167,59.5 196.5,60.5C 191.631,63.8112 186.964,67.4778 182.5,71.5C 180.087,69.9493 177.421,69.2826 174.5,69.5C 177.9,67.963 181.233,66.1297 184.5,64C 186.905,60.4259 190.238,58.5925 194.5,58.5 Z"/></g>
<g><path style="opacity:1" fill="#02fe77" d="M 183.5,54.5 C 186.553,54.1107 189.22,54.7773 191.5,56.5C 188.525,58.2315 185.525,60.0649 182.5,62C 176.515,63.16 171.181,65.66 166.5,69.5C 165.5,69.5 164.5,69.5 163.5,69.5C 166.764,67.9059 169.431,65.5725 171.5,62.5C 176.245,60.8051 180.245,58.1384 183.5,54.5 Z"/></g>
<g><path style="opacity:1" fill="#ffad51" d="M 200.5,66.5 C 201.497,86.6598 201.83,106.993 201.5,127.5C 196.988,128.111 193.322,126.778 190.5,123.5C 191.167,123.5 191.833,123.5 192.5,123.5C 194.54,124.942 196.873,125.942 199.5,126.5C 200.48,123.914 200.813,121.247 200.5,118.5C 200.5,115.833 200.5,113.167 200.5,110.5C 200.5,108.167 200.5,105.833 200.5,103.5C 200.5,101.5 200.5,99.5 200.5,97.5C 200.5,93.8333 200.5,90.1667 200.5,86.5C 200.5,84.5 200.5,82.5 200.5,80.5C 200.5,79.1667 200.5,77.8333 200.5,76.5C 200.5,74.5 200.5,72.5 200.5,70.5C 200.5,69.5 200.5,68.5 200.5,67.5C 200.5,67.1667 200.5,66.8333 200.5,66.5 Z"/></g>
<g><path style="opacity:0.004" fill="#feff00" d="M 11.5,70.5 C 12.8333,71.1667 12.8333,71.1667 11.5,70.5 Z"/></g>
<g><path style="opacity:0.004" fill="#feff00" d="M 241.5,70.5 C 242.833,71.1667 242.833,71.1667 241.5,70.5 Z"/></g>
<g><path style="opacity:1" fill="#03e3ff" d="M 198.5,64.5 C 199.167,65.1667 199.833,65.8333 200.5,66.5C 200.5,66.8333 200.5,67.1667 200.5,67.5C 195.335,70.7922 190.001,73.7922 184.5,76.5C 184.167,75.1667 183.833,73.8333 183.5,72.5C 188.544,69.7593 193.544,67.0927 198.5,64.5 Z"/></g>
<g><path style="opacity:1" fill="#04b2ff" d="M 200.5,67.5 C 200.5,68.5 200.5,69.5 200.5,70.5C 197.081,72.4116 194.081,74.9116 191.5,78C 189.235,79.1178 186.901,79.9512 184.5,80.5C 184.5,79.1667 184.5,77.8333 184.5,76.5C 190.001,73.7922 195.335,70.7922 200.5,67.5 Z"/></g>
<g><path style="opacity:0.004" fill="#feff00" d="M 242.5,72.5 C 243.833,73.1667 243.833,73.1667 242.5,72.5 Z"/></g>
<g><path style="opacity:1" fill="#ffa746" d="M 137.5,68.5 C 142.119,69.3136 146.786,69.6469 151.5,69.5C 153.5,69.5 155.5,69.5 157.5,69.5C 159.5,69.5 161.5,69.5 163.5,69.5C 164.5,69.5 165.5,69.5 166.5,69.5C 169.167,69.5 171.833,69.5 174.5,69.5C 177.421,69.2826 180.087,69.9493 182.5,71.5C 182.5,72.1667 182.833,72.5 183.5,72.5C 183.833,73.8333 184.167,75.1667 184.5,76.5C 184.5,77.8333 184.5,79.1667 184.5,80.5C 184.5,82.1667 184.5,83.8333 184.5,85.5C 184.5,86.5 184.5,87.5 184.5,88.5C 184.5,90.8333 184.5,93.1667 184.5,95.5C 184.5,99.1667 184.5,102.833 184.5,106.5C 184.5,108.167 184.5,109.833 184.5,111.5C 184.971,113.579 185.637,115.579 186.5,117.5C 187.833,119.5 189.167,121.5 190.5,123.5C 188.983,123.489 187.816,122.823 187,121.5C 185.725,119.283 184.725,116.949 184,114.5C 183.946,100.765 183.28,87.0979 182,73.5C 180.509,71.9963 178.676,71.1629 176.5,71C 163.833,70.6667 151.167,70.3333 138.5,70C 137.944,69.6174 137.611,69.1174 137.5,68.5 Z"/></g>
<g><path style="opacity:0.004" fill="#feff00" d="M 245.5,79.5 C 246.833,80.1667 246.833,80.1667 245.5,79.5 Z"/></g>
<g><path style="opacity:1" fill="#058aff" d="M 200.5,70.5 C 200.5,72.5 200.5,74.5 200.5,76.5C 195.486,80.0087 190.152,83.0087 184.5,85.5C 184.5,83.8333 184.5,82.1667 184.5,80.5C 186.901,79.9512 189.235,79.1178 191.5,78C 194.081,74.9116 197.081,72.4116 200.5,70.5 Z"/></g>
<g><path style="opacity:1" fill="#0260ff" d="M 200.5,76.5 C 200.5,77.8333 200.5,79.1667 200.5,80.5C 195.079,82.9748 189.746,85.6414 184.5,88.5C 184.5,87.5 184.5,86.5 184.5,85.5C 190.152,83.0087 195.486,80.0087 200.5,76.5 Z"/></g>
<g><path style="opacity:0.004" fill="#feff00" d="M 248.5,87.5 C 249.833,88.1667 249.833,88.1667 248.5,87.5 Z"/></g>
<g><path style="opacity:1" fill="#ffb45f" d="M 95.5,90.5 C 116.329,89.3373 137.329,89.1707 158.5,90C 159.942,90.3768 160.942,91.2101 161.5,92.5C 160.833,92.5 160.167,92.5 159.5,92.5C 158.791,91.596 157.791,91.2627 156.5,91.5C 136.34,90.5028 116.007,90.1695 95.5,90.5 Z"/></g>
<g><path style="opacity:1" fill="#ffe6cb" d="M 95.5,90.5 C 116.007,90.1695 136.34,90.5028 156.5,91.5C 156.167,91.5 155.833,91.5 155.5,91.5C 153.5,91.5 151.5,91.5 149.5,91.5C 145.833,91.5 142.167,91.5 138.5,91.5C 137.167,91.5 135.833,91.5 134.5,91.5C 133.5,91.5 132.5,91.5 131.5,91.5C 130.167,91.5 128.833,91.5 127.5,91.5C 125.5,91.5 123.5,91.5 121.5,91.5C 117.167,91.5 112.833,91.5 108.5,91.5C 103.105,91.2665 97.772,91.5998 92.5,92.5C 92.9731,91.0937 93.9731,90.427 95.5,90.5 Z"/></g>
<g><path style="opacity:1" fill="#01fe2d" d="M 108.5,91.5 C 112.833,91.5 117.167,91.5 121.5,91.5C 116.044,95.5009 110.044,98.6676 103.5,101C 100.609,105.279 96.6086,107.779 91.5,108.5C 91.5,106.833 91.5,105.167 91.5,103.5C 95.7398,102.213 99.0731,99.7129 101.5,96C 104.239,94.9741 106.572,93.4741 108.5,91.5 Z"/></g>
<g><path style="opacity:1" fill="#01d0ff" d="M 155.5,91.5 C 155.833,91.5 156.167,91.5 156.5,91.5C 157.791,91.2627 158.791,91.596 159.5,92.5C 146.977,99.5916 134.644,106.925 122.5,114.5C 124.367,113.24 125.7,111.573 126.5,109.5C 128.179,109.108 129.846,108.608 131.5,108C 139.678,102.637 147.678,97.137 155.5,91.5 Z"/></g>
<g><path style="opacity:1" fill="#0228ff" d="M 200.5,80.5 C 200.5,82.5 200.5,84.5 200.5,86.5C 198.436,86.7619 197.103,87.9286 196.5,90C 192.578,92.1101 188.578,93.9434 184.5,95.5C 184.5,93.1667 184.5,90.8333 184.5,88.5C 189.746,85.6414 195.079,82.9748 200.5,80.5 Z"/></g>
<g><path style="opacity:1" fill="#1ffe03" d="M 108.5,91.5 C 106.572,93.4741 104.239,94.9741 101.5,96C 99.0731,99.7129 95.7398,102.213 91.5,103.5C 91.3227,99.7657 91.6561,96.0991 92.5,92.5C 97.772,91.5998 103.105,91.2665 108.5,91.5 Z"/></g>
<g><path style="opacity:1" fill="#2e00ff" d="M 200.5,86.5 C 200.5,90.1667 200.5,93.8333 200.5,97.5C 195.184,100.472 189.85,103.472 184.5,106.5C 184.5,102.833 184.5,99.1667 184.5,95.5C 188.578,93.9434 192.578,92.1101 196.5,90C 197.103,87.9286 198.436,86.7619 200.5,86.5 Z"/></g>
<g><path style="opacity:1" fill="#ffb460" d="M 90.5,95.5 C 90.1694,116.673 90.5027,137.673 91.5,158.5C 91.8333,159.167 92.1667,159.833 92.5,160.5C 92.5,160.833 92.5,161.167 92.5,161.5C 91.5416,161.047 90.7083,160.381 90,159.5C 89.1706,137.996 89.3373,116.663 90.5,95.5 Z"/></g>
<g><path style="opacity:1" fill="#ffb97a" d="M 161.5,92.5 C 162.79,93.0577 163.623,94.0577 164,95.5C 164.667,116.833 164.667,138.167 164,159.5C 163.292,160.381 162.458,161.047 161.5,161.5C 162.324,158.236 162.658,154.902 162.5,151.5C 162.5,149.167 162.5,146.833 162.5,144.5C 162.5,143.167 162.5,141.833 162.5,140.5C 162.5,140.167 162.5,139.833 162.5,139.5C 163.661,126.006 163.827,112.34 163,98.5C 162.648,96.7525 162.148,95.0858 161.5,93.5C 161.5,93.1667 161.5,92.8333 161.5,92.5 Z"/></g>
<g><path style="opacity:1" fill="#02feb6" d="M 134.5,91.5 C 135.833,91.5 137.167,91.5 138.5,91.5C 136.765,96.062 133.431,98.562 128.5,99C 120.64,104.047 112.974,109.38 105.5,115C 101.771,116.537 98.1046,118.037 94.5,119.5C 103.978,112.921 113.311,106.088 122.5,99C 127.196,97.3075 131.196,94.8075 134.5,91.5 Z"/></g>
<g><path style="opacity:1" fill="#00fe59" d="M 121.5,91.5 C 123.5,91.5 125.5,91.5 127.5,91.5C 127.5,91.8333 127.5,92.1667 127.5,92.5C 121.199,95.3154 114.866,98.1487 108.5,101C 102.615,104.755 96.9483,108.588 91.5,112.5C 91.5,111.167 91.5,109.833 91.5,108.5C 96.6086,107.779 100.609,105.279 103.5,101C 110.044,98.6676 116.044,95.5009 121.5,91.5 Z"/></g>
<g><path style="opacity:1" fill="#03f0fd" d="M 149.5,91.5 C 151.5,91.5 153.5,91.5 155.5,91.5C 147.678,97.137 139.678,102.637 131.5,108C 129.846,108.608 128.179,109.108 126.5,109.5C 121.064,111.588 115.73,113.921 110.5,116.5C 116.253,111.777 122.253,107.277 128.5,103C 136.153,100.139 143.153,96.3054 149.5,91.5 Z"/></g>
<g><path style="opacity:0.004" fill="#feaa00" d="M 0.5,104.5 C 1.83333,105.167 1.83333,105.167 0.5,104.5 Z"/></g>
<g><path style="opacity:1" fill="#01fe71" d="M 127.5,92.5 C 115.798,100.177 103.798,107.511 91.5,114.5C 91.5,113.833 91.5,113.167 91.5,112.5C 96.9483,108.588 102.615,104.755 108.5,101C 114.866,98.1487 121.199,95.3154 127.5,92.5 Z"/></g>
<g><path style="opacity:1" fill="#01fe8c" d="M 127.5,91.5 C 128.833,91.5 130.167,91.5 131.5,91.5C 122.435,98.2148 113.102,104.715 103.5,111C 99.797,113.354 95.797,114.854 91.5,115.5C 91.5,115.167 91.5,114.833 91.5,114.5C 103.798,107.511 115.798,100.177 127.5,92.5C 127.5,92.1667 127.5,91.8333 127.5,91.5 Z"/></g>
<g><path style="opacity:1" fill="#7800ff" d="M 200.5,97.5 C 200.5,99.5 200.5,101.5 200.5,103.5C 195.392,106.606 190.059,109.272 184.5,111.5C 184.5,109.833 184.5,108.167 184.5,106.5C 189.85,103.472 195.184,100.472 200.5,97.5 Z"/></g>
<g><path style="opacity:0.004" fill="#feaa00" d="M -0.5,111.5 C 0.833333,112.167 0.833333,112.167 -0.5,111.5 Z"/></g>
<g><path style="opacity:1" fill="#01fea2" d="M 131.5,91.5 C 132.5,91.5 133.5,91.5 134.5,91.5C 131.196,94.8075 127.196,97.3075 122.5,99C 113.311,106.088 103.978,112.921 94.5,119.5C 93.391,119.557 92.391,119.89 91.5,120.5C 91.5,118.833 91.5,117.167 91.5,115.5C 95.797,114.854 99.797,113.354 103.5,111C 113.102,104.715 122.435,98.2148 131.5,91.5 Z"/></g>
<g><path style="opacity:1" fill="#03b3ff" d="M 159.5,92.5 C 160.167,92.5 160.833,92.5 161.5,92.5C 161.5,92.8333 161.5,93.1667 161.5,93.5C 157.112,96.693 152.445,99.3597 147.5,101.5C 146.5,102.833 145.5,104.167 144.5,105.5C 125.74,115.285 108.073,126.619 91.5,139.5C 91.5,138.167 91.5,136.833 91.5,135.5C 95.2625,133.587 98.9291,131.421 102.5,129C 106.024,124.362 110.69,121.362 116.5,120C 118.763,118.383 120.763,116.55 122.5,114.5C 134.644,106.925 146.977,99.5916 159.5,92.5 Z"/></g>
<g><path style="opacity:1" fill="#be00ff" d="M 200.5,103.5 C 200.5,105.833 200.5,108.167 200.5,110.5C 196.353,113.907 191.687,116.24 186.5,117.5C 185.637,115.579 184.971,113.579 184.5,111.5C 190.059,109.272 195.392,106.606 200.5,103.5 Z"/></g>
<g><path style="opacity:1" fill="#f206f8" d="M 200.5,110.5 C 200.5,113.167 200.5,115.833 200.5,118.5C 197.324,119.34 194.658,121.007 192.5,123.5C 191.833,123.5 191.167,123.5 190.5,123.5C 189.167,121.5 187.833,119.5 186.5,117.5C 191.687,116.24 196.353,113.907 200.5,110.5 Z"/></g>
<g><path style="opacity:1" fill="#05ecfd" d="M 126.5,109.5 C 125.7,111.573 124.367,113.24 122.5,114.5C 116.363,116.737 110.363,119.237 104.5,122C 102.428,123.273 101.095,125.107 100.5,127.5C 97.4866,128.858 94.4866,130.191 91.5,131.5C 91.5,129.5 91.5,127.5 91.5,125.5C 96.3556,122.586 101.356,119.753 106.5,117C 107.793,116.51 109.127,116.343 110.5,116.5C 115.73,113.921 121.064,111.588 126.5,109.5 Z"/></g>
<g><path style="opacity:1" fill="#03ffdd" d="M 138.5,91.5 C 142.167,91.5 145.833,91.5 149.5,91.5C 143.153,96.3054 136.153,100.139 128.5,103C 122.253,107.277 116.253,111.777 110.5,116.5C 109.127,116.343 107.793,116.51 106.5,117C 101.356,119.753 96.3556,122.586 91.5,125.5C 91.5,123.833 91.5,122.167 91.5,120.5C 92.391,119.89 93.391,119.557 94.5,119.5C 98.1046,118.037 101.771,116.537 105.5,115C 112.974,109.38 120.64,104.047 128.5,99C 133.431,98.562 136.765,96.062 138.5,91.5 Z"/></g>
<g><path style="opacity:1" fill="#4697fc" d="M 161.5,93.5 C 162.148,95.0858 162.648,96.7525 163,98.5C 163.827,112.34 163.661,126.006 162.5,139.5C 162.5,138.5 162.5,137.5 162.5,136.5C 162.5,135.167 162.5,133.833 162.5,132.5C 162.5,131.5 162.5,130.5 162.5,129.5C 162.5,128.167 162.5,126.833 162.5,125.5C 162.5,124.833 162.5,124.167 162.5,123.5C 162.5,122.167 162.5,120.833 162.5,119.5C 162.5,118.5 162.5,117.5 162.5,116.5C 162.5,113.167 162.5,109.833 162.5,106.5C 162.5,105.833 162.5,105.167 162.5,104.5C 162.5,102.833 162.5,101.167 162.5,99.5C 157.424,101.388 152.424,103.555 147.5,106C 146.833,107 146.167,108 145.5,109C 141.67,110.702 138.004,112.535 134.5,114.5C 124.639,120.264 114.639,125.764 104.5,131C 101.213,135.639 96.8797,138.806 91.5,140.5C 91.5,140.167 91.5,139.833 91.5,139.5C 108.073,126.619 125.74,115.285 144.5,105.5C 145.5,104.167 146.5,102.833 147.5,101.5C 152.445,99.3597 157.112,96.693 161.5,93.5 Z"/></g>
<g><path style="opacity:1" fill="#0463ff" d="M 162.5,104.5 C 160.079,105.891 157.412,106.725 154.5,107C 152.963,108.707 151.296,110.207 149.5,111.5C 142.247,113.207 135.914,116.707 130.5,122C 128.564,122.813 126.564,123.313 124.5,123.5C 127.833,120.5 131.167,117.5 134.5,114.5C 138.004,112.535 141.67,110.702 145.5,109C 146.167,108 146.833,107 147.5,106C 152.424,103.555 157.424,101.388 162.5,99.5C 162.5,101.167 162.5,102.833 162.5,104.5 Z"/></g>
<g><path style="opacity:1" fill="#0015ff" d="M 156.5,112.5 C 153.94,114.573 151.274,116.739 148.5,119C 141.937,121.897 135.603,125.23 129.5,129C 128.643,131.019 127.309,132.519 125.5,133.5C 124.167,133.5 122.833,133.5 121.5,133.5C 124.723,131.439 127.723,128.939 130.5,126C 139.527,122.126 148.194,117.626 156.5,112.5 Z"/></g>
<g><path style="opacity:1" fill="#1601ff" d="M 162.5,106.5 C 162.5,109.833 162.5,113.167 162.5,116.5C 159.985,117.263 157.985,118.763 156.5,121C 154.285,122.044 151.952,122.71 149.5,123C 138.325,130.086 127.325,137.42 116.5,145C 108.965,146.273 102.631,149.606 97.5,155C 95.4144,155.315 93.4144,155.815 91.5,156.5C 91.5,155.5 91.5,154.5 91.5,153.5C 93.3084,153.509 94.9751,153.009 96.5,152C 98.5073,150.287 100.507,148.621 102.5,147C 109.558,144.976 116.224,141.976 122.5,138C 123.883,136.729 124.883,135.229 125.5,133.5C 127.309,132.519 128.643,131.019 129.5,129C 135.603,125.23 141.937,121.897 148.5,119C 151.274,116.739 153.94,114.573 156.5,112.5C 157.522,109.478 159.522,107.478 162.5,106.5 Z"/></g>
<g><path style="opacity:1" fill="#ff00c1" d="M 200.5,118.5 C 200.813,121.247 200.48,123.914 199.5,126.5C 196.873,125.942 194.54,124.942 192.5,123.5C 194.658,121.007 197.324,119.34 200.5,118.5 Z"/></g>
<g><path style="opacity:1" fill="#6400ff" d="M 162.5,119.5 C 162.5,120.833 162.5,122.167 162.5,123.5C 157.19,126.156 152.19,129.323 147.5,133C 144.899,133.92 142.232,134.587 139.5,135C 138.211,136.802 136.544,137.969 134.5,138.5C 136.194,136.139 138.194,134.139 140.5,132.5C 141.873,132.657 143.207,132.49 144.5,132C 150.355,127.577 156.355,123.41 162.5,119.5 Z"/></g>
<g><path style="opacity:1" fill="#0031ff" d="M 162.5,104.5 C 162.5,105.167 162.5,105.833 162.5,106.5C 159.522,107.478 157.522,109.478 156.5,112.5C 148.194,117.626 139.527,122.126 130.5,126C 127.723,128.939 124.723,131.439 121.5,133.5C 114.647,135.516 108.647,139.016 103.5,144C 99.1234,144.697 95.1234,146.197 91.5,148.5C 91.5,147.833 91.5,147.167 91.5,146.5C 94.4757,144.336 97.8091,142.836 101.5,142C 104.202,139.005 107.202,136.505 110.5,134.5C 114.339,132.755 118.339,131.255 122.5,130C 125.438,126.57 129.105,124.237 133.5,123C 135.418,120.072 138.085,118.406 141.5,118C 144.194,115.742 146.861,113.576 149.5,111.5C 151.296,110.207 152.963,108.707 154.5,107C 157.412,106.725 160.079,105.891 162.5,104.5 Z"/></g>
<g><path style="opacity:1" fill="#ffa846" d="M 62.5,129.5 C 59.7334,129.142 57.0667,128.475 54.5,127.5C 53.5029,147.326 53.1695,167.326 53.5,187.5C 52.5028,167.34 52.1695,147.007 52.5,126.5C 56.4158,126.025 59.7491,127.025 62.5,129.5 Z"/></g>
<g><path style="opacity:1" fill="#ffd4a4" d="M 54.5,127.5 C 54.5,131.167 54.5,134.833 54.5,138.5C 54.5,140.5 54.5,142.5 54.5,144.5C 54.5,147.167 54.5,149.833 54.5,152.5C 54.5,153.5 54.5,154.5 54.5,155.5C 54.5,157.167 54.5,158.833 54.5,160.5C 54.5,162.5 54.5,164.5 54.5,166.5C 54.5,167.833 54.5,169.167 54.5,170.5C 54.5,175.833 54.5,181.167 54.5,186.5C 54.7073,189.241 55.7073,191.574 57.5,193.5C 58.1667,194.833 59.1667,195.833 60.5,196.5C 61.5137,197.674 62.847,198.34 64.5,198.5C 65.9187,199.451 67.5853,199.784 69.5,199.5C 72.8333,199.5 76.1667,199.5 79.5,199.5C 81.5,199.5 83.5,199.5 85.5,199.5C 86.1667,199.5 86.8333,199.5 87.5,199.5C 89.8333,199.5 92.1667,199.5 94.5,199.5C 105.167,199.5 115.833,199.5 126.5,199.5C 106.674,200.497 86.6736,200.83 66.5,200.5C 59.1667,199.167 54.8333,194.833 53.5,187.5C 53.1695,167.326 53.5029,147.326 54.5,127.5 Z"/></g>
<g><path style="opacity:1" fill="#03c7ff" d="M 122.5,114.5 C 120.763,116.55 118.763,118.383 116.5,120C 110.69,121.362 106.024,124.362 102.5,129C 98.9291,131.421 95.2625,133.587 91.5,135.5C 91.5,134.167 91.5,132.833 91.5,131.5C 94.4866,130.191 97.4866,128.858 100.5,127.5C 101.095,125.107 102.428,123.273 104.5,122C 110.363,119.237 116.363,116.737 122.5,114.5 Z"/></g>
<g><path style="opacity:1" fill="#014dff" d="M 149.5,111.5 C 146.861,113.576 144.194,115.742 141.5,118C 138.085,118.406 135.418,120.072 133.5,123C 129.105,124.237 125.438,126.57 122.5,130C 118.339,131.255 114.339,132.755 110.5,134.5C 112.473,133.194 114.139,131.527 115.5,129.5C 118.205,127.141 121.205,125.141 124.5,123.5C 126.564,123.313 128.564,122.813 130.5,122C 135.914,116.707 142.247,113.207 149.5,111.5 Z"/></g>
<g><path style="opacity:1" fill="#ffc07b" d="M 63.5,130.5 C 66.5616,131.268 68.2283,133.268 68.5,136.5C 68.1667,136.5 67.8333,136.5 67.5,136.5C 66.5977,134.659 65.2644,133.326 63.5,132.5C 63.5,131.833 63.5,131.167 63.5,130.5 Z"/></g>
<g><path style="opacity:1" fill="#14fe76" d="M 54.5,127.5 C 57.0667,128.475 59.7334,129.142 62.5,129.5C 63.1667,129.5 63.5,129.833 63.5,130.5C 63.5,131.167 63.5,131.833 63.5,132.5C 62.7101,133.794 61.7101,134.961 60.5,136C 58.1887,136.236 56.1887,137.069 54.5,138.5C 54.5,134.833 54.5,131.167 54.5,127.5 Z"/></g>
<g><path style="opacity:1" fill="#3e00ff" d="M 162.5,116.5 C 162.5,117.5 162.5,118.5 162.5,119.5C 156.355,123.41 150.355,127.577 144.5,132C 143.207,132.49 141.873,132.657 140.5,132.5C 139.448,132.351 138.448,132.517 137.5,133C 131.5,137.333 125.5,141.667 119.5,146C 112.909,148.476 106.909,151.976 101.5,156.5C 99.1645,159.165 96.1645,160.498 92.5,160.5C 92.1667,159.833 91.8333,159.167 91.5,158.5C 91.5,157.833 91.5,157.167 91.5,156.5C 93.4144,155.815 95.4144,155.315 97.5,155C 102.631,149.606 108.965,146.273 116.5,145C 127.325,137.42 138.325,130.086 149.5,123C 151.952,122.71 154.285,122.044 156.5,121C 157.985,118.763 159.985,117.263 162.5,116.5 Z"/></g>
<g><path style="opacity:1" fill="#c300ff" d="M 162.5,129.5 C 162.5,130.5 162.5,131.5 162.5,132.5C 146.086,143.035 129.419,153.035 112.5,162.5C 111.167,162.5 109.833,162.5 108.5,162.5C 112.603,158.75 117.27,155.75 122.5,153.5C 129.294,150.935 135.294,147.101 140.5,142C 142.167,141.667 143.833,141.333 145.5,141C 150.086,138.418 154.086,135.084 157.5,131C 159.154,130.392 160.821,129.892 162.5,129.5 Z"/></g>
<g><path style="opacity:1" fill="#040eff" d="M 121.5,133.5 C 122.833,133.5 124.167,133.5 125.5,133.5C 124.883,135.229 123.883,136.729 122.5,138C 116.224,141.976 109.558,144.976 102.5,147C 100.507,148.621 98.5073,150.287 96.5,152C 94.9751,153.009 93.3084,153.509 91.5,153.5C 91.5,151.833 91.5,150.167 91.5,148.5C 95.1234,146.197 99.1234,144.697 103.5,144C 108.647,139.016 114.647,135.516 121.5,133.5 Z"/></g>
<g><path style="opacity:1" fill="#0256ff" d="M 115.5,129.5 C 114.139,131.527 112.473,133.194 110.5,134.5C 107.202,136.505 104.202,139.005 101.5,142C 97.8091,142.836 94.4757,144.336 91.5,146.5C 91.5,145.167 91.5,143.833 91.5,142.5C 95.1498,139.223 99.4832,137.389 104.5,137C 107.878,133.985 111.544,131.485 115.5,129.5 Z"/></g>
<g><path style="opacity:1" fill="#7600ff" d="M 162.5,123.5 C 162.5,124.167 162.5,124.833 162.5,125.5C 157.925,129.284 152.925,132.284 147.5,134.5C 140.978,138.848 133.978,142.348 126.5,145C 125.167,146.333 123.833,147.667 122.5,149C 113.952,152.768 105.952,157.268 98.5,162.5C 96.4352,162.483 94.4352,162.15 92.5,161.5C 92.5,161.167 92.5,160.833 92.5,160.5C 96.1645,160.498 99.1645,159.165 101.5,156.5C 107.278,155.556 112.278,153.056 116.5,149C 118.167,148.667 119.833,148.333 121.5,148C 125.508,144.335 129.841,141.168 134.5,138.5C 136.544,137.969 138.211,136.802 139.5,135C 142.232,134.587 144.899,133.92 147.5,133C 152.19,129.323 157.19,126.156 162.5,123.5 Z"/></g>
<g><path style="opacity:1" fill="#09feb1" d="M 63.5,132.5 C 65.2644,133.326 66.5977,134.659 67.5,136.5C 63.2447,139.158 58.9113,141.824 54.5,144.5C 54.5,142.5 54.5,140.5 54.5,138.5C 56.1887,137.069 58.1887,136.236 60.5,136C 61.7101,134.961 62.7101,133.794 63.5,132.5 Z"/></g>
<g><path style="opacity:0.843" fill="#e6e0d5" d="M 92.5,92.5 C 91.6561,96.0991 91.3227,99.7657 91.5,103.5C 91.5,105.167 91.5,106.833 91.5,108.5C 91.5,109.833 91.5,111.167 91.5,112.5C 91.5,113.167 91.5,113.833 91.5,114.5C 91.5,114.833 91.5,115.167 91.5,115.5C 91.5,117.167 91.5,118.833 91.5,120.5C 91.5,122.167 91.5,123.833 91.5,125.5C 91.5,127.5 91.5,129.5 91.5,131.5C 91.5,132.833 91.5,134.167 91.5,135.5C 91.5,136.833 91.5,138.167 91.5,139.5C 91.5,139.833 91.5,140.167 91.5,140.5C 91.5,141.167 91.5,141.833 91.5,142.5C 91.5,143.833 91.5,145.167 91.5,146.5C 91.5,147.167 91.5,147.833 91.5,148.5C 91.5,150.167 91.5,151.833 91.5,153.5C 91.5,154.5 91.5,155.5 91.5,156.5C 91.5,157.167 91.5,157.833 91.5,158.5C 90.5027,137.673 90.1694,116.673 90.5,95.5C 90.427,93.9731 91.0937,92.9731 92.5,92.5 Z"/></g>
<g><path style="opacity:1" fill="#0277ff" d="M 134.5,114.5 C 131.167,117.5 127.833,120.5 124.5,123.5C 121.205,125.141 118.205,127.141 115.5,129.5C 111.544,131.485 107.878,133.985 104.5,137C 99.4832,137.389 95.1498,139.223 91.5,142.5C 91.5,141.833 91.5,141.167 91.5,140.5C 96.8797,138.806 101.213,135.639 104.5,131C 114.639,125.764 124.639,120.264 134.5,114.5 Z"/></g>
<g><path style="opacity:0.004" fill="#feaa00" d="M -0.5,141.5 C 0.833333,142.167 0.833333,142.167 -0.5,141.5 Z"/></g>
<g><path style="opacity:1" fill="#ffa848" d="M 68.5,137.5 C 69.1174,137.611 69.6174,137.944 70,138.5C 70.0711,152.555 70.7377,166.555 72,180.5C 73.1711,181.893 74.6711,182.727 76.5,183C 89.1667,183.333 101.833,183.667 114.5,184C 115.416,184.278 116.082,184.778 116.5,185.5C 114.5,185.167 112.5,184.833 110.5,184.5C 108.167,184.5 105.833,184.5 103.5,184.5C 101.833,184.5 100.167,184.5 98.5,184.5C 97.8333,184.5 97.1667,184.5 96.5,184.5C 92.8333,184.5 89.1667,184.5 85.5,184.5C 82.5,184.5 79.5,184.5 76.5,184.5C 75.1667,184.167 73.8333,183.833 72.5,183.5C 71.4884,182.128 70.4884,180.795 69.5,179.5C 69.5,173.833 69.5,168.167 69.5,162.5C 69.5,161.167 69.5,159.833 69.5,158.5C 69.5,156.5 69.5,154.5 69.5,152.5C 69.5,151.167 69.5,149.833 69.5,148.5C 69.5,146.833 69.5,145.167 69.5,143.5C 69.1667,141.5 68.8333,139.5 68.5,137.5 Z"/></g>
<g><path style="opacity:1" fill="#a800ff" d="M 162.5,125.5 C 162.5,126.833 162.5,128.167 162.5,129.5C 160.821,129.892 159.154,130.392 157.5,131C 154.086,135.084 150.086,138.418 145.5,141C 143.833,141.333 142.167,141.667 140.5,142C 135.294,147.101 129.294,150.935 122.5,153.5C 128.771,147.691 135.771,142.857 143.5,139C 145.041,137.629 146.375,136.129 147.5,134.5C 152.925,132.284 157.925,129.284 162.5,125.5 Z"/></g>
<g><path style="opacity:1" fill="#e500ff" d="M 162.5,132.5 C 162.5,133.833 162.5,135.167 162.5,136.5C 148.464,145.181 134.464,153.847 120.5,162.5C 117.833,162.5 115.167,162.5 112.5,162.5C 129.419,153.035 146.086,143.035 162.5,132.5 Z"/></g>
<g><path style="opacity:0.004" fill="#feaa00" d="M 253.5,141.5 C 254.833,142.167 254.833,142.167 253.5,141.5 Z"/></g>
<g><path style="opacity:1" fill="#5900ff" d="M 140.5,132.5 C 138.194,134.139 136.194,136.139 134.5,138.5C 129.841,141.168 125.508,144.335 121.5,148C 119.833,148.333 118.167,148.667 116.5,149C 112.278,153.056 107.278,155.556 101.5,156.5C 106.909,151.976 112.909,148.476 119.5,146C 125.5,141.667 131.5,137.333 137.5,133C 138.448,132.517 139.448,132.351 140.5,132.5 Z"/></g>
<g><path style="opacity:1" fill="#09fcf1" d="M 67.5,136.5 C 67.8333,136.5 68.1667,136.5 68.5,136.5C 68.5,136.833 68.5,137.167 68.5,137.5C 68.8333,139.5 69.1667,141.5 69.5,143.5C 67.1409,144.176 64.8076,145.009 62.5,146C 60.3921,148.883 57.7254,151.05 54.5,152.5C 54.5,149.833 54.5,147.167 54.5,144.5C 58.9113,141.824 63.2447,139.158 67.5,136.5 Z"/></g>
<g><path style="opacity:1" fill="#9100ff" d="M 147.5,134.5 C 146.375,136.129 145.041,137.629 143.5,139C 135.771,142.857 128.771,147.691 122.5,153.5C 117.27,155.75 112.603,158.75 108.5,162.5C 105.167,162.5 101.833,162.5 98.5,162.5C 105.952,157.268 113.952,152.768 122.5,149C 123.833,147.667 125.167,146.333 126.5,145C 133.978,142.348 140.978,138.848 147.5,134.5 Z"/></g>
<g><path style="opacity:0.004" fill="#feaa00" d="M 0.5,148.5 C 1.83333,149.167 1.83333,149.167 0.5,148.5 Z"/></g>
<g><path style="opacity:1" fill="#03d6ff" d="M 69.5,143.5 C 69.5,145.167 69.5,146.833 69.5,148.5C 64.6774,151.007 59.6774,153.34 54.5,155.5C 54.5,154.5 54.5,153.5 54.5,152.5C 57.7254,151.05 60.3921,148.883 62.5,146C 64.8076,145.009 67.1409,144.176 69.5,143.5 Z"/></g>
<g><path style="opacity:1" fill="#ff0093" d="M 162.5,144.5 C 162.5,146.833 162.5,149.167 162.5,151.5C 157.995,154.586 153.328,157.42 148.5,160C 147.748,160.671 147.414,161.504 147.5,162.5C 144.167,162.5 140.833,162.5 137.5,162.5C 140.048,160.588 142.382,158.421 144.5,156C 150.92,152.732 156.92,148.899 162.5,144.5 Z"/></g>
<g><path style="opacity:1" fill="#04afff" d="M 69.5,148.5 C 69.5,149.833 69.5,151.167 69.5,152.5C 64.493,155.179 59.493,157.845 54.5,160.5C 54.5,158.833 54.5,157.167 54.5,155.5C 59.6774,153.34 64.6774,151.007 69.5,148.5 Z"/></g>
<g><path style="opacity:1" fill="#ff00c8" d="M 162.5,140.5 C 162.5,141.833 162.5,143.167 162.5,144.5C 156.92,148.899 150.92,152.732 144.5,156C 142.382,158.421 140.048,160.588 137.5,162.5C 134.167,162.5 130.833,162.5 127.5,162.5C 132.227,160.311 136.894,157.811 141.5,155C 146.559,149.479 152.559,145.479 159.5,143C 160.373,141.955 161.373,141.122 162.5,140.5 Z"/></g>
<g><path style="opacity:1" fill="#fe00ec" d="M 162.5,136.5 C 162.5,137.5 162.5,138.5 162.5,139.5C 162.5,139.833 162.5,140.167 162.5,140.5C 161.373,141.122 160.373,141.955 159.5,143C 152.559,145.479 146.559,149.479 141.5,155C 136.894,157.811 132.227,160.311 127.5,162.5C 125.167,162.5 122.833,162.5 120.5,162.5C 134.464,153.847 148.464,145.181 162.5,136.5 Z"/></g>
<g><path style="opacity:1" fill="#0676ff" d="M 69.5,152.5 C 69.5,154.5 69.5,156.5 69.5,158.5C 64.1172,160.409 59.1172,163.075 54.5,166.5C 54.5,164.5 54.5,162.5 54.5,160.5C 59.493,157.845 64.493,155.179 69.5,152.5 Z"/></g>
<g><path style="opacity:1" fill="#ff0053" d="M 162.5,151.5 C 162.658,154.902 162.324,158.236 161.5,161.5C 156.897,162.383 152.23,162.717 147.5,162.5C 147.414,161.504 147.748,160.671 148.5,160C 153.328,157.42 157.995,154.586 162.5,151.5 Z"/></g>
<g><path style="opacity:1" fill="#ffc48a" d="M 92.5,161.5 C 94.4352,162.15 96.4352,162.483 98.5,162.5C 101.833,162.5 105.167,162.5 108.5,162.5C 109.833,162.5 111.167,162.5 112.5,162.5C 115.167,162.5 117.833,162.5 120.5,162.5C 122.833,162.5 125.167,162.5 127.5,162.5C 130.833,162.5 134.167,162.5 137.5,162.5C 140.833,162.5 144.167,162.5 147.5,162.5C 152.23,162.717 156.897,162.383 161.5,161.5C 161.047,162.458 160.381,163.292 159.5,164C 137.833,164.667 116.167,164.667 94.5,164C 93.6195,163.292 92.9528,162.458 92.5,161.5 Z"/></g>
<g><path style="opacity:1" fill="#0244ff" d="M 69.5,158.5 C 69.5,159.833 69.5,161.167 69.5,162.5C 68.0384,163.458 66.7051,164.624 65.5,166C 61.5062,166.86 57.8395,168.36 54.5,170.5C 54.5,169.167 54.5,167.833 54.5,166.5C 59.1172,163.075 64.1172,160.409 69.5,158.5 Z"/></g>
<g><path style="opacity:1" fill="#270cff" d="M 69.5,162.5 C 69.5,168.167 69.5,173.833 69.5,179.5C 63.7357,180.191 58.7357,182.525 54.5,186.5C 54.5,181.167 54.5,175.833 54.5,170.5C 57.8395,168.36 61.5062,166.86 65.5,166C 66.7051,164.624 68.0384,163.458 69.5,162.5 Z"/></g>
<g><path style="opacity:0.004" fill="#feff00" d="M 7.5,173.5 C 8.83333,174.167 8.83333,174.167 7.5,173.5 Z"/></g>
<g><path style="opacity:0.004" fill="#feff00" d="M 245.5,173.5 C 246.833,174.167 246.833,174.167 245.5,173.5 Z"/></g>
<g><path style="opacity:0.004" fill="#feff00" d="M 10.5,180.5 C 11.8333,181.167 11.8333,181.167 10.5,180.5 Z"/></g>
<g><path style="opacity:0.004" fill="#feff00" d="M 242.5,180.5 C 243.833,181.167 243.833,181.167 242.5,180.5 Z"/></g>
<g><path style="opacity:0.004" fill="#feff00" d="M 241.5,182.5 C 242.833,183.167 242.833,183.167 241.5,182.5 Z"/></g>
<g><path style="opacity:1" fill="#ffbd7c" d="M 116.5,185.5 C 120.14,185.475 122.473,187.142 123.5,190.5C 121.589,189.925 119.922,188.925 118.5,187.5C 117.833,186.833 117.167,186.167 116.5,185.5 Z"/></g>
<g><path style="opacity:0.004" fill="#feaa00" d="M 14.5,188.5 C 15.8333,189.167 15.8333,189.167 14.5,188.5 Z"/></g>
<g><path style="opacity:1" fill="#ff000e" d="M 118.5,187.5 C 119.922,188.925 121.589,189.925 123.5,190.5C 124.655,193.457 125.655,196.457 126.5,199.5C 115.833,199.5 105.167,199.5 94.5,199.5C 95.2899,198.206 96.2899,197.039 97.5,196C 102.814,193.368 108.147,190.701 113.5,188C 115.134,187.506 116.801,187.34 118.5,187.5 Z"/></g>
<g><path style="opacity:0.004" fill="#feaa00" d="M 238.5,188.5 C 239.833,189.167 239.833,189.167 238.5,188.5 Z"/></g>
<g><path style="opacity:1" fill="#ff008c" d="M 98.5,184.5 C 100.167,184.5 101.833,184.5 103.5,184.5C 98.0864,190.251 92.0864,195.251 85.5,199.5C 83.5,199.5 81.5,199.5 79.5,199.5C 86.0707,194.944 92.404,189.944 98.5,184.5 Z"/></g>
<g><path style="opacity:1" fill="#8f00ff" d="M 69.5,179.5 C 70.4884,180.795 71.4884,182.128 72.5,183.5C 66.9538,186.052 61.9538,189.385 57.5,193.5C 55.7073,191.574 54.7073,189.241 54.5,186.5C 58.7357,182.525 63.7357,180.191 69.5,179.5 Z"/></g>
<g><path style="opacity:1" fill="#c800ff" d="M 72.5,183.5 C 73.8333,183.833 75.1667,184.167 76.5,184.5C 70.8631,188.143 65.5298,192.143 60.5,196.5C 59.1667,195.833 58.1667,194.833 57.5,193.5C 61.9538,189.385 66.9538,186.052 72.5,183.5 Z"/></g>
<g><path style="opacity:1" fill="#ff00da" d="M 85.5,184.5 C 89.1667,184.5 92.8333,184.5 96.5,184.5C 93.0113,187.137 89.3447,189.637 85.5,192C 80.6164,193.257 75.9498,194.924 71.5,197C 70.6195,197.708 69.9528,198.542 69.5,199.5C 67.5853,199.784 65.9187,199.451 64.5,198.5C 68.3821,194.723 73.0488,192.223 78.5,191C 80.7032,188.628 83.0365,186.461 85.5,184.5 Z"/></g>
<g><path style="opacity:1" fill="#ff006b" d="M 103.5,184.5 C 105.833,184.5 108.167,184.5 110.5,184.5C 105.312,190.18 98.979,194.013 91.5,196C 89.9069,196.949 88.5736,198.115 87.5,199.5C 86.8333,199.5 86.1667,199.5 85.5,199.5C 92.0864,195.251 98.0864,190.251 103.5,184.5 Z"/></g>
<g><path style="opacity:1" fill="#f100fd" d="M 76.5,184.5 C 79.5,184.5 82.5,184.5 85.5,184.5C 83.0365,186.461 80.7032,188.628 78.5,191C 73.0488,192.223 68.3821,194.723 64.5,198.5C 62.847,198.34 61.5137,197.674 60.5,196.5C 65.5298,192.143 70.8631,188.143 76.5,184.5 Z"/></g>
<g><path style="opacity:1" fill="#ff00ad" d="M 96.5,184.5 C 97.1667,184.5 97.8333,184.5 98.5,184.5C 92.404,189.944 86.0707,194.944 79.5,199.5C 76.1667,199.5 72.8333,199.5 69.5,199.5C 69.9528,198.542 70.6195,197.708 71.5,197C 75.9498,194.924 80.6164,193.257 85.5,192C 89.3447,189.637 93.0113,187.137 96.5,184.5 Z"/></g>
<g><path style="opacity:0.004" fill="#feaa00" d="M 17.5,193.5 C 18.8333,194.167 18.8333,194.167 17.5,193.5 Z"/></g>
<g><path style="opacity:1" fill="#ff0248" d="M 110.5,184.5 C 112.5,184.833 114.5,185.167 116.5,185.5C 117.167,186.167 117.833,186.833 118.5,187.5C 116.801,187.34 115.134,187.506 113.5,188C 108.147,190.701 102.814,193.368 97.5,196C 96.2899,197.039 95.2899,198.206 94.5,199.5C 92.1667,199.5 89.8333,199.5 87.5,199.5C 88.5736,198.115 89.9069,196.949 91.5,196C 98.979,194.013 105.312,190.18 110.5,184.5 Z"/></g>
<g><path style="opacity:1" fill="#ffac50" d="M 123.5,190.5 C 126.778,193.322 128.111,196.988 127.5,201.5C 106.993,201.83 86.6598,201.497 66.5,200.5C 86.6736,200.83 106.674,200.497 126.5,199.5C 125.655,196.457 124.655,193.457 123.5,190.5 Z"/></g>
<g><path style="opacity:0.004" fill="#feaa00" d="M 214.5,219.5 C 215.833,220.167 215.833,220.167 214.5,219.5 Z"/></g>
<g><path style="opacity:0.004" fill="#feaa00" d="M 46.5,226.5 C 47.8333,227.167 47.8333,227.167 46.5,226.5 Z"/></g>
<g><path style="opacity:0.004" fill="#feaa00" d="M 206.5,226.5 C 207.833,227.167 207.833,227.167 206.5,226.5 Z"/></g>
<g><path style="opacity:0.004" fill="#feff00" d="M 50.5,229.5 C 51.8333,230.167 51.8333,230.167 50.5,229.5 Z"/></g>
<g><path style="opacity:0.004" fill="#feff00" d="M 202.5,229.5 C 203.833,230.167 203.833,230.167 202.5,229.5 Z"/></g>
<g><path style="opacity:0.004" fill="#feff00" d="M 193.5,235.5 C 194.833,236.167 194.833,236.167 193.5,235.5 Z"/></g>
<g><path style="opacity:0.004" fill="#feff00" d="M 64.5,238.5 C 65.8333,239.167 65.8333,239.167 64.5,238.5 Z"/></g>
<g><path style="opacity:0.004" fill="#feff00" d="M 188.5,238.5 C 189.833,239.167 189.833,239.167 188.5,238.5 Z"/></g>
<g><path style="opacity:0.004" fill="#feaa00" d="M 70.5,241.5 C 71.8333,242.167 71.8333,242.167 70.5,241.5 Z"/></g>
<g><path style="opacity:0.004" fill="#feaa00" d="M 182.5,241.5 C 183.833,242.167 183.833,242.167 182.5,241.5 Z"/></g>
<g><path style="opacity:0.004" fill="#feff00" d="M 79.5,245.5 C 80.8333,246.167 80.8333,246.167 79.5,245.5 Z"/></g>
<g><path style="opacity:0.004" fill="#feff00" d="M 173.5,245.5 C 174.833,246.167 174.833,246.167 173.5,245.5 Z"/></g>
</svg>
