<?xml version="1.0" encoding="UTF-8"?>
<!DOCTYPE svg PUBLIC "-//W3C//DTD SVG 1.1//EN" "http://www.w3.org/Graphics/SVG/1.1/DTD/svg11.dtd">
<svg xmlns="http://www.w3.org/2000/svg" version="1.1" width="256px" height="256px" style="shape-rendering:geometricPrecision; text-rendering:geometricPrecision; image-rendering:optimizeQuality; fill-rule:evenodd; clip-rule:evenodd" xmlns:xlink="http://www.w3.org/1999/xlink">
<g><path style="opacity:0.004" fill="#00ff00" d="M 104.5,0.5 C 105.833,1.16667 105.833,1.16667 104.5,0.5 Z"/></g>
<g><path style="opacity:0.004" fill="#00ff00" d="M 164.5,4.5 C 165.833,5.16667 165.833,5.16667 164.5,4.5 Z"/></g>
<g><path style="opacity:0.008" fill="#00ff00" d="M 167.5,5.5 C 168.833,6.16667 168.833,6.16667 167.5,5.5 Z"/></g>
<g><path style="opacity:0.008" fill="#00ff00" d="M 170.5,6.5 C 171.833,7.16667 171.833,7.16667 170.5,6.5 Z"/></g>
<g><path style="opacity:0.008" fill="#00ff00" d="M 173.5,7.5 C 174.833,8.16667 174.833,8.16667 173.5,7.5 Z"/></g>
<g><path style="opacity:0.008" fill="#00ff00" d="M 176.5,8.5 C 177.833,9.16667 177.833,9.16667 176.5,8.5 Z"/></g>
<g><path style="opacity:0.008" fill="#00ff00" d="M 70.5,11.5 C 71.8333,12.1667 71.8333,12.1667 70.5,11.5 Z"/></g>
<g><path style="opacity:0.004" fill="#00ff00" d="M 59.5,17.5 C 60.8333,18.1667 60.8333,18.1667 59.5,17.5 Z"/></g>
<g><path style="opacity:0.008" fill="#00ff00" d="M 54.5,20.5 C 55.8333,21.1667 55.8333,21.1667 54.5,20.5 Z"/></g>
<g><path style="opacity:0.004" fill="#00ff00" d="M 202.5,23.5 C 203.833,24.1667 203.833,24.1667 202.5,23.5 Z"/></g>
<g><path style="opacity:1" fill="#f6f0ee" d="M 188.5,51.5 C 190.426,53.2927 192.759,54.2927 195.5,54.5C 200.988,56.1612 206.154,58.4945 211,61.5C 211.667,83.8333 211.667,106.167 211,128.5C 210.513,134.764 209.347,140.764 207.5,146.5C 205.899,149.55 204.899,152.884 204.5,156.5C 191.169,194.332 165.336,218.999 127,230.5C 87.4941,218.495 61.3274,192.828 48.5,153.5C 47.8684,149.298 46.8684,145.298 45.5,141.5C 44.0554,137.079 43.222,132.412 43,127.5C 42.3333,105.5 42.3333,83.5 43,61.5C 47.8457,58.4945 53.0124,56.1612 58.5,54.5C 61.2406,54.2927 63.5739,53.2927 65.5,51.5C 66.6715,50.6554 68.0048,49.9887 69.5,49.5C 72.2406,49.2927 74.5739,48.2927 76.5,46.5C 88.8617,40.3225 101.528,34.6558 114.5,29.5C 117.241,29.2927 119.574,28.2927 121.5,26.5C 123.582,24.9081 125.915,24.0748 128.5,24C 148.71,32.9419 168.71,42.1086 188.5,51.5 Z"/></g>
<g><path style="opacity:0.004" fill="#00ff00" d="M 46.5,26.5 C 47.8333,27.1667 47.8333,27.1667 46.5,26.5 Z"/></g>
<g><path style="opacity:1" fill="#3c6d3d" d="M 121.5,26.5 C 119.574,28.2927 117.241,29.2927 114.5,29.5C 116.426,27.7073 118.759,26.7073 121.5,26.5 Z"/></g>
<g><path style="opacity:0.004" fill="#00ff00" d="M 38.5,33.5 C 39.8333,34.1667 39.8333,34.1667 38.5,33.5 Z"/></g>
<g><path style="opacity:0.008" fill="#00ff00" d="M 33.5,38.5 C 34.8333,39.1667 34.8333,39.1667 33.5,38.5 Z"/></g>
<g><path style="opacity:0.008" fill="#00ff00" d="M 219.5,38.5 C 220.833,39.1667 220.833,39.1667 219.5,38.5 Z"/></g>
<g><path style="opacity:1" fill="#3e7740" d="M 76.5,46.5 C 74.5739,48.2927 72.2406,49.2927 69.5,49.5C 71.4261,47.7073 73.7594,46.7073 76.5,46.5 Z"/></g>
<g><path style="opacity:1" fill="#356737" d="M 125.5,45.5 C 125.56,44.9569 125.893,44.6236 126.5,44.5C 127.5,71.8252 127.833,99.1585 127.5,126.5C 149.167,126.5 170.833,126.5 192.5,126.5C 192.784,128.415 192.451,130.081 191.5,131.5C 191.5,130.167 191.5,128.833 191.5,127.5C 189.167,127.5 186.833,127.5 184.5,127.5C 182.833,127.5 181.167,127.5 179.5,127.5C 177.5,127.5 175.5,127.5 173.5,127.5C 160.833,127.5 148.167,127.5 135.5,127.5C 132.833,127.5 130.167,127.5 127.5,127.5C 127.5,129.833 127.5,132.167 127.5,134.5C 127.5,143.167 127.5,151.833 127.5,160.5C 127.5,162.167 127.5,163.833 127.5,165.5C 127.5,166.833 127.5,168.167 127.5,169.5C 127.5,172.167 127.5,174.833 127.5,177.5C 127.5,178.167 127.5,178.833 127.5,179.5C 127.5,181.5 127.5,183.5 127.5,185.5C 127.5,187.167 127.5,188.833 127.5,190.5C 127.5,192.167 127.5,193.833 127.5,195.5C 127.5,196.833 127.5,198.167 127.5,199.5C 126.931,203.329 127.598,206.663 129.5,209.5C 128.791,210.404 127.791,210.737 126.5,210.5C 126.5,182.833 126.5,155.167 126.5,127.5C 104.66,127.831 82.9936,127.497 61.5,126.5C 66.5,126.5 71.5,126.5 76.5,126.5C 80.1667,126.5 83.8333,126.5 87.5,126.5C 89.8333,126.5 92.1667,126.5 94.5,126.5C 98.1667,126.5 101.833,126.5 105.5,126.5C 107.833,126.5 110.167,126.5 112.5,126.5C 117.167,126.5 121.833,126.5 126.5,126.5C 126.5,123.5 126.5,120.5 126.5,117.5C 126.5,115.833 126.5,114.167 126.5,112.5C 126.5,109.5 126.5,106.5 126.5,103.5C 126.5,101.5 126.5,99.5 126.5,97.5C 126.5,95.5 126.5,93.5 126.5,91.5C 126.5,85.5 126.5,79.5 126.5,73.5C 126.5,70.8333 126.5,68.1667 126.5,65.5C 126.5,64.5 126.5,63.5 126.5,62.5C 126.5,61.5 126.5,60.5 126.5,59.5C 126.5,57.5 126.5,55.5 126.5,53.5C 126.5,52.1667 126.5,50.8333 126.5,49.5C 126.5,49.1667 126.5,48.8333 126.5,48.5C 126.737,47.209 126.404,46.209 125.5,45.5 Z"/></g>
<g><path style="opacity:0.008" fill="#00ff00" d="M 226.5,46.5 C 227.833,47.1667 227.833,47.1667 226.5,46.5 Z"/></g>
<g><path style="opacity:0.008" fill="#00ff00" d="M 23.5,50.5 C 24.8333,51.1667 24.8333,51.1667 23.5,50.5 Z"/></g>
<g><path style="opacity:0.008" fill="#00ff00" d="M 229.5,50.5 C 230.833,51.1667 230.833,51.1667 229.5,50.5 Z"/></g>
<g><path style="opacity:1" fill="#376b39" d="M 65.5,51.5 C 63.5739,53.2927 61.2406,54.2927 58.5,54.5C 60.4261,52.7073 62.7594,51.7073 65.5,51.5 Z"/></g>
<g><path style="opacity:1" fill="#3b6d3c" d="M 188.5,51.5 C 191.241,51.7073 193.574,52.7073 195.5,54.5C 192.759,54.2927 190.426,53.2927 188.5,51.5 Z"/></g>
<g><path style="opacity:1" fill="#ff9700" d="M 125.5,45.5 C 126.404,46.209 126.737,47.209 126.5,48.5C 124.063,49.2172 121.73,50.2172 119.5,51.5C 117.322,55.5229 113.988,57.6895 109.5,58C 106.086,60.4017 102.42,62.4017 98.5,64C 87.3974,74.6104 75.064,83.4438 61.5,90.5C 61.5,89.1667 61.5,87.8333 61.5,86.5C 63.5952,85.588 65.5952,84.4213 67.5,83C 72.9757,77.4351 78.6424,72.1018 84.5,67C 86.6079,66.6401 88.6079,65.9734 90.5,65C 94.5419,62.6067 98.2086,59.7734 101.5,56.5C 109.564,52.7984 117.564,49.1318 125.5,45.5 Z"/></g>
<g><path style="opacity:1" fill="#d3ff00" d="M 126.5,59.5 C 126.5,60.5 126.5,61.5 126.5,62.5C 123.162,64.5153 120.162,67.0153 117.5,70C 113.174,70.3225 109.841,72.3225 107.5,76C 101.361,78.4684 96.0278,82.1351 91.5,87C 84.3447,90.4798 78.0113,95.1465 72.5,101C 70.8333,101.333 69.1667,101.667 67.5,102C 65.6298,104.04 63.6298,105.873 61.5,107.5C 61.5,106.167 61.5,104.833 61.5,103.5C 69.1295,100.043 75.7962,95.21 81.5,89C 87.4228,85.4182 93.0894,81.4182 98.5,77C 104.281,74.9355 109.281,71.6021 113.5,67C 118.183,64.9955 122.516,62.4955 126.5,59.5 Z"/></g>
<g><path style="opacity:0.004" fill="#00ff00" d="M 11.5,70.5 C 12.8333,71.1667 12.8333,71.1667 11.5,70.5 Z"/></g>
<g><path style="opacity:0.004" fill="#00ff00" d="M 241.5,70.5 C 242.833,71.1667 242.833,71.1667 241.5,70.5 Z"/></g>
<g><path style="opacity:1" fill="#fef000" d="M 126.5,49.5 C 126.5,50.8333 126.5,52.1667 126.5,53.5C 118.414,58.7514 111.08,64.9181 104.5,72C 90.7631,81.9247 76.4298,90.758 61.5,98.5C 61.5,97.8333 61.5,97.1667 61.5,96.5C 66.1382,93.4965 70.4715,89.9965 74.5,86C 79.9307,84.2448 84.5974,81.2448 88.5,77C 94.5716,74.947 99.5716,71.2803 103.5,66C 111.73,61.3081 119.397,55.8081 126.5,49.5 Z"/></g>
<g><path style="opacity:1" fill="#ff6700" d="M 101.5,56.5 C 98.2086,59.7734 94.5419,62.6067 90.5,65C 88.6079,65.9734 86.6079,66.6401 84.5,67C 78.6424,72.1018 72.9757,77.4351 67.5,83C 65.5952,84.4213 63.5952,85.588 61.5,86.5C 61.203,82.2325 61.5363,78.0659 62.5,74C 75.5216,68.1547 88.5216,62.3214 101.5,56.5 Z"/></g>
<g><path style="opacity:0.004" fill="#00ff00" d="M 242.5,72.5 C 243.833,73.1667 243.833,73.1667 242.5,72.5 Z"/></g>
<g><path style="opacity:0.004" fill="#00ff00" d="M 245.5,79.5 C 246.833,80.1667 246.833,80.1667 245.5,79.5 Z"/></g>
<g><path style="opacity:1" fill="#effe00" d="M 126.5,53.5 C 126.5,55.5 126.5,57.5 126.5,59.5C 122.516,62.4955 118.183,64.9955 113.5,67C 109.281,71.6021 104.281,74.9355 98.5,77C 93.0894,81.4182 87.4228,85.4182 81.5,89C 75.7962,95.21 69.1295,100.043 61.5,103.5C 61.5,101.833 61.5,100.167 61.5,98.5C 76.4298,90.758 90.7631,81.9247 104.5,72C 111.08,64.9181 118.414,58.7514 126.5,53.5 Z"/></g>
<g><path style="opacity:0.004" fill="#00ff00" d="M 248.5,87.5 C 249.833,88.1667 249.833,88.1667 248.5,87.5 Z"/></g>
<g><path style="opacity:1" fill="#ffcb00" d="M 126.5,48.5 C 126.5,48.8333 126.5,49.1667 126.5,49.5C 119.397,55.8081 111.73,61.3081 103.5,66C 99.5716,71.2803 94.5716,74.947 88.5,77C 84.5974,81.2448 79.9307,84.2448 74.5,86C 70.4715,89.9965 66.1382,93.4965 61.5,96.5C 61.5,94.5 61.5,92.5 61.5,90.5C 75.064,83.4438 87.3974,74.6104 98.5,64C 102.42,62.4017 106.086,60.4017 109.5,58C 113.988,57.6895 117.322,55.5229 119.5,51.5C 121.73,50.2172 124.063,49.2172 126.5,48.5 Z"/></g>
<g><path style="opacity:0.008" fill="#00ff00" d="M 249.5,91.5 C 250.833,92.1667 250.833,92.1667 249.5,91.5 Z"/></g>
<g><path style="opacity:1" fill="#b5ff00" d="M 126.5,62.5 C 126.5,63.5 126.5,64.5 126.5,65.5C 124.887,67.2696 122.887,68.4363 120.5,69C 118.547,73.2833 115.214,75.6166 110.5,76C 108.597,77.4473 106.93,79.114 105.5,81C 98.3693,84.7332 91.3693,88.7332 84.5,93C 81.9677,95.4472 79.6343,98.1139 77.5,101C 72.5835,105.073 67.2502,108.573 61.5,111.5C 61.5,110.167 61.5,108.833 61.5,107.5C 63.6298,105.873 65.6298,104.04 67.5,102C 69.1667,101.667 70.8333,101.333 72.5,101C 78.0113,95.1465 84.3447,90.4798 91.5,87C 96.0278,82.1351 101.361,78.4684 107.5,76C 109.841,72.3225 113.174,70.3225 117.5,70C 120.162,67.0153 123.162,64.5153 126.5,62.5 Z"/></g>
<g><path style="opacity:1" fill="#2aff0b" d="M 126.5,73.5 C 126.5,79.5 126.5,85.5 126.5,91.5C 122.165,95.6588 117.165,98.8254 111.5,101C 105.466,108.055 98.1327,113.055 89.5,116C 85.0968,119.519 80.7634,123.019 76.5,126.5C 71.5,126.5 66.5,126.5 61.5,126.5C 61.5,122.833 61.5,119.167 61.5,115.5C 67.5378,111.963 73.2045,107.797 78.5,103C 91.0843,97.7012 102.418,90.3678 112.5,81C 117.073,78.2152 121.739,75.7152 126.5,73.5 Z"/></g>
<g><path style="opacity:1" fill="#8bff00" d="M 126.5,65.5 C 126.5,68.1667 126.5,70.8333 126.5,73.5C 121.739,75.7152 117.073,78.2152 112.5,81C 102.418,90.3678 91.0843,97.7012 78.5,103C 73.2045,107.797 67.5378,111.963 61.5,115.5C 61.5,114.167 61.5,112.833 61.5,111.5C 67.2502,108.573 72.5835,105.073 77.5,101C 79.6343,98.1139 81.9677,95.4472 84.5,93C 91.3693,88.7332 98.3693,84.7332 105.5,81C 106.93,79.114 108.597,77.4473 110.5,76C 115.214,75.6166 118.547,73.2833 120.5,69C 122.887,68.4363 124.887,67.2696 126.5,65.5 Z"/></g>
<g><path style="opacity:1" fill="#02fe4b" d="M 126.5,91.5 C 126.5,93.5 126.5,95.5 126.5,97.5C 123.516,100.982 119.849,103.482 115.5,105C 109.386,110.445 102.72,115.112 95.5,119C 92.9375,121.733 90.2709,124.233 87.5,126.5C 83.8333,126.5 80.1667,126.5 76.5,126.5C 80.7634,123.019 85.0968,119.519 89.5,116C 98.1327,113.055 105.466,108.055 111.5,101C 117.165,98.8254 122.165,95.6588 126.5,91.5 Z"/></g>
<g><path style="opacity:1" fill="#02fe7f" d="M 126.5,97.5 C 126.5,99.5 126.5,101.5 126.5,103.5C 118.918,109.236 110.918,114.403 102.5,119C 99.9375,121.733 97.2709,124.233 94.5,126.5C 92.1667,126.5 89.8333,126.5 87.5,126.5C 90.2709,124.233 92.9375,121.733 95.5,119C 102.72,115.112 109.386,110.445 115.5,105C 119.849,103.482 123.516,100.982 126.5,97.5 Z"/></g>
<g><path style="opacity:1" fill="#07d8ff" d="M 126.5,117.5 C 126.5,120.5 126.5,123.5 126.5,126.5C 121.833,126.5 117.167,126.5 112.5,126.5C 117.633,124.395 122.299,121.395 126.5,117.5 Z"/></g>
<g><path style="opacity:1" fill="#06fde9" d="M 126.5,112.5 C 126.5,114.167 126.5,115.833 126.5,117.5C 122.299,121.395 117.633,124.395 112.5,126.5C 110.167,126.5 107.833,126.5 105.5,126.5C 108.938,123.565 112.271,120.399 115.5,117C 119.274,115.717 122.94,114.217 126.5,112.5 Z"/></g>
<g><path style="opacity:1" fill="#07feba" d="M 126.5,103.5 C 126.5,106.5 126.5,109.5 126.5,112.5C 122.94,114.217 119.274,115.717 115.5,117C 112.271,120.399 108.938,123.565 105.5,126.5C 101.833,126.5 98.1667,126.5 94.5,126.5C 97.2709,124.233 99.9375,121.733 102.5,119C 110.918,114.403 118.918,109.236 126.5,103.5 Z"/></g>
<g><path style="opacity:1" fill="#036bff" d="M 135.5,127.5 C 133.451,130.55 130.784,132.883 127.5,134.5C 127.5,132.167 127.5,129.833 127.5,127.5C 130.167,127.5 132.833,127.5 135.5,127.5 Z"/></g>
<g><path style="opacity:1" fill="#bd00ff" d="M 179.5,127.5 C 181.167,127.5 182.833,127.5 184.5,127.5C 178.753,132.061 173.086,136.895 167.5,142C 160.125,144.367 154.125,148.701 149.5,155C 147.283,156.275 144.949,157.275 142.5,158C 137.581,162.104 132.581,165.937 127.5,169.5C 127.5,168.167 127.5,166.833 127.5,165.5C 133.688,161.49 140.021,157.657 146.5,154C 151.315,150.352 155.648,146.185 159.5,141.5C 167.293,138.362 173.96,133.695 179.5,127.5 Z"/></g>
<g><path style="opacity:1" fill="#4506ff" d="M 135.5,127.5 C 148.167,127.5 160.833,127.5 173.5,127.5C 166.207,133.948 158.207,139.448 149.5,144C 146.499,148.167 142.499,150.834 137.5,152C 134.25,155.097 130.917,157.93 127.5,160.5C 127.5,151.833 127.5,143.167 127.5,134.5C 130.784,132.883 133.451,130.55 135.5,127.5 Z"/></g>
<g><path style="opacity:1" fill="#3b6f3c" d="M 45.5,141.5 C 46.8684,145.298 47.8684,149.298 48.5,153.5C 46.3082,149.902 45.3082,145.902 45.5,141.5 Z"/></g>
<g><path style="opacity:1" fill="#356437" d="M 189.5,141.5 C 189.59,144.152 188.924,146.485 187.5,148.5C 187.5,147.833 187.5,147.167 187.5,146.5C 187.833,145.167 188.167,143.833 188.5,142.5C 188.5,141.833 188.833,141.5 189.5,141.5 Z"/></g>
<g><path style="opacity:1" fill="#ff00bf" d="M 190.5,134.5 C 190.326,136.861 189.993,139.194 189.5,141.5C 188.833,141.5 188.5,141.833 188.5,142.5C 180.019,149.91 170.686,156.077 160.5,161C 149.173,168.721 138.173,176.888 127.5,185.5C 127.5,183.5 127.5,181.5 127.5,179.5C 148.596,164.682 169.596,149.682 190.5,134.5 Z"/></g>
<g><path style="opacity:1" fill="#fe00ef" d="M 191.5,132.5 C 191.167,133.167 190.833,133.833 190.5,134.5C 169.596,149.682 148.596,164.682 127.5,179.5C 127.5,178.833 127.5,178.167 127.5,177.5C 139.008,168.486 150.341,159.319 161.5,150C 171.619,144.347 181.619,138.514 191.5,132.5 Z"/></g>
<g><path style="opacity:1" fill="#9c00ff" d="M 173.5,127.5 C 175.5,127.5 177.5,127.5 179.5,127.5C 173.96,133.695 167.293,138.362 159.5,141.5C 155.648,146.185 151.315,150.352 146.5,154C 140.021,157.657 133.688,161.49 127.5,165.5C 127.5,163.833 127.5,162.167 127.5,160.5C 130.917,157.93 134.25,155.097 137.5,152C 142.499,150.834 146.499,148.167 149.5,144C 158.207,139.448 166.207,133.948 173.5,127.5 Z"/></g>
<g><path style="opacity:1" fill="#39713b" d="M 207.5,146.5 C 207.41,150.214 206.41,153.548 204.5,156.5C 204.899,152.884 205.899,149.55 207.5,146.5 Z"/></g>
<g><path style="opacity:1" fill="#e600fe" d="M 184.5,127.5 C 186.833,127.5 189.167,127.5 191.5,127.5C 191.5,128.833 191.5,130.167 191.5,131.5C 191.5,131.833 191.5,132.167 191.5,132.5C 181.619,138.514 171.619,144.347 161.5,150C 150.341,159.319 139.008,168.486 127.5,177.5C 127.5,174.833 127.5,172.167 127.5,169.5C 132.581,165.937 137.581,162.104 142.5,158C 144.949,157.275 147.283,156.275 149.5,155C 154.125,148.701 160.125,144.367 167.5,142C 173.086,136.895 178.753,132.061 184.5,127.5 Z"/></g>
<g><path style="opacity:1" fill="#ff006b" d="M 187.5,146.5 C 187.5,147.167 187.5,147.833 187.5,148.5C 186.323,150.679 185.323,153.013 184.5,155.5C 179.891,156.926 175.891,159.426 172.5,163C 170.833,163.333 169.167,163.667 167.5,164C 164.158,167.009 161.158,170.343 158.5,174C 148.185,181.161 137.851,188.327 127.5,195.5C 127.5,193.833 127.5,192.167 127.5,190.5C 134.792,185.841 141.792,180.675 148.5,175C 150.167,174.667 151.833,174.333 153.5,174C 158.208,169.657 162.875,165.324 167.5,161C 174.863,157.139 181.53,152.305 187.5,146.5 Z"/></g>
<g><path style="opacity:1" fill="#fe000a" d="M 181.5,161.5 C 170.241,184.093 152.907,200.093 129.5,209.5C 127.598,206.663 126.931,203.329 127.5,199.5C 136.72,191.814 146.72,185.314 157.5,180C 164.58,172.628 172.58,166.461 181.5,161.5 Z"/></g>
<g><path style="opacity:0.004" fill="#00ff00" d="M 7.5,173.5 C 8.83333,174.167 8.83333,174.167 7.5,173.5 Z"/></g>
<g><path style="opacity:0.004" fill="#00ff00" d="M 245.5,173.5 C 246.833,174.167 246.833,174.167 245.5,173.5 Z"/></g>
<g><path style="opacity:1" fill="#ff0044" d="M 184.5,155.5 C 183.123,157.289 182.123,159.289 181.5,161.5C 172.58,166.461 164.58,172.628 157.5,180C 146.72,185.314 136.72,191.814 127.5,199.5C 127.5,198.167 127.5,196.833 127.5,195.5C 137.851,188.327 148.185,181.161 158.5,174C 161.158,170.343 164.158,167.009 167.5,164C 169.167,163.667 170.833,163.333 172.5,163C 175.891,159.426 179.891,156.926 184.5,155.5 Z"/></g>
<g><path style="opacity:0.004" fill="#00ff00" d="M 10.5,180.5 C 11.8333,181.167 11.8333,181.167 10.5,180.5 Z"/></g>
<g><path style="opacity:0.004" fill="#00ff00" d="M 242.5,180.5 C 243.833,181.167 243.833,181.167 242.5,180.5 Z"/></g>
<g><path style="opacity:1" fill="#ff0090" d="M 188.5,142.5 C 188.167,143.833 187.833,145.167 187.5,146.5C 181.53,152.305 174.863,157.139 167.5,161C 162.875,165.324 158.208,169.657 153.5,174C 151.833,174.333 150.167,174.667 148.5,175C 141.792,180.675 134.792,185.841 127.5,190.5C 127.5,188.833 127.5,187.167 127.5,185.5C 138.173,176.888 149.173,168.721 160.5,161C 170.686,156.077 180.019,149.91 188.5,142.5 Z"/></g>
<g><path style="opacity:0.004" fill="#00ff00" d="M 241.5,182.5 C 242.833,183.167 242.833,183.167 241.5,182.5 Z"/></g>
<g><path style="opacity:0.008" fill="#00ff00" d="M 33.5,214.5 C 34.8333,215.167 34.8333,215.167 33.5,214.5 Z"/></g>
<g><path style="opacity:0.004" fill="#00ff00" d="M 50.5,229.5 C 51.8333,230.167 51.8333,230.167 50.5,229.5 Z"/></g>
<g><path style="opacity:0.004" fill="#00ff00" d="M 202.5,229.5 C 203.833,230.167 203.833,230.167 202.5,229.5 Z"/></g>
<g><path style="opacity:0.008" fill="#00ff00" d="M 59.5,235.5 C 60.8333,236.167 60.8333,236.167 59.5,235.5 Z"/></g>
<g><path style="opacity:0.004" fill="#00ff00" d="M 193.5,235.5 C 194.833,236.167 194.833,236.167 193.5,235.5 Z"/></g>
<g><path style="opacity:0.004" fill="#00ff00" d="M 64.5,238.5 C 65.8333,239.167 65.8333,239.167 64.5,238.5 Z"/></g>
<g><path style="opacity:0.004" fill="#00ff00" d="M 188.5,238.5 C 189.833,239.167 189.833,239.167 188.5,238.5 Z"/></g>
<g><path style="opacity:0.004" fill="#00ff00" d="M 79.5,245.5 C 80.8333,246.167 80.8333,246.167 79.5,245.5 Z"/></g>
<g><path style="opacity:0.004" fill="#00ff00" d="M 173.5,245.5 C 174.833,246.167 174.833,246.167 173.5,245.5 Z"/></g>
</svg>
