<?xml version="1.0" encoding="UTF-8"?>
<!DOCTYPE svg PUBLIC "-//W3C//DTD SVG 1.1//EN" "http://www.w3.org/Graphics/SVG/1.1/DTD/svg11.dtd">
<svg xmlns="http://www.w3.org/2000/svg" version="1.1" width="256px" height="256px" style="shape-rendering:geometricPrecision; text-rendering:geometricPrecision; image-rendering:optimizeQuality; fill-rule:evenodd; clip-rule:evenodd" xmlns:xlink="http://www.w3.org/1999/xlink">
<g><path style="opacity:0.993" fill="#4bae4f" d="M 111.5,-0.5 C 121.833,-0.5 132.167,-0.5 142.5,-0.5C 205.475,10.9755 242.642,48.3088 254,111.5C 258.309,167.385 236.809,209.885 189.5,239C 147.833,259.667 106.167,259.667 64.5,239C 27.937,216.925 6.2703,184.759 -0.5,142.5C -0.5,132.167 -0.5,121.833 -0.5,111.5C 11.1757,48.491 48.509,11.1576 111.5,-0.5 Z"/></g>
<g><path style="opacity:1" fill="#212121" d="M 146.5,32.5 C 146.973,33.9063 147.973,34.573 149.5,34.5C 153.738,36.314 158.071,37.9807 162.5,39.5C 164.033,41.2451 166.033,42.2451 168.5,42.5C 170.649,43.7362 172.982,44.7362 175.5,45.5C 177.033,47.2451 179.033,48.2451 181.5,48.5C 188.629,52.3998 195.962,55.7332 203.5,58.5C 205.509,60.0652 207.843,61.0652 210.5,61.5C 210.5,82.5 210.5,103.5 210.5,124.5C 210.167,129.167 209.833,133.833 209.5,138.5C 208.307,138.97 207.64,139.97 207.5,141.5C 207.003,143.818 206.67,146.152 206.5,148.5C 205.085,153.901 203.419,159.234 201.5,164.5C 199.755,166.033 198.755,168.033 198.5,170.5C 197.655,171.671 196.989,173.005 196.5,174.5C 195.094,174.973 194.427,175.973 194.5,177.5C 191.2,182.477 187.867,187.477 184.5,192.5C 182.413,193.585 181.08,195.251 180.5,197.5C 169.897,208.103 157.897,216.77 144.5,223.5C 141.603,224.129 138.936,225.129 136.5,226.5C 130.729,229.901 124.729,230.234 118.5,227.5C 116.383,225.345 113.716,224.345 110.5,224.5C 104.372,221.937 98.7053,218.603 93.5,214.5C 92.4154,212.413 90.7488,211.08 88.5,210.5C 72.737,198.618 61.0703,183.618 53.5,165.5C 53.2451,163.033 52.2451,161.033 50.5,159.5C 47.263,150.493 45.0963,141.16 44,131.5C 43.5,108.169 43.3334,84.8357 43.5,61.5C 47.701,60.7767 51.3676,59.1101 54.5,56.5C 65.8162,51.9406 76.8162,46.9406 87.5,41.5C 90.491,41.8337 92.8243,40.8337 94.5,38.5C 101.787,34.9644 109.12,31.6311 116.5,28.5C 119.577,28.821 121.91,27.821 123.5,25.5C 125.068,24.5269 126.735,24.3603 128.5,25C 134.206,28.1806 140.206,30.6806 146.5,32.5 Z"/></g>
<g><path style="opacity:1" fill="#2e4c2f" d="M 123.5,25.5 C 121.91,27.821 119.577,28.821 116.5,28.5C 118.649,27.2638 120.982,26.2638 123.5,25.5 Z"/></g>
<g><path style="opacity:1" fill="#325b34" d="M 146.5,32.5 C 148.027,32.427 149.027,33.0937 149.5,34.5C 147.973,34.573 146.973,33.9063 146.5,32.5 Z"/></g>
<g><path style="opacity:1" fill="#2f4f30" d="M 94.5,38.5 C 92.8243,40.8337 90.491,41.8337 87.5,41.5C 89.5093,39.9348 91.8427,38.9348 94.5,38.5 Z"/></g>
<g><path style="opacity:1" fill="#3b783d" d="M 162.5,39.5 C 164.967,39.7549 166.967,40.7549 168.5,42.5C 166.033,42.2451 164.033,41.2451 162.5,39.5 Z"/></g>
<g><path style="opacity:1" fill="#3a733c" d="M 124.5,45.5 C 123.341,47.2503 121.674,48.2503 119.5,48.5C 120.486,46.5923 122.152,45.5923 124.5,45.5 Z"/></g>
<g><path style="opacity:1" fill="#4bae4f" d="M 124.5,45.5 C 124.833,45.5 125.167,45.5 125.5,45.5C 126.498,72.3282 126.831,99.3282 126.5,126.5C 105.167,126.5 83.8333,126.5 62.5,126.5C 62.5,108.833 62.5,91.1667 62.5,73.5C 65.7541,73.2064 68.4208,71.873 70.5,69.5C 76.9633,65.9328 83.63,62.9328 90.5,60.5C 93.491,60.8337 95.8243,59.8337 97.5,57.5C 99.5739,56.4861 101.574,55.4861 103.5,54.5C 106.716,54.6545 109.383,53.6545 111.5,51.5C 113.936,50.129 116.603,49.129 119.5,48.5C 121.674,48.2503 123.341,47.2503 124.5,45.5 Z"/></g>
<g><path style="opacity:1" fill="#356737" d="M 125.5,45.5 C 125.56,44.9569 125.893,44.6236 126.5,44.5C 127.5,71.8252 127.833,99.1585 127.5,126.5C 149.167,126.5 170.833,126.5 192.5,126.5C 192.784,128.415 192.451,130.081 191.5,131.5C 191.5,130.167 191.5,128.833 191.5,127.5C 170.167,127.5 148.833,127.5 127.5,127.5C 127.5,155.167 127.5,182.833 127.5,210.5C 126.502,183.005 126.169,155.338 126.5,127.5C 104.66,127.831 82.9936,127.497 61.5,126.5C 61.8333,126.5 62.1667,126.5 62.5,126.5C 83.8333,126.5 105.167,126.5 126.5,126.5C 126.831,99.3282 126.498,72.3282 125.5,45.5 Z"/></g>
<g><path style="opacity:1" fill="#386e3a" d="M 175.5,45.5 C 177.967,45.7549 179.967,46.7549 181.5,48.5C 179.033,48.2451 177.033,47.2451 175.5,45.5 Z"/></g>
<g><path style="opacity:1" fill="#39703b" d="M 111.5,51.5 C 109.383,53.6545 106.716,54.6545 103.5,54.5C 105.936,53.129 108.603,52.129 111.5,51.5 Z"/></g>
<g><path style="opacity:1" fill="#2f5130" d="M 54.5,56.5 C 51.3676,59.1101 47.701,60.7767 43.5,61.5C 46.7093,59.0659 50.376,57.3992 54.5,56.5 Z"/></g>
<g><path style="opacity:1" fill="#3b763d" d="M 97.5,57.5 C 95.8243,59.8337 93.491,60.8337 90.5,60.5C 92.5093,58.9348 94.8427,57.9348 97.5,57.5 Z"/></g>
<g><path style="opacity:1" fill="#3a733c" d="M 203.5,58.5 C 206.491,58.1663 208.824,59.1663 210.5,61.5C 207.843,61.0652 205.509,60.0652 203.5,58.5 Z"/></g>
<g><path style="opacity:1" fill="#3f8342" d="M 210.5,61.5 C 211.832,71.1436 212.499,81.1436 212.5,91.5C 212.333,101.5 212.167,111.5 212,121.5C 211.768,122.737 211.268,123.737 210.5,124.5C 210.5,103.5 210.5,82.5 210.5,61.5 Z"/></g>
<g><path style="opacity:1" fill="#428f45" d="M 70.5,69.5 C 68.4208,71.873 65.7541,73.2064 62.5,73.5C 62.5,91.1667 62.5,108.833 62.5,126.5C 62.1667,126.5 61.8333,126.5 61.5,126.5C 61.1671,108.488 61.5005,90.4877 62.5,72.5C 65.0354,71.1 67.702,70.1 70.5,69.5 Z"/></g>
<g><path style="opacity:1" fill="#4bae4f" d="M 191.5,131.5 C 191.341,135.291 190.675,138.958 189.5,142.5C 187.926,144.102 187.259,146.102 187.5,148.5C 178.794,172.561 163.461,191.227 141.5,204.5C 138.982,205.264 136.649,206.264 134.5,207.5C 132.429,208.945 130.096,209.945 127.5,210.5C 127.5,182.833 127.5,155.167 127.5,127.5C 148.833,127.5 170.167,127.5 191.5,127.5C 191.5,128.833 191.5,130.167 191.5,131.5 Z"/></g>
<g><path style="opacity:1" fill="#2e4d2f" d="M 209.5,138.5 C 208.993,142.083 207.993,145.417 206.5,148.5C 206.67,146.152 207.003,143.818 207.5,141.5C 207.64,139.97 208.307,138.97 209.5,138.5 Z"/></g>
<g><path style="opacity:1" fill="#325a33" d="M 189.5,142.5 C 189.741,144.898 189.074,146.898 187.5,148.5C 187.259,146.102 187.926,144.102 189.5,142.5 Z"/></g>
<g><path style="opacity:1" fill="#346136" d="M 50.5,159.5 C 52.2451,161.033 53.2451,163.033 53.5,165.5C 51.7549,163.967 50.7549,161.967 50.5,159.5 Z"/></g>
<g><path style="opacity:1" fill="#3b763d" d="M 201.5,164.5 C 201.245,166.967 200.245,168.967 198.5,170.5C 198.755,168.033 199.755,166.033 201.5,164.5 Z"/></g>
<g><path style="opacity:1" fill="#366637" d="M 196.5,174.5 C 196.573,176.027 195.906,177.027 194.5,177.5C 194.427,175.973 195.094,174.973 196.5,174.5 Z"/></g>
<g><path style="opacity:1" fill="#3b763d" d="M 184.5,192.5 C 183.92,194.749 182.587,196.415 180.5,197.5C 181.08,195.251 182.413,193.585 184.5,192.5 Z"/></g>
<g><path style="opacity:1" fill="#2f4f30" d="M 141.5,204.5 C 139.91,206.821 137.577,207.821 134.5,207.5C 136.649,206.264 138.982,205.264 141.5,204.5 Z"/></g>
<g><path style="opacity:1" fill="#2e4b2e" d="M 88.5,210.5 C 90.7488,211.08 92.4154,212.413 93.5,214.5C 91.2512,213.92 89.5846,212.587 88.5,210.5 Z"/></g>
<g><path style="opacity:1" fill="#366738" d="M 144.5,223.5 C 142.383,225.655 139.716,226.655 136.5,226.5C 138.936,225.129 141.603,224.129 144.5,223.5 Z"/></g>
<g><path style="opacity:1" fill="#2f4d30" d="M 110.5,224.5 C 113.716,224.345 116.383,225.345 118.5,227.5C 115.603,226.871 112.936,225.871 110.5,224.5 Z"/></g>
</svg>
