<?xml version="1.0" encoding="UTF-8"?>
<!DOCTYPE svg PUBLIC "-//W3C//DTD SVG 1.1//EN" "http://www.w3.org/Graphics/SVG/1.1/DTD/svg11.dtd">
<svg xmlns="http://www.w3.org/2000/svg" version="1.1" width="256px" height="256px" style="shape-rendering:geometricPrecision; text-rendering:geometricPrecision; image-rendering:optimizeQuality; fill-rule:evenodd; clip-rule:evenodd" xmlns:xlink="http://www.w3.org/1999/xlink">
<g><path style="opacity:0.722" fill="#54704c" d="M 132.5,3.5 C 130.5,3.5 128.5,3.5 126.5,3.5C 128.5,0.833333 130.5,0.833333 132.5,3.5 Z"/></g>
<g><path style="opacity:1" fill="#f9f2f1" d="M 126.5,3.5 C 128.5,3.5 130.5,3.5 132.5,3.5C 133.167,3.5 133.833,3.5 134.5,3.5C 136.348,6.93081 139.348,8.59747 143.5,8.5C 145.553,8.40206 147.22,9.06873 148.5,10.5C 149.007,11.8589 150.007,12.8589 151.5,13.5C 155.085,15.129 158.752,16.4623 162.5,17.5C 167.647,19.1053 172.647,21.1053 177.5,23.5C 179.386,26.9478 182.386,28.6144 186.5,28.5C 189.241,28.7073 191.574,29.7073 193.5,31.5C 193.577,32.7498 194.244,33.5831 195.5,34C 199.009,35.7594 202.675,36.926 206.5,37.5C 211.653,39.2479 216.653,41.2479 221.5,43.5C 222.048,46.0838 223.715,47.0838 226.5,46.5C 227.117,46.6107 227.617,46.944 228,47.5C 228.809,77.514 228.476,107.514 227,137.5C 224.956,148.774 221.956,159.774 218,170.5C 217.148,171.571 216.315,172.571 215.5,173.5C 213.707,175.426 212.707,177.759 212.5,180.5C 211.85,180.804 211.183,181.137 210.5,181.5C 209.083,184.877 207.749,188.211 206.5,191.5C 202.158,199.502 196.824,206.836 190.5,213.5C 189.167,214.167 188.167,215.167 187.5,216.5C 187.167,217.5 186.5,218.167 185.5,218.5C 184.167,219.167 183.167,220.167 182.5,221.5C 181.833,222.833 180.833,223.833 179.5,224.5C 177.883,225.038 176.216,225.371 174.5,225.5C 174.5,226.5 174.5,227.5 174.5,228.5C 173.564,229.974 172.23,230.974 170.5,231.5C 167.63,232.433 165.296,234.1 163.5,236.5C 162.833,236.833 162.167,237.167 161.5,237.5C 158.674,237.998 156.34,239.331 154.5,241.5C 153.486,242.674 152.153,243.34 150.5,243.5C 147.759,243.707 145.426,244.707 143.5,246.5C 141.351,247.736 139.018,248.736 136.5,249.5C 135.85,249.196 135.183,248.863 134.5,248.5C 131.713,249.969 129.046,250.636 126.5,250.5C 117.602,248.528 109.268,245.195 101.5,240.5C 100.461,238.469 98.7946,237.136 96.5,236.5C 94.6203,236.771 93.287,236.104 92.5,234.5C 91.7377,232.738 90.4044,231.738 88.5,231.5C 85.8908,230.557 83.8908,228.89 82.5,226.5C 81.4154,224.413 79.7488,223.08 77.5,222.5C 76.8333,222.5 76.5,222.167 76.5,221.5C 75.8333,220.167 74.8333,219.167 73.5,218.5C 72.5,218.167 71.8333,217.5 71.5,216.5C 71.1667,214.167 69.8333,212.833 67.5,212.5C 67.5,211.833 67.1667,211.5 66.5,211.5C 66.573,209.973 65.9063,208.973 64.5,208.5C 56.9735,200.275 50.9735,190.942 46.5,180.5C 46.539,177.911 45.539,175.911 43.5,174.5C 43.5,174.167 43.5,173.833 43.5,173.5C 42.0964,169.25 40.9297,164.917 40,160.5C 39.5017,158.456 38.335,157.122 36.5,156.5C 35.1686,150.172 33.6686,143.839 32,137.5C 30.524,107.514 30.1907,77.514 31,47.5C 31.3826,46.944 31.8826,46.6107 32.5,46.5C 35.491,46.8337 37.8243,45.8337 39.5,43.5C 44.1139,40.36 49.1139,38.0266 54.5,36.5C 57.285,37.0838 58.9517,36.0838 59.5,33.5C 69.0583,29.92 78.3916,25.92 87.5,21.5C 90.2406,21.2927 92.5739,20.2927 94.5,18.5C 102.392,13.7486 110.726,9.74859 119.5,6.5C 122.491,6.83372 124.824,5.83372 126.5,3.5 Z"/></g>
<g><path style="opacity:0.996" fill="#708869" d="M 126.5,3.5 C 124.824,5.83372 122.491,6.83372 119.5,6.5C 121.426,4.70732 123.759,3.70732 126.5,3.5 Z"/></g>
<g><path style="opacity:0.792" fill="#789072" d="M 134.5,3.5 C 137.728,4.94297 140.728,6.60964 143.5,8.5C 139.348,8.59747 136.348,6.93081 134.5,3.5 Z"/></g>
<g><path style="opacity:0.561" fill="#829d7a" d="M 148.5,10.5 C 153.52,12.2434 158.187,14.5767 162.5,17.5C 158.752,16.4623 155.085,15.129 151.5,13.5C 150.007,12.8589 149.007,11.8589 148.5,10.5 Z"/></g>
<g><path style="opacity:0.914" fill="#6f886a" d="M 94.5,18.5 C 92.5739,20.2927 90.2406,21.2927 87.5,21.5C 89.1852,19.1824 91.5185,18.1824 94.5,18.5 Z"/></g>
<g><path style="opacity:0.784" fill="#8ca485" d="M 177.5,23.5 C 180.76,24.7738 183.76,26.4405 186.5,28.5C 182.386,28.6144 179.386,26.9478 177.5,23.5 Z"/></g>
<g><path style="opacity:0.839" fill="#5f8158" d="M 59.5,33.5 C 58.9517,36.0838 57.285,37.0838 54.5,36.5C 55.9649,35.2632 57.6316,34.2632 59.5,33.5 Z"/></g>
<g><path style="opacity:0.925" fill="#889d81" d="M 193.5,31.5 C 198.406,32.4607 202.74,34.4607 206.5,37.5C 202.675,36.926 199.009,35.7594 195.5,34C 194.244,33.5831 193.577,32.7498 193.5,31.5 Z"/></g>
<g><path style="opacity:0.988" fill="#6c8365" d="M 39.5,43.5 C 37.8243,45.8337 35.491,46.8337 32.5,46.5C 34.4261,44.7073 36.7594,43.7073 39.5,43.5 Z"/></g>
<g><path style="opacity:0.729" fill="#5e795b" d="M 221.5,43.5 C 223.368,44.2632 225.035,45.2632 226.5,46.5C 223.715,47.0838 222.048,46.0838 221.5,43.5 Z"/></g>
<g><path style="opacity:1" fill="#cffe00" d="M 127.5,28.5 C 127.56,27.9569 127.893,27.6236 128.5,27.5C 129.496,33.4632 129.829,39.4632 129.5,45.5C 129.167,45.5 128.833,45.5 128.5,45.5C 128.565,45.0618 128.399,44.7284 128,44.5C 119.223,53.0303 110.223,61.3636 101,69.5C 100.293,71.0806 99.4601,72.5806 98.5,74C 83.9404,83.89 71.2738,95.89 60.5,110C 58.2833,111.723 55.95,113.223 53.5,114.5C 53.5,112.5 53.5,110.5 53.5,108.5C 62.5513,99.9509 71.5513,91.1175 80.5,82C 88.9471,78.0536 95.2804,71.8869 99.5,63.5C 108.837,55.2381 118.337,47.2381 128,39.5C 128.497,36.854 128.664,34.1873 128.5,31.5C 128.737,30.209 128.404,29.209 127.5,28.5 Z"/></g>
<g><path style="opacity:1" fill="#afff00" d="M 128.5,45.5 C 128.5,46.8333 128.5,48.1667 128.5,49.5C 115.283,61.3978 101.949,73.2311 88.5,85C 87.1068,86.1711 86.2735,87.6711 86,89.5C 83.583,92.3278 80.7496,94.6611 77.5,96.5C 69.8632,105.471 61.8632,114.138 53.5,122.5C 53.5,119.833 53.5,117.167 53.5,114.5C 55.95,113.223 58.2833,111.723 60.5,110C 71.2738,95.89 83.9404,83.89 98.5,74C 99.4601,72.5806 100.293,71.0806 101,69.5C 110.223,61.3636 119.223,53.0303 128,44.5C 128.399,44.7284 128.565,45.0618 128.5,45.5 Z"/></g>
<g><path style="opacity:1" fill="#fea300" d="M 106.5,38.5 C 104.597,41.7485 102.263,44.7485 99.5,47.5C 93.4282,53.2831 87.2616,58.9498 81,64.5C 80.3333,65.8333 79.6667,67.1667 79,68.5C 70.9324,77.0709 62.4324,85.0709 53.5,92.5C 53.5,90.5 53.5,88.5 53.5,86.5C 58.938,81.5639 64.2714,76.3972 69.5,71C 71.2746,69.5611 73.2746,68.5611 75.5,68C 82.9527,58.5335 90.9527,49.7001 99.5,41.5C 101.509,39.9348 103.843,38.9348 106.5,38.5 Z"/></g>
<g><path style="opacity:1" fill="#feda00" d="M 127.5,28.5 C 127.586,29.4959 127.252,30.3292 126.5,31C 125.167,31.3333 123.833,31.6667 122.5,32C 111.192,45.8927 98.5253,58.726 84.5,70.5C 79.6199,75.5431 74.9532,80.7097 70.5,86C 65.2135,88.9526 60.8802,92.9526 57.5,98C 56.0993,98.4101 54.766,98.9101 53.5,99.5C 53.5,98.5 53.5,97.5 53.5,96.5C 73.2349,77.4513 93.2349,58.618 113.5,40C 115.751,36.9337 118.085,34.1003 120.5,31.5C 122.713,30.2271 125.046,29.2271 127.5,28.5 Z"/></g>
<g><path style="opacity:1" fill="#fd4101" d="M 79.5,50.5 C 79.9382,50.4346 80.2716,50.6012 80.5,51C 72.0345,59.7744 63.0345,67.9411 53.5,75.5C 53.5,71.1667 53.5,66.8333 53.5,62.5C 61.832,58.004 70.4987,54.004 79.5,50.5 Z"/></g>
<g><path style="opacity:1" fill="#fe8301" d="M 99.5,41.5 C 90.9527,49.7001 82.9527,58.5335 75.5,68C 73.2746,68.5611 71.2746,69.5611 69.5,71C 64.2714,76.3972 58.938,81.5639 53.5,86.5C 53.5,85.1667 53.5,83.8333 53.5,82.5C 61.5773,75.2576 69.0773,67.591 76,59.5C 80.6366,55.4403 85.1366,51.2737 89.5,47C 89.2716,46.6012 88.9382,46.4346 88.5,46.5C 91.8016,44.2771 95.4682,42.6105 99.5,41.5 Z"/></g>
<g><path style="opacity:1" fill="#fe6200" d="M 88.5,46.5 C 88.9382,46.4346 89.2716,46.6012 89.5,47C 85.1366,51.2737 80.6366,55.4403 76,59.5C 69.0773,67.591 61.5773,75.2576 53.5,82.5C 53.5,80.1667 53.5,77.8333 53.5,75.5C 63.0345,67.9411 72.0345,59.7744 80.5,51C 80.2716,50.6012 79.9382,50.4346 79.5,50.5C 82.3135,48.9303 85.3135,47.5969 88.5,46.5 Z"/></g>
<g><path style="opacity:1" fill="#febf00" d="M 120.5,31.5 C 118.085,34.1003 115.751,36.9337 113.5,40C 93.2349,58.618 73.2349,77.4513 53.5,96.5C 53.5,95.1667 53.5,93.8333 53.5,92.5C 62.4324,85.0709 70.9324,77.0709 79,68.5C 79.6667,67.1667 80.3333,65.8333 81,64.5C 87.2616,58.9498 93.4282,53.2831 99.5,47.5C 102.263,44.7485 104.597,41.7485 106.5,38.5C 110.702,35.4207 115.368,33.0873 120.5,31.5 Z"/></g>
<g><path style="opacity:1" fill="#f2fe00" d="M 128.5,31.5 C 128.664,34.1873 128.497,36.854 128,39.5C 118.337,47.2381 108.837,55.2381 99.5,63.5C 95.2804,71.8869 88.9471,78.0536 80.5,82C 71.5513,91.1175 62.5513,99.9509 53.5,108.5C 53.5,106.833 53.5,105.167 53.5,103.5C 79.092,80.1877 104.092,56.1877 128.5,31.5 Z"/></g>
<g><path style="opacity:1" fill="#ffee00" d="M 127.5,28.5 C 128.404,29.209 128.737,30.209 128.5,31.5C 104.092,56.1877 79.092,80.1877 53.5,103.5C 53.5,102.167 53.5,100.833 53.5,99.5C 54.766,98.9101 56.0993,98.4101 57.5,98C 60.8802,92.9526 65.2135,88.9526 70.5,86C 74.9532,80.7097 79.6199,75.5431 84.5,70.5C 98.5253,58.726 111.192,45.8927 122.5,32C 123.833,31.6667 125.167,31.3333 126.5,31C 127.252,30.3292 127.586,29.4959 127.5,28.5 Z"/></g>
<g><path style="opacity:1" fill="#8fff00" d="M 128.5,49.5 C 128.5,50.8333 128.5,52.1667 128.5,53.5C 115.092,67.9106 100.759,81.244 85.5,93.5C 81.0052,99.4946 75.8385,104.828 70,109.5C 68.7523,112.579 66.9189,115.246 64.5,117.5C 60.8595,119.475 57.8595,122.142 55.5,125.5C 54.8333,125.5 54.1667,125.5 53.5,125.5C 53.5,124.5 53.5,123.5 53.5,122.5C 61.8632,114.138 69.8632,105.471 77.5,96.5C 80.7496,94.6611 83.583,92.3278 86,89.5C 86.2735,87.6711 87.1068,86.1711 88.5,85C 101.949,73.2311 115.283,61.3978 128.5,49.5 Z"/></g>
<g><path style="opacity:1" fill="#11f940" d="M 128.5,45.5 C 128.833,45.5 129.167,45.5 129.5,45.5C 129.5,59.8333 129.5,74.1667 129.5,88.5C 128.596,89.209 128.263,90.209 128.5,91.5C 115.699,103.312 103.032,114.979 90.5,126.5C 77.9887,126.829 65.6554,126.495 53.5,125.5C 54.1667,125.5 54.8333,125.5 55.5,125.5C 57.8333,125.5 60.1667,125.5 62.5,125.5C 70.1739,125.666 77.8406,125.5 85.5,125C 89.6323,119.863 94.6323,115.863 100.5,113C 108.66,103.174 117.826,94.3411 128,86.5C 128.5,78.8406 128.666,71.1739 128.5,63.5C 128.5,60.1667 128.5,56.8333 128.5,53.5C 128.5,52.1667 128.5,50.8333 128.5,49.5C 128.5,48.1667 128.5,46.8333 128.5,45.5 Z"/></g>
<g><path style="opacity:1" fill="#02fd86" d="M 129.5,88.5 C 129.5,91.5 129.5,94.5 129.5,97.5C 128.54,103.851 124.873,108.018 118.5,110C 116.539,112.963 114.206,115.629 111.5,118C 107.622,121.097 103.622,123.93 99.5,126.5C 97.8333,126.5 96.1667,126.5 94.5,126.5C 96.5681,125.625 98.5681,124.459 100.5,123C 105,118.5 109.5,114 114,109.5C 114.483,108.552 114.649,107.552 114.5,106.5C 115.552,106.649 116.552,106.483 117.5,106C 121,102.5 124.5,99 128,95.5C 128.49,94.2068 128.657,92.8734 128.5,91.5C 128.263,90.209 128.596,89.209 129.5,88.5 Z"/></g>
<g><path style="opacity:1" fill="#6bff00" d="M 128.5,53.5 C 128.5,56.8333 128.5,60.1667 128.5,63.5C 125.86,63.954 123.527,65.1207 121.5,67C 101.843,86.4981 82.1762,105.998 62.5,125.5C 60.1667,125.5 57.8333,125.5 55.5,125.5C 57.8595,122.142 60.8595,119.475 64.5,117.5C 66.9189,115.246 68.7523,112.579 70,109.5C 75.8385,104.828 81.0052,99.4946 85.5,93.5C 100.759,81.244 115.092,67.9106 128.5,53.5 Z"/></g>
<g><path style="opacity:1" fill="#00fe6b" d="M 128.5,91.5 C 128.657,92.8734 128.49,94.2068 128,95.5C 124.5,99 121,102.5 117.5,106C 116.552,106.483 115.552,106.649 114.5,106.5C 114.649,107.552 114.483,108.552 114,109.5C 109.5,114 105,118.5 100.5,123C 98.5681,124.459 96.5681,125.625 94.5,126.5C 93.1667,126.5 91.8333,126.5 90.5,126.5C 103.032,114.979 115.699,103.312 128.5,91.5 Z"/></g>
<g><path style="opacity:1" fill="#24ff0c" d="M 128.5,63.5 C 128.666,71.1739 128.5,78.8406 128,86.5C 117.826,94.3411 108.66,103.174 100.5,113C 94.6323,115.863 89.6323,119.863 85.5,125C 77.8406,125.5 70.1739,125.666 62.5,125.5C 82.1762,105.998 101.843,86.4981 121.5,67C 123.527,65.1207 125.86,63.954 128.5,63.5 Z"/></g>
<g><path style="opacity:1" fill="#03fcab" d="M 129.5,97.5 C 129.5,100.833 129.5,104.167 129.5,107.5C 125.286,109.683 122.453,113.016 121,117.5C 117.286,120.051 114.119,123.051 111.5,126.5C 107.5,126.5 103.5,126.5 99.5,126.5C 103.622,123.93 107.622,121.097 111.5,118C 114.206,115.629 116.539,112.963 118.5,110C 124.873,108.018 128.54,103.851 129.5,97.5 Z"/></g>
<g><path style="opacity:1" fill="#02fdd7" d="M 129.5,107.5 C 129.5,109.167 129.5,110.833 129.5,112.5C 125.118,116.879 121.118,121.545 117.5,126.5C 115.5,126.5 113.5,126.5 111.5,126.5C 114.119,123.051 117.286,120.051 121,117.5C 122.453,113.016 125.286,109.683 129.5,107.5 Z"/></g>
<g><path style="opacity:1" fill="#05f1f1" d="M 129.5,112.5 C 129.5,117.167 129.5,121.833 129.5,126.5C 125.5,126.5 121.5,126.5 117.5,126.5C 121.118,121.545 125.118,116.879 129.5,112.5 Z"/></g>
<g><path style="opacity:1" fill="#088af2" d="M 129.5,126.5 C 133.167,126.5 136.833,126.5 140.5,126.5C 137.748,130.475 134.582,134.142 131,137.5C 130.505,139.473 130.338,141.473 130.5,143.5C 130.5,144.167 130.167,144.5 129.5,144.5C 129.5,138.5 129.5,132.5 129.5,126.5 Z"/></g>
<g><path style="opacity:1" fill="#4446f2" d="M 146.5,126.5 C 148.5,126.5 150.5,126.5 152.5,126.5C 152.611,127.117 152.944,127.617 153.5,128C 146.343,134.989 139.01,141.822 131.5,148.5C 130.504,154.463 130.171,160.463 130.5,166.5C 130.5,169.5 130.5,172.5 130.5,175.5C 130.5,177.167 130.5,178.833 130.5,180.5C 130.5,182.5 130.5,184.5 130.5,186.5C 130.5,189.167 130.5,191.833 130.5,194.5C 130.5,196.167 130.5,197.833 130.5,199.5C 130.5,200.833 130.5,202.167 130.5,203.5C 130.5,204.167 130.5,204.833 130.5,205.5C 130.5,206.167 130.5,206.833 130.5,207.5C 130.167,207.5 129.833,207.5 129.5,207.5C 129.5,186.5 129.5,165.5 129.5,144.5C 130.167,144.5 130.5,144.167 130.5,143.5C 134.356,138.805 138.856,134.805 144,131.5C 145.094,129.922 145.928,128.255 146.5,126.5 Z"/></g>
<g><path style="opacity:1" fill="#b4bdaa" d="M 53.5,62.5 C 53.5,66.8333 53.5,71.1667 53.5,75.5C 53.5,77.8333 53.5,80.1667 53.5,82.5C 53.5,83.8333 53.5,85.1667 53.5,86.5C 53.5,88.5 53.5,90.5 53.5,92.5C 53.5,93.8333 53.5,95.1667 53.5,96.5C 53.5,97.5 53.5,98.5 53.5,99.5C 53.5,100.833 53.5,102.167 53.5,103.5C 53.5,105.167 53.5,106.833 53.5,108.5C 53.5,110.5 53.5,112.5 53.5,114.5C 53.5,117.167 53.5,119.833 53.5,122.5C 53.5,123.5 53.5,124.5 53.5,125.5C 65.6554,126.495 77.9887,126.829 90.5,126.5C 91.8333,126.5 93.1667,126.5 94.5,126.5C 96.1667,126.5 97.8333,126.5 99.5,126.5C 103.5,126.5 107.5,126.5 111.5,126.5C 113.5,126.5 115.5,126.5 117.5,126.5C 121.5,126.5 125.5,126.5 129.5,126.5C 129.5,132.5 129.5,138.5 129.5,144.5C 129.5,165.5 129.5,186.5 129.5,207.5C 129.5,214.167 129.5,220.833 129.5,227.5C 128.502,194.338 128.168,161.004 128.5,127.5C 103.167,127.5 77.8333,127.5 52.5,127.5C 52.1693,105.66 52.5027,83.9936 53.5,62.5 Z"/></g>
<g><path style="opacity:1" fill="#0163ff" d="M 140.5,126.5 C 142.5,126.5 144.5,126.5 146.5,126.5C 145.928,128.255 145.094,129.922 144,131.5C 138.856,134.805 134.356,138.805 130.5,143.5C 130.338,141.473 130.505,139.473 131,137.5C 134.582,134.142 137.748,130.475 140.5,126.5 Z"/></g>
<g><path style="opacity:1" fill="#c800ff" d="M 194.5,126.5 C 195.833,126.5 197.167,126.5 198.5,126.5C 197.212,130.282 194.545,132.449 190.5,133C 188.038,136.136 185.538,139.303 183,142.5C 172.335,151.504 162.335,161.171 153,171.5C 151.936,173.693 150.602,175.693 149,177.5C 142.382,182.807 136.215,188.473 130.5,194.5C 130.5,191.833 130.5,189.167 130.5,186.5C 154.048,168.955 175.381,148.955 194.5,126.5 Z"/></g>
<g><path style="opacity:1" fill="#1d06ff" d="M 152.5,126.5 C 160.5,126.5 168.5,126.5 176.5,126.5C 175.048,127.302 173.382,127.802 171.5,128C 164.968,134.534 158.134,140.701 151,146.5C 150.208,148.587 149.041,150.421 147.5,152C 144.565,154.766 141.232,156.933 137.5,158.5C 135.818,161.816 133.485,164.483 130.5,166.5C 130.171,160.463 130.504,154.463 131.5,148.5C 139.01,141.822 146.343,134.989 153.5,128C 152.944,127.617 152.611,127.117 152.5,126.5 Z"/></g>
<g><path style="opacity:1" fill="#5300ff" d="M 176.5,126.5 C 177.833,126.5 179.167,126.5 180.5,126.5C 179.816,129.028 178.482,131.195 176.5,133C 161.642,147.691 146.309,161.858 130.5,175.5C 130.5,172.5 130.5,169.5 130.5,166.5C 133.485,164.483 135.818,161.816 137.5,158.5C 141.232,156.933 144.565,154.766 147.5,152C 149.041,150.421 150.208,148.587 151,146.5C 158.134,140.701 164.968,134.534 171.5,128C 173.382,127.802 175.048,127.302 176.5,126.5 Z"/></g>
<g><path style="opacity:1" fill="#a800ff" d="M 188.5,126.5 C 190.5,126.5 192.5,126.5 194.5,126.5C 175.381,148.955 154.048,168.955 130.5,186.5C 130.5,184.5 130.5,182.5 130.5,180.5C 138.666,173.169 147,166.002 155.5,159C 157.695,155.872 160.028,152.872 162.5,150C 165.412,148.76 168.079,147.094 170.5,145C 176.675,138.991 182.675,132.825 188.5,126.5 Z"/></g>
<g><path style="opacity:1" fill="#7b00ff" d="M 180.5,126.5 C 183.167,126.5 185.833,126.5 188.5,126.5C 182.675,132.825 176.675,138.991 170.5,145C 168.079,147.094 165.412,148.76 162.5,150C 160.028,152.872 157.695,155.872 155.5,159C 147,166.002 138.666,173.169 130.5,180.5C 130.5,178.833 130.5,177.167 130.5,175.5C 146.309,161.858 161.642,147.691 176.5,133C 178.482,131.195 179.816,129.028 180.5,126.5 Z"/></g>
<g><path style="opacity:1" fill="#8ca384" d="M 36.5,156.5 C 38.335,157.122 39.5017,158.456 40,160.5C 40.9297,164.917 42.0964,169.25 43.5,173.5C 42.6851,172.571 41.8518,171.571 41,170.5C 39.7926,165.712 38.2926,161.045 36.5,156.5 Z"/></g>
<g><path style="opacity:1" fill="#fd0b77" d="M 200.5,150.5 C 198.68,155.479 196.847,160.479 195,165.5C 194.623,166.942 193.79,167.942 192.5,168.5C 189.208,170.458 186.208,172.791 183.5,175.5C 173.405,182.76 164.405,191.26 156.5,201C 147.221,208.277 138.554,216.277 130.5,225C 130.57,225.765 130.903,226.265 131.5,226.5C 131.158,227.338 130.492,227.672 129.5,227.5C 129.5,220.833 129.5,214.167 129.5,207.5C 129.833,207.5 130.167,207.5 130.5,207.5C 130.5,208.167 130.5,208.833 130.5,209.5C 130.5,211.833 130.5,214.167 130.5,216.5C 130.34,218.199 130.506,219.866 131,221.5C 132.793,218.705 134.96,216.205 137.5,214C 145.682,209.164 152.182,202.664 157,194.5C 167.013,186.484 176.347,177.817 185,168.5C 187.224,162.943 190.891,158.61 196,155.5C 195.734,152.099 197.234,150.433 200.5,150.5 Z"/></g>
<g><path style="opacity:1" fill="#ff00b1" d="M 202.5,142.5 C 202.737,143.791 202.404,144.791 201.5,145.5C 196.128,149.706 191.628,154.706 188,160.5C 169.392,179.606 150.226,198.273 130.5,216.5C 130.5,214.167 130.5,211.833 130.5,209.5C 139.56,201.625 148.227,193.292 156.5,184.5C 163.517,181.322 169.183,176.488 173.5,170C 177.993,168.174 181.159,165.007 183,160.5C 189.696,154.634 196.196,148.634 202.5,142.5 Z"/></g>
<g><path style="opacity:1" fill="#ff00ec" d="M 204.5,130.5 C 204.5,131.833 204.5,133.167 204.5,134.5C 180.264,157.718 155.597,181.385 130.5,205.5C 130.5,204.833 130.5,204.167 130.5,203.5C 154.522,178.478 179.189,154.144 204.5,130.5 Z"/></g>
<g><path style="opacity:0.624" fill="#52844f" d="M 43.5,174.5 C 45.539,175.911 46.539,177.911 46.5,180.5C 44.461,179.089 43.461,177.089 43.5,174.5 Z"/></g>
<g><path style="opacity:0.027" fill="#4c8247" d="M 215.5,173.5 C 215.834,176.491 214.834,178.824 212.5,180.5C 212.707,177.759 213.707,175.426 215.5,173.5 Z"/></g>
<g><path style="opacity:1" fill="#ff0094" d="M 201.5,145.5 C 201.371,147.216 201.038,148.883 200.5,150.5C 197.234,150.433 195.734,152.099 196,155.5C 190.891,158.61 187.224,162.943 185,168.5C 176.347,177.817 167.013,186.484 157,194.5C 152.182,202.664 145.682,209.164 137.5,214C 134.96,216.205 132.793,218.705 131,221.5C 130.506,219.866 130.34,218.199 130.5,216.5C 150.226,198.273 169.392,179.606 188,160.5C 191.628,154.706 196.128,149.706 201.5,145.5 Z"/></g>
<g><path style="opacity:1" fill="#e400ff" d="M 198.5,126.5 C 199.833,126.5 201.167,126.5 202.5,126.5C 201.164,128.01 199.997,129.677 199,131.5C 190.908,137.922 183.908,145.256 178,153.5C 162.495,169.51 146.662,184.843 130.5,199.5C 130.5,197.833 130.5,196.167 130.5,194.5C 136.215,188.473 142.382,182.807 149,177.5C 150.602,175.693 151.936,173.693 153,171.5C 162.335,161.171 172.335,151.504 183,142.5C 185.538,139.303 188.038,136.136 190.5,133C 194.545,132.449 197.212,130.282 198.5,126.5 Z"/></g>
<g><path style="opacity:0.184" fill="#8ea486" d="M 212.5,180.5 C 211.258,184.655 209.258,188.322 206.5,191.5C 207.749,188.211 209.083,184.877 210.5,181.5C 211.183,181.137 211.85,180.804 212.5,180.5 Z"/></g>
<g><path style="opacity:1" fill="#ff00d0" d="M 204.5,134.5 C 203.957,137.218 203.291,139.885 202.5,142.5C 196.196,148.634 189.696,154.634 183,160.5C 181.159,165.007 177.993,168.174 173.5,170C 169.183,176.488 163.517,181.322 156.5,184.5C 148.227,193.292 139.56,201.625 130.5,209.5C 130.5,208.833 130.5,208.167 130.5,207.5C 130.5,206.833 130.5,206.167 130.5,205.5C 155.597,181.385 180.264,157.718 204.5,134.5 Z"/></g>
<g><path style="opacity:1" fill="#fb00fc" d="M 202.5,126.5 C 203.5,126.5 204.5,126.5 205.5,126.5C 205.768,128.099 205.434,129.432 204.5,130.5C 179.189,154.144 154.522,178.478 130.5,203.5C 130.5,202.167 130.5,200.833 130.5,199.5C 146.662,184.843 162.495,169.51 178,153.5C 183.908,145.256 190.908,137.922 199,131.5C 199.997,129.677 201.164,128.01 202.5,126.5 Z"/></g>
<g><path style="opacity:1" fill="#fb102e" d="M 188.5,177.5 C 177.7,197.634 162.034,212.634 141.5,222.5C 148.307,215.524 154.973,208.358 161.5,201C 166.621,197.547 171.454,193.714 176,189.5C 178.809,185.39 181.975,181.557 185.5,178C 186.448,177.517 187.448,177.351 188.5,177.5 Z"/></g>
<g><path style="opacity:1" fill="#fe024f" d="M 192.5,168.5 C 191.546,171.706 190.213,174.706 188.5,177.5C 187.448,177.351 186.448,177.517 185.5,178C 181.975,181.557 178.809,185.39 176,189.5C 171.454,193.714 166.621,197.547 161.5,201C 154.973,208.358 148.307,215.524 141.5,222.5C 139.833,223.167 138.167,223.833 136.5,224.5C 146.986,213.435 157.819,202.435 169,191.5C 169.333,190.5 169.667,189.5 170,188.5C 174.966,184.48 179.466,180.147 183.5,175.5C 186.208,172.791 189.208,170.458 192.5,168.5 Z"/></g>
<g><path style="opacity:0.004" fill="#183517" d="M 64.5,208.5 C 65.9063,208.973 66.573,209.973 66.5,211.5C 65.0937,211.027 64.427,210.027 64.5,208.5 Z"/></g>
<g><path style="opacity:0.878" fill="#6c9665" d="M 67.5,212.5 C 69.8333,212.833 71.1667,214.167 71.5,216.5C 69.7356,215.674 68.4023,214.341 67.5,212.5 Z"/></g>
<g><path style="opacity:0.004" fill="#26762a" d="M 190.5,213.5 C 190.5,215.5 189.5,216.5 187.5,216.5C 188.167,215.167 189.167,214.167 190.5,213.5 Z"/></g>
<g><path style="opacity:1" fill="#fe0162" d="M 183.5,175.5 C 179.466,180.147 174.966,184.48 170,188.5C 169.667,189.5 169.333,190.5 169,191.5C 157.819,202.435 146.986,213.435 136.5,224.5C 134.95,225.441 133.284,226.107 131.5,226.5C 130.903,226.265 130.57,225.765 130.5,225C 138.554,216.277 147.221,208.277 156.5,201C 164.405,191.26 173.405,182.76 183.5,175.5 Z"/></g>
<g><path style="opacity:0.012" fill="#347435" d="M 73.5,218.5 C 74.8333,219.167 75.8333,220.167 76.5,221.5C 74.5,221.5 73.5,220.5 73.5,218.5 Z"/></g>
<g><path style="opacity:0.004" fill="#276925" d="M 185.5,218.5 C 185.5,220.5 184.5,221.5 182.5,221.5C 183.167,220.167 184.167,219.167 185.5,218.5 Z"/></g>
<g><path style="opacity:0.62" fill="#455743" d="M 77.5,222.5 C 79.7488,223.08 81.4154,224.413 82.5,226.5C 80.2512,225.92 78.5846,224.587 77.5,222.5 Z"/></g>
<g><path style="opacity:0.027" fill="#5d7b5a" d="M 179.5,224.5 C 178.055,226.063 176.389,227.396 174.5,228.5C 174.5,227.5 174.5,226.5 174.5,225.5C 176.216,225.371 177.883,225.038 179.5,224.5 Z"/></g>
<g><path style="opacity:0.612" fill="#396d31" d="M 88.5,231.5 C 90.4044,231.738 91.7377,232.738 92.5,234.5C 90.5956,234.262 89.2623,233.262 88.5,231.5 Z"/></g>
<g><path style="opacity:0.031" fill="#4e7a49" d="M 170.5,231.5 C 168.704,233.9 166.37,235.567 163.5,236.5C 165.296,234.1 167.63,232.433 170.5,231.5 Z"/></g>
<g><path style="opacity:0.925" fill="#6a8762" d="M 96.5,236.5 C 98.7946,237.136 100.461,238.469 101.5,240.5C 99.246,239.876 97.5794,238.543 96.5,236.5 Z"/></g>
<g><path style="opacity:0.286" fill="#758a6f" d="M 161.5,237.5 C 159.66,239.669 157.326,241.002 154.5,241.5C 156.34,239.331 158.674,237.998 161.5,237.5 Z"/></g>
<g><path style="opacity:0.012" fill="#61885c" d="M 150.5,243.5 C 148.815,245.818 146.481,246.818 143.5,246.5C 145.426,244.707 147.759,243.707 150.5,243.5 Z"/></g>
<g><path style="opacity:0.129" fill="#768c71" d="M 136.5,249.5 C 133.292,251.531 129.959,251.865 126.5,250.5C 129.046,250.636 131.713,249.969 134.5,248.5C 135.183,248.863 135.85,249.196 136.5,249.5 Z"/></g>
</svg>
