<?xml version="1.0" encoding="UTF-8"?>
<!DOCTYPE svg PUBLIC "-//W3C//DTD SVG 1.1//EN" "http://www.w3.org/Graphics/SVG/1.1/DTD/svg11.dtd">
<svg xmlns="http://www.w3.org/2000/svg" version="1.1" width="256px" height="256px" style="shape-rendering:geometricPrecision; text-rendering:geometricPrecision; image-rendering:optimizeQuality; fill-rule:evenodd; clip-rule:evenodd" xmlns:xlink="http://www.w3.org/1999/xlink">
<g><path style="opacity:1" fill="#fcdd80" d="M 91.5,57.5 C 89.5,57.1667 87.5,56.8333 85.5,56.5C 84.1667,56.5 82.8333,56.5 81.5,56.5C 76.8384,57.158 72.8384,59.158 69.5,62.5C 73.3405,56.266 79.0072,53.766 86.5,55C 88.6526,55.0995 90.3192,55.9328 91.5,57.5 Z"/></g>
<g><path style="opacity:1" fill="#ff9202" d="M 81.5,56.5 C 77.2354,60.6379 72.5687,64.3046 67.5,67.5C 67.8333,66.1667 68.1667,64.8333 68.5,63.5C 68.5,62.8333 68.8333,62.5 69.5,62.5C 72.8384,59.158 76.8384,57.158 81.5,56.5 Z"/></g>
<g><path style="opacity:1" fill="#defa00" d="M 81.5,56.5 C 82.8333,56.5 84.1667,56.5 85.5,56.5C 79.392,62.0608 73.0586,67.3941 66.5,72.5C 66.366,70.7085 66.6993,69.0418 67.5,67.5C 72.5687,64.3046 77.2354,60.6379 81.5,56.5 Z"/></g>
<g><path style="opacity:1" fill="#fcdc7f" d="M 98.5,64.5 C 99.7899,65.0577 100.623,66.0577 101,67.5C 101.667,71.5 101.667,75.5 101,79.5C 100.8,81.3197 99.9663,82.653 98.5,83.5C 98.8333,82.1667 99.1667,80.8333 99.5,79.5C 100.038,77.8828 100.371,76.2161 100.5,74.5C 100.5,73.5 100.5,72.5 100.5,71.5C 99.8333,69.1667 99.1667,66.8333 98.5,64.5 Z"/></g>
<g><path style="opacity:1" fill="#56f4db" d="M 91.5,57.5 C 95.1667,58.5 97.5,60.8333 98.5,64.5C 98.1667,64.5 97.8333,64.5 97.5,64.5C 96.2789,63.5354 94.9456,63.702 93.5,65C 89.3068,68.3651 85.3068,71.8651 81.5,75.5C 80.1667,75.1667 78.8333,74.8333 77.5,74.5C 83.3201,70.1788 88.6534,65.3454 93.5,60C 92.6195,59.2917 91.9528,58.4584 91.5,57.5 Z"/></g>
<g><path style="opacity:1" fill="#46ff2e" d="M 85.5,56.5 C 87.5,56.8333 89.5,57.1667 91.5,57.5C 91.9528,58.4584 92.6195,59.2917 93.5,60C 88.6534,65.3454 83.3201,70.1788 77.5,74.5C 74.2327,76.4273 71.2327,78.7606 68.5,81.5C 66.8819,78.8291 66.2153,75.8291 66.5,72.5C 73.0586,67.3941 79.392,62.0608 85.5,56.5 Z"/></g>
<g><path style="opacity:1" fill="#fde398" d="M 68.5,63.5 C 68.1667,64.8333 67.8333,66.1667 67.5,67.5C 66.6993,69.0418 66.366,70.7085 66.5,72.5C 66.2153,75.8291 66.8819,78.8291 68.5,81.5C 69.1667,83.1667 69.8333,84.8333 70.5,86.5C 68.2918,85.1064 66.7918,83.1064 66,80.5C 65.3333,76.1667 65.3333,71.8333 66,67.5C 66.2004,65.6803 67.0337,64.347 68.5,63.5 Z"/></g>
<g><path style="opacity:1" fill="#0aa1ff" d="M 97.5,64.5 C 92.1625,68.1808 87.1625,72.1808 82.5,76.5C 81.8333,76.5 81.5,76.1667 81.5,75.5C 85.3068,71.8651 89.3068,68.3651 93.5,65C 94.9456,63.702 96.2789,63.5354 97.5,64.5 Z"/></g>
<g><path style="opacity:1" fill="#7c878a" d="M 77.5,74.5 C 78.8333,74.8333 80.1667,75.1667 81.5,75.5C 81.5,76.1667 81.8333,76.5 82.5,76.5C 83.8333,79.1667 83.8333,81.8333 82.5,84.5C 79.3307,87.1119 76.1641,87.1119 73,84.5C 71.9614,85.2438 71.4614,86.2438 71.5,87.5C 70.8333,87.5 70.5,87.1667 70.5,86.5C 69.8333,84.8333 69.1667,83.1667 68.5,81.5C 71.2327,78.7606 74.2327,76.4273 77.5,74.5 Z"/></g>
<g><path style="opacity:1" fill="#fbf4f4" d="M 75.5,76.5 C 80.8807,76.4517 82.5474,78.9517 80.5,84C 73.3691,85.2112 71.7024,82.7112 75.5,76.5 Z"/></g>
<g><path style="opacity:1" fill="#4122ff" d="M 97.5,64.5 C 97.8333,64.5 98.1667,64.5 98.5,64.5C 99.1667,66.8333 99.8333,69.1667 100.5,71.5C 94.2153,75.4532 88.2153,79.7865 82.5,84.5C 83.8333,81.8333 83.8333,79.1667 82.5,76.5C 87.1625,72.1808 92.1625,68.1808 97.5,64.5 Z"/></g>
<g><path style="opacity:1" fill="#ce11f9" d="M 100.5,71.5 C 100.5,72.5 100.5,73.5 100.5,74.5C 93.1613,79.848 86.1613,85.5147 79.5,91.5C 79.1667,91.5 78.8333,91.5 78.5,91.5C 77.5084,91.6716 76.8417,91.3382 76.5,90.5C 75.1007,89.1103 73.4341,88.1103 71.5,87.5C 71.4614,86.2438 71.9614,85.2438 73,84.5C 76.1641,87.1119 79.3307,87.1119 82.5,84.5C 88.2153,79.7865 94.2153,75.4532 100.5,71.5 Z"/></g>
<g><path style="opacity:1" fill="#ff4332" d="M 99.5,79.5 C 99.1667,80.8333 98.8333,82.1667 98.5,83.5C 95.3265,86.9129 91.6598,89.5795 87.5,91.5C 84.5,92.8333 81.5,92.8333 78.5,91.5C 78.8333,91.5 79.1667,91.5 79.5,91.5C 81.1992,91.6602 82.8659,91.4935 84.5,91C 89.1998,86.6643 94.1998,82.831 99.5,79.5 Z"/></g>
<g><path style="opacity:1" fill="#fce08f" d="M 71.5,87.5 C 73.4341,88.1103 75.1007,89.1103 76.5,90.5C 74.0672,90.7271 72.4006,89.7271 71.5,87.5 Z"/></g>
<g><path style="opacity:1" fill="#fffe8d" d="M 100.5,74.5 C 100.371,76.2161 100.038,77.8828 99.5,79.5C 94.1998,82.831 89.1998,86.6643 84.5,91C 82.8659,91.4935 81.1992,91.6602 79.5,91.5C 86.1613,85.5147 93.1613,79.848 100.5,74.5 Z"/></g>
<g><path style="opacity:0.938" fill="#f6edeb" d="M 113.5,101.5 C 119.987,102.328 126.654,102.828 133.5,103C 134.337,104.011 134.67,105.178 134.5,106.5C 127.052,105.892 119.885,106.559 113,108.5C 112.046,124.567 112.379,140.567 114,156.5C 118.828,160.832 124.995,162.832 132.5,162.5C 132.176,159.32 133.51,158.153 136.5,159C 139.58,160.711 140.746,163.211 140,166.5C 134.477,169.393 128.643,171.393 122.5,172.5C 112.911,169.582 107.244,163.249 105.5,153.5C 105.692,151.423 106.192,149.423 107,147.5C 107.333,127.5 107.667,107.5 108,87.5C 109.356,86.6198 110.856,86.2865 112.5,86.5C 112.179,91.6946 112.513,96.6946 113.5,101.5 Z"/></g>
<g><path style="opacity:1" fill="#fde191" d="M 98.5,83.5 C 96.4987,88.3443 92.8321,91.011 87.5,91.5C 91.6598,89.5795 95.3265,86.9129 98.5,83.5 Z"/></g>
<g><path style="opacity:0.752" fill="#f5ebe6" d="M 197.5,98.5 C 200.85,98.335 204.183,98.5017 207.5,99C 208.554,100.388 208.72,101.888 208,103.5C 205.604,105.67 203.27,108.003 201,110.5C 198.744,115.092 195.411,118.759 191,121.5C 188.558,124.048 186.892,127.048 186,130.5C 182.518,132.077 179.852,131.077 178,127.5C 177.853,123.274 179.853,120.274 184,118.5C 188.733,111.944 193.233,105.277 197.5,98.5 Z"/></g>
<g><path style="opacity:0.735" fill="#f9f1f0" d="M 73.5,100.5 C 75.8273,100.247 77.8273,100.914 79.5,102.5C 80.1667,127.5 80.8333,152.5 81.5,177.5C 82.086,177.709 82.586,178.043 83,178.5C 84.2357,186.276 81.4024,192.109 74.5,196C 63.9002,198.151 54.2336,196.151 45.5,190C 44.1667,188.333 44.1667,186.667 45.5,185C 47.6013,183.895 49.6013,182.729 51.5,181.5C 55.3619,183.845 59.5285,185.511 64,186.5C 67.7764,184.767 70.7764,182.101 73,178.5C 73.0687,152.722 73.2353,126.722 73.5,100.5 Z"/></g>
<g><path style="opacity:0.663" fill="#d3a81e" d="M 113.5,100.5 C 114.833,101.167 114.833,101.167 113.5,100.5 Z"/></g>
<g><path style="opacity:1" fill="#f3e7e1" d="M 148.5,99.5 C 150.39,99.2965 151.89,99.9632 153,101.5C 154.049,100.483 155.216,100.316 156.5,101C 161.563,109.398 167.396,117.231 174,124.5C 173.38,133.706 170.046,134.706 164,127.5C 158.914,119.273 152.914,111.94 146,105.5C 145.034,102.66 145.867,100.66 148.5,99.5 Z"/></g>
<g><path style="opacity:0.302" fill="#cea31e" d="M 133.5,108.5 C 133.897,107.475 134.563,107.308 135.5,108C 134.906,108.464 134.239,108.631 133.5,108.5 Z"/></g>
<g><path style="opacity:0.589" fill="#faf2f1" d="M 181.5,137.5 C 185.503,137.971 188.669,139.971 191,143.5C 193.636,147.479 196.303,151.479 199,155.5C 202.757,158.586 205.757,162.252 208,166.5C 208.72,168.112 208.554,169.612 207.5,171C 204.5,171.667 201.5,171.667 198.5,171C 191.667,162.833 184.833,154.667 178,146.5C 177.333,145.167 177.333,143.833 178,142.5C 179.669,141.154 180.836,139.487 181.5,137.5 Z"/></g>
<g><path style="opacity:1" fill="#f2e8e3" d="M 167.5,138.5 C 172.734,138.623 174.901,141.29 174,146.5C 167.367,153.108 161.7,160.441 157,168.5C 152.924,172.034 148.591,172.367 144,169.5C 143.712,164.945 145.879,162.279 150.5,161.5C 149.483,157.211 151.15,154.878 155.5,154.5C 159.509,149.137 163.509,143.804 167.5,138.5 Z"/></g>
</svg>
