<?xml version="1.0" encoding="UTF-8"?>
<!DOCTYPE svg PUBLIC "-//W3C//DTD SVG 1.1//EN" "http://www.w3.org/Graphics/SVG/1.1/DTD/svg11.dtd">
<svg xmlns="http://www.w3.org/2000/svg" version="1.1" width="256px" height="256px" style="shape-rendering:geometricPrecision; text-rendering:geometricPrecision; image-rendering:optimizeQuality; fill-rule:evenodd; clip-rule:evenodd" xmlns:xlink="http://www.w3.org/1999/xlink">
<g><path style="opacity:0.004" fill="#00fffe" d="M 104.5,0.5 C 105.833,1.16667 105.833,1.16667 104.5,0.5 Z"/></g>
<g><path style="opacity:0.008" fill="#00a9ff" d="M 95.5,2.5 C 96.8333,3.16667 96.8333,3.16667 95.5,2.5 Z"/></g>
<g><path style="opacity:0.008" fill="#00a9ff" d="M 91.5,3.5 C 92.8333,4.16667 92.8333,4.16667 91.5,3.5 Z"/></g>
<g><path style="opacity:0.008" fill="#00a9ff" d="M 87.5,4.5 C 88.8333,5.16667 88.8333,5.16667 87.5,4.5 Z"/></g>
<g><path style="opacity:0.004" fill="#00fffe" d="M 164.5,4.5 C 165.833,5.16667 165.833,5.16667 164.5,4.5 Z"/></g>
<g><path style="opacity:0.004" fill="#007fff" d="M 167.5,5.5 C 168.833,6.16667 168.833,6.16667 167.5,5.5 Z"/></g>
<g><path style="opacity:0.004" fill="#007fff" d="M 170.5,6.5 C 171.833,7.16667 171.833,7.16667 170.5,6.5 Z"/></g>
<g><path style="opacity:0.012" fill="#007fff" d="M 79.5,7.5 C 80.8333,8.16667 80.8333,8.16667 79.5,7.5 Z"/></g>
<g><path style="opacity:0.004" fill="#007fff" d="M 173.5,7.5 C 174.833,8.16667 174.833,8.16667 173.5,7.5 Z"/></g>
<g><path style="opacity:0.004" fill="#007fff" d="M 176.5,8.5 C 177.833,9.16667 177.833,9.16667 176.5,8.5 Z"/></g>
<g><path style="opacity:0.004" fill="#007fff" d="M 70.5,11.5 C 71.8333,12.1667 71.8333,12.1667 70.5,11.5 Z"/></g>
<g><path style="opacity:0.008" fill="#00a9ff" d="M 182.5,11.5 C 183.833,12.1667 183.833,12.1667 182.5,11.5 Z"/></g>
<g><path style="opacity:0.016" fill="#0098ff" d="M 68.5,12.5 C 69.8333,13.1667 69.8333,13.1667 68.5,12.5 Z"/></g>
<g><path style="opacity:0.012" fill="#007fff" d="M 188.5,14.5 C 189.833,15.1667 189.833,15.1667 188.5,14.5 Z"/></g>
<g><path style="opacity:0.004" fill="#00fffe" d="M 59.5,17.5 C 60.8333,18.1667 60.8333,18.1667 59.5,17.5 Z"/></g>
<g><path style="opacity:0.012" fill="#007fff" d="M 193.5,17.5 C 194.833,18.1667 194.833,18.1667 193.5,17.5 Z"/></g>
<g><path style="opacity:0.004" fill="#007fff" d="M 54.5,20.5 C 55.8333,21.1667 55.8333,21.1667 54.5,20.5 Z"/></g>
<g><path style="opacity:0.004" fill="#00fffe" d="M 202.5,23.5 C 203.833,24.1667 203.833,24.1667 202.5,23.5 Z"/></g>
<g><path style="opacity:0.004" fill="#00fffe" d="M 46.5,26.5 C 47.8333,27.1667 47.8333,27.1667 46.5,26.5 Z"/></g>
<g><path style="opacity:0.008" fill="#00a9ff" d="M 206.5,26.5 C 207.833,27.1667 207.833,27.1667 206.5,26.5 Z"/></g>
<g><path style="opacity:0.004" fill="#00fffe" d="M 38.5,33.5 C 39.8333,34.1667 39.8333,34.1667 38.5,33.5 Z"/></g>
<g><path style="opacity:0.008" fill="#00a9ff" d="M 214.5,33.5 C 215.833,34.1667 215.833,34.1667 214.5,33.5 Z"/></g>
<g><path style="opacity:0.012" fill="#007fff" d="M 219.5,38.5 C 218.833,37.1667 218.833,37.1667 219.5,38.5 Z"/></g>
<g><path style="opacity:0.004" fill="#007fff" d="M 33.5,38.5 C 34.8333,39.1667 34.8333,39.1667 33.5,38.5 Z"/></g>
<g><path style="opacity:0.004" fill="#007fff" d="M 219.5,38.5 C 220.833,39.1667 220.833,39.1667 219.5,38.5 Z"/></g>
<g><path style="opacity:1" fill="#9aceed" d="M 148.5,50.5 C 146.5,49.8333 144.5,49.1667 142.5,48.5C 141.329,47.6554 139.995,46.9887 138.5,46.5C 137.833,46.5 137.167,46.5 136.5,46.5C 133.236,45.6758 129.902,45.3424 126.5,45.5C 119.134,45.772 112.134,47.4387 105.5,50.5C 105.369,49.6236 105.702,48.9569 106.5,48.5C 119.789,43.4016 133.123,43.2349 146.5,48C 147.381,48.7083 148.047,49.5416 148.5,50.5 Z"/></g>
<g><path style="opacity:1" fill="#fe0101" d="M 126.5,45.5 C 115.05,54.3986 103.383,63.0653 91.5,71.5C 93.7829,62.8886 98.4495,55.8886 105.5,50.5C 112.134,47.4387 119.134,45.772 126.5,45.5 Z"/></g>
<g><path style="opacity:0.004" fill="#007fff" d="M 226.5,46.5 C 227.833,47.1667 227.833,47.1667 226.5,46.5 Z"/></g>
<g><path style="opacity:0.004" fill="#007fff" d="M 23.5,50.5 C 24.8333,51.1667 24.8333,51.1667 23.5,50.5 Z"/></g>
<g><path style="opacity:0.004" fill="#007fff" d="M 229.5,50.5 C 230.833,51.1667 230.833,51.1667 229.5,50.5 Z"/></g>
<g><path style="opacity:1" fill="#ff2800" d="M 126.5,45.5 C 129.902,45.3424 133.236,45.6758 136.5,46.5C 135.375,48.1288 134.041,49.6288 132.5,51C 127.833,53.6667 123.167,56.3333 118.5,59C 114.113,62.544 110.113,66.544 106.5,71C 101.489,74.5283 96.1555,77.3616 90.5,79.5C 90.4013,76.7628 90.7347,74.0961 91.5,71.5C 103.383,63.0653 115.05,54.3986 126.5,45.5 Z"/></g>
<g><path style="opacity:0.008" fill="#00a9ff" d="M 235.5,59.5 C 236.833,60.1667 236.833,60.1667 235.5,59.5 Z"/></g>
<g><path style="opacity:1" fill="#86c5e9" d="M 148.5,51.5 C 148.5,51.1667 148.5,50.8333 148.5,50.5C 152.332,51.8184 155.499,54.1517 158,57.5C 165.557,70.7416 167.224,84.7416 163,99.5C 162.8,101.32 161.966,102.653 160.5,103.5C 160.629,101.784 160.962,100.117 161.5,98.5C 162.234,97.2921 162.567,95.9587 162.5,94.5C 163.344,90.9009 163.677,87.2343 163.5,83.5C 163.5,81.5 163.5,79.5 163.5,77.5C 162.962,75.8828 162.629,74.2161 162.5,72.5C 162.567,71.0413 162.234,69.7079 161.5,68.5C 161.34,66.847 160.674,65.5137 159.5,64.5C 159.34,62.847 158.674,61.5137 157.5,60.5C 157.5,59.8333 157.167,59.5 156.5,59.5C 156.573,57.9731 155.906,56.9731 154.5,56.5C 154.167,55.5 153.5,54.8333 152.5,54.5C 152.158,53.6618 151.492,53.3284 150.5,53.5C 150.167,52.5 149.5,51.8333 148.5,51.5 Z"/></g>
<g><path style="opacity:0.012" fill="#007fff" d="M 13.5,66.5 C 14.8333,67.1667 14.8333,67.1667 13.5,66.5 Z"/></g>
<g><path style="opacity:1" fill="#ff5700" d="M 136.5,46.5 C 137.167,46.5 137.833,46.5 138.5,46.5C 136.115,49.8704 133.448,53.0371 130.5,56C 122.014,59.8942 114.681,65.2275 108.5,72C 102.599,75.4121 96.5991,78.5787 90.5,81.5C 90.5,80.8333 90.5,80.1667 90.5,79.5C 96.1555,77.3616 101.489,74.5283 106.5,71C 110.113,66.544 114.113,62.544 118.5,59C 123.167,56.3333 127.833,53.6667 132.5,51C 134.041,49.6288 135.375,48.1288 136.5,46.5 Z"/></g>
<g><path style="opacity:0.012" fill="#007fff" d="M 12.5,68.5 C 13.8333,69.1667 13.8333,69.1667 12.5,68.5 Z"/></g>
<g><path style="opacity:0.012" fill="#007fff" d="M 240.5,68.5 C 241.833,69.1667 241.833,69.1667 240.5,68.5 Z"/></g>
<g><path style="opacity:0.004" fill="#00fffe" d="M 11.5,70.5 C 12.8333,71.1667 12.8333,71.1667 11.5,70.5 Z"/></g>
<g><path style="opacity:1" fill="#ff7300" d="M 138.5,46.5 C 139.995,46.9887 141.329,47.6554 142.5,48.5C 142.631,49.2389 142.464,49.9056 142,50.5C 138.412,51.9218 135.579,54.2552 133.5,57.5C 130.381,58.792 127.381,60.292 124.5,62C 122.804,64.9823 120.137,66.3156 116.5,66C 113.904,68.7973 111.571,71.7973 109.5,75C 103.398,79.3771 97.0642,83.2104 90.5,86.5C 90.5,84.8333 90.5,83.1667 90.5,81.5C 96.5991,78.5787 102.599,75.4121 108.5,72C 114.681,65.2275 122.014,59.8942 130.5,56C 133.448,53.0371 136.115,49.8704 138.5,46.5 Z"/></g>
<g><path style="opacity:1" fill="#b7ff00" d="M 157.5,60.5 C 158.674,61.5137 159.34,62.847 159.5,64.5C 147.465,72.5151 135.799,81.0151 124.5,90C 114.442,94.352 105.442,100.185 97.5,107.5C 96.6618,107.158 96.3284,106.492 96.5,105.5C 103.17,98.6709 110.837,93.1709 119.5,89C 123.18,83.8263 128.18,80.8263 134.5,80C 137.734,76.8554 140.734,73.5221 143.5,70C 149.581,68.7239 154.248,65.5573 157.5,60.5 Z"/></g>
<g><path style="opacity:0.004" fill="#00fffe" d="M 241.5,70.5 C 242.833,71.1667 242.833,71.1667 241.5,70.5 Z"/></g>
<g><path style="opacity:1" fill="#ff9300" d="M 142.5,48.5 C 144.5,49.1667 146.5,49.8333 148.5,50.5C 148.5,50.8333 148.5,51.1667 148.5,51.5C 146.704,52.7927 145.037,54.2927 143.5,56C 137.105,57.7468 131.771,61.0801 127.5,66C 119.199,69.7413 111.866,74.7413 105.5,81C 100.721,84.1476 96.0544,87.3142 91.5,90.5C 90.5655,89.4324 90.2322,88.099 90.5,86.5C 97.0642,83.2104 103.398,79.3771 109.5,75C 111.571,71.7973 113.904,68.7973 116.5,66C 120.137,66.3156 122.804,64.9823 124.5,62C 127.381,60.292 130.381,58.792 133.5,57.5C 135.579,54.2552 138.412,51.9218 142,50.5C 142.464,49.9056 142.631,49.2389 142.5,48.5 Z"/></g>
<g><path style="opacity:0.004" fill="#00fffe" d="M 242.5,72.5 C 243.833,73.1667 243.833,73.1667 242.5,72.5 Z"/></g>
<g><path style="opacity:1" fill="#82c3e9" d="M 105.5,50.5 C 98.4495,55.8886 93.7829,62.8886 91.5,71.5C 90.7347,74.0961 90.4013,76.7628 90.5,79.5C 90.5,80.1667 90.5,80.8333 90.5,81.5C 90.5,83.1667 90.5,84.8333 90.5,86.5C 90.2322,88.099 90.5655,89.4324 91.5,90.5C 91.5,91.8333 91.5,93.1667 91.5,94.5C 91.5569,95.609 91.8902,96.609 92.5,97.5C 92.5,98.5 92.5,99.5 92.5,100.5C 85.0152,82.4219 88.0152,66.2553 101.5,52C 102.745,51.2086 104.078,50.7086 105.5,50.5 Z"/></g>
<g><path style="opacity:1" fill="#ffb200" d="M 148.5,51.5 C 149.5,51.8333 150.167,52.5 150.5,53.5C 146.489,56.5073 142.155,59.0073 137.5,61C 136.072,63.1847 134.405,65.1847 132.5,67C 118.446,75.6469 104.78,84.8136 91.5,94.5C 91.5,93.1667 91.5,91.8333 91.5,90.5C 96.0544,87.3142 100.721,84.1476 105.5,81C 111.866,74.7413 119.199,69.7413 127.5,66C 131.771,61.0801 137.105,57.7468 143.5,56C 145.037,54.2927 146.704,52.7927 148.5,51.5 Z"/></g>
<g><path style="opacity:1" fill="#d6ff00" d="M 156.5,59.5 C 157.167,59.5 157.5,59.8333 157.5,60.5C 154.248,65.5573 149.581,68.7239 143.5,70C 140.734,73.5221 137.734,76.8554 134.5,80C 128.18,80.8263 123.18,83.8263 119.5,89C 110.837,93.1709 103.17,98.6709 96.5,105.5C 95.5987,104.71 94.9321,103.71 94.5,102.5C 102.087,97.5772 109.753,92.7439 117.5,88C 118.453,86.0448 119.787,84.3782 121.5,83C 125.909,79.9662 130.576,77.2995 135.5,75C 136.833,73.3333 138.167,71.6667 139.5,70C 145.437,66.9624 151.103,63.4624 156.5,59.5 Z"/></g>
<g><path style="opacity:0.004" fill="#00fffe" d="M 245.5,79.5 C 246.833,80.1667 246.833,80.1667 245.5,79.5 Z"/></g>
<g><path style="opacity:1" fill="#ffd100" d="M 150.5,53.5 C 151.492,53.3284 152.158,53.6618 152.5,54.5C 149.335,55.7528 147.002,57.9195 145.5,61C 137.217,65.4305 129.55,70.7639 122.5,77C 117.844,77.6341 114.177,79.9674 111.5,84C 106.551,84.9683 102.884,87.635 100.5,92C 97.4027,93.2734 94.7361,95.1067 92.5,97.5C 91.8902,96.609 91.5569,95.609 91.5,94.5C 104.78,84.8136 118.446,75.6469 132.5,67C 134.405,65.1847 136.072,63.1847 137.5,61C 142.155,59.0073 146.489,56.5073 150.5,53.5 Z"/></g>
<g><path style="opacity:0.004" fill="#00fffe" d="M 248.5,87.5 C 249.833,88.1667 249.833,88.1667 248.5,87.5 Z"/></g>
<g><path style="opacity:1" fill="#ffea00" d="M 152.5,54.5 C 153.5,54.8333 154.167,55.5 154.5,56.5C 149.095,59.4019 144.429,63.2353 140.5,68C 132.567,71.6385 125.234,76.3051 118.5,82C 117.167,82.3333 115.833,82.6667 114.5,83C 107.878,89.3075 100.878,95.1408 93.5,100.5C 93.1667,100.5 92.8333,100.5 92.5,100.5C 92.5,99.5 92.5,98.5 92.5,97.5C 94.7361,95.1067 97.4027,93.2734 100.5,92C 102.884,87.635 106.551,84.9683 111.5,84C 114.177,79.9674 117.844,77.6341 122.5,77C 129.55,70.7639 137.217,65.4305 145.5,61C 147.002,57.9195 149.335,55.7528 152.5,54.5 Z"/></g>
<g><path style="opacity:1" fill="#f3fe00" d="M 154.5,56.5 C 155.906,56.9731 156.573,57.9731 156.5,59.5C 151.103,63.4624 145.437,66.9624 139.5,70C 138.167,71.6667 136.833,73.3333 135.5,75C 130.576,77.2995 125.909,79.9662 121.5,83C 119.787,84.3782 118.453,86.0448 117.5,88C 109.753,92.7439 102.087,97.5772 94.5,102.5C 94.1667,101.833 93.8333,101.167 93.5,100.5C 100.878,95.1408 107.878,89.3075 114.5,83C 115.833,82.6667 117.167,82.3333 118.5,82C 125.234,76.3051 132.567,71.6385 140.5,68C 144.429,63.2353 149.095,59.4019 154.5,56.5 Z"/></g>
<g><path style="opacity:0.004" fill="#007fff" d="M 249.5,91.5 C 250.833,92.1667 250.833,92.1667 249.5,91.5 Z"/></g>
<g><path style="opacity:1" fill="#6aff00" d="M 161.5,68.5 C 162.234,69.7079 162.567,71.0413 162.5,72.5C 153.301,76.4206 145.634,82.254 139.5,90C 135.334,92.9175 131.001,95.5841 126.5,98C 118.934,104.41 111.268,110.577 103.5,116.5C 102.527,114.861 101.194,113.527 99.5,112.5C 99.5,111.833 99.5,111.167 99.5,110.5C 105.856,107.316 111.523,103.149 116.5,98C 120.869,95.6609 125.202,93.3276 129.5,91C 133.308,85.9996 137.641,81.6663 142.5,78C 149.388,75.9464 155.721,72.7797 161.5,68.5 Z"/></g>
<g><path style="opacity:1" fill="#9cff02" d="M 159.5,64.5 C 160.674,65.5137 161.34,66.847 161.5,68.5C 155.721,72.7797 149.388,75.9464 142.5,78C 137.641,81.6663 133.308,85.9996 129.5,91C 125.202,93.3276 120.869,95.6609 116.5,98C 111.523,103.149 105.856,107.316 99.5,110.5C 98.0937,110.027 97.427,109.027 97.5,107.5C 105.442,100.185 114.442,94.352 124.5,90C 135.799,81.0151 147.465,72.5151 159.5,64.5 Z"/></g>
<g><path style="opacity:0.008" fill="#00a9ff" d="M 0.5,104.5 C 1.83333,105.167 1.83333,105.167 0.5,104.5 Z"/></g>
<g><path style="opacity:1" fill="#0dff01" d="M 163.5,77.5 C 163.5,79.5 163.5,81.5 163.5,83.5C 160.383,84.782 158.05,86.9487 156.5,90C 148.027,94.1345 140.36,99.4678 133.5,106C 126.686,109.991 120.019,114.158 113.5,118.5C 113.908,117.357 114.575,116.357 115.5,115.5C 118.699,113.136 122.032,110.97 125.5,109C 127.926,105.484 130.593,102.151 133.5,99C 138.36,94.759 143.693,91.0923 149.5,88C 153.294,83.2767 157.96,79.7767 163.5,77.5 Z"/></g>
<g><path style="opacity:1" fill="#8ec7e6" d="M 92.5,100.5 C 92.8333,100.5 93.1667,100.5 93.5,100.5C 93.8333,101.167 94.1667,101.833 94.5,102.5C 94.9321,103.71 95.5987,104.71 96.5,105.5C 96.3284,106.492 96.6618,107.158 97.5,107.5C 97.427,109.027 98.0937,110.027 99.5,110.5C 99.5,111.167 99.5,111.833 99.5,112.5C 95.6885,109.44 93.3552,105.44 92.5,100.5 Z"/></g>
<g><path style="opacity:1" fill="#7fc1e7" d="M 160.5,103.5 C 159.365,109.109 156.699,113.776 152.5,117.5C 154.678,114.477 156.345,111.144 157.5,107.5C 158.5,106.167 159.5,104.833 160.5,103.5 Z"/></g>
<g><path style="opacity:1" fill="#32ff00" d="M 162.5,72.5 C 162.629,74.2161 162.962,75.8828 163.5,77.5C 157.96,79.7767 153.294,83.2767 149.5,88C 143.693,91.0923 138.36,94.759 133.5,99C 130.593,102.151 127.926,105.484 125.5,109C 122.032,110.97 118.699,113.136 115.5,115.5C 114.575,116.357 113.908,117.357 113.5,118.5C 111.02,119.242 108.687,120.242 106.5,121.5C 105.248,119.999 104.248,118.332 103.5,116.5C 111.268,110.577 118.934,104.41 126.5,98C 131.001,95.5841 135.334,92.9175 139.5,90C 145.634,82.254 153.301,76.4206 162.5,72.5 Z"/></g>
<g><path style="opacity:0.008" fill="#00a9ff" d="M -0.5,111.5 C 0.833333,112.167 0.833333,112.167 -0.5,111.5 Z"/></g>
<g><path style="opacity:1" fill="#01fe6c" d="M 162.5,94.5 C 162.567,95.9587 162.234,97.2921 161.5,98.5C 156.432,101.065 152.099,104.565 148.5,109C 144.943,111.398 141.277,113.565 137.5,115.5C 136.738,116.628 136.071,117.795 135.5,119C 132.52,120.634 129.52,122.3 126.5,124C 125.748,124.671 125.414,125.504 125.5,126.5C 123.379,126.675 121.379,126.341 119.5,125.5C 128.903,119.291 137.903,112.458 146.5,105C 151.763,104.01 155.429,101.177 157.5,96.5C 159.514,96.6085 161.18,95.9418 162.5,94.5 Z"/></g>
<g><path style="opacity:1" fill="#02fe2d" d="M 163.5,83.5 C 163.677,87.2343 163.344,90.9009 162.5,94.5C 161.18,95.9418 159.514,96.6085 157.5,96.5C 155.429,101.177 151.763,104.01 146.5,105C 137.903,112.458 128.903,119.291 119.5,125.5C 114.921,125.385 110.588,124.385 106.5,122.5C 106.5,122.167 106.5,121.833 106.5,121.5C 108.687,120.242 111.02,119.242 113.5,118.5C 120.019,114.158 126.686,109.991 133.5,106C 140.36,99.4678 148.027,94.1345 156.5,90C 158.05,86.9487 160.383,84.782 163.5,83.5 Z"/></g>
<g><path style="opacity:1" fill="#80c1e4" d="M 99.5,112.5 C 101.194,113.527 102.527,114.861 103.5,116.5C 104.248,118.332 105.248,119.999 106.5,121.5C 106.5,121.833 106.5,122.167 106.5,122.5C 103.185,119.875 100.851,116.542 99.5,112.5 Z"/></g>
<g><path style="opacity:1" fill="#0bfeb9" d="M 157.5,107.5 C 156.345,111.144 154.678,114.477 152.5,117.5C 150.178,118.802 148.845,120.802 148.5,123.5C 142.572,124.871 136.572,125.871 130.5,126.5C 133.289,123.598 136.623,121.432 140.5,120C 145.432,114.911 151.098,110.745 157.5,107.5 Z"/></g>
<g><path style="opacity:1" fill="#74bae4" d="M 152.5,117.5 C 152.155,120.198 150.822,122.198 148.5,123.5C 148.845,120.802 150.178,118.802 152.5,117.5 Z"/></g>
<g><path style="opacity:1" fill="#02fe8a" d="M 161.5,98.5 C 160.962,100.117 160.629,101.784 160.5,103.5C 159.5,104.833 158.5,106.167 157.5,107.5C 151.098,110.745 145.432,114.911 140.5,120C 136.623,121.432 133.289,123.598 130.5,126.5C 128.833,126.5 127.167,126.5 125.5,126.5C 125.414,125.504 125.748,124.671 126.5,124C 129.52,122.3 132.52,120.634 135.5,119C 136.071,117.795 136.738,116.628 137.5,115.5C 141.277,113.565 144.943,111.398 148.5,109C 152.099,104.565 156.432,101.065 161.5,98.5 Z"/></g>
<g><path style="opacity:1" fill="#63b3df" d="M 109.5,129.5 C 106.797,129.045 104.13,128.378 101.5,127.5C 99.2383,128.467 96.905,129.134 94.5,129.5C 96.5038,127.81 98.8371,126.476 101.5,125.5C 104.507,126.337 107.174,127.67 109.5,129.5 Z"/></g>
<g><path style="opacity:1" fill="#76bbe4" d="M 106.5,122.5 C 110.588,124.385 114.921,125.385 119.5,125.5C 121.379,126.341 123.379,126.675 125.5,126.5C 127.167,126.5 128.833,126.5 130.5,126.5C 136.572,125.871 142.572,124.871 148.5,123.5C 147.653,124.966 146.32,125.8 144.5,126C 132.005,129.473 119.672,128.973 107.5,124.5C 106.702,124.043 106.369,123.376 106.5,122.5 Z"/></g>
<g><path style="opacity:1" fill="#7cc0e4" d="M 92.5,130.5 C 89.7534,133.207 86.4201,134.873 82.5,135.5C 85.4841,133.341 88.8174,131.675 92.5,130.5 Z"/></g>
<g><path style="opacity:1" fill="#0ffe28" d="M 109.5,129.5 C 110.492,129.328 111.158,129.662 111.5,130.5C 103.705,135.247 96.3713,140.747 89.5,147C 84.8897,146.968 81.5563,148.968 79.5,153C 76.1667,155 72.8333,157 69.5,159C 67.8333,162 65.5,164.333 62.5,166C 59.1943,166.986 56.1943,168.486 53.5,170.5C 53.7506,166.751 54.4172,163.085 55.5,159.5C 55.5,158.833 55.8333,158.5 56.5,158.5C 58.5475,156.45 60.2141,154.117 61.5,151.5C 61.8333,150.5 62.5,149.833 63.5,149.5C 66.0892,148.581 68.0892,146.914 69.5,144.5C 71.4044,144.262 72.7377,143.262 73.5,141.5C 76.7043,140.617 79.3709,138.95 81.5,136.5C 81.5,135.833 81.8333,135.5 82.5,135.5C 86.4201,134.873 89.7534,133.207 92.5,130.5C 92.8417,129.662 93.5084,129.328 94.5,129.5C 96.905,129.134 99.2383,128.467 101.5,127.5C 104.13,128.378 106.797,129.045 109.5,129.5 Z"/></g>
<g><path style="opacity:1" fill="#74bbe2" d="M 81.5,136.5 C 79.3709,138.95 76.7043,140.617 73.5,141.5C 75.4844,138.836 78.1511,137.169 81.5,136.5 Z"/></g>
<g><path style="opacity:1" fill="#6ab2e3" d="M 170.5,135.5 C 174.505,136.498 177.839,138.498 180.5,141.5C 180.167,141.5 179.833,141.5 179.5,141.5C 176.807,140.153 174.14,138.82 171.5,137.5C 171.167,136.833 170.833,136.167 170.5,135.5 Z"/></g>
<g><path style="opacity:1" fill="#03feae" d="M 118.5,132.5 C 120.379,133.341 122.379,133.675 124.5,133.5C 123.365,135.213 121.698,135.88 119.5,135.5C 119.67,136.822 119.337,137.989 118.5,139C 114.925,140.57 111.592,142.57 108.5,145C 102.842,150.655 96.8419,155.988 90.5,161C 88.3921,161.36 86.3921,162.027 84.5,163C 80.7438,166.836 76.7438,170.502 72.5,174C 71.2068,174.49 69.8734,174.657 68.5,174.5C 68.67,175.822 68.3366,176.989 67.5,178C 62.2863,180.896 57.2863,184.062 52.5,187.5C 52.5,185.5 52.5,183.5 52.5,181.5C 58.2681,178.622 63.2681,174.789 67.5,170C 74.7645,166.541 81.0979,161.874 86.5,156C 89.6145,153.883 92.9479,152.216 96.5,151C 103.952,145.055 111.285,138.888 118.5,132.5 Z"/></g>
<g><path style="opacity:0.008" fill="#00a9ff" d="M -0.5,141.5 C 0.833333,142.167 0.833333,142.167 -0.5,141.5 Z"/></g>
<g><path style="opacity:0.008" fill="#00a9ff" d="M 253.5,141.5 C 254.833,142.167 254.833,142.167 253.5,141.5 Z"/></g>
<g><path style="opacity:1" fill="#80c0e6" d="M 73.5,141.5 C 72.7377,143.262 71.4044,144.262 69.5,144.5C 70.2623,142.738 71.5956,141.738 73.5,141.5 Z"/></g>
<g><path style="opacity:1" fill="#73bae3" d="M 181.5,142.5 C 183.027,142.427 184.027,143.094 184.5,144.5C 182.973,144.573 181.973,143.906 181.5,142.5 Z"/></g>
<g><path style="opacity:1" fill="#70b7e2" d="M 184.5,144.5 C 188.833,146.833 192.167,150.167 194.5,154.5C 193.5,153.833 192.5,153.167 191.5,152.5C 190.167,150.5 188.5,148.833 186.5,147.5C 185.833,146.5 185.167,145.5 184.5,144.5 Z"/></g>
<g><path style="opacity:1" fill="#7bc3de" d="M 69.5,144.5 C 68.0892,146.914 66.0892,148.581 63.5,149.5C 64.9108,147.086 66.9108,145.419 69.5,144.5 Z"/></g>
<g><path style="opacity:0.008" fill="#00a9ff" d="M 0.5,148.5 C 1.83333,149.167 1.83333,149.167 0.5,148.5 Z"/></g>
<g><path style="opacity:1" fill="#012dff" d="M 167.5,134.5 C 168.391,135.11 169.391,135.443 170.5,135.5C 170.833,136.167 171.167,136.833 171.5,137.5C 171.586,138.496 171.252,139.329 170.5,140C 164.761,142.853 159.094,145.853 153.5,149C 138.413,161.417 122.747,173.083 106.5,184C 101.756,185.207 97.4226,187.207 93.5,190C 91.8588,191.129 90.8588,192.629 90.5,194.5C 89.1667,194.5 87.8333,194.5 86.5,194.5C 91.5052,190.134 96.8385,185.967 102.5,182C 104.167,181.667 105.833,181.333 107.5,181C 112.085,177.672 116.752,174.339 121.5,171C 126.296,167.702 130.296,163.535 133.5,158.5C 138.014,157.173 141.681,154.673 144.5,151C 149.539,149 153.539,145.834 156.5,141.5C 160.062,138.892 163.729,136.559 167.5,134.5 Z"/></g>
<g><path style="opacity:1" fill="#7fc3df" d="M 61.5,151.5 C 60.2141,154.117 58.5475,156.45 56.5,158.5C 57.0102,155.326 58.6769,152.992 61.5,151.5 Z"/></g>
<g><path style="opacity:1" fill="#79bce4" d="M 194.5,154.5 C 196.262,155.262 197.262,156.596 197.5,158.5C 196.833,158.167 196.167,157.833 195.5,157.5C 194.89,156.609 194.557,155.609 194.5,154.5 Z"/></g>
<g><path style="opacity:1" fill="#02fe60" d="M 111.5,130.5 C 111.833,130.5 112.167,130.5 112.5,130.5C 112.5,131.167 112.833,131.5 113.5,131.5C 113.67,132.822 113.337,133.989 112.5,135C 106.625,139.438 100.292,143.105 93.5,146C 82.5748,153.644 71.9081,161.644 61.5,170C 58.4734,171.513 55.4734,173.013 52.5,174.5C 52.4326,173.041 52.7659,171.708 53.5,170.5C 56.1943,168.486 59.1943,166.986 62.5,166C 65.5,164.333 67.8333,162 69.5,159C 72.8333,157 76.1667,155 79.5,153C 81.5563,148.968 84.8897,146.968 89.5,147C 96.3713,140.747 103.705,135.247 111.5,130.5 Z"/></g>
<g><path style="opacity:1" fill="#3a00ff" d="M 179.5,141.5 C 179.833,141.5 180.167,141.5 180.5,141.5C 178.732,142.931 178.065,144.597 178.5,146.5C 172.061,149.794 166.395,153.961 161.5,159C 154.253,162.601 147.92,167.268 142.5,173C 135.954,175.899 130.287,179.899 125.5,185C 121.649,188.35 117.649,191.517 113.5,194.5C 110.5,194.5 107.5,194.5 104.5,194.5C 105.29,193.206 106.29,192.039 107.5,191C 111.993,188.921 116.326,186.588 120.5,184C 127.042,178.279 133.376,172.279 139.5,166C 152.964,158.033 166.298,149.867 179.5,141.5 Z"/></g>
<g><path style="opacity:1" fill="#1ec5fc" d="M 160.5,130.5 C 159.417,130.461 158.417,130.127 157.5,129.5C 152.175,131.827 147.175,134.66 142.5,138C 133.811,144.695 125.145,151.361 116.5,158C 109.813,162.032 103.146,166.032 96.5,170C 92.75,174.047 88.4167,177.381 83.5,180C 82.7433,181.512 81.7433,182.846 80.5,184C 75.3359,187.417 70.3359,190.917 65.5,194.5C 63.8333,194.5 62.1667,194.5 60.5,194.5C 62.4903,193.066 64.157,191.232 65.5,189C 72.3858,185.764 78.3858,181.431 83.5,176C 89.52,172.634 95.52,169.3 101.5,166C 103.5,163.667 105.5,161.333 107.5,159C 112.459,157.243 116.459,154.243 119.5,150C 127.154,145.325 134.487,140.325 141.5,135C 144.041,131.395 143.041,130.561 138.5,132.5C 135.193,133.051 131.86,133.384 128.5,133.5C 127.167,133.5 125.833,133.5 124.5,133.5C 122.379,133.675 120.379,133.341 118.5,132.5C 116.708,132.634 115.042,132.301 113.5,131.5C 112.833,131.5 112.5,131.167 112.5,130.5C 126.414,132.832 139.914,131.499 153,126.5C 156.059,126.944 158.559,128.277 160.5,130.5 Z"/></g>
<g><path style="opacity:1" fill="#0381ff" d="M 163.5,132.5 C 160.284,135.08 157.284,137.913 154.5,141C 144.5,147 134.5,153 124.5,159C 123.167,160.667 121.833,162.333 120.5,164C 111.316,168.87 102.65,174.37 94.5,180.5C 96.8954,176.919 99.562,173.419 102.5,170C 110.658,166.608 117.658,161.775 123.5,155.5C 128.5,152.667 133.5,149.833 138.5,147C 144.486,141.016 151.153,136.016 158.5,132C 160.265,131.36 161.932,131.527 163.5,132.5 Z"/></g>
<g><path style="opacity:1" fill="#9200ff" d="M 182.5,150.5 C 178.526,155.67 173.526,159.67 167.5,162.5C 166.289,164.422 164.956,166.255 163.5,168C 156.683,171.142 150.683,175.476 145.5,181C 138.001,185.249 130.668,189.749 123.5,194.5C 122.167,194.5 120.833,194.5 119.5,194.5C 124.028,188.891 129.695,184.724 136.5,182C 138.976,177.725 142.643,175.059 147.5,174C 151.518,170.979 155.184,167.646 158.5,164C 166.406,159.244 174.406,154.744 182.5,150.5 Z"/></g>
<g><path style="opacity:1" fill="#02fe7e" d="M 113.5,131.5 C 115.042,132.301 116.708,132.634 118.5,132.5C 111.285,138.888 103.952,145.055 96.5,151C 92.9479,152.216 89.6145,153.883 86.5,156C 81.0979,161.874 74.7645,166.541 67.5,170C 63.2681,174.789 58.2681,178.622 52.5,181.5C 52.5,179.167 52.5,176.833 52.5,174.5C 55.4734,173.013 58.4734,171.513 61.5,170C 71.9081,161.644 82.5748,153.644 93.5,146C 100.292,143.105 106.625,139.438 112.5,135C 113.337,133.989 113.67,132.822 113.5,131.5 Z"/></g>
<g><path style="opacity:1" fill="#02ffd6" d="M 124.5,133.5 C 125.833,133.5 127.167,133.5 128.5,133.5C 127.264,135.043 125.598,136.043 123.5,136.5C 120.882,139.092 118.549,141.925 116.5,145C 112.913,147.254 109.913,150.254 107.5,154C 101.481,156.229 96.1473,159.563 91.5,164C 82.1327,168.222 73.7994,173.888 66.5,181C 61.3963,183.192 56.7296,186.025 52.5,189.5C 52.5,188.833 52.5,188.167 52.5,187.5C 57.2863,184.062 62.2863,180.896 67.5,178C 68.3366,176.989 68.67,175.822 68.5,174.5C 69.8734,174.657 71.2068,174.49 72.5,174C 76.7438,170.502 80.7438,166.836 84.5,163C 86.3921,162.027 88.3921,161.36 90.5,161C 96.8419,155.988 102.842,150.655 108.5,145C 111.592,142.57 114.925,140.57 118.5,139C 119.337,137.989 119.67,136.822 119.5,135.5C 121.698,135.88 123.365,135.213 124.5,133.5 Z"/></g>
<g><path style="opacity:1" fill="#035eff" d="M 163.5,132.5 C 164.833,133.167 166.167,133.833 167.5,134.5C 163.729,136.559 160.062,138.892 156.5,141.5C 153.539,145.834 149.539,149 144.5,151C 141.681,154.673 138.014,157.173 133.5,158.5C 128.125,161.188 122.791,163.854 117.5,166.5C 117.703,168.39 117.037,169.89 115.5,171C 106.599,175.595 98.5987,181.262 91.5,188C 87.6228,189.432 84.2895,191.598 81.5,194.5C 80.5,194.5 79.5,194.5 78.5,194.5C 83.5349,189.463 88.8682,184.797 94.5,180.5C 102.65,174.37 111.316,168.87 120.5,164C 121.833,162.333 123.167,160.667 124.5,159C 134.5,153 144.5,147 154.5,141C 157.284,137.913 160.284,135.08 163.5,132.5 Z"/></g>
<g><path style="opacity:1" fill="#03feef" d="M 138.5,132.5 C 132.644,138.151 125.977,142.984 118.5,147C 109.128,154.344 99.7944,161.678 90.5,169C 85.3842,170.553 81.3842,173.553 78.5,178C 69.6713,182.063 62.0047,187.563 55.5,194.5C 54.5,194.5 53.5,194.5 52.5,194.5C 52.5,192.833 52.5,191.167 52.5,189.5C 56.7296,186.025 61.3963,183.192 66.5,181C 73.7994,173.888 82.1327,168.222 91.5,164C 96.1473,159.563 101.481,156.229 107.5,154C 109.913,150.254 112.913,147.254 116.5,145C 118.549,141.925 120.882,139.092 123.5,136.5C 125.598,136.043 127.264,135.043 128.5,133.5C 131.86,133.384 135.193,133.051 138.5,132.5 Z"/></g>
<g><path style="opacity:1" fill="#bb00ff" d="M 186.5,147.5 C 188.5,148.833 190.167,150.5 191.5,152.5C 178.615,161.628 165.615,170.795 152.5,180C 151.077,183.092 148.743,185.092 145.5,186C 142.891,189.294 139.891,192.127 136.5,194.5C 132.167,194.5 127.833,194.5 123.5,194.5C 130.668,189.749 138.001,185.249 145.5,181C 150.683,175.476 156.683,171.142 163.5,168C 164.956,166.255 166.289,164.422 167.5,162.5C 173.526,159.67 178.526,155.67 182.5,150.5C 183.262,148.738 184.596,147.738 186.5,147.5 Z"/></g>
<g><path style="opacity:0.004" fill="#00fffe" d="M 7.5,173.5 C 8.83333,174.167 8.83333,174.167 7.5,173.5 Z"/></g>
<g><path style="opacity:0.004" fill="#00fffe" d="M 245.5,173.5 C 246.833,174.167 246.833,174.167 245.5,173.5 Z"/></g>
<g><path style="opacity:1" fill="#01e3ff" d="M 60.5,194.5 C 58.8333,194.5 57.1667,194.5 55.5,194.5C 62.0047,187.563 69.6713,182.063 78.5,178C 81.3842,173.553 85.3842,170.553 90.5,169C 99.7944,161.678 109.128,154.344 118.5,147C 125.977,142.984 132.644,138.151 138.5,132.5C 143.041,130.561 144.041,131.395 141.5,135C 134.487,140.325 127.154,145.325 119.5,150C 116.459,154.243 112.459,157.243 107.5,159C 105.5,161.333 103.5,163.667 101.5,166C 95.52,169.3 89.52,172.634 83.5,176C 78.3858,181.431 72.3858,185.764 65.5,189C 64.157,191.232 62.4903,193.066 60.5,194.5 Z"/></g>
<g><path style="opacity:1" fill="#0d07ff" d="M 171.5,137.5 C 174.14,138.82 176.807,140.153 179.5,141.5C 166.298,149.867 152.964,158.033 139.5,166C 133.376,172.279 127.042,178.279 120.5,184C 116.326,186.588 111.993,188.921 107.5,191C 106.29,192.039 105.29,193.206 104.5,194.5C 99.8333,194.5 95.1667,194.5 90.5,194.5C 90.8588,192.629 91.8588,191.129 93.5,190C 97.4226,187.207 101.756,185.207 106.5,184C 122.747,173.083 138.413,161.417 153.5,149C 159.094,145.853 164.761,142.853 170.5,140C 171.252,139.329 171.586,138.496 171.5,137.5 Z"/></g>
<g><path style="opacity:1" fill="#0145ff" d="M 133.5,158.5 C 130.296,163.535 126.296,167.702 121.5,171C 116.752,174.339 112.085,177.672 107.5,181C 105.833,181.333 104.167,181.667 102.5,182C 96.8385,185.967 91.5052,190.134 86.5,194.5C 84.8333,194.5 83.1667,194.5 81.5,194.5C 84.2895,191.598 87.6228,189.432 91.5,188C 98.5987,181.262 106.599,175.595 115.5,171C 117.037,169.89 117.703,168.39 117.5,166.5C 122.791,163.854 128.125,161.188 133.5,158.5 Z"/></g>
<g><path style="opacity:0.004" fill="#00fffe" d="M 10.5,180.5 C 11.8333,181.167 11.8333,181.167 10.5,180.5 Z"/></g>
<g><path style="opacity:1" fill="#f400fa" d="M 191.5,152.5 C 192.5,153.167 193.5,153.833 194.5,154.5C 194.557,155.609 194.89,156.609 195.5,157.5C 187.616,164.649 178.949,170.816 169.5,176C 168.743,177.512 167.743,178.846 166.5,180C 159.697,184.313 153.364,189.147 147.5,194.5C 143.833,194.5 140.167,194.5 136.5,194.5C 139.891,192.127 142.891,189.294 145.5,186C 148.743,185.092 151.077,183.092 152.5,180C 165.615,170.795 178.615,161.628 191.5,152.5 Z"/></g>
<g><path style="opacity:0.004" fill="#00fffe" d="M 242.5,180.5 C 243.833,181.167 243.833,181.167 242.5,180.5 Z"/></g>
<g><path style="opacity:0.004" fill="#00fffe" d="M 241.5,182.5 C 242.833,183.167 242.833,183.167 241.5,182.5 Z"/></g>
<g><path style="opacity:1" fill="#0ba1fe" d="M 160.5,130.5 C 164.42,131.127 167.753,132.793 170.5,135.5C 169.391,135.443 168.391,135.11 167.5,134.5C 166.167,133.833 164.833,133.167 163.5,132.5C 161.932,131.527 160.265,131.36 158.5,132C 151.153,136.016 144.486,141.016 138.5,147C 133.5,149.833 128.5,152.667 123.5,155.5C 117.658,161.775 110.658,166.608 102.5,170C 99.562,173.419 96.8954,176.919 94.5,180.5C 88.4271,183.372 82.4271,186.538 76.5,190C 74.8588,191.129 73.8588,192.629 73.5,194.5C 70.8333,194.5 68.1667,194.5 65.5,194.5C 70.3359,190.917 75.3359,187.417 80.5,184C 81.7433,182.846 82.7433,181.512 83.5,180C 88.4167,177.381 92.75,174.047 96.5,170C 103.146,166.032 109.813,162.032 116.5,158C 125.145,151.361 133.811,144.695 142.5,138C 147.175,134.66 152.175,131.827 157.5,129.5C 158.417,130.127 159.417,130.461 160.5,130.5 Z"/></g>
<g><path style="opacity:1" fill="#6900fe" d="M 180.5,141.5 C 181.167,141.5 181.5,141.833 181.5,142.5C 181.973,143.906 182.973,144.573 184.5,144.5C 185.167,145.5 185.833,146.5 186.5,147.5C 184.596,147.738 183.262,148.738 182.5,150.5C 174.406,154.744 166.406,159.244 158.5,164C 155.184,167.646 151.518,170.979 147.5,174C 142.643,175.059 138.976,177.725 136.5,182C 129.695,184.724 124.028,188.891 119.5,194.5C 117.5,194.5 115.5,194.5 113.5,194.5C 117.649,191.517 121.649,188.35 125.5,185C 130.287,179.899 135.954,175.899 142.5,173C 147.92,167.268 154.253,162.601 161.5,159C 166.395,153.961 172.061,149.794 178.5,146.5C 178.065,144.597 178.732,142.931 180.5,141.5 Z"/></g>
<g><path style="opacity:0.008" fill="#00a9ff" d="M 14.5,188.5 C 15.8333,189.167 15.8333,189.167 14.5,188.5 Z"/></g>
<g><path style="opacity:1" fill="#ff00d2" d="M 195.5,157.5 C 196.167,157.833 196.833,158.167 197.5,158.5C 197.833,159.833 198.167,161.167 198.5,162.5C 195.025,164.61 191.358,166.443 187.5,168C 178.308,176.198 168.308,183.198 157.5,189C 156.035,190.774 154.702,192.608 153.5,194.5C 151.5,194.5 149.5,194.5 147.5,194.5C 153.364,189.147 159.697,184.313 166.5,180C 167.743,178.846 168.743,177.512 169.5,176C 178.949,170.816 187.616,164.649 195.5,157.5 Z"/></g>
<g><path style="opacity:0.008" fill="#00a9ff" d="M 238.5,188.5 C 239.833,189.167 239.833,189.167 238.5,188.5 Z"/></g>
<g><path style="opacity:0.008" fill="#00a9ff" d="M 17.5,193.5 C 18.8333,194.167 18.8333,194.167 17.5,193.5 Z"/></g>
<g><path style="opacity:1" fill="#7ab9e1" d="M 197.5,158.5 C 200.241,161.534 201.741,165.201 202,169.5C 202.816,178.412 202.65,187.245 201.5,196C 151.833,196.667 102.167,196.667 52.5,196C 50.8541,184.11 51.3541,172.277 54,160.5C 54.3826,159.944 54.8826,159.611 55.5,159.5C 54.4172,163.085 53.7506,166.751 53.5,170.5C 52.7659,171.708 52.4326,173.041 52.5,174.5C 52.5,176.833 52.5,179.167 52.5,181.5C 52.5,183.5 52.5,185.5 52.5,187.5C 52.5,188.167 52.5,188.833 52.5,189.5C 52.5,191.167 52.5,192.833 52.5,194.5C 53.5,194.5 54.5,194.5 55.5,194.5C 57.1667,194.5 58.8333,194.5 60.5,194.5C 62.1667,194.5 63.8333,194.5 65.5,194.5C 68.1667,194.5 70.8333,194.5 73.5,194.5C 75.1667,194.5 76.8333,194.5 78.5,194.5C 79.5,194.5 80.5,194.5 81.5,194.5C 83.1667,194.5 84.8333,194.5 86.5,194.5C 87.8333,194.5 89.1667,194.5 90.5,194.5C 95.1667,194.5 99.8333,194.5 104.5,194.5C 107.5,194.5 110.5,194.5 113.5,194.5C 115.5,194.5 117.5,194.5 119.5,194.5C 120.833,194.5 122.167,194.5 123.5,194.5C 127.833,194.5 132.167,194.5 136.5,194.5C 140.167,194.5 143.833,194.5 147.5,194.5C 149.5,194.5 151.5,194.5 153.5,194.5C 155.5,194.5 157.5,194.5 159.5,194.5C 161.167,194.5 162.833,194.5 164.5,194.5C 166.833,194.5 169.167,194.5 171.5,194.5C 173.167,194.5 174.833,194.5 176.5,194.5C 184.833,194.5 193.167,194.5 201.5,194.5C 201.5,188.833 201.5,183.167 201.5,177.5C 200.89,176.609 200.557,175.609 200.5,174.5C 200.5,172.833 200.5,171.167 200.5,169.5C 200.737,168.209 200.404,167.209 199.5,166.5C 199.768,164.901 199.434,163.568 198.5,162.5C 198.167,161.167 197.833,159.833 197.5,158.5 Z"/></g>
<g><path style="opacity:1" fill="#ff0087" d="M 199.5,166.5 C 200.404,167.209 200.737,168.209 200.5,169.5C 193.531,175.624 185.864,180.791 177.5,185C 175.543,186.991 173.543,188.991 171.5,191C 168.558,191.144 166.224,192.311 164.5,194.5C 162.833,194.5 161.167,194.5 159.5,194.5C 164.465,188.712 170.465,184.212 177.5,181C 180.514,178.507 183.514,175.841 186.5,173C 188.577,172.808 190.577,172.308 192.5,171.5C 195.42,170.55 197.753,168.884 199.5,166.5 Z"/></g>
<g><path style="opacity:1" fill="#ff0142" d="M 200.5,174.5 C 200.557,175.609 200.89,176.609 201.5,177.5C 195.651,178.925 190.984,182.091 187.5,187C 183.42,189.029 179.754,191.529 176.5,194.5C 174.833,194.5 173.167,194.5 171.5,194.5C 173.607,189.766 177.274,186.933 182.5,186C 185.524,184.487 188.191,182.487 190.5,180C 194.536,179.337 197.869,177.504 200.5,174.5 Z"/></g>
<g><path style="opacity:1" fill="#0283ff" d="M 94.5,180.5 C 88.8682,184.797 83.5349,189.463 78.5,194.5C 76.8333,194.5 75.1667,194.5 73.5,194.5C 73.8588,192.629 74.8588,191.129 76.5,190C 82.4271,186.538 88.4271,183.372 94.5,180.5 Z"/></g>
<g><path style="opacity:1" fill="#ff0016" d="M 201.5,177.5 C 201.5,183.167 201.5,188.833 201.5,194.5C 193.167,194.5 184.833,194.5 176.5,194.5C 179.754,191.529 183.42,189.029 187.5,187C 190.984,182.091 195.651,178.925 201.5,177.5 Z"/></g>
<g><path style="opacity:1" fill="#ff00af" d="M 198.5,162.5 C 199.434,163.568 199.768,164.901 199.5,166.5C 197.753,168.884 195.42,170.55 192.5,171.5C 190.577,172.308 188.577,172.808 186.5,173C 183.514,175.841 180.514,178.507 177.5,181C 170.465,184.212 164.465,188.712 159.5,194.5C 157.5,194.5 155.5,194.5 153.5,194.5C 154.702,192.608 156.035,190.774 157.5,189C 168.308,183.198 178.308,176.198 187.5,168C 191.358,166.443 195.025,164.61 198.5,162.5 Z"/></g>
<g><path style="opacity:1" fill="#ff0062" d="M 200.5,169.5 C 200.5,171.167 200.5,172.833 200.5,174.5C 197.869,177.504 194.536,179.337 190.5,180C 188.191,182.487 185.524,184.487 182.5,186C 177.274,186.933 173.607,189.766 171.5,194.5C 169.167,194.5 166.833,194.5 164.5,194.5C 166.224,192.311 168.558,191.144 171.5,191C 173.543,188.991 175.543,186.991 177.5,185C 185.864,180.791 193.531,175.624 200.5,169.5 Z"/></g>
<g><path style="opacity:0.004" fill="#007fff" d="M 33.5,214.5 C 34.8333,215.167 34.8333,215.167 33.5,214.5 Z"/></g>
<g><path style="opacity:0.008" fill="#00a9ff" d="M 214.5,219.5 C 215.833,220.167 215.833,220.167 214.5,219.5 Z"/></g>
<g><path style="opacity:0.012" fill="#0054ff" d="M 46.5,226.5 C 47.8333,227.167 47.8333,227.167 46.5,226.5 Z"/></g>
<g><path style="opacity:0.012" fill="#0054ff" d="M 206.5,226.5 C 207.833,227.167 207.833,227.167 206.5,226.5 Z"/></g>
<g><path style="opacity:0.004" fill="#0000ff" d="M 50.5,229.5 C 51.8333,230.167 51.8333,230.167 50.5,229.5 Z"/></g>
<g><path style="opacity:0.004" fill="#0000ff" d="M 202.5,229.5 C 203.833,230.167 203.833,230.167 202.5,229.5 Z"/></g>
<g><path style="opacity:0.004" fill="#007fff" d="M 59.5,235.5 C 60.8333,236.167 60.8333,236.167 59.5,235.5 Z"/></g>
<g><path style="opacity:0.004" fill="#0000ff" d="M 193.5,235.5 C 194.833,236.167 194.833,236.167 193.5,235.5 Z"/></g>
<g><path style="opacity:0.004" fill="#0000ff" d="M 64.5,238.5 C 65.8333,239.167 65.8333,239.167 64.5,238.5 Z"/></g>
<g><path style="opacity:0.004" fill="#0000ff" d="M 188.5,238.5 C 189.833,239.167 189.833,239.167 188.5,238.5 Z"/></g>
<g><path style="opacity:0.016" fill="#006cdb" d="M 184.5,240.5 C 185.833,241.167 185.833,241.167 184.5,240.5 Z"/></g>
<g><path style="opacity:0.012" fill="#0054ff" d="M 70.5,241.5 C 71.8333,242.167 71.8333,242.167 70.5,241.5 Z"/></g>
<g><path style="opacity:0.012" fill="#0054ff" d="M 182.5,241.5 C 183.833,242.167 183.833,242.167 182.5,241.5 Z"/></g>
<g><path style="opacity:0.004" fill="#0000ff" d="M 79.5,245.5 C 80.8333,246.167 80.8333,246.167 79.5,245.5 Z"/></g>
<g><path style="opacity:0.004" fill="#0000ff" d="M 173.5,245.5 C 174.833,246.167 174.833,246.167 173.5,245.5 Z"/></g>
<g><path style="opacity:0.012" fill="#0070c6" d="M 112.5,253.5 C 113.833,254.167 113.833,254.167 112.5,253.5 Z"/></g>
<g><path style="opacity:0.012" fill="#0070c6" d="M 140.5,253.5 C 141.833,254.167 141.833,254.167 140.5,253.5 Z"/></g>
</svg>
