<?xml version="1.0" encoding="UTF-8"?>
<!DOCTYPE svg PUBLIC "-//W3C//DTD SVG 1.1//EN" "http://www.w3.org/Graphics/SVG/1.1/DTD/svg11.dtd">
<svg xmlns="http://www.w3.org/2000/svg" version="1.1" width="256px" height="256px" style="shape-rendering:geometricPrecision; text-rendering:geometricPrecision; image-rendering:optimizeQuality; fill-rule:evenodd; clip-rule:evenodd" xmlns:xlink="http://www.w3.org/1999/xlink">
<g><path style="opacity:1" fill="#fef100" d="M 95.5,3.5 C 80.7864,17.5492 66.1197,31.5492 51.5,45.5C 50.325,45.719 49.325,45.3857 48.5,44.5C 56.6766,34.4904 65.6766,25.3238 75.5,17C 76.448,16.5172 77.448,16.3505 78.5,16.5C 78.5,15.5 78.5,14.5 78.5,13.5C 82.406,11.2304 85.406,8.56373 87.5,5.5C 89.9052,4.2318 92.5718,3.56513 95.5,3.5 Z"/></g>
<g><path style="opacity:1" fill="#d5fe02" d="M 112.5,-0.5 C 114.833,-0.5 117.167,-0.5 119.5,-0.5C 114.234,7.26936 107.567,13.436 99.5,18C 91.3291,27.3374 82.6625,36.1707 73.5,44.5C 77.4454,45.4909 81.4454,45.8242 85.5,45.5C 87.7354,45.2053 89.7354,45.5386 91.5,46.5C 80.1667,46.5 68.8333,46.5 57.5,46.5C 57.5,46.1667 57.5,45.8333 57.5,45.5C 61.6202,44.0704 64.9536,41.4038 67.5,37.5C 71.9541,34.5477 75.9541,31.0477 79.5,27C 80.8333,26.6667 82.1667,26.3333 83.5,26C 93.1088,16.8817 102.775,8.04832 112.5,-0.5 Z"/></g>
<g><path style="opacity:1" fill="#4efe00" d="M 149.5,1.5 C 152.63,1.69973 155.63,2.36639 158.5,3.5C 148.607,14.5613 137.941,24.7279 126.5,34C 123.133,37.7026 119.466,41.036 115.5,44C 113.393,45.2635 112.393,47.0968 112.5,49.5C 111.167,48.5 109.833,47.5 108.5,46.5C 106.393,45.5318 104.059,45.1984 101.5,45.5C 113.833,35.3487 125.833,24.5154 137.5,13C 138.5,12.6667 139.5,12.3333 140.5,12C 143.365,8.30808 146.365,4.80808 149.5,1.5 Z"/></g>
<g><path style="opacity:1" fill="#ffca00" d="M 77.5,9.5 C 70.4428,19.2231 61.7761,27.2231 51.5,33.5C 50.8333,34.8333 50.1667,36.1667 49.5,37.5C 38.7352,47.0929 28.0685,56.9263 17.5,67C 16.2506,67.7401 15.2506,67.5735 14.5,66.5C 24.4481,48.3835 37.7814,33.2169 54.5,21C 61.8524,16.4666 69.5191,12.6333 77.5,9.5 Z"/></g>
<g><path style="opacity:1" fill="#f2fe00" d="M 111.5,-0.5 C 111.833,-0.5 112.167,-0.5 112.5,-0.5C 102.775,8.04832 93.1088,16.8817 83.5,26C 82.1667,26.3333 80.8333,26.6667 79.5,27C 75.9541,31.0477 71.9541,34.5477 67.5,37.5C 64.9536,41.4038 61.6202,44.0704 57.5,45.5C 55.5,45.5 53.5,45.5 51.5,45.5C 66.1197,31.5492 80.7864,17.5492 95.5,3.5C 100.765,1.85037 106.099,0.517037 111.5,-0.5 Z"/></g>
<g><path style="opacity:1" fill="#8ffe03" d="M 132.5,-0.5 C 134.833,-0.5 137.167,-0.5 139.5,-0.5C 137.73,1.11327 136.564,3.11327 136,5.5C 121.845,18.3383 107.845,31.005 94,43.5C 93.8333,43.8333 93.6667,44.1667 93.5,44.5C 96.0865,45.48 98.7531,45.8134 101.5,45.5C 104.059,45.1984 106.393,45.5318 108.5,46.5C 102.833,46.5 97.1667,46.5 91.5,46.5C 89.7354,45.5386 87.7354,45.2053 85.5,45.5C 85.369,44.7611 85.5357,44.0944 86,43.5C 90,39.8333 94,36.1667 98,32.5C 98.3333,31.5 98.6667,30.5 99,29.5C 102.359,28.6359 104.526,26.6359 105.5,23.5C 109.839,22.0048 113.173,19.1715 115.5,15C 116.5,14.6667 117.5,14.3333 118.5,14C 122.575,9.58663 126.908,5.58663 131.5,2C 132.252,1.32924 132.586,0.495904 132.5,-0.5 Z"/></g>
<g><path style="opacity:1" fill="#13fd72" d="M 194.5,18.5 C 196.795,19.4746 198.795,20.8079 200.5,22.5C 200.631,23.2389 200.464,23.9056 200,24.5C 195.072,28.7162 190.239,33.0495 185.5,37.5C 180.91,44.5923 174.91,50.0923 167.5,54C 163.915,57.0781 160.915,60.5781 158.5,64.5C 156.585,64.2155 154.919,64.5489 153.5,65.5C 144.318,65.8266 135.318,65.4933 126.5,64.5C 129.167,64.5 131.833,64.5 134.5,64.5C 139.544,64.8275 144.544,64.4941 149.5,63.5C 157.322,56.5106 164.656,49.0106 171.5,41C 175.573,40.6409 177.907,38.4742 178.5,34.5C 183.857,29.0479 189.19,23.7146 194.5,18.5 Z"/></g>
<g><path style="opacity:1" fill="#73ff00" d="M 139.5,-0.5 C 140.5,-0.5 141.5,-0.5 142.5,-0.5C 144.715,0.2679 147.048,0.934566 149.5,1.5C 146.365,4.80808 143.365,8.30808 140.5,12C 139.5,12.3333 138.5,12.6667 137.5,13C 125.833,24.5154 113.833,35.3487 101.5,45.5C 98.7531,45.8134 96.0865,45.48 93.5,44.5C 93.6667,44.1667 93.8333,43.8333 94,43.5C 107.845,31.005 121.845,18.3383 136,5.5C 136.564,3.11327 137.73,1.11327 139.5,-0.5 Z"/></g>
<g><path style="opacity:1" fill="#acff00" d="M 119.5,-0.5 C 123.833,-0.5 128.167,-0.5 132.5,-0.5C 132.586,0.495904 132.252,1.32924 131.5,2C 126.908,5.58663 122.575,9.58663 118.5,14C 117.5,14.3333 116.5,14.6667 115.5,15C 113.173,19.1715 109.839,22.0048 105.5,23.5C 104.526,26.6359 102.359,28.6359 99,29.5C 98.6667,30.5 98.3333,31.5 98,32.5C 94,36.1667 90,39.8333 86,43.5C 85.5357,44.0944 85.369,44.7611 85.5,45.5C 81.4454,45.8242 77.4454,45.4909 73.5,44.5C 82.6625,36.1707 91.3291,27.3374 99.5,18C 107.567,13.436 114.234,7.26936 119.5,-0.5 Z"/></g>
<g><path style="opacity:1" fill="#15fe10" d="M 158.5,3.5 C 169.13,5.59729 179.13,9.26396 188.5,14.5C 183.574,19.9248 177.908,24.4248 171.5,28C 162.527,38.3063 152.86,47.9729 142.5,57C 138.668,58.3343 136.001,60.8343 134.5,64.5C 131.833,64.5 129.167,64.5 126.5,64.5C 121.833,59.5 117.167,54.5 112.5,49.5C 112.393,47.0968 113.393,45.2635 115.5,44C 119.466,41.036 123.133,37.7026 126.5,34C 137.941,24.7279 148.607,14.5613 158.5,3.5 Z"/></g>
<g><path style="opacity:0.979" fill="#13fdd4" d="M 212.5,32.5 C 214.754,33.1237 216.421,34.457 217.5,36.5C 212.957,44.543 206.624,50.7097 198.5,55C 195.527,57.973 192.527,60.973 189.5,64C 192.482,64.498 195.482,64.6646 198.5,64.5C 200.735,64.2053 202.735,64.5386 204.5,65.5C 196.5,65.5 188.5,65.5 180.5,65.5C 180.082,64.7784 179.416,64.2784 178.5,64C 190.331,54.0014 201.664,43.5014 212.5,32.5 Z"/></g>
<g><path style="opacity:1" fill="#02fe95" d="M 200.5,22.5 C 203.81,24.4821 206.81,26.8154 209.5,29.5C 196.451,41.2189 183.118,52.5522 169.5,63.5C 165.893,64.4892 162.226,64.8226 158.5,64.5C 160.915,60.5781 163.915,57.0781 167.5,54C 174.91,50.0923 180.91,44.5923 185.5,37.5C 190.239,33.0495 195.072,28.7162 200,24.5C 200.464,23.9056 200.631,23.2389 200.5,22.5 Z"/></g>
<g><path style="opacity:0.93" fill="#fee302" d="M 87.5,5.5 C 85.406,8.56373 82.406,11.2304 78.5,13.5C 78.5,14.5 78.5,15.5 78.5,16.5C 77.448,16.3505 76.448,16.5172 75.5,17C 65.6766,25.3238 56.6766,34.4904 48.5,44.5C 49.325,45.3857 50.325,45.719 51.5,45.5C 53.5,45.5 55.5,45.5 57.5,45.5C 57.5,45.8333 57.5,46.1667 57.5,46.5C 48.6266,45.2833 41.2933,47.9499 35.5,54.5C 34.3995,56.2774 33.5662,58.2774 33,60.5C 32.5008,65.1548 32.3342,69.8215 32.5,74.5C 32.1667,74.5 31.8333,74.5 31.5,74.5C 31.5,73.5 31.5,72.5 31.5,71.5C 31.8919,68.2784 31.3919,65.2784 30,62.5C 23.6751,70.3244 16.5085,77.3244 8.5,83.5C 7.89333,83.3764 7.55999,83.0431 7.5,82.5C 9.31599,76.8748 11.6493,71.5415 14.5,66.5C 15.2506,67.5735 16.2506,67.7401 17.5,67C 28.0685,56.9263 38.7352,47.0929 49.5,37.5C 50.1667,36.1667 50.8333,34.8333 51.5,33.5C 61.7761,27.2231 70.4428,19.2231 77.5,9.5C 80.5178,7.60006 83.8512,6.26672 87.5,5.5 Z"/></g>
<g><path style="opacity:1" fill="#01fe4a" d="M 188.5,14.5 C 190.537,15.8465 192.537,17.1798 194.5,18.5C 189.19,23.7146 183.857,29.0479 178.5,34.5C 177.907,38.4742 175.573,40.6409 171.5,41C 164.656,49.0106 157.322,56.5106 149.5,63.5C 144.544,64.4941 139.544,64.8275 134.5,64.5C 136.001,60.8343 138.668,58.3343 142.5,57C 152.86,47.9729 162.527,38.3063 171.5,28C 177.908,24.4248 183.574,19.9248 188.5,14.5 Z"/></g>
<g><path style="opacity:1" fill="#01fef4" d="M 217.5,36.5 C 219.633,38.0905 221.299,40.0905 222.5,42.5C 214.038,49.3859 206.038,56.7193 198.5,64.5C 195.482,64.6646 192.482,64.498 189.5,64C 192.527,60.973 195.527,57.973 198.5,55C 206.624,50.7097 212.957,44.543 217.5,36.5 Z"/></g>
<g><path style="opacity:0.997" fill="#f2c573" d="M 57.5,46.5 C 68.8333,46.5 80.1667,46.5 91.5,46.5C 97.1667,46.5 102.833,46.5 108.5,46.5C 109.833,47.5 111.167,48.5 112.5,49.5C 117.167,54.5 121.833,59.5 126.5,64.5C 135.318,65.4933 144.318,65.8266 153.5,65.5C 162.5,65.5 171.5,65.5 180.5,65.5C 188.5,65.5 196.5,65.5 204.5,65.5C 206.717,66.3686 209.05,66.702 211.5,66.5C 211.833,67.5 212.5,68.1667 213.5,68.5C 214.659,70.2503 216.326,71.2503 218.5,71.5C 218.285,73.1788 218.952,74.1788 220.5,74.5C 220.527,76.1993 221.194,77.5326 222.5,78.5C 221.833,85.0119 221.167,91.6786 220.5,98.5C 219.158,96.9951 217.492,96.3285 215.5,96.5C 215.465,91.7984 213.132,89.4651 208.5,89.5C 181.669,88.8334 154.669,88.5 127.5,88.5C 100.158,88.5002 73.1583,89.1668 46.5,90.5C 44.2627,91.449 41.9294,92.1156 39.5,92.5C 39.5,93.8333 39.5,95.1667 39.5,96.5C 38.5,96.5 37.5,96.5 36.5,96.5C 35.8826,96.6107 35.3826,96.944 35,97.5C 34.2551,83.1454 34.4218,68.8121 35.5,54.5C 41.2933,47.9499 48.6266,45.2833 57.5,46.5 Z"/></g>
<g><path style="opacity:1" fill="#16fdb7" d="M 209.5,29.5 C 210.833,30.1667 211.833,31.1667 212.5,32.5C 201.664,43.5014 190.331,54.0014 178.5,64C 179.416,64.2784 180.082,64.7784 180.5,65.5C 171.5,65.5 162.5,65.5 153.5,65.5C 154.919,64.5489 156.585,64.2155 158.5,64.5C 162.226,64.8226 165.893,64.4892 169.5,63.5C 183.118,52.5522 196.451,41.2189 209.5,29.5 Z"/></g>
<g><path style="opacity:1" fill="#09e8fd" d="M 222.5,42.5 C 224.5,43.8333 226.167,45.5 227.5,47.5C 220.585,52.4093 214.252,58.076 208.5,64.5C 209.602,65.1757 210.602,65.8423 211.5,66.5C 209.05,66.702 206.717,66.3686 204.5,65.5C 202.735,64.5386 200.735,64.2053 198.5,64.5C 206.038,56.7193 214.038,49.3859 222.5,42.5 Z"/></g>
<g><path style="opacity:1" fill="#06bbfe" d="M 228.5,49.5 C 230.063,50.9448 231.396,52.6115 232.5,54.5C 227.922,58.5748 223.422,62.9081 219,67.5C 218.51,68.7932 218.343,70.1266 218.5,71.5C 216.326,71.2503 214.659,70.2503 213.5,68.5C 213.586,67.5041 213.252,66.6708 212.5,66C 216.449,62.7265 219.616,58.8931 222,54.5C 224.172,52.7965 226.339,51.1298 228.5,49.5 Z"/></g>
<g><path style="opacity:1" fill="#0ad2fd" d="M 227.5,47.5 C 227.833,48.1667 228.167,48.8333 228.5,49.5C 226.339,51.1298 224.172,52.7965 222,54.5C 219.616,58.8931 216.449,62.7265 212.5,66C 213.252,66.6708 213.586,67.5041 213.5,68.5C 212.5,68.1667 211.833,67.5 211.5,66.5C 210.602,65.8423 209.602,65.1757 208.5,64.5C 214.252,58.076 220.585,52.4093 227.5,47.5 Z"/></g>
<g><path style="opacity:0.96" fill="#029ffe" d="M 232.5,54.5 C 233.833,56.5 235.167,58.5 236.5,60.5C 230.921,63.9051 225.755,67.9051 221,72.5C 220.536,73.0944 220.369,73.7611 220.5,74.5C 218.952,74.1788 218.285,73.1788 218.5,71.5C 218.343,70.1266 218.51,68.7932 219,67.5C 223.422,62.9081 227.922,58.5748 232.5,54.5 Z"/></g>
<g><path style="opacity:1" fill="#0387fe" d="M 236.5,60.5 C 237.833,62.8333 239.167,65.1667 240.5,67.5C 235.482,70.0044 231.149,73.5044 227.5,78C 226.552,78.4828 225.552,78.6495 224.5,78.5C 224.795,80.7354 224.461,82.7354 223.5,84.5C 223.795,82.2646 223.461,80.2646 222.5,78.5C 221.194,77.5326 220.527,76.1993 220.5,74.5C 220.369,73.7611 220.536,73.0944 221,72.5C 225.755,67.9051 230.921,63.9051 236.5,60.5 Z"/></g>
<g><path style="opacity:1" fill="#495ae4" d="M 240.5,67.5 C 241.11,68.391 241.443,69.391 241.5,70.5C 240.976,73.1878 239.309,74.6878 236.5,75C 232.966,78.8689 229.133,82.3689 225,85.5C 224.5,92.8258 224.334,100.159 224.5,107.5C 224.5,117.5 224.5,127.5 224.5,137.5C 224.5,146.167 224.5,154.833 224.5,163.5C 224.5,166.833 224.5,170.167 224.5,173.5C 224.5,178.5 224.5,183.5 224.5,188.5C 224.5,190.833 224.5,193.167 224.5,195.5C 224.672,196.492 224.338,197.158 223.5,197.5C 223.5,159.833 223.5,122.167 223.5,84.5C 224.461,82.7354 224.795,80.7354 224.5,78.5C 225.552,78.6495 226.552,78.4828 227.5,78C 231.149,73.5044 235.482,70.0044 240.5,67.5 Z"/></g>
<g><path style="opacity:0.961" fill="#0241fe" d="M 241.5,70.5 C 243.204,73.2558 244.537,76.2558 245.5,79.5C 239.196,85.6339 232.696,91.6339 226,97.5C 225.821,101.025 225.321,104.359 224.5,107.5C 224.334,100.159 224.5,92.8258 225,85.5C 229.133,82.3689 232.966,78.8689 236.5,75C 239.309,74.6878 240.976,73.1878 241.5,70.5 Z"/></g>
<g><path style="opacity:1" fill="#df9311" d="M 222.5,78.5 C 223.461,80.2646 223.795,82.2646 223.5,84.5C 223.5,122.167 223.5,159.833 223.5,197.5C 221.682,206.65 216.349,212.65 207.5,215.5C 155.791,216.825 104.125,216.825 52.5,215.5C 50.8333,215.5 49.1667,215.5 47.5,215.5C 43.4116,213.709 39.7449,211.376 36.5,208.5C 36.0113,207.005 35.3446,205.671 34.5,204.5C 33.5264,169.191 33.1931,133.858 33.5,98.5C 35.1788,98.7148 36.1788,98.0481 36.5,96.5C 37.5,96.5 38.5,96.5 39.5,96.5C 39.5,95.1667 39.5,93.8333 39.5,92.5C 41.9294,92.1156 44.2627,91.449 46.5,90.5C 100.428,89.5046 154.428,89.1713 208.5,89.5C 213.132,89.4651 215.465,91.7984 215.5,96.5C 217.492,96.3285 219.158,96.9951 220.5,98.5C 221.167,91.6786 221.833,85.0119 222.5,78.5 Z"/></g>
<g><path style="opacity:1" fill="#f5fd00" d="M 31.5,71.5 C 27.8689,72.6076 24.8689,74.7742 22.5,78C 21.5,78.3333 20.5,78.6667 19.5,79C 13.9673,85.3628 8.30066,91.5295 2.5,97.5C 3.59489,92.2152 5.26156,87.2152 7.5,82.5C 7.55999,83.0431 7.89333,83.3764 8.5,83.5C 16.5085,77.3244 23.6751,70.3244 30,62.5C 31.3919,65.2784 31.8919,68.2784 31.5,71.5 Z"/></g>
<g><path style="opacity:0.996" fill="#d7a024" d="M 35.5,54.5 C 34.4218,68.8121 34.2551,83.1454 35,97.5C 35.3826,96.944 35.8826,96.6107 36.5,96.5C 36.1788,98.0481 35.1788,98.7148 33.5,98.5C 33.1931,133.858 33.5264,169.191 34.5,204.5C 33.6554,203.329 32.9887,201.995 32.5,200.5C 32.5,158.5 32.5,116.5 32.5,74.5C 32.3342,69.8215 32.5008,65.1548 33,60.5C 33.5662,58.2774 34.3995,56.2774 35.5,54.5 Z"/></g>
<g><path style="opacity:1" fill="#e9ad43" d="M 208.5,89.5 C 154.428,89.1713 100.428,89.5046 46.5,90.5C 73.1583,89.1668 100.158,88.5002 127.5,88.5C 154.669,88.5 181.669,88.8334 208.5,89.5 Z"/></g>
<g><path style="opacity:0.977" fill="#d9fe00" d="M 31.5,71.5 C 31.5,72.5 31.5,73.5 31.5,74.5C 31.5,76.8333 31.5,79.1667 31.5,81.5C 31.1667,81.5 30.8333,81.5 30.5,81.5C 24.7255,86.4431 19.3922,91.9431 14.5,98C 9.34584,101.006 4.67918,104.506 0.5,108.5C 0.911102,104.779 1.57777,101.112 2.5,97.5C 8.30066,91.5295 13.9673,85.3628 19.5,79C 20.5,78.6667 21.5,78.3333 22.5,78C 24.8689,74.7742 27.8689,72.6076 31.5,71.5 Z"/></g>
<g><path style="opacity:1" fill="#92fe00" d="M 30.5,93.5 C 30.373,97.2618 29.7063,100.928 28.5,104.5C 22.7218,106.832 17.8885,110.499 14,115.5C 13.51,116.793 13.3433,118.127 13.5,119.5C 12.448,119.351 11.448,119.517 10.5,120C 7.47572,123.825 3.80906,126.658 -0.5,128.5C -0.5,126.5 -0.5,124.5 -0.5,122.5C 7.9498,113.88 16.2831,105.047 24.5,96C 26.286,95.2155 27.786,94.0488 29,92.5C 29.3826,93.056 29.8826,93.3893 30.5,93.5 Z"/></g>
<g><path style="opacity:1" fill="#b1fe00" d="M 30.5,81.5 C 30.5,85.5 30.5,89.5 30.5,93.5C 29.8826,93.3893 29.3826,93.056 29,92.5C 27.786,94.0488 26.286,95.2155 24.5,96C 16.2831,105.047 7.9498,113.88 -0.5,122.5C -0.5,118.833 -0.5,115.167 -0.5,111.5C 0.403972,110.791 0.737305,109.791 0.5,108.5C 4.67918,104.506 9.34584,101.006 14.5,98C 19.3922,91.9431 24.7255,86.4431 30.5,81.5 Z"/></g>
<g><path style="opacity:1" fill="#2d05fe" d="M 245.5,79.5 C 250.513,91.2213 253.513,103.555 254.5,116.5C 252.988,118.317 250.988,119.317 248.5,119.5C 248.297,121.638 247.297,123.305 245.5,124.5C 242.043,126.127 238.71,127.96 235.5,130C 233.251,131.745 231.584,133.912 230.5,136.5C 228.719,138.546 226.719,138.88 224.5,137.5C 224.5,127.5 224.5,117.5 224.5,107.5C 225.321,104.359 225.821,101.025 226,97.5C 232.696,91.6339 239.196,85.6339 245.5,79.5 Z"/></g>
<g><path style="opacity:1" fill="#6ef810" d="M 30.5,81.5 C 30.8333,81.5 31.1667,81.5 31.5,81.5C 31.8308,104.006 31.4974,126.34 30.5,148.5C 30.8322,137.147 30.4988,125.814 29.5,114.5C 27.1333,117.347 24.1333,119.18 20.5,120C 13.578,126.762 6.57801,133.262 -0.5,139.5C -0.5,135.833 -0.5,132.167 -0.5,128.5C 3.80906,126.658 7.47572,123.825 10.5,120C 11.448,119.517 12.448,119.351 13.5,119.5C 13.3433,118.127 13.51,116.793 14,115.5C 17.8885,110.499 22.7218,106.832 28.5,104.5C 29.7063,100.928 30.373,97.2618 30.5,93.5C 30.5,89.5 30.5,85.5 30.5,81.5 Z"/></g>
<g><path style="opacity:1" fill="#7e01fe" d="M 254.5,116.5 C 254.5,120.833 254.5,125.167 254.5,129.5C 246.484,138.516 237.817,146.85 228.5,154.5C 226.432,157.285 225.098,160.285 224.5,163.5C 224.5,154.833 224.5,146.167 224.5,137.5C 226.719,138.88 228.719,138.546 230.5,136.5C 231.584,133.912 233.251,131.745 235.5,130C 238.71,127.96 242.043,126.127 245.5,124.5C 247.297,123.305 248.297,121.638 248.5,119.5C 250.988,119.317 252.988,118.317 254.5,116.5 Z"/></g>
<g><path style="opacity:1" fill="#a701fe" d="M 254.5,129.5 C 254.818,134.032 254.485,138.366 253.5,142.5C 246.482,147.04 240.149,152.54 234.5,159C 230.138,159.692 227.304,162.192 226,166.5C 225.814,169.036 225.314,171.369 224.5,173.5C 224.5,170.167 224.5,166.833 224.5,163.5C 225.098,160.285 226.432,157.285 228.5,154.5C 237.817,146.85 246.484,138.516 254.5,129.5 Z"/></g>
<g><path style="opacity:0.995" fill="#c202fe" d="M 253.5,142.5 C 253.599,145.237 253.265,147.904 252.5,150.5C 243.311,157.342 234.644,165.009 226.5,173.5C 225.879,178.632 225.213,183.632 224.5,188.5C 224.5,183.5 224.5,178.5 224.5,173.5C 225.314,171.369 225.814,169.036 226,166.5C 227.304,162.192 230.138,159.692 234.5,159C 240.149,152.54 246.482,147.04 253.5,142.5 Z"/></g>
<g><path style="opacity:0.978" fill="#21fe08" d="M 30.5,148.5 C 30.5,149.167 30.5,149.833 30.5,150.5C 29.5416,150.953 28.7083,151.619 28,152.5C 27.9208,157.502 25.4208,160.335 20.5,161C 15.9207,165.074 11.9207,169.574 8.5,174.5C 4.24976,164.163 1.24976,153.497 -0.5,142.5C -0.5,141.5 -0.5,140.5 -0.5,139.5C 6.57801,133.262 13.578,126.762 20.5,120C 24.1333,119.18 27.1333,117.347 29.5,114.5C 30.4988,125.814 30.8322,137.147 30.5,148.5 Z"/></g>
<g><path style="opacity:1" fill="#e300fe" d="M 252.5,150.5 C 251.815,155.239 250.815,159.905 249.5,164.5C 247.628,165.511 245.628,166.345 243.5,167C 239.007,172.993 233.673,178.159 227.5,182.5C 226.618,185.791 225.952,189.124 225.5,192.5C 225.737,193.791 225.404,194.791 224.5,195.5C 224.5,193.167 224.5,190.833 224.5,188.5C 225.213,183.632 225.879,178.632 226.5,173.5C 234.644,165.009 243.311,157.342 252.5,150.5 Z"/></g>
<g><path style="opacity:1" fill="#fa00f9" d="M 249.5,164.5 C 247.595,171.231 244.929,177.564 241.5,183.5C 237.289,184.193 233.955,186.36 231.5,190C 229.372,190.655 227.372,191.489 225.5,192.5C 225.952,189.124 226.618,185.791 227.5,182.5C 233.673,178.159 239.007,172.993 243.5,167C 245.628,166.345 247.628,165.511 249.5,164.5 Z"/></g>
<g><path style="opacity:0.886" fill="#00fe3c" d="M 30.5,150.5 C 30.5,153.833 30.5,157.167 30.5,160.5C 28.5541,162.734 27.3874,165.401 27,168.5C 24.4883,170.709 22.3216,173.209 20.5,176C 16.6812,177.32 14.0145,179.82 12.5,183.5C 10.7962,180.744 9.46291,177.744 8.5,174.5C 11.9207,169.574 15.9207,165.074 20.5,161C 25.4208,160.335 27.9208,157.502 28,152.5C 28.7083,151.619 29.5416,150.953 30.5,150.5 Z"/></g>
<g><path style="opacity:0.991" fill="#01fd66" d="M 30.5,160.5 C 30.7693,167.091 29.6026,173.425 27,179.5C 23.2287,182.959 19.3954,186.292 15.5,189.5C 13.9925,187.819 12.9925,185.819 12.5,183.5C 14.0145,179.82 16.6812,177.32 20.5,176C 22.3216,173.209 24.4883,170.709 27,168.5C 27.3874,165.401 28.5541,162.734 30.5,160.5 Z"/></g>
<g><path style="opacity:0.984" fill="#53e371" d="M 31.5,74.5 C 31.8333,74.5 32.1667,74.5 32.5,74.5C 32.5,116.5 32.5,158.5 32.5,200.5C 31.6698,190.675 31.1698,180.675 31,170.5C 30.5034,172.81 30.3367,175.143 30.5,177.5C 29.8292,180.758 28.9958,184.091 28,187.5C 25.2709,190.399 22.4376,193.066 19.5,195.5C 17.684,193.882 16.3507,191.882 15.5,189.5C 19.3954,186.292 23.2287,182.959 27,179.5C 29.6026,173.425 30.7693,167.091 30.5,160.5C 30.5,157.167 30.5,153.833 30.5,150.5C 30.5,149.833 30.5,149.167 30.5,148.5C 31.4974,126.34 31.8308,104.006 31.5,81.5C 31.5,79.1667 31.5,76.8333 31.5,74.5 Z"/></g>
<g><path style="opacity:0.877" fill="#f906cd" d="M 241.5,183.5 C 227.731,212.223 206.064,232.556 176.5,244.5C 179.866,239.623 183.866,235.123 188.5,231C 193.796,227.346 199.129,223.679 204.5,220C 203.906,219.536 203.239,219.369 202.5,219.5C 202.5,219.167 202.5,218.833 202.5,218.5C 203.492,218.672 204.158,218.338 204.5,217.5C 206.027,217.573 207.027,216.906 207.5,215.5C 216.349,212.65 221.682,206.65 223.5,197.5C 224.338,197.158 224.672,196.492 224.5,195.5C 225.404,194.791 225.737,193.791 225.5,192.5C 227.372,191.489 229.372,190.655 231.5,190C 233.955,186.36 237.289,184.193 241.5,183.5 Z"/></g>
<g><path style="opacity:0.999" fill="#04fcb1" d="M 30.5,177.5 C 30.6664,185.84 30.4997,194.173 30,202.5C 28.9609,203.71 27.7942,204.71 26.5,205.5C 23.3954,202.725 21.0621,199.392 19.5,195.5C 22.4376,193.066 25.2709,190.399 28,187.5C 28.9958,184.091 29.8292,180.758 30.5,177.5 Z"/></g>
<g><path style="opacity:0.992" fill="#17f0de" d="M 32.5,200.5 C 32.9887,201.995 33.6554,203.329 34.5,204.5C 35.3446,205.671 36.0113,207.005 36.5,208.5C 36.317,210.936 36.9837,213.103 38.5,215C 37.6634,216.011 37.33,217.178 37.5,218.5C 33.4874,214.485 29.8207,210.152 26.5,205.5C 27.7942,204.71 28.9609,203.71 30,202.5C 30.4997,194.173 30.6664,185.84 30.5,177.5C 30.3367,175.143 30.5034,172.81 31,170.5C 31.1698,180.675 31.6698,190.675 32.5,200.5 Z"/></g>
<g><path style="opacity:1" fill="#c08a15" d="M 52.5,215.5 C 104.125,216.825 155.791,216.825 207.5,215.5C 207.027,216.906 206.027,217.573 204.5,217.5C 153.489,218.162 102.822,217.495 52.5,215.5 Z"/></g>
<g><path style="opacity:1" fill="#58663b" d="M 47.5,215.5 C 49.1667,215.5 50.8333,215.5 52.5,215.5C 102.822,217.495 153.489,218.162 204.5,217.5C 204.158,218.338 203.492,218.672 202.5,218.5C 199.833,218.5 197.167,218.5 194.5,218.5C 158.573,219.493 122.573,219.826 86.5,219.5C 75.8125,219.646 65.1459,219.312 54.5,218.5C 52.901,218.768 51.5676,218.434 50.5,217.5C 49.5,216.833 48.5,216.167 47.5,215.5 Z"/></g>
<g><path style="opacity:0.995" fill="#18bdf1" d="M 36.5,208.5 C 39.7449,211.376 43.4116,213.709 47.5,215.5C 48.5,216.167 49.5,216.833 50.5,217.5C 49.7611,217.369 49.0944,217.536 48.5,218C 49.5981,221.443 48.2647,223.609 44.5,224.5C 42.1415,222.471 39.8082,220.471 37.5,218.5C 37.33,217.178 37.6634,216.011 38.5,215C 36.9837,213.103 36.317,210.936 36.5,208.5 Z"/></g>
<g><path style="opacity:0.922" fill="#592fb5" d="M 194.5,218.5 C 191.663,220.402 188.329,221.069 184.5,220.5C 181.167,220.5 177.833,220.5 174.5,220.5C 169.833,220.5 165.167,220.5 160.5,220.5C 156.833,220.5 153.167,220.5 149.5,220.5C 143.833,220.5 138.167,220.5 132.5,220.5C 120.833,220.5 109.167,220.5 97.5,220.5C 94.1667,220.5 90.8333,220.5 87.5,220.5C 87.1667,220.5 86.8333,220.5 86.5,220.5C 86.5,220.167 86.5,219.833 86.5,219.5C 122.573,219.826 158.573,219.493 194.5,218.5 Z"/></g>
<g><path style="opacity:0.993" fill="#0985e8" d="M 54.5,218.5 C 65.1459,219.312 75.8125,219.646 86.5,219.5C 86.5,219.833 86.5,220.167 86.5,220.5C 82.1667,220.5 77.8333,220.5 73.5,220.5C 69.1161,220.174 64.7828,220.508 60.5,221.5C 58.1446,224.32 55.4779,226.654 52.5,228.5C 50.9719,228.483 50.4719,227.816 51,226.5C 53.1487,225.348 54.982,223.848 56.5,222C 57.0485,220.404 56.3818,219.237 54.5,218.5 Z"/></g>
<g><path style="opacity:1" fill="#03a7fd" d="M 50.5,217.5 C 51.5676,218.434 52.901,218.768 54.5,218.5C 56.3818,219.237 57.0485,220.404 56.5,222C 54.982,223.848 53.1487,225.348 51,226.5C 50.4719,227.816 50.9719,228.483 52.5,228.5C 52.1667,229.167 51.8333,229.833 51.5,230.5C 48.9401,228.727 46.6068,226.727 44.5,224.5C 48.2647,223.609 49.5981,221.443 48.5,218C 49.0944,217.536 49.7611,217.369 50.5,217.5 Z"/></g>
<g><path style="opacity:1" fill="#027dfe" d="M 73.5,220.5 C 71.8798,222.413 69.8798,223.747 67.5,224.5C 67.5674,227.766 65.9008,229.266 62.5,229C 60.8863,231.127 58.8863,232.627 56.5,233.5C 54.6675,232.752 53.0009,231.752 51.5,230.5C 51.8333,229.833 52.1667,229.167 52.5,228.5C 55.4779,226.654 58.1446,224.32 60.5,221.5C 64.7828,220.508 69.1161,220.174 73.5,220.5 Z"/></g>
<g><path style="opacity:0.997" fill="#0139fe" d="M 87.5,220.5 C 90.8333,220.5 94.1667,220.5 97.5,220.5C 96.0484,221.302 94.3817,221.802 92.5,222C 85.2955,228.708 77.9621,235.208 70.5,241.5C 68.1815,241.008 66.1815,240.008 64.5,238.5C 69.1057,235.067 72.7724,230.9 75.5,226C 79.4485,223.841 83.4485,222.008 87.5,220.5 Z"/></g>
<g><path style="opacity:0.955" fill="#0257fe" d="M 73.5,220.5 C 77.8333,220.5 82.1667,220.5 86.5,220.5C 86.8333,220.5 87.1667,220.5 87.5,220.5C 83.4485,222.008 79.4485,223.841 75.5,226C 72.7724,230.9 69.1057,235.067 64.5,238.5C 61.4604,237.32 58.7937,235.653 56.5,233.5C 58.8863,232.627 60.8863,231.127 62.5,229C 65.9008,229.266 67.5674,227.766 67.5,224.5C 69.8798,223.747 71.8798,222.413 73.5,220.5 Z"/></g>
<g><path style="opacity:1" fill="#ed01fd" d="M 194.5,218.5 C 197.167,218.5 199.833,218.5 202.5,218.5C 202.5,218.833 202.5,219.167 202.5,219.5C 198.642,220.839 194.642,221.673 190.5,222C 180.635,231.033 170.969,240.2 161.5,249.5C 155.493,251.836 149.159,253.169 142.5,253.5C 147.589,247.58 153.256,242.08 159.5,237C 163.868,232.967 167.868,228.634 171.5,224C 175.764,222.154 180.097,220.987 184.5,220.5C 188.329,221.069 191.663,220.402 194.5,218.5 Z"/></g>
<g><path style="opacity:1" fill="#a600fe" d="M 160.5,220.5 C 165.167,220.5 169.833,220.5 174.5,220.5C 171.242,221.171 167.909,222.004 164.5,223C 153.027,233.256 141.694,243.756 130.5,254.5C 127.833,254.5 125.167,254.5 122.5,254.5C 132.661,244.329 142.994,234.662 153.5,225.5C 153.5,224.167 153.5,222.833 153.5,221.5C 156.059,221.802 158.393,221.468 160.5,220.5 Z"/></g>
<g><path style="opacity:0.929" fill="#fe00ed" d="M 202.5,219.5 C 203.239,219.369 203.906,219.536 204.5,220C 199.129,223.679 193.796,227.346 188.5,231C 183.866,235.123 179.866,239.623 176.5,244.5C 171.915,247.14 166.915,248.806 161.5,249.5C 170.969,240.2 180.635,231.033 190.5,222C 194.642,221.673 198.642,220.839 202.5,219.5 Z"/></g>
<g><path style="opacity:1" fill="#c200fe" d="M 174.5,220.5 C 177.833,220.5 181.167,220.5 184.5,220.5C 180.097,220.987 175.764,222.154 171.5,224C 167.868,228.634 163.868,232.967 159.5,237C 153.256,242.08 147.589,247.58 142.5,253.5C 138.6,254.43 134.6,254.763 130.5,254.5C 141.694,243.756 153.027,233.256 164.5,223C 167.909,222.004 171.242,221.171 174.5,220.5 Z"/></g>
<g><path style="opacity:1" fill="#8d00fe" d="M 149.5,220.5 C 153.167,220.5 156.833,220.5 160.5,220.5C 158.393,221.468 156.059,221.802 153.5,221.5C 153.5,222.833 153.5,224.167 153.5,225.5C 142.994,234.662 132.661,244.329 122.5,254.5C 118.958,254.813 115.625,254.479 112.5,253.5C 120.328,244.838 128.662,236.672 137.5,229C 138.833,228.667 140.167,228.333 141.5,228C 143.759,224.902 146.426,222.402 149.5,220.5 Z"/></g>
<g><path style="opacity:0.938" fill="#2b06fe" d="M 97.5,220.5 C 109.167,220.5 120.833,220.5 132.5,220.5C 132.611,221.117 132.944,221.617 133.5,222C 122.234,231.284 111.901,241.451 102.5,252.5C 91.1936,250.399 80.5269,246.732 70.5,241.5C 77.9621,235.208 85.2955,228.708 92.5,222C 94.3817,221.802 96.0484,221.302 97.5,220.5 Z"/></g>
<g><path style="opacity:1" fill="#6800fe" d="M 132.5,220.5 C 138.167,220.5 143.833,220.5 149.5,220.5C 146.426,222.402 143.759,224.902 141.5,228C 140.167,228.333 138.833,228.667 137.5,229C 128.662,236.672 120.328,244.838 112.5,253.5C 109.119,253.54 105.786,253.207 102.5,252.5C 111.901,241.451 122.234,231.284 133.5,222C 132.944,221.617 132.611,221.117 132.5,220.5 Z"/></g>
</svg>
