<?xml version="1.0" encoding="UTF-8"?>
<!DOCTYPE svg PUBLIC "-//W3C//DTD SVG 1.1//EN" "http://www.w3.org/Graphics/SVG/1.1/DTD/svg11.dtd">
<svg xmlns="http://www.w3.org/2000/svg" version="1.1" width="256px" height="256px" style="shape-rendering:geometricPrecision; text-rendering:geometricPrecision; image-rendering:optimizeQuality; fill-rule:evenodd; clip-rule:evenodd" xmlns:xlink="http://www.w3.org/1999/xlink">
<g><path style="opacity:0.854" fill="#fefefe" d="M 90.5,20.5 C 98.6772,19.8769 106.011,22.0435 112.5,27C 133.931,46.8812 157.598,49.8812 183.5,36C 192.552,33.3473 197.719,36.8473 199,46.5C 199.464,61.2285 198.631,75.8952 196.5,90.5C 196.833,91.8333 197.167,93.1667 197.5,94.5C 204.712,90.7272 212.045,87.2272 219.5,84C 222.5,83.3333 225.5,83.3333 228.5,84C 229.701,84.9025 230.535,86.0692 231,87.5C 231.723,103.664 227.39,118.331 218,131.5C 208.218,143.948 196.552,154.281 183,162.5C 179.68,171.973 175.18,180.807 169.5,189C 179.849,189.52 184.849,195.02 184.5,205.5C 183.742,212.438 180.075,217.272 173.5,220C 167.569,221.471 161.569,221.804 155.5,221C 153.413,220.208 151.579,219.041 150,217.5C 149.825,213.789 149.325,210.122 148.5,206.5C 146.289,207.123 144.289,208.123 142.5,209.5C 148.47,223.421 143.804,231.588 128.5,234C 120.264,235.995 113.098,234.162 107,228.5C 103.368,220.527 104.868,213.527 111.5,207.5C 99.2516,202.085 90.0849,193.418 84,181.5C 81.1992,174.929 78.6992,168.262 76.5,161.5C 63.473,153.389 51.6396,143.722 41,132.5C 26.7544,116.425 21.4211,97.758 25,76.5C 27.9416,69.9608 32.7749,68.1275 39.5,71C 50.1358,76.5678 60.9691,81.7344 72,86.5C 72.6667,85.8333 73.3333,85.1667 74,84.5C 75.1726,71.9021 76.1726,59.2354 77,46.5C 77.951,39.0253 80.2843,32.0253 84,25.5C 85.9651,23.4497 88.1318,21.783 90.5,20.5 Z"/></g>
<g><path style="opacity:1" fill="#ff6200" d="M 103.5,29.5 C 98.1995,33.1546 93.5328,37.4879 89.5,42.5C 87.472,43.549 85.472,44.549 83.5,45.5C 84.2448,39.0101 86.5782,33.1768 90.5,28C 95.1926,25.8956 99.5259,26.3956 103.5,29.5 Z"/></g>
<g><path style="opacity:1" fill="#ffa200" d="M 108.5,32.5 C 109.5,32.8333 110.167,33.5 110.5,34.5C 106.364,36.8067 102.364,39.3067 98.5,42C 94.1462,47.6746 88.8129,52.1746 82.5,55.5C 82.5,54.1667 82.5,52.8333 82.5,51.5C 85.4293,49.0184 88.4293,46.5184 91.5,44C 96.381,42.4495 100.048,39.4495 102.5,35C 104.42,33.8777 106.42,33.0444 108.5,32.5 Z"/></g>
<g><path style="opacity:1" fill="#ff8800" d="M 103.5,29.5 C 105.674,29.7497 107.341,30.7497 108.5,32.5C 106.42,33.0444 104.42,33.8777 102.5,35C 100.048,39.4495 96.381,42.4495 91.5,44C 88.4293,46.5184 85.4293,49.0184 82.5,51.5C 83.1495,49.5648 83.4828,47.5648 83.5,45.5C 85.472,44.549 87.472,43.549 89.5,42.5C 93.5328,37.4879 98.1995,33.1546 103.5,29.5 Z"/></g>
<g><path style="opacity:1" fill="#ffca00" d="M 110.5,34.5 C 112.754,35.1237 114.421,36.457 115.5,38.5C 111.87,42.9536 107.204,45.9536 101.5,47.5C 94.779,52.8484 88.1123,58.1817 81.5,63.5C 81.8333,60.8333 82.1667,58.1667 82.5,55.5C 88.8129,52.1746 94.1462,47.6746 98.5,42C 102.364,39.3067 106.364,36.8067 110.5,34.5 Z"/></g>
<g><path style="opacity:1" fill="#ffec00" d="M 115.5,38.5 C 116.71,38.9321 117.71,39.5987 118.5,40.5C 108.418,47.0791 98.7509,54.2458 89.5,62C 86.5624,62.6958 83.8957,63.8625 81.5,65.5C 81.5,64.8333 81.5,64.1667 81.5,63.5C 88.1123,58.1817 94.779,52.8484 101.5,47.5C 107.204,45.9536 111.87,42.9536 115.5,38.5 Z"/></g>
<g><path style="opacity:1" fill="#07fec3" d="M 192.5,48.5 C 193.833,52.5 193.833,56.5 192.5,60.5C 189.095,64.2308 185.095,67.2308 180.5,69.5C 178.01,67.6436 175.344,66.3103 172.5,65.5C 179.167,59.8333 185.833,54.1667 192.5,48.5 Z"/></g>
<g><path style="opacity:1" fill="#eafe00" d="M 118.5,40.5 C 119.71,40.9321 120.71,41.5987 121.5,42.5C 118.855,47.855 114.522,51.355 108.5,53C 99.8302,60.0926 90.8302,66.9259 81.5,73.5C 81.5,70.8333 81.5,68.1667 81.5,65.5C 83.8957,63.8625 86.5624,62.6958 89.5,62C 98.7509,54.2458 108.418,47.0791 118.5,40.5 Z"/></g>
<g><path style="opacity:0.889" fill="#fefffe" d="M 110.5,62.5 C 116.528,62.0166 121.528,64.0166 125.5,68.5C 127.692,71.5498 129.358,74.8832 130.5,78.5C 131.219,80.7638 131.552,83.0971 131.5,85.5C 131.5,86.5 131.5,87.5 131.5,88.5C 131.167,90.5 130.833,92.5 130.5,94.5C 127.717,102.285 122.383,107.285 114.5,109.5C 112.833,109.5 111.167,109.5 109.5,109.5C 108.833,109.167 108.167,108.833 107.5,108.5C 105.517,107.529 103.517,106.529 101.5,105.5C 100.5,103.833 99.1667,102.5 97.5,101.5C 94.4333,95.5621 93.0999,89.2287 93.5,82.5C 93.8288,80.0092 94.8288,77.8425 96.5,76C 104.312,76.8762 106.646,73.7095 103.5,66.5C 105.052,63.8881 107.386,62.5548 110.5,62.5 Z"/></g>
<g><path style="opacity:1" fill="#6aff02" d="M 131.5,47.5 C 135.152,48.629 138.818,49.629 142.5,50.5C 138.966,53.4377 135.633,56.6043 132.5,60C 127.343,60.9169 125.01,63.7503 125.5,68.5C 121.528,64.0166 116.528,62.0166 110.5,62.5C 110.5,61.5 110.5,60.5 110.5,59.5C 114.607,57.4002 118.94,55.5669 123.5,54C 126.42,52.0539 129.087,49.8872 131.5,47.5 Z"/></g>
<g><path style="opacity:1" fill="#bbff00" d="M 121.5,42.5 C 124.899,44.1993 128.232,45.866 131.5,47.5C 129.087,49.8872 126.42,52.0539 123.5,54C 118.94,55.5669 114.607,57.4002 110.5,59.5C 110.5,60.5 110.5,61.5 110.5,62.5C 107.386,62.5548 105.052,63.8881 103.5,66.5C 96.7519,70.092 90.7519,74.592 85.5,80C 84.0993,80.4101 82.766,80.9101 81.5,81.5C 81.5,78.8333 81.5,76.1667 81.5,73.5C 90.8302,66.9259 99.8302,60.0926 108.5,53C 114.522,51.355 118.855,47.855 121.5,42.5 Z"/></g>
<g><path style="opacity:0.888" fill="#fefefe" d="M 172.5,65.5 C 175.344,66.3103 178.01,67.6436 180.5,69.5C 181.902,71.8754 183.235,74.2088 184.5,76.5C 185.265,79.0961 185.599,81.7628 185.5,84.5C 185.5,86.8333 185.5,89.1667 185.5,91.5C 183.196,101.81 176.863,107.476 166.5,108.5C 164.78,107.692 163.113,106.692 161.5,105.5C 159.804,103.475 158.137,101.475 156.5,99.5C 155.962,97.8828 155.629,96.2161 155.5,94.5C 154.631,92.283 154.298,89.9496 154.5,87.5C 154.092,81.0489 156.592,79.3822 162,82.5C 166.438,78.7769 166.604,74.7769 162.5,70.5C 164.992,67.3253 168.326,65.6586 172.5,65.5 Z"/></g>
<g><path style="opacity:1" fill="#08f6f7" d="M 192.5,60.5 C 192.5,64.1667 192.5,67.8333 192.5,71.5C 190.206,73.653 187.54,75.3197 184.5,76.5C 183.235,74.2088 181.902,71.8754 180.5,69.5C 185.095,67.2308 189.095,64.2308 192.5,60.5 Z"/></g>
<g><path style="opacity:1" fill="#18ff0e" d="M 170.5,48.5 C 169.408,51.0631 167.742,53.2297 165.5,55C 155.822,59.8499 147.155,66.1832 139.5,74C 136.315,75.4065 133.315,76.9065 130.5,78.5C 129.358,74.8832 127.692,71.5498 125.5,68.5C 125.01,63.7503 127.343,60.9169 132.5,60C 135.633,56.6043 138.966,53.4377 142.5,50.5C 151.947,50.9399 161.28,50.2732 170.5,48.5 Z"/></g>
<g><path style="opacity:1" fill="#03ff8b" d="M 191.5,44.5 C 192.434,45.5676 192.768,46.901 192.5,48.5C 185.833,54.1667 179.167,59.8333 172.5,65.5C 168.326,65.6586 164.992,67.3253 162.5,70.5C 157.772,75.3687 152.438,79.8687 146.5,84C 142.822,84.0094 140.655,85.8428 140,89.5C 137.876,90.6217 136.043,92.1217 134.5,94C 133.207,94.49 131.873,94.6567 130.5,94.5C 130.833,92.5 131.167,90.5 131.5,88.5C 133.179,88.1077 134.846,87.6077 136.5,87C 142.663,81.4856 149.33,76.819 156.5,73C 158.081,71.172 159.415,69.172 160.5,67C 170.527,61.4873 180.194,55.3206 189.5,48.5C 190.18,47.1401 190.847,45.8068 191.5,44.5 Z"/></g>
<g><path style="opacity:1" fill="#02fe50" d="M 190.5,42.5 C 187.564,44.0979 184.897,46.0979 182.5,48.5C 181.614,49.325 181.281,50.325 181.5,51.5C 169.566,58.6269 157.899,66.4602 146.5,75C 145.552,75.4828 144.552,75.6495 143.5,75.5C 143.67,76.8221 143.337,77.9887 142.5,79C 139.18,81.6634 135.514,83.8301 131.5,85.5C 131.552,83.0971 131.219,80.7638 130.5,78.5C 133.315,76.9065 136.315,75.4065 139.5,74C 147.155,66.1832 155.822,59.8499 165.5,55C 167.742,53.2297 169.408,51.0631 170.5,48.5C 175.531,47.1515 180.198,44.9848 184.5,42C 186.712,41.2109 188.712,41.3775 190.5,42.5 Z"/></g>
<g><path style="opacity:1" fill="#07c1ff" d="M 192.5,71.5 C 191.793,74.7861 191.46,78.1194 191.5,81.5C 189.255,82.0956 187.255,83.0956 185.5,84.5C 185.599,81.7628 185.265,79.0961 184.5,76.5C 187.54,75.3197 190.206,73.653 192.5,71.5 Z"/></g>
<g><path style="opacity:1" fill="#18ff19" d="M 125.5,87.5 C 118.737,91.2113 112.737,95.878 107.5,101.5C 104.448,100.12 102.282,97.7864 101,94.5C 99.8436,90.5817 99.3436,86.5817 99.5,82.5C 107.562,81.2949 111.228,76.7949 110.5,69C 117.252,68.0611 121.752,70.8944 124,77.5C 125.043,80.7568 125.543,84.0901 125.5,87.5 Z"/></g>
<g><path style="opacity:1" fill="#ff6c00" d="M 40.5,78.5 C 37.5996,80.3932 35.2663,82.8932 33.5,86C 32.0993,86.4101 30.766,86.9101 29.5,87.5C 29.7819,84.0903 30.4486,80.757 31.5,77.5C 34.6834,76.1973 37.6834,76.5306 40.5,78.5 Z"/></g>
<g><path style="opacity:1" fill="#01fe71" d="M 190.5,42.5 C 191.338,42.8417 191.672,43.5084 191.5,44.5C 190.847,45.8068 190.18,47.1401 189.5,48.5C 180.194,55.3206 170.527,61.4873 160.5,67C 159.415,69.172 158.081,71.172 156.5,73C 149.33,76.819 142.663,81.4856 136.5,87C 134.846,87.6077 133.179,88.1077 131.5,88.5C 131.5,87.5 131.5,86.5 131.5,85.5C 135.514,83.8301 139.18,81.6634 142.5,79C 143.337,77.9887 143.67,76.8221 143.5,75.5C 144.552,75.6495 145.552,75.4828 146.5,75C 157.899,66.4602 169.566,58.6269 181.5,51.5C 181.281,50.325 181.614,49.325 182.5,48.5C 184.897,46.0979 187.564,44.0979 190.5,42.5 Z"/></g>
<g><path style="opacity:1" fill="#07eafc" d="M 179.5,81.5 C 173.458,85.8901 167.458,90.2235 161.5,94.5C 160.481,92.4595 160.481,90.4595 161.5,88.5C 164.877,87.7291 167.711,86.0624 170,83.5C 171.419,79.4283 171.919,75.4283 171.5,71.5C 176.023,73.3553 178.689,76.6886 179.5,81.5 Z"/></g>
<g><path style="opacity:1" fill="#ff9800" d="M 40.5,78.5 C 42.2838,78.8925 43.9505,79.5592 45.5,80.5C 45.16,82.679 44.16,84.5123 42.5,86C 38.5661,88.4639 34.5661,90.6306 30.5,92.5C 29.5489,91.0813 29.2155,89.4147 29.5,87.5C 30.766,86.9101 32.0993,86.4101 33.5,86C 35.2663,82.8932 37.5996,80.3932 40.5,78.5 Z"/></g>
<g><path style="opacity:1" fill="#0383ff" d="M 191.5,81.5 C 190.781,83.7638 190.448,86.0971 190.5,88.5C 189.341,90.2503 187.674,91.2503 185.5,91.5C 185.5,89.1667 185.5,86.8333 185.5,84.5C 187.255,83.0956 189.255,82.0956 191.5,81.5 Z"/></g>
<g><path style="opacity:1" fill="#ffcc00" d="M 45.5,80.5 C 48.5396,81.6803 51.2063,83.347 53.5,85.5C 52.3862,86.8853 51.3862,88.3853 50.5,90C 43.9436,92.9148 37.6102,96.0815 31.5,99.5C 30.5318,97.3926 30.1984,95.0593 30.5,92.5C 34.5661,90.6306 38.5661,88.4639 42.5,86C 44.16,84.5123 45.16,82.679 45.5,80.5 Z"/></g>
<g><path style="opacity:1" fill="#08c2ff" d="M 179.5,81.5 C 179.5,83.5 179.5,85.5 179.5,87.5C 173.615,90.3888 168.281,94.0555 163.5,98.5C 162.326,97.4863 161.66,96.153 161.5,94.5C 167.458,90.2235 173.458,85.8901 179.5,81.5 Z"/></g>
<g><path style="opacity:1" fill="#01a9ff" d="M 179.5,87.5 C 179.675,89.6208 179.341,91.6208 178.5,93.5C 172.827,93.5007 168.494,95.834 165.5,100.5C 164.5,100.167 163.833,99.5 163.5,98.5C 168.281,94.0555 173.615,90.3888 179.5,87.5 Z"/></g>
<g><path style="opacity:1" fill="#f6f900" d="M 53.5,85.5 C 56.4848,86.3257 59.1515,87.659 61.5,89.5C 57.8638,90.6758 54.8638,92.8424 52.5,96C 47.82,96.6692 44.1534,99.0025 41.5,103C 38.6711,104.356 36.0045,105.856 33.5,107.5C 32.2318,105.095 31.5651,102.428 31.5,99.5C 37.6102,96.0815 43.9436,92.9148 50.5,90C 51.3862,88.3853 52.3862,86.8853 53.5,85.5 Z"/></g>
<g><path style="opacity:1" fill="#d7ff00" d="M 61.5,89.5 C 62.609,89.5569 63.609,89.8902 64.5,90.5C 62.8814,92.1186 61.2147,93.7853 59.5,95.5C 52.2204,97.2989 46.5537,101.299 42.5,107.5C 39.6754,108.255 37.0087,109.255 34.5,110.5C 33.8902,109.609 33.5569,108.609 33.5,107.5C 36.0045,105.856 38.6711,104.356 41.5,103C 44.1534,99.0025 47.82,96.6692 52.5,96C 54.8638,92.8424 57.8638,90.6758 61.5,89.5 Z"/></g>
<g><path style="opacity:1" fill="#03feec" d="M 154.5,87.5 C 154.298,89.9496 154.631,92.283 155.5,94.5C 153.122,95.6924 151.122,97.359 149.5,99.5C 146.545,98.8413 143.545,98.5079 140.5,98.5C 144.715,94.3761 149.382,90.7094 154.5,87.5 Z"/></g>
<g><path style="opacity:1" fill="#04fe5e" d="M 125.5,87.5 C 124.922,96.0344 120.589,101.368 112.5,103.5C 110.443,103.564 108.777,102.898 107.5,101.5C 112.737,95.878 118.737,91.2113 125.5,87.5 Z"/></g>
<g><path style="opacity:0.893" fill="#fefeff" d="M 140.5,98.5 C 143.545,98.5079 146.545,98.8413 149.5,99.5C 150.167,100.833 151.167,101.833 152.5,102.5C 153.864,104.191 155.197,105.858 156.5,107.5C 156.993,109.806 157.326,112.139 157.5,114.5C 157.3,117.63 156.634,120.63 155.5,123.5C 153.465,128.55 149.798,131.217 144.5,131.5C 143.205,130.512 141.872,129.512 140.5,128.5C 140.167,127.5 139.5,126.833 138.5,126.5C 138.167,125.5 137.5,124.833 136.5,124.5C 136.167,123.5 135.5,122.833 134.5,122.5C 133.5,120.833 132.167,119.5 130.5,118.5C 130.672,117.508 130.338,116.842 129.5,116.5C 128.85,114.565 128.517,112.565 128.5,110.5C 128.394,107.921 129.061,105.588 130.5,103.5C 133.554,101.306 136.888,99.6395 140.5,98.5 Z"/></g>
<g><path style="opacity:1" fill="#84ff01" d="M 103.5,66.5 C 106.646,73.7095 104.312,76.8762 96.5,76C 94.8288,77.8425 93.8288,80.0092 93.5,82.5C 75.5593,94.9737 58.5593,108.64 42.5,123.5C 41.0256,122.564 40.0256,121.23 39.5,119.5C 47.2003,112.976 55.2003,106.809 63.5,101C 65.237,97.8827 67.237,95.0493 69.5,92.5C 76.66,92.3418 80.66,88.6752 81.5,81.5C 82.766,80.9101 84.0993,80.4101 85.5,80C 90.7519,74.592 96.7519,70.092 103.5,66.5 Z"/></g>
<g><path style="opacity:1" fill="#03dfff" d="M 155.5,94.5 C 155.629,96.2161 155.962,97.8828 156.5,99.5C 155.564,100.974 154.23,101.974 152.5,102.5C 151.167,101.833 150.167,100.833 149.5,99.5C 151.122,97.359 153.122,95.6924 155.5,94.5 Z"/></g>
<g><path style="opacity:1" fill="#0691ff" d="M 178.5,93.5 C 177.181,98.1524 174.181,101.152 169.5,102.5C 167.829,102.332 166.496,101.665 165.5,100.5C 168.494,95.834 172.827,93.5007 178.5,93.5 Z"/></g>
<g><path style="opacity:1" fill="#0849ff" d="M 190.5,88.5 C 190.244,92.2693 190.577,95.9359 191.5,99.5C 185.361,101.657 180.028,104.991 175.5,109.5C 168.533,113.811 161.866,118.478 155.5,123.5C 156.634,120.63 157.3,117.63 157.5,114.5C 161.049,113.277 164.049,111.277 166.5,108.5C 176.863,107.476 183.196,101.81 185.5,91.5C 187.674,91.2503 189.341,90.2503 190.5,88.5 Z"/></g>
<g><path style="opacity:1" fill="#1cafff" d="M 156.5,99.5 C 158.137,101.475 159.804,103.475 161.5,105.5C 159.447,105.402 157.78,106.069 156.5,107.5C 155.197,105.858 153.864,104.191 152.5,102.5C 154.23,101.974 155.564,100.974 156.5,99.5 Z"/></g>
<g><path style="opacity:1" fill="#07ffb9" d="M 162.5,70.5 C 166.604,74.7769 166.438,78.7769 162,82.5C 156.592,79.3822 154.092,81.0489 154.5,87.5C 149.382,90.7094 144.715,94.3761 140.5,98.5C 136.888,99.6395 133.554,101.306 130.5,103.5C 126.613,105.275 123.279,107.775 120.5,111C 117.95,112.37 115.283,113.537 112.5,114.5C 108.106,120.227 102.773,124.893 96.5,128.5C 95.7379,129.628 95.0712,130.795 94.5,132C 87.0922,135.593 80.7589,140.426 75.5,146.5C 73.9246,147.456 72.258,148.123 70.5,148.5C 68.9731,148.573 67.9731,147.906 67.5,146.5C 73.1181,141.057 79.4514,136.557 86.5,133C 87.1667,132 87.8333,131 88.5,130C 96.6929,126.163 103.86,120.997 110,114.5C 110.483,113.552 110.649,112.552 110.5,111.5C 112.38,111.771 113.713,111.104 114.5,109.5C 122.383,107.285 127.717,102.285 130.5,94.5C 131.873,94.6567 133.207,94.49 134.5,94C 136.043,92.1217 137.876,90.6217 140,89.5C 140.655,85.8428 142.822,84.0094 146.5,84C 152.438,79.8687 157.772,75.3687 162.5,70.5 Z"/></g>
<g><path style="opacity:1" fill="#01c9ff" d="M 147.5,106.5 C 148.906,106.973 149.573,107.973 149.5,109.5C 145.304,111.66 141.304,113.993 137.5,116.5C 136.599,115.71 135.932,114.71 135.5,113.5C 139.172,110.662 143.172,108.329 147.5,106.5 Z"/></g>
<g><path style="opacity:1" fill="#02e8ff" d="M 147.5,106.5 C 143.172,108.329 139.172,110.662 135.5,113.5C 134.155,108.131 136.489,105.131 142.5,104.5C 144.557,104.436 146.223,105.102 147.5,106.5 Z"/></g>
<g><path style="opacity:1" fill="#0579ff" d="M 161.5,105.5 C 163.113,106.692 164.78,107.692 166.5,108.5C 164.049,111.277 161.049,113.277 157.5,114.5C 157.326,112.139 156.993,109.806 156.5,107.5C 157.78,106.069 159.447,105.402 161.5,105.5 Z"/></g>
<g><path style="opacity:1" fill="#a0ff01" d="M 64.5,90.5 C 66.403,90.7959 68.0697,91.4625 69.5,92.5C 67.237,95.0493 65.237,97.8827 63.5,101C 55.2003,106.809 47.2003,112.976 39.5,119.5C 37.4405,116.76 35.7738,113.76 34.5,110.5C 37.0087,109.255 39.6754,108.255 42.5,107.5C 46.5537,101.299 52.2204,97.2989 59.5,95.5C 61.2147,93.7853 62.8814,92.1186 64.5,90.5 Z"/></g>
<g><path style="opacity:1" fill="#02f8fc" d="M 128.5,110.5 C 128.517,112.565 128.85,114.565 129.5,116.5C 126.425,118.37 123.758,120.704 121.5,123.5C 119.885,124.154 118.218,124.654 116.5,125C 111.792,129.343 107.125,133.676 102.5,138C 99.8232,138.249 97.4899,139.249 95.5,141C 90.0921,145.88 84.4255,150.38 78.5,154.5C 76.7697,153.974 75.4363,152.974 74.5,151.5C 81.7215,148.713 87.7215,144.213 92.5,138C 101.095,132.742 109.429,127.075 117.5,121C 120.307,116.597 123.974,113.097 128.5,110.5 Z"/></g>
<g><path style="opacity:1" fill="#02abff" d="M 149.5,109.5 C 150.338,109.842 150.672,110.508 150.5,111.5C 148.717,113.673 146.717,115.84 144.5,118C 143.255,118.791 141.922,119.291 140.5,119.5C 139.167,118.833 138.167,117.833 137.5,116.5C 141.304,113.993 145.304,111.66 149.5,109.5 Z"/></g>
<g><path style="opacity:1" fill="#0480ff" d="M 150.5,111.5 C 151.629,113.628 151.796,115.961 151,118.5C 149.92,120.996 148.586,123.33 147,125.5C 144.336,124.002 142.17,122.002 140.5,119.5C 141.922,119.291 143.255,118.791 144.5,118C 146.717,115.84 148.717,113.673 150.5,111.5 Z"/></g>
<g><path style="opacity:1" fill="#00fe42" d="M 97.5,101.5 C 99.1667,102.5 100.5,103.833 101.5,105.5C 94.7094,111.446 87.7094,117.279 80.5,123C 75.9316,128.059 70.5983,132.226 64.5,135.5C 63.4661,137.841 61.7994,139.507 59.5,140.5C 57.246,139.876 55.5794,138.543 54.5,136.5C 59.9037,133.933 64.237,130.099 67.5,125C 71.6412,123.865 74.9746,121.531 77.5,118C 79.1667,117.667 80.8333,117.333 82.5,117C 87.9937,112.265 92.9937,107.099 97.5,101.5 Z"/></g>
<g><path style="opacity:1" fill="#36ff05" d="M 93.5,82.5 C 93.0999,89.2287 94.4333,95.5621 97.5,101.5C 92.9937,107.099 87.9937,112.265 82.5,117C 80.8333,117.333 79.1667,117.667 77.5,118C 74.9746,121.531 71.6412,123.865 67.5,125C 64.237,130.099 59.9037,133.933 54.5,136.5C 49.7923,132.793 45.7923,128.46 42.5,123.5C 58.5593,108.64 75.5593,94.9737 93.5,82.5 Z"/></g>
<g><path style="opacity:1" fill="#01fe69" d="M 101.5,105.5 C 103.517,106.529 105.517,107.529 107.5,108.5C 107.631,109.239 107.464,109.906 107,110.5C 103.996,112.674 101.163,115.008 98.5,117.5C 86.0563,125.962 73.3897,133.962 60.5,141.5C 59.8333,141.5 59.5,141.167 59.5,140.5C 61.7994,139.507 63.4661,137.841 64.5,135.5C 70.5983,132.226 75.9316,128.059 80.5,123C 87.7094,117.279 94.7094,111.446 101.5,105.5 Z"/></g>
<g><path style="opacity:1" fill="#01fe86" d="M 107.5,108.5 C 108.167,108.833 108.833,109.167 109.5,109.5C 106.343,113.157 103.01,116.657 99.5,120C 90.6403,124.538 82.6403,130.205 75.5,137C 74.552,137.483 73.552,137.649 72.5,137.5C 72.6495,138.552 72.4828,139.552 72,140.5C 69.7131,142.054 67.5465,143.721 65.5,145.5C 63.6115,144.396 61.9448,143.063 60.5,141.5C 73.3897,133.962 86.0563,125.962 98.5,117.5C 101.163,115.008 103.996,112.674 107,110.5C 107.464,109.906 107.631,109.239 107.5,108.5 Z"/></g>
<g><path style="opacity:1" fill="#02d9ff" d="M 129.5,116.5 C 130.338,116.842 130.672,117.508 130.5,118.5C 127.494,123.509 123.161,126.842 117.5,128.5C 112.185,134.989 105.851,140.155 98.5,144C 93.3014,149.026 87.6348,153.526 81.5,157.5C 80.1667,156.833 79.1667,155.833 78.5,154.5C 84.4255,150.38 90.0921,145.88 95.5,141C 97.4899,139.249 99.8232,138.249 102.5,138C 107.125,133.676 111.792,129.343 116.5,125C 118.218,124.654 119.885,124.154 121.5,123.5C 123.758,120.704 126.425,118.37 129.5,116.5 Z"/></g>
<g><path style="opacity:1" fill="#03ffdc" d="M 130.5,103.5 C 129.061,105.588 128.394,107.921 128.5,110.5C 123.974,113.097 120.307,116.597 117.5,121C 109.429,127.075 101.095,132.742 92.5,138C 87.7215,144.213 81.7215,148.713 74.5,151.5C 72.5956,151.262 71.2623,150.262 70.5,148.5C 72.258,148.123 73.9246,147.456 75.5,146.5C 80.7589,140.426 87.0922,135.593 94.5,132C 95.0712,130.795 95.7379,129.628 96.5,128.5C 102.773,124.893 108.106,120.227 112.5,114.5C 115.283,113.537 117.95,112.37 120.5,111C 123.279,107.775 126.613,105.275 130.5,103.5 Z"/></g>
<g><path style="opacity:1" fill="#01fea0" d="M 109.5,109.5 C 111.167,109.5 112.833,109.5 114.5,109.5C 113.713,111.104 112.38,111.771 110.5,111.5C 110.649,112.552 110.483,113.552 110,114.5C 103.86,120.997 96.6929,126.163 88.5,130C 87.8333,131 87.1667,132 86.5,133C 79.4514,136.557 73.1181,141.057 67.5,146.5C 66.5084,146.672 65.8417,146.338 65.5,145.5C 67.5465,143.721 69.7131,142.054 72,140.5C 72.4828,139.552 72.6495,138.552 72.5,137.5C 73.552,137.649 74.552,137.483 75.5,137C 82.6403,130.205 90.6403,124.538 99.5,120C 103.01,116.657 106.343,113.157 109.5,109.5 Z"/></g>
<g><path style="opacity:1" fill="#4400ff" d="M 225.5,95.5 C 224.078,95.7086 222.745,96.2086 221.5,97C 219.03,99.8332 216.197,102.333 213,104.5C 209.683,110.141 204.849,113.974 198.5,116C 192.859,120.971 187.192,125.971 181.5,131C 178.352,132.076 175.352,133.409 172.5,135C 168.465,138.357 164.132,141.357 159.5,144C 156.436,146.401 154.103,149.401 152.5,153C 148.183,155.986 144.183,159.32 140.5,163C 137.648,164.591 134.648,165.924 131.5,167C 130.663,168.011 130.33,169.178 130.5,170.5C 129.448,170.351 128.448,170.517 127.5,171C 122.987,174.765 118.654,178.765 114.5,183C 109.235,185.452 104.568,188.619 100.5,192.5C 98.1667,190.833 96.1667,188.833 94.5,186.5C 96.6125,185.56 98.6125,184.394 100.5,183C 103.833,179.667 107.167,176.333 110.5,173C 119.997,169.782 127.33,163.948 132.5,155.5C 136.491,153.171 140.491,150.837 144.5,148.5C 150.504,141.329 157.171,134.829 164.5,129C 177.628,119.51 190.962,110.51 204.5,102C 205.582,100.67 206.249,99.1703 206.5,97.5C 212.215,93.4787 218.549,90.812 225.5,89.5C 225.5,91.5 225.5,93.5 225.5,95.5 Z"/></g>
<g><path style="opacity:1" fill="#fb00fa" d="M 211.5,129.5 C 202.549,140.614 191.883,149.781 179.5,157C 178.177,157.816 177.511,158.983 177.5,160.5C 172.558,163.981 167.558,167.481 162.5,171C 161.167,171.333 159.833,171.667 158.5,172C 154.313,177.687 149.313,182.521 143.5,186.5C 134.453,190.826 126.119,196.159 118.5,202.5C 117.508,202.672 116.842,202.338 116.5,201.5C 134.613,188.881 151.78,175.214 168,160.5C 168.483,159.552 168.649,158.552 168.5,157.5C 170.564,157.313 172.564,156.813 174.5,156C 185.22,147.12 196.22,138.453 207.5,130C 208.793,129.51 210.127,129.343 211.5,129.5 Z"/></g>
<g><path style="opacity:1" fill="#0258ff" d="M 140.5,128.5 C 141.872,129.512 143.205,130.512 144.5,131.5C 136.444,136.353 128.444,141.519 120.5,147C 115.021,152.235 109.354,157.235 103.5,162C 98.4626,166.251 93.1292,169.751 87.5,172.5C 86.2616,170.786 85.595,168.786 85.5,166.5C 87.958,164.881 90.2913,163.048 92.5,161C 96.8045,159.389 101.138,157.722 105.5,156C 117.036,146.627 128.702,137.46 140.5,128.5 Z"/></g>
<g><path style="opacity:1" fill="#0f07ff" d="M 206.5,97.5 C 206.249,99.1703 205.582,100.67 204.5,102C 190.962,110.51 177.628,119.51 164.5,129C 157.171,134.829 150.504,141.329 144.5,148.5C 140.491,150.837 136.491,153.171 132.5,155.5C 127.33,163.948 119.997,169.782 110.5,173C 107.167,176.333 103.833,179.667 100.5,183C 98.6125,184.394 96.6125,185.56 94.5,186.5C 91.9483,183.613 90.2816,180.28 89.5,176.5C 97.2477,172.247 103.914,166.747 109.5,160C 112.167,158.667 114.833,157.333 117.5,156C 121.648,152.096 125.981,148.429 130.5,145C 132.5,144.333 134.5,143.667 136.5,143C 148.774,132.822 161.107,122.822 173.5,113C 178.22,112.273 181.886,109.94 184.5,106C 187.634,105.11 189.967,103.276 191.5,100.5C 193.738,101.537 196.071,101.703 198.5,101C 201.076,99.5437 203.742,98.377 206.5,97.5 Z"/></g>
<g><path style="opacity:1" fill="#02b9ff" d="M 130.5,118.5 C 132.167,119.5 133.5,120.833 134.5,122.5C 126.46,127.365 119.127,133.199 112.5,140C 102.705,146.292 93.0385,152.792 83.5,159.5C 82.5,159.167 81.8333,158.5 81.5,157.5C 87.6348,153.526 93.3014,149.026 98.5,144C 105.851,140.155 112.185,134.989 117.5,128.5C 123.161,126.842 127.494,123.509 130.5,118.5 Z"/></g>
<g><path style="opacity:1" fill="#018bff" d="M 136.5,124.5 C 137.5,124.833 138.167,125.5 138.5,126.5C 135.21,128.316 132.544,130.816 130.5,134C 126.5,136 122.5,138 118.5,140C 107.235,148.789 95.9016,157.289 84.5,165.5C 84.5,164.5 84.5,163.5 84.5,162.5C 89.8912,158.946 94.8912,154.779 99.5,150C 107.95,146.36 115.283,141.193 121.5,134.5C 126.738,131.391 131.738,128.058 136.5,124.5 Z"/></g>
<g><path style="opacity:1" fill="#0276ff" d="M 138.5,126.5 C 139.5,126.833 140.167,127.5 140.5,128.5C 128.702,137.46 117.036,146.627 105.5,156C 101.138,157.722 96.8045,159.389 92.5,161C 90.2913,163.048 87.958,164.881 85.5,166.5C 84.8333,166.5 84.5,166.167 84.5,165.5C 95.9016,157.289 107.235,148.789 118.5,140C 122.5,138 126.5,136 130.5,134C 132.544,130.816 135.21,128.316 138.5,126.5 Z"/></g>
<g><path style="opacity:1" fill="#01a1ff" d="M 134.5,122.5 C 135.5,122.833 136.167,123.5 136.5,124.5C 131.738,128.058 126.738,131.391 121.5,134.5C 115.283,141.193 107.95,146.36 99.5,150C 94.8912,154.779 89.8912,158.946 84.5,162.5C 83.596,161.791 83.2627,160.791 83.5,159.5C 93.0385,152.792 102.705,146.292 112.5,140C 119.127,133.199 126.46,127.365 134.5,122.5 Z"/></g>
<g><path style="opacity:1" fill="#da00ff" d="M 219.5,116.5 C 216.833,120.833 214.167,125.167 211.5,129.5C 210.127,129.343 208.793,129.51 207.5,130C 196.22,138.453 185.22,147.12 174.5,156C 172.564,156.813 170.564,157.313 168.5,157.5C 168.649,158.552 168.483,159.552 168,160.5C 151.78,175.214 134.613,188.881 116.5,201.5C 113.759,201.293 111.426,200.293 109.5,198.5C 113.018,195.822 116.684,193.322 120.5,191C 126.067,183.976 133.067,178.643 141.5,175C 145.194,171.306 148.86,167.64 152.5,164C 157.936,162.288 162.27,159.121 165.5,154.5C 170.345,153.25 174.345,150.75 177.5,147C 188.942,139.709 199.609,131.542 209.5,122.5C 213.166,120.788 216.499,118.788 219.5,116.5 Z"/></g>
<g><path style="opacity:1" fill="#ab00ff" d="M 222.5,106.5 C 221.901,109.963 220.901,113.296 219.5,116.5C 216.499,118.788 213.166,120.788 209.5,122.5C 199.609,131.542 188.942,139.709 177.5,147C 174.345,150.75 170.345,153.25 165.5,154.5C 162.27,159.121 157.936,162.288 152.5,164C 148.86,167.64 145.194,171.306 141.5,175C 133.067,178.643 126.067,183.976 120.5,191C 116.684,193.322 113.018,195.822 109.5,198.5C 106.296,197.617 103.629,195.95 101.5,193.5C 108.017,190.841 113.684,187.007 118.5,182C 121.059,180.223 123.726,178.723 126.5,177.5C 130.186,176.32 133.186,174.153 135.5,171C 137.608,170.64 139.608,169.973 141.5,169C 150.047,162.531 158.381,155.864 166.5,149C 168.087,148.138 169.754,147.471 171.5,147C 177.252,140.588 183.918,135.254 191.5,131C 194.171,127.463 197.171,124.296 200.5,121.5C 207.626,119.664 213.293,115.664 217.5,109.5C 219.319,108.68 220.986,107.68 222.5,106.5 Z"/></g>
<g><path style="opacity:1" fill="#8f00ff" d="M 224.5,98.5 C 224.435,101.428 223.768,104.095 222.5,106.5C 220.986,107.68 219.319,108.68 217.5,109.5C 213.293,115.664 207.626,119.664 200.5,121.5C 197.171,124.296 194.171,127.463 191.5,131C 183.918,135.254 177.252,140.588 171.5,147C 169.754,147.471 168.087,148.138 166.5,149C 158.381,155.864 150.047,162.531 141.5,169C 139.608,169.973 137.608,170.64 135.5,171C 133.186,174.153 130.186,176.32 126.5,177.5C 131.74,171.764 137.74,166.931 144.5,163C 146.405,161.185 148.072,159.185 149.5,157C 152.328,156.363 154.328,154.696 155.5,152C 156.833,151.667 158.167,151.333 159.5,151C 163.389,147.864 167.055,144.531 170.5,141C 172.588,139.97 174.755,139.137 177,138.5C 190.132,126.779 203.965,115.613 218.5,105C 220.246,102.508 222.246,100.341 224.5,98.5 Z"/></g>
<g><path style="opacity:1" fill="#0133ff" d="M 191.5,99.5 C 191.5,99.8333 191.5,100.167 191.5,100.5C 189.967,103.276 187.634,105.11 184.5,106C 181.886,109.94 178.22,112.273 173.5,113C 161.107,122.822 148.774,132.822 136.5,143C 134.5,143.667 132.5,144.333 130.5,145C 125.981,148.429 121.648,152.096 117.5,156C 114.833,157.333 112.167,158.667 109.5,160C 103.914,166.747 97.2477,172.247 89.5,176.5C 88.3263,175.486 87.6596,174.153 87.5,172.5C 93.1292,169.751 98.4626,166.251 103.5,162C 109.354,157.235 115.021,152.235 120.5,147C 128.444,141.519 136.444,136.353 144.5,131.5C 149.798,131.217 153.465,128.55 155.5,123.5C 161.866,118.478 168.533,113.811 175.5,109.5C 180.028,104.991 185.361,101.657 191.5,99.5 Z"/></g>
<g><path style="opacity:1" fill="#ff00de" d="M 177.5,160.5 C 176.167,163.167 174.833,165.833 173.5,168.5C 167.506,171.495 161.84,174.995 156.5,179C 151.167,183.048 146.5,187.715 142.5,193C 137.036,196.046 132.036,199.546 127.5,203.5C 124.455,203.492 121.455,203.159 118.5,202.5C 126.119,196.159 134.453,190.826 143.5,186.5C 149.313,182.521 154.313,177.687 158.5,172C 159.833,171.667 161.167,171.333 162.5,171C 167.558,167.481 172.558,163.981 177.5,160.5 Z"/></g>
<g><path style="opacity:1" fill="#7700ff" d="M 225.5,95.5 C 224.89,96.391 224.557,97.391 224.5,98.5C 222.246,100.341 220.246,102.508 218.5,105C 203.965,115.613 190.132,126.779 177,138.5C 174.755,139.137 172.588,139.97 170.5,141C 167.055,144.531 163.389,147.864 159.5,151C 158.167,151.333 156.833,151.667 155.5,152C 154.328,154.696 152.328,156.363 149.5,157C 148.072,159.185 146.405,161.185 144.5,163C 137.74,166.931 131.74,171.764 126.5,177.5C 123.726,178.723 121.059,180.223 118.5,182C 113.684,187.007 108.017,190.841 101.5,193.5C 100.833,193.5 100.5,193.167 100.5,192.5C 104.568,188.619 109.235,185.452 114.5,183C 118.654,178.765 122.987,174.765 127.5,171C 128.448,170.517 129.448,170.351 130.5,170.5C 130.33,169.178 130.663,168.011 131.5,167C 134.648,165.924 137.648,164.591 140.5,163C 144.183,159.32 148.183,155.986 152.5,153C 154.103,149.401 156.436,146.401 159.5,144C 164.132,141.357 168.465,138.357 172.5,135C 175.352,133.409 178.352,132.076 181.5,131C 187.192,125.971 192.859,120.971 198.5,116C 204.849,113.974 209.683,110.141 213,104.5C 216.197,102.333 219.03,99.8332 221.5,97C 222.745,96.2086 224.078,95.7086 225.5,95.5 Z"/></g>
<g><path style="opacity:1" fill="#ff00b9" d="M 173.5,168.5 C 172.674,171.485 171.341,174.151 169.5,176.5C 165.601,178.386 161.934,180.719 158.5,183.5C 151.481,190.648 144.148,197.315 136.5,203.5C 133.5,203.5 130.5,203.5 127.5,203.5C 132.036,199.546 137.036,196.046 142.5,193C 146.5,187.715 151.167,183.048 156.5,179C 161.84,174.995 167.506,171.495 173.5,168.5 Z"/></g>
<g><path style="opacity:1" fill="#ff0094" d="M 169.5,176.5 C 163.006,190.993 152.006,199.993 136.5,203.5C 144.148,197.315 151.481,190.648 158.5,183.5C 161.934,180.719 165.601,178.386 169.5,176.5 Z"/></g>
<g><path style="opacity:1" fill="#ff010a" d="M 167.5,195.5 C 174.931,194.594 178.597,197.928 178.5,205.5C 177.319,211.439 173.652,214.605 167.5,215C 163.775,215.76 160.108,215.593 156.5,214.5C 155.218,205.406 158.885,199.073 167.5,195.5 Z"/></g>
<g><path style="opacity:1" fill="#ff009a" d="M 130.5,210.5 C 125.232,216.131 119.232,220.797 112.5,224.5C 110.401,220.229 111.401,216.395 115.5,213C 120.212,210.067 125.212,209.234 130.5,210.5 Z"/></g>
<g><path style="opacity:1" fill="#ff016a" d="M 130.5,210.5 C 133.754,210.794 136.421,212.127 138.5,214.5C 136.738,216.7 134.404,217.867 131.5,218C 126.935,221.418 122.602,224.918 118.5,228.5C 116.118,227.649 114.118,226.316 112.5,224.5C 119.232,220.797 125.232,216.131 130.5,210.5 Z"/></g>
<g><path style="opacity:1" fill="#ff033c" d="M 138.5,214.5 C 140.059,217.87 139.726,221.036 137.5,224C 131.577,227.231 125.243,228.731 118.5,228.5C 122.602,224.918 126.935,221.418 131.5,218C 134.404,217.867 136.738,216.7 138.5,214.5 Z"/></g>
</svg>
