<?xml version="1.0" encoding="UTF-8"?>
<!DOCTYPE svg PUBLIC "-//W3C//DTD SVG 1.1//EN" "http://www.w3.org/Graphics/SVG/1.1/DTD/svg11.dtd">
<svg xmlns="http://www.w3.org/2000/svg" version="1.1" width="256px" height="256px" style="shape-rendering:geometricPrecision; text-rendering:geometricPrecision; image-rendering:optimizeQuality; fill-rule:evenodd; clip-rule:evenodd" xmlns:xlink="http://www.w3.org/1999/xlink">
<g><path style="opacity:0.864" fill="#fdfdfd" d="M 65.5,57.5 C 65.8333,60.5 64.5,61.8333 61.5,61.5C 56.7863,61.1734 52.1196,61.5067 47.5,62.5C 48.6609,65.3584 49.9943,68.025 51.5,70.5C 51.595,72.7857 52.2616,74.7857 53.5,76.5C 53.8333,77.8333 54.1667,79.1667 54.5,80.5C 54.9321,81.7095 55.5987,82.7095 56.5,83.5C 56.2627,84.791 56.596,85.791 57.5,86.5C 57.5569,87.609 57.8902,88.609 58.5,89.5C 58.8925,91.2838 59.5592,92.9505 60.5,94.5C 60.7959,96.403 61.4625,98.0697 62.5,99.5C 62.9348,102.157 63.9348,104.491 65.5,106.5C 66.929,112.129 68.929,117.463 71.5,122.5C 71.7959,124.403 72.4625,126.07 73.5,127.5C 73.7959,129.403 74.4625,131.07 75.5,132.5C 75.5,133.167 75.5,133.833 75.5,134.5C 75.9321,135.71 76.5987,136.71 77.5,137.5C 77.8782,139.921 78.5448,142.254 79.5,144.5C 79.5,145.167 79.8333,145.5 80.5,145.5C 80.7959,147.403 81.4625,149.07 82.5,150.5C 82.8333,151.833 83.1667,153.167 83.5,154.5C 83.5,155.167 83.8333,155.5 84.5,155.5C 84.2627,156.791 84.596,157.791 85.5,158.5C 85.3284,159.492 85.6618,160.158 86.5,160.5C 86.2627,161.791 86.596,162.791 87.5,163.5C 87.3284,164.492 87.6618,165.158 88.5,165.5C 90.7567,173.353 93.5901,181.02 97,188.5C 104.181,172.141 111.348,155.807 118.5,139.5C 119.441,137.95 120.107,136.284 120.5,134.5C 121.404,133.791 121.737,132.791 121.5,131.5C 123.625,128.912 124.958,125.912 125.5,122.5C 126.506,122.062 126.506,121.396 125.5,120.5C 125.672,119.508 125.338,118.842 124.5,118.5C 124.443,117.391 124.11,116.391 123.5,115.5C 123.34,113.847 122.674,112.514 121.5,111.5C 121.5,110.833 121.5,110.167 121.5,109.5C 121.068,108.29 120.401,107.29 119.5,106.5C 119.737,105.209 119.404,104.209 118.5,103.5C 118.204,101.597 117.537,99.9303 116.5,98.5C 116.443,97.391 116.11,96.391 115.5,95.5C 114.87,93.2504 113.87,91.2504 112.5,89.5C 112.567,88.0413 112.234,86.7079 111.5,85.5C 109.538,79.9291 107.205,74.5957 104.5,69.5C 104.204,67.597 103.537,65.9303 102.5,64.5C 102.586,63.5041 102.252,62.6708 101.5,62C 99.5273,61.5045 97.5273,61.3379 95.5,61.5C 94.1667,61.5 92.8333,61.5 91.5,61.5C 90.1667,61.5 88.8333,61.5 87.5,61.5C 87.0679,60.2905 86.4013,59.2905 85.5,58.5C 86.0577,57.2101 87.0577,56.3768 88.5,56C 98.8333,55.3333 109.167,55.3333 119.5,56C 120.756,56.4169 121.423,57.2502 121.5,58.5C 121.586,59.4959 121.252,60.3292 120.5,61C 116.459,61.1735 112.459,61.6735 108.5,62.5C 111.174,68.8624 113.841,75.1957 116.5,81.5C 117.167,83.5 117.833,85.5 118.5,87.5C 119.167,88.8333 119.833,90.1667 120.5,91.5C 121.167,93.1667 121.833,94.8333 122.5,96.5C 123.13,98.7496 124.13,100.75 125.5,102.5C 125.402,104.553 126.069,106.22 127.5,107.5C 127.504,109.842 128.337,111.842 130,113.5C 132.464,108.599 134.631,103.599 136.5,98.5C 138.134,95.232 139.801,91.8987 141.5,88.5C 143.5,83.5 145.5,78.5 147.5,73.5C 148.486,71.5739 149.486,69.5739 150.5,67.5C 151.73,65.7028 152.396,63.7028 152.5,61.5C 150.167,61.5 147.833,61.5 145.5,61.5C 144.391,61.4431 143.391,61.1098 142.5,60.5C 141.89,59.609 141.557,58.609 141.5,57.5C 141.611,56.8826 141.944,56.3826 142.5,56C 152.5,55.3333 162.5,55.3333 172.5,56C 173.252,56.6708 173.586,57.5041 173.5,58.5C 173.573,60.0269 172.906,61.0269 171.5,61.5C 167.445,61.1758 163.445,61.5091 159.5,62.5C 156.634,68.441 153.967,74.441 151.5,80.5C 150.559,82.0495 149.893,83.7162 149.5,85.5C 147.935,87.5093 146.935,89.8427 146.5,92.5C 145.326,93.5137 144.66,94.847 144.5,96.5C 143.227,98.7128 142.227,101.046 141.5,103.5C 140.264,105.649 139.264,107.982 138.5,110.5C 136.315,114.213 134.648,118.213 133.5,122.5C 133.5,122.833 133.5,123.167 133.5,123.5C 135.362,127.75 137.028,132.083 138.5,136.5C 139.441,138.05 140.107,139.716 140.5,141.5C 141.167,142.833 141.833,144.167 142.5,145.5C 142.989,146.995 143.655,148.329 144.5,149.5C 144.328,150.492 144.662,151.158 145.5,151.5C 145.402,153.553 146.069,155.22 147.5,156.5C 147.878,158.921 148.545,161.254 149.5,163.5C 149.5,164.167 149.833,164.5 150.5,164.5C 150.328,165.492 150.662,166.158 151.5,166.5C 151.707,169.241 152.707,171.574 154.5,173.5C 155.831,178.657 157.664,183.657 160,188.5C 163.605,179.182 167.105,169.848 170.5,160.5C 172.229,156.979 173.562,153.313 174.5,149.5C 176.011,146.995 177.345,144.328 178.5,141.5C 179.302,138.426 180.302,135.426 181.5,132.5C 182.73,130.703 183.396,128.703 183.5,126.5C 185.737,122.466 187.404,118.132 188.5,113.5C 190.065,111.491 191.065,109.157 191.5,106.5C 192.736,104.351 193.736,102.018 194.5,99.5C 195.499,96.8382 196.499,94.1716 197.5,91.5C 199.5,86.8333 201.5,82.1667 203.5,77.5C 205.204,72.2224 207.204,67.0558 209.5,62C 207.19,61.5034 204.857,61.3367 202.5,61.5C 200.833,61.5 199.167,61.5 197.5,61.5C 196.5,61.5 195.5,61.5 194.5,61.5C 193.766,60.2921 193.433,58.9587 193.5,57.5C 193.611,56.8826 193.944,56.3826 194.5,56C 207.5,55.3333 220.5,55.3333 233.5,56C 234.833,57.6667 234.833,59.3333 233.5,61C 227.584,61.1896 221.751,61.6896 216,62.5C 198.265,107.873 180.431,153.206 162.5,198.5C 160.833,199.833 159.167,199.833 157.5,198.5C 148.164,176.157 138.831,153.824 129.5,131.5C 119.409,153.351 109.576,175.351 100,197.5C 98.2672,199.602 96.2672,199.935 94,198.5C 76.3333,153.167 58.6667,107.833 41,62.5C 34.5809,61.6871 28.0809,61.1871 21.5,61C 20.1667,59.3333 20.1667,57.6667 21.5,56C 35.8333,55.3333 50.1667,55.3333 64.5,56C 65.056,56.3826 65.3893,56.8826 65.5,57.5 Z"/></g>
<g><path style="opacity:1" fill="#ffe400" d="M 83.5,58.5 C 84.1667,58.5 84.8333,58.5 85.5,58.5C 86.4013,59.2905 87.0679,60.2905 87.5,61.5C 80.4747,68.8557 72.4747,75.0224 63.5,80C 62.1068,81.1711 61.2735,82.6711 61,84.5C 59.8873,85.305 58.7206,85.9717 57.5,86.5C 56.596,85.791 56.2627,84.791 56.5,83.5C 61.44,79.6843 66.44,75.851 71.5,72C 75.2018,67.2966 79.2018,62.7966 83.5,58.5 Z"/></g>
<g><path style="opacity:1" fill="#ff7c00" d="M 75.5,56.5 C 73.7801,59.7311 71.4468,62.5644 68.5,65C 63.63,69.0409 58.63,72.8743 53.5,76.5C 52.2616,74.7857 51.595,72.7857 51.5,70.5C 53.6576,68.0071 56.3243,66.3405 59.5,65.5C 59.5271,63.8007 60.1938,62.4674 61.5,61.5C 64.5,61.8333 65.8333,60.5 65.5,57.5C 68.8067,56.9492 72.1401,56.6159 75.5,56.5 Z"/></g>
<g><path style="opacity:1" fill="#12fe1b" d="M 141.5,57.5 C 141.557,58.609 141.89,59.609 142.5,60.5C 133.729,67.3487 125.063,74.3487 116.5,81.5C 113.841,75.1957 111.174,68.8624 108.5,62.5C 112.459,61.6735 116.459,61.1735 120.5,61C 121.252,60.3292 121.586,59.4959 121.5,58.5C 128.143,57.7875 134.809,57.4542 141.5,57.5 Z"/></g>
<g><path style="opacity:1" fill="#02fe5c" d="M 142.5,60.5 C 143.391,61.1098 144.391,61.4431 145.5,61.5C 140.032,67.1889 134.699,73.1889 129.5,79.5C 125.517,81.8282 121.851,84.4949 118.5,87.5C 117.833,85.5 117.167,83.5 116.5,81.5C 125.063,74.3487 133.729,67.3487 142.5,60.5 Z"/></g>
<g><path style="opacity:1" fill="#ff3f00" d="M 61.5,61.5 C 60.1938,62.4674 59.5271,63.8007 59.5,65.5C 56.3243,66.3405 53.6576,68.0071 51.5,70.5C 49.9943,68.025 48.6609,65.3584 47.5,62.5C 52.1196,61.5067 56.7863,61.1734 61.5,61.5 Z"/></g>
<g><path style="opacity:1" fill="#05faf7" d="M 171.5,61.5 C 164.807,67.8611 158.14,74.1944 151.5,80.5C 153.967,74.441 156.634,68.441 159.5,62.5C 163.445,61.5091 167.445,61.1758 171.5,61.5 Z"/></g>
<g><path style="opacity:1" fill="#0377fe" d="M 193.5,57.5 C 193.433,58.9587 193.766,60.2921 194.5,61.5C 192.4,63.498 190.4,65.6647 188.5,68C 183.125,72.0268 177.459,75.6935 171.5,79C 166.47,85.0248 161.47,91.0248 156.5,97C 154.277,99.2227 151.611,100.556 148.5,101C 145.271,104.399 141.938,107.565 138.5,110.5C 139.264,107.982 140.264,105.649 141.5,103.5C 151.347,94.1569 161.681,85.3235 172.5,77C 174.832,74.6936 176.832,72.1936 178.5,69.5C 181.787,66.3724 184.787,63.039 187.5,59.5C 189.102,57.9261 191.102,57.2594 193.5,57.5 Z"/></g>
<g><path style="opacity:1" fill="#ff9b00" d="M 75.5,56.5 C 76.609,56.5569 77.609,56.8902 78.5,57.5C 72.3227,63.8408 65.656,69.6741 58.5,75C 57.9678,77.4632 56.6345,79.2965 54.5,80.5C 54.1667,79.1667 53.8333,77.8333 53.5,76.5C 58.63,72.8743 63.63,69.0409 68.5,65C 71.4468,62.5644 73.7801,59.7311 75.5,56.5 Z"/></g>
<g><path style="opacity:1" fill="#b0ff00" d="M 95.5,61.5 C 97.5273,61.3379 99.5273,61.5045 101.5,62C 102.252,62.6708 102.586,63.5041 102.5,64.5C 97.3592,68.795 92.0258,72.9616 86.5,77C 81.9699,81.4434 77.6365,86.11 73.5,91C 69.362,93.3145 65.6953,96.1479 62.5,99.5C 61.4625,98.0697 60.7959,96.403 60.5,94.5C 62.95,93.2235 65.2833,91.7235 67.5,90C 72.9434,85.2566 77.6101,79.7566 81.5,73.5C 86.4741,69.8593 91.1408,65.8593 95.5,61.5 Z"/></g>
<g><path style="opacity:1" fill="#fbf900" d="M 87.5,61.5 C 88.8333,61.5 90.1667,61.5 91.5,61.5C 88.2148,64.1185 85.2148,67.1185 82.5,70.5C 79.5933,72.4703 76.5933,74.3037 73.5,76C 68.9533,81.0489 63.9533,85.5489 58.5,89.5C 57.8902,88.609 57.5569,87.609 57.5,86.5C 58.7206,85.9717 59.8873,85.305 61,84.5C 61.2735,82.6711 62.1068,81.1711 63.5,80C 72.4747,75.0224 80.4747,68.8557 87.5,61.5 Z"/></g>
<g><path style="opacity:1" fill="#02feb8" d="M 150.5,67.5 C 149.486,69.5739 148.486,71.5739 147.5,73.5C 139.467,81.5349 131.133,89.2015 122.5,96.5C 121.833,94.8333 121.167,93.1667 120.5,91.5C 124.326,89.4731 127.66,86.6397 130.5,83C 136.81,79.6884 141.81,75.0218 145.5,69C 147.154,68.3923 148.821,67.8923 150.5,67.5 Z"/></g>
<g><path style="opacity:1" fill="#dcff00" d="M 91.5,61.5 C 92.8333,61.5 94.1667,61.5 95.5,61.5C 91.1408,65.8593 86.4741,69.8593 81.5,73.5C 77.6101,79.7566 72.9434,85.2566 67.5,90C 65.2833,91.7235 62.95,93.2235 60.5,94.5C 59.5592,92.9505 58.8925,91.2838 58.5,89.5C 63.9533,85.5489 68.9533,81.0489 73.5,76C 76.5933,74.3037 79.5933,72.4703 82.5,70.5C 85.2148,67.1185 88.2148,64.1185 91.5,61.5 Z"/></g>
<g><path style="opacity:1" fill="#05fe94" d="M 145.5,61.5 C 147.833,61.5 150.167,61.5 152.5,61.5C 152.396,63.7028 151.73,65.7028 150.5,67.5C 148.821,67.8923 147.154,68.3923 145.5,69C 141.81,75.0218 136.81,79.6884 130.5,83C 127.66,86.6397 124.326,89.4731 120.5,91.5C 119.833,90.1667 119.167,88.8333 118.5,87.5C 121.851,84.4949 125.517,81.8282 129.5,79.5C 134.699,73.1889 140.032,67.1889 145.5,61.5 Z"/></g>
<g><path style="opacity:1" fill="#02d4fe" d="M 173.5,58.5 C 176.237,58.4013 178.904,58.7347 181.5,59.5C 170.818,68.2654 160.151,76.9321 149.5,85.5C 149.893,83.7162 150.559,82.0495 151.5,80.5C 158.14,74.1944 164.807,67.8611 171.5,61.5C 172.906,61.0269 173.573,60.0269 173.5,58.5 Z"/></g>
<g><path style="opacity:1" fill="#ffba00" d="M 78.5,57.5 C 80.4147,57.2155 82.0813,57.5489 83.5,58.5C 79.2018,62.7966 75.2018,67.2966 71.5,72C 66.44,75.851 61.44,79.6843 56.5,83.5C 55.5987,82.7095 54.9321,81.7095 54.5,80.5C 56.6345,79.2965 57.9678,77.4632 58.5,75C 65.656,69.6741 72.3227,63.8408 78.5,57.5 Z"/></g>
<g><path style="opacity:1" fill="#04beff" d="M 181.5,59.5 C 182.167,59.5 182.833,59.5 183.5,59.5C 176.561,67.2693 168.561,73.7693 159.5,79C 156.362,84.6385 152.028,89.1385 146.5,92.5C 146.935,89.8427 147.935,87.5093 149.5,85.5C 160.151,76.9321 170.818,68.2654 181.5,59.5 Z"/></g>
<g><path style="opacity:1" fill="#05fee0" d="M 147.5,73.5 C 145.5,78.5 143.5,83.5 141.5,88.5C 135.742,92.7074 130.409,97.3741 125.5,102.5C 124.13,100.75 123.13,98.7496 122.5,96.5C 131.133,89.2015 139.467,81.5349 147.5,73.5 Z"/></g>
<g><path style="opacity:1" fill="#02a8ff" d="M 183.5,59.5 C 184.833,59.5 186.167,59.5 187.5,59.5C 184.787,63.039 181.787,66.3724 178.5,69.5C 173.732,72.4198 169.066,75.5865 164.5,79C 157.942,85.0646 151.275,90.8979 144.5,96.5C 144.66,94.847 145.326,93.5137 146.5,92.5C 152.028,89.1385 156.362,84.6385 159.5,79C 168.561,73.7693 176.561,67.2693 183.5,59.5 Z"/></g>
<g><path style="opacity:1" fill="#0190ff" d="M 178.5,69.5 C 176.832,72.1936 174.832,74.6936 172.5,77C 161.681,85.3235 151.347,94.1569 141.5,103.5C 142.227,101.046 143.227,98.7128 144.5,96.5C 151.275,90.8979 157.942,85.0646 164.5,79C 169.066,75.5865 173.732,72.4198 178.5,69.5 Z"/></g>
<g><path style="opacity:1" fill="#77ff00" d="M 102.5,64.5 C 103.537,65.9303 104.204,67.597 104.5,69.5C 91.8025,82.1987 78.8025,94.532 65.5,106.5C 63.9348,104.491 62.9348,102.157 62.5,99.5C 65.6953,96.1479 69.362,93.3145 73.5,91C 77.6365,86.11 81.9699,81.4434 86.5,77C 92.0258,72.9616 97.3592,68.795 102.5,64.5 Z"/></g>
<g><path style="opacity:1" fill="#01fe4e" d="M 111.5,85.5 C 112.234,86.7079 112.567,88.0413 112.5,89.5C 111.972,90.7206 111.305,91.8873 110.5,93C 106.141,94.6924 103.141,97.6924 101.5,102C 91.9969,110.337 82.6636,118.837 73.5,127.5C 72.4625,126.07 71.7959,124.403 71.5,122.5C 84.7711,110.234 98.1044,97.9006 111.5,85.5 Z"/></g>
<g><path style="opacity:1" fill="#02fe7a" d="M 112.5,89.5 C 113.87,91.2504 114.87,93.2504 115.5,95.5C 108.737,100.235 102.737,105.735 97.5,112C 95.2262,112.47 93.2262,113.47 91.5,115C 85.5841,120.411 80.2507,126.244 75.5,132.5C 74.4625,131.07 73.7959,129.403 73.5,127.5C 82.6636,118.837 91.9969,110.337 101.5,102C 103.141,97.6924 106.141,94.6924 110.5,93C 111.305,91.8873 111.972,90.7206 112.5,89.5 Z"/></g>
<g><path style="opacity:1" fill="#07e1ff" d="M 141.5,88.5 C 139.801,91.8987 138.134,95.232 136.5,98.5C 133.86,101.806 130.86,104.806 127.5,107.5C 126.069,106.22 125.402,104.553 125.5,102.5C 130.409,97.3741 135.742,92.7074 141.5,88.5 Z"/></g>
<g><path style="opacity:1" fill="#0250ff" d="M 194.5,61.5 C 195.5,61.5 196.5,61.5 197.5,61.5C 176.686,82.2657 155.353,102.599 133.5,122.5C 134.648,118.213 136.315,114.213 138.5,110.5C 141.938,107.565 145.271,104.399 148.5,101C 151.611,100.556 154.277,99.2227 156.5,97C 161.47,91.0248 166.47,85.0248 171.5,79C 177.459,75.6935 183.125,72.0268 188.5,68C 190.4,65.6647 192.4,63.498 194.5,61.5 Z"/></g>
<g><path style="opacity:1" fill="#0cb2ff" d="M 136.5,98.5 C 134.631,103.599 132.464,108.599 130,113.5C 128.337,111.842 127.504,109.842 127.5,107.5C 130.86,104.806 133.86,101.806 136.5,98.5 Z"/></g>
<g><path style="opacity:1" fill="#21ff0d" d="M 104.5,69.5 C 107.205,74.5957 109.538,79.9291 111.5,85.5C 98.1044,97.9006 84.7711,110.234 71.5,122.5C 68.929,117.463 66.929,112.129 65.5,106.5C 78.8025,94.532 91.8025,82.1987 104.5,69.5 Z"/></g>
<g><path style="opacity:1" fill="#05ffc9" d="M 116.5,98.5 C 117.537,99.9303 118.204,101.597 118.5,103.5C 105.38,115.531 91.7134,126.864 77.5,137.5C 76.5987,136.71 75.9321,135.71 75.5,134.5C 77.3716,133.489 79.3716,132.655 81.5,132C 83.31,129.356 85.31,126.856 87.5,124.5C 97.3325,115.649 106.999,106.982 116.5,98.5 Z"/></g>
<g><path style="opacity:1" fill="#6100ff" d="M 203.5,77.5 C 201.5,82.1667 199.5,86.8333 197.5,91.5C 192.651,96.511 187.317,101.011 181.5,105C 174.944,113.72 166.944,120.886 157.5,126.5C 153.14,132.187 148.474,137.52 143.5,142.5C 142.583,141.873 141.583,141.539 140.5,141.5C 140.107,139.716 139.441,138.05 138.5,136.5C 142.244,134.595 145.578,132.095 148.5,129C 150.966,125.201 154.132,122.034 158,119.5C 160.074,113.757 163.908,109.591 169.5,107C 170.071,105.795 170.738,104.628 171.5,103.5C 176.138,100.928 180.472,98.095 184.5,95C 186.795,92.0304 189.128,89.0304 191.5,86C 195.031,82.4103 199.031,79.577 203.5,77.5 Z"/></g>
<g><path style="opacity:1" fill="#01d7ff" d="M 121.5,109.5 C 121.5,110.167 121.5,110.833 121.5,111.5C 112.208,122.448 101.541,132.115 89.5,140.5C 90.7502,138.068 92.2502,135.734 94,133.5C 98.1667,130 102,126.167 105.5,122C 108.115,121.145 110.448,119.812 112.5,118C 115.041,114.624 118.041,111.791 121.5,109.5 Z"/></g>
<g><path style="opacity:1" fill="#1907ff" d="M 202.5,61.5 C 204.857,61.3367 207.19,61.5034 209.5,62C 207.204,67.0558 205.204,72.2224 203.5,77.5C 199.031,79.577 195.031,82.4103 191.5,86C 189.128,89.0304 186.795,92.0304 184.5,95C 180.472,98.095 176.138,100.928 171.5,103.5C 170.738,104.628 170.071,105.795 169.5,107C 163.908,109.591 160.074,113.757 158,119.5C 154.132,122.034 150.966,125.201 148.5,129C 145.578,132.095 142.244,134.595 138.5,136.5C 137.028,132.083 135.362,127.75 133.5,123.5C 138.903,120.356 144.236,117.022 149.5,113.5C 158.548,103.127 167.881,92.9599 177.5,83C 185.758,75.747 194.092,68.5803 202.5,61.5 Z"/></g>
<g><path style="opacity:1" fill="#012eff" d="M 197.5,61.5 C 199.167,61.5 200.833,61.5 202.5,61.5C 194.092,68.5803 185.758,75.747 177.5,83C 167.881,92.9599 158.548,103.127 149.5,113.5C 144.236,117.022 138.903,120.356 133.5,123.5C 133.5,123.167 133.5,122.833 133.5,122.5C 155.353,102.599 176.686,82.2657 197.5,61.5 Z"/></g>
<g><path style="opacity:1" fill="#9400ff" d="M 197.5,91.5 C 196.499,94.1716 195.499,96.8382 194.5,99.5C 191.732,101.087 189.065,102.92 186.5,105C 179.472,114.352 170.806,122.018 160.5,128C 155.129,134.512 149.129,140.345 142.5,145.5C 141.833,144.167 141.167,142.833 140.5,141.5C 141.583,141.539 142.583,141.873 143.5,142.5C 148.474,137.52 153.14,132.187 157.5,126.5C 166.944,120.886 174.944,113.72 181.5,105C 187.317,101.011 192.651,96.511 197.5,91.5 Z"/></g>
<g><path style="opacity:1" fill="#b600ff" d="M 194.5,99.5 C 193.736,102.018 192.736,104.351 191.5,106.5C 179.842,115.713 168.842,125.88 158.5,137C 152.717,139.951 148.051,144.118 144.5,149.5C 143.655,148.329 142.989,146.995 142.5,145.5C 149.129,140.345 155.129,134.512 160.5,128C 170.806,122.018 179.472,114.352 186.5,105C 189.065,102.92 191.732,101.087 194.5,99.5 Z"/></g>
<g><path style="opacity:1" fill="#d200ff" d="M 191.5,106.5 C 191.065,109.157 190.065,111.491 188.5,113.5C 183.518,117.587 178.851,122.087 174.5,127C 168.852,130.316 164.186,134.649 160.5,140C 155.624,144.049 150.624,147.882 145.5,151.5C 144.662,151.158 144.328,150.492 144.5,149.5C 148.051,144.118 152.717,139.951 158.5,137C 168.842,125.88 179.842,115.713 191.5,106.5 Z"/></g>
<g><path style="opacity:1" fill="#02fe9f" d="M 115.5,95.5 C 116.11,96.391 116.443,97.391 116.5,98.5C 106.999,106.982 97.3325,115.649 87.5,124.5C 85.31,126.856 83.31,129.356 81.5,132C 79.3716,132.655 77.3716,133.489 75.5,134.5C 75.5,133.833 75.5,133.167 75.5,132.5C 80.2507,126.244 85.5841,120.411 91.5,115C 93.2262,113.47 95.2262,112.47 97.5,112C 102.737,105.735 108.737,100.235 115.5,95.5 Z"/></g>
<g><path style="opacity:1" fill="#02c0ff" d="M 121.5,111.5 C 122.674,112.514 123.34,113.847 123.5,115.5C 119.264,117.723 115.264,120.389 111.5,123.5C 108.056,127.783 104.389,131.95 100.5,136C 94.3174,140.691 88.3174,145.524 82.5,150.5C 81.4625,149.07 80.7959,147.403 80.5,145.5C 81.552,145.649 82.552,145.483 83.5,145C 85.1137,142.873 87.1137,141.373 89.5,140.5C 101.541,132.115 112.208,122.448 121.5,111.5 Z"/></g>
<g><path style="opacity:1" fill="#03feeb" d="M 118.5,103.5 C 119.404,104.209 119.737,105.209 119.5,106.5C 116.691,110.808 113.357,114.641 109.5,118C 104.023,121.976 98.6901,126.142 93.5,130.5C 89.2068,135.46 84.5402,140.126 79.5,144.5C 78.5448,142.254 77.8782,139.921 77.5,137.5C 91.7134,126.864 105.38,115.531 118.5,103.5 Z"/></g>
<g><path style="opacity:1" fill="#0188ff" d="M 124.5,118.5 C 125.338,118.842 125.672,119.508 125.5,120.5C 117.299,127.204 109.633,134.371 102.5,142C 95.9989,145.841 89.9989,150.341 84.5,155.5C 83.8333,155.5 83.5,155.167 83.5,154.5C 97.297,142.352 110.964,130.352 124.5,118.5 Z"/></g>
<g><path style="opacity:1" fill="#015bff" d="M 125.5,122.5 C 124.958,125.912 123.625,128.912 121.5,131.5C 120.027,132.74 118.36,133.74 116.5,134.5C 112.739,138.884 108.739,143.05 104.5,147C 100.931,149.257 97.2648,151.424 93.5,153.5C 91.4789,156.188 89.1456,158.521 86.5,160.5C 85.6618,160.158 85.3284,159.492 85.5,158.5C 94.0746,152.034 102.075,144.868 109.5,137C 111.833,135.5 114.167,134 116.5,132.5C 119.517,129.094 122.517,125.76 125.5,122.5 Z"/></g>
<g><path style="opacity:1" fill="#0271ff" d="M 125.5,120.5 C 126.506,121.396 126.506,122.062 125.5,122.5C 122.517,125.76 119.517,129.094 116.5,132.5C 114.167,134 111.833,135.5 109.5,137C 102.075,144.868 94.0746,152.034 85.5,158.5C 84.596,157.791 84.2627,156.791 84.5,155.5C 89.9989,150.341 95.9989,145.841 102.5,142C 109.633,134.371 117.299,127.204 125.5,120.5 Z"/></g>
<g><path style="opacity:1" fill="#ff00ae" d="M 181.5,132.5 C 180.302,135.426 179.302,138.426 178.5,141.5C 171.665,145.459 165.665,150.626 160.5,157C 157.057,159.435 153.724,161.935 150.5,164.5C 149.833,164.5 149.5,164.167 149.5,163.5C 156.655,156.932 163.322,149.932 169.5,142.5C 170.729,141.719 172.062,141.219 173.5,141C 175.667,137.667 178.334,134.834 181.5,132.5 Z"/></g>
<g><path style="opacity:1" fill="#01ebff" d="M 119.5,106.5 C 120.401,107.29 121.068,108.29 121.5,109.5C 118.041,111.791 115.041,114.624 112.5,118C 110.448,119.812 108.115,121.145 105.5,122C 102,126.167 98.1667,130 94,133.5C 92.2502,135.734 90.7502,138.068 89.5,140.5C 87.1137,141.373 85.1137,142.873 83.5,145C 82.552,145.483 81.552,145.649 80.5,145.5C 79.8333,145.5 79.5,145.167 79.5,144.5C 84.5402,140.126 89.2068,135.46 93.5,130.5C 98.6901,126.142 104.023,121.976 109.5,118C 113.357,114.641 116.691,110.808 119.5,106.5 Z"/></g>
<g><path style="opacity:1" fill="#f600fb" d="M 188.5,113.5 C 187.404,118.132 185.737,122.466 183.5,126.5C 178.304,129.881 173.304,133.548 168.5,137.5C 162.078,144.595 155.078,150.928 147.5,156.5C 146.069,155.22 145.402,153.553 145.5,151.5C 150.624,147.882 155.624,144.049 160.5,140C 164.186,134.649 168.852,130.316 174.5,127C 178.851,122.087 183.518,117.587 188.5,113.5 Z"/></g>
<g><path style="opacity:1" fill="#02a4ff" d="M 123.5,115.5 C 124.11,116.391 124.443,117.391 124.5,118.5C 110.964,130.352 97.297,142.352 83.5,154.5C 83.1667,153.167 82.8333,151.833 82.5,150.5C 88.3174,145.524 94.3174,140.691 100.5,136C 104.389,131.95 108.056,127.783 111.5,123.5C 115.264,120.389 119.264,117.723 123.5,115.5 Z"/></g>
<g><path style="opacity:1" fill="#ff00d0" d="M 183.5,126.5 C 183.396,128.703 182.73,130.703 181.5,132.5C 178.334,134.834 175.667,137.667 173.5,141C 172.062,141.219 170.729,141.719 169.5,142.5C 163.322,149.932 156.655,156.932 149.5,163.5C 148.545,161.254 147.878,158.921 147.5,156.5C 155.078,150.928 162.078,144.595 168.5,137.5C 173.304,133.548 178.304,129.881 183.5,126.5 Z"/></g>
<g><path style="opacity:1" fill="#002fff" d="M 120.5,134.5 C 120.107,136.284 119.441,137.95 118.5,139.5C 111.082,146.078 103.749,152.911 96.5,160C 93.9348,162.08 91.2682,163.913 88.5,165.5C 87.6618,165.158 87.3284,164.492 87.5,163.5C 98.3531,153.588 109.353,143.921 120.5,134.5 Z"/></g>
<g><path style="opacity:1" fill="#0149ff" d="M 121.5,131.5 C 121.737,132.791 121.404,133.791 120.5,134.5C 109.353,143.921 98.3531,153.588 87.5,163.5C 86.596,162.791 86.2627,161.791 86.5,160.5C 89.1456,158.521 91.4789,156.188 93.5,153.5C 97.2648,151.424 100.931,149.257 104.5,147C 108.739,143.05 112.739,138.884 116.5,134.5C 118.36,133.74 120.027,132.74 121.5,131.5 Z"/></g>
<g><path style="opacity:1" fill="#ff0091" d="M 178.5,141.5 C 177.345,144.328 176.011,146.995 174.5,149.5C 171.964,152.188 168.964,154.354 165.5,156C 162.103,161.198 157.436,164.698 151.5,166.5C 150.662,166.158 150.328,165.492 150.5,164.5C 153.724,161.935 157.057,159.435 160.5,157C 165.665,150.626 171.665,145.459 178.5,141.5 Z"/></g>
<g><path style="opacity:1" fill="#ff0060" d="M 174.5,149.5 C 173.562,153.313 172.229,156.979 170.5,160.5C 165.167,164.833 159.833,169.167 154.5,173.5C 152.707,171.574 151.707,169.241 151.5,166.5C 157.436,164.698 162.103,161.198 165.5,156C 168.964,154.354 171.964,152.188 174.5,149.5 Z"/></g>
<g><path style="opacity:1" fill="#3303ff" d="M 118.5,139.5 C 111.348,155.807 104.181,172.141 97,188.5C 93.5901,181.02 90.7567,173.353 88.5,165.5C 91.2682,163.913 93.9348,162.08 96.5,160C 103.749,152.911 111.082,146.078 118.5,139.5 Z"/></g>
<g><path style="opacity:1" fill="#ff011d" d="M 170.5,160.5 C 167.105,169.848 163.605,179.182 160,188.5C 157.664,183.657 155.831,178.657 154.5,173.5C 159.833,169.167 165.167,164.833 170.5,160.5 Z"/></g>
</svg>
