<?xml version="1.0" encoding="UTF-8"?>
<!DOCTYPE svg PUBLIC "-//W3C//DTD SVG 1.1//EN" "http://www.w3.org/Graphics/SVG/1.1/DTD/svg11.dtd">
<svg xmlns="http://www.w3.org/2000/svg" version="1.1" width="256px" height="256px" style="shape-rendering:geometricPrecision; text-rendering:geometricPrecision; image-rendering:optimizeQuality; fill-rule:evenodd; clip-rule:evenodd" xmlns:xlink="http://www.w3.org/1999/xlink">
<g><path style="opacity:0.579" fill="#fcfcfb" d="M 46.5,37.5 C 62.1702,37.3334 77.8369,37.5001 93.5,38C 97.1888,39.0191 100.022,41.1858 102,44.5C 103.564,55.9094 105.564,67.2427 108,78.5C 109.462,85.4677 108.129,91.801 104,97.5C 99.1637,101.836 94.6637,106.503 90.5,111.5C 102.567,134.733 120.067,152.4 143,164.5C 148.456,160.046 153.623,155.213 158.5,150C 160.725,149.439 162.725,148.439 164.5,147C 166.167,146.833 167.833,146.667 169.5,146.5C 181.04,148.856 192.706,150.69 204.5,152C 208.274,153.302 211.441,155.469 214,158.5C 215.624,175.767 215.958,193.1 215,210.5C 211.122,216.303 205.622,218.97 198.5,218.5C 118.821,209.972 67.321,167.639 44,91.5C 42.5125,83.7146 40.8459,76.048 39,68.5C 38.3333,60.8333 38.3333,53.1667 39,45.5C 40.8401,42.1026 43.3401,39.4359 46.5,37.5 Z"/></g>
<g><path style="opacity:1" fill="#ffd902" d="M 91.5,45.5 C 88.1877,49.479 84.521,53.1456 80.5,56.5C 77.8343,63.1744 73.3343,68.1744 67,71.5C 66.6667,72.5 66.3333,73.5 66,74.5C 60.8871,79.4426 56.0537,84.4426 51.5,89.5C 50.3882,87.4006 49.7215,85.0673 49.5,82.5C 58.4267,74.9117 67.0933,66.9117 75.5,58.5C 78.8333,54.5 82.1667,50.5 85.5,46.5C 87.396,45.5344 89.396,45.2011 91.5,45.5 Z"/></g>
<g><path style="opacity:1" fill="#ff3d03" d="M 48.5,45.5 C 53.6912,45.0585 58.6912,45.5585 63.5,47C 58.3333,52.1667 53.1667,57.3333 48,62.5C 46.6115,57.6278 46.1115,52.6278 46.5,47.5C 46.5,46.1667 47.1667,45.5 48.5,45.5 Z"/></g>
<g><path style="opacity:0.999" fill="#ff6b18" d="M 48.5,45.5 C 54.979,44.5093 61.6457,44.176 68.5,44.5C 68.5,45.1667 68.8333,45.5 69.5,45.5C 69.6107,46.1174 69.944,46.6174 70.5,47C 65.1667,51 60.5,55.6667 56.5,61C 53.1199,62.3712 50.2866,64.5379 48,67.5C 47.79,65.9419 47.29,64.6085 46.5,63.5C 45.1667,58.1667 45.1667,52.8333 46.5,47.5C 46.1115,52.6278 46.6115,57.6278 48,62.5C 53.1667,57.3333 58.3333,52.1667 63.5,47C 58.6912,45.5585 53.6912,45.0585 48.5,45.5 Z"/></g>
<g><path style="opacity:1" fill="#ff8206" d="M 69.5,45.5 C 70.8333,45.5 72.1667,45.5 73.5,45.5C 71.8871,50.4464 68.5538,53.7798 63.5,55.5C 58.7551,61.2487 53.4218,66.2487 47.5,70.5C 46.6314,68.283 46.298,65.9496 46.5,63.5C 47.29,64.6085 47.79,65.9419 48,67.5C 50.2866,64.5379 53.1199,62.3712 56.5,61C 60.5,55.6667 65.1667,51 70.5,47C 69.944,46.6174 69.6107,46.1174 69.5,45.5 Z"/></g>
<g><path style="opacity:1" fill="#fef204" d="M 91.5,45.5 C 93.4044,45.7376 94.7377,46.7376 95.5,48.5C 95.5,48.8333 95.5,49.1667 95.5,49.5C 80.623,61.8709 66.4563,75.2043 53,89.5C 52.5172,90.448 52.3505,91.448 52.5,92.5C 51.596,91.791 51.2627,90.791 51.5,89.5C 56.0537,84.4426 60.8871,79.4426 66,74.5C 66.3333,73.5 66.6667,72.5 67,71.5C 73.3343,68.1744 77.8343,63.1744 80.5,56.5C 84.521,53.1456 88.1877,49.479 91.5,45.5 Z"/></g>
<g><path style="opacity:1" fill="#dcff0d" d="M 95.5,48.5 C 96.6874,51.9458 97.3541,55.6125 97.5,59.5C 96.2618,58.5876 94.9285,58.4209 93.5,59C 81.4427,72.0601 68.9427,84.8934 56,97.5C 55.51,98.7932 55.3433,100.127 55.5,101.5C 54.2638,99.351 53.2638,97.0177 52.5,94.5C 53.1174,94.6107 53.6174,94.944 54,95.5C 60.6906,87.8108 67.6906,80.4775 75,73.5C 80.9365,65.8946 87.6032,58.8946 95,52.5C 95.4828,51.552 95.6495,50.552 95.5,49.5C 95.5,49.1667 95.5,48.8333 95.5,48.5 Z"/></g>
<g><path style="opacity:0.996" fill="#ffa102" d="M 68.5,44.5 C 71.5,44.5 74.5,44.5 77.5,44.5C 78.9516,45.3019 80.6183,45.8019 82.5,46C 71.5383,57.4671 60.205,68.3005 48.5,78.5C 48.1667,75.8333 47.8333,73.1667 47.5,70.5C 53.4218,66.2487 58.7551,61.2487 63.5,55.5C 68.5538,53.7798 71.8871,50.4464 73.5,45.5C 72.1667,45.5 70.8333,45.5 69.5,45.5C 68.8333,45.5 68.5,45.1667 68.5,44.5 Z"/></g>
<g><path style="opacity:0.847" fill="#beff72" d="M 97.5,60.5 C 98.9901,64.942 99.9901,69.6086 100.5,74.5C 99.0937,74.0269 98.427,73.0269 98.5,71.5C 97.8505,69.5648 97.5172,67.5648 97.5,65.5C 97.5,64.1667 97.5,62.8333 97.5,61.5C 97.5,61.1667 97.5,60.8333 97.5,60.5 Z"/></g>
<g><path style="opacity:1" fill="#ffc105" d="M 77.5,44.5 C 82.3633,44.1805 87.03,44.5139 91.5,45.5C 89.396,45.2011 87.396,45.5344 85.5,46.5C 82.1667,50.5 78.8333,54.5 75.5,58.5C 67.0933,66.9117 58.4267,74.9117 49.5,82.5C 49.1667,81.1667 48.8333,79.8333 48.5,78.5C 60.205,68.3005 71.5383,57.4671 82.5,46C 80.6183,45.8019 78.9516,45.3019 77.5,44.5 Z"/></g>
<g><path style="opacity:1" fill="#f3fd00" d="M 95.5,49.5 C 95.6495,50.552 95.4828,51.552 95,52.5C 87.6032,58.8946 80.9365,65.8946 75,73.5C 67.6906,80.4775 60.6906,87.8108 54,95.5C 53.6174,94.944 53.1174,94.6107 52.5,94.5C 52.5,93.8333 52.5,93.1667 52.5,92.5C 52.3505,91.448 52.5172,90.448 53,89.5C 66.4563,75.2043 80.623,61.8709 95.5,49.5 Z"/></g>
<g><path style="opacity:1" fill="#7fff05" d="M 98.5,71.5 C 98.427,73.0269 99.0937,74.0269 100.5,74.5C 100.5,75.8333 100.5,77.1667 100.5,78.5C 99.8423,77.6016 99.1757,76.6016 98.5,75.5C 85.1722,86.1436 72.5055,98.1436 60.5,111.5C 61.3094,113.071 61.6427,114.738 61.5,116.5C 60.3263,115.486 59.6596,114.153 59.5,112.5C 59.6816,110.409 59.3482,108.409 58.5,106.5C 60.8579,104.976 62.6912,102.976 64,100.5C 74.438,92.0648 84.2713,82.8982 93.5,73C 95.1545,72.3923 96.8211,71.8923 98.5,71.5 Z"/></g>
<g><path style="opacity:1" fill="#31ff16" d="M 100.5,78.5 C 101.641,81.6399 101.808,84.9733 101,88.5C 95.4778,95.5031 89.4778,102.17 83,108.5C 82.3996,111.095 82.8996,113.429 84.5,115.5C 84.5569,116.609 84.8902,117.609 85.5,118.5C 83.6728,124.85 80.0062,130.016 74.5,134C 72.8034,134.384 71.1368,134.218 69.5,133.5C 67.8845,131.262 66.5512,128.929 65.5,126.5C 65.4431,125.391 65.1098,124.391 64.5,123.5C 64.2606,121.533 64.5939,119.699 65.5,118C 64.552,117.517 63.552,117.351 62.5,117.5C 63.7135,114.447 65.8801,112.113 69,110.5C 73.1071,105.273 77.4404,100.273 82,95.5C 87.2721,90.473 92.4387,85.3063 97.5,80C 98.4491,79.3828 99.2825,79.5494 100,80.5C 100.464,79.9056 100.631,79.2389 100.5,78.5 Z"/></g>
<g><path style="opacity:1" fill="#afff00" d="M 97.5,61.5 C 97.5,62.8333 97.5,64.1667 97.5,65.5C 93.3703,67.4818 90.2037,70.4818 88,74.5C 77.9651,84.7022 67.7984,94.7022 57.5,104.5C 56.9717,103.153 56.805,101.819 57,100.5C 70.4425,87.3934 83.4425,74.0601 96,60.5C 96.3826,61.056 96.8826,61.3893 97.5,61.5 Z"/></g>
<g><path style="opacity:1" fill="#61ff03" d="M 100.5,78.5 C 100.631,79.2389 100.464,79.9056 100,80.5C 99.2825,79.5494 98.4491,79.3828 97.5,80C 92.4387,85.3063 87.2721,90.473 82,95.5C 77.4404,100.273 73.1071,105.273 69,110.5C 65.8801,112.113 63.7135,114.447 62.5,117.5C 63.552,117.351 64.552,117.517 65.5,118C 64.5939,119.699 64.2606,121.533 64.5,123.5C 64.1667,123.5 63.8333,123.5 63.5,123.5C 62.8333,121.167 62.1667,118.833 61.5,116.5C 61.6427,114.738 61.3094,113.071 60.5,111.5C 72.5055,98.1436 85.1722,86.1436 98.5,75.5C 99.1757,76.6016 99.8423,77.6016 100.5,78.5 Z"/></g>
<g><path style="opacity:1" fill="#98ff03" d="M 97.5,65.5 C 97.5172,67.5648 97.8505,69.5648 98.5,71.5C 96.8211,71.8923 95.1545,72.3923 93.5,73C 84.2713,82.8982 74.438,92.0648 64,100.5C 62.6912,102.976 60.8579,104.976 58.5,106.5C 59.3482,108.409 59.6816,110.409 59.5,112.5C 58.6554,111.329 57.9887,109.995 57.5,108.5C 57.5,107.167 57.5,105.833 57.5,104.5C 67.7984,94.7022 77.9651,84.7022 88,74.5C 90.2037,70.4818 93.3703,67.4818 97.5,65.5 Z"/></g>
<g><path style="opacity:1" fill="#c4ff09" d="M 97.5,59.5 C 97.5,59.8333 97.5,60.1667 97.5,60.5C 97.5,60.8333 97.5,61.1667 97.5,61.5C 96.8826,61.3893 96.3826,61.056 96,60.5C 83.4425,74.0601 70.4425,87.3934 57,100.5C 56.805,101.819 56.9717,103.153 57.5,104.5C 57.5,105.833 57.5,107.167 57.5,108.5C 56.0762,106.485 55.4095,104.152 55.5,101.5C 55.3433,100.127 55.51,98.7932 56,97.5C 68.9427,84.8934 81.4427,72.0601 93.5,59C 94.9285,58.4209 96.2618,58.5876 97.5,59.5 Z"/></g>
<g><path style="opacity:0.769" fill="#97ffa0" d="M 84.5,115.5 C 85.9063,115.973 86.573,116.973 86.5,118.5C 86.1667,118.5 85.8333,118.5 85.5,118.5C 84.8902,117.609 84.5569,116.609 84.5,115.5 Z"/></g>
<g><path style="opacity:0.776" fill="#b6ffaf" d="M 63.5,123.5 C 63.8333,123.5 64.1667,123.5 64.5,123.5C 65.1098,124.391 65.4431,125.391 65.5,126.5C 64.0937,126.027 63.427,125.027 63.5,123.5 Z"/></g>
<g><path style="opacity:1" fill="#0aff4e" d="M 85.5,118.5 C 85.8333,118.5 86.1667,118.5 86.5,118.5C 87.247,121.793 87.5803,124.959 87.5,128C 83.6595,132.173 79.4928,136.007 75,139.5C 74.3292,138.748 73.4959,138.414 72.5,138.5C 71.2485,136.999 70.2485,135.332 69.5,133.5C 71.1368,134.218 72.8034,134.384 74.5,134C 80.0062,130.016 83.6728,124.85 85.5,118.5 Z"/></g>
<g><path style="opacity:1" fill="#0fff89" d="M 89.5,123.5 C 90.6737,124.514 91.3404,125.847 91.5,127.5C 91.6633,129.857 91.4966,132.19 91,134.5C 87.5,138 84,141.5 80.5,145C 79.1807,145.195 77.8474,145.028 76.5,144.5C 75.8333,143.5 75.1667,142.5 74.5,141.5C 75.8474,142.028 77.1807,142.195 78.5,142C 83.057,137.946 87.057,133.446 90.5,128.5C 89.6906,126.929 89.3573,125.262 89.5,123.5 Z"/></g>
<g><path style="opacity:1" fill="#0eff6f" d="M 86.5,118.5 C 87.3127,120.261 88.3127,121.928 89.5,123.5C 89.3573,125.262 89.6906,126.929 90.5,128.5C 87.057,133.446 83.057,137.946 78.5,142C 77.1807,142.195 75.8474,142.028 74.5,141.5C 73.8333,140.5 73.1667,139.5 72.5,138.5C 73.4959,138.414 74.3292,138.748 75,139.5C 79.4928,136.007 83.6595,132.173 87.5,128C 87.5803,124.959 87.247,121.793 86.5,118.5 Z"/></g>
<g><path style="opacity:1" fill="#0fffa4" d="M 91.5,127.5 C 92.4884,128.795 93.4884,130.128 94.5,131.5C 94.6984,133.575 94.8651,135.575 95,137.5C 91.1937,141.306 87.3604,145.14 83.5,149C 82.1807,149.195 80.8474,149.028 79.5,148.5C 78.5,147.167 77.5,145.833 76.5,144.5C 77.8474,145.028 79.1807,145.195 80.5,145C 84,141.5 87.5,138 91,134.5C 91.4966,132.19 91.6633,129.857 91.5,127.5 Z"/></g>
<g><path style="opacity:1" fill="#16ffbf" d="M 94.5,131.5 C 95.4884,132.795 96.4884,134.128 97.5,135.5C 97.6567,136.873 97.49,138.207 97,139.5C 92.5575,144.113 88.0575,148.447 83.5,152.5C 81.8333,151.5 80.5,150.167 79.5,148.5C 80.8474,149.028 82.1807,149.195 83.5,149C 87.3604,145.14 91.1937,141.306 95,137.5C 94.8651,135.575 94.6984,133.575 94.5,131.5 Z"/></g>
<g><path style="opacity:1" fill="#08ffd5" d="M 97.5,135.5 C 98.4013,136.29 99.0679,137.29 99.5,138.5C 99.5086,140.308 99.0086,141.975 98,143.5C 94.6507,146.682 91.484,150.015 88.5,153.5C 86.9052,154.434 85.2385,154.434 83.5,153.5C 83.5,153.167 83.5,152.833 83.5,152.5C 88.0575,148.447 92.5575,144.113 97,139.5C 97.49,138.207 97.6567,136.873 97.5,135.5 Z"/></g>
<g><path style="opacity:1" fill="#16d4ff" d="M 107.5,147.5 C 108.833,148.167 109.833,149.167 110.5,150.5C 109.448,150.351 108.448,150.517 107.5,151C 103.667,154.833 99.8333,158.667 96,162.5C 95.51,163.793 95.3433,165.127 95.5,166.5C 93.7376,165.738 92.7376,164.404 92.5,162.5C 92.369,161.761 92.5357,161.094 93,160.5C 97.3747,155.624 102.208,151.29 107.5,147.5 Z"/></g>
<g><path style="opacity:0.997" fill="#15fcf4" d="M 99.5,138.5 C 101.914,139.911 103.581,141.911 104.5,144.5C 99.7934,150.208 94.4601,155.208 88.5,159.5C 86.8333,157.5 85.1667,155.5 83.5,153.5C 85.2385,154.434 86.9052,154.434 88.5,153.5C 91.484,150.015 94.6507,146.682 98,143.5C 99.0086,141.975 99.5086,140.308 99.5,138.5 Z"/></g>
<g><path style="opacity:0.8" fill="#b175ff" d="M 173.5,154.5 C 170.098,154.342 166.764,154.676 163.5,155.5C 163.611,154.883 163.944,154.383 164.5,154C 167.696,153.195 170.696,153.362 173.5,154.5 Z"/></g>
<g><path style="opacity:0.896" fill="#f8d8ff" d="M 178.5,154.5 C 182.042,154.38 185.542,154.714 189,155.5C 190.376,155.684 191.209,156.351 191.5,157.5C 190.167,157.5 188.833,157.5 187.5,157.5C 186.081,156.549 184.415,156.216 182.5,156.5C 181.167,155.833 179.833,155.167 178.5,154.5 Z"/></g>
<g><path style="opacity:0.994" fill="#1ce7fe" d="M 104.5,144.5 C 105.833,145.167 106.833,146.167 107.5,147.5C 102.208,151.29 97.3747,155.624 93,160.5C 92.5357,161.094 92.369,161.761 92.5,162.5C 90.7697,161.974 89.4363,160.974 88.5,159.5C 94.4601,155.208 99.7934,150.208 104.5,144.5 Z"/></g>
<g><path style="opacity:1" fill="#10b1ff" d="M 110.5,150.5 C 112.167,151.5 113.5,152.833 114.5,154.5C 113.022,154.238 111.689,154.571 110.5,155.5C 106.818,158.922 103.151,162.256 99.5,165.5C 98.3744,166.808 98.3744,168.142 99.5,169.5C 97.9699,168.789 96.6366,167.789 95.5,166.5C 95.3433,165.127 95.51,163.793 96,162.5C 99.8333,158.667 103.667,154.833 107.5,151C 108.448,150.517 109.448,150.351 110.5,150.5 Z"/></g>
<g><path style="opacity:1" fill="#0879ff" d="M 119.5,158.5 C 120.167,158.5 120.5,158.833 120.5,159.5C 118.712,159.215 117.045,159.548 115.5,160.5C 112.279,164.05 109.112,167.717 106,171.5C 105.517,172.448 105.351,173.448 105.5,174.5C 104.833,174.167 104.167,173.833 103.5,173.5C 103.461,172.417 103.127,171.417 102.5,170.5C 105.721,162.892 111.387,158.892 119.5,158.5 Z"/></g>
<g><path style="opacity:1" fill="#1196ff" d="M 114.5,154.5 C 116.191,155.864 117.858,157.197 119.5,158.5C 111.387,158.892 105.721,162.892 102.5,170.5C 103.127,171.417 103.461,172.417 103.5,173.5C 101.833,172.5 100.5,171.167 99.5,169.5C 98.3744,168.142 98.3744,166.808 99.5,165.5C 103.151,162.256 106.818,158.922 110.5,155.5C 111.689,154.571 113.022,154.238 114.5,154.5 Z"/></g>
<g><path style="opacity:1" fill="#f903fb" d="M 187.5,157.5 C 188.833,157.5 190.167,157.5 191.5,157.5C 191.833,157.5 192.167,157.5 192.5,157.5C 193.303,158.423 193.47,159.423 193,160.5C 180.328,173.847 167.162,186.347 153.5,198C 151.756,199.454 150.089,199.621 148.5,198.5C 149.239,198.631 149.906,198.464 150.5,198C 162.761,185.571 175.095,173.404 187.5,161.5C 188.807,160.135 188.807,158.802 187.5,157.5 Z"/></g>
<g><path style="opacity:0.998" fill="#0a44ff" d="M 124.5,162.5 C 124.833,162.5 125.167,162.5 125.5,162.5C 125.5,162.833 125.5,163.167 125.5,163.5C 121.188,165.289 117.521,168.123 114.5,172C 114.833,172.333 115.167,172.667 115.5,173C 112.161,174.764 111.161,177.264 112.5,180.5C 111.167,179.5 109.833,178.5 108.5,177.5C 107.972,176.153 107.805,174.819 108,173.5C 112.185,170.312 116.018,166.812 119.5,163C 121.134,162.506 122.801,162.34 124.5,162.5 Z"/></g>
<g><path style="opacity:0.78" fill="#acb2ff" d="M 125.5,163.5 C 125.5,163.167 125.5,162.833 125.5,162.5C 127.027,162.427 128.027,163.094 128.5,164.5C 127.391,164.443 126.391,164.11 125.5,163.5 Z"/></g>
<g><path style="opacity:1" fill="#0e61ff" d="M 120.5,159.5 C 122.23,160.026 123.564,161.026 124.5,162.5C 122.801,162.34 121.134,162.506 119.5,163C 116.018,166.812 112.185,170.312 108,173.5C 107.805,174.819 107.972,176.153 108.5,177.5C 107.167,176.833 106.167,175.833 105.5,174.5C 105.351,173.448 105.517,172.448 106,171.5C 109.112,167.717 112.279,164.05 115.5,160.5C 117.045,159.548 118.712,159.215 120.5,159.5 Z"/></g>
<g><path style="opacity:1" fill="#1331ff" d="M 125.5,163.5 C 126.391,164.11 127.391,164.443 128.5,164.5C 129.167,165.167 129.833,165.833 130.5,166.5C 128.473,166.338 126.473,166.505 124.5,167C 121,170.5 117.5,174 114,177.5C 113.421,178.928 113.588,180.262 114.5,181.5C 113.508,181.672 112.842,181.338 112.5,180.5C 111.161,177.264 112.161,174.764 115.5,173C 115.167,172.667 114.833,172.333 114.5,172C 117.521,168.123 121.188,165.289 125.5,163.5 Z"/></g>
<g><path style="opacity:0.792" fill="#9b94ff" d="M 131.5,166.5 C 133.027,166.427 134.027,167.094 134.5,168.5C 132.973,168.573 131.973,167.906 131.5,166.5 Z"/></g>
<g><path style="opacity:1" fill="#b809ff" d="M 174.5,154.5 C 175.833,154.5 177.167,154.5 178.5,154.5C 179.833,155.167 181.167,155.833 182.5,156.5C 182.649,157.552 182.483,158.552 182,159.5C 169.187,172.819 156.02,185.485 142.5,197.5C 139.314,196.403 136.314,195.07 133.5,193.5C 135.604,193.799 137.604,193.466 139.5,192.5C 150.819,180.681 162.319,169.014 174,157.5C 174.483,156.552 174.649,155.552 174.5,154.5 Z"/></g>
<g><path style="opacity:0.796" fill="#ad91ff" d="M 138.5,170.5 C 140.027,170.427 141.027,171.094 141.5,172.5C 139.973,172.573 138.973,171.906 138.5,170.5 Z"/></g>
<g><path style="opacity:1" fill="#1506ff" d="M 130.5,166.5 C 130.833,166.5 131.167,166.5 131.5,166.5C 131.973,167.906 132.973,168.573 134.5,168.5C 134.5,169.167 134.833,169.5 135.5,169.5C 136.682,171.003 137.182,172.67 137,174.5C 133.5,178 130,181.5 126.5,185C 123.843,185.175 121.176,185.008 118.5,184.5C 116.596,184.262 115.262,183.262 114.5,181.5C 113.588,180.262 113.421,178.928 114,177.5C 117.5,174 121,170.5 124.5,167C 126.473,166.505 128.473,166.338 130.5,166.5 Z"/></g>
<g><path style="opacity:1" fill="#890aff" d="M 173.5,154.5 C 173.833,154.5 174.167,154.5 174.5,154.5C 174.649,155.552 174.483,156.552 174,157.5C 162.319,169.014 150.819,180.681 139.5,192.5C 137.604,193.466 135.604,193.799 133.5,193.5C 130.968,192.404 128.635,191.071 126.5,189.5C 128.575,189.698 130.575,189.865 132.5,190C 136.333,186.167 140.167,182.333 144,178.5C 144.64,176.735 144.473,175.068 143.5,173.5C 150.445,167.892 157.112,161.892 163.5,155.5C 166.764,154.676 170.098,154.342 173.5,154.5 Z"/></g>
<g><path style="opacity:1" fill="#e103fe" d="M 182.5,156.5 C 184.415,156.216 186.081,156.549 187.5,157.5C 188.807,158.802 188.807,160.135 187.5,161.5C 175.095,173.404 162.761,185.571 150.5,198C 149.906,198.464 149.239,198.631 148.5,198.5C 147.167,198.5 145.833,198.5 144.5,198.5C 143.833,198.167 143.167,197.833 142.5,197.5C 156.02,185.485 169.187,172.819 182,159.5C 182.483,158.552 182.649,157.552 182.5,156.5 Z"/></g>
<g><path style="opacity:1" fill="#ff0a91" d="M 207.5,162.5 C 208.477,165.287 208.81,168.287 208.5,171.5C 207.842,170.602 207.176,169.602 206.5,168.5C 194.527,180.807 182.527,193.14 170.5,205.5C 171.602,206.176 172.602,206.842 173.5,207.5C 170.848,207.59 168.515,206.924 166.5,205.5C 166.369,204.761 166.536,204.094 167,203.5C 180.859,189.81 194.359,176.143 207.5,162.5 Z"/></g>
<g><path style="opacity:1" fill="#5d04ff" d="M 135.5,169.5 C 136.391,170.11 137.391,170.443 138.5,170.5C 138.973,171.906 139.973,172.573 141.5,172.5C 141.842,173.338 142.508,173.672 143.5,173.5C 144.473,175.068 144.64,176.735 144,178.5C 140.167,182.333 136.333,186.167 132.5,190C 130.575,189.865 128.575,189.698 126.5,189.5C 126.027,188.094 125.027,187.427 123.5,187.5C 121.566,186.89 119.899,185.89 118.5,184.5C 121.176,185.008 123.843,185.175 126.5,185C 130,181.5 133.5,178 137,174.5C 137.182,172.67 136.682,171.003 135.5,169.5 Z"/></g>
<g><path style="opacity:1" fill="#ff0fbf" d="M 202.5,160.5 C 202.649,161.552 202.483,162.552 202,163.5C 188.217,176.779 175.05,190.446 162.5,204.5C 158.884,204.101 155.55,203.101 152.5,201.5C 153.833,201.5 155.167,201.5 156.5,201.5C 156.735,202.097 157.235,202.43 158,202.5C 159.326,201.201 160.66,199.868 162,198.5C 162.333,199.167 162.667,199.833 163,200.5C 175.91,187.111 189.077,173.777 202.5,160.5 Z"/></g>
<g><path style="opacity:1" fill="#ff09a9" d="M 198.5,158.5 C 202.36,158.054 205.36,159.387 207.5,162.5C 194.359,176.143 180.859,189.81 167,203.5C 166.536,204.094 166.369,204.761 166.5,205.5C 164.901,205.768 163.568,205.434 162.5,204.5C 175.05,190.446 188.217,176.779 202,163.5C 202.483,162.552 202.649,161.552 202.5,160.5C 201.167,159.833 199.833,159.167 198.5,158.5 Z"/></g>
<g><path style="opacity:1" fill="#fe13e7" d="M 192.5,157.5 C 194.099,157.232 195.432,157.566 196.5,158.5C 196.611,159.117 196.944,159.617 197.5,160C 193.094,163.651 189.26,167.817 186,172.5C 176.352,182.314 166.519,191.981 156.5,201.5C 155.167,201.5 153.833,201.5 152.5,201.5C 149.646,200.795 146.979,199.795 144.5,198.5C 145.833,198.5 147.167,198.5 148.5,198.5C 150.089,199.621 151.756,199.454 153.5,198C 167.162,186.347 180.328,173.847 193,160.5C 193.47,159.423 193.303,158.423 192.5,157.5 Z"/></g>
<g><path style="opacity:0.784" fill="#956dff" d="M 123.5,187.5 C 125.027,187.427 126.027,188.094 126.5,189.5C 124.973,189.573 123.973,188.906 123.5,187.5 Z"/></g>
<g><path style="opacity:1" fill="#ff0677" d="M 208.5,171.5 C 208.5,173.167 208.5,174.833 208.5,176.5C 207.577,175.697 206.577,175.53 205.5,176C 195.182,185.727 184.848,195.727 174.5,206C 175.571,206.852 176.571,207.685 177.5,208.5C 175.901,208.768 174.568,208.434 173.5,207.5C 172.602,206.842 171.602,206.176 170.5,205.5C 182.527,193.14 194.527,180.807 206.5,168.5C 207.176,169.602 207.842,170.602 208.5,171.5 Z"/></g>
<g><path style="opacity:1" fill="#ff1163" d="M 208.5,176.5 C 208.5,180.167 208.5,183.833 208.5,187.5C 207.549,186.081 207.216,184.415 207.5,182.5C 207.762,181.022 207.429,179.689 206.5,178.5C 197.261,187.237 188.095,196.237 179,205.5C 178.333,206.167 178.333,206.833 179,207.5C 180.302,208.085 181.469,208.751 182.5,209.5C 180.708,209.634 179.042,209.301 177.5,208.5C 176.571,207.685 175.571,206.852 174.5,206C 184.848,195.727 195.182,185.727 205.5,176C 206.577,175.53 207.577,175.697 208.5,176.5 Z"/></g>
<g><path style="opacity:1" fill="#ff01cd" d="M 196.5,158.5 C 197.167,158.5 197.833,158.5 198.5,158.5C 199.833,159.167 201.167,159.833 202.5,160.5C 189.077,173.777 175.91,187.111 163,200.5C 162.667,199.833 162.333,199.167 162,198.5C 160.66,199.868 159.326,201.201 158,202.5C 157.235,202.43 156.735,202.097 156.5,201.5C 166.519,191.981 176.352,182.314 186,172.5C 189.26,167.817 193.094,163.651 197.5,160C 196.944,159.617 196.611,159.117 196.5,158.5 Z"/></g>
<g><path style="opacity:1" fill="#ff014c" d="M 207.5,182.5 C 206.761,182.369 206.094,182.536 205.5,183C 197.969,190.197 190.802,197.697 184,205.5C 183.421,206.928 183.588,208.262 184.5,209.5C 183.833,209.5 183.167,209.5 182.5,209.5C 181.469,208.751 180.302,208.085 179,207.5C 178.333,206.833 178.333,206.167 179,205.5C 188.095,196.237 197.261,187.237 206.5,178.5C 207.429,179.689 207.762,181.022 207.5,182.5 Z"/></g>
<g><path style="opacity:0.996" fill="#ff0a0f" d="M 207.5,208.5 C 206.833,209.167 206.167,209.833 205.5,210.5C 200.12,210.676 194.787,210.342 189.5,209.5C 189.389,208.883 189.056,208.383 188.5,208C 195.046,202.122 200.879,195.622 206,188.5C 207.458,194.988 207.958,201.655 207.5,208.5 Z"/></g>
<g><path style="opacity:1" fill="#ff0933" d="M 207.5,182.5 C 207.216,184.415 207.549,186.081 208.5,187.5C 208.825,194.687 208.491,201.687 207.5,208.5C 207.958,201.655 207.458,194.988 206,188.5C 200.879,195.622 195.046,202.122 188.5,208C 189.056,208.383 189.389,208.883 189.5,209.5C 187.833,209.5 186.167,209.5 184.5,209.5C 183.588,208.262 183.421,206.928 184,205.5C 190.802,197.697 197.969,190.197 205.5,183C 206.094,182.536 206.761,182.369 207.5,182.5 Z"/></g>
<g><path style="opacity:0.829" fill="#ff9d9e" d="M 182.5,209.5 C 183.167,209.5 183.833,209.5 184.5,209.5C 186.167,209.5 187.833,209.5 189.5,209.5C 194.787,210.342 200.12,210.676 205.5,210.5C 202.854,211.164 200.021,211.498 197,211.5C 191.921,211.595 187.088,210.928 182.5,209.5 Z"/></g>
</svg>
