<?xml version="1.0" encoding="UTF-8"?>
<!DOCTYPE svg PUBLIC "-//W3C//DTD SVG 1.1//EN" "http://www.w3.org/Graphics/SVG/1.1/DTD/svg11.dtd">
<svg xmlns="http://www.w3.org/2000/svg" version="1.1" width="256px" height="256px" style="shape-rendering:geometricPrecision; text-rendering:geometricPrecision; image-rendering:optimizeQuality; fill-rule:evenodd; clip-rule:evenodd" xmlns:xlink="http://www.w3.org/1999/xlink">
<g><path style="opacity:0.654" fill="#fcfcfc" d="M 45.5,38.5 C 61.8367,38.3334 78.1701,38.5001 94.5,39C 99.6261,41.0664 102.459,44.8997 103,50.5C 103.588,60.0306 105.255,69.364 108,78.5C 109.519,85.1836 108.186,91.1836 104,96.5C 99.1396,101.36 94.3063,106.194 89.5,111C 101.641,134.808 119.475,152.974 143,165.5C 149.514,158.505 156.681,152.339 164.5,147C 166.167,146.833 167.833,146.667 169.5,146.5C 181.742,149.115 194.075,151.281 206.5,153C 209.807,154.728 212.307,157.228 214,160.5C 214.667,177.167 214.667,193.833 214,210.5C 212.5,213.333 210.333,215.5 207.5,217C 165.601,217.275 128.601,203.941 96.5,177C 58.0192,141.228 39.1859,97.0613 40,44.5C 41.3597,41.9774 43.193,39.9774 45.5,38.5 Z"/></g>
<g><path style="opacity:1" fill="#f3fe02" d="M 95.5,52.5 C 81.5857,66.7496 67.5857,81.0829 53.5,95.5C 51.9261,93.8984 51.2594,91.8984 51.5,89.5C 66.0012,76.5045 80.1679,62.8378 94,48.5C 95.1882,49.5634 95.6882,50.8967 95.5,52.5 Z"/></g>
<g><path style="opacity:1" fill="#ffdc04" d="M 87.5,44.5 C 89.099,44.2322 90.4324,44.5655 91.5,45.5C 78.7496,60.5774 65.4163,75.2441 51.5,89.5C 49.9605,87.1617 49.2938,84.4951 49.5,81.5C 63.4107,70.5912 76.0774,58.2579 87.5,44.5 Z"/></g>
<g><path style="opacity:1" fill="#ff7607" d="M 48.5,45.5 C 54.6446,44.5098 60.9779,44.1765 67.5,44.5C 68.3984,45.1577 69.3984,45.8243 70.5,46.5C 63.8932,54.4472 56.8932,61.9472 49.5,69C 48.9056,69.4643 48.2389,69.631 47.5,69.5C 46.5386,67.7354 46.2053,65.7354 46.5,63.5C 53.1171,58.2199 59.4504,52.5532 65.5,46.5C 59.8722,45.5046 54.2055,45.1712 48.5,45.5 Z"/></g>
<g><path style="opacity:1" fill="#ffba03" d="M 75.5,45.5 C 75.5,45.1667 75.5,44.8333 75.5,44.5C 79.5,44.5 83.5,44.5 87.5,44.5C 76.0774,58.2579 63.4107,70.5912 49.5,81.5C 48.7659,80.2921 48.4326,78.9587 48.5,77.5C 49.2389,77.631 49.9056,77.4643 50.5,77C 59.9286,66.7348 69.5953,56.5681 79.5,46.5C 78.3112,45.5713 76.9778,45.238 75.5,45.5 Z"/></g>
<g><path style="opacity:1" fill="#ff520e" d="M 48.5,45.5 C 54.2055,45.1712 59.8722,45.5046 65.5,46.5C 59.4504,52.5532 53.1171,58.2199 46.5,63.5C 45.3493,58.3497 45.1826,53.0164 46,47.5C 46.7083,46.6195 47.5416,45.9528 48.5,45.5 Z"/></g>
<g><path style="opacity:1" fill="#ff8b04" d="M 67.5,44.5 C 70.1667,44.5 72.8333,44.5 75.5,44.5C 75.5,44.8333 75.5,45.1667 75.5,45.5C 67.2583,55.2459 58.425,64.5792 49,73.5C 48.7216,72.5842 48.2216,71.9175 47.5,71.5C 47.5,70.8333 47.5,70.1667 47.5,69.5C 48.2389,69.631 48.9056,69.4643 49.5,69C 56.8932,61.9472 63.8932,54.4472 70.5,46.5C 69.3984,45.8243 68.3984,45.1577 67.5,44.5 Z"/></g>
<g><path style="opacity:1" fill="#ffa001" d="M 75.5,45.5 C 76.9778,45.238 78.3112,45.5713 79.5,46.5C 69.5953,56.5681 59.9286,66.7348 50.5,77C 49.9056,77.4643 49.2389,77.631 48.5,77.5C 48.1667,75.5 47.8333,73.5 47.5,71.5C 48.2216,71.9175 48.7216,72.5842 49,73.5C 58.425,64.5792 67.2583,55.2459 75.5,45.5 Z"/></g>
<g><path style="opacity:0.998" fill="#fef107" d="M 91.5,45.5 C 95.5727,46.587 97.2394,49.2536 96.5,53.5C 95.8333,53.5 95.5,53.1667 95.5,52.5C 95.6882,50.8967 95.1882,49.5634 94,48.5C 80.1679,62.8378 66.0012,76.5045 51.5,89.5C 65.4163,75.2441 78.7496,60.5774 91.5,45.5 Z"/></g>
<g><path style="opacity:1" fill="#89ff02" d="M 97.5,65.5 C 97.5,66.1667 97.8333,66.5 98.5,66.5C 98.8333,68.5 99.1667,70.5 99.5,72.5C 86.5288,84.9708 73.6955,97.6375 61,110.5C 60.51,111.793 60.3433,113.127 60.5,114.5C 58.8958,113.713 58.2291,112.38 58.5,110.5C 58.3367,108.143 58.5034,105.81 59,103.5C 71.803,90.5286 84.6363,77.8619 97.5,65.5 Z"/></g>
<g><path style="opacity:1" fill="#aeff05" d="M 97.5,65.5 C 84.6363,77.8619 71.803,90.5286 59,103.5C 58.5034,105.81 58.3367,108.143 58.5,110.5C 56.6896,107.855 55.6896,104.855 55.5,101.5C 69.1318,88.3686 82.6318,75.0352 96,61.5C 96.7914,62.745 97.2914,64.0783 97.5,65.5 Z"/></g>
<g><path style="opacity:1" fill="#ceff05" d="M 95.5,52.5 C 95.5,53.1667 95.8333,53.5 96.5,53.5C 97.5346,57.7391 98.2012,62.0725 98.5,66.5C 97.8333,66.5 97.5,66.1667 97.5,65.5C 97.2914,64.0783 96.7914,62.745 96,61.5C 82.6318,75.0352 69.1318,88.3686 55.5,101.5C 54.2616,99.7857 53.595,97.7857 53.5,95.5C 67.5857,81.0829 81.5857,66.7496 95.5,52.5 Z"/></g>
<g><path style="opacity:1" fill="#43ff08" d="M 99.5,72.5 C 101.254,77.7043 101.754,83.0376 101,88.5C 95.4682,95.5441 89.4682,102.211 83,108.5C 82.3603,110.265 82.5269,111.932 83.5,113.5C 83.8511,115.869 84.0178,118.203 84,120.5C 80.1667,124.333 76.3333,128.167 72.5,132C 70.8107,131.866 69.144,131.366 67.5,130.5C 64.6365,125.436 62.3031,120.102 60.5,114.5C 60.3433,113.127 60.51,111.793 61,110.5C 73.6955,97.6375 86.5288,84.9708 99.5,72.5 Z"/></g>
<g><path style="opacity:1" fill="#0dff56" d="M 83.5,113.5 C 85.4046,116.304 87.0713,119.304 88.5,122.5C 88.6984,124.575 88.8651,126.575 89,128.5C 85.5349,132.967 81.7016,137.133 77.5,141C 76.552,141.483 75.552,141.649 74.5,141.5C 71.917,138.003 69.5836,134.336 67.5,130.5C 69.144,131.366 70.8107,131.866 72.5,132C 76.3333,128.167 80.1667,124.333 84,120.5C 84.0178,118.203 83.8511,115.869 83.5,113.5 Z"/></g>
<g><path style="opacity:1" fill="#0eff79" d="M 88.5,122.5 C 89.7368,123.965 90.7368,125.632 91.5,127.5C 91.7852,129.288 91.4519,130.955 90.5,132.5C 87.8021,133.698 85.9688,135.698 85,138.5C 82.5304,140.753 79.6971,142.42 76.5,143.5C 75.5,143.167 74.8333,142.5 74.5,141.5C 75.552,141.649 76.552,141.483 77.5,141C 81.7016,137.133 85.5349,132.967 89,128.5C 88.8651,126.575 88.6984,124.575 88.5,122.5 Z"/></g>
<g><path style="opacity:1" fill="#0dff96" d="M 91.5,127.5 C 92.4884,128.795 93.4884,130.128 94.5,131.5C 94.6602,133.199 94.4935,134.866 94,136.5C 90.1667,140.333 86.3333,144.167 82.5,148C 81.552,148.483 80.552,148.649 79.5,148.5C 78.075,147.078 77.075,145.411 76.5,143.5C 79.6971,142.42 82.5304,140.753 85,138.5C 85.9688,135.698 87.8021,133.698 90.5,132.5C 91.4519,130.955 91.7852,129.288 91.5,127.5 Z"/></g>
<g><path style="opacity:1" fill="#15ffcb" d="M 94.5,131.5 C 96.3998,133.619 98.0664,135.953 99.5,138.5C 99.6495,139.552 99.4828,140.552 99,141.5C 95.1667,145.333 91.3333,149.167 87.5,153C 86.2068,153.49 84.8734,153.657 83.5,153.5C 81.9373,152.055 80.604,150.389 79.5,148.5C 80.552,148.649 81.552,148.483 82.5,148C 86.3333,144.167 90.1667,140.333 94,136.5C 94.4935,134.866 94.6602,133.199 94.5,131.5 Z"/></g>
<g><path style="opacity:1" fill="#11feef" d="M 99.5,138.5 C 101.633,140.091 103.299,142.091 104.5,144.5C 99.9968,150.678 94.3301,155.345 87.5,158.5C 86.1667,156.833 84.8333,155.167 83.5,153.5C 84.8734,153.657 86.2068,153.49 87.5,153C 91.3333,149.167 95.1667,145.333 99,141.5C 99.4828,140.552 99.6495,139.552 99.5,138.5 Z"/></g>
<g><path style="opacity:1" fill="#1aebfe" d="M 104.5,144.5 C 105.833,145.167 106.833,146.167 107.5,147.5C 101.511,151.823 96.1777,156.823 91.5,162.5C 90.1667,161.167 88.8333,159.833 87.5,158.5C 94.3301,155.345 99.9968,150.678 104.5,144.5 Z"/></g>
<g><path style="opacity:0.998" fill="#12b7ff" d="M 110.5,150.5 C 111.833,151.167 112.833,152.167 113.5,153.5C 112.127,153.343 110.793,153.51 109.5,154C 104.898,158.094 100.898,162.594 97.5,167.5C 96.2905,167.068 95.2905,166.401 94.5,165.5C 98.233,160.26 102.566,155.426 107.5,151C 108.448,150.517 109.448,150.351 110.5,150.5 Z"/></g>
<g><path style="opacity:1" fill="#05a4ff" d="M 113.5,153.5 C 114.167,153.5 114.5,153.833 114.5,154.5C 113.325,154.281 112.325,154.614 111.5,155.5C 107.051,159.936 103.051,164.603 99.5,169.5C 98.5,169.167 97.8333,168.5 97.5,167.5C 100.898,162.594 104.898,158.094 109.5,154C 110.793,153.51 112.127,153.343 113.5,153.5 Z"/></g>
<g><path style="opacity:1" fill="#1590ff" d="M 114.5,154.5 C 116.23,155.026 117.564,156.026 118.5,157.5C 116.173,157.247 114.173,157.914 112.5,159.5C 109.235,162.721 106.069,166.054 103,169.5C 102.517,170.448 102.351,171.448 102.5,172.5C 101.167,171.833 100.167,170.833 99.5,169.5C 103.051,164.603 107.051,159.936 111.5,155.5C 112.325,154.614 113.325,154.281 114.5,154.5 Z"/></g>
<g><path style="opacity:1" fill="#1dd4ff" d="M 107.5,147.5 C 108.833,148.167 109.833,149.167 110.5,150.5C 109.448,150.351 108.448,150.517 107.5,151C 102.566,155.426 98.233,160.26 94.5,165.5C 93.1667,164.833 92.1667,163.833 91.5,162.5C 96.1777,156.823 101.511,151.823 107.5,147.5 Z"/></g>
<g><path style="opacity:1" fill="#124aff" d="M 123.5,161.5 C 124.872,162.512 126.205,163.512 127.5,164.5C 125.856,164.714 124.356,164.38 123,163.5C 119.167,167.333 115.333,171.167 111.5,175C 111.966,176.299 111.966,177.799 111.5,179.5C 109.246,178.876 107.579,177.543 106.5,175.5C 106.709,174.078 107.209,172.745 108,171.5C 110.806,168.694 113.64,165.86 116.5,163C 118.74,162.023 121.073,161.523 123.5,161.5 Z"/></g>
<g><path style="opacity:1" fill="#096bff" d="M 118.5,157.5 C 120.191,158.864 121.858,160.197 123.5,161.5C 121.073,161.523 118.74,162.023 116.5,163C 113.64,165.86 110.806,168.694 108,171.5C 107.209,172.745 106.709,174.078 106.5,175.5C 105.167,174.5 103.833,173.5 102.5,172.5C 102.351,171.448 102.517,170.448 103,169.5C 106.069,166.054 109.235,162.721 112.5,159.5C 114.173,157.914 116.173,157.247 118.5,157.5 Z"/></g>
<g><path style="opacity:1" fill="#a204ff" d="M 165.5,154.5 C 169.912,153.258 174.246,153.591 178.5,155.5C 178.611,156.117 178.944,156.617 179.5,157C 170.608,166.576 161.608,175.909 152.5,185C 148.275,187.216 144.608,190.216 141.5,194C 138.843,194.175 136.176,194.008 133.5,193.5C 132.29,193.068 131.29,192.401 130.5,191.5C 132.199,191.66 133.866,191.494 135.5,191C 147.085,179.506 158.419,167.673 169.5,155.5C 168.311,154.571 166.978,154.238 165.5,154.5 Z"/></g>
<g><path style="opacity:1" fill="#ff03bb" d="M 202.5,159.5 C 203.609,159.557 204.609,159.89 205.5,160.5C 205.719,161.675 205.386,162.675 204.5,163.5C 190.479,176.854 176.812,190.521 163.5,204.5C 160.627,204.198 157.961,203.531 155.5,202.5C 156.167,202.5 156.833,202.5 157.5,202.5C 161.065,199.903 164.731,197.403 168.5,195C 179.645,183.021 190.978,171.188 202.5,159.5 Z"/></g>
<g><path style="opacity:1" fill="#730dff" d="M 165.5,154.5 C 166.978,154.238 168.311,154.571 169.5,155.5C 158.419,167.673 147.085,179.506 135.5,191C 133.866,191.494 132.199,191.66 130.5,191.5C 127.683,190.905 125.35,189.572 123.5,187.5C 125.927,188.974 128.26,188.807 130.5,187C 134.417,182.706 138.75,178.873 143.5,175.5C 142.388,174.735 141.721,173.735 141.5,172.5C 142.738,173.412 144.072,173.579 145.5,173C 151.756,166.238 158.423,160.071 165.5,154.5 Z"/></g>
<g><path style="opacity:1" fill="#2e12ff" d="M 127.5,164.5 C 132.167,167.167 136.833,169.833 141.5,172.5C 141.721,173.735 142.388,174.735 143.5,175.5C 138.75,178.873 134.417,182.706 130.5,187C 128.26,188.807 125.927,188.974 123.5,187.5C 119.148,185.327 115.148,182.66 111.5,179.5C 111.966,177.799 111.966,176.299 111.5,175C 115.333,171.167 119.167,167.333 123,163.5C 124.356,164.38 125.856,164.714 127.5,164.5 Z"/></g>
<g><path style="opacity:1" fill="#ff0b91" d="M 207.5,162.5 C 208.479,165.625 208.813,168.958 208.5,172.5C 207.732,171.737 207.232,170.737 207,169.5C 194.402,180.93 182.236,192.93 170.5,205.5C 171.602,206.176 172.602,206.842 173.5,207.5C 170.848,207.59 168.515,206.924 166.5,205.5C 166.369,204.761 166.536,204.094 167,203.5C 180.75,189.917 194.25,176.251 207.5,162.5 Z"/></g>
<g><path style="opacity:1" fill="#f107fd" d="M 183.5,156.5 C 186.939,156.788 190.272,157.454 193.5,158.5C 180.673,172.827 167.339,186.661 153.5,200C 152.552,200.483 151.552,200.649 150.5,200.5C 147.843,200.065 145.509,199.065 143.5,197.5C 144.873,197.657 146.207,197.49 147.5,197C 160.5,184 173.5,171 186.5,158C 185.263,157.768 184.263,157.268 183.5,156.5 Z"/></g>
<g><path style="opacity:1" fill="#ff075e" d="M 207.5,180.5 C 198.254,188.241 189.421,196.574 181,205.5C 180.333,206.167 180.333,206.833 181,207.5C 181.995,208.066 182.828,208.733 183.5,209.5C 181.379,209.675 179.379,209.341 177.5,208.5C 176.602,207.842 175.602,207.176 174.5,206.5C 177.758,202.071 181.758,198.571 186.5,196C 192.65,188.683 199.317,181.85 206.5,175.5C 207.452,177.045 207.785,178.712 207.5,180.5 Z"/></g>
<g><path style="opacity:1" fill="#ff03a5" d="M 205.5,160.5 C 206.5,160.833 207.167,161.5 207.5,162.5C 194.25,176.251 180.75,189.917 167,203.5C 166.536,204.094 166.369,204.761 166.5,205.5C 165.209,205.737 164.209,205.404 163.5,204.5C 176.812,190.521 190.479,176.854 204.5,163.5C 205.386,162.675 205.719,161.675 205.5,160.5 Z"/></g>
<g><path style="opacity:1" fill="#c80bff" d="M 178.5,155.5 C 180.292,155.366 181.958,155.699 183.5,156.5C 184.263,157.268 185.263,157.768 186.5,158C 173.5,171 160.5,184 147.5,197C 146.207,197.49 144.873,197.657 143.5,197.5C 139.873,196.679 136.54,195.346 133.5,193.5C 136.176,194.008 138.843,194.175 141.5,194C 144.608,190.216 148.275,187.216 152.5,185C 161.608,175.909 170.608,166.576 179.5,157C 178.944,156.617 178.611,156.117 178.5,155.5 Z"/></g>
<g><path style="opacity:1" fill="#ff0c3c" d="M 207.5,180.5 C 207.328,181.492 207.662,182.158 208.5,182.5C 208.826,191.017 208.493,199.35 207.5,207.5C 207.666,200.159 207.5,192.826 207,185.5C 200.698,192.803 194.032,199.803 187,206.5C 186.53,207.577 186.697,208.577 187.5,209.5C 186.167,209.5 184.833,209.5 183.5,209.5C 182.828,208.733 181.995,208.066 181,207.5C 180.333,206.833 180.333,206.167 181,205.5C 189.421,196.574 198.254,188.241 207.5,180.5 Z"/></g>
<g><path style="opacity:1" fill="#ff0b77" d="M 208.5,172.5 C 208.5,175.833 208.5,179.167 208.5,182.5C 207.662,182.158 207.328,181.492 207.5,180.5C 207.785,178.712 207.452,177.045 206.5,175.5C 199.317,181.85 192.65,188.683 186.5,196C 181.758,198.571 177.758,202.071 174.5,206.5C 175.602,207.176 176.602,207.842 177.5,208.5C 175.901,208.768 174.568,208.434 173.5,207.5C 172.602,206.842 171.602,206.176 170.5,205.5C 182.236,192.93 194.402,180.93 207,169.5C 207.232,170.737 207.732,171.737 208.5,172.5 Z"/></g>
<g><path style="opacity:1" fill="#ff00cf" d="M 197.5,159.5 C 199.167,159.5 200.833,159.5 202.5,159.5C 190.978,171.188 179.645,183.021 168.5,195C 164.731,197.403 161.065,199.903 157.5,202.5C 170.889,188.114 184.223,173.781 197.5,159.5 Z"/></g>
<g><path style="opacity:0.995" fill="#ff0510" d="M 207.5,207.5 C 207.423,208.75 206.756,209.583 205.5,210C 199.418,210.788 193.418,210.621 187.5,209.5C 186.697,208.577 186.53,207.577 187,206.5C 194.032,199.803 200.698,192.803 207,185.5C 207.5,192.826 207.666,200.159 207.5,207.5 Z"/></g>
<g><path style="opacity:1" fill="#ff06e6" d="M 193.5,158.5 C 195.099,158.232 196.432,158.566 197.5,159.5C 184.223,173.781 170.889,188.114 157.5,202.5C 156.833,202.5 156.167,202.5 155.5,202.5C 153.597,202.204 151.93,201.537 150.5,200.5C 151.552,200.649 152.552,200.483 153.5,200C 167.339,186.661 180.673,172.827 193.5,158.5 Z"/></g>
</svg>
