<?xml version="1.0" encoding="UTF-8"?>
<!DOCTYPE svg PUBLIC "-//W3C//DTD SVG 1.1//EN" "http://www.w3.org/Graphics/SVG/1.1/DTD/svg11.dtd">
<svg xmlns="http://www.w3.org/2000/svg" version="1.1" width="256px" height="256px" style="shape-rendering:geometricPrecision; text-rendering:geometricPrecision; image-rendering:optimizeQuality; fill-rule:evenodd; clip-rule:evenodd" xmlns:xlink="http://www.w3.org/1999/xlink">
<g><path style="opacity:0.961" fill="#868686" d="M 111.5,-0.5 C 121.833,-0.5 132.167,-0.5 142.5,-0.5C 205.475,10.9755 242.642,48.3088 254,111.5C 257.883,147.995 248.383,180.328 225.5,208.5C 225.5,207.5 225.5,206.5 225.5,205.5C 225.549,198.151 225.882,190.817 226.5,183.5C 226.5,182.833 226.5,182.167 226.5,181.5C 228.765,177.146 230.431,172.479 231.5,167.5C 233.785,164.665 235.118,161.332 235.5,157.5C 236.404,156.791 236.737,155.791 236.5,154.5C 238.785,151.665 240.118,148.332 240.5,144.5C 240.5,143.5 240.5,142.5 240.5,141.5C 241.341,139.621 241.675,137.621 241.5,135.5C 242.404,134.791 242.737,133.791 242.5,132.5C 243.165,129.351 243.498,126.018 243.5,122.5C 243.666,117.245 242.999,112.245 241.5,107.5C 241.768,105.901 241.434,104.568 240.5,103.5C 240.706,100.505 240.04,97.8383 238.5,95.5C 238.851,91.8413 237.851,88.8413 235.5,86.5C 235.672,85.5084 235.338,84.8417 234.5,84.5C 233.775,78.3907 231.442,73.0573 227.5,68.5C 227.155,65.8021 225.822,63.8021 223.5,62.5C 223.573,60.9731 222.906,59.9731 221.5,59.5C 221.573,57.9731 220.906,56.9731 219.5,56.5C 218.92,54.2512 217.587,52.5846 215.5,51.5C 213.188,47.1881 209.855,43.8548 205.5,41.5C 205.167,40.5 204.5,39.8333 203.5,39.5C 203.167,38.5 202.5,37.8333 201.5,37.5C 200.5,36.8333 199.5,36.1667 198.5,35.5C 198.167,34.5 197.5,33.8333 196.5,33.5C 195.5,32.8333 194.5,32.1667 193.5,31.5C 192.609,30.8902 191.609,30.5569 190.5,30.5C 190.027,29.0937 189.027,28.427 187.5,28.5C 186.564,27.0256 185.23,26.0256 183.5,25.5C 182.167,24.8333 180.833,24.1667 179.5,23.5C 177.95,22.5592 176.284,21.8925 174.5,21.5C 171.167,19.8333 167.833,18.1667 164.5,16.5C 162.485,15.0762 160.152,14.4095 157.5,14.5C 154.193,13.9492 150.86,13.6159 147.5,13.5C 146.081,12.5489 144.415,12.2155 142.5,12.5C 136.69,11.5104 130.69,11.1771 124.5,11.5C 120.119,11.3718 115.785,11.7051 111.5,12.5C 106.273,12.9783 101.273,13.9783 96.5,15.5C 93.8478,15.4095 91.5145,16.0762 89.5,17.5C 89.5,17.8333 89.5,18.1667 89.5,18.5C 83.1902,19.4949 77.5235,21.8282 72.5,25.5C 69.4604,26.6803 66.7937,28.347 64.5,30.5C 52.2853,38.2101 41.7853,47.8767 33,59.5C 32.2086,60.745 31.7086,62.0783 31.5,63.5C 28.2145,66.4 26.2145,70.0666 25.5,74.5C 24.5,74.8333 23.8333,75.5 23.5,76.5C 21.0849,79.3399 19.7516,82.6733 19.5,86.5C 18.4625,87.9303 17.7959,89.597 17.5,91.5C 15.2991,95.1138 13.9658,99.1138 13.5,103.5C 13.5,104.5 13.5,105.5 13.5,106.5C 12.2521,107.334 11.5854,108.667 11.5,110.5C 10.4328,120.817 10.2661,131.15 11,141.5C 11.21,143.058 11.71,144.391 12.5,145.5C 13.0101,148.983 13.6768,152.316 14.5,155.5C 14.9267,158.01 15.5933,160.343 16.5,162.5C 17.7958,166.739 19.4625,170.739 21.5,174.5C 21.5,174.833 21.5,175.167 21.5,175.5C 22.1667,176.833 22.8333,178.167 23.5,179.5C 24.5,181.5 25.5,183.5 26.5,185.5C 27.1667,186.5 27.8333,187.5 28.5,188.5C 29.1667,189.5 29.8333,190.5 30.5,191.5C 30.8333,192.167 31.1667,192.833 31.5,193.5C 31.8333,194.5 32.5,195.167 33.5,195.5C 33.427,197.027 34.0937,198.027 35.5,198.5C 36.4431,201.109 38.1097,203.109 40.5,204.5C 41.1667,205.833 42.1667,206.833 43.5,207.5C 44.4194,210.089 46.086,212.089 48.5,213.5C 50.8785,215.878 53.5451,217.878 56.5,219.5C 59.2749,222.605 62.6082,224.938 66.5,226.5C 69.2402,228.56 72.2402,230.226 75.5,231.5C 79.1109,233.317 82.7776,234.984 86.5,236.5C 88.5145,237.924 90.8478,238.59 93.5,238.5C 94.1667,238.5 94.8333,238.5 95.5,238.5C 100.473,240.76 105.806,241.76 111.5,241.5C 111.833,241.5 112.167,241.5 112.5,241.5C 117.64,242.488 122.974,242.821 128.5,242.5C 132.702,242.817 136.702,242.483 140.5,241.5C 140.833,241.5 141.167,241.5 141.5,241.5C 144.206,241.425 146.873,241.092 149.5,240.5C 152.373,240.198 155.039,239.531 157.5,238.5C 160.486,238.097 163.152,237.097 165.5,235.5C 167.833,234.833 170.167,234.167 172.5,233.5C 173.873,233.657 175.207,233.49 176.5,233C 179.412,231.768 182.078,230.268 184.5,228.5C 190.441,227.587 196.441,227.254 202.5,227.5C 203.5,227.5 204.5,227.5 205.5,227.5C 188.848,240.818 169.848,249.318 148.5,253C 86.22,260.115 40.3867,236.281 11,181.5C 5.43334,168.878 1.6,155.878 -0.5,142.5C -0.5,132.167 -0.5,121.833 -0.5,111.5C 11.1757,48.491 48.509,11.1576 111.5,-0.5 Z"/></g>
<g><path style="opacity:1" fill="#8065a5" d="M 157.5,14.5 C 160.152,14.4095 162.485,15.0762 164.5,16.5C 163.167,16.5 161.833,16.5 160.5,16.5C 159.5,15.8333 158.5,15.1667 157.5,14.5 Z"/></g>
<g><path style="opacity:1" fill="#b75376" d="M 96.5,15.5 C 95.5,16.1667 94.5,16.8333 93.5,17.5C 92.1667,17.5 90.8333,17.5 89.5,17.5C 91.5145,16.0762 93.8478,15.4095 96.5,15.5 Z"/></g>
<g><path style="opacity:1" fill="#bb00fe" d="M 142.5,12.5 C 144.415,12.2155 146.081,12.5489 147.5,13.5C 147.631,14.2389 147.464,14.9056 147,15.5C 136.635,25.0334 126.468,34.7 116.5,44.5C 115.127,44.6567 113.793,44.49 112.5,44C 122.339,33.3281 132.339,22.8281 142.5,12.5 Z"/></g>
<g><path style="opacity:1" fill="#dd06fe" d="M 133.5,12.5 C 136.5,12.5 139.5,12.5 142.5,12.5C 132.339,22.8281 122.339,33.3281 112.5,44C 113.793,44.49 115.127,44.6567 116.5,44.5C 117.5,44.5 118.5,44.5 119.5,44.5C 116.833,45.1667 114.167,45.8333 111.5,46.5C 108.447,46.1107 105.78,46.7773 103.5,48.5C 101.708,48.366 100.042,48.6993 98.5,49.5C 98.3505,48.448 98.5172,47.448 99,46.5C 110.341,34.9919 121.841,23.6585 133.5,12.5 Z"/></g>
<g><path style="opacity:1" fill="#1e04fe" d="M 174.5,21.5 C 176.284,21.8925 177.95,22.5592 179.5,23.5C 179.657,24.8734 179.49,26.2068 179,27.5C 173.199,34.3025 167.032,40.8025 160.5,47C 154.879,46.5428 149.212,46.0428 143.5,45.5C 142.527,43.9317 142.36,42.265 143,40.5C 150.048,32.9496 157.548,25.9496 165.5,19.5C 168.447,20.4226 171.447,21.0893 174.5,21.5 Z"/></g>
<g><path style="opacity:1" fill="#0449fe" d="M 183.5,25.5 C 185.23,26.0256 186.564,27.0256 187.5,28.5C 187.649,29.552 187.483,30.552 187,31.5C 182.608,36.2288 177.941,40.5622 173,44.5C 171.292,50.7274 167.458,52.7274 161.5,50.5C 159.694,49.9759 158.028,49.3092 156.5,48.5C 158.857,48.6633 161.19,48.4966 163.5,48C 170.197,40.9683 177.197,34.3016 184.5,28C 183.748,27.3292 183.414,26.4959 183.5,25.5 Z"/></g>
<g><path style="opacity:1" fill="#6705fd" d="M 160.5,16.5 C 161.833,16.5 163.167,16.5 164.5,16.5C 167.833,18.1667 171.167,19.8333 174.5,21.5C 171.447,21.0893 168.447,20.4226 165.5,19.5C 157.548,25.9496 150.048,32.9496 143,40.5C 142.36,42.265 142.527,43.9317 143.5,45.5C 139.731,45.756 136.064,45.4227 132.5,44.5C 131.909,43.8485 131.243,43.1818 130.5,42.5C 137.951,33.5472 145.951,25.0472 154.5,17C 156.473,16.5045 158.473,16.3379 160.5,16.5 Z"/></g>
<g><path style="opacity:1" fill="#9a01fe" d="M 147.5,13.5 C 150.86,13.6159 154.193,13.9492 157.5,14.5C 158.5,15.1667 159.5,15.8333 160.5,16.5C 158.473,16.3379 156.473,16.5045 154.5,17C 145.951,25.0472 137.951,33.5472 130.5,42.5C 131.243,43.1818 131.909,43.8485 132.5,44.5C 128.167,44.5 123.833,44.5 119.5,44.5C 118.5,44.5 117.5,44.5 116.5,44.5C 126.468,34.7 136.635,25.0334 147,15.5C 147.464,14.9056 147.631,14.2389 147.5,13.5 Z"/></g>
<g><path style="opacity:1" fill="#fe016e" d="M 96.5,15.5 C 97.8333,15.5 99.1667,15.5 100.5,15.5C 99.6246,18.5415 97.6246,20.3748 94.5,21C 89.5607,26.9423 84.2274,32.6089 78.5,38C 77.5,38.3333 76.5,38.6667 75.5,39C 55.8925,59.2707 36.3925,79.4373 17,99.5C 16.5357,98.9056 16.369,98.2389 16.5,97.5C 17.1495,95.5648 17.4828,93.5648 17.5,91.5C 17.7959,89.597 18.4625,87.9303 19.5,86.5C 19.272,88.3547 19.9387,89.1881 21.5,89C 39.4282,71.4098 57.7616,54.0764 76.5,37C 82.8333,30.6667 89.1667,24.3333 95.5,18C 94.9056,17.5357 94.2389,17.369 93.5,17.5C 94.5,16.8333 95.5,16.1667 96.5,15.5 Z"/></g>
<g><path style="opacity:1" fill="#06a1fd" d="M 196.5,33.5 C 197.5,33.8333 198.167,34.5 198.5,35.5C 198.16,37.679 197.16,39.5123 195.5,41C 188.531,46.9681 181.864,53.3014 175.5,60C 174.552,60.4828 173.552,60.6495 172.5,60.5C 172.267,58.9382 171.6,57.6049 170.5,56.5C 171.847,57.0283 173.181,57.195 174.5,57C 177.85,52.7952 181.85,49.6286 186.5,47.5C 186.351,46.448 186.517,45.448 187,44.5C 189.703,41.462 192.703,38.7954 196,36.5C 196.483,35.552 196.649,34.552 196.5,33.5 Z"/></g>
<g><path style="opacity:1" fill="#f71425" d="M 31.5,63.5 C 31.7086,62.0783 32.2086,60.745 33,59.5C 41.7853,47.8767 52.2853,38.2101 64.5,30.5C 65.6948,30.3225 66.8615,29.9891 68,29.5C 69.2575,29.8499 69.5908,30.5165 69,31.5C 61.5554,39.7854 53.3887,47.1188 44.5,53.5C 41.2434,58.4271 37.2434,62.7604 32.5,66.5C 31.6143,65.675 31.281,64.675 31.5,63.5 Z"/></g>
<g><path style="opacity:1" fill="#038efe" d="M 193.5,31.5 C 194.5,32.1667 195.5,32.8333 196.5,33.5C 196.649,34.552 196.483,35.552 196,36.5C 192.703,38.7954 189.703,41.462 187,44.5C 186.517,45.448 186.351,46.448 186.5,47.5C 181.85,49.6286 177.85,52.7952 174.5,57C 173.181,57.195 171.847,57.0283 170.5,56.5C 169.833,56.5 169.5,56.1667 169.5,55.5C 170.552,55.6495 171.552,55.4828 172.5,55C 175.867,51.2974 179.534,47.964 183.5,45C 186,41.1667 189.167,38 193,35.5C 193.49,34.2068 193.657,32.8734 193.5,31.5 Z"/></g>
<g><path style="opacity:1" fill="#152efb" d="M 179.5,23.5 C 180.833,24.1667 182.167,24.8333 183.5,25.5C 183.414,26.4959 183.748,27.3292 184.5,28C 177.197,34.3016 170.197,40.9683 163.5,48C 161.19,48.4966 158.857,48.6633 156.5,48.5C 155.833,48.5 155.167,48.5 154.5,48.5C 150.998,47.0825 147.331,46.4158 143.5,46.5C 143.5,46.1667 143.5,45.8333 143.5,45.5C 149.212,46.0428 154.879,46.5428 160.5,47C 167.032,40.8025 173.199,34.3025 179,27.5C 179.49,26.2068 179.657,24.8734 179.5,23.5 Z"/></g>
<g><path style="opacity:1" fill="#0663fd" d="M 187.5,28.5 C 189.027,28.427 190.027,29.0937 190.5,30.5C 187.738,34.4391 184.738,38.2724 181.5,42C 177.525,45.3036 173.525,48.637 169.5,52C 168.207,52.49 166.873,52.6567 165.5,52.5C 164.292,51.7659 162.959,51.4326 161.5,51.5C 161.5,51.1667 161.5,50.8333 161.5,50.5C 167.458,52.7274 171.292,50.7274 173,44.5C 177.941,40.5622 182.608,36.2288 187,31.5C 187.483,30.552 187.649,29.552 187.5,28.5 Z"/></g>
<g><path style="opacity:1" fill="#fc0a4d" d="M 89.5,18.5 C 91.9272,19.2789 91.9272,20.4455 89.5,22C 86.8271,21.9372 86.8271,21.2705 89.5,20C 88.1011,19.4054 86.7678,19.5721 85.5,20.5C 83.523,22.5574 82.023,24.8907 81,27.5C 63.2107,44.323 45.7107,61.4897 28.5,79C 26.6951,79.972 25.0284,81.1387 23.5,82.5C 23.0798,80.674 23.0798,78.674 23.5,76.5C 23.8333,75.5 24.5,74.8333 25.5,74.5C 25.6964,76.6456 26.6964,76.8122 28.5,75C 38.4397,64.2209 49.1063,54.3875 60.5,45.5C 66.6366,37.8625 73.3033,30.6959 80.5,24C 77.7804,23.9552 75.1138,24.4552 72.5,25.5C 77.5235,21.8282 83.1902,19.4949 89.5,18.5 Z"/></g>
<g><path style="opacity:1" fill="#9886b4" d="M 119.5,44.5 C 123.833,44.5 128.167,44.5 132.5,44.5C 136.064,45.4227 139.731,45.756 143.5,45.5C 143.5,45.8333 143.5,46.1667 143.5,46.5C 132.833,46.5 122.167,46.5 111.5,46.5C 114.167,45.8333 116.833,45.1667 119.5,44.5 Z"/></g>
<g><path style="opacity:1" fill="#0bf5fa" d="M 205.5,41.5 C 209.855,43.8548 213.188,47.1881 215.5,51.5C 214.5,50.8333 213.5,50.1667 212.5,49.5C 211.855,48.1882 210.855,47.1882 209.5,46.5C 189.042,65.1241 169.376,84.6241 150.5,105C 151.71,106.039 152.71,107.206 153.5,108.5C 150.825,106.83 148.159,105.164 145.5,103.5C 161.822,86.1785 178.822,69.5118 196.5,53.5C 199.541,49.4692 202.541,45.4692 205.5,41.5 Z"/></g>
<g><path style="opacity:1" fill="#9ea0a0" d="M 111.5,46.5 C 122.167,46.5 132.833,46.5 143.5,46.5C 147.331,46.4158 150.998,47.0825 154.5,48.5C 156.395,50.2413 158.728,51.2413 161.5,51.5C 162.959,51.4326 164.292,51.7659 165.5,52.5C 166.545,53.8776 167.878,54.8776 169.5,55.5C 169.5,56.1667 169.833,56.5 170.5,56.5C 171.6,57.6049 172.267,58.9382 172.5,60.5C 172.5,62.5 172.5,64.5 172.5,66.5C 170.109,71.555 166.109,74.2216 160.5,74.5C 159.167,74.1667 157.833,73.8333 156.5,73.5C 154.938,73.2671 153.605,72.6005 152.5,71.5C 151.167,70.5 149.833,69.5 148.5,68.5C 147.5,67.8333 146.5,67.1667 145.5,66.5C 145.167,65.5 144.5,64.8333 143.5,64.5C 141.54,62.8437 139.54,61.177 137.5,59.5C 135.137,57.3199 132.47,55.6532 129.5,54.5C 128.653,53.0337 127.32,52.2004 125.5,52C 119.5,51.3333 113.5,51.3333 107.5,52C 106.584,52.2784 105.918,52.7784 105.5,53.5C 102.687,53.0246 100.687,54.0246 99.5,56.5C 93.6398,59.1751 91.9732,63.5084 94.5,69.5C 95.604,71.3885 96.9373,73.0552 98.5,74.5C 100.775,78.3073 104.108,80.6407 108.5,81.5C 108.973,82.9063 109.973,83.573 111.5,83.5C 113.336,85.588 115.669,86.9213 118.5,87.5C 118.5,88.1667 118.833,88.5 119.5,88.5C 121.336,90.588 123.669,91.9213 126.5,92.5C 127.78,93.9313 129.447,94.5979 131.5,94.5C 131.5,95.1667 131.833,95.5 132.5,95.5C 133.167,96.1667 133.833,96.8333 134.5,97.5C 137.621,98.8953 140.621,100.562 143.5,102.5C 143.842,103.338 144.508,103.672 145.5,103.5C 148.159,105.164 150.825,106.83 153.5,108.5C 153.973,109.906 154.973,110.573 156.5,110.5C 156.842,111.338 157.508,111.672 158.5,111.5C 159.585,113.587 161.251,114.92 163.5,115.5C 163.833,116.5 164.5,117.167 165.5,117.5C 165.833,117.5 166.167,117.5 166.5,117.5C 167.5,119.167 168.833,120.5 170.5,121.5C 172.147,124.473 174.147,127.14 176.5,129.5C 176.932,130.71 177.599,131.71 178.5,132.5C 179.11,133.391 179.443,134.391 179.5,135.5C 179.755,137.967 180.755,139.967 182.5,141.5C 182.5,141.833 182.5,142.167 182.5,142.5C 183.833,151.5 183.833,160.5 182.5,169.5C 181.566,170.568 181.232,171.901 181.5,173.5C 179.184,177.46 176.85,181.46 174.5,185.5C 168.728,191.615 162.394,196.948 155.5,201.5C 153.033,201.755 151.033,202.755 149.5,204.5C 146.355,205.574 143.355,206.907 140.5,208.5C 139.167,208.5 137.833,208.5 136.5,208.5C 127.167,209.833 117.833,209.833 108.5,208.5C 106.565,207.85 104.565,207.517 102.5,207.5C 101.167,207.167 99.8333,206.833 98.5,206.5C 94.7627,205.134 91.096,203.467 87.5,201.5C 87.1667,200.5 86.5,199.833 85.5,199.5C 84.1667,198.167 82.8333,196.833 81.5,195.5C 80.1667,193.5 78.5,191.833 76.5,190.5C 76.573,188.973 75.9063,187.973 74.5,187.5C 74.4431,186.391 74.1098,185.391 73.5,184.5C 71.5174,180.216 69.8507,175.883 68.5,171.5C 68.5,165.833 68.5,160.167 68.5,154.5C 68.5,153.833 68.5,153.167 68.5,152.5C 69.871,150.064 70.871,147.397 71.5,144.5C 73.2451,142.967 74.2451,140.967 74.5,138.5C 76.8903,137.109 78.5569,135.109 79.5,132.5C 81.1667,130.5 82.8333,128.5 84.5,126.5C 89.6104,122.705 94.9438,119.372 100.5,116.5C 104.073,114.879 107.739,113.546 111.5,112.5C 116.425,111.315 121.425,110.649 126.5,110.5C 126.719,109.325 126.386,108.325 125.5,107.5C 122.465,105.773 119.799,103.773 117.5,101.5C 116.395,100.4 115.062,99.7329 113.5,99.5C 113.167,98.8333 112.833,98.1667 112.5,97.5C 111.415,95.4131 109.749,94.0798 107.5,93.5C 107.167,93.5 106.833,93.5 106.5,93.5C 105.5,93.1667 104.833,92.5 104.5,91.5C 103.415,89.4131 101.749,88.0798 99.5,87.5C 98.0892,85.086 96.0892,83.4194 93.5,82.5C 92.1667,81.5 90.8333,80.5 89.5,79.5C 87.6249,76.4116 86.2915,73.0783 85.5,69.5C 84.1894,60.778 87.5228,54.778 95.5,51.5C 98.3973,50.871 101.064,49.871 103.5,48.5C 105.78,46.7773 108.447,46.1107 111.5,46.5 Z"/></g>
<g><path style="opacity:1" fill="#0977fd" d="M 190.5,30.5 C 191.609,30.5569 192.609,30.8902 193.5,31.5C 193.657,32.8734 193.49,34.2068 193,35.5C 189.167,38 186,41.1667 183.5,45C 179.534,47.964 175.867,51.2974 172.5,55C 171.552,55.4828 170.552,55.6495 169.5,55.5C 167.878,54.8776 166.545,53.8776 165.5,52.5C 166.873,52.6567 168.207,52.49 169.5,52C 173.525,48.637 177.525,45.3036 181.5,42C 184.738,38.2724 187.738,34.4391 190.5,30.5 Z"/></g>
<g><path style="opacity:1" fill="#fe025e" d="M 89.5,18.5 C 89.5,18.1667 89.5,17.8333 89.5,17.5C 90.8333,17.5 92.1667,17.5 93.5,17.5C 94.2389,17.369 94.9056,17.5357 95.5,18C 89.1667,24.3333 82.8333,30.6667 76.5,37C 57.7616,54.0764 39.4282,71.4098 21.5,89C 19.9387,89.1881 19.272,88.3547 19.5,86.5C 19.7516,82.6733 21.0849,79.3399 23.5,76.5C 23.0798,78.674 23.0798,80.674 23.5,82.5C 25.0284,81.1387 26.6951,79.972 28.5,79C 45.7107,61.4897 63.2107,44.323 81,27.5C 82.023,24.8907 83.523,22.5574 85.5,20.5C 86.7678,19.5721 88.1011,19.4054 89.5,20C 86.8271,21.2705 86.8271,21.9372 89.5,22C 91.9272,20.4455 91.9272,19.2789 89.5,18.5 Z"/></g>
<g><path style="opacity:1" fill="#16bafc" d="M 198.5,35.5 C 199.5,36.1667 200.5,36.8333 201.5,37.5C 201.291,38.9217 200.791,40.255 200,41.5C 191.833,49.6667 183.667,57.8333 175.5,66C 174.552,66.4828 173.552,66.6495 172.5,66.5C 172.5,64.5 172.5,62.5 172.5,60.5C 173.552,60.6495 174.552,60.4828 175.5,60C 181.864,53.3014 188.531,46.9681 195.5,41C 197.16,39.5123 198.16,37.679 198.5,35.5 Z"/></g>
<g><path style="opacity:1" fill="#ba7dbe" d="M 103.5,48.5 C 101.064,49.871 98.3973,50.871 95.5,51.5C 95.9731,50.0937 96.9731,49.427 98.5,49.5C 100.042,48.6993 101.708,48.366 103.5,48.5 Z"/></g>
<g><path style="opacity:1" fill="#7b80c1" d="M 154.5,48.5 C 155.167,48.5 155.833,48.5 156.5,48.5C 158.028,49.3092 159.694,49.9759 161.5,50.5C 161.5,50.8333 161.5,51.1667 161.5,51.5C 158.728,51.2413 156.395,50.2413 154.5,48.5 Z"/></g>
<g><path style="opacity:1" fill="#9a6ac9" d="M 129.5,54.5 C 127.565,53.8505 125.565,53.5172 123.5,53.5C 117.651,52.3357 111.651,52.3357 105.5,53.5C 105.918,52.7784 106.584,52.2784 107.5,52C 113.5,51.3333 119.5,51.3333 125.5,52C 127.32,52.2004 128.653,53.0337 129.5,54.5 Z"/></g>
<g><path style="opacity:1" fill="#fb0c3a" d="M 25.5,74.5 C 26.2145,70.0666 28.2145,66.4 31.5,63.5C 31.281,64.675 31.6143,65.675 32.5,66.5C 37.2434,62.7604 41.2434,58.4271 44.5,53.5C 53.3887,47.1188 61.5554,39.7854 69,31.5C 69.5908,30.5165 69.2575,29.8499 68,29.5C 66.8615,29.9891 65.6948,30.3225 64.5,30.5C 66.7937,28.347 69.4604,26.6803 72.5,25.5C 75.1138,24.4552 77.7804,23.9552 80.5,24C 73.3033,30.6959 66.6366,37.8625 60.5,45.5C 49.1063,54.3875 38.4397,64.2209 28.5,75C 26.6964,76.8122 25.6964,76.6456 25.5,74.5 Z"/></g>
<g><path style="opacity:1" fill="#fe0198" d="M 111.5,12.5 C 102.893,22.9412 93.393,32.6079 83,41.5C 77.8029,49.6965 70.9696,56.1965 62.5,61C 46.9024,77.435 30.5691,92.935 13.5,107.5C 13.5,107.167 13.5,106.833 13.5,106.5C 13.5,105.5 13.5,104.5 13.5,103.5C 14.1667,103.167 14.8333,102.833 15.5,102.5C 15.8966,103.525 16.5632,103.692 17.5,103C 24.1972,95.9683 31.1972,89.3016 38.5,83C 60.4459,59.7208 83.1126,37.0541 106.5,15C 104.575,15.1349 102.575,15.3016 100.5,15.5C 99.1667,15.5 97.8333,15.5 96.5,15.5C 101.273,13.9783 106.273,12.9783 111.5,12.5 Z"/></g>
<g><path style="opacity:1" fill="#a20bfc" d="M 123.5,53.5 C 120.482,53.3354 117.482,53.502 114.5,54C 109,59.5 103.5,65 98,70.5C 97.805,71.8193 97.9717,73.1526 98.5,74.5C 96.9373,73.0552 95.604,71.3885 94.5,69.5C 94.3359,66.8127 94.5026,64.146 95,61.5C 96.7073,59.9625 98.2073,58.2959 99.5,56.5C 100.687,54.0246 102.687,53.0246 105.5,53.5C 111.651,52.3357 117.651,52.3357 123.5,53.5 Z"/></g>
<g><path style="opacity:1" fill="#b550dd" d="M 99.5,56.5 C 98.2073,58.2959 96.7073,59.9625 95,61.5C 94.5026,64.146 94.3359,66.8127 94.5,69.5C 91.9732,63.5084 93.6398,59.1751 99.5,56.5 Z"/></g>
<g><path style="opacity:1" fill="#03fe96" d="M 220.5,59.5 C 219.448,59.3505 218.448,59.5172 217.5,60C 199.326,76.8404 181.826,94.3404 165,112.5C 164.616,114.197 164.782,115.863 165.5,117.5C 164.5,117.167 163.833,116.5 163.5,115.5C 162.2,114.399 161.7,113.066 162,111.5C 178.473,93.6937 195.64,76.5271 213.5,60C 215.941,58.6077 218.274,58.441 220.5,59.5 Z"/></g>
<g><path style="opacity:1" fill="#07e0fe" d="M 203.5,39.5 C 204.5,39.8333 205.167,40.5 205.5,41.5C 202.541,45.4692 199.541,49.4692 196.5,53.5C 178.822,69.5118 161.822,86.1785 145.5,103.5C 144.508,103.672 143.842,103.338 143.5,102.5C 152.517,91.9767 162.183,81.81 172.5,72C 173.5,71.6667 174.5,71.3333 175.5,71C 182.984,62.3493 190.984,54.1827 199.5,46.5C 200.88,44.1382 202.213,41.8048 203.5,39.5 Z"/></g>
<g><path style="opacity:1" fill="#fe02ca" d="M 119.5,12.5 C 113.173,19.9934 106.673,27.3267 100,34.5C 71.2703,64.2289 42.2703,93.5623 13,122.5C 12.7679,123.737 12.2679,124.737 11.5,125.5C 11.1872,121.958 11.5206,118.625 12.5,115.5C 12.3505,116.552 12.5172,117.552 13,118.5C 47.1394,83.6935 81.306,48.8601 115.5,14C 116.745,13.2086 118.078,12.7086 119.5,12.5 Z"/></g>
<g><path style="opacity:1" fill="#fd0af1" d="M 133.5,12.5 C 121.841,23.6585 110.341,34.9919 99,46.5C 98.5172,47.448 98.3505,48.448 98.5,49.5C 96.9731,49.427 95.9731,50.0937 95.5,51.5C 87.5228,54.778 84.1894,60.778 85.5,69.5C 84.8333,67.5 84.1667,65.5 83.5,63.5C 75.3648,70.1114 67.3648,77.6114 59.5,86C 57.8333,87 56.1667,88 54.5,89C 41.1421,104.279 26.8087,118.446 11.5,131.5C 11.5,130.167 11.5,128.833 11.5,127.5C 21.0291,118.805 30.0291,109.638 38.5,100C 40.3289,99.7265 41.8289,98.8932 43,97.5C 45.1374,93.795 47.6374,90.295 50.5,87C 62.1077,77.7271 72.7743,67.3937 82.5,56C 83.448,55.5172 84.448,55.3505 85.5,55.5C 85.3505,54.448 85.5172,53.448 86,52.5C 93.6329,43.8578 102.133,36.3578 111.5,30C 116.86,24.6396 122.194,19.3063 127.5,14C 129.436,13.187 131.436,12.687 133.5,12.5 Z"/></g>
<g><path style="opacity:1" fill="#5f04fe" d="M 123.5,53.5 C 125.565,53.5172 127.565,53.8505 129.5,54.5C 132.47,55.6532 135.137,57.3199 137.5,59.5C 133.33,58.7953 129.997,57.962 127.5,57C 124.556,60.6193 121.056,63.4526 117,65.5C 114.048,69.4932 111.048,73.4932 108,77.5C 107.805,78.8193 107.972,80.1526 108.5,81.5C 104.108,80.6407 100.775,78.3073 98.5,74.5C 97.9717,73.1526 97.805,71.8193 98,70.5C 103.5,65 109,59.5 114.5,54C 117.482,53.502 120.482,53.3354 123.5,53.5 Z"/></g>
<g><path style="opacity:1" fill="#1803fe" d="M 137.5,59.5 C 137.722,61.6075 138.722,63.2742 140.5,64.5C 133.542,70.9908 126.542,77.4908 119.5,84C 116.779,84.6015 114.113,84.4349 111.5,83.5C 109.973,83.573 108.973,82.9063 108.5,81.5C 107.972,80.1526 107.805,78.8193 108,77.5C 111.048,73.4932 114.048,69.4932 117,65.5C 121.056,63.4526 124.556,60.6193 127.5,57C 129.997,57.962 133.33,58.7953 137.5,59.5 Z"/></g>
<g><path style="opacity:1" fill="#fe0082" d="M 15.5,102.5 C 15.2155,100.585 15.5489,98.9187 16.5,97.5C 16.369,98.2389 16.5357,98.9056 17,99.5C 36.3925,79.4373 55.8925,59.2707 75.5,39C 76.5,38.6667 77.5,38.3333 78.5,38C 84.2274,32.6089 89.5607,26.9423 94.5,21C 97.6246,20.3748 99.6246,18.5415 100.5,15.5C 102.575,15.3016 104.575,15.1349 106.5,15C 83.1126,37.0541 60.4459,59.7208 38.5,83C 31.1972,89.3016 24.1972,95.9683 17.5,103C 16.5632,103.692 15.8966,103.525 15.5,102.5 Z"/></g>
<g><path style="opacity:1" fill="#0dfe0d" d="M 233.5,84.5 C 230.437,89.0719 226.77,93.2385 222.5,97C 208.895,108.603 195.895,120.936 183.5,134C 181.67,134.182 180.003,133.682 178.5,132.5C 177.599,131.71 176.932,130.71 176.5,129.5C 175.737,126.859 175.57,124.192 176,121.5C 186.79,111.553 196.957,101.053 206.5,90C 207.449,89.3828 208.282,89.5494 209,90.5C 215.333,85.5 221,79.8333 226,73.5C 226.333,74.1667 226.667,74.8333 227,75.5C 228,74.1667 229,74.1667 230,75.5C 230.86,78.6905 232.026,81.6905 233.5,84.5 Z"/></g>
<g><path style="opacity:1" fill="#0447fe" d="M 143.5,64.5 C 144.5,64.8333 145.167,65.5 145.5,66.5C 146.028,67.8474 146.195,69.1807 146,70.5C 139.833,76.6667 133.667,82.8333 127.5,89C 124.779,89.6015 122.113,89.4349 119.5,88.5C 118.833,88.5 118.5,88.1667 118.5,87.5C 120.575,87.6984 122.575,87.8651 124.5,88C 131.532,81.3028 138.198,74.3028 144.5,67C 143.748,66.3292 143.414,65.4959 143.5,64.5 Z"/></g>
<g><path style="opacity:1" fill="#07fee5" d="M 212.5,49.5 C 210.369,51.3949 208.036,53.0616 205.5,54.5C 188.495,71.6719 171.661,89.0052 155,106.5C 154.7,108.066 155.2,109.399 156.5,110.5C 154.973,110.573 153.973,109.906 153.5,108.5C 152.71,107.206 151.71,106.039 150.5,105C 169.376,84.6241 189.042,65.1241 209.5,46.5C 210.855,47.1882 211.855,48.1882 212.5,49.5 Z"/></g>
<g><path style="opacity:1" fill="#fe01b0" d="M 124.5,11.5 C 123.081,12.4511 121.415,12.7845 119.5,12.5C 118.078,12.7086 116.745,13.2086 115.5,14C 81.306,48.8601 47.1394,83.6935 13,118.5C 12.5172,117.552 12.3505,116.552 12.5,115.5C 12.1936,112.615 12.5269,109.948 13.5,107.5C 30.5691,92.935 46.9024,77.435 62.5,61C 70.9696,56.1965 77.8029,49.6965 83,41.5C 93.393,32.6079 102.893,22.9412 111.5,12.5C 115.785,11.7051 120.119,11.3718 124.5,11.5 Z"/></g>
<g><path style="opacity:1" fill="#ee00fe" d="M 83.5,63.5 C 83.5,64.5 83.5,65.5 83.5,66.5C 74.7528,74.9511 65.9195,83.2844 57,91.5C 56.6667,92.5 56.3333,93.5 56,94.5C 41.0494,108.523 26.5494,122.856 12.5,137.5C 11.5386,135.735 11.2053,133.735 11.5,131.5C 26.8087,118.446 41.1421,104.279 54.5,89C 56.1667,88 57.8333,87 59.5,86C 67.3648,77.6114 75.3648,70.1114 83.5,63.5 Z"/></g>
<g><path style="opacity:1" fill="#092ffd" d="M 137.5,59.5 C 139.54,61.177 141.54,62.8437 143.5,64.5C 143.414,65.4959 143.748,66.3292 144.5,67C 138.198,74.3028 131.532,81.3028 124.5,88C 122.575,87.8651 120.575,87.6984 118.5,87.5C 115.669,86.9213 113.336,85.588 111.5,83.5C 114.113,84.4349 116.779,84.6015 119.5,84C 126.542,77.4908 133.542,70.9908 140.5,64.5C 138.722,63.2742 137.722,61.6075 137.5,59.5 Z"/></g>
<g><path style="opacity:1" fill="#06acfe" d="M 156.5,73.5 C 157.833,73.8333 159.167,74.1667 160.5,74.5C 160.918,75.2216 161.584,75.7216 162.5,76C 155.125,83.009 147.791,90.009 140.5,97C 138.527,97.4955 136.527,97.6621 134.5,97.5C 133.833,96.8333 133.167,96.1667 132.5,95.5C 134.199,95.6602 135.866,95.4935 137.5,95C 144.167,88.3333 150.833,81.6667 157.5,75C 156.944,74.6174 156.611,74.1174 156.5,73.5 Z"/></g>
<g><path style="opacity:1" fill="#fe00dc" d="M 124.5,11.5 C 130.69,11.1771 136.69,11.5104 142.5,12.5C 139.5,12.5 136.5,12.5 133.5,12.5C 131.436,12.687 129.436,13.187 127.5,14C 122.194,19.3063 116.86,24.6396 111.5,30C 102.133,36.3578 93.6329,43.8578 86,52.5C 85.5172,53.448 85.3505,54.448 85.5,55.5C 84.448,55.3505 83.448,55.5172 82.5,56C 72.7743,67.3937 62.1077,77.7271 50.5,87C 47.6374,90.295 45.1374,93.795 43,97.5C 41.8289,98.8932 40.3289,99.7265 38.5,100C 30.0291,109.638 21.0291,118.805 11.5,127.5C 11.5,126.833 11.5,126.167 11.5,125.5C 12.2679,124.737 12.7679,123.737 13,122.5C 42.2703,93.5623 71.2703,64.2289 100,34.5C 106.673,27.3267 113.173,19.9934 119.5,12.5C 121.415,12.7845 123.081,12.4511 124.5,11.5 Z"/></g>
<g><path style="opacity:1" fill="#8c7dbc" d="M 93.5,83.5 C 93.5,83.1667 93.5,82.8333 93.5,82.5C 96.0892,83.4194 98.0892,85.086 99.5,87.5C 97.9382,87.2671 96.6049,86.6005 95.5,85.5C 95.1667,84.5 94.5,83.8333 93.5,83.5 Z"/></g>
<g><path style="opacity:1" fill="#0392fe" d="M 152.5,71.5 C 153.605,72.6005 154.938,73.2671 156.5,73.5C 156.611,74.1174 156.944,74.6174 157.5,75C 150.833,81.6667 144.167,88.3333 137.5,95C 135.866,95.4935 134.199,95.6602 132.5,95.5C 131.833,95.5 131.5,95.1667 131.5,94.5C 132.552,94.6495 133.552,94.4828 134.5,94C 140.734,88.1024 146.567,81.9357 152,75.5C 152.49,74.2068 152.657,72.8734 152.5,71.5 Z"/></g>
<g><path style="opacity:1" fill="#1762fb" d="M 145.5,66.5 C 146.5,67.1667 147.5,67.8333 148.5,68.5C 149.218,70.1368 149.384,71.8034 149,73.5C 142.802,80.0321 136.302,86.1987 129.5,92C 128.552,92.4828 127.552,92.6495 126.5,92.5C 123.669,91.9213 121.336,90.588 119.5,88.5C 122.113,89.4349 124.779,89.6015 127.5,89C 133.667,82.8333 139.833,76.6667 146,70.5C 146.195,69.1807 146.028,67.8474 145.5,66.5 Z"/></g>
<g><path style="opacity:1" fill="#0b7afd" d="M 148.5,68.5 C 149.833,69.5 151.167,70.5 152.5,71.5C 152.657,72.8734 152.49,74.2068 152,75.5C 146.567,81.9357 140.734,88.1024 134.5,94C 133.552,94.4828 132.552,94.6495 131.5,94.5C 129.447,94.5979 127.78,93.9313 126.5,92.5C 127.552,92.6495 128.552,92.4828 129.5,92C 136.302,86.1987 142.802,80.0321 149,73.5C 149.384,71.8034 149.218,70.1368 148.5,68.5 Z"/></g>
<g><path style="opacity:1" fill="#04fecd" d="M 212.5,49.5 C 213.5,50.1667 214.5,50.8333 215.5,51.5C 217.587,52.5846 218.92,54.2512 219.5,56.5C 217.852,55.1902 216.186,53.8569 214.5,52.5C 213.5,53 212.5,53.5 211.5,54C 194.912,69.9215 178.745,86.0882 163,102.5C 161.227,105.418 159.727,108.418 158.5,111.5C 157.508,111.672 156.842,111.338 156.5,110.5C 155.2,109.399 154.7,108.066 155,106.5C 171.661,89.0052 188.495,71.6719 205.5,54.5C 208.036,53.0616 210.369,51.3949 212.5,49.5 Z"/></g>
<g><path style="opacity:1" fill="#7d76c1" d="M 99.5,87.5 C 101.749,88.0798 103.415,89.4131 104.5,91.5C 102.938,91.2671 101.605,90.6005 100.5,89.5C 100.167,88.8333 99.8333,88.1667 99.5,87.5 Z"/></g>
<g><path style="opacity:1" fill="#d600fe" d="M 83.5,66.5 C 83.6621,68.5273 83.4955,70.5273 83,72.5C 58.9934,95.3399 35.4934,118.673 12.5,142.5C 12.5,140.833 12.5,139.167 12.5,137.5C 26.5494,122.856 41.0494,108.523 56,94.5C 56.3333,93.5 56.6667,92.5 57,91.5C 65.9195,83.2844 74.7528,74.9511 83.5,66.5 Z"/></g>
<g><path style="opacity:1" fill="#787bc2" d="M 107.5,93.5 C 109.749,94.0798 111.415,95.4131 112.5,97.5C 111.833,97.5 111.167,97.5 110.5,97.5C 109.5,96.1667 108.5,94.8333 107.5,93.5 Z"/></g>
<g><path style="opacity:1" fill="#15c9fc" d="M 201.5,37.5 C 202.5,37.8333 203.167,38.5 203.5,39.5C 202.213,41.8048 200.88,44.1382 199.5,46.5C 190.984,54.1827 182.984,62.3493 175.5,71C 174.5,71.3333 173.5,71.6667 172.5,72C 162.183,81.81 152.517,91.9767 143.5,102.5C 140.621,100.562 137.621,98.8953 134.5,97.5C 136.527,97.6621 138.527,97.4955 140.5,97C 147.791,90.009 155.125,83.009 162.5,76C 161.584,75.7216 160.918,75.2216 160.5,74.5C 166.109,74.2216 170.109,71.555 172.5,66.5C 173.552,66.6495 174.552,66.4828 175.5,66C 183.667,57.8333 191.833,49.6667 200,41.5C 200.791,40.255 201.291,38.9217 201.5,37.5 Z"/></g>
<g><path style="opacity:1" fill="#ca437b" d="M 17.5,91.5 C 17.4828,93.5648 17.1495,95.5648 16.5,97.5C 15.5489,98.9187 15.2155,100.585 15.5,102.5C 14.8333,102.833 14.1667,103.167 13.5,103.5C 13.9658,99.1138 15.2991,95.1138 17.5,91.5 Z"/></g>
<g><path style="opacity:1" fill="#07feb3" d="M 219.5,56.5 C 220.906,56.9731 221.573,57.9731 221.5,59.5C 221.167,59.5 220.833,59.5 220.5,59.5C 218.274,58.441 215.941,58.6077 213.5,60C 195.64,76.5271 178.473,93.6937 162,111.5C 161.7,113.066 162.2,114.399 163.5,115.5C 161.251,114.92 159.585,113.587 158.5,111.5C 159.727,108.418 161.227,105.418 163,102.5C 178.745,86.0882 194.912,69.9215 211.5,54C 212.5,53.5 213.5,53 214.5,52.5C 216.186,53.8569 217.852,55.1902 219.5,56.5 Z"/></g>
<g><path style="opacity:1" fill="#04fe6b" d="M 223.5,62.5 C 225.822,63.8021 227.155,65.8021 227.5,68.5C 225.146,67.3157 222.813,67.4824 220.5,69C 203.306,84.8604 186.806,101.36 171,118.5C 170.517,119.448 170.351,120.448 170.5,121.5C 168.833,120.5 167.5,119.167 166.5,117.5C 166.34,115.801 166.506,114.134 167,112.5C 176.059,103.77 185.392,95.4364 195,87.5C 202.722,78.7738 210.889,70.2738 219.5,62C 220.928,61.4209 222.262,61.5876 223.5,62.5 Z"/></g>
<g><path style="opacity:1" fill="#02fe84" d="M 220.5,59.5 C 220.833,59.5 221.167,59.5 221.5,59.5C 222.906,59.9731 223.573,60.9731 223.5,62.5C 222.262,61.5876 220.928,61.4209 219.5,62C 210.889,70.2738 202.722,78.7738 195,87.5C 185.392,95.4364 176.059,103.77 167,112.5C 166.506,114.134 166.34,115.801 166.5,117.5C 166.167,117.5 165.833,117.5 165.5,117.5C 164.782,115.863 164.616,114.197 165,112.5C 181.826,94.3404 199.326,76.8404 217.5,60C 218.448,59.5172 219.448,59.3505 220.5,59.5 Z"/></g>
<g><path style="opacity:1" fill="#3291f2" d="M 117.5,101.5 C 119.799,103.773 122.465,105.773 125.5,107.5C 126.386,108.325 126.719,109.325 126.5,110.5C 121.425,110.649 116.425,111.315 111.5,112.5C 114.022,110.639 116.522,108.639 119,106.5C 119.613,104.505 119.113,102.838 117.5,101.5 Z"/></g>
<g><path style="opacity:1" fill="#0c63fd" d="M 113.5,99.5 C 115.062,99.7329 116.395,100.4 117.5,101.5C 119.113,102.838 119.613,104.505 119,106.5C 116.522,108.639 114.022,110.639 111.5,112.5C 107.739,113.546 104.073,114.879 100.5,116.5C 100.312,114.897 100.812,113.563 102,112.5C 102.333,113.167 102.667,113.833 103,114.5C 105.572,109.922 108.905,105.922 113,102.5C 113.483,101.552 113.649,100.552 113.5,99.5 Z"/></g>
<g><path style="opacity:1" fill="#0740fd" d="M 110.5,97.5 C 111.167,97.5 111.833,97.5 112.5,97.5C 112.833,98.1667 113.167,98.8333 113.5,99.5C 113.649,100.552 113.483,101.552 113,102.5C 108.905,105.922 105.572,109.922 103,114.5C 102.667,113.833 102.333,113.167 102,112.5C 100.812,113.563 100.312,114.897 100.5,116.5C 94.9438,119.372 89.6104,122.705 84.5,126.5C 84.3505,125.448 84.5172,124.448 85,123.5C 93.0565,115.108 101.39,107.108 110,99.5C 110.464,98.9056 110.631,98.2389 110.5,97.5 Z"/></g>
<g><path style="opacity:1" fill="#07fd42" d="M 227.5,68.5 C 231.442,73.0573 233.775,78.3907 234.5,84.5C 234.167,84.5 233.833,84.5 233.5,84.5C 232.026,81.6905 230.86,78.6905 230,75.5C 229,74.1667 228,74.1667 227,75.5C 226.667,74.8333 226.333,74.1667 226,73.5C 221,79.8333 215.333,85.5 209,90.5C 208.282,89.5494 207.449,89.3828 206.5,90C 196.957,101.053 186.79,111.553 176,121.5C 175.57,124.192 175.737,126.859 176.5,129.5C 174.147,127.14 172.147,124.473 170.5,121.5C 170.351,120.448 170.517,119.448 171,118.5C 186.806,101.36 203.306,84.8604 220.5,69C 222.813,67.4824 225.146,67.3157 227.5,68.5 Z"/></g>
<g><path style="opacity:1" fill="#7500fe" d="M 93.5,83.5 C 94.5,83.8333 95.1667,84.5 95.5,85.5C 94.1266,85.3433 92.7932,85.51 91.5,86C 77.5837,99.2455 63.5837,112.579 49.5,126C 48.5,126.333 47.5,126.667 46.5,127C 36.686,136.897 27.0193,146.731 17.5,156.5C 17.5106,154.983 18.1772,153.816 19.5,153C 17.5911,152.552 16.4244,153.385 16,155.5C 15.3333,154.5 15.3333,153.5 16,152.5C 40.5449,129.622 64.0449,105.789 86.5,81C 87.5,80.3333 88.5,80.3333 89.5,81C 90.3079,82.7058 91.6412,83.5391 93.5,83.5 Z"/></g>
<g><path style="opacity:1" fill="#0126fe" d="M 106.5,93.5 C 106.833,93.5 107.167,93.5 107.5,93.5C 108.5,94.8333 109.5,96.1667 110.5,97.5C 110.631,98.2389 110.464,98.9056 110,99.5C 101.39,107.108 93.0565,115.108 85,123.5C 84.5172,124.448 84.3505,125.448 84.5,126.5C 83.4168,126.461 82.4168,126.127 81.5,125.5C 80.3044,125.846 80.3044,126.346 81.5,127C 80.552,127.483 79.552,127.649 78.5,127.5C 78.5,128.5 78.5,129.5 78.5,130.5C 76.0582,130.119 75.3915,130.786 76.5,132.5C 75.675,133.386 74.675,133.719 73.5,133.5C 59.6203,150.382 44.287,166.049 27.5,180.5C 26.2638,179.754 24.9305,179.421 23.5,179.5C 22.8333,178.167 22.1667,176.833 21.5,175.5C 24.7649,175.082 27.7649,173.915 30.5,172C 44.3617,158.59 58.3617,145.424 72.5,132.5C 83.6754,119.825 95.342,107.659 107.5,96C 106.748,95.3292 106.414,94.4959 106.5,93.5 Z"/></g>
<g><path style="opacity:1" fill="#abab5b" d="M 241.5,107.5 C 242.999,112.245 243.666,117.245 243.5,122.5C 243.498,126.018 243.165,129.351 242.5,132.5C 242.5,130.5 242.5,128.5 242.5,126.5C 242.813,122.958 242.479,119.625 241.5,116.5C 241.5,114.833 241.5,113.167 241.5,111.5C 241.5,110.167 241.5,108.833 241.5,107.5 Z"/></g>
<g><path style="opacity:1" fill="#f9f80a" d="M 241.5,119.5 C 241.657,120.873 241.49,122.207 241,123.5C 223.192,139.639 206.525,156.639 191,174.5C 168.432,197.692 144.932,219.859 120.5,241C 118.527,241.495 116.527,241.662 114.5,241.5C 120.145,235.52 125.812,229.52 131.5,223.5C 138.066,217.757 144.732,212.257 151.5,207C 147.83,207.159 144.163,207.659 140.5,208.5C 143.355,206.907 146.355,205.574 149.5,204.5C 151.967,204.245 153.967,203.245 155.5,201.5C 162.394,196.948 168.728,191.615 174.5,185.5C 176.5,183.833 178.5,182.167 180.5,180.5C 182.89,178.266 184.724,175.599 186,172.5C 204.951,155.384 223.451,137.718 241.5,119.5 Z"/></g>
<g><path style="opacity:1" fill="#b203fe" d="M 83.5,63.5 C 84.1667,65.5 84.8333,67.5 85.5,69.5C 86.2915,73.0783 87.6249,76.4116 89.5,79.5C 88.5768,78.6971 87.5768,78.5304 86.5,79C 62.9699,102.198 39.1365,125.031 15,147.5C 14.5026,150.146 14.3359,152.813 14.5,155.5C 13.6768,152.316 13.0101,148.983 12.5,145.5C 12.5,144.5 12.5,143.5 12.5,142.5C 35.4934,118.673 58.9934,95.3399 83,72.5C 83.4955,70.5273 83.6621,68.5273 83.5,66.5C 83.5,65.5 83.5,64.5 83.5,63.5 Z"/></g>
<g><path style="opacity:1" fill="#5500fe" d="M 95.5,85.5 C 96.6049,86.6005 97.9382,87.2671 99.5,87.5C 99.8333,88.1667 100.167,88.8333 100.5,89.5C 98.8008,89.3398 97.1341,89.5065 95.5,90C 71.6655,114.168 47.4988,138.001 23,161.5C 21.9359,163.269 20.7692,164.936 19.5,166.5C 19.7399,168.89 20.7399,170.89 22.5,172.5C 22.1373,173.183 21.8039,173.85 21.5,174.5C 19.4625,170.739 17.7958,166.739 16.5,162.5C 16.2053,160.265 16.5386,158.265 17.5,156.5C 27.0193,146.731 36.686,136.897 46.5,127C 47.5,126.667 48.5,126.333 49.5,126C 63.5837,112.579 77.5837,99.2455 91.5,86C 92.7932,85.51 94.1266,85.3433 95.5,85.5 Z"/></g>
<g><path style="opacity:1" fill="#02fdf5" d="M 136.5,117.5 C 137.5,117.833 138.167,118.5 138.5,119.5C 124.087,133.253 109.42,146.586 94.5,159.5C 94.3398,157.801 94.5065,156.134 95,154.5C 108.155,142.678 120.989,130.512 133.5,118C 134.448,117.517 135.448,117.351 136.5,117.5 Z"/></g>
<g><path style="opacity:1" fill="#24aff8" d="M 98.5,137.5 C 100.99,131.003 105.324,126.003 111.5,122.5C 112.583,122.461 113.583,122.127 114.5,121.5C 115.521,122.002 115.688,122.668 115,123.5C 109.968,128.867 104.635,133.867 99,138.5C 98.6012,138.272 98.4346,137.938 98.5,137.5 Z"/></g>
<g><path style="opacity:1" fill="#51fe00" d="M 233.5,84.5 C 233.833,84.5 234.167,84.5 234.5,84.5C 235.338,84.8417 235.672,85.5084 235.5,86.5C 236.068,89.5884 236.068,92.5884 235.5,95.5C 220.652,110.182 205.652,124.682 190.5,139C 188.03,139.989 185.697,141.155 183.5,142.5C 183.167,142.5 182.833,142.5 182.5,142.5C 182.5,142.167 182.5,141.833 182.5,141.5C 182.245,139.033 181.245,137.033 179.5,135.5C 179.443,134.391 179.11,133.391 178.5,132.5C 180.003,133.682 181.67,134.182 183.5,134C 195.895,120.936 208.895,108.603 222.5,97C 226.77,93.2385 230.437,89.0719 233.5,84.5 Z"/></g>
<g><path style="opacity:1" fill="#24c2f9" d="M 124.5,117.5 C 124.013,118.473 123.513,119.473 123,120.5C 112.934,129.4 103.434,138.734 94.5,148.5C 94.4571,144.267 95.7905,140.6 98.5,137.5C 98.4346,137.938 98.6012,138.272 99,138.5C 104.635,133.867 109.968,128.867 115,123.5C 115.688,122.668 115.521,122.002 114.5,121.5C 113.583,122.127 112.583,122.461 111.5,122.5C 115.206,119.491 119.539,117.824 124.5,117.5 Z"/></g>
<g><path style="opacity:1" fill="#15e4fc" d="M 136.5,117.5 C 135.448,117.351 134.448,117.517 133.5,118C 120.989,130.512 108.155,142.678 95,154.5C 94.5065,156.134 94.3398,157.801 94.5,159.5C 94.5,161.167 94.5,162.833 94.5,164.5C 94.5,165.833 94.5,167.167 94.5,168.5C 93.1667,161.833 93.1667,155.167 94.5,148.5C 103.434,138.734 112.934,129.4 123,120.5C 123.513,119.473 124.013,118.473 124.5,117.5C 126.835,116.335 129.335,115.668 132,115.5C 134.008,115.307 135.508,115.974 136.5,117.5 Z"/></g>
<g><path style="opacity:1" fill="#9502fe" d="M 89.5,79.5 C 90.8333,80.5 92.1667,81.5 93.5,82.5C 93.5,82.8333 93.5,83.1667 93.5,83.5C 91.6412,83.5391 90.3079,82.7058 89.5,81C 88.5,80.3333 87.5,80.3333 86.5,81C 64.0449,105.789 40.5449,129.622 16,152.5C 15.3333,153.5 15.3333,154.5 16,155.5C 16.4244,153.385 17.5911,152.552 19.5,153C 18.1772,153.816 17.5106,154.983 17.5,156.5C 16.5386,158.265 16.2053,160.265 16.5,162.5C 15.5933,160.343 14.9267,158.01 14.5,155.5C 14.3359,152.813 14.5026,150.146 15,147.5C 39.1365,125.031 62.9699,102.198 86.5,79C 87.5768,78.5304 88.5768,78.6971 89.5,79.5 Z"/></g>
<g><path style="opacity:1" fill="#a166a1" d="M 13.5,106.5 C 13.5,106.833 13.5,107.167 13.5,107.5C 12.5269,109.948 12.1936,112.615 12.5,115.5C 11.5206,118.625 11.1872,121.958 11.5,125.5C 11.5,126.167 11.5,126.833 11.5,127.5C 11.5,128.833 11.5,130.167 11.5,131.5C 11.2053,133.735 11.5386,135.735 12.5,137.5C 12.5,139.167 12.5,140.833 12.5,142.5C 12.5,143.5 12.5,144.5 12.5,145.5C 11.71,144.391 11.21,143.058 11,141.5C 10.2661,131.15 10.4328,120.817 11.5,110.5C 11.5854,108.667 12.2521,107.334 13.5,106.5 Z"/></g>
<g><path style="opacity:1" fill="#87fe02" d="M 235.5,86.5 C 237.851,88.8413 238.851,91.8413 238.5,95.5C 238.851,97.8695 239.018,100.203 239,102.5C 222.833,119.333 206.333,135.833 189.5,152C 188.5,152.5 187.5,153 186.5,153.5C 185.828,152.051 185.161,150.718 184.5,149.5C 184.007,147.194 183.674,144.861 183.5,142.5C 185.697,141.155 188.03,139.989 190.5,139C 205.652,124.682 220.652,110.182 235.5,95.5C 236.068,92.5884 236.068,89.5884 235.5,86.5 Z"/></g>
<g><path style="opacity:1" fill="#717bc9" d="M 79.5,132.5 C 78.5569,135.109 76.8903,137.109 74.5,138.5C 75.4735,135.865 77.1402,133.865 79.5,132.5 Z"/></g>
<g><path style="opacity:1" fill="#02fee3" d="M 138.5,119.5 C 139.5,119.833 140.167,120.5 140.5,121.5C 139.448,121.351 138.448,121.517 137.5,122C 123.72,136.729 109.386,150.895 94.5,164.5C 94.5,162.833 94.5,161.167 94.5,159.5C 109.42,146.586 124.087,133.253 138.5,119.5 Z"/></g>
<g><path style="opacity:1" fill="#2002fe" d="M 100.5,89.5 C 101.605,90.6005 102.938,91.2671 104.5,91.5C 104.833,92.5 105.5,93.1667 106.5,93.5C 106.414,94.4959 106.748,95.3292 107.5,96C 95.342,107.659 83.6754,119.825 72.5,132.5C 58.3617,145.424 44.3617,158.59 30.5,172C 27.7649,173.915 24.7649,175.082 21.5,175.5C 21.5,175.167 21.5,174.833 21.5,174.5C 21.8039,173.85 22.1373,173.183 22.5,172.5C 20.7399,170.89 19.7399,168.89 19.5,166.5C 20.7692,164.936 21.9359,163.269 23,161.5C 47.4988,138.001 71.6655,114.168 95.5,90C 97.1341,89.5065 98.8008,89.3398 100.5,89.5 Z"/></g>
<g><path style="opacity:1" fill="#7dca69" d="M 179.5,135.5 C 181.245,137.033 182.245,139.033 182.5,141.5C 180.755,139.967 179.755,137.967 179.5,135.5 Z"/></g>
<g><path style="opacity:1" fill="#b0fe04" d="M 238.5,95.5 C 240.04,97.8383 240.706,100.505 240.5,103.5C 240.799,105.604 240.466,107.604 239.5,109.5C 221.783,128.218 203.449,146.218 184.5,163.5C 184.5,158.833 184.5,154.167 184.5,149.5C 185.161,150.718 185.828,152.051 186.5,153.5C 187.5,153 188.5,152.5 189.5,152C 206.333,135.833 222.833,119.333 239,102.5C 239.018,100.203 238.851,97.8695 238.5,95.5 Z"/></g>
<g><path style="opacity:1" fill="#6e7dca" d="M 74.5,138.5 C 74.2451,140.967 73.2451,142.967 71.5,144.5C 71.0246,141.687 72.0246,139.687 74.5,138.5 Z"/></g>
<g><path style="opacity:1" fill="#5779d7" d="M 71.5,144.5 C 70.871,147.397 69.871,150.064 68.5,152.5C 68.366,150.708 68.6993,149.042 69.5,147.5C 69.427,145.973 70.0937,144.973 71.5,144.5 Z"/></g>
<g><path style="opacity:1" fill="#13fccf" d="M 140.5,121.5 C 141.5,121.833 142.167,122.5 142.5,123.5C 126.869,137.962 111.369,152.629 96,167.5C 95.2042,170.039 95.3709,172.372 96.5,174.5C 96.5,175.5 96.5,176.5 96.5,177.5C 94.7345,174.877 94.0679,171.877 94.5,168.5C 94.5,167.167 94.5,165.833 94.5,164.5C 109.386,150.895 123.72,136.729 137.5,122C 138.448,121.517 139.448,121.351 140.5,121.5 Z"/></g>
<g><path style="opacity:1" fill="#d3fd08" d="M 240.5,103.5 C 241.434,104.568 241.768,105.901 241.5,107.5C 241.5,108.833 241.5,110.167 241.5,111.5C 238.313,113.344 236.313,116.011 235.5,119.5C 229.008,124.479 222.841,130.145 217,136.5C 216.333,137.833 215.667,139.167 215,140.5C 203.327,151.007 192.16,162.007 181.5,173.5C 181.232,171.901 181.566,170.568 182.5,169.5C 183.285,167.626 183.952,165.626 184.5,163.5C 203.449,146.218 221.783,128.218 239.5,109.5C 240.466,107.604 240.799,105.604 240.5,103.5 Z"/></g>
<g><path style="opacity:1" fill="#e8fe00" d="M 241.5,111.5 C 241.5,113.167 241.5,114.833 241.5,116.5C 241.5,117.5 241.5,118.5 241.5,119.5C 223.451,137.718 204.951,155.384 186,172.5C 184.724,175.599 182.89,178.266 180.5,180.5C 180.448,178.097 180.781,175.764 181.5,173.5C 192.16,162.007 203.327,151.007 215,140.5C 215.667,139.167 216.333,137.833 217,136.5C 222.841,130.145 229.008,124.479 235.5,119.5C 236.313,116.011 238.313,113.344 241.5,111.5 Z"/></g>
<g><path style="opacity:1" fill="#9fb688" d="M 182.5,142.5 C 182.833,142.5 183.167,142.5 183.5,142.5C 183.674,144.861 184.007,147.194 184.5,149.5C 184.5,154.167 184.5,158.833 184.5,163.5C 183.952,165.626 183.285,167.626 182.5,169.5C 183.833,160.5 183.833,151.5 182.5,142.5 Z"/></g>
<g><path style="opacity:1" fill="#03febb" d="M 142.5,123.5 C 144.167,124.5 145.5,125.833 146.5,127.5C 144.55,126.502 142.55,126.668 140.5,128C 134.896,132.93 130.062,138.43 126,144.5C 115.274,153.725 105.44,163.725 96.5,174.5C 95.3709,172.372 95.2042,170.039 96,167.5C 111.369,152.629 126.869,137.962 142.5,123.5 Z"/></g>
<g><path style="opacity:1" fill="#0162fe" d="M 69.5,147.5 C 68.6993,149.042 68.366,150.708 68.5,152.5C 57.5293,162.968 46.5293,173.801 35.5,185C 33.6909,187.238 31.3576,188.405 28.5,188.5C 27.8333,187.5 27.1667,186.5 26.5,185.5C 27.8474,186.028 29.1807,186.195 30.5,186C 42.4704,173.029 54.8037,160.362 67.5,148C 68.0944,147.536 68.7611,147.369 69.5,147.5 Z"/></g>
<g><path style="opacity:1" fill="#06fea4" d="M 146.5,127.5 C 147.338,127.842 147.672,128.508 147.5,129.5C 137.754,136.41 129.087,144.576 121.5,154C 120.5,154.333 119.5,154.667 118.5,155C 112.871,161.307 106.704,166.807 100,171.5C 98.0924,174.206 97.259,177.206 97.5,180.5C 96.596,179.791 96.2627,178.791 96.5,177.5C 96.5,176.5 96.5,175.5 96.5,174.5C 105.44,163.725 115.274,153.725 126,144.5C 130.062,138.43 134.896,132.93 140.5,128C 142.55,126.668 144.55,126.502 146.5,127.5 Z"/></g>
<g><path style="opacity:1" fill="#0444fe" d="M 84.5,126.5 C 82.8333,128.5 81.1667,130.5 79.5,132.5C 77.1402,133.865 75.4735,135.865 74.5,138.5C 72.0246,139.687 71.0246,141.687 71.5,144.5C 70.0937,144.973 69.427,145.973 69.5,147.5C 68.7611,147.369 68.0944,147.536 67.5,148C 54.8037,160.362 42.4704,173.029 30.5,186C 29.1807,186.195 27.8474,186.028 26.5,185.5C 25.5,183.5 24.5,181.5 23.5,179.5C 24.9305,179.421 26.2638,179.754 27.5,180.5C 44.287,166.049 59.6203,150.382 73.5,133.5C 74.675,133.719 75.675,133.386 76.5,132.5C 75.3915,130.786 76.0582,130.119 78.5,130.5C 78.5,129.5 78.5,128.5 78.5,127.5C 79.552,127.649 80.552,127.483 81.5,127C 80.3044,126.346 80.3044,125.846 81.5,125.5C 82.4168,126.127 83.4168,126.461 84.5,126.5 Z"/></g>
<g><path style="opacity:1" fill="#04fe71" d="M 149.5,132.5 C 151.262,133.262 152.262,134.596 152.5,136.5C 151.448,136.351 150.448,136.517 149.5,137C 132.988,152.346 116.988,168.179 101.5,184.5C 102.309,186.071 102.643,187.738 102.5,189.5C 102.167,189.5 101.833,189.5 101.5,189.5C 99.9565,187.072 98.9565,184.406 98.5,181.5C 107.939,170.89 117.605,160.39 127.5,150C 134.136,144.366 140.469,138.366 146.5,132C 147.577,131.53 148.577,131.697 149.5,132.5 Z"/></g>
<g><path style="opacity:1" fill="#fee401" d="M 241.5,116.5 C 242.479,119.625 242.813,122.958 242.5,126.5C 241.542,128.302 240.875,130.302 240.5,132.5C 236.405,135.09 232.738,138.256 229.5,142C 228.5,142.333 227.5,142.667 226.5,143C 192.586,174.415 159.919,206.915 128.5,240.5C 128.5,240.833 128.5,241.167 128.5,241.5C 128.5,241.833 128.5,242.167 128.5,242.5C 122.974,242.821 117.64,242.488 112.5,241.5C 113.167,241.5 113.833,241.5 114.5,241.5C 116.527,241.662 118.527,241.495 120.5,241C 144.932,219.859 168.432,197.692 191,174.5C 206.525,156.639 223.192,139.639 241,123.5C 241.49,122.207 241.657,120.873 241.5,119.5C 241.5,118.5 241.5,117.5 241.5,116.5 Z"/></g>
<g><path style="opacity:1" fill="#02fe8f" d="M 147.5,129.5 C 148.906,129.973 149.573,130.973 149.5,132.5C 148.577,131.697 147.577,131.53 146.5,132C 140.469,138.366 134.136,144.366 127.5,150C 117.605,160.39 107.939,170.89 98.5,181.5C 97.8333,181.5 97.5,181.167 97.5,180.5C 97.259,177.206 98.0924,174.206 100,171.5C 106.704,166.807 112.871,161.307 118.5,155C 119.5,154.667 120.5,154.333 121.5,154C 129.087,144.576 137.754,136.41 147.5,129.5 Z"/></g>
<g><path style="opacity:1" fill="#feab01" d="M 241.5,135.5 C 241.675,137.621 241.341,139.621 240.5,141.5C 210.727,171.105 180.727,200.605 150.5,230C 144.97,232.525 140.304,236.192 136.5,241C 137.793,241.49 139.127,241.657 140.5,241.5C 136.702,242.483 132.702,242.817 128.5,242.5C 128.5,242.167 128.5,241.833 128.5,241.5C 130.527,241.662 132.527,241.495 134.5,241C 148.096,227.948 161.596,214.781 175,201.5C 180.421,194.746 186.588,188.579 193.5,183C 209.754,166.575 225.754,150.742 241.5,135.5 Z"/></g>
<g><path style="opacity:1" fill="#02fe4e" d="M 152.5,136.5 C 153.167,138.167 153.833,139.833 154.5,141.5C 153.577,140.697 152.577,140.53 151.5,141C 136.691,157.142 121.191,172.642 105,187.5C 104.51,188.793 104.343,190.127 104.5,191.5C 103.5,191.167 102.833,190.5 102.5,189.5C 102.643,187.738 102.309,186.071 101.5,184.5C 116.988,168.179 132.988,152.346 149.5,137C 150.448,136.517 151.448,136.351 152.5,136.5 Z"/></g>
<g><path style="opacity:1" fill="#80e958" d="M 155.5,143.5 C 157.718,146.719 158.885,150.386 159,154.5C 159.812,158.689 159.645,162.689 158.5,166.5C 152.454,177.02 146.287,187.687 140,198.5C 138.67,199.582 137.17,200.249 135.5,200.5C 142.429,189.639 149.096,178.639 155.5,167.5C 156.222,167.082 156.722,166.416 157,165.5C 157.908,158.023 157.408,150.69 155.5,143.5 Z"/></g>
<g><path style="opacity:1" fill="#fe9c00" d="M 240.5,141.5 C 240.5,142.5 240.5,143.5 240.5,144.5C 228.064,154.421 216.231,165.421 205,177.5C 186.52,197.646 167.02,216.813 146.5,235C 144.235,236.758 142.568,238.925 141.5,241.5C 141.167,241.5 140.833,241.5 140.5,241.5C 139.127,241.657 137.793,241.49 136.5,241C 140.304,236.192 144.97,232.525 150.5,230C 180.727,200.605 210.727,171.105 240.5,141.5 Z"/></g>
<g><path style="opacity:1" fill="#14fe13" d="M 154.5,141.5 C 155.338,141.842 155.672,142.508 155.5,143.5C 157.408,150.69 157.908,158.023 157,165.5C 156.722,166.416 156.222,167.082 155.5,167.5C 153.952,167.821 153.285,168.821 153.5,170.5C 152.325,170.281 151.325,170.614 150.5,171.5C 140.042,180.696 129.709,189.863 119.5,199C 116.228,199.788 113.228,199.288 110.5,197.5C 108.938,197.267 107.605,196.6 106.5,195.5C 106.267,193.938 105.6,192.605 104.5,191.5C 104.343,190.127 104.51,188.793 105,187.5C 121.191,172.642 136.691,157.142 151.5,141C 152.577,140.53 153.577,140.697 154.5,141.5 Z"/></g>
<g><path style="opacity:1" fill="#dbdf4c" d="M 181.5,173.5 C 180.781,175.764 180.448,178.097 180.5,180.5C 178.5,182.167 176.5,183.833 174.5,185.5C 176.85,181.46 179.184,177.46 181.5,173.5 Z"/></g>
<g><path style="opacity:1" fill="#14bcfc" d="M 68.5,154.5 C 68.5,160.167 68.5,165.833 68.5,171.5C 68.6495,172.552 68.4828,173.552 68,174.5C 59,183.167 50,191.833 41,200.5C 40.51,201.793 40.3433,203.127 40.5,204.5C 38.1097,203.109 36.4431,201.109 35.5,198.5C 46.0573,188.444 56.5573,178.111 67,167.5C 67.4966,165.19 67.6633,162.857 67.5,160.5C 67.5,159.833 67.5,159.167 67.5,158.5C 67.2322,156.901 67.5655,155.568 68.5,154.5 Z"/></g>
<g><path style="opacity:1" fill="#0284fe" d="M 67.5,158.5 C 67.5,159.167 67.5,159.833 67.5,160.5C 66.6618,160.842 66.3284,161.508 66.5,162.5C 64.3829,164.296 62.0496,165.962 59.5,167.5C 51.6758,177.998 42.3424,186.665 31.5,193.5C 31.1667,192.833 30.8333,192.167 30.5,191.5C 43.1822,180.814 55.5156,169.814 67.5,158.5 Z"/></g>
<g><path style="opacity:1" fill="#14f4f7" d="M 70.5,182.5 C 61.4598,190.539 53.1265,199.206 45.5,208.5C 45.8555,209.522 46.5222,210.189 47.5,210.5C 48.1098,211.391 48.4431,212.391 48.5,213.5C 46.086,212.089 44.4194,210.089 43.5,207.5C 43.3433,206.127 43.51,204.793 44,203.5C 52.6367,195.864 60.97,187.864 69,179.5C 70.0386,180.244 70.5386,181.244 70.5,182.5 Z"/></g>
<g><path style="opacity:1" fill="#06a6fd" d="M 67.5,160.5 C 67.6633,162.857 67.4966,165.19 67,167.5C 56.5573,178.111 46.0573,188.444 35.5,198.5C 34.0937,198.027 33.427,197.027 33.5,195.5C 41.0924,189.247 48.4258,182.58 55.5,175.5C 58.5,171.833 61.8333,168.5 65.5,165.5C 66.1272,164.583 66.4606,163.583 66.5,162.5C 66.3284,161.508 66.6618,160.842 67.5,160.5 Z"/></g>
<g><path style="opacity:1" fill="#56fe07" d="M 155.5,167.5 C 149.096,178.639 142.429,189.639 135.5,200.5C 135.5,201.167 135.167,201.5 134.5,201.5C 127.798,201.664 121.131,201.331 114.5,200.5C 112.596,200.262 111.262,199.262 110.5,197.5C 113.228,199.288 116.228,199.788 119.5,199C 129.709,189.863 140.042,180.696 150.5,171.5C 151.325,170.614 152.325,170.281 153.5,170.5C 153.285,168.821 153.952,167.821 155.5,167.5 Z"/></g>
<g><path style="opacity:1" fill="#0372fd" d="M 68.5,152.5 C 68.5,153.167 68.5,153.833 68.5,154.5C 67.5655,155.568 67.2322,156.901 67.5,158.5C 55.5156,169.814 43.1822,180.814 30.5,191.5C 29.8333,190.5 29.1667,189.5 28.5,188.5C 31.3576,188.405 33.6909,187.238 35.5,185C 46.5293,173.801 57.5293,162.968 68.5,152.5 Z"/></g>
<g><path style="opacity:1" fill="#fe8b00" d="M 240.5,144.5 C 240.118,148.332 238.785,151.665 236.5,154.5C 219.307,169.493 202.14,185.493 185,202.5C 173.776,214.727 162.11,226.727 150,238.5C 149.536,239.094 149.369,239.761 149.5,240.5C 146.873,241.092 144.206,241.425 141.5,241.5C 142.568,238.925 144.235,236.758 146.5,235C 167.02,216.813 186.52,197.646 205,177.5C 216.231,165.421 228.064,154.421 240.5,144.5 Z"/></g>
<g><path style="opacity:1" fill="#0294fd" d="M 66.5,162.5 C 66.4606,163.583 66.1272,164.583 65.5,165.5C 61.8333,168.5 58.5,171.833 55.5,175.5C 48.4258,182.58 41.0924,189.247 33.5,195.5C 32.5,195.167 31.8333,194.5 31.5,193.5C 42.3424,186.665 51.6758,177.998 59.5,167.5C 62.0496,165.962 64.3829,164.296 66.5,162.5 Z"/></g>
<g><path style="opacity:1" fill="#7bc280" d="M 101.5,189.5 C 101.833,189.5 102.167,189.5 102.5,189.5C 102.833,190.5 103.5,191.167 104.5,191.5C 105.6,192.605 106.267,193.938 106.5,195.5C 104.086,194.089 102.419,192.089 101.5,189.5 Z"/></g>
<g><path style="opacity:1" fill="#97c880" d="M 158.5,166.5 C 158.878,172.31 158.211,177.976 156.5,183.5C 153.306,187.527 150.306,191.694 147.5,196C 143.423,198.705 139.09,200.872 134.5,202.5C 134.5,202.167 134.5,201.833 134.5,201.5C 135.167,201.5 135.5,201.167 135.5,200.5C 137.17,200.249 138.67,199.582 140,198.5C 146.287,187.687 152.454,177.02 158.5,166.5 Z"/></g>
<g><path style="opacity:0.971" fill="#fe0200" d="M 224.5,205.5 C 224.833,205.5 225.167,205.5 225.5,205.5C 225.5,206.5 225.5,207.5 225.5,208.5C 220.102,216.233 213.435,222.566 205.5,227.5C 204.5,227.5 203.5,227.5 202.5,227.5C 198.082,226.021 193.415,225.021 188.5,224.5C 195.031,216.461 202.197,208.795 210,201.5C 210.333,200.5 210.667,199.5 211,198.5C 215.19,195.066 219.19,191.4 223,187.5C 223.172,193.681 223.672,199.681 224.5,205.5 Z"/></g>
<g><path style="opacity:1" fill="#08fdeb" d="M 70.5,182.5 C 71.5,183.167 72.5,183.833 73.5,184.5C 74.1098,185.391 74.4431,186.391 74.5,187.5C 73.5768,186.697 72.5768,186.53 71.5,187C 63.5781,195.09 55.5781,202.924 47.5,210.5C 46.5222,210.189 45.8555,209.522 45.5,208.5C 53.1265,199.206 61.4598,190.539 70.5,182.5 Z"/></g>
<g><path style="opacity:1" fill="#b9524e" d="M 226.5,183.5 C 225.882,190.817 225.549,198.151 225.5,205.5C 225.167,205.5 224.833,205.5 224.5,205.5C 224.334,199.824 224.501,194.157 225,188.5C 225.198,186.618 225.698,184.952 226.5,183.5 Z"/></g>
<g><path style="opacity:1" fill="#16dbfc" d="M 68.5,171.5 C 69.8507,175.883 71.5174,180.216 73.5,184.5C 72.5,183.833 71.5,183.167 70.5,182.5C 70.5386,181.244 70.0386,180.244 69,179.5C 60.97,187.864 52.6367,195.864 44,203.5C 43.51,204.793 43.3433,206.127 43.5,207.5C 42.1667,206.833 41.1667,205.833 40.5,204.5C 40.3433,203.127 40.51,201.793 41,200.5C 50,191.833 59,183.167 68,174.5C 68.4828,173.552 68.6495,172.552 68.5,171.5 Z"/></g>
<g><path style="opacity:1" fill="#fe7600" d="M 236.5,154.5 C 236.737,155.791 236.404,156.791 235.5,157.5C 211.503,180.318 187.336,203.652 163,227.5C 159.833,231 156.667,234.5 153.5,238C 154.793,238.49 156.127,238.657 157.5,238.5C 155.039,239.531 152.373,240.198 149.5,240.5C 149.369,239.761 149.536,239.094 150,238.5C 162.11,226.727 173.776,214.727 185,202.5C 202.14,185.493 219.307,169.493 236.5,154.5 Z"/></g>
<g><path style="opacity:1" fill="#fec300" d="M 242.5,126.5 C 242.5,128.5 242.5,130.5 242.5,132.5C 242.737,133.791 242.404,134.791 241.5,135.5C 225.754,150.742 209.754,166.575 193.5,183C 186.588,188.579 180.421,194.746 175,201.5C 161.596,214.781 148.096,227.948 134.5,241C 132.527,241.495 130.527,241.662 128.5,241.5C 128.5,241.167 128.5,240.833 128.5,240.5C 148.964,221.204 169.298,201.704 189.5,182C 191.921,179.906 194.588,178.24 197.5,177C 211.638,162.028 225.972,147.194 240.5,132.5C 240.875,130.302 241.542,128.302 242.5,126.5 Z"/></g>
<g><path style="opacity:1" fill="#11fbcf" d="M 74.5,187.5 C 75.9063,187.973 76.573,188.973 76.5,190.5C 75.448,190.351 74.448,190.517 73.5,191C 69.9662,194.869 66.1328,198.369 62,201.5C 59.0266,205.974 55.8599,210.307 52.5,214.5C 52.8555,215.522 53.5222,216.189 54.5,216.5C 55.1667,217.5 55.8333,218.5 56.5,219.5C 53.5451,217.878 50.8785,215.878 48.5,213.5C 48.4431,212.391 48.1098,211.391 47.5,210.5C 55.5781,202.924 63.5781,195.09 71.5,187C 72.5768,186.53 73.5768,186.697 74.5,187.5 Z"/></g>
<g><path style="opacity:1" fill="#fc2603" d="M 226.5,181.5 C 226.5,182.167 226.5,182.833 226.5,183.5C 225.698,184.952 225.198,186.618 225,188.5C 224.501,194.157 224.334,199.824 224.5,205.5C 223.672,199.681 223.172,193.681 223,187.5C 219.19,191.4 215.19,195.066 211,198.5C 210.667,199.5 210.333,200.5 210,201.5C 202.197,208.795 195.031,216.461 188.5,224.5C 193.415,225.021 198.082,226.021 202.5,227.5C 196.441,227.254 190.441,227.587 184.5,228.5C 180.382,229.651 176.382,230.984 172.5,232.5C 171.957,232.44 171.624,232.107 171.5,231.5C 173.192,229.641 174.692,227.641 176,225.5C 189.085,213.748 201.585,201.248 213.5,188C 217.985,186.523 221.651,183.857 224.5,180C 225.816,179.472 226.483,179.972 226.5,181.5 Z"/></g>
<g><path style="opacity:1" fill="#03fe6e" d="M 85.5,199.5 C 86.5,199.833 87.1667,200.5 87.5,201.5C 84.8602,201.954 82.5268,203.121 80.5,205C 74.2369,210.757 68.5702,216.924 63.5,223.5C 61.0863,222.594 60.253,220.928 61,218.5C 67.527,211.973 74.027,205.473 80.5,199C 82.1966,198.616 83.8632,198.782 85.5,199.5 Z"/></g>
<g><path style="opacity:1" fill="#7be146" d="M 114.5,200.5 C 121.131,201.331 127.798,201.664 134.5,201.5C 134.5,201.833 134.5,202.167 134.5,202.5C 127.481,204.166 120.815,203.499 114.5,200.5 Z"/></g>
<g><path style="opacity:1" fill="#0dfdb1" d="M 76.5,190.5 C 78.5,191.833 80.1667,193.5 81.5,195.5C 79.856,194.634 78.1893,194.134 76.5,194C 69.679,201.083 62.5123,207.917 55,214.5C 54.5357,215.094 54.369,215.761 54.5,216.5C 53.5222,216.189 52.8555,215.522 52.5,214.5C 55.8599,210.307 59.0266,205.974 62,201.5C 66.1328,198.369 69.9662,194.869 73.5,191C 74.448,190.517 75.448,190.351 76.5,190.5 Z"/></g>
<g><path style="opacity:1" fill="#ffd400" d="M 240.5,132.5 C 225.972,147.194 211.638,162.028 197.5,177C 194.588,178.24 191.921,179.906 189.5,182C 169.298,201.704 148.964,221.204 128.5,240.5C 159.919,206.915 192.586,174.415 226.5,143C 227.5,142.667 228.5,142.333 229.5,142C 232.738,138.256 236.405,135.09 240.5,132.5 Z"/></g>
<g><path style="opacity:1" fill="#bec572" d="M 155.5,201.5 C 153.967,203.245 151.967,204.245 149.5,204.5C 151.033,202.755 153.033,201.755 155.5,201.5 Z"/></g>
<g><path style="opacity:1" fill="#0bfc93" d="M 81.5,195.5 C 82.8333,196.833 84.1667,198.167 85.5,199.5C 83.8632,198.782 82.1966,198.616 80.5,199C 74.027,205.473 67.527,211.973 61,218.5C 60.253,220.928 61.0863,222.594 63.5,223.5C 65.5,223.5 66.5,224.5 66.5,226.5C 62.6082,224.938 59.2749,222.605 56.5,219.5C 55.8333,218.5 55.1667,217.5 54.5,216.5C 54.369,215.761 54.5357,215.094 55,214.5C 62.5123,207.917 69.679,201.083 76.5,194C 78.1893,194.134 79.856,194.634 81.5,195.5 Z"/></g>
<g><path style="opacity:1" fill="#fe4700" d="M 231.5,167.5 C 230.431,172.479 228.765,177.146 226.5,181.5C 226.483,179.972 225.816,179.472 224.5,180C 221.651,183.857 217.985,186.523 213.5,188C 201.585,201.248 189.085,213.748 176,225.5C 174.692,227.641 173.192,229.641 171.5,231.5C 171.624,232.107 171.957,232.44 172.5,232.5C 172.5,232.833 172.5,233.167 172.5,233.5C 170.167,234.167 167.833,234.833 165.5,235.5C 163.554,235.807 161.887,235.807 160.5,235.5C 163.156,232.678 165.989,230.012 169,227.5C 172.555,220.945 177.721,216.112 184.5,213C 199.89,197.945 214.89,182.611 229.5,167C 230.437,166.308 231.103,166.475 231.5,167.5 Z"/></g>
<g><path style="opacity:1" fill="#75cb68" d="M 102.5,207.5 C 104.565,207.517 106.565,207.85 108.5,208.5C 108.5,208.833 108.5,209.167 108.5,209.5C 108.167,209.5 107.833,209.5 107.5,209.5C 105.447,209.598 103.78,208.931 102.5,207.5 Z"/></g>
<g><path style="opacity:1" fill="#9bb18a" d="M 108.5,208.5 C 117.833,209.833 127.167,209.833 136.5,208.5C 130.75,210.15 124.75,210.816 118.5,210.5C 114.958,210.813 111.625,210.479 108.5,209.5C 108.5,209.167 108.5,208.833 108.5,208.5 Z"/></g>
<g><path style="opacity:1" fill="#bffc09" d="M 136.5,208.5 C 137.833,208.5 139.167,208.5 140.5,208.5C 133.259,217.245 125.426,225.579 117,233.5C 114.92,236.065 113.087,238.732 111.5,241.5C 105.806,241.76 100.473,240.76 95.5,238.5C 98.8717,239.401 102.205,239.401 105.5,238.5C 113.229,229.266 121.562,220.433 130.5,212C 126.514,211.501 122.514,211.334 118.5,211.5C 118.5,211.167 118.5,210.833 118.5,210.5C 124.75,210.816 130.75,210.15 136.5,208.5 Z"/></g>
<g><path style="opacity:1" fill="#0dfc49" d="M 87.5,201.5 C 91.096,203.467 94.7627,205.134 98.5,206.5C 96.2075,206.244 94.0408,206.577 92,207.5C 91.5774,206.044 90.7441,205.544 89.5,206C 83.6667,211.833 77.8333,217.667 72,223.5C 71.3333,225.167 71.3333,226.833 72,228.5C 73.7286,228.974 74.8953,229.974 75.5,231.5C 72.2402,230.226 69.2402,228.56 66.5,226.5C 66.5,224.5 65.5,223.5 63.5,223.5C 68.5702,216.924 74.2369,210.757 80.5,205C 82.5268,203.121 84.8602,201.954 87.5,201.5 Z"/></g>
<g><path style="opacity:1" fill="#9afe00" d="M 118.5,211.5 C 122.514,211.334 126.514,211.501 130.5,212C 121.562,220.433 113.229,229.266 105.5,238.5C 102.205,239.401 98.8717,239.401 95.5,238.5C 94.8333,238.5 94.1667,238.5 93.5,238.5C 93.5,238.167 93.5,237.833 93.5,237.5C 95.1992,237.66 96.8659,237.494 98.5,237C 105.83,228.67 113.497,220.67 121.5,213C 120.263,212.768 119.263,212.268 118.5,211.5 Z"/></g>
<g><path style="opacity:1" fill="#1ffe0c" d="M 98.5,206.5 C 99.8333,206.833 101.167,207.167 102.5,207.5C 103.78,208.931 105.447,209.598 107.5,209.5C 107.657,210.873 107.49,212.207 107,213.5C 104.957,215.208 103.29,217.208 102,219.5C 96.2651,223.227 91.0984,227.727 86.5,233C 82.8983,232.584 79.2316,232.084 75.5,231.5C 74.8953,229.974 73.7286,228.974 72,228.5C 71.3333,226.833 71.3333,225.167 72,223.5C 77.8333,217.667 83.6667,211.833 89.5,206C 90.7441,205.544 91.5774,206.044 92,207.5C 94.0408,206.577 96.2075,206.244 98.5,206.5 Z"/></g>
<g><path style="opacity:1" fill="#fe6201" d="M 235.5,157.5 C 235.118,161.332 233.785,164.665 231.5,167.5C 231.103,166.475 230.437,166.308 229.5,167C 214.89,182.611 199.89,197.945 184.5,213C 177.721,216.112 172.555,220.945 169,227.5C 165.989,230.012 163.156,232.678 160.5,235.5C 161.887,235.807 163.554,235.807 165.5,235.5C 163.152,237.097 160.486,238.097 157.5,238.5C 156.127,238.657 154.793,238.49 153.5,238C 156.667,234.5 159.833,231 163,227.5C 187.336,203.652 211.503,180.318 235.5,157.5 Z"/></g>
<g><path style="opacity:1" fill="#62fe02" d="M 107.5,209.5 C 107.833,209.5 108.167,209.5 108.5,209.5C 111.625,210.479 114.958,210.813 118.5,210.5C 118.5,210.833 118.5,211.167 118.5,211.5C 119.263,212.268 120.263,212.768 121.5,213C 113.497,220.67 105.83,228.67 98.5,237C 96.8659,237.494 95.1992,237.66 93.5,237.5C 91.1944,237.007 88.861,236.674 86.5,236.5C 82.7776,234.984 79.1109,233.317 75.5,231.5C 79.2316,232.084 82.8983,232.584 86.5,233C 91.0984,227.727 96.2651,223.227 102,219.5C 103.29,217.208 104.957,215.208 107,213.5C 107.49,212.207 107.657,210.873 107.5,209.5 Z"/></g>
<g><path style="opacity:1" fill="#e0fe00" d="M 114.5,241.5 C 113.833,241.5 113.167,241.5 112.5,241.5C 112.167,241.5 111.833,241.5 111.5,241.5C 113.087,238.732 114.92,236.065 117,233.5C 125.426,225.579 133.259,217.245 140.5,208.5C 144.163,207.659 147.83,207.159 151.5,207C 144.732,212.257 138.066,217.757 131.5,223.5C 125.812,229.52 120.145,235.52 114.5,241.5 Z"/></g>
<g><path style="opacity:1" fill="#ab6960" d="M 184.5,228.5 C 182.078,230.268 179.412,231.768 176.5,233C 175.207,233.49 173.873,233.657 172.5,233.5C 172.5,233.167 172.5,232.833 172.5,232.5C 176.382,230.984 180.382,229.651 184.5,228.5 Z"/></g>
<g><path style="opacity:1" fill="#7ab655" d="M 86.5,236.5 C 88.861,236.674 91.1944,237.007 93.5,237.5C 93.5,237.833 93.5,238.167 93.5,238.5C 90.8478,238.59 88.5145,237.924 86.5,236.5 Z"/></g>
</svg>
