<?xml version="1.0" encoding="UTF-8"?>
<!DOCTYPE svg PUBLIC "-//W3C//DTD SVG 1.1//EN" "http://www.w3.org/Graphics/SVG/1.1/DTD/svg11.dtd">
<svg xmlns="http://www.w3.org/2000/svg" version="1.1" width="256px" height="256px" style="shape-rendering:geometricPrecision; text-rendering:geometricPrecision; image-rendering:optimizeQuality; fill-rule:evenodd; clip-rule:evenodd" xmlns:xlink="http://www.w3.org/1999/xlink">
<g><path style="opacity:0.854" fill="#fefefe" d="M 219.5,20.5 C 222.448,20.2229 225.281,20.5562 228,21.5C 228.667,69.8333 228.667,118.167 228,166.5C 222.635,189.1 208.469,198.6 185.5,195C 164.292,186.75 156.792,171.583 163,149.5C 171.753,132.375 185.587,125.875 204.5,130C 211.408,131.922 216.908,135.755 221,141.5C 221.5,119.169 221.667,96.8358 221.5,74.5C 179.536,80.4957 137.536,86.329 95.5,92C 94.6699,130.095 94.1699,168.262 94,206.5C 89.9378,224.4 78.7711,233.733 60.5,234.5C 39.76,232.927 28.4267,221.76 26.5,201C 28.572,180.428 39.9053,168.928 60.5,166.5C 71.791,167.091 80.9577,171.757 88,180.5C 88.1667,133.496 88.6667,86.4965 89.5,39.5C 132.983,33.3362 176.316,27.0029 219.5,20.5 Z"/></g>
<g><path style="opacity:1" fill="#1dff0f" d="M 222.5,31.5 C 222.5,37.5 222.5,43.5 222.5,49.5C 216.72,52.4834 210.72,54.9834 204.5,57C 197.399,63.4254 189.066,67.0921 179.5,68C 175.073,69.5346 171.406,72.0346 168.5,75.5C 149.54,78.3515 130.54,81.0181 111.5,83.5C 111.369,82.6236 111.702,81.9569 112.5,81.5C 139.479,68.3439 166.479,55.1773 193.5,42C 199.529,42.483 204.529,40.483 208.5,36C 213.215,34.3717 217.882,32.8717 222.5,31.5 Z"/></g>
<g><path style="opacity:1" fill="#ffc400" d="M 137.5,38.5 C 134.28,40.9786 130.613,42.812 126.5,44C 125.5,45 124.5,46 123.5,47C 118.101,48.2062 113.101,50.2062 108.5,53C 104.629,56.9077 99.9621,59.4077 94.5,60.5C 94.5,58.8333 94.5,57.1667 94.5,55.5C 96.6547,55.628 98.6547,55.128 100.5,54C 106.646,49.263 113.312,45.5963 120.5,43C 121.942,42.6232 122.942,41.7899 123.5,40.5C 128.219,40.1115 132.886,39.4449 137.5,38.5 Z"/></g>
<g><path style="opacity:1" fill="#ff9c00" d="M 123.5,40.5 C 122.942,41.7899 121.942,42.6232 120.5,43C 113.312,45.5963 106.646,49.263 100.5,54C 98.6547,55.128 96.6547,55.628 94.5,55.5C 94.5,51.8333 94.5,48.1667 94.5,44.5C 104.197,43.3528 113.863,42.0195 123.5,40.5 Z"/></g>
<g><path style="opacity:1" fill="#effd00" d="M 167.5,34.5 C 158.635,39.2705 149.635,44.1038 140.5,49C 130.161,52.3363 120.828,57.503 112.5,64.5C 106.248,66.6264 100.248,69.293 94.5,72.5C 94.5,69.1667 94.5,65.8333 94.5,62.5C 101.02,59.7454 107.687,57.2454 114.5,55C 125.235,49.1654 135.901,43.332 146.5,37.5C 153.511,36.5819 160.511,35.5819 167.5,34.5 Z"/></g>
<g><path style="opacity:1" fill="#ffdf00" d="M 146.5,37.5 C 135.901,43.332 125.235,49.1654 114.5,55C 107.687,57.2454 101.02,59.7454 94.5,62.5C 94.5,61.8333 94.5,61.1667 94.5,60.5C 99.9621,59.4077 104.629,56.9077 108.5,53C 113.101,50.2062 118.101,48.2062 123.5,47C 124.5,46 125.5,45 126.5,44C 130.613,42.812 134.28,40.9786 137.5,38.5C 140.518,38.2962 143.518,37.9629 146.5,37.5 Z"/></g>
<g><path style="opacity:1" fill="#d1ff00" d="M 176.5,33.5 C 173.834,34.8421 171.501,36.6755 169.5,39C 160.642,42.1853 151.975,45.8519 143.5,50C 132.139,57.8462 119.806,63.8462 106.5,68C 101.964,69.7615 97.9637,72.2615 94.5,75.5C 94.5,74.5 94.5,73.5 94.5,72.5C 100.248,69.293 106.248,66.6264 112.5,64.5C 120.828,57.503 130.161,52.3363 140.5,49C 149.635,44.1038 158.635,39.2705 167.5,34.5C 170.482,34.0371 173.482,33.7038 176.5,33.5 Z"/></g>
<g><path style="opacity:1" fill="#81ff00" d="M 210.5,28.5 C 196.14,37.3346 181.14,44.8346 165.5,51C 160.622,55.3695 154.956,58.2028 148.5,59.5C 144.168,62.5006 139.502,64.6673 134.5,66C 122.288,72.2701 110.288,78.7701 98.5,85.5C 97.1667,85.5 95.8333,85.5 94.5,85.5C 94.5,83.5 94.5,81.5 94.5,79.5C 104.577,73.8905 114.91,68.7238 125.5,64C 136.428,60.199 147.095,55.8657 157.5,51C 166.334,44.3468 176,39.1801 186.5,35.5C 187.909,34.1515 189.243,32.8181 190.5,31.5C 197.167,30.5 203.833,29.5 210.5,28.5 Z"/></g>
<g><path style="opacity:1" fill="#afff00" d="M 190.5,31.5 C 189.243,32.8181 187.909,34.1515 186.5,35.5C 176,39.1801 166.334,44.3468 157.5,51C 147.095,55.8657 136.428,60.199 125.5,64C 114.91,68.7238 104.577,73.8905 94.5,79.5C 94.5,78.1667 94.5,76.8333 94.5,75.5C 97.9637,72.2615 101.964,69.7615 106.5,68C 119.806,63.8462 132.139,57.8462 143.5,50C 151.975,45.8519 160.642,42.1853 169.5,39C 171.501,36.6755 173.834,34.8421 176.5,33.5C 181.114,32.5551 185.781,31.8885 190.5,31.5 Z"/></g>
<g><path style="opacity:1" fill="#07ff82" d="M 222.5,55.5 C 222.5,56.8333 222.5,58.1667 222.5,59.5C 215.261,64.2863 207.595,68.2863 199.5,71.5C 194.167,72.1667 188.833,72.8333 183.5,73.5C 188.884,71.3107 194.217,68.8107 199.5,66C 201.555,63.9453 203.888,62.2787 206.5,61C 211.725,58.8895 217.058,57.0562 222.5,55.5 Z"/></g>
<g><path style="opacity:1" fill="#04fea6" d="M 222.5,59.5 C 222.5,62.5 222.5,65.5 222.5,68.5C 214.792,69.2203 207.125,70.2203 199.5,71.5C 207.595,68.2863 215.261,64.2863 222.5,59.5 Z"/></g>
<g><path style="opacity:1" fill="#01fe55" d="M 222.5,49.5 C 222.5,51.5 222.5,53.5 222.5,55.5C 217.058,57.0562 211.725,58.8895 206.5,61C 203.888,62.2787 201.555,63.9453 199.5,66C 194.217,68.8107 188.884,71.3107 183.5,73.5C 178.53,74.3529 173.53,75.0195 168.5,75.5C 171.406,72.0346 175.073,69.5346 179.5,68C 189.066,67.0921 197.399,63.4254 204.5,57C 210.72,54.9834 216.72,52.4834 222.5,49.5 Z"/></g>
<g><path style="opacity:1" fill="#5eff00" d="M 222.5,31.5 C 217.882,32.8717 213.215,34.3717 208.5,36C 204.529,40.483 199.529,42.483 193.5,42C 166.479,55.1773 139.479,68.3439 112.5,81.5C 111.702,81.9569 111.369,82.6236 111.5,83.5C 107.167,84.1667 102.833,84.8333 98.5,85.5C 110.288,78.7701 122.288,72.2701 134.5,66C 139.502,64.6673 144.168,62.5006 148.5,59.5C 154.956,58.2028 160.622,55.3695 165.5,51C 181.14,44.8346 196.14,37.3346 210.5,28.5C 214.422,28.155 218.255,27.4884 222,26.5C 222.494,28.1341 222.66,29.8008 222.5,31.5 Z"/></g>
<g><path style="opacity:1" fill="#7400ff" d="M 204.5,136.5 C 197.732,141.727 190.399,146.227 182.5,150C 178.121,151.023 174.121,152.856 170.5,155.5C 169.287,155.253 168.62,154.586 168.5,153.5C 173.136,141.832 181.802,135.499 194.5,134.5C 197.949,134.79 201.282,135.456 204.5,136.5 Z"/></g>
<g><path style="opacity:1" fill="#b200ff" d="M 204.5,136.5 C 207.54,137.68 210.206,139.347 212.5,141.5C 197.692,150.26 182.359,158.26 166.5,165.5C 166.344,161.236 167.011,157.236 168.5,153.5C 168.62,154.586 169.287,155.253 170.5,155.5C 174.121,152.856 178.121,151.023 182.5,150C 190.399,146.227 197.732,141.727 204.5,136.5 Z"/></g>
<g><path style="opacity:1" fill="#ea00fd" d="M 212.5,141.5 C 215.471,143.443 217.471,146.109 218.5,149.5C 215.722,150.968 212.722,151.801 209.5,152C 201.173,156.703 192.506,161.036 183.5,165C 182.833,166 182.167,167 181.5,168C 177.605,170.062 173.605,171.895 169.5,173.5C 168.205,171.021 167.205,168.354 166.5,165.5C 182.359,158.26 197.692,150.26 212.5,141.5 Z"/></g>
<g><path style="opacity:1" fill="#ff00ab" d="M 221.5,156.5 C 221.5,157.5 221.5,158.5 221.5,159.5C 214.529,161.817 207.862,164.983 201.5,169C 199.833,169.333 198.167,169.667 196.5,170C 189.347,174.661 181.68,178.161 173.5,180.5C 173.5,180.167 173.5,179.833 173.5,179.5C 180.729,175.879 187.729,171.712 194.5,167C 203.095,162.448 212.095,158.948 221.5,156.5 Z"/></g>
<g><path style="opacity:1" fill="#ff00c5" d="M 220.5,152.5 C 220.833,153.833 221.167,155.167 221.5,156.5C 212.095,158.948 203.095,162.448 194.5,167C 187.729,171.712 180.729,175.879 173.5,179.5C 172.5,179.167 171.833,178.5 171.5,177.5C 181.407,172.547 191.407,167.547 201.5,162.5C 202.5,161.5 203.5,160.5 204.5,159.5C 209.737,156.863 215.071,154.53 220.5,152.5 Z"/></g>
<g><path style="opacity:1" fill="#ff00e1" d="M 218.5,149.5 C 219.401,150.29 220.068,151.29 220.5,152.5C 215.071,154.53 209.737,156.863 204.5,159.5C 203.5,160.5 202.5,161.5 201.5,162.5C 191.407,167.547 181.407,172.547 171.5,177.5C 170.326,176.486 169.66,175.153 169.5,173.5C 173.605,171.895 177.605,170.062 181.5,168C 182.167,167 182.833,166 183.5,165C 192.506,161.036 201.173,156.703 209.5,152C 212.722,151.801 215.722,150.968 218.5,149.5 Z"/></g>
<g><path style="opacity:1" fill="#ff0436" d="M 221.5,168.5 C 215.069,186.841 202.736,193.174 184.5,187.5C 190.329,183.587 196.662,180.753 203.5,179C 209.405,175.245 215.405,171.745 221.5,168.5 Z"/></g>
<g><path style="opacity:1" fill="#ff0192" d="M 221.5,159.5 C 221.833,160.167 222.167,160.833 222.5,161.5C 218.645,164.378 214.312,166.211 209.5,167C 198.823,172.336 188.489,178.169 178.5,184.5C 176.611,183.396 174.945,182.063 173.5,180.5C 181.68,178.161 189.347,174.661 196.5,170C 198.167,169.667 199.833,169.333 201.5,169C 207.862,164.983 214.529,161.817 221.5,159.5 Z"/></g>
<g><path style="opacity:1" fill="#ff0076" d="M 222.5,161.5 C 222.371,163.216 222.038,164.883 221.5,166.5C 218.946,167.606 216.279,168.439 213.5,169C 202.711,174.562 192.044,180.395 181.5,186.5C 180.29,186.068 179.29,185.401 178.5,184.5C 188.489,178.169 198.823,172.336 209.5,167C 214.312,166.211 218.645,164.378 222.5,161.5 Z"/></g>
<g><path style="opacity:1" fill="#ff005e" d="M 221.5,166.5 C 221.5,167.167 221.5,167.833 221.5,168.5C 215.405,171.745 209.405,175.245 203.5,179C 196.662,180.753 190.329,183.587 184.5,187.5C 183.209,187.737 182.209,187.404 181.5,186.5C 192.044,180.395 202.711,174.562 213.5,169C 216.279,168.439 218.946,167.606 221.5,166.5 Z"/></g>
<g><path style="opacity:1" fill="#0267ff" d="M 65.5,173.5 C 56.968,179.092 47.6347,183.092 37.5,185.5C 44.4128,176.048 53.7461,172.048 65.5,173.5 Z"/></g>
<g><path style="opacity:1" fill="#0243ff" d="M 65.5,173.5 C 67.403,173.796 69.0697,174.463 70.5,175.5C 68.8684,176.908 67.2018,178.408 65.5,180C 54.7272,184.279 44.0606,188.779 33.5,193.5C 34.648,190.711 35.9814,188.044 37.5,185.5C 47.6347,183.092 56.968,179.092 65.5,173.5 Z"/></g>
<g><path style="opacity:1" fill="#1e09ff" d="M 70.5,175.5 C 75.9788,177.308 80.3121,180.642 83.5,185.5C 82.3531,188.928 80.0198,191.261 76.5,192.5C 68.1594,195.166 60.4927,199.166 53.5,204.5C 46.7776,205.692 41.111,208.692 36.5,213.5C 32.9321,207.307 31.9321,200.641 33.5,193.5C 44.0606,188.779 54.7272,184.279 65.5,180C 67.2018,178.408 68.8684,176.908 70.5,175.5 Z"/></g>
<g><path style="opacity:1" fill="#6d00ff" d="M 83.5,185.5 C 85.5918,188.088 86.9251,191.088 87.5,194.5C 83.9756,194.929 80.9756,196.429 78.5,199C 76.5,199.333 74.5,199.667 72.5,200C 66.9956,203.251 61.6622,206.751 56.5,210.5C 54.2241,211.213 51.8907,211.713 49.5,212C 46.3088,214.426 42.9754,216.593 39.5,218.5C 38.1103,217.101 37.1103,215.434 36.5,213.5C 41.111,208.692 46.7776,205.692 53.5,204.5C 60.4927,199.166 68.1594,195.166 76.5,192.5C 80.0198,191.261 82.3531,188.928 83.5,185.5 Z"/></g>
<g><path style="opacity:1" fill="#df00fe" d="M 88.5,200.5 C 88.4116,205.33 87.0783,209.663 84.5,213.5C 74.2009,216.979 64.8676,221.979 56.5,228.5C 53.1113,227.912 50.1113,226.579 47.5,224.5C 52.3945,220.113 57.7278,216.28 63.5,213C 72.4074,209.88 80.7407,205.713 88.5,200.5 Z"/></g>
<g><path style="opacity:1" fill="#a100ff" d="M 87.5,194.5 C 87.8333,196.5 88.1667,198.5 88.5,200.5C 80.7407,205.713 72.4074,209.88 63.5,213C 57.7278,216.28 52.3945,220.113 47.5,224.5C 44.1092,223.471 41.4426,221.471 39.5,218.5C 42.9754,216.593 46.3088,214.426 49.5,212C 51.8907,211.713 54.2241,211.213 56.5,210.5C 61.6622,206.751 66.9956,203.251 72.5,200C 74.5,199.667 76.5,199.333 78.5,199C 80.9756,196.429 83.9756,194.929 87.5,194.5 Z"/></g>
<g><path style="opacity:1" fill="#ff01e3" d="M 84.5,213.5 C 78.7164,224.73 69.3831,229.73 56.5,228.5C 64.8676,221.979 74.2009,216.979 84.5,213.5 Z"/></g>
</svg>
