<?xml version="1.0" encoding="UTF-8"?>
<!DOCTYPE svg PUBLIC "-//W3C//DTD SVG 1.1//EN" "http://www.w3.org/Graphics/SVG/1.1/DTD/svg11.dtd">
<svg xmlns="http://www.w3.org/2000/svg" version="1.1" width="256px" height="256px" style="shape-rendering:geometricPrecision; text-rendering:geometricPrecision; image-rendering:optimizeQuality; fill-rule:evenodd; clip-rule:evenodd" xmlns:xlink="http://www.w3.org/1999/xlink">
<g><path style="opacity:0.858" fill="#fefefe" d="M 112.5,43.5 C 134.169,43.3334 155.836,43.5 177.5,44C 187.545,49.9005 193.211,58.7339 194.5,70.5C 203.954,74.0403 213.288,77.8736 222.5,82C 228.695,86.2103 232.528,92.0437 234,99.5C 234.667,129.833 234.667,160.167 234,190.5C 231.07,198.764 225.236,203.264 216.5,204C 202.167,204.333 187.833,204.667 173.5,205C 154.172,213.665 134.839,213.665 115.5,205C 89.8333,204.667 64.1667,204.333 38.5,204C 29.7638,203.264 23.9305,198.764 21,190.5C 20.3333,160.833 20.3333,131.167 21,101.5C 23.6775,91.6134 29.8442,85.1134 39.5,82C 58.1667,78 76.8333,74 95.5,70C 97.0472,58.3793 102.714,49.546 112.5,43.5 Z"/></g>
<g><path style="opacity:1" fill="#02fef0" d="M 173.5,50.5 C 176.313,50.0246 178.313,51.0246 179.5,53.5C 174.476,59.8522 169.476,66.1855 164.5,72.5C 162.5,72.1667 160.5,71.8333 158.5,71.5C 158.709,70.0783 159.209,68.745 160,67.5C 164.73,61.9458 169.23,56.2792 173.5,50.5 Z"/></g>
<g><path style="opacity:1" fill="#04fe86" d="M 154.5,50.5 C 156.833,50.5 159.167,50.5 161.5,50.5C 159.94,54.2878 157.44,57.2878 154,59.5C 153.044,62.3771 151.711,65.0438 150,67.5C 147.955,68.9265 145.788,69.9265 143.5,70.5C 141.167,70.5 138.833,70.5 136.5,70.5C 138.985,64.8489 142.985,60.6822 148.5,58C 149.69,54.7505 151.69,52.2505 154.5,50.5 Z"/></g>
<g><path style="opacity:1" fill="#00edff" d="M 179.5,53.5 C 180.5,53.8333 181.167,54.5 181.5,55.5C 178.179,59.4653 175.345,63.7986 173,68.5C 170.971,70.0325 169.138,71.6992 167.5,73.5C 166.391,73.4431 165.391,73.1098 164.5,72.5C 169.476,66.1855 174.476,59.8522 179.5,53.5 Z"/></g>
<g><path style="opacity:1" fill="#02fe61" d="M 144.5,50.5 C 147.833,50.5 151.167,50.5 154.5,50.5C 151.69,52.2505 149.69,54.7505 148.5,58C 142.985,60.6822 138.985,64.8489 136.5,70.5C 133.37,70.6997 130.37,71.3664 127.5,72.5C 128.045,70.4068 128.878,68.4068 130,66.5C 135.523,61.7842 140.356,56.4509 144.5,50.5 Z"/></g>
<g><path style="opacity:1" fill="#08febb" d="M 161.5,50.5 C 165.5,50.5 169.5,50.5 173.5,50.5C 169.23,56.2792 164.73,61.9458 160,67.5C 159.209,68.745 158.709,70.0783 158.5,71.5C 153.562,70.6076 148.562,70.2743 143.5,70.5C 145.788,69.9265 147.955,68.9265 150,67.5C 151.711,65.0438 153.044,62.3771 154,59.5C 157.44,57.2878 159.94,54.2878 161.5,50.5 Z"/></g>
<g><path style="opacity:1" fill="#02d0ff" d="M 181.5,55.5 C 182.89,56.8993 183.89,58.5659 184.5,60.5C 183.058,61.8195 182.392,63.4862 182.5,65.5C 181.325,65.281 180.325,65.6143 179.5,66.5C 177.38,69.71 175.047,72.71 172.5,75.5C 170.716,75.1075 169.05,74.4408 167.5,73.5C 169.138,71.6992 170.971,70.0325 173,68.5C 175.345,63.7986 178.179,59.4653 181.5,55.5 Z"/></g>
<g><path style="opacity:1" fill="#03acff" d="M 184.5,60.5 C 185.738,62.2143 186.405,64.2143 186.5,66.5C 184.196,70.7974 181.196,74.4641 177.5,77.5C 175.716,77.1075 174.05,76.4408 172.5,75.5C 175.047,72.71 177.38,69.71 179.5,66.5C 180.325,65.6143 181.325,65.281 182.5,65.5C 182.392,63.4862 183.058,61.8195 184.5,60.5 Z"/></g>
<g><path style="opacity:1" fill="#0387ff" d="M 186.5,66.5 C 187.371,69.003 188.037,71.6697 188.5,74.5C 187.519,76.3092 186.019,77.6426 184,78.5C 183.517,79.448 183.351,80.448 183.5,81.5C 181.205,80.5254 179.205,79.1921 177.5,77.5C 181.196,74.4641 184.196,70.7974 186.5,66.5 Z"/></g>
<g><path style="opacity:1" fill="#01f8fe" d="M 157.5,77.5 C 158.791,77.2627 159.791,77.596 160.5,78.5C 159.347,80.8068 158.18,83.1401 157,85.5C 153.04,89.7937 148.873,93.7937 144.5,97.5C 143.212,99.7388 142.212,102.072 141.5,104.5C 138.661,105.321 136.328,106.987 134.5,109.5C 132.802,114.189 129.802,117.522 125.5,119.5C 125.649,120.552 125.483,121.552 125,122.5C 120.584,125.083 117.417,128.75 115.5,133.5C 112.005,137.141 108.505,140.808 105,144.5C 104.517,145.448 104.351,146.448 104.5,147.5C 103.325,147.281 102.325,147.614 101.5,148.5C 97.1769,155.476 92.1769,161.809 86.5,167.5C 85.6554,166.329 84.9887,164.995 84.5,163.5C 108.844,134.793 133.177,106.127 157.5,77.5 Z"/></g>
<g><path style="opacity:1" fill="#045dff" d="M 188.5,74.5 C 190.5,75.5 192.5,76.5 194.5,77.5C 192.822,80.1947 191.156,82.8614 189.5,85.5C 187.228,84.5589 185.228,83.2255 183.5,81.5C 183.351,80.448 183.517,79.448 184,78.5C 186.019,77.6426 187.519,76.3092 188.5,74.5 Z"/></g>
<g><path style="opacity:1" fill="#1cff0f" d="M 144.5,50.5 C 140.356,56.4509 135.523,61.7842 130,66.5C 128.878,68.4068 128.045,70.4068 127.5,72.5C 97.9483,81.0487 80.2816,100.382 74.5,130.5C 71.0778,134.182 67.7445,137.849 64.5,141.5C 64.5,131.167 64.5,120.833 64.5,110.5C 72.1612,100.152 79.4945,89.4857 86.5,78.5C 91.5154,77.7321 96.3487,76.3988 101,74.5C 101.775,65.1184 105.608,57.2851 112.5,51C 123.161,50.5002 133.828,50.3335 144.5,50.5 Z"/></g>
<g><path style="opacity:1" fill="#ccff00" d="M 58.5,96.5 C 56.8333,98.1667 55.1667,99.8333 53.5,101.5C 51.7865,98.7872 49.4532,96.7872 46.5,95.5C 48.3998,91.9218 50.7331,88.5885 53.5,85.5C 55.0418,84.6993 56.7085,84.366 58.5,84.5C 58.5,88.5 58.5,92.5 58.5,96.5 Z"/></g>
<g><path style="opacity:1" fill="#430cff" d="M 194.5,77.5 C 202.595,80.3663 210.595,83.533 218.5,87C 221.717,88.7155 224.05,91.2155 225.5,94.5C 222.156,96.8217 219.49,99.8217 217.5,103.5C 216.675,104.386 215.675,104.719 214.5,104.5C 214.649,105.552 214.483,106.552 214,107.5C 212.333,108.733 210.833,110.067 209.5,111.5C 204.298,101.79 197.631,93.1236 189.5,85.5C 191.156,82.8614 192.822,80.1947 194.5,77.5 Z"/></g>
<g><path style="opacity:1" fill="#01fe5e" d="M 127.5,78.5 C 111.916,97.0975 96.2488,115.764 80.5,134.5C 80.9769,129.929 81.9769,125.596 83.5,121.5C 83.4346,121.938 83.6012,122.272 84,122.5C 87.5258,119.422 90.0258,115.756 91.5,111.5C 94.7378,109.786 97.9045,107.786 101,105.5C 107.972,97.4593 114.472,89.126 120.5,80.5C 122.833,79.8333 125.167,79.1667 127.5,78.5 Z"/></g>
<g><path style="opacity:0.89" fill="#fefffe" d="M 46.5,95.5 C 49.4532,96.7872 51.7865,98.7872 53.5,101.5C 54.6334,111.23 50.3001,115.896 40.5,115.5C 37.5677,114.2 35.2344,112.2 33.5,109.5C 32.529,99.4784 36.8624,94.8117 46.5,95.5 Z"/></g>
<g><path style="opacity:1" fill="#00fe8d" d="M 137.5,76.5 C 124.29,93.2226 110.456,109.556 96,125.5C 95.6253,128 94.7919,130.333 93.5,132.5C 89.6461,137.182 85.3128,141.182 80.5,144.5C 80.5,142.833 80.5,141.167 80.5,139.5C 84.9455,135.318 88.9455,130.651 92.5,125.5C 94.5765,123.712 96.7432,122.046 99,120.5C 104.475,110.188 111.808,101.521 121,94.5C 122.539,89.9689 125.205,86.3022 129,83.5C 130.122,81.5932 130.955,79.5932 131.5,77.5C 133.435,76.8505 135.435,76.5172 137.5,76.5 Z"/></g>
<g><path style="opacity:1" fill="#fbef01" d="M 53.5,85.5 C 50.7331,88.5885 48.3998,91.9218 46.5,95.5C 36.8624,94.8117 32.529,99.4784 33.5,109.5C 30.794,111.871 28.4606,114.537 26.5,117.5C 24.2662,97.2821 33.2662,86.6154 53.5,85.5 Z"/></g>
<g><path style="opacity:1" fill="#71ff00" d="M 86.5,78.5 C 79.4945,89.4857 72.1612,100.152 64.5,110.5C 64.5,101.167 64.5,91.8333 64.5,82.5C 71.8924,81.4851 79.2258,80.1518 86.5,78.5 Z"/></g>
<g><path style="opacity:1" fill="#02fe3d" d="M 120.5,80.5 C 114.472,89.126 107.972,97.4593 101,105.5C 97.9045,107.786 94.7378,109.786 91.5,111.5C 90.0258,115.756 87.5258,119.422 84,122.5C 83.6012,122.272 83.4346,121.938 83.5,121.5C 89.8302,102.499 102.164,88.8323 120.5,80.5 Z"/></g>
<g><path style="opacity:1" fill="#c8ff00" d="M 42.5,100.5 C 47.0119,100.869 48.5119,103.202 47,107.5C 43.1868,110.589 40.6868,109.755 39.5,105C 39.5572,102.791 40.5572,101.291 42.5,100.5 Z"/></g>
<g><path style="opacity:1" fill="#01ffcc" d="M 144.5,76.5 C 146.167,76.5 147.833,76.5 149.5,76.5C 145.642,81.538 142.142,86.8714 139,92.5C 136.743,94.0456 134.576,95.7123 132.5,97.5C 128.606,101.608 124.939,105.941 121.5,110.5C 117.835,118.448 112.669,125.448 106,131.5C 99.9955,142.235 92.1622,151.235 82.5,158.5C 82.3713,156.784 82.038,155.117 81.5,153.5C 85.8273,149.339 89.994,145.006 94,140.5C 100.333,132.5 106.667,124.5 113,116.5C 114.713,115.024 116.547,113.69 118.5,112.5C 120.516,108.573 122.35,104.573 124,100.5C 131.078,92.6549 137.911,84.6549 144.5,76.5 Z"/></g>
<g><path style="opacity:1" fill="#029bff" d="M 170.5,81.5 C 171.833,82.1667 173.167,82.8333 174.5,83.5C 170.47,88.0468 166.97,93.0468 164,98.5C 152.73,107.438 144.063,118.438 138,131.5C 122.539,147.123 108.372,163.79 95.5,181.5C 93.9373,180.055 92.604,178.389 91.5,176.5C 109.517,156.142 126.85,135.142 143.5,113.5C 151.677,106.156 159.177,98.1556 166,89.5C 167.193,87.1136 168.36,84.7802 169.5,82.5C 170.167,82.5 170.5,82.1667 170.5,81.5 Z"/></g>
<g><path style="opacity:1" fill="#a900ff" d="M 225.5,94.5 C 226.892,97.0067 227.892,99.6733 228.5,102.5C 222.707,108.083 217.373,114.083 212.5,120.5C 211.304,117.579 210.304,114.579 209.5,111.5C 210.833,110.067 212.333,108.733 214,107.5C 214.483,106.552 214.649,105.552 214.5,104.5C 215.675,104.719 216.675,104.386 217.5,103.5C 219.49,99.8217 222.156,96.8217 225.5,94.5 Z"/></g>
<g><path style="opacity:1" fill="#e100fe" d="M 228.5,102.5 C 228.5,107.5 228.5,112.5 228.5,117.5C 224.172,122.827 219.506,127.827 214.5,132.5C 214.218,128.426 213.552,124.426 212.5,120.5C 217.373,114.083 222.707,108.083 228.5,102.5 Z"/></g>
<g><path style="opacity:1" fill="#01fea1" d="M 137.5,76.5 C 138.167,76.5 138.833,76.5 139.5,76.5C 132.07,88.3568 123.904,99.6902 115,110.5C 110.648,113.855 106.648,117.521 103,121.5C 102.268,124.711 100.434,126.711 97.5,127.5C 97.7022,129.989 97.2022,132.323 96,134.5C 91.8041,139.359 87.6375,144.192 83.5,149C 82.552,149.483 81.552,149.649 80.5,149.5C 80.5,147.833 80.5,146.167 80.5,144.5C 85.3128,141.182 89.6461,137.182 93.5,132.5C 94.7919,130.333 95.6253,128 96,125.5C 110.456,109.556 124.29,93.2226 137.5,76.5 Z"/></g>
<g><path style="opacity:1" fill="#0046ff" d="M 183.5,89.5 C 184.167,89.5 184.5,89.8333 184.5,90.5C 182.415,93.1194 180.915,96.1194 180,99.5C 167.501,111.161 156.668,124.161 147.5,138.5C 139.557,148.019 131.057,157.019 122,165.5C 121.653,169.686 119.487,172.519 115.5,174C 113.959,175.579 112.792,177.413 112,179.5C 108.835,182.49 105.668,185.49 102.5,188.5C 101.167,187.833 100.167,186.833 99.5,185.5C 104.101,182.569 108.101,178.902 111.5,174.5C 116.421,166.745 122.255,159.745 129,153.5C 133.454,144.877 139.954,138.543 148.5,134.5C 148.351,133.448 148.517,132.448 149,131.5C 154.989,123.846 161.322,116.513 168,109.5C 169.262,105.921 170.929,102.588 173,99.5C 176.343,95.9904 179.843,92.657 183.5,89.5 Z"/></g>
<g><path style="opacity:1" fill="#beff00" d="M 33.5,109.5 C 35.2344,112.2 37.5677,114.2 40.5,115.5C 38.5259,117.428 37.0259,119.761 36,122.5C 34.8455,123.743 33.5122,124.743 32,125.5C 31.5682,129.072 29.7348,131.405 26.5,132.5C 26.5,127.5 26.5,122.5 26.5,117.5C 28.4606,114.537 30.794,111.871 33.5,109.5 Z"/></g>
<g><path style="opacity:1" fill="#03ffea" d="M 149.5,76.5 C 152.237,76.4013 154.904,76.7347 157.5,77.5C 133.177,106.127 108.844,134.793 84.5,163.5C 83.8333,161.833 83.1667,160.167 82.5,158.5C 92.1622,151.235 99.9955,142.235 106,131.5C 112.669,125.448 117.835,118.448 121.5,110.5C 124.939,105.941 128.606,101.608 132.5,97.5C 134.576,95.7123 136.743,94.0456 139,92.5C 142.142,86.8714 145.642,81.538 149.5,76.5 Z"/></g>
<g><path style="opacity:1" fill="#027eff" d="M 174.5,83.5 C 175.833,84.1667 177.167,84.8333 178.5,85.5C 172.106,95.9735 164.106,104.973 154.5,112.5C 148.461,125.582 139.794,136.582 128.5,145.5C 126.733,148.037 125.233,150.703 124,153.5C 119.833,155.667 116.667,158.833 114.5,163C 108.643,166.784 104.143,171.95 101,178.5C 99.3333,179.733 97.8333,181.067 96.5,182.5C 95.8333,182.5 95.5,182.167 95.5,181.5C 108.372,163.79 122.539,147.123 138,131.5C 144.063,118.438 152.73,107.438 164,98.5C 166.97,93.0468 170.47,88.0468 174.5,83.5 Z"/></g>
<g><path style="opacity:1" fill="#00fe78" d="M 131.5,77.5 C 130.955,79.5932 130.122,81.5932 129,83.5C 125.205,86.3022 122.539,89.9689 121,94.5C 111.808,101.521 104.475,110.188 99,120.5C 96.7432,122.046 94.5765,123.712 92.5,125.5C 88.9455,130.651 84.9455,135.318 80.5,139.5C 80.5,137.833 80.5,136.167 80.5,134.5C 96.2488,115.764 111.916,97.0975 127.5,78.5C 128.708,77.7659 130.041,77.4326 131.5,77.5 Z"/></g>
<g><path style="opacity:1" fill="#04ffb8" d="M 139.5,76.5 C 141.167,76.5 142.833,76.5 144.5,76.5C 137.911,84.6549 131.078,92.6549 124,100.5C 122.35,104.573 120.516,108.573 118.5,112.5C 116.547,113.69 114.713,115.024 113,116.5C 106.667,124.5 100.333,132.5 94,140.5C 89.994,145.006 85.8273,149.339 81.5,153.5C 81.5674,152.041 81.2341,150.708 80.5,149.5C 81.552,149.649 82.552,149.483 83.5,149C 87.6375,144.192 91.8041,139.359 96,134.5C 97.2022,132.323 97.7022,129.989 97.5,127.5C 100.434,126.711 102.268,124.711 103,121.5C 106.648,117.521 110.648,113.855 115,110.5C 123.904,99.6902 132.07,88.3568 139.5,76.5 Z"/></g>
<g><path style="opacity:1" fill="#01b9ff" d="M 169.5,82.5 C 168.36,84.7802 167.193,87.1136 166,89.5C 159.177,98.1556 151.677,106.156 143.5,113.5C 126.85,135.142 109.517,156.142 91.5,176.5C 90.3263,175.486 89.6596,174.153 89.5,172.5C 92.7561,167.348 96.9228,163.014 102,159.5C 103.3,156.705 104.8,154.039 106.5,151.5C 110.167,147.167 113.833,142.833 117.5,138.5C 120.826,134.342 124.659,130.675 129,127.5C 133.397,122.387 137.564,117.053 141.5,111.5C 146.798,108.587 150.464,104.253 152.5,98.5C 157.741,92.6524 163.408,87.3191 169.5,82.5 Z"/></g>
<g><path style="opacity:1" fill="#01d1ff" d="M 160.5,78.5 C 164.092,78.698 167.426,79.698 170.5,81.5C 170.5,82.1667 170.167,82.5 169.5,82.5C 163.408,87.3191 157.741,92.6524 152.5,98.5C 150.464,104.253 146.798,108.587 141.5,111.5C 137.564,117.053 133.397,122.387 129,127.5C 124.659,130.675 120.826,134.342 117.5,138.5C 113.833,142.833 110.167,147.167 106.5,151.5C 104.8,154.039 103.3,156.705 102,159.5C 96.9228,163.014 92.7561,167.348 89.5,172.5C 88.8333,172.5 88.5,172.167 88.5,171.5C 88.5246,168.821 89.858,167.488 92.5,167.5C 92.7865,164.07 94.6198,161.736 98,160.5C 99.5621,158.043 100.562,155.376 101,152.5C 103.472,150.702 105.139,148.368 106,145.5C 112.631,138.513 119.465,131.846 126.5,125.5C 131.979,118.712 136.979,111.712 141.5,104.5C 142.212,102.072 143.212,99.7388 144.5,97.5C 148.873,93.7937 153.04,89.7937 157,85.5C 158.18,83.1401 159.347,80.8068 160.5,78.5 Z"/></g>
<g><path style="opacity:1" fill="#ff00dc" d="M 228.5,117.5 C 228.5,121.5 228.5,125.5 228.5,129.5C 224.82,134.179 220.486,138.179 215.5,141.5C 215.632,138.43 215.299,135.43 214.5,132.5C 219.506,127.827 224.172,122.827 228.5,117.5 Z"/></g>
<g><path style="opacity:1" fill="#8cff00" d="M 58.5,96.5 C 58.5,99.8333 58.5,103.167 58.5,106.5C 55.9486,109.558 53.1153,112.558 50,115.5C 48.0843,120.067 45.4176,124.067 42,127.5C 39.3557,129.31 36.8557,131.31 34.5,133.5C 32.0862,137.093 29.4196,140.426 26.5,143.5C 26.5,139.833 26.5,136.167 26.5,132.5C 29.7348,131.405 31.5682,129.072 32,125.5C 33.5122,124.743 34.8455,123.743 36,122.5C 37.0259,119.761 38.5259,117.428 40.5,115.5C 50.3001,115.896 54.6334,111.23 53.5,101.5C 55.1667,99.8333 56.8333,98.1667 58.5,96.5 Z"/></g>
<g><path style="opacity:1" fill="#012fff" d="M 184.5,90.5 C 186.404,90.7376 187.738,91.7376 188.5,93.5C 186.573,98.6975 183.239,102.697 178.5,105.5C 171.607,113.601 164.94,121.935 158.5,130.5C 157.675,131.386 156.675,131.719 155.5,131.5C 155.429,138.044 152.429,142.711 146.5,145.5C 145.527,149.148 143.193,150.814 139.5,150.5C 138.958,154.213 136.792,156.546 133,157.5C 128.206,164.759 122.706,171.426 116.5,177.5C 113.888,183.053 110.554,188.053 106.5,192.5C 104.833,191.5 103.5,190.167 102.5,188.5C 105.668,185.49 108.835,182.49 112,179.5C 112.792,177.413 113.959,175.579 115.5,174C 119.487,172.519 121.653,169.686 122,165.5C 131.057,157.019 139.557,148.019 147.5,138.5C 156.668,124.161 167.501,111.161 180,99.5C 180.915,96.1194 182.415,93.1194 184.5,90.5 Z"/></g>
<g><path style="opacity:1" fill="#01e3ff" d="M 141.5,104.5 C 136.979,111.712 131.979,118.712 126.5,125.5C 119.465,131.846 112.631,138.513 106,145.5C 105.139,148.368 103.472,150.702 101,152.5C 100.562,155.376 99.5621,158.043 98,160.5C 94.6198,161.736 92.7865,164.07 92.5,167.5C 89.858,167.488 88.5246,168.821 88.5,171.5C 87.3263,170.486 86.6596,169.153 86.5,167.5C 92.1769,161.809 97.1769,155.476 101.5,148.5C 102.325,147.614 103.325,147.281 104.5,147.5C 104.351,146.448 104.517,145.448 105,144.5C 108.505,140.808 112.005,137.141 115.5,133.5C 117.417,128.75 120.584,125.083 125,122.5C 125.483,121.552 125.649,120.552 125.5,119.5C 129.802,117.522 132.802,114.189 134.5,109.5C 136.328,106.987 138.661,105.321 141.5,104.5 Z"/></g>
<g><path style="opacity:1" fill="#d500ff" d="M 207.5,127.5 C 208.434,128.568 208.768,129.901 208.5,131.5C 201.174,139.834 194.174,148.5 187.5,157.5C 181.126,161.631 176.793,167.298 174.5,174.5C 165.925,184.568 157.592,194.568 149.5,204.5C 147.833,204.5 146.167,204.5 144.5,204.5C 147.837,200.63 150.671,196.297 153,191.5C 158.427,186.634 162.76,180.967 166,174.5C 172.408,169.692 177.408,163.692 181,156.5C 182.378,154.787 184.045,153.453 186,152.5C 190.615,145.55 195.615,138.884 201,132.5C 202.77,130.258 204.937,128.592 207.5,127.5 Z"/></g>
<g><path style="opacity:1" fill="#05fe60" d="M 74.5,130.5 C 74.5,137.167 74.5,143.833 74.5,150.5C 72.0178,151.663 70.6845,153.663 70.5,156.5C 68.1274,157.203 66.1274,158.536 64.5,160.5C 64.5,154.167 64.5,147.833 64.5,141.5C 67.7445,137.849 71.0778,134.182 74.5,130.5 Z"/></g>
<g><path style="opacity:1" fill="#ff00b2" d="M 228.5,129.5 C 228.5,132.5 228.5,135.5 228.5,138.5C 223.735,144.354 218.735,150.021 213.5,155.5C 214.445,150.886 215.112,146.219 215.5,141.5C 220.486,138.179 224.82,134.179 228.5,129.5 Z"/></g>
<g><path style="opacity:1" fill="#0261ff" d="M 178.5,85.5 C 180.389,86.604 182.055,87.9373 183.5,89.5C 179.843,92.657 176.343,95.9904 173,99.5C 170.929,102.588 169.262,105.921 168,109.5C 161.322,116.513 154.989,123.846 149,131.5C 148.517,132.448 148.351,133.448 148.5,134.5C 139.954,138.543 133.454,144.877 129,153.5C 122.255,159.745 116.421,166.745 111.5,174.5C 108.101,178.902 104.101,182.569 99.5,185.5C 98.1667,184.833 97.1667,183.833 96.5,182.5C 97.8333,181.067 99.3333,179.733 101,178.5C 104.143,171.95 108.643,166.784 114.5,163C 116.667,158.833 119.833,155.667 124,153.5C 125.233,150.703 126.733,148.037 128.5,145.5C 139.794,136.582 148.461,125.582 154.5,112.5C 164.106,104.973 172.106,95.9735 178.5,85.5 Z"/></g>
<g><path style="opacity:1" fill="#2cff08" d="M 58.5,106.5 C 58.5,119.167 58.5,131.833 58.5,144.5C 56.6921,147.436 54.8588,150.436 53,153.5C 49.4841,155.926 46.1508,158.593 43,161.5C 38.7561,169.892 33.2561,177.226 26.5,183.5C 26.5,170.167 26.5,156.833 26.5,143.5C 29.4196,140.426 32.0862,137.093 34.5,133.5C 36.8557,131.31 39.3557,129.31 42,127.5C 45.4176,124.067 48.0843,120.067 50,115.5C 53.1153,112.558 55.9486,109.558 58.5,106.5 Z"/></g>
<g><path style="opacity:1" fill="#ff0085" d="M 228.5,138.5 C 228.5,141.5 228.5,144.5 228.5,147.5C 224.731,150.336 221.898,154.002 220,158.5C 216.945,162.624 213.445,166.291 209.5,169.5C 211.036,164.891 212.37,160.224 213.5,155.5C 218.735,150.021 223.735,144.354 228.5,138.5 Z"/></g>
<g><path style="opacity:1" fill="#7a00ff" d="M 201.5,110.5 C 203.065,112.509 204.065,114.843 204.5,117.5C 203.808,120.935 201.808,122.935 198.5,123.5C 198.649,124.552 198.483,125.552 198,126.5C 189.955,135.542 182.289,144.876 175,154.5C 171.977,158.021 168.477,161.021 164.5,163.5C 161.495,170.146 157.162,175.48 151.5,179.5C 151.649,180.552 151.483,181.552 151,182.5C 144.902,189.417 139.069,196.417 133.5,203.5C 130.303,203.595 127.303,202.928 124.5,201.5C 127.957,196.291 132.124,191.624 137,187.5C 141.909,179.914 147.909,173.581 155,168.5C 168.64,150.869 182.973,133.869 198,117.5C 199.705,115.423 200.872,113.09 201.5,110.5 Z"/></g>
<g><path style="opacity:1" fill="#2e03ff" d="M 188.5,93.5 C 193.976,98.3076 198.31,103.974 201.5,110.5C 200.872,113.09 199.705,115.423 198,117.5C 182.973,133.869 168.64,150.869 155,168.5C 147.909,173.581 141.909,179.914 137,187.5C 132.124,191.624 127.957,196.291 124.5,201.5C 117.938,199.552 111.938,196.552 106.5,192.5C 110.554,188.053 113.888,183.053 116.5,177.5C 122.706,171.426 128.206,164.759 133,157.5C 136.792,156.546 138.958,154.213 139.5,150.5C 143.193,150.814 145.527,149.148 146.5,145.5C 152.429,142.711 155.429,138.044 155.5,131.5C 156.675,131.719 157.675,131.386 158.5,130.5C 164.94,121.935 171.607,113.601 178.5,105.5C 183.239,102.697 186.573,98.6975 188.5,93.5 Z"/></g>
<g><path style="opacity:1" fill="#a800ff" d="M 204.5,117.5 C 206.277,120.505 207.277,123.838 207.5,127.5C 204.937,128.592 202.77,130.258 201,132.5C 195.615,138.884 190.615,145.55 186,152.5C 184.045,153.453 182.378,154.787 181,156.5C 177.408,163.692 172.408,169.692 166,174.5C 162.76,180.967 158.427,186.634 153,191.5C 150.671,196.297 147.837,200.63 144.5,204.5C 140.629,204.815 136.962,204.482 133.5,203.5C 139.069,196.417 144.902,189.417 151,182.5C 151.483,181.552 151.649,180.552 151.5,179.5C 157.162,175.48 161.495,170.146 164.5,163.5C 168.477,161.021 171.977,158.021 175,154.5C 182.289,144.876 189.955,135.542 198,126.5C 198.483,125.552 198.649,124.552 198.5,123.5C 201.808,122.935 203.808,120.935 204.5,117.5 Z"/></g>
<g><path style="opacity:1" fill="#f200fe" d="M 208.5,131.5 C 208.833,134.167 209.167,136.833 209.5,139.5C 191.78,160.877 174.114,182.211 156.5,203.5C 154.283,204.369 151.95,204.702 149.5,204.5C 157.592,194.568 165.925,184.568 174.5,174.5C 176.793,167.298 181.126,161.631 187.5,157.5C 194.174,148.5 201.174,139.834 208.5,131.5 Z"/></g>
<g><path style="opacity:1" fill="#ff0062" d="M 228.5,147.5 C 228.5,150.833 228.5,154.167 228.5,157.5C 224.538,159.795 221.205,162.795 218.5,166.5C 211.403,177.038 204.069,187.372 196.5,197.5C 193.15,197.665 189.817,197.498 186.5,197C 196.608,189.738 204.274,180.572 209.5,169.5C 213.445,166.291 216.945,162.624 220,158.5C 221.898,154.002 224.731,150.336 228.5,147.5 Z"/></g>
<g><path style="opacity:1" fill="#06feb6" d="M 74.5,150.5 C 75.9434,154.615 76.9434,158.948 77.5,163.5C 72.794,167.21 68.4606,171.21 64.5,175.5C 64.5,170.5 64.5,165.5 64.5,160.5C 66.1274,158.536 68.1274,157.203 70.5,156.5C 70.6845,153.663 72.0178,151.663 74.5,150.5 Z"/></g>
<g><path style="opacity:1" fill="#02eefe" d="M 79.5,168.5 C 81.0075,170.181 82.0075,172.181 82.5,174.5C 76.8451,181.82 70.8451,188.82 64.5,195.5C 64.5,192.833 64.5,190.167 64.5,187.5C 69.7299,181.387 74.7299,175.054 79.5,168.5 Z"/></g>
<g><path style="opacity:1" fill="#ff003f" d="M 228.5,157.5 C 228.5,160.5 228.5,163.5 228.5,166.5C 223.817,168.694 220.65,172.361 219,177.5C 216.985,179.346 214.819,181.013 212.5,182.5C 209.828,188.129 206.495,193.129 202.5,197.5C 200.5,197.5 198.5,197.5 196.5,197.5C 204.069,187.372 211.403,177.038 218.5,166.5C 221.205,162.795 224.538,159.795 228.5,157.5 Z"/></g>
<g><path style="opacity:1" fill="#02ffe5" d="M 77.5,163.5 C 78.9313,164.78 79.5979,166.447 79.5,168.5C 74.7299,175.054 69.7299,181.387 64.5,187.5C 64.5,183.5 64.5,179.5 64.5,175.5C 68.4606,171.21 72.794,167.21 77.5,163.5 Z"/></g>
<g><path style="opacity:1" fill="#ff00a7" d="M 205.5,160.5 C 200.67,176.838 190.67,188.838 175.5,196.5C 185.205,184.14 195.205,172.14 205.5,160.5 Z"/></g>
<g><path style="opacity:1" fill="#ff0014" d="M 228.5,166.5 C 228.666,173.841 228.5,181.174 228,188.5C 226.928,192.573 224.428,195.407 220.5,197C 214.509,197.499 208.509,197.666 202.5,197.5C 206.495,193.129 209.828,188.129 212.5,182.5C 214.819,181.013 216.985,179.346 219,177.5C 220.65,172.361 223.817,168.694 228.5,166.5 Z"/></g>
<g><path style="opacity:1" fill="#02fe49" d="M 58.5,144.5 C 58.5,150.5 58.5,156.5 58.5,162.5C 56.9826,162.511 55.8159,163.177 55,164.5C 47.9167,173.644 40.5834,182.644 33,191.5C 32.1841,192.823 31.0174,193.489 29.5,193.5C 27.3066,190.582 26.3066,187.248 26.5,183.5C 33.2561,177.226 38.7561,169.892 43,161.5C 46.1508,158.593 49.4841,155.926 53,153.5C 54.8588,150.436 56.6921,147.436 58.5,144.5 Z"/></g>
<g><path style="opacity:1" fill="#ff00cf" d="M 208.5,147.5 C 208.373,152.151 207.373,156.485 205.5,160.5C 195.205,172.14 185.205,184.14 175.5,196.5C 171.356,199.568 166.689,201.568 161.5,202.5C 164.17,198.988 166.67,195.322 169,191.5C 174.719,187.113 179.386,181.779 183,175.5C 191.678,166.322 200.178,156.989 208.5,147.5 Z"/></g>
<g><path style="opacity:1" fill="#06fec9" d="M 58.5,179.5 C 58.5,185.5 58.5,191.5 58.5,197.5C 53.1667,197.5 47.8333,197.5 42.5,197.5C 43.8056,195.184 45.1389,192.85 46.5,190.5C 51.172,187.402 55.172,183.735 58.5,179.5 Z"/></g>
<g><path style="opacity:1" fill="#02a1ff" d="M 86.5,180.5 C 87.4884,181.795 88.4884,183.128 89.5,184.5C 87.8977,186.699 86.0643,188.699 84,190.5C 83.0112,192.97 81.8446,195.303 80.5,197.5C 78.1667,197.5 75.8333,197.5 73.5,197.5C 73.9617,195.243 74.9617,193.243 76.5,191.5C 79.8554,187.813 83.1887,184.147 86.5,180.5 Z"/></g>
<g><path style="opacity:1" fill="#01fe7b" d="M 58.5,162.5 C 58.5,164.833 58.5,167.167 58.5,169.5C 56.5634,171.091 54.5634,172.758 52.5,174.5C 46.9489,182.311 40.9489,189.644 34.5,196.5C 32.5659,195.89 30.8993,194.89 29.5,193.5C 31.0174,193.489 32.1841,192.823 33,191.5C 40.5834,182.644 47.9167,173.644 55,164.5C 55.8159,163.177 56.9826,162.511 58.5,162.5 Z"/></g>
<g><path style="opacity:1" fill="#02fe9d" d="M 58.5,169.5 C 58.5,172.833 58.5,176.167 58.5,179.5C 55.172,183.735 51.172,187.402 46.5,190.5C 45.1389,192.85 43.8056,195.184 42.5,197.5C 39.6146,197.806 36.9479,197.473 34.5,196.5C 40.9489,189.644 46.9489,182.311 52.5,174.5C 54.5634,172.758 56.5634,171.091 58.5,169.5 Z"/></g>
<g><path style="opacity:1" fill="#03ceff" d="M 82.5,174.5 C 84.1921,176.205 85.5254,178.205 86.5,180.5C 83.1887,184.147 79.8554,187.813 76.5,191.5C 74.9617,193.243 73.9617,195.243 73.5,197.5C 69.9878,198.055 66.9878,197.388 64.5,195.5C 70.8451,188.82 76.8451,181.82 82.5,174.5 Z"/></g>
<g><path style="opacity:1" fill="#037cff" d="M 89.5,184.5 C 90.803,186.142 92.1363,187.809 93.5,189.5C 91.1667,192.167 88.8333,194.833 86.5,197.5C 84.5,197.5 82.5,197.5 80.5,197.5C 81.8446,195.303 83.0112,192.97 84,190.5C 86.0643,188.699 87.8977,186.699 89.5,184.5 Z"/></g>
<g><path style="opacity:1" fill="#ff00ed" d="M 209.5,139.5 C 209.599,142.237 209.265,144.904 208.5,147.5C 200.178,156.989 191.678,166.322 183,175.5C 179.386,181.779 174.719,187.113 169,191.5C 166.67,195.322 164.17,198.988 161.5,202.5C 159.958,203.301 158.292,203.634 156.5,203.5C 174.114,182.211 191.78,160.877 209.5,139.5 Z"/></g>
<g><path style="opacity:1" fill="#0455ff" d="M 93.5,189.5 C 96.3347,192.165 99.3347,194.665 102.5,197C 97.1771,197.499 91.8437,197.666 86.5,197.5C 88.8333,194.833 91.1667,192.167 93.5,189.5 Z"/></g>
</svg>
