<?xml version="1.0" encoding="UTF-8"?>
<!DOCTYPE svg PUBLIC "-//W3C//DTD SVG 1.1//EN" "http://www.w3.org/Graphics/SVG/1.1/DTD/svg11.dtd">
<svg xmlns="http://www.w3.org/2000/svg" version="1.1" width="135px" height="135px" style="shape-rendering:geometricPrecision; text-rendering:geometricPrecision; image-rendering:optimizeQuality; fill-rule:evenodd; clip-rule:evenodd" xmlns:xlink="http://www.w3.org/1999/xlink">
<g><path style="opacity:0.451" fill="#0a0b0a" d="M 83.5,-0.5 C 86.1667,-0.5 88.8333,-0.5 91.5,-0.5C 97.5088,2.00646 100.509,6.50646 100.5,13C 97.7849,25.4452 95.1183,37.9452 92.5,50.5C 97.7871,51.0615 101.62,53.7281 104,58.5C 111.204,75.6086 111.204,92.6086 104,109.5C 101.297,112.371 98.4639,115.038 95.5,117.5C 76.295,132.4 56.6283,132.9 36.5,119C 24.3954,109.323 20.5621,97.1563 25,82.5C 26.587,79.2441 29.087,77.0774 32.5,76C 27.5939,68.0981 29.2606,61.7647 37.5,57C 41.6883,56.361 45.6883,56.6943 49.5,58C 40.9616,47.7671 33.7949,36.6005 28,24.5C 25.2735,18.5875 24.9402,12.5875 27,6.5C 32.2669,0.317386 38.4336,-0.84928 45.5,3C 48.9517,6.73364 51.785,10.9003 54,15.5C 58.8453,25.0105 63.512,34.6772 68,44.5C 70.3362,32.1706 73.0029,19.8372 76,7.5C 77.3871,3.67783 79.8871,1.01117 83.5,-0.5 Z"/></g>
<g><path style="opacity:1" fill="#f87700" d="M 42.5,5.5 C 41.325,5.28099 40.325,5.61432 39.5,6.5C 42.5706,14.7774 40.2373,20.7774 32.5,24.5C 30.7497,23.3406 29.7497,21.674 29.5,19.5C 36.0796,16.579 37.0796,12.4123 32.5,7C 33.056,6.61742 33.3893,6.11742 33.5,5.5C 36.5,4.16667 39.5,4.16667 42.5,5.5 Z"/></g>
<g><path style="opacity:1" fill="#ea3b01" d="M 33.5,5.5 C 33.3893,6.11742 33.056,6.61742 32.5,7C 37.0796,12.4123 36.0796,16.579 29.5,19.5C 25.9348,13.2861 27.2682,8.61945 33.5,5.5 Z"/></g>
<g><path style="opacity:1" fill="#f6d200" d="M 46.5,9.5 C 48.2503,10.6594 49.2503,12.326 49.5,14.5C 48.8826,14.3893 48.3826,14.056 48,13.5C 46.289,20.2055 42.6224,25.5388 37,29.5C 36.5172,30.448 36.3505,31.448 36.5,32.5C 35.3263,31.4863 34.6596,30.153 34.5,28.5C 34.369,27.7611 34.5357,27.0944 35,26.5C 37.6277,24.8745 39.961,22.8745 42,20.5C 43.4398,16.6198 44.9398,12.9531 46.5,9.5 Z"/></g>
<g><path style="opacity:1" fill="#fbad00" d="M 42.5,5.5 C 44.8333,5.83333 46.1667,7.16667 46.5,9.5C 44.9398,12.9531 43.4398,16.6198 42,20.5C 39.961,22.8745 37.6277,24.8745 35,26.5C 34.5357,27.0944 34.369,27.7611 34.5,28.5C 33.3263,27.4863 32.6596,26.153 32.5,24.5C 40.2373,20.7774 42.5706,14.7774 39.5,6.5C 40.325,5.61432 41.325,5.28099 42.5,5.5 Z"/></g>
<g><path style="opacity:1" fill="#049344" d="M 76.5,16.5 C 75.7615,25.1938 74.7615,33.8605 73.5,42.5C 72.5386,44.2646 72.2053,46.2646 72.5,48.5C 72.1667,48.5 71.8333,48.5 71.5,48.5C 71.5,47.8333 71.5,47.1667 71.5,46.5C 72.3225,36.2314 73.9892,26.2314 76.5,16.5 Z"/></g>
<g><path style="opacity:1" fill="#07fcbc" d="M 90.5,3.5 C 90.1667,3.5 89.8333,3.5 89.5,3.5C 87.7419,10.2796 86.7419,17.4462 86.5,25C 84.4377,30.4127 82.6043,35.9127 81,41.5C 78.5779,44.6473 75.9112,47.6473 73,50.5C 72.5357,49.9056 72.369,49.2389 72.5,48.5C 72.2053,46.2646 72.5386,44.2646 73.5,42.5C 73.4346,42.9382 73.6012,43.2716 74,43.5C 76.254,39.9934 78.254,36.3267 80,32.5C 80.429,25.9944 80.929,19.4944 81.5,13C 81.4535,10.7047 80.7868,8.87135 79.5,7.5C 81.8996,2.72645 85.5663,1.39311 90.5,3.5 Z"/></g>
<g><path style="opacity:1" fill="#f4f900" d="M 49.5,14.5 C 50.3382,14.8417 50.6716,15.5084 50.5,16.5C 50.4142,17.4959 50.7476,18.3292 51.5,19C 49.8124,21.7258 48.3124,24.5592 47,27.5C 44.8195,30.2141 42.1528,32.2141 39,33.5C 38.5172,34.448 38.3505,35.448 38.5,36.5C 37.3263,35.4863 36.6596,34.153 36.5,32.5C 36.3505,31.448 36.5172,30.448 37,29.5C 42.6224,25.5388 46.289,20.2055 48,13.5C 48.3826,14.056 48.8826,14.3893 49.5,14.5 Z"/></g>
<g><path style="opacity:0.996" fill="#05baf3" d="M 93.5,4.5 C 96.9424,6.43419 98.2757,9.43419 97.5,13.5C 94.0387,26.1828 91.0387,38.8494 88.5,51.5C 84.4809,51.6458 80.4809,51.9791 76.5,52.5C 79.5444,51.7794 81.211,49.7794 81.5,46.5C 82.8221,46.67 83.9887,46.3366 85,45.5C 86.1662,42.4968 87.8328,39.8302 90,37.5C 90.0306,33.2318 91.0306,29.2318 93,25.5C 93.4996,18.5079 93.6663,11.5079 93.5,4.5 Z"/></g>
<g><path style="opacity:1" fill="#04f781" d="M 79.5,7.5 C 80.7868,8.87135 81.4535,10.7047 81.5,13C 80.929,19.4944 80.429,25.9944 80,32.5C 78.254,36.3267 76.254,39.9934 74,43.5C 73.6012,43.2716 73.4346,42.9382 73.5,42.5C 74.7615,33.8605 75.7615,25.1938 76.5,16.5C 76.5275,13.0836 77.5275,10.0836 79.5,7.5 Z"/></g>
<g><path style="opacity:1" fill="#97f600" d="M 50.5,16.5 C 53.8524,20.5379 56.1857,25.2045 57.5,30.5C 56.5416,30.0472 55.7083,29.3805 55,28.5C 52.093,33.0763 48.2597,36.5763 43.5,39C 42.5868,40.4139 42.5868,41.9139 43.5,43.5C 41.4776,41.4687 39.8109,39.1354 38.5,36.5C 38.3505,35.448 38.5172,34.448 39,33.5C 42.1528,32.2141 44.8195,30.2141 47,27.5C 48.3124,24.5592 49.8124,21.7258 51.5,19C 50.7476,18.3292 50.4142,17.4959 50.5,16.5 Z"/></g>
<g><path style="opacity:1" fill="#03eafd" d="M 89.5,3.5 C 89.8333,3.5 90.1667,3.5 90.5,3.5C 91.609,3.55688 92.609,3.89022 93.5,4.5C 93.6663,11.5079 93.4996,18.5079 93,25.5C 91.0306,29.2318 90.0306,33.2318 90,37.5C 87.8328,39.8302 86.1662,42.4968 85,45.5C 83.9887,46.3366 82.8221,46.67 81.5,46.5C 83.1128,41.9411 85.2794,37.6078 88,33.5C 89.2952,23.545 89.7952,13.545 89.5,3.5 Z"/></g>
<g><path style="opacity:1" fill="#03faee" d="M 89.5,3.5 C 89.7952,13.545 89.2952,23.545 88,33.5C 85.2794,37.6078 83.1128,41.9411 81.5,46.5C 81.211,49.7794 79.5444,51.7794 76.5,52.5C 74.8333,52.5 73.1667,52.5 71.5,52.5C 71.5,51.1667 71.5,49.8333 71.5,48.5C 71.8333,48.5 72.1667,48.5 72.5,48.5C 72.369,49.2389 72.5357,49.9056 73,50.5C 75.9112,47.6473 78.5779,44.6473 81,41.5C 82.6043,35.9127 84.4377,30.4127 86.5,25C 86.7419,17.4462 87.7419,10.2796 89.5,3.5 Z"/></g>
<g><path style="opacity:1" fill="#36fc09" d="M 57.5,30.5 C 58.6737,31.5137 59.3404,32.847 59.5,34.5C 60.0794,38.0387 60.9128,41.3721 62,44.5C 59.323,47.6711 56.1563,50.3378 52.5,52.5C 50.9246,51.5435 49.258,50.8769 47.5,50.5C 45.3963,48.6282 44.063,46.2948 43.5,43.5C 42.5868,41.9139 42.5868,40.4139 43.5,39C 48.2597,36.5763 52.093,33.0763 55,28.5C 55.7083,29.3805 56.5416,30.0472 57.5,30.5 Z"/></g>
<g><path style="opacity:1" fill="#05e77f" d="M 63.5,42.5 C 65.341,44.8485 66.6743,47.5152 67.5,50.5C 67.5,51.5 67.5,52.5 67.5,53.5C 62.5339,53.4617 59.2005,55.795 57.5,60.5C 57.1034,61.525 56.4368,61.6917 55.5,61C 54.3353,59.0083 53.002,57.175 51.5,55.5C 52.5832,55.5394 53.5832,55.8728 54.5,56.5C 57.3998,53.8005 60.5665,51.4672 64,49.5C 64.0178,47.2028 63.8511,44.8695 63.5,42.5 Z"/></g>
<g><path style="opacity:1" fill="#054944" d="M 71.5,46.5 C 71.5,47.1667 71.5,47.8333 71.5,48.5C 71.5,49.8333 71.5,51.1667 71.5,52.5C 73.1667,52.5 74.8333,52.5 76.5,52.5C 80.4809,51.9791 84.4809,51.6458 88.5,51.5C 88.5,51.8333 88.5,52.1667 88.5,52.5C 86.901,52.2322 85.5676,52.5655 84.5,53.5C 84.1667,53.5 83.8333,53.5 83.5,53.5C 81.3792,53.3253 79.3792,53.6586 77.5,54.5C 73.9581,54.1872 70.6248,54.5206 67.5,55.5C 63.2536,54.7606 60.587,56.4273 59.5,60.5C 59.1667,60.5 58.8333,60.5 58.5,60.5C 58.1667,60.5 57.8333,60.5 57.5,60.5C 59.2005,55.795 62.5339,53.4617 67.5,53.5C 67.5,52.5 67.5,51.5 67.5,50.5C 68.1577,51.3984 68.8243,52.3984 69.5,53.5C 70.1681,51.0312 70.8347,48.6979 71.5,46.5 Z"/></g>
<g><path style="opacity:1" fill="#05f95e" d="M 59.5,34.5 C 61.3873,36.7886 62.7206,39.4553 63.5,42.5C 63.8511,44.8695 64.0178,47.2028 64,49.5C 60.5665,51.4672 57.3998,53.8005 54.5,56.5C 53.5832,55.8728 52.5832,55.5394 51.5,55.5C 50.1667,53.8333 48.8333,52.1667 47.5,50.5C 49.258,50.8769 50.9246,51.5435 52.5,52.5C 56.1563,50.3378 59.323,47.6711 62,44.5C 60.9128,41.3721 60.0794,38.0387 59.5,34.5 Z"/></g>
<g><path style="opacity:1" fill="#05f8d9" d="M 67.5,55.5 C 68.552,55.3505 69.552,55.5172 70.5,56C 67.2426,59.2701 63.7426,62.1035 60,64.5C 59.51,63.2068 59.3433,61.8734 59.5,60.5C 60.587,56.4273 63.2536,54.7606 67.5,55.5 Z"/></g>
<g><path style="opacity:1" fill="#05e8f5" d="M 67.5,55.5 C 70.6248,54.5206 73.9581,54.1872 77.5,54.5C 73.2082,60.8113 67.5415,65.1447 60.5,67.5C 58.8325,65.5214 58.1658,63.188 58.5,60.5C 58.8333,60.5 59.1667,60.5 59.5,60.5C 59.3433,61.8734 59.51,63.2068 60,64.5C 63.7426,62.1035 67.2426,59.2701 70.5,56C 69.552,55.5172 68.552,55.3505 67.5,55.5 Z"/></g>
<g><path style="opacity:1" fill="#05b4f9" d="M 83.5,53.5 C 78.7631,60.5721 72.7631,66.2387 65.5,70.5C 63.326,70.2503 61.6594,69.2503 60.5,67.5C 67.5415,65.1447 73.2082,60.8113 77.5,54.5C 79.3792,53.6586 81.3792,53.3253 83.5,53.5 Z"/></g>
<g><path style="opacity:1" fill="#038dfc" d="M 83.5,53.5 C 83.8333,53.5 84.1667,53.5 84.5,53.5C 85.552,53.3505 86.552,53.5172 87.5,54C 81.9956,60.3368 76.3289,66.5035 70.5,72.5C 69.1667,72.1667 67.8333,71.8333 66.5,71.5C 65.8333,71.5 65.5,71.1667 65.5,70.5C 72.7631,66.2387 78.7631,60.5721 83.5,53.5 Z"/></g>
<g><path style="opacity:1" fill="#04f28b" d="M 48.5,62.5 C 44.2492,65.3957 39.5826,66.3957 34.5,65.5C 35.6302,64.3777 36.2969,63.0443 36.5,61.5C 36.6107,60.8826 36.944,60.3826 37.5,60C 41.7423,58.9231 45.4089,59.7564 48.5,62.5 Z"/></g>
<g><path style="opacity:1" fill="#0365f2" d="M 84.5,53.5 C 85.5676,52.5655 86.901,52.2322 88.5,52.5C 91.1522,52.4095 93.4855,53.0762 95.5,54.5C 93.8008,54.3398 92.1341,54.5065 90.5,55C 85.3291,61.0033 79.9957,66.8366 74.5,72.5C 73.1667,72.5 71.8333,72.5 70.5,72.5C 76.3289,66.5035 81.9956,60.3368 87.5,54C 86.552,53.5172 85.552,53.3505 84.5,53.5 Z"/></g>
<g><path style="opacity:1" fill="#08f4c0" d="M 36.5,61.5 C 36.2969,63.0443 35.6302,64.3777 34.5,65.5C 39.5826,66.3957 44.2492,65.3957 48.5,62.5C 50.8185,62.9925 52.8185,63.9925 54.5,65.5C 48.3764,70.7657 41.3764,72.7657 33.5,71.5C 31.7341,67.3258 32.7341,63.9924 36.5,61.5 Z"/></g>
<g><path style="opacity:1" fill="#0149fd" d="M 95.5,54.5 C 96.1667,54.5 96.5,54.8333 96.5,55.5C 95.448,55.3505 94.448,55.5172 93.5,56C 88.6094,61.6266 83.6094,67.1266 78.5,72.5C 77.1667,72.5 75.8333,72.5 74.5,72.5C 79.9957,66.8366 85.3291,61.0033 90.5,55C 92.1341,54.5065 93.8008,54.3398 95.5,54.5 Z"/></g>
<g><path style="opacity:1" fill="#05e7f9" d="M 54.5,65.5 C 56.1667,66.5 57.5,67.8333 58.5,69.5C 56.9897,70.8361 55.3231,72.0027 53.5,73C 48.1665,74.2331 42.8332,75.3998 37.5,76.5C 35.4131,75.4154 34.0798,73.7488 33.5,71.5C 41.3764,72.7657 48.3764,70.7657 54.5,65.5 Z"/></g>
<g><path style="opacity:1" fill="#07b1fc" d="M 58.5,69.5 C 60.1667,70.5 61.5,71.8333 62.5,73.5C 62.5,73.8333 62.5,74.1667 62.5,74.5C 59.1491,75.8975 55.8158,77.3975 52.5,79C 48.8484,79.4986 45.1817,79.6653 41.5,79.5C 40.391,79.4431 39.391,79.1098 38.5,78.5C 38.1667,77.8333 37.8333,77.1667 37.5,76.5C 42.8332,75.3998 48.1665,74.2331 53.5,73C 55.3231,72.0027 56.9897,70.8361 58.5,69.5 Z"/></g>
<g><path style="opacity:1" fill="#0381f7" d="M 62.5,74.5 C 63.1667,74.5 63.5,74.8333 63.5,75.5C 60.3652,78.9461 56.3652,80.7794 51.5,81C 50.0577,81.3768 49.0577,82.2101 48.5,83.5C 45.6689,82.9213 43.3356,81.588 41.5,79.5C 45.1817,79.6653 48.8484,79.4986 52.5,79C 55.8158,77.3975 59.1491,75.8975 62.5,74.5 Z"/></g>
<g><path style="opacity:1" fill="#9500fe" d="M 104.5,69.5 C 104.5,70.8333 104.5,72.1667 104.5,73.5C 100.431,79.9042 95.0975,84.9042 88.5,88.5C 86.1667,88.5 83.8333,88.5 81.5,88.5C 84.6537,84.8539 88.3204,81.6872 92.5,79C 95.6468,75.0188 98.9801,71.1855 102.5,67.5C 103.182,68.2427 103.849,68.9094 104.5,69.5 Z"/></g>
<g><path style="opacity:1" fill="#de07fc" d="M 104.5,73.5 C 105.482,76.9619 105.815,80.6286 105.5,84.5C 102.105,87.9015 98.438,90.9015 94.5,93.5C 92.4752,91.8036 90.4752,90.137 88.5,88.5C 95.0975,84.9042 100.431,79.9042 104.5,73.5 Z"/></g>
<g><path style="opacity:1" fill="#0260f9" d="M 63.5,75.5 C 64.6737,76.5137 65.3404,77.847 65.5,79.5C 60.9626,81.1205 56.6293,83.1205 52.5,85.5C 50.847,85.3404 49.5137,84.6737 48.5,83.5C 49.0577,82.2101 50.0577,81.3768 51.5,81C 56.3652,80.7794 60.3652,78.9461 63.5,75.5 Z"/></g>
<g><path style="opacity:1" fill="#0486f2" d="M 37.5,79.5 C 39.1667,80.8333 40.8333,82.1667 42.5,83.5C 37.5365,84.254 32.5365,84.5874 27.5,84.5C 29.4018,80.3173 32.7351,78.6506 37.5,79.5 Z"/></g>
<g><path style="opacity:1" fill="#030f4c" d="M 66.5,71.5 C 67.8333,71.8333 69.1667,72.1667 70.5,72.5C 71.8333,72.5 73.1667,72.5 74.5,72.5C 75.8333,72.5 77.1667,72.5 78.5,72.5C 81.1873,72.3359 83.854,72.5026 86.5,73C 80.9671,76.2617 75.6338,79.7617 70.5,83.5C 68.8007,83.5271 67.4674,84.1938 66.5,85.5C 66.7947,83.2646 66.4614,81.2646 65.5,79.5C 65.3404,77.847 64.6737,76.5137 63.5,75.5C 63.5,74.8333 63.1667,74.5 62.5,74.5C 62.5,74.1667 62.5,73.8333 62.5,73.5C 63.1667,73.1667 63.8333,72.8333 64.5,72.5C 66.1423,75.8194 67.809,79.1528 69.5,82.5C 72.8103,80.5179 75.8103,78.1846 78.5,75.5C 74.2126,75.0266 70.2126,74.0266 66.5,72.5C 66.5,72.1667 66.5,71.8333 66.5,71.5 Z"/></g>
<g><path style="opacity:1" fill="#0737e8" d="M 64.5,72.5 C 65.1667,72.5 65.8333,72.5 66.5,72.5C 70.2126,74.0266 74.2126,75.0266 78.5,75.5C 75.8103,78.1846 72.8103,80.5179 69.5,82.5C 67.809,79.1528 66.1423,75.8194 64.5,72.5 Z"/></g>
<g><path style="opacity:1" fill="#0655f0" d="M 42.5,83.5 C 45.4848,84.3257 48.1515,85.659 50.5,87.5C 46.774,87.1774 43.1073,87.5108 39.5,88.5C 37.6684,89.0568 36.3351,90.0568 35.5,91.5C 34.0755,89.9689 33.4088,90.3023 33.5,92.5C 32.596,91.791 32.2627,90.791 32.5,89.5C 30.5328,89.2606 28.6995,89.5939 27,90.5C 26.502,93.4816 26.3354,96.4816 26.5,99.5C 25.353,95.3537 25.1864,91.0204 26,86.5C 26.2784,85.5842 26.7784,84.9175 27.5,84.5C 32.5365,84.5874 37.5365,84.254 42.5,83.5 Z"/></g>
<g><path style="opacity:1" fill="#0223f3" d="M 65.5,79.5 C 66.4614,81.2646 66.7947,83.2646 66.5,85.5C 66.573,87.0269 65.9063,88.0269 64.5,88.5C 59.9681,89.1144 55.9681,88.1144 52.5,85.5C 56.6293,83.1205 60.9626,81.1205 65.5,79.5 Z"/></g>
<g><path style="opacity:1" fill="#92008b" d="M 104.5,69.5 C 105.268,70.2625 105.768,71.2625 106,72.5C 106.499,78.1569 106.666,83.8236 106.5,89.5C 106.167,89.5 105.833,89.5 105.5,89.5C 105.5,87.8333 105.5,86.1667 105.5,84.5C 105.815,80.6286 105.482,76.9619 104.5,73.5C 104.5,72.1667 104.5,70.8333 104.5,69.5 Z"/></g>
<g><path style="opacity:1" fill="#041549" d="M 38.5,78.5 C 39.391,79.1098 40.391,79.4431 41.5,79.5C 43.3356,81.588 45.6689,82.9213 48.5,83.5C 49.5137,84.6737 50.847,85.3404 52.5,85.5C 55.9681,88.1144 59.9681,89.1144 64.5,88.5C 64.5,89.1667 64.1667,89.5 63.5,89.5C 60.5,89.5 57.5,89.5 54.5,89.5C 53.4863,88.3263 52.153,87.6596 50.5,87.5C 48.1515,85.659 45.4848,84.3257 42.5,83.5C 40.8333,82.1667 39.1667,80.8333 37.5,79.5C 38.1667,79.5 38.5,79.1667 38.5,78.5 Z"/></g>
<g><path style="opacity:1" fill="#11091c" d="M 70.5,83.5 C 66.0471,89.0231 64.3805,95.3564 65.5,102.5C 65.6716,103.492 65.3382,104.158 64.5,104.5C 64.6716,103.508 64.3382,102.842 63.5,102.5C 63.9434,98.0597 63.9434,93.7264 63.5,89.5C 64.1667,89.5 64.5,89.1667 64.5,88.5C 65.9063,88.0269 66.573,87.0269 66.5,85.5C 67.4674,84.1938 68.8007,83.5271 70.5,83.5 Z"/></g>
<g><path style="opacity:1" fill="#4607f8" d="M 96.5,55.5 C 101.572,58.646 104.239,63.3127 104.5,69.5C 103.849,68.9094 103.182,68.2427 102.5,67.5C 98.9801,71.1855 95.6468,75.0188 92.5,79C 88.3204,81.6872 84.6537,84.8539 81.5,88.5C 79.4357,88.687 77.4357,89.187 75.5,90C 74.6634,91.0113 74.33,92.1779 74.5,93.5C 71.8333,94.1667 69.1667,94.8333 66.5,95.5C 66.5,97.8333 66.5,100.167 66.5,102.5C 66.1667,102.5 65.8333,102.5 65.5,102.5C 64.3805,95.3564 66.0471,89.0231 70.5,83.5C 75.6338,79.7617 80.9671,76.2617 86.5,73C 83.854,72.5026 81.1873,72.3359 78.5,72.5C 83.6094,67.1266 88.6094,61.6266 93.5,56C 94.448,55.5172 95.448,55.3505 96.5,55.5 Z"/></g>
<g><path style="opacity:1" fill="#f6ebee" d="M 81.5,88.5 C 83.8333,88.5 86.1667,88.5 88.5,88.5C 90.4752,90.137 92.4752,91.8036 94.5,93.5C 94.5,95.8333 94.5,98.1667 94.5,100.5C 91.8621,103.474 89.1954,106.474 86.5,109.5C 85.3734,110.122 84.3734,110.955 83.5,112C 86.146,112.497 88.8127,112.664 91.5,112.5C 93.099,112.232 94.4324,112.566 95.5,113.5C 95.5,114.833 95.5,116.167 95.5,117.5C 93.5,117.5 91.5,117.5 89.5,117.5C 84.5,117.5 79.5,117.5 74.5,117.5C 74.5,116.167 74.5,114.833 74.5,113.5C 78.4218,109.239 82.4218,104.906 86.5,100.5C 87.8458,98.2082 87.5124,96.2082 85.5,94.5C 81.6723,93.0314 78.1723,93.6981 75,96.5C 74.5172,95.552 74.3505,94.552 74.5,93.5C 74.33,92.1779 74.6634,91.0113 75.5,90C 77.4357,89.187 79.4357,88.687 81.5,88.5 Z"/></g>
<g><path style="opacity:1" fill="#f3e9ee" d="M 54.5,89.5 C 57.5,89.5 60.5,89.5 63.5,89.5C 63.9434,93.7264 63.9434,98.0597 63.5,102.5C 63.5,104.833 63.5,107.167 63.5,109.5C 63.5,110.5 63.5,111.5 63.5,112.5C 65.5,112.5 67.5,112.5 69.5,112.5C 69.5,113.5 69.5,114.5 69.5,115.5C 67.3647,117.369 64.6981,118.036 61.5,117.5C 57.2984,117.817 53.2984,117.483 49.5,116.5C 49.5,115.167 49.5,113.833 49.5,112.5C 51.8333,112.5 54.1667,112.5 56.5,112.5C 56.8016,109.941 56.4682,107.607 55.5,105.5C 55.5,104.833 55.5,104.167 55.5,103.5C 56.4767,100.713 56.81,97.7131 56.5,94.5C 54.901,94.2322 53.5676,94.5655 52.5,95.5C 51.5,95.5 50.5,95.5 49.5,95.5C 48.4251,91.062 50.0917,89.062 54.5,89.5 Z"/></g>
<g><path style="opacity:1" fill="#3010fb" d="M 50.5,87.5 C 52.153,87.6596 53.4863,88.3263 54.5,89.5C 50.0917,89.062 48.4251,91.062 49.5,95.5C 50.5,95.5 51.5,95.5 52.5,95.5C 53.5,95.5 54.5,95.5 55.5,95.5C 55.5,98.1667 55.5,100.833 55.5,103.5C 46.6287,103.068 39.962,99.0685 35.5,91.5C 36.3351,90.0568 37.6684,89.0568 39.5,88.5C 43.1073,87.5108 46.774,87.1774 50.5,87.5 Z"/></g>
<g><path style="opacity:1" fill="#ff00b7" d="M 105.5,84.5 C 105.5,86.1667 105.5,87.8333 105.5,89.5C 105.649,90.552 105.483,91.552 105,92.5C 101.661,96.159 98.1608,98.8257 94.5,100.5C 94.5,98.1667 94.5,95.8333 94.5,93.5C 98.438,90.9015 102.105,87.9015 105.5,84.5 Z"/></g>
<g><path style="opacity:1" fill="#9d81f9" d="M 52.5,95.5 C 53.5676,94.5655 54.901,94.2322 56.5,94.5C 56.81,97.7131 56.4767,100.713 55.5,103.5C 55.5,100.833 55.5,98.1667 55.5,95.5C 54.5,95.5 53.5,95.5 52.5,95.5 Z"/></g>
<g><path style="opacity:1" fill="#1f0551" d="M 35.5,91.5 C 39.962,99.0685 46.6287,103.068 55.5,103.5C 55.5,104.167 55.5,104.833 55.5,105.5C 52.7938,105.425 50.1272,105.092 47.5,104.5C 41.925,101.594 37.2583,97.594 33.5,92.5C 33.4088,90.3023 34.0755,89.9689 35.5,91.5 Z"/></g>
<g><path style="opacity:1" fill="#bb0dfe" d="M 74.5,93.5 C 74.3505,94.552 74.5172,95.552 75,96.5C 78.1723,93.6981 81.6723,93.0314 85.5,94.5C 78.7418,97.3809 72.4085,101.048 66.5,105.5C 66.5,104.5 66.5,103.5 66.5,102.5C 66.5,100.167 66.5,97.8333 66.5,95.5C 69.1667,94.8333 71.8333,94.1667 74.5,93.5 Z"/></g>
<g><path style="opacity:1" fill="#5e03f8" d="M 33.5,92.5 C 37.2583,97.594 41.925,101.594 47.5,104.5C 41.1534,105.788 34.8201,105.788 28.5,104.5C 27.5592,102.95 26.8925,101.284 26.5,99.5C 26.3354,96.4816 26.502,93.4816 27,90.5C 28.6995,89.5939 30.5328,89.2606 32.5,89.5C 32.2627,90.791 32.596,91.791 33.5,92.5 Z"/></g>
<g><path style="opacity:1" fill="#ee05f9" d="M 85.5,94.5 C 87.5124,96.2082 87.8458,98.2082 86.5,100.5C 78.695,103.358 71.0284,106.358 63.5,109.5C 63.5,107.167 63.5,104.833 63.5,102.5C 64.3382,102.842 64.6716,103.508 64.5,104.5C 64.281,105.675 64.6143,106.675 65.5,107.5C 66.2975,107.043 66.6309,106.376 66.5,105.5C 72.4085,101.048 78.7418,97.3809 85.5,94.5 Z"/></g>
<g><path style="opacity:1" fill="#560064" d="M 65.5,102.5 C 65.8333,102.5 66.1667,102.5 66.5,102.5C 66.5,103.5 66.5,104.5 66.5,105.5C 66.6309,106.376 66.2975,107.043 65.5,107.5C 64.6143,106.675 64.281,105.675 64.5,104.5C 65.3382,104.158 65.6716,103.492 65.5,102.5 Z"/></g>
<g><path style="opacity:1" fill="#f51486" d="M 105.5,89.5 C 105.833,89.5 106.167,89.5 106.5,89.5C 106.884,93.4885 106.217,97.1552 104.5,100.5C 104.631,99.7611 104.464,99.0944 104,98.5C 100.961,99.5314 98.4605,101.365 96.5,104C 92.7713,105.255 89.438,107.088 86.5,109.5C 89.1954,106.474 91.8621,103.474 94.5,100.5C 98.1608,98.8257 101.661,96.159 105,92.5C 105.483,91.552 105.649,90.552 105.5,89.5 Z"/></g>
<g><path style="opacity:1" fill="#a300f6" d="M 28.5,104.5 C 34.8201,105.788 41.1534,105.788 47.5,104.5C 50.1272,105.092 52.7938,105.425 55.5,105.5C 48.4247,107.677 41.0914,109.177 33.5,110C 34.2524,110.671 34.5858,111.504 34.5,112.5C 32.1468,110.14 30.1468,107.473 28.5,104.5 Z"/></g>
<g><path style="opacity:1" fill="#ea0036" d="M 102.5,104.5 C 100.88,108.082 98.5469,111.082 95.5,113.5C 94.4324,112.566 93.099,112.232 91.5,112.5C 94.0716,108.253 97.7382,105.586 102.5,104.5 Z"/></g>
<g><path style="opacity:1" fill="#e411fb" d="M 55.5,105.5 C 56.4682,107.607 56.8016,109.941 56.5,112.5C 54.1667,112.5 51.8333,112.5 49.5,112.5C 49.5,113.833 49.5,115.167 49.5,116.5C 44.8986,116.945 40.5653,116.278 36.5,114.5C 35.5,114.167 34.8333,113.5 34.5,112.5C 34.5858,111.504 34.2524,110.671 33.5,110C 41.0914,109.177 48.4247,107.677 55.5,105.5 Z"/></g>
<g><path style="opacity:1" fill="#ff0bd9" d="M 86.5,100.5 C 82.4218,104.906 78.4218,109.239 74.5,113.5C 72.7162,113.893 71.0495,114.559 69.5,115.5C 69.5,114.5 69.5,113.5 69.5,112.5C 67.5,112.5 65.5,112.5 63.5,112.5C 63.5,111.5 63.5,110.5 63.5,109.5C 71.0284,106.358 78.695,103.358 86.5,100.5 Z"/></g>
<g><path style="opacity:1" fill="#fd0068" d="M 104.5,100.5 C 103.833,101.833 103.167,103.167 102.5,104.5C 97.7382,105.586 94.0716,108.253 91.5,112.5C 88.8127,112.664 86.146,112.497 83.5,112C 84.3734,110.955 85.3734,110.122 86.5,109.5C 89.438,107.088 92.7713,105.255 96.5,104C 98.4605,101.365 100.961,99.5314 104,98.5C 104.464,99.0944 104.631,99.7611 104.5,100.5 Z"/></g>
<g><path style="opacity:1" fill="#fa00ab" d="M 36.5,114.5 C 40.5653,116.278 44.8986,116.945 49.5,116.5C 53.2984,117.483 57.2984,117.817 61.5,117.5C 59.7253,119.584 57.3919,120.751 54.5,121C 51.1508,121.388 47.8175,121.221 44.5,120.5C 41.437,118.975 38.7703,116.975 36.5,114.5 Z"/></g>
<g><path style="opacity:1" fill="#f40075" d="M 74.5,113.5 C 74.5,114.833 74.5,116.167 74.5,117.5C 69.5609,120.467 64.5609,123.134 59.5,125.5C 54.085,124.806 49.085,123.14 44.5,120.5C 47.8175,121.221 51.1508,121.388 54.5,121C 57.3919,120.751 59.7253,119.584 61.5,117.5C 64.6981,118.036 67.3647,117.369 69.5,115.5C 71.0495,114.559 72.7162,113.893 74.5,113.5 Z"/></g>
<g><path style="opacity:1" fill="#f5003f" d="M 74.5,117.5 C 79.5,117.5 84.5,117.5 89.5,117.5C 80.5833,123.823 70.5833,126.49 59.5,125.5C 64.5609,123.134 69.5609,120.467 74.5,117.5 Z"/></g>
</svg>
