<?xml version="1.0" encoding="UTF-8"?>
<!DOCTYPE svg PUBLIC "-//W3C//DTD SVG 1.1//EN" "http://www.w3.org/Graphics/SVG/1.1/DTD/svg11.dtd">
<svg xmlns="http://www.w3.org/2000/svg" version="1.1" width="48px" height="48px" style="shape-rendering:geometricPrecision; text-rendering:geometricPrecision; image-rendering:optimizeQuality; fill-rule:evenodd; clip-rule:evenodd" xmlns:xlink="http://www.w3.org/1999/xlink">
<g><path style="opacity:0.204" fill="#f9faed" d="M 18.5,23.5 C 18.5,24.1667 18.5,24.8333 18.5,25.5C 18.1667,25.5 17.8333,25.5 17.5,25.5C 17.573,23.9731 16.9063,22.9731 15.5,22.5C 15.5721,19.4475 16.5721,16.7808 18.5,14.5C 18.634,12.7085 18.3007,11.0418 17.5,9.5C 16.4324,8.56552 15.099,8.23219 13.5,8.5C 11.8333,8.5 10.1667,8.5 8.5,8.5C 8.21552,10.4147 8.54885,12.0813 9.5,13.5C 9.5,14.5 9.5,15.5 9.5,16.5C 9.6596,18.153 10.3263,19.4863 11.5,20.5C 11.4326,21.9587 11.7659,23.2921 12.5,24.5C 13.1667,25.5 13.8333,26.5 14.5,27.5C 14.8333,28.1667 15.1667,28.8333 15.5,29.5C 15.1667,29.5 14.8333,29.5 14.5,29.5C 7.95561,23.1949 5.62227,15.5282 7.5,6.5C 15.8294,3.04979 20.1628,5.71646 20.5,14.5C 20.4016,16.9368 19.4016,18.9368 17.5,20.5C 18.1272,21.4168 18.4606,22.4168 18.5,23.5 Z"/></g>
<g><path style="opacity:1" fill="#ff7e19" d="M 13.5,8.5 C 12.1667,10.1667 10.8333,11.8333 9.5,13.5C 8.54885,12.0813 8.21552,10.4147 8.5,8.5C 10.1667,8.5 11.8333,8.5 13.5,8.5 Z"/></g>
<g><path style="opacity:1" fill="#fde104" d="M 13.5,8.5 C 15.099,8.23219 16.4324,8.56552 17.5,9.5C 14.8333,11.8333 12.1667,14.1667 9.5,16.5C 9.5,15.5 9.5,14.5 9.5,13.5C 10.8333,11.8333 12.1667,10.1667 13.5,8.5 Z"/></g>
<g><path style="opacity:1" fill="#b4ff2a" d="M 17.5,9.5 C 18.3007,11.0418 18.634,12.7085 18.5,14.5C 17.8826,14.3893 17.3826,14.056 17,13.5C 14.5464,15.4412 12.713,17.7746 11.5,20.5C 10.3263,19.4863 9.6596,18.153 9.5,16.5C 12.1667,14.1667 14.8333,11.8333 17.5,9.5 Z"/></g>
<g><path style="opacity:1" fill="#53ff30" d="M 18.5,14.5 C 16.5721,16.7808 15.5721,19.4475 15.5,22.5C 15.1788,24.0481 14.1788,24.7148 12.5,24.5C 11.7659,23.2921 11.4326,21.9587 11.5,20.5C 12.713,17.7746 14.5464,15.4412 17,13.5C 17.3826,14.056 17.8826,14.3893 18.5,14.5 Z"/></g>
<g><path style="opacity:0.237" fill="#f0ecff" d="M 18.5,23.5 C 20.8652,25.8603 23.5319,27.8603 26.5,29.5C 28.7915,26.6466 31.4582,25.9799 34.5,27.5C 35.1667,28.1667 35.8333,28.8333 36.5,29.5C 35.5,29.5 34.5,29.5 33.5,29.5C 32.8501,29.1961 32.1835,28.8627 31.5,28.5C 29.8144,29.8569 28.1477,31.1902 26.5,32.5C 24.9991,31.2485 23.3325,30.2485 21.5,29.5C 21.5,28.8333 21.1667,28.5 20.5,28.5C 19.8333,27.5 19.1667,26.5 18.5,25.5C 18.5,24.8333 18.5,24.1667 18.5,23.5 Z"/></g>
<g><path style="opacity:1" fill="#3dff93" d="M 15.5,22.5 C 16.9063,22.9731 17.573,23.9731 17.5,25.5C 17.0269,26.9063 16.0269,27.573 14.5,27.5C 13.8333,26.5 13.1667,25.5 12.5,24.5C 14.1788,24.7148 15.1788,24.0481 15.5,22.5 Z"/></g>
<g><path style="opacity:1" fill="#46ebf5" d="M 17.5,25.5 C 17.8333,25.5 18.1667,25.5 18.5,25.5C 19.1667,26.5 19.8333,27.5 20.5,28.5C 18.9731,28.427 17.9731,29.0937 17.5,30.5C 16.8333,30.1667 16.1667,29.8333 15.5,29.5C 15.1667,28.8333 14.8333,28.1667 14.5,27.5C 16.0269,27.573 17.0269,26.9063 17.5,25.5 Z"/></g>
<g><path style="opacity:0.18" fill="#fff7f9" d="M 34.5,27.5 C 36.4672,27.2606 38.3005,27.5939 40,28.5C 40.8265,32.5411 40.6599,36.5411 39.5,40.5C 36.2833,41.6056 33.2833,41.2723 30.5,39.5C 33.3854,39.8064 36.0521,39.4731 38.5,38.5C 38.5,36.8333 38.5,35.1667 38.5,33.5C 38.5,32.8333 38.5,32.1667 38.5,31.5C 38.6716,30.5084 38.3382,29.8417 37.5,29.5C 37.1667,29.5 36.8333,29.5 36.5,29.5C 35.8333,28.8333 35.1667,28.1667 34.5,27.5 Z"/></g>
<g><path style="opacity:1" fill="#4eabff" d="M 20.5,28.5 C 21.1667,28.5 21.5,28.8333 21.5,29.5C 19.9519,29.8212 19.2852,30.8212 19.5,32.5C 18.5,32.1667 17.8333,31.5 17.5,30.5C 17.9731,29.0937 18.9731,28.427 20.5,28.5 Z"/></g>
<g><path style="opacity:1" fill="#3a32ff" d="M 21.5,29.5 C 23.3325,30.2485 24.9991,31.2485 26.5,32.5C 26.0269,33.9063 25.0269,34.573 23.5,34.5C 21.9382,34.2671 20.6049,33.6005 19.5,32.5C 19.2852,30.8212 19.9519,29.8212 21.5,29.5 Z"/></g>
<g><path style="opacity:1" fill="#a019ff" d="M 33.5,29.5 C 31.5,31.8333 29.5,34.1667 27.5,36.5C 25.6203,36.7709 24.287,36.1042 23.5,34.5C 25.0269,34.573 26.0269,33.9063 26.5,32.5C 28.1477,31.1902 29.8144,29.8569 31.5,28.5C 32.1835,28.8627 32.8501,29.1961 33.5,29.5 Z"/></g>
<g><path style="opacity:0.209" fill="#f9ecf5" d="M 14.5,29.5 C 14.8333,29.5 15.1667,29.5 15.5,29.5C 16.1667,29.8333 16.8333,30.1667 17.5,30.5C 17.8333,31.5 18.5,32.1667 19.5,32.5C 20.6049,33.6005 21.9382,34.2671 23.5,34.5C 24.287,36.1042 25.6203,36.7709 27.5,36.5C 27.8417,37.3382 28.5084,37.6716 29.5,37.5C 30.5676,38.4345 31.901,38.7678 33.5,38.5C 35.1667,38.5 36.8333,38.5 38.5,38.5C 36.0521,39.4731 33.3854,39.8064 30.5,39.5C 23.4656,38.6612 18.1322,35.3278 14.5,29.5 Z"/></g>
<g><path style="opacity:1" fill="#ff11a0" d="M 37.5,29.5 C 38.3382,29.8417 38.6716,30.5084 38.5,31.5C 36.0976,33.9092 33.4309,35.9092 30.5,37.5C 32.8333,34.8333 35.1667,32.1667 37.5,29.5 Z"/></g>
<g><path style="opacity:1" fill="#fb10e1" d="M 33.5,29.5 C 34.5,29.5 35.5,29.5 36.5,29.5C 36.8333,29.5 37.1667,29.5 37.5,29.5C 35.1667,32.1667 32.8333,34.8333 30.5,37.5C 30.1667,37.5 29.8333,37.5 29.5,37.5C 28.5084,37.6716 27.8417,37.3382 27.5,36.5C 29.5,34.1667 31.5,31.8333 33.5,29.5 Z"/></g>
<g><path style="opacity:1" fill="#ff2b74" d="M 38.5,31.5 C 38.5,32.1667 38.5,32.8333 38.5,33.5C 36.5,34.8333 34.8333,36.5 33.5,38.5C 31.901,38.7678 30.5676,38.4345 29.5,37.5C 29.8333,37.5 30.1667,37.5 30.5,37.5C 33.4309,35.9092 36.0976,33.9092 38.5,31.5 Z"/></g>
<g><path style="opacity:0.988" fill="#ff1c35" d="M 38.5,33.5 C 38.5,35.1667 38.5,36.8333 38.5,38.5C 36.8333,38.5 35.1667,38.5 33.5,38.5C 34.8333,36.5 36.5,34.8333 38.5,33.5 Z"/></g>
</svg>
