<?xml version="1.0" encoding="UTF-8"?>
<!DOCTYPE svg PUBLIC "-//W3C//DTD SVG 1.1//EN" "http://www.w3.org/Graphics/SVG/1.1/DTD/svg11.dtd">
<svg xmlns="http://www.w3.org/2000/svg" version="1.1" width="256px" height="256px" style="shape-rendering:geometricPrecision; text-rendering:geometricPrecision; image-rendering:optimizeQuality; fill-rule:evenodd; clip-rule:evenodd" xmlns:xlink="http://www.w3.org/1999/xlink">
<g><path style="opacity:0.994" fill="#6c6f6e" d="M 111.5,-0.5 C 121.833,-0.5 132.167,-0.5 142.5,-0.5C 205.475,10.9755 242.642,48.3088 254,111.5C 258.309,167.385 236.809,209.885 189.5,239C 147.833,259.667 106.167,259.667 64.5,239C 27.937,216.925 6.2703,184.759 -0.5,142.5C -0.5,132.167 -0.5,121.833 -0.5,111.5C 11.1757,48.491 48.509,11.1576 111.5,-0.5 Z"/></g>
<g><path style="opacity:1" fill="#7f0ef5" d="M 124.5,63.5 C 124.657,64.8734 124.49,66.2068 124,67.5C 122.333,68.7332 120.833,70.0665 119.5,71.5C 118.791,72.404 117.791,72.7373 116.5,72.5C 116.071,68.9756 114.571,65.9756 112,63.5C 112.147,58.7038 114.647,56.8704 119.5,58C 120.833,60.1906 122.5,62.024 124.5,63.5 Z"/></g>
<g><path style="opacity:1" fill="#654b9e" d="M 124.5,63.5 C 125.222,64.5511 126.222,65.2178 127.5,65.5C 125.138,68.192 122.804,70.8587 120.5,73.5C 120.672,72.5084 120.338,71.8417 119.5,71.5C 120.833,70.0665 122.333,68.7332 124,67.5C 124.49,66.2068 124.657,64.8734 124.5,63.5 Z"/></g>
<g><path style="opacity:1" fill="#0e10f9" d="M 138.5,58.5 C 140.022,59.1909 141.022,60.3576 141.5,62C 139.08,66.0059 137.08,70.1726 135.5,74.5C 130.339,81.3418 127.006,89.0084 125.5,97.5C 118.239,108.45 110.906,119.45 103.5,130.5C 101.457,131.579 100.124,133.246 99.5,135.5C 95.5697,137.048 91.903,136.715 88.5,134.5C 88.5,134.167 88.5,133.833 88.5,133.5C 87.8872,130.031 89.2206,128.031 92.5,127.5C 92.4139,129.677 91.7472,131.677 90.5,133.5C 91.8498,134.95 93.5165,135.617 95.5,135.5C 105.876,117.097 117.042,99.0972 129,81.5C 132.352,74.6301 135.852,67.7968 139.5,61C 138.748,60.3292 138.414,59.4959 138.5,58.5 Z"/></g>
<g><path style="opacity:1" fill="#505598" d="M 135.5,74.5 C 135.782,75.7777 136.449,76.7777 137.5,77.5C 132.128,82.5827 129.128,88.9161 128.5,96.5C 127.391,96.5569 126.391,96.8902 125.5,97.5C 127.006,89.0084 130.339,81.3418 135.5,74.5 Z"/></g>
<g><path style="opacity:1" fill="#056dfc" d="M 141.5,81.5 C 142.922,82.925 144.589,83.925 146.5,84.5C 146.114,87.7366 144.614,90.4033 142,92.5C 141.333,95.1667 140.667,97.8333 140,100.5C 137.469,101.923 135.635,103.923 134.5,106.5C 132.167,105.5 130.5,103.833 129.5,101.5C 132.088,101.457 134.254,100.457 136,98.5C 137.442,94.489 139.442,90.8223 142,87.5C 142.49,85.4546 142.323,83.4546 141.5,81.5 Z"/></g>
<g><path style="opacity:1" fill="#062ffa" d="M 137.5,77.5 C 137.833,78.1667 138.167,78.8333 138.5,79.5C 139.978,82.5609 139.145,84.8942 136,86.5C 134.394,90.2751 132.56,93.9418 130.5,97.5C 129.817,97.1373 129.15,96.8039 128.5,96.5C 129.128,88.9161 132.128,82.5827 137.5,77.5 Z"/></g>
<g><path style="opacity:1" fill="#034cfd" d="M 138.5,79.5 C 139.5,80.1667 140.5,80.8333 141.5,81.5C 142.323,83.4546 142.49,85.4546 142,87.5C 139.442,90.8223 137.442,94.489 136,98.5C 134.254,100.457 132.088,101.457 129.5,101.5C 128.962,99.8828 128.629,98.2161 128.5,96.5C 129.15,96.8039 129.817,97.1373 130.5,97.5C 132.56,93.9418 134.394,90.2751 136,86.5C 139.145,84.8942 139.978,82.5609 138.5,79.5 Z"/></g>
<g><path style="opacity:1" fill="#0499fd" d="M 148.5,86.5 C 149.5,87.1667 150.5,87.8333 151.5,88.5C 151.662,90.5273 151.495,92.5273 151,94.5C 146.238,97.8499 143.072,102.35 141.5,108C 140.535,109.975 139.201,111.475 137.5,112.5C 136.5,111.167 135.5,109.833 134.5,108.5C 135.675,108.719 136.675,108.386 137.5,107.5C 141.737,100.783 145.403,93.7832 148.5,86.5 Z"/></g>
<g><path style="opacity:1" fill="#0284fe" d="M 146.5,84.5 C 147.5,84.8333 148.167,85.5 148.5,86.5C 145.403,93.7832 141.737,100.783 137.5,107.5C 136.675,108.386 135.675,108.719 134.5,108.5C 134.5,107.833 134.5,107.167 134.5,106.5C 135.635,103.923 137.469,101.923 140,100.5C 140.667,97.8333 141.333,95.1667 142,92.5C 144.614,90.4033 146.114,87.7366 146.5,84.5 Z"/></g>
<g><path style="opacity:1" fill="#05b2fd" d="M 151.5,88.5 C 152.345,89.6715 153.011,91.0048 153.5,92.5C 151.614,101.697 146.947,109.03 139.5,114.5C 138.5,114.167 137.833,113.5 137.5,112.5C 139.201,111.475 140.535,109.975 141.5,108C 143.072,102.35 146.238,97.8499 151,94.5C 151.495,92.5273 151.662,90.5273 151.5,88.5 Z"/></g>
<g><path style="opacity:1" fill="#08ccfb" d="M 153.5,92.5 C 155.547,94.5496 157.214,96.883 158.5,99.5C 156.039,98.6987 154.206,99.6987 153,102.5C 151.864,105.096 151.031,107.763 150.5,110.5C 148.857,110.48 147.524,111.147 146.5,112.5C 144.917,114.99 143.917,117.657 143.5,120.5C 141.808,118.795 140.475,116.795 139.5,114.5C 146.947,109.03 151.614,101.697 153.5,92.5 Z"/></g>
<g><path style="opacity:1" fill="#06ecfc" d="M 158.5,99.5 C 160.262,100.262 161.262,101.596 161.5,103.5C 159.983,103.511 158.816,104.177 158,105.5C 153.642,111.556 149.808,117.89 146.5,124.5C 145.512,123.205 144.512,121.872 143.5,120.5C 143.917,117.657 144.917,114.99 146.5,112.5C 147.524,111.147 148.857,110.48 150.5,110.5C 151.031,107.763 151.864,105.096 153,102.5C 154.206,99.6987 156.039,98.6987 158.5,99.5 Z"/></g>
<g><path style="opacity:1" fill="#1700fe" d="M 138.5,58.5 C 138.414,59.4959 138.748,60.3292 139.5,61C 135.852,67.7968 132.352,74.6301 129,81.5C 117.042,99.0972 105.876,117.097 95.5,135.5C 93.5165,135.617 91.8498,134.95 90.5,133.5C 91.7472,131.677 92.4139,129.677 92.5,127.5C 96.2945,121.263 100.128,114.929 104,108.5C 106.333,106.167 108.667,103.833 111,101.5C 116.456,92.2278 122.123,83.2278 128,74.5C 130.761,69.2543 133.261,63.921 135.5,58.5C 136.5,58.5 137.5,58.5 138.5,58.5 Z"/></g>
<g><path style="opacity:1" fill="#4500fe" d="M 138.5,58.5 C 137.5,58.5 136.5,58.5 135.5,58.5C 133.261,63.921 130.761,69.2543 128,74.5C 122.123,83.2278 116.456,92.2278 111,101.5C 108.667,103.833 106.333,106.167 104,108.5C 100.128,114.929 96.2945,121.263 92.5,127.5C 89.2206,128.031 87.8872,130.031 88.5,133.5C 86.1368,131.917 86.1368,130.084 88.5,128C 86.6086,127.691 85.2752,128.525 84.5,130.5C 83.0256,129.564 82.0256,128.23 81.5,126.5C 82.4986,122.51 84.8319,119.844 88.5,118.5C 88.3505,117.448 88.5172,116.448 89,115.5C 93.6387,109.522 98.3053,103.522 103,97.5C 103.872,93.3334 105.039,89.3334 106.5,85.5C 110.458,85.0916 113.125,83.0916 114.5,79.5C 116.167,77.1667 118.167,75.1667 120.5,73.5C 122.804,70.8587 125.138,68.192 127.5,65.5C 129.967,63.1971 132.3,60.6971 134.5,58C 136.066,57.235 137.399,57.4017 138.5,58.5 Z"/></g>
<g><path style="opacity:1" fill="#03fde9" d="M 161.5,103.5 C 161.833,104.167 162.167,104.833 162.5,105.5C 159.687,109.066 157.52,113.066 156,117.5C 151.751,120.73 149.918,125.063 150.5,130.5C 149.18,128.537 147.846,126.537 146.5,124.5C 149.808,117.89 153.642,111.556 158,105.5C 158.816,104.177 159.983,103.511 161.5,103.5 Z"/></g>
<g><path style="opacity:1" fill="#790ef5" d="M 114.5,79.5 C 113.125,83.0916 110.458,85.0916 106.5,85.5C 105.039,89.3334 103.872,93.3334 103,97.5C 98.3053,103.522 93.6387,109.522 89,115.5C 88.5172,116.448 88.3505,117.448 88.5,118.5C 84.8319,119.844 82.4986,122.51 81.5,126.5C 82.0256,128.23 83.0256,129.564 84.5,130.5C 85.2752,128.525 86.6086,127.691 88.5,128C 86.1368,130.084 86.1368,131.917 88.5,133.5C 88.5,133.833 88.5,134.167 88.5,134.5C 81.546,131.933 78.7127,126.933 80,119.5C 88.4483,107.384 97.2816,95.5509 106.5,84C 109.356,82.7413 112.023,81.2413 114.5,79.5 Z"/></g>
<g><path style="opacity:1" fill="#06fcc6" d="M 162.5,105.5 C 165.034,106.634 166.367,108.634 166.5,111.5C 165.603,110.402 164.77,110.402 164,111.5C 162.881,114.543 161.215,117.21 159,119.5C 158.307,122.84 156.807,125.674 154.5,128C 153.767,129.766 153.433,131.599 153.5,133.5C 152.272,132.694 151.272,131.694 150.5,130.5C 149.918,125.063 151.751,120.73 156,117.5C 157.52,113.066 159.687,109.066 162.5,105.5 Z"/></g>
<g><path style="opacity:1" fill="#06fc9d" d="M 166.5,111.5 C 168.89,112.891 170.557,114.891 171.5,117.5C 170.022,117.238 168.689,117.571 167.5,118.5C 166.213,124.411 163.38,129.411 159,133.5C 158.812,135.061 159.645,135.728 161.5,135.5C 158.282,137.184 155.615,136.517 153.5,133.5C 153.433,131.599 153.767,129.766 154.5,128C 156.807,125.674 158.307,122.84 159,119.5C 161.215,117.21 162.881,114.543 164,111.5C 164.77,110.402 165.603,110.402 166.5,111.5 Z"/></g>
<g><path style="opacity:1" fill="#535795" d="M 103.5,130.5 C 102.864,132.795 101.531,134.461 99.5,135.5C 100.124,133.246 101.457,131.579 103.5,130.5 Z"/></g>
<g><path style="opacity:1" fill="#08fa75" d="M 171.5,117.5 C 175.533,127.324 172.2,133.324 161.5,135.5C 159.645,135.728 158.812,135.061 159,133.5C 163.38,129.411 166.213,124.411 167.5,118.5C 168.689,117.571 170.022,117.238 171.5,117.5 Z"/></g>
<g><path style="opacity:1" fill="#0337fb" d="M 97.5,148.5 C 97.9234,149.265 98.2568,150.098 98.5,151C 97.3144,152.412 95.981,153.579 94.5,154.5C 93.5,154.5 92.5,154.5 91.5,154.5C 91.5,152.5 91.5,150.5 91.5,148.5C 93.5,148.5 95.5,148.5 97.5,148.5 Z"/></g>
<g><path style="opacity:1" fill="#f31d0c" d="M 209.5,149.5 C 216.58,151.923 220.247,156.923 220.5,164.5C 220.037,171.739 216.37,176.573 209.5,179C 204.246,180.271 198.913,180.771 193.5,180.5C 193.5,175.5 193.5,170.5 193.5,165.5C 195.291,162.616 197.124,159.616 199,156.5C 199.278,157.416 199.778,158.082 200.5,158.5C 200.179,163.695 200.513,168.695 201.5,173.5C 208.398,174.054 212.065,170.887 212.5,164C 212.343,161.325 211.343,159.159 209.5,157.5C 207.497,155.018 204.831,154.018 201.5,154.5C 202.587,150.427 205.254,148.761 209.5,149.5 Z"/></g>
<g><path style="opacity:1" fill="#f4660c" d="M 200.5,148.5 C 203.713,148.19 206.713,148.523 209.5,149.5C 205.254,148.761 202.587,150.427 201.5,154.5C 200.766,155.708 200.433,157.041 200.5,158.5C 199.778,158.082 199.278,157.416 199,156.5C 197.124,159.616 195.291,162.616 193.5,165.5C 193.5,162.833 193.5,160.167 193.5,157.5C 197.267,155.721 199.6,152.721 200.5,148.5 Z"/></g>
<g><path style="opacity:1" fill="#09a4f7" d="M 110.5,148.5 C 112.167,148.5 113.833,148.5 115.5,148.5C 115.5,150.5 115.5,152.5 115.5,154.5C 113.5,154.5 111.5,154.5 109.5,154.5C 110.77,152.452 111.103,150.452 110.5,148.5 Z"/></g>
<g><path style="opacity:1" fill="#15f080" d="M 159.5,150.5 C 157.143,150.337 154.81,150.503 152.5,151C 152.043,151.414 151.709,151.914 151.5,152.5C 152.34,153.735 153.34,154.735 154.5,155.5C 152.833,155.5 151.167,155.5 149.5,155.5C 149.5,159.167 149.5,162.833 149.5,166.5C 148.834,163.642 148.167,160.642 147.5,157.5C 145.1,160.188 143.433,163.188 142.5,166.5C 142.5,160.5 142.5,154.5 142.5,148.5C 147.511,148.334 152.511,148.501 157.5,149C 158.416,149.278 159.082,149.778 159.5,150.5 Z"/></g>
<g><path style="opacity:1" fill="#2be938" d="M 159.5,150.5 C 161.857,151.594 163.69,153.261 165,155.5C 165.808,159.027 165.641,162.36 164.5,165.5C 163.57,150.032 161.403,149.699 158,164.5C 157.329,165.252 156.496,165.586 155.5,165.5C 158.428,161.757 158.095,158.424 154.5,155.5C 153.34,154.735 152.34,153.735 151.5,152.5C 151.709,151.914 152.043,151.414 152.5,151C 154.81,150.503 157.143,150.337 159.5,150.5 Z"/></g>
<g><path style="opacity:1" fill="#0570fd" d="M 97.5,148.5 C 100.5,148.5 103.5,148.5 106.5,148.5C 106.614,152.838 104.78,156.505 101,159.5C 100.722,158.584 100.222,157.918 99.5,157.5C 99.5,156.5 99.5,155.5 99.5,154.5C 97.8333,154.5 96.1667,154.5 94.5,154.5C 95.981,153.579 97.3144,152.412 98.5,151C 98.2568,150.098 97.9234,149.265 97.5,148.5 Z"/></g>
<g><path style="opacity:1" fill="#66796a" d="M 154.5,155.5 C 158.095,158.424 158.428,161.757 155.5,165.5C 155.158,166.338 154.492,166.672 153.5,166.5C 152.167,166.5 150.833,166.5 149.5,166.5C 149.5,162.833 149.5,159.167 149.5,155.5C 151.167,155.5 152.833,155.5 154.5,155.5 Z"/></g>
<g><path style="opacity:1" fill="#717768" d="M 180.5,155.5 C 183.432,159.607 183.099,163.274 179.5,166.5C 178.167,166.5 176.833,166.5 175.5,166.5C 175.5,162.833 175.5,159.167 175.5,155.5C 177.167,155.5 178.833,155.5 180.5,155.5 Z"/></g>
<g><path style="opacity:1" fill="#fa9303" d="M 200.5,148.5 C 199.6,152.721 197.267,155.721 193.5,157.5C 193.5,154.5 193.5,151.5 193.5,148.5C 195.833,148.5 198.167,148.5 200.5,148.5 Z"/></g>
<g><path style="opacity:1" fill="#6e6e6c" d="M 209.5,157.5 C 211.343,159.159 212.343,161.325 212.5,164C 212.065,170.887 208.398,174.054 201.5,173.5C 201.5,167.833 201.5,162.167 201.5,156.5C 204.237,156.401 206.904,156.735 209.5,157.5 Z"/></g>
<g><path style="opacity:1" fill="#ef14de" d="M 39.5,148.5 C 40.2607,153.639 38.7607,157.973 35,161.5C 34.5012,165.486 34.3345,169.486 34.5,173.5C 33.5073,165.35 33.1739,157.017 33.5,148.5C 35.5,148.5 37.5,148.5 39.5,148.5 Z"/></g>
<g><path style="opacity:1" fill="#21fa16" d="M 164.5,165.5 C 162.837,169.504 159.837,171.837 155.5,172.5C 153.5,172.5 151.5,172.5 149.5,172.5C 149.5,174.833 149.5,177.167 149.5,179.5C 147.5,179.5 145.5,179.5 143.5,179.5C 142.776,171.905 146.109,167.571 153.5,166.5C 154.492,166.672 155.158,166.338 155.5,165.5C 156.496,165.586 157.329,165.252 158,164.5C 161.403,149.699 163.57,150.032 164.5,165.5 Z"/></g>
<g><path style="opacity:1" fill="#55668c" d="M 88.5,148.5 C 89.4944,158.987 89.8278,169.654 89.5,180.5C 88.209,180.737 87.209,180.404 86.5,179.5C 88.4753,169.554 89.1419,159.221 88.5,148.5 Z"/></g>
<g><path style="opacity:1" fill="#a55243" d="M 201.5,154.5 C 204.831,154.018 207.497,155.018 209.5,157.5C 206.904,156.735 204.237,156.401 201.5,156.5C 201.5,162.167 201.5,167.833 201.5,173.5C 200.513,168.695 200.179,163.695 200.5,158.5C 200.433,157.041 200.766,155.708 201.5,154.5 Z"/></g>
<g><path style="opacity:1" fill="#320efa" d="M 87.5,148.5 C 87.5,153.167 87.5,157.833 87.5,162.5C 85.9633,166.203 83.4633,169.203 80,171.5C 78.5054,169.837 76.672,168.837 74.5,168.5C 73.5637,167.026 72.2303,166.026 70.5,165.5C 70.44,164.957 70.1067,164.624 69.5,164.5C 68.5052,169.792 68.1718,175.125 68.5,180.5C 66.5,180.5 64.5,180.5 62.5,180.5C 62.168,169.813 62.5013,159.146 63.5,148.5C 69.7828,153.28 75.6161,158.613 81,164.5C 81.4994,159.177 81.666,153.844 81.5,148.5C 83.5,148.5 85.5,148.5 87.5,148.5 Z"/></g>
<g><path style="opacity:1" fill="#0595fd" d="M 106.5,148.5 C 107.833,148.5 109.167,148.5 110.5,148.5C 111.103,150.452 110.77,152.452 109.5,154.5C 108.5,154.5 107.5,154.5 106.5,154.5C 106.5,157.833 106.5,161.167 106.5,164.5C 104.754,166.584 103.421,168.917 102.5,171.5C 101.5,171.5 100.5,171.5 99.5,171.5C 99.5,166.833 99.5,162.167 99.5,157.5C 100.222,157.918 100.722,158.584 101,159.5C 104.78,156.505 106.614,152.838 106.5,148.5 Z"/></g>
<g><path style="opacity:1" fill="#c3af36" d="M 180.5,155.5 C 182.027,155.427 183.027,156.094 183.5,157.5C 185.298,161.186 184.632,164.186 181.5,166.5C 180.833,166.5 180.167,166.5 179.5,166.5C 183.099,163.274 183.432,159.607 180.5,155.5 Z"/></g>
<g><path style="opacity:1" fill="#14f2e7" d="M 130.5,158.5 C 128.953,159.768 127.953,161.435 127.5,163.5C 126.85,163.196 126.183,162.863 125.5,162.5C 124.428,165.204 123.428,167.87 122.5,170.5C 119.599,172.762 117.266,175.596 115.5,179C 114.207,179.49 112.873,179.657 111.5,179.5C 115.432,169.202 119.432,158.869 123.5,148.5C 124.822,148.33 125.989,148.663 127,149.5C 128.271,152.484 129.438,155.484 130.5,158.5 Z"/></g>
<g><path style="opacity:1" fill="#0ff459" d="M 149.5,166.5 C 150.833,166.5 152.167,166.5 153.5,166.5C 146.109,167.571 142.776,171.905 143.5,179.5C 145.5,179.5 147.5,179.5 149.5,179.5C 149.5,179.833 149.5,180.167 149.5,180.5C 147.167,180.5 144.833,180.5 142.5,180.5C 142.5,175.833 142.5,171.167 142.5,166.5C 143.433,163.188 145.1,160.188 147.5,157.5C 148.167,160.642 148.834,163.642 149.5,166.5 Z"/></g>
<g><path style="opacity:1" fill="#b8ec19" d="M 168.5,148.5 C 168.13,154.925 168.63,161.258 170,167.5C 170.855,164.885 172.188,162.552 174,160.5C 174.495,158.527 174.662,156.527 174.5,154.5C 177.607,154.826 179.94,153.659 181.5,151C 180.429,150.148 179.429,149.315 178.5,148.5C 181.831,148.018 184.497,149.018 186.5,151.5C 186.346,153.97 185.346,155.97 183.5,157.5C 183.027,156.094 182.027,155.427 180.5,155.5C 178.833,155.5 177.167,155.5 175.5,155.5C 175.5,159.167 175.5,162.833 175.5,166.5C 174.376,170.539 173.043,174.539 171.5,178.5C 170.675,179.386 169.675,179.719 168.5,179.5C 167.167,169.167 167.167,158.833 168.5,148.5 Z"/></g>
<g><path style="opacity:1" fill="#76fb02" d="M 168.5,148.5 C 171.833,148.5 175.167,148.5 178.5,148.5C 179.429,149.315 180.429,150.148 181.5,151C 179.94,153.659 177.607,154.826 174.5,154.5C 174.662,156.527 174.495,158.527 174,160.5C 172.188,162.552 170.855,164.885 170,167.5C 168.63,161.258 168.13,154.925 168.5,148.5 Z"/></g>
<g><path style="opacity:1" fill="#f49f0e" d="M 189.5,153.5 C 193.835,162.836 191.168,169.169 181.5,172.5C 184.102,169.073 186.269,165.407 188,161.5C 189.079,158.937 189.579,156.271 189.5,153.5 Z"/></g>
<g><path style="opacity:1" fill="#d808f6" d="M 39.5,148.5 C 40.4916,155.648 40.825,162.981 40.5,170.5C 40.3155,173.337 38.9822,175.337 36.5,176.5C 35.5987,175.71 34.9321,174.71 34.5,173.5C 34.3345,169.486 34.5012,165.486 35,161.5C 38.7607,157.973 40.2607,153.639 39.5,148.5 Z"/></g>
<g><path style="opacity:1" fill="#7301fd" d="M 58.5,171.5 C 58.7709,173.38 58.1042,174.713 56.5,175.5C 54.4017,174.086 53.4017,174.752 53.5,177.5C 51.1845,178.36 48.8511,178.86 46.5,179C 48.0059,176.15 49.8392,174.317 52,173.5C 51.8953,167.874 52.8953,162.541 55,157.5C 56.3333,156.833 57.3333,155.833 58,154.5C 58.4994,160.157 58.6661,165.824 58.5,171.5 Z"/></g>
<g><path style="opacity:1" fill="#549c89" d="M 127.5,163.5 C 127.993,165.806 128.326,168.139 128.5,170.5C 126.5,170.5 124.5,170.5 122.5,170.5C 123.428,167.87 124.428,165.204 125.5,162.5C 126.183,162.863 126.85,163.196 127.5,163.5 Z"/></g>
<g><path style="opacity:1" fill="#fdc901" d="M 186.5,151.5 C 187.5,152.167 188.5,152.833 189.5,153.5C 189.579,156.271 189.079,158.937 188,161.5C 186.269,165.407 184.102,169.073 181.5,172.5C 180.5,172.5 179.5,172.5 178.5,172.5C 179.877,170.711 180.877,168.711 181.5,166.5C 184.632,164.186 185.298,161.186 183.5,157.5C 185.346,155.97 186.346,153.97 186.5,151.5 Z"/></g>
<g><path style="opacity:1" fill="#efe410" d="M 175.5,166.5 C 176.833,166.5 178.167,166.5 179.5,166.5C 180.167,166.5 180.833,166.5 181.5,166.5C 180.877,168.711 179.877,170.711 178.5,172.5C 177.504,172.414 176.671,172.748 176,173.5C 175.503,175.81 175.337,178.143 175.5,180.5C 172.941,180.802 170.607,180.468 168.5,179.5C 169.675,179.719 170.675,179.386 171.5,178.5C 173.043,174.539 174.376,170.539 175.5,166.5 Z"/></g>
<g><path style="opacity:1" fill="#4a47a2" d="M 70.5,165.5 C 69.8333,170.5 69.1667,175.5 68.5,180.5C 68.1718,175.125 68.5052,169.792 69.5,164.5C 70.1067,164.624 70.44,164.957 70.5,165.5 Z"/></g>
<g><path style="opacity:1" fill="#10f7ad" d="M 130.5,158.5 C 133.25,162.387 135.25,166.72 136.5,171.5C 135.325,171.281 134.325,171.614 133.5,172.5C 132.626,174.747 132.292,177.08 132.5,179.5C 131.662,179.158 131.328,178.492 131.5,177.5C 128.576,176.634 125.576,175.634 122.5,174.5C 124.01,172.311 126.01,170.977 128.5,170.5C 128.326,168.139 127.993,165.806 127.5,163.5C 127.953,161.435 128.953,159.768 130.5,158.5 Z"/></g>
<g><path style="opacity:1" fill="#0846fb" d="M 87.5,162.5 C 87.6657,166.846 87.499,171.179 87,175.5C 85.6439,176.38 84.1439,176.714 82.5,176.5C 79.8333,173.833 77.1667,171.167 74.5,168.5C 76.672,168.837 78.5054,169.837 80,171.5C 83.4633,169.203 85.9633,166.203 87.5,162.5 Z"/></g>
<g><path style="opacity:1" fill="#1ced74" d="M 136.5,171.5 C 138.644,174.122 139.977,177.122 140.5,180.5C 137.615,180.806 134.948,180.473 132.5,179.5C 132.292,177.08 132.626,174.747 133.5,172.5C 134.325,171.614 135.325,171.281 136.5,171.5 Z"/></g>
<g><path style="opacity:1" fill="#559255" d="M 155.5,172.5 C 154.081,173.451 152.415,173.784 150.5,173.5C 150.802,176.059 150.468,178.393 149.5,180.5C 149.5,180.167 149.5,179.833 149.5,179.5C 149.5,177.167 149.5,174.833 149.5,172.5C 151.5,172.5 153.5,172.5 155.5,172.5 Z"/></g>
<g><path style="opacity:1" fill="#4293aa" d="M 109.5,154.5 C 111.5,154.5 113.5,154.5 115.5,154.5C 113.052,155.473 110.385,155.806 107.5,155.5C 107.5,163.833 107.5,172.167 107.5,180.5C 104.615,180.806 101.948,180.473 99.5,179.5C 101.833,179.5 104.167,179.5 106.5,179.5C 106.5,174.5 106.5,169.5 106.5,164.5C 106.5,161.167 106.5,157.833 106.5,154.5C 107.5,154.5 108.5,154.5 109.5,154.5 Z"/></g>
<g><path style="opacity:1" fill="#04c3fd" d="M 106.5,164.5 C 106.5,169.5 106.5,174.5 106.5,179.5C 104.167,179.5 101.833,179.5 99.5,179.5C 99.5,176.833 99.5,174.167 99.5,171.5C 100.5,171.5 101.5,171.5 102.5,171.5C 103.421,168.917 104.754,166.584 106.5,164.5 Z"/></g>
<g><path style="opacity:1" fill="#2dddba" d="M 122.5,170.5 C 124.5,170.5 126.5,170.5 128.5,170.5C 126.01,170.977 124.01,172.311 122.5,174.5C 125.576,175.634 128.576,176.634 131.5,177.5C 127.167,177.5 122.833,177.5 118.5,177.5C 118.5,178.5 118.5,179.5 118.5,180.5C 115.941,180.802 113.607,180.468 111.5,179.5C 112.873,179.657 114.207,179.49 115.5,179C 117.266,175.596 119.599,172.762 122.5,170.5 Z"/></g>
<g><path style="opacity:1" fill="#8c16ee" d="M 58.5,171.5 C 58.6661,165.824 58.4994,160.157 58,154.5C 57.3333,155.833 56.3333,156.833 55,157.5C 52.8953,162.541 51.8953,167.874 52,173.5C 49.8392,174.317 48.0059,176.15 46.5,179C 48.8511,178.86 51.1845,178.36 53.5,177.5C 53.4017,174.752 54.4017,174.086 56.5,175.5C 56.5858,176.496 56.2524,177.329 55.5,178C 48.6879,181.685 42.3546,181.185 36.5,176.5C 38.9822,175.337 40.3155,173.337 40.5,170.5C 43.6898,173.981 47.1898,174.315 51,171.5C 51.4997,163.841 51.6664,156.174 51.5,148.5C 54.1667,148.5 56.8333,148.5 59.5,148.5C 59.8254,156.352 59.492,164.018 58.5,171.5 Z"/></g>
<g><path style="opacity:1" fill="#245fda" d="M 87.5,148.5 C 87.8333,148.5 88.1667,148.5 88.5,148.5C 89.1419,159.221 88.4753,169.554 86.5,179.5C 85.1283,178.488 83.795,177.488 82.5,176.5C 84.1439,176.714 85.6439,176.38 87,175.5C 87.499,171.179 87.6657,166.846 87.5,162.5C 87.5,157.833 87.5,153.167 87.5,148.5 Z"/></g>
<g><path style="opacity:1" fill="#9da09f" d="M 84.5,187.5 C 91.257,187.782 97.9237,187.782 104.5,187.5C 104.5,189.833 104.5,192.167 104.5,194.5C 102.408,194.439 100.908,193.439 100,191.5C 99.51,192.793 99.3433,194.127 99.5,195.5C 96.8822,195.221 94.3822,194.554 92,193.5C 89.8938,195.291 87.3938,195.958 84.5,195.5C 84.5,192.833 84.5,190.167 84.5,187.5 Z"/></g>
<g><path style="opacity:1" fill="#bbbcbb" d="M 119.5,187.5 C 120.833,187.5 122.167,187.5 123.5,187.5C 123.698,189.575 123.865,191.575 124,193.5C 122.644,194.38 121.144,194.714 119.5,194.5C 119.5,192.167 119.5,189.833 119.5,187.5 Z"/></g>
<g><path style="opacity:1" fill="#b2b4b3" d="M 75.5,187.5 C 81.9511,187.092 83.6178,189.592 80.5,195C 78.8876,195.72 77.3876,195.554 76,194.5C 75.5034,192.19 75.3367,189.857 75.5,187.5 Z"/></g>
<g><path style="opacity:1" fill="#c2c4c3" d="M 110.5,187.5 C 110.578,189.718 110.744,192.052 111,194.5C 109.644,193.62 108.144,193.286 106.5,193.5C 106.5,191.833 106.5,190.167 106.5,188.5C 108.099,188.768 109.432,188.434 110.5,187.5 Z"/></g>
<g><path style="opacity:1" fill="#c7c8c8" d="M 171.5,187.5 C 172.94,189.388 174.607,190.055 176.5,189.5C 175.194,190.912 174.36,192.579 174,194.5C 172.882,192.235 172.049,189.901 171.5,187.5 Z"/></g>
<g><path style="opacity:1" fill="#b0b2b1" d="M 127.5,187.5 C 132.486,187.305 134.152,189.472 132.5,194C 126.741,195.139 125.074,192.972 127.5,187.5 Z"/></g>
<g><path style="opacity:1" fill="#9a9d9b" d="M 137.5,187.5 C 140.833,187.5 144.167,187.5 147.5,187.5C 147.348,196.526 148.348,196.526 150.5,187.5C 151.675,187.281 152.675,187.614 153.5,188.5C 156.537,196.736 158.204,196.402 158.5,187.5C 159.452,189.045 159.785,190.712 159.5,192.5C 160.833,192.5 162.167,192.5 163.5,192.5C 163.5,193.5 163.5,194.5 163.5,195.5C 159.566,195.979 155.899,195.312 152.5,193.5C 151.148,194.896 149.481,195.563 147.5,195.5C 143.868,194.754 140.202,194.421 136.5,194.5C 136.298,192.05 136.631,189.717 137.5,187.5 Z"/></g>
</svg>
