<?xml version="1.0" encoding="UTF-8"?>
<!DOCTYPE svg PUBLIC "-//W3C//DTD SVG 1.1//EN" "http://www.w3.org/Graphics/SVG/1.1/DTD/svg11.dtd">
<svg xmlns="http://www.w3.org/2000/svg" version="1.1" width="256px" height="256px" style="shape-rendering:geometricPrecision; text-rendering:geometricPrecision; image-rendering:optimizeQuality; fill-rule:evenodd; clip-rule:evenodd" xmlns:xlink="http://www.w3.org/1999/xlink">
<g><path style="opacity:0.85" fill="#fefefe" d="M 114.5,27.5 C 116.352,28.0889 118.185,28.7556 120,29.5C 122.184,32.8662 123.517,36.5328 124,40.5C 126.333,45.8333 128.667,45.8333 131,40.5C 131.422,36.9906 132.422,33.6572 134,30.5C 135.763,29.0563 137.763,28.0563 140,27.5C 146.344,28.673 151.678,31.673 156,36.5C 158.441,43.1185 156.441,48.1185 150,51.5C 147.696,56.7387 146.03,62.0721 145,67.5C 151.81,76.2781 158.977,84.7781 166.5,93C 172.466,95.2959 177.633,98.7959 182,103.5C 199.081,133.331 216.414,162.997 234,192.5C 234.522,197.942 233.189,202.942 230,207.5C 220.761,219.12 208.761,225.787 194,227.5C 189.776,227.164 185.942,225.831 182.5,223.5C 165.667,194.5 148.833,165.5 132,136.5C 128.823,130.623 127.99,124.456 129.5,118C 128.167,106.667 126.833,106.667 125.5,118C 126.754,124.41 125.92,130.577 123,136.5C 106.086,165.998 88.9189,195.331 71.5,224.5C 63.206,227.923 54.8727,227.756 46.5,224C 35.7508,219.248 27.5841,211.748 22,201.5C 20.6815,198.594 20.3482,195.594 21,192.5C 37.6667,163.833 54.3333,135.167 71,106.5C 75.4373,100.197 81.2706,95.6972 88.5,93C 96.4182,85.0861 103.585,76.5861 110,67.5C 108.887,58.2719 104.887,50.6053 98,44.5C 96.9361,39.1224 98.7694,34.9557 103.5,32C 107.053,29.8792 110.72,28.3792 114.5,27.5 Z"/></g>
<g><path style="opacity:1" fill="#ffc600" d="M 115.5,38.5 C 112.53,39.989 110.53,42.3223 109.5,45.5C 107.298,44.2076 105.631,42.3743 104.5,40C 107.128,36.8531 110.462,35.0198 114.5,34.5C 114.433,35.9587 114.766,37.2921 115.5,38.5 Z"/></g>
<g><path style="opacity:1" fill="#f5f700" d="M 115.5,38.5 C 116.895,41.6214 118.562,44.6214 120.5,47.5C 117.806,49.5272 115.473,51.8605 113.5,54.5C 111.796,51.7442 110.463,48.7442 109.5,45.5C 110.53,42.3223 112.53,39.989 115.5,38.5 Z"/></g>
<g><path style="opacity:1" fill="#8cff00" d="M 145.5,46.5 C 139.178,49.3131 133.844,53.4798 129.5,59C 127.783,60.5588 125.783,61.3921 123.5,61.5C 127.739,55.3806 132.239,49.3806 137,43.5C 138.284,40.4701 139.451,37.4701 140.5,34.5C 150.524,36.013 152.19,40.013 145.5,46.5 Z"/></g>
<g><path style="opacity:1" fill="#c5ff01" d="M 120.5,47.5 C 121.812,48.1451 122.812,49.1451 123.5,50.5C 121.333,53.5 119.167,56.5 117,59.5C 116.333,60.8333 115.667,60.8333 115,59.5C 113.991,57.9751 113.491,56.3084 113.5,54.5C 115.473,51.8605 117.806,49.5272 120.5,47.5 Z"/></g>
<g><path style="opacity:1" fill="#5bff00" d="M 145.5,46.5 C 143.5,51.1667 141.5,55.8333 139.5,60.5C 128.785,68.1898 118.452,76.3565 108.5,85C 99.4305,95.2341 88.7638,103.401 76.5,109.5C 80.6678,104.148 86.0011,100.315 92.5,98C 95,95.5 97.5,93 100,90.5C 107.697,80.6449 115.531,70.9782 123.5,61.5C 125.783,61.3921 127.783,60.5588 129.5,59C 133.844,53.4798 139.178,49.3131 145.5,46.5 Z"/></g>
<g><path style="opacity:1" fill="#03fe54" d="M 149.5,83.5 C 147.56,85.4043 145.894,87.571 144.5,90C 139.423,92.2573 135.09,95.424 131.5,99.5C 133.753,90.7883 137.087,82.1216 141.5,73.5C 144.57,76.5638 147.237,79.8971 149.5,83.5 Z"/></g>
<g><path style="opacity:1" fill="#03fe8e" d="M 149.5,83.5 C 151.853,85.8599 153.853,88.5265 155.5,91.5C 147.878,96.4612 140.878,102.128 134.5,108.5C 133.216,105.598 132.216,102.598 131.5,99.5C 135.09,95.424 139.423,92.2573 144.5,90C 145.894,87.571 147.56,85.4043 149.5,83.5 Z"/></g>
<g><path style="opacity:1" fill="#1dff07" d="M 139.5,60.5 C 135.5,70.8333 131.5,81.1667 127.5,91.5C 124.532,91.6261 122.532,93.1261 121.5,96C 119.413,96.7922 117.579,97.9588 116,99.5C 115.464,101.869 114.297,103.869 112.5,105.5C 100.915,113.099 90.2481,121.932 80.5,132C 70.5719,140.106 60.5719,147.939 50.5,155.5C 59.1547,140.194 67.8214,124.861 76.5,109.5C 88.7638,103.401 99.4305,95.2341 108.5,85C 118.452,76.3565 128.785,68.1898 139.5,60.5 Z"/></g>
<g><path style="opacity:1" fill="#02fec1" d="M 155.5,91.5 C 156.5,91.8333 157.167,92.5 157.5,93.5C 153.353,99.6086 148.02,104.442 141.5,108C 139.973,110.69 137.973,112.857 135.5,114.5C 135.167,112.5 134.833,110.5 134.5,108.5C 140.878,102.128 147.878,96.4612 155.5,91.5 Z"/></g>
<g><path style="opacity:1" fill="#05cfff" d="M 167.5,101.5 C 169.403,101.796 171.07,102.463 172.5,103.5C 170.745,104.072 169.078,104.906 167.5,106C 158.88,116.458 149.214,125.625 138.5,133.5C 136.552,131.68 135.552,129.346 135.5,126.5C 137.339,125.418 139.339,124.585 141.5,124C 150.818,117.186 159.485,109.686 167.5,101.5 Z"/></g>
<g><path style="opacity:1" fill="#02ffe7" d="M 157.5,93.5 C 159.5,94.8333 161.167,96.5 162.5,98.5C 153.819,106.512 144.819,114.179 135.5,121.5C 135.5,119.167 135.5,116.833 135.5,114.5C 137.973,112.857 139.973,110.69 141.5,108C 148.02,104.442 153.353,99.6086 157.5,93.5 Z"/></g>
<g><path style="opacity:1" fill="#02f0fe" d="M 162.5,98.5 C 164.434,99.1103 166.101,100.11 167.5,101.5C 159.485,109.686 150.818,117.186 141.5,124C 139.339,124.585 137.339,125.418 135.5,126.5C 135.5,124.833 135.5,123.167 135.5,121.5C 144.819,114.179 153.819,106.512 162.5,98.5 Z"/></g>
<g><path style="opacity:1" fill="#0293ff" d="M 175.5,106.5 C 177.262,107.262 178.262,108.596 178.5,110.5C 176.704,111.793 175.037,113.293 173.5,115C 168.562,115.272 165.396,117.772 164,122.5C 157.476,129.533 149.976,135.2 141.5,139.5C 140.662,139.158 140.328,138.492 140.5,137.5C 141.81,135.852 143.143,134.186 144.5,132.5C 152.985,126.846 160.319,120.013 166.5,112C 169.298,109.696 172.298,107.862 175.5,106.5 Z"/></g>
<g><path style="opacity:1" fill="#00fe8d" d="M 119.5,115.5 C 119.5,116.167 119.5,116.833 119.5,117.5C 111.683,123.817 104.35,130.65 97.5,138C 91.1667,142.333 84.8333,146.667 78.5,151C 75.2407,153.59 72.7407,156.756 71,160.5C 67.4278,162.197 64.5945,164.697 62.5,168C 60.1873,168.662 57.854,169.162 55.5,169.5C 55.6495,170.552 55.4828,171.552 55,172.5C 49.7588,179.048 43.2588,184.048 35.5,187.5C 35.4142,186.504 35.7476,185.671 36.5,185C 39.3405,183.414 42.0072,181.58 44.5,179.5C 50.2683,174.563 55.6017,169.063 60.5,163C 67.3026,160.536 72.636,156.203 76.5,150C 81.8698,145.654 87.5365,141.821 93.5,138.5C 99.5968,132.016 105.93,125.682 112.5,119.5C 115.046,118.466 117.379,117.133 119.5,115.5 Z"/></g>
<g><path style="opacity:1" fill="#01aeff" d="M 172.5,103.5 C 173.833,104.167 174.833,105.167 175.5,106.5C 172.298,107.862 169.298,109.696 166.5,112C 160.319,120.013 152.985,126.846 144.5,132.5C 143.143,134.186 141.81,135.852 140.5,137.5C 139.326,136.486 138.66,135.153 138.5,133.5C 149.214,125.625 158.88,116.458 167.5,106C 169.078,104.906 170.745,104.072 172.5,103.5 Z"/></g>
<g><path style="opacity:1" fill="#0177ff" d="M 178.5,110.5 C 179.338,110.842 179.672,111.508 179.5,112.5C 167.819,122.844 155.819,132.844 143.5,142.5C 142.599,141.71 141.932,140.71 141.5,139.5C 149.976,135.2 157.476,129.533 164,122.5C 165.396,117.772 168.562,115.272 173.5,115C 175.037,113.293 176.704,111.793 178.5,110.5 Z"/></g>
<g><path style="opacity:1" fill="#0047ff" d="M 181.5,115.5 C 182.338,115.842 182.672,116.508 182.5,117.5C 176.197,123.136 170.197,129.136 164.5,135.5C 158.095,139.026 152.095,143.026 146.5,147.5C 145.833,147.5 145.5,147.167 145.5,146.5C 145.804,145.85 146.137,145.183 146.5,144.5C 153.968,140.761 160.301,135.594 165.5,129C 168.94,128.061 171.273,125.895 172.5,122.5C 175.823,120.502 178.823,118.169 181.5,115.5 Z"/></g>
<g><path style="opacity:1" fill="#0261ff" d="M 179.5,112.5 C 180.401,113.29 181.068,114.29 181.5,115.5C 178.823,118.169 175.823,120.502 172.5,122.5C 171.273,125.895 168.94,128.061 165.5,129C 160.301,135.594 153.968,140.761 146.5,144.5C 146.137,145.183 145.804,145.85 145.5,146.5C 144.326,145.486 143.66,144.153 143.5,142.5C 155.819,132.844 167.819,122.844 179.5,112.5 Z"/></g>
<g><path style="opacity:1" fill="#2f01ff" d="M 185.5,121.5 C 188.767,127.035 191.767,132.702 194.5,138.5C 181.922,147.739 169.922,157.739 158.5,168.5C 155.331,164.167 152.664,159.5 150.5,154.5C 155.318,150.849 159.984,147.016 164.5,143C 170.356,134.645 177.356,127.479 185.5,121.5 Z"/></g>
<g><path style="opacity:1" fill="#02fe6e" d="M 123.5,101.5 C 121.238,105.877 119.905,110.544 119.5,115.5C 117.379,117.133 115.046,118.466 112.5,119.5C 105.93,125.682 99.5968,132.016 93.5,138.5C 87.5365,141.821 81.8698,145.654 76.5,150C 72.636,156.203 67.3026,160.536 60.5,163C 55.6017,169.063 50.2683,174.563 44.5,179.5C 42.0072,181.58 39.3405,183.414 36.5,185C 35.7476,185.671 35.4142,186.504 35.5,187.5C 33.7708,188.117 32.2708,189.117 31,190.5C 30.6012,190.272 30.4346,189.938 30.5,189.5C 32.9301,184.963 35.5968,180.63 38.5,176.5C 40.2467,174.116 42.58,172.45 45.5,171.5C 48.4429,168.218 51.4429,164.885 54.5,161.5C 64.0079,156.328 72.3412,149.661 79.5,141.5C 83.2675,140.271 85.2675,137.604 85.5,133.5C 96.7388,124.601 107.405,114.934 117.5,104.5C 119.528,103.451 121.528,102.451 123.5,101.5 Z"/></g>
<g><path style="opacity:1" fill="#04fbf9" d="M 114.5,137.5 C 112.251,143.005 109.251,148.005 105.5,152.5C 91.6356,164.867 77.6356,177.034 63.5,189C 62.5,189.333 61.5,189.667 60.5,190C 53.3265,197.403 45.9931,204.569 38.5,211.5C 36.0905,210.299 34.0905,208.633 32.5,206.5C 38.9881,201.526 45.6548,196.692 52.5,192C 53.7717,190.693 54.7717,189.193 55.5,187.5C 60.6529,184.509 64.9862,180.676 68.5,176C 75.7159,171.64 82.0492,166.307 87.5,160C 96.8606,152.979 105.861,145.479 114.5,137.5 Z"/></g>
<g><path style="opacity:1" fill="#0126ff" d="M 182.5,117.5 C 183.488,118.795 184.488,120.128 185.5,121.5C 177.356,127.479 170.356,134.645 164.5,143C 159.984,147.016 155.318,150.849 150.5,154.5C 148.412,152.664 147.079,150.331 146.5,147.5C 152.095,143.026 158.095,139.026 164.5,135.5C 170.197,129.136 176.197,123.136 182.5,117.5 Z"/></g>
<g><path style="opacity:1" fill="#ae00ff" d="M 197.5,143.5 C 199.588,145.336 200.921,147.669 201.5,150.5C 195.759,155.02 190.093,159.853 184.5,165C 182.51,166.751 180.177,167.751 177.5,168C 173.135,171.841 168.802,175.674 164.5,179.5C 163.4,178.395 162.733,177.062 162.5,175.5C 175.435,166.384 187.102,155.718 197.5,143.5 Z"/></g>
<g><path style="opacity:1" fill="#01fe41" d="M 127.5,91.5 C 125.972,94.7487 124.639,98.082 123.5,101.5C 121.528,102.451 119.528,103.451 117.5,104.5C 107.405,114.934 96.7388,124.601 85.5,133.5C 85.2675,137.604 83.2675,140.271 79.5,141.5C 72.3412,149.661 64.0079,156.328 54.5,161.5C 51.4429,164.885 48.4429,168.218 45.5,171.5C 42.58,172.45 40.2467,174.116 38.5,176.5C 41.7448,169.004 45.7448,162.004 50.5,155.5C 60.5719,147.939 70.5719,140.106 80.5,132C 90.2481,121.932 100.915,113.099 112.5,105.5C 114.297,103.869 115.464,101.869 116,99.5C 117.579,97.9588 119.413,96.7922 121.5,96C 122.532,93.1261 124.532,91.6261 127.5,91.5 Z"/></g>
<g><path style="opacity:1" fill="#02fea3" d="M 119.5,117.5 C 119.5,119.833 119.5,122.167 119.5,124.5C 108.522,131.826 98.5219,140.326 89.5,150C 77.5473,157.638 66.5473,166.305 56.5,176C 51.7055,179.569 46.7055,182.903 41.5,186C 38.3362,191.663 34.0029,196.163 28.5,199.5C 27.6091,198.739 26.9424,197.739 26.5,196.5C 27.6076,193.941 28.9409,191.608 30.5,189.5C 30.4346,189.938 30.6012,190.272 31,190.5C 32.2708,189.117 33.7708,188.117 35.5,187.5C 43.2588,184.048 49.7588,179.048 55,172.5C 55.4828,171.552 55.6495,170.552 55.5,169.5C 57.854,169.162 60.1873,168.662 62.5,168C 64.5945,164.697 67.4278,162.197 71,160.5C 72.7407,156.756 75.2407,153.59 78.5,151C 84.8333,146.667 91.1667,142.333 97.5,138C 104.35,130.65 111.683,123.817 119.5,117.5 Z"/></g>
<g><path style="opacity:1" fill="#02febb" d="M 119.5,124.5 C 119.5,125.5 119.5,126.5 119.5,127.5C 107.181,137.292 94.8474,147.125 82.5,157C 71.6688,169.994 59.3355,181.494 45.5,191.5C 43.5592,193.834 41.8925,196.334 40.5,199C 36.8193,199.872 33.8193,201.706 31.5,204.5C 29.7497,203.341 28.7497,201.674 28.5,199.5C 34.0029,196.163 38.3362,191.663 41.5,186C 46.7055,182.903 51.7055,179.569 56.5,176C 66.5473,166.305 77.5473,157.638 89.5,150C 98.5219,140.326 108.522,131.826 119.5,124.5 Z"/></g>
<g><path style="opacity:1" fill="#7c00ff" d="M 194.5,138.5 C 196.25,139.659 197.25,141.326 197.5,143.5C 187.102,155.718 175.435,166.384 162.5,175.5C 160.917,173.337 159.584,171.004 158.5,168.5C 169.922,157.739 181.922,147.739 194.5,138.5 Z"/></g>
<g><path style="opacity:1" fill="#ff00b9" d="M 210.5,165.5 C 211.338,165.842 211.672,166.508 211.5,167.5C 203.078,173.749 195.078,180.582 187.5,188C 182.873,190.377 178.54,193.21 174.5,196.5C 173.662,196.158 173.328,195.492 173.5,194.5C 176.351,192.495 179.351,190.662 182.5,189C 190.525,179.504 199.859,171.671 210.5,165.5 Z"/></g>
<g><path style="opacity:1" fill="#f300fd" d="M 202.5,151.5 C 204.071,153.635 205.404,155.968 206.5,158.5C 194.366,166.803 183.7,176.636 174.5,188C 173.255,188.791 171.922,189.291 170.5,189.5C 169.326,188.486 168.66,187.153 168.5,185.5C 173.193,181.807 177.193,177.474 180.5,172.5C 182.115,171.846 183.782,171.346 185.5,171C 188.509,167.658 191.843,164.658 195.5,162C 197.711,158.313 200.045,154.813 202.5,151.5 Z"/></g>
<g><path style="opacity:1" fill="#02daff" d="M 105.5,152.5 C 103.336,157.5 100.669,162.167 97.5,166.5C 95.4156,168.83 92.749,169.997 89.5,170C 88.5467,171.955 87.2134,173.622 85.5,175C 82.6397,177.36 79.6397,179.527 76.5,181.5C 66.0895,193.579 54.4228,204.245 41.5,213.5C 39.9731,213.573 38.9731,212.906 38.5,211.5C 45.9931,204.569 53.3265,197.403 60.5,190C 61.5,189.667 62.5,189.333 63.5,189C 77.6356,177.034 91.6356,164.867 105.5,152.5 Z"/></g>
<g><path style="opacity:1" fill="#d501ff" d="M 201.5,150.5 C 202.167,150.5 202.5,150.833 202.5,151.5C 200.045,154.813 197.711,158.313 195.5,162C 191.843,164.658 188.509,167.658 185.5,171C 183.782,171.346 182.115,171.846 180.5,172.5C 177.193,177.474 173.193,181.807 168.5,185.5C 166.684,183.882 165.351,181.882 164.5,179.5C 168.802,175.674 173.135,171.841 177.5,168C 180.177,167.751 182.51,166.751 184.5,165C 190.093,159.853 195.759,155.02 201.5,150.5 Z"/></g>
<g><path style="opacity:1" fill="#02ffdc" d="M 119.5,127.5 C 118.668,131.309 117.001,134.643 114.5,137.5C 105.861,145.479 96.8606,152.979 87.5,160C 82.0492,166.307 75.7159,171.64 68.5,176C 64.9862,180.676 60.6529,184.509 55.5,187.5C 54.7717,189.193 53.7717,190.693 52.5,192C 45.6548,196.692 38.9881,201.526 32.5,206.5C 32.1667,205.833 31.8333,205.167 31.5,204.5C 33.8193,201.706 36.8193,199.872 40.5,199C 41.8925,196.334 43.5592,193.834 45.5,191.5C 59.3355,181.494 71.6688,169.994 82.5,157C 94.8474,147.125 107.181,137.292 119.5,127.5 Z"/></g>
<g><path style="opacity:1" fill="#ff00da" d="M 206.5,158.5 C 208.071,160.635 209.404,162.968 210.5,165.5C 199.859,171.671 190.525,179.504 182.5,189C 179.351,190.662 176.351,192.495 173.5,194.5C 172.263,193.035 171.263,191.368 170.5,189.5C 171.922,189.291 173.255,188.791 174.5,188C 183.7,176.636 194.366,166.803 206.5,158.5 Z"/></g>
<g><path style="opacity:1" fill="#ff009a" d="M 211.5,167.5 C 212.401,168.29 213.068,169.29 213.5,170.5C 212.797,172.716 211.464,174.549 209.5,176C 204.101,179.36 199.101,183.193 194.5,187.5C 188.812,192.521 183.479,197.854 178.5,203.5C 176.929,201.365 175.596,199.032 174.5,196.5C 178.54,193.21 182.873,190.377 187.5,188C 195.078,180.582 203.078,173.749 211.5,167.5 Z"/></g>
<g><path style="opacity:1" fill="#ff0206" d="M 220.5,183.5 C 223.893,187.267 226.56,191.6 228.5,196.5C 220.5,213.321 207.166,221.154 188.5,220C 186.768,218.028 185.435,215.861 184.5,213.5C 187.461,210.052 191.127,207.552 195.5,206C 198.342,201.496 202.342,198.496 207.5,197C 212.731,193.27 217.065,188.77 220.5,183.5 Z"/></g>
<g><path style="opacity:1" fill="#ff007a" d="M 213.5,170.5 C 214.674,171.514 215.34,172.847 215.5,174.5C 213.131,178.7 209.964,182.033 206,184.5C 205.667,185.833 205.333,187.167 205,188.5C 202.46,190.68 199.627,192.514 196.5,194C 190.997,198.337 185.997,203.17 181.5,208.5C 180.263,207.035 179.263,205.368 178.5,203.5C 183.479,197.854 188.812,192.521 194.5,187.5C 199.101,183.193 204.101,179.36 209.5,176C 211.464,174.549 212.797,172.716 213.5,170.5 Z"/></g>
<g><path style="opacity:1" fill="#02beff" d="M 97.5,166.5 C 97.2503,168.674 96.2503,170.341 94.5,171.5C 91.4988,174.493 88.1654,177.159 84.5,179.5C 78.3227,186.844 71.656,193.677 64.5,200C 60.2637,201.945 56.5971,204.612 53.5,208C 50.5532,210.436 48.2199,213.269 46.5,216.5C 44.5659,215.89 42.8993,214.89 41.5,213.5C 54.4228,204.245 66.0895,193.579 76.5,181.5C 79.6397,179.527 82.6397,177.36 85.5,175C 87.2134,173.622 88.5467,171.955 89.5,170C 92.749,169.997 95.4156,168.83 97.5,166.5 Z"/></g>
<g><path style="opacity:1" fill="#ff0050" d="M 215.5,174.5 C 217.588,176.336 218.921,178.669 219.5,181.5C 210.235,188.097 201.901,195.763 194.5,204.5C 190.232,206.448 186.566,209.115 183.5,212.5C 182.833,211.167 182.167,209.833 181.5,208.5C 185.997,203.17 190.997,198.337 196.5,194C 199.627,192.514 202.46,190.68 205,188.5C 205.333,187.167 205.667,185.833 206,184.5C 209.964,182.033 213.131,178.7 215.5,174.5 Z"/></g>
<g><path style="opacity:1" fill="#ff0031" d="M 219.5,181.5 C 220.338,181.842 220.672,182.508 220.5,183.5C 217.065,188.77 212.731,193.27 207.5,197C 202.342,198.496 198.342,201.496 195.5,206C 191.127,207.552 187.461,210.052 184.5,213.5C 183.833,213.5 183.5,213.167 183.5,212.5C 186.566,209.115 190.232,206.448 194.5,204.5C 201.901,195.763 210.235,188.097 219.5,181.5 Z"/></g>
<g><path style="opacity:1" fill="#02a1ff" d="M 94.5,171.5 C 92.0031,177.165 89.0031,182.498 85.5,187.5C 81.4887,192.334 76.4887,195.834 70.5,198C 63.2444,204.766 55.9111,211.266 48.5,217.5C 47.5084,217.672 46.8417,217.338 46.5,216.5C 48.2199,213.269 50.5532,210.436 53.5,208C 56.5971,204.612 60.2637,201.945 64.5,200C 71.656,193.677 78.3227,186.844 84.5,179.5C 88.1654,177.159 91.4988,174.493 94.5,171.5 Z"/></g>
<g><path style="opacity:1" fill="#0266ff" d="M 78.5,199.5 C 78.0248,201.784 77.0248,203.784 75.5,205.5C 71.3431,209.151 67.0097,212.651 62.5,216C 61.252,217.4 60.252,218.9 59.5,220.5C 57.3792,220.675 55.3792,220.341 53.5,219.5C 61.7474,212.94 70.0808,206.273 78.5,199.5 Z"/></g>
<g><path style="opacity:1" fill="#0282ff" d="M 85.5,187.5 C 83.668,191.836 81.3346,195.836 78.5,199.5C 70.0808,206.273 61.7474,212.94 53.5,219.5C 51.597,219.204 49.9303,218.537 48.5,217.5C 55.9111,211.266 63.2444,204.766 70.5,198C 76.4887,195.834 81.4887,192.334 85.5,187.5 Z"/></g>
<g><path style="opacity:1" fill="#014aff" d="M 75.5,205.5 C 72.8868,210.557 69.8868,215.39 66.5,220C 64.1902,220.497 61.8568,220.663 59.5,220.5C 60.252,218.9 61.252,217.4 62.5,216C 67.0097,212.651 71.3431,209.151 75.5,205.5 Z"/></g>
</svg>
