<?xml version="1.0" encoding="UTF-8"?>
<!DOCTYPE svg PUBLIC "-//W3C//DTD SVG 1.1//EN" "http://www.w3.org/Graphics/SVG/1.1/DTD/svg11.dtd">
<svg xmlns="http://www.w3.org/2000/svg" version="1.1" width="256px" height="256px" style="shape-rendering:geometricPrecision; text-rendering:geometricPrecision; image-rendering:optimizeQuality; fill-rule:evenodd; clip-rule:evenodd" xmlns:xlink="http://www.w3.org/1999/xlink">
<g><path style="opacity:0.929" fill="#fefcfc" d="M 111.5,-0.5 C 121.833,-0.5 132.167,-0.5 142.5,-0.5C 205.475,10.9755 242.642,48.3088 254,111.5C 258.309,167.385 236.809,209.885 189.5,239C 147.833,259.667 106.167,259.667 64.5,239C 27.937,216.925 6.2703,184.759 -0.5,142.5C -0.5,132.167 -0.5,121.833 -0.5,111.5C 11.1757,48.491 48.509,11.1576 111.5,-0.5 Z"/></g>
<g><path style="opacity:1" fill="#ffab00" d="M 115.5,9.5 C 116.552,9.35055 117.552,9.51722 118.5,10C 113.696,15.5572 108.696,20.8906 103.5,26C 94.9273,34.0621 85.5939,41.2288 75.5,47.5C 72.0474,53.2398 67.0474,57.0731 60.5,59C 56.8333,62.5 53.1667,66 49.5,69.5C 48.675,70.3857 47.675,70.719 46.5,70.5C 51.849,64.2981 57.5157,58.2981 63.5,52.5C 66.0387,50.7997 68.7053,49.2997 71.5,48C 73.4545,45.6741 75.4545,43.3408 77.5,41C 85.996,33.2638 94.996,26.2638 104.5,20C 107.404,15.5935 111.071,12.0935 115.5,9.5 Z"/></g>
<g><path style="opacity:1" fill="#c4fe01" d="M 152.5,10.5 C 154.167,11.1667 155.833,11.8333 157.5,12.5C 153.776,13.6926 150.776,15.8592 148.5,19C 146.285,20.0438 143.952,20.7105 141.5,21C 134.902,27.9568 127.568,33.9568 119.5,39C 114.19,43.8723 108.857,48.8723 103.5,54C 104.737,54.2321 105.737,54.7321 106.5,55.5C 101.473,55.5029 96.4725,55.8363 91.5,56.5C 92.532,53.5953 94.532,51.762 97.5,51C 104.938,43.5528 112.938,36.8861 121.5,31C 130.417,25.6978 138.417,19.1978 145.5,11.5C 147.743,10.5258 150.076,10.1924 152.5,10.5 Z"/></g>
<g><path style="opacity:1" fill="#ff7700" d="M 101.5,11.5 C 101.5,11.1667 101.5,10.8333 101.5,10.5C 103.527,10.3379 105.527,10.5045 107.5,11C 103.579,15.3013 98.9125,18.6347 93.5,21C 89.4935,26.2875 85.1602,31.1208 80.5,35.5C 78.6917,36.9073 76.6917,38.074 74.5,39C 71.6937,42.2279 68.6937,45.2279 65.5,48C 59.2225,51.2879 53.8892,55.6212 49.5,61C 44.8333,63.6667 40.1667,66.3333 35.5,69C 31.973,73.4387 27.973,77.4387 23.5,81C 21.324,81.1629 19.4907,81.9963 18,83.5C 17.6012,83.2716 17.4346,82.9382 17.5,82.5C 17.3284,81.5084 17.6618,80.8417 18.5,80.5C 25.0299,75.4689 31.6966,70.6356 38.5,66C 58.5705,46.6039 79.9039,28.6039 102.5,12C 102.272,11.6012 101.938,11.4346 101.5,11.5 Z"/></g>
<g><path style="opacity:1" fill="#ff3404" d="M 82.5,17.5 C 82.9382,17.4346 83.2716,17.6012 83.5,18C 71.8369,30.6186 58.8369,41.7853 44.5,51.5C 40.9526,56.6981 36.2859,60.5315 30.5,63C 28.6473,66.3844 26.3139,68.551 23.5,69.5C 26.2964,63.0219 29.963,57.0219 34.5,51.5C 40.5,46.1667 46.1667,40.5 51.5,34.5C 57.7587,29.7885 64.2587,25.4552 71,21.5C 74.608,19.4743 78.4413,18.141 82.5,17.5 Z"/></g>
<g><path style="opacity:1" fill="#ff5f02" d="M 101.5,11.5 C 101.938,11.4346 102.272,11.6012 102.5,12C 79.9039,28.6039 58.5705,46.6039 38.5,66C 31.6966,70.6356 25.0299,75.4689 18.5,80.5C 18.8751,76.0931 20.5417,72.4265 23.5,69.5C 26.3139,68.551 28.6473,66.3844 30.5,63C 36.2859,60.5315 40.9526,56.6981 44.5,51.5C 58.8369,41.7853 71.8369,30.6186 83.5,18C 83.2716,17.6012 82.9382,17.4346 82.5,17.5C 82.8807,16.0689 83.8807,15.2355 85.5,15C 90.7004,13.2598 96.0338,12.0931 101.5,11.5 Z"/></g>
<g><path style="opacity:1" fill="#77fe04" d="M 164.5,14.5 C 167.152,14.4095 169.485,15.0762 171.5,16.5C 169.061,17.0525 166.727,17.0525 164.5,16.5C 161.132,17.7016 158.966,20.0349 158,23.5C 156.167,24.6667 154.333,25.8333 152.5,27C 151.141,31.0261 148.474,33.6927 144.5,35C 136.833,42.1667 129.167,49.3333 121.5,56.5C 119.824,57.7276 119.491,59.0609 120.5,60.5C 117.807,59.4485 115.14,58.4485 112.5,57.5C 127.55,43.9883 142.55,30.4883 157.5,17C 159.65,15.5886 161.984,14.7553 164.5,14.5 Z"/></g>
<g><path style="opacity:1" fill="#e8fe0c" d="M 126.5,8.5 C 135.395,8.13908 144.061,8.80575 152.5,10.5C 150.076,10.1924 147.743,10.5258 145.5,11.5C 138.417,19.1978 130.417,25.6978 121.5,31C 112.938,36.8861 104.938,43.5528 97.5,51C 94.532,51.762 92.532,53.5953 91.5,56.5C 88.1675,57.8328 84.8341,59.1662 81.5,60.5C 100.004,42.8372 119.337,26.0039 139.5,10C 138.552,9.51722 137.552,9.35055 136.5,9.5C 134.5,9.5 132.5,9.5 130.5,9.5C 128.901,9.76781 127.568,9.43448 126.5,8.5 Z"/></g>
<g><path style="opacity:1" fill="#1af7f6" d="M 212.5,44.5 C 214.861,46.1939 216.861,48.1939 218.5,50.5C 212.952,55.0178 207.286,59.5178 201.5,64C 200.663,65.0113 200.33,66.1779 200.5,67.5C 197.757,68.3882 195.09,69.5549 192.5,71C 187.556,75.7912 182.222,79.9579 176.5,83.5C 173.054,84.6874 169.387,85.3541 165.5,85.5C 168.736,83.7947 171.903,81.7947 175,79.5C 175.718,80.4506 176.551,80.6172 177.5,80C 184.085,71.0038 192.085,63.5038 201.5,57.5C 204.921,54.0477 208.421,50.7144 212,47.5C 212.483,46.552 212.649,45.552 212.5,44.5 Z"/></g>
<g><path style="opacity:1" fill="#01fe70" d="M 196.5,30.5 C 197.833,31.5 199.167,32.5 200.5,33.5C 201.757,35.368 201.424,37.0347 199.5,38.5C 196.216,40.117 193.549,42.4503 191.5,45.5C 177.617,55.6147 164.283,66.4481 151.5,78C 148.929,79.4538 146.262,80.6205 143.5,81.5C 142.167,80.8333 141.167,79.8333 140.5,78.5C 147.718,74.2878 154.051,68.9545 159.5,62.5C 167.417,58.2451 174.084,52.5785 179.5,45.5C 184.131,42.732 188.465,39.5654 192.5,36C 193.721,33.9663 195.055,32.133 196.5,30.5 Z"/></g>
<g><path style="opacity:1" fill="#04fedf" d="M 208.5,40.5 C 209.833,41.8333 211.167,43.1667 212.5,44.5C 212.649,45.552 212.483,46.552 212,47.5C 208.421,50.7144 204.921,54.0477 201.5,57.5C 192.085,63.5038 184.085,71.0038 177.5,80C 176.551,80.6172 175.718,80.4506 175,79.5C 171.903,81.7947 168.736,83.7947 165.5,85.5C 162.997,86.3705 160.33,87.0372 157.5,87.5C 167.687,79.9945 177.354,71.6612 186.5,62.5C 188.167,61.6667 189.833,60.8333 191.5,60C 194.517,57.3164 197.183,54.3164 199.5,51C 204.265,48.9436 207.265,45.4436 208.5,40.5 Z"/></g>
<g><path style="opacity:1" fill="#98fe00" d="M 157.5,12.5 C 160.152,12.4095 162.485,13.0762 164.5,14.5C 161.984,14.7553 159.65,15.5886 157.5,17C 142.55,30.4883 127.55,43.9883 112.5,57.5C 110.374,56.9518 108.374,56.2852 106.5,55.5C 105.737,54.7321 104.737,54.2321 103.5,54C 108.857,48.8723 114.19,43.8723 119.5,39C 127.568,33.9568 134.902,27.9568 141.5,21C 143.952,20.7105 146.285,20.0438 148.5,19C 150.776,15.8592 153.776,13.6926 157.5,12.5 Z"/></g>
<g><path style="opacity:1" fill="#24fe0d" d="M 171.5,16.5 C 176.603,18.5505 181.603,20.8838 186.5,23.5C 186.869,25.4412 187.536,27.2745 188.5,29C 184.554,32.4559 180.887,36.1225 177.5,40C 173.985,43.322 169.985,46.1553 165.5,48.5C 160.338,54.1624 155.004,59.6624 149.5,65C 144.821,66.4844 141.155,69.1511 138.5,73C 137.207,73.49 135.873,73.6567 134.5,73.5C 130.719,68.2653 126.053,63.9319 120.5,60.5C 119.491,59.0609 119.824,57.7276 121.5,56.5C 129.167,49.3333 136.833,42.1667 144.5,35C 148.474,33.6927 151.141,31.0261 152.5,27C 154.333,25.8333 156.167,24.6667 158,23.5C 158.966,20.0349 161.132,17.7016 164.5,16.5C 166.727,17.0525 169.061,17.0525 171.5,16.5 Z"/></g>
<g><path style="opacity:1" fill="#f9faf9" d="M 106.5,55.5 C 108.374,56.2852 110.374,56.9518 112.5,57.5C 115.14,58.4485 117.807,59.4485 120.5,60.5C 126.053,63.9319 130.719,68.2653 134.5,73.5C 134.5,74.1667 134.833,74.5 135.5,74.5C 137.165,79.8219 138.831,85.1553 140.5,90.5C 140.5,92.1667 140.5,93.8333 140.5,95.5C 134.409,95.7886 128.409,95.4553 122.5,94.5C 114.025,85.8997 105.025,77.733 95.5,70C 92.0732,68.8343 89.4065,69.6676 87.5,72.5C 86.508,79.9818 86.1746,87.6484 86.5,95.5C 78.5,95.5 70.5,95.5 62.5,95.5C 62.5,92.5 62.5,89.5 62.5,86.5C 62.6741,84.139 63.0074,81.8056 63.5,79.5C 65.8764,76.4435 68.0431,73.1102 70,69.5C 73.438,65.9045 77.2713,62.9045 81.5,60.5C 84.8341,59.1662 88.1675,57.8328 91.5,56.5C 96.4725,55.8363 101.473,55.5029 106.5,55.5 Z"/></g>
<g><path style="opacity:1" fill="#04febc" d="M 205.5,38.5 C 207.027,38.427 208.027,39.0937 208.5,40.5C 207.265,45.4436 204.265,48.9436 199.5,51C 197.183,54.3164 194.517,57.3164 191.5,60C 189.833,60.8333 188.167,61.6667 186.5,62.5C 177.354,71.6612 167.687,79.9945 157.5,87.5C 155.901,87.2322 154.568,87.5655 153.5,88.5C 152.167,88.5 150.833,88.5 149.5,88.5C 149.167,87.8333 148.833,87.1667 148.5,86.5C 150.308,86.5086 151.975,86.0086 153.5,85C 155.091,82.8674 157.091,81.2007 159.5,80C 175.43,66.5569 190.763,52.7236 205.5,38.5 Z"/></g>
<g><path style="opacity:1" fill="#ff9a03" d="M 101.5,10.5 C 103.948,9.52693 106.615,9.1936 109.5,9.5C 111.5,9.5 113.5,9.5 115.5,9.5C 111.071,12.0935 107.404,15.5935 104.5,20C 94.996,26.2638 85.996,33.2638 77.5,41C 75.4545,43.3408 73.4545,45.6741 71.5,48C 68.7053,49.2997 66.0387,50.7997 63.5,52.5C 57.5157,58.2981 51.849,64.2981 46.5,70.5C 43.1155,74.3694 39.1155,77.536 34.5,80C 27.8586,88.2615 20.3586,95.7615 12,102.5C 11.6012,102.272 11.4346,101.938 11.5,101.5C 11.9608,95.8364 13.2941,90.503 15.5,85.5C 13.7833,92.8056 15.1166,93.3056 19.5,87C 24.8769,82.7586 30.5436,78.9252 36.5,75.5C 39.0394,72.4632 41.7061,69.6298 44.5,67C 50.0526,63.5681 54.7193,59.2347 58.5,54C 67.2909,49.3601 74.6243,43.1934 80.5,35.5C 85.1602,31.1208 89.4935,26.2875 93.5,21C 98.9125,18.6347 103.579,15.3013 107.5,11C 105.527,10.5045 103.527,10.3379 101.5,10.5 Z"/></g>
<g><path style="opacity:1" fill="#0ddbfd" d="M 218.5,50.5 C 220.047,51.7682 221.047,53.4348 221.5,55.5C 209.401,63.4485 197.735,72.1152 186.5,81.5C 184.585,81.2155 182.919,81.5489 181.5,82.5C 179.958,83.3007 178.292,83.634 176.5,83.5C 182.222,79.9579 187.556,75.7912 192.5,71C 195.09,69.5549 197.757,68.3882 200.5,67.5C 200.33,66.1779 200.663,65.0113 201.5,64C 207.286,59.5178 212.952,55.0178 218.5,50.5 Z"/></g>
<g><path style="opacity:1" fill="#07b6fc" d="M 221.5,55.5 C 222.974,56.4363 223.974,57.7697 224.5,59.5C 217.433,63.0729 211.433,67.9063 206.5,74C 204.004,75.0804 201.67,76.4138 199.5,78C 195.507,82.6366 191.173,86.8033 186.5,90.5C 186.5,87.5 186.5,84.5 186.5,81.5C 197.735,72.1152 209.401,63.4485 221.5,55.5 Z"/></g>
<g><path style="opacity:1" fill="#03fe95" d="M 200.5,33.5 C 202.452,34.7847 204.118,36.4514 205.5,38.5C 190.763,52.7236 175.43,66.5569 159.5,80C 157.091,81.2007 155.091,82.8674 153.5,85C 151.975,86.0086 150.308,86.5086 148.5,86.5C 146.5,85.1667 144.833,83.5 143.5,81.5C 146.262,80.6205 148.929,79.4538 151.5,78C 164.283,66.4481 177.617,55.6147 191.5,45.5C 193.549,42.4503 196.216,40.117 199.5,38.5C 201.424,37.0347 201.757,35.368 200.5,33.5 Z"/></g>
<g><path style="opacity:1" fill="#ffc802" d="M 109.5,9.5 C 114.975,8.51114 120.642,8.1778 126.5,8.5C 127.568,9.43448 128.901,9.76781 130.5,9.5C 125.104,14.7183 119.438,19.885 113.5,25C 109.357,26.7277 106.024,29.3944 103.5,33C 99.0264,35.9734 94.6931,39.1401 90.5,42.5C 87.7974,46.6668 84.464,50.1668 80.5,53C 78.404,54.7658 76.0707,56.0991 73.5,57C 69.7777,63.2098 64.4444,67.5431 57.5,70C 55.8065,72.6897 53.4732,74.6897 50.5,76C 42.8562,83.9758 34.8562,91.6425 26.5,99C 20.4062,102.035 14.7396,105.535 9.5,109.5C 8.96438,106.302 9.63105,103.635 11.5,101.5C 11.4346,101.938 11.6012,102.272 12,102.5C 20.3586,95.7615 27.8586,88.2615 34.5,80C 39.1155,77.536 43.1155,74.3694 46.5,70.5C 47.675,70.719 48.675,70.3857 49.5,69.5C 53.1667,66 56.8333,62.5 60.5,59C 67.0474,57.0731 72.0474,53.2398 75.5,47.5C 85.5939,41.2288 94.9273,34.0621 103.5,26C 108.696,20.8906 113.696,15.5572 118.5,10C 117.552,9.51722 116.552,9.35055 115.5,9.5C 113.5,9.5 111.5,9.5 109.5,9.5 Z"/></g>
<g><path style="opacity:1" fill="#0c9bfc" d="M 224.5,59.5 C 225.974,60.4363 226.974,61.7697 227.5,63.5C 220.835,64.5086 215.835,68.0086 212.5,74C 206.653,78.0909 200.987,82.4242 195.5,87C 194.521,88.7785 194.854,90.4452 196.5,92C 195.004,92.5074 193.837,92.0074 193,90.5C 191.581,91.4601 190.081,92.2935 188.5,93C 187.883,95.277 187.216,97.4437 186.5,99.5C 186.5,96.5 186.5,93.5 186.5,90.5C 191.173,86.8033 195.507,82.6366 199.5,78C 201.67,76.4138 204.004,75.0804 206.5,74C 211.433,67.9063 217.433,63.0729 224.5,59.5 Z"/></g>
<g><path style="opacity:1" fill="#02fe4a" d="M 186.5,23.5 C 189.833,25.8333 193.167,28.1667 196.5,30.5C 195.055,32.133 193.721,33.9663 192.5,36C 188.465,39.5654 184.131,42.732 179.5,45.5C 174.084,52.5785 167.417,58.2451 159.5,62.5C 154.051,68.9545 147.718,74.2878 140.5,78.5C 138.833,77.1667 137.167,75.8333 135.5,74.5C 134.833,74.5 134.5,74.1667 134.5,73.5C 135.873,73.6567 137.207,73.49 138.5,73C 141.155,69.1511 144.821,66.4844 149.5,65C 155.004,59.6624 160.338,54.1624 165.5,48.5C 169.985,46.1553 173.985,43.322 177.5,40C 180.887,36.1225 184.554,32.4559 188.5,29C 187.536,27.2745 186.869,25.4412 186.5,23.5 Z"/></g>
<g><path style="opacity:1" fill="#d15b37" d="M 122.5,94.5 C 122.784,96.4147 122.451,98.0813 121.5,99.5C 121.5,98.1667 121.5,96.8333 121.5,95.5C 110.5,95.5 99.5,95.5 88.5,95.5C 88.3336,103.507 88.5003,111.507 89,119.5C 90.7889,121.229 92.9556,121.896 95.5,121.5C 92.8569,122.979 90.3569,122.646 88,120.5C 87.5001,104.503 87.3334,88.5035 87.5,72.5C 89.4065,69.6676 92.0732,68.8343 95.5,70C 105.025,77.733 114.025,85.8997 122.5,94.5 Z"/></g>
<g><path style="opacity:1" fill="#ffea00" d="M 130.5,9.5 C 132.5,9.5 134.5,9.5 136.5,9.5C 121.457,21.6966 106.791,34.5299 92.5,48C 89.2324,48.936 86.899,50.936 85.5,54C 79.7817,57.1856 74.4484,60.8523 69.5,65C 66.9454,69.4623 63.2788,72.7956 58.5,75C 55.1667,79.6667 51.1667,83.6667 46.5,87C 40.053,92.3977 33.053,97.0644 25.5,101C 20.3587,105.471 15.192,109.971 10,114.5C 9.50649,112.866 9.33982,111.199 9.5,109.5C 14.7396,105.535 20.4062,102.035 26.5,99C 34.8562,91.6425 42.8562,83.9758 50.5,76C 53.4732,74.6897 55.8065,72.6897 57.5,70C 64.4444,67.5431 69.7777,63.2098 73.5,57C 76.0707,56.0991 78.404,54.7658 80.5,53C 84.464,50.1668 87.7974,46.6668 90.5,42.5C 94.6931,39.1401 99.0264,35.9734 103.5,33C 106.024,29.3944 109.357,26.7277 113.5,25C 119.438,19.885 125.104,14.7183 130.5,9.5 Z"/></g>
<g><path style="opacity:1" fill="#0880fd" d="M 227.5,63.5 C 228.404,64.209 228.737,65.209 228.5,66.5C 218.407,73.8195 208.407,81.3195 198.5,89C 197.167,90.6667 197.167,92.3333 198.5,94C 196.782,94.346 195.115,94.846 193.5,95.5C 191.211,98.4435 189.211,101.444 187.5,104.5C 187.737,105.791 187.404,106.791 186.5,107.5C 186.5,104.833 186.5,102.167 186.5,99.5C 187.216,97.4437 187.883,95.277 188.5,93C 190.081,92.2935 191.581,91.4601 193,90.5C 193.837,92.0074 195.004,92.5074 196.5,92C 194.854,90.4452 194.521,88.7785 195.5,87C 200.987,82.4242 206.653,78.0909 212.5,74C 215.835,68.0086 220.835,64.5086 227.5,63.5 Z"/></g>
<g><path style="opacity:1" fill="#ff8801" d="M 80.5,35.5 C 74.6243,43.1934 67.2909,49.3601 58.5,54C 54.7193,59.2347 50.0526,63.5681 44.5,67C 41.7061,69.6298 39.0394,72.4632 36.5,75.5C 30.5436,78.9252 24.8769,82.7586 19.5,87C 15.1166,93.3056 13.7833,92.8056 15.5,85.5C 15.2852,83.8212 15.9519,82.8212 17.5,82.5C 17.4346,82.9382 17.6012,83.2716 18,83.5C 19.4907,81.9963 21.324,81.1629 23.5,81C 27.973,77.4387 31.973,73.4387 35.5,69C 40.1667,66.3333 44.8333,63.6667 49.5,61C 53.8892,55.6212 59.2225,51.2879 65.5,48C 68.6937,45.2279 71.6937,42.2279 74.5,39C 76.6917,38.074 78.6917,36.9073 80.5,35.5 Z"/></g>
<g><path style="opacity:1" fill="#3a4e83" d="M 135.5,74.5 C 137.167,75.8333 138.833,77.1667 140.5,78.5C 141.167,79.8333 142.167,80.8333 143.5,81.5C 144.833,83.5 146.5,85.1667 148.5,86.5C 148.833,87.1667 149.167,87.8333 149.5,88.5C 146.689,89.475 143.689,90.1417 140.5,90.5C 138.831,85.1553 137.165,79.8219 135.5,74.5 Z"/></g>
<g><path style="opacity:1" fill="#fa541c" d="M 181.5,82.5 C 182.833,82.5 184.167,82.5 185.5,82.5C 185.5,112.5 185.5,142.5 185.5,172.5C 182.894,179.439 178.228,184.439 171.5,187.5C 167.829,187.757 164.495,188.757 161.5,190.5C 158.5,190.5 155.5,190.5 152.5,190.5C 149.238,189.231 146.571,187.231 144.5,184.5C 144.5,183.833 144.5,183.167 144.5,182.5C 144.5,179.167 144.5,175.833 144.5,172.5C 146.587,171.415 147.92,169.749 148.5,167.5C 149.625,165.871 150.959,164.371 152.5,163C 156.042,161.725 159.375,160.225 162.5,158.5C 166.833,158.5 171.167,158.5 175.5,158.5C 175.83,140.659 175.497,122.992 174.5,105.5C 174.167,105.5 173.833,105.5 173.5,105.5C 169.214,106.624 164.881,107.624 160.5,108.5C 157.833,108.833 155.167,109.167 152.5,109.5C 152.5,102.833 152.5,96.1667 152.5,89.5C 153.167,89.5 153.5,89.1667 153.5,88.5C 154.568,87.5655 155.901,87.2322 157.5,87.5C 160.33,87.0372 162.997,86.3705 165.5,85.5C 169.387,85.3541 173.054,84.6874 176.5,83.5C 178.292,83.634 179.958,83.3007 181.5,82.5 Z"/></g>
<g><path style="opacity:1" fill="#8e4f4e" d="M 181.5,82.5 C 182.919,81.5489 184.585,81.2155 186.5,81.5C 186.5,84.5 186.5,87.5 186.5,90.5C 186.5,93.5 186.5,96.5 186.5,99.5C 186.5,102.167 186.5,104.833 186.5,107.5C 186.5,129.167 186.5,150.833 186.5,172.5C 186.167,172.5 185.833,172.5 185.5,172.5C 185.5,142.5 185.5,112.5 185.5,82.5C 184.167,82.5 182.833,82.5 181.5,82.5 Z"/></g>
<g><path style="opacity:1" fill="#046afe" d="M 228.5,66.5 C 229.167,66.5 229.5,66.8333 229.5,67.5C 222.045,71.7875 216.045,77.6209 211.5,85C 207.807,88.3533 203.807,91.3533 199.5,94C 201.616,95.1707 202.282,96.6707 201.5,98.5C 200.131,96.876 198.464,96.376 196.5,97C 193.652,99.6817 190.652,102.182 187.5,104.5C 189.211,101.444 191.211,98.4435 193.5,95.5C 195.115,94.846 196.782,94.346 198.5,94C 197.167,92.3333 197.167,90.6667 198.5,89C 208.407,81.3195 218.407,73.8195 228.5,66.5 Z"/></g>
<g><path style="opacity:1" fill="#e89f32" d="M 152.5,89.5 C 152.5,96.1667 152.5,102.833 152.5,109.5C 150.447,109.402 148.78,110.069 147.5,111.5C 144.167,111.833 140.833,112.167 137.5,112.5C 140.259,105.792 141.592,98.7924 141.5,91.5C 145.258,91.152 148.924,90.4853 152.5,89.5 Z"/></g>
<g><path style="opacity:1" fill="#f2fc09" d="M 136.5,9.5 C 137.552,9.35055 138.552,9.51722 139.5,10C 119.337,26.0039 100.004,42.8372 81.5,60.5C 77.2713,62.9045 73.438,65.9045 70,69.5C 68.0431,73.1102 65.8764,76.4435 63.5,79.5C 48.8606,91.4724 34.5273,103.806 20.5,116.5C 19.1502,117.95 17.4835,118.617 15.5,118.5C 14.6328,121.227 12.7994,123.227 10,124.5C 9.50999,125.793 9.34332,127.127 9.5,128.5C 9.16667,128.5 8.83333,128.5 8.5,128.5C 8.1765,121.978 8.50984,115.645 9.5,109.5C 9.33982,111.199 9.50649,112.866 10,114.5C 15.192,109.971 20.3587,105.471 25.5,101C 33.053,97.0644 40.053,92.3977 46.5,87C 51.1667,83.6667 55.1667,79.6667 58.5,75C 63.2788,72.7956 66.9454,69.4623 69.5,65C 74.4484,60.8523 79.7817,57.1856 85.5,54C 86.899,50.936 89.2324,48.936 92.5,48C 106.791,34.5299 121.457,21.6966 136.5,9.5 Z"/></g>
<g><path style="opacity:1" fill="#0223fe" d="M 233.5,74.5 C 234.945,76.5707 235.945,78.904 236.5,81.5C 234.22,82.6401 231.886,83.8068 229.5,85C 224.478,90.686 218.811,95.686 212.5,100C 210.311,101.911 209.644,104.077 210.5,106.5C 209.305,106.322 208.138,105.989 207,105.5C 204.711,107.06 202.211,108.227 199.5,109C 196.249,113.081 192.249,116.248 187.5,118.5C 187.335,115.482 187.502,112.482 188,109.5C 190.833,108 193,105.833 194.5,103C 197.161,101.027 200.161,99.5275 203.5,98.5C 206.418,95.8806 209.085,93.0473 211.5,90C 218.664,86.7605 224.664,82.0938 229.5,76C 230.745,75.2086 232.078,74.7086 233.5,74.5 Z"/></g>
<g><path style="opacity:1" fill="#2400fe" d="M 236.5,81.5 C 236.5,82.1667 236.833,82.5 237.5,82.5C 239.469,87.1463 238.802,91.313 235.5,95C 236.833,95 238.167,95 239.5,95C 232.698,100.796 225.865,106.63 219,112.5C 218.383,111.551 218.549,110.718 219.5,110C 218.007,108.632 216.507,108.465 215,109.5C 213.871,107.859 212.371,106.859 210.5,106.5C 209.644,104.077 210.311,101.911 212.5,100C 218.811,95.686 224.478,90.686 229.5,85C 231.886,83.8068 234.22,82.6401 236.5,81.5 Z"/></g>
<g><path style="opacity:1" fill="#cccccd" d="M 87.5,72.5 C 87.3334,88.5035 87.5001,104.503 88,120.5C 90.3569,122.646 92.8569,122.979 95.5,121.5C 104.167,114.167 112.833,106.833 121.5,99.5C 122.451,98.0813 122.784,96.4147 122.5,94.5C 128.409,95.4553 134.409,95.7886 140.5,95.5C 140.5,93.8333 140.5,92.1667 140.5,90.5C 143.689,90.1417 146.689,89.475 149.5,88.5C 150.833,88.5 152.167,88.5 153.5,88.5C 153.5,89.1667 153.167,89.5 152.5,89.5C 148.924,90.4853 145.258,91.152 141.5,91.5C 141.592,98.7924 140.259,105.792 137.5,112.5C 135.592,116.414 133.259,120.08 130.5,123.5C 129.833,123.5 129.5,123.833 129.5,124.5C 126.143,126.866 122.81,129.199 119.5,131.5C 118.508,131.328 117.842,131.662 117.5,132.5C 115.597,132.796 113.93,133.463 112.5,134.5C 111.081,135.451 109.415,135.784 107.5,135.5C 103.6,136.43 99.6002,136.763 95.5,136.5C 94.791,135.596 93.791,135.263 92.5,135.5C 91.8333,135.5 91.1667,135.5 90.5,135.5C 88.2871,134.749 86.2871,133.582 84.5,132C 83.2068,131.51 81.8734,131.343 80.5,131.5C 79.8333,130.167 78.8333,129.167 77.5,128.5C 75.5441,126.886 73.5441,125.219 71.5,123.5C 68.7067,120.058 66.3734,116.391 64.5,112.5C 63.3485,110.221 62.3485,107.888 61.5,105.5C 61.5,103.5 61.5,101.5 61.5,99.5C 61.5,95.1667 61.5,90.8333 61.5,86.5C 61.8333,86.5 62.1667,86.5 62.5,86.5C 62.5,89.5 62.5,92.5 62.5,95.5C 70.5,95.5 78.5,95.5 86.5,95.5C 86.1746,87.6484 86.508,79.9818 87.5,72.5 Z"/></g>
<g><path style="opacity:1" fill="#b54425" d="M 121.5,99.5 C 112.833,106.833 104.167,114.167 95.5,121.5C 92.9556,121.896 90.7889,121.229 89,119.5C 88.5003,111.507 88.3336,103.507 88.5,95.5C 99.5,95.5 110.5,95.5 121.5,95.5C 121.5,96.8333 121.5,98.1667 121.5,99.5 Z"/></g>
<g><path style="opacity:1" fill="#294af6" d="M 229.5,67.5 C 231.769,69.2424 233.102,71.5757 233.5,74.5C 232.078,74.7086 230.745,75.2086 229.5,76C 224.664,82.0938 218.664,86.7605 211.5,90C 209.085,93.0473 206.418,95.8806 203.5,98.5C 200.161,99.5275 197.161,101.027 194.5,103C 193,105.833 190.833,108 188,109.5C 187.502,112.482 187.335,115.482 187.5,118.5C 187.5,125.5 187.5,132.5 187.5,139.5C 187.5,143.167 187.5,146.833 187.5,150.5C 187.5,152.167 187.5,153.833 187.5,155.5C 187.5,159.167 187.5,162.833 187.5,166.5C 187.795,168.735 187.461,170.735 186.5,172.5C 186.5,150.833 186.5,129.167 186.5,107.5C 187.404,106.791 187.737,105.791 187.5,104.5C 190.652,102.182 193.652,99.6817 196.5,97C 198.464,96.376 200.131,96.876 201.5,98.5C 202.282,96.6707 201.616,95.1707 199.5,94C 203.807,91.3533 207.807,88.3533 211.5,85C 216.045,77.6209 222.045,71.7875 229.5,67.5 Z"/></g>
<g><path style="opacity:1" fill="#2702fe" d="M 210.5,106.5 C 212.803,109.857 215.47,113.024 218.5,116C 209.716,122.285 201.382,129.118 193.5,136.5C 191.466,137.559 189.466,138.559 187.5,139.5C 187.5,132.5 187.5,125.5 187.5,118.5C 192.249,116.248 196.249,113.081 199.5,109C 202.211,108.227 204.711,107.06 207,105.5C 208.138,105.989 209.305,106.322 210.5,106.5 Z"/></g>
<g><path style="opacity:1" fill="#b4fe07" d="M 61.5,86.5 C 61.5,90.8333 61.5,95.1667 61.5,99.5C 57.2873,99.9433 53.9539,101.943 51.5,105.5C 44.3291,108.672 38.3291,113.339 33.5,119.5C 26.4619,124.678 19.4619,129.845 12.5,135C 9.97122,137.642 8.97122,140.808 9.5,144.5C 8.51192,139.36 8.17859,134.026 8.5,128.5C 8.83333,128.5 9.16667,128.5 9.5,128.5C 9.89657,129.525 10.5632,129.692 11.5,129C 21.3478,119.93 31.6812,111.596 42.5,104C 47.3645,99.0548 52.0312,93.8882 56.5,88.5C 57.8498,87.0499 59.5165,86.3832 61.5,86.5 Z"/></g>
<g><path style="opacity:1" fill="#d4fe00" d="M 63.5,79.5 C 63.0074,81.8056 62.6741,84.139 62.5,86.5C 62.1667,86.5 61.8333,86.5 61.5,86.5C 59.5165,86.3832 57.8498,87.0499 56.5,88.5C 52.0312,93.8882 47.3645,99.0548 42.5,104C 31.6812,111.596 21.3478,119.93 11.5,129C 10.5632,129.692 9.89657,129.525 9.5,128.5C 9.34332,127.127 9.50999,125.793 10,124.5C 12.7994,123.227 14.6328,121.227 15.5,118.5C 17.4835,118.617 19.1502,117.95 20.5,116.5C 34.5273,103.806 48.8606,91.4724 63.5,79.5 Z"/></g>
<g><path style="opacity:1" fill="#8dfe06" d="M 61.5,99.5 C 61.5,101.5 61.5,103.5 61.5,105.5C 60.8423,104.602 60.1757,103.602 59.5,102.5C 51.9812,107.342 45.1479,113.009 39,119.5C 37.5,121.667 36,123.833 34.5,126C 27.2904,131.066 20.2904,136.232 13.5,141.5C 10.8076,144.613 9.8076,148.279 10.5,152.5C 9.52693,150.052 9.1936,147.385 9.5,144.5C 8.97122,140.808 9.97122,137.642 12.5,135C 19.4619,129.845 26.4619,124.678 33.5,119.5C 38.3291,113.339 44.3291,108.672 51.5,105.5C 53.9539,101.943 57.2873,99.9433 61.5,99.5 Z"/></g>
<g><path style="opacity:1" fill="#16fe13" d="M 64.5,112.5 C 66.3734,116.391 68.7067,120.058 71.5,123.5C 71.7512,125.17 72.4178,126.67 73.5,128C 69.3233,133.008 64.99,137.841 60.5,142.5C 58.4527,144.015 56.1193,144.849 53.5,145C 50.4161,150.079 46.0827,153.746 40.5,156C 34.4572,162.009 28.4572,168.009 22.5,174C 21.255,174.791 19.9217,175.291 18.5,175.5C 15.2836,169.994 13.2836,163.994 12.5,157.5C 14.7655,154.393 17.2655,151.393 20,148.5C 24.9839,146.434 28.8173,143.101 31.5,138.5C 36.2619,136.232 40.2619,133.065 43.5,129C 44.448,128.517 45.448,128.351 46.5,128.5C 46.281,127.325 46.6143,126.325 47.5,125.5C 52.8767,120.79 58.5434,116.457 64.5,112.5 Z"/></g>
<g><path style="opacity:1" fill="#3399e0" d="M 173.5,105.5 C 169.916,109.304 165.583,112.137 160.5,114C 157.293,117.949 153.293,120.949 148.5,123C 143.35,129.148 137.516,134.648 131,139.5C 130.517,140.448 130.351,141.448 130.5,142.5C 130.5,144.167 130.5,145.833 130.5,147.5C 130.5,150.5 130.5,153.5 130.5,156.5C 130.5,159.833 130.5,163.167 130.5,166.5C 130.819,171.363 130.486,176.03 129.5,180.5C 129.5,161.833 129.5,143.167 129.5,124.5C 129.5,123.833 129.833,123.5 130.5,123.5C 130.5,125.833 130.5,128.167 130.5,130.5C 130.343,131.873 130.51,133.207 131,134.5C 132.914,131.926 135.414,130.093 138.5,129C 145.101,121.227 152.434,114.394 160.5,108.5C 164.881,107.624 169.214,106.624 173.5,105.5 Z"/></g>
<g><path style="opacity:1" fill="#15d7f8" d="M 130.5,130.5 C 130.5,128.167 130.5,125.833 130.5,123.5C 133.259,120.08 135.592,116.414 137.5,112.5C 140.833,112.167 144.167,111.833 147.5,111.5C 149.869,111.149 152.203,110.982 154.5,111C 146.04,116.963 138.04,123.463 130.5,130.5 Z"/></g>
<g><path style="opacity:1" fill="#0296fe" d="M 173.5,105.5 C 173.833,105.5 174.167,105.5 174.5,105.5C 174.5,106.5 174.5,107.5 174.5,108.5C 170.867,109.142 168.534,111.142 167.5,114.5C 164.86,114.954 162.527,116.121 160.5,118C 155.431,123.72 149.431,128.387 142.5,132C 141.743,133.512 140.743,134.846 139.5,136C 136.598,138.307 133.598,140.473 130.5,142.5C 130.351,141.448 130.517,140.448 131,139.5C 137.516,134.648 143.35,129.148 148.5,123C 153.293,120.949 157.293,117.949 160.5,114C 165.583,112.137 169.916,109.304 173.5,105.5 Z"/></g>
<g><path style="opacity:1" fill="#0184fe" d="M 174.5,108.5 C 174.5,109.167 174.5,109.833 174.5,110.5C 167.752,114.745 161.752,119.911 156.5,126C 149.629,131.261 142.629,136.261 135.5,141C 133.174,142.805 131.508,144.972 130.5,147.5C 130.5,145.833 130.5,144.167 130.5,142.5C 133.598,140.473 136.598,138.307 139.5,136C 140.743,134.846 141.743,133.512 142.5,132C 149.431,128.387 155.431,123.72 160.5,118C 162.527,116.121 164.86,114.954 167.5,114.5C 168.534,111.142 170.867,109.142 174.5,108.5 Z"/></g>
<g><path style="opacity:1" fill="#e39f33" d="M 129.5,124.5 C 129.5,143.167 129.5,161.833 129.5,180.5C 129.784,182.415 129.451,184.081 128.5,185.5C 123.409,193.209 116.409,198.209 107.5,200.5C 103.5,200.5 99.5,200.5 95.5,200.5C 92.2651,198.939 89.5984,196.606 87.5,193.5C 86.8902,192.609 86.5569,191.609 86.5,190.5C 86.4054,187.303 87.0721,184.303 88.5,181.5C 90.6,178.896 92.9334,176.396 95.5,174C 98.6478,172.576 101.648,171.076 104.5,169.5C 105.919,168.549 107.585,168.216 109.5,168.5C 112.833,168.5 116.167,168.5 119.5,168.5C 119.5,156.167 119.5,143.833 119.5,131.5C 122.81,129.199 126.143,126.866 129.5,124.5 Z"/></g>
<g><path style="opacity:1" fill="#21bdf6" d="M 160.5,108.5 C 152.434,114.394 145.101,121.227 138.5,129C 135.414,130.093 132.914,131.926 131,134.5C 130.51,133.207 130.343,131.873 130.5,130.5C 138.04,123.463 146.04,116.963 154.5,111C 152.203,110.982 149.869,111.149 147.5,111.5C 148.78,110.069 150.447,109.402 152.5,109.5C 155.167,109.167 157.833,108.833 160.5,108.5 Z"/></g>
<g><path style="opacity:1" fill="#6302fe" d="M 237.5,82.5 C 239.37,87.4419 241.036,92.4419 242.5,97.5C 242.702,99.9496 242.369,102.283 241.5,104.5C 236.398,108.426 231.398,112.592 226.5,117C 224.866,117.494 223.199,117.66 221.5,117.5C 220.861,119.76 219.694,121.76 218,123.5C 211.961,126.039 207.795,130.372 205.5,136.5C 199.509,141.164 193.509,145.831 187.5,150.5C 187.5,146.833 187.5,143.167 187.5,139.5C 189.466,138.559 191.466,137.559 193.5,136.5C 201.382,129.118 209.716,122.285 218.5,116C 215.47,113.024 212.803,109.857 210.5,106.5C 212.371,106.859 213.871,107.859 215,109.5C 216.507,108.465 218.007,108.632 219.5,110C 218.549,110.718 218.383,111.551 219,112.5C 225.865,106.63 232.698,100.796 239.5,95C 238.167,95 236.833,95 235.5,95C 238.802,91.313 239.469,87.1463 237.5,82.5 Z"/></g>
<g><path style="opacity:1" fill="#5bfe00" d="M 61.5,105.5 C 62.3485,107.888 63.3485,110.221 64.5,112.5C 58.5434,116.457 52.8767,120.79 47.5,125.5C 46.6143,126.325 46.281,127.325 46.5,128.5C 45.448,128.351 44.448,128.517 43.5,129C 40.2619,133.065 36.2619,136.232 31.5,138.5C 28.8173,143.101 24.9839,146.434 20,148.5C 17.2655,151.393 14.7655,154.393 12.5,157.5C 11.8333,155.833 11.1667,154.167 10.5,152.5C 9.8076,148.279 10.8076,144.613 13.5,141.5C 20.2904,136.232 27.2904,131.066 34.5,126C 36,123.833 37.5,121.667 39,119.5C 45.1479,113.009 51.9812,107.342 59.5,102.5C 60.1757,103.602 60.8423,104.602 61.5,105.5 Z"/></g>
<g><path style="opacity:1" fill="#8e00fe" d="M 241.5,104.5 C 243.766,106.193 244.1,108.36 242.5,111C 237.857,113.981 233.524,117.315 229.5,121C 227.536,121.624 225.869,121.124 224.5,119.5C 223.718,121.329 224.384,122.829 226.5,124C 226.167,124.333 225.833,124.667 225.5,125C 212.676,135.119 200.01,145.285 187.5,155.5C 187.5,153.833 187.5,152.167 187.5,150.5C 193.509,145.831 199.509,141.164 205.5,136.5C 207.795,130.372 211.961,126.039 218,123.5C 219.694,121.76 220.861,119.76 221.5,117.5C 223.199,117.66 224.866,117.494 226.5,117C 231.398,112.592 236.398,108.426 241.5,104.5 Z"/></g>
<g><path style="opacity:1" fill="#b604fe" d="M 242.5,97.5 C 244.136,101.21 244.802,105.21 244.5,109.5C 244.666,115.509 244.499,121.509 244,127.5C 241.815,128.928 239.815,130.595 238,132.5C 236.385,131.614 234.885,130.614 233.5,129.5C 232.153,128.972 230.819,128.805 229.5,129C 224.167,134.667 218.833,140.333 213.5,146C 209.729,147.526 207.062,150.193 205.5,154C 199.942,158.711 193.942,162.878 187.5,166.5C 187.5,162.833 187.5,159.167 187.5,155.5C 200.01,145.285 212.676,135.119 225.5,125C 225.833,124.667 226.167,124.333 226.5,124C 224.384,122.829 223.718,121.329 224.5,119.5C 225.869,121.124 227.536,121.624 229.5,121C 233.524,117.315 237.857,113.981 242.5,111C 244.1,108.36 243.766,106.193 241.5,104.5C 242.369,102.283 242.702,99.9496 242.5,97.5 Z"/></g>
<g><path style="opacity:1" fill="#6a3892" d="M 174.5,105.5 C 175.497,122.992 175.83,140.659 175.5,158.5C 171.167,158.5 166.833,158.5 162.5,158.5C 166.298,157.517 170.298,157.183 174.5,157.5C 174.5,146.833 174.5,136.167 174.5,125.5C 174.5,123.5 174.5,121.5 174.5,119.5C 174.5,118.167 174.5,116.833 174.5,115.5C 174.5,113.833 174.5,112.167 174.5,110.5C 174.5,109.833 174.5,109.167 174.5,108.5C 174.5,107.5 174.5,106.5 174.5,105.5 Z"/></g>
<g><path style="opacity:1" fill="#005aff" d="M 174.5,115.5 C 174.5,116.833 174.5,118.167 174.5,119.5C 167.747,124.107 161.081,128.941 154.5,134C 146.949,141.719 139.282,149.219 131.5,156.5C 130.971,152.808 131.971,149.642 134.5,147C 139.415,144.425 144.081,141.425 148.5,138C 156.718,129.946 165.385,122.446 174.5,115.5 Z"/></g>
<g><path style="opacity:1" fill="#026dfd" d="M 174.5,110.5 C 174.5,112.167 174.5,113.833 174.5,115.5C 165.385,122.446 156.718,129.946 148.5,138C 144.081,141.425 139.415,144.425 134.5,147C 131.971,149.642 130.971,152.808 131.5,156.5C 131.167,156.5 130.833,156.5 130.5,156.5C 130.5,153.5 130.5,150.5 130.5,147.5C 131.508,144.972 133.174,142.805 135.5,141C 142.629,136.261 149.629,131.261 156.5,126C 161.752,119.911 167.752,114.745 174.5,110.5 Z"/></g>
<g><path style="opacity:1" fill="#013efe" d="M 174.5,119.5 C 174.5,121.5 174.5,123.5 174.5,125.5C 170.033,127.82 166.033,130.653 162.5,134C 161.149,137.195 158.815,139.028 155.5,139.5C 155.719,140.675 155.386,141.675 154.5,142.5C 150.037,144.815 146.037,147.649 142.5,151C 139.43,154.814 135.93,158.314 132,161.5C 131.802,163.382 131.302,165.048 130.5,166.5C 130.5,163.167 130.5,159.833 130.5,156.5C 130.833,156.5 131.167,156.5 131.5,156.5C 139.282,149.219 146.949,141.719 154.5,134C 161.081,128.941 167.747,124.107 174.5,119.5 Z"/></g>
<g><path style="opacity:1" fill="#1f09fe" d="M 174.5,125.5 C 174.5,136.167 174.5,146.833 174.5,157.5C 170.298,157.183 166.298,157.517 162.5,158.5C 159.375,160.225 156.042,161.725 152.5,163C 150.959,164.371 149.625,165.871 148.5,167.5C 146.413,168.585 145.08,170.251 144.5,172.5C 143.232,174.905 142.565,177.572 142.5,180.5C 138.268,182.4 134.601,185.067 131.5,188.5C 129.787,188.121 128.787,187.121 128.5,185.5C 129.451,184.081 129.784,182.415 129.5,180.5C 130.486,176.03 130.819,171.363 130.5,166.5C 131.302,165.048 131.802,163.382 132,161.5C 135.93,158.314 139.43,154.814 142.5,151C 146.037,147.649 150.037,144.815 154.5,142.5C 155.386,141.675 155.719,140.675 155.5,139.5C 158.815,139.028 161.149,137.195 162.5,134C 166.033,130.653 170.033,127.82 174.5,125.5 Z"/></g>
<g><path style="opacity:1" fill="#07fe93" d="M 80.5,131.5 C 81.8734,131.343 83.2068,131.51 84.5,132C 86.2871,133.582 88.2871,134.749 90.5,135.5C 82.6011,143.883 73.6011,151.049 63.5,157C 56.5308,162.968 49.8641,169.301 43.5,176C 42.1667,176.667 40.8333,177.333 39.5,178C 36.527,180.973 33.527,183.973 30.5,187C 28.9221,188.094 27.2554,188.928 25.5,189.5C 23.9977,186.746 22.3311,184.079 20.5,181.5C 21.4916,181.328 22.1583,181.662 22.5,182.5C 23.2506,183.573 24.2506,183.74 25.5,183C 27.4828,181.111 29.8162,179.778 32.5,179C 36.5,173.667 41.1667,169 46.5,165C 48.1667,164.667 49.8333,164.333 51.5,164C 56.1394,160.694 60.1394,156.694 63.5,152C 70.5239,146.636 77.5239,141.302 84.5,136C 84.9574,135.586 85.2907,135.086 85.5,134.5C 83.8554,133.304 82.1887,132.304 80.5,131.5 Z"/></g>
<g><path style="opacity:1" fill="#02fed8" d="M 107.5,135.5 C 105.507,139.819 102.173,142.819 97.5,144.5C 95.1227,147.008 92.7894,149.508 90.5,152C 86.8351,153.497 83.5017,155.497 80.5,158C 74.7626,164.036 68.4292,169.37 61.5,174C 58.0638,179.436 53.3971,183.436 47.5,186C 44.6865,189.981 41.3532,193.481 37.5,196.5C 36.1502,197.95 34.4835,198.617 32.5,198.5C 31.0937,198.027 30.427,197.027 30.5,195.5C 36.414,190.928 42.0806,185.928 47.5,180.5C 50.0048,178.747 52.6714,177.247 55.5,176C 58.306,171.861 61.806,168.361 66,165.5C 67.263,161.781 69.763,159.281 73.5,158C 78.9295,151.569 85.2628,146.235 92.5,142C 94.16,140.512 95.16,138.679 95.5,136.5C 99.6002,136.763 103.6,136.43 107.5,135.5 Z"/></g>
<g><path style="opacity:1" fill="#08ecfe" d="M 117.5,132.5 C 118.451,133.919 118.784,135.585 118.5,137.5C 112.669,141.616 107.336,146.449 102.5,152C 97.2362,154.599 92.9029,158.266 89.5,163C 87.5,164 85.5,165 83.5,166C 76.1425,173.851 67.8092,180.517 58.5,186C 55.668,188.852 53.168,192.019 51,195.5C 47.0181,198.152 43.3514,201.152 40,204.5C 39.5172,205.448 39.3505,206.448 39.5,207.5C 37.5,206.167 35.8333,204.5 34.5,202.5C 61.3347,179.835 88.3347,157.335 115.5,135C 114.552,134.517 113.552,134.351 112.5,134.5C 113.93,133.463 115.597,132.796 117.5,132.5 Z"/></g>
<g><path style="opacity:1" fill="#05fef5" d="M 112.5,134.5 C 113.552,134.351 114.552,134.517 115.5,135C 88.3347,157.335 61.3347,179.835 34.5,202.5C 33.3263,201.486 32.6596,200.153 32.5,198.5C 34.4835,198.617 36.1502,197.95 37.5,196.5C 41.3532,193.481 44.6865,189.981 47.5,186C 53.3971,183.436 58.0638,179.436 61.5,174C 68.4292,169.37 74.7626,164.036 80.5,158C 83.5017,155.497 86.8351,153.497 90.5,152C 92.7894,149.508 95.1227,147.008 97.5,144.5C 102.173,142.819 105.507,139.819 107.5,135.5C 109.415,135.784 111.081,135.451 112.5,134.5 Z"/></g>
<g><path style="opacity:1" fill="#617081" d="M 117.5,132.5 C 117.842,131.662 118.508,131.328 119.5,131.5C 119.5,143.833 119.5,156.167 119.5,168.5C 116.167,168.5 112.833,168.5 109.5,168.5C 112.287,167.523 115.287,167.19 118.5,167.5C 118.5,162.833 118.5,158.167 118.5,153.5C 118.5,151.5 118.5,149.5 118.5,147.5C 118.5,147.167 118.5,146.833 118.5,146.5C 118.5,145.167 118.5,143.833 118.5,142.5C 118.5,140.833 118.5,139.167 118.5,137.5C 118.784,135.585 118.451,133.919 117.5,132.5 Z"/></g>
<g><path style="opacity:1" fill="#e300fe" d="M 233.5,129.5 C 233.586,130.496 233.252,131.329 232.5,132C 234.044,132.29 235.377,132.956 236.5,134C 220.025,147.804 203.525,161.637 187,175.5C 186.517,174.552 186.351,173.552 186.5,172.5C 187.461,170.735 187.795,168.735 187.5,166.5C 193.942,162.878 199.942,158.711 205.5,154C 207.062,150.193 209.729,147.526 213.5,146C 218.833,140.333 224.167,134.667 229.5,129C 230.819,128.805 232.153,128.972 233.5,129.5 Z"/></g>
<g><path style="opacity:1" fill="#02fe54" d="M 71.5,123.5 C 73.5441,125.219 75.5441,126.886 77.5,128.5C 78.2178,130.137 78.3845,131.803 78,133.5C 70.3926,143.392 61.226,151.558 50.5,158C 45.649,164.964 39.3157,170.297 31.5,174C 28.6306,177.038 25.6306,179.871 22.5,182.5C 22.1583,181.662 21.4916,181.328 20.5,181.5C 19.8333,179.5 19.1667,177.5 18.5,175.5C 19.9217,175.291 21.255,174.791 22.5,174C 28.4572,168.009 34.4572,162.009 40.5,156C 46.0827,153.746 50.4161,150.079 53.5,145C 56.1193,144.849 58.4527,144.015 60.5,142.5C 64.99,137.841 69.3233,133.008 73.5,128C 72.4178,126.67 71.7512,125.17 71.5,123.5 Z"/></g>
<g><path style="opacity:1" fill="#077dfe" d="M 118.5,153.5 C 118.5,158.167 118.5,162.833 118.5,167.5C 115.287,167.19 112.287,167.523 109.5,168.5C 107.585,168.216 105.919,168.549 104.5,169.5C 100.805,170.126 99.9712,169.126 102,166.5C 107.474,161.989 112.974,157.655 118.5,153.5 Z"/></g>
<g><path style="opacity:1" fill="#01fe79" d="M 77.5,128.5 C 78.8333,129.167 79.8333,130.167 80.5,131.5C 82.1887,132.304 83.8554,133.304 85.5,134.5C 85.2907,135.086 84.9574,135.586 84.5,136C 77.5239,141.302 70.5239,146.636 63.5,152C 60.1394,156.694 56.1394,160.694 51.5,164C 49.8333,164.333 48.1667,164.667 46.5,165C 41.1667,169 36.5,173.667 32.5,179C 29.8162,179.778 27.4828,181.111 25.5,183C 24.2506,183.74 23.2506,183.573 22.5,182.5C 25.6306,179.871 28.6306,177.038 31.5,174C 39.3157,170.297 45.649,164.964 50.5,158C 61.226,151.558 70.3926,143.392 78,133.5C 78.3845,131.803 78.2178,130.137 77.5,128.5 Z"/></g>
<g><path style="opacity:1" fill="#a5405b" d="M 148.5,167.5 C 147.92,169.749 146.587,171.415 144.5,172.5C 145.08,170.251 146.413,168.585 148.5,167.5 Z"/></g>
<g><path style="opacity:1" fill="#01feaf" d="M 90.5,135.5 C 91.1667,135.5 91.8333,135.5 92.5,135.5C 89.4951,138.318 86.8284,141.484 84.5,145C 81.1927,146.874 78.5261,149.541 76.5,153C 74.0038,154.08 71.6705,155.414 69.5,157C 59.9892,165.678 50.6559,174.512 41.5,183.5C 37.0952,185.408 33.4285,188.241 30.5,192C 29.4232,192.47 28.4232,192.303 27.5,191.5C 26.5,191.167 25.8333,190.5 25.5,189.5C 27.2554,188.928 28.9221,188.094 30.5,187C 33.527,183.973 36.527,180.973 39.5,178C 40.8333,177.333 42.1667,176.667 43.5,176C 49.8641,169.301 56.5308,162.968 63.5,157C 73.6011,151.049 82.6011,143.883 90.5,135.5 Z"/></g>
<g><path style="opacity:1" fill="#05d8ff" d="M 118.5,137.5 C 118.5,139.167 118.5,140.833 118.5,142.5C 104.351,152.818 90.3511,163.318 76.5,174C 71.2094,179.325 65.8761,184.658 60.5,190C 54.3554,194.644 48.3554,199.477 42.5,204.5C 41.5481,206.045 41.2148,207.712 41.5,209.5C 40.5,209.167 39.8333,208.5 39.5,207.5C 39.3505,206.448 39.5172,205.448 40,204.5C 43.3514,201.152 47.0181,198.152 51,195.5C 53.168,192.019 55.668,188.852 58.5,186C 67.8092,180.517 76.1425,173.851 83.5,166C 85.5,165 87.5,164 89.5,163C 92.9029,158.266 97.2362,154.599 102.5,152C 107.336,146.449 112.669,141.616 118.5,137.5 Z"/></g>
<g><path style="opacity:1" fill="#0aa0fd" d="M 118.5,147.5 C 118.5,149.5 118.5,151.5 118.5,153.5C 112.974,157.655 107.474,161.989 102,166.5C 99.9712,169.126 100.805,170.126 104.5,169.5C 101.648,171.076 98.6478,172.576 95.5,174C 92.9334,176.396 90.6,178.896 88.5,181.5C 87.7494,180.427 86.7494,180.26 85.5,181C 83.1667,182 81.5,183.667 80.5,186C 71.2543,191.616 63.2543,198.616 56.5,207C 52.5815,208.682 49.9148,211.515 48.5,215.5C 45.8333,214.833 44.1667,213.167 43.5,210.5C 55.6427,199.606 68.3093,189.44 81.5,180C 89.53,171.636 97.8633,163.636 106.5,156C 110.335,153.009 114.335,150.176 118.5,147.5 Z"/></g>
<g><path style="opacity:1" fill="#b4474b" d="M 144.5,172.5 C 144.5,175.833 144.5,179.167 144.5,182.5C 143.5,182.167 142.833,181.5 142.5,180.5C 142.565,177.572 143.232,174.905 144.5,172.5 Z"/></g>
<g><path style="opacity:1" fill="#04ffc4" d="M 92.5,135.5 C 93.791,135.263 94.791,135.596 95.5,136.5C 95.16,138.679 94.16,140.512 92.5,142C 85.2628,146.235 78.9295,151.569 73.5,158C 69.763,159.281 67.263,161.781 66,165.5C 61.806,168.361 58.306,171.861 55.5,176C 52.6714,177.247 50.0048,178.747 47.5,180.5C 42.0806,185.928 36.414,190.928 30.5,195.5C 28.7376,194.738 27.7376,193.404 27.5,191.5C 28.4232,192.303 29.4232,192.47 30.5,192C 33.4285,188.241 37.0952,185.408 41.5,183.5C 50.6559,174.512 59.9892,165.678 69.5,157C 71.6705,155.414 74.0038,154.08 76.5,153C 78.5261,149.541 81.1927,146.874 84.5,145C 86.8284,141.484 89.4951,138.318 92.5,135.5 Z"/></g>
<g><path style="opacity:1" fill="#c9464e" d="M 171.5,187.5 C 171.5,187.833 171.5,188.167 171.5,188.5C 168.692,189.929 165.692,190.595 162.5,190.5C 162.167,190.5 161.833,190.5 161.5,190.5C 164.495,188.757 167.829,187.757 171.5,187.5 Z"/></g>
<g><path style="opacity:1" fill="#fd06ea" d="M 244.5,109.5 C 245.491,115.979 245.824,122.646 245.5,129.5C 244.698,130.952 244.198,132.618 244,134.5C 242.921,136.394 241.587,136.727 240,135.5C 239.556,139.517 237.389,142.017 233.5,143C 226.833,149.333 220.167,155.667 213.5,162C 201.097,170.827 189.764,180.827 179.5,192C 169.939,196.583 161.939,202.917 155.5,211C 149.635,213.599 144.969,217.599 141.5,223C 138.04,225.871 134.374,228.538 130.5,231C 126.5,235.667 122.167,240 117.5,244C 118.056,244.383 118.389,244.883 118.5,245.5C 111.213,245.55 104.213,244.55 97.5,242.5C 101.878,242.311 105.878,240.978 109.5,238.5C 108.826,240.024 107.826,241.358 106.5,242.5C 107.167,242.833 107.833,243.167 108.5,243.5C 112.005,240.839 115.672,238.339 119.5,236C 130.205,225.151 141.871,215.484 154.5,207C 160.176,200.325 166.509,194.325 173.5,189C 172.906,188.536 172.239,188.369 171.5,188.5C 171.5,188.167 171.5,187.833 171.5,187.5C 178.228,184.439 182.894,179.439 185.5,172.5C 185.833,172.5 186.167,172.5 186.5,172.5C 186.351,173.552 186.517,174.552 187,175.5C 203.525,161.637 220.025,147.804 236.5,134C 235.377,132.956 234.044,132.29 232.5,132C 233.252,131.329 233.586,130.496 233.5,129.5C 234.885,130.614 236.385,131.614 238,132.5C 239.815,130.595 241.815,128.928 244,127.5C 244.499,121.509 244.666,115.509 244.5,109.5 Z"/></g>
<g><path style="opacity:1" fill="#00c8ff" d="M 118.5,142.5 C 118.5,143.833 118.5,145.167 118.5,146.5C 113.112,149.055 108.112,152.222 103.5,156C 101.51,158.988 99.1769,161.655 96.5,164C 89.5505,169.482 82.2172,174.482 74.5,179C 67.7964,186.699 60.1297,193.365 51.5,199C 50.5399,200.419 49.7065,201.919 49,203.5C 46.3363,204.998 44.1696,206.998 42.5,209.5C 42.1667,209.5 41.8333,209.5 41.5,209.5C 41.2148,207.712 41.5481,206.045 42.5,204.5C 48.3554,199.477 54.3554,194.644 60.5,190C 65.8761,184.658 71.2094,179.325 76.5,174C 90.3511,163.318 104.351,152.818 118.5,142.5 Z"/></g>
<g><path style="opacity:1" fill="#fe02cb" d="M 245.5,129.5 C 245.819,134.363 245.486,139.03 244.5,143.5C 244.167,143.5 243.833,143.5 243.5,143.5C 243.565,143.062 243.399,142.728 243,142.5C 238.976,147.104 234.809,151.604 230.5,156C 225.608,159.793 220.275,163.126 214.5,166C 209.494,171.339 204.161,176.339 198.5,181C 195.04,183.871 191.374,186.538 187.5,189C 186.663,190.011 186.33,191.178 186.5,192.5C 184.692,192.491 183.025,192.991 181.5,194C 177.89,197.283 174.557,200.95 171.5,205C 157.206,215.302 143.539,226.302 130.5,238C 129.21,240.292 127.543,242.292 125.5,244C 126.056,244.383 126.389,244.883 126.5,245.5C 123.833,245.5 121.167,245.5 118.5,245.5C 118.389,244.883 118.056,244.383 117.5,244C 122.167,240 126.5,235.667 130.5,231C 134.374,228.538 138.04,225.871 141.5,223C 144.969,217.599 149.635,213.599 155.5,211C 161.939,202.917 169.939,196.583 179.5,192C 189.764,180.827 201.097,170.827 213.5,162C 220.167,155.667 226.833,149.333 233.5,143C 237.389,142.017 239.556,139.517 240,135.5C 241.587,136.727 242.921,136.394 244,134.5C 244.198,132.618 244.698,130.952 245.5,129.5 Z"/></g>
<g><path style="opacity:1" fill="#025bfe" d="M 85.5,189.5 C 85.5,190.167 85.8333,190.5 86.5,190.5C 86.5569,191.609 86.8902,192.609 87.5,193.5C 86.448,193.351 85.448,193.517 84.5,194C 79.147,197.833 74.4803,202.333 70.5,207.5C 63.7519,210.365 58.7519,215.032 55.5,221.5C 54.8333,221.167 54.1667,220.833 53.5,220.5C 53.3893,219.883 53.056,219.383 52.5,219C 54.5435,217.292 56.2101,215.292 57.5,213C 61.9131,208.948 66.9131,205.614 72.5,203C 75.2693,200.679 77.436,197.846 79,194.5C 80.7581,192.235 82.9248,190.568 85.5,189.5 Z"/></g>
<g><path style="opacity:1" fill="#ff0e15" d="M 223.5,195.5 C 212.549,211.277 198.549,223.777 181.5,233C 179.091,234.707 176.425,235.54 173.5,235.5C 172.224,234.614 172.224,233.614 173.5,232.5C 177.084,228.431 181.418,225.264 186.5,223C 196.85,211.15 208.85,201.317 222.5,193.5C 223.298,193.957 223.631,194.624 223.5,195.5 Z"/></g>
<g><path style="opacity:1" fill="#00b7ff" d="M 118.5,146.5 C 118.5,146.833 118.5,147.167 118.5,147.5C 114.335,150.176 110.335,153.009 106.5,156C 97.8633,163.636 89.53,171.636 81.5,180C 68.3093,189.44 55.6427,199.606 43.5,210.5C 42.8333,210.5 42.5,210.167 42.5,209.5C 44.1696,206.998 46.3363,204.998 49,203.5C 49.7065,201.919 50.5399,200.419 51.5,199C 60.1297,193.365 67.7964,186.699 74.5,179C 82.2172,174.482 89.5505,169.482 96.5,164C 99.1769,161.655 101.51,158.988 103.5,156C 108.112,152.222 113.112,149.055 118.5,146.5 Z"/></g>
<g><path style="opacity:1" fill="#0186fe" d="M 88.5,181.5 C 87.0721,184.303 86.4054,187.303 86.5,190.5C 85.8333,190.5 85.5,190.167 85.5,189.5C 85.8747,186.093 84.8747,185.593 82.5,188C 79.9759,191.606 76.6426,194.272 72.5,196C 70.155,198.014 68.155,200.347 66.5,203C 64.1825,204.993 61.5158,206.159 58.5,206.5C 58.6495,207.552 58.4828,208.552 58,209.5C 55.5846,212.317 52.7513,214.651 49.5,216.5C 48.8333,216.5 48.5,216.167 48.5,215.5C 49.9148,211.515 52.5815,208.682 56.5,207C 63.2543,198.616 71.2543,191.616 80.5,186C 81.5,183.667 83.1667,182 85.5,181C 86.7494,180.26 87.7494,180.427 88.5,181.5 Z"/></g>
<g><path style="opacity:1" fill="#0543fd" d="M 87.5,193.5 C 89.5984,196.606 92.2651,198.939 95.5,200.5C 92.3956,201.841 89.5623,201.507 87,199.5C 85.5806,200.46 84.0806,201.293 82.5,202C 77.8677,207.799 72.2011,212.299 65.5,215.5C 63.2314,218.385 61.2314,221.385 59.5,224.5C 57.7697,223.974 56.4363,222.974 55.5,221.5C 58.7519,215.032 63.7519,210.365 70.5,207.5C 74.4803,202.333 79.147,197.833 84.5,194C 85.448,193.517 86.448,193.351 87.5,193.5 Z"/></g>
<g><path style="opacity:1" fill="#ff02af" d="M 243.5,143.5 C 243.693,146.475 242.693,148.975 240.5,151C 233.761,157.217 226.094,162.217 217.5,166C 214.833,169 212.167,172 209.5,175C 195.873,184.631 183.54,195.631 172.5,208C 169.032,209.97 165.699,212.136 162.5,214.5C 156.269,220.642 150.269,226.975 144.5,233.5C 138.785,236.059 133.785,239.559 129.5,244C 131.382,244.198 133.048,244.698 134.5,245.5C 131.833,245.5 129.167,245.5 126.5,245.5C 126.389,244.883 126.056,244.383 125.5,244C 127.543,242.292 129.21,240.292 130.5,238C 143.539,226.302 157.206,215.302 171.5,205C 174.557,200.95 177.89,197.283 181.5,194C 183.025,192.991 184.692,192.491 186.5,192.5C 186.33,191.178 186.663,190.011 187.5,189C 191.374,186.538 195.04,183.871 198.5,181C 204.161,176.339 209.494,171.339 214.5,166C 220.275,163.126 225.608,159.793 230.5,156C 234.809,151.604 238.976,147.104 243,142.5C 243.399,142.728 243.565,143.062 243.5,143.5 Z"/></g>
<g><path style="opacity:1" fill="#ff042f" d="M 232.5,182.5 C 230.035,187.295 227.035,191.628 223.5,195.5C 223.631,194.624 223.298,193.957 222.5,193.5C 208.85,201.317 196.85,211.15 186.5,223C 181.418,225.264 177.084,228.431 173.5,232.5C 172.224,233.614 172.224,234.614 173.5,235.5C 171.78,236.308 170.113,237.308 168.5,238.5C 167.127,238.657 165.793,238.49 164.5,238C 166.046,235.743 167.712,233.576 169.5,231.5C 176.154,225.842 183.154,220.676 190.5,216C 196.186,209.489 202.352,203.656 209,198.5C 210.039,196.254 211.206,194.087 212.5,192C 218.876,187.389 225.376,182.889 232,178.5C 232.49,179.793 232.657,181.127 232.5,182.5 Z"/></g>
<g><path style="opacity:1" fill="#a502fe" d="M 144.5,184.5 C 146.571,187.231 149.238,189.231 152.5,190.5C 137.722,203.44 123.055,216.606 108.5,230C 103.494,232.501 98.8269,235.501 94.5,239C 92.8659,239.494 91.1992,239.66 89.5,239.5C 86.0836,239.472 83.0836,238.472 80.5,236.5C 82.861,236.674 85.1944,237.007 87.5,237.5C 87.281,236.325 87.6143,235.325 88.5,234.5C 96.0506,229.232 103.384,223.732 110.5,218C 117.066,212.222 123.4,206.222 129.5,200C 134.771,197.378 139.437,194.045 143.5,190C 144.406,188.301 144.739,186.467 144.5,184.5 Z"/></g>
<g><path style="opacity:1" fill="#ff0571" d="M 241.5,155.5 C 241.281,159.8 240.281,163.8 238.5,167.5C 238.875,164.093 237.875,163.593 235.5,166C 233.147,169.349 230.48,172.349 227.5,175C 215.745,183.255 204.745,192.421 194.5,202.5C 184.456,211.213 174.123,219.546 163.5,227.5C 158.606,231.755 154.273,236.588 150.5,242C 152.134,242.494 153.801,242.66 155.5,242.5C 151.455,244.177 147.122,244.844 142.5,244.5C 140.143,244.663 137.81,244.497 135.5,244C 145.032,238.233 153.366,231.066 160.5,222.5C 162.336,221.081 164.336,219.914 166.5,219C 173.857,212.308 181.19,205.641 188.5,199C 195.83,193.668 203.163,188.334 210.5,183C 212.167,180.667 213.833,178.333 215.5,176C 217.996,174.92 220.33,173.586 222.5,172C 228.45,166.03 234.784,160.53 241.5,155.5 Z"/></g>
<g><path style="opacity:1" fill="#0d6fff" d="M 85.5,189.5 C 82.9248,190.568 80.7581,192.235 79,194.5C 77.436,197.846 75.2693,200.679 72.5,203C 66.9131,205.614 61.9131,208.948 57.5,213C 56.2101,215.292 54.5435,217.292 52.5,219C 53.056,219.383 53.3893,219.883 53.5,220.5C 51.7356,219.674 50.4023,218.341 49.5,216.5C 52.7513,214.651 55.5846,212.317 58,209.5C 58.4828,208.552 58.6495,207.552 58.5,206.5C 61.5158,206.159 64.1825,204.993 66.5,203C 68.155,200.347 70.155,198.014 72.5,196C 76.6426,194.272 79.9759,191.606 82.5,188C 84.8747,185.593 85.8747,186.093 85.5,189.5 Z"/></g>
<g><path style="opacity:1" fill="#ff0257" d="M 238.5,167.5 C 238.741,169.898 238.074,171.898 236.5,173.5C 236.585,172.005 235.919,171.005 234.5,170.5C 231.615,173.546 228.282,176.046 224.5,178C 220.646,183.355 215.979,187.855 210.5,191.5C 202.343,201.157 193.677,210.323 184.5,219C 177.224,222.124 170.89,226.457 165.5,232C 161.996,233.918 158.663,236.084 155.5,238.5C 154.347,239.687 154.347,240.687 155.5,241.5C 155.5,241.833 155.5,242.167 155.5,242.5C 153.801,242.66 152.134,242.494 150.5,242C 154.273,236.588 158.606,231.755 163.5,227.5C 174.123,219.546 184.456,211.213 194.5,202.5C 204.745,192.421 215.745,183.255 227.5,175C 230.48,172.349 233.147,169.349 235.5,166C 237.875,163.593 238.875,164.093 238.5,167.5 Z"/></g>
<g><path style="opacity:1" fill="#200dfd" d="M 95.5,200.5 C 99.5,200.5 103.5,200.5 107.5,200.5C 109.199,200.34 110.866,200.506 112.5,201C 111.406,202.78 110.406,204.614 109.5,206.5C 106.41,207.589 104.41,209.589 103.5,212.5C 99.7263,213.306 97.2263,215.639 96,219.5C 89.6711,226.554 81.8378,230.887 72.5,232.5C 67.9167,230.199 63.5833,227.533 59.5,224.5C 61.2314,221.385 63.2314,218.385 65.5,215.5C 72.2011,212.299 77.8677,207.799 82.5,202C 84.0806,201.293 85.5806,200.46 87,199.5C 89.5623,201.507 92.3956,201.841 95.5,200.5 Z"/></g>
<g><path style="opacity:1" fill="#ff0498" d="M 243.5,143.5 C 243.833,143.5 244.167,143.5 244.5,143.5C 244.665,146.518 244.498,149.518 244,152.5C 243.764,154.119 242.931,155.119 241.5,155.5C 234.784,160.53 228.45,166.03 222.5,172C 220.33,173.586 217.996,174.92 215.5,176C 213.833,178.333 212.167,180.667 210.5,183C 203.163,188.334 195.83,193.668 188.5,199C 181.19,205.641 173.857,212.308 166.5,219C 164.336,219.914 162.336,221.081 160.5,222.5C 153.366,231.066 145.032,238.233 135.5,244C 137.81,244.497 140.143,244.663 142.5,244.5C 140.052,245.473 137.385,245.806 134.5,245.5C 133.048,244.698 131.382,244.198 129.5,244C 133.785,239.559 138.785,236.059 144.5,233.5C 150.269,226.975 156.269,220.642 162.5,214.5C 165.699,212.136 169.032,209.97 172.5,208C 183.54,195.631 195.873,184.631 209.5,175C 212.167,172 214.833,169 217.5,166C 226.094,162.217 233.761,157.217 240.5,151C 242.693,148.975 243.693,146.475 243.5,143.5 Z"/></g>
<g><path style="opacity:1" fill="#d104fd" d="M 152.5,190.5 C 155.5,190.5 158.5,190.5 161.5,190.5C 161.833,190.5 162.167,190.5 162.5,190.5C 158.606,197.527 152.939,202.86 145.5,206.5C 143.815,208.669 142.148,210.836 140.5,213C 136.437,217.045 131.771,220.378 126.5,223C 121.288,228.714 115.622,233.881 109.5,238.5C 105.878,240.978 101.878,242.311 97.5,242.5C 94.6458,241.795 91.9791,240.795 89.5,239.5C 91.1992,239.66 92.8659,239.494 94.5,239C 98.8269,235.501 103.494,232.501 108.5,230C 123.055,216.606 137.722,203.44 152.5,190.5 Z"/></g>
<g><path style="opacity:1" fill="#6502fd" d="M 142.5,180.5 C 142.833,181.5 143.5,182.167 144.5,182.5C 144.5,183.167 144.5,183.833 144.5,184.5C 144.739,186.467 144.406,188.301 143.5,190C 139.437,194.045 134.771,197.378 129.5,200C 123.4,206.222 117.066,212.222 110.5,218C 103.384,223.732 96.0506,229.232 88.5,234.5C 87.6143,235.325 87.281,236.325 87.5,237.5C 85.1944,237.007 82.861,236.674 80.5,236.5C 77.5962,235.715 74.9296,234.381 72.5,232.5C 81.8378,230.887 89.6711,226.554 96,219.5C 97.2263,215.639 99.7263,213.306 103.5,212.5C 104.41,209.589 106.41,207.589 109.5,206.5C 110.406,204.614 111.406,202.78 112.5,201C 110.866,200.506 109.199,200.34 107.5,200.5C 116.409,198.209 123.409,193.209 128.5,185.5C 128.787,187.121 129.787,188.121 131.5,188.5C 134.601,185.067 138.268,182.4 142.5,180.5 Z"/></g>
<g><path style="opacity:1" fill="#f500fe" d="M 171.5,188.5 C 172.239,188.369 172.906,188.536 173.5,189C 166.509,194.325 160.176,200.325 154.5,207C 141.871,215.484 130.205,225.151 119.5,236C 115.672,238.339 112.005,240.839 108.5,243.5C 107.833,243.167 107.167,242.833 106.5,242.5C 107.826,241.358 108.826,240.024 109.5,238.5C 115.622,233.881 121.288,228.714 126.5,223C 131.771,220.378 136.437,217.045 140.5,213C 142.148,210.836 143.815,208.669 145.5,206.5C 152.939,202.86 158.606,197.527 162.5,190.5C 165.692,190.595 168.692,189.929 171.5,188.5 Z"/></g>
<g><path style="opacity:1" fill="#ff0643" d="M 236.5,173.5 C 235.167,176.5 233.833,179.5 232.5,182.5C 232.657,181.127 232.49,179.793 232,178.5C 225.376,182.889 218.876,187.389 212.5,192C 211.206,194.087 210.039,196.254 209,198.5C 202.352,203.656 196.186,209.489 190.5,216C 183.154,220.676 176.154,225.842 169.5,231.5C 167.712,233.576 166.046,235.743 164.5,238C 165.793,238.49 167.127,238.657 168.5,238.5C 164.467,240.322 160.133,241.322 155.5,241.5C 154.347,240.687 154.347,239.687 155.5,238.5C 158.663,236.084 161.996,233.918 165.5,232C 170.89,226.457 177.224,222.124 184.5,219C 193.677,210.323 202.343,201.157 210.5,191.5C 215.979,187.855 220.646,183.355 224.5,178C 228.282,176.046 231.615,173.546 234.5,170.5C 235.919,171.005 236.585,172.005 236.5,173.5 Z"/></g>
</svg>
