<?xml version="1.0" encoding="UTF-8"?>
<!DOCTYPE svg PUBLIC "-//W3C//DTD SVG 1.1//EN" "http://www.w3.org/Graphics/SVG/1.1/DTD/svg11.dtd">
<svg xmlns="http://www.w3.org/2000/svg" version="1.1" width="256px" height="256px" style="shape-rendering:geometricPrecision; text-rendering:geometricPrecision; image-rendering:optimizeQuality; fill-rule:evenodd; clip-rule:evenodd" xmlns:xlink="http://www.w3.org/1999/xlink">
<g><path style="opacity:0.008" fill="#54ccba" d="M 61.5,16.5 C 62.8333,17.1667 62.8333,17.1667 61.5,16.5 Z"/></g>
<g><path style="opacity:0.008" fill="#54ccba" d="M 193.5,16.5 C 194.833,17.1667 194.833,17.1667 193.5,16.5 Z"/></g>
<g><path style="opacity:0.035" fill="#6fecc0" d="M 31.5,31.5 C 34.7865,32.2729 36.2865,34.2729 36,37.5C 33.8733,35.8863 32.3733,33.8863 31.5,31.5 Z"/></g>
<g><path style="opacity:0.035" fill="#8eedc4" d="M 222.5,31.5 C 223.376,31.3691 224.043,31.7025 224.5,32.5C 223.185,34.3159 221.685,35.9825 220,37.5C 219.5,37 219,36.5 218.5,36C 220.041,34.6288 221.375,33.1288 222.5,31.5 Z"/></g>
<g><path style="opacity:1" fill="#f3fbf9" d="M 193.5,74.5 C 190.833,74.5 188.167,74.5 185.5,74.5C 178.492,74.6663 171.492,74.4996 164.5,74C 162.423,72.295 160.09,71.1283 157.5,70.5C 154.506,68.0002 151.173,66.0002 147.5,64.5C 146.101,63.1103 144.434,62.1103 142.5,61.5C 141.035,60.2632 139.368,59.2632 137.5,58.5C 136.486,57.3263 135.153,56.6596 133.5,56.5C 131.672,54.3898 129.339,53.5565 126.5,54C 111.925,61.535 97.7583,69.7016 84,78.5C 82.7308,77.0953 82.2308,75.4286 82.5,73.5C 82.5,69.8333 82.5,66.1667 82.5,62.5C 82.4142,61.5041 82.7476,60.6708 83.5,60C 95.3295,53.5862 106.996,46.9196 118.5,40C 123.746,38.4941 129.079,38.1608 134.5,39C 154.957,49.728 174.957,61.228 194.5,73.5C 194.376,74.1067 194.043,74.44 193.5,74.5 Z"/></g>
<g><path style="opacity:1" fill="#ff8a00" d="M 133.5,56.5 C 126.568,61.2411 119.235,65.4078 111.5,69C 106.833,70.3333 102.167,71.6667 97.5,73C 87.8673,78.3164 77.8673,82.8164 67.5,86.5C 67.5,84.8333 67.5,83.1667 67.5,81.5C 71.9927,78.0368 76.9927,75.3701 82.5,73.5C 82.2308,75.4286 82.7308,77.0953 84,78.5C 97.7583,69.7016 111.925,61.535 126.5,54C 129.339,53.5565 131.672,54.3898 133.5,56.5 Z"/></g>
<g><path style="opacity:1" fill="#fe3600" d="M 82.5,62.5 C 82.5,66.1667 82.5,69.8333 82.5,73.5C 76.9927,75.3701 71.9927,78.0368 67.5,81.5C 67.5,78.1667 67.5,74.8333 67.5,71.5C 72.3343,68.2484 77.3343,65.2484 82.5,62.5 Z"/></g>
<g><path style="opacity:1" fill="#f7fcfb" d="M 67.5,71.5 C 67.5,74.8333 67.5,78.1667 67.5,81.5C 67.5,83.1667 67.5,84.8333 67.5,86.5C 67.5,87.5 67.5,88.5 67.5,89.5C 67.5,91.1667 67.5,92.8333 67.5,94.5C 67.5,96.5 67.5,98.5 67.5,100.5C 67.5,103.5 67.5,106.5 67.5,109.5C 67.5,117.5 67.5,125.5 67.5,133.5C 67.5,135.833 67.5,138.167 67.5,140.5C 67.5,141.833 67.5,143.167 67.5,144.5C 67.5,146.167 67.5,147.833 67.5,149.5C 67.1984,152.059 67.5318,154.393 68.5,156.5C 69.1667,156.5 69.5,156.833 69.5,157.5C 70.8993,158.89 72.5659,159.89 74.5,160.5C 75.8993,161.89 77.5659,162.89 79.5,163.5C 80.5137,164.674 81.847,165.34 83.5,165.5C 88.2156,168.863 93.2156,171.863 98.5,174.5C 101.131,176.153 103.797,177.819 106.5,179.5C 109.55,181.692 112.883,183.358 116.5,184.5C 116.973,185.906 117.973,186.573 119.5,186.5C 120.301,188.042 120.634,189.708 120.5,191.5C 120.5,192.167 120.5,192.833 120.5,193.5C 120.5,195.5 120.5,197.5 120.5,199.5C 120.5,201.833 120.5,204.167 120.5,206.5C 119.77,208.045 118.437,208.878 116.5,209C 99.8333,211.667 83.1667,214.333 66.5,217C 62.8333,217.667 59.1667,217.667 55.5,217C 54.6667,216.167 53.8333,215.333 53,214.5C 52.3333,171.5 52.3333,128.5 53,85.5C 55.52,78.3118 60.1867,72.9784 67,69.5C 67.4643,70.0944 67.631,70.7611 67.5,71.5 Z"/></g>
<g><path style="opacity:1" fill="#fcfefd" d="M 129.5,73.5 C 133.749,74.6261 137.749,76.2928 141.5,78.5C 147.57,82.558 153.903,86.2247 160.5,89.5C 162.336,91.588 164.669,92.9213 167.5,93.5C 168.167,94.5 168.833,95.5 169.5,96.5C 171.081,98.1417 171.747,100.142 171.5,102.5C 171.5,115.833 171.5,129.167 171.5,142.5C 171.262,146.138 169.596,148.971 166.5,151C 157.103,156.023 148.103,161.523 139.5,167.5C 135.835,169.246 132.002,170.579 128,171.5C 126.175,171.057 124.342,170.723 122.5,170.5C 120.337,168.917 118.004,167.584 115.5,166.5C 110.498,162.997 105.165,159.997 99.5,157.5C 98.3406,155.75 96.674,154.75 94.5,154.5C 94.1583,153.662 93.4916,153.328 92.5,153.5C 91.0552,151.937 89.3885,150.604 87.5,149.5C 87.1667,148.833 86.8333,148.167 86.5,147.5C 85.2702,145.703 84.6036,143.703 84.5,141.5C 84.5,129.167 84.5,116.833 84.5,104.5C 84.5,103.5 84.5,102.5 84.5,101.5C 85.0507,98.7332 86.3841,96.3999 88.5,94.5C 96.7311,89.2225 105.064,84.2225 113.5,79.5C 118.185,75.8266 123.518,73.8266 129.5,73.5 Z"/></g>
<g><path style="opacity:1" fill="#99ff00" d="M 147.5,64.5 C 151.173,66.0002 154.506,68.0002 157.5,70.5C 152.479,73.6771 147.146,76.3437 141.5,78.5C 137.749,76.2928 133.749,74.6261 129.5,73.5C 135.014,69.6831 141.014,66.6831 147.5,64.5 Z"/></g>
<g><path style="opacity:1" fill="#ffdc00" d="M 137.5,58.5 C 139.368,59.2632 141.035,60.2632 142.5,61.5C 132.913,67.6249 122.579,72.1249 111.5,75C 106.516,79.0006 100.85,81.6673 94.5,83C 85.7749,87.5792 76.7749,91.4125 67.5,94.5C 67.5,92.8333 67.5,91.1667 67.5,89.5C 77.8144,85.2299 88.1477,81.0632 98.5,77C 111.167,70.1744 124.167,64.0078 137.5,58.5 Z"/></g>
<g><path style="opacity:1" fill="#2afe11" d="M 157.5,70.5 C 160.09,71.1283 162.423,72.295 164.5,74C 171.492,74.4996 178.492,74.6663 185.5,74.5C 185.53,75.4972 185.03,76.1639 184,76.5C 182.189,77.0779 180.355,77.5779 178.5,78C 173.989,83.9839 167.989,87.8172 160.5,89.5C 153.903,86.2247 147.57,82.558 141.5,78.5C 147.146,76.3437 152.479,73.6771 157.5,70.5 Z"/></g>
<g><path style="opacity:1" fill="#f5fc00" d="M 142.5,61.5 C 144.434,62.1103 146.101,63.1103 147.5,64.5C 141.014,66.6831 135.014,69.6831 129.5,73.5C 123.518,73.8266 118.185,75.8266 113.5,79.5C 97.9495,85.9741 82.6162,92.9741 67.5,100.5C 67.5,98.5 67.5,96.5 67.5,94.5C 76.7749,91.4125 85.7749,87.5792 94.5,83C 100.85,81.6673 106.516,79.0006 111.5,75C 122.579,72.1249 132.913,67.6249 142.5,61.5 Z"/></g>
<g><path style="opacity:1" fill="#ffac00" d="M 133.5,56.5 C 135.153,56.6596 136.486,57.3263 137.5,58.5C 124.167,64.0078 111.167,70.1744 98.5,77C 88.1477,81.0632 77.8144,85.2299 67.5,89.5C 67.5,88.5 67.5,87.5 67.5,86.5C 77.8673,82.8164 87.8673,78.3164 97.5,73C 102.167,71.6667 106.833,70.3333 111.5,69C 119.235,65.4078 126.568,61.2411 133.5,56.5 Z"/></g>
<g><path style="opacity:1" fill="#04fe68" d="M 185.5,74.5 C 188.167,74.5 190.833,74.5 193.5,74.5C 193.733,76.0618 194.4,77.3951 195.5,78.5C 192.206,80.1577 189.206,82.3244 186.5,85C 183.079,84.8786 180.412,86.2119 178.5,89C 174.643,90.3174 170.976,91.8174 167.5,93.5C 164.669,92.9213 162.336,91.588 160.5,89.5C 167.989,87.8172 173.989,83.9839 178.5,78C 180.355,77.5779 182.189,77.0779 184,76.5C 185.03,76.1639 185.53,75.4972 185.5,74.5 Z"/></g>
<g><path style="opacity:1" fill="#04fea4" d="M 195.5,78.5 C 196.833,79.1667 197.833,80.1667 198.5,81.5C 195.821,82.2261 193.154,83.0594 190.5,84C 185.188,91.044 178.188,95.2107 169.5,96.5C 168.833,95.5 168.167,94.5 167.5,93.5C 170.976,91.8174 174.643,90.3174 178.5,89C 180.412,86.2119 183.079,84.8786 186.5,85C 189.206,82.3244 192.206,80.1577 195.5,78.5 Z"/></g>
<g><path style="opacity:1" fill="#f3fbf9" d="M 202.5,89.5 C 203.117,89.6107 203.617,89.944 204,90.5C 204.667,111.5 204.667,132.5 204,153.5C 203.487,162.001 199.654,168.501 192.5,173C 175.833,182.667 159.167,192.333 142.5,202C 140.35,203.411 138.016,204.245 135.5,204.5C 135.5,200.833 135.5,197.167 135.5,193.5C 135.5,191.833 135.5,190.167 135.5,188.5C 144.331,182.583 153.331,176.917 162.5,171.5C 169.446,167.691 176.446,163.858 183.5,160C 185.635,159.124 186.969,157.624 187.5,155.5C 188.341,153.621 188.675,151.621 188.5,149.5C 188.5,148.833 188.5,148.167 188.5,147.5C 188.5,142.5 188.5,137.5 188.5,132.5C 188.5,127.167 188.5,121.833 188.5,116.5C 188.5,114.5 188.5,112.5 188.5,110.5C 188.5,109.167 188.5,107.833 188.5,106.5C 188.5,104.5 188.5,102.5 188.5,100.5C 188.5,98.8333 188.5,97.1667 188.5,95.5C 188.5,93.5 188.5,91.5 188.5,89.5C 193.167,89.5 197.833,89.5 202.5,89.5 Z"/></g>
<g><path style="opacity:1" fill="#09fed8" d="M 198.5,81.5 C 199.458,82.9616 200.624,84.2949 202,85.5C 202.49,86.7932 202.657,88.1266 202.5,89.5C 197.833,89.5 193.167,89.5 188.5,89.5C 188.5,91.5 188.5,93.5 188.5,95.5C 182.592,97.3124 176.926,99.6458 171.5,102.5C 171.747,100.142 171.081,98.1417 169.5,96.5C 178.188,95.2107 185.188,91.044 190.5,84C 193.154,83.0594 195.821,82.2261 198.5,81.5 Z"/></g>
<g><path style="opacity:1" fill="#cbff00" d="M 113.5,79.5 C 105.064,84.2225 96.7311,89.2225 88.5,94.5C 86.3841,96.3999 85.0507,98.7332 84.5,101.5C 78.7126,103.894 73.0459,106.56 67.5,109.5C 67.5,106.5 67.5,103.5 67.5,100.5C 82.6162,92.9741 97.9495,85.9741 113.5,79.5 Z"/></g>
<g><path style="opacity:1" fill="#43e4f0" d="M 188.5,95.5 C 188.5,97.1667 188.5,98.8333 188.5,100.5C 183.239,102.418 177.905,104.085 172.5,105.5C 172.5,107.833 172.5,110.167 172.5,112.5C 172.5,114.5 172.5,116.5 172.5,118.5C 172.5,120.167 172.5,121.833 172.5,123.5C 172.5,128.833 172.5,134.167 172.5,139.5C 172.737,140.791 172.404,141.791 171.5,142.5C 171.5,129.167 171.5,115.833 171.5,102.5C 176.926,99.6458 182.592,97.3124 188.5,95.5 Z"/></g>
<g><path style="opacity:1" fill="#06b6ff" d="M 188.5,100.5 C 188.5,102.5 188.5,104.5 188.5,106.5C 182.914,107.966 177.58,109.966 172.5,112.5C 172.5,110.167 172.5,107.833 172.5,105.5C 177.905,104.085 183.239,102.418 188.5,100.5 Z"/></g>
<g><path style="opacity:1" fill="#0576ff" d="M 188.5,106.5 C 188.5,107.833 188.5,109.167 188.5,110.5C 184.387,112.061 180.72,114.394 177.5,117.5C 175.929,118.309 174.262,118.643 172.5,118.5C 172.5,116.5 172.5,114.5 172.5,112.5C 177.58,109.966 182.914,107.966 188.5,106.5 Z"/></g>
<g><path style="opacity:1" fill="#2fff1d" d="M 84.5,101.5 C 84.5,102.5 84.5,103.5 84.5,104.5C 83.5084,111.648 83.175,118.981 83.5,126.5C 78.5502,129.599 73.2169,131.932 67.5,133.5C 67.5,125.5 67.5,117.5 67.5,109.5C 73.0459,106.56 78.7126,103.894 84.5,101.5 Z"/></g>
<g><path style="opacity:1" fill="#0348ff" d="M 188.5,110.5 C 188.5,112.5 188.5,114.5 188.5,116.5C 183.183,118.802 177.85,121.136 172.5,123.5C 172.5,121.833 172.5,120.167 172.5,118.5C 174.262,118.643 175.929,118.309 177.5,117.5C 180.72,114.394 184.387,112.061 188.5,110.5 Z"/></g>
<g><path style="opacity:1" fill="#2b09ff" d="M 188.5,116.5 C 188.5,121.833 188.5,127.167 188.5,132.5C 183.377,135.284 178.043,137.617 172.5,139.5C 172.5,134.167 172.5,128.833 172.5,123.5C 177.85,121.136 183.183,118.802 188.5,116.5 Z"/></g>
<g><path style="opacity:1" fill="#05fe7a" d="M 83.5,126.5 C 83.5,129.167 83.5,131.833 83.5,134.5C 78.2612,136.807 72.9279,138.807 67.5,140.5C 67.5,138.167 67.5,135.833 67.5,133.5C 73.2169,131.932 78.5502,129.599 83.5,126.5 Z"/></g>
<g><path style="opacity:1" fill="#02feb3" d="M 83.5,134.5 C 83.5,135.833 83.5,137.167 83.5,138.5C 78.5245,141.367 73.1912,143.367 67.5,144.5C 67.5,143.167 67.5,141.833 67.5,140.5C 72.9279,138.807 78.2612,136.807 83.5,134.5 Z"/></g>
<g><path style="opacity:1" fill="#2cf2d7" d="M 84.5,104.5 C 84.5,116.833 84.5,129.167 84.5,141.5C 79.4232,145.309 73.7565,147.976 67.5,149.5C 67.5,147.833 67.5,146.167 67.5,144.5C 73.1912,143.367 78.5245,141.367 83.5,138.5C 83.5,137.167 83.5,135.833 83.5,134.5C 83.5,131.833 83.5,129.167 83.5,126.5C 83.175,118.981 83.5084,111.648 84.5,104.5 Z"/></g>
<g><path style="opacity:1" fill="#18edfc" d="M 84.5,141.5 C 84.6036,143.703 85.2702,145.703 86.5,147.5C 79.241,148.462 73.241,151.462 68.5,156.5C 67.5318,154.393 67.1984,152.059 67.5,149.5C 73.7565,147.976 79.4232,145.309 84.5,141.5 Z"/></g>
<g><path style="opacity:1" fill="#01c9ff" d="M 86.5,147.5 C 86.8333,148.167 87.1667,148.833 87.5,149.5C 81.2449,151.585 75.2449,154.252 69.5,157.5C 69.5,156.833 69.1667,156.5 68.5,156.5C 73.241,151.462 79.241,148.462 86.5,147.5 Z"/></g>
<g><path style="opacity:1" fill="#069dff" d="M 87.5,149.5 C 89.3885,150.604 91.0552,151.937 92.5,153.5C 86.707,156.274 80.707,158.608 74.5,160.5C 72.5659,159.89 70.8993,158.89 69.5,157.5C 75.2449,154.252 81.2449,151.585 87.5,149.5 Z"/></g>
<g><path style="opacity:1" fill="#c6ffff" d="M 188.5,132.5 C 188.5,137.5 188.5,142.5 188.5,147.5C 179.972,149.262 171.972,152.428 164.5,157C 156.241,160.78 147.908,164.28 139.5,167.5C 148.103,161.523 157.103,156.023 166.5,151C 169.596,148.971 171.262,146.138 171.5,142.5C 172.404,141.791 172.737,140.791 172.5,139.5C 178.043,137.617 183.377,135.284 188.5,132.5 Z"/></g>
<g><path style="opacity:1" fill="#026aff" d="M 92.5,153.5 C 93.4916,153.328 94.1583,153.662 94.5,154.5C 91.5691,156.091 88.9024,158.091 86.5,160.5C 83.7617,160.887 81.4283,161.887 79.5,163.5C 77.5659,162.89 75.8993,161.89 74.5,160.5C 80.707,158.608 86.707,156.274 92.5,153.5 Z"/></g>
<g><path style="opacity:1" fill="#033cff" d="M 94.5,154.5 C 96.674,154.75 98.3406,155.75 99.5,157.5C 95.1888,162.242 89.8555,164.908 83.5,165.5C 81.847,165.34 80.5137,164.674 79.5,163.5C 81.4283,161.887 83.7617,160.887 86.5,160.5C 88.9024,158.091 91.5691,156.091 94.5,154.5 Z"/></g>
<g><path style="opacity:1" fill="#2d05ff" d="M 99.5,157.5 C 105.165,159.997 110.498,162.997 115.5,166.5C 110.778,171.026 105.112,173.693 98.5,174.5C 93.2156,171.863 88.2156,168.863 83.5,165.5C 89.8555,164.908 95.1888,162.242 99.5,157.5 Z"/></g>
<g><path style="opacity:1" fill="#ee00fd" d="M 188.5,147.5 C 188.5,148.167 188.5,148.833 188.5,149.5C 173.312,155.929 158.645,163.096 144.5,171C 139.167,173 133.833,175 128.5,177C 124.64,179.761 120.64,182.261 116.5,184.5C 112.883,183.358 109.55,181.692 106.5,179.5C 110.106,176.864 114.106,175.031 118.5,174C 119.731,172.595 121.064,171.429 122.5,170.5C 124.342,170.723 126.175,171.057 128,171.5C 132.002,170.579 135.835,169.246 139.5,167.5C 147.908,164.28 156.241,160.78 164.5,157C 171.972,152.428 179.972,149.262 188.5,147.5 Z"/></g>
<g><path style="opacity:1" fill="#ff00ab" d="M 187.5,155.5 C 186.969,157.624 185.635,159.124 183.5,160C 176.446,163.858 169.446,167.691 162.5,171.5C 155.312,174.473 147.979,177.306 140.5,180C 134.82,185.609 128.154,189.443 120.5,191.5C 120.634,189.708 120.301,188.042 119.5,186.5C 128.163,182.439 136.83,178.272 145.5,174C 147.833,173.667 150.167,173.333 152.5,173C 163.92,166.623 175.587,160.79 187.5,155.5 Z"/></g>
<g><path style="opacity:1" fill="#9400ff" d="M 115.5,166.5 C 118.004,167.584 120.337,168.917 122.5,170.5C 121.064,171.429 119.731,172.595 118.5,174C 114.106,175.031 110.106,176.864 106.5,179.5C 103.797,177.819 101.131,176.153 98.5,174.5C 105.112,173.693 110.778,171.026 115.5,166.5 Z"/></g>
<g><path style="opacity:1" fill="#ff00d8" d="M 188.5,149.5 C 188.675,151.621 188.341,153.621 187.5,155.5C 175.587,160.79 163.92,166.623 152.5,173C 150.167,173.333 147.833,173.667 145.5,174C 136.83,178.272 128.163,182.439 119.5,186.5C 117.973,186.573 116.973,185.906 116.5,184.5C 120.64,182.261 124.64,179.761 128.5,177C 133.833,175 139.167,173 144.5,171C 158.645,163.096 173.312,155.929 188.5,149.5 Z"/></g>
<g><path style="opacity:1" fill="#ff0088" d="M 162.5,171.5 C 153.331,176.917 144.331,182.583 135.5,188.5C 130.669,190.661 125.669,192.328 120.5,193.5C 120.5,192.833 120.5,192.167 120.5,191.5C 128.154,189.443 134.82,185.609 140.5,180C 147.979,177.306 155.312,174.473 162.5,171.5 Z"/></g>
<g><path style="opacity:1" fill="#71ffff" d="M 84.5,185.5 C 78.9229,188.148 73.2562,190.815 67.5,193.5C 67.1707,187.463 67.5041,181.463 68.5,175.5C 73.8975,178.858 79.2308,182.192 84.5,185.5 Z"/></g>
<g><path style="opacity:1" fill="#f600f5" d="M 92.5,189.5 C 95.6803,191.255 98.6803,193.255 101.5,195.5C 91.594,197.725 81.594,199.391 71.5,200.5C 78.8272,197.396 85.8272,193.729 92.5,189.5 Z"/></g>
<g><path style="opacity:0.008" fill="#54ccba" d="M 16.5,193.5 C 17.8333,194.167 17.8333,194.167 16.5,193.5 Z"/></g>
<g><path style="opacity:0.008" fill="#54ccba" d="M 238.5,193.5 C 239.833,194.167 239.833,194.167 238.5,193.5 Z"/></g>
<g><path style="opacity:1" fill="#c400ff" d="M 84.5,185.5 C 87.395,186.399 90.0616,187.733 92.5,189.5C 85.8272,193.729 78.8272,197.396 71.5,200.5C 70.2921,201.234 68.9587,201.567 67.5,201.5C 67.5,198.833 67.5,196.167 67.5,193.5C 73.2562,190.815 78.9229,188.148 84.5,185.5 Z"/></g>
<g><path style="opacity:1" fill="#ff0054" d="M 135.5,188.5 C 135.5,190.167 135.5,191.833 135.5,193.5C 130.521,195.656 125.521,197.656 120.5,199.5C 120.5,197.5 120.5,195.5 120.5,193.5C 125.669,192.328 130.669,190.661 135.5,188.5 Z"/></g>
<g><path style="opacity:0.997" fill="#fe0013" d="M 135.5,193.5 C 135.5,197.167 135.5,200.833 135.5,204.5C 130.465,205.113 125.465,205.779 120.5,206.5C 120.5,204.167 120.5,201.833 120.5,199.5C 125.521,197.656 130.521,195.656 135.5,193.5 Z"/></g>
<g><path style="opacity:0.039" fill="#7de2b5" d="M 219.5,218.5 C 222.315,219.901 223.648,221.901 223.5,224.5C 220.628,223.059 219.295,221.059 219.5,218.5 Z"/></g>
<g><path style="opacity:0.039" fill="#7be4c2" d="M 35.5,218.5 C 36.2891,218.783 36.9558,219.283 37.5,220C 30.9426,225.941 30.276,225.441 35.5,218.5 Z"/></g>
<g><path style="opacity:0.008" fill="#54ccba" d="M 61.5,238.5 C 62.8333,239.167 62.8333,239.167 61.5,238.5 Z"/></g>
</svg>
