<?xml version="1.0" encoding="UTF-8"?>
<!DOCTYPE svg PUBLIC "-//W3C//DTD SVG 1.1//EN" "http://www.w3.org/Graphics/SVG/1.1/DTD/svg11.dtd">
<svg xmlns="http://www.w3.org/2000/svg" version="1.1" width="256px" height="256px" style="shape-rendering:geometricPrecision; text-rendering:geometricPrecision; image-rendering:optimizeQuality; fill-rule:evenodd; clip-rule:evenodd" xmlns:xlink="http://www.w3.org/1999/xlink">
<g><path style="opacity:0.995" fill="#a8b1a9" d="M 111.5,-0.5 C 121.833,-0.5 132.167,-0.5 142.5,-0.5C 205.475,10.9755 242.642,48.3088 254,111.5C 258.302,168.908 235.802,211.908 186.5,240.5C 184.407,238.228 181.74,236.895 178.5,236.5C 144.275,233.528 110.108,233.861 76,237.5C 74.1315,238.369 73.6315,239.535 74.5,241C 81.866,242.335 89.1993,243.668 96.5,245C 123.863,245.857 151.197,245.357 178.5,243.5C 157.615,253.081 135.615,256.581 112.5,254C 48.773,243.106 11.1063,205.939 -0.5,142.5C -0.5,132.167 -0.5,121.833 -0.5,111.5C 11.1757,48.491 48.509,11.1576 111.5,-0.5 Z"/></g>
<g><path style="opacity:1" fill="#78c703" d="M 217.5,120.5 C 212.079,124.445 206.745,128.612 201.5,133C 196.843,135.886 191.843,137.553 186.5,138C 185.929,136.795 185.262,135.628 184.5,134.5C 181.73,142.169 178.896,149.835 176,157.5C 168.738,169.431 158.238,176.598 144.5,179C 119.084,182.512 100.584,173.012 89,150.5C 87.0772,142.121 84.2438,134.121 80.5,126.5C 78.2198,127.755 77.0532,129.755 77,132.5C 76.2753,133.059 75.4419,133.392 74.5,133.5C 69.3469,132.36 64.3469,130.694 59.5,128.5C 43.6831,119.019 31.3498,106.353 22.5,90.5C 20.5816,83.0716 20.0816,75.4049 21,67.5C 21.8901,61.9734 25.0568,59.8067 30.5,61C 41.3976,65.4481 52.0642,70.4481 62.5,76C 65.5,76.6667 68.5,76.6667 71.5,76C 73.3417,74.6545 74.3417,72.8211 74.5,70.5C 75.2216,70.0825 75.7216,69.4158 76,68.5C 76.3333,57.5 76.6667,46.5 77,35.5C 77.9724,29.301 79.4724,23.301 81.5,17.5C 84.0313,9.73076 89.3647,6.89743 97.5,9C 107.421,15.2466 117.087,21.9133 126.5,29C 141.502,34.9835 156.835,35.9835 172.5,32C 177.108,28.863 182.108,26.5297 187.5,25C 191.886,23.9432 195.053,25.4432 197,29.5C 197.979,34.1106 198.479,38.7773 198.5,43.5C 197.594,58.1822 196.594,72.8489 195.5,87.5C 197.199,87.6602 198.866,87.4935 200.5,87C 208.712,82.7274 217.045,78.7274 225.5,75C 228.308,74.0799 230.475,74.9133 232,77.5C 232.239,93.542 227.406,107.875 217.5,120.5 Z"/></g>
<g><path style="opacity:1" fill="#8fdf09" d="M 155.5,93.5 C 152.653,86.2404 147.32,83.407 139.5,85C 136.926,86.737 134.926,88.9036 133.5,91.5C 132.549,92.9187 132.216,94.5853 132.5,96.5C 121.839,105.214 110.172,106.714 97.5,101C 91.164,96.9978 86.664,91.4978 84,84.5C 80.9224,68.9238 82.589,53.9238 89,39.5C 95.4456,31.3615 102.779,30.3615 111,36.5C 111.5,36.1667 112,35.8333 112.5,35.5C 111.41,34.3914 111.41,33.3914 112.5,32.5C 119.563,35.4023 125.897,39.4023 131.5,44.5C 131.906,43.4425 131.906,42.1092 131.5,40.5C 135.318,42.3275 139.152,44.3275 143,46.5C 145.458,47.0803 147.958,47.4136 150.5,47.5C 154.976,46.7048 159.309,45.3715 163.5,43.5C 164.672,43.9186 165.672,44.5853 166.5,45.5C 169.856,43.7932 173.19,42.1265 176.5,40.5C 178.569,40.8242 178.902,41.6575 177.5,43C 183.463,42.0559 187.63,44.2226 190,49.5C 191.576,60.7747 191.909,72.108 191,83.5C 189.212,95.0953 182.546,101.762 171,103.5C 167.871,103.671 165.037,102.838 162.5,101C 159.228,99.2332 156.895,96.7332 155.5,93.5 Z"/></g>
<g><path style="opacity:1" fill="#f8f9f6" d="M 126.5,63.5 C 127.229,68.1304 127.563,72.7971 127.5,77.5C 124.857,89.9591 117.191,95.1258 104.5,93C 100.592,90.5943 97.5915,87.4276 95.5,83.5C 94.2101,76.174 94.2101,68.8406 95.5,61.5C 102.087,50.3626 110.754,48.5292 121.5,56C 123.797,58.0987 125.464,60.5987 126.5,63.5 Z"/></g>
<g><path style="opacity:1" fill="#86c135" d="M 81.5,17.5 C 79.4724,23.301 77.9724,29.301 77,35.5C 76.6667,46.5 76.3333,57.5 76,68.5C 75.7216,69.4158 75.2216,70.0825 74.5,70.5C 75.2519,58.1917 75.7519,45.8583 76,33.5C 76.3158,27.534 78.1491,22.2007 81.5,17.5 Z"/></g>
<g><path style="opacity:1" fill="#f5f7f0" d="M 166.5,57.5 C 175.813,56.5768 181.979,60.5768 185,69.5C 187.723,80.5354 184.223,88.7021 174.5,94C 165.431,95.9366 159.598,92.4366 157,83.5C 154.418,72.5431 157.584,63.8764 166.5,57.5 Z"/></g>
<g><path style="opacity:1" fill="#444444" d="M 112.5,61.5 C 118.647,64.1343 120.814,68.801 119,75.5C 117.173,82.5022 112.673,85.0022 105.5,83C 101.452,79.3996 99.7849,74.8996 100.5,69.5C 102.527,69.6621 104.527,69.4955 106.5,69C 107.056,68.6174 107.389,68.1174 107.5,67.5C 108.461,65.7354 108.795,63.7354 108.5,61.5C 109.833,61.5 111.167,61.5 112.5,61.5 Z"/></g>
<g><path style="opacity:1" fill="#a4a4a4" d="M 112.5,61.5 C 111.167,61.5 109.833,61.5 108.5,61.5C 108.795,63.7354 108.461,65.7354 107.5,67.5C 107.5,65.1667 107.5,62.8333 107.5,60.5C 109.415,60.2155 111.081,60.5489 112.5,61.5 Z"/></g>
<g><path style="opacity:1" fill="#474747" d="M 168.5,65.5 C 172.426,65.0466 175.592,66.3799 178,69.5C 180.011,76.7254 178.177,82.5588 172.5,87C 168.326,88.0182 165.326,86.5182 163.5,82.5C 162.52,79.9135 162.187,77.2469 162.5,74.5C 168.476,74.1863 170.476,71.1863 168.5,65.5 Z"/></g>
<g><path style="opacity:1" fill="#e6f7c5" d="M 95.5,61.5 C 94.2101,68.8406 94.2101,76.174 95.5,83.5C 91.6649,76.1592 91.6649,68.8258 95.5,61.5 Z"/></g>
<g><path style="opacity:1" fill="#c9ef87" d="M 126.5,63.5 C 127.973,66.0169 128.64,68.8502 128.5,72C 128.494,74.0326 128.161,75.866 127.5,77.5C 127.563,72.7971 127.229,68.1304 126.5,63.5 Z"/></g>
<g><path style="opacity:1" fill="#fbc201" d="M 155.5,93.5 C 157.005,100.491 155.338,106.657 150.5,112C 149.552,112.483 148.552,112.649 147.5,112.5C 146.791,111.596 145.791,111.263 144.5,111.5C 143.218,108.383 141.051,106.05 138,104.5C 136.603,101.646 135.103,98.9795 133.5,96.5C 133.5,94.8333 133.5,93.1667 133.5,91.5C 134.926,88.9036 136.926,86.737 139.5,85C 147.32,83.407 152.653,86.2404 155.5,93.5 Z"/></g>
<g><path style="opacity:1" fill="#ffea9a" d="M 142.5,86.5 C 144.591,86.3184 146.591,86.6518 148.5,87.5C 149.583,88.365 149.749,89.365 149,90.5C 145.857,92.1723 143.357,91.5056 141.5,88.5C 141.863,87.8165 142.196,87.1499 142.5,86.5 Z"/></g>
<g><path style="opacity:1" fill="#f09300" d="M 133.5,96.5 C 135.103,98.9795 136.603,101.646 138,104.5C 141.051,106.05 143.218,108.383 144.5,111.5C 141.375,113.172 138.542,112.838 136,110.5C 134.026,106.049 133.193,101.382 133.5,96.5 Z"/></g>
<g><path style="opacity:1" fill="#72b207" d="M 22.5,90.5 C 31.3498,106.353 43.6831,119.019 59.5,128.5C 64.3469,130.694 69.3469,132.36 74.5,133.5C 75.4419,133.392 76.2753,133.059 77,132.5C 77.0532,129.755 78.2198,127.755 80.5,126.5C 84.2438,134.121 87.0772,142.121 89,150.5C 100.584,173.012 119.084,182.512 144.5,179C 158.238,176.598 168.738,169.431 176,157.5C 178.896,149.835 181.73,142.169 184.5,134.5C 185.262,135.628 185.929,136.795 186.5,138C 191.843,137.553 196.843,135.886 201.5,133C 206.745,128.612 212.079,124.445 217.5,120.5C 213.866,125.579 209.866,130.412 205.5,135C 197.333,141.167 189.167,147.333 181,153.5C 176.52,167.299 169.354,179.465 159.5,190C 152.584,195.919 144.584,199.419 135.5,200.5C 128.067,200.698 120.733,200.031 113.5,198.5C 107.03,197.265 101.363,194.432 96.5,190C 86.3909,178.95 79.5576,166.117 76,151.5C 62.3363,142.342 49.6696,132.009 38,120.5C 30.812,111.497 25.6453,101.497 22.5,90.5 Z"/></g>
<g><path style="opacity:1" fill="#7eb200" d="M 133.5,91.5 C 133.5,93.1667 133.5,94.8333 133.5,96.5C 133.193,101.382 134.026,106.049 136,110.5C 138.542,112.838 141.375,113.172 144.5,111.5C 145.791,111.263 146.791,111.596 147.5,112.5C 146.5,112.5 145.5,112.5 144.5,112.5C 144.565,118.955 141.565,121.288 135.5,119.5C 132.805,112.098 131.805,104.432 132.5,96.5C 132.216,94.5853 132.549,92.9187 133.5,91.5 Z"/></g>
<g><path style="opacity:1" fill="#d68711" d="M 160.5,195.5 C 168.098,194.725 170.931,198.058 169,205.5C 164.272,210.504 158.939,211.504 153,208.5C 152.428,202.303 154.928,197.97 160.5,195.5 Z"/></g>
<g><path style="opacity:1" fill="#8fb15e" d="M 113.5,198.5 C 120.733,200.031 128.067,200.698 135.5,200.5C 130.35,201.651 125.016,201.817 119.5,201C 117.026,200.963 115.026,200.13 113.5,198.5 Z"/></g>
<g><path style="opacity:1" fill="#d68710" d="M 117.5,207.5 C 122.297,207.121 126.964,207.621 131.5,209C 134.463,211.271 135.13,214.104 133.5,217.5C 128.183,222.162 122.183,223.329 115.5,221C 112.407,215.809 113.074,211.309 117.5,207.5 Z"/></g>
<g><path style="opacity:0.997" fill="#dbdcdb" d="M 186.5,240.5 C 183.993,241.892 181.327,242.892 178.5,243.5C 151.197,245.357 123.863,245.857 96.5,245C 89.1993,243.668 81.866,242.335 74.5,241C 73.6315,239.535 74.1315,238.369 76,237.5C 110.108,233.861 144.275,233.528 178.5,236.5C 181.74,236.895 184.407,238.228 186.5,240.5 Z"/></g>
</svg>
