<?xml version="1.0" encoding="UTF-8"?>
<!DOCTYPE svg PUBLIC "-//W3C//DTD SVG 1.1//EN" "http://www.w3.org/Graphics/SVG/1.1/DTD/svg11.dtd">
<svg xmlns="http://www.w3.org/2000/svg" version="1.1" width="432px" height="432px" style="shape-rendering:geometricPrecision; text-rendering:geometricPrecision; image-rendering:optimizeQuality; fill-rule:evenodd; clip-rule:evenodd" xmlns:xlink="http://www.w3.org/1999/xlink">
<g><path style="opacity:0.064" fill="#020204" d="M 201.5,73.5 C 236.185,71.4306 269.851,75.9306 302.5,87C 323.876,96.709 338.709,112.542 347,134.5C 354.66,156.088 358.327,178.421 358,201.5C 360.608,236.199 356.275,269.865 345,302.5C 335.291,323.876 319.458,338.709 297.5,347C 275.863,354.379 253.53,358.045 230.5,358C 197.709,360.256 165.709,356.589 134.5,347C 110.667,337.833 94.1667,321.333 85,297.5C 76.4441,271.111 72.6107,243.944 73.5,216C 72.0978,185.344 76.9312,155.844 88,127.5C 96.8908,108.943 110.724,95.4426 129.5,87C 152.766,78.274 176.766,73.774 201.5,73.5 Z"/></g>
<g><path style="opacity:1" fill="#4fc478" d="M 211.5,76.5 C 212.833,77.1667 214.167,77.8333 215.5,78.5C 210.968,78.1818 206.634,78.5151 202.5,79.5C 199.5,79.5 196.5,79.5 193.5,79.5C 189.802,79.5524 186.135,79.8857 182.5,80.5C 179.873,81.0916 177.206,81.4249 174.5,81.5C 175.609,80.71 176.942,80.21 178.5,80C 177.906,79.5357 177.239,79.369 176.5,79.5C 176.5,79.1667 176.5,78.8333 176.5,78.5C 187.955,76.812 199.622,76.1453 211.5,76.5 Z"/></g>
<g><path style="opacity:1" fill="#3ac6c6" d="M 211.5,76.5 C 226.181,76.3632 240.848,76.6965 255.5,77.5C 251.167,78.1667 246.833,78.8333 242.5,79.5C 241.167,79.5 239.833,79.5 238.5,79.5C 237.5,79.5 236.5,79.5 235.5,79.5C 232.5,79.5 229.5,79.5 226.5,79.5C 222.901,78.6561 219.234,78.3227 215.5,78.5C 214.167,77.8333 212.833,77.1667 211.5,76.5 Z"/></g>
<g><path style="opacity:1" fill="#03fd79" d="M 202.5,79.5 C 206.634,78.5151 210.968,78.1818 215.5,78.5C 219.234,78.3227 222.901,78.6561 226.5,79.5C 230.262,94.307 231.262,109.307 229.5,124.5C 227.833,124.5 226.167,124.5 224.5,124.5C 226.112,109.421 225.446,94.4209 222.5,79.5C 219.5,79.5 216.5,79.5 213.5,79.5C 209.833,79.5 206.167,79.5 202.5,79.5 Z"/></g>
<g><path style="opacity:0.933" fill="#b1ef27" d="M 176.5,78.5 C 176.5,78.8333 176.5,79.1667 176.5,79.5C 168.126,80.5884 159.793,81.9217 151.5,83.5C 151.611,82.8826 151.944,82.3826 152.5,82C 160.376,79.9463 168.376,78.7797 176.5,78.5 Z"/></g>
<g><path style="opacity:1" fill="#01fec1" d="M 235.5,79.5 C 236.5,79.5 237.5,79.5 238.5,79.5C 239.568,80.4345 240.901,80.7678 242.5,80.5C 245.496,96.0623 246.163,111.729 244.5,127.5C 241.67,127.037 239.003,126.371 236.5,125.5C 237.234,124.122 237.901,122.622 238.5,121C 238.096,117.373 238.096,113.54 238.5,109.5C 238.085,99.4331 237.085,89.4331 235.5,79.5 Z"/></g>
<g><path style="opacity:1" fill="#96bc79" d="M 176.5,79.5 C 177.239,79.369 177.906,79.5357 178.5,80C 176.942,80.21 175.609,80.71 174.5,81.5C 172.283,82.3686 169.95,82.702 167.5,82.5C 164.99,82.9267 162.657,83.5933 160.5,84.5C 158.585,84.2155 156.919,84.5489 155.5,85.5C 153.708,85.366 152.042,85.6993 150.5,86.5C 149.391,86.5569 148.391,86.8902 147.5,87.5C 145.297,87.6036 143.297,88.2702 141.5,89.5C 141.158,88.6618 140.492,88.3284 139.5,88.5C 140.167,87.8333 140.833,87.1667 141.5,86.5C 144.505,84.7234 147.838,83.7234 151.5,83.5C 159.793,81.9217 168.126,80.5884 176.5,79.5 Z"/></g>
<g><path style="opacity:1" fill="#04defe" d="M 254.5,81.5 C 256.144,81.2865 257.644,81.6198 259,82.5C 261.838,98.7818 262.171,115.115 260,131.5C 259.617,132.056 259.117,132.389 258.5,132.5C 257.209,132.737 256.209,132.404 255.5,131.5C 257.04,114.789 256.707,98.1225 254.5,81.5 Z"/></g>
<g><path style="opacity:1" fill="#01fe57" d="M 213.5,79.5 C 216.5,79.5 219.5,79.5 222.5,79.5C 225.446,94.4209 226.112,109.421 224.5,124.5C 221.5,124.5 218.5,124.5 215.5,124.5C 216.946,109.412 216.279,94.4122 213.5,79.5 Z"/></g>
<g><path style="opacity:1" fill="#01fedd" d="M 238.5,79.5 C 239.833,79.5 241.167,79.5 242.5,79.5C 243.959,79.4326 245.292,79.7659 246.5,80.5C 248.883,96.4032 249.883,112.403 249.5,128.5C 247.784,128.371 246.117,128.038 244.5,127.5C 246.163,111.729 245.496,96.0623 242.5,80.5C 240.901,80.7678 239.568,80.4345 238.5,79.5 Z"/></g>
<g><path style="opacity:1" fill="#1cc3f8" d="M 255.5,77.5 C 258.43,78.299 261.43,78.6323 264.5,78.5C 264.119,79.9311 263.119,80.7645 261.5,81C 262.72,82.5253 263.387,84.3587 263.5,86.5C 266.381,102.722 266.048,118.722 262.5,134.5C 260.847,134.34 259.514,133.674 258.5,132.5C 259.117,132.389 259.617,132.056 260,131.5C 262.171,115.115 261.838,98.7818 259,82.5C 257.644,81.6198 256.144,81.2865 254.5,81.5C 251.904,80.7347 249.237,80.4013 246.5,80.5C 245.292,79.7659 243.959,79.4326 242.5,79.5C 246.833,78.8333 251.167,78.1667 255.5,77.5 Z"/></g>
<g><path style="opacity:1" fill="#02fcf6" d="M 246.5,80.5 C 249.237,80.4013 251.904,80.7347 254.5,81.5C 256.707,98.1225 257.04,114.789 255.5,131.5C 255.167,131.5 254.833,131.5 254.5,131.5C 252.928,130.313 251.261,129.313 249.5,128.5C 249.883,112.403 248.883,96.4032 246.5,80.5 Z"/></g>
<g><path style="opacity:1" fill="#0b91fd" d="M 268.5,79.5 C 271.33,79.9628 273.997,80.6295 276.5,81.5C 275.761,81.369 275.094,81.5357 274.5,82C 276.421,82.3603 278.088,83.1936 279.5,84.5C 278.311,85.4287 276.978,85.762 275.5,85.5C 275.89,104.03 275.223,122.364 273.5,140.5C 271.62,140.771 270.287,140.104 269.5,138.5C 269.077,137.735 268.743,136.902 268.5,136C 271.796,118.686 271.796,101.519 268.5,84.5C 269.167,83.8333 269.833,83.1667 270.5,82.5C 269.807,81.4822 269.141,80.4822 268.5,79.5 Z"/></g>
<g><path style="opacity:1" fill="#0d74fd" d="M 276.5,81.5 C 281.423,82.6734 286.089,84.3401 290.5,86.5C 294.278,88.8924 298.278,91.0591 302.5,93C 301.552,93.4828 300.552,93.6495 299.5,93.5C 297.046,92.7729 294.713,91.7729 292.5,90.5C 291.07,89.4625 289.403,88.7959 287.5,88.5C 286.003,87.6942 284.336,87.0276 282.5,86.5C 282.167,87.8333 281.833,89.1667 281.5,90.5C 282.832,109.195 282.499,127.861 280.5,146.5C 278.142,144.471 275.808,142.471 273.5,140.5C 275.223,122.364 275.89,104.03 275.5,85.5C 276.978,85.762 278.311,85.4287 279.5,84.5C 278.088,83.1936 276.421,82.3603 274.5,82C 275.094,81.5357 275.761,81.369 276.5,81.5 Z"/></g>
<g><path style="opacity:1" fill="#17adfc" d="M 264.5,78.5 C 265.708,79.2341 267.041,79.5674 268.5,79.5C 269.141,80.4822 269.807,81.4822 270.5,82.5C 269.833,83.1667 269.167,83.8333 268.5,84.5C 271.796,101.519 271.796,118.686 268.5,136C 268.743,136.902 269.077,137.735 269.5,138.5C 266.669,137.921 264.336,136.588 262.5,134.5C 266.048,118.722 266.381,102.722 263.5,86.5C 263.387,84.3587 262.72,82.5253 261.5,81C 263.119,80.7645 264.119,79.9311 264.5,78.5 Z"/></g>
<g><path style="opacity:1" fill="#0154fe" d="M 287.5,88.5 C 288.409,108.479 287.076,128.479 283.5,148.5C 282.5,147.833 281.5,147.167 280.5,146.5C 282.499,127.861 282.832,109.195 281.5,90.5C 281.833,89.1667 282.167,87.8333 282.5,86.5C 284.336,87.0276 286.003,87.6942 287.5,88.5 Z"/></g>
<g><path style="opacity:1" fill="#4efe00" d="M 193.5,79.5 C 192.391,80.29 191.058,80.79 189.5,81C 195.452,96.3497 196.786,111.85 193.5,127.5C 190.461,128.01 187.461,128.677 184.5,129.5C 184.394,117.68 184.227,105.68 184,93.5C 183.134,89.7357 181.967,86.069 180.5,82.5C 181.243,81.8182 181.909,81.1515 182.5,80.5C 186.135,79.8857 189.802,79.5524 193.5,79.5 Z"/></g>
<g><path style="opacity:1" fill="#13fe0f" d="M 193.5,79.5 C 196.5,79.5 199.5,79.5 202.5,79.5C 206.167,79.5 209.833,79.5 213.5,79.5C 216.279,94.4122 216.946,109.412 215.5,124.5C 208.239,124.614 201.239,125.614 194.5,127.5C 194.167,127.5 193.833,127.5 193.5,127.5C 196.786,111.85 195.452,96.3497 189.5,81C 191.058,80.79 192.391,80.29 193.5,79.5 Z"/></g>
<g><path style="opacity:1" fill="#013bfe" d="M 287.5,88.5 C 289.403,88.7959 291.07,89.4625 292.5,90.5C 292.917,104.013 292.417,117.68 291,131.5C 290.18,138.776 288.68,145.776 286.5,152.5C 285.512,151.205 284.512,149.872 283.5,148.5C 287.076,128.479 288.409,108.479 287.5,88.5 Z"/></g>
<g><path style="opacity:1" fill="#82fe00" d="M 182.5,80.5 C 181.909,81.1515 181.243,81.8182 180.5,82.5C 181.967,86.069 183.134,89.7357 184,93.5C 184.227,105.68 184.394,117.68 184.5,129.5C 178.661,132.343 172.661,135.01 166.5,137.5C 174.128,123.697 175.961,109.031 172,93.5C 170.968,89.5523 169.468,85.8857 167.5,82.5C 169.95,82.702 172.283,82.3686 174.5,81.5C 177.206,81.4249 179.873,81.0916 182.5,80.5 Z"/></g>
<g><path style="opacity:1" fill="#02fe93" d="M 226.5,79.5 C 229.5,79.5 232.5,79.5 235.5,79.5C 237.085,89.4331 238.085,99.4331 238.5,109.5C 238.096,113.54 238.096,117.373 238.5,121C 237.901,122.622 237.234,124.122 236.5,125.5C 234.833,125.5 233.167,125.5 231.5,125.5C 230.833,125.5 230.167,125.5 229.5,125.5C 229.5,125.167 229.5,124.833 229.5,124.5C 231.262,109.307 230.262,94.307 226.5,79.5 Z"/></g>
<g><path style="opacity:0.925" fill="#e68e28" d="M 141.5,86.5 C 140.833,87.1667 140.167,87.8333 139.5,88.5C 133.682,90.9098 128.015,93.5765 122.5,96.5C 128.11,91.8611 134.443,88.5278 141.5,86.5 Z"/></g>
<g><path style="opacity:0.999" fill="#b78264" d="M 139.5,88.5 C 140.492,88.3284 141.158,88.6618 141.5,89.5C 139.216,89.9752 137.216,90.9752 135.5,92.5C 133.632,93.2632 131.965,94.2632 130.5,95.5C 128.326,95.7497 126.659,96.7497 125.5,98.5C 124.29,98.9321 123.29,99.5987 122.5,100.5C 121.833,100.5 121.167,100.5 120.5,100.5C 121.167,99.1667 121.833,97.8333 122.5,96.5C 128.015,93.5765 133.682,90.9098 139.5,88.5 Z"/></g>
<g><path style="opacity:1" fill="#ffee00" d="M 150.5,86.5 C 159.936,106.009 158.103,124.342 145,141.5C 129.953,156.136 112.453,160.136 92.5,153.5C 92.2322,151.901 92.5655,150.568 93.5,149.5C 112.477,155.629 128.977,151.295 143,136.5C 148.979,128.531 152.146,119.531 152.5,109.5C 151.645,101.946 149.979,94.6131 147.5,87.5C 148.391,86.8902 149.391,86.5569 150.5,86.5 Z"/></g>
<g><path style="opacity:1" fill="#fe4a01" d="M 122.5,96.5 C 121.833,97.8333 121.167,99.1667 120.5,100.5C 113.913,104.239 109.413,109.573 107,116.5C 111.698,110.637 116.865,105.303 122.5,100.5C 123.29,99.5987 124.29,98.9321 125.5,98.5C 127.136,99.7489 128.303,101.416 129,103.5C 131.059,111.523 129.392,118.857 124,125.5C 116.229,132.332 108.062,132.999 99.5,127.5C 103.769,114.576 111.435,104.242 122.5,96.5 Z"/></g>
<g><path style="opacity:0.997" fill="#d3413a" d="M 120.5,100.5 C 121.167,100.5 121.833,100.5 122.5,100.5C 116.865,105.303 111.698,110.637 107,116.5C 109.413,109.573 113.913,104.239 120.5,100.5 Z"/></g>
<g><path style="opacity:1" fill="#fe7700" d="M 130.5,95.5 C 138.574,113.121 133.907,125.954 116.5,134C 110.05,134.768 103.717,134.268 97.5,132.5C 97.4021,130.447 98.0687,128.78 99.5,127.5C 108.062,132.999 116.229,132.332 124,125.5C 129.392,118.857 131.059,111.523 129,103.5C 128.303,101.416 127.136,99.7489 125.5,98.5C 126.659,96.7497 128.326,95.7497 130.5,95.5 Z"/></g>
<g><path style="opacity:1" fill="#ff9700" d="M 135.5,92.5 C 145.258,108.827 142.925,123.327 128.5,136C 117.595,142.554 106.595,143.054 95.5,137.5C 95.7959,135.597 96.4625,133.93 97.5,132.5C 103.717,134.268 110.05,134.768 116.5,134C 133.907,125.954 138.574,113.121 130.5,95.5C 131.965,94.2632 133.632,93.2632 135.5,92.5 Z"/></g>
<g><path style="opacity:1" fill="#adc4e7" d="M 215.5,124.5 C 218.5,124.5 221.5,124.5 224.5,124.5C 226.167,124.5 227.833,124.5 229.5,124.5C 229.5,124.833 229.5,125.167 229.5,125.5C 217.778,125.336 206.111,126.003 194.5,127.5C 201.239,125.614 208.239,124.614 215.5,124.5 Z"/></g>
<g><path style="opacity:1" fill="#fdfdfe" d="M 229.5,125.5 C 230.167,125.5 230.833,125.5 231.5,125.5C 239.033,127.445 246.699,129.445 254.5,131.5C 254.833,131.5 255.167,131.5 255.5,131.5C 256.209,132.404 257.209,132.737 258.5,132.5C 259.514,133.674 260.847,134.34 262.5,134.5C 264.336,136.588 266.669,137.921 269.5,138.5C 270.287,140.104 271.62,140.771 273.5,140.5C 275.808,142.471 278.142,144.471 280.5,146.5C 281.5,147.167 282.5,147.833 283.5,148.5C 284.512,149.872 285.512,151.205 286.5,152.5C 296.493,163.843 301.493,177.177 301.5,192.5C 300.539,194.265 300.205,196.265 300.5,198.5C 299.705,203.765 298.038,208.765 295.5,213.5C 241.617,214.156 187.95,213.489 134.5,211.5C 133.055,209.429 132.055,207.096 131.5,204.5C 130.284,196.451 130.618,188.451 132.5,180.5C 133.346,177.452 134.346,174.452 135.5,171.5C 136.773,169.287 137.773,166.954 138.5,164.5C 146.486,154.183 155.819,145.183 166.5,137.5C 172.661,135.01 178.661,132.343 184.5,129.5C 187.461,128.677 190.461,128.01 193.5,127.5C 193.833,127.5 194.167,127.5 194.5,127.5C 206.111,126.003 217.778,125.336 229.5,125.5 Z"/></g>
<g><path style="opacity:1" fill="#99b9e2" d="M 231.5,125.5 C 233.167,125.5 234.833,125.5 236.5,125.5C 239.003,126.371 241.67,127.037 244.5,127.5C 246.117,128.038 247.784,128.371 249.5,128.5C 251.261,129.313 252.928,130.313 254.5,131.5C 246.699,129.445 239.033,127.445 231.5,125.5 Z"/></g>
<g><path style="opacity:1" fill="#feb400" d="M 141.5,89.5 C 150.921,111.274 146.255,128.941 127.5,142.5C 116.607,147.291 105.607,147.624 94.5,143.5C 94.5172,141.435 94.8505,139.435 95.5,137.5C 106.595,143.054 117.595,142.554 128.5,136C 142.925,123.327 145.258,108.827 135.5,92.5C 137.216,90.9752 139.216,89.9752 141.5,89.5 Z"/></g>
<g><path style="opacity:1" fill="#f5fe00" d="M 155.5,85.5 C 163.219,99.1298 164.386,113.463 159,128.5C 149.072,149.067 132.572,160.067 109.5,161.5C 103.239,161.138 97.2388,159.805 91.5,157.5C 91.8333,156.167 92.1667,154.833 92.5,153.5C 112.453,160.136 129.953,156.136 145,141.5C 158.103,124.342 159.936,106.009 150.5,86.5C 152.042,85.6993 153.708,85.366 155.5,85.5 Z"/></g>
<g><path style="opacity:1" fill="#6d07fd" d="M 290.5,86.5 C 305.034,91.0397 316.367,99.7063 324.5,112.5C 324.596,126.872 323.096,141.205 320,155.5C 317.325,166.187 314.658,176.854 312,187.5C 308.376,195.571 304.876,203.571 301.5,211.5C 301.5,210.167 301.5,208.833 301.5,207.5C 301.492,204.455 301.159,201.455 300.5,198.5C 300.205,196.265 300.539,194.265 301.5,192.5C 304.324,190.2 306.157,187.2 307,183.5C 309.067,172.565 312.067,161.898 316,151.5C 318.582,137.93 319.915,124.264 320,110.5C 313.852,103.837 307.018,98.1707 299.5,93.5C 300.552,93.6495 301.552,93.4828 302.5,93C 298.278,91.0591 294.278,88.8924 290.5,86.5 Z"/></g>
<g><path style="opacity:1" fill="#2a06fe" d="M 292.5,90.5 C 294.713,91.7729 297.046,92.7729 299.5,93.5C 307.018,98.1707 313.852,103.837 320,110.5C 319.915,124.264 318.582,137.93 316,151.5C 312.067,161.898 309.067,172.565 307,183.5C 306.157,187.2 304.324,190.2 301.5,192.5C 301.493,177.177 296.493,163.843 286.5,152.5C 288.68,145.776 290.18,138.776 291,131.5C 292.417,117.68 292.917,104.013 292.5,90.5 Z"/></g>
<g><path style="opacity:1" fill="#fed300" d="M 147.5,87.5 C 149.979,94.6131 151.645,101.946 152.5,109.5C 152.146,119.531 148.979,128.531 143,136.5C 128.977,151.295 112.477,155.629 93.5,149.5C 93.5,148.5 93.5,147.5 93.5,146.5C 93.2627,145.209 93.596,144.209 94.5,143.5C 105.607,147.624 116.607,147.291 127.5,142.5C 146.255,128.941 150.921,111.274 141.5,89.5C 143.297,88.2702 145.297,87.6036 147.5,87.5 Z"/></g>
<g><path style="opacity:1" fill="#e0fe00" d="M 155.5,85.5 C 156.919,84.5489 158.585,84.2155 160.5,84.5C 170.012,104.183 168.845,123.517 157,142.5C 150.832,147.669 144.998,153.169 139.5,159C 124.228,166.786 108.228,168.619 91.5,164.5C 91.5,163.5 91.5,162.5 91.5,161.5C 91.5,160.167 91.5,158.833 91.5,157.5C 97.2388,159.805 103.239,161.138 109.5,161.5C 132.572,160.067 149.072,149.067 159,128.5C 164.386,113.463 163.219,99.1298 155.5,85.5 Z"/></g>
<g><path style="opacity:1" fill="#8e00fe" d="M 324.5,112.5 C 327.258,115.678 329.258,119.345 330.5,123.5C 328.884,155.007 320.217,184.34 304.5,211.5C 302.803,212.364 301.637,213.697 301,215.5C 300.421,214.072 300.588,212.738 301.5,211.5C 304.876,203.571 308.376,195.571 312,187.5C 314.658,176.854 317.325,166.187 320,155.5C 323.096,141.205 324.596,126.872 324.5,112.5 Z"/></g>
<g><path style="opacity:1" fill="#c2fe04" d="M 167.5,82.5 C 169.468,85.8857 170.968,89.5523 172,93.5C 175.961,109.031 174.128,123.697 166.5,137.5C 155.819,145.183 146.486,154.183 138.5,164.5C 123.074,172.173 107.074,173.506 90.5,168.5C 90.1984,165.941 90.5318,163.607 91.5,161.5C 91.5,162.5 91.5,163.5 91.5,164.5C 108.228,168.619 124.228,166.786 139.5,159C 144.998,153.169 150.832,147.669 157,142.5C 168.845,123.517 170.012,104.183 160.5,84.5C 162.657,83.5933 164.99,82.9267 167.5,82.5 Z"/></g>
<g><path style="opacity:1" fill="#f800fe" d="M 340.5,157.5 C 341.164,162.473 341.497,167.473 341.5,172.5C 320.755,246.048 275.755,298.715 206.5,330.5C 206.167,330.5 205.833,330.5 205.5,330.5C 202.167,330.5 198.833,330.5 195.5,330.5C 208.626,323.436 221.96,316.603 235.5,310C 244.71,303.303 253.71,296.303 262.5,289C 270.658,281.343 278.992,273.843 287.5,266.5C 288.907,262.689 291.074,259.355 294,256.5C 294.333,255.167 294.667,253.833 295,252.5C 301.901,248.263 306.568,242.263 309,234.5C 323.897,210.646 334.397,184.98 340.5,157.5 Z"/></g>
<g><path style="opacity:1" fill="#a7fe01" d="M 138.5,164.5 C 137.773,166.954 136.773,169.287 135.5,171.5C 120.396,177.226 105.063,177.892 89.5,173.5C 90.038,171.883 90.3713,170.216 90.5,168.5C 107.074,173.506 123.074,172.173 138.5,164.5 Z"/></g>
<g><path style="opacity:1" fill="#a402fe" d="M 330.5,123.5 C 332.677,126.52 334.343,129.853 335.5,133.5C 333.997,142.337 332.497,151.337 331,160.5C 327.045,171.211 324.045,182.211 322,193.5C 319.073,198.119 316.24,202.786 313.5,207.5C 311.109,211.613 309.276,215.946 308,220.5C 298.792,231.87 289.792,243.537 281,255.5C 268.708,268.133 255.875,279.966 242.5,291C 241.167,291.333 239.833,291.667 238.5,292C 232.647,296.284 226.647,300.284 220.5,304C 213.286,306.274 206.619,309.607 200.5,314C 194.508,316.102 188.841,318.769 183.5,322C 177.627,323.57 171.96,325.403 166.5,327.5C 163.219,327.58 160.219,326.913 157.5,325.5C 184.583,319.783 209.25,308.95 231.5,293C 233.788,289.188 237.121,286.855 241.5,286C 256.288,274.213 270.121,261.379 283,247.5C 283.483,246.552 283.649,245.552 283.5,244.5C 292.984,233.865 298.984,221.531 301.5,207.5C 301.5,208.833 301.5,210.167 301.5,211.5C 300.588,212.738 300.421,214.072 301,215.5C 301.637,213.697 302.803,212.364 304.5,211.5C 320.217,184.34 328.884,155.007 330.5,123.5 Z"/></g>
<g><path style="opacity:1" fill="#81fe00" d="M 135.5,171.5 C 134.346,174.452 133.346,177.452 132.5,180.5C 118.313,185.421 103.979,185.754 89.5,181.5C 89.5,178.833 89.5,176.167 89.5,173.5C 105.063,177.892 120.396,177.226 135.5,171.5 Z"/></g>
<g><path style="opacity:1" fill="#2dfe0d" d="M 132.5,180.5 C 130.618,188.451 130.284,196.451 131.5,204.5C 130.523,207.287 130.19,210.287 130.5,213.5C 130.119,214.931 129.119,215.764 127.5,216C 114.793,218.059 102.126,217.892 89.5,215.5C 89.7845,213.585 89.4511,211.919 88.5,210.5C 88.4675,200.817 88.8008,191.151 89.5,181.5C 103.979,185.754 118.313,185.421 132.5,180.5 Z"/></g>
<g><path style="opacity:0.238" fill="#365581" d="M 93.5,146.5 C 93.5,147.5 93.5,148.5 93.5,149.5C 92.5655,150.568 92.2322,151.901 92.5,153.5C 92.1667,154.833 91.8333,156.167 91.5,157.5C 91.5,158.833 91.5,160.167 91.5,161.5C 90.5318,163.607 90.1984,165.941 90.5,168.5C 90.3713,170.216 90.038,171.883 89.5,173.5C 89.5,176.167 89.5,178.833 89.5,181.5C 88.8008,191.151 88.4675,200.817 88.5,210.5C 88.9157,215.493 89.2491,220.493 89.5,225.5C 89.5,227.167 89.5,228.833 89.5,230.5C 89.5172,232.565 89.8505,234.565 90.5,236.5C 90.5,238.167 90.5,239.833 90.5,241.5C 90.6287,243.216 90.962,244.883 91.5,246.5C 91.298,248.95 91.6314,251.283 92.5,253.5C 92.5,254.167 92.5,254.833 92.5,255.5C 91.8826,255.389 91.3826,255.056 91,254.5C 86.106,218.778 86.4394,183.112 92,147.5C 92.3826,146.944 92.8826,146.611 93.5,146.5 Z"/></g>
<g><path style="opacity:0.239" fill="#375583" d="M 338.5,147.5 C 339.117,147.611 339.617,147.944 340,148.5C 345.553,183.441 345.887,218.441 341,253.5C 340.617,254.056 340.117,254.389 339.5,254.5C 340.299,251.57 340.632,248.57 340.5,245.5C 341.388,242.946 341.721,240.279 341.5,237.5C 342.329,232.547 342.663,227.547 342.5,222.5C 342.5,220.5 342.5,218.5 342.5,216.5C 343.488,211.36 343.821,206.026 343.5,200.5C 343.693,196.434 343.36,192.434 342.5,188.5C 342.821,182.974 342.488,177.64 341.5,172.5C 341.497,167.473 341.164,162.473 340.5,157.5C 339.833,154.167 339.167,150.833 338.5,147.5 Z"/></g>
<g><path style="opacity:1" fill="#da00ff" d="M 338.5,144.5 C 338.5,145.5 338.5,146.5 338.5,147.5C 339.167,150.833 339.833,154.167 340.5,157.5C 334.397,184.98 323.897,210.646 309,234.5C 306.568,242.263 301.901,248.263 295,252.5C 294.667,253.833 294.333,255.167 294,256.5C 291.074,259.355 288.907,262.689 287.5,266.5C 278.992,273.843 270.658,281.343 262.5,289C 253.71,296.303 244.71,303.303 235.5,310C 221.96,316.603 208.626,323.436 195.5,330.5C 193.167,330.5 190.833,330.5 188.5,330.5C 204.54,322.979 220.207,314.645 235.5,305.5C 239.011,302.488 242.344,299.322 245.5,296C 249.713,293.4 253.713,290.567 257.5,287.5C 267.203,276.634 277.036,265.967 287,255.5C 308.196,231.124 323.196,203.124 332,171.5C 333.995,162.332 336.162,153.332 338.5,144.5 Z"/></g>
<g><path style="opacity:1" fill="#03fe54" d="M 88.5,210.5 C 89.4511,211.919 89.7845,213.585 89.5,215.5C 102.126,217.892 114.793,218.059 127.5,216C 129.119,215.764 130.119,214.931 130.5,213.5C 131.371,216.003 132.037,218.67 132.5,221.5C 132.719,222.675 132.386,223.675 131.5,224.5C 117.575,226.806 103.575,227.139 89.5,225.5C 89.2491,220.493 88.9157,215.493 88.5,210.5 Z"/></g>
<g><path style="opacity:1" fill="#c100fe" d="M 335.5,133.5 C 336.303,137.239 337.303,140.905 338.5,144.5C 336.162,153.332 333.995,162.332 332,171.5C 323.196,203.124 308.196,231.124 287,255.5C 277.036,265.967 267.203,276.634 257.5,287.5C 253.713,290.567 249.713,293.4 245.5,296C 242.344,299.322 239.011,302.488 235.5,305.5C 220.207,314.645 204.54,322.979 188.5,330.5C 182.511,329.774 176.511,329.107 170.5,328.5C 169.041,328.567 167.708,328.234 166.5,327.5C 171.96,325.403 177.627,323.57 183.5,322C 188.841,318.769 194.508,316.102 200.5,314C 206.619,309.607 213.286,306.274 220.5,304C 226.647,300.284 232.647,296.284 238.5,292C 239.833,291.667 241.167,291.333 242.5,291C 255.875,279.966 268.708,268.133 281,255.5C 289.792,243.537 298.792,231.87 308,220.5C 309.276,215.946 311.109,211.613 313.5,207.5C 316.24,202.786 319.073,198.119 322,193.5C 324.045,182.211 327.045,171.211 331,160.5C 332.497,151.337 333.997,142.337 335.5,133.5 Z"/></g>
<g><path style="opacity:1" fill="#f0f5fe" d="M 134.5,211.5 C 187.95,213.489 241.617,214.156 295.5,213.5C 289.966,226.697 280.966,236.697 268.5,243.5C 232.167,243.5 195.833,243.5 159.5,243.5C 146.853,236.206 138.519,225.54 134.5,211.5 Z"/></g>
<g><path style="opacity:1" fill="#04fd7e" d="M 132.5,221.5 C 133.738,223.214 134.405,225.214 134.5,227.5C 134.209,228.649 133.376,229.316 132,229.5C 117.885,231.816 103.719,232.149 89.5,230.5C 89.5,228.833 89.5,227.167 89.5,225.5C 103.575,227.139 117.575,226.806 131.5,224.5C 132.386,223.675 132.719,222.675 132.5,221.5 Z"/></g>
<g><path style="opacity:1" fill="#02fea0" d="M 134.5,227.5 C 135.492,229.456 136.492,231.456 137.5,233.5C 137.423,234.75 136.756,235.583 135.5,236C 120.462,238.939 105.462,239.105 90.5,236.5C 89.8505,234.565 89.5172,232.565 89.5,230.5C 103.719,232.149 117.885,231.816 132,229.5C 133.376,229.316 134.209,228.649 134.5,227.5 Z"/></g>
<g><path style="opacity:1" fill="#01febb" d="M 137.5,233.5 C 138.906,233.973 139.573,234.973 139.5,236.5C 139.414,237.496 139.748,238.329 140.5,239C 124.02,243.588 107.353,244.422 90.5,241.5C 90.5,239.833 90.5,238.167 90.5,236.5C 105.462,239.105 120.462,238.939 135.5,236C 136.756,235.583 137.423,234.75 137.5,233.5 Z"/></g>
<g><path style="opacity:1" fill="#3b66a5" d="M 131.5,204.5 C 132.055,207.096 133.055,209.429 134.5,211.5C 138.519,225.54 146.853,236.206 159.5,243.5C 161.146,245.751 163.313,247.418 166,248.5C 166.939,253.136 166.439,257.469 164.5,261.5C 164.167,260.5 163.5,259.833 162.5,259.5C 161.5,257.833 160.167,256.5 158.5,255.5C 156.589,254.925 154.922,253.925 153.5,252.5C 152.167,250.5 150.5,248.833 148.5,247.5C 146.471,245.142 144.471,242.808 142.5,240.5C 141.974,238.77 140.974,237.436 139.5,236.5C 139.573,234.973 138.906,233.973 137.5,233.5C 136.492,231.456 135.492,229.456 134.5,227.5C 134.405,225.214 133.738,223.214 132.5,221.5C 132.037,218.67 131.371,216.003 130.5,213.5C 130.19,210.287 130.523,207.287 131.5,204.5 Z"/></g>
<g><path style="opacity:1" fill="#01fed4" d="M 139.5,236.5 C 140.974,237.436 141.974,238.77 142.5,240.5C 143.171,241.847 143.171,243.014 142.5,244C 125.631,247.558 108.631,248.392 91.5,246.5C 90.962,244.883 90.6287,243.216 90.5,241.5C 107.353,244.422 124.02,243.588 140.5,239C 139.748,238.329 139.414,237.496 139.5,236.5 Z"/></g>
<g><path style="opacity:1" fill="#e0ebfd" d="M 159.5,243.5 C 195.833,243.5 232.167,243.5 268.5,243.5C 247.907,256.942 225.241,262.276 200.5,259.5C 196.146,261.344 192.479,264.177 189.5,268C 179.745,272.92 169.411,274.754 158.5,273.5C 157.957,273.44 157.624,273.107 157.5,272.5C 158.193,271.482 158.859,270.482 159.5,269.5C 161.063,268.055 162.396,266.389 163.5,264.5C 164.11,263.609 164.443,262.609 164.5,261.5C 166.439,257.469 166.939,253.136 166,248.5C 163.313,247.418 161.146,245.751 159.5,243.5 Z"/></g>
<g><path style="opacity:1" fill="#fe008a" d="M 342.5,222.5 C 342.663,227.547 342.329,232.547 341.5,237.5C 331.918,253.644 321.085,268.977 309,283.5C 299.5,291.667 290.667,300.5 282.5,310C 275.353,313.786 268.687,318.453 262.5,324C 258.809,324.55 256.143,326.383 254.5,329.5C 252.5,329.5 250.5,329.5 248.5,329.5C 283.239,306.927 311.405,277.927 333,242.5C 335.391,235.389 338.557,228.722 342.5,222.5 Z"/></g>
<g><path style="opacity:1" fill="#02fdf2" d="M 142.5,240.5 C 144.471,242.808 146.471,245.142 148.5,247.5C 148.423,248.75 147.756,249.583 146.5,250C 128.706,254.397 110.706,255.564 92.5,253.5C 91.6314,251.283 91.298,248.95 91.5,246.5C 108.631,248.392 125.631,247.558 142.5,244C 143.171,243.014 143.171,241.847 142.5,240.5 Z"/></g>
<g><path style="opacity:1" fill="#fe01d8" d="M 342.5,188.5 C 343.36,192.434 343.693,196.434 343.5,200.5C 337.907,213.02 331.74,225.354 325,237.5C 317.453,246.435 310.453,255.769 304,265.5C 293.986,275.347 284.152,285.347 274.5,295.5C 267.012,300.828 260.012,306.661 253.5,313C 243.915,319.05 234.915,324.883 226.5,330.5C 219.5,331.833 212.5,331.833 205.5,330.5C 205.833,330.5 206.167,330.5 206.5,330.5C 208.527,330.662 210.527,330.495 212.5,330C 229.481,321.42 246.148,312.253 262.5,302.5C 299.529,272.078 326.196,234.078 342.5,188.5 Z"/></g>
<g><path style="opacity:1" fill="#ff00ee" d="M 341.5,172.5 C 342.488,177.64 342.821,182.974 342.5,188.5C 326.196,234.078 299.529,272.078 262.5,302.5C 246.148,312.253 229.481,321.42 212.5,330C 210.527,330.495 208.527,330.662 206.5,330.5C 275.755,298.715 320.755,246.048 341.5,172.5 Z"/></g>
<g><path style="opacity:1" fill="#fe00be" d="M 343.5,200.5 C 343.821,206.026 343.488,211.36 342.5,216.5C 342.631,215.761 342.464,215.094 342,214.5C 325.535,250.271 302.368,280.771 272.5,306C 261.117,314.681 249.45,322.848 237.5,330.5C 233.833,330.5 230.167,330.5 226.5,330.5C 234.915,324.883 243.915,319.05 253.5,313C 260.012,306.661 267.012,300.828 274.5,295.5C 284.152,285.347 293.986,275.347 304,265.5C 310.453,255.769 317.453,246.435 325,237.5C 331.74,225.354 337.907,213.02 343.5,200.5 Z"/></g>
<g><path style="opacity:1" fill="#02e5fe" d="M 148.5,247.5 C 150.5,248.833 152.167,250.5 153.5,252.5C 153.119,253.931 152.119,254.764 150.5,255C 131.78,259.605 112.78,261.439 93.5,260.5C 92.962,258.883 92.6287,257.216 92.5,255.5C 92.5,254.833 92.5,254.167 92.5,253.5C 110.706,255.564 128.706,254.397 146.5,250C 147.756,249.583 148.423,248.75 148.5,247.5 Z"/></g>
<g><path style="opacity:1" fill="#3762a6" d="M 300.5,198.5 C 301.159,201.455 301.492,204.455 301.5,207.5C 298.984,221.531 292.984,233.865 283.5,244.5C 273.348,254.334 261.681,261.667 248.5,266.5C 239.446,268.775 230.446,270.775 221.5,272.5C 213.826,272.334 206.159,272.5 198.5,273C 188.737,282.312 177.07,286.812 163.5,286.5C 162.833,285.833 162.167,285.167 161.5,284.5C 160.781,282.236 160.448,279.903 160.5,277.5C 161.627,276.878 162.627,276.045 163.5,275C 161.618,274.802 159.952,274.302 158.5,273.5C 169.411,274.754 179.745,272.92 189.5,268C 192.479,264.177 196.146,261.344 200.5,259.5C 225.241,262.276 247.907,256.942 268.5,243.5C 280.966,236.697 289.966,226.697 295.5,213.5C 298.038,208.765 299.705,203.765 300.5,198.5 Z"/></g>
<g><path style="opacity:1" fill="#01cefe" d="M 153.5,252.5 C 154.922,253.925 156.589,254.925 158.5,255.5C 158.414,256.496 158.748,257.329 159.5,258C 153.595,259.977 147.595,261.643 141.5,263C 130.996,263.782 120.496,264.616 110,265.5C 104.664,265.397 99.1644,264.73 93.5,263.5C 93.5,262.5 93.5,261.5 93.5,260.5C 112.78,261.439 131.78,259.605 150.5,255C 152.119,254.764 153.119,253.931 153.5,252.5 Z"/></g>
<g><path style="opacity:1" fill="#05b6fd" d="M 158.5,255.5 C 160.167,256.5 161.5,257.833 162.5,259.5C 140.658,267.473 117.991,270.139 94.5,267.5C 94.1667,266.167 93.8333,264.833 93.5,263.5C 99.1644,264.73 104.664,265.397 110,265.5C 120.496,264.616 130.996,263.782 141.5,263C 147.595,261.643 153.595,259.977 159.5,258C 158.748,257.329 158.414,256.496 158.5,255.5 Z"/></g>
<g><path style="opacity:1" fill="#05a2fd" d="M 162.5,259.5 C 163.5,259.833 164.167,260.5 164.5,261.5C 164.443,262.609 164.11,263.609 163.5,264.5C 142.589,272.175 121.089,274.842 99,272.5C 97.8118,273.563 97.3118,274.897 97.5,276.5C 96.6326,273.557 95.6326,270.557 94.5,267.5C 117.991,270.139 140.658,267.473 162.5,259.5 Z"/></g>
<g><path style="opacity:1" fill="#068bfc" d="M 163.5,264.5 C 162.396,266.389 161.063,268.055 159.5,269.5C 149.379,270.858 139.379,272.858 129.5,275.5C 119.164,276.068 108.83,276.735 98.5,277.5C 99.2458,278.736 99.5792,280.07 99.5,281.5C 98.0687,280.22 97.4021,278.553 97.5,276.5C 97.3118,274.897 97.8118,273.563 99,272.5C 121.089,274.842 142.589,272.175 163.5,264.5 Z"/></g>
<g><path style="opacity:1" fill="#ff00a2" d="M 342.5,216.5 C 342.5,218.5 342.5,220.5 342.5,222.5C 338.557,228.722 335.391,235.389 333,242.5C 311.405,277.927 283.239,306.927 248.5,329.5C 244.901,330.344 241.234,330.677 237.5,330.5C 249.45,322.848 261.117,314.681 272.5,306C 302.368,280.771 325.535,250.271 342,214.5C 342.464,215.094 342.631,215.761 342.5,216.5 Z"/></g>
<g><path style="opacity:1" fill="#0275fe" d="M 159.5,269.5 C 158.859,270.482 158.193,271.482 157.5,272.5C 157.624,273.107 157.957,273.44 158.5,273.5C 159.952,274.302 161.618,274.802 163.5,275C 162.627,276.045 161.627,276.878 160.5,277.5C 159.726,276.853 158.726,276.52 157.5,276.5C 138.797,281.282 119.797,283.282 100.5,282.5C 100.5,281.833 100.167,281.5 99.5,281.5C 99.5792,280.07 99.2458,278.736 98.5,277.5C 108.83,276.735 119.164,276.068 129.5,275.5C 139.379,272.858 149.379,270.858 159.5,269.5 Z"/></g>
<g><path style="opacity:1" fill="#015afe" d="M 160.5,277.5 C 160.448,279.903 160.781,282.236 161.5,284.5C 159.744,283.448 159.077,281.781 159.5,279.5C 141.355,284.137 123.522,285.803 106,284.5C 104.887,285.305 103.721,285.972 102.5,286.5C 101.833,285.167 101.167,283.833 100.5,282.5C 119.797,283.282 138.797,281.282 157.5,276.5C 158.726,276.52 159.726,276.853 160.5,277.5 Z"/></g>
<g><path style="opacity:1" fill="#fe002b" d="M 336.5,267.5 C 330.929,291.385 317.262,308.718 295.5,319.5C 292.888,320.371 290.221,321.037 287.5,321.5C 295.75,313.422 304.25,305.422 313,297.5C 314.439,295.725 315.439,293.725 316,291.5C 322.366,285.469 328.366,279.136 334,272.5C 334.374,270.509 335.207,268.842 336.5,267.5 Z"/></g>
<g><path style="opacity:1" fill="#013ffe" d="M 161.5,284.5 C 162.167,285.167 162.833,285.833 163.5,286.5C 161.801,286.38 160.135,286.046 158.5,285.5C 140.879,290.243 123.212,292.576 105.5,292.5C 103.975,290.784 102.975,288.784 102.5,286.5C 103.721,285.972 104.887,285.305 106,284.5C 123.522,285.803 141.355,284.137 159.5,279.5C 159.077,281.781 159.744,283.448 161.5,284.5 Z"/></g>
<g><path style="opacity:1" fill="#fe0057" d="M 340.5,245.5 C 340.632,248.57 340.299,251.57 339.5,254.5C 339.212,257.939 338.546,261.272 337.5,264.5C 331.851,269.828 326.851,275.828 322.5,282.5C 308.506,295.827 294.839,309.494 281.5,323.5C 281.5,323.833 281.5,324.167 281.5,324.5C 277.864,325.326 274.197,325.992 270.5,326.5C 269.262,326.19 269.262,325.69 270.5,325C 286.225,312.948 301.059,299.781 315,285.5C 317.19,280.637 320.19,276.304 324,272.5C 328.993,263.179 334.493,254.179 340.5,245.5 Z"/></g>
<g><path style="opacity:1" fill="#1109fe" d="M 221.5,272.5 C 222.978,272.238 224.311,272.571 225.5,273.5C 194.12,296.738 158.786,308.404 119.5,308.5C 113.9,303.956 109.234,298.623 105.5,292.5C 123.212,292.576 140.879,290.243 158.5,285.5C 160.135,286.046 161.801,286.38 163.5,286.5C 177.07,286.812 188.737,282.312 198.5,273C 206.159,272.5 213.826,272.334 221.5,272.5 Z"/></g>
<g><path style="opacity:1" fill="#ff0047" d="M 337.5,264.5 C 337.737,265.791 337.404,266.791 336.5,267.5C 335.207,268.842 334.374,270.509 334,272.5C 328.366,279.136 322.366,285.469 316,291.5C 315.439,293.725 314.439,295.725 313,297.5C 304.25,305.422 295.75,313.422 287.5,321.5C 285.786,322.738 283.786,323.405 281.5,323.5C 294.839,309.494 308.506,295.827 322.5,282.5C 326.851,275.828 331.851,269.828 337.5,264.5 Z"/></g>
<g><path style="opacity:1" fill="#4900fe" d="M 248.5,266.5 C 246.947,271.553 243.614,274.72 238.5,276C 236.343,277.912 234.009,279.579 231.5,281C 229.147,284.349 226.48,287.349 223.5,290C 217.462,293.013 211.796,296.513 206.5,300.5C 185.211,308.374 163.544,315.041 141.5,320.5C 139.784,320.371 138.117,320.038 136.5,319.5C 130.585,316.258 124.918,312.591 119.5,308.5C 158.786,308.404 194.12,296.738 225.5,273.5C 224.311,272.571 222.978,272.238 221.5,272.5C 230.446,270.775 239.446,268.775 248.5,266.5 Z"/></g>
<g><path style="opacity:1" fill="#7e01fe" d="M 283.5,244.5 C 283.649,245.552 283.483,246.552 283,247.5C 270.121,261.379 256.288,274.213 241.5,286C 237.121,286.855 233.788,289.188 231.5,293C 209.25,308.95 184.583,319.783 157.5,325.5C 155.139,325.326 152.806,324.993 150.5,324.5C 147.5,323.167 144.5,321.833 141.5,320.5C 163.544,315.041 185.211,308.374 206.5,300.5C 211.796,296.513 217.462,293.013 223.5,290C 226.48,287.349 229.147,284.349 231.5,281C 234.009,279.579 236.343,277.912 238.5,276C 243.614,274.72 246.947,271.553 248.5,266.5C 261.681,261.667 273.348,254.334 283.5,244.5 Z"/></g>
<g><path style="opacity:1" fill="#fe0075" d="M 341.5,237.5 C 341.721,240.279 341.388,242.946 340.5,245.5C 334.493,254.179 328.993,263.179 324,272.5C 320.19,276.304 317.19,280.637 315,285.5C 301.059,299.781 286.225,312.948 270.5,325C 269.262,325.69 269.262,326.19 270.5,326.5C 267.689,327.475 264.689,328.142 261.5,328.5C 259.139,328.674 256.806,329.007 254.5,329.5C 256.143,326.383 258.809,324.55 262.5,324C 268.687,318.453 275.353,313.786 282.5,310C 290.667,300.5 299.5,291.667 309,283.5C 321.085,268.977 331.918,253.644 341.5,237.5 Z"/></g>
<g><path style="opacity:0.4" fill="#2e4d7c" d="M 136.5,319.5 C 138.117,320.038 139.784,320.371 141.5,320.5C 144.5,321.833 147.5,323.167 150.5,324.5C 145.297,323.991 140.63,322.324 136.5,319.5 Z"/></g>
<g><path style="opacity:0.573" fill="#2d4c7a" d="M 295.5,319.5 C 291.37,322.324 286.703,323.991 281.5,324.5C 281.5,324.167 281.5,323.833 281.5,323.5C 283.786,323.405 285.786,322.738 287.5,321.5C 290.221,321.037 292.888,320.371 295.5,319.5 Z"/></g>
<g><path style="opacity:0.372" fill="#233b60" d="M 170.5,328.5 C 176.511,329.107 182.511,329.774 188.5,330.5C 190.833,330.5 193.167,330.5 195.5,330.5C 198.833,330.5 202.167,330.5 205.5,330.5C 212.5,331.833 219.5,331.833 226.5,330.5C 230.167,330.5 233.833,330.5 237.5,330.5C 241.234,330.677 244.901,330.344 248.5,329.5C 250.5,329.5 252.5,329.5 254.5,329.5C 256.806,329.007 259.139,328.674 261.5,328.5C 258.299,330.26 254.633,331.094 250.5,331C 224.13,333.235 197.797,332.902 171.5,330C 170.944,329.617 170.611,329.117 170.5,328.5 Z"/></g>
</svg>
