<?xml version="1.0" encoding="UTF-8"?>
<!DOCTYPE svg PUBLIC "-//W3C//DTD SVG 1.1//EN" "http://www.w3.org/Graphics/SVG/1.1/DTD/svg11.dtd">
<svg xmlns="http://www.w3.org/2000/svg" version="1.1" width="256px" height="256px" style="shape-rendering:geometricPrecision; text-rendering:geometricPrecision; image-rendering:optimizeQuality; fill-rule:evenodd; clip-rule:evenodd" xmlns:xlink="http://www.w3.org/1999/xlink">
<g><path style="opacity:0.988" fill="#7d01fc" d="M 111.5,0.5 C 104.671,8.16194 97.3378,15.3286 89.5,22C 90.448,22.4828 91.448,22.6495 92.5,22.5C 90.9236,23.1429 89.5903,24.1429 88.5,25.5C 87.5,25.8333 86.8333,26.5 86.5,27.5C 83.5293,29.4426 81.5293,32.1092 80.5,35.5C 77.7498,39.3108 74.7498,42.9775 71.5,46.5C 69.3131,47.758 66.9798,48.758 64.5,49.5C 56.555,50.4368 48.555,50.7701 40.5,50.5C 40.6107,49.8826 40.944,49.3826 41.5,49C 44.6946,48.8195 47.6946,48.3195 50.5,47.5C 50.4828,45.4352 50.1495,43.4352 49.5,41.5C 50.4959,41.4142 51.3292,41.7476 52,42.5C 65.3921,29.9388 78.5588,17.2721 91.5,4.5C 97.8698,2.24619 104.536,0.912859 111.5,0.5 Z"/></g>
<g><path style="opacity:1" fill="#3107fe" d="M 111.5,-0.5 C 121.833,-0.5 132.167,-0.5 142.5,-0.5C 150.279,1.02808 157.945,3.02808 165.5,5.5C 159.758,9.73467 154.425,14.568 149.5,20C 147.942,20.21 146.609,20.71 145.5,21.5C 127.799,21.2074 110.132,21.5407 92.5,22.5C 91.448,22.6495 90.448,22.4828 89.5,22C 97.3378,15.3286 104.671,8.16194 111.5,0.5C 111.5,0.166667 111.5,-0.166667 111.5,-0.5 Z"/></g>
<g><path style="opacity:1" fill="#0138fe" d="M 165.5,5.5 C 168.785,5.92809 171.785,6.92809 174.5,8.5C 169.259,11.7348 164.592,15.7348 160.5,20.5C 159.583,21.1272 158.583,21.4606 157.5,21.5C 153.5,21.5 149.5,21.5 145.5,21.5C 146.609,20.71 147.942,20.21 149.5,20C 154.425,14.568 159.758,9.73467 165.5,5.5 Z"/></g>
<g><path style="opacity:0.995" fill="#a500fe" d="M 91.5,4.5 C 78.5588,17.2721 65.3921,29.9388 52,42.5C 51.3292,41.7476 50.4959,41.4142 49.5,41.5C 49.4894,39.9826 48.8228,38.8159 47.5,38C 57.3116,29.3553 66.645,20.1887 75.5,10.5C 80.3992,7.53101 85.7326,5.53101 91.5,4.5 Z"/></g>
<g><path style="opacity:0.968" fill="#2253e2" d="M 174.5,8.5 C 177.022,9.0115 179.355,10.0115 181.5,11.5C 177.17,16.6633 172.336,21.33 167,25.5C 165.103,23.9837 162.936,23.317 160.5,23.5C 139.167,23.5 117.833,23.5 96.5,23.5C 116.833,22.8333 137.167,22.1667 157.5,21.5C 158.583,21.4606 159.583,21.1272 160.5,20.5C 164.592,15.7348 169.259,11.7348 174.5,8.5 Z"/></g>
<g><path style="opacity:0.96" fill="#bc00fc" d="M 75.5,10.5 C 66.645,20.1887 57.3116,29.3553 47.5,38C 48.8228,38.8159 49.4894,39.9826 49.5,41.5C 48.7109,41.2172 48.0442,40.7172 47.5,40C 42.8452,39.5008 38.1785,39.3342 33.5,39.5C 45.3136,26.6896 59.3136,17.023 75.5,10.5 Z"/></g>
<g><path style="opacity:0.977" fill="#0378fc" d="M 181.5,11.5 C 183.819,11.9925 185.819,12.9925 187.5,14.5C 182.536,19.9647 177.37,25.298 172,30.5C 171.329,29.7476 170.496,29.4142 169.5,29.5C 166.968,26.7711 163.968,24.7711 160.5,23.5C 162.936,23.317 165.103,23.9837 167,25.5C 172.336,21.33 177.17,16.6633 181.5,11.5 Z"/></g>
<g><path style="opacity:0.988" fill="#0291fd" d="M 187.5,14.5 C 189.483,15.4706 191.483,16.4706 193.5,17.5C 188.112,23.3907 182.446,29.2241 176.5,35C 175.552,35.4828 174.552,35.6495 173.5,35.5C 172.559,33.2279 171.226,31.2279 169.5,29.5C 170.496,29.4142 171.329,29.7476 172,30.5C 177.37,25.298 182.536,19.9647 187.5,14.5 Z"/></g>
<g><path style="opacity:0.98" fill="#01abfe" d="M 193.5,17.5 C 195.5,18.8333 197.5,20.1667 199.5,21.5C 193.148,28.3516 186.648,35.0183 180,41.5C 179.329,40.7476 178.496,40.4142 177.5,40.5C 176.167,38.8333 174.833,37.1667 173.5,35.5C 174.552,35.6495 175.552,35.4828 176.5,35C 182.446,29.2241 188.112,23.3907 193.5,17.5 Z"/></g>
<g><path style="opacity:1" fill="#2d1ec5" d="M 145.5,21.5 C 149.5,21.5 153.5,21.5 157.5,21.5C 137.167,22.1667 116.833,22.8333 96.5,23.5C 93.779,23.9628 91.1123,24.6295 88.5,25.5C 89.5903,24.1429 90.9236,23.1429 92.5,22.5C 110.132,21.5407 127.799,21.2074 145.5,21.5 Z"/></g>
<g><path style="opacity:1" fill="#464647" d="M 96.5,23.5 C 117.833,23.5 139.167,23.5 160.5,23.5C 163.968,24.7711 166.968,26.7711 169.5,29.5C 171.226,31.2279 172.559,33.2279 173.5,35.5C 174.833,37.1667 176.167,38.8333 177.5,40.5C 178.921,43.0094 180.588,45.3428 182.5,47.5C 145.543,46.5126 108.543,46.1793 71.5,46.5C 74.7498,42.9775 77.7498,39.3108 80.5,35.5C 82.984,33.1997 84.984,30.5331 86.5,27.5C 86.8333,26.5 87.5,25.8333 88.5,25.5C 91.1123,24.6295 93.779,23.9628 96.5,23.5 Z"/></g>
<g><path style="opacity:0.982" fill="#0cbef6" d="M 199.5,21.5 C 201.389,22.604 203.055,23.9373 204.5,25.5C 197.978,32.8561 190.978,39.6895 183.5,46C 184.381,46.7083 185.047,47.5416 185.5,48.5C 184.391,48.4431 183.391,48.1098 182.5,47.5C 180.588,45.3428 178.921,43.0094 177.5,40.5C 178.496,40.4142 179.329,40.7476 180,41.5C 186.648,35.0183 193.148,28.3516 199.5,21.5 Z"/></g>
<g><path style="opacity:0.968" fill="#05d9fa" d="M 204.5,25.5 C 207.109,26.4431 209.109,28.1097 210.5,30.5C 203.556,35.7751 197.223,41.7751 191.5,48.5C 192.602,49.1757 193.602,49.8423 194.5,50.5C 191.171,50.7847 188.171,50.1181 185.5,48.5C 185.047,47.5416 184.381,46.7083 183.5,46C 190.978,39.6895 197.978,32.8561 204.5,25.5 Z"/></g>
<g><path style="opacity:1" fill="#4c357a" d="M 86.5,27.5 C 84.984,30.5331 82.984,33.1997 80.5,35.5C 81.5293,32.1092 83.5293,29.4426 86.5,27.5 Z"/></g>
<g><path style="opacity:0.955" fill="#01f6fd" d="M 210.5,30.5 C 212.54,32.177 214.54,33.8437 216.5,35.5C 210.472,40.5337 204.472,45.5337 198.5,50.5C 197.167,50.5 195.833,50.5 194.5,50.5C 193.602,49.8423 192.602,49.1757 191.5,48.5C 197.223,41.7751 203.556,35.7751 210.5,30.5 Z"/></g>
<g><path style="opacity:0.987" fill="#01fde9" d="M 216.5,35.5 C 218.167,36.5 219.5,37.8333 220.5,39.5C 216.564,42.954 212.897,46.6206 209.5,50.5C 205.833,50.5 202.167,50.5 198.5,50.5C 204.472,45.5337 210.472,40.5337 216.5,35.5 Z"/></g>
<g><path style="opacity:0.965" fill="#04fbce" d="M 220.5,39.5 C 223.878,42.8761 226.878,46.5428 229.5,50.5C 222.833,50.5 216.167,50.5 209.5,50.5C 212.897,46.6206 216.564,42.954 220.5,39.5 Z"/></g>
<g><path style="opacity:1" fill="#694e8f" d="M 33.5,39.5 C 38.1785,39.3342 42.8452,39.5008 47.5,40C 48.0442,40.7172 48.7109,41.2172 49.5,41.5C 50.1495,43.4352 50.4828,45.4352 50.5,47.5C 44.1667,47.5 37.8333,47.5 31.5,47.5C 31.5,45.8333 31.5,44.1667 31.5,42.5C 32.1667,41.5 32.8333,40.5 33.5,39.5 Z"/></g>
<g><path style="opacity:0.997" fill="#414243" d="M 71.5,46.5 C 108.543,46.1793 145.543,46.5126 182.5,47.5C 183.391,48.1098 184.391,48.4431 185.5,48.5C 188.171,50.1181 191.171,50.7847 194.5,50.5C 195.833,50.5 197.167,50.5 198.5,50.5C 202.167,50.5 205.833,50.5 209.5,50.5C 216.167,50.5 222.833,50.5 229.5,50.5C 233.331,55.4888 236.664,60.8222 239.5,66.5C 210.5,66.5 181.5,66.5 152.5,66.5C 106.5,66.5 60.5,66.5 14.5,66.5C 17.2484,61.3343 20.2484,56.3343 23.5,51.5C 36.8375,51.6666 50.1708,51.4999 63.5,51C 64.056,50.6174 64.3893,50.1174 64.5,49.5C 66.9798,48.758 69.3131,47.758 71.5,46.5 Z"/></g>
<g><path style="opacity:1" fill="#a311e8" d="M 31.5,42.5 C 31.5,44.1667 31.5,45.8333 31.5,47.5C 37.8333,47.5 44.1667,47.5 50.5,47.5C 47.6946,48.3195 44.6946,48.8195 41.5,49C 40.944,49.3826 40.6107,49.8826 40.5,50.5C 35.1667,50.5 29.8333,50.5 24.5,50.5C 26.117,47.2157 28.4503,44.5491 31.5,42.5 Z"/></g>
<g><path style="opacity:1" fill="#552781" d="M 64.5,49.5 C 64.3893,50.1174 64.056,50.6174 63.5,51C 50.1708,51.4999 36.8375,51.6666 23.5,51.5C 23.5,50.8333 23.8333,50.5 24.5,50.5C 29.8333,50.5 35.1667,50.5 40.5,50.5C 48.555,50.7701 56.555,50.4368 64.5,49.5 Z"/></g>
<g><path style="opacity:1" fill="#420fe0" d="M 13.5,67.5 C 39.5,67.5 65.5,67.5 91.5,67.5C 94.5,68.1667 97.5,68.8333 100.5,69.5C 71.1828,70.4422 41.8495,70.7755 12.5,70.5C 12.5569,69.391 12.8902,68.391 13.5,67.5 Z"/></g>
<g><path style="opacity:1" fill="#0bec6c" d="M 220.5,67.5 C 227.167,67.5 233.833,67.5 240.5,67.5C 240.833,68.1667 241.167,68.8333 241.5,69.5C 234.159,69.6663 226.826,69.4997 219.5,69C 220.056,68.6174 220.389,68.1174 220.5,67.5 Z"/></g>
<g><path style="opacity:1" fill="#0941ef" d="M 91.5,67.5 C 100.9,67.1137 110.234,67.6137 119.5,69C 113.175,69.4995 106.842,69.6662 100.5,69.5C 97.5,68.8333 94.5,68.1667 91.5,67.5 Z"/></g>
<g><path style="opacity:1" fill="#2f53a5" d="M 13.5,67.5 C 13.5,66.8333 13.8333,66.5 14.5,66.5C 60.5,66.5 106.5,66.5 152.5,66.5C 152.5,66.8333 152.5,67.1667 152.5,67.5C 151.167,67.5 149.833,67.5 148.5,67.5C 144.818,67.3347 141.152,67.5014 137.5,68C 138.167,68.3333 138.833,68.6667 139.5,69C 136.964,69.1862 134.631,69.6862 132.5,70.5C 92.4023,71.8294 52.4023,71.8294 12.5,70.5C 41.8495,70.7755 71.1828,70.4422 100.5,69.5C 106.842,69.6662 113.175,69.4995 119.5,69C 110.234,67.6137 100.9,67.1137 91.5,67.5C 65.5,67.5 39.5,67.5 13.5,67.5 Z"/></g>
<g><path style="opacity:1" fill="#0b93e2" d="M 148.5,67.5 C 148.218,68.7777 147.551,69.7777 146.5,70.5C 141.833,70.5 137.167,70.5 132.5,70.5C 134.631,69.6862 136.964,69.1862 139.5,69C 138.833,68.6667 138.167,68.3333 137.5,68C 141.152,67.5014 144.818,67.3347 148.5,67.5 Z"/></g>
<g><path style="opacity:1" fill="#0ecde1" d="M 159.5,67.5 C 165.176,67.3339 170.843,67.5006 176.5,68C 175.167,68.3333 173.833,68.6667 172.5,69C 177.019,69.1753 181.353,69.6753 185.5,70.5C 179.167,70.5 172.833,70.5 166.5,70.5C 164.031,69.6829 161.365,69.1829 158.5,69C 159.056,68.6174 159.389,68.1174 159.5,67.5 Z"/></g>
<g><path style="opacity:1" fill="#27bfa4" d="M 152.5,67.5 C 152.5,67.1667 152.5,66.8333 152.5,66.5C 181.5,66.5 210.5,66.5 239.5,66.5C 240.167,66.5 240.5,66.8333 240.5,67.5C 233.833,67.5 227.167,67.5 220.5,67.5C 210.788,67.2142 201.121,67.7142 191.5,69C 197.348,69.1728 203.015,69.6728 208.5,70.5C 200.833,70.5 193.167,70.5 185.5,70.5C 181.353,69.6753 177.019,69.1753 172.5,69C 173.833,68.6667 175.167,68.3333 176.5,68C 170.843,67.5006 165.176,67.3339 159.5,67.5C 157.167,67.5 154.833,67.5 152.5,67.5 Z"/></g>
<g><path style="opacity:1" fill="#11e396" d="M 220.5,67.5 C 220.389,68.1174 220.056,68.6174 219.5,69C 226.826,69.4997 234.159,69.6663 241.5,69.5C 241.5,69.8333 241.5,70.1667 241.5,70.5C 230.5,70.5 219.5,70.5 208.5,70.5C 203.015,69.6728 197.348,69.1728 191.5,69C 201.121,67.7142 210.788,67.2142 220.5,67.5 Z"/></g>
<g><path style="opacity:1" fill="#10a4ce" d="M 148.5,67.5 C 149.833,67.5 151.167,67.5 152.5,67.5C 154.833,67.5 157.167,67.5 159.5,67.5C 159.389,68.1174 159.056,68.6174 158.5,69C 161.365,69.1829 164.031,69.6829 166.5,70.5C 159.833,70.5 153.167,70.5 146.5,70.5C 147.551,69.7777 148.218,68.7777 148.5,67.5 Z"/></g>
<g><path style="opacity:0.999" fill="#3c3d3c" d="M 12.5,70.5 C 52.4023,71.8294 92.4023,71.8294 132.5,70.5C 137.167,70.5 141.833,70.5 146.5,70.5C 153.167,70.5 159.833,70.5 166.5,70.5C 172.833,70.5 179.167,70.5 185.5,70.5C 193.167,70.5 200.833,70.5 208.5,70.5C 219.5,70.5 230.5,70.5 241.5,70.5C 242.931,71.7804 243.598,73.4471 243.5,75.5C 243.5,80.8333 243.5,86.1667 243.5,91.5C 223.787,91.1909 204.121,91.5242 184.5,92.5C 183.486,93.7647 181.986,94.4313 180,94.5C 177.719,94.4366 175.886,93.6032 174.5,92C 170.179,91.501 165.846,91.3343 161.5,91.5C 161.5,92.5 161.5,93.5 161.5,94.5C 156.045,90.6905 150.378,87.3572 144.5,84.5C 142.723,83.3995 140.723,82.5662 138.5,82C 131.167,81.3333 123.833,81.3333 116.5,82C 114.148,82.2401 112.148,83.0735 110.5,84.5C 103.675,86.2481 97.675,89.5814 92.5,94.5C 92.5,93.5 92.5,92.5 92.5,91.5C 65.1667,91.5 37.8333,91.5 10.5,91.5C 10.7373,90.209 10.404,89.209 9.5,88.5C 9.5,84.8333 9.5,81.1667 9.5,77.5C 10.2638,74.9823 11.2638,72.649 12.5,70.5 Z"/></g>
<g><path style="opacity:1" fill="#9b9c9d" d="M 144.5,84.5 C 133.167,83.1667 121.833,83.1667 110.5,84.5C 112.148,83.0735 114.148,82.2401 116.5,82C 123.833,81.3333 131.167,81.3333 138.5,82C 140.723,82.5662 142.723,83.3995 144.5,84.5 Z"/></g>
<g><path style="opacity:1" fill="#cca129" d="M 183.5,83.5 C 176.842,82.3445 174.842,84.8445 177.5,91C 179.81,91.4966 182.143,91.6633 184.5,91.5C 184.5,91.8333 184.5,92.1667 184.5,92.5C 178.978,94.947 175.644,93.2804 174.5,87.5C 175.683,81.4867 178.683,80.1534 183.5,83.5 Z"/></g>
<g><path style="opacity:1" fill="#fac31e" d="M 183.5,83.5 C 185.026,84.4919 185.693,85.9919 185.5,88C 185.486,89.3847 185.152,90.5514 184.5,91.5C 182.143,91.6633 179.81,91.4966 177.5,91C 174.842,84.8445 176.842,82.3445 183.5,83.5 Z"/></g>
<g><path style="opacity:1" fill="#353535" d="M 9.5,88.5 C 10.404,89.209 10.7373,90.209 10.5,91.5C 37.8333,91.5 65.1667,91.5 92.5,91.5C 92.5,92.5 92.5,93.5 92.5,94.5C 85.7556,100.564 81.0889,107.898 78.5,116.5C 77.7321,117.263 77.2321,118.263 77,119.5C 76.5005,125.825 76.3338,132.158 76.5,138.5C 75.5151,134.366 75.1818,130.032 75.5,125.5C 53.8333,125.5 32.1667,125.5 10.5,125.5C 9.62981,113.189 9.29647,100.856 9.5,88.5 Z"/></g>
<g><path style="opacity:1" fill="#363636" d="M 136.5,91.5 C 152.786,95.454 163.119,105.454 167.5,121.5C 167.5,122.833 167.5,124.167 167.5,125.5C 140.5,125.5 113.5,125.5 86.5,125.5C 85.3124,131.844 85.3124,138.178 86.5,144.5C 85.7321,143.737 85.2321,142.737 85,141.5C 84.5005,135.509 84.3338,129.509 84.5,123.5C 87.7164,112.251 94.0497,103.085 103.5,96C 106.327,94.3364 109.327,93.1697 112.5,92.5C 120.466,91.6351 128.466,91.3018 136.5,91.5 Z"/></g>
<g><path style="opacity:1" fill="#353535" d="M 184.5,92.5 C 204.121,91.5242 223.787,91.1909 243.5,91.5C 243.5,102.833 243.5,114.167 243.5,125.5C 221.833,125.5 200.167,125.5 178.5,125.5C 178.819,130.363 178.486,135.03 177.5,139.5C 177.666,133.824 177.499,128.157 177,122.5C 176.1,119.282 174.933,116.282 173.5,113.5C 171.18,106.165 167.18,99.8318 161.5,94.5C 161.5,93.5 161.5,92.5 161.5,91.5C 165.846,91.3343 170.179,91.501 174.5,92C 175.886,93.6032 177.719,94.4366 180,94.5C 181.986,94.4313 183.486,93.7647 184.5,92.5 Z"/></g>
<g><path style="opacity:0.881" fill="#7500fe" d="M 7.5,82.5 C 7.5,89.8333 7.5,97.1667 7.5,104.5C 5.42676,106.58 3.09343,108.246 0.5,109.5C 1.44851,100.036 3.78184,91.0355 7.5,82.5 Z"/></g>
<g><path style="opacity:1" fill="#bfbfc3" d="M 144.5,84.5 C 150.378,87.3572 156.045,90.6905 161.5,94.5C 167.18,99.8318 171.18,106.165 173.5,113.5C 173.814,116.947 174.648,120.28 176,123.5C 177.022,129.68 176.522,135.68 174.5,141.5C 173.311,142.429 171.978,142.762 170.5,142.5C 170.666,136.824 170.499,131.157 170,125.5C 169.392,123.934 168.558,122.6 167.5,121.5C 163.119,105.454 152.786,95.454 136.5,91.5C 133.114,90.0296 129.447,89.3629 125.5,89.5C 120.722,89.132 116.389,90.132 112.5,92.5C 109.327,93.1697 106.327,94.3364 103.5,96C 94.0497,103.085 87.7164,112.251 84.5,123.5C 83.5098,129.645 83.1765,135.978 83.5,142.5C 79.9621,142.785 78.1288,141.118 78,137.5C 77.3255,130.472 77.4921,123.472 78.5,116.5C 81.0889,107.898 85.7556,100.564 92.5,94.5C 97.675,89.5814 103.675,86.2481 110.5,84.5C 121.833,83.1667 133.167,83.1667 144.5,84.5 Z"/></g>
<g><path style="opacity:1" fill="#6f6f71" d="M 136.5,91.5 C 128.466,91.3018 120.466,91.6351 112.5,92.5C 116.389,90.132 120.722,89.132 125.5,89.5C 129.447,89.3629 133.114,90.0296 136.5,91.5 Z"/></g>
<g><path style="opacity:1" fill="#39552d" d="M 243.5,75.5 C 244.674,76.5137 245.34,77.847 245.5,79.5C 245.5,94.1667 245.5,108.833 245.5,123.5C 245.5,130.167 245.5,136.833 245.5,143.5C 245.5,153.833 245.5,164.167 245.5,174.5C 245.34,176.153 244.674,177.486 243.5,178.5C 243.5,160.833 243.5,143.167 243.5,125.5C 243.5,114.167 243.5,102.833 243.5,91.5C 243.5,86.1667 243.5,80.8333 243.5,75.5 Z"/></g>
<g><path style="opacity:0.982" fill="#3ffd02" d="M 245.5,79.5 C 251.493,93.4298 254.493,108.096 254.5,123.5C 251.844,125.656 249.344,127.989 247,130.5C 246.814,127.964 246.314,125.631 245.5,123.5C 245.5,108.833 245.5,94.1667 245.5,79.5 Z"/></g>
<g><path style="opacity:1" fill="#2e2e2e" d="M 9.5,77.5 C 9.5,81.1667 9.5,84.8333 9.5,88.5C 9.29647,100.856 9.62981,113.189 10.5,125.5C 32.1667,125.5 53.8333,125.5 75.5,125.5C 75.1818,130.032 75.5151,134.366 76.5,138.5C 79.8977,159.66 91.5643,173.993 111.5,181.5C 116.245,182.999 121.245,183.666 126.5,183.5C 130.018,183.498 133.351,183.165 136.5,182.5C 143.458,180.375 150.291,177.708 157,174.5C 161.328,169.173 165.994,164.173 171,159.5C 173.485,152.877 175.652,146.21 177.5,139.5C 178.486,135.03 178.819,130.363 178.5,125.5C 200.167,125.5 221.833,125.5 243.5,125.5C 243.5,143.167 243.5,160.833 243.5,178.5C 242.122,184.26 239.455,189.26 235.5,193.5C 188.167,193.5 140.833,193.5 93.5,193.5C 81.5,193.5 69.5,193.5 57.5,193.5C 44.1667,193.5 30.8333,193.5 17.5,193.5C 13.6997,187.565 10.6997,181.232 8.5,174.5C 8.5,142.833 8.5,111.167 8.5,79.5C 8.32842,78.5084 8.66175,77.8417 9.5,77.5 Z"/></g>
<g><path style="opacity:0.932" fill="#76fb01" d="M 245.5,123.5 C 246.314,125.631 246.814,127.964 247,130.5C 249.344,127.989 251.844,125.656 254.5,123.5C 254.5,128.833 254.5,134.167 254.5,139.5C 251.87,141.628 249.37,143.961 247,146.5C 246.768,145.263 246.268,144.263 245.5,143.5C 245.5,136.833 245.5,130.167 245.5,123.5 Z"/></g>
<g><path style="opacity:1" fill="#2b23d2" d="M 8.5,79.5 C 8.5,111.167 8.5,142.833 8.5,174.5C 6.59468,170.784 5.26135,166.784 4.5,162.5C 4.68535,160.804 5.51869,159.471 7,158.5C 7.49994,140.503 7.66661,122.503 7.5,104.5C 7.5,97.1667 7.5,89.8333 7.5,82.5C 7.26269,81.209 7.59603,80.209 8.5,79.5 Z"/></g>
<g><path style="opacity:0.894" fill="#2606fe" d="M 7.5,104.5 C 7.66661,122.503 7.49994,140.503 7,158.5C 5.51869,159.471 4.68535,160.804 4.5,162.5C 2.32345,155.947 0.65678,149.281 -0.5,142.5C -0.5,132.167 -0.5,121.833 -0.5,111.5C 0.338246,111.158 0.67158,110.492 0.5,109.5C 3.09343,108.246 5.42676,106.58 7.5,104.5 Z"/></g>
<g><path style="opacity:0.973" fill="#a8fb01" d="M 254.5,139.5 C 253.198,151.711 250.198,163.377 245.5,174.5C 245.5,164.167 245.5,153.833 245.5,143.5C 246.268,144.263 246.768,145.263 247,146.5C 249.37,143.961 251.87,141.628 254.5,139.5 Z"/></g>
<g><path style="opacity:1" fill="#a7a8ac" d="M 173.5,113.5 C 174.933,116.282 176.1,119.282 177,122.5C 177.499,128.157 177.666,133.824 177.5,139.5C 175.652,146.21 173.485,152.877 171,159.5C 165.994,164.173 161.328,169.173 157,174.5C 150.291,177.708 143.458,180.375 136.5,182.5C 128.149,182.518 119.816,182.185 111.5,181.5C 91.5643,173.993 79.8977,159.66 76.5,138.5C 76.3338,132.158 76.5005,125.825 77,119.5C 77.2321,118.263 77.7321,117.263 78.5,116.5C 77.4921,123.472 77.3255,130.472 78,137.5C 78.1288,141.118 79.9621,142.785 83.5,142.5C 83.1765,135.978 83.5098,129.645 84.5,123.5C 84.3338,129.509 84.5005,135.509 85,141.5C 85.2321,142.737 85.7321,143.737 86.5,144.5C 95.4514,167.984 112.451,177.484 137.5,173C 159.851,164.77 169.851,148.937 167.5,125.5C 167.5,124.167 167.5,122.833 167.5,121.5C 168.558,122.6 169.392,123.934 170,125.5C 170.499,131.157 170.666,136.824 170.5,142.5C 171.978,142.762 173.311,142.429 174.5,141.5C 176.522,135.68 177.022,129.68 176,123.5C 174.648,120.28 173.814,116.947 173.5,113.5 Z"/></g>
<g><path style="opacity:1" fill="#2f2f2f" d="M 167.5,125.5 C 169.851,148.937 159.851,164.77 137.5,173C 112.451,177.484 95.4514,167.984 86.5,144.5C 85.3124,138.178 85.3124,131.844 86.5,125.5C 113.5,125.5 140.5,125.5 167.5,125.5 Z"/></g>
<g><path style="opacity:1" fill="#737476" d="M 111.5,181.5 C 119.816,182.185 128.149,182.518 136.5,182.5C 133.351,183.165 130.018,183.498 126.5,183.5C 121.245,183.666 116.245,182.999 111.5,181.5 Z"/></g>
<g><path style="opacity:1" fill="#19acc2" d="M 17.5,193.5 C 30.8333,193.5 44.1667,193.5 57.5,193.5C 57.5,193.833 57.5,194.167 57.5,194.5C 51.4632,194.171 45.4632,194.504 39.5,195.5C 39.9569,196.298 40.6236,196.631 41.5,196.5C 41.5,196.833 41.5,197.167 41.5,197.5C 34.5,197.5 27.5,197.5 20.5,197.5C 19.5116,196.205 18.5116,194.872 17.5,193.5 Z"/></g>
<g><path style="opacity:1" fill="#0de3d2" d="M 57.5,194.5 C 58.9778,194.238 60.3112,194.571 61.5,195.5C 54.8665,196.497 48.1998,196.83 41.5,196.5C 40.6236,196.631 39.9569,196.298 39.5,195.5C 45.4632,194.504 51.4632,194.171 57.5,194.5 Z"/></g>
<g><path style="opacity:1" fill="#19c191" d="M 57.5,194.5 C 57.5,194.167 57.5,193.833 57.5,193.5C 69.5,193.5 81.5,193.5 93.5,193.5C 93.5,193.833 93.5,194.167 93.5,194.5C 88.1563,194.334 82.8229,194.501 77.5,195C 77.1667,195.333 76.8333,195.667 76.5,196C 78.4727,196.495 80.4727,196.662 82.5,196.5C 82.5,196.833 82.5,197.167 82.5,197.5C 68.8333,197.5 55.1667,197.5 41.5,197.5C 41.5,197.167 41.5,196.833 41.5,196.5C 48.1998,196.83 54.8665,196.497 61.5,195.5C 60.3112,194.571 58.9778,194.238 57.5,194.5 Z"/></g>
<g><path style="opacity:1" fill="#0ce47c" d="M 93.5,194.5 C 95.5,194.5 97.5,194.5 99.5,194.5C 99.1667,195.167 98.8333,195.833 98.5,196.5C 93.1667,196.5 87.8333,196.5 82.5,196.5C 80.4727,196.662 78.4727,196.495 76.5,196C 76.8333,195.667 77.1667,195.333 77.5,195C 82.8229,194.501 88.1563,194.334 93.5,194.5 Z"/></g>
<g><path style="opacity:1" fill="#34e520" d="M 99.5,194.5 C 129.169,194.333 158.835,194.5 188.5,195C 158.588,196.484 128.588,196.984 98.5,196.5C 98.8333,195.833 99.1667,195.167 99.5,194.5 Z"/></g>
<g><path style="opacity:1" fill="#71bd1d" d="M 93.5,194.5 C 93.5,194.167 93.5,193.833 93.5,193.5C 140.833,193.5 188.167,193.5 235.5,193.5C 235.5,193.833 235.5,194.167 235.5,194.5C 228.986,194.045 222.653,194.545 216.5,196C 222.491,196.499 228.491,196.666 234.5,196.5C 234.5,197.167 234.167,197.5 233.5,197.5C 183.167,197.5 132.833,197.5 82.5,197.5C 82.5,197.167 82.5,196.833 82.5,196.5C 87.8333,196.5 93.1667,196.5 98.5,196.5C 128.588,196.984 158.588,196.484 188.5,195C 158.835,194.5 129.169,194.333 99.5,194.5C 97.5,194.5 95.5,194.5 93.5,194.5 Z"/></g>
<g><path style="opacity:1" fill="#c2e50a" d="M 235.5,194.5 C 235.167,195.167 234.833,195.833 234.5,196.5C 228.491,196.666 222.491,196.499 216.5,196C 222.653,194.545 228.986,194.045 235.5,194.5 Z"/></g>
<g><path style="opacity:0.993" fill="#2b2e2b" d="M 20.5,197.5 C 27.5,197.5 34.5,197.5 41.5,197.5C 55.1667,197.5 68.8333,197.5 82.5,197.5C 132.833,197.5 183.167,197.5 233.5,197.5C 229.894,203.438 225.561,208.771 220.5,213.5C 158.167,213.5 95.8333,213.5 33.5,213.5C 28.4393,208.771 24.106,203.438 20.5,197.5 Z"/></g>
<g><path style="opacity:0.938" fill="#02fecc" d="M 33.5,214.5 C 38.5,214.5 43.5,214.5 48.5,214.5C 46.9092,217.431 44.9092,220.098 42.5,222.5C 38.8797,220.547 35.8797,217.881 33.5,214.5 Z"/></g>
<g><path style="opacity:0.982" fill="#01feac" d="M 48.5,214.5 C 52.226,214.177 55.8927,214.511 59.5,215.5C 55.8261,219.532 52.1594,223.532 48.5,227.5C 45.9108,226.581 43.9108,224.914 42.5,222.5C 44.9092,220.098 46.9092,217.431 48.5,214.5 Z"/></g>
<g><path style="opacity:0.975" fill="#4ada6c" d="M 33.5,214.5 C 33.5,214.167 33.5,213.833 33.5,213.5C 95.8333,213.5 158.167,213.5 220.5,213.5C 220.5,214.167 220.167,214.5 219.5,214.5C 215.5,214.5 211.5,214.5 207.5,214.5C 202.5,214.5 197.5,214.5 192.5,214.5C 189.5,214.5 186.5,214.5 183.5,214.5C 180.167,214.5 176.833,214.5 173.5,214.5C 170.167,214.5 166.833,214.5 163.5,214.5C 157.833,214.5 152.167,214.5 146.5,214.5C 132.5,214.5 118.5,214.5 104.5,214.5C 101.167,214.5 97.8333,214.5 94.5,214.5C 91.1667,214.5 87.8333,214.5 84.5,214.5C 79.456,214.173 74.456,214.506 69.5,215.5C 64.479,221.188 59.1457,226.521 53.5,231.5C 51.246,230.876 49.5794,229.543 48.5,227.5C 52.1594,223.532 55.8261,219.532 59.5,215.5C 55.8927,214.511 52.226,214.177 48.5,214.5C 43.5,214.5 38.5,214.5 33.5,214.5 Z"/></g>
<g><path style="opacity:0.988" fill="#01fe6f" d="M 84.5,214.5 C 77.4924,222.507 69.8258,229.841 61.5,236.5C 58.4887,235.331 55.822,233.664 53.5,231.5C 59.1457,226.521 64.479,221.188 69.5,215.5C 74.456,214.506 79.456,214.173 84.5,214.5 Z"/></g>
<g><path style="opacity:0.999" fill="#00fe53" d="M 84.5,214.5 C 87.8333,214.5 91.1667,214.5 94.5,214.5C 86.2141,224.261 76.8807,232.594 66.5,239.5C 64.5659,238.89 62.8993,237.89 61.5,236.5C 69.8258,229.841 77.4924,222.507 84.5,214.5 Z"/></g>
<g><path style="opacity:0.982" fill="#1bfe06" d="M 104.5,214.5 C 118.5,214.5 132.5,214.5 146.5,214.5C 133.281,227.264 120.281,240.264 107.5,253.5C 96.051,251.556 85.051,248.222 74.5,243.5C 84.5266,233.806 94.5266,224.139 104.5,214.5 Z"/></g>
<g><path style="opacity:0.992" fill="#5bfe00" d="M 146.5,214.5 C 152.167,214.5 157.833,214.5 163.5,214.5C 149.812,227.521 136.479,240.854 123.5,254.5C 118.138,254.528 112.805,254.194 107.5,253.5C 120.281,240.264 133.281,227.264 146.5,214.5 Z"/></g>
<g><path style="opacity:0.995" fill="#7afe00" d="M 163.5,214.5 C 166.833,214.5 170.167,214.5 173.5,214.5C 159.833,227.833 146.167,241.167 132.5,254.5C 129.5,254.5 126.5,254.5 123.5,254.5C 136.479,240.854 149.812,227.521 163.5,214.5 Z"/></g>
<g><path style="opacity:0.999" fill="#95fe00" d="M 173.5,214.5 C 176.833,214.5 180.167,214.5 183.5,214.5C 183.631,215.239 183.464,215.906 183,216.5C 169.941,228.728 157.108,241.061 144.5,253.5C 140.548,254.272 136.548,254.605 132.5,254.5C 146.167,241.167 159.833,227.833 173.5,214.5 Z"/></g>
<g><path style="opacity:0.988" fill="#b1fe00" d="M 183.5,214.5 C 186.5,214.5 189.5,214.5 192.5,214.5C 182.198,226.635 171.032,237.969 159,248.5C 158.536,249.094 158.369,249.761 158.5,250.5C 153.97,252.006 149.303,253.006 144.5,253.5C 157.108,241.061 169.941,228.728 183,216.5C 183.464,215.906 183.631,215.239 183.5,214.5 Z"/></g>
<g><path style="opacity:0.994" fill="#cffe00" d="M 192.5,214.5 C 197.5,214.5 202.5,214.5 207.5,214.5C 198.549,223.786 189.549,233.119 180.5,242.5C 173.755,246.529 166.422,249.195 158.5,250.5C 158.369,249.761 158.536,249.094 159,248.5C 171.032,237.969 182.198,226.635 192.5,214.5 Z"/></g>
<g><path style="opacity:0.968" fill="#eefe00" d="M 207.5,214.5 C 211.5,214.5 215.5,214.5 219.5,214.5C 218.797,216.716 217.464,218.549 215.5,220C 207.543,227.311 198.876,233.644 189.5,239C 186.691,240.741 183.691,241.908 180.5,242.5C 189.549,233.119 198.549,223.786 207.5,214.5 Z"/></g>
<g><path style="opacity:0.986" fill="#00fe3c" d="M 94.5,214.5 C 97.8333,214.5 101.167,214.5 104.5,214.5C 94.5266,224.139 84.5266,233.806 74.5,243.5C 71.5198,242.677 68.8531,241.343 66.5,239.5C 76.8807,232.594 86.2141,224.261 94.5,214.5 Z"/></g>
</svg>
