<?xml version="1.0" encoding="UTF-8"?>
<!DOCTYPE svg PUBLIC "-//W3C//DTD SVG 1.1//EN" "http://www.w3.org/Graphics/SVG/1.1/DTD/svg11.dtd">
<svg xmlns="http://www.w3.org/2000/svg" version="1.1" width="256px" height="256px" style="shape-rendering:geometricPrecision; text-rendering:geometricPrecision; image-rendering:optimizeQuality; fill-rule:evenodd; clip-rule:evenodd" xmlns:xlink="http://www.w3.org/1999/xlink">
<g><path style="opacity:0.88" fill="#fdf5f5" d="M 189.5,4.5 C 195.674,3.17289 197.841,5.50622 196,11.5C 193.5,14 191,16.5 188.5,19C 201.5,19.3333 214.5,19.6667 227.5,20C 232.667,21.1667 235.833,24.3333 237,29.5C 237.667,47.8333 237.667,66.1667 237,84.5C 234.333,87.1667 231.667,87.1667 229,84.5C 228.667,66.8333 228.333,49.1667 228,31.5C 227.692,30.6919 227.192,30.0253 226.5,29.5C 214.199,28.187 201.866,28.187 189.5,29.5C 191.483,31.9837 193.65,34.3171 196,36.5C 197.416,40.508 196.082,42.8413 192,43.5C 185.735,38.2381 179.735,32.5714 174,26.5C 173.294,24.0288 173.627,21.6954 175,19.5C 180.037,14.6313 184.87,9.63128 189.5,4.5 Z"/></g>
<g><path style="opacity:1" fill="#ff6d00" d="M 34.5,15.5 C 36.5,15.5 38.5,15.5 40.5,15.5C 32.7401,23.6001 24.4067,30.9334 15.5,37.5C 15.5,35.5 15.5,33.5 15.5,31.5C 22.4443,26.8888 28.7776,21.5555 34.5,15.5 Z"/></g>
<g><path style="opacity:1" fill="#ff3300" d="M 34.5,15.5 C 28.7776,21.5555 22.4443,26.8888 15.5,31.5C 15.6417,19.035 21.975,13.7017 34.5,15.5 Z"/></g>
<g><path style="opacity:1" fill="#ff9c00" d="M 40.5,15.5 C 41.8333,15.5 43.1667,15.5 44.5,15.5C 35.4552,24.8791 25.7885,33.5457 15.5,41.5C 15.5,40.1667 15.5,38.8333 15.5,37.5C 24.4067,30.9334 32.7401,23.6001 40.5,15.5 Z"/></g>
<g><path style="opacity:1" fill="#ffc200" d="M 44.5,15.5 C 45.8333,15.5 47.1667,15.5 48.5,15.5C 38.1242,26.2102 27.1242,36.2102 15.5,45.5C 15.5,44.1667 15.5,42.8333 15.5,41.5C 25.7885,33.5457 35.4552,24.8791 44.5,15.5 Z"/></g>
<g><path style="opacity:1" fill="#cbff00" d="M 58.5,15.5 C 59.8333,15.5 61.1667,15.5 62.5,15.5C 48.0632,28.0972 33.7299,40.9305 19.5,54C 18.255,54.7914 16.9217,55.2914 15.5,55.5C 15.5,54.5 15.5,53.5 15.5,52.5C 30.1338,40.5342 44.4671,28.2008 58.5,15.5 Z"/></g>
<g><path style="opacity:1" fill="#f0fe00" d="M 52.5,15.5 C 54.5,15.5 56.5,15.5 58.5,15.5C 44.4671,28.2008 30.1338,40.5342 15.5,52.5C 15.5,51.5 15.5,50.5 15.5,49.5C 23.2827,42.4376 31.2827,35.6042 39.5,29C 44.0643,24.6046 48.3977,20.1046 52.5,15.5 Z"/></g>
<g><path style="opacity:1" fill="#0b0bff" d="M 138.5,15.5 C 141.833,15.5 145.167,15.5 148.5,15.5C 143.226,18.8875 138.226,22.7208 133.5,27C 129.167,31.3333 124.833,35.6667 120.5,40C 113.394,43.2998 107.728,48.2998 103.5,55C 100.161,57.378 96.8273,59.7114 93.5,62C 92.0768,65.0918 89.7435,67.0918 86.5,68C 80.8203,75.3457 74.1536,81.6791 66.5,87C 60.1084,95.7177 52.1084,102.718 42.5,108C 41.87,109.892 40.87,111.559 39.5,113C 32.8696,118.65 25.8696,123.817 18.5,128.5C 17.2632,127.035 16.2632,125.368 15.5,123.5C 20.3203,119.523 25.3203,115.69 30.5,112C 40.202,101.636 50.8686,92.3024 62.5,84C 67.1125,78.7208 72.1125,73.7208 77.5,69C 89.6882,58.4184 102.022,48.085 114.5,38C 122.118,29.8751 130.118,22.3751 138.5,15.5 Z"/></g>
<g><path style="opacity:1" fill="#0032ff" d="M 134.5,15.5 C 135.833,15.5 137.167,15.5 138.5,15.5C 130.118,22.3751 122.118,29.8751 114.5,38C 102.022,48.085 89.6882,58.4184 77.5,69C 72.1125,73.7208 67.1125,78.7208 62.5,84C 50.8686,92.3024 40.202,101.636 30.5,112C 25.3203,115.69 20.3203,119.523 15.5,123.5C 15.5,122.833 15.5,122.167 15.5,121.5C 27.9583,111.732 39.9583,101.232 51.5,90C 54.5568,87.2774 57.8901,84.944 61.5,83C 66.1125,77.7208 71.1125,72.7208 76.5,68C 88.6882,57.4184 101.022,47.085 113.5,37C 117.704,32.9644 121.704,28.7978 125.5,24.5C 128.833,21.8333 131.833,18.8333 134.5,15.5 Z"/></g>
<g><path style="opacity:1" fill="#8fff00" d="M 62.5,15.5 C 65.1667,15.5 67.8333,15.5 70.5,15.5C 67.3707,19.1309 64.0374,22.6309 60.5,26C 51.1667,33.6667 41.8333,41.3333 32.5,49C 27.5038,54.8459 21.8372,59.6792 15.5,63.5C 15.5,60.8333 15.5,58.1667 15.5,55.5C 16.9217,55.2914 18.255,54.7914 19.5,54C 33.7299,40.9305 48.0632,28.0972 62.5,15.5 Z"/></g>
<g><path style="opacity:1" fill="#00fe3e" d="M 88.5,15.5 C 89.8333,15.5 91.1667,15.5 92.5,15.5C 75.4624,32.3849 57.4624,48.2183 38.5,63C 31.8913,70.7776 24.2246,77.2776 15.5,82.5C 15.5,81.8333 15.5,81.1667 15.5,80.5C 22.9777,73.5389 30.9777,67.0389 39.5,61C 50.8921,49.7867 62.5588,38.7867 74.5,28C 80.6775,25.3121 85.3442,21.1454 88.5,15.5 Z"/></g>
<g><path style="opacity:1" fill="#dd00ff" d="M 162.5,21.5 C 162.5,21.8333 162.5,22.1667 162.5,22.5C 158.512,25.929 154.846,29.7624 151.5,34C 131.845,50.6567 112.511,67.6567 93.5,85C 80.4753,95.6966 67.4753,106.363 54.5,117C 48.6304,122.702 42.9638,128.535 37.5,134.5C 35.5,134.5 33.5,134.5 31.5,134.5C 38.6041,128.234 45.6041,121.734 52.5,115C 59.4734,110.353 66.14,105.353 72.5,100C 101.408,72.5927 131.408,46.4261 162.5,21.5 Z"/></g>
<g><path style="opacity:1" fill="#ff00b4" d="M 164.5,31.5 C 164.5,32.1667 164.5,32.8333 164.5,33.5C 162.745,34.0722 161.078,34.9055 159.5,36C 120.502,70.5201 81.5015,104.687 42.5,138.5C 42.5,137.833 42.5,137.167 42.5,136.5C 76.5269,106.991 110.527,77.1576 144.5,47C 151.061,41.5943 157.728,36.4276 164.5,31.5 Z"/></g>
<g><path style="opacity:1" fill="#02fe87" d="M 96.5,15.5 C 97.8333,15.5 99.1667,15.5 100.5,15.5C 82.2203,33.8141 62.8869,50.9807 42.5,67C 33.3896,75.3921 24.3896,83.8921 15.5,92.5C 15.5,90.5 15.5,88.5 15.5,86.5C 32.5377,71.7906 49.871,57.2906 67.5,43C 76.7335,33.2636 86.4002,24.0969 96.5,15.5 Z"/></g>
<g><path style="opacity:1" fill="#00fec2" d="M 104.5,15.5 C 105.167,15.5 105.833,15.5 106.5,15.5C 95.3387,26.4942 84.0054,37.3275 72.5,48C 53.1753,63.8565 34.1753,80.0231 15.5,96.5C 15.5,95.8333 15.5,95.1667 15.5,94.5C 33.6568,78.1855 52.3235,62.3522 71.5,47C 82.5326,36.493 93.5326,25.993 104.5,15.5 Z"/></g>
<g><path style="opacity:1" fill="#ffe600" d="M 48.5,15.5 C 49.8333,15.5 51.1667,15.5 52.5,15.5C 48.3977,20.1046 44.0643,24.6046 39.5,29C 31.2827,35.6042 23.2827,42.4376 15.5,49.5C 15.5,48.1667 15.5,46.8333 15.5,45.5C 27.1242,36.2102 38.1242,26.2102 48.5,15.5 Z"/></g>
<g><path style="opacity:1" fill="#63ff00" d="M 70.5,15.5 C 71.8333,15.5 73.1667,15.5 74.5,15.5C 70.7036,19.7978 66.7036,23.9644 62.5,28C 53.1667,35.6667 43.8333,43.3333 34.5,51C 28.8421,57.4623 22.5088,62.9623 15.5,67.5C 15.5,66.1667 15.5,64.8333 15.5,63.5C 21.8372,59.6792 27.5038,54.8459 32.5,49C 41.8333,41.3333 51.1667,33.6667 60.5,26C 64.0374,22.6309 67.3707,19.1309 70.5,15.5 Z"/></g>
<g><path style="opacity:1" fill="#1bff09" d="M 74.5,15.5 C 79.1667,15.5 83.8333,15.5 88.5,15.5C 85.3442,21.1454 80.6775,25.3121 74.5,28C 62.5588,38.7867 50.8921,49.7867 39.5,61C 30.9777,67.0389 22.9777,73.5389 15.5,80.5C 15.5,76.1667 15.5,71.8333 15.5,67.5C 22.5088,62.9623 28.8421,57.4623 34.5,51C 43.8333,43.3333 53.1667,35.6667 62.5,28C 66.7036,23.9644 70.7036,19.7978 74.5,15.5 Z"/></g>
<g><path style="opacity:1" fill="#026cff" d="M 128.5,15.5 C 129.833,15.5 131.167,15.5 132.5,15.5C 129.923,19.2457 126.589,22.079 122.5,24C 86.8346,55.8524 51.168,87.3524 15.5,118.5C 15.5,117.167 15.5,115.833 15.5,114.5C 26.5676,105.608 37.2342,96.1076 47.5,86C 51.3536,82.9113 55.3536,80.078 59.5,77.5C 76.3335,62.8354 93.3335,48.3354 110.5,34C 116.703,27.9648 122.703,21.7981 128.5,15.5 Z"/></g>
<g><path style="opacity:1" fill="#ff00c8" d="M 164.5,29.5 C 164.5,30.1667 164.5,30.8333 164.5,31.5C 157.728,36.4276 151.061,41.5943 144.5,47C 110.527,77.1576 76.5269,106.991 42.5,136.5C 42.5,135.833 42.5,135.167 42.5,134.5C 76.1485,105.376 109.815,75.8759 143.5,46C 150.394,40.2618 157.394,34.7618 164.5,29.5 Z"/></g>
<g><path style="opacity:1" fill="#00d7ff" d="M 116.5,15.5 C 117.167,15.5 117.833,15.5 118.5,15.5C 114.37,20.1312 110.037,24.6312 105.5,29C 93.0614,39.0747 80.7281,49.4081 68.5,60C 63.1125,64.7208 58.1125,69.7208 53.5,75C 41.8686,83.3024 31.202,92.6358 21.5,103C 19.6125,104.394 17.6125,105.56 15.5,106.5C 15.5,105.833 15.5,105.167 15.5,104.5C 24.8986,97.2779 33.8986,89.4446 42.5,81C 45.5568,78.2774 48.8901,75.944 52.5,74C 57.1125,68.7208 62.1125,63.7208 67.5,59C 79.6882,48.4184 92.0215,38.085 104.5,28C 108.704,23.9644 112.704,19.7978 116.5,15.5 Z"/></g>
<g><path style="opacity:1" fill="#02fedc" d="M 106.5,15.5 C 107.833,15.5 109.167,15.5 110.5,15.5C 103.473,22.9593 96.4731,30.2926 89.5,37.5C 85.0545,39.9157 81.0545,43.0823 77.5,47C 75.5,48 73.5,49 71.5,50C 66.1244,55.0443 60.4578,59.711 54.5,64C 50.2632,68.4804 46.2632,73.1471 42.5,78C 38.4824,81.0209 34.8157,84.3542 31.5,88C 26.6214,89.5477 22.9547,92.5477 20.5,97C 18.9221,98.0945 17.2554,98.9278 15.5,99.5C 15.5,98.5 15.5,97.5 15.5,96.5C 34.1753,80.0231 53.1753,63.8565 72.5,48C 84.0054,37.3275 95.3387,26.4942 106.5,15.5 Z"/></g>
<g><path style="opacity:1" fill="#007cff" d="M 126.5,15.5 C 127.167,15.5 127.833,15.5 128.5,15.5C 122.703,21.7981 116.703,27.9648 110.5,34C 93.3335,48.3354 76.3335,62.8354 59.5,77.5C 63.2166,72.6127 67.5499,68.1127 72.5,64C 84.6882,53.4184 97.0215,43.085 109.5,33C 115.37,27.2981 121.036,21.4647 126.5,15.5 Z"/></g>
<g><path style="opacity:1" fill="#01fcf8" d="M 89.5,37.5 C 76.6768,49.1562 64.0102,60.9895 51.5,73C 39.5824,83.0989 27.5824,92.9322 15.5,102.5C 15.5,101.5 15.5,100.5 15.5,99.5C 17.2554,98.9278 18.9221,98.0945 20.5,97C 22.9547,92.5477 26.6214,89.5477 31.5,88C 34.8157,84.3542 38.4824,81.0209 42.5,78C 46.2632,73.1471 50.2632,68.4804 54.5,64C 60.4578,59.711 66.1244,55.0443 71.5,50C 73.5,49 75.5,48 77.5,47C 81.0545,43.0823 85.0545,39.9157 89.5,37.5 Z"/></g>
<g><path style="opacity:1" fill="#0043ff" d="M 125.5,24.5 C 121.704,28.7978 117.704,32.9644 113.5,37C 101.022,47.085 88.6882,57.4184 76.5,68C 71.1125,72.7208 66.1125,77.7208 61.5,83C 57.8901,84.944 54.5568,87.2774 51.5,90C 39.9583,101.232 27.9583,111.732 15.5,121.5C 15.5,120.833 15.5,120.167 15.5,119.5C 27.8115,110.302 39.4782,100.136 50.5,89C 53.5568,86.2774 56.8901,83.944 60.5,82C 65.1125,76.7208 70.1125,71.7208 75.5,67C 92.3274,53.0046 108.994,38.838 125.5,24.5 Z"/></g>
<g><path style="opacity:1" fill="#02ecfe" d="M 110.5,15.5 C 112.5,15.5 114.5,15.5 116.5,15.5C 112.704,19.7978 108.704,23.9644 104.5,28C 92.0215,38.085 79.6882,48.4184 67.5,59C 62.1125,63.7208 57.1125,68.7208 52.5,74C 48.8901,75.944 45.5568,78.2774 42.5,81C 33.8986,89.4446 24.8986,97.2779 15.5,104.5C 15.5,103.833 15.5,103.167 15.5,102.5C 27.5824,92.9322 39.5824,83.0989 51.5,73C 64.0102,60.9895 76.6768,49.1562 89.5,37.5C 96.4731,30.2926 103.473,22.9593 110.5,15.5 Z"/></g>
<g><path style="opacity:1" fill="#ff00e2" d="M 164.5,26.5 C 164.5,27.5 164.5,28.5 164.5,29.5C 157.394,34.7618 150.394,40.2618 143.5,46C 109.815,75.8759 76.1485,105.376 42.5,134.5C 41.5,134.5 40.5,134.5 39.5,134.5C 41.4773,132.186 43.4773,129.853 45.5,127.5C 84.4834,94.7058 123.15,61.2058 161.5,27C 162.448,26.5172 163.448,26.3505 164.5,26.5 Z"/></g>
<g><path style="opacity:1" fill="#02bdff" d="M 118.5,15.5 C 119.833,15.5 121.167,15.5 122.5,15.5C 117.703,20.798 112.703,25.9646 107.5,31C 95.0215,41.085 82.6882,51.4184 70.5,62C 65.1125,66.7208 60.1125,71.7208 55.5,77C 43.8686,85.3024 33.202,94.6358 23.5,105C 20.9406,106.777 18.2739,108.277 15.5,109.5C 15.5,108.5 15.5,107.5 15.5,106.5C 17.6125,105.56 19.6125,104.394 21.5,103C 31.202,92.6358 41.8686,83.3024 53.5,75C 58.1125,69.7208 63.1125,64.7208 68.5,60C 80.7281,49.4081 93.0614,39.0747 105.5,29C 110.037,24.6312 114.37,20.1312 118.5,15.5 Z"/></g>
<g><path style="opacity:1" fill="#ff4700" d="M 164.5,55.5 C 164.5,59.1667 164.5,62.8333 164.5,66.5C 153.519,74.818 142.852,83.4847 132.5,92.5C 131.167,92.5 129.833,92.5 128.5,92.5C 127.167,92.5 125.833,92.5 124.5,92.5C 122.833,92.5 121.167,92.5 119.5,92.5C 134.184,79.8188 149.184,67.4855 164.5,55.5 Z"/></g>
<g><path style="opacity:1" fill="#00a0ff" d="M 122.5,15.5 C 123.167,15.5 123.833,15.5 124.5,15.5C 115.075,26.5945 104.408,36.2611 92.5,44.5C 67.4329,67.9039 41.7662,90.5705 15.5,112.5C 15.5,111.5 15.5,110.5 15.5,109.5C 18.2739,108.277 20.9406,106.777 23.5,105C 33.202,94.6358 43.8686,85.3024 55.5,77C 60.1125,71.7208 65.1125,66.7208 70.5,62C 82.6882,51.4184 95.0215,41.085 107.5,31C 112.703,25.9646 117.703,20.798 122.5,15.5 Z"/></g>
<g><path style="opacity:1" fill="#fa00fd" d="M 162.5,22.5 C 163.345,23.6715 164.011,25.0048 164.5,26.5C 163.448,26.3505 162.448,26.5172 161.5,27C 123.15,61.2058 84.4834,94.7058 45.5,127.5C 43.4773,129.853 41.4773,132.186 39.5,134.5C 38.8333,134.5 38.1667,134.5 37.5,134.5C 42.9638,128.535 48.6304,122.702 54.5,117C 67.4753,106.363 80.4753,95.6966 93.5,85C 112.511,67.6567 131.845,50.6567 151.5,34C 154.846,29.7624 158.512,25.929 162.5,22.5 Z"/></g>
<g><path style="opacity:1" fill="#018dff" d="M 124.5,15.5 C 125.167,15.5 125.833,15.5 126.5,15.5C 121.036,21.4647 115.37,27.2981 109.5,33C 97.0215,43.085 84.6882,53.4184 72.5,64C 67.5499,68.1127 63.2166,72.6127 59.5,77.5C 55.3536,80.078 51.3536,82.9113 47.5,86C 37.2342,96.1076 26.5676,105.608 15.5,114.5C 15.5,113.833 15.5,113.167 15.5,112.5C 41.7662,90.5705 67.4329,67.9039 92.5,44.5C 104.408,36.2611 115.075,26.5945 124.5,15.5 Z"/></g>
<g><path style="opacity:0.977" fill="#ff6800" d="M 164.5,66.5 C 164.5,69.1667 164.5,71.8333 164.5,74.5C 156.281,79.7784 148.614,85.7784 141.5,92.5C 140.833,92.5 140.167,92.5 139.5,92.5C 137.167,92.5 134.833,92.5 132.5,92.5C 142.852,83.4847 153.519,74.818 164.5,66.5 Z"/></g>
<g><path style="opacity:1" fill="#0055ff" d="M 132.5,15.5 C 133.167,15.5 133.833,15.5 134.5,15.5C 131.833,18.8333 128.833,21.8333 125.5,24.5C 108.994,38.838 92.3274,53.0046 75.5,67C 70.1125,71.7208 65.1125,76.7208 60.5,82C 56.8901,83.944 53.5568,86.2774 50.5,89C 39.4782,100.136 27.8115,110.302 15.5,119.5C 15.5,119.167 15.5,118.833 15.5,118.5C 51.168,87.3524 86.8346,55.8524 122.5,24C 126.589,22.079 129.923,19.2457 132.5,15.5 Z"/></g>
<g><path style="opacity:1" fill="#ff085b" d="M 164.5,39.5 C 164.5,40.1667 164.5,40.8333 164.5,41.5C 159.56,45.3157 154.56,49.149 149.5,53C 134.937,66.4026 120.27,79.5693 105.5,92.5C 104.167,92.5 102.833,92.5 101.5,92.5C 121.094,75.0172 140.761,57.5172 160.5,40C 161.793,39.51 163.127,39.3433 164.5,39.5 Z"/></g>
<g><path style="opacity:1" fill="#01fe60" d="M 92.5,15.5 C 93.8333,15.5 95.1667,15.5 96.5,15.5C 86.4002,24.0969 76.7335,33.2636 67.5,43C 49.871,57.2906 32.5377,71.7906 15.5,86.5C 15.5,85.1667 15.5,83.8333 15.5,82.5C 24.2246,77.2776 31.8913,70.7776 38.5,63C 57.4624,48.2183 75.4624,32.3849 92.5,15.5 Z"/></g>
<g><path style="opacity:1" fill="#ff1045" d="M 164.5,41.5 C 164.5,42.1667 164.5,42.8333 164.5,43.5C 159.714,46.7386 155.047,50.2386 150.5,54C 136.27,67.0695 121.937,79.9028 107.5,92.5C 106.833,92.5 106.167,92.5 105.5,92.5C 120.27,79.5693 134.937,66.4026 149.5,53C 154.56,49.149 159.56,45.3157 164.5,41.5 Z"/></g>
<g><path style="opacity:1" fill="#ff1a29" d="M 164.5,43.5 C 164.5,44.5 164.5,45.5 164.5,46.5C 147.372,61.1244 130.372,75.9577 113.5,91C 111.655,92.128 109.655,92.628 107.5,92.5C 121.937,79.9028 136.27,67.0695 150.5,54C 155.047,50.2386 159.714,46.7386 164.5,43.5 Z"/></g>
<g><path style="opacity:0.948" fill="#f87c00" d="M 164.5,74.5 C 164.5,80.5 164.5,86.5 164.5,92.5C 162.167,92.5 159.833,92.5 157.5,92.5C 155.167,92.5 152.833,92.5 150.5,92.5C 149.833,92.5 149.167,92.5 148.5,92.5C 146.833,92.5 145.167,92.5 143.5,92.5C 142.833,92.5 142.167,92.5 141.5,92.5C 148.614,85.7784 156.281,79.7784 164.5,74.5 Z"/></g>
<g><path style="opacity:1" fill="#ff0278" d="M 164.5,35.5 C 164.5,36.8333 164.5,38.1667 164.5,39.5C 163.127,39.3433 161.793,39.51 160.5,40C 140.761,57.5172 121.094,75.0172 101.5,92.5C 100.609,93.1098 99.609,93.4431 98.5,93.5C 100.628,90.8697 102.961,88.3697 105.5,86C 125.058,68.9339 144.725,52.1006 164.5,35.5 Z"/></g>
<g><path style="opacity:1" fill="#8d00ff" d="M 156.5,16.5 C 158.23,17.0256 159.564,18.0256 160.5,19.5C 129.408,44.4261 99.408,70.5927 70.5,98C 57.2601,106.944 45.2601,117.278 34.5,129C 31.3589,129.715 29.3589,131.548 28.5,134.5C 26.2143,134.405 24.2143,133.738 22.5,132.5C 31.6108,125.891 39.9441,118.391 47.5,110C 63.53,98.4776 78.53,85.6443 92.5,71.5C 113.878,53.1147 135.211,34.7814 156.5,16.5 Z"/></g>
<g><path style="opacity:1" fill="#02feaa" d="M 100.5,15.5 C 101.833,15.5 103.167,15.5 104.5,15.5C 93.5326,25.993 82.5326,36.493 71.5,47C 52.3235,62.3522 33.6568,78.1855 15.5,94.5C 15.5,93.8333 15.5,93.1667 15.5,92.5C 24.3896,83.8921 33.3896,75.3921 42.5,67C 62.8869,50.9807 82.2203,33.8141 100.5,15.5 Z"/></g>
<g><path style="opacity:1" fill="#ff8e00" d="M 118.5,92.5 C 118.833,92.5 119.167,92.5 119.5,92.5C 121.167,92.5 122.833,92.5 124.5,92.5C 116.058,100.098 107.391,107.598 98.5,115C 96.404,116.766 94.0707,118.099 91.5,119C 90.2189,120.409 89.2189,121.909 88.5,123.5C 88.5,121.833 88.5,120.167 88.5,118.5C 99.3214,110.76 109.321,102.093 118.5,92.5 Z"/></g>
<g><path style="opacity:1" fill="#ffac00" d="M 124.5,92.5 C 125.833,92.5 127.167,92.5 128.5,92.5C 128.067,95.1955 126.734,97.3621 124.5,99C 112.961,109.034 100.961,118.534 88.5,127.5C 88.5,126.833 88.5,126.167 88.5,125.5C 88.5,124.833 88.5,124.167 88.5,123.5C 89.2189,121.909 90.2189,120.409 91.5,119C 94.0707,118.099 96.404,116.766 98.5,115C 107.391,107.598 116.058,100.098 124.5,92.5 Z"/></g>
<g><path style="opacity:1" fill="#ff3907" d="M 164.5,46.5 C 164.5,49.5 164.5,52.5 164.5,55.5C 149.184,67.4855 134.184,79.8188 119.5,92.5C 119.167,92.5 118.833,92.5 118.5,92.5C 116.396,92.2011 114.396,92.5344 112.5,93.5C 105.018,100.072 97.3509,106.405 89.5,112.5C 88.5344,114.396 88.2011,116.396 88.5,118.5C 88.5,120.167 88.5,121.833 88.5,123.5C 88.5,124.167 88.5,124.833 88.5,125.5C 73.1667,137.833 57.8333,150.167 42.5,162.5C 42.5,158.833 42.5,155.167 42.5,151.5C 57.4802,138.189 72.4802,124.856 87.5,111.5C 88.4287,110.311 88.762,108.978 88.5,107.5C 88.9628,104.779 89.6295,102.112 90.5,99.5C 92.3727,96.5512 95.0393,94.5512 98.5,93.5C 99.609,93.4431 100.609,93.1098 101.5,92.5C 102.833,92.5 104.167,92.5 105.5,92.5C 106.167,92.5 106.833,92.5 107.5,92.5C 109.655,92.628 111.655,92.128 113.5,91C 130.372,75.9577 147.372,61.1244 164.5,46.5 Z"/></g>
<g><path style="opacity:1" fill="#bbff00" d="M 150.5,92.5 C 152.833,92.5 155.167,92.5 157.5,92.5C 135.212,112.174 112.212,131.174 88.5,149.5C 88.5,148.167 88.5,146.833 88.5,145.5C 106.607,131.237 124.607,116.737 142.5,102C 145.002,98.6675 147.668,95.5008 150.5,92.5 Z"/></g>
<g><path style="opacity:1" fill="#fcf900" d="M 139.5,92.5 C 140.167,92.5 140.833,92.5 141.5,92.5C 142.167,92.5 142.833,92.5 143.5,92.5C 132.024,102.469 120.358,112.302 108.5,122C 104.5,127.333 99.8333,132 94.5,136C 92.5952,137.421 90.5952,138.588 88.5,139.5C 88.5,137.833 88.5,136.167 88.5,134.5C 88.5,134.167 88.5,133.833 88.5,133.5C 92.8874,131.635 96.554,128.802 99.5,125C 102.249,122.577 105.249,120.577 108.5,119C 111.866,114.973 115.866,111.64 120.5,109C 124.584,103.799 129.584,99.7992 135.5,97C 136.989,95.5315 138.323,94.0315 139.5,92.5 Z"/></g>
<g><path style="opacity:1" fill="#03ffcc" d="M 220.5,92.5 C 224.16,92.1588 227.493,92.8255 230.5,94.5C 217.864,105.464 205.198,116.464 192.5,127.5C 189.167,127.5 185.833,127.5 182.5,127.5C 194.001,117.502 205.667,107.668 217.5,98C 218.758,96.2591 219.758,94.4258 220.5,92.5 Z"/></g>
<g><path style="opacity:1" fill="#4600ff" d="M 148.5,15.5 C 151.279,15.2786 153.946,15.612 156.5,16.5C 135.211,34.7814 113.878,53.1147 92.5,71.5C 78.53,85.6443 63.53,98.4776 47.5,110C 39.9441,118.391 31.6108,125.891 22.5,132.5C 20.8333,131.5 19.5,130.167 18.5,128.5C 25.8696,123.817 32.8696,118.65 39.5,113C 40.87,111.559 41.87,109.892 42.5,108C 52.1084,102.718 60.1084,95.7177 66.5,87C 74.1536,81.6791 80.8203,75.3457 86.5,68C 89.7435,67.0918 92.0768,65.0918 93.5,62C 96.8273,59.7114 100.161,57.378 103.5,55C 107.728,48.2998 113.394,43.2998 120.5,40C 124.833,35.6667 129.167,31.3333 133.5,27C 138.226,22.7208 143.226,18.8875 148.5,15.5 Z"/></g>
<g><path style="opacity:1" fill="#ff6e00" d="M 118.5,92.5 C 109.321,102.093 99.3214,110.76 88.5,118.5C 88.2011,116.396 88.5344,114.396 89.5,112.5C 97.3509,106.405 105.018,100.072 112.5,93.5C 114.396,92.5344 116.396,92.2011 118.5,92.5 Z"/></g>
<g><path style="opacity:1" fill="#60ff00" d="M 166.5,92.5 C 169.167,92.5 171.833,92.5 174.5,92.5C 166.425,99.0693 158.759,106.236 151.5,114C 144.965,118.392 138.632,122.892 132.5,127.5C 131.167,127.5 129.833,127.5 128.5,127.5C 133.303,123.529 137.636,119.029 141.5,114C 145.61,109.891 150.277,106.557 155.5,104C 159.315,100.351 162.982,96.5173 166.5,92.5 Z"/></g>
<g><path style="opacity:1" fill="#02fe68" d="M 206.5,92.5 C 209.167,92.5 211.833,92.5 214.5,92.5C 213.386,93.8853 212.386,95.3853 211.5,97C 204.698,101.152 198.032,105.486 191.5,110C 185.685,116.064 179.685,121.898 173.5,127.5C 170.833,127.5 168.167,127.5 165.5,127.5C 165.628,125.91 166.295,124.577 167.5,123.5C 172.659,120.165 177.659,116.665 182.5,113C 190.078,105.582 198.078,98.7485 206.5,92.5 Z"/></g>
<g><path style="opacity:1" fill="#eaff00" d="M 143.5,92.5 C 145.167,92.5 146.833,92.5 148.5,92.5C 128.817,109.514 108.817,126.18 88.5,142.5C 88.5,141.5 88.5,140.5 88.5,139.5C 90.5952,138.588 92.5952,137.421 94.5,136C 99.8333,132 104.5,127.333 108.5,122C 120.358,112.302 132.024,102.469 143.5,92.5 Z"/></g>
<g><path style="opacity:1" fill="#01fe37" d="M 194.5,92.5 C 198.5,92.5 202.5,92.5 206.5,92.5C 198.078,98.7485 190.078,105.582 182.5,113C 177.659,116.665 172.659,120.165 167.5,123.5C 166.295,124.577 165.628,125.91 165.5,127.5C 161.167,127.5 156.833,127.5 152.5,127.5C 161.778,119.057 171.778,111.557 182.5,105C 186.759,100.911 190.759,96.7447 194.5,92.5 Z"/></g>
<g><path style="opacity:1" fill="#03fe99" d="M 214.5,92.5 C 216.5,92.5 218.5,92.5 220.5,92.5C 219.758,94.4258 218.758,96.2591 217.5,98C 205.667,107.668 194.001,117.502 182.5,127.5C 179.5,127.5 176.5,127.5 173.5,127.5C 179.685,121.898 185.685,116.064 191.5,110C 198.032,105.486 204.698,101.152 211.5,97C 212.386,95.3853 213.386,93.8853 214.5,92.5 Z"/></g>
<g><path style="opacity:1" fill="#98ff00" d="M 157.5,92.5 C 159.833,92.5 162.167,92.5 164.5,92.5C 165.167,92.5 165.833,92.5 166.5,92.5C 162.982,96.5173 159.315,100.351 155.5,104C 150.277,106.557 145.61,109.891 141.5,114C 137.636,119.029 133.303,123.529 128.5,127.5C 125.482,127.335 122.482,127.502 119.5,128C 117.944,128.72 116.944,129.887 116.5,131.5C 108.854,138.862 100.854,146.029 92.5,153C 91.255,153.791 89.9217,154.291 88.5,154.5C 88.5,152.833 88.5,151.167 88.5,149.5C 112.212,131.174 135.212,112.174 157.5,92.5 Z"/></g>
<g><path style="opacity:1" fill="#27ff01" d="M 174.5,92.5 C 181.167,92.5 187.833,92.5 194.5,92.5C 190.759,96.7447 186.759,100.911 182.5,105C 171.778,111.557 161.778,119.057 152.5,127.5C 145.833,127.5 139.167,127.5 132.5,127.5C 138.632,122.892 144.965,118.392 151.5,114C 158.759,106.236 166.425,99.0693 174.5,92.5 Z"/></g>
<g><path style="opacity:1" fill="#02daff" d="M 234.5,98.5 C 235.674,99.5137 236.34,100.847 236.5,102.5C 226.475,110.863 216.475,119.196 206.5,127.5C 204.833,127.5 203.167,127.5 201.5,127.5C 202.203,125.284 203.536,123.451 205.5,122C 215.331,114.333 224.997,106.499 234.5,98.5 Z"/></g>
<g><path style="opacity:1" fill="#d2ff00" d="M 148.5,92.5 C 149.167,92.5 149.833,92.5 150.5,92.5C 147.668,95.5008 145.002,98.6675 142.5,102C 124.607,116.737 106.607,131.237 88.5,145.5C 88.5,144.5 88.5,143.5 88.5,142.5C 108.817,126.18 128.817,109.514 148.5,92.5 Z"/></g>
<g><path style="opacity:1" fill="#01f4fe" d="M 232.5,95.5 C 233.906,95.9731 234.573,96.9731 234.5,98.5C 224.997,106.499 215.331,114.333 205.5,122C 203.536,123.451 202.203,125.284 201.5,127.5C 200.167,127.5 198.833,127.5 197.5,127.5C 202.969,122.863 207.969,117.697 212.5,112C 219.356,106.636 226.023,101.136 232.5,95.5 Z"/></g>
<g><path style="opacity:1" fill="#ff009c" d="M 164.5,33.5 C 164.5,34.1667 164.5,34.8333 164.5,35.5C 144.725,52.1006 125.058,68.9339 105.5,86C 102.961,88.3697 100.628,90.8697 98.5,93.5C 95.0393,94.5512 92.3727,96.5512 90.5,99.5C 74.9123,113.63 58.9123,127.297 42.5,140.5C 42.5,139.833 42.5,139.167 42.5,138.5C 81.5015,104.687 120.502,70.5201 159.5,36C 161.078,34.9055 162.745,34.0722 164.5,33.5 Z"/></g>
<g><path style="opacity:1" fill="#ffd500" d="M 128.5,92.5 C 129.833,92.5 131.167,92.5 132.5,92.5C 134.833,92.5 137.167,92.5 139.5,92.5C 138.323,94.0315 136.989,95.5315 135.5,97C 129.584,99.7992 124.584,103.799 120.5,109C 115.866,111.64 111.866,114.973 108.5,119C 105.249,120.577 102.249,122.577 99.5,125C 96.554,128.802 92.8874,131.635 88.5,133.5C 88.5,131.5 88.5,129.5 88.5,127.5C 100.961,118.534 112.961,109.034 124.5,99C 126.734,97.3621 128.067,95.1955 128.5,92.5 Z"/></g>
<g><path style="opacity:1" fill="#09bcff" d="M 236.5,102.5 C 237.434,103.568 237.768,104.901 237.5,106.5C 235.745,107.072 234.078,107.906 232.5,109C 224.425,115.372 216.758,122.205 209.5,129.5C 208.29,129.068 207.29,128.401 206.5,127.5C 216.475,119.196 226.475,110.863 236.5,102.5 Z"/></g>
<g><path style="opacity:1" fill="#099efe" d="M 237.5,106.5 C 237.5,108.167 237.5,109.833 237.5,111.5C 236.127,111.343 234.793,111.51 233.5,112C 225.198,118.959 217.198,126.126 209.5,133.5C 209.5,132.167 209.5,130.833 209.5,129.5C 216.758,122.205 224.425,115.372 232.5,109C 234.078,107.906 235.745,107.072 237.5,106.5 Z"/></g>
<g><path style="opacity:1" fill="#00fef2" d="M 230.5,94.5 C 231.167,94.8333 231.833,95.1667 232.5,95.5C 226.023,101.136 219.356,106.636 212.5,112C 207.969,117.697 202.969,122.863 197.5,127.5C 195.833,127.5 194.167,127.5 192.5,127.5C 205.198,116.464 217.864,105.464 230.5,94.5 Z"/></g>
<g><path style="opacity:1" fill="#b700ff" d="M 160.5,19.5 C 161.5,19.8333 162.167,20.5 162.5,21.5C 131.408,46.4261 101.408,72.5927 72.5,100C 66.14,105.353 59.4734,110.353 52.5,115C 45.6041,121.734 38.6041,128.234 31.5,134.5C 30.5,134.5 29.5,134.5 28.5,134.5C 29.3589,131.548 31.3589,129.715 34.5,129C 45.2601,117.278 57.2601,106.944 70.5,98C 99.408,70.5927 129.408,44.4261 160.5,19.5 Z"/></g>
<g><path style="opacity:0.923" fill="#fdfdfd" d="M 128.5,127.5 C 129.833,127.5 131.167,127.5 132.5,127.5C 139.167,127.5 145.833,127.5 152.5,127.5C 156.833,127.5 161.167,127.5 165.5,127.5C 168.167,127.5 170.833,127.5 173.5,127.5C 176.5,127.5 179.5,127.5 182.5,127.5C 185.833,127.5 189.167,127.5 192.5,127.5C 194.167,127.5 195.833,127.5 197.5,127.5C 198.833,127.5 200.167,127.5 201.5,127.5C 203.167,127.5 204.833,127.5 206.5,127.5C 207.29,128.401 208.29,129.068 209.5,129.5C 209.5,130.833 209.5,132.167 209.5,133.5C 209.5,135.5 208.5,136.5 206.5,136.5C 203.167,136.5 199.833,136.5 196.5,136.5C 192.833,136.5 189.167,136.5 185.5,136.5C 181.5,136.5 177.5,136.5 173.5,136.5C 166.833,136.5 160.167,136.5 153.5,136.5C 142.167,136.5 130.833,136.5 119.5,136.5C 117.273,135.599 116.273,133.933 116.5,131.5C 116.944,129.887 117.944,128.72 119.5,128C 122.482,127.502 125.482,127.335 128.5,127.5 Z"/></g>
<g><path style="opacity:1" fill="#0237ff" d="M 237.5,121.5 C 237.5,123.167 237.5,124.833 237.5,126.5C 228.117,134.227 218.784,141.893 209.5,149.5C 208.18,148.058 206.514,147.392 204.5,147.5C 204.859,145.629 205.859,144.129 207.5,143C 216,138.508 223.333,132.508 229.5,125C 232.505,124.467 235.172,123.3 237.5,121.5 Z"/></g>
<g><path style="opacity:1" fill="#ff1067" d="M 90.5,99.5 C 89.6295,102.112 88.9628,104.779 88.5,107.5C 72.871,120.46 57.5377,133.794 42.5,147.5C 42.5,145.167 42.5,142.833 42.5,140.5C 58.9123,127.297 74.9123,113.63 90.5,99.5 Z"/></g>
<g><path style="opacity:1" fill="#ff213a" d="M 88.5,107.5 C 88.762,108.978 88.4287,110.311 87.5,111.5C 72.4802,124.856 57.4802,138.189 42.5,151.5C 42.5,150.167 42.5,148.833 42.5,147.5C 57.5377,133.794 72.871,120.46 88.5,107.5 Z"/></g>
<g><path style="opacity:1" fill="#015dff" d="M 237.5,114.5 C 237.5,116.833 237.5,119.167 237.5,121.5C 235.172,123.3 232.505,124.467 229.5,125C 223.333,132.508 216,138.508 207.5,143C 205.859,144.129 204.859,145.629 204.5,147.5C 201.833,147.5 199.167,147.5 196.5,147.5C 200.928,144.923 205.261,142.09 209.5,139C 218.383,130.281 227.717,122.114 237.5,114.5 Z"/></g>
<g><path style="opacity:1" fill="#027dff" d="M 237.5,111.5 C 237.5,112.5 237.5,113.5 237.5,114.5C 227.717,122.114 218.383,130.281 209.5,139C 205.261,142.09 200.928,144.923 196.5,147.5C 194.833,147.5 193.167,147.5 191.5,147.5C 195.666,142.663 200.666,138.997 206.5,136.5C 208.5,136.5 209.5,135.5 209.5,133.5C 217.198,126.126 225.198,118.959 233.5,112C 234.793,111.51 236.127,111.343 237.5,111.5 Z"/></g>
<g><path style="opacity:0.898" fill="#fdf5f5" d="M 17.5,141.5 C 19.9363,141.317 22.103,141.984 24,143.5C 24.3333,161.5 24.6667,179.5 25,197.5C 25.5,198 26,198.5 26.5,199C 38.8333,199.667 51.1667,199.667 63.5,199C 61.3333,196.833 59.1667,194.667 57,192.5C 55.5792,188.518 56.7459,185.852 60.5,184.5C 67.0891,189.584 73.2558,195.251 79,201.5C 79.6667,203.5 79.6667,205.5 79,207.5C 73.8,212.365 68.9666,217.532 64.5,223C 57.8092,225.891 55.3092,223.725 57,216.5C 59.5,214 62,211.5 64.5,209C 51.1667,208.667 37.8333,208.333 24.5,208C 20.3333,206.5 17.5,203.667 16,199.5C 15.3333,180.833 15.3333,162.167 16,143.5C 16.7172,142.956 17.2172,142.289 17.5,141.5 Z"/></g>
<g><path style="opacity:1" fill="#ff5c00" d="M 88.5,125.5 C 88.5,126.167 88.5,126.833 88.5,127.5C 88.5,129.5 88.5,131.5 88.5,133.5C 88.5,133.833 88.5,134.167 88.5,134.5C 85.8127,134.336 83.146,134.503 80.5,135C 71.197,145.304 61.5303,155.304 51.5,165C 47.3159,167.608 44.3159,166.775 42.5,162.5C 57.8333,150.167 73.1667,137.833 88.5,125.5 Z"/></g>
<g><path style="opacity:1" fill="#04fe9d" d="M 157.5,137.5 C 161.514,137.334 165.514,137.501 169.5,138C 165.388,140.712 161.722,143.878 158.5,147.5C 155.167,147.5 151.833,147.5 148.5,147.5C 152.161,144.835 155.161,141.502 157.5,137.5 Z"/></g>
<g><path style="opacity:1" fill="#24fbf8" d="M 173.5,136.5 C 177.5,136.5 181.5,136.5 185.5,136.5C 185.611,137.117 185.944,137.617 186.5,138C 182.249,140.945 178.249,144.112 174.5,147.5C 172.167,147.5 169.833,147.5 167.5,147.5C 171.047,143.789 175.047,140.622 179.5,138C 177.292,137.809 175.292,137.309 173.5,136.5 Z"/></g>
<g><path style="opacity:1" fill="#38fecb" d="M 153.5,136.5 C 160.167,136.5 166.833,136.5 173.5,136.5C 175.292,137.309 177.292,137.809 179.5,138C 175.047,140.622 171.047,143.789 167.5,147.5C 164.5,147.5 161.5,147.5 158.5,147.5C 161.722,143.878 165.388,140.712 169.5,138C 165.514,137.501 161.514,137.334 157.5,137.5C 155.901,137.768 154.568,137.434 153.5,136.5 Z"/></g>
<g><path style="opacity:1" fill="#42ff70" d="M 119.5,136.5 C 130.833,136.5 142.167,136.5 153.5,136.5C 154.568,137.434 155.901,137.768 157.5,137.5C 155.161,141.502 152.161,144.835 148.5,147.5C 145.833,147.5 143.167,147.5 140.5,147.5C 143.493,144.134 146.826,140.968 150.5,138C 142.507,137.5 134.507,137.334 126.5,137.5C 123.941,137.802 121.607,137.468 119.5,136.5 Z"/></g>
<g><path style="opacity:1" fill="#23d0ff" d="M 185.5,136.5 C 189.167,136.5 192.833,136.5 196.5,136.5C 191.247,138.751 187.247,142.418 184.5,147.5C 181.167,147.5 177.833,147.5 174.5,147.5C 178.249,144.112 182.249,140.945 186.5,138C 185.944,137.617 185.611,137.117 185.5,136.5 Z"/></g>
<g><path style="opacity:1" fill="#21affe" d="M 196.5,136.5 C 199.833,136.5 203.167,136.5 206.5,136.5C 200.666,138.997 195.666,142.663 191.5,147.5C 189.167,147.5 186.833,147.5 184.5,147.5C 187.247,142.418 191.247,138.751 196.5,136.5 Z"/></g>
<g><path style="opacity:0.999" fill="#fcfcfc" d="M 140.5,147.5 C 143.167,147.5 145.833,147.5 148.5,147.5C 151.833,147.5 155.167,147.5 158.5,147.5C 161.5,147.5 164.5,147.5 167.5,147.5C 169.833,147.5 172.167,147.5 174.5,147.5C 177.833,147.5 181.167,147.5 184.5,147.5C 186.833,147.5 189.167,147.5 191.5,147.5C 193.167,147.5 194.833,147.5 196.5,147.5C 199.167,147.5 201.833,147.5 204.5,147.5C 206.514,147.392 208.18,148.058 209.5,149.5C 209.756,151.792 209.423,153.959 208.5,156C 203.845,156.499 199.179,156.666 194.5,156.5C 193.167,156.5 191.833,156.5 190.5,156.5C 188.833,156.5 187.167,156.5 185.5,156.5C 184.833,156.5 184.167,156.5 183.5,156.5C 182.167,156.5 180.833,156.5 179.5,156.5C 178.5,156.5 177.5,156.5 176.5,156.5C 174.5,156.5 172.5,156.5 170.5,156.5C 167.833,156.5 165.167,156.5 162.5,156.5C 159.5,156.5 156.5,156.5 153.5,156.5C 149.167,156.5 144.833,156.5 140.5,156.5C 137.5,156.5 134.5,156.5 131.5,156.5C 128.833,156.5 126.167,156.5 123.5,156.5C 117.513,157.023 115.513,154.523 117.5,149C 125.054,147.568 132.721,147.068 140.5,147.5 Z"/></g>
<g><path style="opacity:1" fill="#120aff" d="M 237.5,126.5 C 237.5,130.5 237.5,134.5 237.5,138.5C 226.757,147.397 216.09,156.564 205.5,166C 202.772,168.392 199.772,170.392 196.5,172C 190.671,179.839 183.671,186.172 175.5,191C 172.651,194.857 168.985,197.523 164.5,199C 159.57,202.751 155.237,206.918 151.5,211.5C 145.167,211.5 138.833,211.5 132.5,211.5C 135.604,208.899 138.604,206.066 141.5,203C 144.611,202.556 147.277,201.223 149.5,199C 161.901,188.258 174.568,177.925 187.5,168C 190.256,164.519 193.256,161.186 196.5,158C 195.584,157.722 194.918,157.222 194.5,156.5C 199.179,156.666 203.845,156.499 208.5,156C 209.423,153.959 209.756,151.792 209.5,149.5C 218.784,141.893 228.117,134.227 237.5,126.5 Z"/></g>
<g><path style="opacity:1" fill="#03fcf2" d="M 153.5,156.5 C 156.5,156.5 159.5,156.5 162.5,156.5C 159.046,160.436 155.379,164.103 151.5,167.5C 148.167,167.5 144.833,167.5 141.5,167.5C 145.459,163.843 149.459,160.176 153.5,156.5 Z"/></g>
<g><path style="opacity:1" fill="#06fec7" d="M 140.5,156.5 C 144.833,156.5 149.167,156.5 153.5,156.5C 149.459,160.176 145.459,163.843 141.5,167.5C 137.5,167.5 133.5,167.5 129.5,167.5C 130.771,165.066 132.771,163.566 135.5,163C 137.79,161.223 139.457,159.056 140.5,156.5 Z"/></g>
<g><path style="opacity:1" fill="#50ff00" d="M 116.5,131.5 C 116.273,133.933 117.273,135.599 119.5,136.5C 121.607,137.468 123.941,137.802 126.5,137.5C 115.011,147.09 103.678,156.923 92.5,167C 91.255,167.791 89.9217,168.291 88.5,168.5C 88.5,163.833 88.5,159.167 88.5,154.5C 89.9217,154.291 91.255,153.791 92.5,153C 100.854,146.029 108.854,138.862 116.5,131.5 Z"/></g>
<g><path style="opacity:1" fill="#0fd5ff" d="M 162.5,156.5 C 165.167,156.5 167.833,156.5 170.5,156.5C 170.141,158.371 169.141,159.871 167.5,161C 163.386,163.284 159.72,166.117 156.5,169.5C 154.95,168.559 153.284,167.893 151.5,167.5C 155.379,164.103 159.046,160.436 162.5,156.5 Z"/></g>
<g><path style="opacity:1" fill="#01aeff" d="M 170.5,156.5 C 172.5,156.5 174.5,156.5 176.5,156.5C 169.864,162.159 163.198,167.825 156.5,173.5C 156.5,172.167 156.5,170.833 156.5,169.5C 159.72,166.117 163.386,163.284 167.5,161C 169.141,159.871 170.141,158.371 170.5,156.5 Z"/></g>
<g><path style="opacity:0.991" fill="#fcfdfc" d="M 129.5,167.5 C 133.5,167.5 137.5,167.5 141.5,167.5C 144.833,167.5 148.167,167.5 151.5,167.5C 153.284,167.893 154.95,168.559 156.5,169.5C 156.5,170.833 156.5,172.167 156.5,173.5C 154.964,176.092 152.631,177.092 149.5,176.5C 148.5,176.5 147.5,176.5 146.5,176.5C 145.167,176.5 143.833,176.5 142.5,176.5C 141.167,176.5 139.833,176.5 138.5,176.5C 136.5,176.5 134.5,176.5 132.5,176.5C 131.167,176.5 129.833,176.5 128.5,176.5C 127.167,176.5 125.833,176.5 124.5,176.5C 122.05,176.702 119.717,176.369 117.5,175.5C 117.5,174.833 117.167,174.5 116.5,174.5C 116.261,172.533 116.594,170.699 117.5,169C 121.363,167.646 125.363,167.146 129.5,167.5 Z"/></g>
<g><path style="opacity:1" fill="#01fe4d" d="M 123.5,156.5 C 126.167,156.5 128.833,156.5 131.5,156.5C 117.029,167.58 102.696,178.913 88.5,190.5C 88.5,188.167 88.5,185.833 88.5,183.5C 93.6097,179.584 98.6097,175.417 103.5,171C 108.355,169.48 112.022,166.48 114.5,162C 117.752,160.434 120.752,158.601 123.5,156.5 Z"/></g>
<g><path style="opacity:1" fill="#0ffe11" d="M 126.5,137.5 C 134.507,137.334 142.507,137.5 150.5,138C 146.826,140.968 143.493,144.134 140.5,147.5C 132.721,147.068 125.054,147.568 117.5,149C 115.513,154.523 117.513,157.023 123.5,156.5C 120.752,158.601 117.752,160.434 114.5,162C 112.022,166.48 108.355,169.48 103.5,171C 98.6097,175.417 93.6097,179.584 88.5,183.5C 88.5,178.5 88.5,173.5 88.5,168.5C 89.9217,168.291 91.255,167.791 92.5,167C 103.678,156.923 115.011,147.09 126.5,137.5 Z"/></g>
<g><path style="opacity:1" fill="#0897fe" d="M 176.5,156.5 C 177.5,156.5 178.5,156.5 179.5,156.5C 177.876,160.622 174.876,163.122 170.5,164C 164.053,170.385 157.053,176.052 149.5,181C 145.506,185.994 141.173,190.66 136.5,195C 131.167,198.333 125.833,201.667 120.5,205C 118.235,206.758 116.568,208.925 115.5,211.5C 113.833,211.5 112.167,211.5 110.5,211.5C 123.393,201.786 135.893,191.452 148,180.5C 148.41,179.099 148.91,177.766 149.5,176.5C 152.631,177.092 154.964,176.092 156.5,173.5C 163.198,167.825 169.864,162.159 176.5,156.5 Z"/></g>
<g><path style="opacity:1" fill="#0138ff" d="M 190.5,156.5 C 191.833,156.5 193.167,156.5 194.5,156.5C 194.918,157.222 195.584,157.722 196.5,158C 193.256,161.186 190.256,164.519 187.5,168C 174.568,177.925 161.901,188.258 149.5,199C 147.277,201.223 144.611,202.556 141.5,203C 138.604,206.066 135.604,208.899 132.5,211.5C 130.833,211.5 129.167,211.5 127.5,211.5C 136.399,202.773 146.065,194.94 156.5,188C 157.866,186.4 158.866,184.567 159.5,182.5C 166.288,177.219 172.954,171.719 179.5,166C 183.146,163.698 186.813,161.364 190.5,159C 191.598,158.23 191.598,157.397 190.5,156.5 Z"/></g>
<g><path style="opacity:0.893" fill="#01c8ff" d="M 142.5,176.5 C 143.833,176.5 145.167,176.5 146.5,176.5C 145.84,179.649 143.84,181.149 140.5,181C 129.348,191.403 118.015,201.569 106.5,211.5C 105.833,211.5 105.167,211.5 104.5,211.5C 107.137,207.752 110.137,204.252 113.5,201C 123.651,193.344 133.318,185.178 142.5,176.5 Z"/></g>
<g><path style="opacity:1" fill="#7e00ff" d="M 237.5,149.5 C 237.5,150.833 237.5,152.167 237.5,153.5C 233.702,156.796 230.036,160.296 226.5,164C 211.894,174.934 197.561,186.267 183.5,198C 178.557,202.091 174.224,206.591 170.5,211.5C 168.167,211.5 165.833,211.5 163.5,211.5C 166.845,207.642 170.845,204.475 175.5,202C 178.957,196.377 183.29,191.543 188.5,187.5C 197.853,180.163 207.52,173.329 217.5,167C 220.538,164.297 223.205,161.297 225.5,158C 228.463,156.039 231.129,153.706 233.5,151C 234.745,150.209 236.078,149.709 237.5,149.5 Z"/></g>
<g><path style="opacity:1" fill="#01f7fe" d="M 132.5,176.5 C 134.5,176.5 136.5,176.5 138.5,176.5C 136.157,179.002 133.823,181.502 131.5,184C 130.5,184.333 129.5,184.667 128.5,185C 118.9,194.438 108.566,202.938 97.5,210.5C 97.1667,210.5 96.8333,210.5 96.5,210.5C 98.538,208.457 100.205,206.124 101.5,203.5C 112.548,195.17 122.881,186.17 132.5,176.5 Z"/></g>
<g><path style="opacity:1" fill="#ff00c5" d="M 237.5,178.5 C 237.5,179.833 237.5,181.167 237.5,182.5C 230.715,187.07 224.049,191.903 217.5,197C 214.963,199.872 212.13,202.372 209,204.5C 208.31,207.196 206.81,209.363 204.5,211C 199.882,213.95 195.548,217.284 191.5,221C 189.03,221.989 186.697,223.155 184.5,224.5C 183.167,223.833 182.167,222.833 181.5,221.5C 195.803,209.675 210.136,197.841 224.5,186C 228.977,183.677 233.31,181.177 237.5,178.5 Z"/></g>
<g><path style="opacity:1" fill="#01feef" d="M 128.5,176.5 C 129.833,176.5 131.167,176.5 132.5,176.5C 122.881,186.17 112.548,195.17 101.5,203.5C 100.205,206.124 98.538,208.457 96.5,210.5C 95.2905,210.068 94.2905,209.401 93.5,208.5C 98.8813,202.966 104.881,198.133 111.5,194C 113.041,192.421 114.208,190.587 115,188.5C 119.102,183.896 123.602,179.896 128.5,176.5 Z"/></g>
<g><path style="opacity:1" fill="#01deff" d="M 138.5,176.5 C 139.833,176.5 141.167,176.5 142.5,176.5C 133.318,185.178 123.651,193.344 113.5,201C 110.137,204.252 107.137,207.752 104.5,211.5C 101.941,211.802 99.6074,211.468 97.5,210.5C 108.566,202.938 118.9,194.438 128.5,185C 129.5,184.667 130.5,184.333 131.5,184C 133.823,181.502 136.157,179.002 138.5,176.5 Z"/></g>
<g><path style="opacity:1" fill="#ad00ff" d="M 237.5,153.5 C 237.5,156.5 237.5,159.5 237.5,162.5C 235.22,163.64 232.886,164.807 230.5,166C 213.487,181.344 196.154,196.344 178.5,211C 176.548,211.366 174.882,212.199 173.5,213.5C 172.5,212.833 171.5,212.167 170.5,211.5C 174.224,206.591 178.557,202.091 183.5,198C 197.561,186.267 211.894,174.934 226.5,164C 230.036,160.296 233.702,156.796 237.5,153.5 Z"/></g>
<g><path style="opacity:1" fill="#02fe76" d="M 131.5,156.5 C 134.5,156.5 137.5,156.5 140.5,156.5C 139.457,159.056 137.79,161.223 135.5,163C 132.771,163.566 130.771,165.066 129.5,167.5C 125.363,167.146 121.363,167.646 117.5,169C 116.594,170.699 116.261,172.533 116.5,174.5C 106.855,181.483 97.5221,188.816 88.5,196.5C 88.5,194.5 88.5,192.5 88.5,190.5C 102.696,178.913 117.029,167.58 131.5,156.5 Z"/></g>
<g><path style="opacity:1" fill="#0184ff" d="M 179.5,156.5 C 180.833,156.5 182.167,156.5 183.5,156.5C 182.976,159.188 181.309,160.688 178.5,161C 158.332,177.671 138.332,194.504 118.5,211.5C 117.5,211.5 116.5,211.5 115.5,211.5C 116.568,208.925 118.235,206.758 120.5,205C 125.833,201.667 131.167,198.333 136.5,195C 141.173,190.66 145.506,185.994 149.5,181C 157.053,176.052 164.053,170.385 170.5,164C 174.876,163.122 177.876,160.622 179.5,156.5 Z"/></g>
<g><path style="opacity:1" fill="#01fe94" d="M 116.5,174.5 C 117.167,174.5 117.5,174.833 117.5,175.5C 107.79,183.881 98.4566,192.548 89.5,201.5C 88.5489,200.081 88.2155,198.415 88.5,196.5C 97.5221,188.816 106.855,181.483 116.5,174.5 Z"/></g>
<g><path style="opacity:1" fill="#02acff" d="M 146.5,176.5 C 147.5,176.5 148.5,176.5 149.5,176.5C 148.91,177.766 148.41,179.099 148,180.5C 135.893,191.452 123.393,201.786 110.5,211.5C 109.167,211.5 107.833,211.5 106.5,211.5C 118.015,201.569 129.348,191.403 140.5,181C 143.84,181.149 145.84,179.649 146.5,176.5 Z"/></g>
<g><path style="opacity:1" fill="#ff00ea" d="M 237.5,170.5 C 237.5,173.167 237.5,175.833 237.5,178.5C 233.31,181.177 228.977,183.677 224.5,186C 210.136,197.841 195.803,209.675 181.5,221.5C 180.5,221.167 179.833,220.5 179.5,219.5C 198.873,203.156 218.207,186.823 237.5,170.5 Z"/></g>
<g><path style="opacity:1" fill="#4f00ff" d="M 237.5,138.5 C 237.5,142.167 237.5,145.833 237.5,149.5C 236.078,149.709 234.745,150.209 233.5,151C 231.129,153.706 228.463,156.039 225.5,158C 223.205,161.297 220.538,164.297 217.5,167C 207.52,173.329 197.853,180.163 188.5,187.5C 183.29,191.543 178.957,196.377 175.5,202C 170.845,204.475 166.845,207.642 163.5,211.5C 159.5,211.5 155.5,211.5 151.5,211.5C 155.237,206.918 159.57,202.751 164.5,199C 168.985,197.523 172.651,194.857 175.5,191C 183.671,186.172 190.671,179.839 196.5,172C 199.772,170.392 202.772,168.392 205.5,166C 216.09,156.564 226.757,147.397 237.5,138.5 Z"/></g>
<g><path style="opacity:1" fill="#ff008b" d="M 237.5,185.5 C 237.5,187.5 237.5,189.5 237.5,191.5C 229.015,197.918 220.681,204.585 212.5,211.5C 210.744,212.552 210.077,214.219 210.5,216.5C 209.448,216.351 208.448,216.517 207.5,217C 201.524,221.241 195.857,225.741 190.5,230.5C 188.833,229.5 187.5,228.167 186.5,226.5C 195.05,219.541 204.05,213.041 213.5,207C 218.11,201.676 222.777,196.343 227.5,191C 231.185,189.818 234.518,187.984 237.5,185.5 Z"/></g>
<g><path style="opacity:1" fill="#01feb0" d="M 117.5,175.5 C 119.717,176.369 122.05,176.702 124.5,176.5C 119.122,180.368 114.122,184.868 109.5,190C 106.385,192.117 103.052,193.784 99.5,195C 96.5876,198.419 93.2543,201.252 89.5,203.5C 89.5,202.833 89.5,202.167 89.5,201.5C 98.4566,192.548 107.79,183.881 117.5,175.5 Z"/></g>
<g><path style="opacity:1" fill="#d100ff" d="M 237.5,162.5 C 237.5,164.5 237.5,166.5 237.5,168.5C 217.033,181.939 197.7,197.106 179.5,214C 178.255,214.791 176.922,215.291 175.5,215.5C 174.5,215.167 173.833,214.5 173.5,213.5C 174.882,212.199 176.548,211.366 178.5,211C 196.154,196.344 213.487,181.344 230.5,166C 232.886,164.807 235.22,163.64 237.5,162.5 Z"/></g>
<g><path style="opacity:1" fill="#eb00fe" d="M 237.5,168.5 C 237.5,169.167 237.5,169.833 237.5,170.5C 218.207,186.823 198.873,203.156 179.5,219.5C 177.833,218.5 176.5,217.167 175.5,215.5C 176.922,215.291 178.255,214.791 179.5,214C 197.7,197.106 217.033,181.939 237.5,168.5 Z"/></g>
<g><path style="opacity:1" fill="#016eff" d="M 183.5,156.5 C 184.167,156.5 184.833,156.5 185.5,156.5C 184.797,158.716 183.464,160.549 181.5,162C 175.241,165.961 169.575,170.627 164.5,176C 163.5,176.333 162.5,176.667 161.5,177C 158.833,180.333 156.167,183.667 153.5,187C 145.873,192.295 138.539,197.962 131.5,204C 129.754,204.471 128.087,205.138 126.5,206C 125.964,208.508 124.631,210.341 122.5,211.5C 121.167,211.5 119.833,211.5 118.5,211.5C 138.332,194.504 158.332,177.671 178.5,161C 181.309,160.688 182.976,159.188 183.5,156.5 Z"/></g>
<g><path style="opacity:1" fill="#ff0069" d="M 237.5,191.5 C 237.5,193.5 237.5,195.5 237.5,197.5C 231.208,201.791 225.208,206.458 219.5,211.5C 217.167,211.5 214.833,211.5 212.5,211.5C 220.681,204.585 229.015,197.918 237.5,191.5 Z"/></g>
<g><path style="opacity:1" fill="#ff0040" d="M 237.5,197.5 C 236.496,208.356 230.496,213.023 219.5,211.5C 225.208,206.458 231.208,201.791 237.5,197.5 Z"/></g>
<g><path style="opacity:0.665" fill="#02ffd5" d="M 124.5,176.5 C 125.833,176.5 127.167,176.5 128.5,176.5C 123.602,179.896 119.102,183.896 115,188.5C 114.208,190.587 113.041,192.421 111.5,194C 104.881,198.133 98.8813,202.966 93.5,208.5C 91.9373,207.055 90.604,205.389 89.5,203.5C 93.2543,201.252 96.5876,198.419 99.5,195C 103.052,193.784 106.385,192.117 109.5,190C 114.122,184.868 119.122,180.368 124.5,176.5 Z"/></g>
<g><path style="opacity:1" fill="#0159ff" d="M 185.5,156.5 C 187.167,156.5 188.833,156.5 190.5,156.5C 191.598,157.397 191.598,158.23 190.5,159C 186.813,161.364 183.146,163.698 179.5,166C 172.954,171.719 166.288,177.219 159.5,182.5C 158.866,184.567 157.866,186.4 156.5,188C 146.065,194.94 136.399,202.773 127.5,211.5C 125.833,211.5 124.167,211.5 122.5,211.5C 124.631,210.341 125.964,208.508 126.5,206C 128.087,205.138 129.754,204.471 131.5,204C 138.539,197.962 145.873,192.295 153.5,187C 156.167,183.667 158.833,180.333 161.5,177C 162.5,176.667 163.5,176.333 164.5,176C 169.575,170.627 175.241,165.961 181.5,162C 183.464,160.549 184.797,158.716 185.5,156.5 Z"/></g>
<g><path style="opacity:1" fill="#ff00a7" d="M 237.5,182.5 C 237.5,183.5 237.5,184.5 237.5,185.5C 234.518,187.984 231.185,189.818 227.5,191C 222.777,196.343 218.11,201.676 213.5,207C 204.05,213.041 195.05,219.541 186.5,226.5C 185.5,226.167 184.833,225.5 184.5,224.5C 186.697,223.155 189.03,221.989 191.5,221C 195.548,217.284 199.882,213.95 204.5,211C 206.81,209.363 208.31,207.196 209,204.5C 212.13,202.372 214.963,199.872 217.5,197C 224.049,191.903 230.715,187.07 237.5,182.5 Z"/></g>
<g><path style="opacity:1" fill="#ff005c" d="M 210.5,216.5 C 210.5,217.833 210.5,219.167 210.5,220.5C 204.82,224.852 199.486,229.519 194.5,234.5C 192.833,233.5 191.5,232.167 190.5,230.5C 195.857,225.741 201.524,221.241 207.5,217C 208.448,216.517 209.448,216.351 210.5,216.5 Z"/></g>
<g><path style="opacity:1" fill="#ff0029" d="M 210.5,220.5 C 210.5,223.167 210.5,225.833 210.5,228.5C 205.848,231.486 201.848,235.153 198.5,239.5C 196.457,238.421 195.124,236.754 194.5,234.5C 199.486,229.519 204.82,224.852 210.5,220.5 Z"/></g>
<g><path style="opacity:0.895" fill="#ff0003" d="M 210.5,228.5 C 210.803,233.43 210.469,238.263 209.5,243C 204.916,244.337 201.249,243.171 198.5,239.5C 201.848,235.153 205.848,231.486 210.5,228.5 Z"/></g>
</svg>
