<?xml version="1.0" encoding="UTF-8"?>
<!DOCTYPE svg PUBLIC "-//W3C//DTD SVG 1.1//EN" "http://www.w3.org/Graphics/SVG/1.1/DTD/svg11.dtd">
<svg xmlns="http://www.w3.org/2000/svg" version="1.1" width="512px" height="512px" style="shape-rendering:geometricPrecision; text-rendering:geometricPrecision; image-rendering:optimizeQuality; fill-rule:evenodd; clip-rule:evenodd" xmlns:xlink="http://www.w3.org/1999/xlink">
<g><path style="opacity:1" fill="#fd0f12" d="M 363.5,101.5 C 354.076,97.9538 345.076,93.6205 336.5,88.5C 342.799,82.3663 348.966,76.0329 355,69.5C 356.381,71.6349 357.381,73.9682 358,76.5C 359.953,84.847 361.787,93.1803 363.5,101.5 Z"/></g>
<g><path style="opacity:1" fill="#fe083d" d="M 336.5,88.5 C 345.076,93.6205 354.076,97.9538 363.5,101.5C 364.583,105.085 365.249,108.751 365.5,112.5C 353.418,107.293 341.752,101.293 330.5,94.5C 332.5,92.5 334.5,90.5 336.5,88.5 Z"/></g>
<g><path style="opacity:1" fill="#fe0457" d="M 330.5,94.5 C 341.752,101.293 353.418,107.293 365.5,112.5C 366.301,114.042 366.634,115.708 366.5,117.5C 366.631,118.239 366.464,118.906 366,119.5C 353.367,112.767 340.534,106.433 327.5,100.5C 326.702,100.043 326.369,99.3764 326.5,98.5C 327.833,97.1667 329.167,95.8333 330.5,94.5 Z"/></g>
<g><path style="opacity:1" fill="#fe0881" d="M 326.5,98.5 C 326.369,99.3764 326.702,100.043 327.5,100.5C 340.534,106.433 353.367,112.767 366,119.5C 366.464,118.906 366.631,118.239 366.5,117.5C 368.277,122.947 369.61,128.614 370.5,134.5C 353.678,124.254 336.011,115.254 317.5,107.5C 320.272,104.306 323.272,101.306 326.5,98.5 Z"/></g>
<g><path style="opacity:1" fill="#fe03d5" d="M 308.5,116.5 C 330.086,127.128 351.753,137.461 373.5,147.5C 374.167,150.167 374.833,152.833 375.5,155.5C 353.522,144.775 331.522,133.942 309.5,123C 307.564,122.187 305.564,121.687 303.5,121.5C 304.833,119.5 306.5,117.833 308.5,116.5 Z"/></g>
<g><path style="opacity:1" fill="#fe02ad" d="M 317.5,107.5 C 336.011,115.254 353.678,124.254 370.5,134.5C 371.628,138.804 372.628,143.138 373.5,147.5C 351.753,137.461 330.086,127.128 308.5,116.5C 311.306,113.272 314.306,110.272 317.5,107.5 Z"/></g>
<g><path style="opacity:1" fill="#fe03ec" d="M 303.5,121.5 C 305.564,121.687 307.564,122.187 309.5,123C 331.522,133.942 353.522,144.775 375.5,155.5C 376.369,157.717 376.702,160.05 376.5,162.5C 351.085,149.587 325.418,137.254 299.5,125.5C 300.326,123.736 301.659,122.402 303.5,121.5 Z"/></g>
<g><path style="opacity:1" fill="#bb03fe" d="M 291.5,133.5 C 320.822,148.995 350.489,163.661 380.5,177.5C 381.658,179.74 382.992,181.906 384.5,184C 388.013,184.927 391.513,185.761 395,186.5C 395.414,186.043 395.914,185.709 396.5,185.5C 397.057,187.332 398.057,188.665 399.5,189.5C 399.5,191.833 399.5,194.167 399.5,196.5C 361.813,176.99 323.813,157.99 285.5,139.5C 287.061,137.027 289.061,135.027 291.5,133.5 Z"/></g>
<g><path style="opacity:1" fill="#e301fe" d="M 299.5,125.5 C 325.418,137.254 351.085,149.587 376.5,162.5C 378.255,166.997 379.588,171.663 380.5,176.5C 380.5,176.833 380.5,177.167 380.5,177.5C 350.489,163.661 320.822,148.995 291.5,133.5C 293.833,130.5 296.5,127.833 299.5,125.5 Z"/></g>
<g><path style="opacity:1" fill="#a200fe" d="M 285.5,139.5 C 323.813,157.99 361.813,176.99 399.5,196.5C 399.448,198.903 399.781,201.236 400.5,203.5C 379.597,194.049 359.264,183.549 339.5,172C 321.636,163.82 303.969,155.153 286.5,146C 284.564,145.187 282.564,144.687 280.5,144.5C 281.833,142.5 283.5,140.833 285.5,139.5 Z"/></g>
<g><path style="opacity:1" fill="#fe4a05" d="M 86.5,173.5 C 83.8645,179.435 80.6978,185.102 77,190.5C 76.3292,191.252 75.4959,191.586 74.5,191.5C 72.351,183.891 69.6843,176.391 66.5,169C 72.4897,169.659 78.4897,170.659 84.5,172C 85.4158,172.278 86.0825,172.778 86.5,173.5 Z"/></g>
<g><path style="opacity:1" fill="#feb804" d="M 104.5,177.5 C 107.059,177.198 109.393,177.532 111.5,178.5C 110.542,178.953 109.708,179.619 109,180.5C 102.731,191.763 96.0639,202.763 89,213.5C 88.7248,216.412 87.8914,219.079 86.5,221.5C 84.9446,218.424 83.9446,215.091 83.5,211.5C 91.0001,200.505 98.0001,189.172 104.5,177.5 Z"/></g>
<g><path style="opacity:1" fill="#8700fe" d="M 280.5,144.5 C 282.564,144.687 284.564,145.187 286.5,146C 303.969,155.153 321.636,163.82 339.5,172C 359.264,183.549 379.597,194.049 400.5,203.5C 401.219,205.764 401.552,208.097 401.5,210.5C 359.627,189.772 317.627,169.439 275.5,149.5C 276.833,147.5 278.5,145.833 280.5,144.5 Z"/></g>
<g><path style="opacity:0.624" fill="#b35efa" d="M 409.5,190.5 C 407.618,190.736 405.784,190.736 404,190.5C 403.085,189.672 402.419,188.672 402,187.5C 401.292,188.381 400.458,189.047 399.5,189.5C 398.057,188.665 397.057,187.332 396.5,185.5C 395.914,185.709 395.414,186.043 395,186.5C 391.513,185.761 388.013,184.927 384.5,184C 382.992,181.906 381.658,179.74 380.5,177.5C 380.5,177.167 380.5,176.833 380.5,176.5C 383.386,176.7 385.886,177.7 388,179.5C 393.934,179.354 399.767,177.354 405.5,173.5C 408.209,178.832 409.543,184.498 409.5,190.5 Z"/></g>
<g><path style="opacity:1" fill="#fe7e03" d="M 86.5,173.5 C 91.3743,173.358 96.041,174.024 100.5,175.5C 92.9029,185.021 86.5696,195.355 81.5,206.5C 79.3587,201.409 77.0254,196.409 74.5,191.5C 75.4959,191.586 76.3292,191.252 77,190.5C 80.6978,185.102 83.8645,179.435 86.5,173.5 Z"/></g>
<g><path style="opacity:1" fill="#116cfe" d="M 238.5,186.5 C 273.934,203.383 309.267,220.55 344.5,238C 350.183,238.346 354.85,240.512 358.5,244.5C 357.833,244.5 357.167,244.5 356.5,244.5C 352.557,242.037 348.224,240.37 343.5,239.5C 338.823,237.827 334.157,236.16 329.5,234.5C 323.151,232.325 316.818,229.992 310.5,227.5C 309.209,227.737 308.209,227.404 307.5,226.5C 283.354,213.926 259.02,201.593 234.5,189.5C 235.526,188.147 236.859,187.147 238.5,186.5 Z"/></g>
<g><path style="opacity:1" fill="#fe9f01" d="M 100.5,175.5 C 102.153,175.66 103.486,176.326 104.5,177.5C 98.0001,189.172 91.0001,200.505 83.5,211.5C 81.7868,210.365 81.1201,208.698 81.5,206.5C 86.5696,195.355 92.9029,185.021 100.5,175.5 Z"/></g>
<g><path style="opacity:1" fill="#f2fb01" d="M 119.5,180.5 C 124.036,180.433 128.369,181.099 132.5,182.5C 120.132,203.494 107.466,224.16 94.5,244.5C 92.9878,239.453 91.3212,234.453 89.5,229.5C 99.4953,213.207 109.495,196.874 119.5,180.5 Z"/></g>
<g><path style="opacity:1" fill="#0380fe" d="M 234.5,189.5 C 259.02,201.593 283.354,213.926 307.5,226.5C 302.225,224.923 296.891,223.589 291.5,222.5C 289.718,220.643 287.385,219.643 284.5,219.5C 282.54,217.79 280.373,217.457 278,218.5C 271.579,228.693 265.746,239.027 260.5,249.5C 259.353,246.59 258.353,243.59 257.5,240.5C 257.5,239.167 257.5,237.833 257.5,236.5C 261.624,228.927 265.79,221.26 270,213.5C 271.466,215.325 273.299,215.825 275.5,215C 267.654,211.174 259.654,207.84 251.5,205C 244.117,201.646 237.117,197.813 230.5,193.5C 231.833,192.167 233.167,190.833 234.5,189.5 Z"/></g>
<g><path style="opacity:1" fill="#002ffe" d="M 249.5,174.5 C 256.773,181.306 265.44,185.806 275.5,188C 296.648,198.743 317.648,209.076 338.5,219C 339.047,219.925 339.713,220.758 340.5,221.5C 358.91,229.075 376.91,237.408 394.5,246.5C 395.404,247.209 395.737,248.209 395.5,249.5C 395.631,250.239 395.464,250.906 395,251.5C 345.314,227.239 295.814,202.906 246.5,178.5C 247.122,176.878 248.122,175.545 249.5,174.5 Z"/></g>
<g><path style="opacity:1" fill="#0dfe12" d="M 170.5,191.5 C 178.579,192.609 186.579,194.276 194.5,196.5C 191.046,204.81 186.88,212.81 182,220.5C 165.27,247.874 148.603,275.207 132,302.5C 131.71,304.952 131.044,307.285 130,309.5C 126.906,311.692 124.406,314.359 122.5,317.5C 119.397,310.066 116.73,302.4 114.5,294.5C 115.368,292.598 116.368,290.765 117.5,289C 117.108,287.989 116.441,287.489 115.5,287.5C 122.387,277.06 128.22,266.06 133,254.5C 146.026,233.775 158.526,212.775 170.5,191.5 Z"/></g>
<g><path style="opacity:1" fill="#5500fe" d="M 275.5,149.5 C 317.627,169.439 359.627,189.772 401.5,210.5C 402.15,212.447 403.317,214.113 405,215.5C 405.494,217.134 405.66,218.801 405.5,220.5C 400.965,222.007 396.299,223.007 391.5,223.5C 392.172,222.733 393.005,222.066 394,221.5C 360.949,204.957 327.449,188.457 293.5,172C 291.833,170.667 290.167,169.333 288.5,168C 280.185,165.974 272.185,163.141 264.5,159.5C 268.141,156.195 271.808,152.862 275.5,149.5 Z"/></g>
<g><path style="opacity:1" fill="#00fe3d" d="M 194.5,196.5 C 196.764,197.219 199.097,197.552 201.5,197.5C 176.402,240.039 151.068,282.373 125.5,324.5C 123.755,322.562 122.755,320.229 122.5,317.5C 124.406,314.359 126.906,311.692 130,309.5C 131.044,307.285 131.71,304.952 132,302.5C 148.603,275.207 165.27,247.874 182,220.5C 186.88,212.81 191.046,204.81 194.5,196.5 Z"/></g>
<g><path style="opacity:1" fill="#00fe55" d="M 201.5,197.5 C 202.708,198.234 204.041,198.567 205.5,198.5C 205.804,199.15 206.137,199.817 206.5,200.5C 180.405,244.364 154.072,288.03 127.5,331.5C 126.067,329.442 125.4,327.108 125.5,324.5C 151.068,282.373 176.402,240.039 201.5,197.5 Z"/></g>
<g><path style="opacity:1" fill="#1507fe" d="M 264.5,159.5 C 272.185,163.141 280.185,165.974 288.5,168C 290.167,169.333 291.833,170.667 293.5,172C 327.449,188.457 360.949,204.957 394,221.5C 393.005,222.066 392.172,222.733 391.5,223.5C 391.539,227.733 392.205,231.733 393.5,235.5C 394.244,239.119 394.577,242.785 394.5,246.5C 376.91,237.408 358.91,229.075 340.5,221.5C 339.713,220.758 339.047,219.925 338.5,219C 317.648,209.076 296.648,198.743 275.5,188C 265.44,185.806 256.773,181.306 249.5,174.5C 254.527,169.473 259.527,164.473 264.5,159.5 Z"/></g>
<g><path style="opacity:1" fill="#d5fe01" d="M 132.5,182.5 C 134.514,182.392 136.18,183.058 137.5,184.5C 124.214,206.748 111.214,229.081 98.5,251.5C 97.1722,249.207 95.8389,246.873 94.5,244.5C 107.466,224.16 120.132,203.494 132.5,182.5 Z"/></g>
<g><path style="opacity:1" fill="#7dfe02" d="M 149.5,186.5 C 152.833,187.167 156.167,187.833 159.5,188.5C 153.497,195.156 148.997,202.823 146,211.5C 138.962,222.61 132.296,233.943 126,245.5C 124.846,246.743 123.512,247.743 122,248.5C 116.639,257.033 111.472,265.7 106.5,274.5C 104.938,271.018 103.605,267.352 102.5,263.5C 118.6,238.073 134.267,212.407 149.5,186.5 Z"/></g>
<g><path style="opacity:1" fill="#0040fe" d="M 246.5,178.5 C 295.814,202.906 345.314,227.239 395,251.5C 395.464,250.906 395.631,250.239 395.5,249.5C 396.461,251.265 396.795,253.265 396.5,255.5C 345.61,231.722 294.944,207.389 244.5,182.5C 243.702,182.043 243.369,181.376 243.5,180.5C 244.222,179.449 245.222,178.782 246.5,178.5 Z"/></g>
<g><path style="opacity:1" fill="#0a58fe" d="M 243.5,180.5 C 243.369,181.376 243.702,182.043 244.5,182.5C 294.944,207.389 345.61,231.722 396.5,255.5C 396.833,256.167 397.167,256.833 397.5,257.5C 396.209,257.737 395.209,257.404 394.5,256.5C 392.393,255.532 390.059,255.198 387.5,255.5C 386.817,253.824 385.483,253.157 383.5,253.5C 382.365,251.787 380.698,251.12 378.5,251.5C 376.626,250.715 374.626,250.048 372.5,249.5C 371.432,248.566 370.099,248.232 368.5,248.5C 367.01,246.72 365.01,246.054 362.5,246.5C 361.713,244.896 360.38,244.229 358.5,244.5C 354.85,240.512 350.183,238.346 344.5,238C 309.267,220.55 273.934,203.383 238.5,186.5C 239.82,184.183 241.486,182.183 243.5,180.5 Z"/></g>
<g><path style="opacity:1" fill="#fed402" d="M 111.5,178.5 C 114.373,178.802 117.039,179.469 119.5,180.5C 109.495,196.874 99.4953,213.207 89.5,229.5C 88.5,226.833 87.5,224.167 86.5,221.5C 87.8914,219.079 88.7248,216.412 89,213.5C 96.0639,202.763 102.731,191.763 109,180.5C 109.708,179.619 110.542,178.953 111.5,178.5 Z"/></g>
<g><path style="opacity:1" fill="#06fced" d="M 234.5,203.5 C 238.74,204.819 243.073,205.819 247.5,206.5C 244.089,211.751 240.089,216.585 235.5,221C 241.616,223.558 247.616,226.391 253.5,229.5C 254.941,231.724 256.274,234.058 257.5,236.5C 257.5,237.833 257.5,239.167 257.5,240.5C 248.86,236.18 240.193,231.847 231.5,227.5C 228.405,229.589 226.071,232.256 224.5,235.5C 222.486,237.183 220.82,239.183 219.5,241.5C 218.5,241.833 217.833,242.5 217.5,243.5C 213.797,246.867 210.464,250.534 207.5,254.5C 203.606,258.608 199.939,262.941 196.5,267.5C 196.158,268.338 195.492,268.672 194.5,268.5C 195.64,266.22 196.807,263.886 198,261.5C 201.228,258.694 204.228,255.694 207,252.5C 208,249.833 209,247.167 210,244.5C 218.178,230.806 226.345,217.139 234.5,203.5 Z"/></g>
<g><path style="opacity:1" fill="#079cfe" d="M 230.5,193.5 C 237.117,197.813 244.117,201.646 251.5,205C 259.654,207.84 267.654,211.174 275.5,215C 273.299,215.825 271.466,215.325 270,213.5C 265.79,221.26 261.624,228.927 257.5,236.5C 256.274,234.058 254.941,231.724 253.5,229.5C 253.068,225.712 252.068,222.045 250.5,218.5C 254.171,216.694 256.838,213.861 258.5,210C 254.968,208.368 251.301,207.201 247.5,206.5C 243.073,205.819 238.74,204.819 234.5,203.5C 232.5,203.167 230.5,202.833 228.5,202.5C 226.565,201.85 224.565,201.517 222.5,201.5C 225.194,198.806 227.86,196.14 230.5,193.5 Z"/></g>
<g><path style="opacity:0.406" fill="#663afa" d="M 409.5,190.5 C 411.138,198.687 413.138,206.853 415.5,215C 415.167,216.5 414.833,218 414.5,219.5C 408.734,224.718 402.067,228.385 394.5,230.5C 393.548,232.045 393.215,233.712 393.5,235.5C 392.205,231.733 391.539,227.733 391.5,223.5C 396.299,223.007 400.965,222.007 405.5,220.5C 405.66,218.801 405.494,217.134 405,215.5C 403.317,214.113 402.15,212.447 401.5,210.5C 401.552,208.097 401.219,205.764 400.5,203.5C 399.781,201.236 399.448,198.903 399.5,196.5C 399.5,194.167 399.5,191.833 399.5,189.5C 400.458,189.047 401.292,188.381 402,187.5C 402.419,188.672 403.085,189.672 404,190.5C 405.784,190.736 407.618,190.736 409.5,190.5 Z"/></g>
<g><path style="opacity:1" fill="#0255fe" d="M 284.5,219.5 C 276.912,230.337 270.078,241.67 264,253.5C 263.667,252.833 263.333,252.167 263,251.5C 262.601,251.728 262.435,252.062 262.5,252.5C 261.094,252.027 260.427,251.027 260.5,249.5C 265.746,239.027 271.579,228.693 278,218.5C 280.373,217.457 282.54,217.79 284.5,219.5 Z"/></g>
<g><path style="opacity:1" fill="#09ddfe" d="M 247.5,206.5 C 251.301,207.201 254.968,208.368 258.5,210C 256.838,213.861 254.171,216.694 250.5,218.5C 252.068,222.045 253.068,225.712 253.5,229.5C 247.616,226.391 241.616,223.558 235.5,221C 240.089,216.585 244.089,211.751 247.5,206.5 Z"/></g>
<g><path style="opacity:1" fill="#03fec1" d="M 228.5,202.5 C 230.5,202.833 232.5,203.167 234.5,203.5C 226.345,217.139 218.178,230.806 210,244.5C 209,247.167 208,249.833 207,252.5C 204.228,255.694 201.228,258.694 198,261.5C 196.807,263.886 195.64,266.22 194.5,268.5C 190.5,273.833 186.5,279.167 182.5,284.5C 179.427,286.569 177.094,289.236 175.5,292.5C 175.167,292.5 174.833,292.5 174.5,292.5C 175.238,287.349 177.738,283.349 182,280.5C 183,277.833 184,275.167 185,272.5C 194.585,256.999 203.918,241.332 213,225.5C 219.141,218.569 224.308,210.903 228.5,202.5 Z"/></g>
<g><path style="opacity:1" fill="#4dfe02" d="M 159.5,188.5 C 163.381,188.935 167.047,189.935 170.5,191.5C 158.526,212.775 146.026,233.775 133,254.5C 128.22,266.06 122.387,277.06 115.5,287.5C 116.441,287.489 117.108,287.989 117.5,289C 116.368,290.765 115.368,292.598 114.5,294.5C 111.312,288.112 108.645,281.445 106.5,274.5C 111.472,265.7 116.639,257.033 122,248.5C 123.512,247.743 124.846,246.743 126,245.5C 132.296,233.943 138.962,222.61 146,211.5C 148.997,202.823 153.497,195.156 159.5,188.5 Z"/></g>
<g><path style="opacity:1" fill="#0134fe" d="M 284.5,219.5 C 287.385,219.643 289.718,220.643 291.5,222.5C 282.627,236.92 274.293,251.586 266.5,266.5C 264.919,264.858 264.253,262.858 264.5,260.5C 263.067,258.442 262.4,256.108 262.5,253.5C 262.5,253.167 262.5,252.833 262.5,252.5C 262.435,252.062 262.601,251.728 263,251.5C 263.333,252.167 263.667,252.833 264,253.5C 270.078,241.67 276.912,230.337 284.5,219.5 Z"/></g>
<g><path style="opacity:1" fill="#03fecb" d="M 257.5,240.5 C 258.353,243.59 259.353,246.59 260.5,249.5C 260.427,251.027 261.094,252.027 262.5,252.5C 262.5,252.833 262.5,253.167 262.5,253.5C 249.61,247.936 236.943,241.936 224.5,235.5C 226.071,232.256 228.405,229.589 231.5,227.5C 240.193,231.847 248.86,236.18 257.5,240.5 Z"/></g>
<g><path style="opacity:1" fill="#b3fe01" d="M 137.5,184.5 C 141.626,184.572 145.626,185.239 149.5,186.5C 134.267,212.407 118.6,238.073 102.5,263.5C 100.566,259.697 99.2324,255.697 98.5,251.5C 111.214,229.081 124.214,206.748 137.5,184.5 Z"/></g>
<g><path style="opacity:1" fill="#04feab" d="M 224.5,235.5 C 236.943,241.936 249.61,247.936 262.5,253.5C 262.4,256.108 263.067,258.442 264.5,260.5C 251.279,254.891 238.279,248.724 225.5,242C 223.209,241.775 221.209,241.608 219.5,241.5C 220.82,239.183 222.486,237.183 224.5,235.5 Z"/></g>
<g><path style="opacity:1" fill="#1406fe" d="M 291.5,222.5 C 296.891,223.589 302.225,224.923 307.5,226.5C 308.209,227.404 309.209,227.737 310.5,227.5C 307.135,236.058 302.635,244.058 297,251.5C 294.698,256.046 292.698,260.713 291,265.5C 284.523,273.461 278.69,281.795 273.5,290.5C 272.833,288.5 272.167,286.5 271.5,284.5C 270.043,280.558 268.71,276.558 267.5,272.5C 267.167,270.5 266.833,268.5 266.5,266.5C 274.293,251.586 282.627,236.92 291.5,222.5 Z"/></g>
<g><path style="opacity:1" fill="#04fea7" d="M 219.5,201.5 C 220.5,202.833 221.5,202.833 222.5,201.5C 224.565,201.517 226.565,201.85 228.5,202.5C 224.308,210.903 219.141,218.569 213,225.5C 203.918,241.332 194.585,256.999 185,272.5C 184,275.167 183,277.833 182,280.5C 177.738,283.349 175.238,287.349 174.5,292.5C 172.167,295.5 169.833,298.5 167.5,301.5C 165.486,303.183 163.82,305.183 162.5,307.5C 159.792,309.266 157.792,311.599 156.5,314.5C 154.164,315.845 152.497,317.845 151.5,320.5C 150.833,320.5 150.5,320.833 150.5,321.5C 148.64,322.939 146.973,324.605 145.5,326.5C 144.512,327.795 143.512,329.128 142.5,330.5C 142.167,330.5 141.833,330.5 141.5,330.5C 167.667,287.875 193.667,244.875 219.5,201.5 Z"/></g>
<g><path style="opacity:1" fill="#02fe66" d="M 217.5,243.5 C 231.806,251.321 246.14,259.154 260.5,267C 262.059,269.784 264.392,271.617 267.5,272.5C 268.71,276.558 270.043,280.558 271.5,284.5C 250.204,274.52 228.87,264.52 207.5,254.5C 210.464,250.534 213.797,246.867 217.5,243.5 Z"/></g>
<g><path style="opacity:1" fill="#fe0190" d="M 378.5,251.5 C 380.698,251.12 382.365,251.787 383.5,253.5C 360.652,289.49 338.485,326.156 317,363.5C 309.798,370.245 305.632,378.245 304.5,387.5C 303.508,387.672 302.842,387.338 302.5,386.5C 302.5,385.167 302.5,383.833 302.5,382.5C 300.934,378.757 301.601,375.424 304.5,372.5C 303.645,371.707 302.811,372.04 302,373.5C 301.685,372.092 302.018,370.759 303,369.5C 307,362.833 311,356.167 315,349.5C 316.828,347.919 318.828,346.585 321,345.5C 334.667,322.833 348.333,300.167 362,277.5C 362.806,273.089 364.473,269.089 367,265.5C 370.769,260.72 374.602,256.053 378.5,251.5 Z"/></g>
<g><path style="opacity:1" fill="#5d00fe" d="M 310.5,227.5 C 316.818,229.992 323.151,232.325 329.5,234.5C 313.522,259.774 298.022,285.441 283,311.5C 282.5,310.5 282,309.5 281.5,308.5C 282.963,306.271 283.797,303.937 284,301.5C 281.962,306.605 280.295,306.605 279,301.5C 278.667,301.833 278.333,302.167 278,302.5C 277.722,301.584 277.222,300.918 276.5,300.5C 275.753,297.101 274.753,293.767 273.5,290.5C 278.69,281.795 284.523,273.461 291,265.5C 292.698,260.713 294.698,256.046 297,251.5C 302.635,244.058 307.135,236.058 310.5,227.5 Z"/></g>
<g><path style="opacity:1" fill="#03fe90" d="M 219.5,241.5 C 221.209,241.608 223.209,241.775 225.5,242C 238.279,248.724 251.279,254.891 264.5,260.5C 264.253,262.858 264.919,264.858 266.5,266.5C 266.833,268.5 267.167,270.5 267.5,272.5C 264.392,271.617 262.059,269.784 260.5,267C 246.14,259.154 231.806,251.321 217.5,243.5C 217.833,242.5 218.5,241.833 219.5,241.5 Z"/></g>
<g><path style="opacity:1" fill="#fd0723" d="M 407.5,261.5 C 408.492,261.328 409.158,261.662 409.5,262.5C 407.278,262.178 405.444,262.845 404,264.5C 374.691,314.181 344.858,363.681 314.5,413C 314.337,416.778 314.67,420.611 315.5,424.5C 314.326,423.486 313.66,422.153 313.5,420.5C 313.371,418.784 313.038,417.117 312.5,415.5C 314.196,411.959 315.03,408.293 315,404.5C 325.543,387.967 335.21,370.967 344,353.5C 345,351.167 346.667,349.5 349,348.5C 357.748,333.334 366.748,318.334 376,303.5C 377,302.833 378,302.167 379,301.5C 386.415,288.335 394.081,275.335 402,262.5C 403.699,261.594 405.533,261.261 407.5,261.5 Z"/></g>
<g><path style="opacity:0.843" fill="#6c63e1" d="M 409.5,262.5 C 411.552,263.053 411.885,264.053 410.5,265.5C 410.443,264.391 410.11,263.391 409.5,262.5 Z"/></g>
<g><path style="opacity:1" fill="#fe060e" d="M 409.5,262.5 C 410.11,263.391 410.443,264.391 410.5,265.5C 409.877,267.711 408.877,269.711 407.5,271.5C 406.094,271.973 405.427,272.973 405.5,274.5C 377.593,328.948 349.426,383.281 321,437.5C 320.617,436.944 320.117,436.611 319.5,436.5C 318.413,432.694 317.079,429.027 315.5,425.5C 315.5,425.167 315.5,424.833 315.5,424.5C 314.67,420.611 314.337,416.778 314.5,413C 344.858,363.681 374.691,314.181 404,264.5C 405.444,262.845 407.278,262.178 409.5,262.5 Z"/></g>
<g><path style="opacity:1" fill="#a704fe" d="M 329.5,234.5 C 334.157,236.16 338.823,237.827 343.5,239.5C 325.567,270.526 307.234,301.359 288.5,332C 289.791,333.292 289.791,334.458 288.5,335.5C 287.508,335.672 286.842,335.338 286.5,334.5C 283.839,325.553 281.172,316.553 278.5,307.5C 277.067,305.442 276.4,303.108 276.5,300.5C 277.222,300.918 277.722,301.584 278,302.5C 278.333,302.167 278.667,301.833 279,301.5C 280.295,306.605 281.962,306.605 284,301.5C 283.797,303.937 282.963,306.271 281.5,308.5C 282,309.5 282.5,310.5 283,311.5C 298.022,285.441 313.522,259.774 329.5,234.5 Z"/></g>
<g><path style="opacity:1" fill="#ea01fe" d="M 343.5,239.5 C 348.224,240.37 352.557,242.037 356.5,244.5C 335.356,280.111 314.19,315.778 293,351.5C 292.617,350.944 292.117,350.611 291.5,350.5C 289.712,345.678 288.712,340.678 288.5,335.5C 289.791,334.458 289.791,333.292 288.5,332C 307.234,301.359 325.567,270.526 343.5,239.5 Z"/></g>
<g><path style="opacity:1" fill="#01fe71" d="M 205.5,198.5 C 206.833,198.833 208.167,199.167 209.5,199.5C 208.248,205.341 206.415,211.008 204,216.5C 179.71,255.796 156.044,295.129 133,334.5C 132.241,336.063 131.074,337.063 129.5,337.5C 128.833,335.5 128.167,333.5 127.5,331.5C 154.072,288.03 180.405,244.364 206.5,200.5C 206.137,199.817 205.804,199.15 205.5,198.5 Z"/></g>
<g><path style="opacity:1" fill="#5761e4" d="M 407.5,271.5 C 407.573,273.027 406.906,274.027 405.5,274.5C 405.427,272.973 406.094,271.973 407.5,271.5 Z"/></g>
<g><path style="opacity:1" fill="#fe0061" d="M 387.5,255.5 C 390.059,255.198 392.393,255.532 394.5,256.5C 392.574,257.242 390.741,258.242 389,259.5C 384.816,268.702 380.149,277.702 375,286.5C 353.022,321.476 331.855,356.809 311.5,392.5C 310.115,393.574 308.949,394.907 308,396.5C 305.042,392.28 305.042,387.947 308,383.5C 309,382.833 310,382.167 311,381.5C 317.667,370.167 324.333,358.833 331,347.5C 332,345.167 333.667,343.5 336,342.5C 353.25,313.298 370.417,284.298 387.5,255.5 Z"/></g>
<g><path style="opacity:1" fill="#2afe00" d="M 196.5,267.5 C 223.715,280.773 251.049,294.106 278.5,307.5C 281.172,316.553 283.839,325.553 286.5,334.5C 270.775,326.136 254.775,317.969 238.5,310C 219.418,302.29 200.751,293.79 182.5,284.5C 186.5,279.167 190.5,273.833 194.5,268.5C 195.492,268.672 196.158,268.338 196.5,267.5 Z"/></g>
<g><path style="opacity:1" fill="#ff00bc" d="M 368.5,248.5 C 370.099,248.232 371.432,248.566 372.5,249.5C 348.962,287.177 325.795,325.51 303,364.5C 301.933,366.692 300.433,368.358 298.5,369.5C 302.396,356.373 308.896,344.706 318,334.5C 335.569,306.137 352.403,277.47 368.5,248.5 Z"/></g>
<g><path style="opacity:1" fill="#01fe29" d="M 207.5,254.5 C 228.87,264.52 250.204,274.52 271.5,284.5C 272.167,286.5 272.833,288.5 273.5,290.5C 274.753,293.767 275.753,297.101 276.5,300.5C 276.4,303.108 277.067,305.442 278.5,307.5C 251.049,294.106 223.715,280.773 196.5,267.5C 199.939,262.941 203.606,258.608 207.5,254.5 Z"/></g>
<g><path style="opacity:1" fill="#fe0333" d="M 403.5,260.5 C 405.099,260.232 406.432,260.566 407.5,261.5C 405.533,261.261 403.699,261.594 402,262.5C 394.081,275.335 386.415,288.335 379,301.5C 378,302.167 377,302.833 376,303.5C 366.748,318.334 357.748,333.334 349,348.5C 346.667,349.5 345,351.167 344,353.5C 335.21,370.967 325.543,387.967 315,404.5C 315.03,408.293 314.196,411.959 312.5,415.5C 311.662,415.158 311.328,414.492 311.5,413.5C 311.567,412.041 311.234,410.708 310.5,409.5C 310.227,407.549 310.893,406.049 312.5,405C 312.167,404.667 311.833,404.333 311.5,404C 325.174,383.147 337.674,361.647 349,339.5C 364.667,313.5 380.333,287.5 396,261.5C 397.133,259.789 398.633,259.289 400.5,260C 399.235,261.337 398.735,262.837 399,264.5C 399.876,262.365 401.376,261.031 403.5,260.5 Z"/></g>
<g><path style="opacity:1" fill="#fe0477" d="M 383.5,253.5 C 385.483,253.157 386.817,253.824 387.5,255.5C 370.417,284.298 353.25,313.298 336,342.5C 333.667,343.5 332,345.167 331,347.5C 324.333,358.833 317.667,370.167 311,381.5C 310,382.167 309,382.833 308,383.5C 305.042,387.947 305.042,392.28 308,396.5C 308.949,394.907 310.115,393.574 311.5,392.5C 311.205,394.423 310.372,396.09 309,397.5C 308.297,399.929 308.463,402.262 309.5,404.5C 307.972,403.198 306.972,401.531 306.5,399.5C 306.125,397.302 305.458,395.302 304.5,393.5C 304.5,391.5 304.5,389.5 304.5,387.5C 305.632,378.245 309.798,370.245 317,363.5C 338.485,326.156 360.652,289.49 383.5,253.5 Z"/></g>
<g><path style="opacity:1" fill="#fe01e9" d="M 356.5,244.5 C 357.167,244.5 357.833,244.5 358.5,244.5C 360.38,244.229 361.713,244.896 362.5,246.5C 347.004,271.818 332.171,297.485 318,323.5C 316.488,324.257 315.154,325.257 314,326.5C 308.599,336.299 302.932,345.965 297,355.5C 295.989,356.337 294.822,356.67 293.5,356.5C 293.386,354.282 292.72,352.282 291.5,350.5C 292.117,350.611 292.617,350.944 293,351.5C 314.19,315.778 335.356,280.111 356.5,244.5 Z"/></g>
<g><path style="opacity:1" fill="#69ff00" d="M 182.5,284.5 C 200.751,293.79 219.418,302.29 238.5,310C 254.775,317.969 270.775,326.136 286.5,334.5C 286.842,335.338 287.508,335.672 288.5,335.5C 288.712,340.678 289.712,345.678 291.5,350.5C 279.194,343.846 266.527,338.013 253.5,333C 240.188,325.195 226.521,318.028 212.5,311.5C 200.897,303.935 188.564,297.602 175.5,292.5C 177.094,289.236 179.427,286.569 182.5,284.5 Z"/></g>
<g><path style="opacity:1" fill="#04fe89" d="M 209.5,199.5 C 212.833,200.167 216.167,200.833 219.5,201.5C 193.667,244.875 167.667,287.875 141.5,330.5C 140.248,332.001 139.248,333.668 138.5,335.5C 136.833,336.5 135.5,337.833 134.5,339.5C 133.272,340.306 132.272,341.306 131.5,342.5C 130.833,340.833 130.167,339.167 129.5,337.5C 131.074,337.063 132.241,336.063 133,334.5C 156.044,295.129 179.71,255.796 204,216.5C 206.415,211.008 208.248,205.341 209.5,199.5 Z"/></g>
<g><path style="opacity:1" fill="#fe04d3" d="M 362.5,246.5 C 365.01,246.054 367.01,246.72 368.5,248.5C 352.403,277.47 335.569,306.137 318,334.5C 308.896,344.706 302.396,356.373 298.5,369.5C 298.167,369.5 297.833,369.5 297.5,369.5C 297.443,368.391 297.11,367.391 296.5,366.5C 296.091,362.944 295.091,359.611 293.5,356.5C 294.822,356.67 295.989,356.337 297,355.5C 302.932,345.965 308.599,336.299 314,326.5C 315.154,325.257 316.488,324.257 318,323.5C 332.171,297.485 347.004,271.818 362.5,246.5 Z"/></g>
<g><path style="opacity:1" fill="#fe04a8" d="M 372.5,249.5 C 374.626,250.048 376.626,250.715 378.5,251.5C 374.602,256.053 370.769,260.72 367,265.5C 364.473,269.089 362.806,273.089 362,277.5C 348.333,300.167 334.667,322.833 321,345.5C 318.828,346.585 316.828,347.919 315,349.5C 311,356.167 307,362.833 303,369.5C 302.018,370.759 301.685,372.092 302,373.5C 302.811,372.04 303.645,371.707 304.5,372.5C 301.601,375.424 300.934,378.757 302.5,382.5C 301.167,380.167 299.833,377.833 298.5,375.5C 298.675,373.379 298.341,371.379 297.5,369.5C 297.833,369.5 298.167,369.5 298.5,369.5C 300.433,368.358 301.933,366.692 303,364.5C 325.795,325.51 348.962,287.177 372.5,249.5 Z"/></g>
<g><path style="opacity:1" fill="#a3ff00" d="M 174.5,292.5 C 174.833,292.5 175.167,292.5 175.5,292.5C 188.564,297.602 200.897,303.935 212.5,311.5C 226.521,318.028 240.188,325.195 253.5,333C 266.527,338.013 279.194,343.846 291.5,350.5C 292.72,352.282 293.386,354.282 293.5,356.5C 295.091,359.611 296.091,362.944 296.5,366.5C 291.401,364.452 286.401,362.118 281.5,359.5C 276.5,356.167 271.5,352.833 266.5,349.5C 263.283,348.028 259.949,346.862 256.5,346C 227.298,330.127 197.631,315.294 167.5,301.5C 169.833,298.5 172.167,295.5 174.5,292.5 Z"/></g>
<g><path style="opacity:1" fill="#fd620c" d="M 134.5,339.5 C 161.96,352.228 189.293,365.562 216.5,379.5C 249.003,395.416 281.669,411.416 314.5,427.5C 315.298,427.043 315.631,426.376 315.5,425.5C 317.079,429.027 318.413,432.694 319.5,436.5C 290.497,422.254 261.164,408.254 231.5,394.5C 229.117,392.83 226.451,391.496 223.5,390.5C 222.478,390.855 221.811,391.522 221.5,392.5C 212.186,388.202 202.853,383.869 193.5,379.5C 193.071,376.853 191.738,374.853 189.5,373.5C 187.989,372.498 186.322,371.831 184.5,371.5C 166.899,361.536 149.232,351.87 131.5,342.5C 132.272,341.306 133.272,340.306 134.5,339.5 Z"/></g>
<g><path style="opacity:1" fill="#f2fe00" d="M 162.5,307.5 C 162.577,308.75 163.244,309.583 164.5,310C 209.138,332.154 253.805,353.987 298.5,375.5C 299.833,377.833 301.167,380.167 302.5,382.5C 302.5,383.833 302.5,385.167 302.5,386.5C 253.52,363.01 204.854,339.01 156.5,314.5C 157.792,311.599 159.792,309.266 162.5,307.5 Z"/></g>
<g><path style="opacity:1" fill="#d0ff00" d="M 167.5,301.5 C 197.631,315.294 227.298,330.127 256.5,346C 259.949,346.862 263.283,348.028 266.5,349.5C 271.5,352.833 276.5,356.167 281.5,359.5C 286.401,362.118 291.401,364.452 296.5,366.5C 297.11,367.391 297.443,368.391 297.5,369.5C 298.341,371.379 298.675,373.379 298.5,375.5C 253.805,353.987 209.138,332.154 164.5,310C 163.244,309.583 162.577,308.75 162.5,307.5C 163.82,305.183 165.486,303.183 167.5,301.5 Z"/></g>
<g><path style="opacity:1" fill="#ffed00" d="M 156.5,314.5 C 204.854,339.01 253.52,363.01 302.5,386.5C 302.842,387.338 303.508,387.672 304.5,387.5C 304.5,389.5 304.5,391.5 304.5,393.5C 295.292,389.397 285.959,385.564 276.5,382C 263.596,374.716 250.596,367.716 237.5,361C 208.765,347.127 180.098,333.627 151.5,320.5C 152.497,317.845 154.164,315.845 156.5,314.5 Z"/></g>
<g><path style="opacity:1" fill="#fed600" d="M 151.5,320.5 C 180.098,333.627 208.765,347.127 237.5,361C 250.596,367.716 263.596,374.716 276.5,382C 285.959,385.564 295.292,389.397 304.5,393.5C 305.458,395.302 306.125,397.302 306.5,399.5C 254.947,374.392 203.281,349.225 151.5,324C 150.748,323.329 150.414,322.496 150.5,321.5C 150.5,320.833 150.833,320.5 151.5,320.5 Z"/></g>
<g><path style="opacity:1" fill="#fec100" d="M 150.5,321.5 C 150.414,322.496 150.748,323.329 151.5,324C 203.281,349.225 254.947,374.392 306.5,399.5C 306.972,401.531 307.972,403.198 309.5,404.5C 309.5,405.5 309.5,406.5 309.5,407.5C 284.813,394.32 259.813,381.32 234.5,368.5C 231.313,367.135 227.98,366.301 224.5,366C 197.827,353.33 171.494,340.164 145.5,326.5C 146.973,324.605 148.64,322.939 150.5,321.5 Z"/></g>
<g><path style="opacity:1" fill="#fe0347" d="M 394.5,256.5 C 395.209,257.404 396.209,257.737 397.5,257.5C 399.75,258.13 401.75,259.13 403.5,260.5C 401.376,261.031 399.876,262.365 399,264.5C 398.735,262.837 399.235,261.337 400.5,260C 398.633,259.289 397.133,259.789 396,261.5C 380.333,287.5 364.667,313.5 349,339.5C 337.674,361.647 325.174,383.147 311.5,404C 311.833,404.333 312.167,404.667 312.5,405C 310.893,406.049 310.227,407.549 310.5,409.5C 309.662,409.158 309.328,408.492 309.5,407.5C 309.5,406.5 309.5,405.5 309.5,404.5C 308.463,402.262 308.297,399.929 309,397.5C 310.372,396.09 311.205,394.423 311.5,392.5C 331.855,356.809 353.022,321.476 375,286.5C 380.149,277.702 384.816,268.702 389,259.5C 390.741,258.242 392.574,257.242 394.5,256.5 Z"/></g>
<g><path style="opacity:1" fill="#feaf00" d="M 145.5,326.5 C 171.494,340.164 197.827,353.33 224.5,366C 227.98,366.301 231.313,367.135 234.5,368.5C 259.813,381.32 284.813,394.32 309.5,407.5C 309.328,408.492 309.662,409.158 310.5,409.5C 311.234,410.708 311.567,412.041 311.5,413.5C 255.355,385.595 199.021,357.928 142.5,330.5C 143.512,329.128 144.512,327.795 145.5,326.5 Z"/></g>
<g><path style="opacity:1" fill="#ff7800" d="M 138.5,335.5 C 192.261,362.547 246.261,389.38 300.5,416C 304.668,418.089 309.002,419.589 313.5,420.5C 313.66,422.153 314.326,423.486 315.5,424.5C 315.5,424.833 315.5,425.167 315.5,425.5C 315.631,426.376 315.298,427.043 314.5,427.5C 281.669,411.416 249.003,395.416 216.5,379.5C 189.293,365.562 161.96,352.228 134.5,339.5C 135.5,337.833 136.833,336.5 138.5,335.5 Z"/></g>
<g><path style="opacity:1" fill="#ff9100" d="M 141.5,330.5 C 141.833,330.5 142.167,330.5 142.5,330.5C 199.021,357.928 255.355,385.595 311.5,413.5C 311.328,414.492 311.662,415.158 312.5,415.5C 313.038,417.117 313.371,418.784 313.5,420.5C 309.002,419.589 304.668,418.089 300.5,416C 246.261,389.38 192.261,362.547 138.5,335.5C 139.248,333.668 140.248,332.001 141.5,330.5 Z"/></g>
<g><path style="opacity:1" fill="#fe2d02" d="M 193.5,379.5 C 202.853,383.869 212.186,388.202 221.5,392.5C 221.747,396.279 220.58,399.946 218,403.5C 210.081,398.756 201.914,394.589 193.5,391C 192.796,387.223 192.796,383.389 193.5,379.5 Z"/></g>
<g><path style="opacity:0.353" fill="#c753a8" d="M 184.5,371.5 C 186.322,371.831 187.989,372.498 189.5,373.5C 189.49,379.768 189.823,386.102 190.5,392.5C 200.12,397.062 209.62,402.062 219,407.5C 222.303,404.85 225.137,401.85 227.5,398.5C 225.653,405.194 222.486,411.194 218,416.5C 206.843,411.779 196.176,406.112 186,399.5C 184.189,398.922 182.355,398.422 180.5,398C 186.852,389.974 188.186,381.141 184.5,371.5 Z"/></g>
<g><path style="opacity:0.561" fill="#de407c" d="M 189.5,373.5 C 191.738,374.853 193.071,376.853 193.5,379.5C 192.796,383.389 192.796,387.223 193.5,391C 201.914,394.589 210.081,398.756 218,403.5C 220.58,399.946 221.747,396.279 221.5,392.5C 221.811,391.522 222.478,390.855 223.5,390.5C 226.451,391.496 229.117,392.83 231.5,394.5C 230.5,394.5 229.5,394.5 228.5,394.5C 228.768,396.099 228.434,397.432 227.5,398.5C 225.137,401.85 222.303,404.85 219,407.5C 209.62,402.062 200.12,397.062 190.5,392.5C 189.823,386.102 189.49,379.768 189.5,373.5 Z"/></g>
</svg>
