<?xml version="1.0" encoding="UTF-8"?>
<!DOCTYPE svg PUBLIC "-//W3C//DTD SVG 1.1//EN" "http://www.w3.org/Graphics/SVG/1.1/DTD/svg11.dtd">
<svg xmlns="http://www.w3.org/2000/svg" version="1.1" width="256px" height="256px" style="shape-rendering:geometricPrecision; text-rendering:geometricPrecision; image-rendering:optimizeQuality; fill-rule:evenodd; clip-rule:evenodd" xmlns:xlink="http://www.w3.org/1999/xlink">
<g><path style="opacity:0.85" fill="#fefefe" d="M 118.5,9.5 C 168.081,8.03324 205.581,28.3666 231,70.5C 244.961,97.1521 248.628,125.152 242,154.5C 238.218,167.387 233.885,180.054 229,192.5C 226.354,211.23 231.688,227.23 245,240.5C 245.5,244 244,245.5 240.5,245C 224.638,229.425 205.972,224.758 184.5,231C 139.988,252.719 97.321,249.719 56.5,222C 16.5972,188.626 2.43052,146.459 14,95.5C 27.1667,54.3333 54.3333,27.1667 95.5,14C 103.223,12.0502 110.889,10.5502 118.5,9.5 Z"/></g>
<g><path style="opacity:1" fill="#f1fe00" d="M 141.5,16.5 C 144.33,16.9628 146.997,17.6295 149.5,18.5C 144.941,24.208 139.274,28.708 132.5,32C 129.129,35.2832 126.129,38.7832 123.5,42.5C 119.5,42.8333 115.5,43.1667 111.5,43.5C 120.872,35.2904 130.539,27.2904 140.5,19.5C 141.386,18.675 141.719,17.675 141.5,16.5 Z"/></g>
<g><path style="opacity:1" fill="#ffd900" d="M 133.5,16.5 C 135.5,16.5 137.5,16.5 139.5,16.5C 136.416,20.4083 132.416,22.9083 127.5,24C 121.365,31.7314 114.365,38.5648 106.5,44.5C 103.5,45.1667 100.5,45.8333 97.5,46.5C 106.64,38.1985 115.974,30.0318 125.5,22C 129.103,21.3772 131.77,19.5438 133.5,16.5 Z"/></g>
<g><path style="opacity:1" fill="#90ff01" d="M 161.5,21.5 C 163.921,21.8782 166.254,22.5448 168.5,23.5C 161.685,28.4824 155.018,33.6491 148.5,39C 147.695,40.1127 147.028,41.2794 146.5,42.5C 142.802,42.4476 139.135,42.1143 135.5,41.5C 143.454,35.8784 150.788,29.5451 157.5,22.5C 158.689,21.5713 160.022,21.238 161.5,21.5 Z"/></g>
<g><path style="opacity:1" fill="#ffef00" d="M 139.5,16.5 C 140.167,16.5 140.833,16.5 141.5,16.5C 141.719,17.675 141.386,18.675 140.5,19.5C 130.539,27.2904 120.872,35.2904 111.5,43.5C 109.883,44.038 108.216,44.3713 106.5,44.5C 114.365,38.5648 121.365,31.7314 127.5,24C 132.416,22.9083 136.416,20.4083 139.5,16.5 Z"/></g>
<g><path style="opacity:1" fill="#bcff00" d="M 149.5,18.5 C 153.761,18.8984 157.761,19.8984 161.5,21.5C 160.022,21.238 158.689,21.5713 157.5,22.5C 150.788,29.5451 143.454,35.8784 135.5,41.5C 131.5,41.8333 127.5,42.1667 123.5,42.5C 126.129,38.7832 129.129,35.2832 132.5,32C 139.274,28.708 144.941,24.208 149.5,18.5 Z"/></g>
<g><path style="opacity:1" fill="#2dff06" d="M 168.5,23.5 C 175.942,26.3869 182.942,30.0536 189.5,34.5C 189.649,35.552 189.483,36.552 189,37.5C 183.188,42.9666 177.355,48.3 171.5,53.5C 164.516,46.9431 156.182,43.2765 146.5,42.5C 147.028,41.2794 147.695,40.1127 148.5,39C 155.018,33.6491 161.685,28.4824 168.5,23.5 Z"/></g>
<g><path style="opacity:1" fill="#ff4300" d="M 101.5,19.5 C 87.9768,32.8517 73.6434,45.3517 58.5,57C 55.7294,59.0385 52.7294,60.7052 49.5,62C 43.5225,70.2415 36.0225,76.7415 27,81.5C 26.6012,81.2716 26.4346,80.9382 26.5,80.5C 28.4394,75.9098 30.7728,71.5765 33.5,67.5C 33.4346,67.9382 33.6012,68.2716 34,68.5C 39.7503,63.8087 45.917,59.4753 52.5,55.5C 57.3859,48.5417 63.7192,43.2084 71.5,39.5C 73.2877,37.4235 74.9544,35.2568 76.5,33C 81.8946,30.4344 86.5613,26.9344 90.5,22.5C 93.8544,20.7424 97.521,19.7424 101.5,19.5 Z"/></g>
<g><path style="opacity:0.89" fill="#fefefe" d="M 135.5,41.5 C 139.135,42.1143 142.802,42.4476 146.5,42.5C 156.182,43.2765 164.516,46.9431 171.5,53.5C 172.939,55.588 173.606,57.9214 173.5,60.5C 173.335,65.8397 170.668,69.3397 165.5,71C 162.854,71.4974 160.187,71.6641 157.5,71.5C 156.5,71.5 155.5,71.5 154.5,71.5C 148.908,67.9161 143.574,63.9161 138.5,59.5C 136.049,56.7232 133.049,54.7232 129.5,53.5C 126.739,51.7951 123.739,50.4617 120.5,49.5C 116.434,49.307 112.434,49.6403 108.5,50.5C 102.192,50.9897 96.6918,53.323 92,57.5C 89.4801,61.2996 88.9801,65.2996 90.5,69.5C 90.9321,70.7095 91.5987,71.7095 92.5,72.5C 94.6291,74.9501 97.2957,76.6167 100.5,77.5C 103.131,79.1526 105.797,80.8193 108.5,82.5C 115.374,86.1038 122.374,89.4371 129.5,92.5C 130.514,93.6737 131.847,94.3404 133.5,94.5C 133.842,95.3382 134.508,95.6716 135.5,95.5C 136.965,96.7368 138.632,97.7368 140.5,98.5C 142.181,100.008 144.181,101.008 146.5,101.5C 146.5,102.167 146.833,102.5 147.5,102.5C 149.635,104.071 151.968,105.404 154.5,106.5C 154.842,107.338 155.508,107.672 156.5,107.5C 156.973,108.906 157.973,109.573 159.5,109.5C 160.262,111.262 161.596,112.262 163.5,112.5C 164.262,114.262 165.596,115.262 167.5,115.5C 168.167,116.833 169.167,117.833 170.5,118.5C 171.167,119.833 172.167,120.833 173.5,121.5C 173.833,122.5 174.5,123.167 175.5,123.5C 176.512,124.872 177.512,126.205 178.5,127.5C 178.833,128.5 179.5,129.167 180.5,129.5C 183.235,134.722 185.568,140.055 187.5,145.5C 187.5,147.833 187.5,150.167 187.5,152.5C 188.341,154.379 188.675,156.379 188.5,158.5C 187.693,162.021 187.026,165.688 186.5,169.5C 185.559,173.325 184.226,176.991 182.5,180.5C 175.726,192.608 166.059,201.608 153.5,207.5C 147.736,209.976 141.736,211.643 135.5,212.5C 130.446,213.644 125.446,213.644 120.5,212.5C 116.143,212.414 111.81,212.08 107.5,211.5C 101.328,209.418 95.3284,206.752 89.5,203.5C 87.7952,201.808 85.7952,200.475 83.5,199.5C 82.1667,197.5 80.5,195.833 78.5,194.5C 77.4884,193.128 76.4884,191.795 75.5,190.5C 75.0679,189.29 74.4013,188.29 73.5,187.5C 73.0679,186.29 72.4013,185.29 71.5,184.5C 71.6716,183.508 71.3382,182.842 70.5,182.5C 70.5674,181.041 70.2341,179.708 69.5,178.5C 69.1249,176.302 68.4582,174.302 67.5,172.5C 67.5,170.833 67.5,169.167 67.5,167.5C 67.6747,165.379 67.3414,163.379 66.5,161.5C 66.2786,158.721 66.612,156.054 67.5,153.5C 67.5,151.833 67.5,150.167 67.5,148.5C 68.0815,143.917 69.4149,139.583 71.5,135.5C 76.729,125.363 84.729,118.196 95.5,114C 103.997,110.876 112.664,108.376 121.5,106.5C 115.481,101.477 109.481,96.4769 103.5,91.5C 100.859,89.1956 98.192,86.8623 95.5,84.5C 95.1667,83.5 94.5,82.8333 93.5,82.5C 91.5,79.8333 89.1667,77.5 86.5,75.5C 85.5592,73.9505 84.8925,72.2838 84.5,70.5C 83.8902,69.609 83.5569,68.609 83.5,67.5C 83.5,66.5 83.5,65.5 83.5,64.5C 83.5,63.1667 83.5,61.8333 83.5,60.5C 86.4746,54.192 91.1413,49.5253 97.5,46.5C 100.5,45.8333 103.5,45.1667 106.5,44.5C 108.216,44.3713 109.883,44.038 111.5,43.5C 115.5,43.1667 119.5,42.8333 123.5,42.5C 127.5,42.1667 131.5,41.8333 135.5,41.5 Z"/></g>
<g><path style="opacity:1" fill="#ffa700" d="M 124.5,15.5 C 126.5,15.5 128.5,15.5 130.5,15.5C 115.312,27.2021 100.645,39.3688 86.5,52C 76.6032,57.8982 67.9365,65.2315 60.5,74C 54.666,76.807 49.9993,80.9737 46.5,86.5C 37.0388,94.4174 27.3722,102.084 17.5,109.5C 17.5172,107.435 17.8505,105.435 18.5,103.5C 23.6471,99.197 28.9804,95.0304 34.5,91C 41.6768,84.9894 48.3435,78.4894 54.5,71.5C 56.6106,70.0512 58.9439,69.0512 61.5,68.5C 75.0547,57.0206 88.388,45.354 101.5,33.5C 104.005,31.7467 106.671,30.2467 109.5,29C 114.182,24.1237 119.182,19.6237 124.5,15.5 Z"/></g>
<g><path style="opacity:1" fill="#ff1d00" d="M 90.5,22.5 C 86.5613,26.9344 81.8946,30.4344 76.5,33C 74.9544,35.2568 73.2877,37.4235 71.5,39.5C 63.7192,43.2084 57.3859,48.5417 52.5,55.5C 45.917,59.4753 39.7503,63.8087 34,68.5C 33.6012,68.2716 33.4346,67.9382 33.5,67.5C 47.42,46.043 66.42,31.043 90.5,22.5 Z"/></g>
<g><path style="opacity:1" fill="#01fe48" d="M 189.5,34.5 C 192.06,36.2733 194.393,38.2733 196.5,40.5C 188.167,46.4846 180.5,53.1513 173.5,60.5C 173.606,57.9214 172.939,55.588 171.5,53.5C 177.355,48.3 183.188,42.9666 189,37.5C 189.483,36.552 189.649,35.552 189.5,34.5 Z"/></g>
<g><path style="opacity:1" fill="#00f9fe" d="M 213.5,56.5 C 214.401,57.2905 215.068,58.2905 215.5,59.5C 212.854,63.6454 209.187,66.4787 204.5,68C 200.8,72.0352 196.8,75.7019 192.5,79C 190.336,79.9143 188.336,81.081 186.5,82.5C 182.651,86.1818 178.984,90.0151 175.5,94C 173.172,95.324 170.839,96.6574 168.5,98C 165.306,100.772 162.306,103.772 159.5,107C 158.552,107.483 157.552,107.649 156.5,107.5C 155.508,107.672 154.842,107.338 154.5,106.5C 174.192,89.8039 193.858,73.1372 213.5,56.5 Z"/></g>
<g><path style="opacity:1" fill="#9aff00" d="M 120.5,49.5 C 123.739,50.4617 126.739,51.7951 129.5,53.5C 125.216,56.5678 121.216,60.0678 117.5,64C 116.167,64.3333 114.833,64.6667 113.5,65C 108.839,68.8204 104.505,72.9871 100.5,77.5C 97.2957,76.6167 94.6291,74.9501 92.5,72.5C 94.4799,70.8951 96.8132,69.7285 99.5,69C 106.743,62.5839 113.743,56.0839 120.5,49.5 Z"/></g>
<g><path style="opacity:1" fill="#1aff1d" d="M 133.5,48.5 C 142.231,47.7151 150.898,48.8818 159.5,52C 165.311,53.7898 167.811,57.6231 167,63.5C 163.405,65.4559 159.572,65.9559 155.5,65C 148.572,58.8985 141.239,53.3985 133.5,48.5 Z"/></g>
<g><path style="opacity:1" fill="#eefd00" d="M 108.5,50.5 C 106.847,54.1279 104.847,57.4612 102.5,60.5C 101.448,60.3505 100.448,60.5172 99.5,61C 96.657,64.01 93.657,66.8433 90.5,69.5C 88.9801,65.2996 89.4801,61.2996 92,57.5C 96.6918,53.323 102.192,50.9897 108.5,50.5 Z"/></g>
<g><path style="opacity:1" fill="#02feca" d="M 207.5,50.5 C 208.833,51.1667 209.833,52.1667 210.5,53.5C 202.418,59.0776 195.085,65.5776 188.5,73C 185.529,73.4709 182.862,74.6375 180.5,76.5C 176.757,81.519 172.091,85.3524 166.5,88C 165.833,89 165.167,90 164.5,91C 158.364,94.3307 152.698,98.164 147.5,102.5C 146.833,102.5 146.5,102.167 146.5,101.5C 159.911,88.6029 173.911,76.1029 188.5,64C 195.615,60.3517 201.948,55.8517 207.5,50.5 Z"/></g>
<g><path style="opacity:1" fill="#c9ff00" d="M 120.5,49.5 C 113.743,56.0839 106.743,62.5839 99.5,69C 96.8132,69.7285 94.4799,70.8951 92.5,72.5C 91.5987,71.7095 90.9321,70.7095 90.5,69.5C 93.657,66.8433 96.657,64.01 99.5,61C 100.448,60.5172 101.448,60.3505 102.5,60.5C 104.847,57.4612 106.847,54.1279 108.5,50.5C 112.434,49.6403 116.434,49.307 120.5,49.5 Z"/></g>
<g><path style="opacity:1" fill="#68ff01" d="M 129.5,53.5 C 133.049,54.7232 136.049,56.7232 138.5,59.5C 127.93,66.4004 117.93,74.0671 108.5,82.5C 105.797,80.8193 103.131,79.1526 100.5,77.5C 104.505,72.9871 108.839,68.8204 113.5,65C 114.833,64.6667 116.167,64.3333 117.5,64C 121.216,60.0678 125.216,56.5678 129.5,53.5 Z"/></g>
<g><path style="opacity:1" fill="#ff9100" d="M 124.5,15.5 C 119.182,19.6237 114.182,24.1237 109.5,29C 106.671,30.2467 104.005,31.7467 101.5,33.5C 88.388,45.354 75.0547,57.0206 61.5,68.5C 58.9439,69.0512 56.6106,70.0512 54.5,71.5C 48.3435,78.4894 41.6768,84.9894 34.5,91C 28.9804,95.0304 23.6471,99.197 18.5,103.5C 18.8751,101.302 19.5418,99.3024 20.5,97.5C 27.7849,92.7345 34.4515,87.2345 40.5,81C 41.938,80.7811 43.2713,80.2811 44.5,79.5C 47.3451,76.1558 50.3451,72.9891 53.5,70C 54.8333,69.3333 56.1667,68.6667 57.5,68C 61.2234,63.8238 64.89,59.6571 68.5,55.5C 75.8087,51.1737 82.8087,46.3403 89.5,41C 96.5323,33.5999 104.199,26.9332 112.5,21C 113.748,19.6003 114.748,18.1003 115.5,16.5C 118.545,16.4921 121.545,16.1587 124.5,15.5 Z"/></g>
<g><path style="opacity:1" fill="#01fe93" d="M 201.5,44.5 C 202.5,44.8333 203.167,45.5 203.5,46.5C 199.119,52.4263 193.453,57.0929 186.5,60.5C 185.289,62.4219 183.956,64.2552 182.5,66C 169.234,76.2588 156.234,86.9254 143.5,98C 142.552,98.4828 141.552,98.6495 140.5,98.5C 138.632,97.7368 136.965,96.7368 135.5,95.5C 141.602,93.1145 146.602,89.2812 150.5,84C 153.751,82.4226 156.751,80.4226 159.5,78C 163.112,76.8605 166.446,75.1939 169.5,73C 174.162,67.3713 179.495,62.7046 185.5,59C 191.029,54.3009 196.362,49.4676 201.5,44.5 Z"/></g>
<g><path style="opacity:1" fill="#ff7900" d="M 115.5,16.5 C 114.748,18.1003 113.748,19.6003 112.5,21C 104.199,26.9332 96.5323,33.5999 89.5,41C 82.8087,46.3403 75.8087,51.1737 68.5,55.5C 64.89,59.6571 61.2234,63.8238 57.5,68C 56.1667,68.6667 54.8333,69.3333 53.5,70C 50.3451,72.9891 47.3451,76.1558 44.5,79.5C 43.2713,80.2811 41.938,80.7811 40.5,81C 34.4515,87.2345 27.7849,92.7345 20.5,97.5C 20.366,95.7085 20.6993,94.0418 21.5,92.5C 27.6981,88.2134 33.3648,83.2134 38.5,77.5C 43.328,73.9186 48.328,70.5852 53.5,67.5C 58.5009,61.6528 63.8343,56.1528 69.5,51C 72.3616,50.0695 74.695,48.4029 76.5,46C 78.6079,45.6401 80.6079,44.9734 82.5,44C 84.539,41.6255 86.8723,39.6255 89.5,38C 90.9245,35.8995 92.2578,33.7328 93.5,31.5C 97.9404,28.5271 102.107,25.1938 106,21.5C 106.41,20.0993 106.91,18.766 107.5,17.5C 110.167,17.1667 112.833,16.8333 115.5,16.5 Z"/></g>
<g><path style="opacity:1" fill="#ff6100" d="M 107.5,17.5 C 106.91,18.766 106.41,20.0993 106,21.5C 102.107,25.1938 97.9404,28.5271 93.5,31.5C 92.2578,33.7328 90.9245,35.8995 89.5,38C 86.8723,39.6255 84.539,41.6255 82.5,44C 80.6079,44.9734 78.6079,45.6401 76.5,46C 74.695,48.4029 72.3616,50.0695 69.5,51C 63.8343,56.1528 58.5009,61.6528 53.5,67.5C 48.328,70.5852 43.328,73.9186 38.5,77.5C 33.3648,83.2134 27.6981,88.2134 21.5,92.5C 22.7958,88.2613 24.4625,84.2613 26.5,80.5C 26.4346,80.9382 26.6012,81.2716 27,81.5C 36.0225,76.7415 43.5225,70.2415 49.5,62C 52.7294,60.7052 55.7294,59.0385 58.5,57C 73.6434,45.3517 87.9768,32.8517 101.5,19.5C 103.302,18.5418 105.302,17.8751 107.5,17.5 Z"/></g>
<g><path style="opacity:1" fill="#00e6ff" d="M 215.5,59.5 C 216.167,59.5 216.5,59.8333 216.5,60.5C 216.092,61.6431 215.425,62.6431 214.5,63.5C 200.87,72.9621 188.537,83.7954 177.5,96C 171.611,100.764 165.611,105.264 159.5,109.5C 157.973,109.573 156.973,108.906 156.5,107.5C 157.552,107.649 158.552,107.483 159.5,107C 162.306,103.772 165.306,100.772 168.5,98C 170.839,96.6574 173.172,95.324 175.5,94C 178.984,90.0151 182.651,86.1818 186.5,82.5C 188.336,81.081 190.336,79.9143 192.5,79C 196.8,75.7019 200.8,72.0352 204.5,68C 209.187,66.4787 212.854,63.6454 215.5,59.5 Z"/></g>
<g><path style="opacity:1" fill="#1cff0e" d="M 138.5,59.5 C 143.574,63.9161 148.908,67.9161 154.5,71.5C 151.815,73.4617 148.815,74.9617 145.5,76C 144.002,78.4816 142.502,80.9816 141,83.5C 136.459,85.6764 132.626,88.6764 129.5,92.5C 122.374,89.4371 115.374,86.1038 108.5,82.5C 117.93,74.0671 127.93,66.4004 138.5,59.5 Z"/></g>
<g><path style="opacity:1" fill="#ffc300" d="M 130.5,15.5 C 131.791,15.2627 132.791,15.596 133.5,16.5C 131.77,19.5438 129.103,21.3772 125.5,22C 115.974,30.0318 106.64,38.1985 97.5,46.5C 91.1413,49.5253 86.4746,54.192 83.5,60.5C 72.7669,68.5569 62.4336,77.2235 52.5,86.5C 47.5916,88.2791 43.9249,91.4458 41.5,96C 38.2315,98.6166 34.5648,100.283 30.5,101C 27.9094,103.966 24.9094,106.466 21.5,108.5C 21.0042,111.429 19.3376,113.095 16.5,113.5C 16.8333,112.167 17.1667,110.833 17.5,109.5C 27.3722,102.084 37.0388,94.4174 46.5,86.5C 49.9993,80.9737 54.666,76.807 60.5,74C 67.9365,65.2315 76.6032,57.8982 86.5,52C 100.645,39.3688 115.312,27.2021 130.5,15.5 Z"/></g>
<g><path style="opacity:1" fill="#00fe54" d="M 154.5,71.5 C 155.5,71.5 156.5,71.5 157.5,71.5C 156.356,74.4466 154.689,77.1133 152.5,79.5C 145.955,84.2676 139.621,89.2676 133.5,94.5C 131.847,94.3404 130.514,93.6737 129.5,92.5C 132.626,88.6764 136.459,85.6764 141,83.5C 142.502,80.9816 144.002,78.4816 145.5,76C 148.815,74.9617 151.815,73.4617 154.5,71.5 Z"/></g>
<g><path style="opacity:1" fill="#02fe73" d="M 196.5,40.5 C 198.749,41.0798 200.415,42.4131 201.5,44.5C 196.362,49.4676 191.029,54.3009 185.5,59C 179.495,62.7046 174.162,67.3713 169.5,73C 166.446,75.1939 163.112,76.8605 159.5,78C 156.751,80.4226 153.751,82.4226 150.5,84C 146.602,89.2812 141.602,93.1145 135.5,95.5C 134.508,95.6716 133.842,95.3382 133.5,94.5C 139.621,89.2676 145.955,84.2676 152.5,79.5C 154.689,77.1133 156.356,74.4466 157.5,71.5C 160.187,71.6641 162.854,71.4974 165.5,71C 170.668,69.3397 173.335,65.8397 173.5,60.5C 180.5,53.1513 188.167,46.4846 196.5,40.5 Z"/></g>
<g><path style="opacity:1" fill="#03ffe3" d="M 210.5,53.5 C 211.833,54.1667 212.833,55.1667 213.5,56.5C 193.858,73.1372 174.192,89.8039 154.5,106.5C 151.968,105.404 149.635,104.071 147.5,102.5C 152.698,98.164 158.364,94.3307 164.5,91C 165.167,90 165.833,89 166.5,88C 172.091,85.3524 176.757,81.519 180.5,76.5C 182.862,74.6375 185.529,73.4709 188.5,73C 195.085,65.5776 202.418,59.0776 210.5,53.5 Z"/></g>
<g><path style="opacity:1" fill="#0192ff" d="M 221.5,68.5 C 222.906,68.9731 223.573,69.9731 223.5,71.5C 220.253,73.5595 217.086,75.8928 214,78.5C 212.215,82.0081 209.381,84.5081 205.5,86C 204.36,87.9734 203.027,89.8067 201.5,91.5C 190.533,99.8098 180.2,108.81 170.5,118.5C 169.167,117.833 168.167,116.833 167.5,115.5C 186.15,100.476 204.15,84.8095 221.5,68.5 Z"/></g>
<g><path style="opacity:1" fill="#ffd900" d="M 83.5,60.5 C 83.5,61.8333 83.5,63.1667 83.5,64.5C 73.3333,73.4979 62.9999,82.3312 52.5,91C 47.2744,93.5602 42.6077,96.8936 38.5,101C 37.1667,101.333 35.8333,101.667 34.5,102C 29.6333,108.699 23.6333,114.199 16.5,118.5C 16.5,116.833 16.5,115.167 16.5,113.5C 19.3376,113.095 21.0042,111.429 21.5,108.5C 24.9094,106.466 27.9094,103.966 30.5,101C 34.5648,100.283 38.2315,98.6166 41.5,96C 43.9249,91.4458 47.5916,88.2791 52.5,86.5C 62.4336,77.2235 72.7669,68.5569 83.5,60.5 Z"/></g>
<g><path style="opacity:1" fill="#01feac" d="M 203.5,46.5 C 205.167,47.5 206.5,48.8333 207.5,50.5C 201.948,55.8517 195.615,60.3517 188.5,64C 173.911,76.1029 159.911,88.6029 146.5,101.5C 144.181,101.008 142.181,100.008 140.5,98.5C 141.552,98.6495 142.552,98.4828 143.5,98C 156.234,86.9254 169.234,76.2588 182.5,66C 183.956,64.2552 185.289,62.4219 186.5,60.5C 193.453,57.0929 199.119,52.4263 203.5,46.5 Z"/></g>
<g><path style="opacity:1" fill="#0bfe10" d="M 103.5,91.5 C 109.481,96.4769 115.481,101.477 121.5,106.5C 112.664,108.376 103.997,110.876 95.5,114C 84.729,118.196 76.729,125.363 71.5,135.5C 70.448,135.351 69.448,135.517 68.5,136C 66.5394,138.963 64.206,141.629 61.5,144C 49.0513,153.282 37.0513,163.115 25.5,173.5C 24.3024,170.574 23.3024,167.574 22.5,164.5C 22.7086,163.078 23.2086,161.745 24,160.5C 27.0887,159.04 29.9221,157.207 32.5,155C 37.8414,149.438 42.8414,143.605 47.5,137.5C 58.6033,128.111 70.27,119.444 82.5,111.5C 83.1667,110.167 83.8333,108.833 84.5,107.5C 90.8527,102.144 97.186,96.8104 103.5,91.5 Z"/></g>
<g><path style="opacity:1" fill="#03c7ff" d="M 216.5,60.5 C 218.522,62.5313 220.189,64.8646 221.5,67.5C 215.085,71.7407 209.085,76.574 203.5,82C 195.647,86.1825 188.647,91.5158 182.5,98C 179.672,98.6374 177.672,100.304 176.5,103C 175.552,103.483 174.552,103.649 173.5,103.5C 172.969,106.779 170.969,108.113 167.5,107.5C 167.631,110.367 166.297,112.033 163.5,112.5C 161.596,112.262 160.262,111.262 159.5,109.5C 165.611,105.264 171.611,100.764 177.5,96C 188.537,83.7954 200.87,72.9621 214.5,63.5C 215.425,62.6431 216.092,61.6431 216.5,60.5 Z"/></g>
<g><path style="opacity:1" fill="#01a9ff" d="M 221.5,67.5 C 221.5,67.8333 221.5,68.1667 221.5,68.5C 204.15,84.8095 186.15,100.476 167.5,115.5C 165.596,115.262 164.262,114.262 163.5,112.5C 166.297,112.033 167.631,110.367 167.5,107.5C 170.969,108.113 172.969,106.779 173.5,103.5C 174.552,103.649 175.552,103.483 176.5,103C 177.672,100.304 179.672,98.6374 182.5,98C 188.647,91.5158 195.647,86.1825 203.5,82C 209.085,76.574 215.085,71.7407 221.5,67.5 Z"/></g>
<g><path style="opacity:1" fill="#afff00" d="M 86.5,75.5 C 89.1667,77.5 91.5,79.8333 93.5,82.5C 86.1883,88.6918 78.5216,94.6918 70.5,100.5C 65.811,106.022 60.1444,110.356 53.5,113.5C 45.2063,121.624 37.2063,129.957 29.5,138.5C 27.5,139.333 25.5,140.167 23.5,141C 22.1193,143.521 20.1193,145.355 17.5,146.5C 16.7051,142.215 16.3718,137.881 16.5,133.5C 22.1355,128.675 27.8021,123.841 33.5,119C 41.549,116.329 47.549,111.329 51.5,104C 53.2182,103.654 54.8849,103.154 56.5,102.5C 58.4311,100.196 60.7644,98.3622 63.5,97C 65.0243,94.6421 67.0243,92.8088 69.5,91.5C 70.1667,90.1667 70.8333,88.8333 71.5,87.5C 76.5189,83.4764 81.5189,79.4764 86.5,75.5 Z"/></g>
<g><path style="opacity:1" fill="#0278ff" d="M 223.5,71.5 C 224.89,72.8993 225.89,74.5659 226.5,76.5C 220.013,81.8199 213.68,87.3199 207.5,93C 204.833,94 202.167,95 199.5,96C 196.744,100.75 192.744,104.083 187.5,106C 182.234,110.759 177.567,115.925 173.5,121.5C 172.167,120.833 171.167,119.833 170.5,118.5C 180.2,108.81 190.533,99.8098 201.5,91.5C 203.027,89.8067 204.36,87.9734 205.5,86C 209.381,84.5081 212.215,82.0081 214,78.5C 217.086,75.8928 220.253,73.5595 223.5,71.5 Z"/></g>
<g><path style="opacity:1" fill="#0dfe57" d="M 129.5,100.5 C 128.71,101.401 127.71,102.068 126.5,102.5C 122.375,99.5474 118.375,96.3807 114.5,93C 120.004,94.4185 125.004,96.9185 129.5,100.5 Z"/></g>
<g><path style="opacity:1" fill="#0162ff" d="M 226.5,76.5 C 227.167,76.5 227.5,76.8333 227.5,77.5C 211.811,91.187 195.811,104.52 179.5,117.5C 178.128,119.527 176.795,121.527 175.5,123.5C 174.5,123.167 173.833,122.5 173.5,121.5C 177.567,115.925 182.234,110.759 187.5,106C 192.744,104.083 196.744,100.75 199.5,96C 202.167,95 204.833,94 207.5,93C 213.68,87.3199 220.013,81.8199 226.5,76.5 Z"/></g>
<g><path style="opacity:1" fill="#d9ff00" d="M 84.5,70.5 C 84.8925,72.2838 85.5592,73.9505 86.5,75.5C 81.5189,79.4764 76.5189,83.4764 71.5,87.5C 70.8333,88.8333 70.1667,90.1667 69.5,91.5C 67.0243,92.8088 65.0243,94.6421 63.5,97C 60.7644,98.3622 58.4311,100.196 56.5,102.5C 54.8849,103.154 53.2182,103.654 51.5,104C 47.549,111.329 41.549,116.329 33.5,119C 27.8021,123.841 22.1355,128.675 16.5,133.5C 15.5489,132.081 15.2155,130.415 15.5,128.5C 27.3136,120.267 38.3136,111.1 48.5,101C 53.8415,98.5 58.1748,94.8333 61.5,90C 62.5,89.6667 63.5,89.3333 64.5,89C 70.9258,82.6121 77.5925,76.4455 84.5,70.5 Z"/></g>
<g><path style="opacity:1" fill="#f5fe00" d="M 83.5,67.5 C 83.5569,68.609 83.8902,69.609 84.5,70.5C 77.5925,76.4455 70.9258,82.6121 64.5,89C 63.5,89.3333 62.5,89.6667 61.5,90C 58.1748,94.8333 53.8415,98.5 48.5,101C 38.3136,111.1 27.3136,120.267 15.5,128.5C 15.5,127.167 15.5,125.833 15.5,124.5C 38.2169,105.487 60.8836,86.487 83.5,67.5 Z"/></g>
<g><path style="opacity:1" fill="#05fe98" d="M 129.5,100.5 C 133.151,101.659 136.485,103.326 139.5,105.5C 138.128,106.512 136.795,107.512 135.5,108.5C 131.975,107.241 128.975,105.241 126.5,102.5C 127.71,102.068 128.71,101.401 129.5,100.5 Z"/></g>
<g><path style="opacity:1" fill="#014cff" d="M 227.5,77.5 C 228.73,79.2972 229.396,81.2972 229.5,83.5C 222.819,87.3335 216.819,92.1668 211.5,98C 203.186,101.81 196.519,107.477 191.5,115C 185.526,117.434 181.193,121.601 178.5,127.5C 177.512,126.205 176.512,124.872 175.5,123.5C 176.795,121.527 178.128,119.527 179.5,117.5C 195.811,104.52 211.811,91.187 227.5,77.5 Z"/></g>
<g><path style="opacity:1" fill="#14fde7" d="M 139.5,105.5 C 143.836,107.332 147.836,109.665 151.5,112.5C 150.856,115.144 149.189,116.811 146.5,117.5C 142.537,114.871 138.871,111.871 135.5,108.5C 136.795,107.512 138.128,106.512 139.5,105.5 Z"/></g>
<g><path style="opacity:1" fill="#ffeb00" d="M 83.5,64.5 C 83.5,65.5 83.5,66.5 83.5,67.5C 60.8836,86.487 38.2169,105.487 15.5,124.5C 15.8333,122.5 16.1667,120.5 16.5,118.5C 23.6333,114.199 29.6333,108.699 34.5,102C 35.8333,101.667 37.1667,101.333 38.5,101C 42.6077,96.8936 47.2744,93.5602 52.5,91C 62.9999,82.3312 73.3333,73.4979 83.5,64.5 Z"/></g>
<g><path style="opacity:1" fill="#0020ff" d="M 229.5,83.5 C 230.674,84.5137 231.34,85.847 231.5,87.5C 223.067,96.4603 214.067,104.96 204.5,113C 196.574,118.781 188.574,124.281 180.5,129.5C 179.5,129.167 178.833,128.5 178.5,127.5C 181.193,121.601 185.526,117.434 191.5,115C 196.519,107.477 203.186,101.81 211.5,98C 216.819,92.1668 222.819,87.3335 229.5,83.5 Z"/></g>
<g><path style="opacity:1" fill="#06d3ff" d="M 151.5,112.5 C 153.795,113.475 155.795,114.808 157.5,116.5C 154.94,118.273 152.607,120.273 150.5,122.5C 148.413,121.415 147.08,119.749 146.5,117.5C 149.189,116.811 150.856,115.144 151.5,112.5 Z"/></g>
<g><path style="opacity:1" fill="#48ff00" d="M 95.5,84.5 C 98.192,86.8623 100.859,89.1956 103.5,91.5C 97.186,96.8104 90.8527,102.144 84.5,107.5C 83.8333,108.833 83.1667,110.167 82.5,111.5C 70.27,119.444 58.6033,128.111 47.5,137.5C 42.8414,143.605 37.8414,149.438 32.5,155C 29.9221,157.207 27.0887,159.04 24,160.5C 23.2086,161.745 22.7086,163.078 22.5,164.5C 20.7211,160.406 19.3877,156.073 18.5,151.5C 22.5524,150.282 25.5524,147.782 27.5,144C 43.1314,131.7 58.1314,118.7 72.5,105C 75.9398,104.061 78.2731,101.895 79.5,98.5C 81.5,97.6667 83.5,96.8333 85.5,96C 88.959,92.2287 92.2924,88.3954 95.5,84.5 Z"/></g>
<g><path style="opacity:1" fill="#02b0ff" d="M 157.5,116.5 C 158.872,117.512 160.205,118.512 161.5,119.5C 158.874,121.823 156.207,124.157 153.5,126.5C 152.512,125.205 151.512,123.872 150.5,122.5C 152.607,120.273 154.94,118.273 157.5,116.5 Z"/></g>
<g><path style="opacity:1" fill="#02fec4" d="M 133.5,116.5 C 122.737,126.937 111.404,136.604 99.5,145.5C 105.896,130.108 117.23,120.441 133.5,116.5 Z"/></g>
<g><path style="opacity:1" fill="#048dff" d="M 161.5,119.5 C 163.191,120.864 164.858,122.197 166.5,123.5C 162.89,125.444 159.557,127.777 156.5,130.5C 155.026,129.564 154.026,128.23 153.5,126.5C 156.207,124.157 158.874,121.823 161.5,119.5 Z"/></g>
<g><path style="opacity:1" fill="#0a62ff" d="M 166.5,123.5 C 168.5,124.833 170.167,126.5 171.5,128.5C 167.028,130.278 163.028,132.944 159.5,136.5C 157.992,134.819 156.992,132.819 156.5,130.5C 159.557,127.777 162.89,125.444 166.5,123.5 Z"/></g>
<g><path style="opacity:1" fill="#2f01ff" d="M 231.5,87.5 C 234.096,93.2138 235.763,99.2138 236.5,105.5C 231.326,111.113 225.326,115.78 218.5,119.5C 212.657,126.684 205.657,132.351 197.5,136.5C 193.822,139.181 190.489,142.181 187.5,145.5C 185.568,140.055 183.235,134.722 180.5,129.5C 188.574,124.281 196.574,118.781 204.5,113C 214.067,104.96 223.067,96.4603 231.5,87.5 Z"/></g>
<g><path style="opacity:1" fill="#7000ff" d="M 236.5,105.5 C 237.461,107.265 237.795,109.265 237.5,111.5C 231.157,117.335 224.824,123.169 218.5,129C 213.211,132.62 208.211,136.62 203.5,141C 197.439,144.037 192.105,147.87 187.5,152.5C 187.5,150.167 187.5,147.833 187.5,145.5C 190.489,142.181 193.822,139.181 197.5,136.5C 205.657,132.351 212.657,126.684 218.5,119.5C 225.326,115.78 231.326,111.113 236.5,105.5 Z"/></g>
<g><path style="opacity:1" fill="#04fe61" d="M 110.5,115.5 C 104.946,121.647 99.2796,127.813 93.5,134C 86.5117,139.188 79.845,144.688 73.5,150.5C 74.9595,136.756 81.9595,126.922 94.5,121C 99.7557,118.859 105.089,117.026 110.5,115.5 Z"/></g>
<g><path style="opacity:1" fill="#01f5fe" d="M 138.5,119.5 C 139.5,119.833 140.167,120.5 140.5,121.5C 135.697,125.471 131.364,129.971 127.5,135C 125.725,136.439 123.725,137.439 121.5,138C 119.402,140.854 117.069,143.521 114.5,146C 108.418,149.363 102.752,153.196 97.5,157.5C 97.5,156.167 97.5,154.833 97.5,153.5C 111.729,142.88 125.396,131.547 138.5,119.5 Z"/></g>
<g><path style="opacity:1" fill="#0042ff" d="M 171.5,128.5 C 171.833,129.167 172.167,129.833 172.5,130.5C 168.842,134.151 164.842,137.484 160.5,140.5C 160.167,139.167 159.833,137.833 159.5,136.5C 163.028,132.944 167.028,130.278 171.5,128.5 Z"/></g>
<g><path style="opacity:1" fill="#7bff00" d="M 93.5,82.5 C 94.5,82.8333 95.1667,83.5 95.5,84.5C 92.2924,88.3954 88.959,92.2287 85.5,96C 83.5,96.8333 81.5,97.6667 79.5,98.5C 78.2731,101.895 75.9398,104.061 72.5,105C 58.1314,118.7 43.1314,131.7 27.5,144C 25.5524,147.782 22.5524,150.282 18.5,151.5C 17.962,149.883 17.6287,148.216 17.5,146.5C 20.1193,145.355 22.1193,143.521 23.5,141C 25.5,140.167 27.5,139.333 29.5,138.5C 37.2063,129.957 45.2063,121.624 53.5,113.5C 60.1444,110.356 65.811,106.022 70.5,100.5C 78.5216,94.6918 86.1883,88.6918 93.5,82.5 Z"/></g>
<g><path style="opacity:1" fill="#0298ff" d="M 147.5,129.5 C 149.25,130.659 150.25,132.326 150.5,134.5C 147.056,136.442 144.056,138.942 141.5,142C 130.754,146.859 121.754,153.859 114.5,163C 109.317,167.087 103.984,170.92 98.5,174.5C 98.5,173.833 98.5,173.167 98.5,172.5C 109.094,164.169 119.427,155.335 129.5,146C 131.217,144.441 133.217,143.608 135.5,143.5C 135.247,141.173 135.914,139.173 137.5,137.5C 140.564,134.43 143.897,131.763 147.5,129.5 Z"/></g>
<g><path style="opacity:1" fill="#3408ff" d="M 172.5,130.5 C 178.527,136.901 181.527,144.568 181.5,153.5C 181.271,155.433 180.438,157.1 179,158.5C 174.224,162.795 169.391,166.795 164.5,170.5C 165.374,160.131 164.041,150.131 160.5,140.5C 164.842,137.484 168.842,134.151 172.5,130.5 Z"/></g>
<g><path style="opacity:1" fill="#01ffe9" d="M 133.5,116.5 C 135.674,116.75 137.341,117.75 138.5,119.5C 125.396,131.547 111.729,142.88 97.5,153.5C 97.8583,150.733 98.525,148.067 99.5,145.5C 111.404,136.604 122.737,126.937 133.5,116.5 Z"/></g>
<g><path style="opacity:1" fill="#9400ff" d="M 237.5,111.5 C 238.461,113.265 238.795,115.265 238.5,117.5C 221.877,131.113 205.21,144.78 188.5,158.5C 188.675,156.379 188.341,154.379 187.5,152.5C 192.105,147.87 197.439,144.037 203.5,141C 208.211,136.62 213.211,132.62 218.5,129C 224.824,123.169 231.157,117.335 237.5,111.5 Z"/></g>
<g><path style="opacity:1" fill="#08ff9f" d="M 97.5,135.5 C 96.1667,138.167 94.8333,140.833 93.5,143.5C 86.1492,148.536 79.1492,153.87 72.5,159.5C 72.3253,157.379 72.6586,155.379 73.5,153.5C 74.9335,152.167 76.2668,150.667 77.5,149C 84.6276,145.014 91.2943,140.514 97.5,135.5 Z"/></g>
<g><path style="opacity:1" fill="#00c7ff" d="M 144.5,125.5 C 145.167,125.5 145.5,125.833 145.5,126.5C 143.152,130.005 139.985,132.672 136,134.5C 132.111,139.911 126.944,144.077 120.5,147C 115.772,151.733 110.772,156.067 105.5,160C 103.172,163.516 100.505,166.682 97.5,169.5C 97.5,167.5 97.5,165.5 97.5,163.5C 111.985,153.171 125.318,141.671 137.5,129C 140.404,128.867 142.738,127.7 144.5,125.5 Z"/></g>
<g><path style="opacity:1" fill="#01daff" d="M 140.5,121.5 C 142.167,122.5 143.5,123.833 144.5,125.5C 142.738,127.7 140.404,128.867 137.5,129C 125.318,141.671 111.985,153.171 97.5,163.5C 96.1667,161.5 96.1667,159.5 97.5,157.5C 102.752,153.196 108.418,149.363 114.5,146C 117.069,143.521 119.402,140.854 121.5,138C 123.725,137.439 125.725,136.439 127.5,135C 131.364,129.971 135.697,125.471 140.5,121.5 Z"/></g>
<g><path style="opacity:1" fill="#00fe83" d="M 97.5,135.5 C 91.2943,140.514 84.6276,145.014 77.5,149C 76.2668,150.667 74.9335,152.167 73.5,153.5C 73.5,152.5 73.5,151.5 73.5,150.5C 79.845,144.688 86.5117,139.188 93.5,134C 99.2796,127.813 104.946,121.647 110.5,115.5C 114.43,114.279 118.43,113.779 122.5,114C 111.696,118.386 103.362,125.553 97.5,135.5 Z"/></g>
<g><path style="opacity:1" fill="#0051ff" d="M 154.5,140.5 C 154.5,141.167 154.5,141.833 154.5,142.5C 150.016,145.582 145.683,148.916 141.5,152.5C 138.081,156.645 134.415,160.478 130.5,164C 124.238,167.619 118.238,171.452 112.5,175.5C 115.751,171.545 119.418,168.045 123.5,165C 124.833,164.667 126.167,164.333 127.5,164C 130.492,160.008 133.826,156.342 137.5,153C 141.869,150.143 145.869,146.81 149.5,143C 151.078,141.906 152.745,141.072 154.5,140.5 Z"/></g>
<g><path style="opacity:1" fill="#03febb" d="M 93.5,143.5 C 93.1667,144.833 92.8333,146.167 92.5,147.5C 86.1403,153.528 79.807,159.528 73.5,165.5C 73.4828,163.435 73.1495,161.435 72.5,159.5C 79.1492,153.87 86.1492,148.536 93.5,143.5 Z"/></g>
<g><path style="opacity:1" fill="#02afff" d="M 145.5,126.5 C 146.401,127.29 147.068,128.29 147.5,129.5C 143.897,131.763 140.564,134.43 137.5,137.5C 135.914,139.173 135.247,141.173 135.5,143.5C 133.217,143.608 131.217,144.441 129.5,146C 119.427,155.335 109.094,164.169 98.5,172.5C 97.8902,171.609 97.5569,170.609 97.5,169.5C 100.505,166.682 103.172,163.516 105.5,160C 110.772,156.067 115.772,151.733 120.5,147C 126.944,144.077 132.111,139.911 136,134.5C 139.985,132.672 143.152,130.005 145.5,126.5 Z"/></g>
<g><path style="opacity:1" fill="#bb00ff" d="M 238.5,117.5 C 239.021,121.481 239.354,125.481 239.5,129.5C 238.022,129.238 236.689,129.571 235.5,130.5C 227.325,137.51 219.325,144.677 211.5,152C 208.782,153.072 206.115,154.238 203.5,155.5C 202.018,157.483 200.351,159.316 198.5,161C 193.877,163.128 189.877,165.961 186.5,169.5C 187.026,165.688 187.693,162.021 188.5,158.5C 205.21,144.78 221.877,131.113 238.5,117.5 Z"/></g>
<g><path style="opacity:1" fill="#05fee3" d="M 92.5,147.5 C 91.3679,152.76 90.7012,158.093 90.5,163.5C 84.9023,167.091 79.569,171.091 74.5,175.5C 73.7929,172.214 73.4595,168.881 73.5,165.5C 79.807,159.528 86.1403,153.528 92.5,147.5 Z"/></g>
<g><path style="opacity:1" fill="#0281ff" d="M 150.5,134.5 C 151.167,134.5 151.5,134.833 151.5,135.5C 147.463,138.049 144.463,141.549 142.5,146C 139.48,148.184 136.147,149.684 132.5,150.5C 131.376,155.935 128.043,159.435 122.5,161C 117.833,165.333 113.167,169.667 108.5,174C 104.563,174.125 101.897,175.958 100.5,179.5C 99.4625,178.07 98.7959,176.403 98.5,174.5C 103.984,170.92 109.317,167.087 114.5,163C 121.754,153.859 130.754,146.859 141.5,142C 144.056,138.942 147.056,136.442 150.5,134.5 Z"/></g>
<g><path style="opacity:1" fill="#01fe37" d="M 71.5,135.5 C 69.4149,139.583 68.0815,143.917 67.5,148.5C 56.854,157.182 46.5207,166.348 36.5,176C 34.1384,177.511 31.8051,179.011 29.5,180.5C 27.9291,178.365 26.5957,176.032 25.5,173.5C 37.0513,163.115 49.0513,153.282 61.5,144C 64.206,141.629 66.5394,138.963 68.5,136C 69.448,135.517 70.448,135.351 71.5,135.5 Z"/></g>
<g><path style="opacity:1" fill="#ea00ff" d="M 239.5,129.5 C 238.699,131.042 238.366,132.708 238.5,134.5C 220.161,150.167 201.494,165.5 182.5,180.5C 184.226,176.991 185.559,173.325 186.5,169.5C 189.877,165.961 193.877,163.128 198.5,161C 200.351,159.316 202.018,157.483 203.5,155.5C 206.115,154.238 208.782,153.072 211.5,152C 219.325,144.677 227.325,137.51 235.5,130.5C 236.689,129.571 238.022,129.238 239.5,129.5 Z"/></g>
<g><path style="opacity:1" fill="#0165ff" d="M 151.5,135.5 C 152.737,136.965 153.737,138.632 154.5,140.5C 152.745,141.072 151.078,141.906 149.5,143C 145.869,146.81 141.869,150.143 137.5,153C 133.826,156.342 130.492,160.008 127.5,164C 126.167,164.333 124.833,164.667 123.5,165C 119.418,168.045 115.751,171.545 112.5,175.5C 109.124,178.194 105.457,180.527 101.5,182.5C 100.89,181.609 100.557,180.609 100.5,179.5C 101.897,175.958 104.563,174.125 108.5,174C 113.167,169.667 117.833,165.333 122.5,161C 128.043,159.435 131.376,155.935 132.5,150.5C 136.147,149.684 139.48,148.184 142.5,146C 144.463,141.549 147.463,138.049 151.5,135.5 Z"/></g>
<g><path style="opacity:1" fill="#0ee5ff" d="M 90.5,163.5 C 91.4614,165.265 91.7947,167.265 91.5,169.5C 85.6066,171.76 80.94,175.426 77.5,180.5C 76.2632,179.035 75.2632,177.368 74.5,175.5C 79.569,171.091 84.9023,167.091 90.5,163.5 Z"/></g>
<g><path style="opacity:1" fill="#02c8ff" d="M 91.5,169.5 C 91.6287,171.216 91.962,172.883 92.5,174.5C 87.8388,177.506 83.5054,180.839 79.5,184.5C 78.3263,183.486 77.6596,182.153 77.5,180.5C 80.94,175.426 85.6066,171.76 91.5,169.5 Z"/></g>
<g><path style="opacity:1" fill="#00fe67" d="M 67.5,148.5 C 67.5,150.167 67.5,151.833 67.5,153.5C 61.0743,158.891 54.4076,164.058 47.5,169C 45.6241,171.183 44.2907,173.683 43.5,176.5C 39.4989,179.175 35.8323,182.175 32.5,185.5C 31.2632,184.035 30.2632,182.368 29.5,180.5C 31.8051,179.011 34.1384,177.511 36.5,176C 46.5207,166.348 56.854,157.182 67.5,148.5 Z"/></g>
<g><path style="opacity:1" fill="#023fff" d="M 154.5,142.5 C 155.401,143.29 156.068,144.29 156.5,145.5C 154.394,146.783 152.06,147.616 149.5,148C 144.453,153.044 139.786,158.377 135.5,164C 125.309,171.703 115.642,179.87 106.5,188.5C 104.11,187.109 102.443,185.109 101.5,182.5C 105.457,180.527 109.124,178.194 112.5,175.5C 118.238,171.452 124.238,167.619 130.5,164C 134.415,160.478 138.081,156.645 141.5,152.5C 145.683,148.916 150.016,145.582 154.5,142.5 Z"/></g>
<g><path style="opacity:1" fill="#01fe84" d="M 67.5,153.5 C 66.612,156.054 66.2786,158.721 66.5,161.5C 61.1621,164.534 56.4954,168.534 52.5,173.5C 47.5126,176.828 42.8459,180.495 38.5,184.5C 36.6957,185.768 34.6957,186.435 32.5,186.5C 32.5,186.167 32.5,185.833 32.5,185.5C 35.8323,182.175 39.4989,179.175 43.5,176.5C 44.2907,173.683 45.6241,171.183 47.5,169C 54.4076,164.058 61.0743,158.891 67.5,153.5 Z"/></g>
<g><path style="opacity:1" fill="#07ffa1" d="M 66.5,161.5 C 67.3414,163.379 67.6747,165.379 67.5,167.5C 64.0098,167.151 61.6765,168.651 60.5,172C 58,172.885 55.6667,174.052 53.5,175.5C 49.3566,179.733 45.0233,183.733 40.5,187.5C 39.6801,189.319 38.6801,190.986 37.5,192.5C 35.3674,190.909 33.7007,188.909 32.5,186.5C 34.6957,186.435 36.6957,185.768 38.5,184.5C 42.8459,180.495 47.5126,176.828 52.5,173.5C 56.4954,168.534 61.1621,164.534 66.5,161.5 Z"/></g>
<g><path style="opacity:1" fill="#01a8ff" d="M 92.5,174.5 C 92.4326,175.959 92.7659,177.292 93.5,178.5C 89.2118,181.122 85.2118,184.122 81.5,187.5C 80.0937,187.027 79.427,186.027 79.5,184.5C 83.5054,180.839 87.8388,177.506 92.5,174.5 Z"/></g>
<g><path style="opacity:1" fill="#ff00b1" d="M 236.5,149.5 C 236.371,151.216 236.038,152.883 235.5,154.5C 231.794,158.204 227.46,161.204 222.5,163.5C 220.712,165.576 219.046,167.743 217.5,170C 210.045,176.203 202.379,182.203 194.5,188C 192.197,190.642 190.197,193.475 188.5,196.5C 182.373,199.793 176.706,203.793 171.5,208.5C 168.992,211.838 166.325,215.005 163.5,218C 155.122,224.645 147.122,231.478 139.5,238.5C 136.5,238.5 133.5,238.5 130.5,238.5C 140.613,230.888 149.947,222.388 158.5,213C 167.394,207.772 175.727,201.772 183.5,195C 190.871,187.96 198.538,181.294 206.5,175C 209.584,169.921 213.917,166.254 219.5,164C 224.72,158.611 230.387,153.778 236.5,149.5 Z"/></g>
<g><path style="opacity:1" fill="#a600ff" d="M 181.5,153.5 C 182.139,154.097 182.472,154.93 182.5,156C 182.095,162.175 180.762,168.009 178.5,173.5C 173.326,176.882 168.326,180.716 163.5,185C 157.619,192.215 150.953,198.715 143.5,204.5C 136.504,206.754 129.504,207.421 122.5,206.5C 122.073,205.738 122.073,204.738 122.5,203.5C 145.799,204.551 159.799,193.551 164.5,170.5C 169.391,166.795 174.224,162.795 179,158.5C 180.438,157.1 181.271,155.433 181.5,153.5 Z"/></g>
<g><path style="opacity:1" fill="#02fec2" d="M 67.5,167.5 C 67.5,169.167 67.5,170.833 67.5,172.5C 63.0088,176.26 58.6755,180.26 54.5,184.5C 51.9632,186.267 49.2966,187.767 46.5,189C 43.7121,190.719 41.3788,192.885 39.5,195.5C 38.0937,195.027 37.427,194.027 37.5,192.5C 38.6801,190.986 39.6801,189.319 40.5,187.5C 45.0233,183.733 49.3566,179.733 53.5,175.5C 55.6667,174.052 58,172.885 60.5,172C 61.6765,168.651 64.0098,167.151 67.5,167.5 Z"/></g>
<g><path style="opacity:1" fill="#130dff" d="M 156.5,145.5 C 158.047,152.065 158.714,158.732 158.5,165.5C 156.405,166.412 154.405,167.579 152.5,169C 148.973,173.439 144.973,177.439 140.5,181C 135.718,185.096 130.385,188.429 124.5,191C 122.576,192.75 120.909,194.583 119.5,196.5C 114.031,195.602 109.698,192.936 106.5,188.5C 115.642,179.87 125.309,171.703 135.5,164C 139.786,158.377 144.453,153.044 149.5,148C 152.06,147.616 154.394,146.783 156.5,145.5 Z"/></g>
<g><path style="opacity:1" fill="#d300ff" d="M 178.5,173.5 C 174.559,183.875 167.893,192.042 158.5,198C 153.712,200.729 148.712,202.896 143.5,204.5C 150.953,198.715 157.619,192.215 163.5,185C 168.326,180.716 173.326,176.882 178.5,173.5 Z"/></g>
<g><path style="opacity:1" fill="#ff0071" d="M 233.5,162.5 C 232.695,164.915 231.695,167.249 230.5,169.5C 225.792,174.375 220.625,178.708 215,182.5C 213.204,185.927 211.037,189.094 208.5,192C 202.737,195.594 197.404,199.761 192.5,204.5C 190.833,205.167 189.167,205.833 187.5,206.5C 182.681,211.099 178.015,215.933 173.5,221C 167.286,225.07 161.619,229.57 156.5,234.5C 154.401,235.612 152.067,236.279 149.5,236.5C 154.009,231.558 159.009,227.058 164.5,223C 165.448,222.517 166.448,222.351 167.5,222.5C 171.933,216.245 177.599,211.079 184.5,207C 193.274,199.106 202.274,191.44 211.5,184C 215.277,177.557 220.443,172.39 227,168.5C 228.694,166.76 229.861,164.76 230.5,162.5C 231.5,162.5 232.5,162.5 233.5,162.5 Z"/></g>
<g><path style="opacity:1" fill="#ff00d1" d="M 236.5,147.5 C 236.5,148.167 236.5,148.833 236.5,149.5C 230.387,153.778 224.72,158.611 219.5,164C 213.917,166.254 209.584,169.921 206.5,175C 198.538,181.294 190.871,187.96 183.5,195C 175.727,201.772 167.394,207.772 158.5,213C 149.947,222.388 140.613,230.888 130.5,238.5C 127.5,239.833 124.5,239.833 121.5,238.5C 127.398,235.606 132.065,231.272 135.5,225.5C 158.898,208.78 181.231,190.613 202.5,171C 208.001,166.993 213.334,162.827 218.5,158.5C 223.855,157.16 228.188,154.327 231.5,150C 233.452,149.634 235.118,148.801 236.5,147.5 Z"/></g>
<g><path style="opacity:1" fill="#0582ff" d="M 93.5,178.5 C 93.9707,180.579 94.6373,182.579 95.5,184.5C 91.5062,186.494 88.5062,189.494 86.5,193.5C 84.3674,191.909 82.7007,189.909 81.5,187.5C 85.2118,184.122 89.2118,181.122 93.5,178.5 Z"/></g>
<g><path style="opacity:1" fill="#075aff" d="M 95.5,184.5 C 96.7515,186.001 97.7515,187.668 98.5,189.5C 95.8739,191.823 93.2072,194.157 90.5,196.5C 89.1283,195.488 87.795,194.488 86.5,193.5C 88.5062,189.494 91.5062,186.494 95.5,184.5 Z"/></g>
<g><path style="opacity:1" fill="#01f4fe" d="M 69.5,178.5 C 70.2341,179.708 70.5674,181.041 70.5,182.5C 67.8105,187 63.8105,189.833 58.5,191C 55.3182,196.267 50.9848,200.1 45.5,202.5C 44.1667,201.833 43.1667,200.833 42.5,199.5C 44.2554,198.928 45.9221,198.094 47.5,197C 54.4134,190.246 61.7468,184.08 69.5,178.5 Z"/></g>
<g><path style="opacity:1" fill="#01c8ff" d="M 71.5,184.5 C 72.4013,185.29 73.0679,186.29 73.5,187.5C 69.708,191.667 65.708,195.667 61.5,199.5C 58.1187,202.546 54.452,205.213 50.5,207.5C 49.5,207.167 48.8333,206.5 48.5,205.5C 51.6215,203.552 54.6215,201.385 57.5,199C 61.7252,193.61 66.3918,188.777 71.5,184.5 Z"/></g>
<g><path style="opacity:1" fill="#fe00eb" d="M 238.5,134.5 C 238.562,139.076 237.895,143.409 236.5,147.5C 235.118,148.801 233.452,149.634 231.5,150C 228.188,154.327 223.855,157.16 218.5,158.5C 213.334,162.827 208.001,166.993 202.5,171C 181.231,190.613 158.898,208.78 135.5,225.5C 132.065,231.272 127.398,235.606 121.5,238.5C 120.167,238.5 118.833,238.5 117.5,238.5C 129.795,228.541 141.795,218.207 153.5,207.5C 166.059,201.608 175.726,192.608 182.5,180.5C 201.494,165.5 220.161,150.167 238.5,134.5 Z"/></g>
<g><path style="opacity:1" fill="#03ffe7" d="M 67.5,172.5 C 68.4582,174.302 69.1249,176.302 69.5,178.5C 61.7468,184.08 54.4134,190.246 47.5,197C 45.9221,198.094 44.2554,198.928 42.5,199.5C 41.0256,198.564 40.0256,197.23 39.5,195.5C 41.3788,192.885 43.7121,190.719 46.5,189C 49.2966,187.767 51.9632,186.267 54.5,184.5C 58.6755,180.26 63.0088,176.26 67.5,172.5 Z"/></g>
<g><path style="opacity:1" fill="#5d00ff" d="M 158.5,165.5 C 158.097,179.493 151.764,189.66 139.5,196C 132.731,198.862 126.064,199.029 119.5,196.5C 120.909,194.583 122.576,192.75 124.5,191C 130.385,188.429 135.718,185.096 140.5,181C 144.973,177.439 148.973,173.439 152.5,169C 154.405,167.579 156.405,166.412 158.5,165.5 Z"/></g>
<g><path style="opacity:1" fill="#ff040c" d="M 222.5,191.5 C 221.11,203.483 222.777,215.149 227.5,226.5C 227.167,226.833 226.833,227.167 226.5,227.5C 211.733,221.662 196.733,220.995 181.5,225.5C 184.119,221.824 187.119,218.324 190.5,215C 201.648,207.665 212.315,199.832 222.5,191.5 Z"/></g>
<g><path style="opacity:1" fill="#01daff" d="M 70.5,182.5 C 71.3382,182.842 71.6716,183.508 71.5,184.5C 66.3918,188.777 61.7252,193.61 57.5,199C 54.6215,201.385 51.6215,203.552 48.5,205.5C 47.1667,204.833 46.1667,203.833 45.5,202.5C 50.9848,200.1 55.3182,196.267 58.5,191C 63.8105,189.833 67.8105,187 70.5,182.5 Z"/></g>
<g><path style="opacity:1" fill="#ff0057" d="M 230.5,169.5 C 228.556,173.723 226.889,178.056 225.5,182.5C 220.104,185.723 215.437,189.89 211.5,195C 206.911,196.624 203.577,199.624 201.5,204C 188.607,211.759 176.94,220.925 166.5,231.5C 163.45,233.101 160.116,234.101 156.5,234.5C 161.619,229.57 167.286,225.07 173.5,221C 178.015,215.933 182.681,211.099 187.5,206.5C 189.167,205.833 190.833,205.167 192.5,204.5C 197.404,199.761 202.737,195.594 208.5,192C 211.037,189.094 213.204,185.927 215,182.5C 220.625,178.708 225.792,174.375 230.5,169.5 Z"/></g>
<g><path style="opacity:1" fill="#2815ff" d="M 98.5,189.5 C 104.314,197.746 112.314,202.412 122.5,203.5C 122.073,204.738 122.073,205.738 122.5,206.5C 110.664,206.553 99.997,203.219 90.5,196.5C 93.2072,194.157 95.8739,191.823 98.5,189.5 Z"/></g>
<g><path style="opacity:1" fill="#01b0ff" d="M 73.5,187.5 C 74.4013,188.29 75.0679,189.29 75.5,190.5C 70.6686,193.832 66.6686,197.999 63.5,203C 60.3134,205.685 56.9801,208.185 53.5,210.5C 52.1667,209.833 51.1667,208.833 50.5,207.5C 54.452,205.213 58.1187,202.546 61.5,199.5C 65.708,195.667 69.708,191.667 73.5,187.5 Z"/></g>
<g><path style="opacity:1" fill="#0294ff" d="M 75.5,190.5 C 76.4884,191.795 77.4884,193.128 78.5,194.5C 70.8463,200.489 63.513,206.822 56.5,213.5C 55.1667,212.833 54.1667,211.833 53.5,210.5C 56.9801,208.185 60.3134,205.685 63.5,203C 66.6686,197.999 70.6686,193.832 75.5,190.5 Z"/></g>
<g><path style="opacity:1" fill="#036eff" d="M 78.5,194.5 C 80.5,195.833 82.1667,197.5 83.5,199.5C 76.9069,206.077 69.9069,212.077 62.5,217.5C 60.2228,216.551 58.2228,215.218 56.5,213.5C 63.513,206.822 70.8463,200.489 78.5,194.5 Z"/></g>
<g><path style="opacity:1" fill="#ff0088" d="M 234.5,158.5 C 233.766,159.708 233.433,161.041 233.5,162.5C 232.5,162.5 231.5,162.5 230.5,162.5C 229.861,164.76 228.694,166.76 227,168.5C 220.443,172.39 215.277,177.557 211.5,184C 202.274,191.44 193.274,199.106 184.5,207C 177.599,211.079 171.933,216.245 167.5,222.5C 166.448,222.351 165.448,222.517 164.5,223C 159.009,227.058 154.009,231.558 149.5,236.5C 147.236,237.219 144.903,237.552 142.5,237.5C 148.176,234.668 152.843,230.502 156.5,225C 158.67,223.414 161.004,222.08 163.5,221C 166.176,216.838 169.509,213.338 173.5,210.5C 176.397,209.02 179.397,207.686 182.5,206.5C 187.581,200.76 192.248,194.76 196.5,188.5C 205.998,182.196 214.665,174.863 222.5,166.5C 226.557,163.813 230.557,161.146 234.5,158.5 Z"/></g>
<g><path style="opacity:1" fill="#0241ff" d="M 83.5,199.5 C 85.7952,200.475 87.7952,201.808 89.5,203.5C 88.0783,203.709 86.745,204.209 85.5,205C 79.8394,211.141 73.506,216.307 66.5,220.5C 64.5956,220.262 63.2623,219.262 62.5,217.5C 69.9069,212.077 76.9069,206.077 83.5,199.5 Z"/></g>
<g><path style="opacity:1" fill="#ff0039" d="M 225.5,182.5 C 224.346,185.452 223.346,188.452 222.5,191.5C 212.315,199.832 201.648,207.665 190.5,215C 187.119,218.324 184.119,221.824 181.5,225.5C 176.617,227.774 171.617,229.774 166.5,231.5C 176.94,220.925 188.607,211.759 201.5,204C 203.577,199.624 206.911,196.624 211.5,195C 215.437,189.89 220.104,185.723 225.5,182.5 Z"/></g>
<g><path style="opacity:1" fill="#ff009a" d="M 235.5,154.5 C 235.167,155.833 234.833,157.167 234.5,158.5C 230.557,161.146 226.557,163.813 222.5,166.5C 214.665,174.863 205.998,182.196 196.5,188.5C 192.248,194.76 187.581,200.76 182.5,206.5C 179.397,207.686 176.397,209.02 173.5,210.5C 169.509,213.338 166.176,216.838 163.5,221C 161.004,222.08 158.67,223.414 156.5,225C 152.843,230.502 148.176,234.668 142.5,237.5C 141.609,238.11 140.609,238.443 139.5,238.5C 147.122,231.478 155.122,224.645 163.5,218C 166.325,215.005 168.992,211.838 171.5,208.5C 176.706,203.793 182.373,199.793 188.5,196.5C 190.197,193.475 192.197,190.642 194.5,188C 202.379,182.203 210.045,176.203 217.5,170C 219.046,167.743 220.712,165.576 222.5,163.5C 227.46,161.204 231.794,158.204 235.5,154.5 Z"/></g>
<g><path style="opacity:1" fill="#ad00ff" d="M 120.5,212.5 C 125.446,213.644 130.446,213.644 135.5,212.5C 127.943,219.307 120.276,226.141 112.5,233C 109.857,233.726 107.524,234.893 105.5,236.5C 102.572,236.435 99.9052,235.768 97.5,234.5C 100.055,231.75 102.388,228.75 104.5,225.5C 109.825,221.169 115.158,216.836 120.5,212.5 Z"/></g>
<g><path style="opacity:1" fill="#2906ff" d="M 89.5,203.5 C 95.3284,206.752 101.328,209.418 107.5,211.5C 100.299,215.364 93.9657,220.364 88.5,226.5C 85.9881,227.795 83.3214,228.461 80.5,228.5C 75.4997,226.336 70.833,223.669 66.5,220.5C 73.506,216.307 79.8394,211.141 85.5,205C 86.745,204.209 88.0783,203.709 89.5,203.5 Z"/></g>
<g><path style="opacity:1" fill="#ee00fe" d="M 153.5,207.5 C 141.795,218.207 129.795,228.541 117.5,238.5C 113.267,238.461 109.267,237.795 105.5,236.5C 107.524,234.893 109.857,233.726 112.5,233C 120.276,226.141 127.943,219.307 135.5,212.5C 141.736,211.643 147.736,209.976 153.5,207.5 Z"/></g>
<g><path style="opacity:1" fill="#6700ff" d="M 107.5,211.5 C 111.81,212.08 116.143,212.414 120.5,212.5C 115.158,216.836 109.825,221.169 104.5,225.5C 102.388,228.75 100.055,231.75 97.5,234.5C 91.4716,233.309 85.805,231.309 80.5,228.5C 83.3214,228.461 85.9881,227.795 88.5,226.5C 93.9657,220.364 100.299,215.364 107.5,211.5 Z"/></g>
</svg>
