<?xml version="1.0" encoding="UTF-8"?>
<!DOCTYPE svg PUBLIC "-//W3C//DTD SVG 1.1//EN" "http://www.w3.org/Graphics/SVG/1.1/DTD/svg11.dtd">
<svg xmlns="http://www.w3.org/2000/svg" version="1.1" width="256px" height="256px" style="shape-rendering:geometricPrecision; text-rendering:geometricPrecision; image-rendering:optimizeQuality; fill-rule:evenodd; clip-rule:evenodd" xmlns:xlink="http://www.w3.org/1999/xlink">
<g><path style="opacity:0.892" fill="#fefefe" d="M 145.5,163.5 C 146.391,164.11 147.391,164.443 148.5,164.5C 152.705,165.91 157.038,166.577 161.5,166.5C 173.226,168.47 184.893,167.304 196.5,163C 199.772,161.392 202.772,159.392 205.5,157C 200.53,156.244 195.864,157.077 191.5,159.5C 183.917,159.478 176.25,160.478 168.5,162.5C 163.352,162.665 158.019,162.331 152.5,161.5C 151.791,160.596 150.791,160.263 149.5,160.5C 144.516,157.576 141.183,153.243 139.5,147.5C 141.015,142.15 144.515,139.15 150,138.5C 160.02,140.068 169.853,139.234 179.5,136C 190.058,132.592 200.391,128.592 210.5,124C 212.64,123.027 214.307,121.527 215.5,119.5C 214.619,118.029 213.286,117.196 211.5,117C 208.167,116.333 204.833,116.333 201.5,117C 190.854,121.604 179.854,125.104 168.5,127.5C 167.106,127.379 165.772,127.046 164.5,126.5C 166.371,105.985 161.371,87.3186 149.5,70.5C 149.5,69.8333 149.167,69.5 148.5,69.5C 142.781,62.6405 135.448,58.4739 126.5,57C 120.886,50.4092 113.886,45.7425 105.5,43C 100.993,41.1072 96.3266,39.9405 91.5,39.5C 88.7131,38.5233 85.7131,38.19 82.5,38.5C 82.1667,37.1667 81.8333,37.1667 81.5,38.5C 78.9991,38.5109 78.8324,39.1776 81,40.5C 81.9606,44.2256 80.4606,46.3922 76.5,47C 77.448,47.4828 78.448,47.6495 79.5,47.5C 87.6966,47.3059 95.6966,48.4726 103.5,51C 105.781,52.851 105.781,54.5177 103.5,56C 91.8852,57.4197 81.7185,61.9197 73,69.5C 66.3764,79.4171 63.2098,90.4171 63.5,102.5C 70.7437,148.55 79.5771,194.216 90,239.5C 89.2753,240.059 88.4419,240.392 87.5,240.5C 43.9041,223.345 17.7374,191.679 9,145.5C 3.60094,85.1104 28.1009,41.9437 82.5,16C 133.789,-1.80069 178.622,8.36597 217,46.5C 248.575,84.5021 255.908,126.835 239,173.5C 222.427,210.069 194.76,233.736 156,244.5C 154.739,244.241 153.739,243.574 153,242.5C 150.318,237.136 147.651,231.802 145,226.5C 139.512,229.135 133.846,229.802 128,228.5C 119.118,235.034 109.285,238.867 98.5,240C 97.283,238.352 96.4497,236.519 96,234.5C 93.5236,221.818 93.1903,209.151 95,196.5C 97.8408,194.496 101.007,193.996 104.5,195C 111.625,197.146 118.458,199.979 125,203.5C 127.543,201.646 130.376,200.479 133.5,200C 127.709,186.753 125.542,172.92 127,158.5C 128.388,157.446 129.888,157.28 131.5,158C 135.914,160.526 140.58,162.359 145.5,163.5 Z M 161.5,166.5 C 163.027,166.573 164.027,165.906 164.5,164.5C 165.492,164.672 166.158,164.338 166.5,163.5C 167.492,163.672 168.158,163.338 168.5,162.5C 176.25,160.478 183.917,159.478 191.5,159.5C 195.864,157.077 200.53,156.244 205.5,157C 202.772,159.392 199.772,161.392 196.5,163C 184.893,167.304 173.226,168.47 161.5,166.5 Z M 152.5,161.5 C 158.019,162.331 163.352,162.665 168.5,162.5C 167.508,162.328 166.842,162.662 166.5,163.5C 165.508,163.328 164.842,163.662 164.5,164.5C 162.973,164.427 161.973,165.094 161.5,166.5C 157.038,166.577 152.705,165.91 148.5,164.5C 149.59,163.143 150.924,162.143 152.5,161.5 Z"/></g>
<g><path style="opacity:1" fill="#ff6400" d="M 117.5,13.5 C 121.833,13.5 126.167,13.5 130.5,13.5C 126.611,16.4039 122.278,18.5705 117.5,20C 114.42,23.8744 110.42,26.2077 105.5,27C 102.433,29.1882 99.4328,31.3548 96.5,33.5C 93.1933,32.9492 89.8599,32.6159 86.5,32.5C 90.874,29.0105 95.874,26.5105 101.5,25C 105.666,22.0825 109.999,19.4159 114.5,17C 115.365,15.6412 116.365,14.4745 117.5,13.5 Z"/></g>
<g><path style="opacity:1" fill="#ff9000" d="M 130.5,13.5 C 134.371,13.185 138.038,13.5184 141.5,14.5C 128.387,20.7541 115.721,27.7541 103.5,35.5C 100.933,35.2785 98.5994,34.6118 96.5,33.5C 99.4328,31.3548 102.433,29.1882 105.5,27C 110.42,26.2077 114.42,23.8744 117.5,20C 122.278,18.5705 126.611,16.4039 130.5,13.5 Z"/></g>
<g><path style="opacity:1" fill="#ffb000" d="M 141.5,14.5 C 144.059,14.1984 146.393,14.5318 148.5,15.5C 146.392,16.2374 144.225,16.904 142,17.5C 132.368,26.0686 121.535,32.7353 109.5,37.5C 107.214,37.405 105.214,36.7384 103.5,35.5C 115.721,27.7541 128.387,20.7541 141.5,14.5 Z"/></g>
<g><path style="opacity:1" fill="#ffe100" d="M 148.5,15.5 C 151.939,15.7878 155.272,16.4544 158.5,17.5C 157.028,19.1343 155.362,20.6343 153.5,22C 141.77,28.8598 130.104,35.6932 118.5,42.5C 115.304,41.0713 112.304,39.4046 109.5,37.5C 121.535,32.7353 132.368,26.0686 142,17.5C 144.225,16.904 146.392,16.2374 148.5,15.5 Z"/></g>
<g><path style="opacity:1" fill="#ff2f00" d="M 117.5,13.5 C 116.365,14.4745 115.365,15.6412 114.5,17C 109.999,19.4159 105.666,22.0825 101.5,25C 95.874,26.5105 90.874,29.0105 86.5,32.5C 79.7206,31.4245 73.3873,32.7578 67.5,36.5C 66.1854,38.1986 66.1854,39.8653 67.5,41.5C 58.2591,46.1382 48.9258,50.8049 39.5,55.5C 59.6698,31.0756 85.6698,17.0756 117.5,13.5 Z"/></g>
<g><path style="opacity:1" fill="#edfe00" d="M 158.5,17.5 C 161.397,18.129 164.064,19.129 166.5,20.5C 162.858,21.6655 159.858,23.8321 157.5,27C 152.554,27.8032 148.554,30.1365 145.5,34C 139.42,35.7638 134.086,38.7638 129.5,43C 127.347,43.0995 125.681,43.9328 124.5,45.5C 122.517,44.5294 120.517,43.5294 118.5,42.5C 130.104,35.6932 141.77,28.8598 153.5,22C 155.362,20.6343 157.028,19.1343 158.5,17.5 Z"/></g>
<g><path style="opacity:0.48" fill="#ff870b" d="M 81.5,38.5 C 81.8333,38.5 82.1667,38.5 82.5,38.5C 85.7131,38.19 88.7131,38.5233 91.5,39.5C 87.5,42.1667 83.5,44.8333 79.5,47.5C 78.448,47.6495 77.448,47.4828 76.5,47C 80.4606,46.3922 81.9606,44.2256 81,40.5C 78.8324,39.1776 78.9991,38.5109 81.5,38.5 Z"/></g>
<g><path style="opacity:1" fill="#b0ff00" d="M 166.5,20.5 C 170.889,21.4025 174.889,23.0692 178.5,25.5C 163.839,34.4978 149.172,43.4978 134.5,52.5C 130.119,51.8041 126.786,49.4707 124.5,45.5C 125.681,43.9328 127.347,43.0995 129.5,43C 134.086,38.7638 139.42,35.7638 145.5,34C 148.554,30.1365 152.554,27.8032 157.5,27C 159.858,23.8321 162.858,21.6655 166.5,20.5 Z"/></g>
<g><path style="opacity:1" fill="#15fe20" d="M 192.5,33.5 C 199.082,37.413 204.749,42.413 209.5,48.5C 203.85,51.4713 198.184,54.4713 192.5,57.5C 191.738,58.6283 191.071,59.7949 190.5,61C 184.924,63.9807 179.258,66.814 173.5,69.5C 172.576,71.3905 171.243,72.8905 169.5,74C 166.69,74.9064 164.024,76.0731 161.5,77.5C 159.196,74.3419 157.03,71.0085 155,67.5C 151.962,64.6306 149.129,61.6306 146.5,58.5C 148.308,58.5086 149.975,58.0086 151.5,57C 164.89,48.6397 178.557,40.8063 192.5,33.5 Z"/></g>
<g><path style="opacity:1" fill="#65ff00" d="M 178.5,25.5 C 183.5,27.6643 188.167,30.331 192.5,33.5C 178.557,40.8063 164.89,48.6397 151.5,57C 149.975,58.0086 148.308,58.5086 146.5,58.5C 142.461,56.4806 138.461,54.4806 134.5,52.5C 149.172,43.4978 163.839,34.4978 178.5,25.5 Z"/></g>
<g><path style="opacity:1" fill="#ff5f00" d="M 67.5,41.5 C 68.552,41.3505 69.552,41.5172 70.5,42C 67.2543,43.7424 64.921,46.2424 63.5,49.5C 55.7142,54.7783 48.0476,60.2783 40.5,66C 36.3283,67.5879 32.3283,69.4212 28.5,71.5C 31.4187,65.5936 35.0854,60.2603 39.5,55.5C 48.9258,50.8049 58.2591,46.1382 67.5,41.5 Z"/></g>
<g><path style="opacity:1" fill="#02fe75" d="M 209.5,48.5 C 211.833,50.1667 213.833,52.1667 215.5,54.5C 197.632,62.9534 180.299,72.2867 163.5,82.5C 162.559,80.9505 161.893,79.2838 161.5,77.5C 164.024,76.0731 166.69,74.9064 169.5,74C 171.243,72.8905 172.576,71.3905 173.5,69.5C 179.258,66.814 184.924,63.9807 190.5,61C 191.071,59.7949 191.738,58.6283 192.5,57.5C 198.184,54.4713 203.85,51.4713 209.5,48.5 Z"/></g>
<g><path style="opacity:0.184" fill="#00fe03" d="M 148.5,69.5 C 149.167,69.5 149.5,69.8333 149.5,70.5C 148.167,70.8333 146.833,71.1667 145.5,71.5C 145.973,70.0937 146.973,69.427 148.5,69.5 Z"/></g>
<g><path style="opacity:0.029" fill="#00ff02" d="M 145.5,71.5 C 145.103,72.525 144.437,72.6917 143.5,72C 144.094,71.5357 144.761,71.369 145.5,71.5 Z"/></g>
<g><path style="opacity:1" fill="#ff8b00" d="M 63.5,49.5 C 63.7376,51.4044 64.7376,52.7377 66.5,53.5C 60.9206,58.6357 54.5873,62.8024 47.5,66C 46.5467,67.9552 45.2134,69.6218 43.5,71C 38.1262,73.3562 32.7929,75.6896 27.5,78C 26.6159,79.7198 25.2825,80.8865 23.5,81.5C 24.6417,77.8832 26.3084,74.5498 28.5,71.5C 32.3283,69.4212 36.3283,67.5879 40.5,66C 48.0476,60.2783 55.7142,54.7783 63.5,49.5 Z"/></g>
<g><path style="opacity:0.02" fill="#00ff01" d="M 138.5,74.5 C 139.833,75.1667 139.833,75.1667 138.5,74.5 Z"/></g>
<g><path style="opacity:1" fill="#ffa500" d="M 66.5,53.5 C 69.1667,53.5 71.8333,53.5 74.5,53.5C 67.3678,58.7741 60.0345,63.9408 52.5,69C 51.1667,69.3333 49.8333,69.6667 48.5,70C 40.1032,76.5296 31.1032,82.0296 21.5,86.5C 21.8925,84.7162 22.5592,83.0495 23.5,81.5C 25.2825,80.8865 26.6159,79.7198 27.5,78C 32.7929,75.6896 38.1262,73.3562 43.5,71C 45.2134,69.6218 46.5467,67.9552 47.5,66C 54.5873,62.8024 60.9206,58.6357 66.5,53.5 Z"/></g>
<g><path style="opacity:0.004" fill="#00fe04" d="M 138.5,75.5 C 137.998,77.0847 136.998,77.5847 135.5,77C 136.244,75.9614 137.244,75.4614 138.5,75.5 Z"/></g>
<g><path style="opacity:1" fill="#02fe9e" d="M 215.5,54.5 C 216.803,56.1423 218.136,57.8089 219.5,59.5C 216.228,60.7578 212.894,61.9245 209.5,63C 195.133,72.1624 180.466,80.6624 165.5,88.5C 165.029,86.4214 164.363,84.4214 163.5,82.5C 180.299,72.2867 197.632,62.9534 215.5,54.5 Z"/></g>
<g><path style="opacity:1" fill="#02feef" d="M 222.5,64.5 C 223.974,65.4363 224.974,66.7697 225.5,68.5C 206.833,79.5 188.167,90.5 169.5,101.5C 168.985,99.1055 168.319,96.7722 167.5,94.5C 171.848,92.6581 176.181,90.8248 180.5,89C 185.583,83.0917 191.916,79.425 199.5,78C 205.649,73.7631 211.816,69.5965 218,65.5C 219.44,64.8524 220.94,64.5191 222.5,64.5 Z"/></g>
<g><path style="opacity:0.027" fill="#00fe03" d="M 124.5,82.5 C 126.379,82.3932 126.712,82.8932 125.5,84C 120.698,85.9397 120.365,85.4397 124.5,82.5 Z"/></g>
<g><path style="opacity:1" fill="#02e8ff" d="M 225.5,68.5 C 226.6,69.6049 227.267,70.9382 227.5,72.5C 221.26,75.8728 215.427,79.8728 210,84.5C 201.07,87.5532 193.236,92.3865 186.5,99C 181.008,101.689 175.674,104.523 170.5,107.5C 169.85,105.565 169.517,103.565 169.5,101.5C 188.167,90.5 206.833,79.5 225.5,68.5 Z"/></g>
<g><path style="opacity:1" fill="#ffcb00" d="M 74.5,53.5 C 78.8461,53.3343 83.1794,53.501 87.5,54C 77.5646,56.9555 69.8979,62.7888 64.5,71.5C 54.7813,75.8618 45.448,81.0284 36.5,87C 30.565,86.8633 25.8983,89.1967 22.5,94C 21.255,94.7914 19.9217,95.2914 18.5,95.5C 18.9049,92.2854 19.9049,89.2854 21.5,86.5C 31.1032,82.0296 40.1032,76.5296 48.5,70C 49.8333,69.6667 51.1667,69.3333 52.5,69C 60.0345,63.9408 67.3678,58.7741 74.5,53.5 Z"/></g>
<g><path style="opacity:1" fill="#04fec2" d="M 219.5,59.5 C 220.925,60.922 221.925,62.5887 222.5,64.5C 220.94,64.5191 219.44,64.8524 218,65.5C 211.816,69.5965 205.649,73.7631 199.5,78C 191.916,79.425 185.583,83.0917 180.5,89C 176.181,90.8248 171.848,92.6581 167.5,94.5C 167.029,92.4214 166.363,90.4214 165.5,88.5C 180.466,80.6624 195.133,72.1624 209.5,63C 212.894,61.9245 216.228,60.7578 219.5,59.5 Z"/></g>
<g><path style="opacity:1" fill="#02c6ff" d="M 227.5,72.5 C 228.737,73.9649 229.737,75.6316 230.5,77.5C 225.102,79.1323 220.435,81.9656 216.5,86C 204.619,91.9492 193.285,98.9492 182.5,107C 178.329,108.261 174.329,109.761 170.5,111.5C 170.5,110.167 170.5,108.833 170.5,107.5C 175.674,104.523 181.008,101.689 186.5,99C 193.236,92.3865 201.07,87.5532 210,84.5C 215.427,79.8728 221.26,75.8728 227.5,72.5 Z"/></g>
<g><path style="opacity:0.879" fill="#f8fffc" d="M 143.5,92.5 C 155.017,93.8698 158.517,99.8698 154,110.5C 149.229,115.101 144.062,115.601 138.5,112C 134.01,107.211 133.51,102.045 137,96.5C 139.013,94.7518 141.18,93.4185 143.5,92.5 Z"/></g>
<g><path style="opacity:1" fill="#01aaff" d="M 230.5,77.5 C 231.11,78.391 231.443,79.391 231.5,80.5C 218.459,88.1241 205.126,95.4574 191.5,102.5C 185.257,108.08 178.257,112.414 170.5,115.5C 170.5,114.167 170.5,112.833 170.5,111.5C 174.329,109.761 178.329,108.261 182.5,107C 193.285,98.9492 204.619,91.9492 216.5,86C 220.435,81.9656 225.102,79.1323 230.5,77.5 Z"/></g>
<g><path style="opacity:1" fill="#003dff" d="M 236.5,92.5 C 236.833,93.8333 237.167,95.1667 237.5,96.5C 229.164,100.665 221.164,105.332 213.5,110.5C 210.5,110.5 207.5,110.5 204.5,110.5C 215.068,104.544 225.734,98.5436 236.5,92.5 Z"/></g>
<g><path style="opacity:0.886" fill="#f8fdfc" d="M 89.5,97.5 C 103.356,97.2156 107.856,103.549 103,116.5C 95.2681,122.491 88.6014,121.491 83,113.5C 81.062,106.389 83.2287,101.056 89.5,97.5 Z"/></g>
<g><path style="opacity:1" fill="#028fff" d="M 231.5,80.5 C 232.931,81.7804 233.598,83.4471 233.5,85.5C 231.692,85.4914 230.025,85.9914 228.5,87C 218.733,94.8004 207.9,100.634 196,104.5C 187.609,109.734 179.109,114.734 170.5,119.5C 170.5,118.167 170.5,116.833 170.5,115.5C 178.257,112.414 185.257,108.08 191.5,102.5C 205.126,95.4574 218.459,88.1241 231.5,80.5 Z"/></g>
<g><path style="opacity:1" fill="#f1fa00" d="M 64.5,71.5 C 62.0433,75.869 60.3767,80.5356 59.5,85.5C 50.2848,89.7522 41.6181,94.7522 33.5,100.5C 27.478,103.511 21.478,106.511 15.5,109.5C 15.8738,104.675 16.8738,100.008 18.5,95.5C 19.9217,95.2914 21.255,94.7914 22.5,94C 25.8983,89.1967 30.565,86.8633 36.5,87C 45.448,81.0284 54.7813,75.8618 64.5,71.5 Z"/></g>
<g><path style="opacity:1" fill="#8a2ff8" d="M 150.5,104.5 C 147.5,104.5 144.5,104.5 141.5,104.5C 140.347,103.687 140.347,102.687 141.5,101.5C 144.167,100.167 146.833,100.167 149.5,101.5C 150.127,102.417 150.461,103.417 150.5,104.5 Z"/></g>
<g><path style="opacity:1" fill="#027cff" d="M 233.5,85.5 C 234.338,85.8417 234.672,86.5084 234.5,87.5C 231.06,89.6033 227.393,91.4366 223.5,93C 220.273,96.4961 216.273,98.8294 211.5,100C 209.833,101 208.5,102.333 207.5,104C 201.047,106.726 194.714,109.726 188.5,113C 187.619,113.708 186.953,114.542 186.5,115.5C 181.496,118.735 176.162,120.068 170.5,119.5C 179.109,114.734 187.609,109.734 196,104.5C 207.9,100.634 218.733,94.8004 228.5,87C 230.025,85.9914 231.692,85.4914 233.5,85.5 Z"/></g>
<g><path style="opacity:1" fill="#045bff" d="M 234.5,87.5 C 235.441,89.0495 236.107,90.7162 236.5,92.5C 225.734,98.5436 215.068,104.544 204.5,110.5C 198.517,112.16 192.517,113.827 186.5,115.5C 186.953,114.542 187.619,113.708 188.5,113C 194.714,109.726 201.047,106.726 207.5,104C 208.5,102.333 209.833,101 211.5,100C 216.273,98.8294 220.273,96.4961 223.5,93C 227.393,91.4366 231.06,89.6033 234.5,87.5 Z"/></g>
<g><path style="opacity:1" fill="#ffff23" d="M 141.5,104.5 C 144.5,104.5 147.5,104.5 150.5,104.5C 147.255,109.753 144.255,109.753 141.5,104.5 Z"/></g>
<g><path style="opacity:1" fill="#c400e7" d="M 99.5,109.5 C 95.8333,109.5 92.1667,109.5 88.5,109.5C 88.5726,106.05 90.4059,104.717 94,105.5C 97.5941,104.717 99.4274,106.05 99.5,109.5 Z"/></g>
<g><path style="opacity:1" fill="#aeff00" d="M 59.5,85.5 C 58.6561,89.0991 58.3227,92.7657 58.5,96.5C 46.0525,102.559 34.3858,109.892 23.5,118.5C 20.141,119.849 16.8077,121.182 13.5,122.5C 13.925,118.092 14.5916,113.758 15.5,109.5C 21.478,106.511 27.478,103.511 33.5,100.5C 41.6181,94.7522 50.2848,89.7522 59.5,85.5 Z"/></g>
<g><path style="opacity:1" fill="#ff0010" d="M 88.5,109.5 C 92.1667,109.5 95.8333,109.5 99.5,109.5C 98.4118,113.748 95.7452,115.248 91.5,114C 89.8588,112.871 88.8588,111.371 88.5,109.5 Z"/></g>
<g><path style="opacity:1" fill="#0afe1e" d="M 59.5,113.5 C 60.1751,120.55 61.1751,127.55 62.5,134.5C 55.976,134.759 50.976,137.592 47.5,143C 43.2969,144.209 39.2969,145.876 35.5,148C 30.1403,152.012 24.4736,155.512 18.5,158.5C 16.035,152.175 14.7017,145.509 14.5,138.5C 18.7758,137.396 22.4424,135.23 25.5,132C 36.7387,125.549 48.0721,119.383 59.5,113.5 Z"/></g>
<g><path style="opacity:1" fill="#58ff00" d="M 58.5,96.5 C 57.2829,102.227 57.6162,107.894 59.5,113.5C 48.0721,119.383 36.7387,125.549 25.5,132C 22.4424,135.23 18.7758,137.396 14.5,138.5C 13.5998,133.228 13.2665,127.895 13.5,122.5C 16.8077,121.182 20.141,119.849 23.5,118.5C 34.3858,109.892 46.0525,102.559 58.5,96.5 Z"/></g>
<g><path style="opacity:1" fill="#3a06ff" d="M 237.5,96.5 C 239.909,104.288 241.242,112.288 241.5,120.5C 222.917,130.951 204.583,141.617 186.5,152.5C 178.412,154.547 170.079,155.88 161.5,156.5C 155.788,156.528 150.954,154.528 147,150.5C 144.784,147.025 145.784,145.025 150,144.5C 160.35,146.106 170.516,145.272 180.5,142C 193.173,137.83 205.507,132.83 217.5,127C 221.035,124.293 222.202,120.793 221,116.5C 218.886,113.879 216.386,111.879 213.5,110.5C 221.164,105.332 229.164,100.665 237.5,96.5 Z"/></g>
<g><path style="opacity:1" fill="#02fe6d" d="M 62.5,134.5 C 62.9926,136.806 63.3259,139.139 63.5,141.5C 58.5034,143.331 54.17,146.164 50.5,150C 43.8595,153.287 37.1929,156.621 30.5,160C 28.3281,163.921 24.9947,166.088 20.5,166.5C 19.2264,164.007 18.5597,161.341 18.5,158.5C 24.4736,155.512 30.1403,152.012 35.5,148C 39.2969,145.876 43.2969,144.209 47.5,143C 50.976,137.592 55.976,134.759 62.5,134.5 Z"/></g>
<g><path style="opacity:1" fill="#8300ff" d="M 241.5,120.5 C 241.5,124.833 241.5,129.167 241.5,133.5C 238.764,135.196 235.764,136.362 232.5,137C 229.71,141.467 225.71,143.8 220.5,144C 217.205,147.142 213.539,149.642 209.5,151.5C 207.217,150.971 204.883,150.637 202.5,150.5C 197.176,151.299 191.843,151.965 186.5,152.5C 204.583,141.617 222.917,130.951 241.5,120.5 Z"/></g>
<g><path style="opacity:0.315" fill="#2700ff" d="M 149.5,160.5 C 150.791,160.263 151.791,160.596 152.5,161.5C 150.924,162.143 149.59,163.143 148.5,164.5C 147.391,164.443 146.391,164.11 145.5,163.5C 146.833,162.5 148.167,161.5 149.5,160.5 Z"/></g>
<g><path style="opacity:1" fill="#03ffde" d="M 65.5,151.5 C 66.2653,154.096 66.5987,156.763 66.5,159.5C 53.2404,166.623 40.2404,173.956 27.5,181.5C 25.9291,179.365 24.5957,177.032 23.5,174.5C 30.3791,172.059 36.7124,168.559 42.5,164C 51.1772,161.335 58.8439,157.168 65.5,151.5 Z"/></g>
<g><path style="opacity:0.008" fill="#6800ff" d="M 164.5,164.5 C 164.027,165.906 163.027,166.573 161.5,166.5C 161.973,165.094 162.973,164.427 164.5,164.5 Z"/></g>
<g><path style="opacity:1" fill="#05fea9" d="M 63.5,141.5 C 64.3778,144.761 65.0445,148.094 65.5,151.5C 58.8439,157.168 51.1772,161.335 42.5,164C 36.7124,168.559 30.3791,172.059 23.5,174.5C 22.4986,171.828 21.4986,169.162 20.5,166.5C 24.9947,166.088 28.3281,163.921 30.5,160C 37.1929,156.621 43.8595,153.287 50.5,150C 54.17,146.164 58.5034,143.331 63.5,141.5 Z"/></g>
<g><path style="opacity:1" fill="#ff00a1" d="M 236.5,163.5 C 235.345,166.328 234.011,168.995 232.5,171.5C 227.329,174.251 221.996,176.751 216.5,179C 211.256,181.901 206.256,185.234 201.5,189C 194.649,191.422 187.982,194.089 181.5,197C 180.897,199.071 179.564,200.238 177.5,200.5C 176.549,199.081 176.216,197.415 176.5,195.5C 179.959,193.549 183.626,192.049 187.5,191C 188.257,189.488 189.257,188.154 190.5,187C 204.233,181.301 217.233,174.301 229.5,166C 231.65,164.589 233.984,163.755 236.5,163.5 Z"/></g>
<g><path style="opacity:1" fill="#03e7fe" d="M 66.5,159.5 C 67.531,161.961 68.1977,164.627 68.5,167.5C 63.4538,169.921 58.4538,172.421 53.5,175C 51.0905,176.201 49.0905,177.867 47.5,180C 45.8333,180.333 44.1667,180.667 42.5,181C 39.2812,184.089 35.9478,186.922 32.5,189.5C 30.347,187.206 28.6803,184.54 27.5,181.5C 40.2404,173.956 53.2404,166.623 66.5,159.5 Z"/></g>
<g><path style="opacity:1" fill="#e900fc" d="M 241.5,133.5 C 241.378,139.896 240.711,146.229 239.5,152.5C 217.721,165.31 195.721,177.643 173.5,189.5C 170.89,188.498 168.224,188.665 165.5,190C 159.068,193.437 152.901,197.271 147,201.5C 144.649,200.286 142.149,199.452 139.5,199C 138.536,197.275 137.869,195.441 137.5,193.5C 149.119,188.357 159.786,181.69 169.5,173.5C 182.321,174.128 194.321,171.295 205.5,165C 207.333,163.167 209.167,161.333 211,159.5C 211.891,156.502 211.391,153.836 209.5,151.5C 213.539,149.642 217.205,147.142 220.5,144C 225.71,143.8 229.71,141.467 232.5,137C 235.764,136.362 238.764,135.196 241.5,133.5 Z"/></g>
<g><path style="opacity:1" fill="#6400ff" d="M 156.5,172.5 C 149.258,176.401 142.258,180.734 135.5,185.5C 132.888,179.124 132.221,172.458 133.5,165.5C 140.868,168.845 148.534,171.178 156.5,172.5 Z"/></g>
<g><path style="opacity:1" fill="#068eff" d="M 69.5,173.5 C 70.1667,175.833 70.8333,178.167 71.5,180.5C 60.751,186.844 50.0843,193.177 39.5,199.5C 37.4525,197.45 35.7859,195.117 34.5,192.5C 43.8793,187.81 53.2127,183.144 62.5,178.5C 63.9992,175.59 66.3326,173.924 69.5,173.5 Z"/></g>
<g><path style="opacity:1" fill="#ff00c5" d="M 239.5,152.5 C 238.303,156.095 237.303,159.761 236.5,163.5C 233.984,163.755 231.65,164.589 229.5,166C 217.233,174.301 204.233,181.301 190.5,187C 189.257,188.154 188.257,189.488 187.5,191C 183.626,192.049 179.959,193.549 176.5,195.5C 175.514,193.574 174.514,191.574 173.5,189.5C 195.721,177.643 217.721,165.31 239.5,152.5 Z"/></g>
<g><path style="opacity:1" fill="#9f00ff" d="M 156.5,172.5 C 160.785,173.295 165.119,173.628 169.5,173.5C 159.786,181.69 149.119,188.357 137.5,193.5C 136.226,191.007 135.56,188.341 135.5,185.5C 142.258,180.734 149.258,176.401 156.5,172.5 Z"/></g>
<g><path style="opacity:1" fill="#03baff" d="M 68.5,167.5 C 69.1495,169.435 69.4828,171.435 69.5,173.5C 66.3326,173.924 63.9992,175.59 62.5,178.5C 53.2127,183.144 43.8793,187.81 34.5,192.5C 33.0937,192.027 32.427,191.027 32.5,189.5C 35.9478,186.922 39.2812,184.089 42.5,181C 44.1667,180.667 45.8333,180.333 47.5,180C 49.0905,177.867 51.0905,176.201 53.5,175C 58.4538,172.421 63.4538,169.921 68.5,167.5 Z"/></g>
<g><path style="opacity:1" fill="#ff007c" d="M 232.5,171.5 C 231.624,175.582 229.957,179.249 227.5,182.5C 222.047,185.449 216.38,187.949 210.5,190C 209.5,191 208.5,192 207.5,193C 203.971,194.592 200.305,195.926 196.5,197C 193.874,199.323 191.207,201.657 188.5,204C 184.528,205.319 180.861,207.153 177.5,209.5C 177.5,206.5 177.5,203.5 177.5,200.5C 179.564,200.238 180.897,199.071 181.5,197C 187.982,194.089 194.649,191.422 201.5,189C 206.256,185.234 211.256,181.901 216.5,179C 221.996,176.751 227.329,174.251 232.5,171.5 Z"/></g>
<g><path style="opacity:1" fill="#036cff" d="M 71.5,180.5 C 71.366,182.292 71.6993,183.958 72.5,185.5C 65.5104,189.662 58.5104,193.829 51.5,198C 47.4668,198.537 44.8001,200.704 43.5,204.5C 42.197,202.858 40.8637,201.191 39.5,199.5C 50.0843,193.177 60.751,186.844 71.5,180.5 Z"/></g>
<g><path style="opacity:1" fill="#023bff" d="M 72.5,185.5 C 73.0916,188.127 73.4249,190.794 73.5,193.5C 69.8261,194.982 66.4928,197.148 63.5,200C 58.0665,203.051 52.3998,205.551 46.5,207.5C 45.1667,206.833 44.1667,205.833 43.5,204.5C 44.8001,200.704 47.4668,198.537 51.5,198C 58.5104,193.829 65.5104,189.662 72.5,185.5 Z"/></g>
<g><path style="opacity:1" fill="#ff0051" d="M 227.5,182.5 C 226.416,185.004 225.083,187.337 223.5,189.5C 215.09,193.544 207.09,198.377 199.5,204C 192.374,208.065 185.04,211.898 177.5,215.5C 177.5,213.5 177.5,211.5 177.5,209.5C 180.861,207.153 184.528,205.319 188.5,204C 191.207,201.657 193.874,199.323 196.5,197C 200.305,195.926 203.971,194.592 207.5,193C 208.5,192 209.5,191 210.5,190C 216.38,187.949 222.047,185.449 227.5,182.5 Z"/></g>
<g><path style="opacity:1" fill="#2305ff" d="M 73.5,193.5 C 75.4522,199.249 76.7855,205.249 77.5,211.5C 71.6914,213.905 66.0248,216.571 60.5,219.5C 55.5137,215.845 50.847,211.845 46.5,207.5C 52.3998,205.551 58.0665,203.051 63.5,200C 66.4928,197.148 69.8261,194.982 73.5,193.5 Z"/></g>
<g><path style="opacity:1" fill="#0dbcff" d="M 136.5,205.5 C 137.833,205.5 139.167,205.5 140.5,205.5C 140.5,210.833 140.5,216.167 140.5,221.5C 139.292,222.234 137.959,222.567 136.5,222.5C 136.5,216.833 136.5,211.167 136.5,205.5 Z"/></g>
<g><path style="opacity:1" fill="#ff005d" d="M 167.5,196.5 C 167.833,206.5 168.167,216.5 168.5,226.5C 167.209,226.737 166.209,226.404 165.5,225.5C 166.191,216.339 166.191,207.006 165.5,197.5C 165.842,196.662 166.508,196.328 167.5,196.5 Z"/></g>
<g><path style="opacity:1" fill="#31fe36" d="M 118.5,206.5 C 120.696,207.763 123.03,208.763 125.5,209.5C 127.325,208.349 129.325,207.682 131.5,207.5C 131.5,212.833 131.5,218.167 131.5,223.5C 130.305,223.322 129.138,222.989 128,222.5C 124.87,223.984 121.703,225.317 118.5,226.5C 118.5,219.833 118.5,213.167 118.5,206.5 Z"/></g>
<g><path style="opacity:1" fill="#427af9" d="M 140.5,205.5 C 141.974,206.436 142.974,207.77 143.5,209.5C 143.187,213.042 143.521,216.375 144.5,219.5C 143.713,221.104 142.38,221.771 140.5,221.5C 140.5,216.167 140.5,210.833 140.5,205.5 Z"/></g>
<g><path style="opacity:1" fill="#530afe" d="M 154.5,204.5 C 154.5,210.5 154.5,216.5 154.5,222.5C 151.345,220.924 148.012,219.924 144.5,219.5C 143.521,216.375 143.187,213.042 143.5,209.5C 147.377,208.289 151.043,206.622 154.5,204.5 Z"/></g>
<g><path style="opacity:1" fill="#ff3e00" d="M 106.5,201.5 C 106.534,211.845 106.867,222.179 107.5,232.5C 105.97,233.067 104.47,233.733 103,234.5C 102.667,234.167 102.333,233.833 102,233.5C 100.339,222.564 99.5053,211.564 99.5,200.5C 101.861,200.674 104.194,201.007 106.5,201.5 Z"/></g>
<g><path style="opacity:1" fill="#12fec6" d="M 136.5,205.5 C 136.5,211.167 136.5,216.833 136.5,222.5C 134.958,223.301 133.292,223.634 131.5,223.5C 131.5,218.167 131.5,212.833 131.5,207.5C 133.028,206.691 134.694,206.024 136.5,205.5 Z"/></g>
<g><path style="opacity:1" fill="#e8fef8" d="M 161.5,199.5 C 161.5,207.833 161.5,216.167 161.5,224.5C 159.167,223.833 156.833,223.167 154.5,222.5C 154.5,216.5 154.5,210.5 154.5,204.5C 156.531,202.478 158.865,200.811 161.5,199.5 Z"/></g>
<g><path style="opacity:1" fill="#ffffab" d="M 165.5,197.5 C 166.191,207.006 166.191,216.339 165.5,225.5C 164.041,225.567 162.708,225.234 161.5,224.5C 161.5,216.167 161.5,207.833 161.5,199.5C 162.514,198.326 163.847,197.66 165.5,197.5 Z"/></g>
<g><path style="opacity:1" fill="#ffa000" d="M 106.5,201.5 C 107.167,201.833 107.833,202.167 108.5,202.5C 108.878,212.165 109.211,221.831 109.5,231.5C 108.833,231.833 108.167,232.167 107.5,232.5C 106.867,222.179 106.534,211.845 106.5,201.5 Z"/></g>
<g><path style="opacity:1" fill="#ff0219" d="M 223.5,189.5 C 211.578,207.922 195.744,221.922 176,231.5C 177.263,226.363 177.763,221.029 177.5,215.5C 185.04,211.898 192.374,208.065 199.5,204C 207.09,198.377 215.09,193.544 223.5,189.5 Z"/></g>
<g><path style="opacity:1" fill="#ffdb00" d="M 108.5,202.5 C 109.391,203.11 110.391,203.443 111.5,203.5C 111.786,212.502 112.119,221.502 112.5,230.5C 111.609,231.11 110.609,231.443 109.5,231.5C 109.211,221.831 108.878,212.165 108.5,202.5 Z"/></g>
<g><path style="opacity:1" fill="#ff0022" d="M 168.5,226.5 C 168.167,216.5 167.833,206.5 167.5,196.5C 168.189,195.226 169.023,195.226 170,196.5C 171.491,206.121 171.824,215.788 171,225.5C 170.329,226.252 169.496,226.586 168.5,226.5 Z"/></g>
<g><path style="opacity:1" fill="#7c00ff" d="M 77.5,211.5 C 80.0028,218.502 81.6695,225.502 82.5,232.5C 74.4437,229.148 67.1103,224.815 60.5,219.5C 66.0248,216.571 71.6914,213.905 77.5,211.5 Z"/></g>
<g><path style="opacity:1" fill="#caff00" d="M 111.5,203.5 C 113.713,204.773 116.046,205.773 118.5,206.5C 118.5,213.167 118.5,219.833 118.5,226.5C 116.537,227.82 114.537,229.154 112.5,230.5C 112.119,221.502 111.786,212.502 111.5,203.5 Z"/></g>
<g><path style="opacity:1" fill="#ff0012" d="M 153.5,228.5 C 158.711,230.471 164.044,232.138 169.5,233.5C 165.377,235.998 161.044,236.998 156.5,236.5C 155.487,233.812 154.487,231.146 153.5,228.5 Z"/></g>
</svg>
