<?xml version="1.0" encoding="UTF-8"?>
<!DOCTYPE svg PUBLIC "-//W3C//DTD SVG 1.1//EN" "http://www.w3.org/Graphics/SVG/1.1/DTD/svg11.dtd">
<svg xmlns="http://www.w3.org/2000/svg" version="1.1" width="216px" height="216px" style="shape-rendering:geometricPrecision; text-rendering:geometricPrecision; image-rendering:optimizeQuality; fill-rule:evenodd; clip-rule:evenodd" xmlns:xlink="http://www.w3.org/1999/xlink">
<g><path style="opacity:0.688" fill="#fbfcfa" d="M 152.5,138.5 C 157.149,133.846 161.482,128.846 165.5,123.5C 168,120.506 170,117.173 171.5,113.5C 172.222,113.082 172.722,112.416 173,111.5C 173.497,108.854 173.664,106.187 173.5,103.5C 173.5,95.8333 173.5,88.1667 173.5,80.5C 173.5,78.1667 173.5,75.8333 173.5,73.5C 173.5,72.5 173.5,71.5 173.5,70.5C 173.5,69.5 173.5,68.5 173.5,67.5C 173.326,65.139 172.993,62.8056 172.5,60.5C 172.5,60.1667 172.5,59.8333 172.5,59.5C 171.669,56.341 170.669,53.341 169.5,50.5C 169.204,48.597 168.537,46.9303 167.5,45.5C 167.25,43.326 166.25,41.6594 164.5,40.5C 164.34,38.847 163.674,37.5137 162.5,36.5C 161.766,35.2921 161.433,33.9587 161.5,32.5C 164.129,29.3694 166.962,26.3694 170,23.5C 171.879,21.4732 173.046,19.1398 173.5,16.5C 173.662,14.4727 173.495,12.4727 173,10.5C 172.617,9.94404 172.117,9.61071 171.5,9.5C 169.098,5.92155 165.765,4.75488 161.5,6C 156.866,9.63207 152.533,13.6321 148.5,18C 146.16,18.7484 144.16,18.2484 142.5,16.5C 139.485,14.3256 136.151,12.6589 132.5,11.5C 132.158,10.6618 131.492,10.3284 130.5,10.5C 127.592,8.39522 124.258,7.39522 120.5,7.5C 118.958,6.69929 117.292,6.36596 115.5,6.5C 112.375,5.52056 109.042,5.18723 105.5,5.5C 102.391,5.26414 99.3915,5.59748 96.5,6.5C 91.9972,6.86654 87.6639,7.86654 83.5,9.5C 77.8445,11.6384 72.5112,14.4717 67.5,18C 66.0715,18.5791 64.7382,18.4124 63.5,17.5C 62.5,15.8333 61.1667,14.5 59.5,13.5C 59.1667,12.5 58.5,11.8333 57.5,11.5C 51.614,3.54218 45.7806,3.54218 40,11.5C 39.3333,14.1667 39.3333,16.8333 40,19.5C 40.3826,20.056 40.8826,20.3893 41.5,20.5C 42.8333,22.5 44.5,24.1667 46.5,25.5C 46.8333,26.5 47.5,27.1667 48.5,27.5C 49.1667,28.8333 50.1667,29.8333 51.5,30.5C 52.1098,31.391 52.4431,32.391 52.5,33.5C 50.9019,35.6979 49.5686,38.0313 48.5,40.5C 46.659,42.8485 45.3257,45.5152 44.5,48.5C 43.5418,50.3024 42.8751,52.3024 42.5,54.5C 41.5489,55.9187 41.2155,57.5853 41.5,59.5C 40.2318,61.9052 39.5651,64.5718 39.5,67.5C 39.5,68.8333 39.5,70.1667 39.5,71.5C 39.5,73.5 39.5,75.5 39.5,77.5C 39.5,86.5 39.5,95.5 39.5,104.5C 39.2786,107.279 39.612,109.946 40.5,112.5C 40.8333,113.167 41.1667,113.833 41.5,114.5C 42.2485,116.332 43.2485,117.999 44.5,119.5C 45.1667,120.5 45.8333,121.5 46.5,122.5C 46.8333,123.5 47.5,124.167 48.5,124.5C 49.0798,126.749 50.4131,128.415 52.5,129.5C 52.9321,130.71 53.5987,131.71 54.5,132.5C 55.8776,133.545 56.8776,134.878 57.5,136.5C 56.1667,136.833 56.1667,137.167 57.5,137.5C 57.5,138.167 57.8333,138.5 58.5,138.5C 59.221,140.382 60.221,140.715 61.5,139.5C 62.8333,139.5 63.5,140.167 63.5,141.5C 63.8417,142.338 64.5084,142.672 65.5,142.5C 66.4916,142.328 67.1583,142.662 67.5,143.5C 66.8333,144.167 66.1667,144.833 65.5,145.5C 51.795,138.293 41.6283,127.626 35,113.5C 34.3333,96.5 34.3333,79.5 35,62.5C 36.519,51.9764 40.3523,42.4764 46.5,34C 41.9167,30.0877 38.0834,25.5877 35,20.5C 33.6807,5.14863 40.514,-1.01803 55.5,2C 58.9888,5.65471 62.6554,9.15471 66.5,12.5C 93.1667,-3.5 119.833,-3.5 146.5,12.5C 150.318,9.18241 153.985,5.68241 157.5,2C 173.108,-1.60751 179.942,4.55916 178,20.5C 174.868,25.2971 171.368,29.7971 167.5,34C 172.762,42.7782 176.262,52.2782 178,62.5C 178.667,79.5 178.667,96.5 178,113.5C 172.85,124.473 165.35,133.473 155.5,140.5C 154.261,140.058 153.261,139.391 152.5,138.5 Z M 79.5,62.5 C 80.8993,63.8897 82.5659,64.8897 84.5,65.5C 85.6298,67.3146 86.2964,69.3146 86.5,71.5C 87.8333,72.5 87.8333,73.5 86.5,74.5C 86.4559,78.0897 84.7892,80.5897 81.5,82C 79.5,82.6667 77.5,82.6667 75.5,82C 73.5065,80.0014 71.1732,78.5014 68.5,77.5C 67.4383,74.8971 67.2716,72.2305 68,69.5C 70.6432,68.0237 72.8099,66.0237 74.5,63.5C 76.0709,62.6906 77.7376,62.3573 79.5,62.5 Z M 144.5,67.5 C 144.433,69.4008 144.767,71.2341 145.5,73C 145.162,75.6089 144.162,77.7756 142.5,79.5C 142.53,78.5028 142.03,77.8361 141,77.5C 139.681,78.3185 138.515,79.3185 137.5,80.5C 138.025,81.1924 138.692,81.6924 139.5,82C 135.567,82.8844 131.901,82.3844 128.5,80.5C 124.135,71.569 126.635,65.569 136,62.5C 138.971,63.9787 141.804,65.6454 144.5,67.5 Z M 58.5,138.5 C 59.609,138.557 60.609,138.89 61.5,139.5C 60.221,140.715 59.221,140.382 58.5,138.5 Z"/></g>
<g><path style="opacity:1" fill="#fdf710" d="M 105.5,5.5 C 109.042,5.18723 112.375,5.52056 115.5,6.5C 114.5,6.5 113.5,6.5 112.5,6.5C 110.801,6.33982 109.134,6.50649 107.5,7C 86.4715,20.8437 65.4715,34.677 44.5,48.5C 45.3257,45.5152 46.659,42.8485 48.5,40.5C 65.934,31.6097 82.2674,20.7764 97.5,8C 100.251,7.05722 102.917,6.22389 105.5,5.5 Z"/></g>
<g><path style="opacity:1" fill="#ff320b" d="M 57.5,11.5 C 55.5,11.8333 53.5,12.1667 51.5,12.5C 51.5,13.5 51.5,14.5 51.5,15.5C 49.1667,16.1667 46.8333,16.8333 44.5,17.5C 44.5,18.5 44.5,19.5 44.5,20.5C 43.5,20.5 42.5,20.5 41.5,20.5C 40.8826,20.3893 40.3826,20.056 40,19.5C 39.3333,16.8333 39.3333,14.1667 40,11.5C 45.7806,3.54218 51.614,3.54218 57.5,11.5 Z"/></g>
<g><path style="opacity:1" fill="#ffab11" d="M 83.5,9.5 C 81.8201,12.6303 79.3201,14.9636 76,16.5C 67.512,20.6269 59.3453,25.2936 51.5,30.5C 50.1667,29.8333 49.1667,28.8333 48.5,27.5C 53.5,24.1667 58.5,20.8333 63.5,17.5C 64.7382,18.4124 66.0715,18.5791 67.5,18C 72.5112,14.4717 77.8445,11.6384 83.5,9.5 Z"/></g>
<g><path style="opacity:1" fill="#ffc203" d="M 96.5,6.5 C 86.6582,11.9952 77.3249,18.3285 68.5,25.5C 63.1077,28.1961 57.7744,30.8628 52.5,33.5C 52.4431,32.391 52.1098,31.391 51.5,30.5C 59.3453,25.2936 67.512,20.6269 76,16.5C 79.3201,14.9636 81.8201,12.6303 83.5,9.5C 87.6639,7.86654 91.9972,6.86654 96.5,6.5 Z"/></g>
<g><path style="opacity:1" fill="#ff5e02" d="M 57.5,11.5 C 58.5,11.8333 59.1667,12.5 59.5,13.5C 57.1743,15.6787 55.1743,18.1787 53.5,21C 51.1019,22.5242 48.7686,24.0242 46.5,25.5C 44.5,24.1667 42.8333,22.5 41.5,20.5C 42.5,20.5 43.5,20.5 44.5,20.5C 44.5,19.5 44.5,18.5 44.5,17.5C 46.8333,16.8333 49.1667,16.1667 51.5,15.5C 51.5,14.5 51.5,13.5 51.5,12.5C 53.5,12.1667 55.5,11.8333 57.5,11.5 Z"/></g>
<g><path style="opacity:1" fill="#ff8403" d="M 59.5,13.5 C 61.1667,14.5 62.5,15.8333 63.5,17.5C 58.5,20.8333 53.5,24.1667 48.5,27.5C 47.5,27.1667 46.8333,26.5 46.5,25.5C 48.7686,24.0242 51.1019,22.5242 53.5,21C 55.1743,18.1787 57.1743,15.6787 59.5,13.5 Z"/></g>
<g><path style="opacity:1" fill="#03ff39" d="M 171.5,9.5 C 172.117,9.61071 172.617,9.94404 173,10.5C 173.495,12.4727 173.662,14.4727 173.5,16.5C 170.193,17.2875 167.193,18.7875 164.5,21C 162.833,24 160.5,26.3333 157.5,28C 151.116,30.5781 145.116,33.7448 139.5,37.5C 139.5,38.8333 139.5,40.1667 139.5,41.5C 135.656,43.4692 131.656,45.3025 127.5,47C 121.97,50.9282 116.304,54.5948 110.5,58C 108.826,59.5059 107.826,61.3393 107.5,63.5C 102.076,64.9169 96.7424,66.5835 91.5,68.5C 90.3449,65.5251 88.6782,62.8584 86.5,60.5C 88.8568,60.6633 91.1902,60.4966 93.5,60C 107.15,54.6419 119.483,47.3086 130.5,38C 133.647,37.0536 136.647,35.8869 139.5,34.5C 139.5,32.8333 139.5,31.1667 139.5,29.5C 142.426,28.5392 145.426,27.8726 148.5,27.5C 148.5,26.5 148.5,25.5 148.5,24.5C 152.81,23.3603 156.81,21.5269 160.5,19C 163.001,15.5019 166.335,13.1686 170.5,12C 171.252,11.3292 171.586,10.4959 171.5,9.5 Z"/></g>
<g><path style="opacity:1" fill="#a5ff04" d="M 120.5,7.5 C 124.258,7.39522 127.592,8.39522 130.5,10.5C 128.345,10.372 126.345,10.872 124.5,12C 109.349,23.8247 93.1824,33.9913 76,42.5C 71.3313,46.4347 66.498,50.1014 61.5,53.5C 53.0965,56.6893 45.7632,61.356 39.5,67.5C 39.5651,64.5718 40.2318,61.9052 41.5,59.5C 42.8734,59.6567 44.2068,59.49 45.5,59C 56.0677,50.7065 67.401,43.7065 79.5,38C 87.4986,30.3303 96.3319,23.8303 106,18.5C 110.999,14.9321 115.832,11.2654 120.5,7.5 Z"/></g>
<g><path style="opacity:1" fill="#ffde0a" d="M 105.5,5.5 C 102.917,6.22389 100.251,7.05722 97.5,8C 82.2674,20.7764 65.934,31.6097 48.5,40.5C 49.5686,38.0313 50.9019,35.6979 52.5,33.5C 57.7744,30.8628 63.1077,28.1961 68.5,25.5C 77.3249,18.3285 86.6582,11.9952 96.5,6.5C 99.3915,5.59748 102.391,5.26414 105.5,5.5 Z"/></g>
<g><path style="opacity:1" fill="#22ff08" d="M 171.5,9.5 C 171.586,10.4959 171.252,11.3292 170.5,12C 166.335,13.1686 163.001,15.5019 160.5,19C 156.81,21.5269 152.81,23.3603 148.5,24.5C 148.5,25.5 148.5,26.5 148.5,27.5C 145.426,27.8726 142.426,28.5392 139.5,29.5C 139.5,31.1667 139.5,32.8333 139.5,34.5C 136.647,35.8869 133.647,37.0536 130.5,38C 119.483,47.3086 107.15,54.6419 93.5,60C 91.1902,60.4966 88.8568,60.6633 86.5,60.5C 82.8112,58.3263 78.8112,57.3263 74.5,57.5C 78.5887,55.1842 81.9221,52.0175 84.5,48C 102.308,39.2653 118.975,28.7653 134.5,16.5C 137.096,15.7871 139.763,15.7871 142.5,16.5C 144.16,18.2484 146.16,18.7484 148.5,18C 152.533,13.6321 156.866,9.63207 161.5,6C 165.765,4.75488 169.098,5.92155 171.5,9.5 Z"/></g>
<g><path style="opacity:1" fill="#cfff01" d="M 112.5,6.5 C 113.5,6.5 114.5,6.5 115.5,6.5C 117.292,6.36596 118.958,6.69929 120.5,7.5C 115.832,11.2654 110.999,14.9321 106,18.5C 96.3319,23.8303 87.4986,30.3303 79.5,38C 67.401,43.7065 56.0677,50.7065 45.5,59C 44.2068,59.49 42.8734,59.6567 41.5,59.5C 41.2155,57.5853 41.5489,55.9187 42.5,54.5C 61.9273,41.0607 81.594,28.0607 101.5,15.5C 105.526,12.7948 109.192,9.79481 112.5,6.5 Z"/></g>
<g><path style="opacity:1" fill="#eeff05" d="M 112.5,6.5 C 109.192,9.79481 105.526,12.7948 101.5,15.5C 81.594,28.0607 61.9273,41.0607 42.5,54.5C 42.8751,52.3024 43.5418,50.3024 44.5,48.5C 65.4715,34.677 86.4715,20.8437 107.5,7C 109.134,6.50649 110.801,6.33982 112.5,6.5 Z"/></g>
<g><path style="opacity:1" fill="#0cff62" d="M 173.5,16.5 C 173.046,19.1398 171.879,21.4732 170,23.5C 166.962,26.3694 164.129,29.3694 161.5,32.5C 160.833,32.5 160.5,32.8333 160.5,33.5C 156.312,37.3124 151.312,39.3124 145.5,39.5C 138.662,44.4224 131.329,48.5891 123.5,52C 122.167,53.6667 120.833,55.3333 119.5,57C 115.257,59.5674 111.257,62.4007 107.5,65.5C 102.261,67.7441 97.2609,70.4108 92.5,73.5C 92.7678,71.901 92.4345,70.5676 91.5,69.5C 91.5,69.1667 91.5,68.8333 91.5,68.5C 96.7424,66.5835 102.076,64.9169 107.5,63.5C 107.826,61.3393 108.826,59.5059 110.5,58C 116.304,54.5948 121.97,50.9282 127.5,47C 131.656,45.3025 135.656,43.4692 139.5,41.5C 139.5,40.1667 139.5,38.8333 139.5,37.5C 145.116,33.7448 151.116,30.5781 157.5,28C 160.5,26.3333 162.833,24 164.5,21C 167.193,18.7875 170.193,17.2875 173.5,16.5 Z"/></g>
<g><path style="opacity:1" fill="#11fedf" d="M 164.5,40.5 C 166.25,41.6594 167.25,43.326 167.5,45.5C 167.822,47.7224 167.155,49.5557 165.5,51C 158.91,54.4496 152.91,58.6163 147.5,63.5C 144.945,60.7301 141.945,58.7301 138.5,57.5C 141.126,56.5785 143.793,55.5785 146.5,54.5C 152.609,49.8019 158.609,45.1352 164.5,40.5 Z"/></g>
<g><path style="opacity:1" fill="#06ffbb" d="M 162.5,36.5 C 163.674,37.5137 164.34,38.847 164.5,40.5C 158.609,45.1352 152.609,49.8019 146.5,54.5C 143.793,55.5785 141.126,56.5785 138.5,57.5C 137.833,57.5 137.167,57.5 136.5,57.5C 136.281,56.325 136.614,55.325 137.5,54.5C 139.389,53.396 141.055,52.0627 142.5,50.5C 145.974,49.9013 148.974,48.568 151.5,46.5C 151.5,45.5 151.5,44.5 151.5,43.5C 154.438,42.3716 157.438,41.2049 160.5,40C 161.823,39.1841 162.489,38.0174 162.5,36.5 Z"/></g>
<g><path style="opacity:1" fill="#62ff03" d="M 132.5,11.5 C 136.151,12.6589 139.485,14.3256 142.5,16.5C 139.763,15.7871 137.096,15.7871 134.5,16.5C 118.975,28.7653 102.308,39.2653 84.5,48C 81.9221,52.0175 78.5887,55.1842 74.5,57.5C 69.9119,59.4259 66.2452,62.4259 63.5,66.5C 63.5299,65.5028 63.0299,64.8361 62,64.5C 60.5,65 59,65.5 57.5,66C 51.947,70.6053 45.947,74.4386 39.5,77.5C 39.5,75.5 39.5,73.5 39.5,71.5C 52.7194,63.3019 66.0527,55.1353 79.5,47C 88.7835,37.111 99.7835,29.7776 112.5,25C 118.566,19.4959 125.232,14.9959 132.5,11.5 Z"/></g>
<g><path style="opacity:1" fill="#16edfe" d="M 167.5,45.5 C 168.537,46.9303 169.204,48.597 169.5,50.5C 169.586,51.4959 169.252,52.3292 168.5,53C 161.681,57.0526 155.348,61.5526 149.5,66.5C 148.599,65.7095 147.932,64.7095 147.5,63.5C 152.91,58.6163 158.91,54.4496 165.5,51C 167.155,49.5557 167.822,47.7224 167.5,45.5 Z"/></g>
<g><path style="opacity:0.97" fill="#f3fff3" d="M 74.5,57.5 C 78.8112,57.3263 82.8112,58.3263 86.5,60.5C 88.6782,62.8584 90.3449,65.5251 91.5,68.5C 91.5,68.8333 91.5,69.1667 91.5,69.5C 92.9031,81.0824 87.9031,87.0824 76.5,87.5C 73.1848,87.2591 70.1848,86.2591 67.5,84.5C 62.6449,79.3579 61.3116,73.3579 63.5,66.5C 66.2452,62.4259 69.9119,59.4259 74.5,57.5 Z M 79.5,62.5 C 80.8993,63.8897 82.5659,64.8897 84.5,65.5C 85.6298,67.3146 86.2964,69.3146 86.5,71.5C 87.8333,72.5 87.8333,73.5 86.5,74.5C 86.4559,78.0897 84.7892,80.5897 81.5,82C 79.5,82.6667 77.5,82.6667 75.5,82C 73.5065,80.0014 71.1732,78.5014 68.5,77.5C 67.4383,74.8971 67.2716,72.2305 68,69.5C 70.6432,68.0237 72.8099,66.0237 74.5,63.5C 76.0709,62.6906 77.7376,62.3573 79.5,62.5 Z"/></g>
<g><path style="opacity:0.972" fill="#f5fcfd" d="M 136.5,57.5 C 137.167,57.5 137.833,57.5 138.5,57.5C 141.945,58.7301 144.945,60.7301 147.5,63.5C 147.932,64.7095 148.599,65.7095 149.5,66.5C 149.232,68.099 149.566,69.4324 150.5,70.5C 150.5,72.1667 150.5,73.8333 150.5,75.5C 149.637,77.4214 148.971,79.4214 148.5,81.5C 146.176,85.0026 142.843,87.0026 138.5,87.5C 137.5,87.5 136.5,87.5 135.5,87.5C 133.05,87.702 130.717,87.3686 128.5,86.5C 127.71,85.5987 126.71,84.9321 125.5,84.5C 124.488,83.1283 123.488,81.795 122.5,80.5C 122.737,79.209 122.404,78.209 121.5,77.5C 121.5,74.8333 121.5,72.1667 121.5,69.5C 121.5,69.1667 121.5,68.8333 121.5,68.5C 121.557,67.391 121.89,66.391 122.5,65.5C 125.91,60.7905 130.577,58.1238 136.5,57.5 Z M 144.5,67.5 C 144.433,69.4008 144.767,71.2341 145.5,73C 145.162,75.6089 144.162,77.7756 142.5,79.5C 142.53,78.5028 142.03,77.8361 141,77.5C 139.681,78.3185 138.515,79.3185 137.5,80.5C 138.025,81.1924 138.692,81.6924 139.5,82C 135.567,82.8844 131.901,82.3844 128.5,80.5C 124.135,71.569 126.635,65.569 136,62.5C 138.971,63.9787 141.804,65.6454 144.5,67.5 Z"/></g>
<g><path style="opacity:1" fill="#01fe7e" d="M 160.5,33.5 C 160.966,35.2012 160.966,36.7012 160.5,38C 157.666,39.5998 154.666,40.7664 151.5,41.5C 151.081,42.6721 150.415,43.6721 149.5,44.5C 133.415,52.7713 117.748,61.7713 102.5,71.5C 101.571,72.6888 101.238,74.0222 101.5,75.5C 98.525,75.7134 95.8584,76.7134 93.5,78.5C 92.5481,76.9547 92.2148,75.288 92.5,73.5C 97.2609,70.4108 102.261,67.7441 107.5,65.5C 111.257,62.4007 115.257,59.5674 119.5,57C 120.833,55.3333 122.167,53.6667 123.5,52C 131.329,48.5891 138.662,44.4224 145.5,39.5C 151.312,39.3124 156.312,37.3124 160.5,33.5 Z"/></g>
<g><path style="opacity:0.639" fill="#88fce8" d="M 144.5,67.5 C 141.804,65.6454 138.971,63.9787 136,62.5C 126.635,65.569 124.135,71.569 128.5,80.5C 127.542,80.0472 126.708,79.3805 126,78.5C 123.465,67.719 127.632,62.219 138.5,62C 141.647,62.6488 143.647,64.4821 144.5,67.5 Z"/></g>
<g><path style="opacity:1" fill="#89ff00" d="M 130.5,10.5 C 131.492,10.3284 132.158,10.6618 132.5,11.5C 125.232,14.9959 118.566,19.4959 112.5,25C 99.7835,29.7776 88.7835,37.111 79.5,47C 66.0527,55.1353 52.7194,63.3019 39.5,71.5C 39.5,70.1667 39.5,68.8333 39.5,67.5C 45.7632,61.356 53.0965,56.6893 61.5,53.5C 66.498,50.1014 71.3313,46.4347 76,42.5C 93.1824,33.9913 109.349,23.8247 124.5,12C 126.345,10.872 128.345,10.372 130.5,10.5 Z"/></g>
<g><path style="opacity:1" fill="#1acaff" d="M 169.5,50.5 C 170.669,53.341 171.669,56.341 172.5,59.5C 171.127,59.3433 169.793,59.51 168.5,60C 163.839,63.1069 158.839,65.4403 153.5,67C 151.937,67.7589 150.937,68.9256 150.5,70.5C 149.566,69.4324 149.232,68.099 149.5,66.5C 155.348,61.5526 161.681,57.0526 168.5,53C 169.252,52.3292 169.586,51.4959 169.5,50.5 Z"/></g>
<g><path style="opacity:0.525" fill="#a9fea3" d="M 79.5,62.5 C 81.9893,62.2407 83.656,63.2407 84.5,65.5C 82.5659,64.8897 80.8993,63.8897 79.5,62.5 Z"/></g>
<g><path style="opacity:0.192" fill="#7efe80" d="M 84.5,65.5 C 87.3489,66.9196 88.0156,68.9196 86.5,71.5C 86.2964,69.3146 85.6298,67.3146 84.5,65.5 Z"/></g>
<g><path style="opacity:1" fill="#10b1ff" d="M 172.5,59.5 C 172.5,59.8333 172.5,60.1667 172.5,60.5C 169.51,61.6223 166.843,63.4556 164.5,66C 163.207,66.49 161.873,66.6567 160.5,66.5C 160.719,67.675 160.386,68.675 159.5,69.5C 156.111,71.1495 153.111,73.1495 150.5,75.5C 150.5,73.8333 150.5,72.1667 150.5,70.5C 150.937,68.9256 151.937,67.7589 153.5,67C 158.839,65.4403 163.839,63.1069 168.5,60C 169.793,59.51 171.127,59.3433 172.5,59.5 Z"/></g>
<g><path style="opacity:1" fill="#168eff" d="M 172.5,60.5 C 172.993,62.8056 173.326,65.139 173.5,67.5C 169.372,68.7339 165.372,70.2339 161.5,72C 160.833,73 160.167,74 159.5,75C 155.365,76.4407 151.698,78.6073 148.5,81.5C 148.971,79.4214 149.637,77.4214 150.5,75.5C 153.111,73.1495 156.111,71.1495 159.5,69.5C 160.386,68.675 160.719,67.675 160.5,66.5C 161.873,66.6567 163.207,66.49 164.5,66C 166.843,63.4556 169.51,61.6223 172.5,60.5 Z"/></g>
<g><path style="opacity:0.388" fill="#95fe97" d="M 79.5,62.5 C 77.7376,62.3573 76.0709,62.6906 74.5,63.5C 72.8099,66.0237 70.6432,68.0237 68,69.5C 67.2716,72.2305 67.4383,74.8971 68.5,77.5C 71.1732,78.5014 73.5065,80.0014 75.5,82C 77.5,82.6667 79.5,82.6667 81.5,82C 84.7892,80.5897 86.4559,78.0897 86.5,74.5C 87.8425,78.3286 86.5092,81.1619 82.5,83C 68.0791,84.5931 63.5791,78.7597 69,65.5C 72.0652,62.1783 75.5652,61.1783 79.5,62.5 Z"/></g>
<g><path style="opacity:1" fill="#0fff9b" d="M 161.5,32.5 C 161.433,33.9587 161.766,35.2921 162.5,36.5C 162.489,38.0174 161.823,39.1841 160.5,40C 157.438,41.2049 154.438,42.3716 151.5,43.5C 151.5,44.5 151.5,45.5 151.5,46.5C 148.974,48.568 145.974,49.9013 142.5,50.5C 141.055,52.0627 139.389,53.396 137.5,54.5C 136.614,55.325 136.281,56.325 136.5,57.5C 130.577,58.1238 125.91,60.7905 122.5,65.5C 113.957,69.7253 105.957,74.7253 98.5,80.5C 89.5695,86.6427 80.5695,92.8094 71.5,99C 69.7444,99.2022 68.0777,99.7022 66.5,100.5C 64.6152,103.259 61.9486,104.925 58.5,105.5C 54.0064,110.648 48.3397,113.648 41.5,114.5C 41.1667,113.833 40.8333,113.167 40.5,112.5C 42.1992,112.66 43.8659,112.494 45.5,112C 48.9473,109.43 51.9473,106.43 54.5,103C 59.778,100.76 64.778,98.2604 69.5,95.5C 69.5,94.5 69.5,93.5 69.5,92.5C 72.8005,92.1357 75.8005,90.969 78.5,89C 77.5842,88.7216 76.9175,88.2216 76.5,87.5C 87.9031,87.0824 92.9031,81.0824 91.5,69.5C 92.4345,70.5676 92.7678,71.901 92.5,73.5C 92.2148,75.288 92.5481,76.9547 93.5,78.5C 95.8584,76.7134 98.525,75.7134 101.5,75.5C 101.238,74.0222 101.571,72.6888 102.5,71.5C 117.748,61.7713 133.415,52.7713 149.5,44.5C 150.415,43.6721 151.081,42.6721 151.5,41.5C 154.666,40.7664 157.666,39.5998 160.5,38C 160.966,36.7012 160.966,35.2012 160.5,33.5C 160.5,32.8333 160.833,32.5 161.5,32.5 Z"/></g>
<g><path style="opacity:1" fill="#07f7fd" d="M 121.5,77.5 C 122.404,78.209 122.737,79.209 122.5,80.5C 119.162,82.5153 116.162,85.0153 113.5,88C 105.36,91.4833 98.3604,96.4833 92.5,103C 86.9008,104.88 81.5675,107.046 76.5,109.5C 76.5,110.5 76.5,111.5 76.5,112.5C 72.1314,115.501 67.4647,118.168 62.5,120.5C 61.5713,121.689 61.238,123.022 61.5,124.5C 58.0872,125.374 55.0872,127.041 52.5,129.5C 50.4131,128.415 49.0798,126.749 48.5,124.5C 73.6402,110.015 97.9735,94.3482 121.5,77.5 Z"/></g>
<g><path style="opacity:0.043" fill="#7dc3fe" d="M 144.5,67.5 C 148.738,76.685 145.738,82.3516 135.5,84.5C 132.372,84.4395 130.039,83.1061 128.5,80.5C 131.901,82.3844 135.567,82.8844 139.5,82C 138.692,81.6924 138.025,81.1924 137.5,80.5C 138.515,79.3185 139.681,78.3185 141,77.5C 142.03,77.8361 142.53,78.5028 142.5,79.5C 144.162,77.7756 145.162,75.6089 145.5,73C 144.767,71.2341 144.433,69.4008 144.5,67.5 Z"/></g>
<g><path style="opacity:1" fill="#04ffd6" d="M 121.5,68.5 C 121.5,68.8333 121.5,69.1667 121.5,69.5C 120.835,71.6979 120.168,74.0312 119.5,76.5C 112.046,81.3069 104.546,85.9736 97,90.5C 95.5603,91.1476 94.0603,91.4809 92.5,91.5C 92.5,92.5 92.5,93.5 92.5,94.5C 91.5,94.5 90.5,94.5 89.5,94.5C 89.5,95.5 89.5,96.5 89.5,97.5C 84.841,99.3014 80.5076,101.801 76.5,105C 72.2881,106.793 67.9548,108.293 63.5,109.5C 63.4709,112.656 61.8043,114.322 58.5,114.5C 57.6143,115.325 57.281,116.325 57.5,117.5C 56.448,117.351 55.448,117.517 54.5,118C 52.6581,121.017 49.9914,122.517 46.5,122.5C 45.8333,121.5 45.1667,120.5 44.5,119.5C 46.6547,119.628 48.6547,119.128 50.5,118C 53.9662,114.964 57.6328,112.131 61.5,109.5C 69.6451,104.592 77.9784,99.925 86.5,95.5C 90.8841,90.3504 96.2175,86.3504 102.5,83.5C 103.95,82.1502 104.617,80.4835 104.5,78.5C 105.552,78.6495 106.552,78.4828 107.5,78C 110.486,75.9105 113.153,73.5772 115.5,71C 117.217,69.4412 119.217,68.6079 121.5,68.5 Z"/></g>
<g><path style="opacity:1" fill="#14fe23" d="M 63.5,66.5 C 61.3116,73.3579 62.6449,79.3579 67.5,84.5C 67.5394,85.5832 67.8728,86.5832 68.5,87.5C 58.6048,92.7179 48.9381,98.3846 39.5,104.5C 39.5,95.5 39.5,86.5 39.5,77.5C 45.947,74.4386 51.947,70.6053 57.5,66C 59,65.5 60.5,65 62,64.5C 63.0299,64.8361 63.5299,65.5028 63.5,66.5 Z"/></g>
<g><path style="opacity:1" fill="#09fe74" d="M 67.5,84.5 C 70.1848,86.2591 73.1848,87.2591 76.5,87.5C 76.9175,88.2216 77.5842,88.7216 78.5,89C 75.8005,90.969 72.8005,92.1357 69.5,92.5C 69.5,93.5 69.5,94.5 69.5,95.5C 64.778,98.2604 59.778,100.76 54.5,103C 51.9473,106.43 48.9473,109.43 45.5,112C 43.8659,112.494 42.1992,112.66 40.5,112.5C 39.612,109.946 39.2786,107.279 39.5,104.5C 48.9381,98.3846 58.6048,92.7179 68.5,87.5C 67.8728,86.5832 67.5394,85.5832 67.5,84.5 Z"/></g>
<g><path style="opacity:1" fill="#05ffba" d="M 122.5,65.5 C 121.89,66.391 121.557,67.391 121.5,68.5C 119.217,68.6079 117.217,69.4412 115.5,71C 113.153,73.5772 110.486,75.9105 107.5,78C 106.552,78.4828 105.552,78.6495 104.5,78.5C 104.617,80.4835 103.95,82.1502 102.5,83.5C 96.2175,86.3504 90.8841,90.3504 86.5,95.5C 77.9784,99.925 69.6451,104.592 61.5,109.5C 57.6328,112.131 53.9662,114.964 50.5,118C 48.6547,119.128 46.6547,119.628 44.5,119.5C 43.2485,117.999 42.2485,116.332 41.5,114.5C 48.3397,113.648 54.0064,110.648 58.5,105.5C 61.9486,104.925 64.6152,103.259 66.5,100.5C 68.0777,99.7022 69.7444,99.2022 71.5,99C 80.5695,92.8094 89.5695,86.6427 98.5,80.5C 105.957,74.7253 113.957,69.7253 122.5,65.5 Z"/></g>
<g><path style="opacity:1" fill="#0031ff" d="M 173.5,73.5 C 173.5,75.8333 173.5,78.1667 173.5,80.5C 167.396,83.7224 161.396,87.2224 155.5,91C 145.204,99.1455 134.538,106.645 123.5,113.5C 120.038,115.065 116.705,116.898 113.5,119C 111.482,119.505 109.482,120.005 107.5,120.5C 116.509,113.331 125.509,106.164 134.5,99C 141.515,97.301 147.181,93.6344 151.5,88C 159.024,83.2819 166.357,78.4486 173.5,73.5 Z"/></g>
<g><path style="opacity:1" fill="#08ffee" d="M 121.5,69.5 C 121.5,72.1667 121.5,74.8333 121.5,77.5C 97.9735,94.3482 73.6402,110.015 48.5,124.5C 47.5,124.167 46.8333,123.5 46.5,122.5C 49.9914,122.517 52.6581,121.017 54.5,118C 55.448,117.517 56.448,117.351 57.5,117.5C 57.281,116.325 57.6143,115.325 58.5,114.5C 61.8043,114.322 63.4709,112.656 63.5,109.5C 67.9548,108.293 72.2881,106.793 76.5,105C 80.5076,101.801 84.841,99.3014 89.5,97.5C 89.5,96.5 89.5,95.5 89.5,94.5C 90.5,94.5 91.5,94.5 92.5,94.5C 92.5,93.5 92.5,92.5 92.5,91.5C 94.0603,91.4809 95.5603,91.1476 97,90.5C 104.546,85.9736 112.046,81.3069 119.5,76.5C 120.168,74.0312 120.835,71.6979 121.5,69.5 Z"/></g>
<g><path style="opacity:1" fill="#014cff" d="M 173.5,70.5 C 173.5,71.5 173.5,72.5 173.5,73.5C 166.357,78.4486 159.024,83.2819 151.5,88C 147.181,93.6344 141.515,97.301 134.5,99C 125.509,106.164 116.509,113.331 107.5,120.5C 107.5,120.833 107.5,121.167 107.5,121.5C 104.813,121.664 102.146,121.497 99.5,121C 114.051,111.784 128.051,101.784 141.5,91C 151.843,83.4574 162.509,76.6241 173.5,70.5 Z"/></g>
<g><path style="opacity:1" fill="#04abff" d="M 128.5,86.5 C 130.717,87.3686 133.05,87.702 135.5,87.5C 132.003,88.8009 128.837,90.8009 126,93.5C 123.144,94.2557 120.311,95.089 117.5,96C 103.798,104.133 90.7981,113.133 78.5,123C 77.2068,123.49 75.8734,123.657 74.5,123.5C 80.7177,116.716 88.0511,111.382 96.5,107.5C 96.281,106.325 96.6143,105.325 97.5,104.5C 108.684,99.8095 119.017,93.8095 128.5,86.5 Z"/></g>
<g><path style="opacity:1" fill="#266bff" d="M 173.5,67.5 C 173.5,68.5 173.5,69.5 173.5,70.5C 162.509,76.6241 151.843,83.4574 141.5,91C 128.051,101.784 114.051,111.784 99.5,121C 102.146,121.497 104.813,121.664 107.5,121.5C 111.702,121.183 115.702,121.517 119.5,122.5C 111.167,122.5 102.833,122.5 94.5,122.5C 94.8274,132.681 94.494,142.681 93.5,152.5C 93.5,144.167 93.5,135.833 93.5,127.5C 93.1575,125.775 92.1575,125.275 90.5,126C 83.9848,130.674 77.3182,135.174 70.5,139.5C 69.3698,140.622 68.7031,141.956 68.5,143.5C 68.1667,143.5 67.8333,143.5 67.5,143.5C 67.1583,142.662 66.4916,142.328 65.5,142.5C 65.5,141.833 65.1667,141.5 64.5,141.5C 64.5,140.167 64.5,138.833 64.5,137.5C 65.552,137.649 66.552,137.483 67.5,137C 74.5071,131.287 81.5071,125.62 88.5,120C 91.4361,118.955 94.4361,118.121 97.5,117.5C 99.2498,114.373 101.75,112.04 105,110.5C 105.483,109.552 105.649,108.552 105.5,107.5C 114.482,104.508 122.815,100.175 130.5,94.5C 131.246,93.2638 131.579,91.9305 131.5,90.5C 134.241,90.2927 136.574,89.2927 138.5,87.5C 142.843,87.0026 146.176,85.0026 148.5,81.5C 151.698,78.6073 155.365,76.4407 159.5,75C 160.167,74 160.833,73 161.5,72C 165.372,70.2339 169.372,68.7339 173.5,67.5 Z"/></g>
<g><path style="opacity:1" fill="#048eff" d="M 135.5,87.5 C 136.5,87.5 137.5,87.5 138.5,87.5C 136.574,89.2927 134.241,90.2927 131.5,90.5C 131.579,91.9305 131.246,93.2638 130.5,94.5C 122.815,100.175 114.482,104.508 105.5,107.5C 105.649,108.552 105.483,109.552 105,110.5C 101.75,112.04 99.2498,114.373 97.5,117.5C 94.4361,118.121 91.4361,118.955 88.5,120C 81.5071,125.62 74.5071,131.287 67.5,137C 66.552,137.483 65.552,137.649 64.5,137.5C 64.5,138.833 64.5,140.167 64.5,141.5C 64.1667,141.5 63.8333,141.5 63.5,141.5C 63.5,140.167 62.8333,139.5 61.5,139.5C 61.1412,137.629 60.1412,136.129 58.5,135C 60.9562,133.289 63.6229,131.956 66.5,131C 67.3366,129.989 67.67,128.822 67.5,127.5C 70.7712,127.646 73.1045,126.312 74.5,123.5C 75.8734,123.657 77.2068,123.49 78.5,123C 90.7981,113.133 103.798,104.133 117.5,96C 120.311,95.089 123.144,94.2557 126,93.5C 128.837,90.8009 132.003,88.8009 135.5,87.5 Z"/></g>
<g><path style="opacity:1" fill="#8100ff" d="M 173.5,103.5 C 173.664,106.187 173.497,108.854 173,111.5C 172.722,112.416 172.222,113.082 171.5,113.5C 163.8,117.684 155.967,121.684 148,125.5C 144.627,127.44 141.794,129.94 139.5,133C 136.296,133.263 134.296,134.93 133.5,138C 129.252,140.45 124.919,142.617 120.5,144.5C 120.5,141.5 120.5,138.5 120.5,135.5C 129.993,129.874 139.66,124.374 149.5,119C 156.04,111.564 164.04,106.397 173.5,103.5 Z"/></g>
<g><path style="opacity:1" fill="#06dbff" d="M 122.5,80.5 C 123.488,81.795 124.488,83.1283 125.5,84.5C 121.68,85.8398 118.347,88.0065 115.5,91C 105.441,97.7134 95.1081,104.047 84.5,110C 80.038,113.219 76.038,116.886 72.5,121C 66.8585,120.925 63.1918,123.425 61.5,128.5C 59.1944,128.993 56.861,129.326 54.5,129.5C 54.5,130.5 54.5,131.5 54.5,132.5C 53.5987,131.71 52.9321,130.71 52.5,129.5C 55.0872,127.041 58.0872,125.374 61.5,124.5C 61.238,123.022 61.5713,121.689 62.5,120.5C 67.4647,118.168 72.1314,115.501 76.5,112.5C 76.5,111.5 76.5,110.5 76.5,109.5C 81.5675,107.046 86.9008,104.88 92.5,103C 98.3604,96.4833 105.36,91.4833 113.5,88C 116.162,85.0153 119.162,82.5153 122.5,80.5 Z"/></g>
<g><path style="opacity:1" fill="#2406ff" d="M 173.5,80.5 C 173.5,88.1667 173.5,95.8333 173.5,103.5C 164.04,106.397 156.04,111.564 149.5,119C 139.66,124.374 129.993,129.874 120.5,135.5C 120.817,131.298 120.483,127.298 119.5,123.5C 119.5,123.167 119.5,122.833 119.5,122.5C 115.702,121.517 111.702,121.183 107.5,121.5C 107.5,121.167 107.5,120.833 107.5,120.5C 109.482,120.005 111.482,119.505 113.5,119C 116.705,116.898 120.038,115.065 123.5,113.5C 134.538,106.645 145.204,99.1455 155.5,91C 161.396,87.2224 167.396,83.7224 173.5,80.5 Z"/></g>
<g><path style="opacity:0.514" fill="#fcf8fd" d="M 119.5,122.5 C 119.5,122.833 119.5,123.167 119.5,123.5C 119.334,133.172 119.5,142.839 120,152.5C 120.77,153.598 121.603,153.598 122.5,152.5C 122.771,154.821 122.104,156.821 120.5,158.5C 124.796,159.328 129.129,159.828 133.5,160C 134.602,162.401 134.769,164.901 134,167.5C 126.413,180.338 119.08,193.338 112,206.5C 110.784,208.968 109.117,210.968 107,212.5C 105.739,212.241 104.739,211.574 104,210.5C 95.9203,195.339 87.587,180.339 79,165.5C 78.1751,163.299 78.6751,161.466 80.5,160C 84.8711,159.828 89.2044,159.328 93.5,158.5C 91.7801,157.066 89.7801,156.233 87.5,156C 86.7334,154.53 86.0668,153.03 85.5,151.5C 88.1272,152.092 90.7938,152.425 93.5,152.5C 94.494,142.681 94.8274,132.681 94.5,122.5C 102.833,122.5 111.167,122.5 119.5,122.5 Z"/></g>
<g><path style="opacity:1" fill="#17bdff" d="M 125.5,84.5 C 126.71,84.9321 127.71,85.5987 128.5,86.5C 119.017,93.8095 108.684,99.8095 97.5,104.5C 96.6143,105.325 96.281,106.325 96.5,107.5C 88.0511,111.382 80.7177,116.716 74.5,123.5C 73.1045,126.312 70.7712,127.646 67.5,127.5C 67.67,128.822 67.3366,129.989 66.5,131C 63.6229,131.956 60.9562,133.289 58.5,135C 60.1412,136.129 61.1412,137.629 61.5,139.5C 60.609,138.89 59.609,138.557 58.5,138.5C 57.8333,138.5 57.5,138.167 57.5,137.5C 57.5,137.167 57.5,136.833 57.5,136.5C 56.8776,134.878 55.8776,133.545 54.5,132.5C 54.5,131.5 54.5,130.5 54.5,129.5C 56.861,129.326 59.1944,128.993 61.5,128.5C 63.1918,123.425 66.8585,120.925 72.5,121C 76.038,116.886 80.038,113.219 84.5,110C 95.1081,104.047 105.441,97.7134 115.5,91C 118.347,88.0065 121.68,85.8398 125.5,84.5 Z"/></g>
<g><path style="opacity:1" fill="#d518ff" d="M 165.5,123.5 C 161.482,128.846 157.149,133.846 152.5,138.5C 150.596,138.738 149.262,139.738 148.5,141.5C 148.5,142.167 148.167,142.5 147.5,142.5C 145.973,142.427 144.973,143.094 144.5,144.5C 142.973,144.427 141.973,145.094 141.5,146.5C 140.508,146.328 139.842,146.662 139.5,147.5C 137.833,148.167 136.167,148.833 134.5,149.5C 133.833,149.5 133.167,149.5 132.5,149.5C 129.873,150.092 127.206,150.425 124.5,150.5C 125.287,148.896 126.62,148.229 128.5,148.5C 128.5,147.167 128.5,145.833 128.5,144.5C 130.937,144.244 133.271,143.577 135.5,142.5C 138.599,139.933 141.933,137.767 145.5,136C 146.167,135 146.833,134 147.5,133C 153.596,129.92 159.596,126.753 165.5,123.5 Z"/></g>
<g><path style="opacity:0.82" fill="#946dff" d="M 96.5,126.5 C 103.313,125.509 110.313,125.175 117.5,125.5C 117.5,138.5 117.5,151.5 117.5,164.5C 117.167,164.5 116.833,164.5 116.5,164.5C 116.5,161.167 116.5,157.833 116.5,154.5C 116.5,151.833 116.5,149.167 116.5,146.5C 116.5,139.833 116.5,133.167 116.5,126.5C 109.833,126.5 103.167,126.5 96.5,126.5 Z"/></g>
<g><path style="opacity:1" fill="#144cff" d="M 93.5,127.5 C 86.3742,133.105 79.0409,138.605 71.5,144C 72.3805,144.708 73.0472,145.542 73.5,146.5C 71.8333,145.833 70.1667,145.167 68.5,144.5C 68.5,144.167 68.5,143.833 68.5,143.5C 68.7031,141.956 69.3698,140.622 70.5,139.5C 77.3182,135.174 83.9848,130.674 90.5,126C 92.1575,125.275 93.1575,125.775 93.5,127.5 Z"/></g>
<g><path style="opacity:1" fill="#4503ff" d="M 96.5,126.5 C 103.167,126.5 109.833,126.5 116.5,126.5C 116.5,133.167 116.5,139.833 116.5,146.5C 113.735,148.213 111.402,150.38 109.5,153C 105.519,152.808 102.519,154.308 100.5,157.5C 99.3777,158.63 98.0443,159.297 96.5,159.5C 96.5,148.5 96.5,137.5 96.5,126.5 Z"/></g>
<g><path style="opacity:0.024" fill="#fbd7ff" d="M 152.5,138.5 C 151.833,139.5 151.167,140.5 150.5,141.5C 149.833,141.5 149.167,141.5 148.5,141.5C 149.262,139.738 150.596,138.738 152.5,138.5 Z"/></g>
<g><path style="opacity:1" fill="#131bff" d="M 93.5,127.5 C 93.5,135.833 93.5,144.167 93.5,152.5C 90.7938,152.425 88.1272,152.092 85.5,151.5C 84.8333,151.5 84.1667,151.5 83.5,151.5C 80.9949,149.989 78.3283,148.655 75.5,147.5C 75.1667,147.5 74.8333,147.5 74.5,147.5C 73.8333,147.5 73.5,147.167 73.5,146.5C 73.0472,145.542 72.3805,144.708 71.5,144C 79.0409,138.605 86.3742,133.105 93.5,127.5 Z"/></g>
<g><path style="opacity:0.015" fill="#fefffe" d="M 150.5,141.5 C 152.838,142.625 152.505,143.625 149.5,144.5C 149.557,143.391 149.89,142.391 150.5,141.5 Z"/></g>
<g><path style="opacity:1" fill="#ac01ff" d="M 171.5,113.5 C 170,117.173 168,120.506 165.5,123.5C 159.596,126.753 153.596,129.92 147.5,133C 146.833,134 146.167,135 145.5,136C 141.933,137.767 138.599,139.933 135.5,142.5C 133.271,143.577 130.937,144.244 128.5,144.5C 128.5,145.833 128.5,147.167 128.5,148.5C 126.62,148.229 125.287,148.896 124.5,150.5C 123.167,150.5 121.833,150.5 120.5,150.5C 120.5,148.5 120.5,146.5 120.5,144.5C 124.919,142.617 129.252,140.45 133.5,138C 134.296,134.93 136.296,133.263 139.5,133C 141.794,129.94 144.627,127.44 148,125.5C 155.967,121.684 163.8,117.684 171.5,113.5 Z"/></g>
<g><path style="opacity:0.03" fill="#fefbff" d="M 147.5,142.5 C 146.34,144.203 147.007,144.869 149.5,144.5C 145.964,148.105 141.63,150.438 136.5,151.5C 135.478,151.145 134.811,150.478 134.5,149.5C 136.167,148.833 137.833,148.167 139.5,147.5C 140.492,147.672 141.158,147.338 141.5,146.5C 141.973,145.094 142.973,144.427 144.5,144.5C 144.973,143.094 145.973,142.427 147.5,142.5 Z"/></g>
<g><path style="opacity:0.018" fill="#fcfcff" d="M 68.5,144.5 C 70.1667,145.167 71.8333,145.833 73.5,146.5C 73.5,147.167 73.8333,147.5 74.5,147.5C 74.8333,148.833 75.1667,148.833 75.5,147.5C 78.3283,148.655 80.9949,149.989 83.5,151.5C 81.5082,151.328 79.8415,151.995 78.5,153.5C 74.0569,150.821 69.7236,148.154 65.5,145.5C 66.791,145.737 67.791,145.404 68.5,144.5 Z"/></g>
<g><path style="opacity:0.988" fill="#c269ff" d="M 119.5,123.5 C 120.483,127.298 120.817,131.298 120.5,135.5C 120.5,138.5 120.5,141.5 120.5,144.5C 120.5,146.5 120.5,148.5 120.5,150.5C 121.833,150.5 123.167,150.5 124.5,150.5C 127.206,150.425 129.873,150.092 132.5,149.5C 132.5,149.833 132.5,150.167 132.5,150.5C 132.167,150.5 131.833,150.5 131.5,150.5C 128.697,151.928 125.697,152.595 122.5,152.5C 121.603,153.598 120.77,153.598 120,152.5C 119.5,142.839 119.334,133.172 119.5,123.5 Z"/></g>
<g><path style="opacity:0.004" fill="#fefffe" d="M 131.5,150.5 C 131.833,150.5 132.167,150.5 132.5,150.5C 133.773,151.077 133.773,151.743 132.5,152.5C 131.702,152.043 131.369,151.376 131.5,150.5 Z"/></g>
<g><path style="opacity:0.008" fill="#fefffe" d="M 80.5,152.5 C 82.3084,152.491 83.9751,152.991 85.5,154C 85,154.5 84.5,155 84,155.5C 82.2714,155.026 81.1047,154.026 80.5,152.5 Z"/></g>
<g><path style="opacity:0.006" fill="#fefffe" d="M 125.5,154.5 C 126.946,153.387 128.613,153.22 130.5,154C 128.866,154.494 127.199,154.66 125.5,154.5 Z"/></g>
<g><path style="opacity:1" fill="#af04ff" d="M 116.5,146.5 C 116.5,149.167 116.5,151.833 116.5,154.5C 110.188,159.326 103.522,163.659 96.5,167.5C 93.3155,168.596 90.3155,169.929 87.5,171.5C 86.2745,170.063 85.2745,168.396 84.5,166.5C 88.4454,165.509 92.4454,165.176 96.5,165.5C 96.5,163.5 96.5,161.5 96.5,159.5C 98.0443,159.297 99.3777,158.63 100.5,157.5C 102.519,154.308 105.519,152.808 109.5,153C 111.402,150.38 113.735,148.213 116.5,146.5 Z"/></g>
<g><path style="opacity:1" fill="#e502fe" d="M 116.5,154.5 C 116.5,157.833 116.5,161.167 116.5,164.5C 108.508,169.83 100.508,175.164 92.5,180.5C 90.5832,177.669 88.9166,174.669 87.5,171.5C 90.3155,169.929 93.3155,168.596 96.5,167.5C 103.522,163.659 110.188,159.326 116.5,154.5 Z"/></g>
<g><path style="opacity:1" fill="#ff05da" d="M 116.5,164.5 C 116.833,164.5 117.167,164.5 117.5,164.5C 119.948,165.473 122.615,165.806 125.5,165.5C 124.194,166.467 123.527,167.801 123.5,169.5C 120.391,170.708 117.391,172.208 114.5,174C 112.561,174.908 111.561,176.408 111.5,178.5C 106.599,179.371 102.433,181.704 99,185.5C 97.8615,185.989 96.6948,186.322 95.5,186.5C 93.9752,184.784 92.9752,182.784 92.5,180.5C 100.508,175.164 108.508,169.83 116.5,164.5 Z"/></g>
<g><path style="opacity:1" fill="#ff08aa" d="M 125.5,165.5 C 126.978,165.238 128.311,165.571 129.5,166.5C 127.059,171.065 124.392,175.398 121.5,179.5C 119.712,179.215 118.045,179.548 116.5,180.5C 111.824,186.145 105.824,189.812 98.5,191.5C 97.2485,189.999 96.2485,188.332 95.5,186.5C 96.6948,186.322 97.8615,185.989 99,185.5C 102.433,181.704 106.599,179.371 111.5,178.5C 111.561,176.408 112.561,174.908 114.5,174C 117.391,172.208 120.391,170.708 123.5,169.5C 123.527,167.801 124.194,166.467 125.5,165.5 Z"/></g>
<g><path style="opacity:1" fill="#ff0786" d="M 121.5,179.5 C 121.008,181.819 120.008,183.819 118.5,185.5C 113.48,186.534 108.813,189.034 104.5,193C 102.866,193.494 101.199,193.66 99.5,193.5C 99.1667,192.833 98.8333,192.167 98.5,191.5C 105.824,189.812 111.824,186.145 116.5,180.5C 118.045,179.548 119.712,179.215 121.5,179.5 Z"/></g>
<g><path style="opacity:1" fill="#ff1b64" d="M 118.5,185.5 C 115.592,191.591 112.426,197.591 109,203.5C 108.311,204.357 107.478,205.023 106.5,205.5C 103.65,201.801 101.317,197.801 99.5,193.5C 101.199,193.66 102.866,193.494 104.5,193C 108.813,189.034 113.48,186.534 118.5,185.5 Z"/></g>
</svg>
