<?xml version="1.0" encoding="UTF-8"?>
<!DOCTYPE svg PUBLIC "-//W3C//DTD SVG 1.1//EN" "http://www.w3.org/Graphics/SVG/1.1/DTD/svg11.dtd">
<svg xmlns="http://www.w3.org/2000/svg" version="1.1" width="256px" height="256px" style="shape-rendering:geometricPrecision; text-rendering:geometricPrecision; image-rendering:optimizeQuality; fill-rule:evenodd; clip-rule:evenodd" xmlns:xlink="http://www.w3.org/1999/xlink">
<g><path style="opacity:0.862" fill="#fefefe" d="M 29.5,43.5 C 50.8359,43.3334 72.1693,43.5 93.5,44C 105.759,50.601 117.759,57.601 129.5,65C 161.167,65.3333 192.833,65.6667 224.5,66C 229.235,67.0681 232.402,69.9014 234,74.5C 234.667,116.833 234.667,159.167 234,201.5C 232.167,206 229,209.167 224.5,211C 159.833,211.667 95.1667,211.667 30.5,211C 26,209.167 22.8333,206 21,201.5C 20.3333,152.167 20.3333,102.833 21,53.5C 22.2613,48.7452 25.0947,45.4118 29.5,43.5 Z"/></g>
<g><path style="opacity:1" fill="#ff3b00" d="M 47.5,49.5 C 41.9731,60.341 34.9731,70.0077 26.5,78.5C 26.3336,70.8261 26.5003,63.1594 27,55.5C 27.6853,52.9427 29.1853,51.1094 31.5,50C 36.8229,49.5006 42.1563,49.334 47.5,49.5 Z"/></g>
<g><path style="opacity:1" fill="#ffce00" d="M 71.5,49.5 C 72.8333,49.5 74.1667,49.5 75.5,49.5C 63.8459,63.833 52.5126,78.4996 41.5,93.5C 40.1667,93.5 38.8333,93.5 37.5,93.5C 39.4673,88.5731 42.634,84.5731 47,81.5C 54.9143,70.3675 63.081,59.7008 71.5,49.5 Z"/></g>
<g><path style="opacity:1" fill="#ffe600" d="M 75.5,49.5 C 77.1667,49.5 78.8333,49.5 80.5,49.5C 70.227,64.7646 59.227,79.4312 47.5,93.5C 45.5,93.5 43.5,93.5 41.5,93.5C 52.5126,78.4996 63.8459,63.833 75.5,49.5 Z"/></g>
<g><path style="opacity:1" fill="#ff8b00" d="M 56.5,49.5 C 58.5,49.5 60.5,49.5 62.5,49.5C 56.9229,56.3146 52.0895,63.6479 48,71.5C 46.2807,74.2195 43.9474,76.2195 41,77.5C 36.9815,83.3425 32.4815,88.6759 27.5,93.5C 26.5206,90.3752 26.1872,87.0419 26.5,83.5C 27.4959,83.5858 28.3292,83.2524 29,82.5C 30.4381,81.0997 31.2714,79.433 31.5,77.5C 35.5777,77.7396 37.7444,75.7396 38,71.5C 44.3403,64.3252 50.507,56.9918 56.5,49.5 Z"/></g>
<g><path style="opacity:1" fill="#ff6800" d="M 47.5,49.5 C 50.5,49.5 53.5,49.5 56.5,49.5C 50.507,56.9918 44.3403,64.3252 38,71.5C 37.7444,75.7396 35.5777,77.7396 31.5,77.5C 31.2714,79.433 30.4381,81.0997 29,82.5C 28.3292,83.2524 27.4959,83.5858 26.5,83.5C 26.5,81.8333 26.5,80.1667 26.5,78.5C 34.9731,70.0077 41.9731,60.341 47.5,49.5 Z"/></g>
<g><path style="opacity:1" fill="#ebfe00" d="M 80.5,49.5 C 83.5,49.5 86.5,49.5 89.5,49.5C 83.0918,58.6429 76.9251,67.9762 71,77.5C 65.1726,81.3501 61.3392,86.6834 59.5,93.5C 55.5,93.5 51.5,93.5 47.5,93.5C 59.227,79.4312 70.227,64.7646 80.5,49.5 Z"/></g>
<g><path style="opacity:1" fill="#01febe" d="M 150.5,71.5 C 152.833,71.5 155.167,71.5 157.5,71.5C 154.523,75.9753 151.023,79.9753 147,83.5C 144.984,86.6953 143.151,90.0286 141.5,93.5C 139.167,93.5 136.833,93.5 134.5,93.5C 136.448,90.3785 138.615,87.3785 141,84.5C 142.009,82.9751 142.509,81.3084 142.5,79.5C 143.552,79.6495 144.552,79.4828 145.5,79C 147.311,76.5288 148.978,74.0288 150.5,71.5 Z"/></g>
<g><path style="opacity:1" fill="#7fff00" d="M 99.5,54.5 C 101.853,55.3403 103.853,56.6736 105.5,58.5C 97.5471,70.6742 88.8804,82.3409 79.5,93.5C 76.8333,93.5 74.1667,93.5 71.5,93.5C 71.4914,91.6916 71.9914,90.0249 73,88.5C 82.0864,77.3075 90.9198,65.9742 99.5,54.5 Z"/></g>
<g><path style="opacity:1" fill="#c1ff00" d="M 89.5,49.5 C 91.5786,49.9707 93.5786,50.6373 95.5,51.5C 86.8507,62.9819 78.0174,74.3152 69,85.5C 68.467,88.505 67.3004,91.1717 65.5,93.5C 63.5,93.5 61.5,93.5 59.5,93.5C 61.3392,86.6834 65.1726,81.3501 71,77.5C 76.9251,67.9762 83.0918,58.6429 89.5,49.5 Z"/></g>
<g><path style="opacity:1" fill="#01fe7e" d="M 137.5,71.5 C 139.833,71.5 142.167,71.5 144.5,71.5C 139.14,78.5663 134.14,85.8997 129.5,93.5C 126.5,93.5 123.5,93.5 120.5,93.5C 125.512,86.8557 131.012,80.5224 137,74.5C 137.483,73.552 137.649,72.552 137.5,71.5 Z"/></g>
<g><path style="opacity:1" fill="#0054ff" d="M 198.5,71.5 C 200.167,71.5 201.833,71.5 203.5,71.5C 197.845,78.7946 192.178,86.1279 186.5,93.5C 185.167,93.5 183.833,93.5 182.5,93.5C 182.709,92.0783 183.209,90.745 184,89.5C 189.071,83.6917 193.904,77.6917 198.5,71.5 Z"/></g>
<g><path style="opacity:1" fill="#a7ff00" d="M 95.5,51.5 C 96.8717,52.5116 98.205,53.5116 99.5,54.5C 90.9198,65.9742 82.0864,77.3075 73,88.5C 71.9914,90.0249 71.4914,91.6916 71.5,93.5C 69.5,93.5 67.5,93.5 65.5,93.5C 67.3004,91.1717 68.467,88.505 69,85.5C 78.0174,74.3152 86.8507,62.9819 95.5,51.5 Z"/></g>
<g><path style="opacity:1" fill="#03f9f8" d="M 162.5,71.5 C 165.833,71.5 169.167,71.5 172.5,71.5C 170.866,75.7148 168.033,79.0481 164,81.5C 161.406,85.695 158.573,89.695 155.5,93.5C 152.833,93.5 150.167,93.5 147.5,93.5C 150.653,88.6032 153.653,83.6032 156.5,78.5C 158.753,76.2903 160.753,73.957 162.5,71.5 Z"/></g>
<g><path style="opacity:1" fill="#03ccff" d="M 172.5,71.5 C 174.5,71.5 176.5,71.5 178.5,71.5C 174.326,79.1894 169.659,86.5228 164.5,93.5C 161.5,93.5 158.5,93.5 155.5,93.5C 158.573,89.695 161.406,85.695 164,81.5C 168.033,79.0481 170.866,75.7148 172.5,71.5 Z"/></g>
<g><path style="opacity:1" fill="#01ffdb" d="M 157.5,71.5 C 159.167,71.5 160.833,71.5 162.5,71.5C 160.753,73.957 158.753,76.2903 156.5,78.5C 153.653,83.6032 150.653,88.6032 147.5,93.5C 145.5,93.5 143.5,93.5 141.5,93.5C 143.151,90.0286 144.984,86.6953 147,83.5C 151.023,79.9753 154.523,75.9753 157.5,71.5 Z"/></g>
<g><path style="opacity:1" fill="#0270ff" d="M 191.5,71.5 C 193.833,71.5 196.167,71.5 198.5,71.5C 193.904,77.6917 189.071,83.6917 184,89.5C 183.209,90.745 182.709,92.0783 182.5,93.5C 180.167,93.5 177.833,93.5 175.5,93.5C 180.848,86.1189 186.182,78.7856 191.5,71.5 Z"/></g>
<g><path style="opacity:1" fill="#ffb500" d="M 62.5,49.5 C 65.5,49.5 68.5,49.5 71.5,49.5C 63.081,59.7008 54.9143,70.3675 47,81.5C 42.634,84.5731 39.4673,88.5731 37.5,93.5C 34.1667,93.5 30.8333,93.5 27.5,93.5C 32.4815,88.6759 36.9815,83.3425 41,77.5C 43.9474,76.2195 46.2807,74.2195 48,71.5C 52.0895,63.6479 56.9229,56.3146 62.5,49.5 Z"/></g>
<g><path style="opacity:1" fill="#26ff17" d="M 105.5,58.5 C 111.264,61.7482 116.931,65.2482 122.5,69C 125.022,70.3409 127.689,71.1743 130.5,71.5C 129.604,75.4283 127.438,78.4283 124,80.5C 120.815,84.8923 117.648,89.2256 114.5,93.5C 102.833,93.5 91.1667,93.5 79.5,93.5C 88.8804,82.3409 97.5471,70.6742 105.5,58.5 Z"/></g>
<g><path style="opacity:1" fill="#0190ff" d="M 185.5,71.5 C 187.5,71.5 189.5,71.5 191.5,71.5C 186.182,78.7856 180.848,86.1189 175.5,93.5C 173.833,93.5 172.167,93.5 170.5,93.5C 175.859,86.4556 180.859,79.1223 185.5,71.5 Z"/></g>
<g><path style="opacity:1" fill="#003aff" d="M 203.5,71.5 C 204.833,71.5 206.167,71.5 207.5,71.5C 206.581,74.9644 204.581,77.6311 201.5,79.5C 199.142,84.7601 196.142,89.4268 192.5,93.5C 190.5,93.5 188.5,93.5 186.5,93.5C 192.178,86.1279 197.845,78.7946 203.5,71.5 Z"/></g>
<g><path style="opacity:1" fill="#01abff" d="M 178.5,71.5 C 180.833,71.5 183.167,71.5 185.5,71.5C 180.859,79.1223 175.859,86.4556 170.5,93.5C 168.5,93.5 166.5,93.5 164.5,93.5C 169.659,86.5228 174.326,79.1894 178.5,71.5 Z"/></g>
<g><path style="opacity:1" fill="#3905ff" d="M 207.5,71.5 C 226.009,67.6772 233.009,75.0105 228.5,93.5C 216.5,93.5 204.5,93.5 192.5,93.5C 196.142,89.4268 199.142,84.7601 201.5,79.5C 204.581,77.6311 206.581,74.9644 207.5,71.5 Z"/></g>
<g><path style="opacity:1" fill="#00fe5e" d="M 130.5,71.5 C 132.833,71.5 135.167,71.5 137.5,71.5C 137.649,72.552 137.483,73.552 137,74.5C 131.012,80.5224 125.512,86.8557 120.5,93.5C 118.5,93.5 116.5,93.5 114.5,93.5C 117.648,89.2256 120.815,84.8923 124,80.5C 127.438,78.4283 129.604,75.4283 130.5,71.5 Z"/></g>
<g><path style="opacity:1" fill="#01fea0" d="M 144.5,71.5 C 146.5,71.5 148.5,71.5 150.5,71.5C 148.978,74.0288 147.311,76.5288 145.5,79C 144.552,79.4828 143.552,79.6495 142.5,79.5C 142.509,81.3084 142.009,82.9751 141,84.5C 138.615,87.3785 136.448,90.3785 134.5,93.5C 132.833,93.5 131.167,93.5 129.5,93.5C 134.14,85.8997 139.14,78.5663 144.5,71.5 Z"/></g>
<g><path style="opacity:1" fill="#ffe600" d="M 41.5,100.5 C 38.4149,104.343 35.5816,108.343 33,112.5C 30.9431,114.728 28.7764,116.728 26.5,118.5C 26.5,112.5 26.5,106.5 26.5,100.5C 31.5,100.5 36.5,100.5 41.5,100.5 Z"/></g>
<g><path style="opacity:1" fill="#0073ff" d="M 171.5,100.5 C 172.167,100.5 172.833,100.5 173.5,100.5C 168.544,107.628 163.377,114.628 158,121.5C 152.58,125.733 148.58,131.066 146,137.5C 139.1,144.984 132.933,152.984 127.5,161.5C 120.987,169.217 114.487,176.884 108,184.5C 107.51,185.793 107.343,187.127 107.5,188.5C 104.956,189.468 102.789,191.135 101,193.5C 98.2279,197.388 95.7279,201.388 93.5,205.5C 92.1667,205.5 90.8333,205.5 89.5,205.5C 90.757,202.904 91.9236,200.237 93,197.5C 98.1256,191.381 103.292,185.381 108.5,179.5C 115.918,173.066 121.918,165.399 126.5,156.5C 127.914,155.376 129.414,154.376 131,153.5C 131.557,151.385 132.391,149.385 133.5,147.5C 146.19,131.814 158.857,116.148 171.5,100.5 Z"/></g>
<g><path style="opacity:1" fill="#f0fe00" d="M 41.5,100.5 C 43.8333,100.5 46.1667,100.5 48.5,100.5C 46.8055,105.244 44.1389,109.244 40.5,112.5C 39.5713,113.689 39.238,115.022 39.5,116.5C 38.325,116.281 37.325,116.614 36.5,117.5C 34.9579,120.367 32.7912,122.701 30,124.5C 29.5172,125.448 29.3505,126.448 29.5,127.5C 28.5,127.5 27.5,127.5 26.5,127.5C 26.5,124.5 26.5,121.5 26.5,118.5C 28.7764,116.728 30.9431,114.728 33,112.5C 35.5816,108.343 38.4149,104.343 41.5,100.5 Z"/></g>
<g><path style="opacity:1" fill="#bfff00" d="M 48.5,100.5 C 51.8333,100.5 55.1667,100.5 58.5,100.5C 47.7035,114.931 37.0369,129.264 26.5,143.5C 26.5,138.167 26.5,132.833 26.5,127.5C 27.5,127.5 28.5,127.5 29.5,127.5C 29.3505,126.448 29.5172,125.448 30,124.5C 32.7912,122.701 34.9579,120.367 36.5,117.5C 37.325,116.614 38.325,116.281 39.5,116.5C 39.238,115.022 39.5713,113.689 40.5,112.5C 44.1389,109.244 46.8055,105.244 48.5,100.5 Z"/></g>
<g><path style="opacity:1" fill="#002eff" d="M 183.5,100.5 C 184.833,100.5 186.167,100.5 187.5,100.5C 180.868,109.797 173.868,118.797 166.5,127.5C 164.032,130.472 162.198,133.806 161,137.5C 157.651,139.853 154.651,142.52 152,145.5C 147.763,152.154 143.43,158.821 139,165.5C 136.75,166.708 134.583,168.041 132.5,169.5C 123.494,181.829 114.161,193.829 104.5,205.5C 103.167,205.5 101.833,205.5 100.5,205.5C 102.002,203.825 103.335,201.992 104.5,200C 105.448,199.517 106.448,199.351 107.5,199.5C 107.351,198.448 107.517,197.448 108,196.5C 113.692,191.308 118.858,185.642 123.5,179.5C 128.142,173.024 132.975,166.691 138,160.5C 138.483,159.552 138.649,158.552 138.5,157.5C 139.5,157.5 140.5,157.5 141.5,157.5C 141.351,156.448 141.517,155.448 142,154.5C 144.085,152.918 145.585,150.918 146.5,148.5C 155.166,138.665 163.666,128.665 172,118.5C 172.471,116.754 173.138,115.087 174,113.5C 177.645,109.453 180.812,105.12 183.5,100.5 Z"/></g>
<g><path style="opacity:1" fill="#01fe74" d="M 112.5,100.5 C 115.167,100.5 117.833,100.5 120.5,100.5C 115.903,107.37 111.07,114.037 106,120.5C 103.388,121.779 101.055,123.445 99,125.5C 88.2156,139.108 78.049,153.108 68.5,167.5C 59.3251,178.366 50.3251,189.366 41.5,200.5C 40.5435,202.075 39.8769,203.742 39.5,205.5C 36.9407,205.802 34.6074,205.468 32.5,204.5C 33.3734,201.423 35.2068,199.09 38,197.5C 50.8889,181.415 63.5556,165.082 76,148.5C 82.4803,143.254 87.8137,136.92 92,129.5C 93.0195,128.313 94.1861,127.313 95.5,126.5C 97.4182,122.071 99.5849,117.737 102,113.5C 105.713,109.292 109.213,104.959 112.5,100.5 Z"/></g>
<g><path style="opacity:1" fill="#00fe8b" d="M 120.5,100.5 C 121.167,100.5 121.833,100.5 122.5,100.5C 118.939,105.944 115.606,111.61 112.5,117.5C 103.596,127.501 94.5961,137.501 85.5,147.5C 80.4694,153.858 75.4694,160.191 70.5,166.5C 66.6646,173.508 62.3313,180.174 57.5,186.5C 53.0822,190.085 49.5822,194.419 47,199.5C 43.9152,200.416 42.0819,202.416 41.5,205.5C 40.8333,205.5 40.1667,205.5 39.5,205.5C 39.8769,203.742 40.5435,202.075 41.5,200.5C 50.3251,189.366 59.3251,178.366 68.5,167.5C 78.049,153.108 88.2156,139.108 99,125.5C 101.055,123.445 103.388,121.779 106,120.5C 111.07,114.037 115.903,107.37 120.5,100.5 Z"/></g>
<g><path style="opacity:1" fill="#ff00ea" d="M 228.5,125.5 C 228.5,127.833 228.5,130.167 228.5,132.5C 221.257,140.667 214.257,149.001 207.5,157.5C 199.44,170.958 189.94,183.291 179,194.5C 178.517,195.448 178.351,196.448 178.5,197.5C 177.5,197.5 176.5,197.5 175.5,197.5C 174.618,200.385 173.284,203.052 171.5,205.5C 169.833,205.5 168.167,205.5 166.5,205.5C 187.193,178.741 207.86,152.074 228.5,125.5 Z"/></g>
<g><path style="opacity:1" fill="#2106ff" d="M 187.5,100.5 C 195.5,100.5 203.5,100.5 211.5,100.5C 206.407,107.688 201.073,114.688 195.5,121.5C 194.333,123.833 193.167,126.167 192,128.5C 189.657,129.127 187.49,130.127 185.5,131.5C 183.136,134.699 180.97,138.032 179,141.5C 177.693,142.772 176.193,143.772 174.5,144.5C 170.052,152.803 164.552,160.47 158,167.5C 156.784,171.052 155.117,174.385 153,177.5C 145.636,187.021 138.136,196.355 130.5,205.5C 121.833,205.5 113.167,205.5 104.5,205.5C 114.161,193.829 123.494,181.829 132.5,169.5C 134.583,168.041 136.75,166.708 139,165.5C 143.43,158.821 147.763,152.154 152,145.5C 154.651,142.52 157.651,139.853 161,137.5C 162.198,133.806 164.032,130.472 166.5,127.5C 173.868,118.797 180.868,109.797 187.5,100.5 Z"/></g>
<g><path style="opacity:1" fill="#01e4ff" d="M 147.5,100.5 C 148.833,100.5 150.167,100.5 151.5,100.5C 148.003,104.148 145.503,108.481 144,113.5C 139.588,117.481 135.754,121.981 132.5,127C 131.552,127.483 130.552,127.649 129.5,127.5C 127.284,133.052 124.618,138.385 121.5,143.5C 120.518,144.141 119.518,144.807 118.5,145.5C 115.888,150.943 112.055,155.277 107,158.5C 95.9285,172.941 84.5952,187.274 73,201.5C 72.5899,202.901 72.0899,204.234 71.5,205.5C 69.1667,205.5 66.8333,205.5 64.5,205.5C 69.6693,198.491 74.836,191.491 80,184.5C 81.3073,182.808 82.8073,181.475 84.5,180.5C 85.4959,180.586 86.3292,180.252 87,179.5C 95.935,167.938 104.768,156.271 113.5,144.5C 123.17,134.661 131.837,123.994 139.5,112.5C 143.751,109.578 146.417,105.578 147.5,100.5 Z"/></g>
<g><path style="opacity:1" fill="#55ff00" d="M 69.5,100.5 C 73.8333,100.5 78.1667,100.5 82.5,100.5C 67.6037,117.428 53.2703,135.095 39.5,153.5C 38.3906,155.385 37.5573,157.385 37,159.5C 33.481,162.616 29.981,165.616 26.5,168.5C 26.5,163.833 26.5,159.167 26.5,154.5C 31.1182,148.047 36.6182,142.381 43,137.5C 50.6353,126.209 58.9687,115.542 68,105.5C 68.6077,103.846 69.1077,102.179 69.5,100.5 Z"/></g>
<g><path style="opacity:1" fill="#92ff00" d="M 58.5,100.5 C 62.1667,100.5 65.8333,100.5 69.5,100.5C 69.1077,102.179 68.6077,103.846 68,105.5C 58.9687,115.542 50.6353,126.209 43,137.5C 36.6182,142.381 31.1182,148.047 26.5,154.5C 26.5,150.833 26.5,147.167 26.5,143.5C 37.0369,129.264 47.7035,114.931 58.5,100.5 Z"/></g>
<g><path style="opacity:1" fill="#01ffd8" d="M 133.5,100.5 C 135.833,100.5 138.167,100.5 140.5,100.5C 136.462,107.206 131.462,113.206 125.5,118.5C 123.929,120.971 122.929,123.637 122.5,126.5C 121.5,126.5 120.5,126.5 119.5,126.5C 119.723,129.114 118.556,130.781 116,131.5C 114.961,134.013 113.628,136.347 112,138.5C 108.661,140.673 105.828,143.34 103.5,146.5C 99.5644,151.73 95.731,157.064 92,162.5C 89.3762,163.611 87.8762,165.611 87.5,168.5C 85.3692,171.163 82.8692,173.496 80,175.5C 78.8035,178.089 77.8035,180.756 77,183.5C 71.2903,190.936 65.457,198.27 59.5,205.5C 57.1667,205.5 54.8333,205.5 52.5,205.5C 55.8445,200.499 59.1779,195.499 62.5,190.5C 65.2273,188.774 67.2273,186.441 68.5,183.5C 69.931,183.023 71.2643,182.357 72.5,181.5C 78.7923,172.378 85.6257,163.711 93,155.5C 94.0086,153.975 94.5086,152.308 94.5,150.5C 95.5,150.5 96.5,150.5 97.5,150.5C 100.63,144.837 104.464,139.504 109,134.5C 109.333,133.167 109.667,131.833 110,130.5C 112.085,128.918 113.585,126.918 114.5,124.5C 115.736,123.754 117.07,123.421 118.5,123.5C 118.893,119.054 121.06,115.721 125,113.5C 126.936,108.49 129.77,104.157 133.5,100.5 Z"/></g>
<g><path style="opacity:1" fill="#0143ff" d="M 180.5,100.5 C 181.5,100.5 182.5,100.5 183.5,100.5C 180.812,105.12 177.645,109.453 174,113.5C 173.138,115.087 172.471,116.754 172,118.5C 163.666,128.665 155.166,138.665 146.5,148.5C 145.585,150.918 144.085,152.918 142,154.5C 141.517,155.448 141.351,156.448 141.5,157.5C 140.5,157.5 139.5,157.5 138.5,157.5C 138.649,158.552 138.483,159.552 138,160.5C 132.975,166.691 128.142,173.024 123.5,179.5C 118.858,185.642 113.692,191.308 108,196.5C 107.517,197.448 107.351,198.448 107.5,199.5C 106.448,199.351 105.448,199.517 104.5,200C 103.335,201.992 102.002,203.825 100.5,205.5C 99.5,205.5 98.5,205.5 97.5,205.5C 98.1171,203.32 99.1171,201.32 100.5,199.5C 105.931,194.673 110.765,189.34 115,183.5C 116.381,179.142 119.048,175.808 123,173.5C 123.333,172.167 123.667,170.833 124,169.5C 128.664,163.51 133.33,157.51 138,151.5C 145.058,147.395 149.725,141.395 152,133.5C 153.955,132.547 155.622,131.213 157,129.5C 164.392,119.327 172.225,109.66 180.5,100.5 Z"/></g>
<g><path style="opacity:1" fill="#008eff" d="M 164.5,100.5 C 165.167,100.5 165.833,100.5 166.5,100.5C 163.831,103.842 161.164,107.175 158.5,110.5C 157.442,114.283 155.609,117.617 153,120.5C 141.249,134.72 129.749,149.054 118.5,163.5C 117.764,165.541 116.931,167.541 116,169.5C 114.258,172.205 112.091,174.538 109.5,176.5C 108.873,177.417 108.539,178.417 108.5,179.5C 103.292,185.381 98.1256,191.381 93,197.5C 91.9236,200.237 90.757,202.904 89.5,205.5C 88.5,205.5 87.5,205.5 86.5,205.5C 87.2172,203.063 88.2172,200.73 89.5,198.5C 98.5234,188.623 106.69,177.957 114,166.5C 124.835,153.842 134.668,140.509 143.5,126.5C 146.296,123.171 149.463,120.171 153,117.5C 155.812,111.229 159.646,105.562 164.5,100.5 Z"/></g>
<g><path style="opacity:1" fill="#00fe40" d="M 102.5,100.5 C 104.833,100.5 107.167,100.5 109.5,100.5C 106.748,105.644 103.248,110.31 99,114.5C 98.1376,116.087 97.4709,117.754 97,119.5C 94.708,120.79 92.708,122.457 91,124.5C 85.6602,132.822 79.9935,140.822 74,148.5C 69.8852,153.192 65.2185,157.192 60,160.5C 59.7506,163.177 58.7506,165.51 57,167.5C 47.4917,179.197 37.9917,190.864 28.5,202.5C 27.8902,201.609 27.5569,200.609 27.5,199.5C 30.5455,195.097 33.3788,190.43 36,185.5C 42.7257,178.413 48.7257,170.746 54,162.5C 58.9638,159.533 63.2971,155.866 67,151.5C 67.4709,149.754 68.1376,148.087 69,146.5C 73.6784,141.792 77.3451,136.459 80,130.5C 82.9625,126.037 86.4625,122.037 90.5,118.5C 95.1234,112.898 99.1234,106.898 102.5,100.5 Z"/></g>
<g><path style="opacity:1" fill="#bf00ff" d="M 228.5,105.5 C 228.5,108.167 228.5,110.833 228.5,113.5C 227.118,114.801 225.452,115.634 223.5,116C 216.88,124.076 210.38,132.242 204,140.5C 203.667,141.833 203.333,143.167 203,144.5C 200.071,147.051 197.238,149.718 194.5,152.5C 192.34,157.831 189.173,162.497 185,166.5C 181.639,171.888 178.806,177.554 176.5,183.5C 175.15,184.95 173.484,185.617 171.5,185.5C 171.649,186.552 171.483,187.552 171,188.5C 167.375,193.127 163.375,197.46 159,201.5C 158.209,202.745 157.709,204.078 157.5,205.5C 154.5,205.5 151.5,205.5 148.5,205.5C 149.801,204.118 150.634,202.452 151,200.5C 163.867,186.636 175.201,171.636 185,155.5C 189.317,152.848 192.984,149.515 196,145.5C 196.813,143.564 197.313,141.564 197.5,139.5C 198.822,139.67 199.989,139.337 201,138.5C 202.586,136.33 203.92,133.996 205,131.5C 213.666,123.663 221.499,114.997 228.5,105.5 Z"/></g>
<g><path style="opacity:1" fill="#8300ff" d="M 217.5,100.5 C 219.833,100.5 222.167,100.5 224.5,100.5C 224.657,101.873 224.49,103.207 224,104.5C 217.713,112.243 211.546,120.076 205.5,128C 203.413,128.792 201.579,129.959 200,131.5C 195.318,137.675 190.485,143.675 185.5,149.5C 181.167,156.167 176.833,162.833 172.5,169.5C 171.15,170.95 169.484,171.617 167.5,171.5C 165.907,174.315 164.407,177.315 163,180.5C 156.166,188.478 149.999,196.811 144.5,205.5C 142.833,205.5 141.167,205.5 139.5,205.5C 139.892,203.821 140.392,202.154 141,200.5C 151.357,186.637 162.024,172.971 173,159.5C 174,158.833 175,158.167 176,157.5C 180.587,149.089 185.754,141.089 191.5,133.5C 197.147,126.685 202.98,120.019 209,113.5C 212.052,109.287 214.885,104.954 217.5,100.5 Z"/></g>
<g><path style="opacity:1" fill="#0082ff" d="M 166.5,100.5 C 168.167,100.5 169.833,100.5 171.5,100.5C 158.857,116.148 146.19,131.814 133.5,147.5C 132.391,149.385 131.557,151.385 131,153.5C 129.414,154.376 127.914,155.376 126.5,156.5C 121.918,165.399 115.918,173.066 108.5,179.5C 108.539,178.417 108.873,177.417 109.5,176.5C 112.091,174.538 114.258,172.205 116,169.5C 116.931,167.541 117.764,165.541 118.5,163.5C 129.749,149.054 141.249,134.72 153,120.5C 155.609,117.617 157.442,114.283 158.5,110.5C 161.164,107.175 163.831,103.842 166.5,100.5 Z"/></g>
<g><path style="opacity:1" fill="#17ff0a" d="M 82.5,100.5 C 89.1667,100.5 95.8333,100.5 102.5,100.5C 99.1234,106.898 95.1234,112.898 90.5,118.5C 86.4625,122.037 82.9625,126.037 80,130.5C 77.3451,136.459 73.6784,141.792 69,146.5C 68.1376,148.087 67.4709,149.754 67,151.5C 63.2971,155.866 58.9638,159.533 54,162.5C 48.7257,170.746 42.7257,178.413 36,185.5C 33.3788,190.43 30.5455,195.097 27.5,199.5C 26.5058,189.347 26.1724,179.014 26.5,168.5C 29.981,165.616 33.481,162.616 37,159.5C 37.5573,157.385 38.3906,155.385 39.5,153.5C 53.2703,135.095 67.6037,117.428 82.5,100.5 Z"/></g>
<g><path style="opacity:1" fill="#01fef4" d="M 140.5,100.5 C 142.167,100.5 143.833,100.5 145.5,100.5C 124.814,126.861 104.481,153.528 84.5,180.5C 82.8073,181.475 81.3073,182.808 80,184.5C 74.836,191.491 69.6693,198.491 64.5,205.5C 62.8333,205.5 61.1667,205.5 59.5,205.5C 65.457,198.27 71.2903,190.936 77,183.5C 77.8035,180.756 78.8035,178.089 80,175.5C 82.8692,173.496 85.3692,171.163 87.5,168.5C 87.8762,165.611 89.3762,163.611 92,162.5C 95.731,157.064 99.5644,151.73 103.5,146.5C 105.828,143.34 108.661,140.673 112,138.5C 113.628,136.347 114.961,134.013 116,131.5C 118.556,130.781 119.723,129.114 119.5,126.5C 120.5,126.5 121.5,126.5 122.5,126.5C 122.929,123.637 123.929,120.971 125.5,118.5C 131.462,113.206 136.462,107.206 140.5,100.5 Z"/></g>
<g><path style="opacity:1" fill="#01adff" d="M 157.5,100.5 C 158.5,100.5 159.5,100.5 160.5,100.5C 155.132,107.7 149.965,115.033 145,122.5C 138.303,126.63 134.47,132.63 133.5,140.5C 131.61,140.297 130.11,140.963 129,142.5C 122.104,153.397 114.438,163.73 106,173.5C 105.069,175.459 104.236,177.459 103.5,179.5C 98.2039,185.802 92.8706,192.135 87.5,198.5C 86.0017,200.854 84.6683,203.187 83.5,205.5C 81.5,205.5 79.5,205.5 77.5,205.5C 78.8775,203.125 80.8775,201.459 83.5,200.5C 89.5143,192.327 95.6809,184.327 102,176.5C 103.042,171.618 105.542,167.618 109.5,164.5C 110.098,163.205 110.598,161.872 111,160.5C 114.509,157.443 118.009,154.443 121.5,151.5C 122.934,149.78 123.767,147.78 124,145.5C 127.525,143.122 129.525,139.789 130,135.5C 131,134.833 132,134.167 133,133.5C 140.642,122.263 148.809,111.263 157.5,100.5 Z"/></g>
<g><path style="opacity:1" fill="#015fff" d="M 173.5,100.5 C 175.833,100.5 178.167,100.5 180.5,100.5C 172.225,109.66 164.392,119.327 157,129.5C 155.622,131.213 153.955,132.547 152,133.5C 149.725,141.395 145.058,147.395 138,151.5C 133.33,157.51 128.664,163.51 124,169.5C 123.667,170.833 123.333,172.167 123,173.5C 119.048,175.808 116.381,179.142 115,183.5C 110.765,189.34 105.931,194.673 100.5,199.5C 99.1171,201.32 98.1171,203.32 97.5,205.5C 96.1667,205.5 94.8333,205.5 93.5,205.5C 95.7279,201.388 98.2279,197.388 101,193.5C 102.789,191.135 104.956,189.468 107.5,188.5C 107.343,187.127 107.51,185.793 108,184.5C 114.487,176.884 120.987,169.217 127.5,161.5C 132.933,152.984 139.1,144.984 146,137.5C 148.58,131.066 152.58,125.733 158,121.5C 163.377,114.628 168.544,107.628 173.5,100.5 Z"/></g>
<g><path style="opacity:1" fill="#00fe5a" d="M 109.5,100.5 C 110.5,100.5 111.5,100.5 112.5,100.5C 109.213,104.959 105.713,109.292 102,113.5C 99.5849,117.737 97.4182,122.071 95.5,126.5C 94.1861,127.313 93.0195,128.313 92,129.5C 87.8137,136.92 82.4803,143.254 76,148.5C 63.5556,165.082 50.8889,181.415 38,197.5C 35.2068,199.09 33.3734,201.423 32.5,204.5C 30.847,204.34 29.5137,203.674 28.5,202.5C 37.9917,190.864 47.4917,179.197 57,167.5C 58.7506,165.51 59.7506,163.177 60,160.5C 65.2185,157.192 69.8852,153.192 74,148.5C 79.9935,140.822 85.6602,132.822 91,124.5C 92.708,122.457 94.708,120.79 97,119.5C 97.4709,117.754 98.1376,116.087 99,114.5C 103.248,110.31 106.748,105.644 109.5,100.5 Z"/></g>
<g><path style="opacity:1" fill="#00f1ff" d="M 145.5,100.5 C 146.167,100.5 146.833,100.5 147.5,100.5C 146.417,105.578 143.751,109.578 139.5,112.5C 131.837,123.994 123.17,134.661 113.5,144.5C 104.768,156.271 95.935,167.938 87,179.5C 86.3292,180.252 85.4959,180.586 84.5,180.5C 104.481,153.528 124.814,126.861 145.5,100.5 Z"/></g>
<g><path style="opacity:1" fill="#019dff" d="M 160.5,100.5 C 161.833,100.5 163.167,100.5 164.5,100.5C 159.646,105.562 155.812,111.229 153,117.5C 149.463,120.171 146.296,123.171 143.5,126.5C 134.668,140.509 124.835,153.842 114,166.5C 106.69,177.957 98.5234,188.623 89.5,198.5C 88.2172,200.73 87.2172,203.063 86.5,205.5C 85.5,205.5 84.5,205.5 83.5,205.5C 84.6683,203.187 86.0017,200.854 87.5,198.5C 92.8706,192.135 98.2039,185.802 103.5,179.5C 104.236,177.459 105.069,175.459 106,173.5C 114.438,163.73 122.104,153.397 129,142.5C 130.11,140.963 131.61,140.297 133.5,140.5C 134.47,132.63 138.303,126.63 145,122.5C 149.965,115.033 155.132,107.7 160.5,100.5 Z"/></g>
<g><path style="opacity:1" fill="#01ceff" d="M 121.5,143.5 C 118.746,150.761 114.246,156.761 108,161.5C 103.379,167.746 99.5457,174.412 96.5,181.5C 95.0222,181.238 93.6888,181.571 92.5,182.5C 87.0221,190.573 81.0221,198.24 74.5,205.5C 73.5,205.5 72.5,205.5 71.5,205.5C 72.0899,204.234 72.5899,202.901 73,201.5C 84.5952,187.274 95.9285,172.941 107,158.5C 112.055,155.277 115.888,150.943 118.5,145.5C 119.518,144.807 120.518,144.141 121.5,143.5 Z"/></g>
<g><path style="opacity:1" fill="#9f00ff" d="M 224.5,100.5 C 225.833,100.5 227.167,100.5 228.5,100.5C 228.5,102.167 228.5,103.833 228.5,105.5C 221.499,114.997 213.666,123.663 205,131.5C 203.92,133.996 202.586,136.33 201,138.5C 199.989,139.337 198.822,139.67 197.5,139.5C 197.313,141.564 196.813,143.564 196,145.5C 192.984,149.515 189.317,152.848 185,155.5C 175.201,171.636 163.867,186.636 151,200.5C 150.634,202.452 149.801,204.118 148.5,205.5C 147.167,205.5 145.833,205.5 144.5,205.5C 149.999,196.811 156.166,188.478 163,180.5C 164.407,177.315 165.907,174.315 167.5,171.5C 169.484,171.617 171.15,170.95 172.5,169.5C 176.833,162.833 181.167,156.167 185.5,149.5C 190.485,143.675 195.318,137.675 200,131.5C 201.579,129.959 203.413,128.792 205.5,128C 211.546,120.076 217.713,112.243 224,104.5C 224.49,103.207 224.657,101.873 224.5,100.5 Z"/></g>
<g><path style="opacity:1" fill="#ff00bd" d="M 228.5,136.5 C 228.5,138.5 228.5,140.5 228.5,142.5C 221.136,152.827 213.636,163.16 206,173.5C 204.89,175.037 203.39,175.703 201.5,175.5C 201.657,176.873 201.49,178.207 201,179.5C 194.625,188.268 188.125,196.935 181.5,205.5C 179.833,205.5 178.167,205.5 176.5,205.5C 183.407,196.046 190.573,186.713 198,177.5C 199.663,171.822 202.996,167.489 208,164.5C 212.417,156.675 217.584,149.342 223.5,142.5C 223.785,139.25 225.452,137.25 228.5,136.5 Z"/></g>
<g><path style="opacity:1" fill="#02c0ff" d="M 151.5,100.5 C 153.5,100.5 155.5,100.5 157.5,100.5C 148.809,111.263 140.642,122.263 133,133.5C 132,134.167 131,134.833 130,135.5C 129.525,139.789 127.525,143.122 124,145.5C 123.767,147.78 122.934,149.78 121.5,151.5C 118.009,154.443 114.509,157.443 111,160.5C 110.598,161.872 110.098,163.205 109.5,164.5C 105.542,167.618 103.042,171.618 102,176.5C 95.6809,184.327 89.5143,192.327 83.5,200.5C 80.8775,201.459 78.8775,203.125 77.5,205.5C 76.5,205.5 75.5,205.5 74.5,205.5C 81.0221,198.24 87.0221,190.573 92.5,182.5C 93.6888,181.571 95.0222,181.238 96.5,181.5C 99.5457,174.412 103.379,167.746 108,161.5C 114.246,156.761 118.746,150.761 121.5,143.5C 124.618,138.385 127.284,133.052 129.5,127.5C 130.552,127.649 131.552,127.483 132.5,127C 135.754,121.981 139.588,117.481 144,113.5C 145.503,108.481 148.003,104.148 151.5,100.5 Z"/></g>
<g><path style="opacity:1" fill="#ff00d3" d="M 228.5,132.5 C 228.5,133.833 228.5,135.167 228.5,136.5C 225.452,137.25 223.785,139.25 223.5,142.5C 217.584,149.342 212.417,156.675 208,164.5C 202.996,167.489 199.663,171.822 198,177.5C 190.573,186.713 183.407,196.046 176.5,205.5C 174.833,205.5 173.167,205.5 171.5,205.5C 173.284,203.052 174.618,200.385 175.5,197.5C 176.5,197.5 177.5,197.5 178.5,197.5C 178.351,196.448 178.517,195.448 179,194.5C 189.94,183.291 199.44,170.958 207.5,157.5C 214.257,149.001 221.257,140.667 228.5,132.5 Z"/></g>
<g><path style="opacity:1" fill="#01febb" d="M 128.5,100.5 C 130.167,100.5 131.833,100.5 133.5,100.5C 129.77,104.157 126.936,108.49 125,113.5C 121.06,115.721 118.893,119.054 118.5,123.5C 117.07,123.421 115.736,123.754 114.5,124.5C 113.585,126.918 112.085,128.918 110,130.5C 109.667,131.833 109.333,133.167 109,134.5C 104.464,139.504 100.63,144.837 97.5,150.5C 96.5,150.5 95.5,150.5 94.5,150.5C 94.5086,152.308 94.0086,153.975 93,155.5C 85.6257,163.711 78.7923,172.378 72.5,181.5C 71.2643,182.357 69.931,183.023 68.5,183.5C 67.2273,186.441 65.2273,188.774 62.5,190.5C 59.1779,195.499 55.8445,200.499 52.5,205.5C 51.1667,205.5 49.8333,205.5 48.5,205.5C 61.5956,186.865 75.4289,168.531 90,150.5C 91.7933,144.372 95.46,139.705 101,136.5C 104.537,127.967 110.204,121.301 118,116.5C 120.513,110.493 124.013,105.16 128.5,100.5 Z"/></g>
<g><path style="opacity:1" fill="#01fe9e" d="M 122.5,100.5 C 124.5,100.5 126.5,100.5 128.5,100.5C 124.013,105.16 120.513,110.493 118,116.5C 110.204,121.301 104.537,127.967 101,136.5C 95.46,139.705 91.7933,144.372 90,150.5C 75.4289,168.531 61.5956,186.865 48.5,205.5C 46.1667,205.5 43.8333,205.5 41.5,205.5C 42.0819,202.416 43.9152,200.416 47,199.5C 49.5822,194.419 53.0822,190.085 57.5,186.5C 62.3313,180.174 66.6646,173.508 70.5,166.5C 75.4694,160.191 80.4694,153.858 85.5,147.5C 94.5961,137.501 103.596,127.501 112.5,117.5C 115.606,111.61 118.939,105.944 122.5,100.5 Z"/></g>
<g><path style="opacity:1" fill="#de00ff" d="M 228.5,113.5 C 228.5,115.167 228.5,116.833 228.5,118.5C 215.033,133.968 202.7,150.302 191.5,167.5C 181.39,180.378 171.057,193.045 160.5,205.5C 159.5,205.5 158.5,205.5 157.5,205.5C 157.709,204.078 158.209,202.745 159,201.5C 163.375,197.46 167.375,193.127 171,188.5C 171.483,187.552 171.649,186.552 171.5,185.5C 173.484,185.617 175.15,184.95 176.5,183.5C 178.806,177.554 181.639,171.888 185,166.5C 189.173,162.497 192.34,157.831 194.5,152.5C 197.238,149.718 200.071,147.051 203,144.5C 203.333,143.167 203.667,141.833 204,140.5C 210.38,132.242 216.88,124.076 223.5,116C 225.452,115.634 227.118,114.801 228.5,113.5 Z"/></g>
<g><path style="opacity:1" fill="#ff008a" d="M 228.5,149.5 C 228.5,151.833 228.5,154.167 228.5,156.5C 221.27,164.617 214.27,172.95 207.5,181.5C 202.579,189.758 197.246,197.758 191.5,205.5C 189.833,205.5 188.167,205.5 186.5,205.5C 186.491,203.692 186.991,202.025 188,200.5C 190.575,197.681 192.908,194.681 195,191.5C 196.067,190.809 197.234,190.309 198.5,190C 199.937,187.275 201.937,185.108 204.5,183.5C 207.654,180.005 209.988,176.005 211.5,171.5C 215.832,168.001 219.665,164.001 223,159.5C 224.086,155.654 225.919,152.32 228.5,149.5 Z"/></g>
<g><path style="opacity:1" fill="#6100ff" d="M 211.5,100.5 C 213.5,100.5 215.5,100.5 217.5,100.5C 214.885,104.954 212.052,109.287 209,113.5C 202.98,120.019 197.147,126.685 191.5,133.5C 185.754,141.089 180.587,149.089 176,157.5C 175,158.167 174,158.833 173,159.5C 162.024,172.971 151.357,186.637 141,200.5C 140.392,202.154 139.892,203.821 139.5,205.5C 136.5,205.5 133.5,205.5 130.5,205.5C 138.136,196.355 145.636,187.021 153,177.5C 155.117,174.385 156.784,171.052 158,167.5C 164.552,160.47 170.052,152.803 174.5,144.5C 176.193,143.772 177.693,142.772 179,141.5C 180.97,138.032 183.136,134.699 185.5,131.5C 187.49,130.127 189.657,129.127 192,128.5C 193.167,126.167 194.333,123.833 195.5,121.5C 201.073,114.688 206.407,107.688 211.5,100.5 Z"/></g>
<g><path style="opacity:1" fill="#f500fe" d="M 228.5,118.5 C 228.5,120.833 228.5,123.167 228.5,125.5C 207.86,152.074 187.193,178.741 166.5,205.5C 164.5,205.5 162.5,205.5 160.5,205.5C 171.057,193.045 181.39,180.378 191.5,167.5C 202.7,150.302 215.033,133.968 228.5,118.5 Z"/></g>
<g><path style="opacity:1" fill="#ff003e" d="M 228.5,171.5 C 228.5,172.833 228.5,174.167 228.5,175.5C 225.885,177.379 223.719,179.712 222,182.5C 216.942,190.051 212.109,197.717 207.5,205.5C 204.833,205.5 202.167,205.5 199.5,205.5C 205.479,199.68 210.979,193.347 216,186.5C 218.139,181.314 221.139,176.647 225,172.5C 226.011,171.663 227.178,171.33 228.5,171.5 Z"/></g>
<g><path style="opacity:1" fill="#ff0059" d="M 228.5,164.5 C 228.5,166.833 228.5,169.167 228.5,171.5C 227.178,171.33 226.011,171.663 225,172.5C 221.139,176.647 218.139,181.314 216,186.5C 210.979,193.347 205.479,199.68 199.5,205.5C 197.833,205.5 196.167,205.5 194.5,205.5C 195.159,203.862 195.826,202.195 196.5,200.5C 199.223,197.78 201.557,194.78 203.5,191.5C 211.508,182.16 219.842,173.16 228.5,164.5 Z"/></g>
<g><path style="opacity:1" fill="#ff0017" d="M 228.5,175.5 C 228.941,184.276 228.441,192.942 227,201.5C 225.786,203.049 224.286,204.215 222.5,205C 217.511,205.499 212.511,205.666 207.5,205.5C 212.109,197.717 216.942,190.051 222,182.5C 223.719,179.712 225.885,177.379 228.5,175.5 Z"/></g>
<g><path style="opacity:1" fill="#ff00a2" d="M 228.5,142.5 C 228.5,144.833 228.5,147.167 228.5,149.5C 225.919,152.32 224.086,155.654 223,159.5C 219.665,164.001 215.832,168.001 211.5,171.5C 209.988,176.005 207.654,180.005 204.5,183.5C 201.937,185.108 199.937,187.275 198.5,190C 197.234,190.309 196.067,190.809 195,191.5C 192.908,194.681 190.575,197.681 188,200.5C 186.991,202.025 186.491,203.692 186.5,205.5C 184.833,205.5 183.167,205.5 181.5,205.5C 188.125,196.935 194.625,188.268 201,179.5C 201.49,178.207 201.657,176.873 201.5,175.5C 203.39,175.703 204.89,175.037 206,173.5C 213.636,163.16 221.136,152.827 228.5,142.5 Z"/></g>
<g><path style="opacity:1" fill="#ff0075" d="M 228.5,156.5 C 228.5,159.167 228.5,161.833 228.5,164.5C 219.842,173.16 211.508,182.16 203.5,191.5C 201.557,194.78 199.223,197.78 196.5,200.5C 195.826,202.195 195.159,203.862 194.5,205.5C 193.5,205.5 192.5,205.5 191.5,205.5C 197.246,197.758 202.579,189.758 207.5,181.5C 214.27,172.95 221.27,164.617 228.5,156.5 Z"/></g>
</svg>
