<?xml version="1.0" encoding="UTF-8"?>
<!DOCTYPE svg PUBLIC "-//W3C//DTD SVG 1.1//EN" "http://www.w3.org/Graphics/SVG/1.1/DTD/svg11.dtd">
<svg xmlns="http://www.w3.org/2000/svg" version="1.1" width="256px" height="256px" style="shape-rendering:geometricPrecision; text-rendering:geometricPrecision; image-rendering:optimizeQuality; fill-rule:evenodd; clip-rule:evenodd" xmlns:xlink="http://www.w3.org/1999/xlink">
<g><path style="opacity:0.996" fill="#fd00fb" d="M 111.5,0.5 C 89.7965,20.2056 67.7965,39.5389 45.5,58.5C 41.6941,57.1868 42.0275,56.0202 46.5,55C 55.1897,47.309 63.5231,39.309 71.5,31C 72.8333,30.6667 74.1667,30.3333 75.5,30C 81.0302,24.7525 86.6969,19.7525 92.5,15C 96.3793,10.626 100.046,6.12599 103.5,1.5C 106.054,0.611966 108.721,0.278632 111.5,0.5 Z"/></g>
<g><path style="opacity:1" fill="#f100fe" d="M 111.5,-0.5 C 112.5,-0.5 113.5,-0.5 114.5,-0.5C 108.394,5.77758 102.394,12.2776 96.5,19C 81.0123,31.7229 66.0123,44.8896 51.5,58.5C 49.5,58.5 47.5,58.5 45.5,58.5C 67.7965,39.5389 89.7965,20.2056 111.5,0.5C 111.5,0.166667 111.5,-0.166667 111.5,-0.5 Z"/></g>
<g><path style="opacity:1" fill="#ff00d3" d="M 95.5,3.5 C 94.0939,6.41351 92.0939,8.91351 89.5,11C 86.5372,12.9606 83.8706,15.294 81.5,18C 80.1667,18.3333 78.8333,18.6667 77.5,19C 68.4768,27.0244 59.8101,35.3577 51.5,44C 44.8793,47.9642 38.8793,52.6309 33.5,58C 31.5273,58.4955 29.5273,58.6621 27.5,58.5C 35.5616,51.4566 43.2283,43.9566 50.5,36C 55.3552,34.4804 59.0219,31.4804 61.5,27C 62.5,26.6667 63.5,26.3333 64.5,26C 69.1667,22 73.8333,18 78.5,14C 81.0939,11.9135 83.0939,9.41351 84.5,6.5C 87.9265,4.7261 91.5931,3.7261 95.5,3.5 Z"/></g>
<g><path style="opacity:1" fill="#fe04bd" d="M 84.5,6.5 C 83.0939,9.41351 81.0939,11.9135 78.5,14C 73.8333,18 69.1667,22 64.5,26C 63.5,26.3333 62.5,26.6667 61.5,27C 59.0219,31.4804 55.3552,34.4804 50.5,36C 43.2283,43.9566 35.5616,51.4566 27.5,58.5C 25.901,58.2322 24.5676,58.5655 23.5,59.5C 23.5,61.1667 23.5,62.8333 23.5,64.5C 22.8333,64.8333 22.1667,65.1667 21.5,65.5C 19.5,65.5 17.5,65.5 15.5,65.5C 15.7497,63.326 16.7497,61.6594 18.5,60.5C 38.1029,44.5301 57.1029,27.8634 75.5,10.5C 78.0884,8.40821 81.0884,7.07488 84.5,6.5 Z"/></g>
<g><path style="opacity:1" fill="#ff00ac" d="M 75.5,10.5 C 57.1029,27.8634 38.1029,44.5301 18.5,60.5C 20.1775,55.8033 22.8442,51.8033 26.5,48.5C 33.9638,41.6056 41.9638,35.4389 50.5,30C 53.464,26.0342 56.7974,22.3675 60.5,19C 60.2716,18.6012 59.9382,18.4346 59.5,18.5C 64.2363,14.7985 69.5696,12.1318 75.5,10.5 Z"/></g>
<g><path style="opacity:1" fill="#f91bed" d="M 103.5,1.5 C 100.046,6.12599 96.3793,10.626 92.5,15C 86.6969,19.7525 81.0302,24.7525 75.5,30C 74.1667,30.3333 72.8333,30.6667 71.5,31C 63.5231,39.309 55.1897,47.309 46.5,55C 42.0275,56.0202 41.6941,57.1868 45.5,58.5C 47.5,58.5 49.5,58.5 51.5,58.5C 54.5,58.5 57.5,58.5 60.5,58.5C 63.8333,58.5 67.1667,58.5 70.5,58.5C 72.5,58.5 74.5,58.5 76.5,58.5C 78.1667,58.5 79.8333,58.5 81.5,58.5C 81.5,58.8333 81.5,59.1667 81.5,59.5C 62.1667,59.5 42.8333,59.5 23.5,59.5C 24.5676,58.5655 25.901,58.2322 27.5,58.5C 29.5273,58.6621 31.5273,58.4955 33.5,58C 38.8793,52.6309 44.8793,47.9642 51.5,44C 59.8101,35.3577 68.4768,27.0244 77.5,19C 78.8333,18.6667 80.1667,18.3333 81.5,18C 83.8706,15.294 86.5372,12.9606 89.5,11C 92.0939,8.91351 94.0939,6.41351 95.5,3.5C 97.9608,2.46899 100.627,1.80233 103.5,1.5 Z"/></g>
<g><path style="opacity:1" fill="#0045fe" d="M 188.5,14.5 C 190.537,15.8465 192.537,17.1798 194.5,18.5C 190.809,19.3535 188.142,21.5201 186.5,25C 185.5,25.3333 184.5,25.6667 183.5,26C 175.914,33.5451 167.914,40.5451 159.5,47C 158.177,47.8159 157.511,48.9826 157.5,50.5C 155.5,50.8333 153.5,51.1667 151.5,51.5C 154.559,46.4414 158.559,42.4414 163.5,39.5C 165.192,35.9402 167.858,33.4402 171.5,32C 176.671,25.663 182.337,19.8296 188.5,14.5 Z"/></g>
<g><path style="opacity:1" fill="#1305fe" d="M 166.5,5.5 C 172.681,6.88537 178.348,9.2187 183.5,12.5C 168.458,25.8807 153.458,39.2141 138.5,52.5C 135.904,53.2653 133.237,53.5987 130.5,53.5C 126.486,53.6655 122.486,53.4988 118.5,53C 119.833,51.6667 121.167,50.3333 122.5,49C 119.765,49.6782 117.432,51.3449 115.5,54C 114.167,54.6667 112.833,54.6667 111.5,54C 130.281,38.2865 148.614,22.1198 166.5,5.5 Z"/></g>
<g><path style="opacity:1" fill="#0339fe" d="M 187.5,14.5 C 187.833,14.5 188.167,14.5 188.5,14.5C 182.337,19.8296 176.671,25.663 171.5,32C 167.858,33.4402 165.192,35.9402 163.5,39.5C 158.559,42.4414 154.559,46.4414 151.5,51.5C 150.209,51.2627 149.209,51.596 148.5,52.5C 146.5,52.5 144.5,52.5 142.5,52.5C 158.039,40.6409 173.039,27.9743 187.5,14.5 Z"/></g>
<g><path style="opacity:1" fill="#0176fe" d="M 198.5,21.5 C 200.027,21.427 201.027,22.0937 201.5,23.5C 192.925,30.7347 184.592,38.4013 176.5,46.5C 173.671,48.9784 170.338,49.9784 166.5,49.5C 172.609,42.5593 179.276,36.0593 186.5,30C 190.09,26.5743 194.09,23.741 198.5,21.5 Z"/></g>
<g><path style="opacity:1" fill="#0028fe" d="M 183.5,12.5 C 185.153,12.6596 186.486,13.3263 187.5,14.5C 173.039,27.9743 158.039,40.6409 142.5,52.5C 141.167,52.5 139.833,52.5 138.5,52.5C 153.458,39.2141 168.458,25.8807 183.5,12.5 Z"/></g>
<g><path style="opacity:1" fill="#6f01fe" d="M 148.5,1.5 C 150.621,1.32526 152.621,1.65859 154.5,2.5C 135.109,21.0345 114.776,38.8678 93.5,56C 95.4727,56.4955 97.4727,56.6621 99.5,56.5C 97.7354,57.4614 95.7354,57.7947 93.5,57.5C 90.8127,57.6641 88.146,57.4974 85.5,57C 86.5,56.6667 87.5,56.3333 88.5,56C 94.8141,47.6917 102.481,41.025 111.5,36C 114.833,32.3333 118.167,28.6667 121.5,25C 130.661,17.3382 139.661,9.50487 148.5,1.5 Z"/></g>
<g><path style="opacity:1" fill="#0a9cfd" d="M 202.5,23.5 C 205.06,25.2733 207.393,27.2733 209.5,29.5C 202.363,34.4743 195.696,39.9743 189.5,46C 187.685,46.7568 186.019,47.5902 184.5,48.5C 180.575,48.4299 176.909,49.0966 173.5,50.5C 171.167,50.5 168.833,50.5 166.5,50.5C 166.5,50.1667 166.5,49.8333 166.5,49.5C 170.338,49.9784 173.671,48.9784 176.5,46.5C 179.705,45.8989 182.705,44.7323 185.5,43C 191.667,38.1667 197.167,32.6667 202,26.5C 202.483,25.552 202.649,24.552 202.5,23.5 Z"/></g>
<g><path style="opacity:1" fill="#4c05fe" d="M 154.5,2.5 C 158.6,3.19164 162.6,4.19164 166.5,5.5C 148.614,22.1198 130.281,38.2865 111.5,54C 112.833,54.6667 114.167,54.6667 115.5,54C 117.432,51.3449 119.765,49.6782 122.5,49C 121.167,50.3333 119.833,51.6667 118.5,53C 122.486,53.4988 126.486,53.6655 130.5,53.5C 122.393,55.2085 114.06,56.2085 105.5,56.5C 103.5,56.5 101.5,56.5 99.5,56.5C 97.4727,56.6621 95.4727,56.4955 93.5,56C 114.776,38.8678 135.109,21.0345 154.5,2.5 Z"/></g>
<g><path style="opacity:1" fill="#008cff" d="M 201.5,23.5 C 201.833,23.5 202.167,23.5 202.5,23.5C 202.649,24.552 202.483,25.552 202,26.5C 197.167,32.6667 191.667,38.1667 185.5,43C 182.705,44.7323 179.705,45.8989 176.5,46.5C 184.592,38.4013 192.925,30.7347 201.5,23.5 Z"/></g>
<g><path style="opacity:0.979" fill="#0acafd" d="M 210.5,30.5 C 211.833,31.5 213.167,32.5 214.5,33.5C 210.483,40.3196 204.817,44.9863 197.5,47.5C 194.455,47.5079 191.455,47.8413 188.5,48.5C 190.476,46.9891 192.809,46.1558 195.5,46C 201.375,41.6256 206.375,36.4589 210.5,30.5 Z"/></g>
<g><path style="opacity:0.796" fill="#ff009d" d="M 59.5,18.5 C 59.9382,18.4346 60.2716,18.6012 60.5,19C 56.7974,22.3675 53.464,26.0342 50.5,30C 41.9638,35.4389 33.9638,41.6056 26.5,48.5C 30.2651,43.5594 34.2651,38.726 38.5,34C 45.0963,28.23 52.0963,23.0633 59.5,18.5 Z"/></g>
<g><path style="opacity:1" fill="#03b8fe" d="M 209.5,29.5 C 210.167,29.5 210.5,29.8333 210.5,30.5C 206.375,36.4589 201.375,41.6256 195.5,46C 192.809,46.1558 190.476,46.9891 188.5,48.5C 187.167,48.5 185.833,48.5 184.5,48.5C 186.019,47.5902 187.685,46.7568 189.5,46C 195.696,39.9743 202.363,34.4743 209.5,29.5 Z"/></g>
<g><path style="opacity:1" fill="#c200fe" d="M 125.5,-0.5 C 127.833,-0.5 130.167,-0.5 132.5,-0.5C 130.297,2.86246 127.297,5.36246 123.5,7C 116.303,13.6959 109.637,20.8625 103.5,28.5C 95.0524,35.1066 86.719,41.9399 78.5,49C 75.2463,51.7468 72.5797,54.9135 70.5,58.5C 67.1667,58.5 63.8333,58.5 60.5,58.5C 63.9559,53.5425 67.9559,49.0425 72.5,45C 81.0579,39.7799 88.3913,33.1132 94.5,25C 99.324,23.5179 102.991,20.5179 105.5,16C 106.5,15.6667 107.5,15.3333 108.5,15C 114.336,9.99583 120.003,4.82916 125.5,-0.5 Z"/></g>
<g><path style="opacity:1" fill="#005afe" d="M 194.5,18.5 C 195.71,18.9321 196.71,19.5987 197.5,20.5C 196.078,20.7086 194.745,21.2086 193.5,22C 182.499,31.8581 171.499,41.3581 160.5,50.5C 159.5,50.5 158.5,50.5 157.5,50.5C 157.511,48.9826 158.177,47.8159 159.5,47C 167.914,40.5451 175.914,33.5451 183.5,26C 184.5,25.6667 185.5,25.3333 186.5,25C 188.142,21.5201 190.809,19.3535 194.5,18.5 Z"/></g>
<g><path style="opacity:1" fill="#0fdffc" d="M 214.5,33.5 C 215.833,34.1667 216.833,35.1667 217.5,36.5C 216.928,38.2554 216.094,39.9221 215,41.5C 212.537,42.0322 210.703,43.3655 209.5,45.5C 205.538,46.3755 201.538,47.0422 197.5,47.5C 204.817,44.9863 210.483,40.3196 214.5,33.5 Z"/></g>
<g><path style="opacity:1" fill="#db00fe" d="M 114.5,-0.5 C 118.167,-0.5 121.833,-0.5 125.5,-0.5C 120.003,4.82916 114.336,9.99583 108.5,15C 107.5,15.3333 106.5,15.6667 105.5,16C 102.991,20.5179 99.324,23.5179 94.5,25C 88.3913,33.1132 81.0579,39.7799 72.5,45C 67.9559,49.0425 63.9559,53.5425 60.5,58.5C 57.5,58.5 54.5,58.5 51.5,58.5C 66.0123,44.8896 81.0123,31.7229 96.5,19C 102.394,12.2776 108.394,5.77758 114.5,-0.5 Z"/></g>
<g><path style="opacity:1" fill="#8800fe" d="M 137.5,-0.5 C 139.167,-0.5 140.833,-0.5 142.5,-0.5C 144.5,0.166667 146.5,0.833333 148.5,1.5C 139.661,9.50487 130.661,17.3382 121.5,25C 118.167,28.6667 114.833,32.3333 111.5,36C 102.481,41.025 94.8141,47.6917 88.5,56C 87.5,56.3333 86.5,56.6667 85.5,57C 88.146,57.4974 90.8127,57.6641 93.5,57.5C 93.5,57.8333 93.5,58.1667 93.5,58.5C 89.5,58.5 85.5,58.5 81.5,58.5C 79.8333,58.5 78.1667,58.5 76.5,58.5C 79.137,54.752 82.137,51.252 85.5,48C 86.8333,47.6667 88.1667,47.3333 89.5,47C 94.8739,42.3235 100.207,37.6568 105.5,33C 116.7,22.3006 127.367,11.1339 137.5,-0.5 Z"/></g>
<g><path style="opacity:1" fill="#a300fe" d="M 132.5,-0.5 C 134.167,-0.5 135.833,-0.5 137.5,-0.5C 127.367,11.1339 116.7,22.3006 105.5,33C 100.207,37.6568 94.8739,42.3235 89.5,47C 88.1667,47.3333 86.8333,47.6667 85.5,48C 82.137,51.252 79.137,54.752 76.5,58.5C 74.5,58.5 72.5,58.5 70.5,58.5C 72.5797,54.9135 75.2463,51.7468 78.5,49C 86.719,41.9399 95.0524,35.1066 103.5,28.5C 109.637,20.8625 116.303,13.6959 123.5,7C 127.297,5.36246 130.297,2.86246 132.5,-0.5 Z"/></g>
<g><path style="opacity:1" fill="#0369fe" d="M 197.5,20.5 C 198.167,20.5 198.5,20.8333 198.5,21.5C 194.09,23.741 190.09,26.5743 186.5,30C 179.276,36.0593 172.609,42.5593 166.5,49.5C 166.5,49.8333 166.5,50.1667 166.5,50.5C 164.5,50.5 162.5,50.5 160.5,50.5C 171.499,41.3581 182.499,31.8581 193.5,22C 194.745,21.2086 196.078,20.7086 197.5,20.5 Z"/></g>
<g><path style="opacity:1" fill="#43f3e8" d="M 217.5,36.5 C 219.823,39.1261 222.157,41.7928 224.5,44.5C 219.824,45.6065 215.324,47.2732 211,49.5C 210.235,49.4301 209.735,49.0967 209.5,48.5C 210.376,48.6309 211.043,48.2975 211.5,47.5C 210.757,46.8182 210.091,46.1515 209.5,45.5C 210.703,43.3655 212.537,42.0322 215,41.5C 216.094,39.9221 216.928,38.2554 217.5,36.5 Z"/></g>
<g><path style="opacity:1" fill="#6de9cc" d="M 224.5,44.5 C 225.167,44.5 225.5,44.8333 225.5,45.5C 222.896,47.6 220.396,49.9334 218,52.5C 217.53,53.5768 217.697,54.5768 218.5,55.5C 212.509,55.9657 206.509,56.299 200.5,56.5C 204.094,54.5307 207.094,51.8641 209.5,48.5C 209.735,49.0967 210.235,49.4301 211,49.5C 215.324,47.2732 219.824,45.6065 224.5,44.5 Z"/></g>
<g><path style="opacity:1" fill="#6eddd6" d="M 209.5,45.5 C 210.091,46.1515 210.757,46.8182 211.5,47.5C 211.043,48.2975 210.376,48.6309 209.5,48.5C 207.094,51.8641 204.094,54.5307 200.5,56.5C 196.5,56.8333 192.5,57.1667 188.5,57.5C 189.975,52.638 192.975,49.3047 197.5,47.5C 201.538,47.0422 205.538,46.3755 209.5,45.5 Z"/></g>
<g><path style="opacity:1" fill="#4c89e3" d="M 157.5,50.5 C 158.5,50.5 159.5,50.5 160.5,50.5C 156.971,52.4228 152.971,53.0894 148.5,52.5C 149.209,51.596 150.209,51.2627 151.5,51.5C 153.5,51.1667 155.5,50.8333 157.5,50.5 Z"/></g>
<g><path style="opacity:1" fill="#70c0d6" d="M 184.5,48.5 C 185.833,48.5 187.167,48.5 188.5,48.5C 184.365,51.2959 181.365,54.9626 179.5,59.5C 175.19,58.9198 170.857,58.5865 166.5,58.5C 168.833,55.8333 171.167,53.1667 173.5,50.5C 176.909,49.0966 180.575,48.4299 184.5,48.5 Z"/></g>
<g><path style="opacity:1" fill="#77ebbd" d="M 225.5,45.5 C 226.974,46.4363 227.974,47.7697 228.5,49.5C 228.253,52.9387 228.586,56.272 229.5,59.5C 226.167,59.5 222.833,59.5 219.5,59.5C 219.768,57.901 219.434,56.5676 218.5,55.5C 217.697,54.5768 217.53,53.5768 218,52.5C 220.396,49.9334 222.896,47.6 225.5,45.5 Z"/></g>
<g><path style="opacity:1" fill="#6fced7" d="M 197.5,47.5 C 192.975,49.3047 189.975,52.638 188.5,57.5C 197.749,58.499 207.749,58.8323 218.5,58.5C 218.5,57.5 218.5,56.5 218.5,55.5C 219.434,56.5676 219.768,57.901 219.5,59.5C 206.167,59.5 192.833,59.5 179.5,59.5C 181.365,54.9626 184.365,51.2959 188.5,48.5C 191.455,47.8413 194.455,47.5079 197.5,47.5 Z"/></g>
<g><path style="opacity:1" fill="#0dbecc" d="M 218.5,55.5 C 218.5,56.5 218.5,57.5 218.5,58.5C 207.749,58.8323 197.749,58.499 188.5,57.5C 192.5,57.1667 196.5,56.8333 200.5,56.5C 206.509,56.299 212.509,55.9657 218.5,55.5 Z"/></g>
<g><path style="opacity:0.846" fill="#22fca4" d="M 228.5,49.5 C 231.313,52.4459 233.646,55.7792 235.5,59.5C 233.5,59.5 231.5,59.5 229.5,59.5C 228.586,56.272 228.253,52.9387 228.5,49.5 Z"/></g>
<g><path style="opacity:1" fill="#6c79de" d="M 99.5,56.5 C 101.5,56.5 103.5,56.5 105.5,56.5C 105.167,57.1667 104.833,57.8333 104.5,58.5C 100.833,58.5 97.1667,58.5 93.5,58.5C 93.5,58.1667 93.5,57.8333 93.5,57.5C 95.7354,57.7947 97.7354,57.4614 99.5,56.5 Z"/></g>
<g><path style="opacity:1" fill="#6f96d9" d="M 138.5,52.5 C 139.833,52.5 141.167,52.5 142.5,52.5C 144.5,52.5 146.5,52.5 148.5,52.5C 145.602,53.7234 143.269,55.7234 141.5,58.5C 140.127,58.6567 138.793,58.49 137.5,58C 141.613,55.6669 141.113,54.5002 136,54.5C 133.105,54.4434 130.938,55.61 129.5,58C 121.173,58.4997 112.84,58.6664 104.5,58.5C 104.833,57.8333 105.167,57.1667 105.5,56.5C 114.06,56.2085 122.393,55.2085 130.5,53.5C 133.237,53.5987 135.904,53.2653 138.5,52.5 Z"/></g>
<g><path style="opacity:1" fill="#72a9d7" d="M 160.5,50.5 C 162.5,50.5 164.5,50.5 166.5,50.5C 168.833,50.5 171.167,50.5 173.5,50.5C 171.167,53.1667 168.833,55.8333 166.5,58.5C 162.167,58.5 157.833,58.5 153.5,58.5C 149.5,58.5 145.5,58.5 141.5,58.5C 143.269,55.7234 145.602,53.7234 148.5,52.5C 152.971,53.0894 156.971,52.4228 160.5,50.5 Z"/></g>
<g><path style="opacity:1" fill="#98b3dc" d="M 141.5,58.5 C 145.5,58.5 149.5,58.5 153.5,58.5C 153.5,58.8333 153.5,59.1667 153.5,59.5C 129.5,59.5 105.5,59.5 81.5,59.5C 81.5,59.1667 81.5,58.8333 81.5,58.5C 85.5,58.5 89.5,58.5 93.5,58.5C 97.1667,58.5 100.833,58.5 104.5,58.5C 112.84,58.6664 121.173,58.4997 129.5,58C 130.938,55.61 133.105,54.4434 136,54.5C 141.113,54.5002 141.613,55.6669 137.5,58C 138.793,58.49 140.127,58.6567 141.5,58.5 Z"/></g>
<g><path style="opacity:1" fill="#d7b7e4" d="M 23.5,59.5 C 42.8333,59.5 62.1667,59.5 81.5,59.5C 62.674,60.497 43.674,60.8303 24.5,60.5C 24.7678,62.099 24.4345,63.4324 23.5,64.5C 23.5,62.8333 23.5,61.1667 23.5,59.5 Z"/></g>
<g><path style="opacity:1" fill="#b0dce0" d="M 153.5,59.5 C 153.5,59.1667 153.5,58.8333 153.5,58.5C 157.833,58.5 162.167,58.5 166.5,58.5C 170.857,58.5865 175.19,58.9198 179.5,59.5C 192.833,59.5 206.167,59.5 219.5,59.5C 222.833,59.5 226.167,59.5 229.5,59.5C 231.5,59.5 233.5,59.5 235.5,59.5C 236.167,59.5 236.5,59.8333 236.5,60.5C 208.826,60.6216 181.159,60.2882 153.5,59.5 Z"/></g>
<g><path style="opacity:1" fill="#d286c3" d="M 15.5,65.5 C 17.5,65.5 19.5,65.5 21.5,65.5C 19.8729,67.6298 18.0396,69.6298 16,71.5C 15.5172,72.448 15.3505,73.448 15.5,74.5C 14.5269,72.0521 14.1936,69.3854 14.5,66.5C 14.5,65.8333 14.8333,65.5 15.5,65.5 Z"/></g>
<g><path style="opacity:1" fill="#c4a1cc" d="M 23.5,64.5 C 23.5,65.1667 23.5,65.8333 23.5,66.5C 22.5166,70.2984 22.1832,74.2984 22.5,78.5C 22.1667,78.5 21.8333,78.5 21.5,78.5C 21.6309,77.6236 21.2975,76.9569 20.5,76.5C 19.1861,77.3128 18.0195,78.3128 17,79.5C 16.8019,77.6183 16.3019,75.9516 15.5,74.5C 15.3505,73.448 15.5172,72.448 16,71.5C 18.0396,69.6298 19.8729,67.6298 21.5,65.5C 22.1667,65.1667 22.8333,64.8333 23.5,64.5 Z"/></g>
<g><path style="opacity:0.968" fill="#fc13e0" d="M 14.5,66.5 C 14.1936,69.3854 14.5269,72.0521 15.5,74.5C 15.5,76.5 15.5,78.5 15.5,80.5C 14.7784,80.0825 14.2784,79.4158 14,78.5C 11.9821,82.0471 9.48207,84.3805 6.5,85.5C 8.37273,78.7636 11.0394,72.4303 14.5,66.5 Z"/></g>
<g><path style="opacity:1" fill="#b996d6" d="M 15.5,74.5 C 16.3019,75.9516 16.8019,77.6183 17,79.5C 18.0195,78.3128 19.1861,77.3128 20.5,76.5C 21.2975,76.9569 21.6309,77.6236 21.5,78.5C 21.6657,82.8461 21.499,87.1794 21,91.5C 19.9609,92.7101 18.7942,93.7101 17.5,94.5C 17.6716,93.5084 17.3382,92.8417 16.5,92.5C 16.8168,88.2984 16.4834,84.2984 15.5,80.5C 15.5,78.5 15.5,76.5 15.5,74.5 Z"/></g>
<g><path style="opacity:1" fill="#dee3e6" d="M 81.5,59.5 C 105.5,59.5 129.5,59.5 153.5,59.5C 181.159,60.2882 208.826,60.6216 236.5,60.5C 236.5,60.8333 236.5,61.1667 236.5,61.5C 236.496,102.837 236.829,144.17 237.5,185.5C 237.5,187.167 237.5,188.833 237.5,190.5C 235.913,194.683 233.579,198.35 230.5,201.5C 219.167,201.5 207.833,201.5 196.5,201.5C 190.167,201.5 183.833,201.5 177.5,201.5C 163.167,201.5 148.833,201.5 134.5,201.5C 115.167,201.5 95.8333,201.5 76.5,201.5C 60.1667,201.5 43.8333,201.5 27.5,201.5C 26.1667,201.5 24.8333,201.5 23.5,201.5C 23.5,195.833 23.5,190.167 23.5,184.5C 23.5,172.167 23.5,159.833 23.5,147.5C 23.5,120.5 23.5,93.5 23.5,66.5C 23.5,65.8333 23.5,65.1667 23.5,64.5C 24.4345,63.4324 24.7678,62.099 24.5,60.5C 43.674,60.8303 62.674,60.497 81.5,59.5 Z"/></g>
<g><path style="opacity:1" fill="#08c4d7" d="M 228.5,147.5 C 202.5,147.5 176.5,147.5 150.5,147.5C 140.309,133.645 129.976,119.812 119.5,106C 117.255,106.195 115.422,107.362 114,109.5C 108.732,117.051 103.232,124.384 97.5,131.5C 86.8333,117.833 76.1667,104.167 65.5,90.5C 55.3813,102.279 46.0479,114.613 37.5,127.5C 35.4727,128.861 33.806,130.527 32.5,132.5C 32.5,111.5 32.5,90.5 32.5,69.5C 97.8333,69.5 163.167,69.5 228.5,69.5C 228.5,95.5 228.5,121.5 228.5,147.5 Z"/></g>
<g><path style="opacity:1" fill="#fa13f5" d="M 15.5,80.5 C 16.4834,84.2984 16.8168,88.2984 16.5,92.5C 16.1667,92.5 15.8333,92.5 15.5,92.5C 15.8515,89.9272 15.3515,87.5938 14,85.5C 10.9219,89.0845 7.42194,92.0845 3.5,94.5C 3.92809,91.2154 4.92809,88.2154 6.5,85.5C 9.48207,84.3805 11.9821,82.0471 14,78.5C 14.2784,79.4158 14.7784,80.0825 15.5,80.5 Z"/></g>
<g><path style="opacity:0.953" fill="#e600fe" d="M 15.5,92.5 C 15.631,93.2389 15.4643,93.9056 15,94.5C 9.99769,98.6703 5.16435,103.004 0.5,107.5C 1.12181,103.054 2.12181,98.7205 3.5,94.5C 7.42194,92.0845 10.9219,89.0845 14,85.5C 15.3515,87.5938 15.8515,89.9272 15.5,92.5 Z"/></g>
<g><path style="opacity:1" fill="#1efe11" d="M 238.5,64.5 C 245.119,76.0128 249.785,88.3461 252.5,101.5C 247.83,104.505 243.164,107.505 238.5,110.5C 238.5,95.1667 238.5,79.8333 238.5,64.5 Z"/></g>
<g><path style="opacity:1" fill="#474f59" d="M 150.5,147.5 C 175.661,148.498 200.995,148.831 226.5,148.5C 226.5,162.5 226.5,176.5 226.5,190.5C 162.5,190.5 98.5,190.5 34.5,190.5C 34.3334,170.831 34.5,151.164 35,131.5C 36.4813,130.529 37.3146,129.196 37.5,127.5C 46.0479,114.613 55.3813,102.279 65.5,90.5C 76.1667,104.167 86.8333,117.833 97.5,131.5C 103.232,124.384 108.732,117.051 114,109.5C 115.422,107.362 117.255,106.195 119.5,106C 129.976,119.812 140.309,133.645 150.5,147.5 Z"/></g>
<g><path style="opacity:1" fill="#a7a6d7" d="M 21.5,78.5 C 21.8333,78.5 22.1667,78.5 22.5,78.5C 22.5,89.8333 22.5,101.167 22.5,112.5C 21.6762,108.688 21.1762,104.688 21,100.5C 19.2669,102.958 18.1002,102.625 17.5,99.5C 17.5,97.8333 17.5,96.1667 17.5,94.5C 18.7942,93.7101 19.9609,92.7101 21,91.5C 21.499,87.1794 21.6657,82.8461 21.5,78.5 Z"/></g>
<g><path style="opacity:1" fill="#eed880" d="M 194.5,114.5 C 190.435,116.278 186.101,116.945 181.5,116.5C 172.268,111.694 169.434,104.361 173,94.5C 177.916,87.8647 184.416,85.698 192.5,88C 203.704,96.1172 204.371,104.95 194.5,114.5 Z"/></g>
<g><path style="opacity:1" fill="#bd03fe" d="M 15.5,92.5 C 15.8333,92.5 16.1667,92.5 16.5,92.5C 17.3382,92.8417 17.6716,93.5084 17.5,94.5C 17.5,96.1667 17.5,97.8333 17.5,99.5C 17.5,101.167 17.5,102.833 17.5,104.5C 16.8826,104.389 16.3826,104.056 16,103.5C 9.96982,108.365 4.46982,113.698 -0.5,119.5C -0.5,116.833 -0.5,114.167 -0.5,111.5C 0.434475,110.432 0.767809,109.099 0.5,107.5C 5.16435,103.004 9.99769,98.6703 15,94.5C 15.4643,93.9056 15.631,93.2389 15.5,92.5 Z"/></g>
<g><path style="opacity:1" fill="#66fe00" d="M 252.5,101.5 C 252.833,104.167 253.167,106.833 253.5,109.5C 250.732,112.771 247.732,115.938 244.5,119C 242.783,120.559 240.783,121.392 238.5,121.5C 238.5,117.833 238.5,114.167 238.5,110.5C 243.164,107.505 247.83,104.505 252.5,101.5 Z"/></g>
<g><path style="opacity:1" fill="#9503fe" d="M 17.5,104.5 C 18.4584,109.658 19.1251,114.991 19.5,120.5C 18.678,118.611 17.8447,116.611 17,114.5C 11.2529,119.758 5.41958,124.758 -0.5,129.5C -0.5,126.167 -0.5,122.833 -0.5,119.5C 4.46982,113.698 9.96982,108.365 16,103.5C 16.3826,104.056 16.8826,104.389 17.5,104.5 Z"/></g>
<g><path style="opacity:1" fill="#9093da" d="M 17.5,99.5 C 18.1002,102.625 19.2669,102.958 21,100.5C 21.1762,104.688 21.6762,108.688 22.5,112.5C 20.9133,115.919 20.2467,119.585 20.5,123.5C 19.596,122.791 19.2627,121.791 19.5,120.5C 19.1251,114.991 18.4584,109.658 17.5,104.5C 17.5,102.833 17.5,101.167 17.5,99.5 Z"/></g>
<g><path style="opacity:1" fill="#6fcbb6" d="M 194.5,114.5 C 194.196,115.15 193.863,115.817 193.5,116.5C 189.351,117.809 185.351,117.809 181.5,116.5C 186.101,116.945 190.435,116.278 194.5,114.5 Z"/></g>
<g><path style="opacity:1" fill="#b1bcdf" d="M 23.5,66.5 C 23.5,93.5 23.5,120.5 23.5,147.5C 23.1667,147.5 22.8333,147.5 22.5,147.5C 22.8168,143.298 22.4834,139.298 21.5,135.5C 21.1667,135.5 20.8333,135.5 20.5,135.5C 20.5,131.5 20.5,127.5 20.5,123.5C 20.2467,119.585 20.9133,115.919 22.5,112.5C 22.5,101.167 22.5,89.8333 22.5,78.5C 22.1832,74.2984 22.5166,70.2984 23.5,66.5 Z"/></g>
<g><path style="opacity:1" fill="#88fe01" d="M 253.5,109.5 C 254.299,112.43 254.632,115.43 254.5,118.5C 248.866,122.467 243.866,127.134 239.5,132.5C 238.511,128.893 238.177,125.226 238.5,121.5C 240.783,121.392 242.783,120.559 244.5,119C 247.732,115.938 250.732,112.771 253.5,109.5 Z"/></g>
<g><path style="opacity:1" fill="#cde8c2" d="M 236.5,61.5 C 237.338,61.8417 237.672,62.5084 237.5,63.5C 237.184,90.2111 237.518,116.878 238.5,143.5C 238.5,146.5 238.5,149.5 238.5,152.5C 238.5,163.5 238.5,174.5 238.5,185.5C 238.167,185.5 237.833,185.5 237.5,185.5C 236.829,144.17 236.496,102.837 236.5,61.5 Z"/></g>
<g><path style="opacity:1" fill="#abfc34" d="M 237.5,63.5 C 238.167,63.5 238.5,63.8333 238.5,64.5C 238.5,79.8333 238.5,95.1667 238.5,110.5C 238.5,114.167 238.5,117.833 238.5,121.5C 238.177,125.226 238.511,128.893 239.5,132.5C 243.866,127.134 248.866,122.467 254.5,118.5C 254.5,121.833 254.5,125.167 254.5,128.5C 249.789,134.212 244.456,139.212 238.5,143.5C 237.518,116.878 237.184,90.2111 237.5,63.5 Z"/></g>
<g><path style="opacity:1" fill="#5b00fe" d="M 19.5,120.5 C 19.2627,121.791 19.596,122.791 20.5,123.5C 20.5,127.5 20.5,131.5 20.5,135.5C 19.5655,134.432 19.2322,133.099 19.5,131.5C 18.325,131.281 17.325,131.614 16.5,132.5C 12.9478,136.887 8.9478,140.721 4.5,144C 3.0993,144.41 1.76597,144.91 0.5,145.5C 0.737305,144.209 0.403972,143.209 -0.5,142.5C -0.5,138.167 -0.5,133.833 -0.5,129.5C 5.41958,124.758 11.2529,119.758 17,114.5C 17.8447,116.611 18.678,118.611 19.5,120.5 Z"/></g>
<g><path style="opacity:1" fill="#2105fe" d="M 20.5,135.5 C 20.8333,135.5 21.1667,135.5 21.5,135.5C 21.5,141.833 21.5,148.167 21.5,154.5C 15.8783,158.454 10.8783,163.12 6.5,168.5C 3.42924,161.222 1.42924,153.555 0.5,145.5C 1.76597,144.91 3.0993,144.41 4.5,144C 8.9478,140.721 12.9478,136.887 16.5,132.5C 17.325,131.614 18.325,131.281 19.5,131.5C 19.2322,133.099 19.5655,134.432 20.5,135.5 Z"/></g>
<g><path style="opacity:1" fill="#d3fe06" d="M 254.5,128.5 C 254.5,131.833 254.5,135.167 254.5,138.5C 248.798,142.539 243.798,147.206 239.5,152.5C 239.167,152.5 238.833,152.5 238.5,152.5C 238.5,149.5 238.5,146.5 238.5,143.5C 244.456,139.212 249.789,134.212 254.5,128.5 Z"/></g>
<g><path style="opacity:1" fill="#f7f904" d="M 254.5,138.5 C 253.913,144.037 252.913,149.37 251.5,154.5C 251.565,154.062 251.399,153.728 251,153.5C 249.363,155.81 247.196,157.31 244.5,158C 242.97,160.352 241.303,162.519 239.5,164.5C 239.5,160.5 239.5,156.5 239.5,152.5C 243.798,147.206 248.798,142.539 254.5,138.5 Z"/></g>
<g><path style="opacity:0.928" fill="#0135ff" d="M 21.5,154.5 C 21.8226,158.226 21.4892,161.893 20.5,165.5C 17.1185,169.548 13.4519,173.215 9.5,176.5C 7.73292,174.208 6.73292,171.542 6.5,168.5C 10.8783,163.12 15.8783,158.454 21.5,154.5 Z"/></g>
<g><path style="opacity:0.818" fill="#fadb13" d="M 251.5,154.5 C 251.435,157.428 250.768,160.095 249.5,162.5C 243.221,165.053 240.555,169.719 241.5,176.5C 240.205,172.733 239.539,168.733 239.5,164.5C 241.303,162.519 242.97,160.352 244.5,158C 247.196,157.31 249.363,155.81 251,153.5C 251.399,153.728 251.565,154.062 251.5,154.5 Z"/></g>
<g><path style="opacity:0.876" fill="#fec002" d="M 249.5,162.5 C 247.993,170.032 245.326,177.032 241.5,183.5C 241.5,181.167 241.5,178.833 241.5,176.5C 240.555,169.719 243.221,165.053 249.5,162.5 Z"/></g>
<g><path style="opacity:0.925" fill="#1f59fc" d="M 21.5,135.5 C 22.4834,139.298 22.8168,143.298 22.5,147.5C 22.5,155.5 22.5,163.5 22.5,171.5C 19.6252,175.808 15.9585,179.474 11.5,182.5C 10.6373,180.579 9.97065,178.579 9.5,176.5C 13.4519,173.215 17.1185,169.548 20.5,165.5C 21.4892,161.893 21.8226,158.226 21.5,154.5C 21.5,148.167 21.5,141.833 21.5,135.5 Z"/></g>
<g><path style="opacity:1" fill="#c9cd82" d="M 238.5,152.5 C 238.833,152.5 239.167,152.5 239.5,152.5C 239.5,156.5 239.5,160.5 239.5,164.5C 239.539,168.733 240.205,172.733 241.5,176.5C 241.5,178.833 241.5,181.167 241.5,183.5C 241.672,184.492 241.338,185.158 240.5,185.5C 239.833,185.5 239.167,185.5 238.5,185.5C 238.5,174.5 238.5,163.5 238.5,152.5 Z"/></g>
<g><path style="opacity:1" fill="#0275fe" d="M 22.5,171.5 C 22.6989,174.941 22.1989,178.274 21,181.5C 18.6004,183.415 16.1004,185.081 13.5,186.5C 12.8333,185.167 12.1667,183.833 11.5,182.5C 15.9585,179.474 19.6252,175.808 22.5,171.5 Z"/></g>
<g><path style="opacity:0.963" fill="#3797fb" d="M 22.5,147.5 C 22.8333,147.5 23.1667,147.5 23.5,147.5C 23.5,159.833 23.5,172.167 23.5,184.5C 22.6909,186.292 22.1909,188.292 22,190.5C 21.34,192.324 20.1733,193.657 18.5,194.5C 16.8474,191.869 15.1807,189.203 13.5,186.5C 16.1004,185.081 18.6004,183.415 21,181.5C 22.1989,178.274 22.6989,174.941 22.5,171.5C 22.5,163.5 22.5,155.5 22.5,147.5 Z"/></g>
<g><path style="opacity:0.5" fill="#f1b159" d="M 237.5,185.5 C 237.833,185.5 238.167,185.5 238.5,185.5C 239.167,185.5 239.833,185.5 240.5,185.5C 240.25,187.674 239.25,189.341 237.5,190.5C 237.5,188.833 237.5,187.167 237.5,185.5 Z"/></g>
<g><path style="opacity:1" fill="#586b75" d="M 37.5,127.5 C 37.3146,129.196 36.4813,130.529 35,131.5C 34.5,151.164 34.3334,170.831 34.5,190.5C 98.5,190.5 162.5,190.5 226.5,190.5C 226.5,176.5 226.5,162.5 226.5,148.5C 200.995,148.831 175.661,148.498 150.5,147.5C 176.5,147.5 202.5,147.5 228.5,147.5C 228.5,162.167 228.5,176.833 228.5,191.5C 163.167,191.5 97.8333,191.5 32.5,191.5C 32.5,171.833 32.5,152.167 32.5,132.5C 33.806,130.527 35.4727,128.861 37.5,127.5 Z"/></g>
<g><path style="opacity:0.667" fill="#31c0fb" d="M 23.5,184.5 C 23.5,190.167 23.5,195.833 23.5,201.5C 21.4776,199.469 19.8109,197.135 18.5,194.5C 20.1733,193.657 21.34,192.324 22,190.5C 22.1909,188.292 22.6909,186.292 23.5,184.5 Z"/></g>
<g><path style="opacity:1" fill="#b8fe10" d="M 134.5,202.5 C 134.5,202.167 134.5,201.833 134.5,201.5C 148.833,201.5 163.167,201.5 177.5,201.5C 177.5,201.833 177.5,202.167 177.5,202.5C 177.167,202.5 176.833,202.5 176.5,202.5C 169.46,207.357 162.793,212.857 156.5,219C 151.262,219.503 147.429,222.003 145,226.5C 137.795,233.373 130.295,239.873 122.5,246C 119.577,248.416 117.243,251.25 115.5,254.5C 111.989,254.101 108.656,253.434 105.5,252.5C 110.924,248.911 115.591,244.411 119.5,239C 135.742,228.692 150.742,216.692 164.5,203C 161.518,202.502 158.518,202.335 155.5,202.5C 154.167,202.5 152.833,202.5 151.5,202.5C 148.167,202.5 144.833,202.5 141.5,202.5C 139.167,202.5 136.833,202.5 134.5,202.5 Z"/></g>
<g><path style="opacity:1" fill="#7feace" d="M 27.5,201.5 C 43.8333,201.5 60.1667,201.5 76.5,201.5C 75.4324,202.434 74.099,202.768 72.5,202.5C 69.8333,202.5 67.1667,202.5 64.5,202.5C 57.4921,202.334 50.4921,202.5 43.5,203C 39.5102,205.226 35.1768,206.393 30.5,206.5C 28.7769,205.395 27.7769,203.728 27.5,201.5 Z"/></g>
<g><path style="opacity:1" fill="#ffa200" d="M 223.5,202.5 C 217.863,207.58 212.196,212.747 206.5,218C 205.167,218.333 203.833,218.667 202.5,219C 195.833,224.333 189.833,230.333 184.5,237C 180.045,238.437 176.378,241.104 173.5,245C 173.728,245.399 174.062,245.565 174.5,245.5C 170.044,247.542 165.377,249.209 160.5,250.5C 178.182,235.001 195.849,219.167 213.5,203C 216.817,202.502 220.15,202.335 223.5,202.5 Z"/></g>
<g><path style="opacity:1" fill="#1ef5f7" d="M 23.5,201.5 C 24.8333,201.5 26.1667,201.5 27.5,201.5C 27.7769,203.728 28.7769,205.395 30.5,206.5C 30.9175,207.222 31.5842,207.722 32.5,208C 31.6195,208.708 30.9528,209.542 30.5,210.5C 27.8154,207.81 25.4821,204.81 23.5,201.5 Z"/></g>
<g><path style="opacity:1" fill="#33facf" d="M 64.5,202.5 C 64.5,203.167 64.1667,203.5 63.5,203.5C 61.8333,203.5 60.1667,203.5 58.5,203.5C 54.039,204.056 49.7057,205.223 45.5,207C 42.2711,210.399 38.9378,213.565 35.5,216.5C 33.8437,214.54 32.177,212.54 30.5,210.5C 30.9528,209.542 31.6195,208.708 32.5,208C 31.5842,207.722 30.9175,207.222 30.5,206.5C 35.1768,206.393 39.5102,205.226 43.5,203C 50.4921,202.5 57.4921,202.334 64.5,202.5 Z"/></g>
<g><path style="opacity:1" fill="#06feba" d="M 58.5,203.5 C 52.6134,207.478 46.9467,211.978 41.5,217C 40.1772,217.816 39.5106,218.983 39.5,220.5C 37.8333,219.5 36.5,218.167 35.5,216.5C 38.9378,213.565 42.2711,210.399 45.5,207C 49.7057,205.223 54.039,204.056 58.5,203.5 Z"/></g>
<g><path style="opacity:0.966" fill="#03fe8e" d="M 64.5,202.5 C 67.1667,202.5 69.8333,202.5 72.5,202.5C 67.9815,207.518 63.3148,212.351 58.5,217C 54.2739,220.071 49.9405,222.905 45.5,225.5C 43.8333,224.5 42.5,223.167 41.5,221.5C 48.6722,215.326 56.0056,209.326 63.5,203.5C 64.1667,203.5 64.5,203.167 64.5,202.5 Z"/></g>
<g><path style="opacity:1" fill="#00fea5" d="M 58.5,203.5 C 60.1667,203.5 61.8333,203.5 63.5,203.5C 56.0056,209.326 48.6722,215.326 41.5,221.5C 40.8333,221.167 40.1667,220.833 39.5,220.5C 39.5106,218.983 40.1772,217.816 41.5,217C 46.9467,211.978 52.6134,207.478 58.5,203.5 Z"/></g>
<g><path style="opacity:1" fill="#1bfe6c" d="M 76.5,201.5 C 95.8333,201.5 115.167,201.5 134.5,201.5C 134.5,201.833 134.5,202.167 134.5,202.5C 132.5,202.5 130.5,202.5 128.5,202.5C 117.167,202.5 105.833,202.5 94.5,202.5C 90.4862,202.334 86.4862,202.501 82.5,203C 75.0482,210.584 67.3815,217.917 59.5,225C 56.5443,226.65 53.5443,228.15 50.5,229.5C 48.6115,228.396 46.9448,227.063 45.5,225.5C 49.9405,222.905 54.2739,220.071 58.5,217C 63.3148,212.351 67.9815,207.518 72.5,202.5C 74.099,202.768 75.4324,202.434 76.5,201.5 Z"/></g>
<g><path style="opacity:1" fill="#16ff0d" d="M 94.5,202.5 C 105.833,202.5 117.167,202.5 128.5,202.5C 119.07,212.431 109.403,222.265 99.5,232C 97.7536,232.471 96.087,233.138 94.5,234C 90.6207,238.374 86.9541,242.874 83.5,247.5C 73.7424,244.123 64.7424,239.456 56.5,233.5C 59.0755,232.893 61.4088,231.726 63.5,230C 73.4376,220.368 83.7709,211.202 94.5,202.5 Z"/></g>
<g><path style="opacity:1" fill="#ff7700" d="M 226.5,202.5 C 227.5,202.5 228.5,202.5 229.5,202.5C 217.865,219.797 202.532,232.797 183.5,241.5C 184.747,239.85 186.413,237.85 188.5,235.5C 201.853,225.137 214.52,214.137 226.5,202.5 Z"/></g>
<g><path style="opacity:1" fill="#febd0d" d="M 196.5,201.5 C 207.833,201.5 219.167,201.5 230.5,201.5C 230.5,202.167 230.167,202.5 229.5,202.5C 228.5,202.5 227.5,202.5 226.5,202.5C 225.5,202.5 224.5,202.5 223.5,202.5C 220.15,202.335 216.817,202.502 213.5,203C 195.849,219.167 178.182,235.001 160.5,250.5C 156.864,251.326 153.197,251.992 149.5,252.5C 158.262,244.756 167.262,237.089 176.5,229.5C 180.404,225.352 184.071,221.019 187.5,216.5C 193.008,212.24 198.342,207.74 203.5,203C 201.866,202.506 200.199,202.34 198.5,202.5C 197.508,202.672 196.842,202.338 196.5,201.5 Z"/></g>
<g><path style="opacity:1" fill="#9fff00" d="M 155.5,202.5 C 158.518,202.335 161.518,202.502 164.5,203C 150.742,216.692 135.742,228.692 119.5,239C 115.591,244.411 110.924,248.911 105.5,252.5C 103.585,252.784 101.919,252.451 100.5,251.5C 107.564,246.605 113.898,240.771 119.5,234C 125.04,231.135 130.04,227.468 134.5,223C 140.733,215.266 147.733,208.433 155.5,202.5 Z"/></g>
<g><path style="opacity:1" fill="#ff8b00" d="M 223.5,202.5 C 224.5,202.5 225.5,202.5 226.5,202.5C 214.52,214.137 201.853,225.137 188.5,235.5C 186.413,237.85 184.747,239.85 183.5,241.5C 180.686,243.07 177.686,244.403 174.5,245.5C 174.062,245.565 173.728,245.399 173.5,245C 176.378,241.104 180.045,238.437 184.5,237C 189.833,230.333 195.833,224.333 202.5,219C 203.833,218.667 205.167,218.333 206.5,218C 212.196,212.747 217.863,207.58 223.5,202.5 Z"/></g>
<g><path style="opacity:1" fill="#00fe47" d="M 94.5,202.5 C 83.7709,211.202 73.4376,220.368 63.5,230C 61.4088,231.726 59.0755,232.893 56.5,233.5C 54.2048,232.525 52.2048,231.192 50.5,229.5C 53.5443,228.15 56.5443,226.65 59.5,225C 67.3815,217.917 75.0482,210.584 82.5,203C 86.4862,202.501 90.4862,202.334 94.5,202.5 Z"/></g>
<g><path style="opacity:1" fill="#8bff00" d="M 151.5,202.5 C 152.833,202.5 154.167,202.5 155.5,202.5C 147.733,208.433 140.733,215.266 134.5,223C 130.04,227.468 125.04,231.135 119.5,234C 113.898,240.771 107.564,246.605 100.5,251.5C 98.901,251.768 97.5676,251.434 96.5,250.5C 115.281,235.235 133.614,219.235 151.5,202.5 Z"/></g>
<g><path style="opacity:1" fill="#72ff00" d="M 141.5,202.5 C 144.833,202.5 148.167,202.5 151.5,202.5C 133.614,219.235 115.281,235.235 96.5,250.5C 94.139,250.326 91.8056,249.993 89.5,249.5C 93.6309,244.09 98.6309,239.59 104.5,236C 117.029,224.968 129.362,213.801 141.5,202.5 Z"/></g>
<g><path style="opacity:1" fill="#53ff00" d="M 128.5,202.5 C 130.5,202.5 132.5,202.5 134.5,202.5C 136.833,202.5 139.167,202.5 141.5,202.5C 129.362,213.801 117.029,224.968 104.5,236C 98.6309,239.59 93.6309,244.09 89.5,249.5C 87.5786,248.637 85.5786,247.971 83.5,247.5C 86.9541,242.874 90.6207,238.374 94.5,234C 96.087,233.138 97.7536,232.471 99.5,232C 109.403,222.265 119.07,212.431 128.5,202.5 Z"/></g>
<g><path style="opacity:0.964" fill="#feea03" d="M 177.5,202.5 C 177.5,202.167 177.5,201.833 177.5,201.5C 183.833,201.5 190.167,201.5 196.5,201.5C 196.842,202.338 197.508,202.672 198.5,202.5C 197.094,205.414 195.094,207.914 192.5,210C 177.658,219.835 164.325,231.502 152.5,245C 147.813,246.521 144.146,249.355 141.5,253.5C 139.052,254.473 136.385,254.806 133.5,254.5C 134.203,252.284 135.536,250.451 137.5,249C 155.363,234.154 173.03,218.82 190.5,203C 186.179,202.501 181.846,202.334 177.5,202.5 Z"/></g>
<g><path style="opacity:1" fill="#d4ff00" d="M 176.5,202.5 C 173.536,206.91 170.202,211.077 166.5,215C 151.349,227.984 136.349,241.151 121.5,254.5C 119.5,254.5 117.5,254.5 115.5,254.5C 117.243,251.25 119.577,248.416 122.5,246C 130.295,239.873 137.795,233.373 145,226.5C 147.429,222.003 151.262,219.503 156.5,219C 162.793,212.857 169.46,207.357 176.5,202.5 Z"/></g>
<g><path style="opacity:1" fill="#eefe00" d="M 176.5,202.5 C 176.833,202.5 177.167,202.5 177.5,202.5C 181.846,202.334 186.179,202.501 190.5,203C 173.03,218.82 155.363,234.154 137.5,249C 135.536,250.451 134.203,252.284 133.5,254.5C 129.5,254.5 125.5,254.5 121.5,254.5C 136.349,241.151 151.349,227.984 166.5,215C 170.202,211.077 173.536,206.91 176.5,202.5 Z"/></g>
<g><path style="opacity:1" fill="#ffd300" d="M 198.5,202.5 C 200.199,202.34 201.866,202.506 203.5,203C 198.342,207.74 193.008,212.24 187.5,216.5C 184.071,221.019 180.404,225.352 176.5,229.5C 167.262,237.089 158.262,244.756 149.5,252.5C 146.946,253.388 144.279,253.721 141.5,253.5C 144.146,249.355 147.813,246.521 152.5,245C 164.325,231.502 177.658,219.835 192.5,210C 195.094,207.914 197.094,205.414 198.5,202.5 Z"/></g>
</svg>
