<?xml version="1.0" encoding="UTF-8"?>
<!DOCTYPE svg PUBLIC "-//W3C//DTD SVG 1.1//EN" "http://www.w3.org/Graphics/SVG/1.1/DTD/svg11.dtd">
<svg xmlns="http://www.w3.org/2000/svg" version="1.1" width="256px" height="256px" style="shape-rendering:geometricPrecision; text-rendering:geometricPrecision; image-rendering:optimizeQuality; fill-rule:evenodd; clip-rule:evenodd" xmlns:xlink="http://www.w3.org/1999/xlink">
<g><path style="opacity:0.72" fill="#fdfcfc" d="M 222.5,211.5 C 221.833,208.5 221.167,205.5 220.5,202.5C 220.36,196.464 220.693,190.464 221.5,184.5C 221.5,183.5 221.5,182.5 221.5,181.5C 224.393,177.324 226.393,172.657 227.5,167.5C 227.427,165.973 228.094,164.973 229.5,164.5C 230.924,162.485 231.59,160.152 231.5,157.5C 232.649,157.209 233.316,156.376 233.5,155C 234.286,151.542 234.62,148.042 234.5,144.5C 234.5,144.167 234.5,143.833 234.5,143.5C 236.007,137.573 236.674,131.406 236.5,125C 236.333,120.833 236.167,116.667 236,112.5C 235.722,111.584 235.222,110.918 234.5,110.5C 234.768,108.901 234.434,107.568 233.5,106.5C 233.5,105.167 233.5,103.833 233.5,102.5C 233.41,100.304 233.077,98.137 232.5,96C 232.316,94.6244 231.649,93.7911 230.5,93.5C 230.923,91.2188 230.256,89.5521 228.5,88.5C 228.573,86.9731 227.906,85.9731 226.5,85.5C 226.768,83.901 226.434,82.5676 225.5,81.5C 225.245,79.0326 224.245,77.0326 222.5,75.5C 222.267,73.9382 221.6,72.6049 220.5,71.5C 220.5,70.1667 219.833,69.5 218.5,69.5C 218.267,67.9382 217.6,66.6049 216.5,65.5C 216.262,63.5956 215.262,62.2623 213.5,61.5C 212.92,59.2512 211.587,57.5846 209.5,56.5C 208.5,54.8333 207.167,53.5 205.5,52.5C 204.833,51.1667 203.833,50.1667 202.5,49.5C 201.833,48.5 201.167,47.5 200.5,46.5C 198.761,43.7573 196.427,41.7573 193.5,40.5C 193.167,40.5 192.833,40.5 192.5,40.5C 190.999,39.2485 189.332,38.2485 187.5,37.5C 185.469,35.4776 183.135,33.8109 180.5,32.5C 179.393,30.0311 177.393,29.0311 174.5,29.5C 174.027,28.0937 173.027,27.427 171.5,27.5C 169.316,25.4152 166.649,24.4152 163.5,24.5C 162.167,24.1667 160.833,23.8333 159.5,23.5C 156.933,23.2785 154.599,22.6118 152.5,21.5C 148.758,19.9227 144.758,18.756 140.5,18C 133.5,17.3333 126.5,17.3333 119.5,18C 117.292,18.1909 115.292,18.6909 113.5,19.5C 110.833,19.8333 108.167,20.1667 105.5,20.5C 98.6913,22.3279 92.0247,24.3279 85.5,26.5C 82.3707,27.8988 79.3707,29.5655 76.5,31.5C 74.7162,31.8925 73.0495,32.5592 71.5,33.5C 69.2512,34.0798 67.5846,35.4131 66.5,37.5C 66.1667,37.5 65.8333,37.5 65.5,37.5C 54.5,45.1667 45.1667,54.5 37.5,65.5C 37.5,65.8333 37.5,66.1667 37.5,66.5C 35.4131,67.5846 34.0798,69.2512 33.5,71.5C 32.5592,73.0495 31.8925,74.7162 31.5,76.5C 28.5391,79.4958 26.8725,83.1624 26.5,87.5C 24.8958,88.287 24.2291,89.6203 24.5,91.5C 22.446,94.0076 21.446,97.0076 21.5,100.5C 21.5,100.833 21.5,101.167 21.5,101.5C 19.9462,105.567 19.2796,109.9 19.5,114.5C 18.7321,115.263 18.2321,116.263 18,117.5C 17.3333,124.5 17.3333,131.5 18,138.5C 18.2321,139.737 18.7321,140.737 19.5,141.5C 19.9926,143.806 20.3259,146.139 20.5,148.5C 19.9644,151.698 20.631,154.365 22.5,156.5C 23.4067,158.657 24.0733,160.99 24.5,163.5C 24.7549,165.967 25.7549,167.967 27.5,169.5C 27.3284,170.492 27.6618,171.158 28.5,171.5C 28.7936,174.754 30.127,177.421 32.5,179.5C 33.1098,180.391 33.4431,181.391 33.5,182.5C 34.7445,184.488 36.0778,186.488 37.5,188.5C 39.177,190.54 40.8437,192.54 42.5,194.5C 43.1667,195.5 43.8333,196.5 44.5,197.5C 44.8333,198.5 45.5,199.167 46.5,199.5C 47.1667,200.833 48.1667,201.833 49.5,202.5C 50.8333,204.5 52.5,206.167 54.5,207.5C 55.9108,209.914 57.9108,211.581 60.5,212.5C 60.8333,212.5 61.1667,212.5 61.5,212.5C 62.5846,214.587 64.2512,215.92 66.5,216.5C 66.9731,217.906 67.9731,218.573 69.5,218.5C 69.9731,219.906 70.9731,220.573 72.5,220.5C 72.8417,221.338 73.5084,221.672 74.5,221.5C 76.1209,223.942 78.4542,225.275 81.5,225.5C 82.5137,226.674 83.847,227.34 85.5,227.5C 88.7679,230.707 92.7679,232.373 97.5,232.5C 98.8333,232.5 100.167,232.5 101.5,232.5C 103.515,233.924 105.848,234.59 108.5,234.5C 109.833,234.5 111.167,234.5 112.5,234.5C 114.948,235.473 117.615,235.806 120.5,235.5C 122.978,236.164 125.645,236.497 128.5,236.5C 132.469,236.706 136.135,236.039 139.5,234.5C 140.5,234.5 141.5,234.5 142.5,234.5C 143.167,234.5 143.833,234.5 144.5,234.5C 149.069,235.114 153.069,234.114 156.5,231.5C 162.457,230.852 167.79,228.852 172.5,225.5C 176.915,225.139 180.915,223.806 184.5,221.5C 190.979,220.509 197.646,220.176 204.5,220.5C 206.657,221.407 208.99,222.073 211.5,222.5C 207.974,227.925 203.141,230.258 197,229.5C 192.331,231.037 187.498,232.203 182.5,233C 130.831,256.589 83.9974,249.422 42,211.5C 3.75407,167.843 -2.57927,119.843 23,67.5C 46.9292,28.7812 81.7625,8.7812 127.5,7.5C 187.393,11.5267 226.227,42.1934 244,99.5C 249.875,127.442 246.542,154.108 234,179.5C 232.127,187.072 230.794,194.738 230,202.5C 227.958,205.94 225.458,208.94 222.5,211.5 Z M 119.5,55.5 C 151.324,54.321 175.158,67.321 191,94.5C 201.379,118.484 200.712,142.15 189,165.5C 188.333,171.167 188.333,176.833 189,182.5C 189.487,185.798 190.653,188.798 192.5,191.5C 192.167,191.833 191.833,192.167 191.5,192.5C 186.155,189.329 180.322,187.996 174,188.5C 164.105,189.356 154.605,191.856 145.5,196C 107.992,203.489 80.1586,190.655 62,157.5C 49.0722,123.047 56.2388,93.8808 83.5,70C 94.566,62.7036 106.566,57.8703 119.5,55.5 Z"/></g>
<g><path style="opacity:1" fill="#fbf7c0" d="M 152.5,21.5 C 151.167,21.5 149.833,21.5 148.5,21.5C 146.735,20.5386 144.735,20.2053 142.5,20.5C 140.393,19.5318 138.059,19.1984 135.5,19.5C 130.833,18.1667 126.167,18.1667 121.5,19.5C 120.167,19.5 118.833,19.5 117.5,19.5C 116.167,19.5 114.833,19.5 113.5,19.5C 115.292,18.6909 117.292,18.1909 119.5,18C 126.5,17.3333 133.5,17.3333 140.5,18C 144.758,18.756 148.758,19.9227 152.5,21.5 Z"/></g>
<g><path style="opacity:1" fill="#ff8d5c" d="M 105.5,20.5 C 104.5,21.1667 103.5,21.8333 102.5,22.5C 101.508,22.3284 100.842,22.6618 100.5,23.5C 98.2143,23.595 96.2143,24.2616 94.5,25.5C 91.5448,26.1587 88.5448,26.4921 85.5,26.5C 92.0247,24.3279 98.6913,22.3279 105.5,20.5 Z"/></g>
<g><path style="opacity:0.996" fill="#ceffb5" d="M 163.5,24.5 C 166.649,24.4152 169.316,25.4152 171.5,27.5C 169.435,27.4828 167.435,27.1495 165.5,26.5C 164.833,25.8333 164.167,25.1667 163.5,24.5 Z"/></g>
<g><path style="opacity:1" fill="#fdf609" d="M 133.5,19.5 C 134.167,19.5 134.833,19.5 135.5,19.5C 138.059,19.1984 140.393,19.5318 142.5,20.5C 135.105,25.052 128.105,30.2187 121.5,36C 118.593,40.5763 114.76,44.0763 110,46.5C 109.487,47.5266 108.987,48.5266 108.5,49.5C 106.007,50.7736 103.341,51.4403 100.5,51.5C 105.425,46.6824 110.425,41.8491 115.5,37C 118.521,34.5804 121.854,32.747 125.5,31.5C 129.437,28.2508 132.104,24.2508 133.5,19.5 Z"/></g>
<g><path style="opacity:1" fill="#b1ff09" d="M 148.5,21.5 C 149.833,21.5 151.167,21.5 152.5,21.5C 154.599,22.6118 156.933,23.2785 159.5,23.5C 157.958,24.1635 156.291,24.8302 154.5,25.5C 147.369,32.4608 140.036,39.2941 132.5,46C 133.416,46.2784 134.082,46.7784 134.5,47.5C 129.167,47.5 123.833,47.5 118.5,47.5C 118.5,47.1667 118.5,46.8333 118.5,46.5C 120.199,46.6602 121.866,46.4935 123.5,46C 125.809,43.5134 128.476,41.5134 131.5,40C 136.976,34.4351 142.642,29.1018 148.5,24C 147.944,23.6174 147.611,23.1174 147.5,22.5C 147.5,21.8333 147.833,21.5 148.5,21.5 Z"/></g>
<g><path style="opacity:1" fill="#afff9c" d="M 171.5,27.5 C 173.027,27.427 174.027,28.0937 174.5,29.5C 172.973,29.573 171.973,28.9063 171.5,27.5 Z"/></g>
<g><path style="opacity:0.996" fill="#bbffb3" d="M 174.5,30.5 C 174.5,30.1667 174.5,29.8333 174.5,29.5C 177.393,29.0311 179.393,30.0311 180.5,32.5C 178.5,31.8333 176.5,31.1667 174.5,30.5 Z"/></g>
<g><path style="opacity:1" fill="#ffe401" d="M 133.5,19.5 C 132.104,24.2508 129.437,28.2508 125.5,31.5C 121.854,32.747 118.521,34.5804 115.5,37C 110.425,41.8491 105.425,46.6824 100.5,51.5C 100.5,51.8333 100.5,52.1667 100.5,52.5C 99.8333,52.5 99.1667,52.5 98.5,52.5C 98.7286,50.567 99.5619,48.9003 101,47.5C 110.039,41.2497 117.873,33.7497 124.5,25C 126.792,23.7101 128.792,22.0435 130.5,20C 131.448,19.5172 132.448,19.3505 133.5,19.5 Z"/></g>
<g><path style="opacity:1" fill="#ecfe04" d="M 142.5,20.5 C 144.735,20.2053 146.735,20.5386 148.5,21.5C 147.833,21.5 147.5,21.8333 147.5,22.5C 143.738,24.4127 140.071,26.5794 136.5,29C 130.531,35.0965 124.531,40.9299 118.5,46.5C 118.5,46.8333 118.5,47.1667 118.5,47.5C 115.373,48.5808 112.04,49.2474 108.5,49.5C 108.987,48.5266 109.487,47.5266 110,46.5C 114.76,44.0763 118.593,40.5763 121.5,36C 128.105,30.2187 135.105,25.052 142.5,20.5 Z"/></g>
<g><path style="opacity:1" fill="#94ff0c" d="M 159.5,23.5 C 160.833,23.8333 162.167,24.1667 163.5,24.5C 164.167,25.1667 164.833,25.8333 165.5,26.5C 162.813,26.3359 160.146,26.5026 157.5,27C 156.072,29.1847 154.405,31.1847 152.5,33C 147.287,36.7981 142.287,40.7981 137.5,45C 137.043,45.414 136.709,45.914 136.5,46.5C 138.291,47.1698 139.958,47.8365 141.5,48.5C 139.167,48.5 136.833,48.5 134.5,48.5C 134.5,48.1667 134.5,47.8333 134.5,47.5C 134.082,46.7784 133.416,46.2784 132.5,46C 140.036,39.2941 147.369,32.4608 154.5,25.5C 156.291,24.8302 157.958,24.1635 159.5,23.5 Z"/></g>
<g><path style="opacity:1" fill="#6aff08" d="M 165.5,26.5 C 167.435,27.1495 169.435,27.4828 171.5,27.5C 171.973,28.9063 172.973,29.573 174.5,29.5C 174.5,29.8333 174.5,30.1667 174.5,30.5C 171.751,30.7261 169.084,30.3928 166.5,29.5C 163.764,33.0348 160.431,35.8682 156.5,38C 153.597,41.7807 150.263,45.114 146.5,48C 148.431,48.9022 150.097,50.0688 151.5,51.5C 150.833,51.5 150.167,51.5 149.5,51.5C 146.913,50.2513 144.246,49.2513 141.5,48.5C 139.958,47.8365 138.291,47.1698 136.5,46.5C 136.709,45.914 137.043,45.414 137.5,45C 142.287,40.7981 147.287,36.7981 152.5,33C 154.405,31.1847 156.072,29.1847 157.5,27C 160.146,26.5026 162.813,26.3359 165.5,26.5 Z"/></g>
<g><path style="opacity:1" fill="#ffbe12" d="M 124.5,19.5 C 125.525,19.8966 125.692,20.5632 125,21.5C 119.068,28.0583 112.235,33.5583 104.5,38C 100.328,44.6711 94.9949,50.1711 88.5,54.5C 87.8728,55.4168 87.5394,56.4168 87.5,57.5C 87.5858,58.4959 87.2524,59.3292 86.5,60C 82.7885,61.2265 79.4552,63.0599 76.5,65.5C 76.5858,64.5041 76.2524,63.6708 75.5,63C 92.0274,48.6346 108.361,34.1346 124.5,19.5 Z"/></g>
<g><path style="opacity:1" fill="#d2ff00" d="M 147.5,22.5 C 147.611,23.1174 147.944,23.6174 148.5,24C 142.642,29.1018 136.976,34.4351 131.5,40C 128.476,41.5134 125.809,43.5134 123.5,46C 121.866,46.4935 120.199,46.6602 118.5,46.5C 124.531,40.9299 130.531,35.0965 136.5,29C 140.071,26.5794 143.738,24.4127 147.5,22.5 Z"/></g>
<g><path style="opacity:1" fill="#ff7b6d" d="M 71.5,33.5 C 70.4154,35.5869 68.7488,36.9202 66.5,37.5C 67.5846,35.4131 69.2512,34.0798 71.5,33.5 Z"/></g>
<g><path style="opacity:1" fill="#2cff07" d="M 174.5,30.5 C 176.5,31.1667 178.5,31.8333 180.5,32.5C 181.445,33.9928 182.445,35.4928 183.5,37C 182.491,38.1681 181.491,39.3348 180.5,40.5C 182.595,40.9367 184.262,39.9367 185.5,37.5C 186.408,38.79 186.241,40.1233 185,41.5C 179.16,45.6818 173.66,50.1818 168.5,55C 165.843,55.1747 163.176,55.0081 160.5,54.5C 159.609,53.8902 158.609,53.5569 157.5,53.5C 157.167,53.5 156.833,53.5 156.5,53.5C 155.22,52.0687 153.553,51.4021 151.5,51.5C 150.097,50.0688 148.431,48.9022 146.5,48C 150.263,45.114 153.597,41.7807 156.5,38C 160.431,35.8682 163.764,33.0348 166.5,29.5C 169.084,30.3928 171.751,30.7261 174.5,30.5 Z"/></g>
<g><path style="opacity:1" fill="#b7ffd6" d="M 193.5,40.5 C 196.427,41.7573 198.761,43.7573 200.5,46.5C 198.938,46.2671 197.605,45.6005 196.5,44.5C 195.5,43.1667 194.5,41.8333 193.5,40.5 Z"/></g>
<g><path style="opacity:1" fill="#ffd00c" d="M 121.5,19.5 C 126.167,18.1667 130.833,18.1667 135.5,19.5C 134.833,19.5 134.167,19.5 133.5,19.5C 132.448,19.3505 131.448,19.5172 130.5,20C 128.792,22.0435 126.792,23.7101 124.5,25C 117.873,33.7497 110.039,41.2497 101,47.5C 99.5619,48.9003 98.7286,50.567 98.5,52.5C 95.1896,53.6038 92.1896,55.2705 89.5,57.5C 88.8333,57.5 88.1667,57.5 87.5,57.5C 87.5394,56.4168 87.8728,55.4168 88.5,54.5C 94.9949,50.1711 100.328,44.6711 104.5,38C 112.235,33.5583 119.068,28.0583 125,21.5C 125.692,20.5632 125.525,19.8966 124.5,19.5C 123.5,19.5 122.5,19.5 121.5,19.5 Z"/></g>
<g><path style="opacity:1" fill="#ff4805" d="M 94.5,25.5 C 95.2389,25.369 95.9056,25.5357 96.5,26C 85.1667,35.3333 73.8333,44.6667 62.5,54C 57.9553,60.4544 52.2886,65.7877 45.5,70C 41.2012,75.1239 36.3679,79.6239 31,83.5C 30.9822,81.2028 31.1489,78.8695 31.5,76.5C 31.8925,74.7162 32.5592,73.0495 33.5,71.5C 35.5869,70.4154 36.9202,68.7488 37.5,66.5C 37.5,66.1667 37.5,65.8333 37.5,65.5C 38.5,64.8333 39.5,64.1667 40.5,63.5C 40.2969,65.0443 39.6302,66.3777 38.5,67.5C 38.7093,68.086 39.0426,68.586 39.5,69C 37.0072,70.5655 35.0072,72.5655 33.5,75C 33.8499,76.2575 34.5165,76.5908 35.5,76C 51.2832,59.7632 67.9499,44.4299 85.5,30C 82.5617,30.4462 79.5617,30.9462 76.5,31.5C 79.3707,29.5655 82.3707,27.8988 85.5,26.5C 88.5448,26.4921 91.5448,26.1587 94.5,25.5 Z"/></g>
<g><path style="opacity:0.643" fill="#fbfbfb" d="M 118.5,47.5 C 123.833,47.5 129.167,47.5 134.5,47.5C 134.5,47.8333 134.5,48.1667 134.5,48.5C 134.611,49.1174 134.944,49.6174 135.5,50C 140.118,50.994 144.785,51.494 149.5,51.5C 151.515,52.9238 153.848,53.5905 156.5,53.5C 156.833,53.5 157.167,53.5 157.5,53.5C 159.716,56.4442 162.716,58.1109 166.5,58.5C 166.833,58.5 167.167,58.5 167.5,58.5C 168.802,60.8218 170.802,62.1551 173.5,62.5C 174.579,64.543 176.246,65.8763 178.5,66.5C 179.5,68.1667 180.833,69.5 182.5,70.5C 182.833,71.5 183.5,72.1667 184.5,72.5C 186.167,74.5 187.833,76.5 189.5,78.5C 190.167,79.8333 191.167,80.8333 192.5,81.5C 192.427,83.0269 193.094,84.0269 194.5,84.5C 194.5,85.1667 194.833,85.5 195.5,85.5C 196.264,88.0177 197.264,90.351 198.5,92.5C 198.328,93.4916 198.662,94.1583 199.5,94.5C 200.434,95.5676 200.768,96.901 200.5,98.5C 201.252,103.411 202.585,108.078 204.5,112.5C 204.833,112.5 205.167,112.5 205.5,112.5C 205.198,115.059 205.532,117.393 206.5,119.5C 206.5,124.5 206.5,129.5 206.5,134.5C 205.745,137.053 205.078,139.72 204.5,142.5C 203.076,144.515 202.41,146.848 202.5,149.5C 202.5,150.5 202.5,151.5 202.5,152.5C 200.744,153.552 200.077,155.219 200.5,157.5C 199.094,157.973 198.427,158.973 198.5,160.5C 197.061,162.588 196.394,164.921 196.5,167.5C 195.206,171.733 195.206,176.066 196.5,180.5C 196.733,183.542 197.733,186.208 199.5,188.5C 199.833,189.833 200.167,191.167 200.5,192.5C 200.755,194.967 201.755,196.967 203.5,198.5C 204.167,199.167 204.833,199.833 205.5,200.5C 205.5,202.167 205.5,203.833 205.5,205.5C 202.308,205.595 199.308,204.929 196.5,203.5C 196.5,202.833 196.167,202.5 195.5,202.5C 193.605,200.759 191.272,199.759 188.5,199.5C 186.491,197.935 184.157,196.935 181.5,196.5C 173.767,194.935 166.1,195.602 158.5,198.5C 156.973,198.427 155.973,199.094 155.5,200.5C 148.328,203.134 140.994,205.134 133.5,206.5C 129.167,206.5 124.833,206.5 120.5,206.5C 117.946,205.612 115.279,205.279 112.5,205.5C 109.063,204.055 105.397,203.055 101.5,202.5C 98.8112,200.883 95.8112,199.883 92.5,199.5C 92.5,199.167 92.5,198.833 92.5,198.5C 89.7462,196.394 86.7462,194.728 83.5,193.5C 82.7095,192.599 81.7095,191.932 80.5,191.5C 80.5,190.833 80.1667,190.5 79.5,190.5C 78.205,189.512 76.8717,188.512 75.5,187.5C 74.8333,186.167 73.8333,185.167 72.5,184.5C 71.5,182.833 70.1667,181.5 68.5,180.5C 68.1667,179.5 67.5,178.833 66.5,178.5C 66.0113,177.005 65.3446,175.671 64.5,174.5C 62.8333,172.5 61.1667,170.5 59.5,168.5C 59.0113,167.005 58.3446,165.671 57.5,164.5C 57.0679,163.29 56.4013,162.29 55.5,161.5C 54.1523,157.416 52.819,153.416 51.5,149.5C 50.36,146.632 49.36,143.632 48.5,140.5C 48.7947,138.265 48.4614,136.265 47.5,134.5C 47.5,129.5 47.5,124.5 47.5,119.5C 48.1667,117.167 48.8333,114.833 49.5,112.5C 50.7682,110.095 51.4349,107.428 51.5,104.5C 51.5,103.167 51.5,101.833 51.5,100.5C 51.8333,100.5 52.1667,100.5 52.5,100.5C 53.1499,100.196 53.8165,99.8627 54.5,99.5C 55.5044,96.1547 56.5044,92.8214 57.5,89.5C 58.4289,86.5881 59.7622,83.9214 61.5,81.5C 66.4721,76.1929 71.4721,70.8595 76.5,65.5C 79.4552,63.0599 82.7885,61.2265 86.5,60C 87.2524,59.3292 87.5858,58.4959 87.5,57.5C 88.1667,57.5 88.8333,57.5 89.5,57.5C 90.8734,57.6567 92.2068,57.49 93.5,57C 95.9929,55.5814 98.3263,54.0814 100.5,52.5C 100.5,52.1667 100.5,51.8333 100.5,51.5C 103.341,51.4403 106.007,50.7736 108.5,49.5C 112.04,49.2474 115.373,48.5808 118.5,47.5 Z M 119.5,55.5 C 106.566,57.8703 94.566,62.7036 83.5,70C 56.2388,93.8808 49.0722,123.047 62,157.5C 80.1586,190.655 107.992,203.489 145.5,196C 154.605,191.856 164.105,189.356 174,188.5C 180.322,187.996 186.155,189.329 191.5,192.5C 191.833,192.167 192.167,191.833 192.5,191.5C 190.653,188.798 189.487,185.798 189,182.5C 188.333,176.833 188.333,171.167 189,165.5C 200.712,142.15 201.379,118.484 191,94.5C 175.158,67.321 151.324,54.321 119.5,55.5 Z"/></g>
<g><path style="opacity:1" fill="#ff7667" d="M 65.5,37.5 C 56.4936,45.5067 48.1603,54.1733 40.5,63.5C 39.5,64.1667 38.5,64.8333 37.5,65.5C 45.1667,54.5 54.5,45.1667 65.5,37.5 Z"/></g>
<g><path style="opacity:1" fill="#ff9003" d="M 113.5,19.5 C 114.833,19.5 116.167,19.5 117.5,19.5C 114.812,23.8767 111.146,27.3767 106.5,30C 99.7365,37.2194 92.7365,44.2194 85.5,51C 81.321,53.5887 77.321,56.422 73.5,59.5C 64.3371,68.1629 55.3371,76.9962 46.5,86C 41.1667,88.6667 37.1667,92.6667 34.5,98C 33.1667,98.3333 31.8333,98.6667 30.5,99C 27.9321,102.73 24.9321,105.897 21.5,108.5C 21.5,106.167 21.5,103.833 21.5,101.5C 21.5,101.167 21.5,100.833 21.5,100.5C 23.117,97.8112 24.117,94.8112 24.5,91.5C 24.2291,89.6203 24.8958,88.287 26.5,87.5C 26.5,88.1667 26.5,88.8333 26.5,89.5C 25.1857,91.8953 25.1857,94.3953 26.5,97C 25.0403,97.8113 24.707,98.6446 25.5,99.5C 30.7121,94.2791 36.0454,89.1124 41.5,84C 42.448,83.5172 43.448,83.3505 44.5,83.5C 44.33,82.1779 44.6634,81.0113 45.5,80C 48.4459,77.1869 51.7792,74.8535 55.5,73C 70.6285,56.372 86.6285,40.5386 103.5,25.5C 104.798,23.9483 104.465,22.9483 102.5,22.5C 103.5,21.8333 104.5,21.1667 105.5,20.5C 108.167,20.1667 110.833,19.8333 113.5,19.5 Z"/></g>
<g><path style="opacity:0.996" fill="#e2ffd8" d="M 134.5,48.5 C 136.833,48.5 139.167,48.5 141.5,48.5C 144.246,49.2513 146.913,50.2513 149.5,51.5C 144.785,51.494 140.118,50.994 135.5,50C 134.944,49.6174 134.611,49.1174 134.5,48.5 Z"/></g>
<g><path style="opacity:1" fill="#06fe56" d="M 187.5,37.5 C 189.332,38.2485 190.999,39.2485 192.5,40.5C 193.218,42.1368 193.384,43.8034 193,45.5C 188.144,51.02 182.644,55.8533 176.5,60C 173.228,60.7881 170.228,60.2881 167.5,58.5C 167.167,58.5 166.833,58.5 166.5,58.5C 166.5,58.1667 166.5,57.8333 166.5,57.5C 167.873,57.6567 169.207,57.49 170.5,57C 175.713,53.2019 180.713,49.2019 185.5,45C 188.528,43.0893 189.194,40.5893 187.5,37.5 Z"/></g>
<g><path style="opacity:0.996" fill="#93ff83" d="M 149.5,51.5 C 150.167,51.5 150.833,51.5 151.5,51.5C 153.553,51.4021 155.22,52.0687 156.5,53.5C 153.848,53.5905 151.515,52.9238 149.5,51.5 Z"/></g>
<g><path style="opacity:1" fill="#0eff3d" d="M 180.5,32.5 C 183.135,33.8109 185.469,35.4776 187.5,37.5C 189.194,40.5893 188.528,43.0893 185.5,45C 180.713,49.2019 175.713,53.2019 170.5,57C 169.207,57.49 167.873,57.6567 166.5,57.5C 164.426,56.4861 162.426,55.4861 160.5,54.5C 163.176,55.0081 165.843,55.1747 168.5,55C 173.66,50.1818 179.16,45.6818 185,41.5C 186.241,40.1233 186.408,38.79 185.5,37.5C 184.262,39.9367 182.595,40.9367 180.5,40.5C 181.491,39.3348 182.491,38.1681 183.5,37C 182.445,35.4928 181.445,33.9928 180.5,32.5 Z"/></g>
<g><path style="opacity:0.996" fill="#9aff9d" d="M 157.5,53.5 C 158.609,53.5569 159.609,53.8902 160.5,54.5C 162.426,55.4861 164.426,56.4861 166.5,57.5C 166.5,57.8333 166.5,58.1667 166.5,58.5C 162.716,58.1109 159.716,56.4442 157.5,53.5 Z"/></g>
<g><path style="opacity:0.996" fill="#fff4c0" d="M 98.5,52.5 C 99.1667,52.5 99.8333,52.5 100.5,52.5C 98.3263,54.0814 95.9929,55.5814 93.5,57C 92.2068,57.49 90.8734,57.6567 89.5,57.5C 92.1896,55.2705 95.1896,53.6038 98.5,52.5 Z"/></g>
<g><path style="opacity:1" fill="#17ff80" d="M 192.5,40.5 C 192.833,40.5 193.167,40.5 193.5,40.5C 194.5,41.8333 195.5,43.1667 196.5,44.5C 196.657,45.8734 196.49,47.2068 196,48.5C 191.469,51.3984 187.969,55.2317 185.5,60C 182.99,61.5159 180.49,63.0159 178,64.5C 176.594,63.5862 175.094,62.9195 173.5,62.5C 170.802,62.1551 168.802,60.8218 167.5,58.5C 170.228,60.2881 173.228,60.7881 176.5,60C 182.644,55.8533 188.144,51.02 193,45.5C 193.384,43.8034 193.218,42.1368 192.5,40.5 Z"/></g>
<g><path style="opacity:1" fill="#ff2c02" d="M 40.5,63.5 C 48.1603,54.1733 56.4936,45.5067 65.5,37.5C 65.8333,37.5 66.1667,37.5 66.5,37.5C 68.7488,36.9202 70.4154,35.5869 71.5,33.5C 73.0495,32.5592 74.7162,31.8925 76.5,31.5C 79.5617,30.9462 82.5617,30.4462 85.5,30C 67.9499,44.4299 51.2832,59.7632 35.5,76C 34.5165,76.5908 33.8499,76.2575 33.5,75C 35.0072,72.5655 37.0072,70.5655 39.5,69C 39.0426,68.586 38.7093,68.086 38.5,67.5C 39.6302,66.3777 40.2969,65.0443 40.5,63.5 Z"/></g>
<g><path style="opacity:1" fill="#0bffa6" d="M 196.5,44.5 C 197.605,45.6005 198.938,46.2671 200.5,46.5C 201.167,47.5 201.833,48.5 202.5,49.5C 202.5,50.1667 202.5,50.8333 202.5,51.5C 195.897,56.9286 189.397,62.5953 183,68.5C 181.67,67.4178 180.17,66.7512 178.5,66.5C 176.246,65.8763 174.579,64.543 173.5,62.5C 175.094,62.9195 176.594,63.5862 178,64.5C 180.49,63.0159 182.99,61.5159 185.5,60C 187.969,55.2317 191.469,51.3984 196,48.5C 196.49,47.2068 196.657,45.8734 196.5,44.5 Z"/></g>
<g><path style="opacity:1" fill="#0bffd3" d="M 202.5,49.5 C 203.833,50.1667 204.833,51.1667 205.5,52.5C 206.028,53.8474 206.195,55.1807 206,56.5C 199.644,61.8584 193.644,67.525 188,73.5C 186.862,73.0109 185.695,72.6775 184.5,72.5C 183.5,72.1667 182.833,71.5 182.5,70.5C 183.552,70.6495 184.552,70.4828 185.5,70C 187.983,67.5938 190.65,65.4271 193.5,63.5C 196.454,59.8914 199.62,56.5581 203,53.5C 203.692,52.5632 203.525,51.8966 202.5,51.5C 202.5,50.8333 202.5,50.1667 202.5,49.5 Z"/></g>
<g><path style="opacity:1" fill="#15ffbe" d="M 202.5,51.5 C 203.525,51.8966 203.692,52.5632 203,53.5C 199.62,56.5581 196.454,59.8914 193.5,63.5C 190.65,65.4271 187.983,67.5938 185.5,70C 184.552,70.4828 183.552,70.6495 182.5,70.5C 180.833,69.5 179.5,68.1667 178.5,66.5C 180.17,66.7512 181.67,67.4178 183,68.5C 189.397,62.5953 195.897,56.9286 202.5,51.5 Z"/></g>
<g><path style="opacity:1" fill="#12fcf5" d="M 205.5,52.5 C 207.167,53.5 208.5,54.8333 209.5,56.5C 209.414,57.4959 209.748,58.3292 210.5,59C 208.951,60.214 207.785,61.714 207,63.5C 201.345,68.6514 195.511,73.6514 189.5,78.5C 187.833,76.5 186.167,74.5 184.5,72.5C 185.695,72.6775 186.862,73.0109 188,73.5C 193.644,67.525 199.644,61.8584 206,56.5C 206.195,55.1807 206.028,53.8474 205.5,52.5 Z"/></g>
<g><path style="opacity:1" fill="#ff9b89" d="M 37.5,66.5 C 36.9202,68.7488 35.5869,70.4154 33.5,71.5C 34.0798,69.2512 35.4131,67.5846 37.5,66.5 Z"/></g>
<g><path style="opacity:1" fill="#ffc220" d="M 76.5,65.5 C 71.4721,70.8595 66.4721,76.1929 61.5,81.5C 59.2166,81.6079 57.2166,82.4412 55.5,84C 52.582,88.0883 48.9153,91.255 44.5,93.5C 50.612,87.2166 56.612,80.7166 62.5,74C 66.7174,70.3929 71.3841,67.5596 76.5,65.5 Z"/></g>
<g><path style="opacity:1" fill="#1e9bff" d="M 220.5,71.5 C 221.6,72.6049 222.267,73.9382 222.5,75.5C 219.775,72.8877 217.108,73.0544 214.5,76C 210.48,80.851 205.814,85.0176 200.5,88.5C 199.534,90.396 199.201,92.396 199.5,94.5C 198.662,94.1583 198.328,93.4916 198.5,92.5C 198.215,90.712 198.548,89.0453 199.5,87.5C 205.056,83.1979 210.056,78.3646 214.5,73C 215.931,72.5348 217.097,71.7014 218,70.5C 218.671,71.2524 219.504,71.5858 220.5,71.5 Z"/></g>
<g><path style="opacity:1" fill="#1beffe" d="M 209.5,56.5 C 211.587,57.5846 212.92,59.2512 213.5,61.5C 209.148,65.202 204.482,68.702 199.5,72C 198,74.8333 195.833,77 193,78.5C 192.517,79.448 192.351,80.448 192.5,81.5C 191.167,80.8333 190.167,79.8333 189.5,78.5C 195.511,73.6514 201.345,68.6514 207,63.5C 207.785,61.714 208.951,60.214 210.5,59C 209.748,58.3292 209.414,57.4959 209.5,56.5 Z"/></g>
<g><path style="opacity:1" fill="#17daff" d="M 213.5,61.5 C 215.262,62.2623 216.262,63.5956 216.5,65.5C 211.875,66.4873 208.209,68.9873 205.5,73C 202.308,75.6924 198.975,78.1924 195.5,80.5C 194.571,81.6888 194.238,83.0222 194.5,84.5C 193.094,84.0269 192.427,83.0269 192.5,81.5C 192.351,80.448 192.517,79.448 193,78.5C 195.833,77 198,74.8333 199.5,72C 204.482,68.702 209.148,65.202 213.5,61.5 Z"/></g>
<g><path style="opacity:1" fill="#ff6206" d="M 100.5,23.5 C 101.239,23.369 101.906,23.5357 102.5,24C 97.0705,30.4314 90.7372,35.7647 83.5,40C 80.5511,43.0876 77.8844,46.4209 75.5,50C 58.8955,63.4713 42.8955,77.638 27.5,92.5C 26.6143,91.675 26.281,90.675 26.5,89.5C 26.5,88.8333 26.5,88.1667 26.5,87.5C 26.8725,83.1624 28.5391,79.4958 31.5,76.5C 31.1489,78.8695 30.9822,81.2028 31,83.5C 36.3679,79.6239 41.2012,75.1239 45.5,70C 52.2886,65.7877 57.9553,60.4544 62.5,54C 73.8333,44.6667 85.1667,35.3333 96.5,26C 95.9056,25.5357 95.2389,25.369 94.5,25.5C 96.2143,24.2616 98.2143,23.595 100.5,23.5 Z"/></g>
<g><path style="opacity:1" fill="#0bc2ff" d="M 216.5,65.5 C 217.6,66.6049 218.267,67.9382 218.5,69.5C 216.421,68.5003 214.421,68.8337 212.5,70.5C 206.592,75.4277 200.925,80.4277 195.5,85.5C 194.833,85.5 194.5,85.1667 194.5,84.5C 194.238,83.0222 194.571,81.6888 195.5,80.5C 198.975,78.1924 202.308,75.6924 205.5,73C 208.209,68.9873 211.875,66.4873 216.5,65.5 Z"/></g>
<g><path style="opacity:1" fill="#1663ff" d="M 223.5,79.5 C 223.833,80.5 224.5,81.1667 225.5,81.5C 226.434,82.5676 226.768,83.901 226.5,85.5C 226.167,85.5 225.833,85.5 225.5,85.5C 225.672,84.5084 225.338,83.8417 224.5,83.5C 224.189,82.5222 223.522,81.8555 222.5,81.5C 219.166,82.8314 216.166,84.6647 213.5,87C 210.675,90.8246 207.508,94.3246 204,97.5C 203.503,99.8098 203.337,102.143 203.5,104.5C 202.596,103.791 202.263,102.791 202.5,101.5C 202.192,99.076 202.526,96.7427 203.5,94.5C 208.965,89.2055 214.632,84.0389 220.5,79C 221.577,78.5304 222.577,78.6971 223.5,79.5 Z"/></g>
<g><path style="opacity:1" fill="#18abff" d="M 218.5,69.5 C 219.833,69.5 220.5,70.1667 220.5,71.5C 219.504,71.5858 218.671,71.2524 218,70.5C 217.097,71.7014 215.931,72.5348 214.5,73C 210.056,78.3646 205.056,83.1979 199.5,87.5C 198.548,89.0453 198.215,90.712 198.5,92.5C 197.264,90.351 196.264,88.0177 195.5,85.5C 200.925,80.4277 206.592,75.4277 212.5,70.5C 214.421,68.8337 216.421,68.5003 218.5,69.5 Z"/></g>
<g><path style="opacity:1" fill="#0d74ff" d="M 223.5,79.5 C 222.577,78.6971 221.577,78.5304 220.5,79C 214.632,84.0389 208.965,89.2055 203.5,94.5C 202.526,96.7427 202.192,99.076 202.5,101.5C 201.596,100.791 201.263,99.791 201.5,98.5C 201.338,96.4727 201.505,94.4727 202,92.5C 205.528,88.6408 209.028,84.8075 212.5,81C 215.506,78.4846 218.84,77.1512 222.5,77C 223.252,77.6708 223.586,78.5041 223.5,79.5 Z"/></g>
<g><path style="opacity:1" fill="#6d7cff" d="M 226.5,85.5 C 227.906,85.9731 228.573,86.9731 228.5,88.5C 227.094,88.0269 226.427,87.0269 226.5,85.5 Z"/></g>
<g><path style="opacity:1" fill="#1d8aff" d="M 222.5,75.5 C 224.245,77.0326 225.245,79.0326 225.5,81.5C 224.5,81.1667 223.833,80.5 223.5,79.5C 223.586,78.5041 223.252,77.6708 222.5,77C 218.84,77.1512 215.506,78.4846 212.5,81C 209.028,84.8075 205.528,88.6408 202,92.5C 201.505,94.4727 201.338,96.4727 201.5,98.5C 201.167,98.5 200.833,98.5 200.5,98.5C 200.768,96.901 200.434,95.5676 199.5,94.5C 199.201,92.396 199.534,90.396 200.5,88.5C 205.814,85.0176 210.48,80.851 214.5,76C 217.108,73.0544 219.775,72.8877 222.5,75.5 Z"/></g>
<g><path style="opacity:1" fill="#b4b3ff" d="M 228.5,88.5 C 230.256,89.5521 230.923,91.2188 230.5,93.5C 229.833,92.5 229.167,91.5 228.5,90.5C 228.5,89.8333 228.5,89.1667 228.5,88.5 Z"/></g>
<g><path style="opacity:1" fill="#ff7801" d="M 100.5,23.5 C 100.842,22.6618 101.508,22.3284 102.5,22.5C 104.465,22.9483 104.798,23.9483 103.5,25.5C 86.6285,40.5386 70.6285,56.372 55.5,73C 51.7792,74.8535 48.4459,77.1869 45.5,80C 44.6634,81.0113 44.33,82.1779 44.5,83.5C 43.448,83.3505 42.448,83.5172 41.5,84C 36.0454,89.1124 30.7121,94.2791 25.5,99.5C 24.707,98.6446 25.0403,97.8113 26.5,97C 25.1857,94.3953 25.1857,91.8953 26.5,89.5C 26.281,90.675 26.6143,91.675 27.5,92.5C 42.8955,77.638 58.8955,63.4713 75.5,50C 77.8844,46.4209 80.5511,43.0876 83.5,40C 90.7372,35.7647 97.0705,30.4314 102.5,24C 101.906,23.5357 101.239,23.369 100.5,23.5 Z"/></g>
<g><path style="opacity:1" fill="#0a54ff" d="M 224.5,83.5 C 223.448,83.3505 222.448,83.5172 221.5,84C 219.399,86.7695 216.732,88.7695 213.5,90C 210.94,92.9706 208.273,95.8039 205.5,98.5C 204.593,101.421 204.26,104.421 204.5,107.5C 203.596,106.791 203.263,105.791 203.5,104.5C 203.337,102.143 203.503,99.8098 204,97.5C 207.508,94.3246 210.675,90.8246 213.5,87C 216.166,84.6647 219.166,82.8314 222.5,81.5C 223.522,81.8555 224.189,82.5222 224.5,83.5 Z"/></g>
<g><path style="opacity:1" fill="#0f2fff" d="M 225.5,85.5 C 225.833,85.5 226.167,85.5 226.5,85.5C 226.427,87.0269 227.094,88.0269 228.5,88.5C 228.5,89.1667 228.5,89.8333 228.5,90.5C 226.434,88.1552 224.1,87.9885 221.5,90C 218.258,95.0293 214.424,99.5293 210,103.5C 206.755,108.242 205.588,113.576 206.5,119.5C 205.532,117.393 205.198,115.059 205.5,112.5C 205.146,108.363 205.646,104.363 207,100.5C 210.5,98.3333 213.333,95.5 215.5,92C 218.72,89.5633 222.053,87.3967 225.5,85.5 Z"/></g>
<g><path style="opacity:1" fill="#c9c2ff" d="M 230.5,93.5 C 231.649,93.7911 232.316,94.6244 232.5,96C 233.077,98.137 233.41,100.304 233.5,102.5C 232.833,101.5 232.167,100.5 231.5,99.5C 231.483,97.4352 231.15,95.4352 230.5,93.5 Z"/></g>
<g><path style="opacity:0.992" fill="#fffccc" d="M 56.5,89.5 C 56.8333,89.5 57.1667,89.5 57.5,89.5C 56.5044,92.8214 55.5044,96.1547 54.5,99.5C 53.8165,99.8627 53.1499,100.196 52.5,100.5C 53.5578,96.7207 54.8911,93.0541 56.5,89.5 Z"/></g>
<g><path style="opacity:1" fill="#0c44ff" d="M 224.5,83.5 C 225.338,83.8417 225.672,84.5084 225.5,85.5C 222.053,87.3967 218.72,89.5633 215.5,92C 213.333,95.5 210.5,98.3333 207,100.5C 205.646,104.363 205.146,108.363 205.5,112.5C 205.167,112.5 204.833,112.5 204.5,112.5C 204.5,110.833 204.5,109.167 204.5,107.5C 204.26,104.421 204.593,101.421 205.5,98.5C 208.273,95.8039 210.94,92.9706 213.5,90C 216.732,88.7695 219.399,86.7695 221.5,84C 222.448,83.5172 223.448,83.3505 224.5,83.5 Z"/></g>
<g><path style="opacity:1" fill="#ffcfa5" d="M 24.5,91.5 C 24.117,94.8112 23.117,97.8112 21.5,100.5C 21.446,97.0076 22.446,94.0076 24.5,91.5 Z"/></g>
<g><path style="opacity:1" fill="#ffc21d" d="M 44.5,93.5 C 37.1441,100.207 30.1441,107.374 23.5,115C 22.552,115.483 21.552,115.649 20.5,115.5C 20.7373,116.791 20.404,117.791 19.5,118.5C 19.5,117.167 19.5,115.833 19.5,114.5C 19.2796,109.9 19.9462,105.567 21.5,101.5C 21.5,103.833 21.5,106.167 21.5,108.5C 21.3433,109.873 21.51,111.207 22,112.5C 28.8025,106.699 35.3025,100.532 41.5,94C 42.448,93.5172 43.448,93.3505 44.5,93.5 Z"/></g>
<g><path style="opacity:1" fill="#ffac00" d="M 117.5,19.5 C 118.833,19.5 120.167,19.5 121.5,19.5C 122.5,19.5 123.5,19.5 124.5,19.5C 108.361,34.1346 92.0274,48.6346 75.5,63C 76.2524,63.6708 76.5858,64.5041 76.5,65.5C 71.3841,67.5596 66.7174,70.3929 62.5,74C 56.612,80.7166 50.612,87.2166 44.5,93.5C 43.448,93.3505 42.448,93.5172 41.5,94C 35.3025,100.532 28.8025,106.699 22,112.5C 21.51,111.207 21.3433,109.873 21.5,108.5C 24.9321,105.897 27.9321,102.73 30.5,99C 31.8333,98.6667 33.1667,98.3333 34.5,98C 37.1667,92.6667 41.1667,88.6667 46.5,86C 55.3371,76.9962 64.3371,68.1629 73.5,59.5C 77.321,56.422 81.321,53.5887 85.5,51C 92.7365,44.2194 99.7365,37.2194 106.5,30C 111.146,27.3767 114.812,23.8767 117.5,19.5 Z"/></g>
<g><path style="opacity:0.996" fill="#ced4ff" d="M 200.5,98.5 C 200.833,98.5 201.167,98.5 201.5,98.5C 201.263,99.791 201.596,100.791 202.5,101.5C 202.263,102.791 202.596,103.791 203.5,104.5C 203.263,105.791 203.596,106.791 204.5,107.5C 204.5,109.167 204.5,110.833 204.5,112.5C 202.585,108.078 201.252,103.411 200.5,98.5 Z"/></g>
<g><path style="opacity:1" fill="#ffd405" d="M 61.5,81.5 C 59.7622,83.9214 58.4289,86.5881 57.5,89.5C 57.1667,89.5 56.8333,89.5 56.5,89.5C 44.5211,99.6441 32.6878,109.977 21,120.5C 19.9701,120.164 19.4701,119.497 19.5,118.5C 20.404,117.791 20.7373,116.791 20.5,115.5C 21.552,115.649 22.552,115.483 23.5,115C 30.1441,107.374 37.1441,100.207 44.5,93.5C 48.9153,91.255 52.582,88.0883 55.5,84C 57.2166,82.4412 59.2166,81.6079 61.5,81.5 Z"/></g>
<g><path style="opacity:1" fill="#8560ff" d="M 231.5,99.5 C 232.167,100.5 232.833,101.5 233.5,102.5C 233.5,103.833 233.5,105.167 233.5,106.5C 233.167,106.5 232.833,106.5 232.5,106.5C 232.007,104.194 231.674,101.861 231.5,99.5 Z"/></g>
<g><path style="opacity:1" fill="#3605ff" d="M 228.5,90.5 C 229.167,91.5 229.833,92.5 230.5,93.5C 231.15,95.4352 231.483,97.4352 231.5,99.5C 231.674,101.861 232.007,104.194 232.5,106.5C 232.662,108.527 232.495,110.527 232,112.5C 225.929,118.449 219.762,124.282 213.5,130C 211.324,130.163 209.491,130.996 208,132.5C 207.825,127.981 207.325,123.647 206.5,119.5C 205.588,113.576 206.755,108.242 210,103.5C 214.424,99.5293 218.258,95.0293 221.5,90C 224.1,87.9885 226.434,88.1552 228.5,90.5 Z"/></g>
<g><path style="opacity:1" fill="#f5febf" d="M 51.5,104.5 C 51.4349,107.428 50.7682,110.095 49.5,112.5C 49.5,110.833 49.5,109.167 49.5,107.5C 50.1667,106.5 50.8333,105.5 51.5,104.5 Z"/></g>
<g><path style="opacity:1" fill="#f8fc08" d="M 51.5,100.5 C 51.5,101.833 51.5,103.167 51.5,104.5C 50.8333,105.5 50.1667,106.5 49.5,107.5C 49.631,106.761 49.4643,106.094 49,105.5C 41.2041,109.966 34.7041,115.8 29.5,123C 25.7238,124.947 22.3904,127.447 19.5,130.5C 19.5,128.5 19.5,126.5 19.5,124.5C 27.6034,121.24 34.1034,115.907 39,108.5C 43.0065,105.324 46.8398,101.991 50.5,98.5C 51.2975,98.9569 51.6309,99.6236 51.5,100.5 Z"/></g>
<g><path style="opacity:1" fill="#c5ff00" d="M 47.5,117.5 C 44.4819,120.202 41.1486,122.702 37.5,125C 32,130.5 26.5,136 21,141.5C 20.51,140.207 20.3433,138.873 20.5,137.5C 20.4142,136.504 20.7476,135.671 21.5,135C 29.7962,128.373 37.7962,121.373 45.5,114C 45.8333,113.833 46.1667,113.667 46.5,113.5C 47.4287,114.689 47.762,116.022 47.5,117.5 Z"/></g>
<g><path style="opacity:1" fill="#feee19" d="M 56.5,89.5 C 54.8911,93.0541 53.5578,96.7207 52.5,100.5C 52.1667,100.5 51.8333,100.5 51.5,100.5C 51.6309,99.6236 51.2975,98.9569 50.5,98.5C 46.8398,101.991 43.0065,105.324 39,108.5C 34.1034,115.907 27.6034,121.24 19.5,124.5C 19.5,126.5 19.5,128.5 19.5,130.5C 19.5,132.833 19.5,135.167 19.5,137.5C 18.1667,131.167 18.1667,124.833 19.5,118.5C 19.4701,119.497 19.9701,120.164 21,120.5C 32.6878,109.977 44.5211,99.6441 56.5,89.5 Z"/></g>
<g><path style="opacity:1" fill="#e1fe03" d="M 49.5,107.5 C 49.5,109.167 49.5,110.833 49.5,112.5C 48.8333,114.833 48.1667,117.167 47.5,119.5C 47.5,118.833 47.5,118.167 47.5,117.5C 47.762,116.022 47.4287,114.689 46.5,113.5C 46.1667,113.667 45.8333,113.833 45.5,114C 37.7962,121.373 29.7962,128.373 21.5,135C 20.7476,135.671 20.4142,136.504 20.5,137.5C 20.1667,137.5 19.8333,137.5 19.5,137.5C 19.5,135.167 19.5,132.833 19.5,130.5C 22.3904,127.447 25.7238,124.947 29.5,123C 34.7041,115.8 41.2041,109.966 49,105.5C 49.4643,106.094 49.631,106.761 49.5,107.5 Z"/></g>
<g><path style="opacity:1" fill="#fbfbc6" d="M 19.5,114.5 C 19.5,115.833 19.5,117.167 19.5,118.5C 18.1667,124.833 18.1667,131.167 19.5,137.5C 19.5,138.833 19.5,140.167 19.5,141.5C 18.7321,140.737 18.2321,139.737 18,138.5C 17.3333,131.5 17.3333,124.5 18,117.5C 18.2321,116.263 18.7321,115.263 19.5,114.5 Z"/></g>
<g><path style="opacity:1" fill="#840cff" d="M 232.5,106.5 C 232.833,106.5 233.167,106.5 233.5,106.5C 233.666,111.179 233.499,115.845 233,120.5C 231.415,121.376 230.415,122.709 230,124.5C 222.358,131.161 214.691,137.827 207,144.5C 206.502,141.183 206.335,137.85 206.5,134.5C 206.5,129.5 206.5,124.5 206.5,119.5C 207.325,123.647 207.825,127.981 208,132.5C 209.491,130.996 211.324,130.163 213.5,130C 219.762,124.282 225.929,118.449 232,112.5C 232.495,110.527 232.662,108.527 232.5,106.5 Z"/></g>
<g><path style="opacity:1" fill="#efb9fe" d="M 234.5,110.5 C 235.222,110.918 235.722,111.584 236,112.5C 236.167,116.667 236.333,120.833 236.5,125C 236.674,131.406 236.007,137.573 234.5,143.5C 234.5,142.167 234.5,140.833 234.5,139.5C 234.5,138.167 234.5,136.833 234.5,135.5C 235.81,128.401 235.81,121.401 234.5,114.5C 234.5,113.167 234.5,111.833 234.5,110.5 Z"/></g>
<g><path style="opacity:1" fill="#ab0dff" d="M 233.5,106.5 C 234.434,107.568 234.768,108.901 234.5,110.5C 234.5,111.833 234.5,113.167 234.5,114.5C 234.665,117.85 234.498,121.183 234,124.5C 227.598,131.261 220.764,137.428 213.5,143C 211.556,146.588 208.723,149.421 205,151.5C 204.667,151.167 204.333,150.833 204,150.5C 203.667,152.167 203.333,153.833 203,155.5C 202.517,154.552 202.351,153.552 202.5,152.5C 202.5,151.5 202.5,150.5 202.5,149.5C 203.924,147.485 204.59,145.152 204.5,142.5C 205.078,139.72 205.745,137.053 206.5,134.5C 206.335,137.85 206.502,141.183 207,144.5C 214.691,137.827 222.358,131.161 230,124.5C 230.415,122.709 231.415,121.376 233,120.5C 233.499,115.845 233.666,111.179 233.5,106.5 Z"/></g>
<g><path style="opacity:1" fill="#cf0fff" d="M 234.5,114.5 C 235.81,121.401 235.81,128.401 234.5,135.5C 222.181,145.654 210.347,156.321 199,167.5C 198.667,166.833 198.333,166.167 198,165.5C 197.722,166.416 197.222,167.082 196.5,167.5C 196.394,164.921 197.061,162.588 198.5,160.5C 199.906,160.027 200.573,159.027 200.5,157.5C 200.077,155.219 200.744,153.552 202.5,152.5C 202.351,153.552 202.517,154.552 203,155.5C 203.333,153.833 203.667,152.167 204,150.5C 204.333,150.833 204.667,151.167 205,151.5C 208.723,149.421 211.556,146.588 213.5,143C 220.764,137.428 227.598,131.261 234,124.5C 234.498,121.183 234.665,117.85 234.5,114.5 Z"/></g>
<g><path style="opacity:1" fill="#a8ff13" d="M 47.5,117.5 C 47.5,118.167 47.5,118.833 47.5,119.5C 47.5,124.5 47.5,129.5 47.5,134.5C 46.6762,130.688 46.1762,126.688 46,122.5C 43.0166,125.813 39.6833,128.813 36,131.5C 34.1667,134 32.3333,136.5 30.5,139C 24.2254,141.294 21.5587,145.794 22.5,152.5C 21.8333,151.167 21.1667,149.833 20.5,148.5C 20.3259,146.139 19.9926,143.806 19.5,141.5C 19.5,140.167 19.5,138.833 19.5,137.5C 19.8333,137.5 20.1667,137.5 20.5,137.5C 20.3433,138.873 20.51,140.207 21,141.5C 26.5,136 32,130.5 37.5,125C 41.1486,122.702 44.4819,120.202 47.5,117.5 Z"/></g>
<g><path style="opacity:1" fill="#7eff07" d="M 47.5,134.5 C 48.4614,136.265 48.7947,138.265 48.5,140.5C 47.8365,138.958 47.1698,137.291 46.5,135.5C 38.1894,140.826 30.5228,146.826 23.5,153.5C 24.3818,156.791 25.0484,160.124 25.5,163.5C 25.1667,163.5 24.8333,163.5 24.5,163.5C 24.0733,160.99 23.4067,158.657 22.5,156.5C 22.5,155.167 22.5,153.833 22.5,152.5C 21.5587,145.794 24.2254,141.294 30.5,139C 32.3333,136.5 34.1667,134 36,131.5C 39.6833,128.813 43.0166,125.813 46,122.5C 46.1762,126.688 46.6762,130.688 47.5,134.5 Z"/></g>
<g><path style="opacity:1" fill="#e6c7ff" d="M 204.5,142.5 C 204.59,145.152 203.924,147.485 202.5,149.5C 202.41,146.848 203.076,144.515 204.5,142.5 Z"/></g>
<g><path style="opacity:1" fill="#36ff09" d="M 48.5,140.5 C 49.36,143.632 50.36,146.632 51.5,149.5C 51.665,152.85 51.4983,156.183 51,159.5C 45.7019,164.5 40.5352,169.667 35.5,175C 33.8659,175.494 32.1992,175.66 30.5,175.5C 30.8432,173.517 30.1765,172.183 28.5,171.5C 27.6618,171.158 27.3284,170.492 27.5,169.5C 27.0293,167.421 26.3627,165.421 25.5,163.5C 25.0484,160.124 24.3818,156.791 23.5,153.5C 30.5228,146.826 38.1894,140.826 46.5,135.5C 47.1698,137.291 47.8365,138.958 48.5,140.5 Z"/></g>
<g><path style="opacity:1" fill="#ddffc5" d="M 20.5,148.5 C 21.1667,149.833 21.8333,151.167 22.5,152.5C 22.5,153.833 22.5,155.167 22.5,156.5C 20.631,154.365 19.9644,151.698 20.5,148.5 Z"/></g>
<g><path style="opacity:1" fill="#f601fc" d="M 234.5,135.5 C 234.5,136.833 234.5,138.167 234.5,139.5C 229.967,145.629 224.301,150.629 217.5,154.5C 212.733,158.557 208.399,163.057 204.5,168C 202.246,169.377 200.08,170.877 198,172.5C 197.617,171.944 197.117,171.611 196.5,171.5C 196.5,170.167 196.5,168.833 196.5,167.5C 197.222,167.082 197.722,166.416 198,165.5C 198.333,166.167 198.667,166.833 199,167.5C 210.347,156.321 222.181,145.654 234.5,135.5 Z"/></g>
<g><path style="opacity:1" fill="#ffcdf3" d="M 234.5,144.5 C 234.62,148.042 234.286,151.542 233.5,155C 233.316,156.376 232.649,157.209 231.5,157.5C 231.5,156.5 231.5,155.5 231.5,154.5C 232.475,151.933 233.142,149.267 233.5,146.5C 233.328,145.508 233.662,144.842 234.5,144.5 Z"/></g>
<g><path style="opacity:0.996" fill="#e899ff" d="M 200.5,157.5 C 200.573,159.027 199.906,160.027 198.5,160.5C 198.427,158.973 199.094,157.973 200.5,157.5 Z"/></g>
<g><path style="opacity:1" fill="#ffb4e4" d="M 231.5,157.5 C 231.59,160.152 230.924,162.485 229.5,164.5C 229.517,162.435 229.85,160.435 230.5,158.5C 230.5,157.833 230.833,157.5 231.5,157.5 Z"/></g>
<g><path style="opacity:1" fill="#fe01ea" d="M 234.5,139.5 C 234.5,140.833 234.5,142.167 234.5,143.5C 234.5,143.833 234.5,144.167 234.5,144.5C 233.662,144.842 233.328,145.508 233.5,146.5C 231.495,147.254 230.828,148.421 231.5,150C 221.879,156.297 212.879,163.297 204.5,171C 202.678,173.821 200.511,176.321 198,178.5C 196.648,176.406 196.148,174.073 196.5,171.5C 197.117,171.611 197.617,171.944 198,172.5C 200.08,170.877 202.246,169.377 204.5,168C 208.399,163.057 212.733,158.557 217.5,154.5C 224.301,150.629 229.967,145.629 234.5,139.5 Z"/></g>
<g><path style="opacity:1" fill="#98ff8c" d="M 24.5,163.5 C 24.8333,163.5 25.1667,163.5 25.5,163.5C 26.3627,165.421 27.0293,167.421 27.5,169.5C 25.7549,167.967 24.7549,165.967 24.5,163.5 Z"/></g>
<g><path style="opacity:1" fill="#ff08c6" d="M 231.5,154.5 C 231.5,155.5 231.5,156.5 231.5,157.5C 230.833,157.5 230.5,157.833 230.5,158.5C 228.217,158.608 226.217,159.441 224.5,161C 223.21,163.292 221.543,165.292 219.5,167C 214.167,171.333 208.833,175.667 203.5,180C 200.156,181.894 198.822,184.727 199.5,188.5C 197.733,186.208 196.733,183.542 196.5,180.5C 199.516,179.657 202.183,178.157 204.5,176C 209.976,170.435 215.642,165.102 221.5,160C 224.727,157.888 228.06,156.055 231.5,154.5 Z"/></g>
<g><path style="opacity:1" fill="#ff17d8" d="M 233.5,146.5 C 233.142,149.267 232.475,151.933 231.5,154.5C 228.06,156.055 224.727,157.888 221.5,160C 215.642,165.102 209.976,170.435 204.5,176C 202.183,178.157 199.516,179.657 196.5,180.5C 195.206,176.066 195.206,171.733 196.5,167.5C 196.5,168.833 196.5,170.167 196.5,171.5C 196.148,174.073 196.648,176.406 198,178.5C 200.511,176.321 202.678,173.821 204.5,171C 212.879,163.297 221.879,156.297 231.5,150C 230.828,148.421 231.495,147.254 233.5,146.5 Z"/></g>
<g><path style="opacity:1" fill="#ff05a6" d="M 230.5,158.5 C 229.85,160.435 229.517,162.435 229.5,164.5C 228.094,164.973 227.427,165.973 227.5,167.5C 226.448,167.351 225.448,167.517 224.5,168C 223.2,171.079 220.533,173.245 216.5,174.5C 213.342,179.823 209.009,183.99 203.5,187C 201.845,188.444 201.178,190.278 201.5,192.5C 201.167,192.5 200.833,192.5 200.5,192.5C 200.167,191.167 199.833,189.833 199.5,188.5C 198.822,184.727 200.156,181.894 203.5,180C 208.833,175.667 214.167,171.333 219.5,167C 221.543,165.292 223.21,163.292 224.5,161C 226.217,159.441 228.217,158.608 230.5,158.5 Z"/></g>
<g><path style="opacity:1" fill="#1cff48" d="M 51.5,149.5 C 52.819,153.416 54.1523,157.416 55.5,161.5C 55.9772,165.866 54.1439,168.866 50,170.5C 49.5172,171.448 49.3505,172.448 49.5,173.5C 48.1266,173.343 46.7932,173.51 45.5,174C 43.8333,177 41.5,179.333 38.5,181C 36.2837,181.393 34.2837,180.893 32.5,179.5C 30.127,177.421 28.7936,174.754 28.5,171.5C 30.1765,172.183 30.8432,173.517 30.5,175.5C 32.1992,175.66 33.8659,175.494 35.5,175C 40.5352,169.667 45.7019,164.5 51,159.5C 51.4983,156.183 51.665,152.85 51.5,149.5 Z"/></g>
<g><path style="opacity:1" fill="#17ff90" d="M 57.5,164.5 C 58.3446,165.671 59.0113,167.005 59.5,168.5C 60.3235,170.455 60.4901,172.455 60,174.5C 55.0913,180.405 49.2579,185.238 42.5,189C 40.8034,189.384 39.1368,189.218 37.5,188.5C 36.0778,186.488 34.7445,184.488 33.5,182.5C 34.973,183.74 36.6396,184.74 38.5,185.5C 39.086,185.291 39.586,184.957 40,184.5C 40.4561,185.744 39.9561,186.577 38.5,187C 39.5,187.667 40.5,187.667 41.5,187C 46.7138,181.486 52.2138,176.319 58,171.5C 58.0178,169.203 57.8511,166.869 57.5,164.5 Z"/></g>
<g><path style="opacity:1" fill="#19ffb2" d="M 59.5,168.5 C 61.1667,170.5 62.8333,172.5 64.5,174.5C 64.5523,177.537 63.5523,180.204 61.5,182.5C 55.6811,185.735 50.6811,189.901 46.5,195C 45.1807,195.195 43.8474,195.028 42.5,194.5C 40.8437,192.54 39.177,190.54 37.5,188.5C 39.1368,189.218 40.8034,189.384 42.5,189C 49.2579,185.238 55.0913,180.405 60,174.5C 60.4901,172.455 60.3235,170.455 59.5,168.5 Z"/></g>
<g><path style="opacity:1" fill="#ff0971" d="M 221.5,181.5 C 221.5,182.5 221.5,183.5 221.5,184.5C 220.833,185.167 220.167,185.833 219.5,186.5C 219.483,184.972 218.816,184.472 217.5,185C 213.679,188.655 210.012,192.489 206.5,196.5C 205.571,197.689 205.238,199.022 205.5,200.5C 204.833,199.833 204.167,199.167 203.5,198.5C 203.5,197.833 203.5,197.167 203.5,196.5C 203.357,194.738 203.691,193.071 204.5,191.5C 210.359,187.169 215.859,182.502 221,177.5C 221.49,178.793 221.657,180.127 221.5,181.5 Z"/></g>
<g><path style="opacity:1" fill="#0bff73" d="M 55.5,161.5 C 56.4013,162.29 57.0679,163.29 57.5,164.5C 57.8511,166.869 58.0178,169.203 58,171.5C 52.2138,176.319 46.7138,181.486 41.5,187C 40.5,187.667 39.5,187.667 38.5,187C 39.9561,186.577 40.4561,185.744 40,184.5C 39.586,184.957 39.086,185.291 38.5,185.5C 36.6396,184.74 34.973,183.74 33.5,182.5C 33.4431,181.391 33.1098,180.391 32.5,179.5C 34.2837,180.893 36.2837,181.393 38.5,181C 41.5,179.333 43.8333,177 45.5,174C 46.7932,173.51 48.1266,173.343 49.5,173.5C 49.3505,172.448 49.5172,171.448 50,170.5C 54.1439,168.866 55.9772,165.866 55.5,161.5 Z"/></g>
<g><path style="opacity:1" fill="#13fcf8" d="M 68.5,180.5 C 70.1667,181.5 71.5,182.833 72.5,184.5C 71.7611,184.369 71.0944,184.536 70.5,185C 67.9545,188.37 65.2878,191.536 62.5,194.5C 58.9878,196.757 55.6544,199.257 52.5,202C 51.552,202.483 50.552,202.649 49.5,202.5C 48.1667,201.833 47.1667,200.833 46.5,199.5C 47.5832,199.539 48.5832,199.873 49.5,200.5C 53.4278,196.531 57.7612,193.031 62.5,190C 65.1549,187.178 67.1549,184.011 68.5,180.5 Z"/></g>
<g><path style="opacity:1" fill="#1ceffe" d="M 72.5,184.5 C 73.8333,185.167 74.8333,186.167 75.5,187.5C 69.7567,188.078 65.9234,191.078 64,196.5C 61,198.833 58,201.167 55,203.5C 54.51,204.793 54.3433,206.127 54.5,207.5C 52.5,206.167 50.8333,204.5 49.5,202.5C 50.552,202.649 51.552,202.483 52.5,202C 55.6544,199.257 58.9878,196.757 62.5,194.5C 65.2878,191.536 67.9545,188.37 70.5,185C 71.0944,184.536 71.7611,184.369 72.5,184.5 Z"/></g>
<g><path style="opacity:1" fill="#ff178b" d="M 227.5,167.5 C 226.393,172.657 224.393,177.324 221.5,181.5C 221.657,180.127 221.49,178.793 221,177.5C 215.859,182.502 210.359,187.169 204.5,191.5C 203.691,193.071 203.357,194.738 203.5,196.5C 202.655,195.329 201.989,193.995 201.5,192.5C 201.178,190.278 201.845,188.444 203.5,187C 209.009,183.99 213.342,179.823 216.5,174.5C 220.533,173.245 223.2,171.079 224.5,168C 225.448,167.517 226.448,167.351 227.5,167.5 Z"/></g>
<g><path style="opacity:1" fill="#ff7894" d="M 221.5,184.5 C 220.693,190.464 220.36,196.464 220.5,202.5C 219.532,200.393 219.198,198.059 219.5,195.5C 219.5,192.5 219.5,189.5 219.5,186.5C 220.167,185.833 220.833,185.167 221.5,184.5 Z"/></g>
<g><path style="opacity:1" fill="#10b1ff" d="M 80.5,191.5 C 81.7095,191.932 82.7095,192.599 83.5,193.5C 82.1266,193.343 80.7932,193.51 79.5,194C 77.1667,195.667 74.8333,197.333 72.5,199C 69.3658,202.498 65.8658,205.665 62,208.5C 61.51,209.793 61.3433,211.127 61.5,212.5C 61.1667,212.5 60.8333,212.5 60.5,212.5C 60.1667,211.833 59.8333,211.167 59.5,210.5C 64.2361,204.258 69.5694,198.424 75.5,193C 77.0249,191.991 78.6916,191.491 80.5,191.5 Z"/></g>
<g><path style="opacity:1" fill="#10ffd2" d="M 64.5,174.5 C 65.3446,175.671 66.0113,177.005 66.5,178.5C 66.6567,179.873 66.49,181.207 66,182.5C 60.172,187.328 54.672,192.495 49.5,198C 47.8034,198.384 46.1368,198.218 44.5,197.5C 43.8333,196.5 43.1667,195.5 42.5,194.5C 43.8474,195.028 45.1807,195.195 46.5,195C 50.6811,189.901 55.6811,185.735 61.5,182.5C 63.5523,180.204 64.5523,177.537 64.5,174.5 Z"/></g>
<g><path style="opacity:1" fill="#0484ff" d="M 88.5,197.5 C 87.1266,197.343 85.7932,197.51 84.5,198C 80.116,203.051 75.116,207.384 69.5,211C 67.8588,212.129 66.8588,213.629 66.5,215.5C 65.9033,215.265 65.5699,214.765 65.5,214C 66,212.5 66.5,211 67,209.5C 71.2862,204.762 76.1195,200.596 81.5,197C 84.0385,196.204 86.3718,196.371 88.5,197.5 Z"/></g>
<g><path style="opacity:1" fill="#15fee7" d="M 66.5,178.5 C 67.5,178.833 68.1667,179.5 68.5,180.5C 67.1549,184.011 65.1549,187.178 62.5,190C 57.7612,193.031 53.4278,196.531 49.5,200.5C 48.5832,199.873 47.5832,199.539 46.5,199.5C 45.5,199.167 44.8333,198.5 44.5,197.5C 46.1368,198.218 47.8034,198.384 49.5,198C 54.672,192.495 60.172,187.328 66,182.5C 66.49,181.207 66.6567,179.873 66.5,178.5 Z"/></g>
<g><path style="opacity:0.988" fill="#ffb3d0" d="M 200.5,192.5 C 200.833,192.5 201.167,192.5 201.5,192.5C 201.989,193.995 202.655,195.329 203.5,196.5C 203.5,197.167 203.5,197.833 203.5,198.5C 201.755,196.967 200.755,194.967 200.5,192.5 Z"/></g>
<g><path style="opacity:1" fill="#06c0ff" d="M 79.5,190.5 C 80.1667,190.5 80.5,190.833 80.5,191.5C 78.6916,191.491 77.0249,191.991 75.5,193C 69.5694,198.424 64.2361,204.258 59.5,210.5C 58.1882,209.855 57.1882,208.855 56.5,207.5C 58.1965,206.636 59.3632,205.303 60,203.5C 65.0607,200.02 69.894,196.187 74.5,192C 76.0249,190.991 77.6916,190.491 79.5,190.5 Z"/></g>
<g><path style="opacity:1" fill="#f1b8ff" d="M 158.5,198.5 C 158.167,199.167 157.833,199.833 157.5,200.5C 156.833,200.5 156.167,200.5 155.5,200.5C 155.973,199.094 156.973,198.427 158.5,198.5 Z"/></g>
<g><path style="opacity:1" fill="#23d7ff" d="M 75.5,187.5 C 76.8717,188.512 78.205,189.512 79.5,190.5C 77.6916,190.491 76.0249,190.991 74.5,192C 69.894,196.187 65.0607,200.02 60,203.5C 59.3632,205.303 58.1965,206.636 56.5,207.5C 57.1882,208.855 58.1882,209.855 59.5,210.5C 59.8333,211.167 60.1667,211.833 60.5,212.5C 57.9108,211.581 55.9108,209.914 54.5,207.5C 54.3433,206.127 54.51,204.793 55,203.5C 58,201.167 61,198.833 64,196.5C 65.9234,191.078 69.7567,188.078 75.5,187.5 Z"/></g>
<g><path style="opacity:1" fill="#1e9bff" d="M 83.5,193.5 C 86.7462,194.728 89.7462,196.394 92.5,198.5C 91.5,198.5 90.5,198.5 89.5,198.5C 89.5,197.833 89.1667,197.5 88.5,197.5C 86.3718,196.371 84.0385,196.204 81.5,197C 76.1195,200.596 71.2862,204.762 67,209.5C 66.5,211 66,212.5 65.5,214C 65.5699,214.765 65.9033,215.265 66.5,215.5C 66.5,215.833 66.5,216.167 66.5,216.5C 64.2512,215.92 62.5846,214.587 61.5,212.5C 61.3433,211.127 61.51,209.793 62,208.5C 65.8658,205.665 69.3658,202.498 72.5,199C 74.8333,197.333 77.1667,195.667 79.5,194C 80.7932,193.51 82.1266,193.343 83.5,193.5 Z"/></g>
<g><path style="opacity:1" fill="#1067ff" d="M 89.5,198.5 C 90.5,198.5 91.5,198.5 92.5,198.5C 92.5,198.833 92.5,199.167 92.5,199.5C 89.757,200.388 87.0904,201.555 84.5,203C 79.4945,207.673 74.8278,212.673 70.5,218C 71.3805,218.708 72.0472,219.542 72.5,220.5C 70.9731,220.573 69.9731,219.906 69.5,218.5C 69.0766,217.735 68.7432,216.902 68.5,216C 71.6353,211.403 75.6353,207.736 80.5,205C 82.4049,203.185 84.0716,201.185 85.5,199C 86.7932,198.51 88.1266,198.343 89.5,198.5 Z"/></g>
<g><path style="opacity:1" fill="#1075ff" d="M 88.5,197.5 C 89.1667,197.5 89.5,197.833 89.5,198.5C 88.1266,198.343 86.7932,198.51 85.5,199C 84.0716,201.185 82.4049,203.185 80.5,205C 75.6353,207.736 71.6353,211.403 68.5,216C 68.7432,216.902 69.0766,217.735 69.5,218.5C 67.9731,218.573 66.9731,217.906 66.5,216.5C 66.5,216.167 66.5,215.833 66.5,215.5C 66.8588,213.629 67.8588,212.129 69.5,211C 75.116,207.384 80.116,203.051 84.5,198C 85.7932,197.51 87.1266,197.343 88.5,197.5 Z"/></g>
<g><path style="opacity:0.95" fill="#ff0b09" d="M 221.5,212.5 C 219.167,216.833 215.833,220.167 211.5,222.5C 208.99,222.073 206.657,221.407 204.5,220.5C 204.158,219.662 203.492,219.328 202.5,219.5C 201.602,218.842 200.602,218.176 199.5,217.5C 200.861,215.972 202.028,214.305 203,212.5C 208,208.833 213,205.167 218,201.5C 219.674,205.021 220.84,208.687 221.5,212.5 Z"/></g>
<g><path style="opacity:1" fill="#ff0bbe" d="M 180.5,196.5 C 180.833,196.5 181.167,196.5 181.5,196.5C 184.157,196.935 186.491,197.935 188.5,199.5C 187.127,199.343 185.793,199.51 184.5,200C 175.117,208.385 166.117,217.052 157.5,226C 154.991,227.421 152.657,229.088 150.5,231C 151.094,231.464 151.761,231.631 152.5,231.5C 149.913,232.749 147.246,233.749 144.5,234.5C 143.833,234.5 143.167,234.5 142.5,234.5C 142.34,232.801 142.506,231.134 143,229.5C 156.031,218.96 168.531,207.96 180.5,196.5 Z"/></g>
<g><path style="opacity:1" fill="#ff0f7c" d="M 195.5,202.5 C 196.167,202.5 196.5,202.833 196.5,203.5C 194.745,204.072 193.078,204.906 191.5,206C 186.044,210.288 181.044,215.121 176.5,220.5C 177.689,221.429 179.022,221.762 180.5,221.5C 177.833,222.833 175.167,224.167 172.5,225.5C 170.883,226.038 169.216,226.371 167.5,226.5C 166.448,226.649 165.448,226.483 164.5,226C 173.126,218.343 181.793,210.676 190.5,203C 192.134,202.506 193.801,202.34 195.5,202.5 Z"/></g>
<g><path style="opacity:1" fill="#ff255d" d="M 219.5,186.5 C 219.5,189.5 219.5,192.5 219.5,195.5C 218.837,193.958 218.17,192.291 217.5,190.5C 215.327,193.172 212.827,195.506 210,197.5C 208.351,200.436 206.851,203.436 205.5,206.5C 199.683,208.974 194.683,212.641 190.5,217.5C 194.452,218.494 198.452,219.16 202.5,219.5C 203.492,219.328 204.158,219.662 204.5,220.5C 197.646,220.176 190.979,220.509 184.5,221.5C 183.167,221.5 181.833,221.5 180.5,221.5C 179.022,221.762 177.689,221.429 176.5,220.5C 181.044,215.121 186.044,210.288 191.5,206C 193.078,204.906 194.745,204.072 196.5,203.5C 199.308,204.929 202.308,205.595 205.5,205.5C 205.5,203.833 205.5,202.167 205.5,200.5C 205.238,199.022 205.571,197.689 206.5,196.5C 210.012,192.489 213.679,188.655 217.5,185C 218.816,184.472 219.483,184.972 219.5,186.5 Z"/></g>
<g><path style="opacity:1" fill="#ff072e" d="M 219.5,195.5 C 219.198,198.059 219.532,200.393 220.5,202.5C 221.167,205.5 221.833,208.5 222.5,211.5C 222.5,212.167 222.167,212.5 221.5,212.5C 220.84,208.687 219.674,205.021 218,201.5C 213,205.167 208,208.833 203,212.5C 202.028,214.305 200.861,215.972 199.5,217.5C 200.602,218.176 201.602,218.842 202.5,219.5C 198.452,219.16 194.452,218.494 190.5,217.5C 194.683,212.641 199.683,208.974 205.5,206.5C 206.851,203.436 208.351,200.436 210,197.5C 212.827,195.506 215.327,193.172 217.5,190.5C 218.17,192.291 218.837,193.958 219.5,195.5 Z"/></g>
<g><path style="opacity:1" fill="#0044ff" d="M 92.5,201.5 C 92.6495,202.552 92.4828,203.552 92,204.5C 88.5181,208.312 84.6847,211.812 80.5,215C 78.9751,216.009 77.3084,216.509 75.5,216.5C 79.5335,209.809 85.2001,204.809 92.5,201.5 Z"/></g>
<g><path style="opacity:1" fill="#ff099a" d="M 188.5,199.5 C 191.272,199.759 193.605,200.759 195.5,202.5C 193.801,202.34 192.134,202.506 190.5,203C 181.793,210.676 173.126,218.343 164.5,226C 165.448,226.483 166.448,226.649 167.5,226.5C 163.917,228.36 160.251,230.027 156.5,231.5C 155.167,231.5 153.833,231.5 152.5,231.5C 151.761,231.631 151.094,231.464 150.5,231C 152.657,229.088 154.991,227.421 157.5,226C 166.117,217.052 175.117,208.385 184.5,200C 185.793,199.51 187.127,199.343 188.5,199.5 Z"/></g>
<g><path style="opacity:1" fill="#1b57ff" d="M 92.5,199.5 C 95.8112,199.883 98.8112,200.883 101.5,202.5C 98.5448,201.841 95.5448,201.508 92.5,201.5C 85.2001,204.809 79.5335,209.809 75.5,216.5C 73.2157,217.677 72.8823,219.344 74.5,221.5C 73.5084,221.672 72.8417,221.338 72.5,220.5C 72.0472,219.542 71.3805,218.708 70.5,218C 74.8278,212.673 79.4945,207.673 84.5,203C 87.0904,201.555 89.757,200.388 92.5,199.5 Z"/></g>
<g><path style="opacity:1" fill="#c70fff" d="M 155.5,200.5 C 156.167,200.5 156.833,200.5 157.5,200.5C 155.658,204.508 152.658,207.341 148.5,209C 145.508,212.992 142.174,216.658 138.5,220C 132.322,224.353 126.656,229.186 121.5,234.5C 118.5,234.5 115.5,234.5 112.5,234.5C 111.167,234.5 109.833,234.5 108.5,234.5C 108.5,234.167 108.5,233.833 108.5,233.5C 110.199,233.66 111.866,233.494 113.5,233C 116.328,230.752 119.328,228.752 122.5,227C 127.755,221.477 133.255,216.31 139,211.5C 139.273,209.671 140.107,208.171 141.5,207C 138.854,206.503 136.187,206.336 133.5,206.5C 140.994,205.134 148.328,203.134 155.5,200.5 Z"/></g>
<g><path style="opacity:1" fill="#1d05ff" d="M 112.5,205.5 C 113.568,206.434 114.901,206.768 116.5,206.5C 116.099,210.07 114.099,212.236 110.5,213C 105.694,218.228 100.694,223.228 95.5,228C 94.552,228.483 93.552,228.649 92.5,228.5C 90.9582,227.699 89.2915,227.366 87.5,227.5C 85.8984,225.926 83.8984,225.259 81.5,225.5C 81.1667,224.5 80.5,223.833 79.5,223.5C 79.3893,222.883 79.056,222.383 78.5,222C 83.9706,215.458 89.9706,209.458 96.5,204C 101.747,204.79 107.08,205.29 112.5,205.5 Z"/></g>
<g><path style="opacity:1" fill="#ff04db" d="M 180.5,196.5 C 168.531,207.96 156.031,218.96 143,229.5C 142.506,231.134 142.34,232.801 142.5,234.5C 141.5,234.5 140.5,234.5 139.5,234.5C 138.167,234.5 136.833,234.5 135.5,234.5C 133.344,234.128 133.344,233.128 135.5,231.5C 146.968,222.863 157.635,213.363 167.5,203C 170.167,201 172.833,199 175.5,197C 177.134,196.506 178.801,196.34 180.5,196.5 Z"/></g>
<g><path style="opacity:1" fill="#1331ff" d="M 92.5,201.5 C 95.5448,201.508 98.5448,201.841 101.5,202.5C 105.397,203.055 109.063,204.055 112.5,205.5C 107.08,205.29 101.747,204.79 96.5,204C 89.9706,209.458 83.9706,215.458 78.5,222C 79.056,222.383 79.3893,222.883 79.5,223.5C 77.8333,222.833 76.1667,222.167 74.5,221.5C 72.8823,219.344 73.2157,217.677 75.5,216.5C 77.3084,216.509 78.9751,216.009 80.5,215C 84.6847,211.812 88.5181,208.312 92,204.5C 92.4828,203.552 92.6495,202.552 92.5,201.5 Z"/></g>
<g><path style="opacity:1" fill="#6302ff" d="M 112.5,205.5 C 115.279,205.279 117.946,205.612 120.5,206.5C 123.641,207.321 126.975,207.821 130.5,208C 122.794,216.352 114.46,224.019 105.5,231C 104.207,231.49 102.873,231.657 101.5,231.5C 99.5648,230.85 97.5648,230.517 95.5,230.5C 94.5,229.833 93.5,229.167 92.5,228.5C 93.552,228.649 94.552,228.483 95.5,228C 100.694,223.228 105.694,218.228 110.5,213C 114.099,212.236 116.099,210.07 116.5,206.5C 114.901,206.768 113.568,206.434 112.5,205.5 Z"/></g>
<g><path style="opacity:1" fill="#a307ff" d="M 120.5,206.5 C 124.833,206.5 129.167,206.5 133.5,206.5C 136.187,206.336 138.854,206.503 141.5,207C 140.107,208.171 139.273,209.671 139,211.5C 133.255,216.31 127.755,221.477 122.5,227C 119.328,228.752 116.328,230.752 113.5,233C 111.866,233.494 110.199,233.66 108.5,233.5C 106.194,233.007 103.861,232.674 101.5,232.5C 101.5,232.167 101.5,231.833 101.5,231.5C 102.873,231.657 104.207,231.49 105.5,231C 114.46,224.019 122.794,216.352 130.5,208C 126.975,207.821 123.641,207.321 120.5,206.5 Z"/></g>
<g><path style="opacity:1" fill="#ed00fe" d="M 121.5,234.5 C 126.656,229.186 132.322,224.353 138.5,220C 142.174,216.658 145.508,212.992 148.5,209C 152.658,207.341 155.658,204.508 157.5,200.5C 159.679,199.941 161.846,199.274 164,198.5C 165.257,198.85 165.591,199.517 165,200.5C 158.188,205.742 152.021,211.742 146.5,218.5C 145.167,219.167 143.833,219.833 142.5,220.5C 138.025,225.23 133.359,229.73 128.5,234C 126.19,234.497 123.857,234.663 121.5,234.5 Z"/></g>
<g><path style="opacity:1" fill="#747aff" d="M 74.5,221.5 C 76.1667,222.167 77.8333,222.833 79.5,223.5C 80.5,223.833 81.1667,224.5 81.5,225.5C 78.4542,225.275 76.1209,223.942 74.5,221.5 Z"/></g>
<g><path style="opacity:1" fill="#ffc2d8" d="M 180.5,221.5 C 181.833,221.5 183.167,221.5 184.5,221.5C 180.915,223.806 176.915,225.139 172.5,225.5C 175.167,224.167 177.833,222.833 180.5,221.5 Z"/></g>
<g><path style="opacity:1" fill="#6b5dff" d="M 81.5,225.5 C 83.8984,225.259 85.8984,225.926 87.5,227.5C 86.8333,227.5 86.1667,227.5 85.5,227.5C 83.847,227.34 82.5137,226.674 81.5,225.5 Z"/></g>
<g><path style="opacity:1" fill="#fc1df6" d="M 181.5,196.5 C 181.167,196.5 180.833,196.5 180.5,196.5C 178.801,196.34 177.134,196.506 175.5,197C 172.833,199 170.167,201 167.5,203C 157.635,213.363 146.968,222.863 135.5,231.5C 133.344,233.128 133.344,234.128 135.5,234.5C 130.695,235.487 125.695,235.821 120.5,235.5C 117.615,235.806 114.948,235.473 112.5,234.5C 115.5,234.5 118.5,234.5 121.5,234.5C 123.857,234.663 126.19,234.497 128.5,234C 133.359,229.73 138.025,225.23 142.5,220.5C 143.833,219.833 145.167,219.167 146.5,218.5C 152.021,211.742 158.188,205.742 165,200.5C 165.591,199.517 165.257,198.85 164,198.5C 161.846,199.274 159.679,199.941 157.5,200.5C 157.833,199.833 158.167,199.167 158.5,198.5C 166.1,195.602 173.767,194.935 181.5,196.5 Z"/></g>
<g><path style="opacity:1" fill="#7b54ff" d="M 87.5,227.5 C 89.2915,227.366 90.9582,227.699 92.5,228.5C 93.5,229.167 94.5,229.833 95.5,230.5C 92.4221,230.38 89.7554,229.38 87.5,227.5 Z"/></g>
<g><path style="opacity:1" fill="#ffa7d1" d="M 172.5,225.5 C 167.79,228.852 162.457,230.852 156.5,231.5C 160.251,230.027 163.917,228.36 167.5,226.5C 169.216,226.371 170.883,226.038 172.5,225.5 Z"/></g>
<g><path style="opacity:1" fill="#d8ceff" d="M 85.5,227.5 C 86.1667,227.5 86.8333,227.5 87.5,227.5C 89.7554,229.38 92.4221,230.38 95.5,230.5C 96.1667,231.167 96.8333,231.833 97.5,232.5C 92.7679,232.373 88.7679,230.707 85.5,227.5 Z"/></g>
<g><path style="opacity:1" fill="#aa78ff" d="M 95.5,230.5 C 97.5648,230.517 99.5648,230.85 101.5,231.5C 101.5,231.833 101.5,232.167 101.5,232.5C 100.167,232.5 98.8333,232.5 97.5,232.5C 96.8333,231.833 96.1667,231.167 95.5,230.5 Z"/></g>
<g><path style="opacity:1" fill="#d2a4ff" d="M 101.5,232.5 C 103.861,232.674 106.194,233.007 108.5,233.5C 108.5,233.833 108.5,234.167 108.5,234.5C 105.848,234.59 103.515,233.924 101.5,232.5 Z"/></g>
<g><path style="opacity:1" fill="#ffcded" d="M 152.5,231.5 C 153.833,231.5 155.167,231.5 156.5,231.5C 153.069,234.114 149.069,235.114 144.5,234.5C 147.246,233.749 149.913,232.749 152.5,231.5 Z"/></g>
<g><path style="opacity:0.996" fill="#febafa" d="M 135.5,234.5 C 136.833,234.5 138.167,234.5 139.5,234.5C 136.135,236.039 132.469,236.706 128.5,236.5C 125.645,236.497 122.978,236.164 120.5,235.5C 125.695,235.821 130.695,235.487 135.5,234.5 Z"/></g>
</svg>
