<?xml version="1.0" encoding="UTF-8"?>
<!DOCTYPE svg PUBLIC "-//W3C//DTD SVG 1.1//EN" "http://www.w3.org/Graphics/SVG/1.1/DTD/svg11.dtd">
<svg xmlns="http://www.w3.org/2000/svg" version="1.1" width="256px" height="256px" style="shape-rendering:geometricPrecision; text-rendering:geometricPrecision; image-rendering:optimizeQuality; fill-rule:evenodd; clip-rule:evenodd" xmlns:xlink="http://www.w3.org/1999/xlink">
<g><path style="opacity:0.874" fill="#fefefe" d="M 50.5,20.5 C 84.1683,20.3333 117.835,20.5 151.5,21C 152.329,47.4279 152.829,73.9279 153,100.5C 156.912,97.4591 161.079,94.7924 165.5,92.5C 169.747,94.5821 173.581,97.2488 177,100.5C 177.333,74.1667 177.667,47.8333 178,21.5C 186.755,20.3503 195.588,20.1837 204.5,21C 209.847,23.0154 213.014,26.8488 214,32.5C 214.667,95.8333 214.667,159.167 214,222.5C 213.492,227.012 211.325,230.512 207.5,233C 154.892,234.653 102.225,234.987 49.5,234C 47.04,232.542 44.8734,230.709 43,228.5C 41.3405,162.249 41.0072,95.9154 42,29.5C 43.6878,25.3148 46.5212,22.3148 50.5,20.5 Z"/></g>
<g><path style="opacity:1" fill="#ff6800" d="M 84.5,26.5 C 80.7735,28.5435 77.4402,31.2101 74.5,34.5C 73.2638,35.2458 71.9305,35.5792 70.5,35.5C 70.5,32.5 70.5,29.5 70.5,26.5C 75.1667,26.5 79.8333,26.5 84.5,26.5 Z"/></g>
<g><path style="opacity:1" fill="#01fe44" d="M 202.5,27.5 C 201.417,27.5394 200.417,27.8728 199.5,28.5C 197.5,30.5 195.5,32.5 193.5,34.5C 192.264,35.2458 190.93,35.5792 189.5,35.5C 189.5,36.5 189.5,37.5 189.5,38.5C 187.053,38.615 185.053,39.615 183.5,41.5C 183.5,36.5 183.5,31.5 183.5,26.5C 190.022,26.1765 196.355,26.5098 202.5,27.5 Z"/></g>
<g><path style="opacity:1" fill="#ff8d00" d="M 84.5,26.5 C 86.8333,26.5 89.1667,26.5 91.5,26.5C 89.5994,28.7957 87.2661,30.629 84.5,32C 81.1545,37.5185 76.4878,41.3519 70.5,43.5C 70.5,40.8333 70.5,38.1667 70.5,35.5C 71.9305,35.5792 73.2638,35.2458 74.5,34.5C 77.4402,31.2101 80.7735,28.5435 84.5,26.5 Z"/></g>
<g><path style="opacity:1" fill="#ff3600" d="M 64.5,34.5 C 60.9171,35.4542 58.2504,37.6209 56.5,41C 52.8426,41.8371 49.8426,43.6704 47.5,46.5C 43.2613,31.0846 48.9279,24.418 64.5,26.5C 64.5,29.1667 64.5,31.8333 64.5,34.5 Z"/></g>
<g><path style="opacity:1" fill="#00fe66" d="M 202.5,27.5 C 203.492,27.3284 204.158,27.6618 204.5,28.5C 202.694,30.0894 201.361,32.0894 200.5,34.5C 195.396,39.9454 189.73,44.612 183.5,48.5C 183.5,46.1667 183.5,43.8333 183.5,41.5C 185.053,39.615 187.053,38.615 189.5,38.5C 189.5,37.5 189.5,36.5 189.5,35.5C 190.93,35.5792 192.264,35.2458 193.5,34.5C 195.5,32.5 197.5,30.5 199.5,28.5C 200.417,27.8728 201.417,27.5394 202.5,27.5 Z"/></g>
<g><path style="opacity:1" fill="#ffb100" d="M 91.5,26.5 C 94.8333,26.5 98.1667,26.5 101.5,26.5C 98.1206,29.8822 94.4539,32.8822 90.5,35.5C 87.2852,37.2743 83.9518,38.7743 80.5,40C 77.6528,43.6806 74.3195,46.8472 70.5,49.5C 70.5,47.5 70.5,45.5 70.5,43.5C 76.4878,41.3519 81.1545,37.5185 84.5,32C 87.2661,30.629 89.5994,28.7957 91.5,26.5 Z"/></g>
<g><path style="opacity:1" fill="#03fe8f" d="M 204.5,28.5 C 205.458,28.9528 206.292,29.6195 207,30.5C 207.497,33.146 207.664,35.8127 207.5,38.5C 206.417,38.5394 205.417,38.8728 204.5,39.5C 198.822,45.0023 193.156,50.5023 187.5,56C 186.255,56.7914 184.922,57.2914 183.5,57.5C 183.5,54.5 183.5,51.5 183.5,48.5C 189.73,44.612 195.396,39.9454 200.5,34.5C 201.361,32.0894 202.694,30.0894 204.5,28.5 Z"/></g>
<g><path style="opacity:1" fill="#ffc700" d="M 101.5,26.5 C 103.167,26.5 104.833,26.5 106.5,26.5C 102.883,30.3164 98.5492,33.1498 93.5,35C 86.1044,41.345 78.4378,47.1783 70.5,52.5C 70.5,51.5 70.5,50.5 70.5,49.5C 74.3195,46.8472 77.6528,43.6806 80.5,40C 83.9518,38.7743 87.2852,37.2743 90.5,35.5C 94.4539,32.8822 98.1206,29.8822 101.5,26.5 Z"/></g>
<g><path style="opacity:1" fill="#f8fa00" d="M 108.5,26.5 C 112.5,26.5 116.5,26.5 120.5,26.5C 114.456,31.0342 108.789,36.2009 103.5,42C 101.754,42.4709 100.087,43.1376 98.5,44C 92.7737,48.4895 87.107,53.1562 81.5,58C 80.552,58.4828 79.552,58.6495 78.5,58.5C 78.5,59.5 78.5,60.5 78.5,61.5C 75.615,62.3822 72.9483,63.7155 70.5,65.5C 70.5,62.8333 70.5,60.1667 70.5,57.5C 74.6484,54.5896 78.9817,51.9229 83.5,49.5C 86.1629,47.3692 88.4962,44.8692 90.5,42C 92.4595,41.0691 94.4595,40.2357 96.5,39.5C 100.862,35.4729 104.862,31.1395 108.5,26.5 Z"/></g>
<g><path style="opacity:1" fill="#dfff00" d="M 120.5,26.5 C 122.5,26.5 124.5,26.5 126.5,26.5C 120.625,35.4755 112.625,42.1422 102.5,46.5C 98.1262,51.199 93.1262,55.199 87.5,58.5C 86.5713,59.6888 86.238,61.0222 86.5,62.5C 82.664,63.9847 79.3307,66.318 76.5,69.5C 74.5504,70.3721 72.5504,71.0388 70.5,71.5C 70.5,69.5 70.5,67.5 70.5,65.5C 72.9483,63.7155 75.615,62.3822 78.5,61.5C 78.5,60.5 78.5,59.5 78.5,58.5C 79.552,58.6495 80.552,58.4828 81.5,58C 87.107,53.1562 92.7737,48.4895 98.5,44C 100.087,43.1376 101.754,42.4709 103.5,42C 108.789,36.2009 114.456,31.0342 120.5,26.5 Z"/></g>
<g><path style="opacity:1" fill="#01feb7" d="M 207.5,38.5 C 207.5,40.5 207.5,42.5 207.5,44.5C 201.091,47.7432 195.758,52.2432 191.5,58C 189.092,60.2166 186.425,62.0499 183.5,63.5C 183.5,61.5 183.5,59.5 183.5,57.5C 184.922,57.2914 186.255,56.7914 187.5,56C 193.156,50.5023 198.822,45.0023 204.5,39.5C 205.417,38.8728 206.417,38.5394 207.5,38.5 Z"/></g>
<g><path style="opacity:1" fill="#ffdd00" d="M 106.5,26.5 C 107.167,26.5 107.833,26.5 108.5,26.5C 104.862,31.1395 100.862,35.4729 96.5,39.5C 94.4595,40.2357 92.4595,41.0691 90.5,42C 88.4962,44.8692 86.1629,47.3692 83.5,49.5C 78.9817,51.9229 74.6484,54.5896 70.5,57.5C 70.5,55.8333 70.5,54.1667 70.5,52.5C 78.4378,47.1783 86.1044,41.345 93.5,35C 98.5492,33.1498 102.883,30.3164 106.5,26.5 Z"/></g>
<g><path style="opacity:1" fill="#ff7200" d="M 64.5,34.5 C 64.5,38.1667 64.5,41.8333 64.5,45.5C 59.7958,47.8521 55.1291,50.1854 50.5,52.5C 50.5,53.5 50.5,54.5 50.5,55.5C 49.5,55.5 48.5,55.5 47.5,55.5C 47.5,52.5 47.5,49.5 47.5,46.5C 49.8426,43.6704 52.8426,41.8371 56.5,41C 58.2504,37.6209 60.9171,35.4542 64.5,34.5 Z"/></g>
<g><path style="opacity:1" fill="#9eff00" d="M 137.5,26.5 C 139.167,26.5 140.833,26.5 142.5,26.5C 137.892,32.3173 132.225,36.8173 125.5,40C 124.46,43.5453 122.127,45.3786 118.5,45.5C 118.271,47.433 117.438,49.0997 116,50.5C 109.91,53.9582 104.744,58.4582 100.5,64C 98.913,64.8624 97.2464,65.5291 95.5,66C 87.2911,72.7148 78.9578,79.2148 70.5,85.5C 70.5,83.5 70.5,81.5 70.5,79.5C 76.3962,74.8935 82.3962,70.3935 88.5,66C 90.3289,62.1722 93.3289,59.8389 97.5,59C 100.833,56.3333 104.167,53.6667 107.5,51C 109.451,47.936 111.785,45.2693 114.5,43C 117.151,40.8602 120.151,39.3602 123.5,38.5C 123.393,36.0968 124.393,34.2635 126.5,33C 130.455,31.156 134.121,28.9894 137.5,26.5 Z"/></g>
<g><path style="opacity:1" fill="#01ffd2" d="M 207.5,44.5 C 207.5,46.8333 207.5,49.1667 207.5,51.5C 198.943,56.3925 190.943,62.0591 183.5,68.5C 183.5,66.8333 183.5,65.1667 183.5,63.5C 186.425,62.0499 189.092,60.2166 191.5,58C 195.758,52.2432 201.091,47.7432 207.5,44.5 Z"/></g>
<g><path style="opacity:1" fill="#ffa500" d="M 64.5,45.5 C 64.5,48.1667 64.5,50.8333 64.5,53.5C 61.7099,55.1216 59.3765,57.2883 57.5,60C 53.7713,61.2549 50.438,63.0882 47.5,65.5C 47.5,62.1667 47.5,58.8333 47.5,55.5C 48.5,55.5 49.5,55.5 50.5,55.5C 50.5,54.5 50.5,53.5 50.5,52.5C 55.1291,50.1854 59.7958,47.8521 64.5,45.5 Z"/></g>
<g><path style="opacity:1" fill="#b9ff00" d="M 126.5,26.5 C 130.167,26.5 133.833,26.5 137.5,26.5C 134.121,28.9894 130.455,31.156 126.5,33C 124.393,34.2635 123.393,36.0968 123.5,38.5C 120.151,39.3602 117.151,40.8602 114.5,43C 111.785,45.2693 109.451,47.936 107.5,51C 104.167,53.6667 100.833,56.3333 97.5,59C 93.3289,59.8389 90.3289,62.1722 88.5,66C 82.3962,70.3935 76.3962,74.8935 70.5,79.5C 70.5,76.8333 70.5,74.1667 70.5,71.5C 72.5504,71.0388 74.5504,70.3721 76.5,69.5C 79.3307,66.318 82.664,63.9847 86.5,62.5C 86.238,61.0222 86.5713,59.6888 87.5,58.5C 93.1262,55.199 98.1262,51.199 102.5,46.5C 112.625,42.1422 120.625,35.4755 126.5,26.5 Z"/></g>
<g><path style="opacity:1" fill="#7dff00" d="M 142.5,26.5 C 143.833,26.5 145.167,26.5 146.5,26.5C 146.5,27.8333 146.5,29.1667 146.5,30.5C 136.857,40.1711 126.191,48.6711 114.5,56C 106.705,63.8087 98.3712,70.8087 89.5,77C 82.3441,81.0189 76.0107,85.8522 70.5,91.5C 70.5,89.5 70.5,87.5 70.5,85.5C 78.9578,79.2148 87.2911,72.7148 95.5,66C 97.2464,65.5291 98.913,64.8624 100.5,64C 104.744,58.4582 109.91,53.9582 116,50.5C 117.438,49.0997 118.271,47.433 118.5,45.5C 122.127,45.3786 124.46,43.5453 125.5,40C 132.225,36.8173 137.892,32.3173 142.5,26.5 Z"/></g>
<g><path style="opacity:1" fill="#02fef0" d="M 207.5,51.5 C 207.5,53.5 207.5,55.5 207.5,57.5C 199.223,63.1071 191.223,69.1071 183.5,75.5C 183.5,73.1667 183.5,70.8333 183.5,68.5C 190.943,62.0591 198.943,56.3925 207.5,51.5 Z"/></g>
<g><path style="opacity:1" fill="#02e5ff" d="M 207.5,57.5 C 207.5,60.1667 207.5,62.8333 207.5,65.5C 199.817,71.6694 191.817,77.3361 183.5,82.5C 183.5,80.1667 183.5,77.8333 183.5,75.5C 191.223,69.1071 199.223,63.1071 207.5,57.5 Z"/></g>
<g><path style="opacity:1" fill="#ffd500" d="M 64.5,53.5 C 64.5,56.8333 64.5,60.1667 64.5,63.5C 61.96,66.6068 58.6267,68.4401 54.5,69C 52.6388,72.025 50.3055,74.525 47.5,76.5C 47.5,72.8333 47.5,69.1667 47.5,65.5C 50.438,63.0882 53.7713,61.2549 57.5,60C 59.3765,57.2883 61.7099,55.1216 64.5,53.5 Z"/></g>
<g><path style="opacity:1" fill="#f8fa00" d="M 64.5,63.5 C 64.5,66.5 64.5,69.5 64.5,72.5C 63.0695,72.4208 61.7362,72.7542 60.5,73.5C 58.5,75.5 56.5,77.5 54.5,79.5C 53.2638,80.2458 51.9305,80.5792 50.5,80.5C 50.9118,82.9726 49.9118,84.3059 47.5,84.5C 47.5,81.8333 47.5,79.1667 47.5,76.5C 50.3055,74.525 52.6388,72.025 54.5,69C 58.6267,68.4401 61.96,66.6068 64.5,63.5 Z"/></g>
<g><path style="opacity:1" fill="#01c7ff" d="M 207.5,65.5 C 207.5,67.8333 207.5,70.1667 207.5,72.5C 204.526,73.6508 201.526,74.8175 198.5,76C 193.629,80.7072 188.629,85.2072 183.5,89.5C 183.5,87.1667 183.5,84.8333 183.5,82.5C 191.817,77.3361 199.817,71.6694 207.5,65.5 Z"/></g>
<g><path style="opacity:1" fill="#ceff00" d="M 64.5,72.5 C 64.5,75.5 64.5,78.5 64.5,81.5C 63.2921,82.2341 61.9587,82.5674 60.5,82.5C 60.5,83.5 60.5,84.5 60.5,85.5C 56.8731,85.6214 54.5398,87.4547 53.5,91C 51.5932,92.122 49.5932,92.9553 47.5,93.5C 47.5,90.5 47.5,87.5 47.5,84.5C 49.9118,84.3059 50.9118,82.9726 50.5,80.5C 51.9305,80.5792 53.2638,80.2458 54.5,79.5C 56.5,77.5 58.5,75.5 60.5,73.5C 61.7362,72.7542 63.0695,72.4208 64.5,72.5 Z"/></g>
<g><path style="opacity:1" fill="#03a0ff" d="M 207.5,72.5 C 207.5,74.5 207.5,76.5 207.5,78.5C 198.917,83.7538 190.917,89.7538 183.5,96.5C 183.5,94.1667 183.5,91.8333 183.5,89.5C 188.629,85.2072 193.629,80.7072 198.5,76C 201.526,74.8175 204.526,73.6508 207.5,72.5 Z"/></g>
<g><path style="opacity:1" fill="#12ff08" d="M 146.5,46.5 C 146.5,51.1667 146.5,55.8333 146.5,60.5C 144.692,60.4914 143.025,60.9914 141.5,62C 132.07,70.415 122.737,78.915 113.5,87.5C 108.037,90.7947 102.704,94.2947 97.5,98C 93.5558,103.484 88.5558,107.817 82.5,111C 79.5946,115.957 75.5946,119.79 70.5,122.5C 70.5,116.833 70.5,111.167 70.5,105.5C 75.3781,103.547 79.3781,100.38 82.5,96C 92.1381,89.0243 101.138,81.3577 109.5,73C 117.61,69.2843 124.61,64.1177 130.5,57.5C 135.862,53.8234 141.196,50.1568 146.5,46.5 Z"/></g>
<g><path style="opacity:1" fill="#44ff00" d="M 146.5,30.5 C 146.5,35.8333 146.5,41.1667 146.5,46.5C 141.196,50.1568 135.862,53.8234 130.5,57.5C 124.61,64.1177 117.61,69.2843 109.5,73C 101.138,81.3577 92.1381,89.0243 82.5,96C 79.3781,100.38 75.3781,103.547 70.5,105.5C 70.5,100.833 70.5,96.1667 70.5,91.5C 76.0107,85.8522 82.3441,81.0189 89.5,77C 98.3712,70.8087 106.705,63.8087 114.5,56C 126.191,48.6711 136.857,40.1711 146.5,30.5 Z"/></g>
<g><path style="opacity:1" fill="#00fe34" d="M 146.5,60.5 C 146.5,63.5 146.5,66.5 146.5,69.5C 141.81,74.3129 136.143,77.8129 129.5,80C 123.289,85.2577 116.956,90.2577 110.5,95C 106.696,99.8081 102.03,103.475 96.5,106C 94.3266,109.339 91.6599,112.172 88.5,114.5C 86.6147,115.609 84.6147,116.443 82.5,117C 81.1667,118.667 79.8333,120.333 78.5,122C 75.4076,122.854 72.7409,124.354 70.5,126.5C 70.5,125.167 70.5,123.833 70.5,122.5C 75.5946,119.79 79.5946,115.957 82.5,111C 88.5558,107.817 93.5558,103.484 97.5,98C 102.704,94.2947 108.037,90.7947 113.5,87.5C 122.737,78.915 132.07,70.415 141.5,62C 143.025,60.9914 144.692,60.4914 146.5,60.5 Z"/></g>
<g><path style="opacity:1" fill="#01fe7a" d="M 146.5,75.5 C 146.5,76.8333 146.5,78.1667 146.5,79.5C 140.985,83.8491 135.985,88.6825 131.5,94C 128.417,95.1392 125.417,96.4725 122.5,98C 105.268,112.409 87.9348,126.576 70.5,140.5C 70.5,138.833 70.5,137.167 70.5,135.5C 75.2414,130.948 80.2414,126.615 85.5,122.5C 86.7362,121.754 88.0695,121.421 89.5,121.5C 89.281,120.325 89.6143,119.325 90.5,118.5C 108.977,103.82 127.644,89.4862 146.5,75.5 Z"/></g>
<g><path style="opacity:1" fill="#027cff" d="M 207.5,78.5 C 207.5,80.5 207.5,82.5 207.5,84.5C 199.208,90.4823 191.208,96.8156 183.5,103.5C 183.5,101.167 183.5,98.8333 183.5,96.5C 190.917,89.7538 198.917,83.7538 207.5,78.5 Z"/></g>
<g><path style="opacity:1" fill="#85ff00" d="M 64.5,81.5 C 64.5,87.1667 64.5,92.8333 64.5,98.5C 59.1179,103.217 53.4513,107.55 47.5,111.5C 47.5,105.5 47.5,99.5 47.5,93.5C 49.5932,92.9553 51.5932,92.122 53.5,91C 54.5398,87.4547 56.8731,85.6214 60.5,85.5C 60.5,84.5 60.5,83.5 60.5,82.5C 61.9587,82.5674 63.2921,82.2341 64.5,81.5 Z"/></g>
<g><path style="opacity:1" fill="#01fef8" d="M 146.5,100.5 C 146.5,102.167 146.5,103.833 146.5,105.5C 121.139,125.203 95.8052,144.869 70.5,164.5C 70.5,161.833 70.5,159.167 70.5,156.5C 77.7198,152.181 85.0531,147.848 92.5,143.5C 95.9921,138.342 100.659,134.675 106.5,132.5C 118.961,120.911 132.295,110.245 146.5,100.5 Z"/></g>
<g><path style="opacity:1" fill="#0156ff" d="M 207.5,84.5 C 207.5,86.8333 207.5,89.1667 207.5,91.5C 204.824,93.8355 202.158,96.1689 199.5,98.5C 198.264,99.2458 196.93,99.5792 195.5,99.5C 195.649,100.552 195.483,101.552 195,102.5C 184.814,110.691 174.647,118.858 164.5,127C 163.552,127.483 162.552,127.649 161.5,127.5C 161.5,128.5 161.5,129.5 161.5,130.5C 160.07,130.421 158.736,130.754 157.5,131.5C 153.588,136.123 148.922,139.79 143.5,142.5C 142.376,143.914 141.376,145.414 140.5,147C 134.176,150.83 127.843,154.663 121.5,158.5C 117.456,162.868 112.789,166.535 107.5,169.5C 106.376,170.914 105.376,172.414 104.5,174C 98.9233,176.584 94.2566,180.251 90.5,185C 85.5912,188.094 80.5912,190.927 75.5,193.5C 75.4142,192.504 75.7476,191.671 76.5,191C 80.4016,188.781 84.0683,186.115 87.5,183C 88.448,182.517 89.448,182.351 90.5,182.5C 90.3433,181.127 90.51,179.793 91,178.5C 94.3308,176.59 96.8308,173.924 98.5,170.5C 104.263,166.906 109.596,162.739 114.5,158C 120.134,156.863 124.134,153.696 126.5,148.5C 144.135,135.963 161.469,122.963 178.5,109.5C 182.908,109.938 184.575,107.938 183.5,103.5C 191.208,96.8156 199.208,90.4823 207.5,84.5 Z"/></g>
<g><path style="opacity:1" fill="#01fe58" d="M 146.5,69.5 C 146.5,71.5 146.5,73.5 146.5,75.5C 127.644,89.4862 108.977,103.82 90.5,118.5C 89.6143,119.325 89.281,120.325 89.5,121.5C 88.0695,121.421 86.7362,121.754 85.5,122.5C 80.2414,126.615 75.2414,130.948 70.5,135.5C 70.5,132.5 70.5,129.5 70.5,126.5C 72.7409,124.354 75.4076,122.854 78.5,122C 79.8333,120.333 81.1667,118.667 82.5,117C 84.6147,116.443 86.6147,115.609 88.5,114.5C 91.6599,112.172 94.3266,109.339 96.5,106C 102.03,103.475 106.696,99.8081 110.5,95C 116.956,90.2577 123.289,85.2577 129.5,80C 136.143,77.8129 141.81,74.3129 146.5,69.5 Z"/></g>
<g><path style="opacity:1" fill="#01feb2" d="M 146.5,86.5 C 146.5,88.5 146.5,90.5 146.5,92.5C 142.548,95.1497 138.548,97.8163 134.5,100.5C 131.442,104.525 127.775,107.858 123.5,110.5C 121.085,111.305 118.751,112.305 116.5,113.5C 109.625,118.909 102.959,124.576 96.5,130.5C 92.1925,132.204 88.1925,134.204 84.5,136.5C 84.607,138.903 83.607,140.736 81.5,142C 77.5579,143.744 73.8912,145.911 70.5,148.5C 70.5,147.833 70.5,147.167 70.5,146.5C 72.9383,144.02 75.605,141.687 78.5,139.5C 81.2658,138.07 83.9325,136.57 86.5,135C 88.554,132.456 90.8873,130.123 93.5,128C 97.3298,126.298 100.996,124.465 104.5,122.5C 104.351,121.448 104.517,120.448 105,119.5C 111.238,112.262 118.405,106.095 126.5,101C 131.948,94.4467 138.615,89.6133 146.5,86.5 Z"/></g>
<g><path style="opacity:1" fill="#02eaff" d="M 146.5,105.5 C 146.5,106.5 146.5,107.5 146.5,108.5C 146.586,109.496 146.252,110.329 145.5,111C 140.735,115.767 135.401,119.767 129.5,123C 127.671,126.828 124.671,129.161 120.5,130C 106.775,140.074 94.1087,151.407 82.5,164C 80.1873,164.662 77.854,165.162 75.5,165.5C 75.031,168.643 73.3644,170.977 70.5,172.5C 70.5,169.833 70.5,167.167 70.5,164.5C 95.8052,144.869 121.139,125.203 146.5,105.5 Z"/></g>
<g><path style="opacity:1" fill="#00fec4" d="M 146.5,92.5 C 146.5,93.1667 146.5,93.8333 146.5,94.5C 136.434,101.722 126.767,109.555 117.5,118C 112.545,121.522 107.545,124.855 102.5,128C 101.552,128.483 100.552,128.649 99.5,128.5C 96.4861,135.676 91.1528,140.176 83.5,142C 79.2661,145.254 74.9328,148.421 70.5,151.5C 70.5,150.5 70.5,149.5 70.5,148.5C 73.8912,145.911 77.5579,143.744 81.5,142C 83.607,140.736 84.607,138.903 84.5,136.5C 88.1925,134.204 92.1925,132.204 96.5,130.5C 102.959,124.576 109.625,118.909 116.5,113.5C 118.751,112.305 121.085,111.305 123.5,110.5C 127.775,107.858 131.442,104.525 134.5,100.5C 138.548,97.8163 142.548,95.1497 146.5,92.5 Z"/></g>
<g><path style="opacity:1" fill="#24ff10" d="M 64.5,98.5 C 64.5,108.833 64.5,119.167 64.5,129.5C 58.4863,133.857 52.8197,138.523 47.5,143.5C 47.5,132.833 47.5,122.167 47.5,111.5C 53.4513,107.55 59.1179,103.217 64.5,98.5 Z"/></g>
<g><path style="opacity:1" fill="#0186ff" d="M 173.5,105.5 C 174.167,105.5 174.5,105.833 174.5,106.5C 169.907,110.088 165.573,114.088 161.5,118.5C 155.794,121.367 150.794,125.201 146.5,130C 145.552,130.483 144.552,130.649 143.5,130.5C 143.5,131.5 143.5,132.5 143.5,133.5C 139.873,133.621 137.54,135.455 136.5,139C 130.136,144.038 123.803,149.038 117.5,154C 113.15,154.667 110.15,157 108.5,161C 102.542,165.289 96.8756,169.956 91.5,175C 84.6049,179.912 77.6049,184.745 70.5,189.5C 70.5,187.833 70.5,186.167 70.5,184.5C 77.1545,180.82 83.1545,176.153 88.5,170.5C 93.6594,167.165 98.6594,163.665 103.5,160C 107.265,155.899 111.598,152.566 116.5,150C 117.721,147.966 119.055,146.133 120.5,144.5C 121.96,142.537 123.627,140.704 125.5,139C 134.265,134.444 142.598,129.111 150.5,123C 155.647,116.012 162.314,111.179 170.5,108.5C 170.5,107.5 170.5,106.5 170.5,105.5C 171.5,105.5 172.5,105.5 173.5,105.5 Z"/></g>
<g><path style="opacity:1" fill="#02c9ff" d="M 165.5,100.5 C 164.386,101.885 163.386,103.385 162.5,105C 155.462,110.178 148.462,115.345 141.5,120.5C 140.738,121.628 140.071,122.795 139.5,124C 133.993,127.996 128.326,131.829 122.5,135.5C 105.783,149.868 88.4492,163.535 70.5,176.5C 70.5,175.167 70.5,173.833 70.5,172.5C 73.3644,170.977 75.031,168.643 75.5,165.5C 77.854,165.162 80.1873,164.662 82.5,164C 94.1087,151.407 106.775,140.074 120.5,130C 124.671,129.161 127.671,126.828 129.5,123C 135.401,119.767 140.735,115.767 145.5,111C 146.252,110.329 146.586,109.496 146.5,108.5C 148.068,109.473 149.735,109.64 151.5,109C 156,105.833 160.5,102.667 165,99.5C 165.399,99.7284 165.565,100.062 165.5,100.5 Z"/></g>
<g><path style="opacity:1" fill="#016fff" d="M 174.5,106.5 C 176.23,107.026 177.564,108.026 178.5,109.5C 161.469,122.963 144.135,135.963 126.5,148.5C 124.134,153.696 120.134,156.863 114.5,158C 109.596,162.739 104.263,166.906 98.5,170.5C 96.8308,173.924 94.3308,176.59 91,178.5C 90.51,179.793 90.3433,181.127 90.5,182.5C 89.448,182.351 88.448,182.517 87.5,183C 84.0683,186.115 80.4016,188.781 76.5,191C 75.7476,191.671 75.4142,192.504 75.5,193.5C 73.5887,194.075 71.922,195.075 70.5,196.5C 70.5,194.167 70.5,191.833 70.5,189.5C 77.6049,184.745 84.6049,179.912 91.5,175C 96.8756,169.956 102.542,165.289 108.5,161C 110.15,157 113.15,154.667 117.5,154C 123.803,149.038 130.136,144.038 136.5,139C 137.54,135.455 139.873,133.621 143.5,133.5C 143.5,132.5 143.5,131.5 143.5,130.5C 144.552,130.649 145.552,130.483 146.5,130C 150.794,125.201 155.794,121.367 161.5,118.5C 165.573,114.088 169.907,110.088 174.5,106.5 Z"/></g>
<g><path style="opacity:1" fill="#01ffda" d="M 146.5,94.5 C 146.5,96.5 146.5,98.5 146.5,100.5C 132.295,110.245 118.961,120.911 106.5,132.5C 100.659,134.675 95.9921,138.342 92.5,143.5C 85.0531,147.848 77.7198,152.181 70.5,156.5C 70.5,154.833 70.5,153.167 70.5,151.5C 74.9328,148.421 79.2661,145.254 83.5,142C 91.1528,140.176 96.4861,135.676 99.5,128.5C 100.552,128.649 101.552,128.483 102.5,128C 107.545,124.855 112.545,121.522 117.5,118C 126.767,109.555 136.434,101.722 146.5,94.5 Z"/></g>
<g><path style="opacity:1" fill="#01fe97" d="M 146.5,79.5 C 146.5,81.8333 146.5,84.1667 146.5,86.5C 138.615,89.6133 131.948,94.4467 126.5,101C 118.405,106.095 111.238,112.262 105,119.5C 104.517,120.448 104.351,121.448 104.5,122.5C 100.996,124.465 97.3298,126.298 93.5,128C 90.8873,130.123 88.554,132.456 86.5,135C 83.9325,136.57 81.2658,138.07 78.5,139.5C 75.605,141.687 72.9383,144.02 70.5,146.5C 70.5,144.5 70.5,142.5 70.5,140.5C 87.9348,126.576 105.268,112.409 122.5,98C 125.417,96.4725 128.417,95.1392 131.5,94C 135.985,88.6825 140.985,83.8491 146.5,79.5 Z"/></g>
<g><path style="opacity:1" fill="#05fe65" d="M 64.5,129.5 C 64.5,135.167 64.5,140.833 64.5,146.5C 59.613,148.716 55.613,152.049 52.5,156.5C 50.8045,157.174 49.1379,157.841 47.5,158.5C 47.5,153.5 47.5,148.5 47.5,143.5C 52.8197,138.523 58.4863,133.857 64.5,129.5 Z"/></g>
<g><path style="opacity:1" fill="#fe00f8" d="M 207.5,155.5 C 207.5,157.5 207.5,159.5 207.5,161.5C 199.686,166.818 192.019,172.318 184.5,178C 180.833,180.333 177.833,183.333 175.5,187C 169.995,189.494 165.328,193.161 161.5,198C 157.941,199.63 154.608,201.63 151.5,204C 147.523,209.14 142.523,212.974 136.5,215.5C 132.421,219.906 128.421,224.24 124.5,228.5C 121.167,228.5 117.833,228.5 114.5,228.5C 145.694,204.494 176.694,180.161 207.5,155.5 Z"/></g>
<g><path style="opacity:1" fill="#04feb0" d="M 64.5,146.5 C 64.5,150.167 64.5,153.833 64.5,157.5C 61.4432,159.875 58.1098,161.875 54.5,163.5C 53.3793,166.957 51.046,168.957 47.5,169.5C 47.5,165.833 47.5,162.167 47.5,158.5C 49.1379,157.841 50.8045,157.174 52.5,156.5C 55.613,152.049 59.613,148.716 64.5,146.5 Z"/></g>
<g><path style="opacity:1" fill="#c600ff" d="M 207.5,145.5 C 207.5,146.833 207.5,148.167 207.5,149.5C 201.648,152.99 195.981,156.657 190.5,160.5C 189.614,161.325 189.281,162.325 189.5,163.5C 174.169,172.998 160.169,184.165 147.5,197C 141.7,198.886 137.033,202.22 133.5,207C 129.334,209.584 125.334,212.418 121.5,215.5C 119.885,216.154 118.218,216.654 116.5,217C 113.234,221.282 109.568,225.115 105.5,228.5C 102.5,228.5 99.5,228.5 96.5,228.5C 99.15,225.491 102.15,222.825 105.5,220.5C 111.088,219.214 115.421,216.214 118.5,211.5C 123.303,208.529 127.97,205.362 132.5,202C 133.167,200.667 133.833,199.333 134.5,198C 139.909,195.962 144.909,193.462 149.5,190.5C 149.351,189.448 149.517,188.448 150,187.5C 153.454,183.087 157.954,180.42 163.5,179.5C 163.5,178.5 163.5,177.5 163.5,176.5C 164.552,176.649 165.552,176.483 166.5,176C 170.959,170.88 176.292,166.88 182.5,164C 188.622,157.798 195.289,152.131 202.5,147C 204.154,146.392 205.821,145.892 207.5,145.5 Z"/></g>
<g><path style="opacity:1" fill="#02aaff" d="M 165.5,100.5 C 168.511,101.669 171.178,103.336 173.5,105.5C 172.5,105.5 171.5,105.5 170.5,105.5C 170.5,106.5 170.5,107.5 170.5,108.5C 162.314,111.179 155.647,116.012 150.5,123C 142.598,129.111 134.265,134.444 125.5,139C 123.627,140.704 121.96,142.537 120.5,144.5C 118.307,145.68 115.974,146.68 113.5,147.5C 107.915,154.104 101.249,159.104 93.5,162.5C 93.67,163.822 93.3366,164.989 92.5,166C 84.4865,169.538 77.1532,174.038 70.5,179.5C 70.5,178.5 70.5,177.5 70.5,176.5C 88.4492,163.535 105.783,149.868 122.5,135.5C 128.326,131.829 133.993,127.996 139.5,124C 140.071,122.795 140.738,121.628 141.5,120.5C 148.462,115.345 155.462,110.178 162.5,105C 163.386,103.385 164.386,101.885 165.5,100.5 Z"/></g>
<g><path style="opacity:1" fill="#019aff" d="M 120.5,144.5 C 119.055,146.133 117.721,147.966 116.5,150C 111.598,152.566 107.265,155.899 103.5,160C 98.6594,163.665 93.6594,167.165 88.5,170.5C 83.1545,176.153 77.1545,180.82 70.5,184.5C 70.5,182.833 70.5,181.167 70.5,179.5C 77.1532,174.038 84.4865,169.538 92.5,166C 93.3366,164.989 93.67,163.822 93.5,162.5C 101.249,159.104 107.915,154.104 113.5,147.5C 115.974,146.68 118.307,145.68 120.5,144.5 Z"/></g>
<g><path style="opacity:1" fill="#0035ff" d="M 207.5,91.5 C 207.5,92.8333 207.5,94.1667 207.5,95.5C 203.812,96.3493 201.146,98.5159 199.5,102C 195.187,103.983 191.853,106.983 189.5,111C 185.502,111.496 182.835,113.662 181.5,117.5C 172.51,124.664 163.51,131.831 154.5,139C 152.327,142.339 149.66,145.172 146.5,147.5C 131.737,157.769 117.737,168.936 104.5,181C 94.262,186.956 84.9287,194.123 76.5,202.5C 74.4734,203.513 72.4734,204.513 70.5,205.5C 70.5,202.5 70.5,199.5 70.5,196.5C 71.922,195.075 73.5887,194.075 75.5,193.5C 80.5912,190.927 85.5912,188.094 90.5,185C 94.2566,180.251 98.9233,176.584 104.5,174C 105.376,172.414 106.376,170.914 107.5,169.5C 112.789,166.535 117.456,162.868 121.5,158.5C 127.843,154.663 134.176,150.83 140.5,147C 141.376,145.414 142.376,143.914 143.5,142.5C 148.922,139.79 153.588,136.123 157.5,131.5C 158.736,130.754 160.07,130.421 161.5,130.5C 161.5,129.5 161.5,128.5 161.5,127.5C 162.552,127.649 163.552,127.483 164.5,127C 174.647,118.858 184.814,110.691 195,102.5C 195.483,101.552 195.649,100.552 195.5,99.5C 196.93,99.5792 198.264,99.2458 199.5,98.5C 202.158,96.1689 204.824,93.8355 207.5,91.5 Z"/></g>
<g><path style="opacity:1" fill="#05fee0" d="M 64.5,157.5 C 64.5,161.833 64.5,166.167 64.5,170.5C 58.2695,173.775 52.6028,177.775 47.5,182.5C 47.5,178.167 47.5,173.833 47.5,169.5C 51.046,168.957 53.3793,166.957 54.5,163.5C 58.1098,161.875 61.4432,159.875 64.5,157.5 Z"/></g>
<g><path style="opacity:1" fill="#0020ff" d="M 207.5,95.5 C 207.5,98.5 207.5,101.5 207.5,104.5C 200.934,108.459 194.267,112.459 187.5,116.5C 186.376,117.914 185.376,119.414 184.5,121C 175.659,126.163 167.659,132.496 160.5,140C 157.051,142.438 153.384,144.605 149.5,146.5C 139.323,155.28 128.656,163.613 117.5,171.5C 113.384,176.617 108.384,180.617 102.5,183.5C 101.96,184.748 101.293,185.915 100.5,187C 96.9837,188.256 93.9837,190.256 91.5,193C 90.552,193.483 89.552,193.649 88.5,193.5C 88.6495,194.552 88.4828,195.552 88,196.5C 82.7009,200.992 76.8675,204.659 70.5,207.5C 70.5,206.833 70.5,206.167 70.5,205.5C 72.4734,204.513 74.4734,203.513 76.5,202.5C 84.9287,194.123 94.262,186.956 104.5,181C 117.737,168.936 131.737,157.769 146.5,147.5C 149.66,145.172 152.327,142.339 154.5,139C 163.51,131.831 172.51,124.664 181.5,117.5C 182.835,113.662 185.502,111.496 189.5,111C 191.853,106.983 195.187,103.983 199.5,102C 201.146,98.5159 203.812,96.3493 207.5,95.5 Z"/></g>
<g><path style="opacity:1" fill="#03d9ff" d="M 64.5,170.5 C 64.5,173.833 64.5,177.167 64.5,180.5C 59.3922,185.227 53.7255,189.227 47.5,192.5C 47.5,189.167 47.5,185.833 47.5,182.5C 52.6028,177.775 58.2695,173.775 64.5,170.5 Z"/></g>
<g><path style="opacity:1" fill="#1603ff" d="M 207.5,104.5 C 207.5,110.5 207.5,116.5 207.5,122.5C 201.88,125.982 196.213,129.482 190.5,133C 186.515,135.985 182.848,139.318 179.5,143C 177.129,143.735 174.795,144.568 172.5,145.5C 166.899,149.135 161.899,153.468 157.5,158.5C 151.705,163.226 145.371,167.226 138.5,170.5C 137.646,171.948 136.646,173.281 135.5,174.5C 130.375,177.128 125.375,179.961 120.5,183C 116.96,186.04 113.96,189.54 111.5,193.5C 107.701,195.8 104.368,198.634 101.5,202C 97.0698,203.38 92.7365,205.047 88.5,207C 81.7087,210.969 75.7087,215.802 70.5,221.5C 70.5,216.833 70.5,212.167 70.5,207.5C 76.8675,204.659 82.7009,200.992 88,196.5C 88.4828,195.552 88.6495,194.552 88.5,193.5C 89.552,193.649 90.552,193.483 91.5,193C 93.9837,190.256 96.9837,188.256 100.5,187C 101.293,185.915 101.96,184.748 102.5,183.5C 108.384,180.617 113.384,176.617 117.5,171.5C 128.656,163.613 139.323,155.28 149.5,146.5C 153.384,144.605 157.051,142.438 160.5,140C 167.659,132.496 175.659,126.163 184.5,121C 185.376,119.414 186.376,117.914 187.5,116.5C 194.267,112.459 200.934,108.459 207.5,104.5 Z"/></g>
<g><path style="opacity:1" fill="#4800ff" d="M 207.5,122.5 C 207.5,123.833 207.5,125.167 207.5,126.5C 205.286,127.874 202.953,129.041 200.5,130C 193.215,137.983 184.881,144.316 175.5,149C 165.238,156.593 155.905,165.259 147.5,175C 143.947,176.704 140.28,178.204 136.5,179.5C 126.082,190.397 114.416,199.897 101.5,208C 96.6782,214.486 90.8448,219.986 84,224.5C 83.3378,225.984 82.5045,227.317 81.5,228.5C 77.8333,228.5 74.1667,228.5 70.5,228.5C 70.5,226.167 70.5,223.833 70.5,221.5C 75.7087,215.802 81.7087,210.969 88.5,207C 92.7365,205.047 97.0698,203.38 101.5,202C 104.368,198.634 107.701,195.8 111.5,193.5C 113.96,189.54 116.96,186.04 120.5,183C 125.375,179.961 130.375,177.128 135.5,174.5C 136.646,173.281 137.646,171.948 138.5,170.5C 145.371,167.226 151.705,163.226 157.5,158.5C 161.899,153.468 166.899,149.135 172.5,145.5C 174.795,144.568 177.129,143.735 179.5,143C 182.848,139.318 186.515,135.985 190.5,133C 196.213,129.482 201.88,125.982 207.5,122.5 Z"/></g>
<g><path style="opacity:1" fill="#04a6ff" d="M 64.5,180.5 C 64.5,183.833 64.5,187.167 64.5,190.5C 58.8281,194.507 53.1615,198.507 47.5,202.5C 47.5,199.167 47.5,195.833 47.5,192.5C 53.7255,189.227 59.3922,185.227 64.5,180.5 Z"/></g>
<g><path style="opacity:1" fill="#e900ff" d="M 207.5,149.5 C 207.5,151.5 207.5,153.5 207.5,155.5C 176.694,180.161 145.694,204.494 114.5,228.5C 111.5,228.5 108.5,228.5 105.5,228.5C 109.568,225.115 113.234,221.282 116.5,217C 118.218,216.654 119.885,216.154 121.5,215.5C 125.334,212.418 129.334,209.584 133.5,207C 137.033,202.22 141.7,198.886 147.5,197C 160.169,184.165 174.169,172.998 189.5,163.5C 189.281,162.325 189.614,161.325 190.5,160.5C 195.981,156.657 201.648,152.99 207.5,149.5 Z"/></g>
<g><path style="opacity:1" fill="#ff00be" d="M 207.5,167.5 C 207.5,169.5 207.5,171.5 207.5,173.5C 201.563,178.773 195.23,183.607 188.5,188C 187.552,188.483 186.552,188.649 185.5,188.5C 185.67,189.822 185.337,190.989 184.5,192C 178.836,195.649 173.169,199.316 167.5,203C 166.501,205.761 164.501,207.094 161.5,207C 152.965,214.372 144.299,221.538 135.5,228.5C 134.167,228.5 132.833,228.5 131.5,228.5C 135.597,224.28 140.263,220.78 145.5,218C 149.398,213.381 154.065,209.714 159.5,207C 164.204,201.97 169.537,197.636 175.5,194C 177.261,189.187 180.594,185.854 185.5,184C 186.167,182.667 186.833,181.333 187.5,180C 194.289,176.101 200.956,171.935 207.5,167.5 Z"/></g>
<g><path style="opacity:1" fill="#ff00db" d="M 207.5,161.5 C 207.5,163.5 207.5,165.5 207.5,167.5C 200.956,171.935 194.289,176.101 187.5,180C 186.833,181.333 186.167,182.667 185.5,184C 180.594,185.854 177.261,189.187 175.5,194C 169.537,197.636 164.204,201.97 159.5,207C 154.065,209.714 149.398,213.381 145.5,218C 140.263,220.78 135.597,224.28 131.5,228.5C 129.167,228.5 126.833,228.5 124.5,228.5C 128.421,224.24 132.421,219.906 136.5,215.5C 142.523,212.974 147.523,209.14 151.5,204C 154.608,201.63 157.941,199.63 161.5,198C 165.328,193.161 169.995,189.494 175.5,187C 177.833,183.333 180.833,180.333 184.5,178C 192.019,172.318 199.686,166.818 207.5,161.5 Z"/></g>
<g><path style="opacity:1" fill="#a600ff" d="M 207.5,135.5 C 207.5,138.833 207.5,142.167 207.5,145.5C 205.821,145.892 204.154,146.392 202.5,147C 195.289,152.131 188.622,157.798 182.5,164C 176.292,166.88 170.959,170.88 166.5,176C 165.552,176.483 164.552,176.649 163.5,176.5C 163.5,177.5 163.5,178.5 163.5,179.5C 157.954,180.42 153.454,183.087 150,187.5C 149.517,188.448 149.351,189.448 149.5,190.5C 144.909,193.462 139.909,195.962 134.5,198C 133.833,199.333 133.167,200.667 132.5,202C 127.97,205.362 123.303,208.529 118.5,211.5C 115.421,216.214 111.088,219.214 105.5,220.5C 102.15,222.825 99.15,225.491 96.5,228.5C 95.1667,228.5 93.8333,228.5 92.5,228.5C 95.5851,225.937 98.2518,222.937 100.5,219.5C 109.591,212.659 118.591,205.659 127.5,198.5C 138.028,190.916 148.028,182.583 157.5,173.5C 164.254,169.278 170.921,164.778 177.5,160C 179.54,157.815 180.874,155.315 181.5,152.5C 185.004,150.535 188.67,148.702 192.5,147C 194.607,145.736 195.607,143.903 195.5,141.5C 199.206,139.18 203.206,137.18 207.5,135.5 Z"/></g>
<g><path style="opacity:1" fill="#7300ff" d="M 207.5,126.5 C 207.5,129.5 207.5,132.5 207.5,135.5C 203.206,137.18 199.206,139.18 195.5,141.5C 195.607,143.903 194.607,145.736 192.5,147C 188.67,148.702 185.004,150.535 181.5,152.5C 180.874,155.315 179.54,157.815 177.5,160C 170.921,164.778 164.254,169.278 157.5,173.5C 148.028,182.583 138.028,190.916 127.5,198.5C 118.591,205.659 109.591,212.659 100.5,219.5C 98.2518,222.937 95.5851,225.937 92.5,228.5C 88.8333,228.5 85.1667,228.5 81.5,228.5C 82.5045,227.317 83.3378,225.984 84,224.5C 90.8448,219.986 96.6782,214.486 101.5,208C 114.416,199.897 126.082,190.397 136.5,179.5C 140.28,178.204 143.947,176.704 147.5,175C 155.905,165.259 165.238,156.593 175.5,149C 184.881,144.316 193.215,137.983 200.5,130C 202.953,129.041 205.286,127.874 207.5,126.5 Z"/></g>
<g><path style="opacity:1" fill="#0280ff" d="M 64.5,190.5 C 64.5,192.833 64.5,195.167 64.5,197.5C 59.4667,202.169 53.8,206.169 47.5,209.5C 47.5,207.167 47.5,204.833 47.5,202.5C 53.1615,198.507 58.8281,194.507 64.5,190.5 Z"/></g>
<g><path style="opacity:1" fill="#0160ff" d="M 64.5,197.5 C 64.5,199.5 64.5,201.5 64.5,203.5C 60.4064,203.593 57.7397,205.593 56.5,209.5C 52.8896,210.79 49.8896,212.79 47.5,215.5C 47.5,213.5 47.5,211.5 47.5,209.5C 53.8,206.169 59.4667,202.169 64.5,197.5 Z"/></g>
<g><path style="opacity:1" fill="#ff0004" d="M 207.5,200.5 C 207.666,208.507 207.5,216.507 207,224.5C 206.167,225.333 205.333,226.167 204.5,227C 195.274,228.445 185.94,228.945 176.5,228.5C 180.755,223.504 185.755,219.17 191.5,215.5C 196.282,210.763 200.948,205.929 205.5,201C 206.094,200.536 206.761,200.369 207.5,200.5 Z"/></g>
<g><path style="opacity:1" fill="#ff0044" d="M 207.5,192.5 C 207.5,193.167 207.5,193.833 207.5,194.5C 203.879,197.946 200.046,201.279 196,204.5C 195.644,207.729 193.81,209.229 190.5,209C 182.626,215.713 174.626,222.213 166.5,228.5C 164.5,228.5 162.5,228.5 160.5,228.5C 161.028,227.279 161.695,226.113 162.5,225C 168.675,220.318 174.675,215.485 180.5,210.5C 188.872,205.958 196.539,200.458 203.5,194C 204.745,193.209 206.078,192.709 207.5,192.5 Z"/></g>
<g><path style="opacity:1" fill="#ff00a6" d="M 207.5,173.5 C 207.5,174.5 207.5,175.5 207.5,176.5C 204.172,177.7 201.672,180.033 200,183.5C 186.864,193.962 173.697,204.462 160.5,215C 153.386,218.354 147.053,222.854 141.5,228.5C 139.5,228.5 137.5,228.5 135.5,228.5C 144.299,221.538 152.965,214.372 161.5,207C 164.501,207.094 166.501,205.761 167.5,203C 173.169,199.316 178.836,195.649 184.5,192C 185.337,190.989 185.67,189.822 185.5,188.5C 186.552,188.649 187.552,188.483 188.5,188C 195.23,183.607 201.563,178.773 207.5,173.5 Z"/></g>
<g><path style="opacity:1" fill="#ff005f" d="M 207.5,186.5 C 207.5,188.5 207.5,190.5 207.5,192.5C 206.078,192.709 204.745,193.209 203.5,194C 196.539,200.458 188.872,205.958 180.5,210.5C 174.675,215.485 168.675,220.318 162.5,225C 161.695,226.113 161.028,227.279 160.5,228.5C 159.167,228.5 157.833,228.5 156.5,228.5C 166.106,219.23 175.772,209.897 185.5,200.5C 186.736,199.754 188.07,199.421 189.5,199.5C 189.5,198.5 189.5,197.5 189.5,196.5C 190.552,196.649 191.552,196.483 192.5,196C 197.134,192.188 202.134,189.021 207.5,186.5 Z"/></g>
<g><path style="opacity:1" fill="#0142ff" d="M 64.5,203.5 C 64.5,205.833 64.5,208.167 64.5,210.5C 59.0838,214.721 53.4172,218.721 47.5,222.5C 47.5,220.167 47.5,217.833 47.5,215.5C 49.8896,212.79 52.8896,210.79 56.5,209.5C 57.7397,205.593 60.4064,203.593 64.5,203.5 Z"/></g>
<g><path style="opacity:1" fill="#ff002b" d="M 207.5,194.5 C 207.5,196.5 207.5,198.5 207.5,200.5C 206.761,200.369 206.094,200.536 205.5,201C 200.948,205.929 196.282,210.763 191.5,215.5C 185.755,219.17 180.755,223.504 176.5,228.5C 173.167,228.5 169.833,228.5 166.5,228.5C 174.626,222.213 182.626,215.713 190.5,209C 193.81,209.229 195.644,207.729 196,204.5C 200.046,201.279 203.879,197.946 207.5,194.5 Z"/></g>
<g><path style="opacity:1" fill="#ff008e" d="M 207.5,176.5 C 207.5,178.167 207.5,179.833 207.5,181.5C 202.622,183.453 198.622,186.62 195.5,191C 189.653,196.086 183.32,200.42 176.5,204C 172.833,206.333 169.833,209.333 167.5,213C 159.504,216.305 153.17,221.472 148.5,228.5C 146.167,228.5 143.833,228.5 141.5,228.5C 147.053,222.854 153.386,218.354 160.5,215C 173.697,204.462 186.864,193.962 200,183.5C 201.672,180.033 204.172,177.7 207.5,176.5 Z"/></g>
<g><path style="opacity:1" fill="#ff0078" d="M 207.5,181.5 C 207.5,183.167 207.5,184.833 207.5,186.5C 202.134,189.021 197.134,192.188 192.5,196C 191.552,196.483 190.552,196.649 189.5,196.5C 189.5,197.5 189.5,198.5 189.5,199.5C 188.07,199.421 186.736,199.754 185.5,200.5C 175.772,209.897 166.106,219.23 156.5,228.5C 153.833,228.5 151.167,228.5 148.5,228.5C 153.17,221.472 159.504,216.305 167.5,213C 169.833,209.333 172.833,206.333 176.5,204C 183.32,200.42 189.653,196.086 195.5,191C 198.622,186.62 202.622,183.453 207.5,181.5 Z"/></g>
<g><path style="opacity:1" fill="#0b0cff" d="M 64.5,210.5 C 64.5,216.5 64.5,222.5 64.5,228.5C 60.1539,228.666 55.8206,228.499 51.5,228C 49.5359,226.549 48.2026,224.716 47.5,222.5C 53.4172,218.721 59.0838,214.721 64.5,210.5 Z"/></g>
</svg>
