<?xml version="1.0" encoding="UTF-8"?>
<!DOCTYPE svg PUBLIC "-//W3C//DTD SVG 1.1//EN" "http://www.w3.org/Graphics/SVG/1.1/DTD/svg11.dtd">
<svg xmlns="http://www.w3.org/2000/svg" version="1.1" width="256px" height="256px" style="shape-rendering:geometricPrecision; text-rendering:geometricPrecision; image-rendering:optimizeQuality; fill-rule:evenodd; clip-rule:evenodd" xmlns:xlink="http://www.w3.org/1999/xlink">
<g><path style="opacity:1" fill="#95c8c7" d="M 150.5,31.5 C 145.42,31.1217 140.42,30.455 135.5,29.5C 130.833,29.5 126.167,29.5 121.5,29.5C 115.869,30.4122 110.202,31.0789 104.5,31.5C 107.203,30.037 110.203,29.2037 113.5,29C 123.167,28.3333 132.833,28.3333 142.5,29C 145.457,29.2794 148.123,30.1127 150.5,31.5 Z"/></g>
<g><path style="opacity:1" fill="#d6ff00" d="M 135.5,29.5 C 140.42,30.455 145.42,31.1217 150.5,31.5C 151.167,32.1667 151.833,32.8333 152.5,33.5C 144.809,35.5135 137.809,38.8468 131.5,43.5C 124.084,44.0693 116.751,44.0693 109.5,43.5C 117.935,38.3978 126.601,33.7311 135.5,29.5 Z"/></g>
<g><path style="opacity:1" fill="#74b7b7" d="M 104.5,31.5 C 100.648,34.0193 100.648,36.686 104.5,39.5C 105.833,40.8333 107.167,42.1667 108.5,43.5C 102.434,41.83 99.767,37.9967 100.5,32C 101.793,31.51 103.127,31.3433 104.5,31.5 Z"/></g>
<g><path style="opacity:1" fill="#ffcf00" d="M 121.5,29.5 C 116.363,33.5747 110.696,36.908 104.5,39.5C 100.648,36.686 100.648,34.0193 104.5,31.5C 110.202,31.0789 115.869,30.4122 121.5,29.5 Z"/></g>
<g><path style="opacity:1" fill="#97cac8" d="M 150.5,31.5 C 152.827,31.2471 154.827,31.9137 156.5,33.5C 156.145,34.5223 155.478,35.189 154.5,35.5C 154.5,34.1667 153.833,33.5 152.5,33.5C 151.833,32.8333 151.167,32.1667 150.5,31.5 Z"/></g>
<g><path style="opacity:1" fill="#fef200" d="M 121.5,29.5 C 126.167,29.5 130.833,29.5 135.5,29.5C 126.601,33.7311 117.935,38.3978 109.5,43.5C 109.167,43.5 108.833,43.5 108.5,43.5C 107.167,42.1667 105.833,40.8333 104.5,39.5C 110.696,36.908 116.363,33.5747 121.5,29.5 Z"/></g>
<g><path style="opacity:1" fill="#82bfbe" d="M 179.5,43.5 C 177.761,42.5661 176.095,42.5661 174.5,43.5C 173.972,45.3361 173.306,47.0028 172.5,48.5C 172.22,45.7276 172.887,43.2276 174.5,41C 176.668,40.7506 178.335,41.5839 179.5,43.5 Z"/></g>
<g><path style="opacity:1" fill="#a0fe00" d="M 152.5,33.5 C 153.833,33.5 154.5,34.1667 154.5,35.5C 149.015,44.0624 141.348,46.7291 131.5,43.5C 137.809,38.8468 144.809,35.5135 152.5,33.5 Z"/></g>
<g><path style="opacity:1" fill="#a0cecd" d="M 154.5,35.5 C 153.079,40.0898 150.079,43.2565 145.5,45C 136.127,44.9945 126.793,45.1612 117.5,45.5C 114.833,45.3333 112.167,45.1667 109.5,45C 108.944,44.6174 108.611,44.1174 108.5,43.5C 108.833,43.5 109.167,43.5 109.5,43.5C 116.751,44.0693 124.084,44.0693 131.5,43.5C 141.348,46.7291 149.015,44.0624 154.5,35.5 Z"/></g>
<g><path style="opacity:1" fill="#18fe24" d="M 179.5,43.5 C 182.52,46.5162 185.854,49.1829 189.5,51.5C 188.232,52.787 188.565,53.787 190.5,54.5C 187.772,56.8922 184.772,58.8922 181.5,60.5C 180.264,59.7542 178.93,59.4208 177.5,59.5C 175.55,56.5942 173.883,53.5942 172.5,50.5C 171.167,49.8333 171.167,49.1667 172.5,48.5C 173.306,47.0028 173.972,45.3361 174.5,43.5C 176.095,42.5661 177.761,42.5661 179.5,43.5 Z"/></g>
<g><path style="opacity:1" fill="#80bfbd" d="M 179.5,43.5 C 183.732,45.4002 187.399,48.0669 190.5,51.5C 190.167,51.5 189.833,51.5 189.5,51.5C 185.854,49.1829 182.52,46.5162 179.5,43.5 Z"/></g>
<g><path style="opacity:1" fill="#febf01" d="M 82.5,48.5 C 80.8008,48.3398 79.1341,48.5065 77.5,49C 71.2104,53.3105 64.5438,56.8105 57.5,59.5C 62.8698,54.1281 68.5365,49.1281 74.5,44.5C 76.258,44.1231 77.9246,43.4565 79.5,42.5C 81.0896,44.1457 82.0896,46.1457 82.5,48.5 Z"/></g>
<g><path style="opacity:1" fill="#9dcbc9" d="M 80.5,57.5 C 81.1495,55.5648 81.4828,53.5648 81.5,51.5C 82.1098,50.609 82.4431,49.609 82.5,48.5C 82.0896,46.1457 81.0896,44.1457 79.5,42.5C 77.9246,43.4565 76.258,44.1231 74.5,44.5C 77.5345,39.5256 80.3678,39.5256 83,44.5C 83.6667,47.5 83.6667,50.5 83,53.5C 82.7996,55.3197 81.9663,56.653 80.5,57.5 Z"/></g>
<g><path style="opacity:0.949" fill="#8dc4c4" d="M 190.5,51.5 C 195.833,54.8333 200.167,59.1667 203.5,64.5C 202.167,63.5 200.833,62.5 199.5,61.5C 196.5,58.1667 193.5,54.8333 190.5,51.5 Z"/></g>
<g><path style="opacity:1" fill="#ffdc00" d="M 82.5,48.5 C 82.4431,49.609 82.1098,50.609 81.5,51.5C 71.81,57.0117 61.81,62.0117 51.5,66.5C 52.7997,63.5677 54.7997,61.2344 57.5,59.5C 64.5438,56.8105 71.2104,53.3105 77.5,49C 79.1341,48.5065 80.8008,48.3398 82.5,48.5 Z"/></g>
<g><path style="opacity:1" fill="#a9d3d2" d="M 80.5,57.5 C 79.8333,60.1667 78.1667,61.8333 75.5,62.5C 76.5,61.1667 77.5,59.8333 78.5,58.5C 79.1667,58.1667 79.8333,57.8333 80.5,57.5 Z"/></g>
<g><path style="opacity:1" fill="#7ec0b9" d="M 172.5,50.5 C 173.883,53.5942 175.55,56.5942 177.5,59.5C 177.833,60.1667 178.167,60.8333 178.5,61.5C 174.275,59.2377 172.275,55.5711 172.5,50.5 Z"/></g>
<g><path style="opacity:1" fill="#8bc2c1" d="M 74.5,44.5 C 68.5365,49.1281 62.8698,54.1281 57.5,59.5C 54.7997,61.2344 52.7997,63.5677 51.5,66.5C 49.0252,68.7703 47.0252,71.437 45.5,74.5C 45.1667,74.5 44.8333,74.5 44.5,74.5C 51.5,61.5 61.5,51.5 74.5,44.5 Z"/></g>
<g><path style="opacity:1" fill="#8cc4c3" d="M 178.5,61.5 C 181.089,62.4194 183.089,64.086 184.5,66.5C 181.911,65.5806 179.911,63.914 178.5,61.5 Z"/></g>
<g><path style="opacity:1" fill="#fef202" d="M 81.5,51.5 C 81.4828,53.5648 81.1495,55.5648 80.5,57.5C 79.8333,57.8333 79.1667,58.1667 78.5,58.5C 67.6532,64.0897 56.6532,69.423 45.5,74.5C 47.0252,71.437 49.0252,68.7703 51.5,66.5C 61.81,62.0117 71.81,57.0117 81.5,51.5 Z"/></g>
<g><path style="opacity:1" fill="#04fe73" d="M 189.5,51.5 C 189.833,51.5 190.167,51.5 190.5,51.5C 193.5,54.8333 196.5,58.1667 199.5,61.5C 194.91,62.5842 190.576,64.2508 186.5,66.5C 185.833,66.5 185.167,66.5 184.5,66.5C 183.089,64.086 181.089,62.4194 178.5,61.5C 178.167,60.8333 177.833,60.1667 177.5,59.5C 178.93,59.4208 180.264,59.7542 181.5,60.5C 184.772,58.8922 187.772,56.8922 190.5,54.5C 188.565,53.787 188.232,52.787 189.5,51.5 Z"/></g>
<g><path style="opacity:1" fill="#a1cfcf" d="M 75.5,62.5 C 73.7607,65.2427 71.4274,67.2427 68.5,68.5C 70.2393,65.7573 72.5726,63.7573 75.5,62.5 Z"/></g>
<g><path style="opacity:1" fill="#05feae" d="M 199.5,61.5 C 200.833,62.5 202.167,63.5 203.5,64.5C 203.557,65.609 203.89,66.609 204.5,67.5C 200.783,70.0249 196.783,72.0249 192.5,73.5C 190.273,71.3932 188.273,69.0599 186.5,66.5C 190.576,64.2508 194.91,62.5842 199.5,61.5 Z"/></g>
<g><path style="opacity:1" fill="#9bcccc" d="M 68.5,68.5 C 67.2427,71.4274 65.2427,73.7607 62.5,75.5C 63.7573,72.5726 65.7573,70.2393 68.5,68.5 Z"/></g>
<g><path style="opacity:1" fill="#dbfe01" d="M 78.5,58.5 C 77.5,59.8333 76.5,61.1667 75.5,62.5C 72.5726,63.7573 70.2393,65.7573 68.5,68.5C 65.7573,70.2393 63.7573,72.5726 62.5,75.5C 60.5,76.8333 58.8333,78.5 57.5,80.5C 52.8401,82.346 48.1734,82.5127 43.5,81C 43.0426,80.586 42.7093,80.086 42.5,79.5C 43.4565,77.9246 44.1231,76.258 44.5,74.5C 44.8333,74.5 45.1667,74.5 45.5,74.5C 56.6532,69.423 67.6532,64.0897 78.5,58.5 Z"/></g>
<g><path style="opacity:1" fill="#91c7c6" d="M 203.5,64.5 C 208.425,68.6203 212.092,73.787 214.5,80C 212.336,82.6622 209.502,83.8288 206,83.5C 201.683,83.2588 197.849,81.7588 194.5,79C 190.953,74.9587 187.62,70.792 184.5,66.5C 185.167,66.5 185.833,66.5 186.5,66.5C 188.273,69.0599 190.273,71.3932 192.5,73.5C 193.882,75.5486 195.548,77.2153 197.5,78.5C 201.586,82.1841 206.253,83.0175 211.5,81C 212.392,77.5953 211.392,74.762 208.5,72.5C 207.396,70.6115 206.063,68.9448 204.5,67.5C 203.89,66.609 203.557,65.609 203.5,64.5 Z"/></g>
<g><path style="opacity:1" fill="#02fed9" d="M 204.5,67.5 C 206.063,68.9448 207.396,70.6115 208.5,72.5C 204.833,74.5 201.167,76.5 197.5,78.5C 195.548,77.2153 193.882,75.5486 192.5,73.5C 196.783,72.0249 200.783,70.0249 204.5,67.5 Z"/></g>
<g><path style="opacity:1" fill="#a6d1d1" d="M 62.5,75.5 C 61.8333,78.1667 60.1667,79.8333 57.5,80.5C 58.8333,78.5 60.5,76.8333 62.5,75.5 Z"/></g>
<g><path style="opacity:1" fill="#04effd" d="M 208.5,72.5 C 211.392,74.762 212.392,77.5953 211.5,81C 206.253,83.0175 201.586,82.1841 197.5,78.5C 201.167,76.5 204.833,74.5 208.5,72.5 Z"/></g>
<g><path style="opacity:1" fill="#90c6c5" d="M 152.5,80.5 C 156.37,81.2633 159.37,83.2633 161.5,86.5C 160.833,86.5 160.167,86.5 159.5,86.5C 159.027,85.0937 158.027,84.427 156.5,84.5C 155.167,83.1667 153.833,81.8333 152.5,80.5 Z"/></g>
<g><path style="opacity:1" fill="#9acbc9" d="M 44.5,74.5 C 44.1231,76.258 43.4565,77.9246 42.5,79.5C 42.7093,80.086 43.0426,80.586 43.5,81C 48.1734,82.5127 52.8401,82.346 57.5,80.5C 56.653,81.9663 55.3197,82.7996 53.5,83C 50.5,83.6667 47.5,83.6667 44.5,83C 39.5256,80.3678 39.5256,77.5345 44.5,74.5 Z"/></g>
<g><path style="opacity:1" fill="#00fe2d" d="M 132.5,75.5 C 133.5,75.5 134.5,75.5 135.5,75.5C 135.372,77.0898 134.705,78.4231 133.5,79.5C 129.212,81.8137 124.879,83.8137 120.5,85.5C 120.5,86.5 120.5,87.5 120.5,88.5C 106.487,94.2728 92.8205,100.606 79.5,107.5C 80.0787,104.669 81.412,102.336 83.5,100.5C 96.264,95.6191 108.264,89.4525 119.5,82C 123.33,81.1842 126.996,79.8509 130.5,78C 131.381,77.2917 132.047,76.4584 132.5,75.5 Z"/></g>
<g><path style="opacity:1" fill="#81bebd" d="M 152.5,80.5 C 152.167,80.5 151.833,80.5 151.5,80.5C 150.167,80.1667 148.833,79.8333 147.5,79.5C 146.791,78.596 145.791,78.2627 144.5,78.5C 141.632,77.36 138.632,76.36 135.5,75.5C 134.5,75.5 133.5,75.5 132.5,75.5C 111.076,74.0446 94.7427,82.378 83.5,100.5C 81.412,102.336 80.0787,104.669 79.5,107.5C 78.596,108.209 78.2627,109.209 78.5,110.5C 77.6908,112.028 77.0241,113.694 76.5,115.5C 76.5,116.833 76.5,118.167 76.5,119.5C 75.5933,121.657 74.9267,123.99 74.5,126.5C 74.5,127.167 74.5,127.833 74.5,128.5C 74.5,129.167 74.5,129.833 74.5,130.5C 74.5,130.833 74.5,131.167 74.5,131.5C 73.7018,105.958 85.0352,87.7909 108.5,77C 114.72,75.2304 121.054,74.0637 127.5,73.5C 133.946,74.0637 140.28,75.2304 146.5,77C 149.025,77.4238 151.025,78.5905 152.5,80.5 Z"/></g>
<g><path style="opacity:1" fill="#02fe0e" d="M 132.5,75.5 C 132.047,76.4584 131.381,77.2917 130.5,78C 126.996,79.8509 123.33,81.1842 119.5,82C 108.264,89.4525 96.264,95.6191 83.5,100.5C 94.7427,82.378 111.076,74.0446 132.5,75.5 Z"/></g>
<g><path style="opacity:1" fill="#01fe90" d="M 151.5,80.5 C 151.833,80.5 152.167,80.5 152.5,80.5C 153.833,81.8333 155.167,83.1667 156.5,84.5C 129.763,99.5356 102.43,113.536 74.5,126.5C 74.9267,123.99 75.5933,121.657 76.5,119.5C 78.4144,118.815 80.4144,118.315 82.5,118C 101.692,107.071 121.359,97.2374 141.5,88.5C 145.268,86.2945 148.602,83.6278 151.5,80.5 Z"/></g>
<g><path style="opacity:1" fill="#00fe45" d="M 135.5,75.5 C 138.632,76.36 141.632,77.36 144.5,78.5C 123.002,89.8328 101.169,100.833 79,111.5C 78.6012,111.272 78.4346,110.938 78.5,110.5C 78.2627,109.209 78.596,108.209 79.5,107.5C 92.8205,100.606 106.487,94.2728 120.5,88.5C 120.5,87.5 120.5,86.5 120.5,85.5C 124.879,83.8137 129.212,81.8137 133.5,79.5C 134.705,78.4231 135.372,77.0898 135.5,75.5 Z"/></g>
<g><path style="opacity:1" fill="#00fe5a" d="M 144.5,78.5 C 145.791,78.2627 146.791,78.596 147.5,79.5C 124.274,92.2799 100.607,104.28 76.5,115.5C 77.0241,113.694 77.6908,112.028 78.5,110.5C 78.4346,110.938 78.6012,111.272 79,111.5C 101.169,100.833 123.002,89.8328 144.5,78.5 Z"/></g>
<g><path style="opacity:1" fill="#00fedf" d="M 164.5,90.5 C 165.5,90.8333 166.167,91.5 166.5,92.5C 150.982,100.075 135.316,107.575 119.5,115C 117.371,116.974 115.038,118.641 112.5,120C 102.588,123.623 93.2547,128.289 84.5,134C 81.9036,135.136 79.237,135.969 76.5,136.5C 75.8333,136.5 75.5,136.167 75.5,135.5C 105.331,120.751 134.998,105.751 164.5,90.5 Z"/></g>
<g><path style="opacity:1" fill="#00fdfd" d="M 167.5,94.5 C 168.167,94.5 168.5,94.8333 168.5,95.5C 138.357,111.072 108.023,126.405 77.5,141.5C 77.1667,140.833 76.8333,140.167 76.5,139.5C 106.94,124.78 137.274,109.78 167.5,94.5 Z"/></g>
<g><path style="opacity:1" fill="#00f1fe" d="M 168.5,95.5 C 170.233,96.0076 170.566,96.841 169.5,98C 138.921,113.43 108.254,128.597 77.5,143.5C 77.5,142.833 77.5,142.167 77.5,141.5C 108.023,126.405 138.357,111.072 168.5,95.5 Z"/></g>
<g><path style="opacity:1" fill="#77b9b9" d="M 43.5,108.5 C 41.691,105.861 39.3576,103.694 36.5,102C 34.0448,101.294 32.3781,102.127 31.5,104.5C 31.0101,102.052 31.8434,100.385 34,99.5C 38.9938,100.662 42.1605,103.662 43.5,108.5 Z"/></g>
<g><path style="opacity:1" fill="#01fe74" d="M 147.5,79.5 C 148.833,79.8333 150.167,80.1667 151.5,80.5C 148.602,83.6278 145.268,86.2945 141.5,88.5C 121.359,97.2374 101.692,107.071 82.5,118C 80.4144,118.315 78.4144,118.815 76.5,119.5C 76.5,118.167 76.5,116.833 76.5,115.5C 100.607,104.28 124.274,92.2799 147.5,79.5 Z"/></g>
<g><path style="opacity:1" fill="#00fea6" d="M 156.5,84.5 C 158.027,84.427 159.027,85.0937 159.5,86.5C 131.341,100.746 103.007,114.746 74.5,128.5C 74.5,127.833 74.5,127.167 74.5,126.5C 102.43,113.536 129.763,99.5356 156.5,84.5 Z"/></g>
<g><path style="opacity:1" fill="#79b5bf" d="M 222.5,100.5 C 217.51,101.747 214.01,104.747 212,109.5C 211.501,116.514 211.668,123.514 212.5,130.5C 211.622,134.336 210.956,138.336 210.5,142.5C 210.76,133.513 210.427,124.347 209.5,115C 209.833,107.143 213.667,101.976 221,99.5C 221.765,99.5699 222.265,99.9033 222.5,100.5 Z"/></g>
<g><path style="opacity:1" fill="#20dafb" d="M 162.5,87.5 C 164.716,88.2026 166.549,89.5359 168,91.5C 170.333,94.8333 172.667,98.1667 175,101.5C 177.076,104.893 178.242,108.56 178.5,112.5C 177.833,111.833 177.167,111.167 176.5,110.5C 176.5,109.833 176.5,109.167 176.5,108.5C 176.5,107.833 176.167,107.5 175.5,107.5C 175.5,106.833 175.5,106.167 175.5,105.5C 175.167,104.833 174.833,104.167 174.5,103.5C 173.855,102.188 172.855,101.188 171.5,100.5C 140.385,115.418 109.718,131.085 79.5,147.5C 78.6554,146.329 77.9887,144.995 77.5,143.5C 108.254,128.597 138.921,113.43 169.5,98C 170.566,96.841 170.233,96.0076 168.5,95.5C 168.5,94.8333 168.167,94.5 167.5,94.5C 167.672,93.5084 167.338,92.8417 166.5,92.5C 166.167,91.5 165.5,90.8333 164.5,90.5C 163.449,89.7777 162.782,88.7777 162.5,87.5 Z"/></g>
<g><path style="opacity:1" fill="#01fecc" d="M 161.5,86.5 C 162.167,86.5 162.5,86.8333 162.5,87.5C 162.782,88.7777 163.449,89.7777 164.5,90.5C 134.998,105.751 105.331,120.751 75.5,135.5C 75.7678,133.901 75.4345,132.568 74.5,131.5C 74.5,131.167 74.5,130.833 74.5,130.5C 85.5942,126.121 96.5942,121.455 107.5,116.5C 111.713,113.9 115.713,111.067 119.5,108C 133.746,101.125 147.746,93.9585 161.5,86.5 Z"/></g>
<g><path style="opacity:1" fill="#2f08fe" d="M 222.5,100.5 C 224.074,108.759 225.074,117.092 225.5,125.5C 221.441,127.948 217.275,130.281 213,132.5C 212.536,131.906 212.369,131.239 212.5,130.5C 211.668,123.514 211.501,116.514 212,109.5C 214.01,104.747 217.51,101.747 222.5,100.5 Z"/></g>
<g><path style="opacity:1" fill="#00feb5" d="M 159.5,86.5 C 160.167,86.5 160.833,86.5 161.5,86.5C 147.746,93.9585 133.746,101.125 119.5,108C 115.713,111.067 111.713,113.9 107.5,116.5C 96.5942,121.455 85.5942,126.121 74.5,130.5C 74.5,129.833 74.5,129.167 74.5,128.5C 103.007,114.746 131.341,100.746 159.5,86.5 Z"/></g>
<g><path style="opacity:1" fill="#00aaff" d="M 175.5,105.5 C 175.5,106.167 175.5,106.833 175.5,107.5C 144.18,121.993 113.18,137.326 82.5,153.5C 81.8333,153.5 81.5,153.167 81.5,152.5C 101.367,140.732 121.7,129.732 142.5,119.5C 153.633,115.099 164.633,110.432 175.5,105.5 Z"/></g>
<g><path style="opacity:1" fill="#003afe" d="M 179.5,121.5 C 179.833,122.167 180.167,122.833 180.5,123.5C 153.652,135.923 126.985,148.923 100.5,162.5C 98.4293,164.185 96.4293,165.852 94.5,167.5C 92.9731,167.573 91.9731,166.906 91.5,165.5C 94.6106,163.441 97.9439,161.608 101.5,160C 103.193,157.31 105.527,155.31 108.5,154C 121.303,148.393 133.97,142.393 146.5,136C 150.414,132.512 155.08,130.846 160.5,131C 161.5,130 162.5,129 163.5,128C 168.652,125.537 173.985,123.37 179.5,121.5 Z"/></g>
<g><path style="opacity:1" fill="#1afe19" d="M 43.5,108.5 C 44.2512,115.453 44.2512,122.453 43.5,129.5C 38.8333,131.5 34.1667,133.5 29.5,135.5C 29.3856,125.11 30.0523,114.777 31.5,104.5C 32.3781,102.127 34.0448,101.294 36.5,102C 39.3576,103.694 41.691,105.861 43.5,108.5 Z"/></g>
<g><path style="opacity:1" fill="#008cff" d="M 176.5,108.5 C 176.5,109.167 176.5,109.833 176.5,110.5C 157.284,120.941 137.617,130.608 117.5,139.5C 107.471,147.015 96.4706,152.682 84.5,156.5C 83.8333,156.5 83.5,156.167 83.5,155.5C 114.103,139.032 145.103,123.365 176.5,108.5 Z"/></g>
<g><path style="opacity:1" fill="#00fff0" d="M 166.5,92.5 C 167.338,92.8417 167.672,93.5084 167.5,94.5C 137.274,109.78 106.94,124.78 76.5,139.5C 76.5,138.5 76.5,137.5 76.5,136.5C 79.237,135.969 81.9036,135.136 84.5,134C 93.2547,128.289 102.588,123.623 112.5,120C 115.038,118.641 117.371,116.974 119.5,115C 135.316,107.575 150.982,100.075 166.5,92.5 Z"/></g>
<g><path style="opacity:1" fill="#84c0c0" d="M 222.5,100.5 C 223.927,102.148 224.76,104.148 225,106.5C 227.951,122.18 227.617,137.847 224,153.5C 222.996,157.056 221.496,157.389 219.5,154.5C 220.5,154.5 221.5,154.5 222.5,154.5C 222.911,150.779 223.578,147.112 224.5,143.5C 225.165,137.523 225.498,131.523 225.5,125.5C 225.074,117.092 224.074,108.759 222.5,100.5 Z"/></g>
<g><path style="opacity:1" fill="#007dfe" d="M 176.5,110.5 C 177.167,111.167 177.833,111.833 178.5,112.5C 178.5,112.833 178.5,113.167 178.5,113.5C 176.073,113.523 173.74,114.023 171.5,115C 156.451,123.002 141.118,130.669 125.5,138C 112.847,146.16 99.5137,152.993 85.5,158.5C 84.6618,158.158 84.3284,157.492 84.5,156.5C 96.4706,152.682 107.471,147.015 117.5,139.5C 137.617,130.608 157.284,120.941 176.5,110.5 Z"/></g>
<g><path style="opacity:1" fill="#0050fe" d="M 179.5,116.5 C 179.5,118.167 179.5,119.833 179.5,121.5C 173.985,123.37 168.652,125.537 163.5,128C 162.5,129 161.5,130 160.5,131C 155.08,130.846 150.414,132.512 146.5,136C 133.97,142.393 121.303,148.393 108.5,154C 105.527,155.31 103.193,157.31 101.5,160C 97.9439,161.608 94.6106,163.441 91.5,165.5C 90.3634,164.211 89.0301,163.211 87.5,162.5C 118.106,146.97 148.772,131.636 179.5,116.5 Z"/></g>
<g><path style="opacity:1" fill="#92c8c7" d="M 31.5,104.5 C 30.0523,114.777 29.3856,125.11 29.5,135.5C 30.3686,137.717 30.702,140.05 30.5,142.5C 31.0916,145.127 31.4249,147.794 31.5,150.5C 30.1127,148.123 29.2794,145.457 29,142.5C 28.3333,132.833 28.3333,123.167 29,113.5C 29.2037,110.203 30.037,107.203 31.5,104.5 Z"/></g>
<g><path style="opacity:1" fill="#009bfe" d="M 175.5,107.5 C 176.167,107.5 176.5,107.833 176.5,108.5C 145.103,123.365 114.103,139.032 83.5,155.5C 82.6618,155.158 82.3284,154.492 82.5,153.5C 113.18,137.326 144.18,121.993 175.5,107.5 Z"/></g>
<g><path style="opacity:1" fill="#0103fe" d="M 180.5,129.5 C 180.737,130.791 180.404,131.791 179.5,132.5C 152.585,145.13 125.918,158.13 99.5,171.5C 98.8333,171.5 98.5,171.167 98.5,170.5C 109.778,164.861 121.111,159.194 132.5,153.5C 133.833,152.167 135.167,150.833 136.5,149.5C 150.102,145.199 162.768,139.032 174.5,131C 176.436,130.187 178.436,129.687 180.5,129.5 Z"/></g>
<g><path style="opacity:1" fill="#00b8fe" d="M 174.5,103.5 C 174.833,104.167 175.167,104.833 175.5,105.5C 164.633,110.432 153.633,115.099 142.5,119.5C 121.7,129.732 101.367,140.732 81.5,152.5C 81.1667,152.5 80.8333,152.5 80.5,152.5C 80.5,151.5 80.5,150.5 80.5,149.5C 94.8768,141.481 109.877,134.147 125.5,127.5C 126.5,126.5 127.5,125.5 128.5,124.5C 140.267,119.45 151.6,113.617 162.5,107C 166.778,106.689 170.778,105.523 174.5,103.5 Z"/></g>
<g><path style="opacity:1" fill="#01fe69" d="M 43.5,129.5 C 43.5,131.5 43.5,133.5 43.5,135.5C 39.1516,137.631 34.8183,139.964 30.5,142.5C 30.702,140.05 30.3686,137.717 29.5,135.5C 34.1667,133.5 38.8333,131.5 43.5,129.5 Z"/></g>
<g><path style="opacity:1" fill="#83bfbf" d="M 74.5,131.5 C 75.4345,132.568 75.7678,133.901 75.5,135.5C 75.5,136.167 75.8333,136.5 76.5,136.5C 76.5,137.5 76.5,138.5 76.5,139.5C 76.8333,140.167 77.1667,140.833 77.5,141.5C 77.5,142.167 77.5,142.833 77.5,143.5C 77.9887,144.995 78.6554,146.329 79.5,147.5C 79.3284,148.492 79.6618,149.158 80.5,149.5C 80.5,150.5 80.5,151.5 80.5,152.5C 78.5905,151.025 77.4238,149.025 77,146.5C 75.3638,141.625 74.5305,136.625 74.5,131.5 Z"/></g>
<g><path style="opacity:1" fill="#1500ff" d="M 179.5,132.5 C 179.5,133.5 179.5,134.5 179.5,135.5C 166.994,141.254 154.661,147.254 142.5,153.5C 140.724,155.885 138.724,158.051 136.5,160C 128.629,164.297 120.629,168.297 112.5,172C 109.146,172.455 105.813,172.955 102.5,173.5C 101.609,172.89 100.609,172.557 99.5,172.5C 99.5,172.167 99.5,171.833 99.5,171.5C 125.918,158.13 152.585,145.13 179.5,132.5 Z"/></g>
<g><path style="opacity:1" fill="#00c7fe" d="M 174.5,103.5 C 170.778,105.523 166.778,106.689 162.5,107C 151.6,113.617 140.267,119.45 128.5,124.5C 127.5,125.5 126.5,126.5 125.5,127.5C 109.877,134.147 94.8768,141.481 80.5,149.5C 79.6618,149.158 79.3284,148.492 79.5,147.5C 109.718,131.085 140.385,115.418 171.5,100.5C 172.855,101.188 173.855,102.188 174.5,103.5 Z"/></g>
<g><path style="opacity:1" fill="#a309fe" d="M 225.5,125.5 C 225.498,131.523 225.165,137.523 224.5,143.5C 221.027,145.652 217.36,147.319 213.5,148.5C 212.486,146.426 211.486,144.426 210.5,142.5C 210.956,138.336 211.622,134.336 212.5,130.5C 212.369,131.239 212.536,131.906 213,132.5C 217.275,130.281 221.441,127.948 225.5,125.5 Z"/></g>
<g><path style="opacity:1" fill="#0028fe" d="M 180.5,123.5 C 180.5,124.167 180.5,124.833 180.5,125.5C 166.235,131.299 152.569,138.132 139.5,146C 135.395,147.202 131.395,148.702 127.5,150.5C 122.91,153.756 118.243,156.923 113.5,160C 108.42,161.804 103.42,163.804 98.5,166C 97.6198,167.356 97.2865,168.856 97.5,170.5C 96.1667,169.833 95.1667,168.833 94.5,167.5C 96.4293,165.852 98.4293,164.185 100.5,162.5C 126.985,148.923 153.652,135.923 180.5,123.5 Z"/></g>
<g><path style="opacity:1" fill="#9ccccc" d="M 43.5,108.5 C 44.1174,108.611 44.6174,108.944 45,109.5C 45.1667,112.167 45.3333,114.833 45.5,117.5C 45.1612,126.793 44.9945,136.127 45,145.5C 43.6533,149.344 41.1533,152.011 37.5,153.5C 39.8847,151.116 41.8847,148.45 43.5,145.5C 44.7815,142.064 44.7815,138.731 43.5,135.5C 43.5,133.5 43.5,131.5 43.5,129.5C 44.2512,122.453 44.2512,115.453 43.5,108.5 Z"/></g>
<g><path style="opacity:1" fill="#0569fe" d="M 178.5,113.5 C 178.557,114.609 178.89,115.609 179.5,116.5C 148.772,131.636 118.106,146.97 87.5,162.5C 86.8333,162.5 86.5,162.167 86.5,161.5C 86.4431,160.391 86.1098,159.391 85.5,158.5C 99.5137,152.993 112.847,146.16 125.5,138C 141.118,130.669 156.451,123.002 171.5,115C 173.74,114.023 176.073,113.523 178.5,113.5 Z"/></g>
<g><path style="opacity:1" fill="#05fe95" d="M 43.5,135.5 C 44.7815,138.731 44.7815,142.064 43.5,145.5C 40.0566,145.353 38.0566,147.02 37.5,150.5C 35.2054,152.742 33.2054,152.742 31.5,150.5C 31.4249,147.794 31.0916,145.127 30.5,142.5C 34.8183,139.964 39.1516,137.631 43.5,135.5 Z"/></g>
<g><path style="opacity:1" fill="#0014ff" d="M 180.5,125.5 C 180.5,126.833 180.5,128.167 180.5,129.5C 178.436,129.687 176.436,130.187 174.5,131C 162.768,139.032 150.102,145.199 136.5,149.5C 135.167,150.833 133.833,152.167 132.5,153.5C 121.111,159.194 109.778,164.861 98.5,170.5C 98.1667,170.5 97.8333,170.5 97.5,170.5C 97.2865,168.856 97.6198,167.356 98.5,166C 103.42,163.804 108.42,161.804 113.5,160C 118.243,156.923 122.91,153.756 127.5,150.5C 131.395,148.702 135.395,147.202 139.5,146C 152.569,138.132 166.235,131.299 180.5,125.5 Z"/></g>
<g><path style="opacity:1" fill="#4ef0c1" d="M 43.5,145.5 C 41.8847,148.45 39.8847,151.116 37.5,153.5C 33.4291,157.824 31.4291,156.824 31.5,150.5C 33.2054,152.742 35.2054,152.742 37.5,150.5C 38.0566,147.02 40.0566,145.353 43.5,145.5 Z"/></g>
<g><path style="opacity:1" fill="#79baba" d="M 210.5,142.5 C 211.486,144.426 212.486,146.426 213.5,148.5C 215.194,150.861 217.194,152.861 219.5,154.5C 213.612,152.744 210.612,148.744 210.5,142.5 Z"/></g>
<g><path style="opacity:1" fill="#ee00fe" d="M 224.5,143.5 C 223.578,147.112 222.911,150.779 222.5,154.5C 221.5,154.5 220.5,154.5 219.5,154.5C 217.194,152.861 215.194,150.861 213.5,148.5C 217.36,147.319 221.027,145.652 224.5,143.5 Z"/></g>
<g><path style="opacity:1" fill="#2b00fe" d="M 179.5,135.5 C 179.483,137.565 179.15,139.565 178.5,141.5C 176.146,141.838 173.813,142.338 171.5,143C 150.581,154.626 129.248,165.46 107.5,175.5C 105.597,175.204 103.93,174.537 102.5,173.5C 105.813,172.955 109.146,172.455 112.5,172C 120.629,168.297 128.629,164.297 136.5,160C 138.724,158.051 140.724,155.885 142.5,153.5C 154.661,147.254 166.994,141.254 179.5,135.5 Z"/></g>
<g><path style="opacity:1" fill="#90c6c5" d="M 80.5,152.5 C 80.8333,152.5 81.1667,152.5 81.5,152.5C 81.5,153.167 81.8333,153.5 82.5,153.5C 82.3284,154.492 82.6618,155.158 83.5,155.5C 83.5,156.167 83.8333,156.5 84.5,156.5C 84.3284,157.492 84.6618,158.158 85.5,158.5C 86.1098,159.391 86.4431,160.391 86.5,161.5C 83.2633,159.37 81.2633,156.37 80.5,152.5 Z"/></g>
<g><path style="opacity:1" fill="#4a00fe" d="M 178.5,141.5 C 177.695,143.915 176.695,146.249 175.5,148.5C 166.595,151.304 157.928,154.804 149.5,159C 140.623,163.702 131.623,168.202 122.5,172.5C 120.273,176.28 116.94,177.947 112.5,177.5C 110.597,177.204 108.93,176.537 107.5,175.5C 129.248,165.46 150.581,154.626 171.5,143C 173.813,142.338 176.146,141.838 178.5,141.5 Z"/></g>
<g><path style="opacity:1" fill="#83bec0" d="M 87.5,162.5 C 89.0301,163.211 90.3634,164.211 91.5,165.5C 91.9731,166.906 92.9731,167.573 94.5,167.5C 95.1667,168.833 96.1667,169.833 97.5,170.5C 97.8333,170.5 98.1667,170.5 98.5,170.5C 98.5,171.167 98.8333,171.5 99.5,171.5C 99.5,171.833 99.5,172.167 99.5,172.5C 96.4838,171.657 93.8171,170.157 91.5,168C 89.5359,166.549 88.2026,164.716 87.5,162.5 Z"/></g>
<g><path style="opacity:1" fill="#8800fe" d="M 174.5,151.5 C 162.834,172.167 145.167,181.5 121.5,179.5C 125.937,177.109 130.27,174.443 134.5,171.5C 147.876,164.812 161.209,158.145 174.5,151.5 Z"/></g>
<g><path style="opacity:1" fill="#87bcbd" d="M 207.5,172.5 C 215.523,173.237 216.523,176.237 210.5,181.5C 210.557,180.391 210.89,179.391 211.5,178.5C 211.923,177.735 212.257,176.902 212.5,176C 211.079,174.377 209.412,173.21 207.5,172.5 Z"/></g>
<g><path style="opacity:1" fill="#81bebe" d="M 48.5,172.5 C 47.0028,173.306 45.3361,173.972 43.5,174.5C 42.5661,176.095 42.5661,177.761 43.5,179.5C 41.5839,178.335 40.7506,176.668 41,174.5C 43.2276,172.887 45.7276,172.22 48.5,172.5 Z"/></g>
<g><path style="opacity:1" fill="#6bb0b8" d="M 50.5,172.5 C 55.5711,172.275 59.2377,174.275 61.5,178.5C 60.1667,177.833 58.8333,177.167 57.5,176.5C 55.2974,174.9 52.964,173.567 50.5,172.5 Z"/></g>
<g><path style="opacity:1" fill="#9ecdcd" d="M 178.5,112.5 C 185.208,138.194 177.541,158.694 155.5,174C 141.642,181.983 127.308,183.483 112.5,178.5C 115.455,179.159 118.455,179.492 121.5,179.5C 145.167,181.5 162.834,172.167 174.5,151.5C 175.11,150.609 175.443,149.609 175.5,148.5C 176.695,146.249 177.695,143.915 178.5,141.5C 179.15,139.565 179.483,137.565 179.5,135.5C 179.5,134.5 179.5,133.5 179.5,132.5C 180.404,131.791 180.737,130.791 180.5,129.5C 180.5,128.167 180.5,126.833 180.5,125.5C 180.5,124.833 180.5,124.167 180.5,123.5C 180.167,122.833 179.833,122.167 179.5,121.5C 179.5,119.833 179.5,118.167 179.5,116.5C 178.89,115.609 178.557,114.609 178.5,113.5C 178.5,113.167 178.5,112.833 178.5,112.5 Z"/></g>
<g><path style="opacity:1" fill="#84bac3" d="M 99.5,172.5 C 100.609,172.557 101.609,172.89 102.5,173.5C 103.93,174.537 105.597,175.204 107.5,175.5C 108.93,176.537 110.597,177.204 112.5,177.5C 112.5,177.833 112.5,178.167 112.5,178.5C 107.222,178.358 102.888,176.358 99.5,172.5 Z"/></g>
<g><path style="opacity:1" fill="#6800fe" d="M 175.5,148.5 C 175.443,149.609 175.11,150.609 174.5,151.5C 161.209,158.145 147.876,164.812 134.5,171.5C 130.27,174.443 125.937,177.109 121.5,179.5C 118.455,179.492 115.455,179.159 112.5,178.5C 112.5,178.167 112.5,177.833 112.5,177.5C 116.94,177.947 120.273,176.28 122.5,172.5C 131.623,168.202 140.623,163.702 149.5,159C 157.928,154.804 166.595,151.304 175.5,148.5 Z"/></g>
<g><path style="opacity:1" fill="#fe0b8b" d="M 207.5,172.5 C 209.412,173.21 211.079,174.377 212.5,176C 212.257,176.902 211.923,177.735 211.5,178.5C 201.198,182.653 191.198,187.319 181.5,192.5C 181.5,192.167 181.5,191.833 181.5,191.5C 181.5,190.833 181.833,190.5 182.5,190.5C 186.167,188.833 188.833,186.167 190.5,182.5C 190.5,181.833 190.833,181.5 191.5,181.5C 193.63,179.873 195.63,178.04 197.5,176C 199.925,174.787 202.259,173.621 204.5,172.5C 205.5,171.167 206.5,171.167 207.5,172.5 Z"/></g>
<g><path style="opacity:1" fill="#7ab9b9" d="M 204.5,172.5 C 202.259,173.621 199.925,174.787 197.5,176C 195.63,178.04 193.63,179.873 191.5,181.5C 193.858,175.809 198.192,172.809 204.5,172.5 Z"/></g>
<g><path style="opacity:1" fill="#1075fe" d="M 50.5,172.5 C 52.964,173.567 55.2974,174.9 57.5,176.5C 53.4255,177.372 49.7589,179.039 46.5,181.5C 45.5,180.833 44.5,180.167 43.5,179.5C 42.5661,177.761 42.5661,176.095 43.5,174.5C 45.3361,173.972 47.0028,173.306 48.5,172.5C 49.1667,171.167 49.8333,171.167 50.5,172.5 Z"/></g>
<g><path style="opacity:1" fill="#0255fe" d="M 57.5,176.5 C 58.8333,177.167 60.1667,177.833 61.5,178.5C 61.5,178.833 61.5,179.167 61.5,179.5C 57.0658,180.883 52.7324,182.55 48.5,184.5C 47.0937,184.027 46.427,183.027 46.5,181.5C 49.7589,179.039 53.4255,177.372 57.5,176.5 Z"/></g>
<g><path style="opacity:1" fill="#8cc4c3" d="M 61.5,178.5 C 63.914,179.911 65.5806,181.911 66.5,184.5C 64.5,183.167 62.8333,181.5 61.5,179.5C 61.5,179.167 61.5,178.833 61.5,178.5 Z"/></g>
<g><path style="opacity:1" fill="#84bec1" d="M 43.5,179.5 C 44.5,180.167 45.5,180.833 46.5,181.5C 46.427,183.027 47.0937,184.027 48.5,184.5C 52.3904,191.062 57.3904,196.729 63.5,201.5C 63.8333,202.167 64.1667,202.833 64.5,203.5C 55.3509,197.353 48.3509,189.353 43.5,179.5 Z"/></g>
<g><path style="opacity:1" fill="#7ababa" d="M 190.5,182.5 C 188.833,186.167 186.167,188.833 182.5,190.5C 184.833,187.5 187.5,184.833 190.5,182.5 Z"/></g>
<g><path style="opacity:1" fill="#96c9c8" d="M 210.5,181.5 C 207.985,187.348 204.318,192.348 199.5,196.5C 199.389,195.883 199.056,195.383 198.5,195C 202.085,191.922 205.085,188.422 207.5,184.5C 208.167,183.167 209.167,182.167 210.5,181.5 Z"/></g>
<g><path style="opacity:1" fill="#fe134c" d="M 207.5,184.5 C 205.085,188.422 202.085,191.922 198.5,195C 199.056,195.383 199.389,195.883 199.5,196.5C 198.5,197.167 197.5,197.833 196.5,198.5C 195.833,198.5 195.167,198.5 194.5,198.5C 191.781,198.397 189.115,198.731 186.5,199.5C 183.211,201.978 179.544,203.644 175.5,204.5C 174.824,205.602 174.158,206.602 173.5,207.5C 173.167,207.5 172.833,207.5 172.5,207.5C 171.167,206.5 171.167,205.5 172.5,204.5C 173.313,202.739 174.313,201.072 175.5,199.5C 186.479,195.008 197.146,190.008 207.5,184.5 Z"/></g>
<g><path style="opacity:1" fill="#ff0068" d="M 211.5,178.5 C 210.89,179.391 210.557,180.391 210.5,181.5C 209.167,182.167 208.167,183.167 207.5,184.5C 197.146,190.008 186.479,195.008 175.5,199.5C 176.757,196.573 178.757,194.239 181.5,192.5C 191.198,187.319 201.198,182.653 211.5,178.5 Z"/></g>
<g><path style="opacity:1" fill="#280efe" d="M 61.5,179.5 C 62.8333,181.5 64.5,183.167 66.5,184.5C 69.71,188.145 73.0433,191.812 76.5,195.5C 71.749,196.71 67.4156,198.71 63.5,201.5C 57.3904,196.729 52.3904,191.062 48.5,184.5C 52.7324,182.55 57.0658,180.883 61.5,179.5 Z"/></g>
<g><path style="opacity:1" fill="#7ab7b7" d="M 181.5,191.5 C 181.5,191.833 181.5,192.167 181.5,192.5C 178.757,194.239 176.757,196.573 175.5,199.5C 174.313,201.072 173.313,202.739 172.5,204.5C 172.809,198.192 175.809,193.858 181.5,191.5 Z"/></g>
<g><path style="opacity:1" fill="#8bc3c3" d="M 194.5,198.5 C 195.167,198.5 195.833,198.5 196.5,198.5C 195.135,200.86 193.135,202.527 190.5,203.5C 191.833,201.833 193.167,200.167 194.5,198.5 Z"/></g>
<g><path style="opacity:1" fill="#7b00fe" d="M 76.5,195.5 C 80.1256,197.9 82.1256,201.4 82.5,206C 82.7447,211.787 80.4113,213.453 75.5,211C 72.1223,207.985 68.4556,205.485 64.5,203.5C 64.1667,202.833 63.8333,202.167 63.5,201.5C 67.4156,198.71 71.749,196.71 76.5,195.5 Z"/></g>
<g><path style="opacity:1" fill="#97cac9" d="M 190.5,203.5 C 188.433,206.886 185.433,209.219 181.5,210.5C 184.19,207.815 187.19,205.482 190.5,203.5 Z"/></g>
<g><path style="opacity:1" fill="#ff0028" d="M 194.5,198.5 C 193.167,200.167 191.833,201.833 190.5,203.5C 187.19,205.482 184.19,207.815 181.5,210.5C 179.634,211.014 177.8,211.68 176,212.5C 174.124,211.381 173.291,209.714 173.5,207.5C 174.158,206.602 174.824,205.602 175.5,204.5C 179.544,203.644 183.211,201.978 186.5,199.5C 189.115,198.731 191.781,198.397 194.5,198.5 Z"/></g>
<g><path style="opacity:1" fill="#85bbba" d="M 172.5,207.5 C 172.833,207.5 173.167,207.5 173.5,207.5C 173.291,209.714 174.124,211.381 176,212.5C 177.8,211.68 179.634,211.014 181.5,210.5C 176.237,216.523 173.237,215.523 172.5,207.5 Z"/></g>
<g><path style="opacity:1" fill="#92c6c7" d="M 66.5,184.5 C 73.223,189.055 78.723,194.722 83,201.5C 85.2787,214.005 81.4454,216.839 71.5,210C 68.6377,208.265 66.3044,206.098 64.5,203.5C 68.4556,205.485 72.1223,207.985 75.5,211C 80.4113,213.453 82.7447,211.787 82.5,206C 82.1256,201.4 80.1256,197.9 76.5,195.5C 73.0433,191.812 69.71,188.145 66.5,184.5 Z"/></g>
<g><path style="opacity:1" fill="#79baba" d="M 142.5,210.5 C 148.744,210.612 152.744,213.612 154.5,219.5C 153.061,217.64 151.395,215.973 149.5,214.5C 148.486,213.326 147.153,212.66 145.5,212.5C 144.5,211.833 143.5,211.167 142.5,210.5 Z"/></g>
<g><path style="opacity:1" fill="#84bbbd" d="M 142.5,210.5 C 140.194,210.993 137.861,211.326 135.5,211.5C 131.846,211.942 128.179,212.276 124.5,212.5C 117.19,209.304 110.357,210.304 104,215.5C 102.354,217.609 101.188,219.943 100.5,222.5C 99.946,216.854 102.613,213.021 108.5,211C 110.649,210.421 112.815,209.921 115,209.5C 124.347,210.427 133.513,210.76 142.5,210.5 Z"/></g>
<g><path style="opacity:1" fill="#fe0782" d="M 142.5,210.5 C 143.5,211.167 144.5,211.833 145.5,212.5C 136.398,216.908 127.065,220.908 117.5,224.5C 115.167,224.5 112.833,224.5 110.5,224.5C 118.78,219.969 127.113,215.636 135.5,211.5C 137.861,211.326 140.194,210.993 142.5,210.5 Z"/></g>
<g><path style="opacity:1" fill="#fe02a0" d="M 135.5,211.5 C 127.113,215.636 118.78,219.969 110.5,224.5C 108.374,223.952 106.374,223.285 104.5,222.5C 111.715,220.226 118.382,216.893 124.5,212.5C 128.179,212.276 131.846,211.942 135.5,211.5 Z"/></g>
<g><path style="opacity:1" fill="#fe06bb" d="M 124.5,212.5 C 118.382,216.893 111.715,220.226 104.5,222.5C 103.167,222.5 101.833,222.5 100.5,222.5C 101.188,219.943 102.354,217.609 104,215.5C 110.357,210.304 117.19,209.304 124.5,212.5 Z"/></g>
<g><path style="opacity:1" fill="#ff0064" d="M 145.5,212.5 C 147.153,212.66 148.486,213.326 149.5,214.5C 142.623,218.438 135.623,222.105 128.5,225.5C 124.629,225.815 120.962,225.482 117.5,224.5C 127.065,220.908 136.398,216.908 145.5,212.5 Z"/></g>
<g><path style="opacity:1" fill="#ff0039" d="M 149.5,214.5 C 151.395,215.973 153.061,217.64 154.5,219.5C 154.5,220.5 154.5,221.5 154.5,222.5C 145.915,224.156 137.249,225.156 128.5,225.5C 135.623,222.105 142.623,218.438 149.5,214.5 Z"/></g>
<g><path style="opacity:1" fill="#82bfbf" d="M 154.5,219.5 C 157.389,221.496 157.056,222.996 153.5,224C 137.847,227.617 122.18,227.951 106.5,225C 104.148,224.76 102.148,223.927 100.5,222.5C 101.833,222.5 103.167,222.5 104.5,222.5C 106.374,223.285 108.374,223.952 110.5,224.5C 112.833,224.5 115.167,224.5 117.5,224.5C 120.962,225.482 124.629,225.815 128.5,225.5C 137.249,225.156 145.915,224.156 154.5,222.5C 154.5,221.5 154.5,220.5 154.5,219.5 Z"/></g>
</svg>
