<?xml version="1.0" encoding="UTF-8"?>
<!DOCTYPE svg PUBLIC "-//W3C//DTD SVG 1.1//EN" "http://www.w3.org/Graphics/SVG/1.1/DTD/svg11.dtd">
<svg xmlns="http://www.w3.org/2000/svg" version="1.1" width="256px" height="256px" style="shape-rendering:geometricPrecision; text-rendering:geometricPrecision; image-rendering:optimizeQuality; fill-rule:evenodd; clip-rule:evenodd" xmlns:xlink="http://www.w3.org/1999/xlink">
<g><path style="opacity:1" fill="#fbaf7b" d="M 173.5,55.5 C 169.246,54.3538 164.913,53.6871 160.5,53.5C 160.167,53.5 159.833,53.5 159.5,53.5C 154.695,52.5128 149.695,52.1795 144.5,52.5C 142.833,52.5 141.167,52.5 139.5,52.5C 135.5,52.5 131.5,52.5 127.5,52.5C 124.167,52.5 120.833,52.5 117.5,52.5C 115.833,52.5 114.167,52.5 112.5,52.5C 111.167,52.5 109.833,52.5 108.5,52.5C 105.833,52.5 103.167,52.5 100.5,52.5C 99.5,52.5 98.5,52.5 97.5,52.5C 93.8333,52.5 90.1667,52.5 86.5,52.5C 78.1667,52.5 69.8333,52.5 61.5,52.5C 61.5,52.1667 61.5,51.8333 61.5,51.5C 91.6639,50.3361 121.997,50.1694 152.5,51C 157.882,51.3073 163.215,51.974 168.5,53C 170.653,53.0995 172.319,53.9328 173.5,55.5 Z"/></g>
<g><path style="opacity:1" fill="#ff0400" d="M 61.5,52.5 C 69.8333,52.5 78.1667,52.5 86.5,52.5C 86.4894,54.0174 85.8228,55.1841 84.5,56C 80.734,59.0311 76.734,61.6977 72.5,64C 69.2258,67.9595 65.5592,71.4595 61.5,74.5C 61.5,67.1667 61.5,59.8333 61.5,52.5 Z"/></g>
<g><path style="opacity:1" fill="#a3fe00" d="M 144.5,52.5 C 149.695,52.1795 154.695,52.5128 159.5,53.5C 154.636,54.3456 149.969,56.0123 145.5,58.5C 139.827,62.1526 134.827,66.4859 130.5,71.5C 127.5,71.5 124.5,71.5 121.5,71.5C 126.233,68.2756 130.567,64.4423 134.5,60C 138.814,58.858 142.148,56.358 144.5,52.5 Z"/></g>
<g><path style="opacity:1" fill="#ff2a00" d="M 86.5,52.5 C 90.1667,52.5 93.8333,52.5 97.5,52.5C 91.9579,55.3504 86.6245,58.6838 81.5,62.5C 75.7375,68.4263 69.0708,73.0929 61.5,76.5C 61.5,75.8333 61.5,75.1667 61.5,74.5C 65.5592,71.4595 69.2258,67.9595 72.5,64C 76.734,61.6977 80.734,59.0311 84.5,56C 85.8228,55.1841 86.4894,54.0174 86.5,52.5 Z"/></g>
<g><path style="opacity:1" fill="#fbb889" d="M 175.5,56.5 C 179.892,57.3593 183.225,59.6927 185.5,63.5C 184.391,63.4431 183.391,63.1098 182.5,62.5C 181.198,60.1782 179.198,58.8449 176.5,58.5C 176.167,57.8333 175.833,57.1667 175.5,56.5 Z"/></g>
<g><path style="opacity:1" fill="#f8f800" d="M 127.5,52.5 C 131.5,52.5 135.5,52.5 139.5,52.5C 135.769,54.3621 132.103,56.5287 128.5,59C 126.266,62.2486 123.266,64.2486 119.5,65C 116.278,67.4515 112.945,69.6182 109.5,71.5C 107.167,71.5 104.833,71.5 102.5,71.5C 104.628,68.8697 106.961,66.3697 109.5,64C 114.659,61.5879 119.659,58.9212 124.5,56C 125.71,54.9609 126.71,53.7942 127.5,52.5 Z"/></g>
<g><path style="opacity:1" fill="#ffa300" d="M 112.5,52.5 C 114.167,52.5 115.833,52.5 117.5,52.5C 115.706,54.7966 113.706,56.9633 111.5,59C 105.165,63.863 98.4982,68.0297 91.5,71.5C 90.5,71.5 89.5,71.5 88.5,71.5C 93.0716,66.4365 98.405,62.2699 104.5,59C 107.42,57.0539 110.087,54.8872 112.5,52.5 Z"/></g>
<g><path style="opacity:1" fill="#45fe05" d="M 160.5,53.5 C 164.913,53.6871 169.246,54.3538 173.5,55.5C 174.492,55.3284 175.158,55.6618 175.5,56.5C 170.614,57.5507 166.281,59.7173 162.5,63C 160.028,64.4601 157.361,65.4601 154.5,66C 152.561,67.4321 151.228,69.2654 150.5,71.5C 146.167,71.5 141.833,71.5 137.5,71.5C 139.59,67.6016 142.923,65.4349 147.5,65C 149.305,62.5971 151.638,60.9305 154.5,60C 156.027,57.3098 158.027,55.1432 160.5,53.5 Z"/></g>
<g><path style="opacity:1" fill="#ffc800" d="M 117.5,52.5 C 120.833,52.5 124.167,52.5 127.5,52.5C 126.71,53.7942 125.71,54.9609 124.5,56C 119.659,58.9212 114.659,61.5879 109.5,64C 106.961,66.3697 104.628,68.8697 102.5,71.5C 98.8333,71.5 95.1667,71.5 91.5,71.5C 98.4982,68.0297 105.165,63.863 111.5,59C 113.706,56.9633 115.706,54.7966 117.5,52.5 Z"/></g>
<g><path style="opacity:1" fill="#ceff00" d="M 139.5,52.5 C 141.167,52.5 142.833,52.5 144.5,52.5C 142.148,56.358 138.814,58.858 134.5,60C 130.567,64.4423 126.233,68.2756 121.5,71.5C 117.5,71.5 113.5,71.5 109.5,71.5C 112.945,69.6182 116.278,67.4515 119.5,65C 123.266,64.2486 126.266,62.2486 128.5,59C 132.103,56.5287 135.769,54.3621 139.5,52.5 Z"/></g>
<g><path style="opacity:1" fill="#79ff00" d="M 159.5,53.5 C 159.833,53.5 160.167,53.5 160.5,53.5C 158.027,55.1432 156.027,57.3098 154.5,60C 151.638,60.9305 149.305,62.5971 147.5,65C 142.923,65.4349 139.59,67.6016 137.5,71.5C 135.167,71.5 132.833,71.5 130.5,71.5C 134.827,66.4859 139.827,62.1526 145.5,58.5C 149.969,56.0123 154.636,54.3456 159.5,53.5 Z"/></g>
<g><path style="opacity:1" fill="#10ff02" d="M 175.5,56.5 C 175.833,57.1667 176.167,57.8333 176.5,58.5C 173.428,63.4075 169.094,66.5741 163.5,68C 162.809,69.0674 162.309,70.2341 162,71.5C 161.329,72.2524 160.496,72.5858 159.5,72.5C 156.518,72.0371 153.518,71.7038 150.5,71.5C 151.228,69.2654 152.561,67.4321 154.5,66C 157.361,65.4601 160.028,64.4601 162.5,63C 166.281,59.7173 170.614,57.5507 175.5,56.5 Z"/></g>
<g><path style="opacity:1" fill="#01fe2b" d="M 176.5,58.5 C 179.198,58.8449 181.198,60.1782 182.5,62.5C 178.476,64.0162 175.143,66.5162 172.5,70C 169.586,71.7661 166.586,73.2661 163.5,74.5C 162.833,74.5 162.167,74.5 161.5,74.5C 160.833,73.8333 160.167,73.1667 159.5,72.5C 160.496,72.5858 161.329,72.2524 162,71.5C 162.309,70.2341 162.809,69.0674 163.5,68C 169.094,66.5741 173.428,63.4075 176.5,58.5 Z"/></g>
<g><path style="opacity:1" fill="#ff4b00" d="M 97.5,52.5 C 98.5,52.5 99.5,52.5 100.5,52.5C 98.8802,54.9842 96.5469,56.4842 93.5,57C 91.1255,59.039 89.1255,61.3723 87.5,64C 81.629,65.7905 76.629,68.9571 72.5,73.5C 68.8226,75.518 65.1559,77.518 61.5,79.5C 61.5,78.5 61.5,77.5 61.5,76.5C 69.0708,73.0929 75.7375,68.4263 81.5,62.5C 86.6245,58.6838 91.9579,55.3504 97.5,52.5 Z"/></g>
<g><path style="opacity:1" fill="#05fe5b" d="M 182.5,62.5 C 183.391,63.1098 184.391,63.4431 185.5,63.5C 185.557,64.609 185.89,65.609 186.5,66.5C 180.878,70.4382 175.211,74.4382 169.5,78.5C 167.463,77.1535 165.463,75.8202 163.5,74.5C 166.586,73.2661 169.586,71.7661 172.5,70C 175.143,66.5162 178.476,64.0162 182.5,62.5 Z"/></g>
<g><path style="opacity:1" fill="#fab685" d="M 88.5,71.5 C 89.5,71.5 90.5,71.5 91.5,71.5C 95.1667,71.5 98.8333,71.5 102.5,71.5C 104.833,71.5 107.167,71.5 109.5,71.5C 113.5,71.5 117.5,71.5 121.5,71.5C 124.5,71.5 127.5,71.5 130.5,71.5C 132.833,71.5 135.167,71.5 137.5,71.5C 141.833,71.5 146.167,71.5 150.5,71.5C 153.518,71.7038 156.518,72.0371 159.5,72.5C 160.167,73.1667 160.833,73.8333 161.5,74.5C 158.513,74.0022 155.513,73.5022 152.5,73C 129.502,72.5 106.502,72.3334 83.5,72.5C 83.6659,77.5111 83.4993,82.5111 83,87.5C 82.9005,89.6526 82.0672,91.3192 80.5,92.5C 81.2186,90.2362 81.552,87.9029 81.5,85.5C 81.5,82.5 81.5,79.5 81.5,76.5C 81.5,74.8333 81.5,73.1667 81.5,71.5C 83.8333,71.5 86.1667,71.5 88.5,71.5 Z"/></g>
<g><path style="opacity:1" fill="#fbb98c" d="M 161.5,74.5 C 162.167,74.5 162.833,74.5 163.5,74.5C 165.463,75.8202 167.463,77.1535 169.5,78.5C 170.11,79.391 170.443,80.391 170.5,81.5C 167.642,78.9138 164.642,76.5805 161.5,74.5 Z"/></g>
<g><path style="opacity:1" fill="#ff6500" d="M 100.5,52.5 C 103.167,52.5 105.833,52.5 108.5,52.5C 103.111,57.0574 97.1111,60.5574 90.5,63C 87.8225,67.0326 84.1559,69.3659 79.5,70C 74.4304,75.9246 68.4304,80.4246 61.5,83.5C 61.5,82.1667 61.5,80.8333 61.5,79.5C 65.1559,77.518 68.8226,75.518 72.5,73.5C 76.629,68.9571 81.629,65.7905 87.5,64C 89.1255,61.3723 91.1255,59.039 93.5,57C 96.5469,56.4842 98.8802,54.9842 100.5,52.5 Z"/></g>
<g><path style="opacity:1" fill="#0bfea1" d="M 186.5,66.5 C 188.326,68.1475 189.66,70.1475 190.5,72.5C 188.38,73.4506 186.714,74.9506 185.5,77C 184.167,77.3333 182.833,77.6667 181.5,78C 178.412,82.266 174.746,83.4326 170.5,81.5C 170.443,80.391 170.11,79.391 169.5,78.5C 175.211,74.4382 180.878,70.4382 186.5,66.5 Z"/></g>
<g><path style="opacity:1" fill="#1dfec9" d="M 190.5,72.5 C 191.674,73.5137 192.34,74.847 192.5,76.5C 186.859,78.9954 181.859,82.4954 177.5,87C 176.552,87.4828 175.552,87.6495 174.5,87.5C 174.5,86.8333 174.167,86.5 173.5,86.5C 172.11,85.1007 171.11,83.4341 170.5,81.5C 174.746,83.4326 178.412,82.266 181.5,78C 182.833,77.6667 184.167,77.3333 185.5,77C 186.714,74.9506 188.38,73.4506 190.5,72.5 Z"/></g>
<g><path style="opacity:1" fill="#ff8400" d="M 108.5,52.5 C 109.833,52.5 111.167,52.5 112.5,52.5C 110.087,54.8872 107.42,57.0539 104.5,59C 98.405,62.2699 93.0716,66.4365 88.5,71.5C 86.1667,71.5 83.8333,71.5 81.5,71.5C 81.5,73.1667 81.5,74.8333 81.5,76.5C 74.2676,80.7306 67.601,85.7306 61.5,91.5C 61.5,88.8333 61.5,86.1667 61.5,83.5C 68.4304,80.4246 74.4304,75.9246 79.5,70C 84.1559,69.3659 87.8225,67.0326 90.5,63C 97.1111,60.5574 103.111,57.0574 108.5,52.5 Z"/></g>
<g><path style="opacity:1" fill="#08feef" d="M 192.5,76.5 C 193.234,77.7079 193.567,79.0413 193.5,80.5C 188.411,85.2451 182.745,89.2451 176.5,92.5C 175.833,90.8333 175.167,89.1667 174.5,87.5C 175.552,87.6495 176.552,87.4828 177.5,87C 181.859,82.4954 186.859,78.9954 192.5,76.5 Z"/></g>
<g><path style="opacity:1" fill="#f9b07e" d="M 185.5,63.5 C 192.529,70.2331 196.363,78.5664 197,88.5C 197.498,91.8168 197.665,95.1501 197.5,98.5C 196.833,98.5 196.5,98.1667 196.5,97.5C 196.5,95.8333 196.5,94.1667 196.5,92.5C 195.962,90.8828 195.629,89.2161 195.5,87.5C 195.279,84.9327 194.612,82.5994 193.5,80.5C 193.567,79.0413 193.234,77.7079 192.5,76.5C 192.34,74.847 191.674,73.5137 190.5,72.5C 189.66,70.1475 188.326,68.1475 186.5,66.5C 185.89,65.609 185.557,64.609 185.5,63.5 Z"/></g>
<g><path style="opacity:1" fill="#ffbc00" d="M 81.5,76.5 C 81.5,79.5 81.5,82.5 81.5,85.5C 76.3346,87.3375 72.0013,90.3375 68.5,94.5C 66.1667,94.5 63.8333,94.5 61.5,94.5C 61.5,93.5 61.5,92.5 61.5,91.5C 67.601,85.7306 74.2676,80.7306 81.5,76.5 Z"/></g>
<g><path style="opacity:1" fill="#fef008" d="M 81.5,85.5 C 81.552,87.9029 81.2186,90.2362 80.5,92.5C 80.5,93.1667 80.1667,93.5 79.5,93.5C 75.9009,94.3439 72.2343,94.6773 68.5,94.5C 72.0013,90.3375 76.3346,87.3375 81.5,85.5 Z"/></g>
<g><path style="opacity:1" fill="#05d5ff" d="M 193.5,80.5 C 194.612,82.5994 195.279,84.9327 195.5,87.5C 194.038,88.4577 192.705,89.6244 191.5,91C 186.578,93.3159 181.578,95.4826 176.5,97.5C 176.5,95.8333 176.5,94.1667 176.5,92.5C 182.745,89.2451 188.411,85.2451 193.5,80.5 Z"/></g>
<g><path style="opacity:1" fill="#fccfb1" d="M 61.5,51.5 C 61.5,51.8333 61.5,52.1667 61.5,52.5C 61.5,59.8333 61.5,67.1667 61.5,74.5C 61.5,75.1667 61.5,75.8333 61.5,76.5C 61.5,77.5 61.5,78.5 61.5,79.5C 61.5,80.8333 61.5,82.1667 61.5,83.5C 61.5,86.1667 61.5,88.8333 61.5,91.5C 61.5,92.5 61.5,93.5 61.5,94.5C 63.8333,94.5 66.1667,94.5 68.5,94.5C 72.2343,94.6773 75.9009,94.3439 79.5,93.5C 78.653,94.9663 77.3197,95.7996 75.5,96C 70.581,96.8015 65.7477,96.6349 61,95.5C 60.1724,80.6609 60.3391,65.9942 61.5,51.5 Z"/></g>
<g><path style="opacity:1" fill="#11abfe" d="M 195.5,87.5 C 195.629,89.2161 195.962,90.8828 196.5,92.5C 195.883,92.3893 195.383,92.056 195,91.5C 190.51,97.3272 184.676,100.994 177.5,102.5C 176.699,100.958 176.366,99.2915 176.5,97.5C 181.578,95.4826 186.578,93.3159 191.5,91C 192.705,89.6244 194.038,88.4577 195.5,87.5 Z"/></g>
<g><path style="opacity:1" fill="#0486ff" d="M 196.5,92.5 C 196.5,94.1667 196.5,95.8333 196.5,97.5C 190.308,102.013 183.974,106.346 177.5,110.5C 177.5,107.833 177.5,105.167 177.5,102.5C 184.676,100.994 190.51,97.3272 195,91.5C 195.383,92.056 195.883,92.3893 196.5,92.5 Z"/></g>
<g><path style="opacity:1" fill="#1633fe" d="M 197.5,99.5 C 197.5,101.833 197.5,104.167 197.5,106.5C 195.447,107.534 193.78,109.034 192.5,111C 187.701,113.902 182.701,116.568 177.5,119C 173.665,123.416 168.998,126.582 163.5,128.5C 159.368,133.637 154.368,137.637 148.5,140.5C 147.143,142.186 145.81,143.852 144.5,145.5C 144.5,145.833 144.5,146.167 144.5,146.5C 143.833,145.5 143.167,144.5 142.5,143.5C 141.662,143.158 141.328,142.492 141.5,141.5C 141.5,141.167 141.5,140.833 141.5,140.5C 143.512,139.772 145.512,138.938 147.5,138C 150.771,134.264 154.771,131.597 159.5,130C 164.24,125.172 169.574,121.339 175.5,118.5C 177.104,117.713 177.771,116.38 177.5,114.5C 180.923,112.929 184.257,111.095 187.5,109C 190.703,105.629 194.036,102.462 197.5,99.5 Z"/></g>
<g><path style="opacity:1" fill="#0756fe" d="M 196.5,97.5 C 196.5,98.1667 196.833,98.5 197.5,98.5C 197.5,98.8333 197.5,99.1667 197.5,99.5C 194.036,102.462 190.703,105.629 187.5,109C 184.257,111.095 180.923,112.929 177.5,114.5C 177.5,113.167 177.5,111.833 177.5,110.5C 183.974,106.346 190.308,102.013 196.5,97.5 Z"/></g>
<g><path style="opacity:1" fill="#f7b991" d="M 173.5,86.5 C 174.167,86.5 174.5,86.8333 174.5,87.5C 175.167,89.1667 175.833,90.8333 176.5,92.5C 176.5,94.1667 176.5,95.8333 176.5,97.5C 176.366,99.2915 176.699,100.958 177.5,102.5C 177.5,105.167 177.5,107.833 177.5,110.5C 177.5,111.833 177.5,113.167 177.5,114.5C 177.771,116.38 177.104,117.713 175.5,118.5C 171.833,118.5 168.167,118.5 164.5,118.5C 161.833,118.5 159.167,118.5 156.5,118.5C 154.167,118.5 151.833,118.5 149.5,118.5C 146.167,118.5 142.833,118.5 139.5,118.5C 137.833,118.5 136.167,118.5 134.5,118.5C 131.167,118.5 127.833,118.5 124.5,118.5C 122.833,118.5 121.167,118.5 119.5,118.5C 118.167,118.5 116.833,118.5 115.5,118.5C 112.167,118.5 108.833,118.5 105.5,118.5C 98.1591,118.334 90.8258,118.5 83.5,119C 82.8599,123.268 82.1933,127.435 81.5,131.5C 81.5,126.833 81.5,122.167 81.5,117.5C 112.833,117.5 144.167,117.5 175.5,117.5C 175.931,107.07 175.264,96.7367 173.5,86.5 Z"/></g>
<g><path style="opacity:1" fill="#0017ff" d="M 197.5,106.5 C 197.5,107.5 197.5,108.5 197.5,109.5C 196.167,110.5 194.833,111.5 193.5,112.5C 189.536,113.293 186.536,115.46 184.5,119C 178.951,120.272 174.618,123.272 171.5,128C 166.487,130.171 162.154,133.338 158.5,137.5C 153.779,140.19 149.112,142.857 144.5,145.5C 145.81,143.852 147.143,142.186 148.5,140.5C 154.368,137.637 159.368,133.637 163.5,128.5C 168.998,126.582 173.665,123.416 177.5,119C 182.701,116.568 187.701,113.902 192.5,111C 193.78,109.034 195.447,107.534 197.5,106.5 Z"/></g>
<g><path style="opacity:1" fill="#1600ff" d="M 197.5,109.5 C 197.5,111.167 197.5,112.833 197.5,114.5C 192.648,117.842 187.648,121.009 182.5,124C 177.772,128.728 173.106,133.394 168.5,138C 162.236,141.27 156.236,144.936 150.5,149C 148.63,151.04 146.63,152.873 144.5,154.5C 144.5,153.167 144.5,151.833 144.5,150.5C 152.776,146.735 159.776,141.235 165.5,134C 171.126,130.699 176.126,126.699 180.5,122C 182.608,121.64 184.608,120.973 186.5,120C 188.511,117.098 190.844,114.598 193.5,112.5C 194.833,111.5 196.167,110.5 197.5,109.5 Z"/></g>
<g><path style="opacity:1" fill="#2e00ff" d="M 197.5,114.5 C 197.5,116.167 197.5,117.833 197.5,119.5C 182.425,129.382 167.425,139.549 152.5,150C 149.964,152.705 147.297,155.205 144.5,157.5C 144.5,156.5 144.5,155.5 144.5,154.5C 146.63,152.873 148.63,151.04 150.5,149C 156.236,144.936 162.236,141.27 168.5,138C 173.106,133.394 177.772,128.728 182.5,124C 187.648,121.009 192.648,117.842 197.5,114.5 Z"/></g>
<g><path style="opacity:1" fill="#05fcf8" d="M 134.5,118.5 C 136.167,118.5 137.833,118.5 139.5,118.5C 134.94,123.125 129.94,127.291 124.5,131C 121.933,132.401 119.267,133.568 116.5,134.5C 111.351,138.125 106.017,141.625 100.5,145C 98.9751,146.009 97.3084,146.509 95.5,146.5C 101.205,141.931 106.871,137.098 112.5,132C 120.097,127.713 127.43,123.213 134.5,118.5 Z"/></g>
<g><path style="opacity:1" fill="#0f7ffe" d="M 156.5,118.5 C 159.167,118.5 161.833,118.5 164.5,118.5C 162.063,120.433 159.729,122.6 157.5,125C 152.923,127.239 148.589,129.905 144.5,133C 142.561,134.432 141.228,136.265 140.5,138.5C 138.426,137.486 136.426,136.486 134.5,135.5C 142.208,130.313 149.541,124.647 156.5,118.5 Z"/></g>
<g><path style="opacity:1" fill="#0cd7fe" d="M 139.5,118.5 C 142.833,118.5 146.167,118.5 149.5,118.5C 146.841,122.005 143.508,124.505 139.5,126C 135.141,129.262 130.807,132.428 126.5,135.5C 123.167,135.5 119.833,135.5 116.5,135.5C 116.5,135.167 116.5,134.833 116.5,134.5C 119.267,133.568 121.933,132.401 124.5,131C 129.94,127.291 134.94,123.125 139.5,118.5 Z"/></g>
<g><path style="opacity:1" fill="#07a6fe" d="M 149.5,118.5 C 151.833,118.5 154.167,118.5 156.5,118.5C 149.541,124.647 142.208,130.313 134.5,135.5C 131.833,135.5 129.167,135.5 126.5,135.5C 130.807,132.428 135.141,129.262 139.5,126C 143.508,124.505 146.841,122.005 149.5,118.5 Z"/></g>
<g><path style="opacity:1" fill="#07fe81" d="M 105.5,119.5 C 105.5,119.167 105.5,118.833 105.5,118.5C 108.833,118.5 112.167,118.5 115.5,118.5C 113.033,120.803 110.7,123.303 108.5,126C 100.067,128.826 92.7332,133.493 86.5,140C 81.4327,143.697 76.0994,147.031 70.5,150C 68.4572,152.009 66.4572,154.009 64.5,156C 61.9664,156.516 59.7998,157.683 58,159.5C 57.6174,158.944 57.1174,158.611 56.5,158.5C 56.5,156.833 56.5,155.167 56.5,153.5C 57.2216,153.918 57.7216,154.584 58,155.5C 61.8424,152 65.6758,148.5 69.5,145C 73.45,144.226 76.45,142.059 78.5,138.5C 83.8014,136.382 88.4681,133.215 92.5,129C 95.1013,128.08 97.7679,127.413 100.5,127C 102.833,124.667 105.167,122.333 107.5,120C 106.906,119.536 106.239,119.369 105.5,119.5 Z"/></g>
<g><path style="opacity:1" fill="#fab88a" d="M 81.5,131.5 C 81.0844,133.752 79.751,135.252 77.5,136C 70.4207,136.203 63.4207,136.703 56.5,137.5C 62.7584,135.7 69.425,134.867 76.5,135C 78.3231,134.003 79.9897,132.836 81.5,131.5 Z"/></g>
<g><path style="opacity:1" fill="#0a50fe" d="M 164.5,118.5 C 168.167,118.5 171.833,118.5 175.5,118.5C 169.574,121.339 164.24,125.172 159.5,130C 154.771,131.597 150.771,134.264 147.5,138C 145.512,138.938 143.512,139.772 141.5,140.5C 141.167,139.833 140.833,139.167 140.5,138.5C 141.228,136.265 142.561,134.432 144.5,133C 148.589,129.905 152.923,127.239 157.5,125C 159.729,122.6 162.063,120.433 164.5,118.5 Z"/></g>
<g><path style="opacity:1" fill="#0afea1" d="M 115.5,118.5 C 116.833,118.5 118.167,118.5 119.5,118.5C 120.684,119.688 120.684,120.855 119.5,122C 112.554,124.141 106.887,127.974 102.5,133.5C 99.0252,135.808 95.6919,138.308 92.5,141C 89.7679,141.413 87.1013,142.08 84.5,143C 75.3614,149.97 66.3614,157.136 57.5,164.5C 57.1667,164.5 56.8333,164.5 56.5,164.5C 56.5,162.5 56.5,160.5 56.5,158.5C 57.1174,158.611 57.6174,158.944 58,159.5C 59.7998,157.683 61.9664,156.516 64.5,156C 66.4572,154.009 68.4572,152.009 70.5,150C 76.0994,147.031 81.4327,143.697 86.5,140C 92.7332,133.493 100.067,128.826 108.5,126C 110.7,123.303 113.033,120.803 115.5,118.5 Z"/></g>
<g><path style="opacity:1" fill="#f9af7c" d="M 116.5,135.5 C 119.833,135.5 123.167,135.5 126.5,135.5C 129.167,135.5 131.833,135.5 134.5,135.5C 136.426,136.486 138.426,137.486 140.5,138.5C 140.833,139.167 141.167,139.833 141.5,140.5C 141.5,140.833 141.5,141.167 141.5,141.5C 139.99,140.164 138.323,138.997 136.5,138C 129.897,136.726 123.23,136.226 116.5,136.5C 116.333,149.504 116.5,162.504 117,175.5C 117.791,176.745 118.291,178.078 118.5,179.5C 117.272,178.694 116.272,177.694 115.5,176.5C 115.5,175.5 115.5,174.5 115.5,173.5C 115.5,171.5 115.5,169.5 115.5,167.5C 115.5,165.167 115.5,162.833 115.5,160.5C 115.5,159.167 115.5,157.833 115.5,156.5C 115.5,154.5 115.5,152.5 115.5,150.5C 115.5,148.167 115.5,145.833 115.5,143.5C 115.5,142.5 115.5,141.5 115.5,140.5C 115.5,139.167 115.5,137.833 115.5,136.5C 115.5,135.833 115.833,135.5 116.5,135.5 Z"/></g>
<g><path style="opacity:1" fill="#07fedb" d="M 124.5,118.5 C 127.833,118.5 131.167,118.5 134.5,118.5C 127.43,123.213 120.097,127.713 112.5,132C 106.871,137.098 101.205,141.931 95.5,146.5C 90.3132,147.961 85.9799,150.794 82.5,155C 73.9714,160.065 65.638,165.232 57.5,170.5C 57.5,169.167 57.5,167.833 57.5,166.5C 61.313,163.422 65.6464,161.256 70.5,160C 77.0794,153.04 84.7461,147.706 93.5,144C 97.6313,139.861 102.298,136.528 107.5,134C 110.825,129.167 115.159,125.5 120.5,123C 122.041,121.629 123.375,120.129 124.5,118.5 Z"/></g>
<g><path style="opacity:1" fill="#0702ff" d="M 193.5,112.5 C 190.844,114.598 188.511,117.098 186.5,120C 184.608,120.973 182.608,121.64 180.5,122C 176.126,126.699 171.126,130.699 165.5,134C 159.776,141.235 152.776,146.735 144.5,150.5C 144.5,149.167 144.5,147.833 144.5,146.5C 144.5,146.167 144.5,145.833 144.5,145.5C 149.112,142.857 153.779,140.19 158.5,137.5C 162.154,133.338 166.487,130.171 171.5,128C 174.618,123.272 178.951,120.272 184.5,119C 186.536,115.46 189.536,113.293 193.5,112.5 Z"/></g>
<g><path style="opacity:1" fill="#15fe3a" d="M 105.5,118.5 C 105.5,118.833 105.5,119.167 105.5,119.5C 100.963,121.851 96.2965,124.017 91.5,126C 83.1956,134.637 73.5289,140.97 62.5,145C 61,146.5 59.5,148 58,149.5C 57.7679,148.263 57.2679,147.263 56.5,146.5C 56.5,143.5 56.5,140.5 56.5,137.5C 63.4207,136.703 70.4207,136.203 77.5,136C 79.751,135.252 81.0844,133.752 81.5,131.5C 82.1933,127.435 82.8599,123.268 83.5,119C 90.8258,118.5 98.1591,118.334 105.5,118.5 Z"/></g>
<g><path style="opacity:1" fill="#5100ff" d="M 197.5,119.5 C 197.5,120.833 197.5,122.167 197.5,123.5C 193.31,128.092 188.31,131.425 182.5,133.5C 174.387,139.445 166.72,145.945 159.5,153C 154.585,156.105 149.585,158.938 144.5,161.5C 144.5,160.167 144.5,158.833 144.5,157.5C 147.297,155.205 149.964,152.705 152.5,150C 167.425,139.549 182.425,129.382 197.5,119.5 Z"/></g>
<g><path style="opacity:1" fill="#09fe5d" d="M 105.5,119.5 C 106.239,119.369 106.906,119.536 107.5,120C 105.167,122.333 102.833,124.667 100.5,127C 97.7679,127.413 95.1013,128.08 92.5,129C 88.4681,133.215 83.8014,136.382 78.5,138.5C 76.45,142.059 73.45,144.226 69.5,145C 65.6758,148.5 61.8424,152 58,155.5C 57.7216,154.584 57.2216,153.918 56.5,153.5C 56.5,151.167 56.5,148.833 56.5,146.5C 57.2679,147.263 57.7679,148.263 58,149.5C 59.5,148 61,146.5 62.5,145C 73.5289,140.97 83.1956,134.637 91.5,126C 96.2965,124.017 100.963,121.851 105.5,119.5 Z"/></g>
<g><path style="opacity:1" fill="#7e00ff" d="M 197.5,123.5 C 197.5,125.5 197.5,127.5 197.5,129.5C 194.313,133.348 190.313,136.014 185.5,137.5C 180.83,144.005 174.83,148.838 167.5,152C 164.326,156.183 160.326,159.183 155.5,161C 151.502,163.391 147.836,166.224 144.5,169.5C 144.5,166.833 144.5,164.167 144.5,161.5C 149.585,158.938 154.585,156.105 159.5,153C 166.72,145.945 174.387,139.445 182.5,133.5C 188.31,131.425 193.31,128.092 197.5,123.5 Z"/></g>
<g><path style="opacity:1" fill="#02fec1" d="M 119.5,118.5 C 121.167,118.5 122.833,118.5 124.5,118.5C 123.375,120.129 122.041,121.629 120.5,123C 115.159,125.5 110.825,129.167 107.5,134C 102.298,136.528 97.6313,139.861 93.5,144C 84.7461,147.706 77.0794,153.04 70.5,160C 65.6464,161.256 61.313,163.422 57.5,166.5C 57.5,165.833 57.5,165.167 57.5,164.5C 66.3614,157.136 75.3614,149.97 84.5,143C 87.1013,142.08 89.7679,141.413 92.5,141C 95.6919,138.308 99.0252,135.808 102.5,133.5C 106.887,127.974 112.554,124.141 119.5,122C 120.684,120.855 120.684,119.688 119.5,118.5 Z"/></g>
<g><path style="opacity:1" fill="#f200fe" d="M 197.5,140.5 C 197.5,142.5 197.5,144.5 197.5,146.5C 185.461,154.836 173.461,163.17 161.5,171.5C 155.48,175.198 149.48,178.865 143.5,182.5C 141.857,182.48 140.524,183.147 139.5,184.5C 138.537,184.03 138.537,183.363 139.5,182.5C 139.833,181.5 140.5,180.833 141.5,180.5C 149.245,177.415 155.578,172.415 160.5,165.5C 167.938,162.526 174.605,158.359 180.5,153C 184.671,152.161 187.671,149.828 189.5,146C 192.065,143.92 194.732,142.087 197.5,140.5 Z"/></g>
<g><path style="opacity:1" fill="#faaa75" d="M 142.5,143.5 C 143.167,144.5 143.833,145.5 144.5,146.5C 144.5,147.833 144.5,149.167 144.5,150.5C 144.5,151.833 144.5,153.167 144.5,154.5C 144.5,155.5 144.5,156.5 144.5,157.5C 144.5,158.833 144.5,160.167 144.5,161.5C 144.5,164.167 144.5,166.833 144.5,169.5C 144.5,169.833 144.5,170.167 144.5,170.5C 144.741,172.898 144.074,174.898 142.5,176.5C 142.5,165.5 142.5,154.5 142.5,143.5 Z"/></g>
<g><path style="opacity:1" fill="#01c5ff" d="M 115.5,140.5 C 115.5,141.5 115.5,142.5 115.5,143.5C 110.086,147.923 104.419,151.923 98.5,155.5C 96.6916,155.491 95.0249,155.991 93.5,157C 88.7788,159.802 84.4455,163.135 80.5,167C 79.552,167.483 78.552,167.649 77.5,167.5C 79.8524,163.642 83.1857,161.142 87.5,160C 91.1317,157.37 94.465,154.37 97.5,151C 101.102,150.571 103.768,148.737 105.5,145.5C 109.408,144.879 112.742,143.213 115.5,140.5 Z"/></g>
<g><path style="opacity:1" fill="#04f8fa" d="M 116.5,134.5 C 116.5,134.833 116.5,135.167 116.5,135.5C 115.833,135.5 115.5,135.833 115.5,136.5C 105.185,144.804 94.1854,152.304 82.5,159C 78.8773,163.087 74.544,166.087 69.5,168C 66.6263,171.709 63.2929,174.875 59.5,177.5C 58.7321,175.285 58.0654,172.952 57.5,170.5C 65.638,165.232 73.9714,160.065 82.5,155C 85.9799,150.794 90.3132,147.961 95.5,146.5C 97.3084,146.509 98.9751,146.009 100.5,145C 106.017,141.625 111.351,138.125 116.5,134.5 Z"/></g>
<g><path style="opacity:1" fill="#ca00fe" d="M 197.5,133.5 C 197.5,135.833 197.5,138.167 197.5,140.5C 194.732,142.087 192.065,143.92 189.5,146C 187.671,149.828 184.671,152.161 180.5,153C 174.605,158.359 167.938,162.526 160.5,165.5C 155.578,172.415 149.245,177.415 141.5,180.5C 141.833,179.167 142.167,177.833 142.5,176.5C 144.074,174.898 144.741,172.898 144.5,170.5C 150.027,167.522 155.693,164.688 161.5,162C 164.031,158.462 167.364,156.128 171.5,155C 174.077,152.545 176.411,149.878 178.5,147C 184.969,142.698 191.303,138.198 197.5,133.5 Z"/></g>
<g><path style="opacity:1" fill="#0868fe" d="M 115.5,150.5 C 115.5,152.5 115.5,154.5 115.5,156.5C 107.783,161.37 100.449,166.87 93.5,173C 86.299,176.541 79.9657,181.207 74.5,187C 72.1667,188 69.8333,189 67.5,190C 66.7476,190.671 66.4142,191.504 66.5,192.5C 65.8333,192.5 65.5,192.167 65.5,191.5C 65.2671,189.938 64.6005,188.605 63.5,187.5C 73.0552,180.469 83.0552,173.969 93.5,168C 97.6313,163.861 102.298,160.528 107.5,158C 109.373,156.296 111.04,154.463 112.5,152.5C 113.29,151.599 114.29,150.932 115.5,150.5 Z"/></g>
<g><path style="opacity:1" fill="#0047ff" d="M 115.5,156.5 C 115.5,157.833 115.5,159.167 115.5,160.5C 112.865,161.473 110.865,163.14 109.5,165.5C 101.723,169.378 94.0561,173.544 86.5,178C 81.2978,184.066 75.2978,188.899 68.5,192.5C 67.8333,192.5 67.1667,192.5 66.5,192.5C 66.4142,191.504 66.7476,190.671 67.5,190C 69.8333,189 72.1667,188 74.5,187C 79.9657,181.207 86.299,176.541 93.5,173C 100.449,166.87 107.783,161.37 115.5,156.5 Z"/></g>
<g><path style="opacity:1" fill="#ff00cc" d="M 197.5,150.5 C 197.5,152.167 197.5,153.833 197.5,155.5C 196.448,155.351 195.448,155.517 194.5,156C 189.546,160.637 183.879,163.97 177.5,166C 170.454,173.981 162.12,179.981 152.5,184C 144.014,189.342 136.014,195.175 128.5,201.5C 127.167,201.5 125.833,201.5 124.5,201.5C 131.13,198.387 136.797,193.887 141.5,188C 146.435,186.791 150.435,184.125 153.5,180C 158.157,178.517 161.823,175.684 164.5,171.5C 169.708,170.147 174.041,167.314 177.5,163C 184.808,159.859 191.475,155.692 197.5,150.5 Z"/></g>
<g><path style="opacity:1" fill="#a700ff" d="M 197.5,129.5 C 197.5,130.833 197.5,132.167 197.5,133.5C 191.303,138.198 184.969,142.698 178.5,147C 176.411,149.878 174.077,152.545 171.5,155C 167.364,156.128 164.031,158.462 161.5,162C 155.693,164.688 150.027,167.522 144.5,170.5C 144.5,170.167 144.5,169.833 144.5,169.5C 147.836,166.224 151.502,163.391 155.5,161C 160.326,159.183 164.326,156.183 167.5,152C 174.83,148.838 180.83,144.005 185.5,137.5C 190.313,136.014 194.313,133.348 197.5,129.5 Z"/></g>
<g><path style="opacity:1" fill="#ff008a" d="M 196.5,157.5 C 196.721,160.279 196.388,162.946 195.5,165.5C 190.096,168.079 185.096,171.245 180.5,175C 178.35,176.411 176.016,177.245 173.5,177.5C 174.833,175.833 176.167,174.167 177.5,172.5C 183.585,167.278 189.918,162.278 196.5,157.5 Z"/></g>
<g><path style="opacity:1" fill="#ff00e9" d="M 197.5,146.5 C 197.5,147.833 197.5,149.167 197.5,150.5C 191.475,155.692 184.808,159.859 177.5,163C 174.041,167.314 169.708,170.147 164.5,171.5C 163.5,171.5 162.5,171.5 161.5,171.5C 173.461,163.17 185.461,154.836 197.5,146.5 Z"/></g>
<g><path style="opacity:1" fill="#001eff" d="M 115.5,160.5 C 115.5,162.833 115.5,165.167 115.5,167.5C 113.784,169.025 111.784,170.025 109.5,170.5C 106.756,172.452 103.756,173.952 100.5,175C 98.0268,176.561 96.0268,178.561 94.5,181C 92.5643,181.813 90.5643,182.313 88.5,182.5C 91.452,179.548 94.452,176.548 97.5,173.5C 101.834,171.136 105.834,168.469 109.5,165.5C 110.865,163.14 112.865,161.473 115.5,160.5 Z"/></g>
<g><path style="opacity:1" fill="#0185ff" d="M 112.5,152.5 C 111.04,154.463 109.373,156.296 107.5,158C 102.298,160.528 97.6313,163.861 93.5,168C 83.0552,173.969 73.0552,180.469 63.5,187.5C 62.5987,186.71 61.9321,185.71 61.5,184.5C 67.7353,183.258 72.7353,180.091 76.5,175C 81.3348,172.85 85.6681,169.85 89.5,166C 97.0361,161.017 104.703,156.517 112.5,152.5 Z"/></g>
<g><path style="opacity:1" fill="#01d9ff" d="M 115.5,136.5 C 115.5,137.833 115.5,139.167 115.5,140.5C 112.742,143.213 109.408,144.879 105.5,145.5C 103.768,148.737 101.102,150.571 97.5,151C 94.465,154.37 91.1317,157.37 87.5,160C 83.1857,161.142 79.8524,163.642 77.5,167.5C 71.1895,170.992 65.1895,174.992 59.5,179.5C 59.5,178.833 59.5,178.167 59.5,177.5C 63.2929,174.875 66.6263,171.709 69.5,168C 74.544,166.087 78.8773,163.087 82.5,159C 94.1854,152.304 105.185,144.804 115.5,136.5 Z"/></g>
<g><path style="opacity:1" fill="#01b9ff" d="M 98.5,155.5 C 93.1235,158.368 88.4568,162.201 84.5,167C 78.7434,171.095 72.7434,174.762 66.5,178C 64.6266,179.704 62.9599,181.537 61.5,183.5C 60.6554,182.329 59.9887,180.995 59.5,179.5C 65.1895,174.992 71.1895,170.992 77.5,167.5C 78.552,167.649 79.552,167.483 80.5,167C 84.4455,163.135 88.7788,159.802 93.5,157C 95.0249,155.991 96.6916,155.491 98.5,155.5 Z"/></g>
<g><path style="opacity:1" fill="#fcba8e" d="M 197.5,156.5 C 197.595,161.887 197.095,167.22 196,172.5C 195.613,175.599 194.446,178.266 192.5,180.5C 192.433,179.041 192.766,177.708 193.5,176.5C 194.167,173.833 194.833,171.167 195.5,168.5C 195.5,167.5 195.5,166.5 195.5,165.5C 196.388,162.946 196.721,160.279 196.5,157.5C 196.5,156.833 196.833,156.5 197.5,156.5 Z"/></g>
<g><path style="opacity:1" fill="#fbb98c" d="M 56.5,164.5 C 56.8333,164.5 57.1667,164.5 57.5,164.5C 57.5,165.167 57.5,165.833 57.5,166.5C 57.5,167.833 57.5,169.167 57.5,170.5C 58.0654,172.952 58.7321,175.285 59.5,177.5C 59.5,178.167 59.5,178.833 59.5,179.5C 59.9887,180.995 60.6554,182.329 61.5,183.5C 61.5,183.833 61.5,184.167 61.5,184.5C 61.9321,185.71 62.5987,186.71 63.5,187.5C 64.6005,188.605 65.2671,189.938 65.5,191.5C 62.376,189.276 60.2094,186.276 59,182.5C 57.0491,176.659 56.2158,170.659 56.5,164.5 Z"/></g>
<g><path style="opacity:1" fill="#000bff" d="M 109.5,170.5 C 108.298,172.392 106.965,174.226 105.5,176C 97.7432,181.945 89.4099,186.778 80.5,190.5C 78.7339,193.208 76.4006,195.208 73.5,196.5C 72.2905,196.068 71.2905,195.401 70.5,194.5C 72.3716,193.489 74.3716,192.655 76.5,192C 79.8772,187.761 83.8772,184.594 88.5,182.5C 90.5643,182.313 92.5643,181.813 94.5,181C 96.0268,178.561 98.0268,176.561 100.5,175C 103.756,173.952 106.756,172.452 109.5,170.5 Z"/></g>
<g><path style="opacity:1" fill="#02a0ff" d="M 115.5,143.5 C 115.5,145.833 115.5,148.167 115.5,150.5C 114.29,150.932 113.29,151.599 112.5,152.5C 104.703,156.517 97.0361,161.017 89.5,166C 85.6681,169.85 81.3348,172.85 76.5,175C 72.7353,180.091 67.7353,183.258 61.5,184.5C 61.5,184.167 61.5,183.833 61.5,183.5C 62.9599,181.537 64.6266,179.704 66.5,178C 72.7434,174.762 78.7434,171.095 84.5,167C 88.4568,162.201 93.1235,158.368 98.5,155.5C 104.419,151.923 110.086,147.923 115.5,143.5 Z"/></g>
<g><path style="opacity:1" fill="#0e00ff" d="M 115.5,167.5 C 115.5,169.5 115.5,171.5 115.5,173.5C 112.751,175.113 109.751,176.28 106.5,177C 96.2224,183.954 86.2224,191.121 76.5,198.5C 75.609,197.89 74.609,197.557 73.5,197.5C 73.5,197.167 73.5,196.833 73.5,196.5C 76.4006,195.208 78.7339,193.208 80.5,190.5C 89.4099,186.778 97.7432,181.945 105.5,176C 106.965,174.226 108.298,172.392 109.5,170.5C 111.784,170.025 113.784,169.025 115.5,167.5 Z"/></g>
<g><path style="opacity:1" fill="#fbc3a4" d="M 142.5,176.5 C 142.167,177.833 141.833,179.167 141.5,180.5C 140.5,180.833 139.833,181.5 139.5,182.5C 138.833,182.5 138.167,182.5 137.5,182.5C 132.469,183.783 127.469,183.783 122.5,182.5C 120.847,182.34 119.514,181.674 118.5,180.5C 118.5,180.167 118.5,179.833 118.5,179.5C 124.626,181.53 130.959,182.03 137.5,181C 139.497,179.807 141.164,178.307 142.5,176.5 Z"/></g>
<g><path style="opacity:1" fill="#ff00e7" d="M 161.5,171.5 C 162.5,171.5 163.5,171.5 164.5,171.5C 161.823,175.684 158.157,178.517 153.5,180C 150.435,184.125 146.435,186.791 141.5,188C 136.797,193.887 131.13,198.387 124.5,201.5C 122.5,201.5 120.5,201.5 118.5,201.5C 125.067,196.11 132.067,191.276 139.5,187C 141.192,185.693 142.525,184.193 143.5,182.5C 149.48,178.865 155.48,175.198 161.5,171.5 Z"/></g>
<g><path style="opacity:1" fill="#ff0093" d="M 177.5,172.5 C 176.167,174.167 174.833,175.833 173.5,177.5C 166.184,183.98 158.184,189.48 149.5,194C 146.607,196.084 144.274,198.584 142.5,201.5C 140.167,201.5 137.833,201.5 135.5,201.5C 140.107,198.232 144.441,194.565 148.5,190.5C 158.721,185.232 168.387,179.232 177.5,172.5 Z"/></g>
<g><path style="opacity:1" fill="#ff006f" d="M 195.5,165.5 C 195.5,166.5 195.5,167.5 195.5,168.5C 189.352,173.807 183.019,178.973 176.5,184C 173.5,185 170.5,186 167.5,187C 160.513,191.603 153.846,196.437 147.5,201.5C 145.833,201.5 144.167,201.5 142.5,201.5C 144.274,198.584 146.607,196.084 149.5,194C 158.184,189.48 166.184,183.98 173.5,177.5C 176.016,177.245 178.35,176.411 180.5,175C 185.096,171.245 190.096,168.079 195.5,165.5 Z"/></g>
<g><path style="opacity:1" fill="#002fff" d="M 109.5,165.5 C 105.834,168.469 101.834,171.136 97.5,173.5C 94.452,176.548 91.452,179.548 88.5,182.5C 83.8772,184.594 79.8772,187.761 76.5,192C 74.3716,192.655 72.3716,193.489 70.5,194.5C 69.5,194.167 68.8333,193.5 68.5,192.5C 75.2978,188.899 81.2978,184.066 86.5,178C 94.0561,173.544 101.723,169.378 109.5,165.5 Z"/></g>
<g><path style="opacity:1" fill="#8200fe" d="M 118.5,180.5 C 119.514,181.674 120.847,182.34 122.5,182.5C 119.876,186.617 116.21,189.45 111.5,191C 107.615,194.753 103.615,198.253 99.5,201.5C 94.9677,201.818 90.6344,201.485 86.5,200.5C 88.4817,200.005 90.4817,199.505 92.5,199C 96.0422,194.739 100.376,191.739 105.5,190C 110.183,187.324 114.516,184.157 118.5,180.5 Z"/></g>
<g><path style="opacity:1" fill="#ff00ae" d="M 197.5,155.5 C 197.5,155.833 197.5,156.167 197.5,156.5C 196.833,156.5 196.5,156.833 196.5,157.5C 189.918,162.278 183.585,167.278 177.5,172.5C 168.387,179.232 158.721,185.232 148.5,190.5C 144.441,194.565 140.107,198.232 135.5,201.5C 133.167,201.5 130.833,201.5 128.5,201.5C 136.014,195.175 144.014,189.342 152.5,184C 162.12,179.981 170.454,173.981 177.5,166C 183.879,163.97 189.546,160.637 194.5,156C 195.448,155.517 196.448,155.351 197.5,155.5 Z"/></g>
<g><path style="opacity:1" fill="#f400fe" d="M 137.5,182.5 C 138.167,182.5 138.833,182.5 139.5,182.5C 138.537,183.363 138.537,184.03 139.5,184.5C 140.524,183.147 141.857,182.48 143.5,182.5C 142.525,184.193 141.192,185.693 139.5,187C 132.067,191.276 125.067,196.11 118.5,201.5C 116.167,201.5 113.833,201.5 111.5,201.5C 112.625,199.871 113.959,198.371 115.5,197C 118.709,196.122 121.709,194.789 124.5,193C 129.259,189.935 133.592,186.435 137.5,182.5 Z"/></g>
<g><path style="opacity:1" fill="#fab585" d="M 189.5,185.5 C 188.92,187.749 187.587,189.415 185.5,190.5C 186.08,188.251 187.413,186.585 189.5,185.5 Z"/></g>
<g><path style="opacity:1" fill="#fbb88b" d="M 184.5,191.5 C 182.37,194.737 179.37,196.737 175.5,197.5C 178.32,195.255 181.32,193.255 184.5,191.5 Z"/></g>
<g><path style="opacity:1" fill="#c200ff" d="M 122.5,182.5 C 127.469,183.783 132.469,183.783 137.5,182.5C 133.592,186.435 129.259,189.935 124.5,193C 121.709,194.789 118.709,196.122 115.5,197C 113.959,198.371 112.625,199.871 111.5,201.5C 107.5,201.5 103.5,201.5 99.5,201.5C 103.615,198.253 107.615,194.753 111.5,191C 116.21,189.45 119.876,186.617 122.5,182.5 Z"/></g>
<g><path style="opacity:1" fill="#f5ac8a" d="M 66.5,192.5 C 67.1667,192.5 67.8333,192.5 68.5,192.5C 68.8333,193.5 69.5,194.167 70.5,194.5C 71.2905,195.401 72.2905,196.068 73.5,196.5C 73.5,196.833 73.5,197.167 73.5,197.5C 70.3257,196.99 67.9923,195.323 66.5,192.5 Z"/></g>
<g><path style="opacity:1" fill="#2900ff" d="M 115.5,173.5 C 115.5,174.5 115.5,175.5 115.5,176.5C 112.115,179.924 108.449,183.091 104.5,186C 98.9581,186.512 94.6247,189.179 91.5,194C 87.1436,196.396 82.4769,197.896 77.5,198.5C 77.1667,198.5 76.8333,198.5 76.5,198.5C 86.2224,191.121 96.2224,183.954 106.5,177C 109.751,176.28 112.751,175.113 115.5,173.5 Z"/></g>
<g><path style="opacity:1" fill="#ff0049" d="M 195.5,168.5 C 194.833,171.167 194.167,173.833 193.5,176.5C 189.067,179.084 184.734,181.918 180.5,185C 174.807,187.383 169.141,189.716 163.5,192C 160.306,194.697 157.639,197.863 155.5,201.5C 152.833,201.5 150.167,201.5 147.5,201.5C 153.846,196.437 160.513,191.603 167.5,187C 170.5,186 173.5,185 176.5,184C 183.019,178.973 189.352,173.807 195.5,168.5 Z"/></g>
<g><path style="opacity:1" fill="#5000fe" d="M 115.5,176.5 C 116.272,177.694 117.272,178.694 118.5,179.5C 118.5,179.833 118.5,180.167 118.5,180.5C 114.516,184.157 110.183,187.324 105.5,190C 100.376,191.739 96.0422,194.739 92.5,199C 90.4817,199.505 88.4817,200.005 86.5,200.5C 83.2186,200.58 80.2186,199.913 77.5,198.5C 82.4769,197.896 87.1436,196.396 91.5,194C 94.6247,189.179 98.9581,186.512 104.5,186C 108.449,183.091 112.115,179.924 115.5,176.5 Z"/></g>
<g><path style="opacity:1" fill="#ff0813" d="M 189.5,185.5 C 187.413,186.585 186.08,188.251 185.5,190.5C 185.5,191.167 185.167,191.5 184.5,191.5C 181.32,193.255 178.32,195.255 175.5,197.5C 170.246,199.147 164.913,200.48 159.5,201.5C 160.476,200.185 161.476,198.852 162.5,197.5C 166.516,196.159 170.183,194.325 173.5,192C 178.745,187.747 184.245,183.914 190,180.5C 190.384,182.197 190.218,183.863 189.5,185.5 Z"/></g>
<g><path style="opacity:1" fill="#ff1131" d="M 193.5,176.5 C 192.766,177.708 192.433,179.041 192.5,180.5C 192.25,182.674 191.25,184.341 189.5,185.5C 190.218,183.863 190.384,182.197 190,180.5C 184.245,183.914 178.745,187.747 173.5,192C 170.183,194.325 166.516,196.159 162.5,197.5C 161.476,198.852 160.476,200.185 159.5,201.5C 158.167,201.5 156.833,201.5 155.5,201.5C 157.639,197.863 160.306,194.697 163.5,192C 169.141,189.716 174.807,187.383 180.5,185C 184.734,181.918 189.067,179.084 193.5,176.5 Z"/></g>
<g><path style="opacity:1" fill="#fcad79" d="M 73.5,197.5 C 74.609,197.557 75.609,197.89 76.5,198.5C 76.8333,198.5 77.1667,198.5 77.5,198.5C 80.2186,199.913 83.2186,200.58 86.5,200.5C 90.6344,201.485 94.9677,201.818 99.5,201.5C 103.5,201.5 107.5,201.5 111.5,201.5C 113.833,201.5 116.167,201.5 118.5,201.5C 120.5,201.5 122.5,201.5 124.5,201.5C 125.833,201.5 127.167,201.5 128.5,201.5C 130.833,201.5 133.167,201.5 135.5,201.5C 137.833,201.5 140.167,201.5 142.5,201.5C 144.167,201.5 145.833,201.5 147.5,201.5C 150.167,201.5 152.833,201.5 155.5,201.5C 156.833,201.5 158.167,201.5 159.5,201.5C 164.913,200.48 170.246,199.147 175.5,197.5C 174.942,198.79 173.942,199.623 172.5,200C 167.594,201.476 162.594,202.476 157.5,203C 132.81,203.883 108.144,203.55 83.5,202C 79.5785,201.538 76.2452,200.038 73.5,197.5 Z"/></g>
</svg>
