<?xml version="1.0" encoding="UTF-8"?>
<!DOCTYPE svg PUBLIC "-//W3C//DTD SVG 1.1//EN" "http://www.w3.org/Graphics/SVG/1.1/DTD/svg11.dtd">
<svg xmlns="http://www.w3.org/2000/svg" version="1.1" width="256px" height="255px" style="shape-rendering:geometricPrecision; text-rendering:geometricPrecision; image-rendering:optimizeQuality; fill-rule:evenodd; clip-rule:evenodd" xmlns:xlink="http://www.w3.org/1999/xlink">
<g><path style="opacity:1" fill="#fcfa01" d="M 97.5,0.5 C 99.8333,0.5 102.167,0.5 104.5,0.5C 82.5,21.8333 60.8333,43.5 39.5,65.5C 31.7892,67.543 27.7892,72.543 27.5,80.5C 18.5,89.1667 9.5,97.8333 0.5,106.5C 0.5,106.167 0.5,105.833 0.5,105.5C 0.5,102.5 0.5,99.5 0.5,96.5C 13.3275,84.5057 25.6608,72.0057 37.5,59C 41.2171,55.6153 45.2171,52.6153 49.5,50C 65.2298,33.4338 81.2298,16.9338 97.5,0.5 Z"/></g>
<g><path style="opacity:0.098" fill="#37222b" d="M 39.5,1.5 C 37.1098,3.01977 34.4432,4.01977 31.5,4.5C 33.6845,2.4152 36.3511,1.4152 39.5,1.5 Z"/></g>
<g><path style="opacity:0.529" fill="#144a3c" d="M 219.5,2.5 C 221.153,2.6596 222.486,3.32627 223.5,4.5C 221.62,4.77089 220.287,4.10422 219.5,2.5 Z"/></g>
<g><path style="opacity:0.157" fill="#0b2a32" d="M 223.5,4.5 C 225.38,4.22911 226.713,4.89578 227.5,6.5C 226.391,6.44312 225.391,6.10978 224.5,5.5C 223.833,5.5 223.5,5.16667 223.5,4.5 Z"/></g>
<g><path style="opacity:1" fill="#0bf758" d="M 143.5,0.5 C 143.5,0.166667 143.5,-0.166667 143.5,-0.5C 164.833,-0.5 186.167,-0.5 207.5,-0.5C 207.5,-0.166667 207.5,0.166667 207.5,0.5C 185.739,23.3905 163.072,45.3905 139.5,66.5C 138.209,66.7373 137.209,66.404 136.5,65.5C 155.837,46.6648 175.17,27.4981 194.5,8C 198.05,6.45935 201.05,4.12602 203.5,1C 201.19,0.503354 198.857,0.336688 196.5,0.5C 193.5,0.5 190.5,0.5 187.5,0.5C 184.5,0.5 181.5,0.5 178.5,0.5C 174.833,0.5 171.167,0.5 167.5,0.5C 165.833,0.5 164.167,0.5 162.5,0.5C 160.5,0.5 158.5,0.5 156.5,0.5C 153.833,0.5 151.167,0.5 148.5,0.5C 146.833,0.5 145.167,0.5 143.5,0.5 Z"/></g>
<g><path style="opacity:0.647" fill="#5b252d" d="M 31.5,4.5 C 26.1718,8.15933 20.8385,11.826 15.5,15.5C 19.7574,10.2384 25.0908,6.5717 31.5,4.5 Z"/></g>
<g><path style="opacity:1" fill="#188e7f" d="M 228.5,6.5 C 231.473,8.14675 234.14,10.1468 236.5,12.5C 236.167,12.5 235.833,12.5 235.5,12.5C 234.167,11.8333 232.833,11.1667 231.5,10.5C 229.554,9.96528 228.554,8.63195 228.5,6.5 Z"/></g>
<g><path style="opacity:1" fill="#ffe600" d="M 97.5,0.5 C 81.2298,16.9338 65.2298,33.4338 49.5,50C 45.2171,52.6153 41.2171,55.6153 37.5,59C 25.6608,72.0057 13.3275,84.5057 0.5,96.5C 0.343323,95.1266 0.50999,93.7932 1,92.5C 32.1399,62.0273 63.3066,31.5273 94.5,1C 95.448,0.517215 96.448,0.350549 97.5,0.5 Z"/></g>
<g><path style="opacity:1" fill="#03fdfd" d="M 235.5,12.5 C 235.833,12.5 236.167,12.5 236.5,12.5C 236.414,13.4959 236.748,14.3292 237.5,15C 217.576,35.4261 197.243,55.2595 176.5,74.5C 176.167,73.8333 175.833,73.1667 175.5,72.5C 196.5,53.5 216.5,33.5 235.5,12.5 Z"/></g>
<g><path style="opacity:1" fill="#6efe01" d="M 140.5,0.5 C 141.5,0.5 142.5,0.5 143.5,0.5C 145.167,0.5 146.833,0.5 148.5,0.5C 125.119,23.2147 102.119,46.2147 79.5,69.5C 78.5,68.8333 77.5,68.1667 76.5,67.5C 83.437,59.3908 90.6036,51.3908 98,43.5C 112.314,29.3523 126.481,15.019 140.5,0.5 Z"/></g>
<g><path style="opacity:1" fill="#00febc" d="M 224.5,5.5 C 225.391,6.10978 226.391,6.44312 227.5,6.5C 220.689,15.4771 212.689,23.3105 203.5,30C 192.585,41.9176 181.251,53.5842 169.5,65C 167.866,65.4935 166.199,65.6602 164.5,65.5C 184.293,45.0399 204.293,25.0399 224.5,5.5 Z"/></g>
<g><path style="opacity:1" fill="#00defb" d="M 238.5,14.5 C 239.5,14.8333 240.167,15.5 240.5,16.5C 240.557,17.609 240.89,18.609 241.5,19.5C 226.62,34.8792 211.62,50.0459 196.5,65C 195.207,65.49 193.873,65.6567 192.5,65.5C 207.521,49.6456 223.021,34.3123 239,19.5C 239.384,17.8034 239.218,16.1368 238.5,14.5 Z"/></g>
<g><path style="opacity:0.867" fill="#15404d" d="M 240.5,16.5 C 242.587,17.5846 243.92,19.2512 244.5,21.5C 243.5,20.8333 242.5,20.1667 241.5,19.5C 240.89,18.609 240.557,17.609 240.5,16.5 Z"/></g>
<g><path style="opacity:1" fill="#88fe00" d="M 133.5,0.5 C 135.833,0.5 138.167,0.5 140.5,0.5C 126.481,15.019 112.314,29.3523 98,43.5C 90.6036,51.3908 83.437,59.3908 76.5,67.5C 74.0872,65.9493 71.4206,65.2826 68.5,65.5C 79.719,53.1128 91.719,41.6128 104.5,31C 114.315,21.0169 123.982,10.8503 133.5,0.5 Z"/></g>
<g><path style="opacity:1" fill="#fd3804" d="M 43.5,0.5 C 45.8333,0.5 48.1667,0.5 50.5,0.5C 34.7228,17.6143 18.0561,33.6143 0.5,48.5C 1.15872,45.5448 1.49205,42.5448 1.5,39.5C 3.01977,37.1098 4.01977,34.4432 4.5,31.5C 8.15933,26.1718 11.826,20.8385 15.5,15.5C 20.8385,11.826 26.1718,8.15933 31.5,4.5C 34.4432,4.01977 37.1098,3.01977 39.5,1.5C 40.5676,0.565525 41.901,0.232191 43.5,0.5 Z"/></g>
<g><path style="opacity:1" fill="#01fe75" d="M 207.5,0.5 C 208.585,2.58223 210.085,2.91556 212,1.5C 212.667,2.16667 212.667,2.83333 212,3.5C 190.27,26.73 167.77,49.0634 144.5,70.5C 142.809,69.1363 141.142,67.803 139.5,66.5C 163.072,45.3905 185.739,23.3905 207.5,0.5 Z"/></g>
<g><path style="opacity:0.757" fill="#53252e" d="M 15.5,15.5 C 11.826,20.8385 8.15933,26.1718 4.5,31.5C 6.5717,25.0908 10.2384,19.7574 15.5,15.5 Z"/></g>
<g><path style="opacity:1" fill="#38fe02" d="M 156.5,0.5 C 158.5,0.5 160.5,0.5 162.5,0.5C 140.527,21.9713 118.527,43.8046 96.5,66C 96.7284,66.3988 97.0618,66.5654 97.5,66.5C 97.2172,67.2891 96.7172,67.9558 96,68.5C 95.2904,67.0267 94.1238,66.3601 92.5,66.5C 113.47,44.1959 134.803,22.1959 156.5,0.5 Z"/></g>
<g><path style="opacity:1" fill="#00fe19" d="M 178.5,0.5 C 181.5,0.5 184.5,0.5 187.5,0.5C 168.565,20.936 149.065,40.936 129,60.5C 127.579,62.4048 126.412,64.4048 125.5,66.5C 123.5,66.5 121.5,66.5 119.5,66.5C 118.521,69.6248 118.187,72.9581 118.5,76.5C 117.167,77.5 115.833,78.5 114.5,79.5C 114.784,77.5853 114.451,75.9187 113.5,74.5C 113.396,72.2972 112.73,70.2972 111.5,68.5C 113.46,68.1493 115.293,66.816 117,64.5C 137.058,42.6114 157.558,21.278 178.5,0.5 Z"/></g>
<g><path style="opacity:1" fill="#00fe34" d="M 187.5,0.5 C 190.5,0.5 193.5,0.5 196.5,0.5C 183.56,14.6103 169.893,27.777 155.5,40C 147.328,49.0048 138.995,57.8381 130.5,66.5C 128.983,66.5106 127.816,67.1772 127,68.5C 126.722,67.5842 126.222,66.9175 125.5,66.5C 126.412,64.4048 127.579,62.4048 129,60.5C 149.065,40.936 168.565,20.936 187.5,0.5 Z"/></g>
<g><path style="opacity:1" fill="#01fe4e" d="M 196.5,0.5 C 198.857,0.336688 201.19,0.503354 203.5,1C 201.05,4.12602 198.05,6.45935 194.5,8C 175.17,27.4981 155.837,46.6648 136.5,65.5C 134.435,65.5172 132.435,65.8505 130.5,66.5C 138.995,57.8381 147.328,49.0048 155.5,40C 169.893,27.777 183.56,14.6103 196.5,0.5 Z"/></g>
<g><path style="opacity:1" fill="#0cfe01" d="M 167.5,0.5 C 171.167,0.5 174.833,0.5 178.5,0.5C 157.558,21.278 137.058,42.6114 117,64.5C 115.293,66.816 113.46,68.1493 111.5,68.5C 110.167,67.8333 108.833,67.1667 107.5,66.5C 107.389,65.8826 107.056,65.3826 106.5,65C 114.333,57.1667 122.167,49.3333 130,41.5C 131.628,39.3466 132.961,37.0132 134,34.5C 145.369,23.2984 156.535,11.9651 167.5,0.5 Z"/></g>
<g><path style="opacity:1" fill="#fda200" d="M 70.5,0.5 C 70.5,0.166667 70.5,-0.166667 70.5,-0.5C 76.5,-0.5 82.5,-0.5 88.5,-0.5C 88.1583,0.338246 87.4916,0.67158 86.5,0.5C 84.1432,0.336688 81.8098,0.503354 79.5,1C 53.7222,27.7785 27.5555,54.2785 1,80.5C 0.506489,82.1341 0.339822,83.8008 0.5,85.5C 0.67158,86.4916 0.338246,87.1583 -0.5,87.5C -0.5,81.5 -0.5,75.5 -0.5,69.5C -0.166667,69.5 0.166667,69.5 0.5,69.5C 0.368989,70.2389 0.535656,70.9056 1,71.5C 17.3092,54.8546 33.8092,38.6879 50.5,23C 57.8333,15.6667 65.1667,8.33333 72.5,1C 71.9056,0.535656 71.2389,0.368989 70.5,0.5 Z"/></g>
<g><path style="opacity:1" fill="#f57106" d="M 43.5,0.5 C 43.5,0.166667 43.5,-0.166667 43.5,-0.5C 52.5,-0.5 61.5,-0.5 70.5,-0.5C 70.5,-0.166667 70.5,0.166667 70.5,0.5C 68.1432,0.336688 65.8098,0.503354 63.5,1C 43.0286,22.4718 22.1952,43.6385 1,64.5C 0.506489,66.1341 0.339822,67.8008 0.5,69.5C 0.166667,69.5 -0.166667,69.5 -0.5,69.5C -0.5,63.8333 -0.5,58.1667 -0.5,52.5C -0.166667,52.5 0.166667,52.5 0.5,52.5C 0.337876,54.5273 0.504543,56.5273 1,58.5C 19.7514,40.7501 38.2514,22.5834 56.5,4C 58.2861,3.80384 59.6195,2.97051 60.5,1.5C 57.2317,0.512978 53.8984,0.179644 50.5,0.5C 48.1667,0.5 45.8333,0.5 43.5,0.5 Z"/></g>
<g><path style="opacity:1" fill="#54fe00" d="M 148.5,0.5 C 151.167,0.5 153.833,0.5 156.5,0.5C 134.803,22.1959 113.47,44.1959 92.5,66.5C 90.2188,66.0773 88.5521,66.744 87.5,68.5C 85.246,69.1237 83.5794,70.457 82.5,72.5C 81.2719,71.6935 80.2719,70.6935 79.5,69.5C 102.119,46.2147 125.119,23.2147 148.5,0.5 Z"/></g>
<g><path style="opacity:1" fill="#ff5900" d="M 50.5,0.5 C 53.8984,0.179644 57.2317,0.512978 60.5,1.5C 59.6195,2.97051 58.2861,3.80384 56.5,4C 38.2514,22.5834 19.7514,40.7501 1,58.5C 0.504543,56.5273 0.337876,54.5273 0.5,52.5C 0.5,51.1667 0.5,49.8333 0.5,48.5C 18.0561,33.6143 34.7228,17.6143 50.5,0.5 Z"/></g>
<g><path style="opacity:1" fill="#d6ff00" d="M 111.5,0.5 C 122.682,-0.722861 123.348,1.11047 113.5,6C 92.831,27.5086 71.4976,48.0086 49.5,67.5C 47.847,67.3404 46.5137,66.6737 45.5,65.5C 51.6314,59.8695 57.6314,54.0362 63.5,48C 65.1667,47 66.8333,46 68.5,45C 82.6178,30.0473 96.9512,15.214 111.5,0.5 Z"/></g>
<g><path style="opacity:1" fill="#03feed" d="M 231.5,10.5 C 232.833,11.1667 234.167,11.8333 235.5,12.5C 216.5,33.5 196.5,53.5 175.5,72.5C 174.5,71.1667 173.5,69.8333 172.5,68.5C 192.75,49.918 212.417,30.5847 231.5,10.5 Z"/></g>
<g><path style="opacity:1" fill="#b8fd06" d="M 105.5,0.5 C 105.5,0.166667 105.5,-0.166667 105.5,-0.5C 118.167,-0.5 130.833,-0.5 143.5,-0.5C 143.5,-0.166667 143.5,0.166667 143.5,0.5C 142.5,0.5 141.5,0.5 140.5,0.5C 138.167,0.5 135.833,0.5 133.5,0.5C 131.076,0.192441 128.743,0.525774 126.5,1.5C 96.2189,30.1138 66.5523,59.4472 37.5,89.5C 35.1014,85.0178 34.9348,80.3511 37,75.5C 38.2991,74.0203 39.9658,73.3536 42,73.5C 44.5666,74.1393 47.0666,74.6393 49.5,75C 53.4817,72.3091 53.4817,69.8091 49.5,67.5C 71.4976,48.0086 92.831,27.5086 113.5,6C 123.348,1.11047 122.682,-0.722861 111.5,0.5C 109.5,0.5 107.5,0.5 105.5,0.5 Z"/></g>
<g><path style="opacity:1" fill="#12fed0" d="M 227.5,6.5 C 227.833,6.5 228.167,6.5 228.5,6.5C 228.554,8.63195 229.554,9.96528 231.5,10.5C 212.417,30.5847 192.75,49.918 172.5,68.5C 168.369,66.8169 164.036,66.1502 159.5,66.5C 160.919,65.5489 162.585,65.2155 164.5,65.5C 166.199,65.6602 167.866,65.4935 169.5,65C 181.251,53.5842 192.585,41.9176 203.5,30C 212.689,23.3105 220.689,15.4771 227.5,6.5 Z"/></g>
<g><path style="opacity:1" fill="#06f989" d="M 207.5,-0.5 C 208.833,-0.5 210.167,-0.5 211.5,-0.5C 212.833,0.166667 214.167,0.833333 215.5,1.5C 216.626,2.85832 216.626,4.19165 215.5,5.5C 197.681,22.8194 180.014,40.3194 162.5,58C 161.5,58.3333 160.5,58.6667 159.5,59C 154.908,64.0998 149.908,68.5998 144.5,72.5C 144.5,71.8333 144.5,71.1667 144.5,70.5C 167.77,49.0634 190.27,26.73 212,3.5C 212.667,2.83333 212.667,2.16667 212,1.5C 210.085,2.91556 208.585,2.58223 207.5,0.5C 207.5,0.166667 207.5,-0.166667 207.5,-0.5 Z"/></g>
<g><path style="opacity:0.086" fill="#2e1f28" d="M 4.5,31.5 C 4.01977,34.4432 3.01977,37.1098 1.5,39.5C 1.4152,36.3511 2.4152,33.6845 4.5,31.5 Z"/></g>
<g><path style="opacity:1" fill="#0277f9" d="M 252.5,35.5 C 253.768,37.9052 254.435,40.5718 254.5,43.5C 253.685,42.5707 252.852,41.5707 252,40.5C 250.829,41.8932 249.329,42.7265 247.5,43C 240.3,51.0306 232.967,58.8639 225.5,66.5C 223.585,66.7845 221.919,66.4511 220.5,65.5C 230.632,55.8688 240.632,46.0355 250.5,36C 251.094,35.5357 251.761,35.369 252.5,35.5 Z"/></g>
<g><path style="opacity:1" fill="#fcd300" d="M 88.5,-0.5 C 94.1667,-0.5 99.8333,-0.5 105.5,-0.5C 105.5,-0.166667 105.5,0.166667 105.5,0.5C 105.167,0.5 104.833,0.5 104.5,0.5C 102.167,0.5 99.8333,0.5 97.5,0.5C 96.448,0.350549 95.448,0.517215 94.5,1C 63.3066,31.5273 32.1399,62.0273 1,92.5C 0.50999,93.7932 0.343323,95.1266 0.5,96.5C 0.5,99.5 0.5,102.5 0.5,105.5C 0.166667,105.5 -0.166667,105.5 -0.5,105.5C -0.5,99.5 -0.5,93.5 -0.5,87.5C 0.338246,87.1583 0.67158,86.4916 0.5,85.5C 29.6993,57.9689 58.366,29.6355 86.5,0.5C 87.4916,0.67158 88.1583,0.338246 88.5,-0.5 Z"/></g>
<g><path style="opacity:1" fill="#22fe01" d="M 162.5,0.5 C 164.167,0.5 165.833,0.5 167.5,0.5C 156.535,11.9651 145.369,23.2984 134,34.5C 132.961,37.0132 131.628,39.3466 130,41.5C 122.167,49.3333 114.333,57.1667 106.5,65C 107.056,65.3826 107.389,65.8826 107.5,66.5C 104.167,65.1667 100.833,65.1667 97.5,66.5C 97.0618,66.5654 96.7284,66.3988 96.5,66C 118.527,43.8046 140.527,21.9713 162.5,0.5 Z"/></g>
<g><path style="opacity:1" fill="#0460fa" d="M 254.5,43.5 C 254.833,43.5 255.167,43.5 255.5,43.5C 255.5,46.5 255.5,49.5 255.5,52.5C 254.837,50.9581 254.17,49.2914 253.5,47.5C 252.3,48.5312 250.966,49.3645 249.5,50C 240.355,60.3118 230.689,70.1451 220.5,79.5C 220.5,77.5 220.5,75.5 220.5,73.5C 222.167,73.5 223.833,73.5 225.5,73.5C 225.5,71.1667 225.5,68.8333 225.5,66.5C 232.967,58.8639 240.3,51.0306 247.5,43C 249.329,42.7265 250.829,41.8932 252,40.5C 252.852,41.5707 253.685,42.5707 254.5,43.5 Z"/></g>
<g><path style="opacity:0.102" fill="#4c2f39" d="M 1.5,39.5 C 1.49205,42.5448 1.15872,45.5448 0.5,48.5C 0.5,49.8333 0.5,51.1667 0.5,52.5C 0.166667,52.5 -0.166667,52.5 -0.5,52.5C -0.5,49.5 -0.5,46.5 -0.5,43.5C 0.166667,42.1667 0.833333,40.8333 1.5,39.5 Z"/></g>
<g><path style="opacity:1" fill="#eaff00" d="M 104.5,0.5 C 104.833,0.5 105.167,0.5 105.5,0.5C 107.5,0.5 109.5,0.5 111.5,0.5C 96.9512,15.214 82.6178,30.0473 68.5,45C 66.8333,46 65.1667,47 63.5,48C 57.6314,54.0362 51.6314,59.8695 45.5,65.5C 43.5,65.5 41.5,65.5 39.5,65.5C 60.8333,43.5 82.5,21.8333 104.5,0.5 Z"/></g>
<g><path style="opacity:1" fill="#03fda1" d="M 215.5,1.5 C 217.099,1.23219 218.432,1.56552 219.5,2.5C 220.287,4.10422 221.62,4.77089 223.5,4.5C 223.5,5.16667 223.833,5.5 224.5,5.5C 204.293,25.0399 184.293,45.0399 164.5,65.5C 162.585,65.2155 160.919,65.5489 159.5,66.5C 154.833,67.8333 151.833,70.8333 150.5,75.5C 148.051,76.94 146.385,78.94 145.5,81.5C 145.736,78.3915 145.403,75.3915 144.5,72.5C 149.908,68.5998 154.908,64.0998 159.5,59C 160.5,58.6667 161.5,58.3333 162.5,58C 180.014,40.3194 197.681,22.8194 215.5,5.5C 216.626,4.19165 216.626,2.85832 215.5,1.5 Z"/></g>
<g><path style="opacity:1" fill="#028ffc" d="M 250.5,30.5 C 251.441,32.0495 252.107,33.7162 252.5,35.5C 251.761,35.369 251.094,35.5357 250.5,36C 240.632,46.0355 230.632,55.8688 220.5,65.5C 220.335,62.4816 220.502,59.4816 221,56.5C 229.681,47.9858 238.181,39.3191 246.5,30.5C 247.808,29.3744 249.142,29.3744 250.5,30.5 Z"/></g>
<g><path style="opacity:1" fill="#1a39f8" d="M 255.5,52.5 C 255.5,75.8333 255.5,99.1667 255.5,122.5C 255.167,122.5 254.833,122.5 254.5,122.5C 254.5,122.167 254.5,121.833 254.5,121.5C 254.5,116.833 254.5,112.167 254.5,107.5C 254.5,102.833 254.5,98.1667 254.5,93.5C 254.5,89.1667 254.5,84.8333 254.5,80.5C 254.5,79.8333 254.5,79.1667 254.5,78.5C 254.666,71.1591 254.5,63.8258 254,56.5C 242.939,68.0567 232.106,79.7234 221.5,91.5C 220.517,87.7016 220.183,83.7016 220.5,79.5C 230.689,70.1451 240.355,60.3118 249.5,50C 250.966,49.3645 252.3,48.5312 253.5,47.5C 254.17,49.2914 254.837,50.9581 255.5,52.5 Z"/></g>
<g><path style="opacity:1" fill="#ff8800" d="M 70.5,0.5 C 71.2389,0.368989 71.9056,0.535656 72.5,1C 65.1667,8.33333 57.8333,15.6667 50.5,23C 33.8092,38.6879 17.3092,54.8546 1,71.5C 0.535656,70.9056 0.368989,70.2389 0.5,69.5C 0.339822,67.8008 0.506489,66.1341 1,64.5C 22.1952,43.6385 43.0286,22.4718 63.5,1C 65.8098,0.503354 68.1432,0.336688 70.5,0.5 Z"/></g>
<g><path style="opacity:1" fill="#17d0fe" d="M 241.5,19.5 C 242.5,20.1667 243.5,20.8333 244.5,21.5C 231.771,36.7433 217.937,51.41 203,65.5C 202.536,66.0944 202.369,66.7611 202.5,67.5C 198.901,66.6561 195.234,66.3227 191.5,66.5C 191.5,65.8333 191.833,65.5 192.5,65.5C 193.873,65.6567 195.207,65.49 196.5,65C 211.62,50.0459 226.62,34.8792 241.5,19.5 Z"/></g>
<g><path style="opacity:1" fill="#a1fe09" d="M 133.5,0.5 C 123.982,10.8503 114.315,21.0169 104.5,31C 91.719,41.6128 79.719,53.1128 68.5,65.5C 58.8363,67.5144 54.503,73.5144 55.5,83.5C 53.1667,85.1667 51.1667,87.1667 49.5,89.5C 47.8998,88.488 46.5665,88.988 45.5,91C 44.3333,91.1667 43.1667,91.3333 42,91.5C 39.9919,91.6932 38.4919,91.0265 37.5,89.5C 66.5523,59.4472 96.2189,30.1138 126.5,1.5C 128.743,0.525774 131.076,0.192441 133.5,0.5 Z"/></g>
<g><path style="opacity:1" fill="#f3f8fd" d="M 220.5,73.5 C 220.5,75.5 220.5,77.5 220.5,79.5C 220.183,83.7016 220.517,87.7016 221.5,91.5C 222.209,92.404 223.209,92.7373 224.5,92.5C 224.5,94.5 224.5,96.5 224.5,98.5C 222.833,98.5 221.167,98.5 219.5,98.5C 217.142,98.7475 215.142,98.0808 213.5,96.5C 213.167,95.1667 212.833,93.8333 212.5,92.5C 212.5,89.1667 212.5,85.8333 212.5,82.5C 212.5,79.5 212.5,76.5 212.5,73.5C 211.209,73.7373 210.209,73.404 209.5,72.5C 209.5,70.8333 209.5,69.1667 209.5,67.5C 210.5,67.5 211.5,67.5 212.5,67.5C 212.5,64.1667 212.5,60.8333 212.5,57.5C 214.833,57.5 217.167,57.5 219.5,57.5C 219.5,60.8333 219.5,64.1667 219.5,67.5C 221.167,67.5 222.833,67.5 224.5,67.5C 224.5,69.1667 224.5,70.8333 224.5,72.5C 222.901,72.2322 221.568,72.5655 220.5,73.5 Z"/></g>
<g><path style="opacity:1" fill="#21b2fc" d="M 244.5,21.5 C 247.241,23.9754 249.241,26.9754 250.5,30.5C 249.142,29.3744 247.808,29.3744 246.5,30.5C 238.181,39.3191 229.681,47.9858 221,56.5C 220.502,59.4816 220.335,62.4816 220.5,65.5C 221.919,66.4511 223.585,66.7845 225.5,66.5C 225.5,68.8333 225.5,71.1667 225.5,73.5C 223.833,73.5 222.167,73.5 220.5,73.5C 221.568,72.5655 222.901,72.2322 224.5,72.5C 224.5,70.8333 224.5,69.1667 224.5,67.5C 222.833,67.5 221.167,67.5 219.5,67.5C 219.5,64.1667 219.5,60.8333 219.5,57.5C 217.167,57.5 214.833,57.5 212.5,57.5C 212.5,60.8333 212.5,64.1667 212.5,67.5C 211.5,67.5 210.5,67.5 209.5,67.5C 209.5,69.1667 209.5,70.8333 209.5,72.5C 202.5,77.5 196.5,83.5 191.5,90.5C 190.034,89.653 189.2,88.3197 189,86.5C 187.172,74.2951 191.672,70.4617 202.5,75C 206.482,72.3091 206.482,69.8091 202.5,67.5C 202.369,66.7611 202.536,66.0944 203,65.5C 217.937,51.41 231.771,36.7433 244.5,21.5 Z"/></g>
<g><path style="opacity:1" fill="#ffbe00" d="M 86.5,0.5 C 58.366,29.6355 29.6993,57.9689 0.5,85.5C 0.339822,83.8008 0.506489,82.1341 1,80.5C 27.5555,54.2785 53.7222,27.7785 79.5,1C 81.8098,0.503354 84.1432,0.336688 86.5,0.5 Z"/></g>
<g><path style="opacity:1" fill="#effaf5" d="M 68.5,65.5 C 71.4206,65.2826 74.0872,65.9493 76.5,67.5C 77.5,68.1667 78.5,68.8333 79.5,69.5C 80.2719,70.6935 81.2719,71.6935 82.5,72.5C 83.9502,78.8683 83.7835,85.2017 82,91.5C 79.6127,96.2409 75.7794,98.9075 70.5,99.5C 68.1944,99.0074 65.861,98.6741 63.5,98.5C 61.1939,96.8606 59.1939,94.8606 57.5,92.5C 55.8736,89.7543 55.2069,86.7543 55.5,83.5C 54.503,73.5144 58.8363,67.5144 68.5,65.5 Z"/></g>
<g><path style="opacity:1" fill="#f2fbfa" d="M 136.5,65.5 C 137.209,66.404 138.209,66.7373 139.5,66.5C 141.142,67.803 142.809,69.1363 144.5,70.5C 144.5,71.1667 144.5,71.8333 144.5,72.5C 145.403,75.3915 145.736,78.3915 145.5,81.5C 145.5,87.1667 145.5,92.8333 145.5,98.5C 144.5,98.5 143.5,98.5 142.5,98.5C 140.708,98.634 139.042,98.3007 137.5,97.5C 137.5,94.1667 137.5,90.8333 137.5,87.5C 137.5,86.5 137.5,85.5 137.5,84.5C 137.665,81.4816 137.498,78.4816 137,75.5C 133.066,71.1596 129.733,71.4929 127,76.5C 126.501,81.8229 126.334,87.1563 126.5,92.5C 126.5,94.1667 126.5,95.8333 126.5,97.5C 124.167,97.5 121.833,97.5 119.5,97.5C 119.5,87.1667 119.5,76.8333 119.5,66.5C 121.5,66.5 123.5,66.5 125.5,66.5C 126.222,66.9175 126.722,67.5842 127,68.5C 127.816,67.1772 128.983,66.5106 130.5,66.5C 132.435,65.8505 134.435,65.5172 136.5,65.5 Z"/></g>
<g><path style="opacity:1" fill="#f6fbfc" d="M 159.5,66.5 C 164.036,66.1502 168.369,66.8169 172.5,68.5C 173.5,69.8333 174.5,71.1667 175.5,72.5C 175.833,73.1667 176.167,73.8333 176.5,74.5C 176.557,75.609 176.89,76.609 177.5,77.5C 177.5,79.8333 177.5,82.1667 177.5,84.5C 174.833,84.5 172.167,84.5 169.5,84.5C 165.5,84.5 161.5,84.5 157.5,84.5C 157.149,87.8116 158.482,90.145 161.5,91.5C 165.243,92.9571 168.743,92.2904 172,89.5C 172.902,89.7432 173.735,90.0766 174.5,90.5C 176.273,91.3143 176.773,92.6476 176,94.5C 173.552,95.9732 171.052,97.3065 168.5,98.5C 166.5,98.5 164.5,98.5 162.5,98.5C 161.5,98.5 160.5,98.5 159.5,98.5C 157.95,97.5592 156.284,96.8925 154.5,96.5C 154.5,95.8333 154.167,95.5 153.5,95.5C 149.731,89.2416 148.731,82.575 150.5,75.5C 151.833,70.8333 154.833,67.8333 159.5,66.5 Z"/></g>
<g><path style="opacity:1" fill="#17effc" d="M 236.5,12.5 C 237.5,12.8333 238.167,13.5 238.5,14.5C 239.218,16.1368 239.384,17.8034 239,19.5C 223.021,34.3123 207.521,49.6456 192.5,65.5C 191.833,65.5 191.5,65.8333 191.5,66.5C 187.233,67.7684 184.233,70.4351 182.5,74.5C 180.589,75.075 178.922,76.075 177.5,77.5C 176.89,76.609 176.557,75.609 176.5,74.5C 197.243,55.2595 217.576,35.4261 237.5,15C 236.748,14.3292 236.414,13.4959 236.5,12.5 Z"/></g>
<g><path style="opacity:1" fill="#f5f9fc" d="M 191.5,66.5 C 195.234,66.3227 198.901,66.6561 202.5,67.5C 206.482,69.8091 206.482,72.3091 202.5,75C 191.672,70.4617 187.172,74.2951 189,86.5C 189.2,88.3197 190.034,89.653 191.5,90.5C 195.543,91.3451 199.543,91.3451 203.5,90.5C 205.446,91.2544 206.279,92.5878 206,94.5C 203.349,97.076 200.182,98.4093 196.5,98.5C 194.167,98.5 191.833,98.5 189.5,98.5C 188.71,97.5987 187.71,96.9321 186.5,96.5C 186.167,95.5 185.5,94.8333 184.5,94.5C 184.167,93.8333 183.833,93.1667 183.5,92.5C 182.072,89.6967 181.405,86.6967 181.5,83.5C 181.264,80.3915 181.597,77.3915 182.5,74.5C 184.233,70.4351 187.233,67.7684 191.5,66.5 Z"/></g>
<g><path style="opacity:1" fill="#f1faf4" d="M 39.5,65.5 C 41.5,65.5 43.5,65.5 45.5,65.5C 46.5137,66.6737 47.847,67.3404 49.5,67.5C 53.4817,69.8091 53.4817,72.3091 49.5,75C 47.0666,74.6393 44.5666,74.1393 42,73.5C 39.9658,73.3536 38.2991,74.0203 37,75.5C 34.9348,80.3511 35.1014,85.0178 37.5,89.5C 38.4919,91.0265 39.9919,91.6932 42,91.5C 43.1667,91.3333 44.3333,91.1667 45.5,91C 46.5665,88.988 47.8998,88.488 49.5,89.5C 51.1088,90.8979 51.9421,92.5646 52,94.5C 48.4632,97.6259 44.2965,99.2926 39.5,99.5C 37.1879,98.6586 34.8546,97.6586 32.5,96.5C 31.1363,94.8089 29.803,93.1423 28.5,91.5C 28.7678,89.901 28.4345,88.5676 27.5,87.5C 27.5,85.1667 27.5,82.8333 27.5,80.5C 27.7892,72.543 31.7892,67.543 39.5,65.5 Z"/></g>
<g><path style="opacity:1" fill="#f6fcfb" d="M 107.5,66.5 C 108.833,67.1667 110.167,67.8333 111.5,68.5C 112.73,70.2972 113.396,72.2972 113.5,74.5C 113.5,82.1667 113.5,89.8333 113.5,97.5C 111.5,97.5 109.5,97.5 107.5,97.5C 107.823,90.9779 107.49,84.6446 106.5,78.5C 104.529,72.1207 101.029,71.1207 96,75.5C 95.5003,83.1594 95.3336,90.8261 95.5,98.5C 94.1667,98.5 92.8333,98.5 91.5,98.5C 89.5168,98.8432 88.1834,98.1765 87.5,96.5C 87.5,87.1667 87.5,77.8333 87.5,68.5C 88.5521,66.744 90.2188,66.0773 92.5,66.5C 94.1238,66.3601 95.2904,67.0267 96,68.5C 96.7172,67.9558 97.2172,67.2891 97.5,66.5C 100.833,65.1667 104.167,65.1667 107.5,66.5 Z"/></g>
<g><path style="opacity:1" fill="#9ef0ce" d="M 119.5,66.5 C 119.5,76.8333 119.5,87.1667 119.5,97.5C 121.833,97.5 124.167,97.5 126.5,97.5C 124.735,98.4614 122.735,98.7947 120.5,98.5C 119.508,98.6716 118.842,98.3382 118.5,97.5C 118.5,90.5 118.5,83.5 118.5,76.5C 118.187,72.9581 118.521,69.6248 119.5,66.5 Z"/></g>
<g><path style="opacity:0.997" fill="#2cfbe0" d="M 160.5,72.5 C 166.223,71.5711 169.223,73.9044 169.5,79.5C 165.5,79.5 161.5,79.5 157.5,79.5C 157.15,76.5466 158.15,74.2133 160.5,72.5 Z"/></g>
<g><path style="opacity:0.994" fill="#0f82fe" d="M 209.5,72.5 C 210.209,73.404 211.209,73.7373 212.5,73.5C 212.5,76.5 212.5,79.5 212.5,82.5C 211.778,82.0825 211.278,81.4158 211,80.5C 207.449,83.1943 204.949,86.5276 203.5,90.5C 199.543,91.3451 195.543,91.3451 191.5,90.5C 196.5,83.5 202.5,77.5 209.5,72.5 Z"/></g>
<g><path style="opacity:1" fill="#b7f2da" d="M 113.5,74.5 C 114.451,75.9187 114.784,77.5853 114.5,79.5C 114.5,85.8333 114.5,92.1667 114.5,98.5C 111.833,98.5 109.167,98.5 106.5,98.5C 106.5,96.5 106.5,94.5 106.5,92.5C 106.5,87.8333 106.5,83.1667 106.5,78.5C 107.49,84.6446 107.823,90.9779 107.5,97.5C 109.5,97.5 111.5,97.5 113.5,97.5C 113.5,89.8333 113.5,82.1667 113.5,74.5 Z"/></g>
<g><path style="opacity:1" fill="#09fe87" d="M 137.5,84.5 C 134.203,87.2956 131.036,90.2956 128,93.5C 127.617,92.944 127.117,92.6107 126.5,92.5C 126.334,87.1563 126.501,81.8229 127,76.5C 129.733,71.4929 133.066,71.1596 137,75.5C 137.498,78.4816 137.665,81.4816 137.5,84.5 Z"/></g>
<g><path style="opacity:1" fill="#2200ff" d="M 254.5,78.5 C 254.5,79.1667 254.5,79.8333 254.5,80.5C 233.229,102.272 211.729,123.938 190,145.5C 189.517,146.448 189.351,147.448 189.5,148.5C 186.708,148.622 184.708,149.956 183.5,152.5C 181.5,152.5 179.5,152.5 177.5,152.5C 201.081,129.42 224.748,105.92 248.5,82C 250.146,80.1795 252.146,79.0128 254.5,78.5 Z"/></g>
<g><path style="opacity:1" fill="#55fe11" d="M 66.5,73.5 C 68.8568,73.3367 71.1902,73.5034 73.5,74C 75.4956,78.2712 75.9956,82.7712 75,87.5C 73.3088,91.2127 70.4755,92.3794 66.5,91C 62.5332,85.1676 62.5332,79.3342 66.5,73.5 Z"/></g>
<g><path style="opacity:1" fill="#35dafc" d="M 182.5,74.5 C 181.597,77.3915 181.264,80.3915 181.5,83.5C 178.833,85.5 176.5,87.8333 174.5,90.5C 173.735,90.0766 172.902,89.7432 172,89.5C 168.743,92.2904 165.243,92.9571 161.5,91.5C 165.326,91.2033 168.326,89.3699 170.5,86C 169.944,85.6174 169.611,85.1174 169.5,84.5C 172.167,84.5 174.833,84.5 177.5,84.5C 177.5,82.1667 177.5,79.8333 177.5,77.5C 178.922,76.075 180.589,75.075 182.5,74.5 Z"/></g>
<g><path style="opacity:1" fill="#0dfe0b" d="M 87.5,68.5 C 87.5,77.8333 87.5,87.1667 87.5,96.5C 85.825,98.002 83.9917,99.3353 82,100.5C 81.5172,101.448 81.3505,102.448 81.5,103.5C 80.448,103.351 79.448,103.517 78.5,104C 68.9713,114.877 58.3047,124.21 46.5,132C 39.5651,139.441 32.2317,146.274 24.5,152.5C 23.5,152.5 22.5,152.5 21.5,152.5C 31.6312,141.868 41.9645,131.368 52.5,121C 51.8333,120.667 51.1667,120.333 50.5,120C 57.3693,113.298 64.036,106.465 70.5,99.5C 75.7794,98.9075 79.6127,96.2409 82,91.5C 83.7835,85.2017 83.9502,78.8683 82.5,72.5C 83.5794,70.457 85.246,69.1237 87.5,68.5 Z"/></g>
<g><path style="opacity:1" fill="#2bf2fb" d="M 169.5,84.5 C 169.611,85.1174 169.944,85.6174 170.5,86C 168.326,89.3699 165.326,91.2033 161.5,91.5C 158.482,90.145 157.149,87.8116 157.5,84.5C 161.5,84.5 165.5,84.5 169.5,84.5 Z"/></g>
<g><path style="opacity:1" fill="#c8fe06" d="M 27.5,87.5 C 28.4345,88.5676 28.7678,89.901 28.5,91.5C 19.9031,101.6 10.7364,111.267 1,120.5C 0.503354,118.19 0.336688,115.857 0.5,113.5C 9.38002,104.958 18.38,96.2913 27.5,87.5 Z"/></g>
<g><path style="opacity:0.999" fill="#0cb6fe" d="M 181.5,83.5 C 181.405,86.6967 182.072,89.6967 183.5,92.5C 177.951,97.0283 172.284,101.528 166.5,106C 150.938,121.395 135.604,136.895 120.5,152.5C 119.127,152.657 117.793,152.49 116.5,152C 134.105,134.378 151.438,116.545 168.5,98.5C 171.052,97.3065 173.552,95.9732 176,94.5C 176.773,92.6476 176.273,91.3143 174.5,90.5C 176.5,87.8333 178.833,85.5 181.5,83.5 Z"/></g>
<g><path style="opacity:1" fill="#94b7fa" d="M 221.5,91.5 C 222.833,91.5 224.167,91.5 225.5,91.5C 225.5,94.1667 225.5,96.8333 225.5,99.5C 223.5,99.5 221.5,99.5 219.5,99.5C 219.5,99.1667 219.5,98.8333 219.5,98.5C 221.167,98.5 222.833,98.5 224.5,98.5C 224.5,96.5 224.5,94.5 224.5,92.5C 223.209,92.7373 222.209,92.404 221.5,91.5 Z"/></g>
<g><path style="opacity:1" fill="#00fdfd" d="M 153.5,95.5 C 154.167,95.5 154.5,95.8333 154.5,96.5C 135.728,114.771 117.062,133.271 98.5,152C 97.552,152.483 96.552,152.649 95.5,152.5C 114.223,132.776 133.557,113.776 153.5,95.5 Z"/></g>
<g><path style="opacity:1" fill="#68fe06" d="M 55.5,83.5 C 55.2069,86.7543 55.8736,89.7543 57.5,92.5C 38.5,111.833 19.5,131.167 0.5,150.5C 0.5,145.833 0.5,141.167 0.5,136.5C 12.9651,124.535 25.2985,112.369 37.5,100C 38.0944,99.5357 38.7611,99.369 39.5,99.5C 44.2965,99.2926 48.4632,97.6259 52,94.5C 51.9421,92.5646 51.1088,90.8979 49.5,89.5C 51.1667,87.1667 53.1667,85.1667 55.5,83.5 Z"/></g>
<g><path style="opacity:1" fill="#42fe01" d="M 57.5,92.5 C 59.1939,94.8606 61.1939,96.8606 63.5,98.5C 52.3682,109.131 41.3682,119.965 30.5,131C 29.5,131.333 28.5,131.667 27.5,132C 21.3286,139.004 14.9953,145.837 8.5,152.5C 5.83333,152.5 3.16667,152.5 0.5,152.5C 0.5,151.833 0.5,151.167 0.5,150.5C 19.5,131.167 38.5,111.833 57.5,92.5 Z"/></g>
<g><path style="opacity:1" fill="#93fe00" d="M 32.5,96.5 C 34.8546,97.6586 37.1879,98.6586 39.5,99.5C 38.7611,99.369 38.0944,99.5357 37.5,100C 25.2985,112.369 12.9651,124.535 0.5,136.5C 0.335374,133.482 0.50204,130.482 1,127.5C 10.5248,116.976 20.3581,106.81 30.5,97C 31.0944,96.5357 31.7611,96.369 32.5,96.5 Z"/></g>
<g><path style="opacity:1" fill="#0022fe" d="M 213.5,96.5 C 215.142,98.0808 217.142,98.7475 219.5,98.5C 219.5,98.8333 219.5,99.1667 219.5,99.5C 208.789,108.032 198.456,117.199 188.5,127C 179.964,135.368 171.631,143.868 163.5,152.5C 161.167,152.5 158.833,152.5 156.5,152.5C 175.022,132.975 194.022,114.308 213.5,96.5 Z"/></g>
<g><path style="opacity:1" fill="#e2ff00" d="M 27.5,80.5 C 27.5,82.8333 27.5,85.1667 27.5,87.5C 18.38,96.2913 9.38002,104.958 0.5,113.5C 0.5,111.167 0.5,108.833 0.5,106.5C 9.5,97.8333 18.5,89.1667 27.5,80.5 Z"/></g>
<g><path style="opacity:1" fill="#10c8fe" d="M 162.5,98.5 C 164.5,98.5 166.5,98.5 168.5,98.5C 151.438,116.545 134.105,134.378 116.5,152C 117.793,152.49 119.127,152.657 120.5,152.5C 120.158,153.338 119.492,153.672 118.5,153.5C 116.076,153.192 113.743,153.526 111.5,154.5C 102.721,163.272 94.3876,172.272 86.5,181.5C 84.1667,181.5 81.8333,181.5 79.5,181.5C 87.9622,172.203 96.6289,163.036 105.5,154C 107.725,153.439 109.725,152.439 111.5,151C 129.138,134.362 146.472,117.362 163.5,100C 162.944,99.6174 162.611,99.1174 162.5,98.5 Z"/></g>
<g><path style="opacity:1" fill="#0069ff" d="M 194.5,99.5 C 177.113,117.554 159.446,135.221 141.5,152.5C 140.5,152.5 139.5,152.5 138.5,152.5C 155.77,134.396 173.436,116.896 191.5,100C 192.448,99.5172 193.448,99.3505 194.5,99.5 Z"/></g>
<g><path style="opacity:1" fill="#035afe" d="M 212.5,82.5 C 212.5,85.8333 212.5,89.1667 212.5,92.5C 209.208,94.4581 206.208,96.7915 203.5,99.5C 200.802,99.9076 198.469,101.074 196.5,103C 179.965,119.368 163.632,135.868 147.5,152.5C 145.5,152.5 143.5,152.5 141.5,152.5C 159.446,135.221 177.113,117.554 194.5,99.5C 195.492,99.6716 196.158,99.3382 196.5,98.5C 200.182,98.4093 203.349,97.076 206,94.5C 206.279,92.5878 205.446,91.2544 203.5,90.5C 204.949,86.5276 207.449,83.1943 211,80.5C 211.278,81.4158 211.778,82.0825 212.5,82.5 Z"/></g>
<g><path style="opacity:1" fill="#00fe8a" d="M 118.5,97.5 C 118.842,98.3382 119.508,98.6716 120.5,98.5C 102.194,116.14 84.1937,134.14 66.5,152.5C 64.8333,152.5 63.1667,152.5 61.5,152.5C 78.2982,135.201 95.2982,118.035 112.5,101C 114.887,100.436 116.887,99.2696 118.5,97.5 Z"/></g>
<g><path style="opacity:1" fill="#01fea2" d="M 137.5,84.5 C 137.5,85.5 137.5,86.5 137.5,87.5C 126.454,100.05 114.787,112.217 102.5,124C 101.5,124.333 100.5,124.667 99.5,125C 90.3188,133.681 81.6522,142.848 73.5,152.5C 71.1667,152.5 68.8333,152.5 66.5,152.5C 84.1937,134.14 102.194,116.14 120.5,98.5C 122.735,98.7947 124.735,98.4614 126.5,97.5C 126.5,95.8333 126.5,94.1667 126.5,92.5C 127.117,92.6107 127.617,92.944 128,93.5C 131.036,90.2956 134.203,87.2956 137.5,84.5 Z"/></g>
<g><path style="opacity:1" fill="#02fe3a" d="M 106.5,78.5 C 106.5,83.1667 106.5,87.8333 106.5,92.5C 105.761,92.369 105.094,92.5357 104.5,93C 84.605,113.062 64.605,132.896 44.5,152.5C 42.1667,152.5 39.8333,152.5 37.5,152.5C 55.1937,134.14 73.1937,116.14 91.5,98.5C 92.8333,98.5 94.1667,98.5 95.5,98.5C 95.3336,90.8261 95.5003,83.1594 96,75.5C 101.029,71.1207 104.529,72.1207 106.5,78.5 Z"/></g>
<g><path style="opacity:1" fill="#05feec" d="M 150.5,75.5 C 148.731,82.575 149.731,89.2416 153.5,95.5C 133.557,113.776 114.223,132.776 95.5,152.5C 92.8333,152.5 90.1667,152.5 87.5,152.5C 105.833,134.5 124.167,116.5 142.5,98.5C 143.5,98.5 144.5,98.5 145.5,98.5C 145.5,92.8333 145.5,87.1667 145.5,81.5C 146.385,78.94 148.051,76.94 150.5,75.5 Z"/></g>
<g><path style="opacity:1" fill="#0187fe" d="M 186.5,96.5 C 187.71,96.9321 188.71,97.5987 189.5,98.5C 171.169,116.498 152.836,134.498 134.5,152.5C 132.833,152.5 131.167,152.5 129.5,152.5C 148.048,132.948 167.048,114.281 186.5,96.5 Z"/></g>
<g><path style="opacity:1" fill="#0048ff" d="M 203.5,99.5 C 186.081,116.916 169.081,134.583 152.5,152.5C 150.833,152.5 149.167,152.5 147.5,152.5C 163.632,135.868 179.965,119.368 196.5,103C 198.469,101.074 200.802,99.9076 203.5,99.5 Z"/></g>
<g><path style="opacity:1" fill="#3c00ff" d="M 254.5,80.5 C 254.5,84.8333 254.5,89.1667 254.5,93.5C 235.081,112.916 216.081,132.583 197.5,152.5C 192.833,152.5 188.167,152.5 183.5,152.5C 184.708,149.956 186.708,148.622 189.5,148.5C 189.351,147.448 189.517,146.448 190,145.5C 211.729,123.938 233.229,102.272 254.5,80.5 Z"/></g>
<g><path style="opacity:1" fill="#0709ff" d="M 254.5,78.5 C 252.146,79.0128 250.146,80.1795 248.5,82C 224.748,105.92 201.081,129.42 177.5,152.5C 172.833,152.5 168.167,152.5 163.5,152.5C 171.631,143.868 179.964,135.368 188.5,127C 198.456,117.199 208.789,108.032 219.5,99.5C 221.5,99.5 223.5,99.5 225.5,99.5C 225.5,96.8333 225.5,94.1667 225.5,91.5C 224.167,91.5 222.833,91.5 221.5,91.5C 232.106,79.7234 242.939,68.0567 254,56.5C 254.5,63.8258 254.666,71.1591 254.5,78.5 Z"/></g>
<g><path style="opacity:1" fill="#a3f501" d="M 28.5,91.5 C 29.803,93.1423 31.1363,94.8089 32.5,96.5C 31.7611,96.369 31.0944,96.5357 30.5,97C 20.3581,106.81 10.5248,116.976 1,127.5C 0.50204,130.482 0.335374,133.482 0.5,136.5C 0.5,141.167 0.5,145.833 0.5,150.5C 0.5,151.167 0.5,151.833 0.5,152.5C 0.166667,152.5 -0.166667,152.5 -0.5,152.5C -0.5,136.833 -0.5,121.167 -0.5,105.5C -0.166667,105.5 0.166667,105.5 0.5,105.5C 0.5,105.833 0.5,106.167 0.5,106.5C 0.5,108.833 0.5,111.167 0.5,113.5C 0.336688,115.857 0.503354,118.19 1,120.5C 10.7364,111.267 19.9031,101.6 28.5,91.5 Z"/></g>
<g><path style="opacity:1" fill="#0276fe" d="M 189.5,98.5 C 191.833,98.5 194.167,98.5 196.5,98.5C 196.158,99.3382 195.492,99.6716 194.5,99.5C 193.448,99.3505 192.448,99.5172 191.5,100C 173.436,116.896 155.77,134.396 138.5,152.5C 137.167,152.5 135.833,152.5 134.5,152.5C 152.836,134.498 171.169,116.498 189.5,98.5 Z"/></g>
<g><path style="opacity:1" fill="#00fe57" d="M 106.5,92.5 C 106.5,94.5 106.5,96.5 106.5,98.5C 88.0863,116.916 69.4196,134.916 50.5,152.5C 48.5,152.5 46.5,152.5 44.5,152.5C 64.605,132.896 84.605,113.062 104.5,93C 105.094,92.5357 105.761,92.369 106.5,92.5 Z"/></g>
<g><path style="opacity:1" fill="#01febc" d="M 137.5,87.5 C 137.5,90.8333 137.5,94.1667 137.5,97.5C 123.896,111.267 110.563,125.1 97.5,139C 91.9094,142.586 86.9094,146.92 82.5,152C 79.5184,152.498 76.5184,152.665 73.5,152.5C 81.6522,142.848 90.3188,133.681 99.5,125C 100.5,124.667 101.5,124.333 102.5,124C 114.787,112.217 126.454,100.05 137.5,87.5 Z"/></g>
<g><path style="opacity:1" fill="#0397fe" d="M 184.5,94.5 C 185.5,94.8333 186.167,95.5 186.5,96.5C 167.048,114.281 148.048,132.948 129.5,152.5C 128.127,152.657 126.793,152.49 125.5,152C 144.728,132.27 164.395,113.104 184.5,94.5 Z"/></g>
<g><path style="opacity:1" fill="#07d8fe" d="M 159.5,98.5 C 160.5,98.5 161.5,98.5 162.5,98.5C 162.611,99.1174 162.944,99.6174 163.5,100C 146.472,117.362 129.138,134.362 111.5,151C 109.725,152.439 107.725,153.439 105.5,154C 96.6289,163.036 87.9622,172.203 79.5,181.5C 77.8333,181.5 76.1667,181.5 74.5,181.5C 84.0537,170.778 94.3871,160.945 105.5,152C 113.233,143.597 121.566,135.93 130.5,129C 139.95,118.714 149.617,108.548 159.5,98.5 Z"/></g>
<g><path style="opacity:1" fill="#6b00ff" d="M 254.5,93.5 C 254.5,98.1667 254.5,102.833 254.5,107.5C 239.218,121.784 224.551,136.784 210.5,152.5C 206.167,152.5 201.833,152.5 197.5,152.5C 216.081,132.583 235.081,112.916 254.5,93.5 Z"/></g>
<g><path style="opacity:1" fill="#003bff" d="M 212.5,92.5 C 212.833,93.8333 213.167,95.1667 213.5,96.5C 194.022,114.308 175.022,132.975 156.5,152.5C 155.167,152.5 153.833,152.5 152.5,152.5C 169.081,134.583 186.081,116.916 203.5,99.5C 206.208,96.7915 209.208,94.4581 212.5,92.5 Z"/></g>
<g><path style="opacity:1" fill="#01fe71" d="M 118.5,76.5 C 118.5,83.5 118.5,90.5 118.5,97.5C 116.887,99.2696 114.887,100.436 112.5,101C 95.2982,118.035 78.2982,135.201 61.5,152.5C 57.8333,152.5 54.1667,152.5 50.5,152.5C 69.4196,134.916 88.0863,116.916 106.5,98.5C 109.167,98.5 111.833,98.5 114.5,98.5C 114.5,92.1667 114.5,85.8333 114.5,79.5C 115.833,78.5 117.167,77.5 118.5,76.5 Z"/></g>
<g><path style="opacity:1" fill="#00fe1c" d="M 87.5,96.5 C 88.1834,98.1765 89.5168,98.8432 91.5,98.5C 73.1937,116.14 55.1937,134.14 37.5,152.5C 33.1667,152.5 28.8333,152.5 24.5,152.5C 32.2317,146.274 39.5651,139.441 46.5,132C 58.3047,124.21 68.9713,114.877 78.5,104C 79.448,103.517 80.448,103.351 81.5,103.5C 81.3505,102.448 81.5172,101.448 82,100.5C 83.9917,99.3353 85.825,98.002 87.5,96.5 Z"/></g>
<g><path style="opacity:1" fill="#c600ff" d="M 254.5,121.5 C 254.5,121.833 254.5,122.167 254.5,122.5C 254.665,126.182 254.499,129.848 254,133.5C 247.376,139.439 241.21,145.772 235.5,152.5C 231.5,152.5 227.5,152.5 223.5,152.5C 233.5,141.833 243.833,131.5 254.5,121.5 Z"/></g>
<g><path style="opacity:1" fill="#9e00ff" d="M 254.5,107.5 C 254.5,112.167 254.5,116.833 254.5,121.5C 243.833,131.5 233.5,141.833 223.5,152.5C 219.167,152.5 214.833,152.5 210.5,152.5C 224.551,136.784 239.218,121.784 254.5,107.5 Z"/></g>
<g><path style="opacity:1" fill="#1dfe00" d="M 63.5,98.5 C 65.861,98.6741 68.1944,99.0074 70.5,99.5C 64.036,106.465 57.3693,113.298 50.5,120C 51.1667,120.333 51.8333,120.667 52.5,121C 41.9645,131.368 31.6312,141.868 21.5,152.5C 17.1667,152.5 12.8333,152.5 8.5,152.5C 14.9953,145.837 21.3286,139.004 27.5,132C 28.5,131.667 29.5,131.333 30.5,131C 41.3682,119.965 52.3682,109.131 63.5,98.5 Z"/></g>
<g><path style="opacity:1" fill="#ed00f3" d="M 254.5,122.5 C 254.833,122.5 255.167,122.5 255.5,122.5C 255.5,132.5 255.5,142.5 255.5,152.5C 248.833,152.5 242.167,152.5 235.5,152.5C 241.21,145.772 247.376,139.439 254,133.5C 254.499,129.848 254.665,126.182 254.5,122.5 Z"/></g>
<g><path style="opacity:1" fill="#0cfdf8" d="M 87.5,153.5 C 90.5184,153.335 93.5184,153.502 96.5,154C 86.2406,164.763 75.5739,174.93 64.5,184.5C 63.1283,183.488 61.795,182.488 60.5,181.5C 69.5,172.167 78.5,162.833 87.5,153.5 Z"/></g>
<g><path style="opacity:1" fill="#0decfe" d="M 154.5,96.5 C 156.284,96.8925 157.95,97.5592 159.5,98.5C 149.617,108.548 139.95,118.714 130.5,129C 121.566,135.93 113.233,143.597 105.5,152C 94.3871,160.945 84.0537,170.778 74.5,181.5C 73.2766,184.398 71.2766,186.731 68.5,188.5C 67.5,186.833 66.1667,185.5 64.5,184.5C 75.5739,174.93 86.2406,164.763 96.5,154C 93.5184,153.502 90.5184,153.335 87.5,153.5C 86.1667,153.167 86.1667,152.833 87.5,152.5C 90.1667,152.5 92.8333,152.5 95.5,152.5C 96.552,152.649 97.552,152.483 98.5,152C 117.062,133.271 135.728,114.771 154.5,96.5 Z"/></g>
<g><path style="opacity:1" fill="#47a1fd" d="M 183.5,92.5 C 183.833,93.1667 184.167,93.8333 184.5,94.5C 164.395,113.104 144.728,132.27 125.5,152C 126.793,152.49 128.127,152.657 129.5,152.5C 131.167,152.5 132.833,152.5 134.5,152.5C 135.833,152.5 137.167,152.5 138.5,152.5C 139.5,152.5 140.5,152.5 141.5,152.5C 143.5,152.5 145.5,152.5 147.5,152.5C 149.167,152.5 150.833,152.5 152.5,152.5C 153.833,152.5 155.167,152.5 156.5,152.5C 158.833,152.5 161.167,152.5 163.5,152.5C 168.167,152.5 172.833,152.5 177.5,152.5C 179.5,152.5 181.5,152.5 183.5,152.5C 188.167,152.5 192.833,152.5 197.5,152.5C 201.833,152.5 206.167,152.5 210.5,152.5C 214.833,152.5 219.167,152.5 223.5,152.5C 227.5,152.5 231.5,152.5 235.5,152.5C 242.167,152.5 248.833,152.5 255.5,152.5C 255.5,152.833 255.5,153.167 255.5,153.5C 255.167,153.5 254.833,153.5 254.5,153.5C 252.167,153.5 249.833,153.5 247.5,153.5C 244.167,153.5 240.833,153.5 237.5,153.5C 233.167,153.5 228.833,153.5 224.5,153.5C 218.5,153.5 212.5,153.5 206.5,153.5C 202.5,153.5 198.5,153.5 194.5,153.5C 182.833,153.5 171.167,153.5 159.5,153.5C 156.167,153.5 152.833,153.5 149.5,153.5C 146.833,153.5 144.167,153.5 141.5,153.5C 138.833,153.5 136.167,153.5 133.5,153.5C 132.167,153.5 130.833,153.5 129.5,153.5C 127.473,153.338 125.473,153.505 123.5,154C 114.016,163.672 104.349,172.839 94.5,181.5C 93.8333,181.5 93.1667,181.5 92.5,181.5C 101.534,172.468 110.201,163.134 118.5,153.5C 119.492,153.672 120.158,153.338 120.5,152.5C 135.604,136.895 150.938,121.395 166.5,106C 172.284,101.528 177.951,97.0283 183.5,92.5 Z"/></g>
<g><path style="opacity:1" fill="#0381fe" d="M 129.5,153.5 C 130.833,153.5 132.167,153.5 133.5,153.5C 123.39,162.606 114.057,172.273 105.5,182.5C 104.609,181.89 103.609,181.557 102.5,181.5C 110.806,171.527 119.806,162.193 129.5,153.5 Z"/></g>
<g><path style="opacity:1" fill="#013eff" d="M 149.5,153.5 C 152.833,153.5 156.167,153.5 159.5,153.5C 157.26,154.264 154.927,155.098 152.5,156C 143.732,164.339 135.066,172.839 126.5,181.5C 124.167,181.5 121.833,181.5 119.5,181.5C 128.65,171.008 138.65,161.675 149.5,153.5 Z"/></g>
<g><path style="opacity:1" fill="#1504fe" d="M 145.5,188.5 C 143.009,183.693 139.009,181.36 133.5,181.5C 142.527,172.976 151.527,164.142 160.5,155C 167.5,154.333 174.5,154.333 181.5,155C 169.052,165.612 157.052,176.779 145.5,188.5 Z"/></g>
<g><path style="opacity:1" fill="#3812fe" d="M 159.5,153.5 C 171.167,153.5 182.833,153.5 194.5,153.5C 191.695,154.319 188.695,154.819 185.5,155C 176.929,163.068 168.929,171.568 161.5,180.5C 149.53,184.772 145.196,193.105 148.5,205.5C 147.92,207.749 146.587,209.415 144.5,210.5C 142.968,207.943 141.301,205.443 139.5,203C 144.669,199.494 146.669,194.661 145.5,188.5C 157.052,176.779 169.052,165.612 181.5,155C 174.5,154.333 167.5,154.333 160.5,155C 151.527,164.142 142.527,172.976 133.5,181.5C 131.167,181.5 128.833,181.5 126.5,181.5C 135.066,172.839 143.732,164.339 152.5,156C 154.927,155.098 157.26,154.264 159.5,153.5 Z"/></g>
<g><path style="opacity:1" fill="#ff02d9" d="M 247.5,153.5 C 249.833,153.5 252.167,153.5 254.5,153.5C 254.5,154.5 254.5,155.5 254.5,156.5C 240.473,169.86 226.806,183.527 213.5,197.5C 213.632,194.43 213.299,191.43 212.5,188.5C 213.239,188.631 213.906,188.464 214.5,188C 225.577,176.485 236.577,164.985 247.5,153.5 Z"/></g>
<g><path style="opacity:1" fill="#0cfaa5" d="M 65.5,153.5 C 67.1667,153.5 68.8333,153.5 70.5,153.5C 70.631,154.239 70.4643,154.906 70,155.5C 48.0203,176.646 26.187,197.979 4.5,219.5C 3.83333,219.167 3.16667,218.833 2.5,218.5C 1.56552,217.432 1.23219,216.099 1.5,214.5C 3.4846,214.859 4.15127,215.692 3.5,217C 4.16667,217.667 4.83333,217.667 5.5,217C 24.5016,196.996 44.0016,177.162 64,157.5C 64.7914,156.255 65.2914,154.922 65.5,153.5 Z"/></g>
<g><path style="opacity:1" fill="#01b3ff" d="M 118.5,153.5 C 110.201,163.134 101.534,172.468 92.5,181.5C 90.5,181.5 88.5,181.5 86.5,181.5C 94.3876,172.272 102.721,163.272 111.5,154.5C 113.743,153.526 116.076,153.192 118.5,153.5 Z"/></g>
<g><path style="opacity:1" fill="#fe07f6" d="M 237.5,153.5 C 240.833,153.5 244.167,153.5 247.5,153.5C 236.577,164.985 225.577,176.485 214.5,188C 213.906,188.464 213.239,188.631 212.5,188.5C 211.5,187.167 210.5,185.833 209.5,184.5C 219.632,174.869 229.632,165.036 239.5,155C 238.584,154.722 237.918,154.222 237.5,153.5 Z"/></g>
<g><path style="opacity:1" fill="#00fe82" d="M 55.5,153.5 C 56.8333,153.5 58.1667,153.5 59.5,153.5C 50.228,163.943 40.728,174.276 31,184.5C 21.7792,193.544 12.6126,202.711 3.5,212C 2.90558,212.464 2.23891,212.631 1.5,212.5C 1.5,211.167 1.5,209.833 1.5,208.5C 20.2455,190.756 38.2455,172.422 55.5,153.5 Z"/></g>
<g><path style="opacity:1" fill="#0a6ffe" d="M 133.5,153.5 C 136.167,153.5 138.833,153.5 141.5,153.5C 129.864,163.136 119.197,173.803 109.5,185.5C 108.167,184.5 106.833,183.5 105.5,182.5C 114.057,172.273 123.39,162.606 133.5,153.5 Z"/></g>
<g><path style="opacity:1" fill="#0191ff" d="M 129.5,153.5 C 119.806,162.193 110.806,171.527 102.5,181.5C 99.8333,181.5 97.1667,181.5 94.5,181.5C 104.349,172.839 114.016,163.672 123.5,154C 125.473,153.505 127.473,153.338 129.5,153.5 Z"/></g>
<g><path style="opacity:1" fill="#ab01fe" d="M 206.5,153.5 C 212.5,153.5 218.5,153.5 224.5,153.5C 224.611,154.117 224.944,154.617 225.5,155C 216.605,164.063 207.605,172.896 198.5,181.5C 194.167,181.5 189.833,181.5 185.5,181.5C 185.5,184.833 185.5,188.167 185.5,191.5C 184.528,193.493 183.195,193.826 181.5,192.5C 180.255,189.013 178.255,186.013 175.5,183.5C 186.352,174.32 196.685,164.32 206.5,153.5 Z"/></g>
<g><path style="opacity:1" fill="#e603fe" d="M 224.5,153.5 C 228.833,153.5 233.167,153.5 237.5,153.5C 237.918,154.222 238.584,154.722 239.5,155C 229.632,165.036 219.632,174.869 209.5,184.5C 206.332,181.944 202.666,180.944 198.5,181.5C 207.605,172.896 216.605,164.063 225.5,155C 224.944,154.617 224.611,154.117 224.5,153.5 Z"/></g>
<g><path style="opacity:1" fill="#5d01fe" d="M 194.5,153.5 C 198.5,153.5 202.5,153.5 206.5,153.5C 196.685,164.32 186.352,174.32 175.5,183.5C 171.181,181.041 166.515,180.041 161.5,180.5C 168.929,171.568 176.929,163.068 185.5,155C 188.695,154.819 191.695,154.319 194.5,153.5 Z"/></g>
<g><path style="opacity:1" fill="#2afdd3" d="M 137.5,97.5 C 139.042,98.3007 140.708,98.634 142.5,98.5C 124.167,116.5 105.833,134.5 87.5,152.5C 86.1667,152.833 86.1667,153.167 87.5,153.5C 78.5,162.833 69.5,172.167 60.5,181.5C 57.8728,180.908 55.2062,180.575 52.5,180.5C 62.216,172.29 71.5494,163.457 80.5,154C 77.1832,153.502 73.8499,153.335 70.5,153.5C 68.8333,153.5 67.1667,153.5 65.5,153.5C 63.5,153.5 61.5,153.5 59.5,153.5C 58.1667,153.5 56.8333,153.5 55.5,153.5C 52.1667,153.5 48.8333,153.5 45.5,153.5C 42.8333,153.5 40.1667,153.5 37.5,153.5C 25.1667,153.5 12.8333,153.5 0.5,153.5C 0.166667,153.5 -0.166667,153.5 -0.5,153.5C -0.5,153.167 -0.5,152.833 -0.5,152.5C -0.166667,152.5 0.166667,152.5 0.5,152.5C 3.16667,152.5 5.83333,152.5 8.5,152.5C 12.8333,152.5 17.1667,152.5 21.5,152.5C 22.5,152.5 23.5,152.5 24.5,152.5C 28.8333,152.5 33.1667,152.5 37.5,152.5C 39.8333,152.5 42.1667,152.5 44.5,152.5C 46.5,152.5 48.5,152.5 50.5,152.5C 54.1667,152.5 57.8333,152.5 61.5,152.5C 63.1667,152.5 64.8333,152.5 66.5,152.5C 68.8333,152.5 71.1667,152.5 73.5,152.5C 76.5184,152.665 79.5184,152.498 82.5,152C 86.9094,146.92 91.9094,142.586 97.5,139C 110.563,125.1 123.896,111.267 137.5,97.5 Z"/></g>
<g><path style="opacity:1" fill="#ff00bf" d="M 254.5,156.5 C 254.663,158.857 254.497,161.19 254,163.5C 241.207,177.132 227.707,189.799 213.5,201.5C 213.5,200.167 213.5,198.833 213.5,197.5C 226.806,183.527 240.473,169.86 254.5,156.5 Z"/></g>
<g><path style="opacity:1" fill="#01fe97" d="M 59.5,153.5 C 61.5,153.5 63.5,153.5 65.5,153.5C 65.2914,154.922 64.7914,156.255 64,157.5C 44.0016,177.162 24.5016,196.996 5.5,217C 4.83333,217.667 4.16667,217.667 3.5,217C 4.15127,215.692 3.4846,214.859 1.5,214.5C 1.5,213.833 1.5,213.167 1.5,212.5C 2.23891,212.631 2.90558,212.464 3.5,212C 12.6126,202.711 21.7792,193.544 31,184.5C 40.728,174.276 50.228,163.943 59.5,153.5 Z"/></g>
<g><path style="opacity:1" fill="#3f5ffe" d="M 141.5,153.5 C 144.167,153.5 146.833,153.5 149.5,153.5C 138.65,161.675 128.65,171.008 119.5,181.5C 117.523,192.116 116.856,203.116 117.5,214.5C 117.167,214.5 116.833,214.5 116.5,214.5C 116.832,205.475 116.498,196.475 115.5,187.5C 114.522,187.977 113.689,188.643 113,189.5C 112.829,198.01 112.329,206.343 111.5,214.5C 111.666,205.494 111.5,196.494 111,187.5C 110.283,186.956 109.783,186.289 109.5,185.5C 119.197,173.803 129.864,163.136 141.5,153.5 Z"/></g>
<g><path style="opacity:1" fill="#0af84e" d="M -0.5,153.5 C -0.166667,153.5 0.166667,153.5 0.5,153.5C 0.5,153.833 0.5,154.167 0.5,154.5C 0.5,163.833 0.5,173.167 0.5,182.5C 0.334703,186.182 0.50137,189.848 1,193.5C 13.7251,180.775 26.5585,167.942 39.5,155C 38.5842,154.722 37.9175,154.222 37.5,153.5C 40.1667,153.5 42.8333,153.5 45.5,153.5C 45.8039,154.15 46.1373,154.817 46.5,155.5C 30.7912,170.375 15.6245,185.708 1,201.5C 0.506489,203.134 0.339822,204.801 0.5,206.5C 0.166667,206.5 -0.166667,206.5 -0.5,206.5C -0.5,188.833 -0.5,171.167 -0.5,153.5 Z"/></g>
<g><path style="opacity:1" fill="#03fe33" d="M 0.5,154.5 C 0.5,154.167 0.5,153.833 0.5,153.5C 12.8333,153.5 25.1667,153.5 37.5,153.5C 37.9175,154.222 38.5842,154.722 39.5,155C 26.5585,167.942 13.7251,180.775 1,193.5C 0.50137,189.848 0.334703,186.182 0.5,182.5C 10.0742,173.76 19.0742,164.594 27.5,155C 18.5062,154.5 9.50617,154.334 0.5,154.5 Z"/></g>
<g><path style="opacity:1" fill="#0cff07" d="M 0.5,154.5 C 9.50617,154.334 18.5062,154.5 27.5,155C 19.0742,164.594 10.0742,173.76 0.5,182.5C 0.5,173.167 0.5,163.833 0.5,154.5 Z"/></g>
<g><path style="opacity:1" fill="#ff0082" d="M 254.5,175.5 C 254.657,176.873 254.49,178.207 254,179.5C 229.326,204.341 204.492,229.008 179.5,253.5C 178.167,253.5 176.833,253.5 175.5,253.5C 186.932,240.566 198.932,228.066 211.5,216C 212.5,215.667 213.5,215.333 214.5,215C 227.728,201.604 241.062,188.438 254.5,175.5 Z"/></g>
<g><path style="opacity:1" fill="#fd00a6" d="M 254.5,153.5 C 254.833,153.5 255.167,153.5 255.5,153.5C 255.5,159.833 255.5,166.167 255.5,172.5C 255.167,172.5 254.833,172.5 254.5,172.5C 254.631,171.761 254.464,171.094 254,170.5C 240.858,184.148 227.358,197.148 213.5,209.5C 213.5,206.833 213.5,204.167 213.5,201.5C 227.707,189.799 241.207,177.132 254,163.5C 254.497,161.19 254.663,158.857 254.5,156.5C 254.5,155.5 254.5,154.5 254.5,153.5 Z"/></g>
<g><path style="opacity:1" fill="#f7f2f3" d="M 52.5,180.5 C 55.2062,180.575 57.8728,180.908 60.5,181.5C 61.795,182.488 63.1283,183.488 64.5,184.5C 66.1667,185.5 67.5,186.833 68.5,188.5C 70.2541,192.258 70.9208,196.258 70.5,200.5C 69.241,208.687 64.5744,213.687 56.5,215.5C 55.1667,215.5 53.8333,215.5 52.5,215.5C 50.5,215.167 48.5,214.833 46.5,214.5C 44.5248,212.863 42.5248,211.196 40.5,209.5C 40.1667,208.5 39.5,207.833 38.5,207.5C 38.2041,205.597 37.5375,203.93 36.5,202.5C 36.5,199.833 36.5,197.167 36.5,194.5C 38.9721,186.593 44.3055,181.926 52.5,180.5 Z"/></g>
<g><path style="opacity:1" fill="#f6ecf3" d="M 161.5,180.5 C 166.515,180.041 171.181,181.041 175.5,183.5C 178.255,186.013 180.255,189.013 181.5,192.5C 183.789,204.923 178.789,212.589 166.5,215.5C 163.763,215.599 161.096,215.265 158.5,214.5C 156.537,213.18 154.537,211.846 152.5,210.5C 151.396,208.611 150.063,206.945 148.5,205.5C 145.196,193.105 149.53,184.772 161.5,180.5 Z"/></g>
<g><path style="opacity:1" fill="#0efebb" d="M 70.5,153.5 C 73.8499,153.335 77.1832,153.502 80.5,154C 71.5494,163.457 62.216,172.29 52.5,180.5C 44.3055,181.926 38.9721,186.593 36.5,194.5C 35.71,195.609 35.21,196.942 35,198.5C 25.9126,208.091 16.4126,217.091 6.5,225.5C 6.06795,224.29 5.40128,223.29 4.5,222.5C 4.5,221.5 4.5,220.5 4.5,219.5C 26.187,197.979 48.0203,176.646 70,155.5C 70.4643,154.906 70.631,154.239 70.5,153.5 Z"/></g>
<g><path style="opacity:0.999" fill="#f8f1f3" d="M 74.5,181.5 C 76.1667,181.5 77.8333,181.5 79.5,181.5C 81.8333,181.5 84.1667,181.5 86.5,181.5C 88.5,181.5 90.5,181.5 92.5,181.5C 93.1667,181.5 93.8333,181.5 94.5,181.5C 97.1667,181.5 99.8333,181.5 102.5,181.5C 103.609,181.557 104.609,181.89 105.5,182.5C 106.833,183.5 108.167,184.5 109.5,185.5C 109.783,186.289 110.283,186.956 111,187.5C 111.5,196.494 111.666,205.494 111.5,214.5C 109.167,214.5 106.833,214.5 104.5,214.5C 104.5,208.833 104.5,203.167 104.5,197.5C 106.159,191.174 103.826,188.174 97.5,188.5C 97.5,193.5 97.5,198.5 97.5,203.5C 97.5,207.167 97.5,210.833 97.5,214.5C 94.8333,214.5 92.1667,214.5 89.5,214.5C 89.5,211.833 89.5,209.167 89.5,206.5C 89.5,204.167 89.5,201.833 89.5,199.5C 89.5,195.833 89.5,192.167 89.5,188.5C 87.0521,187.527 84.3854,187.194 81.5,187.5C 81.5,196.5 81.5,205.5 81.5,214.5C 80.5,214.5 79.5,214.5 78.5,214.5C 77.1667,214.5 75.8333,214.5 74.5,214.5C 74.5,207.833 74.5,201.167 74.5,194.5C 74.5,190.167 74.5,185.833 74.5,181.5 Z"/></g>
<g><path style="opacity:0.998" fill="#f7eef3" d="M 119.5,181.5 C 121.833,181.5 124.167,181.5 126.5,181.5C 128.833,181.5 131.167,181.5 133.5,181.5C 139.009,181.36 143.009,183.693 145.5,188.5C 146.669,194.661 144.669,199.494 139.5,203C 141.301,205.443 142.968,207.943 144.5,210.5C 147.365,213.419 146.531,214.752 142,214.5C 138.993,214.964 136.827,213.964 135.5,211.5C 132.757,207.021 129.757,202.688 126.5,198.5C 129.447,197.679 132.447,197.179 135.5,197C 138.167,194.333 138.167,191.667 135.5,189C 131.848,188.501 128.182,188.335 124.5,188.5C 124.5,197.167 124.5,205.833 124.5,214.5C 122.167,214.5 119.833,214.5 117.5,214.5C 116.856,203.116 117.523,192.116 119.5,181.5 Z"/></g>
<g><path style="opacity:0.999" fill="#fbeef2" d="M 198.5,181.5 C 202.666,180.944 206.332,181.944 209.5,184.5C 210.5,185.833 211.5,187.167 212.5,188.5C 213.299,191.43 213.632,194.43 213.5,197.5C 213.5,198.833 213.5,200.167 213.5,201.5C 213.5,204.167 213.5,206.833 213.5,209.5C 213.5,211.167 213.5,212.833 213.5,214.5C 212.5,214.5 211.5,214.5 210.5,214.5C 208.585,214.784 206.919,214.451 205.5,213.5C 205.5,212.167 205.5,210.833 205.5,209.5C 205.5,207.833 205.5,206.167 205.5,204.5C 205.5,201.5 205.5,198.5 205.5,195.5C 205.896,192.956 205.229,190.789 203.5,189C 200.183,188.502 196.85,188.335 193.5,188.5C 192.833,197.167 192.167,205.833 191.5,214.5C 188.918,214.975 186.918,214.308 185.5,212.5C 185.5,205.5 185.5,198.5 185.5,191.5C 185.5,188.167 185.5,184.833 185.5,181.5C 189.833,181.5 194.167,181.5 198.5,181.5 Z"/></g>
<g><path style="opacity:1" fill="#01fe6f" d="M 45.5,153.5 C 48.8333,153.5 52.1667,153.5 55.5,153.5C 38.2455,172.422 20.2455,190.756 1.5,208.5C 0.661754,208.158 0.32842,207.492 0.5,206.5C 0.339822,204.801 0.506489,203.134 1,201.5C 15.6245,185.708 30.7912,170.375 46.5,155.5C 46.1373,154.817 45.8039,154.15 45.5,153.5 Z"/></g>
<g><path style="opacity:0.999" fill="#40c7f9" d="M 74.5,181.5 C 74.5,185.833 74.5,190.167 74.5,194.5C 72.744,196.249 71.4106,198.249 70.5,200.5C 70.9208,196.258 70.2541,192.258 68.5,188.5C 71.2766,186.731 73.2766,184.398 74.5,181.5 Z"/></g>
<g><path style="opacity:1" fill="#26f9f8" d="M 59.5,190.5 C 56.5711,194.606 53.4044,198.606 50,202.5C 49.1841,203.823 48.0174,204.489 46.5,204.5C 42.0192,198.4 43.0192,193.233 49.5,189C 50.8333,188.833 52.1667,188.667 53.5,188.5C 55.8825,188.361 57.8825,189.028 59.5,190.5 Z"/></g>
<g><path style="opacity:1" fill="#f803fb" d="M 193.5,188.5 C 196.85,188.335 200.183,188.502 203.5,189C 205.229,190.789 205.896,192.956 205.5,195.5C 201.536,198.963 197.702,202.63 194,206.5C 193.501,200.509 193.334,194.509 193.5,188.5 Z"/></g>
<g><path style="opacity:1" fill="#fe0091" d="M 254.5,172.5 C 254.5,173.5 254.5,174.5 254.5,175.5C 241.062,188.438 227.728,201.604 214.5,215C 213.5,215.333 212.5,215.667 211.5,216C 198.932,228.066 186.932,240.566 175.5,253.5C 175.5,253.833 175.5,254.167 175.5,254.5C 171.833,254.5 168.167,254.5 164.5,254.5C 164.842,253.662 165.508,253.328 166.5,253.5C 168.527,253.662 170.527,253.495 172.5,253C 185.369,240.298 198.035,227.465 210.5,214.5C 211.5,214.5 212.5,214.5 213.5,214.5C 213.5,212.833 213.5,211.167 213.5,209.5C 227.358,197.148 240.858,184.148 254,170.5C 254.464,171.094 254.631,171.761 254.5,172.5 Z"/></g>
<g><path style="opacity:1" fill="#f1144a" d="M 254.5,189.5 C 254.833,189.5 255.167,189.5 255.5,189.5C 255.5,195.167 255.5,200.833 255.5,206.5C 255.167,206.5 254.833,206.5 254.5,206.5C 254.5,204.167 254.5,201.833 254.5,199.5C 254.662,197.473 254.495,195.473 254,193.5C 234.112,213.723 213.945,233.556 193.5,253C 195.473,253.495 197.473,253.662 199.5,253.5C 202.167,253.5 204.833,253.5 207.5,253.5C 207.5,253.833 207.5,254.167 207.5,254.5C 196.833,254.5 186.167,254.5 175.5,254.5C 175.5,254.167 175.5,253.833 175.5,253.5C 176.833,253.5 178.167,253.5 179.5,253.5C 181.833,253.5 184.167,253.5 186.5,253.5C 187.873,253.657 189.207,253.49 190.5,253C 213.026,232.974 234.359,211.807 254.5,189.5 Z"/></g>
<g><path style="opacity:1" fill="#0f8efe" d="M 89.5,188.5 C 89.5,192.167 89.5,195.833 89.5,199.5C 88.7784,199.082 88.2784,198.416 88,197.5C 86.2962,199.373 84.4628,201.04 82.5,202.5C 82.5,197.833 82.5,193.167 82.5,188.5C 84.8333,188.5 87.1667,188.5 89.5,188.5 Z"/></g>
<g><path style="opacity:1" fill="#0f56fe" d="M 104.5,197.5 C 102.211,199.448 99.878,201.448 97.5,203.5C 97.5,198.5 97.5,193.5 97.5,188.5C 103.826,188.174 106.159,191.174 104.5,197.5 Z"/></g>
<g><path style="opacity:1" fill="#26dbfd" d="M 59.5,190.5 C 63.7579,194.028 64.5913,198.361 62,203.5C 56.9978,208.36 51.8311,208.694 46.5,204.5C 48.0174,204.489 49.1841,203.823 50,202.5C 53.4044,198.606 56.5711,194.606 59.5,190.5 Z"/></g>
<g><path style="opacity:1" fill="#0d71fe" d="M 89.5,199.5 C 89.5,201.833 89.5,204.167 89.5,206.5C 88.7784,206.082 88.2784,205.416 88,204.5C 86.2962,206.373 84.4628,208.04 82.5,209.5C 82.5,207.167 82.5,204.833 82.5,202.5C 84.4628,201.04 86.2962,199.373 88,197.5C 88.2784,198.416 88.7784,199.082 89.5,199.5 Z"/></g>
<g><path style="opacity:1" fill="#980afe" d="M 161.5,188.5 C 170.987,187.819 175.154,192.153 174,201.5C 171.367,206.732 167.201,208.565 161.5,207C 156.268,204.367 154.435,200.201 156,194.5C 157.36,191.977 159.193,189.977 161.5,188.5 Z"/></g>
<g><path style="opacity:1" fill="#09fdd9" d="M 36.5,194.5 C 36.5,197.167 36.5,199.833 36.5,202.5C 36.6495,203.552 36.4828,204.552 36,205.5C 27.53,212.969 19.3634,220.802 11.5,229C 9.66979,229.182 8.00313,228.682 6.5,227.5C 6.5,227.167 6.5,226.833 6.5,226.5C 6.5,226.167 6.5,225.833 6.5,225.5C 16.4126,217.091 25.9126,208.091 35,198.5C 35.21,196.942 35.71,195.609 36.5,194.5 Z"/></g>
<g><path style="opacity:1" fill="#a6b8ed" d="M 89.5,188.5 C 87.1667,188.5 84.8333,188.5 82.5,188.5C 82.5,193.167 82.5,197.833 82.5,202.5C 82.5,204.833 82.5,207.167 82.5,209.5C 82.7845,211.415 82.4511,213.081 81.5,214.5C 81.5,205.5 81.5,196.5 81.5,187.5C 84.3854,187.194 87.0521,187.527 89.5,188.5 Z"/></g>
<g><path style="opacity:1" fill="#fc1bd8" d="M 193.5,188.5 C 193.334,194.509 193.501,200.509 194,206.5C 197.702,202.63 201.536,198.963 205.5,195.5C 205.5,198.5 205.5,201.5 205.5,204.5C 196.035,213.464 186.702,222.631 177.5,232C 169.043,238.053 161.71,245.22 155.5,253.5C 153.833,253.5 152.167,253.5 150.5,253.5C 163.283,239.379 176.949,226.379 191.5,214.5C 192.167,205.833 192.833,197.167 193.5,188.5 Z"/></g>
<g><path style="opacity:1" fill="#1af5e7" d="M 36.5,202.5 C 37.5375,203.93 38.2041,205.597 38.5,207.5C 29.9999,216.499 20.9999,224.999 11.5,233C 12.2524,233.671 12.5858,234.504 12.5,235.5C 10.1468,233.14 8.14675,230.473 6.5,227.5C 8.00313,228.682 9.66979,229.182 11.5,229C 19.3634,220.802 27.53,212.969 36,205.5C 36.4828,204.552 36.6495,203.552 36.5,202.5 Z"/></g>
<g><path style="opacity:1" fill="#fe0071" d="M 254.5,172.5 C 254.833,172.5 255.167,172.5 255.5,172.5C 255.5,178.167 255.5,183.833 255.5,189.5C 255.167,189.5 254.833,189.5 254.5,189.5C 254.649,188.448 254.483,187.448 254,186.5C 232.192,209.809 209.692,232.142 186.5,253.5C 184.167,253.5 181.833,253.5 179.5,253.5C 204.492,229.008 229.326,204.341 254,179.5C 254.49,178.207 254.657,176.873 254.5,175.5C 254.5,174.5 254.5,173.5 254.5,172.5 Z"/></g>
<g><path style="opacity:1" fill="#420afe" d="M 135.5,211.5 C 122.953,225.931 109.953,239.931 96.5,253.5C 92.8333,253.5 89.1667,253.5 85.5,253.5C 96.8769,240.619 108.877,228.119 121.5,216C 119.618,215.802 117.952,215.302 116.5,214.5C 116.833,214.5 117.167,214.5 117.5,214.5C 119.833,214.5 122.167,214.5 124.5,214.5C 124.5,205.833 124.5,197.167 124.5,188.5C 128.182,188.335 131.848,188.501 135.5,189C 138.167,191.667 138.167,194.333 135.5,197C 132.447,197.179 129.447,197.679 126.5,198.5C 129.757,202.688 132.757,207.021 135.5,211.5 Z"/></g>
<g><path style="opacity:0.506" fill="#38563f" d="M -0.5,206.5 C -0.166667,206.5 0.166667,206.5 0.5,206.5C 0.32842,207.492 0.661754,208.158 1.5,208.5C 1.5,209.833 1.5,211.167 1.5,212.5C 1.5,213.167 1.5,213.833 1.5,214.5C 0.833333,213.167 0.166667,211.833 -0.5,210.5C -0.5,209.167 -0.5,207.833 -0.5,206.5 Z"/></g>
<g><path style="opacity:1" fill="#fa00b1" d="M 205.5,209.5 C 205.5,210.833 205.5,212.167 205.5,213.5C 192.418,226.913 179.418,240.247 166.5,253.5C 165.508,253.328 164.842,253.662 164.5,254.5C 158.5,254.5 152.5,254.5 146.5,254.5C 147.568,253.566 148.901,253.232 150.5,253.5C 152.167,253.5 153.833,253.5 155.5,253.5C 157.857,253.663 160.19,253.497 162.5,253C 176.312,238.021 190.646,223.521 205.5,209.5 Z"/></g>
<g><path style="opacity:0.506" fill="#593634" d="M 254.5,206.5 C 254.833,206.5 255.167,206.5 255.5,206.5C 255.5,207.833 255.5,209.167 255.5,210.5C 254.833,211.833 254.167,213.167 253.5,214.5C 253.5,212.833 253.5,211.167 253.5,209.5C 254.11,208.609 254.443,207.609 254.5,206.5 Z"/></g>
<g><path style="opacity:1" fill="#9f02fc" d="M 152.5,210.5 C 154.537,211.846 156.537,213.18 158.5,214.5C 157.448,214.351 156.448,214.517 155.5,215C 143.53,227.971 131.196,240.638 118.5,253C 122.152,253.499 125.818,253.665 129.5,253.5C 130.5,253.5 131.5,253.5 132.5,253.5C 132.5,253.833 132.5,254.167 132.5,254.5C 123.5,254.5 114.5,254.5 105.5,254.5C 105.5,254.167 105.5,253.833 105.5,253.5C 106.873,253.657 108.207,253.49 109.5,253C 123.83,238.502 138.163,224.335 152.5,210.5 Z"/></g>
<g><path style="opacity:1" fill="#0041ff" d="M 88.5,214.5 C 75.8568,227.145 63.5235,240.145 51.5,253.5C 50.5,253.5 49.5,253.5 48.5,253.5C 48.3893,252.883 48.056,252.383 47.5,252C 60.3948,238.436 73.8948,225.603 88,213.5C 88.3988,213.728 88.5654,214.062 88.5,214.5 Z"/></g>
<g><path style="opacity:1" fill="#0cd9fd" d="M 40.5,209.5 C 42.5248,211.196 44.5248,212.863 46.5,214.5C 38.1131,223.889 29.1131,232.555 19.5,240.5C 18.078,239.075 16.4113,238.075 14.5,237.5C 13.5,237.167 12.8333,236.5 12.5,235.5C 13.8474,236.028 15.1807,236.195 16.5,236C 24.3333,228.167 32.1667,220.333 40,212.5C 40.4828,211.552 40.6495,210.552 40.5,209.5 Z"/></g>
<g><path style="opacity:1" fill="#e804fe" d="M 185.5,191.5 C 185.5,198.5 185.5,205.5 185.5,212.5C 171.086,225.411 157.086,238.911 143.5,253C 139.848,253.499 136.182,253.665 132.5,253.5C 131.5,253.5 130.5,253.5 129.5,253.5C 141.861,240.807 154.194,228.14 166.5,215.5C 178.789,212.589 183.789,204.923 181.5,192.5C 183.195,193.826 184.528,193.493 185.5,191.5 Z"/></g>
<g><path style="opacity:1" fill="#05c2fe" d="M 46.5,214.5 C 48.5,214.833 50.5,215.167 52.5,215.5C 43.2022,225.298 33.7022,234.965 24,244.5C 23.3292,243.748 22.4959,243.414 21.5,243.5C 20.8333,242.5 20.1667,241.5 19.5,240.5C 29.1131,232.555 38.1131,223.889 46.5,214.5 Z"/></g>
<g><path style="opacity:1" fill="#10aaf9" d="M 52.5,215.5 C 53.8333,215.5 55.1667,215.5 56.5,215.5C 46.4519,226.215 36.1186,236.548 25.5,246.5C 23.5956,246.262 22.2623,245.262 21.5,243.5C 22.4959,243.414 23.3292,243.748 24,244.5C 33.7022,234.965 43.2022,225.298 52.5,215.5 Z"/></g>
<g><path style="opacity:1" fill="#0368fe" d="M 73.5,214.5 C 73.8333,214.5 74.1667,214.5 74.5,214.5C 75.8333,214.5 77.1667,214.5 78.5,214.5C 66.008,226.492 53.6747,238.659 41.5,251C 42.056,251.383 42.3893,251.883 42.5,252.5C 41.1667,252.167 39.8333,251.833 38.5,251.5C 38.369,250.761 38.5357,250.094 39,249.5C 50.702,237.965 62.202,226.298 73.5,214.5 Z"/></g>
<g><path style="opacity:1" fill="#ff005a" d="M 254.5,189.5 C 234.359,211.807 213.026,232.974 190.5,253C 189.207,253.49 187.873,253.657 186.5,253.5C 209.692,232.142 232.192,209.809 254,186.5C 254.483,187.448 254.649,188.448 254.5,189.5 Z"/></g>
<g><path style="opacity:1" fill="#be00fe" d="M 158.5,214.5 C 161.096,215.265 163.763,215.599 166.5,215.5C 154.194,228.14 141.861,240.807 129.5,253.5C 125.818,253.665 122.152,253.499 118.5,253C 131.196,240.638 143.53,227.971 155.5,215C 156.448,214.517 157.448,214.351 158.5,214.5 Z"/></g>
<g><path style="opacity:1" fill="#fd080b" d="M 253.5,209.5 C 253.5,211.167 253.5,212.833 253.5,214.5C 251.98,216.89 250.98,219.557 250.5,222.5C 247.595,224.756 245.928,227.756 245.5,231.5C 242.81,233.193 240.81,235.527 239.5,238.5C 234.158,242.17 228.825,245.836 223.5,249.5C 220.364,249.603 217.698,250.603 215.5,252.5C 213.5,252.5 211.5,252.5 209.5,252.5C 223.531,237.469 238.197,223.136 253.5,209.5 Z"/></g>
<g><path style="opacity:0.008" fill="#3d2828" d="M 253.5,214.5 C 253.585,217.649 252.585,220.316 250.5,222.5C 250.98,219.557 251.98,216.89 253.5,214.5 Z"/></g>
<g><path style="opacity:1" fill="#07f6fd" d="M 38.5,207.5 C 39.5,207.833 40.1667,208.5 40.5,209.5C 40.6495,210.552 40.4828,211.552 40,212.5C 32.1667,220.333 24.3333,228.167 16.5,236C 15.1807,236.195 13.8474,236.028 12.5,235.5C 12.5858,234.504 12.2524,233.671 11.5,233C 20.9999,224.999 29.9999,216.499 38.5,207.5 Z"/></g>
<g><path style="opacity:0.529" fill="#305140" d="M 2.5,218.5 C 3.16667,218.833 3.83333,219.167 4.5,219.5C 4.5,220.5 4.5,221.5 4.5,222.5C 3.32627,221.486 2.6596,220.153 2.5,218.5 Z"/></g>
<g><path style="opacity:1" fill="#1705fe" d="M 116.5,214.5 C 117.952,215.302 119.618,215.802 121.5,216C 108.877,228.119 96.8769,240.619 85.5,253.5C 77.16,253.666 68.8267,253.5 60.5,253C 74.8935,239.609 89.0602,225.776 103,211.5C 103.232,212.737 103.732,213.737 104.5,214.5C 106.833,214.5 109.167,214.5 111.5,214.5C 112.329,206.343 112.829,198.01 113,189.5C 113.689,188.643 114.522,187.977 115.5,187.5C 116.498,196.475 116.832,205.475 116.5,214.5 Z"/></g>
<g><path style="opacity:1" fill="#fd01e9" d="M 185.5,212.5 C 186.918,214.308 188.918,214.975 191.5,214.5C 176.949,226.379 163.283,239.379 150.5,253.5C 148.901,253.232 147.568,253.566 146.5,254.5C 141.833,254.5 137.167,254.5 132.5,254.5C 132.5,254.167 132.5,253.833 132.5,253.5C 136.182,253.665 139.848,253.499 143.5,253C 157.086,238.911 171.086,225.411 185.5,212.5 Z"/></g>
<g><path style="opacity:0.157" fill="#343936" d="M 4.5,222.5 C 5.40128,223.29 6.06795,224.29 6.5,225.5C 6.5,225.833 6.5,226.167 6.5,226.5C 4.89578,225.713 4.22911,224.38 4.5,222.5 Z"/></g>
<g><path style="opacity:1" fill="#0356fe" d="M 89.5,206.5 C 89.5,209.167 89.5,211.833 89.5,214.5C 89.1667,214.5 88.8333,214.5 88.5,214.5C 88.5654,214.062 88.3988,213.728 88,213.5C 73.8948,225.603 60.3948,238.436 47.5,252C 48.056,252.383 48.3893,252.883 48.5,253.5C 46.5,253.167 44.5,252.833 42.5,252.5C 42.3893,251.883 42.056,251.383 41.5,251C 53.6747,238.659 66.008,226.492 78.5,214.5C 79.5,214.5 80.5,214.5 81.5,214.5C 82.4511,213.081 82.7845,211.415 82.5,209.5C 84.4628,208.04 86.2962,206.373 88,204.5C 88.2784,205.416 88.7784,206.082 89.5,206.5 Z"/></g>
<g><path style="opacity:1" fill="#1a95fc" d="M 74.5,194.5 C 74.5,201.167 74.5,207.833 74.5,214.5C 74.1667,214.5 73.8333,214.5 73.5,214.5C 73.6567,213.127 73.49,211.793 73,210.5C 59.7855,223.884 46.6188,236.884 33.5,249.5C 32.8333,249.5 32.1667,249.5 31.5,249.5C 29.0301,249.346 27.0301,248.346 25.5,246.5C 36.1186,236.548 46.4519,226.215 56.5,215.5C 64.5744,213.687 69.241,208.687 70.5,200.5C 71.4106,198.249 72.744,196.249 74.5,194.5 Z"/></g>
<g><path style="opacity:1" fill="#0278fe" d="M 73.5,214.5 C 62.202,226.298 50.702,237.965 39,249.5C 38.5357,250.094 38.369,250.761 38.5,251.5C 36.9505,250.559 35.2838,249.893 33.5,249.5C 46.6188,236.884 59.7855,223.884 73,210.5C 73.49,211.793 73.6567,213.127 73.5,214.5 Z"/></g>
<g><path style="opacity:0.647" fill="#723533" d="M 250.5,222.5 C 249.61,225.948 247.943,228.948 245.5,231.5C 245.928,227.756 247.595,224.756 250.5,222.5 Z"/></g>
<g><path style="opacity:1" fill="#fe0127" d="M 254.5,199.5 C 254.5,201.833 254.5,204.167 254.5,206.5C 254.443,207.609 254.11,208.609 253.5,209.5C 238.197,223.136 223.531,237.469 209.5,252.5C 209.158,253.338 208.492,253.672 207.5,253.5C 204.833,253.5 202.167,253.5 199.5,253.5C 217.244,234.754 235.578,216.754 254.5,199.5 Z"/></g>
<g><path style="opacity:1" fill="#7402fe" d="M 148.5,205.5 C 150.063,206.945 151.396,208.611 152.5,210.5C 138.163,224.335 123.83,238.502 109.5,253C 108.207,253.49 106.873,253.657 105.5,253.5C 102.5,253.5 99.5,253.5 96.5,253.5C 109.953,239.931 122.953,225.931 135.5,211.5C 136.827,213.964 138.993,214.964 142,214.5C 146.531,214.752 147.365,213.419 144.5,210.5C 146.587,209.415 147.92,207.749 148.5,205.5 Z"/></g>
<g><path style="opacity:1" fill="#ff00c7" d="M 205.5,204.5 C 205.5,206.167 205.5,207.833 205.5,209.5C 190.646,223.521 176.312,238.021 162.5,253C 160.19,253.497 157.857,253.663 155.5,253.5C 161.71,245.22 169.043,238.053 177.5,232C 186.702,222.631 196.035,213.464 205.5,204.5 Z"/></g>
<g><path style="opacity:1" fill="#ff00a3" d="M 205.5,213.5 C 206.919,214.451 208.585,214.784 210.5,214.5C 198.035,227.465 185.369,240.298 172.5,253C 170.527,253.495 168.527,253.662 166.5,253.5C 179.418,240.247 192.418,226.913 205.5,213.5 Z"/></g>
<g><path style="opacity:1" fill="#ff0042" d="M 254.5,199.5 C 235.578,216.754 217.244,234.754 199.5,253.5C 197.473,253.662 195.473,253.495 193.5,253C 213.945,233.556 234.112,213.723 254,193.5C 254.495,195.473 254.662,197.473 254.5,199.5 Z"/></g>
<g><path style="opacity:0.059" fill="#462d2d" d="M 245.5,231.5 C 244.219,234.447 242.219,236.781 239.5,238.5C 240.81,235.527 242.81,233.193 245.5,231.5 Z"/></g>
<g><path style="opacity:1" fill="#0526fd" d="M 104.5,197.5 C 104.5,203.167 104.5,208.833 104.5,214.5C 103.732,213.737 103.232,212.737 103,211.5C 89.0602,225.776 74.8935,239.609 60.5,253C 68.8267,253.5 77.16,253.666 85.5,253.5C 89.1667,253.5 92.8333,253.5 96.5,253.5C 99.5,253.5 102.5,253.5 105.5,253.5C 105.5,253.833 105.5,254.167 105.5,254.5C 87.8333,254.5 70.1667,254.5 52.5,254.5C 52.5,253.833 52.1667,253.5 51.5,253.5C 63.5235,240.145 75.8568,227.145 88.5,214.5C 88.8333,214.5 89.1667,214.5 89.5,214.5C 92.1667,214.5 94.8333,214.5 97.5,214.5C 97.5,210.833 97.5,207.167 97.5,203.5C 99.878,201.448 102.211,199.448 104.5,197.5 Z"/></g>
<g><path style="opacity:0.914" fill="#34555e" d="M 14.5,237.5 C 16.4113,238.075 18.078,239.075 19.5,240.5C 20.1667,241.5 20.8333,242.5 21.5,243.5C 18.5726,242.243 16.2393,240.243 14.5,237.5 Z"/></g>
<g><path style="opacity:0.29" fill="#56302e" d="M 239.5,238.5 C 235.243,243.762 229.909,247.428 223.5,249.5C 228.825,245.836 234.158,242.17 239.5,238.5 Z"/></g>
<g><path style="opacity:0.996" fill="#484e78" d="M 31.5,249.5 C 32.1667,249.5 32.8333,249.5 33.5,249.5C 35.2838,249.893 36.9505,250.559 38.5,251.5C 39.8333,251.833 41.1667,252.167 42.5,252.5C 44.5,252.833 46.5,253.167 48.5,253.5C 49.5,253.5 50.5,253.5 51.5,253.5C 52.1667,253.5 52.5,253.833 52.5,254.5C 49.5,254.5 46.5,254.5 43.5,254.5C 39.2622,253.439 35.2622,251.772 31.5,249.5 Z"/></g>
<g><path style="opacity:0.416" fill="#583533" d="M 223.5,249.5 C 221.316,251.585 218.649,252.585 215.5,252.5C 217.698,250.603 220.364,249.603 223.5,249.5 Z"/></g>
<g><path style="opacity:0.096" fill="#372826" d="M 209.5,252.5 C 211.5,252.5 213.5,252.5 215.5,252.5C 214.167,253.167 212.833,253.833 211.5,254.5C 210.167,254.5 208.833,254.5 207.5,254.5C 207.5,254.167 207.5,253.833 207.5,253.5C 208.492,253.672 209.158,253.338 209.5,252.5 Z"/></g>
</svg>
