<?xml version="1.0" encoding="UTF-8"?>
<!DOCTYPE svg PUBLIC "-//W3C//DTD SVG 1.1//EN" "http://www.w3.org/Graphics/SVG/1.1/DTD/svg11.dtd">
<svg xmlns="http://www.w3.org/2000/svg" version="1.1" width="256px" height="256px" style="shape-rendering:geometricPrecision; text-rendering:geometricPrecision; image-rendering:optimizeQuality; fill-rule:evenodd; clip-rule:evenodd" xmlns:xlink="http://www.w3.org/1999/xlink">
<g><path style="opacity:0.993" fill="#e0fd00" d="M 94.5,29.5 C 89.5222,34.0446 84.5222,38.7113 79.5,43.5C 79.1744,39.1161 79.5078,34.7828 80.5,30.5C 82.3707,29.233 84.2041,29.233 86,30.5C 86.4996,23.8417 86.6663,17.175 86.5,10.5C 89.1667,10.5 91.8333,10.5 94.5,10.5C 94.5,16.8333 94.5,23.1667 94.5,29.5 Z"/></g>
<g><path style="opacity:0.714" fill="#5ee969" d="M 160.5,11.5 C 161.79,17.7782 161.79,24.1115 160.5,30.5C 159.893,30.3764 159.56,30.0431 159.5,29.5C 159.177,23.31 159.51,17.31 160.5,11.5 Z"/></g>
<g><path style="opacity:1" fill="#01fe7e" d="M 175.5,34.5 C 173.217,34.6079 171.217,35.4412 169.5,37C 167.626,40.0451 165.96,43.2117 164.5,46.5C 162.429,48.1851 160.429,49.8518 158.5,51.5C 156.833,51.5 155.167,51.5 153.5,51.5C 153.5,49.8333 153.5,48.1667 153.5,46.5C 159.259,41.7457 164.259,36.4124 168.5,30.5C 173.09,28.2571 175.424,29.5904 175.5,34.5 Z"/></g>
<g><path style="opacity:1" fill="#adfe02" d="M 94.5,29.5 C 96.5914,29.3184 98.5914,29.6518 100.5,30.5C 101.386,31.325 101.719,32.325 101.5,33.5C 99.5742,34.2423 97.7409,35.2423 96,36.5C 92.2549,41.3978 88.7549,46.3978 85.5,51.5C 83.5,51.5 81.5,51.5 79.5,51.5C 79.5,48.8333 79.5,46.1667 79.5,43.5C 84.5222,38.7113 89.5222,34.0446 94.5,29.5 Z"/></g>
<g><path style="opacity:0.761" fill="#03fe4d" d="M 168.5,30.5 C 164.259,36.4124 159.259,41.7457 153.5,46.5C 153.172,41.1254 153.505,35.7921 154.5,30.5C 156.071,29.6906 157.738,29.3573 159.5,29.5C 159.56,30.0431 159.893,30.3764 160.5,30.5C 161.79,24.1115 161.79,17.7782 160.5,11.5C 162.948,10.5269 165.615,10.1936 168.5,10.5C 168.5,17.1667 168.5,23.8333 168.5,30.5 Z"/></g>
<g><path style="opacity:0.697" fill="#51ff00" d="M 131.5,26.5 C 127.802,28.6598 125.135,31.6598 123.5,35.5C 121.284,37.4312 118.951,39.0979 116.5,40.5C 116.18,37.1016 116.513,33.7683 117.5,30.5C 119.371,29.233 121.204,29.233 123,30.5C 123.5,23.8417 123.666,17.175 123.5,10.5C 126.167,10.5 128.833,10.5 131.5,10.5C 131.5,15.8333 131.5,21.1667 131.5,26.5 Z"/></g>
<g><path style="opacity:1" fill="#16ff08" d="M 131.5,26.5 C 131.343,27.8734 131.51,29.2068 132,30.5C 133.796,29.233 135.629,29.233 137.5,30.5C 138.497,37.4684 138.83,44.4684 138.5,51.5C 131.167,51.5 123.833,51.5 116.5,51.5C 116.5,47.8333 116.5,44.1667 116.5,40.5C 118.951,39.0979 121.284,37.4312 123.5,35.5C 125.135,31.6598 127.802,28.6598 131.5,26.5 Z"/></g>
<g><path style="opacity:0.862" fill="#84ff00" d="M 101.5,33.5 C 101.5,39.5 101.5,45.5 101.5,51.5C 96.1667,51.5 90.8333,51.5 85.5,51.5C 88.7549,46.3978 92.2549,41.3978 96,36.5C 97.7409,35.2423 99.5742,34.2423 101.5,33.5 Z"/></g>
<g><path style="opacity:0.862" fill="#06fead" d="M 175.5,34.5 C 175.5,40.1667 175.5,45.8333 175.5,51.5C 169.833,51.5 164.167,51.5 158.5,51.5C 160.429,49.8518 162.429,48.1851 164.5,46.5C 165.96,43.2117 167.626,40.0451 169.5,37C 171.217,35.4412 173.217,34.6079 175.5,34.5 Z"/></g>
<g><path style="opacity:1" fill="#02fe4f" d="M 165.5,54.5 C 168.5,54.5 171.5,54.5 174.5,54.5C 170.74,58.9912 166.74,63.3245 162.5,67.5C 158.833,67.5 155.167,67.5 151.5,67.5C 156.547,63.6314 161.214,59.2981 165.5,54.5 Z"/></g>
<g><path style="opacity:1" fill="#acff00" d="M 117.5,54.5 C 122.833,54.5 128.167,54.5 133.5,54.5C 133.291,55.9217 132.791,57.255 132,58.5C 128.264,60.7337 125.43,63.7337 123.5,67.5C 117.167,67.5 110.833,67.5 104.5,67.5C 109.113,63.5542 113.446,59.2209 117.5,54.5 Z"/></g>
<g><path style="opacity:1" fill="#f3f800" d="M 105.5,54.5 C 109.5,54.5 113.5,54.5 117.5,54.5C 113.446,59.2209 109.113,63.5542 104.5,67.5C 100.5,67.5 96.5,67.5 92.5,67.5C 94.6467,65.5305 96.98,63.6971 99.5,62C 101.418,59.2688 103.418,56.7688 105.5,54.5 Z"/></g>
<g><path style="opacity:1" fill="#ff5500" d="M 76.5,54.5 C 80.1667,54.5 83.8333,54.5 87.5,54.5C 85.4342,58.8986 82.1009,61.8986 77.5,63.5C 75.6413,68.1914 72.308,71.3581 67.5,73C 62.5536,77.7759 57.8869,82.6092 53.5,87.5C 53.5,84.1667 53.5,80.8333 53.5,77.5C 62.1229,70.8771 69.7896,63.2104 76.5,54.5 Z"/></g>
<g><path style="opacity:1" fill="#52f99b" d="M 181.5,54.5 C 183.698,54.8751 185.698,55.5418 187.5,56.5C 183.037,60.7539 179.037,65.4206 175.5,70.5C 173.883,69.962 172.216,69.6287 170.5,69.5C 144.574,68.5096 118.574,68.1763 92.5,68.5C 92.5,68.1667 92.5,67.8333 92.5,67.5C 96.5,67.5 100.5,67.5 104.5,67.5C 110.833,67.5 117.167,67.5 123.5,67.5C 132.833,67.5 142.167,67.5 151.5,67.5C 155.167,67.5 158.833,67.5 162.5,67.5C 167.116,68.5573 170.449,67.0573 172.5,63C 175.029,60.9715 177.696,59.1381 180.5,57.5C 181.127,56.5832 181.461,55.5832 181.5,54.5 Z"/></g>
<g><path style="opacity:1" fill="#fe2702" d="M 76.5,54.5 C 69.7896,63.2104 62.1229,70.8771 53.5,77.5C 54.69,63.3975 62.3566,55.7308 76.5,54.5 Z"/></g>
<g><path style="opacity:1" fill="#35ff07" d="M 133.5,54.5 C 144.167,54.5 154.833,54.5 165.5,54.5C 161.214,59.2981 156.547,63.6314 151.5,67.5C 142.167,67.5 132.833,67.5 123.5,67.5C 125.43,63.7337 128.264,60.7337 132,58.5C 132.791,57.255 133.291,55.9217 133.5,54.5 Z"/></g>
<g><path style="opacity:1" fill="#ffca0b" d="M 97.5,54.5 C 100.167,54.5 102.833,54.5 105.5,54.5C 103.418,56.7688 101.418,59.2688 99.5,62C 96.98,63.6971 94.6467,65.5305 92.5,67.5C 92.5,67.8333 92.5,68.1667 92.5,68.5C 91.1667,68.5 89.8333,68.5 88.5,68.5C 87.8333,68.5 87.1667,68.5 86.5,68.5C 90.5237,64.0015 94.1904,59.3349 97.5,54.5 Z"/></g>
<g><path style="opacity:1" fill="#01fe7f" d="M 174.5,54.5 C 176.833,54.5 179.167,54.5 181.5,54.5C 181.461,55.5832 181.127,56.5832 180.5,57.5C 177.696,59.1381 175.029,60.9715 172.5,63C 170.449,67.0573 167.116,68.5573 162.5,67.5C 166.74,63.3245 170.74,58.9912 174.5,54.5 Z"/></g>
<g><path style="opacity:1" fill="#ff9a02" d="M 88.5,54.5 C 91.5,54.5 94.5,54.5 97.5,54.5C 94.1904,59.3349 90.5237,64.0015 86.5,68.5C 81.7566,69.7064 77.4232,71.7064 73.5,74.5C 75.7689,71.0616 78.6022,68.0616 82,65.5C 84.4206,61.9291 86.5873,58.2625 88.5,54.5 Z"/></g>
<g><path style="opacity:0.803" fill="#fefefe" d="M 88.5,68.5 C 89.8333,68.5 91.1667,68.5 92.5,68.5C 118.574,68.1763 144.574,68.5096 170.5,69.5C 170.5,70.8333 169.833,71.5 168.5,71.5C 167.833,71.5 167.167,71.5 166.5,71.5C 165.5,71.5 164.5,71.5 163.5,71.5C 162.833,71.5 162.167,71.5 161.5,71.5C 160.5,71.5 159.5,71.5 158.5,71.5C 157.167,71.5 155.833,71.5 154.5,71.5C 152.167,71.5 149.833,71.5 147.5,71.5C 146.833,71.5 146.167,71.5 145.5,71.5C 141.5,71.5 137.5,71.5 133.5,71.5C 132.5,71.5 131.5,71.5 130.5,71.5C 129.5,71.5 128.5,71.5 127.5,71.5C 126.5,71.5 125.5,71.5 124.5,71.5C 122.167,71.5 119.833,71.5 117.5,71.5C 115.5,71.5 113.5,71.5 111.5,71.5C 109.5,71.5 107.5,71.5 105.5,71.5C 104.5,71.5 103.5,71.5 102.5,71.5C 100.833,71.5 99.1667,71.5 97.5,71.5C 94.8333,71.5 92.1667,71.5 89.5,71.5C 88.1667,71.5 86.8333,71.5 85.5,71.5C 85.0618,71.5654 84.7284,71.3988 84.5,71C 85.8584,70.0656 87.1917,69.2323 88.5,68.5 Z"/></g>
<g><path style="opacity:1" fill="#0dfee7" d="M 187.5,56.5 C 188.552,56.3505 189.552,56.5172 190.5,57C 192.037,58.7073 193.704,60.2073 195.5,61.5C 190.876,66.1581 186.209,70.8248 181.5,75.5C 179.46,73.823 177.46,72.1563 175.5,70.5C 179.037,65.4206 183.037,60.7539 187.5,56.5 Z"/></g>
<g><path style="opacity:0.918" fill="#03ff04" d="M 133.5,71.5 C 137.5,71.5 141.5,71.5 145.5,71.5C 137.858,76.2968 131.191,82.4635 125.5,90C 121.691,93.405 117.691,96.5717 113.5,99.5C 112.761,99.369 112.094,99.5357 111.5,100C 98.3447,113.298 85.178,126.464 72,139.5C 71.5034,141.81 71.3367,144.143 71.5,146.5C 71.7678,148.099 71.4345,149.432 70.5,150.5C 70.5,141.5 70.5,132.5 70.5,123.5C 71.404,124.209 71.7373,125.209 71.5,126.5C 71.5,127.833 71.5,129.167 71.5,130.5C 71.5,131.5 71.5,132.5 71.5,133.5C 71.3691,134.376 71.7025,135.043 72.5,135.5C 91.4077,116.762 110.574,98.0948 130,79.5C 130.464,78.9056 130.631,78.2389 130.5,77.5C 131.933,76.1667 133.267,74.6667 134.5,73C 133.944,72.6174 133.611,72.1174 133.5,71.5 Z"/></g>
<g><path style="opacity:1" fill="#0de1fe" d="M 195.5,61.5 C 197.104,62.287 197.771,63.6203 197.5,65.5C 193.167,70.1667 188.833,74.8333 184.5,79.5C 183.512,78.205 182.512,76.8717 181.5,75.5C 186.209,70.8248 190.876,66.1581 195.5,61.5 Z"/></g>
<g><path style="opacity:1" fill="#13bbfe" d="M 197.5,65.5 C 199.585,67.6845 200.585,70.3511 200.5,73.5C 196.351,76.4831 192.351,79.6498 188.5,83C 187.663,84.0113 187.33,85.1779 187.5,86.5C 186.264,84.351 185.264,82.0177 184.5,79.5C 188.833,74.8333 193.167,70.1667 197.5,65.5 Z"/></g>
<g><path style="opacity:0.891" fill="#f7f6f9" d="M 170.5,69.5 C 172.216,69.6287 173.883,69.962 175.5,70.5C 177.46,72.1563 179.46,73.823 181.5,75.5C 182.512,76.8717 183.512,78.205 184.5,79.5C 185.264,82.0177 186.264,84.351 187.5,86.5C 187.5,89.5 187.5,92.5 187.5,95.5C 187.5,97.8333 187.5,100.167 187.5,102.5C 187.5,114.167 187.5,125.833 187.5,137.5C 187.5,143.833 187.5,150.167 187.5,156.5C 187.5,160.167 187.5,163.833 187.5,167.5C 186.046,173.746 183.046,179.079 178.5,183.5C 175.408,185.377 172.075,186.711 168.5,187.5C 168.167,187.5 167.833,187.5 167.5,187.5C 167.611,186.883 167.944,186.383 168.5,186C 167.584,185.722 166.918,185.222 166.5,184.5C 175.884,182.45 181.55,176.783 183.5,167.5C 184.369,165.283 184.702,162.95 184.5,160.5C 184.5,158.833 184.5,157.167 184.5,155.5C 184.5,154.167 184.5,152.833 184.5,151.5C 184.5,149.167 184.5,146.833 184.5,144.5C 184.5,143.167 184.5,141.833 184.5,140.5C 184.5,139.5 184.5,138.5 184.5,137.5C 184.5,136.167 184.5,134.833 184.5,133.5C 184.5,132.833 184.5,132.167 184.5,131.5C 184.5,130.167 184.5,128.833 184.5,127.5C 184.5,119.5 184.5,111.5 184.5,103.5C 184.5,102.167 184.5,100.833 184.5,99.5C 184.5,98.1667 184.5,96.8333 184.5,95.5C 184.795,93.2646 184.461,91.2646 183.5,89.5C 183.5,89.1667 183.5,88.8333 183.5,88.5C 183.634,86.7085 183.301,85.0418 182.5,83.5C 182.068,82.2905 181.401,81.2905 180.5,80.5C 180.167,79.5 179.5,78.8333 178.5,78.5C 177.833,77.1667 176.833,76.1667 175.5,75.5C 175.158,74.6618 174.492,74.3284 173.5,74.5C 172.71,73.5987 171.71,72.9321 170.5,72.5C 169.508,72.6716 168.842,72.3382 168.5,71.5C 169.833,71.5 170.5,70.8333 170.5,69.5 Z"/></g>
<g><path style="opacity:1" fill="#ffd80f" d="M 85.5,71.5 C 86.8333,71.5 88.1667,71.5 89.5,71.5C 88.9524,73.3936 87.9524,75.0603 86.5,76.5C 81.0631,81.1918 75.7298,85.8584 70.5,90.5C 72.149,81.518 77.149,75.1847 85.5,71.5 Z"/></g>
<g><path style="opacity:0.887" fill="#f8f9f6" d="M 86.5,68.5 C 87.1667,68.5 87.8333,68.5 88.5,68.5C 87.1917,69.2323 85.8584,70.0656 84.5,71C 84.7284,71.3988 85.0618,71.5654 85.5,71.5C 77.149,75.1847 72.149,81.518 70.5,90.5C 70.5,92.8333 70.5,95.1667 70.5,97.5C 70.5,98.5 70.5,99.5 70.5,100.5C 70.5,102.5 70.5,104.5 70.5,106.5C 70.5,107.167 70.5,107.833 70.5,108.5C 70.5,110.5 70.5,112.5 70.5,114.5C 70.5,116.167 70.5,117.833 70.5,119.5C 70.5,120.833 70.5,122.167 70.5,123.5C 70.5,132.5 70.5,141.5 70.5,150.5C 70.5,152.833 70.5,155.167 70.5,157.5C 70.5,160.167 70.5,162.833 70.5,165.5C 71.3007,167.042 71.634,168.708 71.5,170.5C 71.8333,171.167 72.1667,171.833 72.5,172.5C 73.0256,174.23 74.0256,175.564 75.5,176.5C 75.8333,177.5 76.5,178.167 77.5,178.5C 77.8333,179.5 78.5,180.167 79.5,180.5C 80.1667,181.167 80.8333,181.833 81.5,182.5C 80.596,183.209 80.2627,184.209 80.5,185.5C 79.3951,184.4 78.0618,183.733 76.5,183.5C 75.8333,182.167 74.8333,181.167 73.5,180.5C 71.8193,177.797 70.1526,175.131 68.5,172.5C 68.6716,171.508 68.3382,170.842 67.5,170.5C 67.5,166.167 67.5,161.833 67.5,157.5C 67.5,145.167 67.5,132.833 67.5,120.5C 67.5,114.5 67.5,108.5 67.5,102.5C 67.5,99.1667 67.5,95.8333 67.5,92.5C 67.5,90.5 67.5,88.5 67.5,86.5C 68.5318,83.4303 69.8652,80.4303 71.5,77.5C 72.9063,77.0269 73.573,76.0269 73.5,74.5C 77.4232,71.7064 81.7566,69.7064 86.5,68.5 Z"/></g>
<g><path style="opacity:1" fill="#00fe40" d="M 147.5,71.5 C 149.833,71.5 152.167,71.5 154.5,71.5C 141.349,84.5656 128.016,97.3989 114.5,110C 108.606,114.09 102.939,118.257 97.5,122.5C 97.1667,122.5 96.8333,122.5 96.5,122.5C 96.5,121.833 96.1667,121.5 95.5,121.5C 96.6808,119.933 98.3474,119.099 100.5,119C 106.941,110.555 114.607,103.555 123.5,98C 126.057,95.1078 128.224,91.9411 130,88.5C 136.711,83.7527 142.544,78.0861 147.5,71.5 Z"/></g>
<g><path style="opacity:1" fill="#00fe24" d="M 145.5,71.5 C 146.167,71.5 146.833,71.5 147.5,71.5C 142.544,78.0861 136.711,83.7527 130,88.5C 128.224,91.9411 126.057,95.1078 123.5,98C 114.607,103.555 106.941,110.555 100.5,119C 98.3474,119.099 96.6808,119.933 95.5,121.5C 94.475,121.103 94.3083,120.437 95,119.5C 101.388,112.923 107.554,106.256 113.5,99.5C 117.691,96.5717 121.691,93.405 125.5,90C 131.191,82.4635 137.858,76.2968 145.5,71.5 Z"/></g>
<g><path style="opacity:1" fill="#07fec0" d="M 170.5,72.5 C 171.71,72.9321 172.71,73.5987 173.5,74.5C 160.012,86.4876 147.012,98.9876 134.5,112C 131.691,113.323 129.025,114.823 126.5,116.5C 124.597,116.204 122.93,115.537 121.5,114.5C 122.167,114.5 122.833,114.5 123.5,114.5C 125.167,113.833 126.833,113.167 128.5,112.5C 140.048,101.269 151.714,90.1027 163.5,79C 164.5,78.6667 165.5,78.3333 166.5,78C 167.721,75.9663 169.055,74.133 170.5,72.5 Z"/></g>
<g><path style="opacity:1" fill="#f8fa00" d="M 89.5,71.5 C 92.1667,71.5 94.8333,71.5 97.5,71.5C 89.1071,80.8947 80.1071,89.5614 70.5,97.5C 70.5,95.1667 70.5,92.8333 70.5,90.5C 75.7298,85.8584 81.0631,81.1918 86.5,76.5C 87.9524,75.0603 88.9524,73.3936 89.5,71.5 Z"/></g>
<g><path style="opacity:1" fill="#ff8300" d="M 87.5,54.5 C 87.8333,54.5 88.1667,54.5 88.5,54.5C 86.5873,58.2625 84.4206,61.9291 82,65.5C 78.6022,68.0616 75.7689,71.0616 73.5,74.5C 73.573,76.0269 72.9063,77.0269 71.5,77.5C 65.1094,81.0519 59.7761,85.8853 55.5,92C 54.9056,92.4643 54.2389,92.631 53.5,92.5C 53.5,90.8333 53.5,89.1667 53.5,87.5C 57.8869,82.6092 62.5536,77.7759 67.5,73C 72.308,71.3581 75.6413,68.1914 77.5,63.5C 82.1009,61.8986 85.4342,58.8986 87.5,54.5 Z"/></g>
<g><path style="opacity:1" fill="#1386fd" d="M 200.5,73.5 C 201.451,74.9187 201.784,76.5853 201.5,78.5C 194.5,82.4765 189.834,88.1432 187.5,95.5C 187.5,92.5 187.5,89.5 187.5,86.5C 187.33,85.1779 187.663,84.0113 188.5,83C 192.351,79.6498 196.351,76.4831 200.5,73.5 Z"/></g>
<g><path style="opacity:1" fill="#ddff00" d="M 97.5,71.5 C 99.1667,71.5 100.833,71.5 102.5,71.5C 101.342,74.8217 99.0084,76.9883 95.5,78C 88.8604,84.6396 82.1937,91.3063 75.5,98C 73.9221,99.0945 72.2554,99.9278 70.5,100.5C 70.5,99.5 70.5,98.5 70.5,97.5C 80.1071,89.5614 89.1071,80.8947 97.5,71.5 Z"/></g>
<g><path style="opacity:1" fill="#adff00" d="M 105.5,71.5 C 107.5,71.5 109.5,71.5 111.5,71.5C 101.728,80.7705 92.0618,90.2705 82.5,100C 81.062,100.219 79.7287,100.719 78.5,101.5C 76.4108,104.595 73.7441,106.929 70.5,108.5C 70.5,107.833 70.5,107.167 70.5,106.5C 75.9789,100.2 82.3122,94.6995 89.5,90C 94.4057,83.2754 99.739,77.1087 105.5,71.5 Z"/></g>
<g><path style="opacity:0.982" fill="#ffd700" d="M 22.5,87.5 C 20.8218,90.4974 18.8218,93.1641 16.5,95.5C 10.0951,96.5938 7.76179,93.9271 9.5,87.5C 13.8333,87.5 18.1667,87.5 22.5,87.5 Z"/></g>
<g><path style="opacity:1" fill="#e0fe01" d="M 48.5,80.5 C 43.2662,87.8507 37.5995,94.8507 31.5,101.5C 29.6921,100.082 29.0254,98.0821 29.5,95.5C 25.1667,95.5 20.8333,95.5 16.5,95.5C 18.8218,93.1641 20.8218,90.4974 22.5,87.5C 24.8333,87.5 27.1667,87.5 29.5,87.5C 29.2436,85.2075 29.5769,83.0408 30.5,81C 36.4908,80.5005 42.4908,80.3338 48.5,80.5 Z"/></g>
<g><path style="opacity:1" fill="#001cff" d="M 218.5,80.5 C 217.758,85.0851 215.258,88.4184 211,90.5C 210.21,94.128 208.043,96.128 204.5,96.5C 204.5,91.1667 204.5,85.8333 204.5,80.5C 209.167,80.5 213.833,80.5 218.5,80.5 Z"/></g>
<g><path style="opacity:1" fill="#a8fe01" d="M 48.5,80.5 C 50.4612,87.0869 51.1279,94.0869 50.5,101.5C 44.1667,101.5 37.8333,101.5 31.5,101.5C 37.5995,94.8507 43.2662,87.8507 48.5,80.5 Z"/></g>
<g><path style="opacity:1" fill="#8fff00" d="M 111.5,71.5 C 113.5,71.5 115.5,71.5 117.5,71.5C 108.636,81.5309 98.9696,90.6976 88.5,99C 83.6225,103.387 78.9559,108.054 74.5,113C 73.255,113.791 71.9217,114.291 70.5,114.5C 70.5,112.5 70.5,110.5 70.5,108.5C 73.7441,106.929 76.4108,104.595 78.5,101.5C 79.7287,100.719 81.062,100.219 82.5,100C 92.0618,90.2705 101.728,80.7705 111.5,71.5 Z"/></g>
<g><path style="opacity:1" fill="#03feaa" d="M 166.5,71.5 C 167.167,71.5 167.833,71.5 168.5,71.5C 168.842,72.3382 169.508,72.6716 170.5,72.5C 169.055,74.133 167.721,75.9663 166.5,78C 165.5,78.3333 164.5,78.6667 163.5,79C 151.714,90.1027 140.048,101.269 128.5,112.5C 137.994,103.249 146.828,93.2489 155,82.5C 158.358,79.6415 161.858,76.9749 165.5,74.5C 166.386,73.675 166.719,72.675 166.5,71.5 Z"/></g>
<g><path style="opacity:1" fill="#4700fe" d="M 225.5,86.5 C 231.979,87.4907 238.646,87.824 245.5,87.5C 245.768,90.1194 245.435,92.6194 244.5,95C 238.175,95.4995 231.842,95.6662 225.5,95.5C 225.5,97.5 225.5,99.5 225.5,101.5C 221.833,101.5 218.167,101.5 214.5,101.5C 214.343,100.127 214.51,98.7932 215,97.5C 218.704,93.9643 222.204,90.2976 225.5,86.5 Z"/></g>
<g><path style="opacity:1" fill="#ffa504" d="M 71.5,77.5 C 69.8652,80.4303 68.5318,83.4303 67.5,86.5C 62.7944,90.1777 58.1277,93.8444 53.5,97.5C 53.5,95.8333 53.5,94.1667 53.5,92.5C 54.2389,92.631 54.9056,92.4643 55.5,92C 59.7761,85.8853 65.1094,81.0519 71.5,77.5 Z"/></g>
<g><path style="opacity:1" fill="#01fe8b" d="M 161.5,71.5 C 162.167,71.5 162.833,71.5 163.5,71.5C 155.615,80.5611 147.449,89.5611 139,98.5C 136.713,101.312 133.879,103.312 130.5,104.5C 128.517,106.984 126.35,109.317 124,111.5C 123.517,112.448 123.351,113.448 123.5,114.5C 122.833,114.5 122.167,114.5 121.5,114.5C 120.5,114.5 119.5,114.5 118.5,114.5C 124.996,108.171 131.663,102.005 138.5,96C 145.328,87.0063 152.995,78.8396 161.5,71.5 Z"/></g>
<g><path style="opacity:1" fill="#1000fe" d="M 218.5,80.5 C 220.833,80.5 223.167,80.5 225.5,80.5C 225.5,82.5 225.5,84.5 225.5,86.5C 222.204,90.2976 218.704,93.9643 215,97.5C 214.51,98.7932 214.343,100.127 214.5,101.5C 211.167,101.5 207.833,101.5 204.5,101.5C 204.5,99.8333 204.5,98.1667 204.5,96.5C 208.043,96.128 210.21,94.128 211,90.5C 215.258,88.4184 217.758,85.0851 218.5,80.5 Z"/></g>
<g><path style="opacity:1" fill="#ffc900" d="M 67.5,86.5 C 67.5,88.5 67.5,90.5 67.5,92.5C 62.839,96.4935 58.1723,100.493 53.5,104.5C 53.5,102.167 53.5,99.8333 53.5,97.5C 58.1277,93.8444 62.7944,90.1777 67.5,86.5 Z"/></g>
<g><path style="opacity:1" fill="#135dfd" d="M 201.5,78.5 C 201.5,81.1667 201.5,83.8333 201.5,86.5C 196.928,89.5633 192.761,93.23 189,97.5C 188.802,99.3817 188.302,101.048 187.5,102.5C 187.5,100.167 187.5,97.8333 187.5,95.5C 189.834,88.1432 194.5,82.4765 201.5,78.5 Z"/></g>
<g><path style="opacity:1" fill="#c4ff00" d="M 102.5,71.5 C 103.5,71.5 104.5,71.5 105.5,71.5C 99.739,77.1087 94.4057,83.2754 89.5,90C 82.3122,94.6995 75.9789,100.2 70.5,106.5C 70.5,104.5 70.5,102.5 70.5,100.5C 72.2554,99.9278 73.9221,99.0945 75.5,98C 82.1937,91.3063 88.8604,84.6396 95.5,78C 99.0084,76.9883 101.342,74.8217 102.5,71.5 Z"/></g>
<g><path style="opacity:1" fill="#4aff00" d="M 124.5,71.5 C 125.5,71.5 126.5,71.5 127.5,71.5C 128.598,72.397 128.598,73.2303 127.5,74C 125.167,75.6667 122.833,77.3333 120.5,79C 104.595,95.4068 88.2618,111.24 71.5,126.5C 71.7373,125.209 71.404,124.209 70.5,123.5C 70.5,122.167 70.5,120.833 70.5,119.5C 75.9334,118.273 79.9334,114.773 82.5,109C 85.79,106.106 89.4566,103.772 93.5,102C 103.758,91.5402 114.092,81.3735 124.5,71.5 Z"/></g>
<g><path style="opacity:1" fill="#36ff00" d="M 127.5,71.5 C 128.5,71.5 129.5,71.5 130.5,71.5C 129.928,73.2554 129.094,74.9221 128,76.5C 108.033,93.3004 89.1993,111.3 71.5,130.5C 71.5,129.167 71.5,127.833 71.5,126.5C 88.2618,111.24 104.595,95.4068 120.5,79C 122.833,77.3333 125.167,75.6667 127.5,74C 128.598,73.2303 128.598,72.397 127.5,71.5 Z"/></g>
<g><path style="opacity:1" fill="#22ff00" d="M 130.5,71.5 C 131.5,71.5 132.5,71.5 133.5,71.5C 133.611,72.1174 133.944,72.6174 134.5,73C 133.267,74.6667 131.933,76.1667 130.5,77.5C 128.068,78.7502 125.734,80.2502 123.5,82C 106.291,99.2086 88.9574,116.375 71.5,133.5C 71.5,132.5 71.5,131.5 71.5,130.5C 89.1993,111.3 108.033,93.3004 128,76.5C 129.094,74.9221 129.928,73.2554 130.5,71.5 Z"/></g>
<g><path style="opacity:1" fill="#2730fc" d="M 201.5,86.5 C 201.5,89.5 201.5,92.5 201.5,95.5C 197.23,98.0979 193.23,101.098 189.5,104.5C 188.502,112.807 188.169,121.14 188.5,129.5C 188.5,132.167 188.5,134.833 188.5,137.5C 188.167,137.5 187.833,137.5 187.5,137.5C 187.5,125.833 187.5,114.167 187.5,102.5C 188.302,101.048 188.802,99.3817 189,97.5C 192.761,93.23 196.928,89.5633 201.5,86.5 Z"/></g>
<g><path style="opacity:1" fill="#11ff00" d="M 130.5,77.5 C 130.631,78.2389 130.464,78.9056 130,79.5C 110.574,98.0948 91.4077,116.762 72.5,135.5C 71.7025,135.043 71.3691,134.376 71.5,133.5C 88.9574,116.375 106.291,99.2086 123.5,82C 125.734,80.2502 128.068,78.7502 130.5,77.5 Z"/></g>
<g><path style="opacity:1" fill="#07a0fe" d="M 183.5,88.5 C 183.5,88.8333 183.5,89.1667 183.5,89.5C 172.802,101.199 161.468,112.199 149.5,122.5C 148.662,122.158 148.328,121.492 148.5,120.5C 157.584,111.917 166.584,103.084 175.5,94C 178.597,92.7266 181.264,90.8933 183.5,88.5 Z"/></g>
<g><path style="opacity:1" fill="#05d4fe" d="M 180.5,80.5 C 181.401,81.2905 182.068,82.2905 182.5,83.5C 170.48,94.5219 158.48,105.522 146.5,116.5C 145.662,116.158 145.328,115.492 145.5,114.5C 157.119,103.215 168.786,91.8821 180.5,80.5 Z"/></g>
<g><path style="opacity:1" fill="#fceb12" d="M 67.5,92.5 C 67.5,95.8333 67.5,99.1667 67.5,102.5C 67.1667,102.5 66.8333,102.5 66.5,102.5C 66.6567,101.127 66.49,99.7932 66,98.5C 62.213,102.799 58.0463,106.466 53.5,109.5C 53.5,107.833 53.5,106.167 53.5,104.5C 58.1723,100.493 62.839,96.4935 67.5,92.5 Z"/></g>
<g><path style="opacity:1" fill="#01fe9d" d="M 163.5,71.5 C 164.5,71.5 165.5,71.5 166.5,71.5C 166.719,72.675 166.386,73.675 165.5,74.5C 161.858,76.9749 158.358,79.6415 155,82.5C 146.828,93.2489 137.994,103.249 128.5,112.5C 126.833,113.167 125.167,113.833 123.5,114.5C 123.351,113.448 123.517,112.448 124,111.5C 126.35,109.317 128.517,106.984 130.5,104.5C 133.879,103.312 136.713,101.312 139,98.5C 147.449,89.5611 155.615,80.5611 163.5,71.5 Z"/></g>
<g><path style="opacity:1" fill="#18fed5" d="M 173.5,74.5 C 174.492,74.3284 175.158,74.6618 175.5,75.5C 172.448,79.0576 169.114,82.5576 165.5,86C 160.54,89.0552 155.873,92.5552 151.5,96.5C 147.906,100.65 144.073,104.65 140,108.5C 138.306,110.24 137.139,112.24 136.5,114.5C 135.167,114.5 133.833,114.5 132.5,114.5C 132.5,117.167 132.5,119.833 132.5,122.5C 130.861,124.806 128.861,126.806 126.5,128.5C 123.021,126.878 119.355,125.711 115.5,125C 114.424,123.274 114.257,121.441 115,119.5C 118.118,118.252 121.118,118.586 124,120.5C 125.481,119.529 126.315,118.196 126.5,116.5C 129.025,114.823 131.691,113.323 134.5,112C 147.012,98.9876 160.012,86.4876 173.5,74.5 Z"/></g>
<g><path style="opacity:1" fill="#02feee" d="M 175.5,75.5 C 176.833,76.1667 177.833,77.1667 178.5,78.5C 171.062,85.4368 163.729,92.6034 156.5,100C 154.913,100.862 153.246,101.529 151.5,102C 146.631,107.037 141.631,111.87 136.5,116.5C 136.5,115.833 136.5,115.167 136.5,114.5C 137.139,112.24 138.306,110.24 140,108.5C 144.073,104.65 147.906,100.65 151.5,96.5C 155.873,92.5552 160.54,89.0552 165.5,86C 169.114,82.5576 172.448,79.0576 175.5,75.5 Z"/></g>
<g><path style="opacity:0.802" fill="#0113ff" d="M 184.5,103.5 C 184.5,111.5 184.5,119.5 184.5,127.5C 183.596,126.791 183.263,125.791 183.5,124.5C 183.663,122.143 183.497,119.81 183,117.5C 176.617,123.055 170.45,128.721 164.5,134.5C 164.5,131.167 164.5,127.833 164.5,124.5C 171.149,119.351 177.315,113.685 183,107.5C 183.21,105.942 183.71,104.609 184.5,103.5 Z"/></g>
<g><path style="opacity:1" fill="#03effe" d="M 178.5,78.5 C 179.5,78.8333 180.167,79.5 180.5,80.5C 168.786,91.8821 157.119,103.215 145.5,114.5C 144.167,114.5 142.833,114.5 141.5,114.5C 141.5,115.833 141.5,117.167 141.5,118.5C 139.833,119.833 138.167,121.167 136.5,122.5C 136.5,120.5 136.5,118.5 136.5,116.5C 141.631,111.87 146.631,107.037 151.5,102C 153.246,101.529 154.913,100.862 156.5,100C 163.729,92.6034 171.062,85.4368 178.5,78.5 Z"/></g>
<g><path style="opacity:1" fill="#0244ff" d="M 184.5,99.5 C 184.5,100.833 184.5,102.167 184.5,103.5C 183.71,104.609 183.21,105.942 183,107.5C 177.315,113.685 171.149,119.351 164.5,124.5C 164.5,122.5 164.5,120.5 164.5,118.5C 170.705,112.558 176.705,106.391 182.5,100C 183.094,99.5357 183.761,99.369 184.5,99.5 Z"/></g>
<g><path style="opacity:1" fill="#e5fe00" d="M 66.5,102.5 C 66.6602,104.199 66.4935,105.866 66,107.5C 62.2896,111.712 58.1229,115.379 53.5,118.5C 53.5,115.5 53.5,112.5 53.5,109.5C 58.0463,106.466 62.213,102.799 66,98.5C 66.49,99.7932 66.6567,101.127 66.5,102.5 Z"/></g>
<g><path style="opacity:1" fill="#0cfe60" d="M 154.5,71.5 C 155.833,71.5 157.167,71.5 158.5,71.5C 150.364,78.1371 143.03,85.6371 136.5,94C 129.462,100.707 122.128,107.04 114.5,113C 113.748,113.671 113.414,114.504 113.5,115.5C 111.178,116.802 109.845,118.802 109.5,121.5C 108.206,122.29 107.039,123.29 106,124.5C 105.329,123.748 104.496,123.414 103.5,123.5C 101.621,122.659 99.6208,122.325 97.5,122.5C 102.939,118.257 108.606,114.09 114.5,110C 128.016,97.3989 141.349,84.5656 154.5,71.5 Z"/></g>
<g><path style="opacity:1" fill="#09b7fe" d="M 182.5,83.5 C 183.301,85.0418 183.634,86.7085 183.5,88.5C 181.264,90.8933 178.597,92.7266 175.5,94C 166.584,103.084 157.584,111.917 148.5,120.5C 147.326,119.486 146.66,118.153 146.5,116.5C 158.48,105.522 170.48,94.5219 182.5,83.5 Z"/></g>
<g><path style="opacity:1" fill="#3501ff" d="M 201.5,95.5 C 201.5,103.167 201.5,110.833 201.5,118.5C 199.956,118.703 198.622,119.37 197.5,120.5C 194.479,123.521 191.479,126.521 188.5,129.5C 188.169,121.14 188.502,112.807 189.5,104.5C 193.23,101.098 197.23,98.0979 201.5,95.5 Z"/></g>
<g><path style="opacity:1" fill="#04fe76" d="M 158.5,71.5 C 159.5,71.5 160.5,71.5 161.5,71.5C 152.995,78.8396 145.328,87.0063 138.5,96C 131.663,102.005 124.996,108.171 118.5,114.5C 116.708,114.366 115.042,114.699 113.5,115.5C 113.414,114.504 113.748,113.671 114.5,113C 122.128,107.04 129.462,100.707 136.5,94C 143.03,85.6371 150.364,78.1371 158.5,71.5 Z"/></g>
<g><path style="opacity:1" fill="#026eff" d="M 184.5,95.5 C 184.5,96.8333 184.5,98.1667 184.5,99.5C 183.761,99.369 183.094,99.5357 182.5,100C 176.705,106.391 170.705,112.558 164.5,118.5C 164.768,116.901 164.434,115.568 163.5,114.5C 169.604,107.057 176.604,100.724 184.5,95.5 Z"/></g>
<g><path style="opacity:1" fill="#6cff00" d="M 117.5,71.5 C 119.833,71.5 122.167,71.5 124.5,71.5C 114.092,81.3735 103.758,91.5402 93.5,102C 89.4566,103.772 85.79,106.106 82.5,109C 79.9334,114.773 75.9334,118.273 70.5,119.5C 70.5,117.833 70.5,116.167 70.5,114.5C 71.9217,114.291 73.255,113.791 74.5,113C 78.9559,108.054 83.6225,103.387 88.5,99C 98.9696,90.6976 108.636,81.5309 117.5,71.5 Z"/></g>
<g><path style="opacity:0.984" fill="#f2f4f8" d="M 145.5,114.5 C 145.328,115.492 145.662,116.158 146.5,116.5C 146.66,118.153 147.326,119.486 148.5,120.5C 148.328,121.492 148.662,122.158 149.5,122.5C 149.94,125.38 150.94,128.046 152.5,130.5C 151.5,131.167 150.5,131.833 149.5,132.5C 148.108,130.727 146.941,128.727 146,126.5C 145.501,131.489 145.334,136.489 145.5,141.5C 144.5,141.5 143.5,141.5 142.5,141.5C 141.566,140.432 141.232,139.099 141.5,137.5C 141.5,134.167 141.5,130.833 141.5,127.5C 141.5,124.5 141.5,121.5 141.5,118.5C 141.5,117.167 141.5,115.833 141.5,114.5C 142.833,114.5 144.167,114.5 145.5,114.5 Z"/></g>
<g><path style="opacity:0.997" fill="#f3f3f7" d="M 163.5,114.5 C 164.434,115.568 164.768,116.901 164.5,118.5C 164.5,120.5 164.5,122.5 164.5,124.5C 164.5,127.833 164.5,131.167 164.5,134.5C 164.5,136.833 164.5,139.167 164.5,141.5C 163.167,141.5 161.833,141.5 160.5,141.5C 160.666,136.489 160.499,131.489 160,126.5C 158.905,127.693 158.072,129.027 157.5,130.5C 157.019,133.834 155.353,136.167 152.5,137.5C 151.833,137.5 151.167,137.5 150.5,137.5C 150.371,135.784 150.038,134.117 149.5,132.5C 150.5,131.833 151.5,131.167 152.5,130.5C 152.81,131.738 153.31,131.738 154,130.5C 155.723,125.387 157.723,120.387 160,115.5C 161.011,114.663 162.178,114.33 163.5,114.5 Z"/></g>
<g><path style="opacity:1" fill="#1e85fe" d="M 183.5,89.5 C 184.461,91.2646 184.795,93.2646 184.5,95.5C 176.604,100.724 169.604,107.057 163.5,114.5C 162.178,114.33 161.011,114.663 160,115.5C 157.723,120.387 155.723,125.387 154,130.5C 153.31,131.738 152.81,131.738 152.5,130.5C 150.94,128.046 149.94,125.38 149.5,122.5C 161.468,112.199 172.802,101.199 183.5,89.5 Z"/></g>
<g><path style="opacity:1" fill="#04fe1e" d="M 113.5,99.5 C 107.554,106.256 101.388,112.923 95,119.5C 94.3083,120.437 94.475,121.103 95.5,121.5C 96.1667,121.5 96.5,121.833 96.5,122.5C 92.6457,123.697 90.6457,126.364 90.5,130.5C 84.1667,135.833 77.8333,141.167 71.5,146.5C 71.3367,144.143 71.5034,141.81 72,139.5C 85.178,126.464 98.3447,113.298 111.5,100C 112.094,99.5357 112.761,99.369 113.5,99.5 Z"/></g>
<g><path style="opacity:1" fill="#85ff00" d="M 38.5,117.5 C 35.3243,122.499 31.6577,127.166 27.5,131.5C 21.5,131.5 15.5,131.5 9.5,131.5C 9.5,129.167 9.5,126.833 9.5,124.5C 16.1667,124.5 22.8333,124.5 29.5,124.5C 29.5,122.167 29.5,119.833 29.5,117.5C 32.5,117.5 35.5,117.5 38.5,117.5 Z"/></g>
<g><path style="opacity:1" fill="#a1fe0a" d="M 66.5,102.5 C 66.8333,102.5 67.1667,102.5 67.5,102.5C 67.5,108.5 67.5,114.5 67.5,120.5C 67.1667,120.5 66.8333,120.5 66.5,120.5C 61.9099,123.947 57.5766,127.614 53.5,131.5C 53.5,127.167 53.5,122.833 53.5,118.5C 58.1229,115.379 62.2896,111.712 66,107.5C 66.4935,105.866 66.6602,104.199 66.5,102.5 Z"/></g>
<g><path style="opacity:1" fill="#42befd" d="M 141.5,118.5 C 141.5,121.5 141.5,124.5 141.5,127.5C 139.946,128.914 138.612,130.581 137.5,132.5C 136.833,135.642 136.166,138.642 135.5,141.5C 135.767,135.162 136.1,128.829 136.5,122.5C 138.167,121.167 139.833,119.833 141.5,118.5 Z"/></g>
<g><path style="opacity:1" fill="#8700ff" d="M 229.5,124.5 C 227.182,129.014 223.848,132.681 219.5,135.5C 218.614,136.325 218.281,137.325 218.5,138.5C 213.833,138.5 209.167,138.5 204.5,138.5C 204.5,131.5 204.5,124.5 204.5,117.5C 211.5,117.5 218.5,117.5 225.5,117.5C 225.5,119.833 225.5,122.167 225.5,124.5C 226.833,124.5 228.167,124.5 229.5,124.5 Z"/></g>
<g><path style="opacity:0.964" fill="#d700fe" d="M 229.5,124.5 C 234.833,124.5 240.167,124.5 245.5,124.5C 245.5,126.833 245.5,129.167 245.5,131.5C 238.833,131.5 232.167,131.5 225.5,131.5C 225.5,133.833 225.5,136.167 225.5,138.5C 223.167,138.5 220.833,138.5 218.5,138.5C 218.281,137.325 218.614,136.325 219.5,135.5C 223.848,132.681 227.182,129.014 229.5,124.5 Z"/></g>
<g><path style="opacity:0.954" fill="#43ff00" d="M 38.5,117.5 C 42.5,117.5 46.5,117.5 50.5,117.5C 50.5,118.5 50.5,119.5 50.5,120.5C 44.2294,125.739 38.8961,131.739 34.5,138.5C 32.8333,138.5 31.1667,138.5 29.5,138.5C 30.0102,135.612 29.3435,133.279 27.5,131.5C 31.6577,127.166 35.3243,122.499 38.5,117.5 Z"/></g>
<g><path style="opacity:1" fill="#6167fc" d="M 160.5,141.5 C 160.167,141.5 159.833,141.5 159.5,141.5C 159.5,141.167 159.5,140.833 159.5,140.5C 159.5,138.5 159.5,136.5 159.5,134.5C 159.843,132.517 159.176,131.183 157.5,130.5C 158.072,129.027 158.905,127.693 160,126.5C 160.499,131.489 160.666,136.489 160.5,141.5 Z"/></g>
<g><path style="opacity:1" fill="#1f00fe" d="M 183.5,124.5 C 176.817,129.853 170.484,135.52 164.5,141.5C 164.5,139.167 164.5,136.833 164.5,134.5C 170.45,128.721 176.617,123.055 183,117.5C 183.497,119.81 183.663,122.143 183.5,124.5 Z"/></g>
<g><path style="opacity:1" fill="#9d00ff" d="M 201.5,118.5 C 201.5,122.167 201.5,125.833 201.5,129.5C 197.854,133.812 193.854,137.812 189.5,141.5C 188.571,140.311 188.238,138.978 188.5,137.5C 188.5,134.833 188.5,132.167 188.5,129.5C 191.479,126.521 194.479,123.521 197.5,120.5C 198.622,119.37 199.956,118.703 201.5,118.5 Z"/></g>
<g><path style="opacity:1" fill="#2edefe" d="M 132.5,122.5 C 132.5,125.5 132.5,128.5 132.5,131.5C 130.668,132.248 129.001,133.248 127.5,134.5C 127.483,132.435 127.15,130.435 126.5,128.5C 128.861,126.806 130.861,124.806 132.5,122.5 Z"/></g>
<g><path style="opacity:0.987" fill="#ebf5f8" d="M 136.5,114.5 C 136.5,115.167 136.5,115.833 136.5,116.5C 136.5,118.5 136.5,120.5 136.5,122.5C 136.1,128.829 135.767,135.162 135.5,141.5C 134.5,141.5 133.5,141.5 132.5,141.5C 132.5,141.167 132.5,140.833 132.5,140.5C 132.634,138.708 132.301,137.042 131.5,135.5C 132.434,134.432 132.768,133.099 132.5,131.5C 132.5,128.5 132.5,125.5 132.5,122.5C 132.5,119.833 132.5,117.167 132.5,114.5C 133.833,114.5 135.167,114.5 136.5,114.5 Z"/></g>
<g><path style="opacity:0.985" fill="#f2f6f5" d="M 118.5,114.5 C 119.5,114.5 120.5,114.5 121.5,114.5C 122.93,115.537 124.597,116.204 126.5,116.5C 126.315,118.196 125.481,119.529 124,120.5C 121.118,118.586 118.118,118.252 115,119.5C 114.257,121.441 114.424,123.274 115.5,125C 119.355,125.711 123.021,126.878 126.5,128.5C 127.15,130.435 127.483,132.435 127.5,134.5C 126.541,138.664 123.874,140.998 119.5,141.5C 118.167,141.5 116.833,141.5 115.5,141.5C 114.292,140.766 112.959,140.433 111.5,140.5C 111.158,139.662 110.492,139.328 109.5,139.5C 109.5,138.833 109.167,138.5 108.5,138.5C 109.035,136.554 110.368,135.554 112.5,135.5C 115.923,138.073 119.423,138.073 123,135.5C 123.72,133.888 123.554,132.388 122.5,131C 120.134,130.56 117.801,130.06 115.5,129.5C 111.609,128.273 109.609,125.606 109.5,121.5C 109.845,118.802 111.178,116.802 113.5,115.5C 115.042,114.699 116.708,114.366 118.5,114.5 Z"/></g>
<g><path style="opacity:1" fill="#f1f7f3" d="M 96.5,122.5 C 96.8333,122.5 97.1667,122.5 97.5,122.5C 99.6208,122.325 101.621,122.659 103.5,123.5C 106.036,126.007 106.869,129.007 106,132.5C 102.21,133.136 98.3771,133.803 94.5,134.5C 94.9767,135.478 95.6433,136.311 96.5,137C 99.2004,137.253 101.867,137.253 104.5,137C 105.252,137.671 105.586,138.504 105.5,139.5C 103.833,140.167 102.167,140.833 100.5,141.5C 99.1667,141.5 97.8333,141.5 96.5,141.5C 93.3262,140.141 91.3262,137.807 90.5,134.5C 90.5,133.167 90.5,131.833 90.5,130.5C 90.6457,126.364 92.6457,123.697 96.5,122.5 Z"/></g>
<g><path style="opacity:1" fill="#42fe71" d="M 97.5,125.5 C 100.372,125.635 101.872,126.969 102,129.5C 99.6194,130.435 97.1194,130.768 94.5,130.5C 94.31,128.041 95.31,126.374 97.5,125.5 Z"/></g>
<g><path style="opacity:1" fill="#18ff00" d="M 50.5,120.5 C 50.5,126.5 50.5,132.5 50.5,138.5C 45.1667,138.5 39.8333,138.5 34.5,138.5C 38.8961,131.739 44.2294,125.739 50.5,120.5 Z"/></g>
<g><path style="opacity:0.996" fill="#22fbf2" d="M 115.5,129.5 C 117.801,130.06 120.134,130.56 122.5,131C 123.554,132.388 123.72,133.888 123,135.5C 119.423,138.073 115.923,138.073 112.5,135.5C 114.385,133.947 115.385,131.947 115.5,129.5 Z"/></g>
<g><path style="opacity:1" fill="#3a00ff" d="M 183.5,124.5 C 183.263,125.791 183.596,126.791 184.5,127.5C 184.5,128.833 184.5,130.167 184.5,131.5C 183.833,131.5 183.5,131.167 183.5,130.5C 183.631,129.761 183.464,129.094 183,128.5C 179.527,131.973 176.027,135.473 172.5,139C 168.584,141.91 164.917,145.243 161.5,149C 160.167,149.667 158.833,150.333 157.5,151C 153.134,155.701 148.467,160.034 143.5,164C 139.042,170.792 133.542,176.625 127,181.5C 126.517,182.448 126.351,183.448 126.5,184.5C 125.167,184.5 123.833,184.5 122.5,184.5C 122.281,183.325 122.614,182.325 123.5,181.5C 137.025,168.897 150.359,156.064 163.5,143C 162.263,142.768 161.263,142.268 160.5,141.5C 161.833,141.5 163.167,141.5 164.5,141.5C 170.484,135.52 176.817,129.853 183.5,124.5 Z"/></g>
<g><path style="opacity:1" fill="#1efeb3" d="M 109.5,121.5 C 109.609,125.606 111.609,128.273 115.5,129.5C 115.385,131.947 114.385,133.947 112.5,135.5C 110.368,135.554 109.035,136.554 108.5,138.5C 107.609,139.11 106.609,139.443 105.5,139.5C 105.586,138.504 105.252,137.671 104.5,137C 101.867,137.253 99.2004,137.253 96.5,137C 95.6433,136.311 94.9767,135.478 94.5,134.5C 98.3771,133.803 102.21,133.136 106,132.5C 106.869,129.007 106.036,126.007 103.5,123.5C 104.496,123.414 105.329,123.748 106,124.5C 107.039,123.29 108.206,122.29 109.5,121.5 Z"/></g>
<g><path style="opacity:0.98" fill="#0108ff" d="M 159.5,134.5 C 159.5,136.5 159.5,138.5 159.5,140.5C 144.425,154.072 129.758,168.239 115.5,183C 116.737,183.232 117.737,183.732 118.5,184.5C 115.167,184.5 111.833,184.5 108.5,184.5C 125.525,167.704 142.525,151.037 159.5,134.5 Z"/></g>
<g><path style="opacity:0.954" fill="#07fe11" d="M 66.5,136.5 C 66.6659,141.511 66.4993,146.511 66,151.5C 62.4151,153.416 59.9151,156.249 58.5,160C 56.8455,160.608 55.1789,161.108 53.5,161.5C 53.5,156.833 53.5,152.167 53.5,147.5C 58.4391,144.533 62.7724,140.866 66.5,136.5 Z"/></g>
<g><path style="opacity:1" fill="#04f9fd" d="M 111.5,140.5 C 112.959,140.433 114.292,140.766 115.5,141.5C 106.702,149.798 98.035,158.298 89.5,167C 88.552,167.483 87.552,167.649 86.5,167.5C 86.6495,168.552 86.4828,169.552 86,170.5C 82.6671,172.667 79.8337,175.334 77.5,178.5C 76.5,178.167 75.8333,177.5 75.5,176.5C 78.8831,173.28 81.7165,169.614 84,165.5C 94.2361,158.435 103.403,150.101 111.5,140.5 Z"/></g>
<g><path style="opacity:1" fill="#0483fe" d="M 141.5,127.5 C 141.5,130.833 141.5,134.167 141.5,137.5C 140.662,137.842 140.328,138.508 140.5,139.5C 130.445,146.382 121.445,154.549 113.5,164C 105.333,169.667 98.333,176.501 92.5,184.5C 91.1667,184.5 89.8333,184.5 88.5,184.5C 87.6971,183.577 87.5304,182.577 88,181.5C 92.3217,176.167 97.4883,172.001 103.5,169C 108.38,163.957 113.047,158.79 117.5,153.5C 121.236,152.874 123.57,150.708 124.5,147C 127.065,144.92 129.732,143.087 132.5,141.5C 133.5,141.5 134.5,141.5 135.5,141.5C 136.166,138.642 136.833,135.642 137.5,132.5C 138.612,130.581 139.946,128.914 141.5,127.5 Z"/></g>
<g><path style="opacity:1" fill="#4bff00" d="M 66.5,120.5 C 66.5,125.833 66.5,131.167 66.5,136.5C 62.7724,140.866 58.4391,144.533 53.5,147.5C 53.5,142.167 53.5,136.833 53.5,131.5C 57.5766,127.614 61.9099,123.947 66.5,120.5 Z"/></g>
<g><path style="opacity:1" fill="#8100ff" d="M 184.5,137.5 C 184.5,138.5 184.5,139.5 184.5,140.5C 183.07,140.421 181.736,140.754 180.5,141.5C 175.927,147.114 170.594,151.948 164.5,156C 156.365,165.969 147.698,175.469 138.5,184.5C 137.5,184.5 136.5,184.5 135.5,184.5C 136.203,182.284 137.536,180.451 139.5,179C 141.848,178.654 143.681,177.487 145,175.5C 147.678,171.169 150.678,167.169 154,163.5C 164.406,155.087 174.073,146.087 183,136.5C 183.383,137.056 183.883,137.389 184.5,137.5 Z"/></g>
<g><path style="opacity:1" fill="#e610fc" d="M 201.5,129.5 C 201.5,134.833 201.5,140.167 201.5,145.5C 196.833,149.167 192.167,152.833 187.5,156.5C 187.5,150.167 187.5,143.833 187.5,137.5C 187.833,137.5 188.167,137.5 188.5,137.5C 188.238,138.978 188.571,140.311 189.5,141.5C 193.854,137.812 197.854,133.812 201.5,129.5 Z"/></g>
<g><path style="opacity:1" fill="#02fe58" d="M 90.5,130.5 C 90.5,131.833 90.5,133.167 90.5,134.5C 89.9101,135.766 89.4101,137.099 89,138.5C 82.5686,144.762 76.4019,151.096 70.5,157.5C 70.5,155.167 70.5,152.833 70.5,150.5C 71.4345,149.432 71.7678,148.099 71.5,146.5C 77.8333,141.167 84.1667,135.833 90.5,130.5 Z"/></g>
<g><path style="opacity:1" fill="#07acfe" d="M 131.5,135.5 C 132.301,137.042 132.634,138.708 132.5,140.5C 131.732,139.737 131.232,138.737 131,137.5C 127.858,142.638 124.024,147.138 119.5,151C 113.5,155.667 107.5,160.333 101.5,165C 98.1936,169.395 94.3603,173.228 90,176.5C 88.2765,178.717 86.7765,181.05 85.5,183.5C 84.5084,183.672 83.8417,183.338 83.5,182.5C 90.6283,174.536 97.9616,166.703 105.5,159C 115.065,152.347 123.731,144.514 131.5,135.5 Z"/></g>
<g><path style="opacity:1" fill="#0548fe" d="M 149.5,132.5 C 150.038,134.117 150.371,135.784 150.5,137.5C 149.797,139.716 148.464,141.549 146.5,143C 136.837,150.005 127.837,157.672 119.5,166C 118.333,167.833 117.167,169.667 116,171.5C 110.971,175.364 106.471,179.697 102.5,184.5C 101.167,184.5 99.8333,184.5 98.5,184.5C 103.11,179.059 108.277,174.059 114,169.5C 120.557,160.943 128.39,153.777 137.5,148C 139.539,146.074 141.206,143.907 142.5,141.5C 143.5,141.5 144.5,141.5 145.5,141.5C 145.334,136.489 145.501,131.489 146,126.5C 146.941,128.727 148.108,130.727 149.5,132.5 Z"/></g>
<g><path style="opacity:1" fill="#2300ff" d="M 159.5,141.5 C 159.833,141.5 160.167,141.5 160.5,141.5C 161.263,142.268 162.263,142.768 163.5,143C 150.359,156.064 137.025,168.897 123.5,181.5C 122.614,182.325 122.281,183.325 122.5,184.5C 121.833,184.5 121.167,184.5 120.5,184.5C 120.389,183.883 120.056,183.383 119.5,183C 124.144,180.359 127.311,176.525 129,171.5C 133.633,167.775 138.133,163.942 142.5,160C 148.157,153.835 153.823,147.668 159.5,141.5 Z"/></g>
<g><path style="opacity:1" fill="#09fe84" d="M 90.5,134.5 C 91.3262,137.807 93.3262,140.141 96.5,141.5C 87.5329,149.132 78.8663,157.132 70.5,165.5C 70.5,162.833 70.5,160.167 70.5,157.5C 76.4019,151.096 82.5686,144.762 89,138.5C 89.4101,137.099 89.9101,135.766 90.5,134.5 Z"/></g>
<g><path style="opacity:1" fill="#06fee9" d="M 109.5,139.5 C 110.492,139.328 111.158,139.662 111.5,140.5C 103.403,150.101 94.2361,158.435 84,165.5C 81.7165,169.614 78.8831,173.28 75.5,176.5C 74.0256,175.564 73.0256,174.23 72.5,172.5C 77.9095,169.926 82.2428,166.093 85.5,161C 93.6165,153.898 101.616,146.731 109.5,139.5 Z"/></g>
<g><path style="opacity:1" fill="#0059ff" d="M 141.5,137.5 C 141.232,139.099 141.566,140.432 142.5,141.5C 141.206,143.907 139.539,146.074 137.5,148C 128.39,153.777 120.557,160.943 114,169.5C 108.277,174.059 103.11,179.059 98.5,184.5C 97.5,184.5 96.5,184.5 95.5,184.5C 100.492,178.346 106.325,173.012 113,168.5C 114.167,166.667 115.333,164.833 116.5,163C 124.007,156.657 131.341,150.157 138.5,143.5C 139.705,142.423 140.372,141.09 140.5,139.5C 140.328,138.508 140.662,137.842 141.5,137.5 Z"/></g>
<g><path style="opacity:1" fill="#016bff" d="M 140.5,139.5 C 140.372,141.09 139.705,142.423 138.5,143.5C 131.341,150.157 124.007,156.657 116.5,163C 115.333,164.833 114.167,166.667 113,168.5C 106.325,173.012 100.492,178.346 95.5,184.5C 94.5,184.5 93.5,184.5 92.5,184.5C 98.333,176.501 105.333,169.667 113.5,164C 121.445,154.549 130.445,146.382 140.5,139.5 Z"/></g>
<g><path style="opacity:1" fill="#4800ff" d="M 183.5,130.5 C 176.39,137.439 169.056,144.272 161.5,151C 160.5,151.333 159.5,151.667 158.5,152C 149.383,162.284 139.717,172.117 129.5,181.5C 128.614,182.325 128.281,183.325 128.5,184.5C 127.833,184.5 127.167,184.5 126.5,184.5C 126.351,183.448 126.517,182.448 127,181.5C 133.542,176.625 139.042,170.792 143.5,164C 148.467,160.034 153.134,155.701 157.5,151C 158.833,150.333 160.167,149.667 161.5,149C 164.917,145.243 168.584,141.91 172.5,139C 176.027,135.473 179.527,131.973 183,128.5C 183.464,129.094 183.631,129.761 183.5,130.5 Z"/></g>
<g><path style="opacity:1" fill="#6f00ff" d="M 184.5,133.5 C 184.5,134.833 184.5,136.167 184.5,137.5C 183.883,137.389 183.383,137.056 183,136.5C 174.073,146.087 164.406,155.087 154,163.5C 150.678,167.169 147.678,171.169 145,175.5C 143.681,177.487 141.848,178.654 139.5,179C 137.536,180.451 136.203,182.284 135.5,184.5C 134.5,184.5 133.5,184.5 132.5,184.5C 135.483,179.351 139.65,175.351 145,172.5C 145.862,170.913 146.529,169.246 147,167.5C 159.331,156.169 171.331,144.502 183,132.5C 183.383,133.056 183.883,133.389 184.5,133.5 Z"/></g>
<g><path style="opacity:1" fill="#fe07cf" d="M 201.5,145.5 C 201.5,149.167 201.5,152.833 201.5,156.5C 196.833,160.167 192.167,163.833 187.5,167.5C 187.5,163.833 187.5,160.167 187.5,156.5C 192.167,152.833 196.833,149.167 201.5,145.5 Z"/></g>
<g><path style="opacity:1" fill="#02feb7" d="M 96.5,141.5 C 97.8333,141.5 99.1667,141.5 100.5,141.5C 96.8403,145.006 93.6736,149.006 91,153.5C 89.5806,154.46 88.0806,155.293 86.5,156C 81.8515,161.3 76.8515,166.134 71.5,170.5C 71.634,168.708 71.3007,167.042 70.5,165.5C 78.8663,157.132 87.5329,149.132 96.5,141.5 Z"/></g>
<g><path style="opacity:1" fill="#021ffe" d="M 157.5,130.5 C 159.176,131.183 159.843,132.517 159.5,134.5C 142.525,151.037 125.525,167.704 108.5,184.5C 107.167,184.5 105.833,184.5 104.5,184.5C 108.267,181.913 111.933,179.08 115.5,176C 127.333,163.5 139.5,151.333 152,139.5C 152.464,138.906 152.631,138.239 152.5,137.5C 155.353,136.167 157.019,133.834 157.5,130.5 Z"/></g>
<g><path style="opacity:1" fill="#06fed1" d="M 108.5,138.5 C 109.167,138.5 109.5,138.833 109.5,139.5C 101.616,146.731 93.6165,153.898 85.5,161C 82.2428,166.093 77.9095,169.926 72.5,172.5C 72.1667,171.833 71.8333,171.167 71.5,170.5C 76.8515,166.134 81.8515,161.3 86.5,156C 88.0806,155.293 89.5806,154.46 91,153.5C 93.6736,149.006 96.8403,145.006 100.5,141.5C 102.167,140.833 103.833,140.167 105.5,139.5C 106.609,139.443 107.609,139.11 108.5,138.5 Z"/></g>
<g><path style="opacity:1" fill="#1100ff" d="M 159.5,140.5 C 159.5,140.833 159.5,141.167 159.5,141.5C 153.823,147.668 148.157,153.835 142.5,160C 138.133,163.942 133.633,167.775 129,171.5C 127.311,176.525 124.144,180.359 119.5,183C 120.056,183.383 120.389,183.883 120.5,184.5C 119.833,184.5 119.167,184.5 118.5,184.5C 117.737,183.732 116.737,183.232 115.5,183C 129.758,168.239 144.425,154.072 159.5,140.5 Z"/></g>
<g><path style="opacity:1" fill="#26fc21" d="M 42.5,154.5 C 39.2657,160.405 34.9324,165.405 29.5,169.5C 23.021,168.509 16.3543,168.176 9.5,168.5C 9.23166,165.881 9.565,163.381 10.5,161C 16.8246,160.5 23.1579,160.334 29.5,160.5C 29.5,158.5 29.5,156.5 29.5,154.5C 33.8333,154.5 38.1667,154.5 42.5,154.5 Z"/></g>
<g><path style="opacity:1" fill="#25fb4d" d="M 66.5,120.5 C 66.8333,120.5 67.1667,120.5 67.5,120.5C 67.5,132.833 67.5,145.167 67.5,157.5C 63.4932,162.505 58.8265,166.839 53.5,170.5C 53.5,167.5 53.5,164.5 53.5,161.5C 55.1789,161.108 56.8455,160.608 58.5,160C 59.9151,156.249 62.4151,153.416 66,151.5C 66.4993,146.511 66.6659,141.511 66.5,136.5C 66.5,131.167 66.5,125.833 66.5,120.5 Z"/></g>
<g><path style="opacity:1" fill="#03e0fe" d="M 115.5,141.5 C 116.833,141.5 118.167,141.5 119.5,141.5C 106.22,154.445 92.8867,167.445 79.5,180.5C 78.5,180.167 77.8333,179.5 77.5,178.5C 79.8337,175.334 82.6671,172.667 86,170.5C 86.4828,169.552 86.6495,168.552 86.5,167.5C 87.552,167.649 88.552,167.483 89.5,167C 98.035,158.298 106.702,149.798 115.5,141.5 Z"/></g>
<g><path style="opacity:1" fill="#002ffe" d="M 150.5,137.5 C 151.167,137.5 151.833,137.5 152.5,137.5C 152.631,138.239 152.464,138.906 152,139.5C 139.5,151.333 127.333,163.5 115.5,176C 111.933,179.08 108.267,181.913 104.5,184.5C 103.833,184.5 103.167,184.5 102.5,184.5C 106.471,179.697 110.971,175.364 116,171.5C 117.167,169.667 118.333,167.833 119.5,166C 127.837,157.672 136.837,150.005 146.5,143C 148.464,141.549 149.797,139.716 150.5,137.5 Z"/></g>
<g><path style="opacity:1" fill="#ff008a" d="M 237.5,160.5 C 244.5,158.833 247.167,161.5 245.5,168.5C 241.167,168.5 236.833,168.5 232.5,168.5C 233.793,166.704 235.293,165.037 237,163.5C 237.483,162.552 237.649,161.552 237.5,160.5 Z"/></g>
<g><path style="opacity:1" fill="#ba00ff" d="M 184.5,144.5 C 184.5,146.833 184.5,149.167 184.5,151.5C 183.325,151.281 182.325,151.614 181.5,152.5C 176.816,158.015 171.483,162.849 165.5,167C 159.989,172.678 154.655,178.511 149.5,184.5C 147.5,184.5 145.5,184.5 143.5,184.5C 143.281,183.325 143.614,182.325 144.5,181.5C 155.701,171.83 166.535,161.83 177,151.5C 178.672,148.033 181.172,145.7 184.5,144.5 Z"/></g>
<g><path style="opacity:1" fill="#f800f7" d="M 224.5,154.5 C 219.171,161.497 213.837,168.497 208.5,175.5C 207.167,175.5 205.833,175.5 204.5,175.5C 204.5,168.5 204.5,161.5 204.5,154.5C 211.167,154.5 217.833,154.5 224.5,154.5 Z"/></g>
<g><path style="opacity:1" fill="#0ba0fe" d="M 132.5,140.5 C 132.5,140.833 132.5,141.167 132.5,141.5C 129.732,143.087 127.065,144.92 124.5,147C 123.57,150.708 121.236,152.874 117.5,153.5C 113.047,158.79 108.38,163.957 103.5,169C 97.4883,172.001 92.3217,176.167 88,181.5C 87.5304,182.577 87.6971,183.577 88.5,184.5C 87.391,184.443 86.391,184.11 85.5,183.5C 86.7765,181.05 88.2765,178.717 90,176.5C 94.3603,173.228 98.1936,169.395 101.5,165C 107.5,160.333 113.5,155.667 119.5,151C 124.024,147.138 127.858,142.638 131,137.5C 131.232,138.737 131.732,139.737 132.5,140.5 Z"/></g>
<g><path style="opacity:1" fill="#07fe56" d="M 42.5,154.5 C 45.1667,154.5 47.8333,154.5 50.5,154.5C 50.5,161.5 50.5,168.5 50.5,175.5C 43.5,175.5 36.5,175.5 29.5,175.5C 29.5,173.5 29.5,171.5 29.5,169.5C 34.9324,165.405 39.2657,160.405 42.5,154.5 Z"/></g>
<g><path style="opacity:1" fill="#ff00d1" d="M 224.5,154.5 C 225.461,156.265 225.795,158.265 225.5,160.5C 227.167,160.5 228.833,160.5 230.5,160.5C 229.287,163.553 227.12,165.887 224,167.5C 222.757,170.576 220.923,173.243 218.5,175.5C 215.167,175.5 211.833,175.5 208.5,175.5C 213.837,168.497 219.171,161.497 224.5,154.5 Z"/></g>
<g><path style="opacity:0.86" fill="#ff00af" d="M 230.5,160.5 C 232.833,160.5 235.167,160.5 237.5,160.5C 237.649,161.552 237.483,162.552 237,163.5C 235.293,165.037 233.793,166.704 232.5,168.5C 230.167,168.5 227.833,168.5 225.5,168.5C 225.5,170.833 225.5,173.167 225.5,175.5C 223.167,175.5 220.833,175.5 218.5,175.5C 220.923,173.243 222.757,170.576 224,167.5C 227.12,165.887 229.287,163.553 230.5,160.5 Z"/></g>
<g><path style="opacity:1" fill="#9900ff" d="M 184.5,140.5 C 184.5,141.833 184.5,143.167 184.5,144.5C 181.172,145.7 178.672,148.033 177,151.5C 166.535,161.83 155.701,171.83 144.5,181.5C 143.614,182.325 143.281,183.325 143.5,184.5C 141.833,184.5 140.167,184.5 138.5,184.5C 147.698,175.469 156.365,165.969 164.5,156C 170.594,151.948 175.927,147.114 180.5,141.5C 181.736,140.754 183.07,140.421 184.5,140.5 Z"/></g>
<g><path style="opacity:1" fill="#06c4fe" d="M 132.5,131.5 C 132.768,133.099 132.434,134.432 131.5,135.5C 123.731,144.514 115.065,152.347 105.5,159C 97.9616,166.703 90.6283,174.536 83.5,182.5C 82.8333,182.5 82.1667,182.5 81.5,182.5C 80.8333,181.833 80.1667,181.167 79.5,180.5C 92.8867,167.445 106.22,154.445 119.5,141.5C 123.874,140.998 126.541,138.664 127.5,134.5C 129.001,133.248 130.668,132.248 132.5,131.5 Z"/></g>
<g><path style="opacity:1" fill="#da00ff" d="M 184.5,151.5 C 184.5,152.833 184.5,154.167 184.5,155.5C 173.204,164.129 162.871,173.796 153.5,184.5C 152.167,184.5 150.833,184.5 149.5,184.5C 154.655,178.511 159.989,172.678 165.5,167C 171.483,162.849 176.816,158.015 181.5,152.5C 182.325,151.614 183.325,151.281 184.5,151.5 Z"/></g>
<g><path style="opacity:1" fill="#fe1dc4" d="M 183.5,167.5 C 181.55,176.783 175.884,182.45 166.5,184.5C 171.173,177.827 176.839,172.161 183.5,167.5 Z"/></g>
<g><path style="opacity:1" fill="#ff00e8" d="M 184.5,160.5 C 184.702,162.95 184.369,165.283 183.5,167.5C 176.839,172.161 171.173,177.827 166.5,184.5C 163.833,184.5 161.167,184.5 158.5,184.5C 166.777,176.037 175.444,168.037 184.5,160.5 Z"/></g>
<g><path style="opacity:0.824" fill="#ff0885" d="M 201.5,156.5 C 201.5,159.833 201.5,163.167 201.5,166.5C 192.135,174.686 182.801,183.186 173.5,192C 170.893,195.086 168.559,198.253 166.5,201.5C 165.5,201.5 164.5,201.5 163.5,201.5C 168.78,195.79 173.78,189.79 178.5,183.5C 183.046,179.079 186.046,173.746 187.5,167.5C 192.167,163.833 196.833,160.167 201.5,156.5 Z"/></g>
<g><path style="opacity:1" fill="#ff0064" d="M 201.5,166.5 C 201.5,168.167 201.5,169.833 201.5,171.5C 195.743,175.087 190.743,179.587 186.5,185C 181.442,189.051 176.608,193.551 172,198.5C 171.517,199.448 171.351,200.448 171.5,201.5C 169.833,201.5 168.167,201.5 166.5,201.5C 168.559,198.253 170.893,195.086 173.5,192C 182.801,183.186 192.135,174.686 201.5,166.5 Z"/></g>
<g><path style="opacity:0.618" fill="#0afe8d" d="M 67.5,157.5 C 67.5,161.833 67.5,166.167 67.5,170.5C 63.7129,172.452 60.7129,175.286 58.5,179C 57.0997,180.438 55.433,181.271 53.5,181.5C 53.5,177.833 53.5,174.167 53.5,170.5C 58.8265,166.839 63.4932,162.505 67.5,157.5 Z"/></g>
<g><path style="opacity:1" fill="#04feb6" d="M 67.5,170.5 C 68.3382,170.842 68.6716,171.508 68.5,172.5C 68.719,173.675 68.3857,174.675 67.5,175.5C 63.1294,178.881 58.796,182.215 54.5,185.5C 54.1667,184.167 53.8333,182.833 53.5,181.5C 55.433,181.271 57.0997,180.438 58.5,179C 60.7129,175.286 63.7129,172.452 67.5,170.5 Z"/></g>
<g><path style="opacity:1" fill="#5900ff" d="M 183.5,130.5 C 183.5,131.167 183.833,131.5 184.5,131.5C 184.5,132.167 184.5,132.833 184.5,133.5C 183.883,133.389 183.383,133.056 183,132.5C 171.331,144.502 159.331,156.169 147,167.5C 146.529,169.246 145.862,170.913 145,172.5C 139.65,175.351 135.483,179.351 132.5,184.5C 131.167,184.5 129.833,184.5 128.5,184.5C 128.281,183.325 128.614,182.325 129.5,181.5C 139.717,172.117 149.383,162.284 158.5,152C 159.5,151.667 160.5,151.333 161.5,151C 169.056,144.272 176.39,137.439 183.5,130.5 Z"/></g>
<g><path style="opacity:1" fill="#f300fe" d="M 184.5,155.5 C 184.5,157.167 184.5,158.833 184.5,160.5C 175.444,168.037 166.777,176.037 158.5,184.5C 156.833,184.5 155.167,184.5 153.5,184.5C 162.871,173.796 173.204,164.129 184.5,155.5 Z"/></g>
<g><path style="opacity:0.81" fill="#fdfdfd" d="M 81.5,182.5 C 82.1667,182.5 82.8333,182.5 83.5,182.5C 83.8417,183.338 84.5084,183.672 85.5,183.5C 86.391,184.11 87.391,184.443 88.5,184.5C 89.8333,184.5 91.1667,184.5 92.5,184.5C 93.5,184.5 94.5,184.5 95.5,184.5C 96.5,184.5 97.5,184.5 98.5,184.5C 99.8333,184.5 101.167,184.5 102.5,184.5C 103.167,184.5 103.833,184.5 104.5,184.5C 105.833,184.5 107.167,184.5 108.5,184.5C 111.833,184.5 115.167,184.5 118.5,184.5C 119.167,184.5 119.833,184.5 120.5,184.5C 121.167,184.5 121.833,184.5 122.5,184.5C 123.833,184.5 125.167,184.5 126.5,184.5C 127.167,184.5 127.833,184.5 128.5,184.5C 129.833,184.5 131.167,184.5 132.5,184.5C 133.5,184.5 134.5,184.5 135.5,184.5C 136.5,184.5 137.5,184.5 138.5,184.5C 140.167,184.5 141.833,184.5 143.5,184.5C 145.5,184.5 147.5,184.5 149.5,184.5C 150.833,184.5 152.167,184.5 153.5,184.5C 155.167,184.5 156.833,184.5 158.5,184.5C 161.167,184.5 163.833,184.5 166.5,184.5C 166.918,185.222 167.584,185.722 168.5,186C 167.944,186.383 167.611,186.883 167.5,187.5C 164.833,187.5 162.167,187.5 159.5,187.5C 154.833,187.5 150.167,187.5 145.5,187.5C 127.833,187.5 110.167,187.5 92.5,187.5C 89.8333,187.5 87.1667,187.5 84.5,187.5C 83.791,186.596 82.791,186.263 81.5,186.5C 81.5,185.833 81.1667,185.5 80.5,185.5C 80.2627,184.209 80.596,183.209 81.5,182.5 Z"/></g>
<g><path style="opacity:1" fill="#11fee6" d="M 68.5,172.5 C 70.1526,175.131 71.8193,177.797 73.5,180.5C 68.5,184.833 63.8333,189.5 59.5,194.5C 57.5975,191.701 55.9308,188.701 54.5,185.5C 58.796,182.215 63.1294,178.881 67.5,175.5C 68.3857,174.675 68.719,173.675 68.5,172.5 Z"/></g>
<g><path style="opacity:1" fill="#fe0d14" d="M 200.5,183.5 C 199.057,187.273 197.724,190.773 196.5,194C 194.208,195.29 192.208,196.957 190.5,199C 187.883,199.822 185.216,200.322 182.5,200.5C 181.119,198.726 181.452,197.226 183.5,196C 189.141,192.355 194.141,188.022 198.5,183C 199.437,182.308 200.103,182.475 200.5,183.5 Z"/></g>
<g><path style="opacity:1" fill="#04e1ff" d="M 73.5,180.5 C 74.8333,181.167 75.8333,182.167 76.5,183.5C 71.9357,187.95 67.6023,192.616 63.5,197.5C 62.1667,196.5 60.8333,195.5 59.5,194.5C 63.8333,189.5 68.5,184.833 73.5,180.5 Z"/></g>
<g><path style="opacity:1" fill="#d900fe" d="M 137.5,188.5 C 140.167,188.5 142.833,188.5 145.5,188.5C 148.187,188.336 150.854,188.503 153.5,189C 149.296,193.036 145.296,197.202 141.5,201.5C 136.5,201.5 131.5,201.5 126.5,201.5C 129.791,196.873 133.458,192.54 137.5,188.5 Z"/></g>
<g><path style="opacity:1" fill="#2913ff" d="M 127.5,188.5 C 122.973,192.605 118.64,196.939 114.5,201.5C 103.833,201.5 93.1667,201.5 82.5,201.5C 86.2273,197.123 90.2273,192.956 94.5,189C 105.495,188.5 116.495,188.333 127.5,188.5 Z"/></g>
<g><path style="opacity:1" fill="#8d00ff" d="M 127.5,188.5 C 130.833,188.5 134.167,188.5 137.5,188.5C 133.458,192.54 129.791,196.873 126.5,201.5C 122.5,201.5 118.5,201.5 114.5,201.5C 118.64,196.939 122.973,192.605 127.5,188.5 Z"/></g>
<g><path style="opacity:1" fill="#ff1bbc" d="M 159.5,187.5 C 162.167,187.5 164.833,187.5 167.5,187.5C 167.833,187.5 168.167,187.5 168.5,187.5C 163.606,191.727 158.939,196.394 154.5,201.5C 152.167,201.5 149.833,201.5 147.5,201.5C 151.157,198.343 154.657,195.01 158,191.5C 158.791,190.255 159.291,188.922 159.5,187.5 Z"/></g>
<g><path style="opacity:1" fill="#ff0a91" d="M 178.5,183.5 C 173.78,189.79 168.78,195.79 163.5,201.5C 160.5,201.5 157.5,201.5 154.5,201.5C 158.939,196.394 163.606,191.727 168.5,187.5C 172.075,186.711 175.408,185.377 178.5,183.5 Z"/></g>
<g><path style="opacity:1" fill="#117efe" d="M 84.5,187.5 C 87.1667,187.5 89.8333,187.5 92.5,187.5C 88.5376,189.83 84.871,192.664 81.5,196C 79.393,197.264 78.393,199.097 78.5,201.5C 76.0504,201.702 73.717,201.369 71.5,200.5C 71.9867,199.527 72.4867,198.527 73,197.5C 77.0711,194.25 80.9044,190.917 84.5,187.5 Z"/></g>
<g><path style="opacity:1" fill="#4259fe" d="M 92.5,187.5 C 110.167,187.5 127.833,187.5 145.5,187.5C 145.5,187.833 145.5,188.167 145.5,188.5C 142.833,188.5 140.167,188.5 137.5,188.5C 134.167,188.5 130.833,188.5 127.5,188.5C 116.495,188.333 105.495,188.5 94.5,189C 90.2273,192.956 86.2273,197.123 82.5,201.5C 81.1667,201.5 79.8333,201.5 78.5,201.5C 78.393,199.097 79.393,197.264 81.5,196C 84.871,192.664 88.5376,189.83 92.5,187.5 Z"/></g>
<g><path style="opacity:1" fill="#ff0049" d="M 201.5,171.5 C 201.5,172.833 201.5,174.167 201.5,175.5C 198.044,177.783 194.71,180.283 191.5,183C 185.634,189.031 179.967,195.198 174.5,201.5C 173.5,201.5 172.5,201.5 171.5,201.5C 171.351,200.448 171.517,199.448 172,198.5C 176.608,193.551 181.442,189.051 186.5,185C 190.743,179.587 195.743,175.087 201.5,171.5 Z"/></g>
<g><path style="opacity:1" fill="#09c1fe" d="M 76.5,183.5 C 78.0618,183.733 79.3951,184.4 80.5,185.5C 81.1667,185.5 81.5,185.833 81.5,186.5C 79.4048,187.412 77.4048,188.579 75.5,190C 72.9688,193.358 70.3021,196.524 67.5,199.5C 65.6203,199.771 64.287,199.104 63.5,197.5C 67.6023,192.616 71.9357,187.95 76.5,183.5 Z"/></g>
<g><path style="opacity:1" fill="#069dfe" d="M 81.5,186.5 C 82.791,186.263 83.791,186.596 84.5,187.5C 80.9044,190.917 77.0711,194.25 73,197.5C 72.4867,198.527 71.9867,199.527 71.5,200.5C 70.0413,200.567 68.7079,200.234 67.5,199.5C 70.3021,196.524 72.9688,193.358 75.5,190C 77.4048,188.579 79.4048,187.412 81.5,186.5 Z"/></g>
<g><path style="opacity:1" fill="#fe14e8" d="M 145.5,188.5 C 145.5,188.167 145.5,187.833 145.5,187.5C 150.167,187.5 154.833,187.5 159.5,187.5C 159.291,188.922 158.791,190.255 158,191.5C 154.657,195.01 151.157,198.343 147.5,201.5C 145.5,201.5 143.5,201.5 141.5,201.5C 145.296,197.202 149.296,193.036 153.5,189C 150.854,188.503 148.187,188.336 145.5,188.5 Z"/></g>
<g><path style="opacity:0.541" fill="#fe062e" d="M 201.5,175.5 C 201.806,178.385 201.473,181.052 200.5,183.5C 200.103,182.475 199.437,182.308 198.5,183C 194.141,188.022 189.141,192.355 183.5,196C 181.452,197.226 181.119,198.726 182.5,200.5C 180.052,201.473 177.385,201.806 174.5,201.5C 179.967,195.198 185.634,189.031 191.5,183C 194.71,180.283 198.044,177.783 201.5,175.5 Z"/></g>
<g><path style="opacity:1" fill="#ea00fb" d="M 175.5,215.5 C 170.906,219.755 166.239,224.089 161.5,228.5C 161.719,227.325 161.386,226.325 160.5,225.5C 159.893,225.624 159.56,225.957 159.5,226.5C 157.738,226.643 156.071,226.309 154.5,225.5C 153.503,218.532 153.17,211.532 153.5,204.5C 160.833,204.5 168.167,204.5 175.5,204.5C 175.5,208.167 175.5,211.833 175.5,215.5 Z"/></g>
<g><path style="opacity:1" fill="#0363fe" d="M 89.5,204.5 C 88.2955,207.718 86.6289,210.718 84.5,213.5C 83.0603,214.952 81.3936,215.952 79.5,216.5C 79.5,212.5 79.5,208.5 79.5,204.5C 82.8333,204.5 86.1667,204.5 89.5,204.5 Z"/></g>
<g><path style="opacity:1" fill="#044afe" d="M 89.5,204.5 C 91.8333,204.5 94.1667,204.5 96.5,204.5C 93.9556,209.883 90.1222,214.217 85,217.5C 84.4981,220.488 83.3314,223.155 81.5,225.5C 79.6122,223.012 78.9455,220.012 79.5,216.5C 81.3936,215.952 83.0603,214.952 84.5,213.5C 86.6289,210.718 88.2955,207.718 89.5,204.5 Z"/></g>
<g><path style="opacity:0.697" fill="#4100ff" d="M 133.5,204.5 C 129.207,211.793 123.54,217.793 116.5,222.5C 116.5,216.5 116.5,210.5 116.5,204.5C 122.167,204.5 127.833,204.5 133.5,204.5 Z"/></g>
<g><path style="opacity:1" fill="#0723fe" d="M 96.5,204.5 C 98.1667,204.5 99.8333,204.5 101.5,204.5C 101.83,211.532 101.497,218.532 100.5,225.5C 98.5914,226.348 96.5914,226.682 94.5,226.5C 93.71,225.391 93.21,224.058 93,222.5C 90.9633,224.706 88.7966,226.706 86.5,228.5C 86.6495,227.448 86.4828,226.448 86,225.5C 84.3845,226.801 82.8845,226.801 81.5,225.5C 83.3314,223.155 84.4981,220.488 85,217.5C 90.1222,214.217 93.9556,209.883 96.5,204.5 Z"/></g>
<g><path style="opacity:0.993" fill="#ff00c5" d="M 175.5,215.5 C 175.665,218.85 175.498,222.183 175,225.5C 173,226.833 171,226.833 169,225.5C 168.5,232.158 168.334,238.825 168.5,245.5C 165.615,245.806 162.948,245.473 160.5,244.5C 161.449,239.26 161.782,233.927 161.5,228.5C 166.239,224.089 170.906,219.755 175.5,215.5 Z"/></g>
<g><path style="opacity:0.799" fill="#6b00ff" d="M 133.5,204.5 C 135.167,204.5 136.833,204.5 138.5,204.5C 138.5,208.167 138.5,211.833 138.5,215.5C 133.531,216.972 130.364,220.305 129,225.5C 127.296,227.373 125.463,229.04 123.5,230.5C 123.66,228.801 123.494,227.134 123,225.5C 119.472,227.252 117.306,226.252 116.5,222.5C 123.54,217.793 129.207,211.793 133.5,204.5 Z"/></g>
<g><path style="opacity:0.917" fill="#a100fe" d="M 138.5,215.5 C 138.82,218.898 138.487,222.232 137.5,225.5C 135.629,226.767 133.796,226.767 132,225.5C 131.5,232.158 131.334,238.825 131.5,245.5C 128.833,245.5 126.167,245.5 123.5,245.5C 123.5,240.5 123.5,235.5 123.5,230.5C 125.463,229.04 127.296,227.373 129,225.5C 130.364,220.305 133.531,216.972 138.5,215.5 Z"/></g>
<g><path style="opacity:0.882" fill="#1c04fe" d="M 94.5,226.5 C 94.5,232.833 94.5,239.167 94.5,245.5C 91.8333,245.5 89.1667,245.5 86.5,245.5C 86.5,239.833 86.5,234.167 86.5,228.5C 88.7966,226.706 90.9633,224.706 93,222.5C 93.21,224.058 93.71,225.391 94.5,226.5 Z"/></g>
<g><path style="opacity:0.498" fill="#e368bd" d="M 161.5,228.5 C 161.782,233.927 161.449,239.26 160.5,244.5C 159.51,238.69 159.177,232.69 159.5,226.5C 159.56,225.957 159.893,225.624 160.5,225.5C 161.386,226.325 161.719,227.325 161.5,228.5 Z"/></g>
</svg>
