<?xml version="1.0" encoding="UTF-8"?>
<!DOCTYPE svg PUBLIC "-//W3C//DTD SVG 1.1//EN" "http://www.w3.org/Graphics/SVG/1.1/DTD/svg11.dtd">
<svg xmlns="http://www.w3.org/2000/svg" version="1.1" width="256px" height="256px" style="shape-rendering:geometricPrecision; text-rendering:geometricPrecision; image-rendering:optimizeQuality; fill-rule:evenodd; clip-rule:evenodd" xmlns:xlink="http://www.w3.org/1999/xlink">
<g><path style="opacity:0.989" fill="#dfdfdf" d="M 111.5,-0.5 C 121.833,-0.5 132.167,-0.5 142.5,-0.5C 205.475,10.9755 242.642,48.3088 254,111.5C 258.309,167.385 236.809,209.885 189.5,239C 147.833,259.667 106.167,259.667 64.5,239C 27.937,216.925 6.2703,184.759 -0.5,142.5C -0.5,132.167 -0.5,121.833 -0.5,111.5C 11.1757,48.491 48.509,11.1576 111.5,-0.5 Z"/></g>
<g><path style="opacity:1" fill="#fead00" d="M 129.5,38.5 C 127.998,40.175 126.665,42.0083 125.5,44C 121.18,43.4997 118.846,45.333 118.5,49.5C 114.126,50.0023 111.459,52.3356 110.5,56.5C 106.672,58.5786 102.672,60.4119 98.5,62C 92.6576,67.7404 86.6576,73.2404 80.5,78.5C 79.5,78.1667 78.8333,77.5 78.5,76.5C 78.4431,75.391 78.1098,74.391 77.5,73.5C 87.2133,65.0224 97.88,57.6891 109.5,51.5C 112.738,48.0928 116.405,45.2595 120.5,43C 121.883,41.7292 122.883,40.2292 123.5,38.5C 125.612,37.7249 127.612,37.7249 129.5,38.5 Z"/></g>
<g><path style="opacity:1" fill="#fed703" d="M 129.5,38.5 C 132.833,38.5 136.167,38.5 139.5,38.5C 137.901,40.309 135.901,41.6424 133.5,42.5C 132.96,43.7481 132.293,44.9148 131.5,46C 127.439,48.9299 123.106,51.4299 118.5,53.5C 108.202,62.2879 97.7015,70.9546 87,79.5C 85.1476,81.2297 85.3143,82.3964 87.5,83C 87.2716,83.3988 86.9382,83.5654 86.5,83.5C 86.1667,83.5 85.8333,83.5 85.5,83.5C 83.8333,82.1667 82.1667,80.8333 80.5,79.5C 80.5,79.1667 80.5,78.8333 80.5,78.5C 86.6576,73.2404 92.6576,67.7404 98.5,62C 102.672,60.4119 106.672,58.5786 110.5,56.5C 111.459,52.3356 114.126,50.0023 118.5,49.5C 118.846,45.333 121.18,43.4997 125.5,44C 126.665,42.0083 127.998,40.175 129.5,38.5 Z"/></g>
<g><path style="opacity:1" fill="#ff8d00" d="M 116.5,38.5 C 118.833,38.5 121.167,38.5 123.5,38.5C 122.883,40.2292 121.883,41.7292 120.5,43C 116.405,45.2595 112.738,48.0928 109.5,51.5C 97.88,57.6891 87.2133,65.0224 77.5,73.5C 75.9731,73.573 74.9731,72.9063 74.5,71.5C 80.1346,69.3752 84.8012,65.8752 88.5,61C 91.5488,58.6373 94.8822,56.6373 98.5,55C 102.35,49.8233 107.35,46.1567 113.5,44C 115.16,42.5123 116.16,40.679 116.5,38.5 Z"/></g>
<g><path style="opacity:1" fill="#ff6600" d="M 116.5,38.5 C 116.16,40.679 115.16,42.5123 113.5,44C 107.35,46.1567 102.35,49.8233 98.5,55C 94.8822,56.6373 91.5488,58.6373 88.5,61C 84.8012,65.8752 80.1346,69.3752 74.5,71.5C 73.6935,70.2719 72.6935,69.2719 71.5,68.5C 78.9445,63.6443 86.1111,58.3109 93,52.5C 93.9729,48.5936 96.4729,46.427 100.5,46C 101.357,43.9812 102.691,42.4812 104.5,41.5C 108.373,40.0751 112.373,39.0751 116.5,38.5 Z"/></g>
<g><path style="opacity:1" fill="#0cfe1b" d="M 167.5,47.5 C 172.709,49.7191 177.376,52.7191 181.5,56.5C 179.981,57.4098 178.315,58.2432 176.5,59C 163.281,70.6186 149.281,81.2853 134.5,91C 127.718,97.2735 120.718,103.44 113.5,109.5C 112.395,108.4 111.062,107.733 109.5,107.5C 107.5,104.833 105.167,102.5 102.5,100.5C 102.167,99.8333 101.833,99.1667 101.5,98.5C 103.905,97.6019 105.905,96.1019 107.5,94C 109.392,93.0266 111.392,92.3599 113.5,92C 121.923,84.9212 130.923,78.5878 140.5,73C 141.45,70.4096 143.116,68.4096 145.5,67C 151.686,64.4744 156.186,60.3077 159,54.5C 163.211,53.7852 166.044,51.4519 167.5,47.5 Z"/></g>
<g><path style="opacity:1" fill="#edfd00" d="M 139.5,38.5 C 142.33,38.9628 144.997,39.6295 147.5,40.5C 142.662,45.1703 137.662,49.6703 132.5,54C 126.962,56.9353 121.962,60.602 117.5,65C 115.913,65.8624 114.246,66.5291 112.5,67C 109.353,69.4221 106.353,72.0888 103.5,75C 102.167,75.3333 100.833,75.6667 99.5,76C 96.8763,80.4628 93.2096,83.6294 88.5,85.5C 87.5,85.1667 86.8333,84.5 86.5,83.5C 86.9382,83.5654 87.2716,83.3988 87.5,83C 85.3143,82.3964 85.1476,81.2297 87,79.5C 97.7015,70.9546 108.202,62.2879 118.5,53.5C 123.106,51.4299 127.439,48.9299 131.5,46C 132.293,44.9148 132.96,43.7481 133.5,42.5C 135.901,41.6424 137.901,40.309 139.5,38.5 Z"/></g>
<g><path style="opacity:1" fill="#beff00" d="M 147.5,40.5 C 148.791,40.2627 149.791,40.596 150.5,41.5C 148.761,44.41 146.428,46.91 143.5,49C 137.975,50.2665 134.308,53.5998 132.5,59C 130.25,59.6108 128.583,60.9441 127.5,63C 123.795,63.0396 121.628,64.8729 121,68.5C 114.964,73.2206 108.464,77.0539 101.5,80C 98.0413,82.5471 95.3747,85.7137 93.5,89.5C 92.8333,89.5 92.1667,89.5 91.5,89.5C 90.5,88.1667 89.5,86.8333 88.5,85.5C 93.2096,83.6294 96.8763,80.4628 99.5,76C 100.833,75.6667 102.167,75.3333 103.5,75C 106.353,72.0888 109.353,69.4221 112.5,67C 114.246,66.5291 115.913,65.8624 117.5,65C 121.962,60.602 126.962,56.9353 132.5,54C 137.662,49.6703 142.662,45.1703 147.5,40.5 Z"/></g>
<g><path style="opacity:1" fill="#52ff00" d="M 157.5,43.5 C 161.116,44.3143 164.449,45.6477 167.5,47.5C 166.044,51.4519 163.211,53.7852 159,54.5C 156.186,60.3077 151.686,64.4744 145.5,67C 143.116,68.4096 141.45,70.4096 140.5,73C 130.923,78.5878 121.923,84.9212 113.5,92C 111.392,92.3599 109.392,93.0266 107.5,94C 105.905,96.1019 103.905,97.6019 101.5,98.5C 100.167,97.5 98.8333,96.5 97.5,95.5C 96.8333,94.5 96.1667,93.5 95.5,92.5C 104.972,84.2182 114.972,76.3849 125.5,69C 126.833,68.6667 128.167,68.3333 129.5,68C 133.888,64.2792 137.888,60.2792 141.5,56C 142.833,55.6667 144.167,55.3333 145.5,55C 149.752,51.2445 153.752,47.4112 157.5,43.5 Z"/></g>
<g><path style="opacity:1" fill="#bfa963" d="M 71.5,68.5 C 72.6935,69.2719 73.6935,70.2719 74.5,71.5C 74.9731,72.9063 75.9731,73.573 77.5,73.5C 78.1098,74.391 78.4431,75.391 78.5,76.5C 75.8807,75.3546 73.8807,73.5213 72.5,71C 71.552,70.5172 70.552,70.3505 69.5,70.5C 68.8413,73.4552 68.5079,76.4552 68.5,79.5C 68.1667,81.5 67.8333,83.5 67.5,85.5C 67.4828,87.5648 67.1495,89.5648 66.5,91.5C 66.3713,93.2161 66.038,94.8828 65.5,96.5C 65.5,97.1667 65.1667,97.5 64.5,97.5C 64.5,96.1667 64.5,94.8333 64.5,93.5C 65.4511,92.0813 65.7845,90.4147 65.5,88.5C 66.3414,86.6208 66.6747,84.6208 66.5,82.5C 67.2653,79.9039 67.5987,77.2372 67.5,74.5C 67.3746,71.3918 68.7079,69.3918 71.5,68.5 Z"/></g>
<g><path style="opacity:1" fill="#ff3f00" d="M 104.5,41.5 C 102.691,42.4812 101.357,43.9812 100.5,46C 96.4729,46.427 93.9729,48.5936 93,52.5C 86.1111,58.3109 78.9445,63.6443 71.5,68.5C 68.7079,69.3918 67.3746,71.3918 67.5,74.5C 60.4913,79.8933 53.4913,85.2266 46.5,90.5C 58.2615,65.275 77.5949,48.9417 104.5,41.5 Z"/></g>
<g><path style="opacity:1" fill="#97ff00" d="M 150.5,41.5 C 153.152,41.4095 155.485,42.0762 157.5,43.5C 153.752,47.4112 149.752,51.2445 145.5,55C 144.167,55.3333 142.833,55.6667 141.5,56C 137.888,60.2792 133.888,64.2792 129.5,68C 128.167,68.3333 126.833,68.6667 125.5,69C 114.972,76.3849 104.972,84.2182 95.5,92.5C 94.0937,92.0269 93.427,91.0269 93.5,89.5C 95.3747,85.7137 98.0413,82.5471 101.5,80C 108.464,77.0539 114.964,73.2206 121,68.5C 121.628,64.8729 123.795,63.0396 127.5,63C 128.583,60.9441 130.25,59.6108 132.5,59C 134.308,53.5998 137.975,50.2665 143.5,49C 146.428,46.91 148.761,44.41 150.5,41.5 Z"/></g>
<g><path style="opacity:1" fill="#fe2b01" d="M 78.5,76.5 C 78.8333,77.5 79.5,78.1667 80.5,78.5C 80.5,78.8333 80.5,79.1667 80.5,79.5C 76.5,79.5 72.5,79.5 68.5,79.5C 68.5079,76.4552 68.8413,73.4552 69.5,70.5C 70.552,70.3505 71.552,70.5172 72.5,71C 73.8807,73.5213 75.8807,75.3546 78.5,76.5 Z"/></g>
<g><path style="opacity:1" fill="#01fe5d" d="M 181.5,56.5 C 183.404,56.7376 184.738,57.7376 185.5,59.5C 176.87,66.6108 167.537,72.7775 157.5,78C 155.366,80.8861 153.032,83.5528 150.5,86C 148.754,86.4709 147.087,87.1376 145.5,88C 141.965,91.6953 137.965,94.8619 133.5,97.5C 132.926,99.0589 132.26,100.559 131.5,102C 126.597,105.752 121.597,109.252 116.5,112.5C 115.167,111.833 114.167,110.833 113.5,109.5C 120.718,103.44 127.718,97.2735 134.5,91C 149.281,81.2853 163.281,70.6186 176.5,59C 178.315,58.2432 179.981,57.4098 181.5,56.5 Z"/></g>
<g><path style="opacity:1" fill="#01fe7e" d="M 185.5,59.5 C 186.5,59.8333 187.167,60.5 187.5,61.5C 185.593,64.0904 183.26,66.2571 180.5,68C 175.539,70.9713 170.539,73.9713 165.5,77C 162.001,80.5275 158.001,83.5275 153.5,86C 148.391,92.5693 142.058,97.736 134.5,101.5C 133.376,102.914 132.376,104.414 131.5,106C 126.82,106.669 123.153,109.003 120.5,113C 119.552,113.483 118.552,113.649 117.5,113.5C 116.833,113.5 116.5,113.167 116.5,112.5C 121.597,109.252 126.597,105.752 131.5,102C 132.26,100.559 132.926,99.0589 133.5,97.5C 137.965,94.8619 141.965,91.6953 145.5,88C 147.087,87.1376 148.754,86.4709 150.5,86C 153.032,83.5528 155.366,80.8861 157.5,78C 167.537,72.7775 176.87,66.6108 185.5,59.5 Z"/></g>
<g><path style="opacity:1" fill="#fe7201" d="M 68.5,79.5 C 72.5,79.5 76.5,79.5 80.5,79.5C 82.1667,80.8333 83.8333,82.1667 85.5,83.5C 79.6694,84.4149 73.6694,85.0815 67.5,85.5C 67.8333,83.5 68.1667,81.5 68.5,79.5 Z"/></g>
<g><path style="opacity:1" fill="#ff7d00" d="M 67.5,74.5 C 67.5987,77.2372 67.2653,79.9039 66.5,82.5C 63.5617,83.6284 60.5617,84.7951 57.5,86C 52.6687,89.6676 48.0021,93.501 43.5,97.5C 43.9348,94.8427 44.9348,92.5093 46.5,90.5C 53.4913,85.2266 60.4913,79.8933 67.5,74.5 Z"/></g>
<g><path style="opacity:1" fill="#fdb506" d="M 85.5,83.5 C 85.8333,83.5 86.1667,83.5 86.5,83.5C 86.8333,84.5 87.5,85.1667 88.5,85.5C 89.5,86.8333 90.5,88.1667 91.5,89.5C 83.4014,91.2314 75.0681,91.8981 66.5,91.5C 67.1495,89.5648 67.4828,87.5648 67.5,85.5C 73.6694,85.0815 79.6694,84.4149 85.5,83.5 Z"/></g>
<g><path style="opacity:1" fill="#0179ff" d="M 205.5,82.5 C 205.833,83.1667 206.167,83.8333 206.5,84.5C 200.779,88.6974 195.112,93.1974 189.5,98C 183.999,100.49 179.332,104.156 175.5,109C 167.587,112.928 160.92,118.261 155.5,125C 150.876,126.645 146.543,128.812 142.5,131.5C 144.419,126.992 147.752,123.992 152.5,122.5C 157.765,116.418 164.098,111.585 171.5,108C 182.316,98.764 193.65,90.264 205.5,82.5 Z"/></g>
<g><path style="opacity:1" fill="#fcef0a" d="M 91.5,89.5 C 92.1667,89.5 92.8333,89.5 93.5,89.5C 93.427,91.0269 94.0937,92.0269 95.5,92.5C 96.1667,93.5 96.8333,94.5 97.5,95.5C 86.8497,96.2384 76.183,96.5717 65.5,96.5C 66.038,94.8828 66.3713,93.2161 66.5,91.5C 75.0681,91.8981 83.4014,91.2314 91.5,89.5 Z"/></g>
<g><path style="opacity:1" fill="#ffa000" d="M 66.5,82.5 C 66.6747,84.6208 66.3414,86.6208 65.5,88.5C 61.9131,90.2058 58.5797,92.3724 55.5,95C 53.3921,95.3599 51.3921,96.0266 49.5,97C 46.5402,98.9569 43.8736,101.124 41.5,103.5C 41.595,101.214 42.2616,99.2143 43.5,97.5C 48.0021,93.501 52.6687,89.6676 57.5,86C 60.5617,84.7951 63.5617,83.6284 66.5,82.5 Z"/></g>
<g><path style="opacity:1" fill="#0695fe" d="M 203.5,79.5 C 204.401,80.2905 205.068,81.2905 205.5,82.5C 193.65,90.264 182.316,98.764 171.5,108C 164.098,111.585 157.765,116.418 152.5,122.5C 147.752,123.992 144.419,126.992 142.5,131.5C 141.789,133.201 140.455,134.201 138.5,134.5C 137.197,132.858 135.864,131.191 134.5,129.5C 139.987,125.192 145.654,121.026 151.5,117C 156.242,116.806 159.242,114.473 160.5,110C 162.167,109.667 163.833,109.333 165.5,109C 171.827,103.834 177.827,98.3345 183.5,92.5C 189.911,87.6371 196.578,83.3038 203.5,79.5 Z"/></g>
<g><path style="opacity:1" fill="#d7fd09" d="M 97.5,95.5 C 98.8333,96.5 100.167,97.5 101.5,98.5C 101.833,99.1667 102.167,99.8333 102.5,100.5C 89.8859,100.107 77.2193,100.107 64.5,100.5C 64.5,99.5 64.5,98.5 64.5,97.5C 65.1667,97.5 65.5,97.1667 65.5,96.5C 76.183,96.5717 86.8497,96.2384 97.5,95.5 Z"/></g>
<g><path style="opacity:1" fill="#bcad5c" d="M 64.5,97.5 C 64.5,98.5 64.5,99.5 64.5,100.5C 63.5,103.167 62.5,105.833 61.5,108.5C 60.7333,112.149 59.3999,115.482 57.5,118.5C 57.5,118.167 57.5,117.833 57.5,117.5C 58.5,114.167 59.5,110.833 60.5,107.5C 61.6567,104.016 62.99,100.683 64.5,97.5 Z"/></g>
<g><path style="opacity:1" fill="#02defe" d="M 198.5,72.5 C 199.401,73.2905 200.068,74.2905 200.5,75.5C 195.673,81.8051 189.339,85.9717 181.5,88C 179.981,89.3513 178.648,90.8513 177.5,92.5C 168.627,96.7141 161.294,102.714 155.5,110.5C 147.19,115.496 139.19,120.829 131.5,126.5C 130.5,126.167 129.833,125.5 129.5,124.5C 141.381,116.053 152.715,106.886 163.5,97C 170.369,92.7332 177.369,88.7332 184.5,85C 186.037,83.8904 186.703,82.3904 186.5,80.5C 187.552,80.6495 188.552,80.4828 189.5,80C 192.192,77.0993 195.192,74.5993 198.5,72.5 Z"/></g>
<g><path style="opacity:1" fill="#ffca00" d="M 65.5,88.5 C 65.7845,90.4147 65.4511,92.0813 64.5,93.5C 60.3945,97.4414 56.3945,101.608 52.5,106C 51.1667,106.333 49.8333,106.667 48.5,107C 45.2675,109.767 41.9342,112.267 38.5,114.5C 39.0364,110.686 40.0364,107.019 41.5,103.5C 43.8736,101.124 46.5402,98.9569 49.5,97C 51.3921,96.0266 53.3921,95.3599 55.5,95C 58.5797,92.3724 61.9131,90.2058 65.5,88.5 Z"/></g>
<g><path style="opacity:1" fill="#01f7fe" d="M 196.5,70.5 C 197.5,70.8333 198.167,71.5 198.5,72.5C 195.192,74.5993 192.192,77.0993 189.5,80C 188.552,80.4828 187.552,80.6495 186.5,80.5C 186.703,82.3904 186.037,83.8904 184.5,85C 177.369,88.7332 170.369,92.7332 163.5,97C 152.715,106.886 141.381,116.053 129.5,124.5C 128.833,124.5 128.5,124.167 128.5,123.5C 131.002,121.83 133.002,119.664 134.5,117C 148.509,107.521 161.842,97.3541 174.5,86.5C 177.436,85.8849 180.103,84.7183 182.5,83C 187.52,79.029 192.187,74.8623 196.5,70.5 Z"/></g>
<g><path style="opacity:1" fill="#03febb" d="M 188.5,61.5 C 190.914,62.9108 192.581,64.9108 193.5,67.5C 185.308,73.8269 176.641,79.6602 167.5,85C 158.809,93.5296 149.143,100.696 138.5,106.5C 137.05,107.85 136.383,109.516 136.5,111.5C 135.448,111.351 134.448,111.517 133.5,112C 130.462,114.654 127.796,117.487 125.5,120.5C 123.46,118.823 121.46,117.156 119.5,115.5C 135.549,104.805 150.883,93.1382 165.5,80.5C 172.838,77.6769 178.838,73.1769 183.5,67C 186.772,66.5635 188.439,64.7301 188.5,61.5 Z"/></g>
<g><path style="opacity:1" fill="#96fd05" d="M 102.5,100.5 C 105.167,102.5 107.5,104.833 109.5,107.5C 93.4439,106.103 77.4439,106.437 61.5,108.5C 62.5,105.833 63.5,103.167 64.5,100.5C 77.2193,100.107 89.8859,100.107 102.5,100.5 Z"/></g>
<g><path style="opacity:1" fill="#01fe99" d="M 187.5,61.5 C 187.833,61.5 188.167,61.5 188.5,61.5C 188.439,64.7301 186.772,66.5635 183.5,67C 178.838,73.1769 172.838,77.6769 165.5,80.5C 150.883,93.1382 135.549,104.805 119.5,115.5C 118.5,115.167 117.833,114.5 117.5,113.5C 118.552,113.649 119.552,113.483 120.5,113C 123.153,109.003 126.82,106.669 131.5,106C 132.376,104.414 133.376,102.914 134.5,101.5C 142.058,97.736 148.391,92.5693 153.5,86C 158.001,83.5275 162.001,80.5275 165.5,77C 170.539,73.9713 175.539,70.9713 180.5,68C 183.26,66.2571 185.593,64.0904 187.5,61.5 Z"/></g>
<g><path style="opacity:1" fill="#edfc00" d="M 64.5,93.5 C 64.5,94.8333 64.5,96.1667 64.5,97.5C 62.99,100.683 61.6567,104.016 60.5,107.5C 52.6069,112.604 44.9402,117.938 37.5,123.5C 37.9629,120.518 38.2962,117.518 38.5,114.5C 41.9342,112.267 45.2675,109.767 48.5,107C 49.8333,106.667 51.1667,106.333 52.5,106C 56.3945,101.608 60.3945,97.4414 64.5,93.5 Z"/></g>
<g><path style="opacity:1" fill="#1c05ff" d="M 210.5,93.5 C 212.601,96.7966 213.935,100.463 214.5,104.5C 208.777,108.623 202.777,112.456 196.5,116C 195.624,117.586 194.624,119.086 193.5,120.5C 187.994,123.859 182.66,127.359 177.5,131C 170.363,138.864 162.03,145.03 152.5,149.5C 149.833,146.5 147.167,143.5 144.5,140.5C 152.149,135.192 159.815,129.859 167.5,124.5C 170.27,122.439 172.604,119.939 174.5,117C 179.095,115.543 182.761,112.876 185.5,109C 194.308,104.309 202.641,99.1428 210.5,93.5 Z"/></g>
<g><path style="opacity:1" fill="#03fee5" d="M 193.5,67.5 C 195.19,67.8564 196.19,68.8564 196.5,70.5C 192.187,74.8623 187.52,79.029 182.5,83C 180.103,84.7183 177.436,85.8849 174.5,86.5C 161.842,97.3541 148.509,107.521 134.5,117C 133.002,119.664 131.002,121.83 128.5,123.5C 127.167,122.833 126.167,121.833 125.5,120.5C 127.796,117.487 130.462,114.654 133.5,112C 134.448,111.517 135.448,111.351 136.5,111.5C 136.383,109.516 137.05,107.85 138.5,106.5C 149.143,100.696 158.809,93.5296 167.5,85C 176.641,79.6602 185.308,73.8269 193.5,67.5 Z"/></g>
<g><path style="opacity:1" fill="#2dff09" d="M 109.5,107.5 C 113.5,111.833 117.5,116.167 121.5,120.5C 100.163,121.088 78.83,121.755 57.5,122.5C 57.5,121.167 57.5,119.833 57.5,118.5C 59.3999,115.482 60.7333,112.149 61.5,108.5C 77.4439,106.437 93.4439,106.103 109.5,107.5 Z"/></g>
<g><path style="opacity:1" fill="#bcff00" d="M 60.5,107.5 C 59.5,110.833 58.5,114.167 57.5,117.5C 50.6118,121.291 43.9452,125.624 37.5,130.5C 37.5,128.167 37.5,125.833 37.5,123.5C 44.9402,117.938 52.6069,112.604 60.5,107.5 Z"/></g>
<g><path style="opacity:1" fill="#05bafe" d="M 200.5,75.5 C 201.488,76.795 202.488,78.1283 203.5,79.5C 196.578,83.3038 189.911,87.6371 183.5,92.5C 177.827,98.3345 171.827,103.834 165.5,109C 163.833,109.333 162.167,109.667 160.5,110C 159.242,114.473 156.242,116.806 151.5,117C 145.654,121.026 139.987,125.192 134.5,129.5C 133.167,128.833 132.167,127.833 131.5,126.5C 139.19,120.829 147.19,115.496 155.5,110.5C 161.294,102.714 168.627,96.7141 177.5,92.5C 178.648,90.8513 179.981,89.3513 181.5,88C 189.339,85.9717 195.673,81.8051 200.5,75.5 Z"/></g>
<g><path style="opacity:1" fill="#bbad58" d="M 57.5,118.5 C 57.5,119.833 57.5,121.167 57.5,122.5C 56.4625,123.93 55.7959,125.597 55.5,127.5C 55.4431,128.609 55.1098,129.609 54.5,130.5C 54.5,131.167 54.1667,131.5 53.5,131.5C 54.0569,126.835 55.3902,122.502 57.5,118.5 Z"/></g>
<g><path style="opacity:1" fill="#02fe46" d="M 121.5,120.5 C 123.167,121.5 124.5,122.833 125.5,124.5C 102.157,125.265 78.8233,126.265 55.5,127.5C 55.7959,125.597 56.4625,123.93 57.5,122.5C 78.83,121.755 100.163,121.088 121.5,120.5 Z"/></g>
<g><path style="opacity:1" fill="#025bff" d="M 206.5,84.5 C 207.537,85.9303 208.204,87.597 208.5,89.5C 197.964,94.8016 187.964,100.968 178.5,108C 174.904,112.72 170.571,116.553 165.5,119.5C 161.521,124.341 156.855,128.508 151.5,132C 147.696,133.357 144.03,134.857 140.5,136.5C 139.5,136.167 138.833,135.5 138.5,134.5C 140.455,134.201 141.789,133.201 142.5,131.5C 146.543,128.812 150.876,126.645 155.5,125C 160.92,118.261 167.587,112.928 175.5,109C 179.332,104.156 183.999,100.49 189.5,98C 195.112,93.1974 200.779,88.6974 206.5,84.5 Z"/></g>
<g><path style="opacity:1" fill="#01fe72" d="M 125.5,124.5 C 126.833,125.167 127.833,126.167 128.5,127.5C 103.861,128.96 79.1948,129.96 54.5,130.5C 55.1098,129.609 55.4431,128.609 55.5,127.5C 78.8233,126.265 102.157,125.265 125.5,124.5 Z"/></g>
<g><path style="opacity:1" fill="#d600ff" d="M 217.5,122.5 C 217.5,122.833 217.5,123.167 217.5,123.5C 212.378,127.899 207.045,132.066 201.5,136C 200.167,137.667 198.833,139.333 197.5,141C 192.615,142.883 187.948,145.216 183.5,148C 176.942,153.804 170.609,159.804 164.5,166C 157.861,169.956 151.195,173.956 144.5,178C 143.776,181.771 141.443,183.437 137.5,183C 133.676,185.824 131.009,189.491 129.5,194C 119.939,200.757 110.606,207.591 101.5,214.5C 99.597,214.204 97.9303,213.537 96.5,212.5C 97.4756,211.185 98.4756,209.852 99.5,208.5C 110.124,201.529 120.124,193.863 129.5,185.5C 137.061,180.229 144.394,174.729 151.5,169C 159.559,163.925 167.559,158.758 175.5,153.5C 177.221,150.093 179.555,147.26 182.5,145C 189.108,141.544 195.108,137.378 200.5,132.5C 205.197,131.668 208.53,129.168 210.5,125C 212.743,123.864 215.076,123.03 217.5,122.5 Z"/></g>
<g><path style="opacity:1" fill="#0138ff" d="M 208.5,89.5 C 209.674,90.5137 210.34,91.847 210.5,93.5C 202.641,99.1428 194.308,104.309 185.5,109C 182.761,112.876 179.095,115.543 174.5,117C 172.604,119.939 170.27,122.439 167.5,124.5C 159.815,129.859 152.149,135.192 144.5,140.5C 142.833,139.5 141.5,138.167 140.5,136.5C 144.03,134.857 147.696,133.357 151.5,132C 156.855,128.508 161.521,124.341 165.5,119.5C 170.571,116.553 174.904,112.72 178.5,108C 187.964,100.968 197.964,94.8016 208.5,89.5 Z"/></g>
<g><path style="opacity:1" fill="#13fea0" d="M 128.5,127.5 C 129.833,128.167 130.833,129.167 131.5,130.5C 107.46,131.542 83.4596,133.208 59.5,135.5C 56.9746,135.497 54.6413,135.163 52.5,134.5C 52.5,133.5 52.5,132.5 52.5,131.5C 52.8333,131.5 53.1667,131.5 53.5,131.5C 54.1667,131.5 54.5,131.167 54.5,130.5C 79.1948,129.96 103.861,128.96 128.5,127.5 Z"/></g>
<g><path style="opacity:1" fill="#83fe00" d="M 57.5,117.5 C 57.5,117.833 57.5,118.167 57.5,118.5C 55.3902,122.502 54.0569,126.835 53.5,131.5C 53.1667,131.5 52.8333,131.5 52.5,131.5C 46.9581,132.271 42.2914,134.604 38.5,138.5C 37.612,135.946 37.2786,133.279 37.5,130.5C 43.9452,125.624 50.6118,121.291 57.5,117.5 Z"/></g>
<g><path style="opacity:1" fill="#19fdca" d="M 131.5,130.5 C 133.833,132.167 135.833,134.167 137.5,136.5C 108.814,137.099 80.1473,138.266 51.5,140C 53.5,140.333 55.5,140.667 57.5,141C 54.4956,141.117 51.829,141.951 49.5,143.5C 49.9281,140.215 50.9281,137.215 52.5,134.5C 54.6413,135.163 56.9746,135.497 59.5,135.5C 83.4596,133.208 107.46,131.542 131.5,130.5 Z"/></g>
<g><path style="opacity:1" fill="#02fcf5" d="M 137.5,136.5 C 138.167,136.5 138.5,136.833 138.5,137.5C 125.495,137.682 112.495,138.015 99.5,138.5C 99.5,139.5 99.5,140.5 99.5,141.5C 82.8387,142.499 66.1721,143.499 49.5,144.5C 49.5,144.167 49.5,143.833 49.5,143.5C 51.829,141.951 54.4956,141.117 57.5,141C 55.5,140.667 53.5,140.333 51.5,140C 80.1473,138.266 108.814,137.099 137.5,136.5 Z"/></g>
<g><path style="opacity:1" fill="#02e7fe" d="M 138.5,137.5 C 140.167,138.5 141.5,139.833 142.5,141.5C 111.449,141.825 80.4494,143.158 49.5,145.5C 49.5,145.167 49.5,144.833 49.5,144.5C 66.1721,143.499 82.8387,142.499 99.5,141.5C 99.5,140.5 99.5,139.5 99.5,138.5C 112.495,138.015 125.495,137.682 138.5,137.5 Z"/></g>
<g><path style="opacity:1" fill="#01c8ff" d="M 142.5,141.5 C 143.5,141.833 144.167,142.5 144.5,143.5C 112.505,144.951 80.5048,146.284 48.5,147.5C 48.8333,146.833 49.1667,146.167 49.5,145.5C 80.4494,143.158 111.449,141.825 142.5,141.5 Z"/></g>
<g><path style="opacity:1" fill="#b3a45c" d="M 49.5,143.5 C 49.5,143.833 49.5,144.167 49.5,144.5C 49.5,144.833 49.5,145.167 49.5,145.5C 49.1667,146.167 48.8333,146.833 48.5,147.5C 48.4431,148.609 48.1098,149.609 47.5,150.5C 47.5,150.833 47.5,151.167 47.5,151.5C 47.4431,152.609 47.1098,153.609 46.5,154.5C 46.5,155.167 46.1667,155.5 45.5,155.5C 45.9264,151.098 47.2597,147.098 49.5,143.5 Z"/></g>
<g><path style="opacity:1" fill="#33fe0b" d="M 52.5,131.5 C 52.5,132.5 52.5,133.5 52.5,134.5C 50.9281,137.215 49.9281,140.215 49.5,143.5C 47.2597,147.098 45.9264,151.098 45.5,155.5C 44.8333,156.5 44.1667,157.5 43.5,158.5C 40.2907,152.33 38.624,145.663 38.5,138.5C 42.2914,134.604 46.9581,132.271 52.5,131.5 Z"/></g>
<g><path style="opacity:1" fill="#03b1fe" d="M 144.5,143.5 C 145.5,143.833 146.167,144.5 146.5,145.5C 113.489,146.918 80.4895,148.584 47.5,150.5C 48.1098,149.609 48.4431,148.609 48.5,147.5C 80.5048,146.284 112.505,144.951 144.5,143.5 Z"/></g>
<g><path style="opacity:1" fill="#009bff" d="M 146.5,145.5 C 147.167,145.5 147.5,145.833 147.5,146.5C 114.176,148.323 80.8422,149.99 47.5,151.5C 47.5,151.167 47.5,150.833 47.5,150.5C 80.4895,148.584 113.489,146.918 146.5,145.5 Z"/></g>
<g><path style="opacity:1" fill="#027dff" d="M 147.5,146.5 C 148.833,147.167 149.833,148.167 150.5,149.5C 115.851,151.558 81.1847,153.224 46.5,154.5C 47.1098,153.609 47.4431,152.609 47.5,151.5C 80.8422,149.99 114.176,148.323 147.5,146.5 Z"/></g>
<g><path style="opacity:1" fill="#6000fe" d="M 214.5,104.5 C 215.319,106.772 215.985,109.106 216.5,111.5C 215.305,111.678 214.138,112.011 213,112.5C 207.333,116.386 201.833,120.386 196.5,124.5C 187.545,134.496 176.879,142.329 164.5,148C 158.673,153.324 152.673,158.491 146.5,163.5C 144.885,164.154 143.218,164.654 141.5,165C 134.818,172.184 127.151,178.184 118.5,183C 117.743,184.512 116.743,185.846 115.5,187C 110.528,190.295 105.861,193.795 101.5,197.5C 102.262,193.329 103.262,189.329 104.5,185.5C 110.217,183.608 114.55,180.108 117.5,175C 122.691,172.918 127.691,170.251 132.5,167C 134.081,165.172 135.415,163.172 136.5,161C 139.946,158.586 143.28,156.086 146.5,153.5C 148.086,152.852 149.753,152.352 151.5,152C 152.252,151.329 152.586,150.496 152.5,149.5C 162.03,145.03 170.363,138.864 177.5,131C 182.66,127.359 187.994,123.859 193.5,120.5C 194.624,119.086 195.624,117.586 196.5,116C 202.777,112.456 208.777,108.623 214.5,104.5 Z"/></g>
<g><path style="opacity:1" fill="#a1854b" d="M 109.5,107.5 C 111.062,107.733 112.395,108.4 113.5,109.5C 114.167,110.833 115.167,111.833 116.5,112.5C 116.5,113.167 116.833,113.5 117.5,113.5C 117.833,114.5 118.5,115.167 119.5,115.5C 121.46,117.156 123.46,118.823 125.5,120.5C 126.167,121.833 127.167,122.833 128.5,123.5C 128.5,124.167 128.833,124.5 129.5,124.5C 129.833,125.5 130.5,126.167 131.5,126.5C 132.167,127.833 133.167,128.833 134.5,129.5C 135.864,131.191 137.197,132.858 138.5,134.5C 138.833,135.5 139.5,136.167 140.5,136.5C 141.5,138.167 142.833,139.5 144.5,140.5C 147.167,143.5 149.833,146.5 152.5,149.5C 152.586,150.496 152.252,151.329 151.5,152C 149.753,152.352 148.086,152.852 146.5,153.5C 136.224,153.034 126.224,154.368 116.5,157.5C 109.533,159.044 102.867,161.377 96.5,164.5C 97.6302,165.622 98.2969,166.956 98.5,168.5C 93.7644,165.571 93.7644,163.238 98.5,161.5C 105.374,159.098 112.374,157.098 119.5,155.5C 130.048,153.432 140.382,151.432 150.5,149.5C 149.833,148.167 148.833,147.167 147.5,146.5C 147.5,145.833 147.167,145.5 146.5,145.5C 146.167,144.5 145.5,143.833 144.5,143.5C 144.167,142.5 143.5,141.833 142.5,141.5C 141.5,139.833 140.167,138.5 138.5,137.5C 138.5,136.833 138.167,136.5 137.5,136.5C 135.833,134.167 133.833,132.167 131.5,130.5C 130.833,129.167 129.833,128.167 128.5,127.5C 127.833,126.167 126.833,125.167 125.5,124.5C 124.5,122.833 123.167,121.5 121.5,120.5C 117.5,116.167 113.5,111.833 109.5,107.5 Z"/></g>
<g><path style="opacity:1" fill="#0b5ffe" d="M 150.5,149.5 C 140.382,151.432 130.048,153.432 119.5,155.5C 117.696,154.838 115.696,154.505 113.5,154.5C 90.8377,155.633 68.1711,156.633 45.5,157.5C 45.5,156.833 45.5,156.167 45.5,155.5C 46.1667,155.5 46.5,155.167 46.5,154.5C 81.1847,153.224 115.851,151.558 150.5,149.5 Z"/></g>
<g><path style="opacity:1" fill="#ff00ca" d="M 217.5,131.5 C 217.5,134.833 217.5,138.167 217.5,141.5C 214.626,142.844 211.626,144.01 208.5,145C 206.028,149.077 202.361,151.41 197.5,152C 186.822,160.022 176.489,168.356 166.5,177C 159.472,180.842 152.806,185.342 146.5,190.5C 145.258,192.733 143.924,194.899 142.5,197C 137.034,199.901 131.701,203.068 126.5,206.5C 123.046,210.436 119.379,214.103 115.5,217.5C 113.05,217.702 110.717,217.369 108.5,216.5C 111.765,215.235 114.098,212.902 115.5,209.5C 122.916,205.423 130.249,201.256 137.5,197C 137.933,194.067 139.599,192.233 142.5,191.5C 143.624,190.086 144.624,188.586 145.5,187C 155.889,179.671 165.556,171.671 174.5,163C 190.196,154.106 204.529,143.606 217.5,131.5 Z"/></g>
<g><path style="opacity:1" fill="#8b00fe" d="M 216.5,111.5 C 216.5,112.167 216.5,112.833 216.5,113.5C 213.702,115.423 210.702,117.256 207.5,119C 198.952,128.266 189.285,136.1 178.5,142.5C 175.487,146.84 171.321,149.507 166,150.5C 163.22,154.652 159.386,157.485 154.5,159C 147.46,164.844 140.46,170.677 133.5,176.5C 128.28,180.885 123.614,185.718 119.5,191C 111.746,195.9 104.079,201.067 96.5,206.5C 96.5,205.833 96.5,205.167 96.5,204.5C 97.9063,204.027 98.573,203.027 98.5,201.5C 99.9744,200.564 100.974,199.23 101.5,197.5C 105.861,193.795 110.528,190.295 115.5,187C 116.743,185.846 117.743,184.512 118.5,183C 127.151,178.184 134.818,172.184 141.5,165C 143.218,164.654 144.885,164.154 146.5,163.5C 152.673,158.491 158.673,153.324 164.5,148C 176.879,142.329 187.545,134.496 196.5,124.5C 201.833,120.386 207.333,116.386 213,112.5C 214.138,112.011 215.305,111.678 216.5,111.5 Z"/></g>
<g><path style="opacity:1" fill="#0530fe" d="M 119.5,155.5 C 112.374,157.098 105.374,159.098 98.5,161.5C 96.0221,160.836 93.3555,160.503 90.5,160.5C 74.8545,161.714 59.1878,162.381 43.5,162.5C 44.4408,160.95 45.1075,159.284 45.5,157.5C 68.1711,156.633 90.8377,155.633 113.5,154.5C 115.696,154.505 117.696,154.838 119.5,155.5 Z"/></g>
<g><path style="opacity:1" fill="#0e5dfd" d="M 116.5,157.5 C 113.659,160.173 110.659,162.673 107.5,165C 104.842,166.478 102.175,167.645 99.5,168.5C 99.1667,168.5 98.8333,168.5 98.5,168.5C 98.2969,166.956 97.6302,165.622 96.5,164.5C 102.867,161.377 109.533,159.044 116.5,157.5 Z"/></g>
<g><path style="opacity:1" fill="#ff00ae" d="M 217.5,141.5 C 217.167,142.167 216.833,142.833 216.5,143.5C 209.643,149.521 201.976,154.354 193.5,158C 180.276,168.927 166.609,179.26 152.5,189C 150.959,190.371 149.625,191.871 148.5,193.5C 145.577,199.239 140.91,203.073 134.5,205C 133.158,207.892 130.825,209.225 127.5,209C 126.833,210 126.167,211 125.5,212C 122.597,214.086 119.597,215.919 116.5,217.5C 116.167,217.5 115.833,217.5 115.5,217.5C 119.379,214.103 123.046,210.436 126.5,206.5C 131.701,203.068 137.034,199.901 142.5,197C 143.924,194.899 145.258,192.733 146.5,190.5C 152.806,185.342 159.472,180.842 166.5,177C 176.489,168.356 186.822,160.022 197.5,152C 202.361,151.41 206.028,149.077 208.5,145C 211.626,144.01 214.626,142.844 217.5,141.5 Z"/></g>
<g><path style="opacity:1" fill="#ff0099" d="M 216.5,143.5 C 216.371,145.216 216.038,146.883 215.5,148.5C 212.81,150.156 210.477,152.156 208.5,154.5C 202.898,155.847 198.232,158.68 194.5,163C 190.807,164.714 187.141,166.381 183.5,168C 176.725,175.118 169.392,181.451 161.5,187C 157.275,189.393 152.942,191.56 148.5,193.5C 149.625,191.871 150.959,190.371 152.5,189C 166.609,179.26 180.276,168.927 193.5,158C 201.976,154.354 209.643,149.521 216.5,143.5 Z"/></g>
<g><path style="opacity:1" fill="#fb00f5" d="M 217.5,123.5 C 218.657,126.307 218.657,128.974 217.5,131.5C 204.529,143.606 190.196,154.106 174.5,163C 165.556,171.671 155.889,179.671 145.5,187C 144.624,188.586 143.624,190.086 142.5,191.5C 139.599,192.233 137.933,194.067 137.5,197C 130.249,201.256 122.916,205.423 115.5,209.5C 114.098,212.902 111.765,215.235 108.5,216.5C 106.106,215.985 103.772,215.319 101.5,214.5C 110.606,207.591 119.939,200.757 129.5,194C 131.009,189.491 133.676,185.824 137.5,183C 141.443,183.437 143.776,181.771 144.5,178C 151.195,173.956 157.861,169.956 164.5,166C 170.609,159.804 176.942,153.804 183.5,148C 187.948,145.216 192.615,142.883 197.5,141C 198.833,139.333 200.167,137.667 201.5,136C 207.045,132.066 212.378,127.899 217.5,123.5 Z"/></g>
<g><path style="opacity:1" fill="#5000fe" d="M 98.5,161.5 C 93.7644,163.238 93.7644,165.571 98.5,168.5C 98.9707,170.579 99.6373,172.579 100.5,174.5C 79.8025,175.021 59.1358,176.021 38.5,177.5C 40.3627,172.579 42.0294,167.579 43.5,162.5C 59.1878,162.381 74.8545,161.714 90.5,160.5C 93.3555,160.503 96.0221,160.836 98.5,161.5 Z"/></g>
<g><path style="opacity:1" fill="#ac00ff" d="M 216.5,113.5 C 216.5,114.167 216.833,114.5 217.5,114.5C 217.5,117.167 217.5,119.833 217.5,122.5C 215.076,123.03 212.743,123.864 210.5,125C 208.53,129.168 205.197,131.668 200.5,132.5C 195.108,137.378 189.108,141.544 182.5,145C 179.555,147.26 177.221,150.093 175.5,153.5C 167.559,158.758 159.559,163.925 151.5,169C 144.394,174.729 137.061,180.229 129.5,185.5C 120.124,193.863 110.124,201.529 99.5,208.5C 98.4756,209.852 97.4756,211.185 96.5,212.5C 94.5853,212.784 92.9187,212.451 91.5,211.5C 92.8333,209.5 94.5,207.833 96.5,206.5C 104.079,201.067 111.746,195.9 119.5,191C 123.614,185.718 128.28,180.885 133.5,176.5C 140.46,170.677 147.46,164.844 154.5,159C 159.386,157.485 163.22,154.652 166,150.5C 171.321,149.507 175.487,146.84 178.5,142.5C 189.285,136.1 198.952,128.266 207.5,119C 210.702,117.256 213.702,115.423 216.5,113.5 Z"/></g>
<g><path style="opacity:1" fill="#ff0028" d="M 212.5,159.5 C 211.695,161.915 210.695,164.249 209.5,166.5C 205.285,167.048 202.618,169.381 201.5,173.5C 181.814,188.668 161.814,203.335 141.5,217.5C 139.784,217.629 138.117,217.962 136.5,218.5C 137.476,217.185 138.476,215.852 139.5,214.5C 150.653,206.453 161.986,198.62 173.5,191C 177.23,186.943 181.564,183.61 186.5,181C 187.071,179.795 187.738,178.628 188.5,177.5C 197.314,172.443 205.314,166.443 212.5,159.5 Z"/></g>
<g><path style="opacity:1" fill="#ff0005" d="M 209.5,166.5 C 195.439,194.884 172.773,211.884 141.5,217.5C 161.814,203.335 181.814,188.668 201.5,173.5C 202.618,169.381 205.285,167.048 209.5,166.5 Z"/></g>
<g><path style="opacity:1" fill="#9c00ff" d="M 100.5,174.5 C 100.557,175.609 100.89,176.609 101.5,177.5C 80.5206,178.927 59.5206,179.927 38.5,180.5C 38.5,179.5 38.5,178.5 38.5,177.5C 59.1358,176.021 79.8025,175.021 100.5,174.5 Z"/></g>
<g><path style="opacity:1" fill="#1d0efe" d="M 146.5,153.5 C 143.28,156.086 139.946,158.586 136.5,161C 135.415,163.172 134.081,165.172 132.5,167C 127.691,170.251 122.691,172.918 117.5,175C 114.55,180.108 110.217,183.608 104.5,185.5C 103.842,179.526 102.175,173.859 99.5,168.5C 102.175,167.645 104.842,166.478 107.5,165C 110.659,162.673 113.659,160.173 116.5,157.5C 126.224,154.368 136.224,153.034 146.5,153.5 Z"/></g>
<g><path style="opacity:1" fill="#ff0052" d="M 215.5,148.5 C 214.965,152.309 213.965,155.976 212.5,159.5C 205.314,166.443 197.314,172.443 188.5,177.5C 187.738,178.628 187.071,179.795 186.5,181C 181.564,183.61 177.23,186.943 173.5,191C 161.986,198.62 150.653,206.453 139.5,214.5C 138.476,215.852 137.476,217.185 136.5,218.5C 132.5,218.5 128.5,218.5 124.5,218.5C 130.843,212 138.176,206.834 146.5,203C 153.783,197.72 160.783,192.054 167.5,186C 173.391,183.554 178.391,179.887 182.5,175C 189.042,171.464 194.709,166.797 199.5,161C 202.621,158.867 205.621,156.701 208.5,154.5C 210.477,152.156 212.81,150.156 215.5,148.5 Z"/></g>
<g><path style="opacity:1" fill="#ce00ff" d="M 101.5,177.5 C 101.517,179.565 101.85,181.565 102.5,183.5C 80.8387,184.326 59.172,184.993 37.5,185.5C 37.6287,183.784 37.962,182.117 38.5,180.5C 59.5206,179.927 80.5206,178.927 101.5,177.5 Z"/></g>
<g><path style="opacity:1" fill="#9e8846" d="M 98.5,168.5 C 98.8333,168.5 99.1667,168.5 99.5,168.5C 102.175,173.859 103.842,179.526 104.5,185.5C 103.262,189.329 102.262,193.329 101.5,197.5C 100.974,199.23 99.9744,200.564 98.5,201.5C 99.038,199.883 99.3713,198.216 99.5,196.5C 100.345,195.329 101.011,193.995 101.5,192.5C 101.433,191.041 101.766,189.708 102.5,188.5C 102.5,186.833 102.5,185.167 102.5,183.5C 101.85,181.565 101.517,179.565 101.5,177.5C 100.89,176.609 100.557,175.609 100.5,174.5C 99.6373,172.579 98.9707,170.579 98.5,168.5 Z"/></g>
<g><path style="opacity:1" fill="#fc00ed" d="M 102.5,183.5 C 102.5,185.167 102.5,186.833 102.5,188.5C 81.1734,189.362 59.84,190.029 38.5,190.5C 37.6993,188.958 37.366,187.292 37.5,185.5C 59.172,184.993 80.8387,184.326 102.5,183.5 Z"/></g>
<g><path style="opacity:1" fill="#ff00c8" d="M 102.5,188.5 C 101.766,189.708 101.433,191.041 101.5,192.5C 80.8065,192.42 60.1398,193.087 39.5,194.5C 38.5655,193.432 38.2322,192.099 38.5,190.5C 59.84,190.029 81.1734,189.362 102.5,188.5 Z"/></g>
<g><path style="opacity:1" fill="#d4c7a5" d="M 45.5,155.5 C 45.5,156.167 45.5,156.833 45.5,157.5C 45.1075,159.284 44.4408,160.95 43.5,162.5C 42.0294,167.579 40.3627,172.579 38.5,177.5C 38.5,178.5 38.5,179.5 38.5,180.5C 37.962,182.117 37.6287,183.784 37.5,185.5C 37.366,187.292 37.6993,188.958 38.5,190.5C 38.2322,192.099 38.5655,193.432 39.5,194.5C 39.4326,195.959 39.7659,197.292 40.5,198.5C 41.2485,200.332 42.2485,201.999 43.5,203.5C 44.5,205.167 45.8333,206.5 47.5,207.5C 48.1667,208.5 48.8333,209.5 49.5,210.5C 46.8508,208.86 44.1841,207.193 41.5,205.5C 40.1413,203.173 38.6413,200.84 37,198.5C 35.6953,191.874 35.3619,185.208 36,178.5C 38.8121,171.843 41.3121,165.176 43.5,158.5C 44.1667,157.5 44.8333,156.5 45.5,155.5 Z"/></g>
<g><path style="opacity:1" fill="#ff0097" d="M 101.5,192.5 C 101.011,193.995 100.345,195.329 99.5,196.5C 79.8276,197.01 60.161,197.677 40.5,198.5C 39.7659,197.292 39.4326,195.959 39.5,194.5C 60.1398,193.087 80.8065,192.42 101.5,192.5 Z"/></g>
<g><path style="opacity:1" fill="#ff0084" d="M 208.5,154.5 C 205.621,156.701 202.621,158.867 199.5,161C 194.709,166.797 189.042,171.464 182.5,175C 178.391,179.887 173.391,183.554 167.5,186C 160.783,192.054 153.783,197.72 146.5,203C 138.176,206.834 130.843,212 124.5,218.5C 121.615,218.806 118.948,218.473 116.5,217.5C 119.597,215.919 122.597,214.086 125.5,212C 126.167,211 126.833,210 127.5,209C 130.825,209.225 133.158,207.892 134.5,205C 140.91,203.073 145.577,199.239 148.5,193.5C 152.942,191.56 157.275,189.393 161.5,187C 169.392,181.451 176.725,175.118 183.5,168C 187.141,166.381 190.807,164.714 194.5,163C 198.232,158.68 202.898,155.847 208.5,154.5 Z"/></g>
<g><path style="opacity:1" fill="#ff0062" d="M 99.5,196.5 C 99.3713,198.216 99.038,199.883 98.5,201.5C 80.17,202.243 61.8367,202.91 43.5,203.5C 42.2485,201.999 41.2485,200.332 40.5,198.5C 60.161,197.677 79.8276,197.01 99.5,196.5 Z"/></g>
<g><path style="opacity:1" fill="#fe0a2b" d="M 98.5,201.5 C 98.573,203.027 97.9063,204.027 96.5,204.5C 95.8333,204.833 95.1667,205.167 94.5,205.5C 78.8545,206.624 63.1879,207.29 47.5,207.5C 45.8333,206.5 44.5,205.167 43.5,203.5C 61.8367,202.91 80.17,202.243 98.5,201.5 Z"/></g>
<g><path style="opacity:1" fill="#bfa664" d="M 96.5,204.5 C 96.5,205.167 96.5,205.833 96.5,206.5C 94.5,207.833 92.8333,209.5 91.5,211.5C 90.596,212.209 90.2627,213.209 90.5,214.5C 83.7295,216.854 76.7295,218.187 69.5,218.5C 64.2522,218.858 59.5855,217.525 55.5,214.5C 66.0806,218.908 76.414,218.408 86.5,213C 89.6657,211 92.3324,208.5 94.5,205.5C 95.1667,205.167 95.8333,204.833 96.5,204.5 Z"/></g>
<g><path style="opacity:1" fill="#cacaca" d="M 217.5,114.5 C 223.529,148.247 214.196,177.08 189.5,201C 160.365,224.634 128.031,230.134 92.5,217.5C 83.9209,222.858 74.5876,225.025 64.5,224C 58.965,221.15 53.2983,218.483 47.5,216C 45.277,212.615 43.277,209.115 41.5,205.5C 44.1841,207.193 46.8508,208.86 49.5,210.5C 51.8816,211.351 53.8816,212.684 55.5,214.5C 59.5855,217.525 64.2522,218.858 69.5,218.5C 76.7295,218.187 83.7295,216.854 90.5,214.5C 90.2627,213.209 90.596,212.209 91.5,211.5C 92.9187,212.451 94.5853,212.784 96.5,212.5C 97.9303,213.537 99.597,214.204 101.5,214.5C 103.772,215.319 106.106,215.985 108.5,216.5C 110.717,217.369 113.05,217.702 115.5,217.5C 115.833,217.5 116.167,217.5 116.5,217.5C 118.948,218.473 121.615,218.806 124.5,218.5C 128.5,218.5 132.5,218.5 136.5,218.5C 138.117,217.962 139.784,217.629 141.5,217.5C 172.773,211.884 195.439,194.884 209.5,166.5C 210.695,164.249 211.695,161.915 212.5,159.5C 213.965,155.976 214.965,152.309 215.5,148.5C 216.038,146.883 216.371,145.216 216.5,143.5C 216.833,142.833 217.167,142.167 217.5,141.5C 217.5,138.167 217.5,134.833 217.5,131.5C 218.657,128.974 218.657,126.307 217.5,123.5C 217.5,123.167 217.5,122.833 217.5,122.5C 217.5,119.833 217.5,117.167 217.5,114.5 Z"/></g>
<g><path style="opacity:1" fill="#fe0403" d="M 94.5,205.5 C 92.3324,208.5 89.6657,211 86.5,213C 76.414,218.408 66.0806,218.908 55.5,214.5C 53.8816,212.684 51.8816,211.351 49.5,210.5C 48.8333,209.5 48.1667,208.5 47.5,207.5C 63.1879,207.29 78.8545,206.624 94.5,205.5 Z"/></g>
</svg>
