<?xml version="1.0" encoding="UTF-8"?>
<!DOCTYPE svg PUBLIC "-//W3C//DTD SVG 1.1//EN" "http://www.w3.org/Graphics/SVG/1.1/DTD/svg11.dtd">
<svg xmlns="http://www.w3.org/2000/svg" version="1.1" width="256px" height="256px" style="shape-rendering:geometricPrecision; text-rendering:geometricPrecision; image-rendering:optimizeQuality; fill-rule:evenodd; clip-rule:evenodd" xmlns:xlink="http://www.w3.org/1999/xlink">
<g><path style="opacity:0.02" fill="#000000" d="M 21.5,7.5 C 22.8333,8.16667 22.8333,8.16667 21.5,7.5 Z"/></g>
<g><path style="opacity:0.02" fill="#000000" d="M 232.5,7.5 C 233.833,8.16667 233.833,8.16667 232.5,7.5 Z"/></g>
<g><path style="opacity:0.035" fill="#e1e1e1" d="M 17.5,9.5 C 17.8966,8.47498 18.5632,8.30831 19.5,9C 18.9056,9.46434 18.2389,9.63101 17.5,9.5 Z"/></g>
<g><path style="opacity:0.035" fill="#fefffe" d="M 235.5,8.5 C 236.833,9.16667 236.833,9.16667 235.5,8.5 Z"/></g>
<g><path style="opacity:0.086" fill="#a2a2a2" d="M 15.5,10.5 C 15.8417,9.66175 16.5084,9.32842 17.5,9.5C 17.1583,10.3382 16.4916,10.6716 15.5,10.5 Z"/></g>
<g><path style="opacity:0.008" fill="#4e4e4e" d="M 239.5,10.5 C 238.761,10.631 238.094,10.4643 237.5,10C 238.437,9.30831 239.103,9.47498 239.5,10.5 Z"/></g>
<g><path style="opacity:0.051" fill="#fefffe" d="M 15.5,10.5 C 14.8333,11.1667 14.8333,11.1667 15.5,10.5 Z"/></g>
<g><path style="opacity:0.051" fill="#fefffe" d="M 239.5,10.5 C 240.167,10.5 240.5,10.8333 240.5,11.5C 240.167,11.1667 239.833,10.8333 239.5,10.5 Z"/></g>
<g><path style="opacity:0.075" fill="#fefffe" d="M 14.5,11.5 C 13.8333,12.1667 13.8333,12.1667 14.5,11.5 Z"/></g>
<g><path style="opacity:0.075" fill="#fefffe" d="M 240.5,11.5 C 241.167,11.5 241.5,11.8333 241.5,12.5C 241.167,12.1667 240.833,11.8333 240.5,11.5 Z"/></g>
<g><path style="opacity:0.082" fill="#fefffe" d="M 13.5,12.5 C 12.8333,13.1667 12.8333,13.1667 13.5,12.5 Z"/></g>
<g><path style="opacity:0.082" fill="#fefffe" d="M 241.5,12.5 C 242.167,12.5 242.5,12.8333 242.5,13.5C 242.167,13.1667 241.833,12.8333 241.5,12.5 Z"/></g>
<g><path style="opacity:0.075" fill="#fefffe" d="M 12.5,13.5 C 11.8333,14.1667 11.8333,14.1667 12.5,13.5 Z"/></g>
<g><path style="opacity:0.075" fill="#fefffe" d="M 242.5,13.5 C 243.167,13.5 243.5,13.8333 243.5,14.5C 243.167,14.1667 242.833,13.8333 242.5,13.5 Z"/></g>
<g><path style="opacity:0.051" fill="#fefffe" d="M 11.5,14.5 C 10.8333,15.1667 10.8333,15.1667 11.5,14.5 Z"/></g>
<g><path style="opacity:0.051" fill="#fefffe" d="M 243.5,14.5 C 244.167,14.5 244.5,14.8333 244.5,15.5C 244.167,15.1667 243.833,14.8333 243.5,14.5 Z"/></g>
<g><path style="opacity:0.086" fill="#a2a2a2" d="M 10.5,15.5 C 10.631,16.2389 10.4643,16.9056 10,17.5C 9.30831,16.5632 9.47498,15.8966 10.5,15.5 Z"/></g>
<g><path style="opacity:0.086" fill="#a2a2a2" d="M 244.5,15.5 C 245.525,15.8966 245.692,16.5632 245,17.5C 244.536,16.9056 244.369,16.2389 244.5,15.5 Z"/></g>
<g><path style="opacity:0.035" fill="#fefffe" d="M 8.5,18.5 C 9.83333,19.1667 9.83333,19.1667 8.5,18.5 Z"/></g>
<g><path style="opacity:0.035" fill="#fefffe" d="M 245.5,18.5 C 246.833,19.1667 246.833,19.1667 245.5,18.5 Z"/></g>
<g><path style="opacity:0.02" fill="#000000" d="M 7.5,21.5 C 8.83333,22.1667 8.83333,22.1667 7.5,21.5 Z"/></g>
<g><path style="opacity:0.02" fill="#000000" d="M 246.5,21.5 C 247.833,22.1667 247.833,22.1667 246.5,21.5 Z"/></g>
<g><path style="opacity:0.978" fill="#f6eeee" d="M 69.5,152.5 C 69.5,135.833 69.5,119.167 69.5,102.5C 69.4142,101.504 69.7476,100.671 70.5,100C 106.988,92.026 139.988,77.3593 169.5,56C 181.162,55.5001 192.829,55.3335 204.5,55.5C 204.167,64.8333 203.833,74.1667 203.5,83.5C 214.83,81.6648 226.163,81.4981 237.5,83C 238.5,83.8333 239.5,84.6667 240.5,85.5C 240.5,88.5 240.5,91.5 240.5,94.5C 239.91,95.7989 238.91,96.6322 237.5,97C 226.072,99.1021 214.738,98.9355 203.5,96.5C 203.333,117.503 203.5,138.503 204,159.5C 204.465,158.069 205.299,156.903 206.5,156C 210,155.833 213.5,155.667 217,155.5C 224.049,155.321 230.882,156.154 237.5,158C 238.5,158.833 239.5,159.667 240.5,160.5C 239.167,163.5 239.167,166.5 240.5,169.5C 239.91,170.799 238.91,171.632 237.5,172C 232.164,172.47 226.83,172.97 221.5,173.5C 215.539,172.441 209.539,171.774 203.5,171.5C 203.833,180.833 204.167,190.167 204.5,199.5C 192.829,199.667 181.162,199.5 169.5,199C 138.608,176.492 105.608,161.825 70.5,155C 69.7476,154.329 69.4142,153.496 69.5,152.5 Z"/></g>
<g><path style="opacity:1" fill="#0ba5fc" d="M 198.5,71.5 C 198.5,74.1667 198.5,76.8333 198.5,79.5C 191.988,84.1755 187.155,90.1755 184,97.5C 181.6,99.7293 179.433,102.063 177.5,104.5C 176.655,103.329 175.989,101.995 175.5,100.5C 180.278,98.2225 183.444,94.5559 185,89.5C 189.62,86.2253 192.62,81.892 194,76.5C 195.736,74.9368 197.236,73.2701 198.5,71.5 Z"/></g>
<g><path style="opacity:1" fill="#06fe58" d="M 171.5,70.5 C 172.833,70.5 174.167,70.5 175.5,70.5C 171.1,79.42 164.933,87.0866 157,93.5C 156.333,95.5 155.667,97.5 155,99.5C 153.293,101.037 151.793,102.704 150.5,104.5C 148.365,104.147 147.032,104.98 146.5,107C 147.377,109.253 148.377,111.419 149.5,113.5C 148.277,116.398 146.277,118.731 143.5,120.5C 142.521,116.539 140.521,113.206 137.5,110.5C 138.462,108.014 139.295,108.014 140,110.5C 144.877,106.642 148.543,101.975 151,96.5C 157.252,91.5994 161.919,85.5994 165,78.5C 167.758,76.2488 169.925,73.5821 171.5,70.5 Z"/></g>
<g><path style="opacity:1" fill="#07fed1" d="M 182.5,70.5 C 184.833,70.5 187.167,70.5 189.5,70.5C 187.896,73.9432 186.062,77.2766 184,80.5C 180.235,84.6712 176.735,89.0045 173.5,93.5C 172.5,92.8333 171.5,92.1667 170.5,91.5C 174.429,84.5438 178.429,77.5438 182.5,70.5 Z"/></g>
<g><path style="opacity:1" fill="#0069ff" d="M 198.5,83.5 C 198.5,84.5 198.5,85.5 198.5,86.5C 191.789,93.7522 185.789,101.419 180.5,109.5C 180.062,109.565 179.728,109.399 179.5,109C 182.181,106.806 183.681,103.973 184,100.5C 189.335,95.0973 194.168,89.4306 198.5,83.5 Z"/></g>
<g><path style="opacity:1" fill="#06feab" d="M 179.5,70.5 C 180.5,70.5 181.5,70.5 182.5,70.5C 178.429,77.5438 174.429,84.5438 170.5,91.5C 168.047,93.0417 167.38,95.0417 168.5,97.5C 167.559,99.7721 166.226,101.772 164.5,103.5C 163.145,101.479 161.479,99.8121 159.5,98.5C 161.461,96.0365 163.628,93.7032 166,91.5C 169.503,83.8363 174.003,76.8363 179.5,70.5 Z"/></g>
<g><path style="opacity:1" fill="#01f7fd" d="M 189.5,70.5 C 190.833,70.5 192.167,70.5 193.5,70.5C 187.5,79.1667 181.5,87.8333 175.5,96.5C 174.761,96.631 174.094,96.4643 173.5,96C 174.598,95.2303 174.598,94.397 173.5,93.5C 176.735,89.0045 180.235,84.6712 184,80.5C 186.062,77.2766 187.896,73.9432 189.5,70.5 Z"/></g>
<g><path style="opacity:1" fill="#cbc5d5" d="M 170.5,91.5 C 171.5,92.1667 172.5,92.8333 173.5,93.5C 174.598,94.397 174.598,95.2303 173.5,96C 174.094,96.4643 174.761,96.631 175.5,96.5C 174.167,97.8333 174.167,99.1667 175.5,100.5C 175.989,101.995 176.655,103.329 177.5,104.5C 178.213,108.687 179.213,112.687 180.5,116.5C 180.5,123.833 180.5,131.167 180.5,138.5C 180.5,139.167 180.5,139.833 180.5,140.5C 180.034,142.201 180.034,143.701 180.5,145C 179.167,147.667 177.833,150.333 176.5,153C 177.634,154.016 177.301,154.683 175.5,155C 176.28,156.073 176.113,157.24 175,158.5C 173.334,157.66 173.167,158.16 174.5,160C 172.935,161.412 171.269,162.579 169.5,163.5C 169.489,161.983 168.823,160.816 167.5,160C 174.159,150.98 177.159,139.48 176.5,125.5C 176.5,122.5 176.5,119.5 176.5,116.5C 176.258,112.521 175.258,108.854 173.5,105.5C 173.204,103.597 172.537,101.93 171.5,100.5C 171.082,99.7784 170.416,99.2784 169.5,99C 170.712,97.8932 170.379,97.3932 168.5,97.5C 167.38,95.0417 168.047,93.0417 170.5,91.5 Z"/></g>
<g><path style="opacity:1" fill="#06fe7b" d="M 175.5,70.5 C 176.833,70.5 178.167,70.5 179.5,70.5C 174.003,76.8363 169.503,83.8363 166,91.5C 163.628,93.7032 161.461,96.0365 159.5,98.5C 158.357,98.9081 157.357,99.5748 156.5,100.5C 158.278,101.726 159.278,103.393 159.5,105.5C 157.139,107.194 155.139,109.194 153.5,111.5C 152.773,109.046 151.773,106.713 150.5,104.5C 151.793,102.704 153.293,101.037 155,99.5C 155.667,97.5 156.333,95.5 157,93.5C 164.933,87.0866 171.1,79.42 175.5,70.5 Z"/></g>
<g><path style="opacity:1" fill="#12c9fb" d="M 193.5,70.5 C 195.167,70.5 196.833,70.5 198.5,70.5C 198.5,70.8333 198.5,71.1667 198.5,71.5C 197.236,73.2701 195.736,74.9368 194,76.5C 192.62,81.892 189.62,86.2253 185,89.5C 183.444,94.5559 180.278,98.2225 175.5,100.5C 174.167,99.1667 174.167,97.8333 175.5,96.5C 181.5,87.8333 187.5,79.1667 193.5,70.5 Z"/></g>
<g><path style="opacity:1" fill="#f8fc00" d="M 120.5,95.5 C 118.197,97.978 116.031,100.645 114,103.5C 111.842,111.278 107.509,117.612 101,122.5C 100.64,124.608 99.9734,126.608 99,128.5C 94.6314,135.262 89.7981,141.595 84.5,147.5C 84.5,144.833 84.5,142.167 84.5,139.5C 94.8264,130.02 102.993,119.02 109,106.5C 112.389,103.613 115.223,100.28 117.5,96.5C 118.391,95.8902 119.391,95.5569 120.5,95.5 Z"/></g>
<g><path style="opacity:1" fill="#1282f8" d="M 198.5,79.5 C 198.5,80.8333 198.5,82.1667 198.5,83.5C 194.168,89.4306 189.335,95.0973 184,100.5C 183.681,103.973 182.181,106.806 179.5,109C 179.728,109.399 180.062,109.565 180.5,109.5C 180.5,111.833 180.5,114.167 180.5,116.5C 179.213,112.687 178.213,108.687 177.5,104.5C 179.433,102.063 181.6,99.7293 184,97.5C 187.155,90.1755 191.988,84.1755 198.5,79.5 Z"/></g>
<g><path style="opacity:1" fill="#d4cfe1" d="M 159.5,98.5 C 161.479,99.8121 163.145,101.479 164.5,103.5C 164.629,105.216 164.962,106.883 165.5,108.5C 165.721,111.067 166.388,113.401 167.5,115.5C 168.134,121.145 168.468,126.811 168.5,132.5C 168.608,136.247 168.108,139.914 167,143.5C 165.664,148.157 163.831,152.49 161.5,156.5C 160.5,156.5 159.5,156.5 158.5,156.5C 155.77,155.009 155.937,153.675 159,152.5C 160.604,149.541 161.771,146.541 162.5,143.5C 163.434,142.432 163.768,141.099 163.5,139.5C 165.228,133.762 165.895,127.762 165.5,121.5C 164.952,119.374 164.285,117.374 163.5,115.5C 162.833,114.167 162.167,112.833 161.5,111.5C 161.396,109.297 160.73,107.297 159.5,105.5C 159.278,103.393 158.278,101.726 156.5,100.5C 157.357,99.5748 158.357,98.9081 159.5,98.5 Z"/></g>
<g><path style="opacity:1" fill="#08f8f4" d="M 168.5,97.5 C 170.379,97.3932 170.712,97.8932 169.5,99C 170.416,99.2784 171.082,99.7784 171.5,100.5C 171.093,103.921 169.593,107.255 167,110.5C 166.722,109.584 166.222,108.918 165.5,108.5C 164.962,106.883 164.629,105.216 164.5,103.5C 166.226,101.772 167.559,99.7721 168.5,97.5 Z"/></g>
<g><path style="opacity:1" fill="#e5dede" d="M 33.5,144.5 C 33.5,139.167 33.5,133.833 33.5,128.5C 33.5,127.833 33.5,127.167 33.5,126.5C 33.5,121.167 33.5,115.833 33.5,110.5C 33.1065,107.07 33.7732,103.904 35.5,101C 38.6242,101.297 40.2909,103.13 40.5,106.5C 39.3898,121.508 39.2232,136.508 40,151.5C 38.7574,153.833 37.0907,154.5 35,153.5C 33.7114,150.649 33.2114,147.649 33.5,144.5 Z"/></g>
<g><path style="opacity:1" fill="#ebe4e4" d="M 48.5,109.5 C 48.5,121.5 48.5,133.5 48.5,145.5C 48.8134,148.247 48.48,150.914 47.5,153.5C 45.694,154.859 44.194,154.525 43,152.5C 42.5026,149.854 42.3359,147.187 42.5,144.5C 42.5,133.167 42.5,121.833 42.5,110.5C 42.3359,107.813 42.5026,105.146 43,102.5C 44.194,100.475 45.694,100.141 47.5,101.5C 48.48,104.086 48.8134,106.753 48.5,109.5 Z"/></g>
<g><path style="opacity:1" fill="#f6efef" d="M 57.5,107.5 C 57.5,120.5 57.5,133.5 57.5,146.5C 58.1059,149.916 57.1059,152.582 54.5,154.5C 53.354,153.855 52.354,153.022 51.5,152C 52.4231,149.959 52.7564,147.792 52.5,145.5C 52.5,133.5 52.5,121.5 52.5,109.5C 52.7564,107.208 52.4231,105.041 51.5,103C 52.7439,100.697 54.4106,100.197 56.5,101.5C 57.4656,103.396 57.7989,105.396 57.5,107.5 Z"/></g>
<g><path style="opacity:1" fill="#ece5e5" d="M 66.5,104.5 C 66.5,119.833 66.5,135.167 66.5,150.5C 66.5499,152.59 65.5499,153.923 63.5,154.5C 61.1507,152.796 60.1507,150.463 60.5,147.5C 60.5,134.167 60.5,120.833 60.5,107.5C 60.317,105.064 60.9837,102.897 62.5,101C 65.1715,100.515 66.5048,101.682 66.5,104.5 Z"/></g>
<g><path style="opacity:0.343" fill="#404040" d="M 69.5,102.5 C 69.5,119.167 69.5,135.833 69.5,152.5C 68.5,151.833 67.5,151.167 66.5,150.5C 66.5,135.167 66.5,119.833 66.5,104.5C 67.5,103.833 68.5,103.167 69.5,102.5 Z"/></g>
<g><path style="opacity:1" fill="#d9d4e4" d="M 150.5,104.5 C 151.773,106.713 152.773,109.046 153.5,111.5C 154.928,114.303 155.595,117.303 155.5,120.5C 155.5,120.833 155.5,121.167 155.5,121.5C 155.697,127.545 155.363,133.545 154.5,139.5C 153.169,142.829 151.836,146.162 150.5,149.5C 149.5,149.5 148.5,149.5 147.5,149.5C 147.5,148.5 147.5,147.5 147.5,146.5C 150.921,141.101 152.588,135.101 152.5,128.5C 152.672,127.508 152.338,126.842 151.5,126.5C 151.731,122.007 151.064,117.674 149.5,113.5C 148.377,111.419 147.377,109.253 146.5,107C 147.032,104.98 148.365,104.147 150.5,104.5 Z"/></g>
<g><path style="opacity:1" fill="#2d05fe" d="M 198.5,95.5 C 198.5,103.833 198.5,112.167 198.5,120.5C 191.957,125.2 187.124,131.2 184,138.5C 183.184,139.823 182.017,140.489 180.5,140.5C 180.5,139.833 180.5,139.167 180.5,138.5C 181.329,131.011 181.829,123.344 182,115.5C 184.134,113.197 185.634,110.531 186.5,107.5C 188.359,105.808 190.359,104.308 192.5,103C 194.364,100.312 196.364,97.8123 198.5,95.5 Z"/></g>
<g><path style="opacity:1" fill="#75ff00" d="M 146.5,83.5 C 147.167,83.5 147.833,83.5 148.5,83.5C 146.632,87.1979 143.966,90.0313 140.5,92C 138.144,94.9357 135.644,97.769 133,100.5C 129.108,105.85 125.775,111.516 123,117.5C 121.568,119.439 119.735,120.772 117.5,121.5C 115.5,121.167 113.5,120.833 111.5,120.5C 114.893,116.067 118.06,111.401 121,106.5C 122.275,104.283 123.275,101.949 124,99.5C 126.705,96.9638 129.205,94.2971 131.5,91.5C 134.304,89.5954 137.304,87.9287 140.5,86.5C 140.435,86.9382 140.601,87.2716 141,87.5C 141.278,86.5842 141.778,85.9175 142.5,85.5C 142.833,86.8333 143.167,86.8333 143.5,85.5C 144.167,85.5 144.5,85.1667 144.5,84.5C 145.492,84.6716 146.158,84.3382 146.5,83.5 Z"/></g>
<g><path style="opacity:0.279" fill="#404040" d="M 57.5,107.5 C 58.5,107.5 59.5,107.5 60.5,107.5C 60.5,120.833 60.5,134.167 60.5,147.5C 59.391,147.443 58.391,147.11 57.5,146.5C 57.5,133.5 57.5,120.5 57.5,107.5 Z"/></g>
<g><path style="opacity:1" fill="#1eb2f2" d="M 171.5,100.5 C 172.537,101.93 173.204,103.597 173.5,105.5C 174.399,110.596 172.399,113.929 167.5,115.5C 166.388,113.401 165.721,111.067 165.5,108.5C 166.222,108.918 166.722,109.584 167,110.5C 169.593,107.255 171.093,103.921 171.5,100.5 Z"/></g>
<g><path style="opacity:0.324" fill="#424242" d="M 48.5,109.5 C 49.8333,109.5 51.1667,109.5 52.5,109.5C 52.5,121.5 52.5,133.5 52.5,145.5C 51.1667,145.5 49.8333,145.5 48.5,145.5C 48.5,133.5 48.5,121.5 48.5,109.5 Z"/></g>
<g><path style="opacity:1" fill="#1548f4" d="M 198.5,86.5 C 198.5,89.5 198.5,92.5 198.5,95.5C 196.364,97.8123 194.364,100.312 192.5,103C 190.359,104.308 188.359,105.808 186.5,107.5C 185.634,110.531 184.134,113.197 182,115.5C 181.829,123.344 181.329,131.011 180.5,138.5C 180.5,131.167 180.5,123.833 180.5,116.5C 180.5,114.167 180.5,111.833 180.5,109.5C 185.789,101.419 191.789,93.7522 198.5,86.5 Z"/></g>
<g><path style="opacity:0.356" fill="#414141" d="M 33.5,110.5 C 33.5,115.833 33.5,121.167 33.5,126.5C 28.1667,126.5 22.8333,126.5 17.5,126.5C 17.5,121.167 17.5,115.833 17.5,110.5C 22.8333,110.5 28.1667,110.5 33.5,110.5 Z"/></g>
<g><path style="opacity:0.268" fill="#404040" d="M 42.5,110.5 C 42.5,121.833 42.5,133.167 42.5,144.5C 41.1712,139.208 40.5045,133.542 40.5,127.5C 40.5045,121.458 41.1712,115.792 42.5,110.5 Z"/></g>
<g><path style="opacity:1" fill="#bbb7c0" d="M 137.5,110.5 C 140.521,113.206 142.521,116.539 143.5,120.5C 143.316,124.762 143.65,129.096 144.5,133.5C 142.956,137.569 140.623,141.235 137.5,144.5C 136.817,144.137 136.15,143.804 135.5,143.5C 135.253,140.495 136.253,137.995 138.5,136C 137.542,134.853 137.875,133.853 139.5,133C 138.663,131.989 138.33,130.822 138.5,129.5C 138.232,126.881 138.565,124.381 139.5,122C 138.956,121.283 138.289,120.783 137.5,120.5C 137.611,119.883 137.944,119.383 138.5,119C 137.702,117.167 136.702,115.334 135.5,113.5C 135.453,111.962 136.12,110.962 137.5,110.5 Z"/></g>
<g><path style="opacity:1" fill="#08fee1" d="M 159.5,105.5 C 160.73,107.297 161.396,109.297 161.5,111.5C 159.7,113.828 158.533,116.495 158,119.5C 157.329,120.252 156.496,120.586 155.5,120.5C 155.595,117.303 154.928,114.303 153.5,111.5C 155.139,109.194 157.139,107.194 159.5,105.5 Z"/></g>
<g><path style="opacity:1" fill="#ff6400" d="M 101.5,101.5 C 101.5,101.833 101.5,102.167 101.5,102.5C 100.91,103.766 100.41,105.099 100,106.5C 94.5789,111.758 89.4123,117.092 84.5,122.5C 84.8214,116.974 84.4881,111.64 83.5,106.5C 87.1001,105.613 90.7668,104.613 94.5,103.5C 94.8333,104.833 95.1667,104.833 95.5,103.5C 96.1667,103.167 96.8333,102.833 97.5,102.5C 98.1667,103.833 98.8333,103.833 99.5,102.5C 100.167,102.167 100.833,101.833 101.5,101.5 Z"/></g>
<g><path style="opacity:1" fill="#b1aeba" d="M 132.5,126.5 C 132.683,128.936 132.016,131.103 130.5,133C 131.634,134.016 131.301,134.683 129.5,135C 129.833,135.333 130.167,135.667 130.5,136C 129.354,136.645 128.354,137.478 127.5,138.5C 126.817,138.137 126.15,137.804 125.5,137.5C 124.952,136.312 124.619,135.145 124.5,134C 126.301,133.683 126.634,133.016 125.5,132C 126.167,131.333 126.833,130.667 127.5,130C 126.167,128.333 126.167,126.667 127.5,125C 126.708,122.817 125.708,120.817 124.5,119C 127.38,116.053 129.713,116.72 131.5,121C 131.167,121.333 130.833,121.667 130.5,122C 131.582,123.33 132.249,124.83 132.5,126.5 Z"/></g>
<g><path style="opacity:1" fill="#2977dc" d="M 173.5,105.5 C 175.258,108.854 176.258,112.521 176.5,116.5C 170.078,118.956 167.745,123.623 169.5,130.5C 169.672,131.492 169.338,132.158 168.5,132.5C 168.468,126.811 168.134,121.145 167.5,115.5C 172.399,113.929 174.399,110.596 173.5,105.5 Z"/></g>
<g><path style="opacity:1" fill="#caff00" d="M 131.5,91.5 C 129.205,94.2971 126.705,96.9638 124,99.5C 123.275,101.949 122.275,104.283 121,106.5C 118.06,111.401 114.893,116.067 111.5,120.5C 106.981,121.623 104.981,124.623 105.5,129.5C 100.662,132.83 97.1616,137.163 95,142.5C 92.5778,144.75 90.4111,147.083 88.5,149.5C 86.5853,149.784 84.9187,149.451 83.5,148.5C 84.1667,148.5 84.5,148.167 84.5,147.5C 89.7981,141.595 94.6314,135.262 99,128.5C 99.9734,126.608 100.64,124.608 101,122.5C 107.509,117.612 111.842,111.278 114,103.5C 116.031,100.645 118.197,97.978 120.5,95.5C 123.95,93.7922 127.617,92.4588 131.5,91.5 Z"/></g>
<g><path style="opacity:1" fill="#cec9d2" d="M 111.5,120.5 C 113.5,120.833 115.5,121.167 117.5,121.5C 121.552,131.112 118.552,135.112 108.5,133.5C 107.143,132.41 106.143,131.076 105.5,129.5C 104.981,124.623 106.981,121.623 111.5,120.5 Z"/></g>
<g><path style="opacity:1" fill="#ff9700" d="M 104.5,100.5 C 104.5,100.833 104.5,101.167 104.5,101.5C 101.928,107.255 99.0951,112.922 96,118.5C 91.9739,121.698 88.1405,125.032 84.5,128.5C 84.5,126.5 84.5,124.5 84.5,122.5C 89.4123,117.092 94.5789,111.758 100,106.5C 100.41,105.099 100.91,103.766 101.5,102.5C 102.167,102.5 102.5,102.167 102.5,101.5C 103.167,101.167 103.833,100.833 104.5,100.5 Z"/></g>
<g><path style="opacity:1" fill="#15fbca" d="M 149.5,113.5 C 151.064,117.674 151.731,122.007 151.5,126.5C 149.5,129.167 147.167,131.5 144.5,133.5C 143.65,129.096 143.316,124.762 143.5,120.5C 146.277,118.731 148.277,116.398 149.5,113.5 Z"/></g>
<g><path style="opacity:1" fill="#ffbe00" d="M 110.5,98.5 C 110.5,98.8333 110.5,99.1667 110.5,99.5C 103.677,109.805 96.8436,120.138 90,130.5C 88.2962,132.373 86.4628,134.04 84.5,135.5C 84.5,133.167 84.5,130.833 84.5,128.5C 88.1405,125.032 91.9739,121.698 96,118.5C 99.0951,112.922 101.928,107.255 104.5,101.5C 105.167,101.5 105.5,101.167 105.5,100.5C 106.167,100.167 106.833,99.8333 107.5,99.5C 107.833,100.833 108.167,100.833 108.5,99.5C 109.167,99.1667 109.833,98.8333 110.5,98.5 Z"/></g>
<g><path style="opacity:1" fill="#ffe300" d="M 117.5,96.5 C 115.223,100.28 112.389,103.613 109,106.5C 102.993,119.02 94.8264,130.02 84.5,139.5C 84.5,138.167 84.5,136.833 84.5,135.5C 86.4628,134.04 88.2962,132.373 90,130.5C 96.8436,120.138 103.677,109.805 110.5,99.5C 111.167,99.5 111.5,99.1667 111.5,98.5C 112.167,98.1667 112.833,97.8333 113.5,97.5C 113.833,98.8333 114.167,98.8333 114.5,97.5C 115.391,96.8902 116.391,96.5569 117.5,96.5 Z"/></g>
<g><path style="opacity:1" fill="#054bff" d="M 176.5,116.5 C 176.5,119.5 176.5,122.5 176.5,125.5C 174.427,127.58 172.093,129.246 169.5,130.5C 167.745,123.623 170.078,118.956 176.5,116.5 Z"/></g>
<g><path style="opacity:0.36" fill="#424242" d="M 33.5,128.5 C 33.5,133.833 33.5,139.167 33.5,144.5C 28.1667,144.5 22.8333,144.5 17.5,144.5C 17.5,139.167 17.5,133.833 17.5,128.5C 22.8333,128.5 28.1667,128.5 33.5,128.5 Z"/></g>
<g><path style="opacity:1" fill="#0ccffe" d="M 161.5,111.5 C 162.167,112.833 162.833,114.167 163.5,115.5C 162.842,121.489 160.675,126.822 157,131.5C 156.821,127.975 156.321,124.641 155.5,121.5C 155.5,121.167 155.5,120.833 155.5,120.5C 156.496,120.586 157.329,120.252 158,119.5C 158.533,116.495 159.7,113.828 161.5,111.5 Z"/></g>
<g><path style="opacity:1" fill="#1a90e9" d="M 163.5,115.5 C 164.285,117.374 164.952,119.374 165.5,121.5C 162.716,127.97 159.049,133.97 154.5,139.5C 155.363,133.545 155.697,127.545 155.5,121.5C 156.321,124.641 156.821,127.975 157,131.5C 160.675,126.822 162.842,121.489 163.5,115.5 Z"/></g>
<g><path style="opacity:1" fill="#1ffe15" d="M 171.5,70.5 C 169.925,73.5821 167.758,76.2488 165,78.5C 161.919,85.5994 157.252,91.5994 151,96.5C 148.543,101.975 144.877,106.642 140,110.5C 139.295,108.014 138.462,108.014 137.5,110.5C 136.12,110.962 135.453,111.962 135.5,113.5C 136.702,115.334 137.702,117.167 138.5,119C 137.944,119.383 137.611,119.883 137.5,120.5C 136.615,123.06 134.949,125.06 132.5,126.5C 132.249,124.83 131.582,123.33 130.5,122C 130.833,121.667 131.167,121.333 131.5,121C 129.713,116.72 127.38,116.053 124.5,119C 125.708,120.817 126.708,122.817 127.5,125C 126.167,126.667 126.167,128.333 127.5,130C 126.833,130.667 126.167,131.333 125.5,132C 126.634,133.016 126.301,133.683 124.5,134C 124.619,135.145 124.952,136.312 125.5,137.5C 123.612,140.899 121.112,143.899 118,146.5C 116.631,150.128 114.797,153.461 112.5,156.5C 107.368,154.973 102.368,153.307 97.5,151.5C 102.024,145.987 105.69,139.987 108.5,133.5C 118.552,135.112 121.552,131.112 117.5,121.5C 119.735,120.772 121.568,119.439 123,117.5C 125.775,111.516 129.108,105.85 133,100.5C 135.644,97.769 138.144,94.9357 140.5,92C 143.966,90.0313 146.632,87.1979 148.5,83.5C 148.5,83.1667 148.5,82.8333 148.5,82.5C 155.138,79.1805 161.471,75.3472 167.5,71C 168.793,70.51 170.127,70.3433 171.5,70.5 Z"/></g>
<g><path style="opacity:1" fill="#04fe70" d="M 137.5,120.5 C 138.289,120.783 138.956,121.283 139.5,122C 138.565,124.381 138.232,126.881 138.5,129.5C 136.537,130.96 134.704,132.627 133,134.5C 129.291,141.02 125.291,147.353 121,153.5C 119.629,155.041 118.129,156.375 116.5,157.5C 115.041,157.567 113.708,157.234 112.5,156.5C 114.797,153.461 116.631,150.128 118,146.5C 121.112,143.899 123.612,140.899 125.5,137.5C 126.15,137.804 126.817,138.137 127.5,138.5C 128.354,137.478 129.354,136.645 130.5,136C 130.167,135.667 129.833,135.333 129.5,135C 131.301,134.683 131.634,134.016 130.5,133C 132.016,131.103 132.683,128.936 132.5,126.5C 134.949,125.06 136.615,123.06 137.5,120.5 Z"/></g>
<g><path style="opacity:1" fill="#0659fc" d="M 163.5,139.5 C 163.768,141.099 163.434,142.432 162.5,143.5C 162.992,139.71 162.159,139.044 160,141.5C 155.081,151.187 149.581,160.52 143.5,169.5C 142.29,169.068 141.29,168.401 140.5,167.5C 143.135,163.446 145.302,159.112 147,154.5C 153.431,149.232 158.598,142.899 162.5,135.5C 163.429,136.689 163.762,138.022 163.5,139.5 Z"/></g>
<g><path style="opacity:1" fill="#9f00fe" d="M 198.5,120.5 C 198.5,123.833 198.5,127.167 198.5,130.5C 194.65,133.154 192.15,136.82 191,141.5C 188.072,143.418 186.406,146.085 186,149.5C 179.526,156.473 174.026,164.14 169.5,172.5C 167.144,175.186 164.811,177.853 162.5,180.5C 161.29,180.068 160.29,179.401 159.5,178.5C 163.194,173.776 166.527,168.776 169.5,163.5C 171.269,162.579 172.935,161.412 174.5,160C 173.167,158.16 173.334,157.66 175,158.5C 176.113,157.24 176.28,156.073 175.5,155C 177.301,154.683 177.634,154.016 176.5,153C 177.833,150.333 179.167,147.667 180.5,145C 180.034,143.701 180.034,142.201 180.5,140.5C 182.017,140.489 183.184,139.823 184,138.5C 187.124,131.2 191.957,125.2 198.5,120.5 Z"/></g>
<g><path style="opacity:1" fill="#92ff00" d="M 105.5,129.5 C 106.143,131.076 107.143,132.41 108.5,133.5C 105.69,139.987 102.024,145.987 97.5,151.5C 94.2727,151.324 91.2727,150.657 88.5,149.5C 90.4111,147.083 92.5778,144.75 95,142.5C 97.1616,137.163 100.662,132.83 105.5,129.5 Z"/></g>
<g><path style="opacity:1" fill="#1874f1" d="M 165.5,121.5 C 165.895,127.762 165.228,133.762 163.5,139.5C 163.762,138.022 163.429,136.689 162.5,135.5C 158.598,142.899 153.431,149.232 147,154.5C 145.302,159.112 143.135,163.446 140.5,167.5C 138.847,167.34 137.514,166.674 136.5,165.5C 137.794,164.71 138.961,163.71 140,162.5C 142.078,158.75 144.244,155.083 146.5,151.5C 147.949,150.828 149.282,150.161 150.5,149.5C 151.836,146.162 153.169,142.829 154.5,139.5C 159.049,133.97 162.716,127.97 165.5,121.5 Z"/></g>
<g><path style="opacity:1" fill="#06fea9" d="M 138.5,129.5 C 138.33,130.822 138.663,131.989 139.5,133C 137.875,133.853 137.542,134.853 138.5,136C 136.253,137.995 135.253,140.495 135.5,143.5C 133.537,144.96 131.704,146.627 130,148.5C 128.64,152.759 126.807,156.759 124.5,160.5C 121.603,159.871 118.936,158.871 116.5,157.5C 118.129,156.375 119.629,155.041 121,153.5C 125.291,147.353 129.291,141.02 133,134.5C 134.704,132.627 136.537,130.96 138.5,129.5 Z"/></g>
<g><path style="opacity:1" fill="#19b5f5" d="M 152.5,128.5 C 152.588,135.101 150.921,141.101 147.5,146.5C 143.532,152.658 139.198,158.658 134.5,164.5C 133.508,164.672 132.842,164.338 132.5,163.5C 136.089,158.583 139.589,153.583 143,148.5C 144.786,145.042 146.119,141.376 147,137.5C 150.054,135.634 151.554,132.967 151.5,129.5C 151.5,128.833 151.833,128.5 152.5,128.5 Z"/></g>
<g><path style="opacity:1" fill="#08fced" d="M 151.5,126.5 C 152.338,126.842 152.672,127.508 152.5,128.5C 151.833,128.5 151.5,128.833 151.5,129.5C 143.474,140.253 135.474,150.92 127.5,161.5C 126.209,161.737 125.209,161.404 124.5,160.5C 126.807,156.759 128.64,152.759 130,148.5C 131.704,146.627 133.537,144.96 135.5,143.5C 136.15,143.804 136.817,144.137 137.5,144.5C 140.623,141.235 142.956,137.569 144.5,133.5C 147.167,131.5 149.5,129.167 151.5,126.5 Z"/></g>
<g><path style="opacity:1" fill="#ff009d" d="M 198.5,151.5 C 198.5,154.833 198.5,158.167 198.5,161.5C 194.316,164.177 191.483,167.843 190,172.5C 185.343,175.654 182.509,179.988 181.5,185.5C 179.167,185.5 176.833,185.5 174.5,185.5C 180.172,180.156 184.339,173.822 187,166.5C 190.196,163.32 192.529,159.653 194,155.5C 195.371,153.959 196.871,152.625 198.5,151.5 Z"/></g>
<g><path style="opacity:1" fill="#e700fe" d="M 198.5,130.5 C 198.5,135.167 198.5,139.833 198.5,144.5C 195.223,148.039 191.723,151.372 188,154.5C 183.261,160.905 178.928,167.572 175,174.5C 171.969,177.033 169.136,179.7 166.5,182.5C 164.938,182.267 163.605,181.6 162.5,180.5C 164.811,177.853 167.144,175.186 169.5,172.5C 174.026,164.14 179.526,156.473 186,149.5C 186.406,146.085 188.072,143.418 191,141.5C 192.15,136.82 194.65,133.154 198.5,130.5 Z"/></g>
<g><path style="opacity:1" fill="#04e7fe" d="M 151.5,129.5 C 151.554,132.967 150.054,135.634 147,137.5C 146.119,141.376 144.786,145.042 143,148.5C 139.589,153.583 136.089,158.583 132.5,163.5C 130.447,163.598 128.78,162.931 127.5,161.5C 135.474,150.92 143.474,140.253 151.5,129.5 Z"/></g>
<g><path style="opacity:1" fill="#0634fc" d="M 162.5,143.5 C 161.771,146.541 160.604,149.541 159,152.5C 155.937,153.675 155.77,155.009 158.5,156.5C 155.587,156.801 153.087,158.468 151,161.5C 149.37,164.629 147.536,167.629 145.5,170.5C 144.833,170.167 144.167,169.833 143.5,169.5C 149.581,160.52 155.081,151.187 160,141.5C 162.159,139.044 162.992,139.71 162.5,143.5 Z"/></g>
<g><path style="opacity:1" fill="#0c98fb" d="M 147.5,146.5 C 147.5,147.5 147.5,148.5 147.5,149.5C 148.5,149.5 149.5,149.5 150.5,149.5C 149.282,150.161 147.949,150.828 146.5,151.5C 144.244,155.083 142.078,158.75 140,162.5C 138.961,163.71 137.794,164.71 136.5,165.5C 135.508,165.672 134.842,165.338 134.5,164.5C 139.198,158.658 143.532,152.658 147.5,146.5 Z"/></g>
<g><path style="opacity:1" fill="#ff00d3" d="M 198.5,144.5 C 198.5,146.833 198.5,149.167 198.5,151.5C 196.871,152.625 195.371,153.959 194,155.5C 192.529,159.653 190.196,163.32 187,166.5C 184.339,173.822 180.172,180.156 174.5,185.5C 171.169,185.982 168.503,184.982 166.5,182.5C 169.136,179.7 171.969,177.033 175,174.5C 178.928,167.572 183.261,160.905 188,154.5C 191.723,151.372 195.223,148.039 198.5,144.5 Z"/></g>
<g><path style="opacity:1" fill="#4602fe" d="M 176.5,125.5 C 177.159,139.48 174.159,150.98 167.5,160C 168.823,160.816 169.489,161.983 169.5,163.5C 166.527,168.776 163.194,173.776 159.5,178.5C 154.833,175.833 150.167,173.167 145.5,170.5C 147.536,167.629 149.37,164.629 151,161.5C 153.087,158.468 155.587,156.801 158.5,156.5C 159.5,156.5 160.5,156.5 161.5,156.5C 163.831,152.49 165.664,148.157 167,143.5C 168.108,139.914 168.608,136.247 168.5,132.5C 169.338,132.158 169.672,131.492 169.5,130.5C 172.093,129.246 174.427,127.58 176.5,125.5 Z"/></g>
<g><path style="opacity:1" fill="#ff0022" d="M 198.5,171.5 C 198.5,176.167 198.5,180.833 198.5,185.5C 194.5,185.5 190.5,185.5 186.5,185.5C 189.436,179.899 193.436,175.233 198.5,171.5 Z"/></g>
<g><path style="opacity:1" fill="#ff0058" d="M 198.5,161.5 C 198.5,164.833 198.5,168.167 198.5,171.5C 193.436,175.233 189.436,179.899 186.5,185.5C 184.833,185.5 183.167,185.5 181.5,185.5C 182.509,179.988 185.343,175.654 190,172.5C 191.483,167.843 194.316,164.177 198.5,161.5 Z"/></g>
<g><path style="opacity:0.02" fill="#000000" d="M 7.5,232.5 C 8.83333,233.167 8.83333,233.167 7.5,232.5 Z"/></g>
<g><path style="opacity:0.02" fill="#000000" d="M 246.5,232.5 C 247.833,233.167 247.833,233.167 246.5,232.5 Z"/></g>
<g><path style="opacity:0.035" fill="#fefffe" d="M 8.5,235.5 C 9.83333,236.167 9.83333,236.167 8.5,235.5 Z"/></g>
<g><path style="opacity:0.035" fill="#fefffe" d="M 245.5,235.5 C 246.833,236.167 246.833,236.167 245.5,235.5 Z"/></g>
<g><path style="opacity:0.008" fill="#4e4e4e" d="M 10.5,239.5 C 9.47498,239.103 9.30831,238.437 10,237.5C 10.4643,238.094 10.631,238.761 10.5,239.5 Z"/></g>
<g><path style="opacity:0.008" fill="#4e4e4e" d="M 244.5,239.5 C 244.369,238.761 244.536,238.094 245,237.5C 245.692,238.437 245.525,239.103 244.5,239.5 Z"/></g>
<g><path style="opacity:0.051" fill="#fefffe" d="M 10.5,239.5 C 11.1667,239.5 11.5,239.833 11.5,240.5C 11.1667,240.167 10.8333,239.833 10.5,239.5 Z"/></g>
<g><path style="opacity:0.051" fill="#fefffe" d="M 244.5,239.5 C 243.833,240.167 243.833,240.167 244.5,239.5 Z"/></g>
<g><path style="opacity:0.075" fill="#fefffe" d="M 11.5,240.5 C 12.1667,240.5 12.5,240.833 12.5,241.5C 12.1667,241.167 11.8333,240.833 11.5,240.5 Z"/></g>
<g><path style="opacity:0.075" fill="#fefffe" d="M 243.5,240.5 C 242.833,241.167 242.833,241.167 243.5,240.5 Z"/></g>
<g><path style="opacity:0.082" fill="#fefffe" d="M 12.5,241.5 C 13.1667,241.5 13.5,241.833 13.5,242.5C 13.1667,242.167 12.8333,241.833 12.5,241.5 Z"/></g>
<g><path style="opacity:0.082" fill="#fefffe" d="M 242.5,241.5 C 241.833,242.167 241.833,242.167 242.5,241.5 Z"/></g>
<g><path style="opacity:0.075" fill="#fefffe" d="M 13.5,242.5 C 14.1667,242.5 14.5,242.833 14.5,243.5C 14.1667,243.167 13.8333,242.833 13.5,242.5 Z"/></g>
<g><path style="opacity:0.075" fill="#fefffe" d="M 241.5,242.5 C 240.833,243.167 240.833,243.167 241.5,242.5 Z"/></g>
<g><path style="opacity:0.051" fill="#fefffe" d="M 14.5,243.5 C 15.1667,243.5 15.5,243.833 15.5,244.5C 15.1667,244.167 14.8333,243.833 14.5,243.5 Z"/></g>
<g><path style="opacity:0.051" fill="#fefffe" d="M 240.5,243.5 C 239.833,244.167 239.833,244.167 240.5,243.5 Z"/></g>
<g><path style="opacity:0.086" fill="#a2a2a2" d="M 15.5,244.5 C 16.4916,244.328 17.1583,244.662 17.5,245.5C 16.5084,245.672 15.8417,245.338 15.5,244.5 Z"/></g>
<g><path style="opacity:0.008" fill="#4e4e4e" d="M 239.5,244.5 C 239.103,245.525 238.437,245.692 237.5,245C 238.094,244.536 238.761,244.369 239.5,244.5 Z"/></g>
<g><path style="opacity:0.035" fill="#e1e1e1" d="M 17.5,245.5 C 18.2389,245.369 18.9056,245.536 19.5,246C 18.5632,246.692 17.8966,246.525 17.5,245.5 Z"/></g>
<g><path style="opacity:0.035" fill="#fefffe" d="M 235.5,245.5 C 236.833,246.167 236.833,246.167 235.5,245.5 Z"/></g>
<g><path style="opacity:0.02" fill="#000000" d="M 21.5,246.5 C 22.8333,247.167 22.8333,247.167 21.5,246.5 Z"/></g>
<g><path style="opacity:0.02" fill="#000000" d="M 232.5,246.5 C 233.833,247.167 233.833,247.167 232.5,246.5 Z"/></g>
</svg>
