<?xml version="1.0" encoding="UTF-8"?>
<!DOCTYPE svg PUBLIC "-//W3C//DTD SVG 1.1//EN" "http://www.w3.org/Graphics/SVG/1.1/DTD/svg11.dtd">
<svg xmlns="http://www.w3.org/2000/svg" version="1.1" width="256px" height="256px" style="shape-rendering:geometricPrecision; text-rendering:geometricPrecision; image-rendering:optimizeQuality; fill-rule:evenodd; clip-rule:evenodd" xmlns:xlink="http://www.w3.org/1999/xlink">
<g><path style="opacity:0.876" fill="#fefeff" d="M 43.5,20.5 C 79.1682,20.3333 114.835,20.5 150.5,21C 180.858,26.5923 200.691,44.0923 210,73.5C 216.959,107.642 206.126,134.475 177.5,154C 169.32,158.393 160.654,161.393 151.5,163C 134.5,163.333 117.5,163.667 100.5,164C 93.706,165.146 89.206,168.979 87,175.5C 86.8269,195.073 86.3269,214.573 85.5,234C 71.5,234.667 57.5,234.667 43.5,234C 42.34,211.906 42.1733,189.739 43,167.5C 48.1026,142.78 62.9359,127.613 87.5,122C 104.833,121.667 122.167,121.333 139.5,121C 161.674,116.825 170.508,103.658 166,81.5C 161.644,72.1491 154.477,65.9824 144.5,63C 125.17,62.5 105.836,62.3334 86.5,62.5C 86.8199,73.0821 86.4866,83.5821 85.5,94C 71.5,94.6667 57.5,94.6667 43.5,94C 42.1713,69.5 42.1713,45 43.5,20.5 Z"/></g>
<g><path style="opacity:1" fill="#ff2900" d="M 60.5,26.5 C 56.817,30.1803 52.817,33.5136 48.5,36.5C 48.5,33.1667 48.5,29.8333 48.5,26.5C 52.5,26.5 56.5,26.5 60.5,26.5 Z"/></g>
<g><path style="opacity:1" fill="#ff9f00" d="M 76.5,26.5 C 79.1667,26.5 81.8333,26.5 84.5,26.5C 81.4008,29.4924 77.7342,31.659 73.5,33C 70.4395,35.4936 67.4395,38.1602 64.5,41C 60.3276,42.5883 56.3276,44.4216 52.5,46.5C 52.226,48.9806 50.8927,50.6473 48.5,51.5C 48.5,49.5 48.5,47.5 48.5,45.5C 53.1874,43.0029 57.5207,39.8362 61.5,36C 67.6642,34.6687 72.6642,31.5021 76.5,26.5 Z"/></g>
<g><path style="opacity:1" fill="#ffbe00" d="M 84.5,26.5 C 85.5,26.5 86.5,26.5 87.5,26.5C 84.2322,30.4215 80.5656,33.9215 76.5,37C 71.9359,39.7402 67.2692,42.2402 62.5,44.5C 58.3938,48.9464 53.7271,52.6131 48.5,55.5C 48.5,54.1667 48.5,52.8333 48.5,51.5C 50.8927,50.6473 52.226,48.9806 52.5,46.5C 56.3276,44.4216 60.3276,42.5883 64.5,41C 67.4395,38.1602 70.4395,35.4936 73.5,33C 77.7342,31.659 81.4008,29.4924 84.5,26.5 Z"/></g>
<g><path style="opacity:1" fill="#ffdc00" d="M 87.5,26.5 C 89.8333,26.5 92.1667,26.5 94.5,26.5C 92.3635,28.7502 90.0302,30.9169 87.5,33C 81.3684,37.2373 75.0351,41.2373 68.5,45C 64.6817,45.7445 61.6817,47.7445 59.5,51C 55.4799,52.7128 51.8133,54.8794 48.5,57.5C 48.5,56.8333 48.5,56.1667 48.5,55.5C 53.7271,52.6131 58.3938,48.9464 62.5,44.5C 67.2692,42.2402 71.9359,39.7402 76.5,37C 80.5656,33.9215 84.2322,30.4215 87.5,26.5 Z"/></g>
<g><path style="opacity:1" fill="#03fe8a" d="M 165.5,31.5 C 167.284,31.8925 168.95,32.5592 170.5,33.5C 159.318,40.3331 148.651,47.9997 138.5,56.5C 136.167,56.5 133.833,56.5 131.5,56.5C 131.414,55.5041 131.748,54.6708 132.5,54C 139.7,48.5669 147.366,43.9002 155.5,40C 159.025,37.302 162.358,34.4686 165.5,31.5 Z"/></g>
<g><path style="opacity:1" fill="#ff7400" d="M 60.5,26.5 C 65.8333,26.5 71.1667,26.5 76.5,26.5C 72.6642,31.5021 67.6642,34.6687 61.5,36C 57.5207,39.8362 53.1874,43.0029 48.5,45.5C 48.5,42.5 48.5,39.5 48.5,36.5C 52.817,33.5136 56.817,30.1803 60.5,26.5 Z"/></g>
<g><path style="opacity:1" fill="#01fe63" d="M 159.5,29.5 C 161.579,29.9707 163.579,30.6373 165.5,31.5C 162.358,34.4686 159.025,37.302 155.5,40C 147.366,43.9002 139.7,48.5669 132.5,54C 131.748,54.6708 131.414,55.5041 131.5,56.5C 128.5,56.5 125.5,56.5 122.5,56.5C 134.374,46.7436 146.707,37.7436 159.5,29.5 Z"/></g>
<g><path style="opacity:1" fill="#04e6fe" d="M 179.5,39.5 C 181.191,40.8637 182.858,42.197 184.5,43.5C 180.776,44.3931 178.109,46.5597 176.5,50C 170.415,53.5833 164.748,57.75 159.5,62.5C 156.996,61.4161 154.663,60.0828 152.5,58.5C 161.981,53.0459 170.981,46.7126 179.5,39.5 Z"/></g>
<g><path style="opacity:1" fill="#2bff14" d="M 127.5,26.5 C 138.382,25.8567 149.048,26.8567 159.5,29.5C 146.707,37.7436 134.374,46.7436 122.5,56.5C 111.167,56.5 99.8333,56.5 88.5,56.5C 89.0283,55.2794 89.695,54.1127 90.5,53C 98.6811,49.1367 106.014,44.1367 112.5,38C 113.5,37.6667 114.5,37.3333 115.5,37C 119.642,33.6928 123.642,30.1928 127.5,26.5 Z"/></g>
<g><path style="opacity:1" fill="#caff00" d="M 104.5,26.5 C 107.167,26.5 109.833,26.5 112.5,26.5C 110.59,28.5617 108.257,30.0617 105.5,31C 103.242,35.4654 99.5754,37.7987 94.5,38C 90.5792,42.3013 85.9125,45.6347 80.5,48C 79.8333,49 79.1667,50 78.5,51C 73.8333,53.3333 69.1667,55.6667 64.5,58C 59.6467,63.3528 54.3134,68.1862 48.5,72.5C 48.5,70.1667 48.5,67.8333 48.5,65.5C 53.3148,61.5874 58.6481,58.4207 64.5,56C 70.4272,50.3831 77.0939,46.0498 84.5,43C 86.5161,39.4819 89.5161,37.1486 93.5,36C 97.359,32.9684 101.026,29.8017 104.5,26.5 Z"/></g>
<g><path style="opacity:1" fill="#04fedd" d="M 176.5,37.5 C 177.71,37.9321 178.71,38.5987 179.5,39.5C 170.981,46.7126 161.981,53.0459 152.5,58.5C 149.933,58.2785 147.599,57.6118 145.5,56.5C 149.147,55.3328 152.147,53.1662 154.5,50C 159.159,49.1263 162.826,46.793 165.5,43C 169.22,41.1401 172.886,39.3068 176.5,37.5 Z"/></g>
<g><path style="opacity:1" fill="#fef100" d="M 94.5,26.5 C 96.5,26.5 98.5,26.5 100.5,26.5C 96.3969,29.7387 92.0635,32.9054 87.5,36C 81.717,38.7255 76.0503,41.7255 70.5,45C 66.4824,48.0209 62.8157,51.3542 59.5,55C 55.8114,56.5131 52.1447,58.0131 48.5,59.5C 48.5,58.8333 48.5,58.1667 48.5,57.5C 51.8133,54.8794 55.4799,52.7128 59.5,51C 61.6817,47.7445 64.6817,45.7445 68.5,45C 75.0351,41.2373 81.3684,37.2373 87.5,33C 90.0302,30.9169 92.3635,28.7502 94.5,26.5 Z"/></g>
<g><path style="opacity:1" fill="#a7ff00" d="M 112.5,26.5 C 114.833,26.5 117.167,26.5 119.5,26.5C 115.719,30.228 111.719,33.728 107.5,37C 90.9726,47.3806 74.306,57.3806 57.5,67C 54.9183,69.9637 51.9183,72.4637 48.5,74.5C 48.5,73.8333 48.5,73.1667 48.5,72.5C 54.3134,68.1862 59.6467,63.3528 64.5,58C 69.1667,55.6667 73.8333,53.3333 78.5,51C 79.1667,50 79.8333,49 80.5,48C 85.9125,45.6347 90.5792,42.3013 94.5,38C 99.5754,37.7987 103.242,35.4654 105.5,31C 108.257,30.0617 110.59,28.5617 112.5,26.5 Z"/></g>
<g><path style="opacity:1" fill="#02feb1" d="M 170.5,33.5 C 172.537,34.8465 174.537,36.1798 176.5,37.5C 172.886,39.3068 169.22,41.1401 165.5,43C 162.826,46.793 159.159,49.1263 154.5,50C 152.147,53.1662 149.147,55.3328 145.5,56.5C 143.167,56.5 140.833,56.5 138.5,56.5C 148.651,47.9997 159.318,40.3331 170.5,33.5 Z"/></g>
<g><path style="opacity:1" fill="#01c4ff" d="M 184.5,43.5 C 185.5,43.8333 186.167,44.5 186.5,45.5C 184.741,46.8714 182.741,47.8714 180.5,48.5C 174.154,53.8486 167.82,59.1819 161.5,64.5C 160.5,64.1667 159.833,63.5 159.5,62.5C 164.748,57.75 170.415,53.5833 176.5,50C 178.109,46.5597 180.776,44.3931 184.5,43.5 Z"/></g>
<g><path style="opacity:1" fill="#effe00" d="M 100.5,26.5 C 101.833,26.5 103.167,26.5 104.5,26.5C 101.026,29.8017 97.359,32.9684 93.5,36C 89.5161,37.1486 86.5161,39.4819 84.5,43C 77.0939,46.0498 70.4272,50.3831 64.5,56C 58.6481,58.4207 53.3148,61.5874 48.5,65.5C 48.5,63.5 48.5,61.5 48.5,59.5C 52.1447,58.0131 55.8114,56.5131 59.5,55C 62.8157,51.3542 66.4824,48.0209 70.5,45C 76.0503,41.7255 81.717,38.7255 87.5,36C 92.0635,32.9054 96.3969,29.7387 100.5,26.5 Z"/></g>
<g><path style="opacity:1" fill="#025cff" d="M 193.5,53.5 C 193.5,53.8333 193.5,54.1667 193.5,54.5C 190.156,55.0073 187.822,56.8407 186.5,60C 180.358,63.9834 174.691,68.4834 169.5,73.5C 168.512,72.205 167.512,70.8717 166.5,69.5C 173.952,64.9342 181.286,60.1008 188.5,55C 190.154,54.3923 191.821,53.8923 193.5,53.5 Z"/></g>
<g><path style="opacity:1" fill="#0380ff" d="M 188.5,47.5 C 190.156,49.4602 191.823,51.4602 193.5,53.5C 191.821,53.8923 190.154,54.3923 188.5,55C 181.286,60.1008 173.952,64.9342 166.5,69.5C 165.5,69.1667 164.833,68.5 164.5,67.5C 167.641,65.5938 170.308,63.0938 172.5,60C 179.193,57.4621 184.527,53.2955 188.5,47.5 Z"/></g>
<g><path style="opacity:1" fill="#022dff" d="M 193.5,54.5 C 195.822,55.8021 197.155,57.8021 197.5,60.5C 193.657,63.5025 189.657,66.3359 185.5,69C 183.449,72.1474 180.449,73.8141 176.5,74C 175.115,75.6494 173.449,76.8161 171.5,77.5C 170.326,76.4863 169.66,75.153 169.5,73.5C 174.691,68.4834 180.358,63.9834 186.5,60C 187.822,56.8407 190.156,55.0073 193.5,54.5 Z"/></g>
<g><path style="opacity:1" fill="#10a0ff" d="M 186.5,45.5 C 187.5,45.8333 188.167,46.5 188.5,47.5C 184.527,53.2955 179.193,57.4621 172.5,60C 170.308,63.0938 167.641,65.5938 164.5,67.5C 163.167,66.8333 162.167,65.8333 161.5,64.5C 167.82,59.1819 174.154,53.8486 180.5,48.5C 182.741,47.8714 184.741,46.8714 186.5,45.5 Z"/></g>
<g><path style="opacity:1" fill="#7fff00" d="M 119.5,26.5 C 122.167,26.5 124.833,26.5 127.5,26.5C 123.642,30.1928 119.642,33.6928 115.5,37C 114.5,37.3333 113.5,37.6667 112.5,38C 106.014,44.1367 98.6811,49.1367 90.5,53C 89.695,54.1127 89.0283,55.2794 88.5,56.5C 86.1432,56.3367 83.8098,56.5034 81.5,57C 80.7476,57.6708 80.4142,58.5041 80.5,59.5C 73.0263,65.0761 65.0263,69.9094 56.5,74C 54.8578,77.4799 52.1911,79.6465 48.5,80.5C 48.5,78.5 48.5,76.5 48.5,74.5C 51.9183,72.4637 54.9183,69.9637 57.5,67C 74.306,57.3806 90.9726,47.3806 107.5,37C 111.719,33.728 115.719,30.228 119.5,26.5 Z"/></g>
<g><path style="opacity:1" fill="#3100ff" d="M 197.5,60.5 C 199.951,63.7403 201.618,67.4069 202.5,71.5C 198.961,74.7769 195.628,78.2769 192.5,82C 186.938,84.8941 181.938,88.5608 177.5,93C 176.552,93.4828 175.552,93.6495 174.5,93.5C 173.93,88.0762 172.93,82.7429 171.5,77.5C 173.449,76.8161 175.115,75.6494 176.5,74C 180.449,73.8141 183.449,72.1474 185.5,69C 189.657,66.3359 193.657,63.5025 197.5,60.5 Z"/></g>
<g><path style="opacity:1" fill="#3eff09" d="M 80.5,59.5 C 80.5,69.1667 80.5,78.8333 80.5,88.5C 69.8333,88.5 59.1667,88.5 48.5,88.5C 48.5,85.8333 48.5,83.1667 48.5,80.5C 52.1911,79.6465 54.8578,77.4799 56.5,74C 65.0263,69.9094 73.0263,65.0761 80.5,59.5 Z"/></g>
<g><path style="opacity:1" fill="#8500ff" d="M 202.5,71.5 C 203.768,73.9052 204.435,76.5718 204.5,79.5C 200.42,81.7717 197.086,84.9384 194.5,89C 191.785,90.9078 188.785,92.2411 185.5,93C 181.136,96.5083 176.803,100.008 172.5,103.5C 172.899,99.9891 173.566,96.6557 174.5,93.5C 175.552,93.6495 176.552,93.4828 177.5,93C 181.938,88.5608 186.938,84.8941 192.5,82C 195.628,78.2769 198.961,74.7769 202.5,71.5 Z"/></g>
<g><path style="opacity:1" fill="#cc00ff" d="M 204.5,79.5 C 205.468,81.6074 205.802,83.9407 205.5,86.5C 197.374,92.7873 189.374,99.2873 181.5,106C 176.564,109.138 171.564,111.971 166.5,114.5C 168.541,110.809 170.541,107.142 172.5,103.5C 176.803,100.008 181.136,96.5083 185.5,93C 188.785,92.2411 191.785,90.9078 194.5,89C 197.086,84.9384 200.42,81.7717 204.5,79.5 Z"/></g>
<g><path style="opacity:1" fill="#ff0075" d="M 203.5,110.5 C 203.204,112.403 202.537,114.07 201.5,115.5C 191.609,122.87 181.276,129.703 170.5,136C 169.403,138.765 167.403,140.431 164.5,141C 163.743,142.512 162.743,143.846 161.5,145C 154.542,148.904 147.876,153.07 141.5,157.5C 139.167,157.5 136.833,157.5 134.5,157.5C 139.965,150.742 146.965,145.908 155.5,143C 165.72,133.389 177.387,126.055 190.5,121C 194.708,117.287 199.041,113.787 203.5,110.5 Z"/></g>
<g><path style="opacity:1" fill="#ff00eb" d="M 206.5,92.5 C 206.768,94.099 206.434,95.4324 205.5,96.5C 199.756,100.07 194.422,104.237 189.5,109C 182.076,113.414 174.409,117.414 166.5,121C 159.833,126.667 153.167,132.333 146.5,138C 136.178,143.168 126.845,149.668 118.5,157.5C 116.167,157.5 113.833,157.5 111.5,157.5C 142.943,135.37 174.61,113.703 206.5,92.5 Z"/></g>
<g><path style="opacity:1" fill="#ff00b0" d="M 205.5,99.5 C 205.784,101.415 205.451,103.081 204.5,104.5C 196.003,109.956 188.003,116.122 180.5,123C 171.08,126.768 163.08,132.435 156.5,140C 152.056,141.111 148.056,143.111 144.5,146C 139.579,149.613 134.912,153.446 130.5,157.5C 129.167,157.5 127.833,157.5 126.5,157.5C 132.962,152.539 138.962,147.039 144.5,141C 151.206,135.645 158.54,131.312 166.5,128C 171.339,123.935 176.672,120.602 182.5,118C 189.756,111.217 197.423,105.05 205.5,99.5 Z"/></g>
<g><path style="opacity:1" fill="#ff0095" d="M 204.5,104.5 C 204.483,106.565 204.15,108.565 203.5,110.5C 199.041,113.787 194.708,117.287 190.5,121C 177.387,126.055 165.72,133.389 155.5,143C 146.965,145.908 139.965,150.742 134.5,157.5C 133.167,157.5 131.833,157.5 130.5,157.5C 134.912,153.446 139.579,149.613 144.5,146C 148.056,143.111 152.056,141.111 156.5,140C 163.08,132.435 171.08,126.768 180.5,123C 188.003,116.122 196.003,109.956 204.5,104.5 Z"/></g>
<g><path style="opacity:1" fill="#f000fe" d="M 205.5,86.5 C 206.341,88.3792 206.675,90.3792 206.5,92.5C 174.61,113.703 142.943,135.37 111.5,157.5C 107.5,157.5 103.5,157.5 99.5,157.5C 100.29,156.206 101.29,155.039 102.5,154C 109.983,150.09 116.983,145.423 123.5,140C 128.159,139.126 131.826,136.793 134.5,133C 138.198,130.821 141.864,128.654 145.5,126.5C 153.548,124.31 160.548,120.31 166.5,114.5C 171.564,111.971 176.564,109.138 181.5,106C 189.374,99.2873 197.374,92.7873 205.5,86.5 Z"/></g>
<g><path style="opacity:1" fill="#ff0033" d="M 198.5,121.5 C 198.107,123.284 197.441,124.95 196.5,126.5C 192.934,129.54 188.934,132.04 184.5,134C 181.793,138.692 177.793,142.025 172.5,144C 171.547,145.955 170.213,147.622 168.5,149C 164.619,149.607 161.286,151.274 158.5,154C 158.728,154.399 159.062,154.565 159.5,154.5C 155.404,156.023 151.071,157.023 146.5,157.5C 149.292,153.88 152.958,151.713 157.5,151C 171.681,141.689 185.347,131.856 198.5,121.5 Z"/></g>
<g><path style="opacity:1" fill="#ff0119" d="M 196.5,126.5 C 187.621,140.377 175.288,149.71 159.5,154.5C 159.062,154.565 158.728,154.399 158.5,154C 161.286,151.274 164.619,149.607 168.5,149C 170.213,147.622 171.547,145.955 172.5,144C 177.793,142.025 181.793,138.692 184.5,134C 188.934,132.04 192.934,129.54 196.5,126.5 Z"/></g>
<g><path style="opacity:1" fill="#0034ff" d="M 94.5,127.5 C 89.5644,130.642 84.5644,133.809 79.5,137C 72.2755,144.291 63.9421,150.124 54.5,154.5C 54.5569,153.391 54.8902,152.391 55.5,151.5C 59.054,150.895 61.7206,149.061 63.5,146C 71.2955,141.445 78.2955,135.945 84.5,129.5C 87.6791,128.207 91.0124,127.54 94.5,127.5 Z"/></g>
<g><path style="opacity:1" fill="#044cff" d="M 84.5,129.5 C 78.2955,135.945 71.2955,141.445 63.5,146C 61.7206,149.061 59.054,150.895 55.5,151.5C 62.2693,140.403 71.9359,133.07 84.5,129.5 Z"/></g>
<g><path style="opacity:1" fill="#b200ff" d="M 145.5,126.5 C 141.864,128.654 138.198,130.821 134.5,133C 131.826,136.793 128.159,139.126 123.5,140C 116.983,145.423 109.983,150.09 102.5,154C 101.29,155.039 100.29,156.206 99.5,157.5C 96.5176,157.963 93.5176,158.296 90.5,158.5C 95.095,154.108 100.428,150.608 106.5,148C 115.46,140.522 124.794,133.689 134.5,127.5C 138.215,127.577 141.881,127.244 145.5,126.5 Z"/></g>
<g><path style="opacity:1" fill="#ff00ce" d="M 205.5,96.5 C 205.5,97.5 205.5,98.5 205.5,99.5C 197.423,105.05 189.756,111.217 182.5,118C 176.672,120.602 171.339,123.935 166.5,128C 158.54,131.312 151.206,135.645 144.5,141C 138.962,147.039 132.962,152.539 126.5,157.5C 123.833,157.5 121.167,157.5 118.5,157.5C 126.845,149.668 136.178,143.168 146.5,138C 153.167,132.333 159.833,126.667 166.5,121C 174.409,117.414 182.076,113.414 189.5,109C 194.422,104.237 199.756,100.07 205.5,96.5 Z"/></g>
<g><path style="opacity:1" fill="#2106ff" d="M 94.5,127.5 C 101.5,127.5 108.5,127.5 115.5,127.5C 115.586,128.496 115.252,129.329 114.5,130C 109.532,131.635 105.532,134.468 102.5,138.5C 97.2994,141.932 91.966,145.099 86.5,148C 81.3536,152.087 76.3536,156.421 71.5,161C 63.2946,165.009 55.6279,169.842 48.5,175.5C 48.5065,167.827 50.5065,160.827 54.5,154.5C 63.9421,150.124 72.2755,144.291 79.5,137C 84.5644,133.809 89.5644,130.642 94.5,127.5 Z"/></g>
<g><path style="opacity:1" fill="#ff0053" d="M 201.5,115.5 C 201.008,117.819 200.008,119.819 198.5,121.5C 185.347,131.856 171.681,141.689 157.5,151C 152.958,151.713 149.292,153.88 146.5,157.5C 144.833,157.5 143.167,157.5 141.5,157.5C 147.876,153.07 154.542,148.904 161.5,145C 162.743,143.846 163.743,142.512 164.5,141C 167.403,140.431 169.403,138.765 170.5,136C 181.276,129.703 191.609,122.87 201.5,115.5 Z"/></g>
<g><path style="opacity:1" fill="#7800ff" d="M 115.5,127.5 C 121.833,127.5 128.167,127.5 134.5,127.5C 124.794,133.689 115.46,140.522 106.5,148C 100.428,150.608 95.095,154.108 90.5,158.5C 71.7573,162.789 57.9239,173.456 49,190.5C 48.5007,185.511 48.3341,180.511 48.5,175.5C 55.6279,169.842 63.2946,165.009 71.5,161C 76.3536,156.421 81.3536,152.087 86.5,148C 91.966,145.099 97.2994,141.932 102.5,138.5C 105.532,134.468 109.532,131.635 114.5,130C 115.252,129.329 115.586,128.496 115.5,127.5 Z"/></g>
<g><path style="opacity:1" fill="#df00fe" d="M 80.5,179.5 C 70.8338,184.664 61.5004,190.331 52.5,196.5C 58.6507,181.991 68.9841,172.658 83.5,168.5C 81.4782,171.897 80.4782,175.564 80.5,179.5 Z"/></g>
<g><path style="opacity:1" fill="#ff00ad" d="M 80.5,188.5 C 80.5,189.833 80.5,191.167 80.5,192.5C 72.1404,194.658 65.1404,199.158 59.5,206C 55.4308,207.693 51.7641,209.86 48.5,212.5C 48.8333,210.5 49.1667,208.5 49.5,206.5C 52.9378,204.241 56.2711,201.741 59.5,199C 66.2542,194.956 73.2542,191.456 80.5,188.5 Z"/></g>
<g><path style="opacity:1" fill="#ff00de" d="M 80.5,179.5 C 80.5,182.5 80.5,185.5 80.5,188.5C 73.2542,191.456 66.2542,194.956 59.5,199C 56.2711,201.741 52.9378,204.241 49.5,206.5C 50.192,203.064 51.192,199.73 52.5,196.5C 61.5004,190.331 70.8338,184.664 80.5,179.5 Z"/></g>
<g><path style="opacity:1" fill="#ff0068" d="M 80.5,196.5 C 80.5,197.833 80.5,199.167 80.5,200.5C 75.5269,202.298 71.1936,205.131 67.5,209C 60.5062,211.826 54.1728,215.66 48.5,220.5C 48.5,219.5 48.5,218.5 48.5,217.5C 50.6148,215.109 53.2814,213.776 56.5,213.5C 56.33,212.178 56.6634,211.011 57.5,210C 64.8607,204.986 72.5273,200.486 80.5,196.5 Z"/></g>
<g><path style="opacity:1" fill="#ff0088" d="M 80.5,192.5 C 80.5,193.833 80.5,195.167 80.5,196.5C 72.5273,200.486 64.8607,204.986 57.5,210C 56.6634,211.011 56.33,212.178 56.5,213.5C 53.2814,213.776 50.6148,215.109 48.5,217.5C 48.5,215.833 48.5,214.167 48.5,212.5C 51.7641,209.86 55.4308,207.693 59.5,206C 65.1404,199.158 72.1404,194.658 80.5,192.5 Z"/></g>
<g><path style="opacity:1" fill="#ff000f" d="M 80.5,204.5 C 80.5,212.5 80.5,220.5 80.5,228.5C 69.8333,228.5 59.1667,228.5 48.5,228.5C 48.5,227.5 48.5,226.5 48.5,225.5C 55.132,221.451 61.4654,216.951 67.5,212C 69.9573,210.438 72.624,209.438 75.5,209C 77.0375,207.293 78.7041,205.793 80.5,204.5 Z"/></g>
<g><path style="opacity:1" fill="#ff0049" d="M 80.5,200.5 C 80.5,201.833 80.5,203.167 80.5,204.5C 78.7041,205.793 77.0375,207.293 75.5,209C 72.624,209.438 69.9573,210.438 67.5,212C 61.4654,216.951 55.132,221.451 48.5,225.5C 48.5,223.833 48.5,222.167 48.5,220.5C 54.1728,215.66 60.5062,211.826 67.5,209C 71.1936,205.131 75.5269,202.298 80.5,200.5 Z"/></g>
</svg>
