<?xml version="1.0" encoding="UTF-8"?>
<!DOCTYPE svg PUBLIC "-//W3C//DTD SVG 1.1//EN" "http://www.w3.org/Graphics/SVG/1.1/DTD/svg11.dtd">
<svg xmlns="http://www.w3.org/2000/svg" version="1.1" width="256px" height="256px" style="shape-rendering:geometricPrecision; text-rendering:geometricPrecision; image-rendering:optimizeQuality; fill-rule:evenodd; clip-rule:evenodd" xmlns:xlink="http://www.w3.org/1999/xlink">
<g><path style="opacity:0.956" fill="#f2f6f4" d="M 111.5,-0.5 C 121.833,-0.5 132.167,-0.5 142.5,-0.5C 152.846,1.67074 163.18,4.3374 173.5,7.5C 142.833,8.83333 112.167,8.83333 81.5,7.5C 91.3514,3.93534 101.351,1.26867 111.5,-0.5 Z"/></g>
<g><path style="opacity:0.992" fill="#fefefe" d="M 81.5,7.5 C 112.167,8.83333 142.833,8.83333 173.5,7.5C 208.141,21.4743 232.474,45.8077 246.5,80.5C 245.167,111.5 245.167,142.5 246.5,173.5C 232.5,208.167 208.167,232.5 173.5,246.5C 142.5,245.167 111.5,245.167 80.5,246.5C 45.8333,232.5 21.5,208.167 7.5,173.5C 8.83333,142.5 8.83333,111.5 7.5,80.5C 21.5848,45.4151 46.2514,21.0817 81.5,7.5 Z"/></g>
<g><path style="opacity:1" fill="#c2b3ff" d="M 200.5,69.5 C 200.5,69.8333 200.5,70.1667 200.5,70.5C 198.833,70.5 197.167,70.5 195.5,70.5C 196.748,68.31 198.414,67.9766 200.5,69.5 Z"/></g>
<g><path style="opacity:1" fill="#9f87ff" d="M 195.5,70.5 C 197.167,70.5 198.833,70.5 200.5,70.5C 201.489,75.9753 201.822,81.642 201.5,87.5C 200.549,88.9187 200.216,90.5853 200.5,92.5C 199.36,93.8014 198.027,94.9681 196.5,96C 187.888,99.3072 179.555,103.141 171.5,107.5C 170.52,110.086 170.187,112.753 170.5,115.5C 170.5,122.167 170.5,128.833 170.5,135.5C 170.5,141.833 170.5,148.167 170.5,154.5C 170.5,158.167 170.5,161.833 170.5,165.5C 170.5,171.5 170.5,177.5 170.5,183.5C 170.5,185.167 170.5,186.833 170.5,188.5C 170.167,188.5 169.833,188.5 169.5,188.5C 169.667,156.832 169.5,125.165 169,93.5C 167.871,95.1412 166.371,96.1412 164.5,96.5C 174.267,87.0579 184.601,78.3913 195.5,70.5 Z"/></g>
<g><path style="opacity:1" fill="#ac98ff" d="M 70.5,80.5 C 70.5,81.5 70.5,82.5 70.5,83.5C 65.1377,84.1382 59.9711,85.4716 55,87.5C 53.5962,81.9562 53.0962,76.2896 53.5,70.5C 54.3143,68.7274 55.6476,68.2274 57.5,69C 61.865,72.8409 66.1983,76.6742 70.5,80.5 Z"/></g>
<g><path style="opacity:0.962" fill="#f2f6f4" d="M 7.5,80.5 C 8.83333,111.5 8.83333,142.5 7.5,173.5C 4.02325,163.256 1.35659,152.923 -0.5,142.5C -0.5,132.167 -0.5,121.833 -0.5,111.5C 1.35659,101.077 4.02325,90.7438 7.5,80.5 Z"/></g>
<g><path style="opacity:0.969" fill="#f2f6f4" d="M 246.5,80.5 C 257.166,111.488 257.166,142.488 246.5,173.5C 245.167,142.5 245.167,111.5 246.5,80.5 Z"/></g>
<g><path style="opacity:1" fill="#b5a4ff" d="M 53.5,70.5 C 53.0962,76.2896 53.5962,81.9562 55,87.5C 59.9711,85.4716 65.1377,84.1382 70.5,83.5C 70.5,82.5 70.5,81.5 70.5,80.5C 76.1041,84.765 81.4374,89.4317 86.5,94.5C 86.2435,96.7761 84.9102,97.9428 82.5,98C 75.9072,99.6569 69.2406,100.824 62.5,101.5C 62.2525,103.858 62.9192,105.858 64.5,107.5C 61.2085,105.542 58.2085,103.209 55.5,100.5C 55.0269,99.0937 54.0269,98.427 52.5,98.5C 52.1731,88.985 52.5064,79.6517 53.5,70.5 Z"/></g>
<g><path style="opacity:1" fill="#a792ff" d="M 200.5,92.5 C 200.957,96.5839 200.29,100.417 198.5,104C 190.918,106.4 183.918,109.734 177.5,114C 175.187,114.662 172.854,115.162 170.5,115.5C 170.187,112.753 170.52,110.086 171.5,107.5C 179.555,103.141 187.888,99.3072 196.5,96C 198.027,94.9681 199.36,93.8014 200.5,92.5 Z"/></g>
<g><path style="opacity:1" fill="#6d4aff" d="M 169.5,188.5 C 133.832,188.667 98.1651,188.5 62.5,188C 61.0161,187.338 59.6828,186.504 58.5,185.5C 57.8333,184.167 56.8333,183.167 55.5,182.5C 55.4431,181.391 55.1098,180.391 54.5,179.5C 53.8883,165.35 53.5549,151.184 53.5,137C 53.5009,124.481 54.1676,112.314 55.5,100.5C 58.2085,103.209 61.2085,105.542 64.5,107.5C 67.4744,110.138 70.4744,112.805 73.5,115.5C 75.9024,117.909 78.5691,119.909 81.5,121.5C 84.6067,125.215 88.2733,128.215 92.5,130.5C 99.8505,141.506 108.85,143.172 119.5,135.5C 122.764,133.906 125.431,131.573 127.5,128.5C 129.167,126.167 131.167,124.167 133.5,122.5C 135.749,121.92 137.415,120.587 138.5,118.5C 142.515,114.487 146.848,110.821 151.5,107.5C 154.089,106.581 156.089,104.914 157.5,102.5C 157.5,101.833 157.833,101.5 158.5,101.5C 160.749,100.92 162.415,99.5869 163.5,97.5C 163.5,96.8333 163.833,96.5 164.5,96.5C 166.371,96.1412 167.871,95.1412 169,93.5C 169.5,125.165 169.667,156.832 169.5,188.5 Z"/></g>
<g><path style="opacity:1" fill="#bfafff" d="M 86.5,94.5 C 90.1484,97.1419 93.8151,99.8086 97.5,102.5C 97.5,103.5 97.5,104.5 97.5,105.5C 88.9424,106.165 80.7757,108.165 73,111.5C 72.805,112.819 72.9717,114.153 73.5,115.5C 70.4744,112.805 67.4744,110.138 64.5,107.5C 62.9192,105.858 62.2525,103.858 62.5,101.5C 69.2406,100.824 75.9072,99.6569 82.5,98C 84.9102,97.9428 86.2435,96.7761 86.5,94.5 Z"/></g>
<g><path style="opacity:1" fill="#8365ff" d="M 52.5,98.5 C 54.0269,98.427 55.0269,99.0937 55.5,100.5C 54.1676,112.314 53.5009,124.481 53.5,137C 53.5549,151.184 53.8883,165.35 54.5,179.5C 54.1667,179.5 53.8333,179.5 53.5,179.5C 52.5175,152.544 52.1841,125.544 52.5,98.5 Z"/></g>
<g><path style="opacity:1" fill="#967bff" d="M 163.5,97.5 C 162.415,99.5869 160.749,100.92 158.5,101.5C 159.585,99.4131 161.251,98.0798 163.5,97.5 Z"/></g>
<g><path style="opacity:1" fill="#c5b7ff" d="M 97.5,102.5 C 99.8333,104.167 101.833,106.167 103.5,108.5C 103.38,109.586 102.713,110.253 101.5,110.5C 93.3322,111.875 85.3322,113.875 77.5,116.5C 78.8569,118.186 80.1902,119.852 81.5,121.5C 78.5691,119.909 75.9024,117.909 73.5,115.5C 72.9717,114.153 72.805,112.819 73,111.5C 80.7757,108.165 88.9424,106.165 97.5,105.5C 97.5,104.5 97.5,103.5 97.5,102.5 Z"/></g>
<g><path style="opacity:1" fill="#9377ff" d="M 157.5,102.5 C 156.089,104.914 154.089,106.581 151.5,107.5C 152.911,105.086 154.911,103.419 157.5,102.5 Z"/></g>
<g><path style="opacity:1" fill="#ccc0ff" d="M 103.5,108.5 C 107.567,110.661 111.234,113.328 114.5,116.5C 114.414,117.496 114.748,118.329 115.5,119C 107.126,121.344 98.7924,123.844 90.5,126.5C 91.1799,127.86 91.8466,129.193 92.5,130.5C 88.2733,128.215 84.6067,125.215 81.5,121.5C 80.1902,119.852 78.8569,118.186 77.5,116.5C 85.3322,113.875 93.3322,111.875 101.5,110.5C 102.713,110.253 103.38,109.586 103.5,108.5 Z"/></g>
<g><path style="opacity:1" fill="#e9e4ff" d="M 200.5,70.5 C 200.5,70.1667 200.5,69.8333 200.5,69.5C 201.833,86.9873 202.5,104.821 202.5,123C 202.5,141.003 202.167,158.836 201.5,176.5C 201.5,171.167 201.5,165.833 201.5,160.5C 201.5,157.167 201.5,153.833 201.5,150.5C 201.5,143.167 201.5,135.833 201.5,128.5C 201.5,121.833 201.5,115.167 201.5,108.5C 201.5,101.5 201.5,94.5 201.5,87.5C 201.822,81.642 201.489,75.9753 200.5,70.5 Z"/></g>
<g><path style="opacity:1" fill="#b09dff" d="M 201.5,87.5 C 201.5,94.5 201.5,101.5 201.5,108.5C 201.028,113.695 200.028,118.862 198.5,124C 194.323,126.059 189.99,127.726 185.5,129C 183.137,131.18 180.47,132.847 177.5,134C 175.26,134.977 172.927,135.477 170.5,135.5C 170.5,128.833 170.5,122.167 170.5,115.5C 172.854,115.162 175.187,114.662 177.5,114C 183.918,109.734 190.918,106.4 198.5,104C 200.29,100.417 200.957,96.5839 200.5,92.5C 200.216,90.5853 200.549,88.9187 201.5,87.5 Z"/></g>
<g><path style="opacity:1" fill="#a088ff" d="M 138.5,118.5 C 137.415,120.587 135.749,121.92 133.5,122.5C 133.5,122.167 133.5,121.833 133.5,121.5C 134.922,120.075 136.589,119.075 138.5,118.5 Z"/></g>
<g><path style="opacity:1" fill="#8a6dff" d="M 127.5,128.5 C 125.431,131.573 122.764,133.906 119.5,135.5C 121.569,132.427 124.236,130.094 127.5,128.5 Z"/></g>
<g><path style="opacity:1" fill="#d7cdff" d="M 114.5,116.5 C 119.708,122.053 126.041,123.72 133.5,121.5C 133.5,121.833 133.5,122.167 133.5,122.5C 131.167,124.167 129.167,126.167 127.5,128.5C 124.236,130.094 121.569,132.427 119.5,135.5C 108.85,143.172 99.8505,141.506 92.5,130.5C 91.8466,129.193 91.1799,127.86 90.5,126.5C 98.7924,123.844 107.126,121.344 115.5,119C 114.748,118.329 114.414,117.496 114.5,116.5 Z"/></g>
<g><path style="opacity:1" fill="#baa9ff" d="M 201.5,108.5 C 201.5,115.167 201.5,121.833 201.5,128.5C 201.002,133.031 200.002,137.531 198.5,142C 192.447,145.584 185.947,148.417 179,150.5C 176.759,152.947 173.925,154.28 170.5,154.5C 170.5,148.167 170.5,141.833 170.5,135.5C 172.927,135.477 175.26,134.977 177.5,134C 180.47,132.847 183.137,131.18 185.5,129C 189.99,127.726 194.323,126.059 198.5,124C 200.028,118.862 201.028,113.695 201.5,108.5 Z"/></g>
<g><path style="opacity:1" fill="#c0b1ff" d="M 201.5,128.5 C 201.5,135.833 201.5,143.167 201.5,150.5C 191.411,155.709 181.078,160.709 170.5,165.5C 170.5,161.833 170.5,158.167 170.5,154.5C 173.925,154.28 176.759,152.947 179,150.5C 185.947,148.417 192.447,145.584 198.5,142C 200.002,137.531 201.002,133.031 201.5,128.5 Z"/></g>
<g><path style="opacity:1" fill="#c9bcff" d="M 201.5,150.5 C 201.5,153.833 201.5,157.167 201.5,160.5C 200.799,163.563 200.132,166.73 199.5,170C 189.905,174.957 180.238,179.457 170.5,183.5C 170.5,177.5 170.5,171.5 170.5,165.5C 181.078,160.709 191.411,155.709 201.5,150.5 Z"/></g>
<g><path style="opacity:1" fill="#d0c5ff" d="M 201.5,160.5 C 201.5,165.833 201.5,171.167 201.5,176.5C 199.797,182.747 195.797,186.58 189.5,188C 183.175,188.5 176.842,188.666 170.5,188.5C 170.5,186.833 170.5,185.167 170.5,183.5C 180.238,179.457 189.905,174.957 199.5,170C 200.132,166.73 200.799,163.563 201.5,160.5 Z"/></g>
<g><path style="opacity:1" fill="#c2b2ff" d="M 53.5,179.5 C 53.8333,179.5 54.1667,179.5 54.5,179.5C 55.1098,180.391 55.4431,181.391 55.5,182.5C 54.0937,182.027 53.427,181.027 53.5,179.5 Z"/></g>
<g><path style="opacity:1" fill="#c8b9ff" d="M 55.5,182.5 C 56.8333,183.167 57.8333,184.167 58.5,185.5C 56.5,185.5 55.5,184.5 55.5,182.5 Z"/></g>
<g><path style="opacity:0.966" fill="#f2f6f4" d="M 80.5,246.5 C 111.5,245.167 142.5,245.167 173.5,246.5C 142.5,257.167 111.5,257.167 80.5,246.5 Z"/></g>
</svg>
