<?xml version="1.0" encoding="UTF-8"?>
<!DOCTYPE svg PUBLIC "-//W3C//DTD SVG 1.1//EN" "http://www.w3.org/Graphics/SVG/1.1/DTD/svg11.dtd">
<svg xmlns="http://www.w3.org/2000/svg" version="1.1" width="256px" height="256px" style="shape-rendering:geometricPrecision; text-rendering:geometricPrecision; image-rendering:optimizeQuality; fill-rule:evenodd; clip-rule:evenodd" xmlns:xlink="http://www.w3.org/1999/xlink">
<g><path style="opacity:0.804" fill="#5d9ccf" d="M 47.5,40.5 C 48.8333,41.1667 48.8333,41.1667 47.5,40.5 Z"/></g>
<g><path style="opacity:0.518" fill="#599bce" d="M 194.5,40.5 C 195.833,41.1667 195.833,41.1667 194.5,40.5 Z"/></g>
<g><path style="opacity:0.733" fill="#629fd1" d="M 44.5,41.5 C 45.8333,42.1667 45.8333,42.1667 44.5,41.5 Z"/></g>
<g><path style="opacity:0.733" fill="#5c9ccf" d="M 197.5,41.5 C 198.833,42.1667 198.833,42.1667 197.5,41.5 Z"/></g>
<g><path style="opacity:0.447" fill="#66a3d5" d="M 41.5,43.5 C 42.8333,44.1667 42.8333,44.1667 41.5,43.5 Z"/></g>
<g><path style="opacity:0.902" fill="#5fa0d3" d="M 201.5,44.5 C 200.833,43.1667 200.833,43.1667 201.5,44.5 Z"/></g>
<g><path style="opacity:0.302" fill="#68a5d7" d="M 41.5,44.5 C 40.8333,45.1667 40.8333,45.1667 41.5,44.5 Z"/></g>
<g><path style="opacity:0.663" fill="#63a3d6" d="M 201.5,44.5 C 202.833,45.1667 202.833,45.1667 201.5,44.5 Z"/></g>
<g><path style="opacity:0.447" fill="#66a4d8" d="M 38.5,47.5 C 39.8333,48.1667 39.8333,48.1667 38.5,47.5 Z"/></g>
<g><path style="opacity:0.518" fill="#599cd1" d="M 203.5,47.5 C 204.833,48.1667 204.833,48.1667 203.5,47.5 Z"/></g>
<g><path style="opacity:0.259" fill="#68a5d6" d="M 37.5,49.5 C 38.8333,50.1667 38.8333,50.1667 37.5,49.5 Z"/></g>
<g><path style="opacity:0.78" fill="#5f9ed2" d="M 204.5,49.5 C 205.833,50.1667 205.833,50.1667 204.5,49.5 Z"/></g>
<g><path style="opacity:1" fill="#fbfcfd" d="M 59.5,62.5 C 78.5029,62.3334 97.5029,62.5001 116.5,63C 115.507,81.4235 115.174,99.9235 115.5,118.5C 96.8333,118.5 78.1667,118.5 59.5,118.5C 59.5,99.8333 59.5,81.1667 59.5,62.5 Z"/></g>
<g><path style="opacity:1" fill="#eff1f6" d="M 146.5,65.5 C 146.5,66.8333 146.5,68.1667 146.5,69.5C 142.062,68.4251 140.062,70.0917 140.5,74.5C 142.5,74.5 144.5,74.5 146.5,74.5C 146.5,76.8333 146.5,79.1667 146.5,81.5C 148.467,81.7394 150.301,81.4061 152,80.5C 152.499,76.5138 152.666,72.5138 152.5,68.5C 154.5,68.5 156.5,68.5 158.5,68.5C 158.5,67.5 158.5,66.5 158.5,65.5C 158.5,64.5 158.5,63.5 158.5,62.5C 160.833,62.5 163.167,62.5 165.5,62.5C 165.5,63.5 165.5,64.5 165.5,65.5C 165.5,66.5 165.5,67.5 165.5,68.5C 168.285,69.0838 169.952,68.0838 170.5,65.5C 170.5,64.5 170.5,63.5 170.5,62.5C 175.361,62.0634 180.028,62.5634 184.5,64C 183.525,69.7412 183.192,75.5746 183.5,81.5C 182.5,81.5 181.5,81.5 180.5,81.5C 179.167,81.5 177.833,81.5 176.5,81.5C 176.207,77.5633 176.54,73.73 177.5,70C 175.559,69.2571 173.726,69.4238 172,70.5C 171.501,76.1569 171.334,81.8236 171.5,87.5C 174.5,87.5 177.5,87.5 180.5,87.5C 181.5,87.5 182.5,87.5 183.5,87.5C 183.5,93.8333 183.5,100.167 183.5,106.5C 181.5,106.5 179.5,106.5 177.5,106.5C 178.01,103.612 177.344,101.279 175.5,99.5C 172.167,99.5 168.833,99.5 165.5,99.5C 164.761,99.631 164.094,99.4643 163.5,99C 163.616,94.387 165.949,92.5537 170.5,93.5C 170.5,91.5 170.5,89.5 170.5,87.5C 169.167,87.5 167.833,87.5 166.5,87.5C 163.167,87.5 159.833,87.5 156.5,87.5C 153.167,87.5 149.833,87.5 146.5,87.5C 146.5,89.5 146.5,91.5 146.5,93.5C 142.167,93.5 137.833,93.5 133.5,93.5C 133.5,91.8333 133.5,90.1667 133.5,88.5C 131.833,88.5 130.167,88.5 128.5,88.5C 127.848,87.5514 127.514,86.3847 127.5,85C 127.608,83.3189 128.275,82.1522 129.5,81.5C 130.833,81.5 132.167,81.5 133.5,81.5C 133.665,77.8183 133.499,74.1516 133,70.5C 131.989,69.6634 130.822,69.33 129.5,69.5C 127.656,67.7211 126.99,65.3878 127.5,62.5C 133.833,62.5 140.167,62.5 146.5,62.5C 146.5,63.5 146.5,64.5 146.5,65.5 Z"/></g>
<g><path style="opacity:1" fill="#08fe13" d="M 146.5,65.5 C 150.5,65.5 154.5,65.5 158.5,65.5C 158.5,66.5 158.5,67.5 158.5,68.5C 156.5,68.5 154.5,68.5 152.5,68.5C 152.666,72.5138 152.499,76.5138 152,80.5C 150.301,81.4061 148.467,81.7394 146.5,81.5C 146.5,79.1667 146.5,76.8333 146.5,74.5C 144.5,74.5 142.5,74.5 140.5,74.5C 140.062,70.0917 142.062,68.4251 146.5,69.5C 146.5,68.1667 146.5,66.8333 146.5,65.5 Z"/></g>
<g><path style="opacity:1" fill="#00fe4e" d="M 165.5,65.5 C 167.167,65.5 168.833,65.5 170.5,65.5C 169.952,68.0838 168.285,69.0838 165.5,68.5C 165.5,67.5 165.5,66.5 165.5,65.5 Z"/></g>
<g><path style="opacity:1" fill="#8998c3" d="M 65.5,68.5 C 80.1667,68.5 94.8333,68.5 109.5,68.5C 109.5,83.1667 109.5,97.8333 109.5,112.5C 94.8333,112.5 80.1667,112.5 65.5,112.5C 65.5,97.8333 65.5,83.1667 65.5,68.5 Z"/></g>
<g><path style="opacity:1" fill="#ff8300" d="M 90.5,69.5 C 89.5,70.8333 88.5,72.1667 87.5,73.5C 82.4351,73.219 77.4351,73.5524 72.5,74.5C 71.52,77.0865 71.1866,79.7531 71.5,82.5C 70.2402,84.3671 68.5735,85.7005 66.5,86.5C 66.5,80.8333 66.5,75.1667 66.5,69.5C 74.5,69.5 82.5,69.5 90.5,69.5 Z"/></g>
<g><path style="opacity:1" fill="#ffdf00" d="M 90.5,69.5 C 93.5,69.5 96.5,69.5 99.5,69.5C 98.7888,71.0301 97.7888,72.3634 96.5,73.5C 93.5,73.5 90.5,73.5 87.5,73.5C 88.5,72.1667 89.5,70.8333 90.5,69.5 Z"/></g>
<g><path style="opacity:1" fill="#44fe00" d="M 129.5,69.5 C 130.822,69.33 131.989,69.6634 133,70.5C 133.499,74.1516 133.665,77.8183 133.5,81.5C 132.167,81.5 130.833,81.5 129.5,81.5C 129.5,77.5 129.5,73.5 129.5,69.5 Z"/></g>
<g><path style="opacity:1" fill="#aaafc8" d="M 87.5,73.5 C 90.5,73.5 93.5,73.5 96.5,73.5C 98.861,73.6741 101.194,74.0074 103.5,74.5C 103.5,77.8333 103.5,81.1667 103.5,84.5C 103.5,91.8333 103.5,99.1667 103.5,106.5C 96.1667,106.5 88.8333,106.5 81.5,106.5C 78.1667,106.5 74.8333,106.5 71.5,106.5C 71.5,104.833 71.5,103.167 71.5,101.5C 71.5,95.1667 71.5,88.8333 71.5,82.5C 71.1866,79.7531 71.52,77.0865 72.5,74.5C 77.4351,73.5524 82.4351,73.219 87.5,73.5 Z"/></g>
<g><path style="opacity:1" fill="#fefefe" d="M 72.5,75.5 C 82.5,75.5 92.5,75.5 102.5,75.5C 102.5,85.5 102.5,95.5 102.5,105.5C 92.5,105.5 82.5,105.5 72.5,105.5C 72.5,95.5 72.5,85.5 72.5,75.5 Z"/></g>
<g><path style="opacity:1" fill="#0dfc6e" d="M 158.5,75.5 C 163.5,74.5 165.5,76.5 164.5,81.5C 162.5,81.5 160.5,81.5 158.5,81.5C 158.5,79.5 158.5,77.5 158.5,75.5 Z"/></g>
<g><path style="opacity:1" fill="#c8ff00" d="M 99.5,69.5 C 102.5,69.5 105.5,69.5 108.5,69.5C 108.5,73.1667 108.5,76.8333 108.5,80.5C 106.833,81.8333 105.167,83.1667 103.5,84.5C 103.5,81.1667 103.5,77.8333 103.5,74.5C 101.194,74.0074 98.861,73.6741 96.5,73.5C 97.7888,72.3634 98.7888,71.0301 99.5,69.5 Z"/></g>
<g><path style="opacity:1" fill="#11fec3" d="M 180.5,81.5 C 180.5,83.5 180.5,85.5 180.5,87.5C 177.5,87.5 174.5,87.5 171.5,87.5C 171.334,81.8236 171.501,76.1569 172,70.5C 173.726,69.4238 175.559,69.2571 177.5,70C 176.54,73.73 176.207,77.5633 176.5,81.5C 177.833,81.5 179.167,81.5 180.5,81.5 Z"/></g>
<g><path style="opacity:1" fill="#01fe22" d="M 146.5,87.5 C 142.5,87.5 138.5,87.5 134.5,87.5C 134.5,85.5 134.5,83.5 134.5,81.5C 138.182,81.3347 141.848,81.5014 145.5,82C 146.406,83.6995 146.739,85.5328 146.5,87.5 Z"/></g>
<g><path style="opacity:1" fill="#00fe10" d="M 128.5,88.5 C 130.167,88.5 131.833,88.5 133.5,88.5C 133.5,90.1667 133.5,91.8333 133.5,93.5C 131.833,93.5 130.167,93.5 128.5,93.5C 128.5,91.8333 128.5,90.1667 128.5,88.5 Z"/></g>
<g><path style="opacity:1" fill="#03ffce" d="M 166.5,87.5 C 167.833,87.5 169.167,87.5 170.5,87.5C 170.5,89.5 170.5,91.5 170.5,93.5C 165.949,92.5537 163.616,94.387 163.5,99C 164.094,99.4643 164.761,99.631 165.5,99.5C 165.5,100.167 165.167,100.5 164.5,100.5C 160.062,101.575 158.062,99.9083 158.5,95.5C 161.167,92.8333 163.833,90.1667 166.5,87.5 Z"/></g>
<g><path style="opacity:1" fill="#f4f6f8" d="M 158.5,95.5 C 158.062,99.9083 160.062,101.575 164.5,100.5C 164.261,102.467 164.594,104.301 165.5,106C 161.179,106.499 156.846,106.666 152.5,106.5C 152.5,109.833 152.5,113.167 152.5,116.5C 152.03,117.693 151.03,118.36 149.5,118.5C 148.274,118.48 147.274,118.147 146.5,117.5C 146.5,111.833 146.5,106.167 146.5,100.5C 148.5,100.5 150.5,100.5 152.5,100.5C 152.5,98.1667 152.5,95.8333 152.5,93.5C 155.082,93.0254 157.082,93.6921 158.5,95.5 Z"/></g>
<g><path style="opacity:1" fill="#d8dbe1" d="M 128.5,93.5 C 130.167,93.5 131.833,93.5 133.5,93.5C 134.341,95.3792 134.675,97.3792 134.5,99.5C 132.833,99.5 131.167,99.5 129.5,99.5C 128.307,99.0296 127.64,98.0296 127.5,96.5C 127.52,95.2739 127.853,94.2739 128.5,93.5 Z"/></g>
<g><path style="opacity:1" fill="#03fe66" d="M 146.5,87.5 C 149.833,87.5 153.167,87.5 156.5,87.5C 150.789,92.7128 145.289,98.0461 140,103.5C 139.536,104.094 139.369,104.761 139.5,105.5C 135.833,105.5 132.167,105.5 128.5,105.5C 128.517,103.435 128.85,101.435 129.5,99.5C 131.167,99.5 132.833,99.5 134.5,99.5C 134.675,97.3792 134.341,95.3792 133.5,93.5C 137.833,93.5 142.167,93.5 146.5,93.5C 146.5,91.5 146.5,89.5 146.5,87.5 Z"/></g>
<g><path style="opacity:1" fill="#ffe000" d="M 71.5,82.5 C 71.5,88.8333 71.5,95.1667 71.5,101.5C 69.8333,102.833 68.1667,104.167 66.5,105.5C 66.5,99.1667 66.5,92.8333 66.5,86.5C 68.5735,85.7005 70.2402,84.3671 71.5,82.5 Z"/></g>
<g><path style="opacity:1" fill="#0afe9f" d="M 156.5,87.5 C 159.833,87.5 163.167,87.5 166.5,87.5C 163.833,90.1667 161.167,92.8333 158.5,95.5C 157.082,93.6921 155.082,93.0254 152.5,93.5C 152.5,95.8333 152.5,98.1667 152.5,100.5C 150.5,100.5 148.5,100.5 146.5,100.5C 146.5,106.167 146.5,111.833 146.5,117.5C 144.5,117.5 142.5,117.5 140.5,117.5C 140.817,113.298 140.483,109.298 139.5,105.5C 139.369,104.761 139.536,104.094 140,103.5C 145.289,98.0461 150.789,92.7128 156.5,87.5 Z"/></g>
<g><path style="opacity:1" fill="#eff0f4" d="M 128.5,105.5 C 132.167,105.5 135.833,105.5 139.5,105.5C 140.483,109.298 140.817,113.298 140.5,117.5C 136.366,118.485 132.032,118.818 127.5,118.5C 127.182,113.968 127.515,109.634 128.5,105.5 Z"/></g>
<g><path style="opacity:1" fill="#55ff00" d="M 108.5,80.5 C 108.5,90.8333 108.5,101.167 108.5,111.5C 98.1667,111.5 87.8333,111.5 77.5,111.5C 78.4839,109.52 79.8173,107.853 81.5,106.5C 88.8333,106.5 96.1667,106.5 103.5,106.5C 103.5,99.1667 103.5,91.8333 103.5,84.5C 105.167,83.1667 106.833,81.8333 108.5,80.5 Z"/></g>
<g><path style="opacity:1" fill="#c3ff00" d="M 71.5,101.5 C 71.5,103.167 71.5,104.833 71.5,106.5C 74.8333,106.5 78.1667,106.5 81.5,106.5C 79.8173,107.853 78.4839,109.52 77.5,111.5C 73.8333,111.5 70.1667,111.5 66.5,111.5C 66.5,109.5 66.5,107.5 66.5,105.5C 68.1667,104.167 69.8333,102.833 71.5,101.5 Z"/></g>
<g><path style="opacity:1" fill="#0ca9fd" d="M 175.5,99.5 C 177.344,101.279 178.01,103.612 177.5,106.5C 179.5,106.5 181.5,106.5 183.5,106.5C 182.659,108.379 182.325,110.379 182.5,112.5C 177.167,112.5 171.833,112.5 166.5,112.5C 166.771,110.688 167.438,109.022 168.5,107.5C 171.32,105.145 173.654,102.478 175.5,99.5 Z"/></g>
<g><path style="opacity:1" fill="#fafcfd" d="M 166.5,112.5 C 171.833,112.5 177.167,112.5 182.5,112.5C 183.461,114.265 183.795,116.265 183.5,118.5C 174.766,119.135 166.433,118.468 158.5,116.5C 158.5,115.167 158.5,113.833 158.5,112.5C 161.167,112.5 163.833,112.5 166.5,112.5 Z"/></g>
<g><path style="opacity:1" fill="#06ebfb" d="M 165.5,99.5 C 168.833,99.5 172.167,99.5 175.5,99.5C 173.654,102.478 171.32,105.145 168.5,107.5C 167.438,109.022 166.771,110.688 166.5,112.5C 163.833,112.5 161.167,112.5 158.5,112.5C 158.5,113.833 158.5,115.167 158.5,116.5C 156.297,116.065 154.297,116.065 152.5,116.5C 152.5,113.167 152.5,109.833 152.5,106.5C 156.846,106.666 161.179,106.499 165.5,106C 164.594,104.301 164.261,102.467 164.5,100.5C 165.167,100.5 165.5,100.167 165.5,99.5 Z"/></g>
<g><path style="opacity:0.329" fill="#105da8" d="M 184.5,116.5 C 185.833,117.167 185.833,117.167 184.5,116.5 Z"/></g>
<g><path style="opacity:0.176" fill="#125ea8" d="M 179.5,119.5 C 180.833,120.167 180.833,120.167 179.5,119.5 Z"/></g>
<g><path style="opacity:1" fill="#fdfefe" d="M 115.5,186.5 C 97.1667,186.5 78.8333,186.5 60.5,186.5C 60.5,168.167 60.5,149.833 60.5,131.5C 78.8333,131.5 97.1667,131.5 115.5,131.5C 115.5,149.833 115.5,168.167 115.5,186.5 Z"/></g>
<g><path style="opacity:1" fill="#97a8cc" d="M 109.5,137.5 C 106.167,137.5 102.833,137.5 99.5,137.5C 88.5,137.5 77.5,137.5 66.5,137.5C 66.5,148.5 66.5,159.5 66.5,170.5C 66.5,173.833 66.5,177.167 66.5,180.5C 65.504,166.01 65.1707,151.343 65.5,136.5C 80.3428,136.171 95.0095,136.504 109.5,137.5 Z"/></g>
<g><path style="opacity:1" fill="#11fe2d" d="M 99.5,137.5 C 97.5712,139.06 96.2378,141.06 95.5,143.5C 87.5803,143.815 79.747,143.482 72,142.5C 71.5003,150.493 71.3336,158.493 71.5,166.5C 69.8333,167.833 68.1667,169.167 66.5,170.5C 66.5,159.5 66.5,148.5 66.5,137.5C 77.5,137.5 88.5,137.5 99.5,137.5 Z"/></g>
<g><path style="opacity:1" fill="#fafbfd" d="M 95.5,143.5 C 97.8333,143.5 100.167,143.5 102.5,143.5C 102.5,146.167 102.5,148.833 102.5,151.5C 102.5,155.5 102.5,159.5 102.5,163.5C 103.08,167.649 102.414,171.316 100.5,174.5C 95.5,174.5 90.5,174.5 85.5,174.5C 80.8333,174.5 76.1667,174.5 71.5,174.5C 71.5,171.833 71.5,169.167 71.5,166.5C 71.3336,158.493 71.5003,150.493 72,142.5C 79.747,143.482 87.5803,143.815 95.5,143.5 Z"/></g>
<g><path style="opacity:1" fill="#10fea1" d="M 99.5,137.5 C 102.833,137.5 106.167,137.5 109.5,137.5C 109.5,140.5 109.5,143.5 109.5,146.5C 107.469,148.522 105.135,150.189 102.5,151.5C 102.5,148.833 102.5,146.167 102.5,143.5C 100.167,143.5 97.8333,143.5 95.5,143.5C 96.2378,141.06 97.5712,139.06 99.5,137.5 Z"/></g>
<g><path style="opacity:1" fill="#04feed" d="M 109.5,146.5 C 109.5,150.167 109.5,153.833 109.5,157.5C 107.167,159.5 104.833,161.5 102.5,163.5C 102.5,159.5 102.5,155.5 102.5,151.5C 105.135,150.189 107.469,148.522 109.5,146.5 Z"/></g>
<g><path style="opacity:0.981" fill="#f6f7f8" d="M 128.5,131.5 C 146.833,131.5 165.167,131.5 183.5,131.5C 183.5,139.833 183.5,148.167 183.5,156.5C 208.38,157.555 219.546,170.555 217,195.5C 208.924,215.619 194.424,222.452 173.5,216C 161.348,209.59 155.181,199.757 155,186.5C 146.292,186.612 137.459,186.612 128.5,186.5C 128.5,168.167 128.5,149.833 128.5,131.5 Z M 169.5,196.5 C 177.988,193.49 180.654,196.323 177.5,205C 174.633,205.801 171.966,205.634 169.5,204.5C 171.833,204.5 174.167,204.5 176.5,204.5C 176.5,201.833 176.5,199.167 176.5,196.5C 174.167,196.5 171.833,196.5 169.5,196.5 Z"/></g>
<g><path style="opacity:1" fill="#2514fe" d="M 162.5,136.5 C 167.5,136.5 172.5,136.5 177.5,136.5C 177.666,142.842 177.5,149.175 177,155.5C 175.972,157.361 174.472,158.695 172.5,159.5C 171.505,154.208 171.172,148.875 171.5,143.5C 166.833,143.5 162.167,143.5 157.5,143.5C 159.555,141.445 161.221,139.112 162.5,136.5 Z"/></g>
<g><path style="opacity:1" fill="#0ca4ff" d="M 155.5,136.5 C 152.543,138.158 150.21,140.491 148.5,143.5C 145.833,143.5 143.167,143.5 140.5,143.5C 140.5,144.833 140.5,146.167 140.5,147.5C 138.081,148.984 135.748,150.651 133.5,152.5C 133.195,147.238 133.529,142.072 134.5,137C 141.492,136.5 148.492,136.334 155.5,136.5 Z"/></g>
<g><path style="opacity:1" fill="#035cff" d="M 155.5,136.5 C 157.833,136.5 160.167,136.5 162.5,136.5C 161.221,139.112 159.555,141.445 157.5,143.5C 154.5,143.5 151.5,143.5 148.5,143.5C 150.21,140.491 152.543,138.158 155.5,136.5 Z"/></g>
<g><path style="opacity:1" fill="#075eff" d="M 140.5,147.5 C 140.5,151.833 140.5,156.167 140.5,160.5C 137.888,161.779 135.555,163.445 133.5,165.5C 133.5,161.167 133.5,156.833 133.5,152.5C 135.748,150.651 138.081,148.984 140.5,147.5 Z"/></g>
<g><path style="opacity:1" fill="#0fbdff" d="M 109.5,157.5 C 109.5,165.167 109.5,172.833 109.5,180.5C 104.833,180.5 100.167,180.5 95.5,180.5C 97.1667,178.5 98.8333,176.5 100.5,174.5C 102.414,171.316 103.08,167.649 102.5,163.5C 104.833,161.5 107.167,159.5 109.5,157.5 Z"/></g>
<g><path style="opacity:1" fill="#ba00ff" d="M 168.5,169.5 C 171.833,169.5 175.167,169.5 178.5,169.5C 180.849,178.656 177.682,181.656 169,178.5C 168.502,175.518 168.335,172.518 168.5,169.5 Z"/></g>
<g><path style="opacity:1" fill="#ff00ae" d="M 195.5,169.5 C 198.518,169.335 201.518,169.502 204.5,170C 207.649,178.852 204.649,181.852 195.5,179C 194.208,175.835 194.208,172.668 195.5,169.5 Z"/></g>
<g><path style="opacity:1" fill="#11feb0" d="M 71.5,166.5 C 71.5,169.167 71.5,171.833 71.5,174.5C 76.1667,174.5 80.8333,174.5 85.5,174.5C 84.5265,177.135 82.8598,179.135 80.5,180.5C 75.8333,180.5 71.1667,180.5 66.5,180.5C 66.5,177.167 66.5,173.833 66.5,170.5C 68.1667,169.167 69.8333,167.833 71.5,166.5 Z"/></g>
<g><path style="opacity:1" fill="#06e6fd" d="M 85.5,174.5 C 90.5,174.5 95.5,174.5 100.5,174.5C 98.8333,176.5 97.1667,178.5 95.5,180.5C 90.5,180.5 85.5,180.5 80.5,180.5C 82.8598,179.135 84.5265,177.135 85.5,174.5 Z"/></g>
<g><path style="opacity:1" fill="#350ffe" d="M 140.5,160.5 C 140.5,165.167 140.5,169.833 140.5,174.5C 146.509,174.334 152.509,174.501 158.5,175C 157.54,176.419 156.707,177.919 156,179.5C 155.667,179.167 155.333,178.833 155,178.5C 148.115,180.441 140.948,181.108 133.5,180.5C 133.5,175.5 133.5,170.5 133.5,165.5C 135.555,163.445 137.888,161.779 140.5,160.5 Z"/></g>
<g><path style="opacity:1" fill="#fb00f2" d="M 181.5,169.5 C 184.833,169.5 188.167,169.5 191.5,169.5C 191.5,172.833 191.5,176.167 191.5,179.5C 188.482,179.665 185.482,179.498 182.5,179C 181.549,175.943 181.216,172.777 181.5,169.5 Z"/></g>
<g><path style="opacity:0.176" fill="#1267ad" d="M 124.5,180.5 C 125.833,181.167 125.833,181.167 124.5,180.5 Z"/></g>
<g><path style="opacity:0.194" fill="#1168ad" d="M 124.5,181.5 C 124.027,182.906 123.027,183.573 121.5,183.5C 121.973,182.094 122.973,181.427 124.5,181.5 Z"/></g>
<g><path style="opacity:0.255" fill="#0e68ad" d="M 116.5,186.5 C 116.343,185.127 116.51,183.793 117,182.5C 117.765,184.066 117.598,185.399 116.5,186.5 Z"/></g>
<g><path style="opacity:0.176" fill="#1268ad" d="M 121.5,183.5 C 121.103,184.525 120.437,184.692 119.5,184C 120.094,183.536 120.761,183.369 121.5,183.5 Z"/></g>
<g><path style="opacity:1" fill="#ff00b7" d="M 182.5,182.5 C 185.5,182.5 188.5,182.5 191.5,182.5C 191.5,185.833 191.5,189.167 191.5,192.5C 182.085,194.756 179.085,191.423 182.5,182.5 Z"/></g>
<g><path style="opacity:1" fill="#fa00f4" d="M 168.5,182.5 C 171.518,182.335 174.518,182.502 177.5,183C 180.833,191.333 178.167,194.333 169.5,192C 168.549,188.943 168.216,185.777 168.5,182.5 Z"/></g>
<g><path style="opacity:0.302" fill="#0064ab" d="M 115.5,186.5 C 115.833,186.5 116.167,186.5 116.5,186.5C 116.315,187.17 115.981,187.17 115.5,186.5 Z"/></g>
<g><path style="opacity:0.012" fill="#215fa8" d="M 63.5,189.5 C 62.8333,188.167 62.8333,188.167 63.5,189.5 Z"/></g>
<g><path style="opacity:0.231" fill="#2060a9" d="M 63.5,189.5 C 64.8333,190.167 64.8333,190.167 63.5,189.5 Z"/></g>
<g><path style="opacity:0.176" fill="#1268ad" d="M 107.5,191.5 C 107.897,190.475 108.563,190.308 109.5,191C 108.906,191.464 108.239,191.631 107.5,191.5 Z"/></g>
<g><path style="opacity:0.231" fill="#1d60a9" d="M 65.5,191.5 C 66.8333,192.167 66.8333,192.167 65.5,191.5 Z"/></g>
<g><path style="opacity:0.176" fill="#1268ad" d="M 107.5,191.5 C 106.833,192.167 106.833,192.167 107.5,191.5 Z"/></g>
<g><path style="opacity:1" fill="#ff0062" d="M 195.5,182.5 C 204.338,180.08 207.338,183.08 204.5,191.5C 201.572,192.484 198.572,192.817 195.5,192.5C 195.5,189.167 195.5,185.833 195.5,182.5 Z"/></g>
<g><path style="opacity:0.176" fill="#1268ad" d="M 104.5,193.5 C 104.842,192.662 105.508,192.328 106.5,192.5C 106.158,193.338 105.492,193.672 104.5,193.5 Z"/></g>
<g><path style="opacity:0.176" fill="#1268ad" d="M 104.5,193.5 C 103.833,194.167 103.833,194.167 104.5,193.5 Z"/></g>
<g><path style="opacity:0.176" fill="#1269ae" d="M 108.5,194.5 C 109.833,195.167 109.833,195.167 108.5,194.5 Z"/></g>
<g><path style="opacity:0.471" fill="#154e99" d="M 37.5,197.5 C 38.8333,198.167 38.8333,198.167 37.5,197.5 Z"/></g>
<g><path style="opacity:0.176" fill="#1269ae" d="M 103.5,197.5 C 104.833,198.167 104.833,198.167 103.5,197.5 Z"/></g>
<g><path style="opacity:0.176" fill="#1269ae" d="M 101.5,198.5 C 102.833,199.167 102.833,199.167 101.5,198.5 Z"/></g>
<g><path style="opacity:0.176" fill="#1269ae" d="M 99.5,200.5 C 99.8417,199.662 100.508,199.328 101.5,199.5C 101.158,200.338 100.492,200.672 99.5,200.5 Z"/></g>
<g><path style="opacity:0.176" fill="#1269ae" d="M 99.5,200.5 C 98.8333,201.167 98.8333,201.167 99.5,200.5 Z"/></g>
<g><path style="opacity:1" fill="#ff00b4" d="M 169.5,196.5 C 171.833,196.5 174.167,196.5 176.5,196.5C 176.5,199.167 176.5,201.833 176.5,204.5C 174.167,204.5 171.833,204.5 169.5,204.5C 169.5,201.833 169.5,199.167 169.5,196.5 Z"/></g>
<g><path style="opacity:0.176" fill="#1269ae" d="M 96.5,201.5 C 97.8333,202.167 97.8333,202.167 96.5,201.5 Z"/></g>
<g><path style="opacity:1" fill="#ff0069" d="M 182.5,195.5 C 185.448,195.223 188.281,195.556 191,196.5C 191.498,199.482 191.665,202.482 191.5,205.5C 182.085,207.756 179.085,204.423 182.5,195.5 Z"/></g>
<g><path style="opacity:0.176" fill="#1269ae" d="M 94.5,202.5 C 95.8333,203.167 95.8333,203.167 94.5,202.5 Z"/></g>
<g><path style="opacity:0.212" fill="#116aae" d="M 94.5,203.5 C 94.1034,204.525 93.4368,204.692 92.5,204C 93.0944,203.536 93.7611,203.369 94.5,203.5 Z"/></g>
<g><path style="opacity:1" fill="#ff001d" d="M 195.5,195.5 C 204.289,193.558 207.289,196.725 204.5,205C 201.518,205.498 198.518,205.665 195.5,205.5C 195.5,202.167 195.5,198.833 195.5,195.5 Z"/></g>
<g><path style="opacity:0.2" fill="#0f5da5" d="M 119.5,206.5 C 120.833,207.167 120.833,207.167 119.5,206.5 Z"/></g>
<g><path style="opacity:0.2" fill="#0f5ca8" d="M 121.5,206.5 C 122.833,207.167 122.833,207.167 121.5,206.5 Z"/></g>
<g><path style="opacity:0.2" fill="#0f5da3" d="M 123.5,206.5 C 124.833,207.167 124.833,207.167 123.5,206.5 Z"/></g>
</svg>
