<?xml version="1.0" encoding="UTF-8"?>
<!DOCTYPE svg PUBLIC "-//W3C//DTD SVG 1.1//EN" "http://www.w3.org/Graphics/SVG/1.1/DTD/svg11.dtd">
<svg xmlns="http://www.w3.org/2000/svg" version="1.1" width="256px" height="256px" style="shape-rendering:geometricPrecision; text-rendering:geometricPrecision; image-rendering:optimizeQuality; fill-rule:evenodd; clip-rule:evenodd" xmlns:xlink="http://www.w3.org/1999/xlink">
<g><path style="opacity:0.844" fill="#fefffe" d="M 115.5,20.5 C 138.832,17.9943 160.165,23.161 179.5,36C 194.903,49.6449 202.57,66.8116 202.5,87.5C 214.507,86.5805 222.007,91.9139 225,103.5C 225.667,111.5 225.667,119.5 225,127.5C 220.478,141.72 211.145,146.72 197,142.5C 196.667,122.5 196.333,102.5 196,82.5C 192.1,51.2659 174.6,33.0992 143.5,28C 119.264,23.7108 97.2641,28.7108 77.5,43C 66.6316,53.9062 60.465,67.0729 59,82.5C 58.6667,102.5 58.3333,122.5 58,142.5C 43.8553,146.72 34.522,141.72 30,127.5C 29.3333,119.5 29.3333,111.5 30,103.5C 32.9929,91.9139 40.4929,86.5805 52.5,87.5C 55.3152,48.0193 76.3152,25.6859 115.5,20.5 Z"/></g>
<g><path style="opacity:0.862" fill="#fefffe" d="M 77.5,68.5 C 85.84,68.3336 94.1733,68.5003 102.5,69C 105.034,69.5163 107.2,70.683 109,72.5C 110.319,70.5125 112.152,69.3459 114.5,69C 123.167,68.3333 131.833,68.3333 140.5,69C 142.848,69.3459 144.681,70.5125 146,72.5C 147.8,70.683 149.966,69.5163 152.5,69C 160.833,68.3333 169.167,68.3333 177.5,69C 183.118,70.2849 186.285,73.7849 187,79.5C 187.667,122.167 187.667,164.833 187,207.5C 186.588,211.491 184.754,214.658 181.5,217C 171.574,218.59 161.574,218.923 151.5,218C 148.08,214.84 144.746,214.84 141.5,218C 132.167,218.667 122.833,218.667 113.5,218C 110.254,214.84 106.92,214.84 103.5,218C 94.5,218.667 85.5,218.667 76.5,218C 71.4781,216.308 68.6448,212.808 68,207.5C 67.3333,164.833 67.3333,122.167 68,79.5C 68.9041,73.7695 72.0707,70.1029 77.5,68.5 Z"/></g>
<g><path style="opacity:1" fill="#05fe68" d="M 160.5,74.5 C 158.15,79.1788 154.484,82.5122 149.5,84.5C 148.602,76.423 152.269,73.0897 160.5,74.5 Z"/></g>
<g><path style="opacity:1" fill="#03f4fe" d="M 180.5,81.5 C 180.5,84.1667 180.5,86.8333 180.5,89.5C 178.811,90.9307 176.811,91.7641 174.5,92C 173.177,92.8159 172.511,93.9826 172.5,95.5C 169.5,95.5 166.5,95.5 163.5,95.5C 168.851,90.4856 174.518,85.8189 180.5,81.5 Z"/></g>
<g><path style="opacity:1" fill="#c3ff00" d="M 93.5,74.5 C 96.5701,74.3677 99.5701,74.701 102.5,75.5C 94.7882,81.6996 87.4549,88.3662 80.5,95.5C 78.5,95.5 76.5,95.5 74.5,95.5C 74.5,93.8333 74.5,92.1667 74.5,90.5C 81.2524,85.6589 87.5857,80.3256 93.5,74.5 Z"/></g>
<g><path style="opacity:1" fill="#f0fb00" d="M 93.5,74.5 C 87.5857,80.3256 81.2524,85.6589 74.5,90.5C 74.3343,86.1539 74.501,81.8206 75,77.5C 75.5,77 76,76.5 76.5,76C 82.0438,74.5962 87.7104,74.0962 93.5,74.5 Z"/></g>
<g><path style="opacity:1" fill="#05ffda" d="M 175.5,74.5 C 179.12,75.4515 180.787,77.7849 180.5,81.5C 174.518,85.8189 168.851,90.4856 163.5,95.5C 160.833,95.5 158.167,95.5 155.5,95.5C 160.793,88.5439 167.126,82.5439 174.5,77.5C 175.386,76.675 175.719,75.675 175.5,74.5 Z"/></g>
<g><path style="opacity:1" fill="#1fff13" d="M 142.5,78.5 C 140.585,81.9749 138.752,85.6416 137,89.5C 134.156,91.159 131.656,93.159 129.5,95.5C 123.5,95.5 117.5,95.5 111.5,95.5C 111.334,89.8236 111.501,84.1569 112,78.5C 112.833,77.6667 113.667,76.8333 114.5,76C 122.395,74.3989 130.395,74.0655 138.5,75C 140.324,75.66 141.657,76.8267 142.5,78.5 Z"/></g>
<g><path style="opacity:1" fill="#02feb8" d="M 169.5,74.5 C 171.5,74.5 173.5,74.5 175.5,74.5C 175.719,75.675 175.386,76.675 174.5,77.5C 167.126,82.5439 160.793,88.5439 155.5,95.5C 152.918,95.9746 150.918,95.3079 149.5,93.5C 157.271,88.2502 163.938,81.9169 169.5,74.5 Z"/></g>
<g><path style="opacity:1" fill="#03fe95" d="M 160.5,74.5 C 163.5,74.5 166.5,74.5 169.5,74.5C 163.938,81.9169 157.271,88.2502 149.5,93.5C 149.5,90.5 149.5,87.5 149.5,84.5C 154.484,82.5122 158.15,79.1788 160.5,74.5 Z"/></g>
<g><path style="opacity:1" fill="#5bff00" d="M 105.5,82.5 C 105.5,86.8333 105.5,91.1667 105.5,95.5C 100.167,95.5 94.8333,95.5 89.5,95.5C 94.5625,90.7645 99.8958,86.4312 105.5,82.5 Z"/></g>
<g><path style="opacity:1" fill="#05fe60" d="M 142.5,78.5 C 143.489,83.9753 143.822,89.642 143.5,95.5C 138.833,95.5 134.167,95.5 129.5,95.5C 131.656,93.159 134.156,91.159 137,89.5C 138.752,85.6416 140.585,81.9749 142.5,78.5 Z"/></g>
<g><path style="opacity:1" fill="#02cbff" d="M 180.5,89.5 C 180.5,91.5 180.5,93.5 180.5,95.5C 177.833,95.5 175.167,95.5 172.5,95.5C 172.511,93.9826 173.177,92.8159 174.5,92C 176.811,91.7641 178.811,90.9307 180.5,89.5 Z"/></g>
<g><path style="opacity:1" fill="#91ff01" d="M 102.5,75.5 C 105.092,77.0361 106.092,79.3695 105.5,82.5C 99.8958,86.4312 94.5625,90.7645 89.5,95.5C 86.5,95.5 83.5,95.5 80.5,95.5C 87.4549,88.3662 94.7882,81.6996 102.5,75.5 Z"/></g>
<g><path style="opacity:1" fill="#01ffcc" d="M 143.5,102.5 C 143.5,104.167 143.5,105.833 143.5,107.5C 133.116,115.885 122.45,123.885 111.5,131.5C 111.5,130.167 111.5,128.833 111.5,127.5C 122.742,119.927 133.409,111.594 143.5,102.5 Z"/></g>
<g><path style="opacity:1" fill="#07eafc" d="M 163.5,101.5 C 162.223,103.148 161.223,104.982 160.5,107C 156.259,107.787 152.592,109.621 149.5,112.5C 149.5,108.833 149.5,105.167 149.5,101.5C 154.167,101.5 158.833,101.5 163.5,101.5 Z"/></g>
<g><path style="opacity:1" fill="#01abff" d="M 171.5,101.5 C 172.5,101.5 173.5,101.5 174.5,101.5C 174.5,102.5 174.5,103.5 174.5,104.5C 173.448,104.351 172.448,104.517 171.5,105C 163.957,111.054 156.623,117.221 149.5,123.5C 149.5,122.167 149.5,120.833 149.5,119.5C 157.149,113.848 164.482,107.848 171.5,101.5 Z"/></g>
<g><path style="opacity:1" fill="#ffc400" d="M 52.5,96.5 C 49.1735,98.6413 46.5068,101.475 44.5,105C 41.598,107.307 38.598,109.473 35.5,111.5C 35.0469,99.6216 40.7135,93.6216 52.5,93.5C 52.5,94.5 52.5,95.5 52.5,96.5 Z"/></g>
<g><path style="opacity:1" fill="#02fe9d" d="M 131.5,101.5 C 134.833,101.5 138.167,101.5 141.5,101.5C 139.802,104.607 137.135,106.274 133.5,106.5C 126.575,112.637 119.242,118.303 111.5,123.5C 111.5,121.833 111.5,120.167 111.5,118.5C 112.807,117.847 114.14,117.18 115.5,116.5C 120.616,111.27 125.949,106.27 131.5,101.5 Z"/></g>
<g><path style="opacity:1" fill="#3e04ff" d="M 219.5,110.5 C 213.137,114.873 207.47,119.873 202.5,125.5C 202.5,114.833 202.5,104.167 202.5,93.5C 213.805,93.472 219.472,99.1387 219.5,110.5 Z"/></g>
<g><path style="opacity:1" fill="#fbf700" d="M 52.5,96.5 C 52.5,100.5 52.5,104.5 52.5,108.5C 46.3071,111.762 40.6405,115.762 35.5,120.5C 35.5,117.5 35.5,114.5 35.5,111.5C 38.598,109.473 41.598,107.307 44.5,105C 46.5068,101.475 49.1735,98.6413 52.5,96.5 Z"/></g>
<g><path style="opacity:1" fill="#05fe68" d="M 131.5,101.5 C 125.949,106.27 120.616,111.27 115.5,116.5C 114.14,117.18 112.807,117.847 111.5,118.5C 111.5,112.833 111.5,107.167 111.5,101.5C 118.167,101.5 124.833,101.5 131.5,101.5 Z"/></g>
<g><path style="opacity:1" fill="#2aff09" d="M 105.5,109.5 C 99.6236,113.818 93.957,118.652 88.5,124C 83.6087,126.427 78.942,129.26 74.5,132.5C 74.5,122.167 74.5,111.833 74.5,101.5C 84.8333,101.5 95.1667,101.5 105.5,101.5C 105.5,104.167 105.5,106.833 105.5,109.5 Z"/></g>
<g><path style="opacity:1" fill="#02caff" d="M 163.5,101.5 C 166.167,101.5 168.833,101.5 171.5,101.5C 164.482,107.848 157.149,113.848 149.5,119.5C 149.5,117.167 149.5,114.833 149.5,112.5C 152.592,109.621 156.259,107.787 160.5,107C 161.223,104.982 162.223,103.148 163.5,101.5 Z"/></g>
<g><path style="opacity:1" fill="#01ffe5" d="M 143.5,107.5 C 143.5,109.167 143.5,110.833 143.5,112.5C 133.336,121.017 122.67,128.684 111.5,135.5C 111.5,134.167 111.5,132.833 111.5,131.5C 122.45,123.885 133.116,115.885 143.5,107.5 Z"/></g>
<g><path style="opacity:1" fill="#02f3fd" d="M 143.5,112.5 C 143.5,113.5 143.5,114.5 143.5,115.5C 133.129,125.206 122.463,134.539 111.5,143.5C 111.5,140.833 111.5,138.167 111.5,135.5C 122.67,128.684 133.336,121.017 143.5,112.5 Z"/></g>
<g><path style="opacity:1" fill="#028dff" d="M 174.5,101.5 C 176.5,101.5 178.5,101.5 180.5,101.5C 180.5,102.5 180.5,103.5 180.5,104.5C 177.63,105.078 175.963,106.745 175.5,109.5C 174.448,109.351 173.448,109.517 172.5,110C 166.951,115.167 161.284,120.167 155.5,125C 153.372,125.655 151.372,126.489 149.5,127.5C 149.5,126.167 149.5,124.833 149.5,123.5C 156.623,117.221 163.957,111.054 171.5,105C 172.448,104.517 173.448,104.351 174.5,104.5C 174.5,103.5 174.5,102.5 174.5,101.5 Z"/></g>
<g><path style="opacity:1" fill="#016bff" d="M 180.5,104.5 C 180.5,105.833 180.5,107.167 180.5,108.5C 176.055,111.571 171.722,114.904 167.5,118.5C 163.236,125.293 157.236,129.627 149.5,131.5C 149.5,130.167 149.5,128.833 149.5,127.5C 151.372,126.489 153.372,125.655 155.5,125C 161.284,120.167 166.951,115.167 172.5,110C 173.448,109.517 174.448,109.351 175.5,109.5C 175.963,106.745 177.63,105.078 180.5,104.5 Z"/></g>
<g><path style="opacity:1" fill="#01feb5" d="M 141.5,101.5 C 142.492,101.328 143.158,101.662 143.5,102.5C 133.409,111.594 122.742,119.927 111.5,127.5C 111.5,126.167 111.5,124.833 111.5,123.5C 119.242,118.303 126.575,112.637 133.5,106.5C 137.135,106.274 139.802,104.607 141.5,101.5 Z"/></g>
<g><path style="opacity:1" fill="#cdff00" d="M 52.5,108.5 C 52.5,110.5 52.5,112.5 52.5,114.5C 49.1668,115.333 46.8334,117.333 45.5,120.5C 42.6508,123.084 39.6508,125.417 36.5,127.5C 35.7814,125.236 35.448,122.903 35.5,120.5C 40.6405,115.762 46.3071,111.762 52.5,108.5 Z"/></g>
<g><path style="opacity:1" fill="#01fe4a" d="M 105.5,109.5 C 105.5,112.5 105.5,115.5 105.5,118.5C 94.5819,126.112 84.2486,134.445 74.5,143.5C 74.5,139.833 74.5,136.167 74.5,132.5C 78.942,129.26 83.6087,126.427 88.5,124C 93.957,118.652 99.6236,113.818 105.5,109.5 Z"/></g>
<g><path style="opacity:1" fill="#0243ff" d="M 180.5,108.5 C 180.5,111.167 180.5,113.833 180.5,116.5C 177.327,118.841 174.66,121.674 172.5,125C 164.637,129.732 156.97,134.565 149.5,139.5C 149.5,136.833 149.5,134.167 149.5,131.5C 157.236,129.627 163.236,125.293 167.5,118.5C 171.722,114.904 176.055,111.571 180.5,108.5 Z"/></g>
<g><path style="opacity:1" fill="#9300ff" d="M 219.5,110.5 C 219.5,113.833 219.5,117.167 219.5,120.5C 213.833,125.167 208.167,129.833 202.5,134.5C 202.5,131.5 202.5,128.5 202.5,125.5C 207.47,119.873 213.137,114.873 219.5,110.5 Z"/></g>
<g><path style="opacity:1" fill="#8bff00" d="M 52.5,114.5 C 52.5,122.167 52.5,129.833 52.5,137.5C 44.5409,138.195 39.2076,134.861 36.5,127.5C 39.6508,125.417 42.6508,123.084 45.5,120.5C 46.8334,117.333 49.1668,115.333 52.5,114.5 Z"/></g>
<g><path style="opacity:1" fill="#c300ff" d="M 219.5,120.5 C 219.472,131.861 213.805,137.528 202.5,137.5C 202.5,136.5 202.5,135.5 202.5,134.5C 208.167,129.833 213.833,125.167 219.5,120.5 Z"/></g>
<g><path style="opacity:1" fill="#03fe9a" d="M 105.5,122.5 C 105.5,125.833 105.5,129.167 105.5,132.5C 98.2719,138.554 90.6052,144.054 82.5,149C 80.6188,152.383 77.9522,154.883 74.5,156.5C 74.5,153.167 74.5,149.833 74.5,146.5C 83.641,142.251 91.3077,136.084 97.5,128C 100.273,126.231 102.94,124.398 105.5,122.5 Z"/></g>
<g><path style="opacity:1" fill="#04cfff" d="M 143.5,115.5 C 143.5,119.167 143.5,122.833 143.5,126.5C 131.457,131.884 120.79,139.218 111.5,148.5C 111.5,146.833 111.5,145.167 111.5,143.5C 122.463,134.539 133.129,125.206 143.5,115.5 Z"/></g>
<g><path style="opacity:1" fill="#03a8ff" d="M 143.5,126.5 C 143.5,127.5 143.5,128.5 143.5,129.5C 133.686,138.649 123.019,146.649 111.5,153.5C 111.5,151.833 111.5,150.167 111.5,148.5C 120.79,139.218 131.457,131.884 143.5,126.5 Z"/></g>
<g><path style="opacity:1" fill="#0282ff" d="M 143.5,129.5 C 143.5,131.5 143.5,133.5 143.5,135.5C 139.892,136.759 137.559,139.092 136.5,142.5C 135.448,142.351 134.448,142.517 133.5,143C 126.901,150.409 119.568,156.909 111.5,162.5C 111.5,159.5 111.5,156.5 111.5,153.5C 123.019,146.649 133.686,138.649 143.5,129.5 Z"/></g>
<g><path style="opacity:1" fill="#01fe72" d="M 105.5,118.5 C 105.5,119.833 105.5,121.167 105.5,122.5C 102.94,124.398 100.273,126.231 97.5,128C 91.3077,136.084 83.641,142.251 74.5,146.5C 74.5,145.5 74.5,144.5 74.5,143.5C 84.2486,134.445 94.5819,126.112 105.5,118.5 Z"/></g>
<g><path style="opacity:1" fill="#02ffe5" d="M 105.5,136.5 C 105.5,138.5 105.5,140.5 105.5,142.5C 95.747,149.746 86.4136,157.579 77.5,166C 76.552,166.483 75.552,166.649 74.5,166.5C 74.5,165.5 74.5,164.5 74.5,163.5C 77.2971,161.205 79.9638,158.705 82.5,156C 83.448,155.517 84.448,155.351 85.5,155.5C 86.8333,150.833 89.8333,147.833 94.5,146.5C 96.8289,141.844 100.496,138.511 105.5,136.5 Z"/></g>
<g><path style="opacity:1" fill="#01fec2" d="M 105.5,132.5 C 105.5,133.833 105.5,135.167 105.5,136.5C 100.496,138.511 96.8289,141.844 94.5,146.5C 89.8333,147.833 86.8333,150.833 85.5,155.5C 84.448,155.351 83.448,155.517 82.5,156C 79.9638,158.705 77.2971,161.205 74.5,163.5C 74.5,161.167 74.5,158.833 74.5,156.5C 77.9522,154.883 80.6188,152.383 82.5,149C 90.6052,144.054 98.2719,138.554 105.5,132.5 Z"/></g>
<g><path style="opacity:1" fill="#3605ff" d="M 180.5,116.5 C 180.5,125.833 180.5,135.167 180.5,144.5C 177.464,145.362 175.131,147.195 173.5,150C 172.552,150.483 171.552,150.649 170.5,150.5C 170.719,151.675 170.386,152.675 169.5,153.5C 163.137,159.864 156.471,165.864 149.5,171.5C 149.5,160.833 149.5,150.167 149.5,139.5C 156.97,134.565 164.637,129.732 172.5,125C 174.66,121.674 177.327,118.841 180.5,116.5 Z"/></g>
<g><path style="opacity:1" fill="#01f5fe" d="M 105.5,142.5 C 105.5,144.167 105.5,145.833 105.5,147.5C 95.2095,155.445 84.8761,163.445 74.5,171.5C 74.5,169.833 74.5,168.167 74.5,166.5C 75.552,166.649 76.552,166.483 77.5,166C 86.4136,157.579 95.747,149.746 105.5,142.5 Z"/></g>
<g><path style="opacity:1" fill="#0261ff" d="M 143.5,135.5 C 143.5,137.167 143.5,138.833 143.5,140.5C 136.325,145.512 129.992,151.345 124.5,158C 119.747,160.265 115.413,163.098 111.5,166.5C 111.5,165.167 111.5,163.833 111.5,162.5C 119.568,156.909 126.901,150.409 133.5,143C 134.448,142.517 135.448,142.351 136.5,142.5C 137.559,139.092 139.892,136.759 143.5,135.5 Z"/></g>
<g><path style="opacity:1" fill="#0046ff" d="M 143.5,140.5 C 143.5,142.167 143.5,143.833 143.5,145.5C 133.463,152.359 124.13,160.193 115.5,169C 114.255,169.791 112.922,170.291 111.5,170.5C 111.5,169.167 111.5,167.833 111.5,166.5C 115.413,163.098 119.747,160.265 124.5,158C 129.992,151.345 136.325,145.512 143.5,140.5 Z"/></g>
<g><path style="opacity:1" fill="#9c00ff" d="M 180.5,144.5 C 180.5,147.5 180.5,150.5 180.5,153.5C 170.351,162.343 160.017,170.676 149.5,178.5C 149.5,176.167 149.5,173.833 149.5,171.5C 156.471,165.864 163.137,159.864 169.5,153.5C 170.386,152.675 170.719,151.675 170.5,150.5C 171.552,150.649 172.552,150.483 173.5,150C 175.131,147.195 177.464,145.362 180.5,144.5 Z"/></g>
<g><path style="opacity:1" fill="#01c5ff" d="M 105.5,152.5 C 105.5,153.167 105.5,153.833 105.5,154.5C 98.0919,160.738 90.7586,167.238 83.5,174C 80.2155,175.033 77.2155,176.533 74.5,178.5C 74.5,177.5 74.5,176.5 74.5,175.5C 77.0046,175.02 79.3379,174.02 81.5,172.5C 85.8062,167.527 90.4729,162.86 95.5,158.5C 98.5623,155.972 101.896,153.972 105.5,152.5 Z"/></g>
<g><path style="opacity:1" fill="#02a7ff" d="M 105.5,154.5 C 105.5,156.833 105.5,159.167 105.5,161.5C 100.174,165.83 94.5075,169.663 88.5,173C 85.3579,178.405 80.6913,181.572 74.5,182.5C 74.5,181.167 74.5,179.833 74.5,178.5C 77.2155,176.533 80.2155,175.033 83.5,174C 90.7586,167.238 98.0919,160.738 105.5,154.5 Z"/></g>
<g><path style="opacity:1" fill="#3807ff" d="M 143.5,145.5 C 143.5,155.167 143.5,164.833 143.5,174.5C 141.138,177.015 138.138,178.515 134.5,179C 130.134,183.701 125.467,188.034 120.5,192C 117.408,193.87 114.408,195.703 111.5,197.5C 111.5,188.5 111.5,179.5 111.5,170.5C 112.922,170.291 114.255,169.791 115.5,169C 124.13,160.193 133.463,152.359 143.5,145.5 Z"/></g>
<g><path style="opacity:1" fill="#c700ff" d="M 180.5,153.5 C 180.5,156.833 180.5,160.167 180.5,163.5C 178.345,163.372 176.345,163.872 174.5,165C 170.691,168.137 166.858,171.303 163,174.5C 162.837,176.676 162.004,178.509 160.5,180C 156.778,182.19 153.111,184.356 149.5,186.5C 149.5,183.833 149.5,181.167 149.5,178.5C 160.017,170.676 170.351,162.343 180.5,153.5 Z"/></g>
<g><path style="opacity:1" fill="#01daff" d="M 105.5,147.5 C 105.5,149.167 105.5,150.833 105.5,152.5C 101.896,153.972 98.5623,155.972 95.5,158.5C 90.4729,162.86 85.8062,167.527 81.5,172.5C 79.3379,174.02 77.0046,175.02 74.5,175.5C 74.5,174.167 74.5,172.833 74.5,171.5C 84.8761,163.445 95.2095,155.445 105.5,147.5 Z"/></g>
<g><path style="opacity:1" fill="#0268ff" d="M 105.5,165.5 C 105.5,168.167 105.5,170.833 105.5,173.5C 103.22,174.64 100.886,175.807 98.5,177C 90.6013,183.743 82.6013,190.243 74.5,196.5C 74.5,194.167 74.5,191.833 74.5,189.5C 78.4167,187.588 82.0834,185.255 85.5,182.5C 91.8924,176.435 98.559,170.769 105.5,165.5 Z"/></g>
<g><path style="opacity:1" fill="#038dff" d="M 105.5,161.5 C 105.5,162.833 105.5,164.167 105.5,165.5C 98.559,170.769 91.8924,176.435 85.5,182.5C 82.0834,185.255 78.4167,187.588 74.5,189.5C 74.5,187.167 74.5,184.833 74.5,182.5C 80.6913,181.572 85.3579,178.405 88.5,173C 94.5075,169.663 100.174,165.83 105.5,161.5 Z"/></g>
<g><path style="opacity:1" fill="#f500fb" d="M 180.5,163.5 C 180.5,165.5 180.5,167.5 180.5,169.5C 177.397,171.423 174.397,173.59 171.5,176C 164.258,183.044 156.925,189.877 149.5,196.5C 149.5,193.167 149.5,189.833 149.5,186.5C 153.111,184.356 156.778,182.19 160.5,180C 162.004,178.509 162.837,176.676 163,174.5C 166.858,171.303 170.691,168.137 174.5,165C 176.345,163.872 178.345,163.372 180.5,163.5 Z"/></g>
<g><path style="opacity:1" fill="#ff00d6" d="M 180.5,169.5 C 180.5,171.5 180.5,173.5 180.5,175.5C 174.723,179.109 169.723,183.609 165.5,189C 163.913,189.862 162.246,190.529 160.5,191C 157.256,194.75 153.589,197.917 149.5,200.5C 149.5,199.167 149.5,197.833 149.5,196.5C 156.925,189.877 164.258,183.044 171.5,176C 174.397,173.59 177.397,171.423 180.5,169.5 Z"/></g>
<g><path style="opacity:1" fill="#ff00a0" d="M 180.5,178.5 C 180.5,179.833 180.5,181.167 180.5,182.5C 170.504,191.49 160.17,200.157 149.5,208.5C 149.5,207.5 149.5,206.5 149.5,205.5C 159.272,195.792 169.605,186.792 180.5,178.5 Z"/></g>
<g><path style="opacity:1" fill="#0046ff" d="M 105.5,173.5 C 105.5,174.833 105.5,176.167 105.5,177.5C 94.5492,184.503 84.2158,192.169 74.5,200.5C 74.5,199.167 74.5,197.833 74.5,196.5C 82.6013,190.243 90.6013,183.743 98.5,177C 100.886,175.807 103.22,174.64 105.5,173.5 Z"/></g>
<g><path style="opacity:1" fill="#ff00b7" d="M 180.5,175.5 C 180.5,176.5 180.5,177.5 180.5,178.5C 169.605,186.792 159.272,195.792 149.5,205.5C 149.5,203.833 149.5,202.167 149.5,200.5C 153.589,197.917 157.256,194.75 160.5,191C 162.246,190.529 163.913,189.862 165.5,189C 169.723,183.609 174.723,179.109 180.5,175.5 Z"/></g>
<g><path style="opacity:1" fill="#ff0080" d="M 180.5,182.5 C 180.5,185.5 180.5,188.5 180.5,191.5C 176.402,193.749 172.402,196.249 168.5,199C 167.62,200.356 167.286,201.856 167.5,203.5C 166.127,203.343 164.793,203.51 163.5,204C 160.302,206.7 157.302,209.533 154.5,212.5C 152.246,211.876 150.579,210.543 149.5,208.5C 160.17,200.157 170.504,191.49 180.5,182.5 Z"/></g>
<g><path style="opacity:1" fill="#9f00ff" d="M 143.5,174.5 C 143.5,178.833 143.5,183.167 143.5,187.5C 137.277,190.616 132.277,195.116 128.5,201C 123.131,203.679 118.131,206.846 113.5,210.5C 112.778,210.082 112.278,209.416 112,208.5C 111.501,204.848 111.335,201.182 111.5,197.5C 114.408,195.703 117.408,193.87 120.5,192C 125.467,188.034 130.134,183.701 134.5,179C 138.138,178.515 141.138,177.015 143.5,174.5 Z"/></g>
<g><path style="opacity:1" fill="#ef00fb" d="M 143.5,187.5 C 143.5,191.833 143.5,196.167 143.5,200.5C 139.194,204.14 135.194,208.14 131.5,212.5C 126.156,212.666 120.823,212.499 115.5,212C 114.584,211.722 113.918,211.222 113.5,210.5C 118.131,206.846 123.131,203.679 128.5,201C 132.277,195.116 137.277,190.616 143.5,187.5 Z"/></g>
<g><path style="opacity:1" fill="#ff00d0" d="M 143.5,200.5 C 145.167,210.167 141.167,214.167 131.5,212.5C 135.194,208.14 139.194,204.14 143.5,200.5 Z"/></g>
<g><path style="opacity:1" fill="#ff0059" d="M 180.5,191.5 C 180.5,193.833 180.5,196.167 180.5,198.5C 173.494,201.493 167.828,206.16 163.5,212.5C 160.5,212.5 157.5,212.5 154.5,212.5C 157.302,209.533 160.302,206.7 163.5,204C 164.793,203.51 166.127,203.343 167.5,203.5C 167.286,201.856 167.62,200.356 168.5,199C 172.402,196.249 176.402,193.749 180.5,191.5 Z"/></g>
<g><path style="opacity:1" fill="#2e0dff" d="M 105.5,177.5 C 105.667,188.172 105.5,198.839 105,209.5C 104.5,210 104,210.5 103.5,211C 95.2704,212.604 86.9371,212.937 78.5,212C 77.0692,211.535 75.9025,210.701 75,209.5C 74.502,206.518 74.3354,203.518 74.5,200.5C 84.2158,192.169 94.5492,184.503 105.5,177.5 Z"/></g>
<g><path style="opacity:1" fill="#ff0025" d="M 180.5,198.5 C 180.665,202.182 180.499,205.848 180,209.5C 179.5,210 179,210.5 178.5,211C 173.628,212.388 168.628,212.888 163.5,212.5C 167.828,206.16 173.494,201.493 180.5,198.5 Z"/></g>
<g><path style="opacity:0.881" fill="#fefffe" d="M 44.5,228.5 C 99.8343,228.333 155.168,228.5 210.5,229C 211.833,230.667 211.833,232.333 210.5,234C 155.167,234.667 99.8333,234.667 44.5,234C 43.2475,232.172 43.2475,230.339 44.5,228.5 Z"/></g>
</svg>
