<?xml version="1.0" encoding="UTF-8"?>
<!DOCTYPE svg PUBLIC "-//W3C//DTD SVG 1.1//EN" "http://www.w3.org/Graphics/SVG/1.1/DTD/svg11.dtd">
<svg xmlns="http://www.w3.org/2000/svg" version="1.1" width="256px" height="256px" style="shape-rendering:geometricPrecision; text-rendering:geometricPrecision; image-rendering:optimizeQuality; fill-rule:evenodd; clip-rule:evenodd" xmlns:xlink="http://www.w3.org/1999/xlink">
<g><path style="opacity:1" fill="#faf2f1" d="M 94.5,64.5 C 93.0254,62.5905 91.0254,61.4238 88.5,61C 75.9996,62.4875 73.4996,58.3208 81,48.5C 81.4974,45.854 81.6641,43.1873 81.5,40.5C 81.2907,38.2856 82.124,36.619 84,35.5C 87.0551,36.6105 89.8884,38.1105 92.5,40C 97.077,40.6521 101.577,41.4854 106,42.5C 104.686,46.1425 103.019,49.8092 101,53.5C 100.667,57.1667 100.333,60.8333 100,64.5C 98.2245,65.5361 96.3911,65.5361 94.5,64.5 Z"/></g>
<g><path style="opacity:1" fill="#899f6e" d="M 118.5,50.5 C 113.734,51.4539 109.067,52.7872 104.5,54.5C 102.761,57.7478 101.594,61.4144 101,65.5C 98.4485,67.0203 96.2818,66.6869 94.5,64.5C 96.3911,65.5361 98.2245,65.5361 100,64.5C 100.333,60.8333 100.667,57.1667 101,53.5C 103.019,49.8092 104.686,46.1425 106,42.5C 101.577,41.4854 97.077,40.6521 92.5,40C 89.8884,38.1105 87.0551,36.6105 84,35.5C 82.124,36.619 81.2907,38.2856 81.5,40.5C 81.1667,40.5 80.8333,40.5 80.5,40.5C 76.5941,37.4176 72.2608,36.7509 67.5,38.5C 71.474,34.6335 75.6406,34.6335 80,38.5C 80.2633,35.736 81.7633,34.0694 84.5,33.5C 90.5915,38.5429 97.5915,40.7095 105.5,40C 106.804,40.804 107.471,41.9707 107.5,43.5C 106.571,46.5247 105.238,49.3581 103.5,52C 108.376,51.1008 113.376,50.6008 118.5,50.5 Z"/></g>
<g><path style="opacity:1" fill="#46976b" d="M 185.5,38.5 C 181.833,37.1667 178.167,37.1667 174.5,38.5C 178.167,34.5 181.833,34.5 185.5,38.5 Z"/></g>
<g><path style="opacity:1" fill="#fe2000" d="M 80.5,40.5 C 80.5,41.1667 80.5,41.8333 80.5,42.5C 76.5408,46.471 71.8741,49.1377 66.5,50.5C 65.5691,48.9668 64.9024,47.3002 64.5,45.5C 65.2515,43.0037 66.2515,40.6704 67.5,38.5C 72.2608,36.7509 76.5941,37.4176 80.5,40.5 Z"/></g>
<g><path style="opacity:1" fill="#428c65" d="M 174.5,38.5 C 172.727,41.0599 170.727,43.3932 168.5,45.5C 169.348,42.1125 171.348,39.7791 174.5,38.5 Z"/></g>
<g><path style="opacity:1" fill="#edf1ee" d="M 166.5,45.5 C 166.854,49.2298 168.187,52.5631 170.5,55.5C 175.456,56.4941 180.456,56.8275 185.5,56.5C 195.126,58.8934 198.292,64.8934 195,74.5C 193.811,76.2331 192.644,77.8998 191.5,79.5C 189.697,81.4813 188.03,83.648 186.5,86C 184.942,86.21 183.609,86.71 182.5,87.5C 177.469,88.1545 173.135,86.8212 169.5,83.5C 168.737,81.6316 167.737,79.9649 166.5,78.5C 166.672,77.5084 166.338,76.8417 165.5,76.5C 165.5,76.1667 165.5,75.8333 165.5,75.5C 165.5,74.1667 165.5,72.8333 165.5,71.5C 160.5,71.5 155.5,71.5 150.5,71.5C 150.167,71.5 149.833,71.5 149.5,71.5C 147.716,71.1075 146.05,70.4408 144.5,69.5C 143.136,67.8089 141.803,66.1423 140.5,64.5C 140.241,60.7604 140.574,57.0938 141.5,53.5C 141.291,52.914 140.957,52.414 140.5,52C 137.964,51.8138 135.631,51.3138 133.5,50.5C 139.889,52.1373 144.389,50.1373 147,44.5C 151.091,40.6951 155.924,39.5284 161.5,41C 163.618,42.0491 165.284,43.5491 166.5,45.5 Z"/></g>
<g><path style="opacity:1" fill="#ff6200" d="M 80.5,42.5 C 78.7592,48.3032 76.7592,53.9699 74.5,59.5C 74.1667,59.5 73.8333,59.5 73.5,59.5C 70.8154,56.8103 68.4821,53.8103 66.5,50.5C 71.8741,49.1377 76.5408,46.471 80.5,42.5 Z"/></g>
<g><path style="opacity:1" fill="#08fe73" d="M 185.5,38.5 C 186.303,39.4232 186.47,40.4232 186,41.5C 181.343,45.6521 176.509,49.6521 171.5,53.5C 170.554,51.1105 169.221,48.9438 167.5,47C 168.056,46.6174 168.389,46.1174 168.5,45.5C 170.727,43.3932 172.727,41.0599 174.5,38.5C 178.167,37.1667 181.833,37.1667 185.5,38.5 Z"/></g>
<g><path style="opacity:1" fill="#0efbad" d="M 185.5,38.5 C 187.446,39.0347 188.446,40.368 188.5,42.5C 187.213,49.9507 182.713,54.284 175,55.5C 173.301,55.6134 172.134,54.9468 171.5,53.5C 176.509,49.6521 181.343,45.6521 186,41.5C 186.47,40.4232 186.303,39.4232 185.5,38.5 Z"/></g>
<g><path style="opacity:1" fill="#4c8e5b" d="M 67.5,38.5 C 66.2515,40.6704 65.2515,43.0037 64.5,45.5C 64.9024,47.3002 65.5691,48.9668 66.5,50.5C 68.4821,53.8103 70.8154,56.8103 73.5,59.5C 74.2485,61.3325 75.2485,62.9991 76.5,64.5C 76.6716,65.4916 76.3382,66.1583 75.5,66.5C 74.5084,66.6716 73.8417,66.3382 73.5,65.5C 73.5,65.1667 73.5,64.8333 73.5,64.5C 73.9382,64.5654 74.2716,64.3988 74.5,64C 71,59.1667 67.5,54.3333 64,49.5C 62.5189,44.8187 63.6856,41.1521 67.5,38.5 Z"/></g>
<g><path style="opacity:1" fill="#69d3a6" d="M 188.5,42.5 C 189.629,44.6282 189.796,46.9615 189,49.5C 187.121,51.5268 185.954,53.8602 185.5,56.5C 180.456,56.8275 175.456,56.4941 170.5,55.5C 168.187,52.5631 166.854,49.2298 166.5,45.5C 167.167,45.5 167.833,45.5 168.5,45.5C 168.389,46.1174 168.056,46.6174 167.5,47C 169.221,48.9438 170.554,51.1105 171.5,53.5C 172.134,54.9468 173.301,55.6134 175,55.5C 182.713,54.284 187.213,49.9507 188.5,42.5 Z"/></g>
<g><path style="opacity:1" fill="#83fa0f" d="M 130.5,50.5 C 123.629,52.8497 117.962,57.0164 113.5,63C 109.015,64.4766 105.349,67.1433 102.5,71C 101.167,71.3333 99.8333,71.6667 98.5,72C 94.5021,75.9881 90.1688,79.4881 85.5,82.5C 86.778,80.1774 87.778,77.6774 88.5,75C 88.1639,73.9701 87.4972,73.4701 86.5,73.5C 87.5109,71.5976 87.6776,69.5976 87,67.5C 86.3292,66.7476 85.4959,66.4142 84.5,66.5C 84.8333,65.8333 85.1667,65.1667 85.5,64.5C 89.4383,64.6355 92.7717,66.1355 95.5,69C 97.8333,69.6667 100.167,69.6667 102.5,69C 103.941,64.3101 104.608,59.4767 104.5,54.5C 109.067,52.7872 113.734,51.4539 118.5,50.5C 122.658,49.4608 126.658,49.4608 130.5,50.5 Z"/></g>
<g><path style="opacity:1" fill="#faf2f2" d="M 73.5,65.5 C 73.8417,66.3382 74.5084,66.6716 75.5,66.5C 78.3054,67.3195 81.3054,67.8195 84.5,68C 85.428,68.3879 86.0946,69.0546 86.5,70C 82.8787,75.592 81.212,81.7587 81.5,88.5C 78.1112,87.3091 74.7779,85.8091 71.5,84C 68.5,83.6667 65.5,83.3333 62.5,83C 61.944,82.6174 61.6107,82.1174 61.5,81.5C 65.5993,76.6192 67.4326,70.9526 67,64.5C 67.414,64.0426 67.914,63.7093 68.5,63.5C 70.0754,64.4565 71.742,65.1231 73.5,65.5 Z"/></g>
<g><path style="opacity:1" fill="#97db65" d="M 80.5,40.5 C 80.8333,40.5 81.1667,40.5 81.5,40.5C 81.6641,43.1873 81.4974,45.854 81,48.5C 73.4996,58.3208 75.9996,62.4875 88.5,61C 91.0254,61.4238 93.0254,62.5905 94.5,64.5C 96.2818,66.6869 98.4485,67.0203 101,65.5C 101.594,61.4144 102.761,57.7478 104.5,54.5C 104.608,59.4767 103.941,64.3101 102.5,69C 100.167,69.6667 97.8333,69.6667 95.5,69C 92.7717,66.1355 89.4383,64.6355 85.5,64.5C 84.9569,64.44 84.6236,64.1067 84.5,63.5C 85.376,62.7492 86.376,62.2492 87.5,62C 82.8766,62.0311 78.5432,61.1978 74.5,59.5C 76.7592,53.9699 78.7592,48.3032 80.5,42.5C 80.5,41.8333 80.5,41.1667 80.5,40.5 Z"/></g>
<g><path style="opacity:1" fill="#f8ec13" d="M 73.5,59.5 C 73.8333,59.5 74.1667,59.5 74.5,59.5C 78.5432,61.1978 82.8766,62.0311 87.5,62C 86.376,62.2492 85.376,62.7492 84.5,63.5C 84.6236,64.1067 84.9569,64.44 85.5,64.5C 85.1667,65.1667 84.8333,65.8333 84.5,66.5C 81.4669,66.8685 78.8002,66.2018 76.5,64.5C 75.2485,62.9991 74.2485,61.3325 73.5,59.5 Z"/></g>
<g><path style="opacity:1" fill="#a3cb5b" d="M 76.5,64.5 C 78.8002,66.2018 81.4669,66.8685 84.5,66.5C 85.4959,66.4142 86.3292,66.7476 87,67.5C 87.6776,69.5976 87.5109,71.5976 86.5,73.5C 83.9635,77.7121 82.7968,82.3788 83,87.5C 82.6174,88.056 82.1174,88.3893 81.5,88.5C 81.212,81.7587 82.8787,75.592 86.5,70C 86.0946,69.0546 85.428,68.3879 84.5,68C 81.3054,67.8195 78.3054,67.3195 75.5,66.5C 76.3382,66.1583 76.6716,65.4916 76.5,64.5 Z"/></g>
<g><path style="opacity:1" fill="#6bd651" d="M 86.5,73.5 C 87.4972,73.4701 88.1639,73.9701 88.5,75C 87.778,77.6774 86.778,80.1774 85.5,82.5C 85.5793,85.2706 85.0793,87.9373 84,90.5C 82.3005,91.4061 80.4672,91.7394 78.5,91.5C 72.3436,88.3796 66.0103,85.7129 59.5,83.5C 59.3284,82.5084 59.6618,81.8417 60.5,81.5C 60.8333,81.5 61.1667,81.5 61.5,81.5C 61.6107,82.1174 61.944,82.6174 62.5,83C 65.5,83.3333 68.5,83.6667 71.5,84C 74.7779,85.8091 78.1112,87.3091 81.5,88.5C 82.1174,88.3893 82.6174,88.056 83,87.5C 82.7968,82.3788 83.9635,77.7121 86.5,73.5 Z"/></g>
<g><path style="opacity:1" fill="#9a8f41" d="M 73.5,64.5 C 73.5,64.8333 73.5,65.1667 73.5,65.5C 71.742,65.1231 70.0754,64.4565 68.5,63.5C 67.914,63.7093 67.414,64.0426 67,64.5C 67.4326,70.9526 65.5993,76.6192 61.5,81.5C 61.1667,81.5 60.8333,81.5 60.5,81.5C 61.3795,78.7378 62.5462,76.0711 64,73.5C 64.2463,70.1103 64.7463,66.777 65.5,63.5C 68.4353,62.102 71.1019,62.4353 73.5,64.5 Z"/></g>
<g><path style="opacity:1" fill="#02fe67" d="M 140.5,64.5 C 141.803,66.1423 143.136,67.8089 144.5,69.5C 130.248,78.5423 116.248,88.0423 102.5,98C 101.552,98.4828 100.552,98.6495 99.5,98.5C 99.1667,98.5 98.8333,98.5 98.5,98.5C 97.8333,97.8333 97.1667,97.1667 96.5,96.5C 100.959,92.3778 105.959,89.0444 111.5,86.5C 117.055,80.775 123.055,75.6083 129.5,71C 132.951,69.7035 136.285,68.2035 139.5,66.5C 140.298,66.0431 140.631,65.3764 140.5,64.5 Z"/></g>
<g><path style="opacity:1" fill="#45aa7e" d="M 191.5,79.5 C 193.42,82.3388 195.087,85.3388 196.5,88.5C 195.167,87.5 193.833,86.5 192.5,85.5C 190.147,86.3403 188.147,87.6736 186.5,89.5C 183.833,89.5 181.167,89.5 178.5,89.5C 179.833,88.8333 181.167,88.1667 182.5,87.5C 183.609,86.71 184.942,86.21 186.5,86C 188.03,83.648 189.697,81.4813 191.5,79.5 Z"/></g>
<g><path style="opacity:1" fill="#05fe90" d="M 144.5,69.5 C 146.05,70.4408 147.716,71.1075 149.5,71.5C 143.439,78.0459 136.106,82.8793 127.5,86C 125.266,89.2486 122.266,91.2486 118.5,92C 113.228,95.5713 108.228,99.4046 103.5,103.5C 102.864,101.205 101.531,99.5387 99.5,98.5C 100.552,98.6495 101.552,98.4828 102.5,98C 116.248,88.0423 130.248,78.5423 144.5,69.5 Z"/></g>
<g><path style="opacity:1" fill="#297ad2" d="M 192.5,85.5 C 191.198,87.8218 189.198,89.1551 186.5,89.5C 188.147,87.6736 190.147,86.3403 192.5,85.5 Z"/></g>
<g><path style="opacity:1" fill="#21fe15" d="M 130.5,50.5 C 131.5,50.5 132.5,50.5 133.5,50.5C 135.631,51.3138 137.964,51.8138 140.5,52C 140.957,52.414 141.291,52.914 141.5,53.5C 140.574,57.0938 140.241,60.7604 140.5,64.5C 140.631,65.3764 140.298,66.0431 139.5,66.5C 136.285,68.2035 132.951,69.7035 129.5,71C 123.055,75.6083 117.055,80.775 111.5,86.5C 105.959,89.0444 100.959,92.3778 96.5,96.5C 91.9502,95.8843 87.9502,97.051 84.5,100C 82.5029,102.492 81.5029,105.325 81.5,108.5C 69.0531,116.107 57.0531,124.441 45.5,133.5C 45.3522,125.753 46.0189,118.087 47.5,110.5C 52.0087,106.142 57.342,102.975 63.5,101C 67.71,96.6445 72.71,93.4778 78.5,91.5C 80.4672,91.7394 82.3005,91.4061 84,90.5C 85.0793,87.9373 85.5793,85.2706 85.5,82.5C 90.1688,79.4881 94.5021,75.9881 98.5,72C 99.8333,71.6667 101.167,71.3333 102.5,71C 105.349,67.1433 109.015,64.4766 113.5,63C 117.962,57.0164 123.629,52.8497 130.5,50.5 Z"/></g>
<g><path style="opacity:1" fill="#429163" d="M 57.5,86.5 C 55.1473,91.2054 52.8139,95.8721 50.5,100.5C 51.2663,94.9672 53.5996,90.3005 57.5,86.5 Z"/></g>
<g><path style="opacity:1" fill="#429167" d="M 196.5,88.5 C 200.152,92.8084 202.486,97.8084 203.5,103.5C 202.833,102.833 202.167,102.167 201.5,101.5C 200.958,98.0878 199.625,95.0878 197.5,92.5C 197.167,91.1667 196.833,89.8333 196.5,88.5 Z"/></g>
<g><path style="opacity:1" fill="#1afad4" d="M 150.5,71.5 C 155.5,71.5 160.5,71.5 165.5,71.5C 165.5,72.8333 165.5,74.1667 165.5,75.5C 162.833,75.5 160.167,75.5 157.5,75.5C 150.633,76.4754 145.3,79.9754 141.5,86C 135.669,89.0812 130.002,92.4145 124.5,96C 119.559,100.179 114.559,104.179 109.5,108C 107.975,109.009 106.308,109.509 104.5,109.5C 104.5,108.5 104.5,107.5 104.5,106.5C 115.185,97.4896 126.852,89.9896 139.5,84C 143.157,79.4935 147.491,75.9935 152.5,73.5C 151.757,72.8182 151.091,72.1515 150.5,71.5 Z"/></g>
<g><path style="opacity:1" fill="#380efe" d="M 192.5,85.5 C 193.833,86.5 195.167,87.5 196.5,88.5C 196.833,89.8333 197.167,91.1667 197.5,92.5C 195.521,95.1456 193.188,97.4789 190.5,99.5C 184.594,104.238 178.26,108.238 171.5,111.5C 171.5,109.167 171.5,106.833 171.5,104.5C 170.167,101.167 167.833,98.8333 164.5,97.5C 164.423,96.2502 163.756,95.4169 162.5,95C 166.693,92.7882 170.86,90.6215 175,88.5C 176.011,89.3366 177.178,89.67 178.5,89.5C 181.167,89.5 183.833,89.5 186.5,89.5C 189.198,89.1551 191.198,87.8218 192.5,85.5 Z"/></g>
<g><path style="opacity:1" fill="#02febd" d="M 149.5,71.5 C 149.833,71.5 150.167,71.5 150.5,71.5C 151.091,72.1515 151.757,72.8182 152.5,73.5C 147.491,75.9935 143.157,79.4935 139.5,84C 126.852,89.9896 115.185,97.4896 104.5,106.5C 104.443,105.391 104.11,104.391 103.5,103.5C 108.228,99.4046 113.228,95.5713 118.5,92C 122.266,91.2486 125.266,89.2486 127.5,86C 136.106,82.8793 143.439,78.0459 149.5,71.5 Z"/></g>
<g><path style="opacity:1" fill="#0598ff" d="M 166.5,78.5 C 167.737,79.9649 168.737,81.6316 169.5,83.5C 162.081,88.7695 154.747,94.2695 147.5,100C 145.975,101.009 144.308,101.509 142.5,101.5C 138.59,102.772 134.923,104.439 131.5,106.5C 139.135,101.303 146.135,95.136 152.5,88C 157.624,85.3528 162.291,82.1862 166.5,78.5 Z"/></g>
<g><path style="opacity:1" fill="#e6f4ec" d="M 164.5,97.5 C 167.833,98.8333 170.167,101.167 171.5,104.5C 170.982,108.883 169.315,112.883 166.5,116.5C 165.069,117.082 163.736,117.915 162.5,119C 163.167,119.333 163.833,119.667 164.5,120C 162.203,120.018 159.869,119.851 157.5,119.5C 151.777,117.102 148.777,112.769 148.5,106.5C 148.5,105.833 148.5,105.167 148.5,104.5C 151.932,97.7836 157.265,95.4503 164.5,97.5 Z"/></g>
<g><path style="opacity:1" fill="#ebf3ee" d="M 96.5,96.5 C 97.1667,97.1667 97.8333,97.8333 98.5,98.5C 98.886,100.937 100.053,102.937 102,104.5C 103.67,114.332 99.5032,118.998 89.5,118.5C 87.9505,117.559 86.2838,116.893 84.5,116.5C 84.573,114.973 83.9063,113.973 82.5,113.5C 81.962,111.883 81.6287,110.216 81.5,108.5C 81.5029,105.325 82.5029,102.492 84.5,100C 87.9502,97.051 91.9502,95.8843 96.5,96.5 Z"/></g>
<g><path style="opacity:1" fill="#74fe03" d="M 59.5,83.5 C 66.0103,85.7129 72.3436,88.3796 78.5,91.5C 72.71,93.4778 67.71,96.6445 63.5,101C 57.342,102.975 52.0087,106.142 47.5,110.5C 48.475,107.933 49.1417,105.267 49.5,102.5C 49.3284,101.508 49.6618,100.842 50.5,100.5C 52.8139,95.8721 55.1473,91.2054 57.5,86.5C 57.427,84.9731 58.0937,83.9731 59.5,83.5 Z"/></g>
<g><path style="opacity:1" fill="#04d8fe" d="M 157.5,75.5 C 160.167,75.5 162.833,75.5 165.5,75.5C 165.5,75.8333 165.5,76.1667 165.5,76.5C 161.794,78.6911 158.461,81.5244 155.5,85C 150.159,87.1071 145.159,89.7738 140.5,93C 137.482,95.8373 134.149,98.1706 130.5,100C 122.992,108.195 114.325,114.695 104.5,119.5C 97.6013,125.33 90.9347,131.33 84.5,137.5C 82.5,137.5 80.5,137.5 78.5,137.5C 80.6918,135.02 83.0251,132.52 85.5,130C 89.9553,128.563 93.622,125.896 96.5,122C 101.032,121.138 104.032,118.472 105.5,114C 111.327,111.919 116.327,108.586 120.5,104C 125.5,101 130.5,98 135.5,95C 142.139,87.5163 149.472,81.0163 157.5,75.5 Z"/></g>
<g><path style="opacity:1" fill="#3e8e5f" d="M 49.5,102.5 C 49.1417,105.267 48.475,107.933 47.5,110.5C 46.0189,118.087 45.3522,125.753 45.5,133.5C 45.5,134.833 45.5,136.167 45.5,137.5C 45.5,137.833 45.5,138.167 45.5,138.5C 44.8826,138.389 44.3826,138.056 44,137.5C 43.5633,129.093 44.23,120.759 46,112.5C 46.5717,108.837 47.7383,105.503 49.5,102.5 Z"/></g>
<g><path style="opacity:1" fill="#02b7ff" d="M 165.5,76.5 C 166.338,76.8417 166.672,77.5084 166.5,78.5C 162.291,82.1862 157.624,85.3528 152.5,88C 146.135,95.136 139.135,101.303 131.5,106.5C 131.167,106.5 130.833,106.5 130.5,106.5C 127.299,108.177 123.965,109.677 120.5,111C 116.97,115.549 112.636,118.882 107.5,121C 104.651,124.857 100.985,127.523 96.5,129C 93.6306,132.038 90.6306,134.871 87.5,137.5C 86.5,137.5 85.5,137.5 84.5,137.5C 90.9347,131.33 97.6013,125.33 104.5,119.5C 114.325,114.695 122.992,108.195 130.5,100C 134.149,98.1706 137.482,95.8373 140.5,93C 145.159,89.7738 150.159,87.1071 155.5,85C 158.461,81.5244 161.794,78.6911 165.5,76.5 Z"/></g>
<g><path style="opacity:1" fill="#0568fe" d="M 169.5,83.5 C 173.135,86.8212 177.469,88.1545 182.5,87.5C 181.167,88.1667 179.833,88.8333 178.5,89.5C 177.178,89.67 176.011,89.3366 175,88.5C 170.86,90.6215 166.693,92.7882 162.5,95C 163.756,95.4169 164.423,96.2502 164.5,97.5C 157.265,95.4503 151.932,97.7836 148.5,104.5C 142.537,108.16 136.87,112.326 131.5,117C 124.708,119.252 118.375,122.252 112.5,126C 108.107,130.374 103.44,134.207 98.5,137.5C 97.1667,137.5 95.8333,137.5 94.5,137.5C 98.9122,134.271 103.246,130.771 107.5,127C 112.341,124.079 117.341,121.412 122.5,119C 128.755,112.423 135.421,106.59 142.5,101.5C 144.308,101.509 145.975,101.009 147.5,100C 154.747,94.2695 162.081,88.7695 169.5,83.5 Z"/></g>
<g><path style="opacity:1" fill="#e707fd" d="M 201.5,101.5 C 202.167,102.167 202.833,102.833 203.5,103.5C 204.338,103.842 204.672,104.508 204.5,105.5C 204.5,106.5 204.5,107.5 204.5,108.5C 192.961,116.288 181.295,124.121 169.5,132C 167.314,133.412 165.648,135.245 164.5,137.5C 161.167,137.5 157.833,137.5 154.5,137.5C 161.194,133.318 167.194,128.151 172.5,122C 179.143,117.366 185.81,112.699 192.5,108C 196.5,107.16 199.5,104.994 201.5,101.5 Z"/></g>
<g><path style="opacity:1" fill="#6ab6a2" d="M 171.5,104.5 C 171.5,106.833 171.5,109.167 171.5,111.5C 170.733,112.172 170.066,113.005 169.5,114C 170.934,116.528 170.267,118.362 167.5,119.5C 164.887,118.905 164.887,118.071 167.5,117C 167.272,116.601 166.938,116.435 166.5,116.5C 169.315,112.883 170.982,108.883 171.5,104.5 Z"/></g>
<g><path style="opacity:1" fill="#019dff" d="M 130.5,106.5 C 127.854,110.645 124.187,113.479 119.5,115C 116.945,118.572 113.612,120.905 109.5,122C 106.297,126.222 102.297,129.222 97.5,131C 95.2941,133.037 93.2941,135.203 91.5,137.5C 90.1667,137.5 88.8333,137.5 87.5,137.5C 90.6306,134.871 93.6306,132.038 96.5,129C 100.985,127.523 104.651,124.857 107.5,121C 112.636,118.882 116.97,115.549 120.5,111C 123.965,109.677 127.299,108.177 130.5,106.5 Z"/></g>
<g><path style="opacity:1" fill="#6a8dc1" d="M 166.5,116.5 C 166.938,116.435 167.272,116.601 167.5,117C 164.887,118.071 164.887,118.905 167.5,119.5C 164.927,121.844 161.927,122.177 158.5,120.5C 157.833,120.5 157.5,120.167 157.5,119.5C 159.869,119.851 162.203,120.018 164.5,120C 163.833,119.667 163.167,119.333 162.5,119C 163.736,117.915 165.069,117.082 166.5,116.5 Z"/></g>
<g><path style="opacity:1" fill="#03fe70" d="M 81.5,108.5 C 81.6287,110.216 81.962,111.883 82.5,113.5C 78.4359,116.054 74.7692,119.221 71.5,123C 63.3767,125.773 56.7101,130.606 51.5,137.5C 49.5,137.5 47.5,137.5 45.5,137.5C 45.5,136.167 45.5,134.833 45.5,133.5C 57.0531,124.441 69.0531,116.107 81.5,108.5 Z"/></g>
<g><path style="opacity:1" fill="#0245ff" d="M 148.5,104.5 C 148.5,105.167 148.5,105.833 148.5,106.5C 146.063,108.433 143.729,110.6 141.5,113C 136.471,114.526 132.471,117.526 129.5,122C 124.146,125.365 118.813,128.698 113.5,132C 111.627,133.704 109.96,135.537 108.5,137.5C 105.167,137.5 101.833,137.5 98.5,137.5C 103.44,134.207 108.107,130.374 112.5,126C 118.375,122.252 124.708,119.252 131.5,117C 136.87,112.326 142.537,108.16 148.5,104.5 Z"/></g>
<g><path style="opacity:1" fill="#3608ff" d="M 148.5,106.5 C 148.777,112.769 151.777,117.102 157.5,119.5C 157.5,120.167 157.833,120.5 158.5,120.5C 158.649,121.552 158.483,122.552 158,123.5C 152.671,128.55 147.171,133.217 141.5,137.5C 130.5,137.5 119.5,137.5 108.5,137.5C 109.96,135.537 111.627,133.704 113.5,132C 118.813,128.698 124.146,125.365 129.5,122C 132.471,117.526 136.471,114.526 141.5,113C 143.729,110.6 146.063,108.433 148.5,106.5 Z"/></g>
<g><path style="opacity:1" fill="#ff00de" d="M 204.5,108.5 C 205.234,109.708 205.567,111.041 205.5,112.5C 202.369,115.129 199.369,117.962 196.5,121C 194.167,121.333 191.833,121.667 189.5,122C 183.615,127.421 177.615,132.588 171.5,137.5C 169.167,137.5 166.833,137.5 164.5,137.5C 165.648,135.245 167.314,133.412 169.5,132C 181.295,124.121 192.961,116.288 204.5,108.5 Z"/></g>
<g><path style="opacity:1" fill="#08febe" d="M 84.5,116.5 C 86.2838,116.893 87.9505,117.559 89.5,118.5C 86.7044,121.797 83.7044,124.964 80.5,128C 75.1305,130.679 70.1305,133.846 65.5,137.5C 62.1667,137.5 58.8333,137.5 55.5,137.5C 57.6664,135.163 59.6664,132.663 61.5,130C 68.4934,126.345 75.4934,122.678 82.5,119C 83.3805,118.292 84.0472,117.458 84.5,116.5 Z"/></g>
<g><path style="opacity:1" fill="#2ff2f0" d="M 157.5,75.5 C 149.472,81.0163 142.139,87.5163 135.5,95C 130.5,98 125.5,101 120.5,104C 116.327,108.586 111.327,111.919 105.5,114C 104.032,118.472 101.032,121.138 96.5,122C 93.622,125.896 89.9553,128.563 85.5,130C 83.0251,132.52 80.6918,135.02 78.5,137.5C 74.1667,137.5 69.8333,137.5 65.5,137.5C 70.1305,133.846 75.1305,130.679 80.5,128C 83.7044,124.964 86.7044,121.797 89.5,118.5C 99.5032,118.998 103.67,114.332 102,104.5C 100.053,102.937 98.886,100.937 98.5,98.5C 98.8333,98.5 99.1667,98.5 99.5,98.5C 101.531,99.5387 102.864,101.205 103.5,103.5C 104.11,104.391 104.443,105.391 104.5,106.5C 104.5,107.5 104.5,108.5 104.5,109.5C 106.308,109.509 107.975,109.009 109.5,108C 114.559,104.179 119.559,100.179 124.5,96C 130.002,92.4145 135.669,89.0812 141.5,86C 145.3,79.9754 150.633,76.4754 157.5,75.5 Z"/></g>
<g><path style="opacity:1" fill="#ff009a" d="M 206.5,117.5 C 206.5,118.5 206.5,119.5 206.5,120.5C 199.221,126.097 191.888,131.764 184.5,137.5C 181.833,137.5 179.167,137.5 176.5,137.5C 178.937,135.567 181.271,133.4 183.5,131C 188.095,129.543 191.761,126.876 194.5,123C 198.942,121.943 202.942,120.11 206.5,117.5 Z"/></g>
<g><path style="opacity:1" fill="#02fe99" d="M 82.5,113.5 C 83.9063,113.973 84.573,114.973 84.5,116.5C 84.0472,117.458 83.3805,118.292 82.5,119C 75.4934,122.678 68.4934,126.345 61.5,130C 59.6664,132.663 57.6664,135.163 55.5,137.5C 54.1667,137.5 52.8333,137.5 51.5,137.5C 56.7101,130.606 63.3767,125.773 71.5,123C 74.7692,119.221 78.4359,116.054 82.5,113.5 Z"/></g>
<g><path style="opacity:1" fill="#a507fe" d="M 197.5,92.5 C 199.625,95.0878 200.958,98.0878 201.5,101.5C 199.5,104.994 196.5,107.16 192.5,108C 185.81,112.699 179.143,117.366 172.5,122C 167.194,128.151 161.194,133.318 154.5,137.5C 150.167,137.5 145.833,137.5 141.5,137.5C 147.171,133.217 152.671,128.55 158,123.5C 158.483,122.552 158.649,121.552 158.5,120.5C 161.927,122.177 164.927,121.844 167.5,119.5C 170.267,118.362 170.934,116.528 169.5,114C 170.066,113.005 170.733,112.172 171.5,111.5C 178.26,108.238 184.594,104.238 190.5,99.5C 193.188,97.4789 195.521,95.1456 197.5,92.5 Z"/></g>
<g><path style="opacity:1" fill="#fe0271" d="M 206.5,120.5 C 207.434,121.568 207.768,122.901 207.5,124.5C 203.127,128.685 198.127,131.852 192.5,134C 191.29,135.039 190.29,136.206 189.5,137.5C 187.833,137.5 186.167,137.5 184.5,137.5C 191.888,131.764 199.221,126.097 206.5,120.5 Z"/></g>
<g><path style="opacity:1" fill="#0184ff" d="M 142.5,101.5 C 135.421,106.59 128.755,112.423 122.5,119C 117.341,121.412 112.341,124.079 107.5,127C 103.246,130.771 98.9122,134.271 94.5,137.5C 93.5,137.5 92.5,137.5 91.5,137.5C 93.2941,135.203 95.2941,133.037 97.5,131C 102.297,129.222 106.297,126.222 109.5,122C 113.612,120.905 116.945,118.572 119.5,115C 124.187,113.479 127.854,110.645 130.5,106.5C 130.833,106.5 131.167,106.5 131.5,106.5C 134.923,104.439 138.59,102.772 142.5,101.5 Z"/></g>
<g><path style="opacity:1" fill="#ff00bb" d="M 205.5,112.5 C 206.038,114.117 206.371,115.784 206.5,117.5C 202.942,120.11 198.942,121.943 194.5,123C 191.761,126.876 188.095,129.543 183.5,131C 181.271,133.4 178.937,135.567 176.5,137.5C 174.833,137.5 173.167,137.5 171.5,137.5C 177.615,132.588 183.615,127.421 189.5,122C 191.833,121.667 194.167,121.333 196.5,121C 199.369,117.962 202.369,115.129 205.5,112.5 Z"/></g>
<g><path style="opacity:1" fill="#ff003f" d="M 207.5,124.5 C 207.5,128.833 207.5,133.167 207.5,137.5C 201.5,137.5 195.5,137.5 189.5,137.5C 190.29,136.206 191.29,135.039 192.5,134C 198.127,131.852 203.127,128.685 207.5,124.5 Z"/></g>
<g><path style="opacity:1" fill="#79d5a1" d="M 204.5,105.5 C 206.421,109.509 207.588,113.843 208,118.5C 208.821,125.346 208.654,132.013 207.5,138.5C 153.833,138.5 100.167,138.5 46.5,138.5C 46.1667,138.5 45.8333,138.5 45.5,138.5C 45.5,138.167 45.5,137.833 45.5,137.5C 47.5,137.5 49.5,137.5 51.5,137.5C 52.8333,137.5 54.1667,137.5 55.5,137.5C 58.8333,137.5 62.1667,137.5 65.5,137.5C 69.8333,137.5 74.1667,137.5 78.5,137.5C 80.5,137.5 82.5,137.5 84.5,137.5C 85.5,137.5 86.5,137.5 87.5,137.5C 88.8333,137.5 90.1667,137.5 91.5,137.5C 92.5,137.5 93.5,137.5 94.5,137.5C 95.8333,137.5 97.1667,137.5 98.5,137.5C 101.833,137.5 105.167,137.5 108.5,137.5C 119.5,137.5 130.5,137.5 141.5,137.5C 145.833,137.5 150.167,137.5 154.5,137.5C 157.833,137.5 161.167,137.5 164.5,137.5C 166.833,137.5 169.167,137.5 171.5,137.5C 173.167,137.5 174.833,137.5 176.5,137.5C 179.167,137.5 181.833,137.5 184.5,137.5C 186.167,137.5 187.833,137.5 189.5,137.5C 195.5,137.5 201.5,137.5 207.5,137.5C 207.5,133.167 207.5,128.833 207.5,124.5C 207.768,122.901 207.434,121.568 206.5,120.5C 206.5,119.5 206.5,118.5 206.5,117.5C 206.371,115.784 206.038,114.117 205.5,112.5C 205.567,111.041 205.234,109.708 204.5,108.5C 204.5,107.5 204.5,106.5 204.5,105.5 Z"/></g>
<g><path style="opacity:1" fill="#cbedda" d="M 46.5,139.5 C 46.5,139.167 46.5,138.833 46.5,138.5C 100.167,138.5 153.833,138.5 207.5,138.5C 207.5,138.833 207.5,139.167 207.5,139.5C 207.167,139.5 206.833,139.5 206.5,139.5C 180.145,138.842 154.145,139.509 128.5,141.5C 127.609,140.89 126.609,140.557 125.5,140.5C 99.3386,139.502 73.0053,139.169 46.5,139.5 Z"/></g>
<g><path style="opacity:1" fill="#f0f0f0" d="M 46.5,140.5 C 46.5,140.167 46.5,139.833 46.5,139.5C 73.0053,139.169 99.3386,139.502 125.5,140.5C 123.203,149.795 117.536,155.795 108.5,158.5C 105.57,159.299 102.57,159.632 99.5,159.5C 97.7354,158.539 95.7354,158.205 93.5,158.5C 90.5394,157.677 87.5394,157.01 84.5,156.5C 83.3285,155.655 81.9952,154.989 80.5,154.5C 78.0347,154.233 75.7014,153.566 73.5,152.5C 71.7162,152.107 70.0495,151.441 68.5,150.5C 66.7162,150.107 65.0495,149.441 63.5,148.5C 57.9278,145.546 52.2611,142.88 46.5,140.5 Z"/></g>
<g><path style="opacity:1" fill="#efefef" d="M 206.5,139.5 C 203.672,141.748 200.672,143.748 197.5,145.5C 192.311,147.597 187.311,149.93 182.5,152.5C 175.949,154.13 169.615,156.13 163.5,158.5C 156.463,159.921 149.463,159.755 142.5,158C 140.308,157.074 138.308,155.907 136.5,154.5C 135.167,153.167 133.833,151.833 132.5,150.5C 132.443,149.391 132.11,148.391 131.5,147.5C 130.123,145.711 129.123,143.711 128.5,141.5C 154.145,139.509 180.145,138.842 206.5,139.5 Z"/></g>
<g><path style="opacity:1" fill="#05fe32" d="M 46.5,140.5 C 52.2611,142.88 57.9278,145.546 63.5,148.5C 59.6233,150.539 55.9566,153.039 52.5,156C 50.2659,158.063 48.2659,160.229 46.5,162.5C 46.106,155.075 46.106,147.742 46.5,140.5 Z"/></g>
<g><path style="opacity:1" fill="#a3917d" d="M 204.5,155.5 C 205.609,155.557 206.609,155.89 207.5,156.5C 207.5,157.167 207.5,157.833 207.5,158.5C 206.167,157.833 205.167,156.833 204.5,155.5 Z"/></g>
<g><path style="opacity:1" fill="#fe3904" d="M 196.5,154.5 C 199.237,154.401 201.904,154.735 204.5,155.5C 205.167,156.833 206.167,157.833 207.5,158.5C 207.833,158.5 208.167,158.5 208.5,158.5C 209.479,160.145 210.812,161.479 212.5,162.5C 211.873,163.417 211.539,164.417 211.5,165.5C 208.112,164.658 205.446,162.824 203.5,160C 201.5,159 199.5,158 197.5,157C 196.748,156.329 196.414,155.496 196.5,154.5 Z"/></g>
<g><path style="opacity:1" fill="#f0e8eb" d="M 128.5,161.5 C 132.252,163.749 133.419,167.082 132,171.5C 130.887,172.305 129.721,172.972 128.5,173.5C 124.423,173.983 122.09,172.316 121.5,168.5C 120.855,163.306 123.189,160.972 128.5,161.5 Z"/></g>
<g><path style="opacity:1" fill="#02fe68" d="M 63.5,148.5 C 65.0495,149.441 66.7162,150.107 68.5,150.5C 64.6991,156.63 59.6991,161.463 53.5,165C 52.1356,168.361 49.8022,170.861 46.5,172.5C 46.5,169.167 46.5,165.833 46.5,162.5C 48.2659,160.229 50.2659,158.063 52.5,156C 55.9566,153.039 59.6233,150.539 63.5,148.5 Z"/></g>
<g><path style="opacity:1" fill="#03abff" d="M 108.5,158.5 C 103.824,163.189 99.157,167.856 94.5,172.5C 91.8333,172.5 89.1667,172.5 86.5,172.5C 86.369,171.761 86.5357,171.094 87,170.5C 91.3856,166.939 95.5523,163.273 99.5,159.5C 102.57,159.632 105.57,159.299 108.5,158.5 Z"/></g>
<g><path style="opacity:1" fill="#0679fe" d="M 125.5,140.5 C 126.609,140.557 127.609,140.89 128.5,141.5C 129.123,143.711 130.123,145.711 131.5,147.5C 120.371,156.985 109.371,166.319 98.5,175.5C 97.1667,174.5 95.8333,173.5 94.5,172.5C 99.157,167.856 103.824,163.189 108.5,158.5C 117.536,155.795 123.203,149.795 125.5,140.5 Z"/></g>
<g><path style="opacity:1" fill="#0253fe" d="M 131.5,147.5 C 132.11,148.391 132.443,149.391 132.5,150.5C 120.78,161.89 108.78,172.89 96.5,183.5C 98.2261,181.18 98.8928,178.513 98.5,175.5C 109.371,166.319 120.371,156.985 131.5,147.5 Z"/></g>
<g><path style="opacity:1" fill="#facf16" d="M 192.5,154.5 C 194.968,156.833 196.968,159.667 198.5,163C 204.87,166.194 210.87,170.027 216.5,174.5C 216.5,175.833 216.5,177.167 216.5,178.5C 215.33,176.721 213.664,175.721 211.5,175.5C 210.972,174.279 210.305,173.113 209.5,172C 202.006,168.598 195.673,163.764 190.5,157.5C 189.799,159.192 190.133,160.858 191.5,162.5C 189.983,162.489 188.816,161.823 188,160.5C 187.292,161.381 186.458,162.047 185.5,162.5C 186.412,160.405 187.579,158.405 189,156.5C 189.816,155.177 190.983,154.511 192.5,154.5 Z"/></g>
<g><path style="opacity:1" fill="#02fedd" d="M 80.5,154.5 C 81.9952,154.989 83.3285,155.655 84.5,156.5C 74.8274,165.839 65.1607,175.173 55.5,184.5C 53.4823,185.509 51.4823,186.509 49.5,187.5C 48.6618,187.158 48.3284,186.492 48.5,185.5C 58.2975,175.569 68.6308,166.069 79.5,157C 80.2524,156.329 80.5858,155.496 80.5,154.5 Z"/></g>
<g><path style="opacity:1" fill="#01fe8f" d="M 68.5,150.5 C 70.0495,151.441 71.7162,152.107 73.5,152.5C 67.9155,159.053 61.7489,165.053 55,170.5C 54.5172,171.448 54.3505,172.448 54.5,173.5C 51.632,174.353 48.9653,175.686 46.5,177.5C 46.5,175.833 46.5,174.167 46.5,172.5C 49.8022,170.861 52.1356,168.361 53.5,165C 59.6991,161.463 64.6991,156.63 68.5,150.5 Z"/></g>
<g><path style="opacity:1" fill="#ff9207" d="M 192.5,154.5 C 193.833,154.5 195.167,154.5 196.5,154.5C 196.414,155.496 196.748,156.329 197.5,157C 199.5,158 201.5,159 203.5,160C 205.446,162.824 208.112,164.658 211.5,165.5C 209.871,167.196 210.204,168.196 212.5,168.5C 214.138,169.832 215.804,171.166 217.5,172.5C 217.672,173.492 217.338,174.158 216.5,174.5C 210.87,170.027 204.87,166.194 198.5,163C 196.968,159.667 194.968,156.833 192.5,154.5 Z"/></g>
<g><path style="opacity:1" fill="#ff4d01" d="M 217.5,172.5 C 215.804,171.166 214.138,169.832 212.5,168.5C 214.765,163.456 217.098,163.456 219.5,168.5C 219.332,170.171 218.665,171.504 217.5,172.5 Z"/></g>
<g><path style="opacity:1" fill="#c0ff01" d="M 191.5,162.5 C 192.277,165.112 193.944,166.945 196.5,168C 201.7,170.314 206.7,172.814 211.5,175.5C 212.379,179.878 215.046,182.378 219.5,183C 222.722,185.402 225.722,187.902 228.5,190.5C 228.068,191.71 227.401,192.71 226.5,193.5C 222.519,190.713 218.852,187.546 215.5,184C 208.636,180.793 202.636,176.46 197.5,171C 193.392,168.524 189.392,166.024 185.5,163.5C 185.5,163.167 185.5,162.833 185.5,162.5C 186.458,162.047 187.292,161.381 188,160.5C 188.816,161.823 189.983,162.489 191.5,162.5 Z"/></g>
<g><path style="opacity:1" fill="#f5fa00" d="M 211.5,175.5 C 206.7,172.814 201.7,170.314 196.5,168C 193.944,166.945 192.277,165.112 191.5,162.5C 190.133,160.858 189.799,159.192 190.5,157.5C 195.673,163.764 202.006,168.598 209.5,172C 210.305,173.113 210.972,174.279 211.5,175.5 Z"/></g>
<g><path style="opacity:1" fill="#03cefe" d="M 93.5,158.5 C 95.7354,158.205 97.7354,158.539 99.5,159.5C 95.5523,163.273 91.3856,166.939 87,170.5C 86.5357,171.094 86.369,171.761 86.5,172.5C 84.1667,172.5 81.8333,172.5 79.5,172.5C 81.0714,169.769 83.4048,167.935 86.5,167C 88.4571,163.731 90.7904,160.898 93.5,158.5 Z"/></g>
<g><path style="opacity:1" fill="#f6f3ef" d="M 185.5,162.5 C 185.5,162.833 185.5,163.167 185.5,163.5C 184.298,165.392 182.965,167.226 181.5,169C 195.348,178.696 209.015,188.53 222.5,198.5C 219.269,198.185 215.936,198.018 212.5,198C 206.007,192.282 199.007,187.282 191.5,183C 188.555,181.869 185.555,181.036 182.5,180.5C 180.781,178.456 179.114,176.456 177.5,174.5C 179.178,169.803 181.844,165.803 185.5,162.5 Z"/></g>
<g><path style="opacity:1" fill="#9b876c" d="M 208.5,158.5 C 211.797,158.632 213.463,160.298 213.5,163.5C 218.613,163.132 221.446,165.466 222,170.5C 228.383,169.838 232.383,172.838 234,179.5C 234.328,182.207 233.995,184.874 233,187.5C 229.97,192.015 226.803,196.349 223.5,200.5C 223.5,199.833 223.5,199.167 223.5,198.5C 224.248,196.668 225.248,195.001 226.5,193.5C 227.401,192.71 228.068,191.71 228.5,190.5C 229.906,190.027 230.573,189.027 230.5,187.5C 231.401,186.71 232.068,185.71 232.5,184.5C 233.606,176.298 230.273,172.298 222.5,172.5C 221.476,173.852 220.476,175.185 219.5,176.5C 218.662,176.842 218.328,177.508 218.5,178.5C 217.833,178.5 217.167,178.5 216.5,178.5C 216.5,177.167 216.5,175.833 216.5,174.5C 217.338,174.158 217.672,173.492 217.5,172.5C 218.665,171.504 219.332,170.171 219.5,168.5C 217.098,163.456 214.765,163.456 212.5,168.5C 210.204,168.196 209.871,167.196 211.5,165.5C 211.539,164.417 211.873,163.417 212.5,162.5C 210.812,161.479 209.479,160.145 208.5,158.5 Z"/></g>
<g><path style="opacity:1" fill="#0f0efe" d="M 121.5,168.5 C 122.09,172.316 124.423,173.983 128.5,173.5C 127.542,174.962 126.376,176.295 125,177.5C 124.51,178.793 124.343,180.127 124.5,181.5C 121.612,181.22 120.112,182.553 120,185.5C 115.415,188.104 112.082,191.771 110,196.5C 105.708,200.057 101.541,203.723 97.5,207.5C 90.5,207.5 83.5,207.5 76.5,207.5C 80.9511,203.41 85.2844,199.076 89.5,194.5C 100.783,186.714 110.95,177.714 120,167.5C 120.383,168.056 120.883,168.389 121.5,168.5 Z"/></g>
<g><path style="opacity:1" fill="#04feb8" d="M 73.5,152.5 C 75.7014,153.566 78.0347,154.233 80.5,154.5C 80.5858,155.496 80.2524,156.329 79.5,157C 68.6308,166.069 58.2975,175.569 48.5,185.5C 47.8826,185.389 47.3826,185.056 47,184.5C 46.5034,182.19 46.3367,179.857 46.5,177.5C 48.9653,175.686 51.632,174.353 54.5,173.5C 54.3505,172.448 54.5172,171.448 55,170.5C 61.7489,165.053 67.9155,159.053 73.5,152.5 Z"/></g>
<g><path style="opacity:1" fill="#e7e7e7" d="M 79.5,172.5 C 81.8333,172.5 84.1667,172.5 86.5,172.5C 89.1667,172.5 91.8333,172.5 94.5,172.5C 95.8333,173.5 97.1667,174.5 98.5,175.5C 98.8928,178.513 98.2261,181.18 96.5,183.5C 95.8333,183.5 95.5,183.833 95.5,184.5C 92.8333,184.5 90.1667,184.5 87.5,184.5C 85.1667,184.5 82.8333,184.5 80.5,184.5C 77.5,184.5 74.5,184.5 71.5,184.5C 70.8333,184.5 70.1667,184.5 69.5,184.5C 67.1496,182.787 66.1496,180.453 66.5,177.5C 66.8588,175.629 67.8588,174.129 69.5,173C 72.8168,172.502 76.1501,172.335 79.5,172.5 Z"/></g>
<g><path style="opacity:1" fill="#ff5500" d="M 232.5,184.5 C 228.008,181.979 223.674,179.312 219.5,176.5C 220.476,175.185 221.476,173.852 222.5,172.5C 230.273,172.298 233.606,176.298 232.5,184.5 Z"/></g>
<g><path style="opacity:1" fill="#faf404" d="M 211.5,175.5 C 213.664,175.721 215.33,176.721 216.5,178.5C 217.167,178.5 217.833,178.5 218.5,178.5C 220.339,179.508 221.672,181.008 222.5,183C 225.684,183.754 228.351,185.254 230.5,187.5C 230.573,189.027 229.906,190.027 228.5,190.5C 225.722,187.902 222.722,185.402 219.5,183C 215.046,182.378 212.379,179.878 211.5,175.5 Z"/></g>
<g><path style="opacity:1" fill="#9600fe" d="M 182.5,152.5 C 178.929,157.24 174.596,161.074 169.5,164C 162.163,171.67 154.496,179.004 146.5,186C 139.248,187.585 134.082,191.752 131,198.5C 127.335,201.399 123.835,204.399 120.5,207.5C 117.833,207.5 115.167,207.5 112.5,207.5C 115.496,202.847 119.163,198.847 123.5,195.5C 130.62,196.714 133.953,193.714 133.5,186.5C 135.023,183.636 137.357,181.969 140.5,181.5C 140.281,180.325 140.614,179.325 141.5,178.5C 148.528,171.47 155.862,164.804 163.5,158.5C 169.615,156.13 175.949,154.13 182.5,152.5 Z"/></g>
<g><path style="opacity:1" fill="#55fe08" d="M 185.5,163.5 C 189.392,166.024 193.392,168.524 197.5,171C 202.636,176.46 208.636,180.793 215.5,184C 218.852,187.546 222.519,190.713 226.5,193.5C 225.248,195.001 224.248,196.668 223.5,198.5C 223.167,198.5 222.833,198.5 222.5,198.5C 209.015,188.53 195.348,178.696 181.5,169C 182.965,167.226 184.298,165.392 185.5,163.5 Z"/></g>
<g><path style="opacity:1" fill="#f500fa" d="M 206.5,139.5 C 206.833,139.5 207.167,139.5 207.5,139.5C 207.5,145.167 207.5,150.833 207.5,156.5C 206.609,155.89 205.609,155.557 204.5,155.5C 202.969,153.32 200.802,152.32 198,152.5C 195.779,152.393 193.946,153.06 192.5,154.5C 190.983,154.511 189.816,155.177 189,156.5C 187.579,158.405 186.412,160.405 185.5,162.5C 181.844,165.803 179.178,169.803 177.5,174.5C 177.167,174.5 176.833,174.5 176.5,174.5C 172.84,177.181 169.84,180.514 167.5,184.5C 161.267,189.814 154.934,194.98 148.5,200C 145.629,202.703 142.962,205.536 140.5,208.5C 137.833,208.5 135.167,208.5 132.5,208.5C 144.112,197.223 155.779,185.889 167.5,174.5C 169.113,173.573 170.779,172.739 172.5,172C 176.138,168.859 178.805,165.026 180.5,160.5C 186.534,155.792 192.201,150.792 197.5,145.5C 200.672,143.748 203.672,141.748 206.5,139.5 Z"/></g>
<g><path style="opacity:1" fill="#b59682" d="M 204.5,155.5 C 201.904,154.735 199.237,154.401 196.5,154.5C 195.167,154.5 193.833,154.5 192.5,154.5C 193.946,153.06 195.779,152.393 198,152.5C 200.802,152.32 202.969,153.32 204.5,155.5 Z"/></g>
<g><path style="opacity:1" fill="#4b01fe" d="M 136.5,154.5 C 138.308,155.907 140.308,157.074 142.5,158C 149.463,159.755 156.463,159.921 163.5,158.5C 155.862,164.804 148.528,171.47 141.5,178.5C 140.614,179.325 140.281,180.325 140.5,181.5C 137.357,181.969 135.023,183.636 133.5,186.5C 130.677,182.433 127.01,181.6 122.5,184C 119.751,188.092 120.084,191.925 123.5,195.5C 119.163,198.847 115.496,202.847 112.5,207.5C 107.334,208.426 102.334,208.426 97.5,207.5C 101.541,203.723 105.708,200.057 110,196.5C 112.082,191.771 115.415,188.104 120,185.5C 120.112,182.553 121.612,181.22 124.5,181.5C 124.343,180.127 124.51,178.793 125,177.5C 126.376,176.295 127.542,174.962 128.5,173.5C 129.721,172.972 130.887,172.305 132,171.5C 133.419,167.082 132.252,163.749 128.5,161.5C 130.368,158.236 133.035,155.902 136.5,154.5 Z"/></g>
<g><path style="opacity:1" fill="#f5eeee" d="M 133.5,186.5 C 133.953,193.714 130.62,196.714 123.5,195.5C 120.084,191.925 119.751,188.092 122.5,184C 127.01,181.6 130.677,182.433 133.5,186.5 Z"/></g>
<g><path style="opacity:1" fill="#05f9f6" d="M 84.5,156.5 C 87.5394,157.01 90.5394,157.677 93.5,158.5C 90.7904,160.898 88.4571,163.731 86.5,167C 83.4048,167.935 81.0714,169.769 79.5,172.5C 76.1501,172.335 72.8168,172.502 69.5,173C 67.8588,174.129 66.8588,175.629 66.5,177.5C 62.5381,183.033 57.8714,188.033 52.5,192.5C 51.1103,191.101 50.1103,189.434 49.5,187.5C 51.4823,186.509 53.4823,185.509 55.5,184.5C 65.1607,175.173 74.8274,165.839 84.5,156.5 Z"/></g>
<g><path style="opacity:1" fill="#ffb800" d="M 219.5,176.5 C 223.674,179.312 228.008,181.979 232.5,184.5C 232.068,185.71 231.401,186.71 230.5,187.5C 228.351,185.254 225.684,183.754 222.5,183C 221.672,181.008 220.339,179.508 218.5,178.5C 218.328,177.508 218.662,176.842 219.5,176.5 Z"/></g>
<g><path style="opacity:1" fill="#fe00d8" d="M 176.5,174.5 C 175.96,177.865 175.294,181.198 174.5,184.5C 166.301,192.615 157.635,200.281 148.5,207.5C 145.904,208.265 143.237,208.599 140.5,208.5C 142.962,205.536 145.629,202.703 148.5,200C 154.934,194.98 161.267,189.814 167.5,184.5C 169.84,180.514 172.84,177.181 176.5,174.5 Z"/></g>
<g><path style="opacity:1" fill="#4d71be" d="M 176.5,174.5 C 176.833,174.5 177.167,174.5 177.5,174.5C 179.114,176.456 180.781,178.456 182.5,180.5C 180.906,180.08 179.406,179.414 178,178.5C 176.97,178.836 176.47,179.503 176.5,180.5C 175.891,183.878 177.224,185.878 180.5,186.5C 181.167,187.833 181.833,189.167 182.5,190.5C 180.278,190.822 178.444,190.155 177,188.5C 178.079,192.499 179.579,196.499 181.5,200.5C 180.237,202.029 179.237,203.695 178.5,205.5C 178.167,205.5 177.833,205.5 177.5,205.5C 178.014,203.634 178.68,201.8 179.5,200C 179.257,199.098 178.923,198.265 178.5,197.5C 176.535,193.607 175.202,189.607 174.5,185.5C 174.5,185.167 174.5,184.833 174.5,184.5C 175.294,181.198 175.96,177.865 176.5,174.5 Z"/></g>
<g><path style="opacity:1" fill="#0afddd" d="M 182.5,180.5 C 186.763,183.981 191.097,187.481 195.5,191C 202.189,196.009 209.189,200.509 216.5,204.5C 216.167,205.5 215.5,206.167 214.5,206.5C 202.137,197.484 189.47,188.817 176.5,180.5C 176.47,179.503 176.97,178.836 178,178.5C 179.406,179.414 180.906,180.08 182.5,180.5 Z"/></g>
<g><path style="opacity:1" fill="#ca00ff" d="M 197.5,145.5 C 192.201,150.792 186.534,155.792 180.5,160.5C 178.805,165.026 176.138,168.859 172.5,172C 170.779,172.739 169.113,173.573 167.5,174.5C 155.779,185.889 144.112,197.223 132.5,208.5C 128.298,208.817 124.298,208.483 120.5,207.5C 123.835,204.399 127.335,201.399 131,198.5C 134.082,191.752 139.248,187.585 146.5,186C 154.496,179.004 162.163,171.67 169.5,164C 174.596,161.074 178.929,157.24 182.5,152.5C 187.311,149.93 192.311,147.597 197.5,145.5 Z"/></g>
<g><path style="opacity:1" fill="#dae0f2" d="M 182.5,180.5 C 185.555,181.036 188.555,181.869 191.5,183C 199.007,187.282 206.007,192.282 212.5,198C 215.936,198.018 219.269,198.185 222.5,198.5C 222.833,198.5 223.167,198.5 223.5,198.5C 223.5,199.167 223.5,199.833 223.5,200.5C 222.167,202.5 220.5,204.167 218.5,205.5C 217.833,205.167 217.167,204.833 216.5,204.5C 209.189,200.509 202.189,196.009 195.5,191C 191.097,187.481 186.763,183.981 182.5,180.5 Z"/></g>
<g><path style="opacity:1" fill="#01bfff" d="M 69.5,184.5 C 70.1667,184.5 70.8333,184.5 71.5,184.5C 69.3965,187.273 67.5632,190.273 66,193.5C 63.1402,195.502 60.6402,197.835 58.5,200.5C 57.5116,199.205 56.5116,197.872 55.5,196.5C 60.5376,192.785 65.2042,188.785 69.5,184.5 Z"/></g>
<g><path style="opacity:1" fill="#04e3fe" d="M 66.5,177.5 C 66.1496,180.453 67.1496,182.787 69.5,184.5C 65.2042,188.785 60.5376,192.785 55.5,196.5C 54.0256,195.564 53.0256,194.23 52.5,192.5C 57.8714,188.033 62.5381,183.033 66.5,177.5 Z"/></g>
<g><path style="opacity:1" fill="#039bff" d="M 71.5,184.5 C 74.5,184.5 77.5,184.5 80.5,184.5C 77.6758,189.49 73.6758,193.323 68.5,196C 67.3703,199.629 65.037,202.129 61.5,203.5C 60.1667,202.833 59.1667,201.833 58.5,200.5C 60.6402,197.835 63.1402,195.502 66,193.5C 67.5632,190.273 69.3965,187.273 71.5,184.5 Z"/></g>
<g><path style="opacity:1" fill="#0ceafc" d="M 176.5,180.5 C 189.47,188.817 202.137,197.484 214.5,206.5C 212.898,208.074 210.898,208.741 208.5,208.5C 204.794,206.734 202.127,203.901 200.5,200C 198.913,199.138 197.246,198.471 195.5,198C 194.36,196.027 193.027,194.193 191.5,192.5C 187.819,190.477 184.153,188.477 180.5,186.5C 177.224,185.878 175.891,183.878 176.5,180.5 Z"/></g>
<g><path style="opacity:1" fill="#0155ff" d="M 87.5,184.5 C 90.1667,184.5 92.8333,184.5 95.5,184.5C 87.4463,192.889 78.7796,200.555 69.5,207.5C 68.5084,207.672 67.8417,207.338 67.5,206.5C 70.1141,202.843 73.1141,199.343 76.5,196C 81.7151,193.619 85.3818,189.786 87.5,184.5 Z"/></g>
<g><path style="opacity:1" fill="#fe0093" d="M 174.5,185.5 C 175.202,189.607 176.535,193.607 178.5,197.5C 174.833,200.833 171.167,204.167 167.5,207.5C 163.167,207.5 158.833,207.5 154.5,207.5C 161.078,201.661 167.578,195.661 174,189.5C 174.49,188.207 174.657,186.873 174.5,185.5 Z"/></g>
<g><path style="opacity:1" fill="#023afe" d="M 132.5,150.5 C 133.833,151.833 135.167,153.167 136.5,154.5C 133.035,155.902 130.368,158.236 128.5,161.5C 123.189,160.972 120.855,163.306 121.5,168.5C 120.883,168.389 120.383,168.056 120,167.5C 110.95,177.714 100.783,186.714 89.5,194.5C 85.2844,199.076 80.9511,203.41 76.5,207.5C 74.1667,207.5 71.8333,207.5 69.5,207.5C 78.7796,200.555 87.4463,192.889 95.5,184.5C 95.5,183.833 95.8333,183.5 96.5,183.5C 108.78,172.89 120.78,161.89 132.5,150.5 Z"/></g>
<g><path style="opacity:1" fill="#0fa2ff" d="M 180.5,186.5 C 184.153,188.477 187.819,190.477 191.5,192.5C 193.027,194.193 194.36,196.027 195.5,198C 197.246,198.471 198.913,199.138 200.5,200C 202.127,203.901 204.794,206.734 208.5,208.5C 207.081,209.451 205.415,209.784 203.5,209.5C 200.345,207.496 198.011,204.663 196.5,201C 192.588,198.681 188.588,196.514 184.5,194.5C 183.833,193.167 183.167,191.833 182.5,190.5C 181.833,189.167 181.167,187.833 180.5,186.5 Z"/></g>
<g><path style="opacity:1" fill="#0665ff" d="M 184.5,194.5 C 188.588,196.514 192.588,198.681 196.5,201C 198.011,204.663 200.345,207.496 203.5,209.5C 202.5,209.5 201.5,209.5 200.5,209.5C 196.597,204.886 191.931,201.053 186.5,198C 185.695,196.887 185.028,195.721 184.5,194.5 Z"/></g>
<g><path style="opacity:1" fill="#ff00b7" d="M 174.5,184.5 C 174.5,184.833 174.5,185.167 174.5,185.5C 174.657,186.873 174.49,188.207 174,189.5C 167.578,195.661 161.078,201.661 154.5,207.5C 152.5,207.5 150.5,207.5 148.5,207.5C 157.635,200.281 166.301,192.615 174.5,184.5 Z"/></g>
<g><path style="opacity:1" fill="#037bff" d="M 80.5,184.5 C 82.8333,184.5 85.1667,184.5 87.5,184.5C 85.3818,189.786 81.7151,193.619 76.5,196C 73.1141,199.343 70.1141,202.843 67.5,206.5C 65.0326,206.245 63.0326,205.245 61.5,203.5C 65.037,202.129 67.3703,199.629 68.5,196C 73.6758,193.323 77.6758,189.49 80.5,184.5 Z"/></g>
<g><path style="opacity:1" fill="#fe025d" d="M 178.5,197.5 C 178.923,198.265 179.257,199.098 179.5,200C 178.68,201.8 178.014,203.634 177.5,205.5C 176.5,206.167 175.5,206.833 174.5,207.5C 172.167,207.5 169.833,207.5 167.5,207.5C 171.167,204.167 174.833,200.833 178.5,197.5 Z"/></g>
<g><path style="opacity:1" fill="#3421fe" d="M 182.5,190.5 C 183.167,191.833 183.833,193.167 184.5,194.5C 185.028,195.721 185.695,196.887 186.5,198C 191.931,201.053 196.597,204.886 200.5,209.5C 198.131,209.149 195.797,208.982 193.5,209C 192.267,210.667 190.933,212.167 189.5,213.5C 186.447,210.132 182.781,207.465 178.5,205.5C 179.237,203.695 180.237,202.029 181.5,200.5C 179.579,196.499 178.079,192.499 177,188.5C 178.444,190.155 180.278,190.822 182.5,190.5 Z"/></g>
<g><path style="opacity:1" fill="#c5fffe" d="M 177.5,205.5 C 177.833,205.5 178.167,205.5 178.5,205.5C 182.781,207.465 186.447,210.132 189.5,213.5C 189.262,215.404 188.262,216.738 186.5,217.5C 184.264,216.611 182.264,215.278 180.5,213.5C 179.747,211.247 178.414,209.413 176.5,208C 177.252,207.329 177.586,206.496 177.5,205.5 Z"/></g>
<g><path style="opacity:1" fill="#fb12c5" d="M 177.5,205.5 C 177.586,206.496 177.252,207.329 176.5,208C 178.414,209.413 179.747,211.247 180.5,213.5C 182.264,215.278 184.264,216.611 186.5,217.5C 186.25,219.674 185.25,221.341 183.5,222.5C 179.35,220.406 175.35,218.073 171.5,215.5C 172.248,213.668 173.248,212.001 174.5,210.5C 174.5,209.5 174.5,208.5 174.5,207.5C 175.5,206.833 176.5,206.167 177.5,205.5 Z"/></g>
<g><path style="opacity:1" fill="#3a58a1" d="M 216.5,204.5 C 217.167,204.833 217.833,205.167 218.5,205.5C 215.94,208.537 212.607,210.371 208.5,211C 203.757,211.543 199.09,211.543 194.5,211C 191.074,215.848 187.408,220.515 183.5,225C 176.181,228.007 171.515,225.674 169.5,218C 170.137,215.755 170.97,213.588 172,211.5C 172.671,210.748 173.504,210.414 174.5,210.5C 173.248,212.001 172.248,213.668 171.5,215.5C 172.243,223.958 176.243,226.291 183.5,222.5C 185.25,221.341 186.25,219.674 186.5,217.5C 188.262,216.738 189.262,215.404 189.5,213.5C 190.933,212.167 192.267,210.667 193.5,209C 195.797,208.982 198.131,209.149 200.5,209.5C 201.5,209.5 202.5,209.5 203.5,209.5C 205.415,209.784 207.081,209.451 208.5,208.5C 210.898,208.741 212.898,208.074 214.5,206.5C 215.5,206.167 216.167,205.5 216.5,204.5 Z"/></g>
<g><path style="opacity:1" fill="#fe0150" d="M 171.5,215.5 C 175.35,218.073 179.35,220.406 183.5,222.5C 176.243,226.291 172.243,223.958 171.5,215.5 Z"/></g>
</svg>
