<?xml version="1.0" encoding="UTF-8"?>
<!DOCTYPE svg PUBLIC "-//W3C//DTD SVG 1.1//EN" "http://www.w3.org/Graphics/SVG/1.1/DTD/svg11.dtd">
<svg xmlns="http://www.w3.org/2000/svg" version="1.1" width="256px" height="256px" style="shape-rendering:geometricPrecision; text-rendering:geometricPrecision; image-rendering:optimizeQuality; fill-rule:evenodd; clip-rule:evenodd" xmlns:xlink="http://www.w3.org/1999/xlink">
<g><path style="opacity:1" fill="#f8f9f8" d="M 174.5,97.5 C 174.167,96.5 173.5,95.8333 172.5,95.5C 172.027,94.0937 171.027,93.427 169.5,93.5C 169.167,92.5 168.5,91.8333 167.5,91.5C 166.833,90.1667 165.833,89.1667 164.5,88.5C 163.058,87.1805 162.392,85.5138 162.5,83.5C 165.082,83.9746 167.082,83.3079 168.5,81.5C 168.037,78.6697 167.371,76.003 166.5,73.5C 165.017,65.0273 161.017,58.0273 154.5,52.5C 152.853,50.6736 150.853,49.3403 148.5,48.5C 146.208,46.7329 143.542,45.7329 140.5,45.5C 136.764,44.0109 132.764,43.3442 128.5,43.5C 113.224,43.1303 101.891,49.4636 94.5,62.5C 92.9261,64.1016 92.2594,66.1016 92.5,68.5C 91.7321,70.7146 91.0654,73.0479 90.5,75.5C 90.2155,77.4147 90.5489,79.0813 91.5,80.5C 91.2053,82.7354 91.5386,84.7354 92.5,86.5C 93.8584,93.5081 97.525,98.8415 103.5,102.5C 105.147,104.326 107.147,105.66 109.5,106.5C 110.899,107.89 112.566,108.89 114.5,109.5C 114.842,110.338 115.508,110.672 116.5,110.5C 118.649,111.736 120.982,112.736 123.5,113.5C 124.209,114.404 125.209,114.737 126.5,114.5C 127.671,115.345 129.005,116.011 130.5,116.5C 132.117,117.038 133.784,117.371 135.5,117.5C 136.93,118.537 138.597,119.204 140.5,119.5C 141.209,120.404 142.209,120.737 143.5,120.5C 144.78,121.931 146.447,122.598 148.5,122.5C 150.181,124.008 152.181,125.008 154.5,125.5C 154.842,126.338 155.508,126.672 156.5,126.5C 166.689,131.687 175.022,139.02 181.5,148.5C 188.868,165.605 189.368,182.938 183,200.5C 170.922,220.045 153.255,229.712 130,229.5C 106.265,229.472 87.9321,220.139 75,201.5C 70.5693,193.376 68.0693,184.71 67.5,175.5C 67.5,174.833 67.5,174.167 67.5,173.5C 67.6716,172.508 67.3382,171.842 66.5,171.5C 65.5,171.5 64.5,171.5 63.5,171.5C 61.7748,171.157 61.2748,170.157 62,168.5C 66.1667,164.333 70.3333,160.167 74.5,156C 75.448,155.517 76.448,155.351 77.5,155.5C 78.1667,155.833 78.8333,156.167 79.5,156.5C 80.1667,157.833 81.1667,158.833 82.5,159.5C 83.1667,160.833 84.1667,161.833 85.5,162.5C 87.1271,164.63 88.9604,166.63 91,168.5C 91.4828,169.448 91.6495,170.448 91.5,171.5C 89.5,171.5 87.5,171.5 85.5,171.5C 85.6741,173.861 86.0074,176.194 86.5,178.5C 86.7215,181.067 87.3882,183.401 88.5,185.5C 88.7549,187.967 89.7549,189.967 91.5,191.5C 91.8449,194.198 93.1782,196.198 95.5,197.5C 97.1667,199.833 99.1667,201.833 101.5,203.5C 102.605,204.6 103.938,205.267 105.5,205.5C 107.853,207.343 110.52,208.677 113.5,209.5C 114.833,209.833 116.167,210.167 117.5,210.5C 130.007,212.862 142.007,211.362 153.5,206C 162.175,200.477 167.175,192.644 168.5,182.5C 168.433,181.041 168.766,179.708 169.5,178.5C 169.768,176.901 169.434,175.568 168.5,174.5C 168.5,173.167 168.5,171.833 168.5,170.5C 168.634,168.708 168.301,167.042 167.5,165.5C 167.029,163.421 166.363,161.421 165.5,159.5C 164.299,157.091 162.633,155.091 160.5,153.5C 158.363,150.027 155.363,147.694 151.5,146.5C 145.96,142.753 139.96,139.753 133.5,137.5C 132.167,137.167 130.833,136.833 129.5,136.5C 128.07,135.463 126.403,134.796 124.5,134.5C 123.292,133.766 121.959,133.433 120.5,133.5C 118.351,132.264 116.018,131.264 113.5,130.5C 111.287,129.227 108.954,128.227 106.5,127.5C 104.819,125.992 102.819,124.992 100.5,124.5C 97.198,123.635 94.198,121.635 91.5,118.5C 87.8333,115.5 84.5,112.167 81.5,108.5C 73.1475,96.0755 70.3142,82.4089 73,67.5C 78.5635,45.6039 92.3968,32.1039 114.5,27C 140.497,21.9377 161.497,29.7711 177.5,50.5C 183.775,60.6012 186.775,71.6012 186.5,83.5C 188.5,83.5 190.5,83.5 192.5,83.5C 192.649,84.552 192.483,85.552 192,86.5C 187.833,90.6667 183.667,94.8333 179.5,99C 177.505,99.6128 175.838,99.1128 174.5,97.5 Z"/></g>
<g><path style="opacity:1" fill="#ffc000" d="M 128.5,43.5 C 122.602,48.1096 116.269,52.2763 109.5,56C 104.53,58.3202 99.5298,60.4869 94.5,62.5C 101.891,49.4636 113.224,43.1303 128.5,43.5 Z"/></g>
<g><path style="opacity:1" fill="#e8fe00" d="M 140.5,45.5 C 143.542,45.7329 146.208,46.7329 148.5,48.5C 141.627,51.2697 134.96,54.6031 128.5,58.5C 127.29,58.9321 126.29,59.5987 125.5,60.5C 123.801,60.3398 122.134,60.5065 120.5,61C 111.666,68.2115 101.666,73.0449 90.5,75.5C 91.0654,73.0479 91.7321,70.7146 92.5,68.5C 108.339,60.2452 124.339,52.5785 140.5,45.5 Z"/></g>
<g><path style="opacity:1" fill="#e9ecea" d="M 128.5,58.5 C 129.877,60.2895 130.877,62.2895 131.5,64.5C 133.833,71.8333 136.167,79.1667 138.5,86.5C 139.566,88.7014 140.233,91.0347 140.5,93.5C 142.596,98.2628 141.263,99.9295 136.5,98.5C 136.567,97.0413 136.234,95.7079 135.5,94.5C 135.039,92.4496 134.372,90.4496 133.5,88.5C 129.5,87.1667 125.5,87.1667 121.5,88.5C 120.36,91.9227 119.026,95.256 117.5,98.5C 116.135,99.8069 114.802,99.8069 113.5,98.5C 115.426,90.3888 117.759,82.3888 120.5,74.5C 121.5,71.8333 122.5,69.1667 123.5,66.5C 123.971,64.4214 124.637,62.4214 125.5,60.5C 126.29,59.5987 127.29,58.9321 128.5,58.5 Z"/></g>
<g><path style="opacity:1" fill="#9dff00" d="M 148.5,48.5 C 150.853,49.3403 152.853,50.6736 154.5,52.5C 147.306,57.265 139.639,61.265 131.5,64.5C 130.877,62.2895 129.877,60.2895 128.5,58.5C 134.96,54.6031 141.627,51.2697 148.5,48.5 Z"/></g>
<g><path style="opacity:1" fill="#ffe800" d="M 128.5,43.5 C 132.764,43.3442 136.764,44.0109 140.5,45.5C 124.339,52.5785 108.339,60.2452 92.5,68.5C 92.2594,66.1016 92.9261,64.1016 94.5,62.5C 99.5298,60.4869 104.53,58.3202 109.5,56C 116.269,52.2763 122.602,48.1096 128.5,43.5 Z"/></g>
<g><path style="opacity:1" fill="#30ff0f" d="M 154.5,52.5 C 161.017,58.0273 165.017,65.0273 166.5,73.5C 157.3,77.8242 147.967,82.1576 138.5,86.5C 136.167,79.1667 133.833,71.8333 131.5,64.5C 139.639,61.265 147.306,57.265 154.5,52.5 Z"/></g>
<g><path style="opacity:1" fill="#b0ff00" d="M 125.5,60.5 C 124.637,62.4214 123.971,64.4214 123.5,66.5C 112.824,71.172 102.157,75.8387 91.5,80.5C 90.5489,79.0813 90.2155,77.4147 90.5,75.5C 101.666,73.0449 111.666,68.2115 120.5,61C 122.134,60.5065 123.801,60.3398 125.5,60.5 Z"/></g>
<g><path style="opacity:1" fill="#27ff00" d="M 127.5,70.5 C 128.8,74.0572 130.133,77.7239 131.5,81.5C 128.833,82.8333 126.167,82.8333 123.5,81.5C 124.842,77.8049 126.175,74.1382 127.5,70.5 Z"/></g>
<g><path style="opacity:1" fill="#82ff00" d="M 123.5,66.5 C 122.5,69.1667 121.5,71.8333 120.5,74.5C 111.372,78.9565 102.039,82.9565 92.5,86.5C 91.5386,84.7354 91.2053,82.7354 91.5,80.5C 102.157,75.8387 112.824,71.172 123.5,66.5 Z"/></g>
<g><path style="opacity:1" fill="#03fe70" d="M 166.5,73.5 C 167.371,76.003 168.037,78.6697 168.5,81.5C 158.127,83.3604 148.794,87.3604 140.5,93.5C 140.233,91.0347 139.566,88.7014 138.5,86.5C 147.967,82.1576 157.3,77.8242 166.5,73.5 Z"/></g>
<g><path style="opacity:1" fill="#04fea7" d="M 168.5,81.5 C 167.082,83.3079 165.082,83.9746 162.5,83.5C 162.392,85.5138 163.058,87.1805 164.5,88.5C 153.076,92.8787 142.076,98.3787 131.5,105C 126.489,106.841 121.489,108.674 116.5,110.5C 115.508,110.672 114.842,110.338 114.5,109.5C 120.972,104.264 128.306,100.597 136.5,98.5C 141.263,99.9295 142.596,98.2628 140.5,93.5C 148.794,87.3604 158.127,83.3604 168.5,81.5 Z"/></g>
<g><path style="opacity:1" fill="#28ff11" d="M 120.5,74.5 C 117.759,82.3888 115.426,90.3888 113.5,98.5C 110.386,100.391 107.052,101.724 103.5,102.5C 97.525,98.8415 93.8584,93.5081 92.5,86.5C 102.039,82.9565 111.372,78.9565 120.5,74.5 Z"/></g>
<g><path style="opacity:1" fill="#02ffce" d="M 164.5,88.5 C 165.833,89.1667 166.833,90.1667 167.5,91.5C 161.233,94.9222 154.567,97.7555 147.5,100C 144.573,102.33 141.573,104.663 138.5,107C 133.22,108.643 128.22,110.809 123.5,113.5C 120.982,112.736 118.649,111.736 116.5,110.5C 121.489,108.674 126.489,106.841 131.5,105C 142.076,98.3787 153.076,92.8787 164.5,88.5 Z"/></g>
<g><path style="opacity:1" fill="#01f9fd" d="M 169.5,93.5 C 171.027,93.427 172.027,94.0937 172.5,95.5C 168.506,97.7518 164.172,99.2518 159.5,100C 158.5,101.667 157.167,103 155.5,104C 146.844,107.706 138.51,111.873 130.5,116.5C 129.005,116.011 127.671,115.345 126.5,114.5C 135.457,111.023 143.791,106.523 151.5,101C 157.715,98.9847 163.715,96.4847 169.5,93.5 Z"/></g>
<g><path style="opacity:1" fill="#02fe54" d="M 135.5,94.5 C 128.077,97.0423 120.744,99.8756 113.5,103C 112.051,104.102 110.718,105.269 109.5,106.5C 107.147,105.66 105.147,104.326 103.5,102.5C 107.052,101.724 110.386,100.391 113.5,98.5C 114.802,99.8069 116.135,99.8069 117.5,98.5C 119.026,95.256 120.36,91.9227 121.5,88.5C 125.5,87.1667 129.5,87.1667 133.5,88.5C 134.372,90.4496 135.039,92.4496 135.5,94.5 Z"/></g>
<g><path style="opacity:1" fill="#02fe83" d="M 135.5,94.5 C 136.234,95.7079 136.567,97.0413 136.5,98.5C 128.306,100.597 120.972,104.264 114.5,109.5C 112.566,108.89 110.899,107.89 109.5,106.5C 110.718,105.269 112.051,104.102 113.5,103C 120.744,99.8756 128.077,97.0423 135.5,94.5 Z"/></g>
<g><path style="opacity:1" fill="#01feeb" d="M 167.5,91.5 C 168.5,91.8333 169.167,92.5 169.5,93.5C 163.715,96.4847 157.715,98.9847 151.5,101C 143.791,106.523 135.457,111.023 126.5,114.5C 125.209,114.737 124.209,114.404 123.5,113.5C 128.22,110.809 133.22,108.643 138.5,107C 141.573,104.663 144.573,102.33 147.5,100C 154.567,97.7555 161.233,94.9222 167.5,91.5 Z"/></g>
<g><path style="opacity:1" fill="#02dcff" d="M 172.5,95.5 C 173.5,95.8333 174.167,96.5 174.5,97.5C 174.167,98.1667 173.833,98.8333 173.5,99.5C 167.25,102.149 160.916,104.649 154.5,107C 153.663,108.011 153.33,109.178 153.5,110.5C 150.11,111.023 146.777,111.857 143.5,113C 141.183,115.157 138.516,116.657 135.5,117.5C 133.784,117.371 132.117,117.038 130.5,116.5C 138.51,111.873 146.844,107.706 155.5,104C 157.167,103 158.5,101.667 159.5,100C 164.172,99.2518 168.506,97.7518 172.5,95.5 Z"/></g>
<g><path style="opacity:1" fill="#03baff" d="M 173.5,99.5 C 173.5,100.833 173.5,102.167 173.5,103.5C 162.462,108.841 151.462,114.174 140.5,119.5C 138.597,119.204 136.93,118.537 135.5,117.5C 138.516,116.657 141.183,115.157 143.5,113C 146.777,111.857 150.11,111.023 153.5,110.5C 153.33,109.178 153.663,108.011 154.5,107C 160.916,104.649 167.25,102.149 173.5,99.5 Z"/></g>
<g><path style="opacity:1" fill="#019aff" d="M 173.5,103.5 C 174.338,103.842 174.672,104.508 174.5,105.5C 164.485,110.769 154.152,115.769 143.5,120.5C 142.209,120.737 141.209,120.404 140.5,119.5C 151.462,114.174 162.462,108.841 173.5,103.5 Z"/></g>
<g><path style="opacity:1" fill="#07fe6c" d="M 81.5,108.5 C 84.5,112.167 87.8333,115.5 91.5,118.5C 88.1637,120.731 84.497,122.397 80.5,123.5C 80.1795,118.305 80.5128,113.305 81.5,108.5 Z"/></g>
<g><path style="opacity:1" fill="#0375ff" d="M 174.5,105.5 C 175.461,107.265 175.795,109.265 175.5,111.5C 166.817,115.733 157.817,119.4 148.5,122.5C 146.447,122.598 144.78,121.931 143.5,120.5C 154.152,115.769 164.485,110.769 174.5,105.5 Z"/></g>
<g><path style="opacity:1" fill="#0152ff" d="M 175.5,111.5 C 176.338,111.842 176.672,112.508 176.5,113.5C 168.55,116.473 161.217,120.473 154.5,125.5C 152.181,125.008 150.181,124.008 148.5,122.5C 157.817,119.4 166.817,115.733 175.5,111.5 Z"/></g>
<g><path style="opacity:1" fill="#0037ff" d="M 176.5,113.5 C 176.5,114.5 176.5,115.5 176.5,116.5C 170.447,120.86 163.78,124.193 156.5,126.5C 155.508,126.672 154.842,126.338 154.5,125.5C 161.217,120.473 168.55,116.473 176.5,113.5 Z"/></g>
<g><path style="opacity:1" fill="#03feec" d="M 100.5,124.5 C 102.819,124.992 104.819,125.992 106.5,127.5C 97.9649,131.683 89.2982,135.683 80.5,139.5C 80.5,137.5 80.5,135.5 80.5,133.5C 86.9302,130.128 93.5968,127.128 100.5,124.5 Z"/></g>
<g><path style="opacity:1" fill="#08feb9" d="M 91.5,118.5 C 94.198,121.635 97.198,123.635 100.5,124.5C 93.5968,127.128 86.9302,130.128 80.5,133.5C 80.5,130.167 80.5,126.833 80.5,123.5C 84.497,122.397 88.1637,120.731 91.5,118.5 Z"/></g>
<g><path style="opacity:1" fill="#4c03fe" d="M 176.5,116.5 C 180.466,126.686 182.132,137.353 181.5,148.5C 175.022,139.02 166.689,131.687 156.5,126.5C 163.78,124.193 170.447,120.86 176.5,116.5 Z"/></g>
<g><path style="opacity:1" fill="#04daff" d="M 106.5,127.5 C 108.954,128.227 111.287,129.227 113.5,130.5C 102.639,135.429 91.6388,140.095 80.5,144.5C 80.5,142.833 80.5,141.167 80.5,139.5C 89.2982,135.683 97.9649,131.683 106.5,127.5 Z"/></g>
<g><path style="opacity:1" fill="#2809fe" d="M 133.5,137.5 C 139.96,139.753 145.96,142.753 151.5,146.5C 144.384,150.127 137.051,153.46 129.5,156.5C 129.5,155.5 129.5,154.5 129.5,153.5C 126.05,152.756 124.384,154.09 124.5,157.5C 119.103,157.215 113.77,157.549 108.5,158.5C 107.167,159.833 107.167,161.167 108.5,162.5C 111.084,163.393 113.751,163.726 116.5,163.5C 109.233,167.137 102.233,171.304 95.5,176C 92.5259,176.993 89.5259,177.826 86.5,178.5C 86.0074,176.194 85.6741,173.861 85.5,171.5C 87.5,171.5 89.5,171.5 91.5,171.5C 91.6495,170.448 91.4828,169.448 91,168.5C 88.9604,166.63 87.1271,164.63 85.5,162.5C 101.276,153.721 117.276,145.388 133.5,137.5 Z"/></g>
<g><path style="opacity:1" fill="#04aeff" d="M 113.5,130.5 C 116.018,131.264 118.351,132.264 120.5,133.5C 116.911,134.816 113.244,135.983 109.5,137C 99.3423,141.696 89.3423,146.529 79.5,151.5C 79.1984,148.941 79.5318,146.607 80.5,144.5C 91.6388,140.095 102.639,135.429 113.5,130.5 Z"/></g>
<g><path style="opacity:1" fill="#0362ff" d="M 124.5,134.5 C 126.403,134.796 128.07,135.463 129.5,136.5C 113.577,143.784 97.9107,151.451 82.5,159.5C 81.1667,158.833 80.1667,157.833 79.5,156.5C 94.1034,148.365 109.103,141.032 124.5,134.5 Z"/></g>
<g><path style="opacity:1" fill="#e2e9e5" d="M 129.5,156.5 C 134.651,157.327 139.984,157.827 145.5,158C 146.044,158.717 146.711,159.217 147.5,159.5C 147.489,161.017 146.823,162.184 145.5,163C 143.527,163.495 141.527,163.662 139.5,163.5C 139.233,165.965 138.566,168.299 137.5,170.5C 135.742,174.354 133.742,178.021 131.5,181.5C 132.945,183.063 134.611,184.396 136.5,185.5C 136.833,186.5 137.5,187.167 138.5,187.5C 142.126,189.712 142.126,191.712 138.5,193.5C 137.416,193.315 136.416,192.982 135.5,192.5C 133.858,191.197 132.191,189.864 130.5,188.5C 129.855,187.188 128.855,186.188 127.5,185.5C 124.346,188.243 121.012,190.743 117.5,193C 115.648,193.773 114.314,193.273 113.5,191.5C 113.281,190.325 113.614,189.325 114.5,188.5C 117.472,186.694 120.305,184.694 123,182.5C 123.747,180.072 122.914,178.406 120.5,177.5C 119.974,175.77 118.974,174.436 117.5,173.5C 116.365,171.255 115.865,168.922 116,166.5C 118.582,165.039 120.415,165.706 121.5,168.5C 123.016,171.533 125.016,174.2 127.5,176.5C 130.323,172.864 132.656,168.864 134.5,164.5C 133.675,163.614 132.675,163.281 131.5,163.5C 126.5,163.5 121.5,163.5 116.5,163.5C 113.751,163.726 111.084,163.393 108.5,162.5C 107.167,161.167 107.167,159.833 108.5,158.5C 113.77,157.549 119.103,157.215 124.5,157.5C 124.384,154.09 126.05,152.756 129.5,153.5C 129.5,154.5 129.5,155.5 129.5,156.5 Z"/></g>
<g><path style="opacity:1" fill="#0288fe" d="M 120.5,133.5 C 121.959,133.433 123.292,133.766 124.5,134.5C 109.103,141.032 94.1034,148.365 79.5,156.5C 78.8333,156.167 78.1667,155.833 77.5,155.5C 77.9887,154.005 78.6554,152.671 79.5,151.5C 89.3423,146.529 99.3423,141.696 109.5,137C 113.244,135.983 116.911,134.816 120.5,133.5 Z"/></g>
<g><path style="opacity:1" fill="#013fff" d="M 129.5,136.5 C 130.833,136.833 132.167,137.167 133.5,137.5C 117.276,145.388 101.276,153.721 85.5,162.5C 84.1667,161.833 83.1667,160.833 82.5,159.5C 97.9107,151.451 113.577,143.784 129.5,136.5 Z"/></g>
<g><path style="opacity:1" fill="#8f00ff" d="M 151.5,146.5 C 155.363,147.694 158.363,150.027 160.5,153.5C 156.058,155.22 151.724,157.22 147.5,159.5C 146.711,159.217 146.044,158.717 145.5,158C 139.984,157.827 134.651,157.327 129.5,156.5C 137.051,153.46 144.384,150.127 151.5,146.5 Z"/></g>
<g><path style="opacity:1" fill="#d700ff" d="M 160.5,153.5 C 162.633,155.091 164.299,157.091 165.5,159.5C 156.167,163.167 146.833,166.833 137.5,170.5C 138.566,168.299 139.233,165.965 139.5,163.5C 141.527,163.662 143.527,163.495 145.5,163C 146.823,162.184 147.489,161.017 147.5,159.5C 151.724,157.22 156.058,155.22 160.5,153.5 Z"/></g>
<g><path style="opacity:1" fill="#fe00eb" d="M 165.5,159.5 C 166.363,161.421 167.029,163.421 167.5,165.5C 155.465,170.853 143.465,176.186 131.5,181.5C 133.742,178.021 135.742,174.354 137.5,170.5C 146.833,166.833 156.167,163.167 165.5,159.5 Z"/></g>
<g><path style="opacity:1" fill="#b100ff" d="M 131.5,163.5 C 132.675,163.281 133.675,163.614 134.5,164.5C 132.656,168.864 130.323,172.864 127.5,176.5C 125.016,174.2 123.016,171.533 121.5,168.5C 125.151,167.341 128.485,165.674 131.5,163.5 Z"/></g>
<g><path style="opacity:0.518" fill="#355e48" d="M 63.5,171.5 C 64.5,171.5 65.5,171.5 66.5,171.5C 66.3284,172.492 66.6618,173.158 67.5,173.5C 67.5,174.167 67.5,174.833 67.5,175.5C 65.8333,174.5 64.5,173.167 63.5,171.5 Z"/></g>
<g><path style="opacity:1" fill="#7d00ff" d="M 116.5,163.5 C 121.5,163.5 126.5,163.5 131.5,163.5C 128.485,165.674 125.151,167.341 121.5,168.5C 120.415,165.706 118.582,165.039 116,166.5C 115.865,168.922 116.365,171.255 117.5,173.5C 108.899,175.751 100.899,179.251 93.5,184C 91.6183,184.198 89.9516,184.698 88.5,185.5C 87.3882,183.401 86.7215,181.067 86.5,178.5C 89.5259,177.826 92.5259,176.993 95.5,176C 102.233,171.304 109.233,167.137 116.5,163.5 Z"/></g>
<g><path style="opacity:1" fill="#ec00fc" d="M 120.5,177.5 C 122.914,178.406 123.747,180.072 123,182.5C 120.305,184.694 117.472,186.694 114.5,188.5C 113.614,189.325 113.281,190.325 113.5,191.5C 107.5,193.5 101.5,195.5 95.5,197.5C 93.1782,196.198 91.8449,194.198 91.5,191.5C 101.116,186.843 110.783,182.177 120.5,177.5 Z"/></g>
<g><path style="opacity:1" fill="#ff0092" d="M 168.5,170.5 C 168.5,171.833 168.5,173.167 168.5,174.5C 158.436,178.87 148.436,183.203 138.5,187.5C 137.5,187.167 136.833,186.5 136.5,185.5C 144.175,183.166 151.175,179.5 157.5,174.5C 161.286,173.438 164.953,172.104 168.5,170.5 Z"/></g>
<g><path style="opacity:1" fill="#ff00b6" d="M 167.5,165.5 C 168.301,167.042 168.634,168.708 168.5,170.5C 164.953,172.104 161.286,173.438 157.5,174.5C 151.175,179.5 144.175,183.166 136.5,185.5C 134.611,184.396 132.945,183.063 131.5,181.5C 143.465,176.186 155.465,170.853 167.5,165.5 Z"/></g>
<g><path style="opacity:1" fill="#bb00ff" d="M 117.5,173.5 C 118.974,174.436 119.974,175.77 120.5,177.5C 110.783,182.177 101.116,186.843 91.5,191.5C 89.7549,189.967 88.7549,187.967 88.5,185.5C 89.9516,184.698 91.6183,184.198 93.5,184C 100.899,179.251 108.899,175.751 117.5,173.5 Z"/></g>
<g><path style="opacity:1" fill="#ff000d" d="M 168.5,182.5 C 167.175,192.644 162.175,200.477 153.5,206C 142.007,211.362 130.007,212.862 117.5,210.5C 130.255,204.623 142.921,198.457 155.5,192C 156.337,190.989 156.67,189.822 156.5,188.5C 161.314,188.093 165.314,186.093 168.5,182.5 Z"/></g>
<g><path style="opacity:1" fill="#ff0061" d="M 168.5,174.5 C 169.434,175.568 169.768,176.901 169.5,178.5C 165.214,181.649 160.547,184.315 155.5,186.5C 154.833,187.5 154.167,188.5 153.5,189.5C 141.033,194.801 128.699,200.467 116.5,206.5C 115.452,207.548 114.452,208.548 113.5,209.5C 110.52,208.677 107.853,207.343 105.5,205.5C 116.068,202.316 126.068,197.983 135.5,192.5C 136.416,192.982 137.416,193.315 138.5,193.5C 142.126,191.712 142.126,189.712 138.5,187.5C 148.436,183.203 158.436,178.87 168.5,174.5 Z"/></g>
<g><path style="opacity:1" fill="#ff00bf" d="M 130.5,188.5 C 120.247,192.79 110.58,197.79 101.5,203.5C 99.1667,201.833 97.1667,199.833 95.5,197.5C 101.5,195.5 107.5,193.5 113.5,191.5C 114.314,193.273 115.648,193.773 117.5,193C 121.012,190.743 124.346,188.243 127.5,185.5C 128.855,186.188 129.855,187.188 130.5,188.5 Z"/></g>
<g><path style="opacity:1" fill="#ff008b" d="M 130.5,188.5 C 132.191,189.864 133.858,191.197 135.5,192.5C 126.068,197.983 116.068,202.316 105.5,205.5C 103.938,205.267 102.605,204.6 101.5,203.5C 110.58,197.79 120.247,192.79 130.5,188.5 Z"/></g>
<g><path style="opacity:1" fill="#ff003c" d="M 169.5,178.5 C 168.766,179.708 168.433,181.041 168.5,182.5C 165.314,186.093 161.314,188.093 156.5,188.5C 156.67,189.822 156.337,190.989 155.5,192C 142.921,198.457 130.255,204.623 117.5,210.5C 116.167,210.167 114.833,209.833 113.5,209.5C 114.452,208.548 115.452,207.548 116.5,206.5C 128.699,200.467 141.033,194.801 153.5,189.5C 154.167,188.5 154.833,187.5 155.5,186.5C 160.547,184.315 165.214,181.649 169.5,178.5 Z"/></g>
</svg>
