<?xml version="1.0" encoding="UTF-8"?>
<!DOCTYPE svg PUBLIC "-//W3C//DTD SVG 1.1//EN" "http://www.w3.org/Graphics/SVG/1.1/DTD/svg11.dtd">
<svg xmlns="http://www.w3.org/2000/svg" version="1.1" width="256px" height="256px" style="shape-rendering:geometricPrecision; text-rendering:geometricPrecision; image-rendering:optimizeQuality; fill-rule:evenodd; clip-rule:evenodd" xmlns:xlink="http://www.w3.org/1999/xlink">
<g><path style="opacity:0.851" fill="#fefefe" d="M 119.5,20.5 C 139.643,18.3239 155.143,25.6573 166,42.5C 168.752,47.8382 170.418,53.5049 171,59.5C 171.667,79.5 171.667,99.5 171,119.5C 166.11,143.224 151.61,156.224 127.5,158.5C 103.39,156.224 88.8901,143.224 84,119.5C 83.3333,99.5 83.3333,79.5 84,59.5C 87.3264,38.6768 99.1597,25.6768 119.5,20.5 Z"/></g>
<g><path style="opacity:1" fill="#f2fd00" d="M 127.5,26.5 C 121.547,31.8174 114.881,36.1507 107.5,39.5C 104.71,41.3871 102.71,43.8871 101.5,47C 98.1614,47.8423 95.1614,49.3423 92.5,51.5C 98.8357,35.8471 110.502,27.5138 127.5,26.5 Z"/></g>
<g><path style="opacity:1" fill="#c9ff00" d="M 127.5,26.5 C 129.95,26.298 132.283,26.6314 134.5,27.5C 127.812,35.0223 119.812,40.8556 110.5,45C 104.812,51.1891 98.145,56.0225 90.5,59.5C 90.5651,56.5718 91.2318,53.9052 92.5,51.5C 95.1614,49.3423 98.1614,47.8423 101.5,47C 102.71,43.8871 104.71,41.3871 107.5,39.5C 114.881,36.1507 121.547,31.8174 127.5,26.5 Z"/></g>
<g><path style="opacity:1" fill="#9bff00" d="M 134.5,27.5 C 139.29,28.2038 143.623,29.8705 147.5,32.5C 145.692,32.4914 144.025,32.9914 142.5,34C 136.563,40.1308 129.563,44.4642 121.5,47C 115.247,52.4222 108.58,57.2555 101.5,61.5C 98.8818,66.0992 94.8818,68.7658 89.5,69.5C 89.4595,66.1194 89.7929,62.7861 90.5,59.5C 98.145,56.0225 104.812,51.1891 110.5,45C 119.812,40.8556 127.812,35.0223 134.5,27.5 Z"/></g>
<g><path style="opacity:1" fill="#64ff00" d="M 147.5,32.5 C 149.909,33.7007 151.909,35.3674 153.5,37.5C 144.855,41.1601 137.188,46.3268 130.5,53C 127.554,53.8061 124.888,55.1395 122.5,57C 117.187,60.6504 112.187,64.6504 107.5,69C 101.08,72.2678 95.0804,76.1012 89.5,80.5C 89.5,76.8333 89.5,73.1667 89.5,69.5C 94.8818,68.7658 98.8818,66.0992 101.5,61.5C 108.58,57.2555 115.247,52.4222 121.5,47C 129.563,44.4642 136.563,40.1308 142.5,34C 144.025,32.9914 145.692,32.4914 147.5,32.5 Z"/></g>
<g><path style="opacity:1" fill="#0efe18" d="M 153.5,37.5 C 157.992,41.1381 160.992,45.8048 162.5,51.5C 161.71,52.7942 160.71,53.9609 159.5,55C 151.224,57.9262 144.557,62.9262 139.5,70C 129.284,74.9498 120.284,81.6164 112.5,90C 104.131,94.2164 96.4641,99.3831 89.5,105.5C 89.5,97.1667 89.5,88.8333 89.5,80.5C 95.0804,76.1012 101.08,72.2678 107.5,69C 112.187,64.6504 117.187,60.6504 122.5,57C 124.888,55.1395 127.554,53.8061 130.5,53C 137.188,46.3268 144.855,41.1601 153.5,37.5 Z"/></g>
<g><path style="opacity:1" fill="#00fe46" d="M 162.5,51.5 C 163.612,53.5994 164.279,55.9327 164.5,58.5C 153.027,62.9184 142.694,69.4184 133.5,78C 124.519,83.4952 115.852,89.4952 107.5,96C 101.268,97.607 96.2684,100.94 92.5,106C 91.552,106.483 90.552,106.649 89.5,106.5C 89.5,106.167 89.5,105.833 89.5,105.5C 96.4641,99.3831 104.131,94.2164 112.5,90C 120.284,81.6164 129.284,74.9498 139.5,70C 144.557,62.9262 151.224,57.9262 159.5,55C 160.71,53.9609 161.71,52.7942 162.5,51.5 Z"/></g>
<g><path style="opacity:1" fill="#00fe60" d="M 164.5,58.5 C 164.5,59.5 164.5,60.5 164.5,61.5C 143.998,74.777 123.664,88.6103 103.5,103C 98.652,105.256 93.9853,107.756 89.5,110.5C 89.5,109.167 89.5,107.833 89.5,106.5C 90.552,106.649 91.552,106.483 92.5,106C 96.2684,100.94 101.268,97.607 107.5,96C 115.852,89.4952 124.519,83.4952 133.5,78C 142.694,69.4184 153.027,62.9184 164.5,58.5 Z"/></g>
<g><path style="opacity:1" fill="#01febc" d="M 165.5,72.5 C 165.5,73.5 165.5,74.5 165.5,75.5C 163.488,76.2283 161.488,77.0617 159.5,78C 153.128,84.3643 146.128,90.031 138.5,95C 134.398,96.1623 131.065,98.4956 128.5,102C 124.411,105.095 120.077,107.761 115.5,110C 113.126,112.039 111.126,114.372 109.5,117C 107.167,118 104.833,119 102.5,120C 99.6381,123.36 96.3047,126.193 92.5,128.5C 91.962,126.883 91.6287,125.216 91.5,123.5C 95.7396,121.102 99.573,118.102 103,114.5C 112.582,109.94 121.415,104.107 129.5,97C 134.916,95.0818 138.916,91.5818 141.5,86.5C 149.651,82.0138 157.651,77.3471 165.5,72.5 Z"/></g>
<g><path style="opacity:1" fill="#01fe7a" d="M 164.5,61.5 C 164.5,61.8333 164.5,62.1667 164.5,62.5C 164.586,63.4959 164.252,64.3292 163.5,65C 159.5,67.6667 155.5,70.3333 151.5,73C 146.274,79.8891 139.607,84.8891 131.5,88C 125.577,93.9646 118.911,98.9646 111.5,103C 110.013,105.737 107.679,107.403 104.5,108C 102.266,111.249 99.2657,113.249 95.5,114C 93.9675,116.029 92.3008,117.862 90.5,119.5C 90.0371,116.518 89.7038,113.518 89.5,110.5C 93.9853,107.756 98.652,105.256 103.5,103C 123.664,88.6103 143.998,74.777 164.5,61.5 Z"/></g>
<g><path style="opacity:1" fill="#01fe95" d="M 164.5,62.5 C 165.468,64.6074 165.802,66.9407 165.5,69.5C 160.522,71.989 155.522,74.489 150.5,77C 144.98,82.0207 139.314,86.8541 133.5,91.5C 118.926,101.276 104.592,111.276 90.5,121.5C 90.5,120.833 90.5,120.167 90.5,119.5C 92.3008,117.862 93.9675,116.029 95.5,114C 99.2657,113.249 102.266,111.249 104.5,108C 107.679,107.403 110.013,105.737 111.5,103C 118.911,98.9646 125.577,93.9646 131.5,88C 139.607,84.8891 146.274,79.8891 151.5,73C 155.5,70.3333 159.5,67.6667 163.5,65C 164.252,64.3292 164.586,63.4959 164.5,62.5 Z"/></g>
<g><path style="opacity:1" fill="#00fea9" d="M 165.5,69.5 C 165.5,70.5 165.5,71.5 165.5,72.5C 157.651,77.3471 149.651,82.0138 141.5,86.5C 138.916,91.5818 134.916,95.0818 129.5,97C 121.415,104.107 112.582,109.94 103,114.5C 99.573,118.102 95.7396,121.102 91.5,123.5C 90.6618,123.158 90.3284,122.492 90.5,121.5C 104.592,111.276 118.926,101.276 133.5,91.5C 139.314,86.8541 144.98,82.0207 150.5,77C 155.522,74.489 160.522,71.989 165.5,69.5 Z"/></g>
<g><path style="opacity:1" fill="#01eeff" d="M 165.5,86.5 C 165.5,88.5 165.5,90.5 165.5,92.5C 161.023,95.1487 156.69,97.982 152.5,101C 148.398,102.162 145.065,104.496 142.5,108C 134.899,113.241 127.232,118.575 119.5,124C 112.423,125.035 106.756,128.368 102.5,134C 100.922,135.094 99.2554,135.928 97.5,136.5C 96.6618,136.158 96.3284,135.492 96.5,134.5C 119.476,118.534 142.476,102.534 165.5,86.5 Z"/></g>
<g><path style="opacity:1" fill="#01beff" d="M 165.5,95.5 C 165.5,96.1667 165.5,96.8333 165.5,97.5C 154.636,104.097 144.303,111.431 134.5,119.5C 132.569,121.804 130.236,123.638 127.5,125C 120.799,132.523 112.799,138.356 103.5,142.5C 101.833,141.5 100.5,140.167 99.5,138.5C 105.805,134.34 112.472,130.84 119.5,128C 135.005,117.315 150.339,106.482 165.5,95.5 Z"/></g>
<g><path style="opacity:1" fill="#03a4ff" d="M 165.5,97.5 C 165.5,99.5 165.5,101.5 165.5,103.5C 162.728,103.595 160.728,104.929 159.5,107.5C 157.887,108.427 156.221,109.261 154.5,110C 146.278,116.503 138.278,123.169 130.5,130C 121.369,133.359 114.369,139.192 109.5,147.5C 107.091,146.299 105.091,144.633 103.5,142.5C 112.799,138.356 120.799,132.523 127.5,125C 130.236,123.638 132.569,121.804 134.5,119.5C 144.303,111.431 154.636,104.097 165.5,97.5 Z"/></g>
<g><path style="opacity:1" fill="#01ffd6" d="M 165.5,75.5 C 165.5,76.5 165.5,77.5 165.5,78.5C 163.348,80.0783 161.014,81.4117 158.5,82.5C 156.158,86.3439 152.825,88.8439 148.5,90C 146.689,92.978 144.356,95.478 141.5,97.5C 134.834,101.166 128.5,105.333 122.5,110C 113.79,117.869 104.457,125.036 94.5,131.5C 93.5987,130.71 92.9321,129.71 92.5,128.5C 96.3047,126.193 99.6381,123.36 102.5,120C 104.833,119 107.167,118 109.5,117C 111.126,114.372 113.126,112.039 115.5,110C 120.077,107.761 124.411,105.095 128.5,102C 131.065,98.4956 134.398,96.1623 138.5,95C 146.128,90.031 153.128,84.3643 159.5,78C 161.488,77.0617 163.488,76.2283 165.5,75.5 Z"/></g>
<g><path style="opacity:1" fill="#02fef1" d="M 165.5,78.5 C 165.5,81.1667 165.5,83.8333 165.5,86.5C 142.476,102.534 119.476,118.534 96.5,134.5C 95.0937,134.027 94.427,133.027 94.5,131.5C 104.457,125.036 113.79,117.869 122.5,110C 128.5,105.333 134.834,101.166 141.5,97.5C 144.356,95.478 146.689,92.978 148.5,90C 152.825,88.8439 156.158,86.3439 158.5,82.5C 161.014,81.4117 163.348,80.0783 165.5,78.5 Z"/></g>
<g><path style="opacity:1" fill="#026dff" d="M 165.5,109.5 C 165.5,110.167 165.5,110.833 165.5,111.5C 162.264,113.056 159.264,115.056 156.5,117.5C 153.69,120.811 150.69,123.978 147.5,127C 138.017,132.244 129.017,138.244 120.5,145C 117.232,145.11 114.899,146.61 113.5,149.5C 112.29,149.068 111.29,148.401 110.5,147.5C 128.792,134.892 147.125,122.225 165.5,109.5 Z"/></g>
<g><path style="opacity:0.846" fill="#fefffe" d="M 62.5,123.5 C 64.1667,123.5 65.8333,123.5 67.5,123.5C 72.2756,146.107 85.2756,161.94 106.5,171C 137.568,179.98 162.068,171.147 180,144.5C 183.795,137.947 186.295,130.947 187.5,123.5C 189.199,123.34 190.866,123.506 192.5,124C 190.637,142.702 181.971,157.702 166.5,169C 160.322,172.839 153.822,176.006 147,178.5C 146.974,196.59 146.307,214.59 145,232.5C 144.25,233.126 143.416,233.626 142.5,234C 132.5,234.667 122.5,234.667 112.5,234C 111.584,233.626 110.75,233.126 110,232.5C 108.693,214.59 108.026,196.59 108,178.5C 82.8176,169.818 67.3176,152.485 61.5,126.5C 61.685,125.416 62.0183,124.416 62.5,123.5 Z"/></g>
<g><path style="opacity:1" fill="#0189ff" d="M 165.5,103.5 C 165.5,105.5 165.5,107.5 165.5,109.5C 147.125,122.225 128.792,134.892 110.5,147.5C 110.167,147.5 109.833,147.5 109.5,147.5C 114.369,139.192 121.369,133.359 130.5,130C 138.278,123.169 146.278,116.503 154.5,110C 156.221,109.261 157.887,108.427 159.5,107.5C 160.728,104.929 162.728,103.595 165.5,103.5 Z"/></g>
<g><path style="opacity:1" fill="#01d7ff" d="M 165.5,92.5 C 165.5,93.5 165.5,94.5 165.5,95.5C 150.339,106.482 135.005,117.315 119.5,128C 112.472,130.84 105.805,134.34 99.5,138.5C 98.5,138.167 97.8333,137.5 97.5,136.5C 99.2554,135.928 100.922,135.094 102.5,134C 106.756,128.368 112.423,125.035 119.5,124C 127.232,118.575 134.899,113.241 142.5,108C 145.065,104.496 148.398,102.162 152.5,101C 156.69,97.982 161.023,95.1487 165.5,92.5 Z"/></g>
<g><path style="opacity:1" fill="#005bff" d="M 165.5,111.5 C 165.483,113.565 165.15,115.565 164.5,117.5C 160.518,119.826 156.518,122.159 152.5,124.5C 147.27,129.743 141.27,133.743 134.5,136.5C 129.405,141.878 123.738,146.545 117.5,150.5C 116.167,150.167 114.833,149.833 113.5,149.5C 114.899,146.61 117.232,145.11 120.5,145C 129.017,138.244 138.017,132.244 147.5,127C 150.69,123.978 153.69,120.811 156.5,117.5C 159.264,115.056 162.264,113.056 165.5,111.5 Z"/></g>
<g><path style="opacity:1" fill="#031bff" d="M 163.5,123.5 C 157.927,142.4 145.261,151.734 125.5,151.5C 127.119,149.881 128.785,148.215 130.5,146.5C 136.458,143.854 142.124,140.688 147.5,137C 151.807,131.338 157.14,126.838 163.5,123.5 Z"/></g>
<g><path style="opacity:1" fill="#0141ff" d="M 164.5,117.5 C 164.795,119.735 164.461,121.735 163.5,123.5C 157.14,126.838 151.807,131.338 147.5,137C 142.124,140.688 136.458,143.854 130.5,146.5C 128.785,148.215 127.119,149.881 125.5,151.5C 122.763,151.599 120.096,151.265 117.5,150.5C 123.738,146.545 129.405,141.878 134.5,136.5C 141.27,133.743 147.27,129.743 152.5,124.5C 156.518,122.159 160.518,119.826 164.5,117.5 Z"/></g>
<g><path style="opacity:1" fill="#9100ff" d="M 136.5,180.5 C 129.141,185.537 121.807,190.537 114.5,195.5C 114.172,190.125 114.505,184.792 115.5,179.5C 122.442,180.464 129.442,180.797 136.5,180.5 Z"/></g>
<g><path style="opacity:1" fill="#bd00ff" d="M 140.5,188.5 C 137.802,189.143 135.135,189.976 132.5,191C 126.895,195.778 120.895,199.945 114.5,203.5C 114.5,200.833 114.5,198.167 114.5,195.5C 121.807,190.537 129.141,185.537 136.5,180.5C 137.583,180.461 138.583,180.127 139.5,179.5C 140.484,182.428 140.817,185.428 140.5,188.5 Z"/></g>
<g><path style="opacity:1" fill="#ed00fe" d="M 140.5,188.5 C 140.5,190.5 140.5,192.5 140.5,194.5C 132.109,200.89 123.442,206.89 114.5,212.5C 114.5,209.5 114.5,206.5 114.5,203.5C 120.895,199.945 126.895,195.778 132.5,191C 135.135,189.976 137.802,189.143 140.5,188.5 Z"/></g>
<g><path style="opacity:1" fill="#ff00de" d="M 140.5,194.5 C 140.5,198.167 140.5,201.833 140.5,205.5C 138.072,206.212 135.739,207.212 133.5,208.5C 127.719,213.952 121.386,218.619 114.5,222.5C 114.5,219.167 114.5,215.833 114.5,212.5C 123.442,206.89 132.109,200.89 140.5,194.5 Z"/></g>
<g><path style="opacity:1" fill="#ff00b3" d="M 140.5,205.5 C 140.5,206.5 140.5,207.5 140.5,208.5C 135.553,210.279 132.053,213.613 130,218.5C 128.229,219.304 126.729,220.471 125.5,222C 121.711,223.632 118.044,225.465 114.5,227.5C 114.5,225.833 114.5,224.167 114.5,222.5C 121.386,218.619 127.719,213.952 133.5,208.5C 135.739,207.212 138.072,206.212 140.5,205.5 Z"/></g>
<g><path style="opacity:1" fill="#ff0069" d="M 140.5,215.5 C 140.5,219.833 140.5,224.167 140.5,228.5C 134.5,228.5 128.5,228.5 122.5,228.5C 128.218,223.782 134.218,219.449 140.5,215.5 Z"/></g>
<g><path style="opacity:1" fill="#ff0096" d="M 140.5,208.5 C 140.5,210.833 140.5,213.167 140.5,215.5C 134.218,219.449 128.218,223.782 122.5,228.5C 119.615,228.806 116.948,228.473 114.5,227.5C 118.044,225.465 121.711,223.632 125.5,222C 126.729,220.471 128.229,219.304 130,218.5C 132.053,213.613 135.553,210.279 140.5,208.5 Z"/></g>
</svg>
