<?xml version="1.0" encoding="UTF-8"?>
<!DOCTYPE svg PUBLIC "-//W3C//DTD SVG 1.1//EN" "http://www.w3.org/Graphics/SVG/1.1/DTD/svg11.dtd">
<svg xmlns="http://www.w3.org/2000/svg" version="1.1" width="240px" height="242px" style="shape-rendering:geometricPrecision; text-rendering:geometricPrecision; image-rendering:optimizeQuality; fill-rule:evenodd; clip-rule:evenodd" xmlns:xlink="http://www.w3.org/1999/xlink">
<g><path style="opacity:1" fill="#eceaea" d="M 102.5,191.5 C 101.627,187.232 101.294,182.898 101.5,178.5C 104.028,177.977 106.361,176.977 108.5,175.5C 110.447,176.277 112.28,177.277 114,178.5C 116.253,177.623 118.419,176.623 120.5,175.5C 122.957,175.792 125.624,175.792 128.5,175.5C 135.167,175.5 141.833,175.5 148.5,175.5C 149.123,168.745 148.456,162.412 146.5,156.5C 142.09,155.623 138.757,157.123 136.5,161C 135.207,161.49 133.873,161.657 132.5,161.5C 130.167,161.5 127.833,161.5 125.5,161.5C 125.657,162.873 125.49,164.207 125,165.5C 124.333,163.167 124.333,160.833 125,158.5C 137.365,161.972 142.198,157.305 139.5,144.5C 135.069,144.231 130.735,144.564 126.5,145.5C 126.427,143.973 127.094,142.973 128.5,142.5C 131.962,143.482 135.629,143.815 139.5,143.5C 139.666,139.486 139.499,135.486 139,131.5C 136.804,128.875 133.97,127.875 130.5,128.5C 126.671,127.931 123.337,128.598 120.5,130.5C 118.974,129.508 118.307,128.008 118.5,126C 118.307,123.992 118.974,122.492 120.5,121.5C 120.5,123.5 120.5,125.5 120.5,127.5C 122.5,127.5 124.5,127.5 126.5,127.5C 129.167,127.5 131.833,127.5 134.5,127.5C 136.514,127.392 138.18,128.058 139.5,129.5C 139.611,130.117 139.944,130.617 140.5,131C 143.146,131.497 145.813,131.664 148.5,131.5C 148.5,128.167 148.5,124.833 148.5,121.5C 148.5,118.833 148.5,116.167 148.5,113.5C 148.672,112.508 148.338,111.842 147.5,111.5C 141.963,110.238 136.297,110.238 130.5,111.5C 130.5,109.5 129.5,108.5 127.5,108.5C 124.363,104.515 121.363,100.348 118.5,96C 114.187,96.3924 110.02,97.5591 106,99.5C 104.167,99.4814 102.667,98.8148 101.5,97.5C 101.333,81.8298 101.5,66.1631 102,50.5C 102.935,47.8981 104.768,46.3981 107.5,46C 131.833,45.3333 156.167,45.3333 180.5,46C 186.305,52.4743 192.138,58.9743 198,65.5C 198.989,107.584 198.655,149.584 197,191.5C 196.25,192.126 195.416,192.626 194.5,193C 164.5,193.667 134.5,193.667 104.5,193C 103.956,192.283 103.289,191.783 102.5,191.5 Z"/></g>
<g><path style="opacity:1" fill="#d4d4d4" d="M 101.5,97.5 C 102.667,98.8148 104.167,99.4814 106,99.5C 110.02,97.5591 114.187,96.3924 118.5,96C 121.363,100.348 124.363,104.515 127.5,108.5C 127.351,109.552 127.517,110.552 128,111.5C 128.77,110.402 129.603,110.402 130.5,111.5C 130.631,112.239 130.464,112.906 130,113.5C 126.642,116.031 123.476,118.698 120.5,121.5C 118.974,122.492 118.307,123.992 118.5,126C 118.307,128.008 118.974,129.508 120.5,130.5C 122.091,132.633 124.091,134.299 126.5,135.5C 126.81,136.738 127.31,136.738 128,135.5C 128.497,137.81 128.663,140.143 128.5,142.5C 127.094,142.973 126.427,143.973 126.5,145.5C 123.864,149.106 122.031,153.106 121,157.5C 119.212,155.977 119.045,154.31 120.5,152.5C 120.737,151.209 120.404,150.209 119.5,149.5C 117.918,148.124 116.085,147.124 114,146.5C 112.251,146.748 111.418,147.748 111.5,149.5C 109.379,149.675 107.379,149.341 105.5,148.5C 105.53,147.503 105.03,146.836 104,146.5C 101.102,147.365 98.6017,148.865 96.5,151C 97.7649,152.337 98.2649,153.837 98,155.5C 96.2365,156.944 94.2365,157.944 92,158.5C 91.51,159.793 91.3433,161.127 91.5,162.5C 90.7564,165.95 92.0897,167.616 95.5,167.5C 97.2327,168.008 97.566,168.841 96.5,170C 94.8659,170.494 93.1992,170.66 91.5,170.5C 87.1667,170.5 82.8333,170.5 78.5,170.5C 77.2502,170.423 76.4169,169.756 76,168.5C 75.5378,164.55 74.7045,160.716 73.5,157C 71.0639,156.07 68.7305,154.903 66.5,153.5C 62.5931,155.038 58.7598,156.704 55,158.5C 49.1858,152.861 45.5191,146.194 44,138.5C 47.3381,135.992 50.5048,133.325 53.5,130.5C 52.9258,127.823 52.2592,125.157 51.5,122.5C 47.653,120.484 44.653,117.651 42.5,114C 45.2396,108.521 48.2396,103.187 51.5,98C 56.2126,98.0918 60.7126,99.2584 65,101.5C 66.9157,99.7905 69.0824,98.4572 71.5,97.5C 72.9049,93.2652 73.9049,88.9319 74.5,84.5C 81.5,83.1667 88.5,83.1667 95.5,84.5C 96.2863,88.5492 97.2863,92.5492 98.5,96.5C 99.4168,97.1272 100.417,97.4606 101.5,97.5 Z"/></g>
<g><path style="opacity:1" fill="#0798ff" d="M 147.5,111.5 C 148.338,111.842 148.672,112.508 148.5,113.5C 147.527,113.987 146.527,114.487 145.5,115C 142.673,119.988 139.006,124.155 134.5,127.5C 131.833,127.5 129.167,127.5 126.5,127.5C 127.32,125.86 128.153,124.193 129,122.5C 133.133,119.369 136.966,115.869 140.5,112C 142.81,111.503 145.143,111.337 147.5,111.5 Z"/></g>
<g><path style="opacity:1" fill="#28ccfb" d="M 147.5,111.5 C 145.143,111.337 142.81,111.503 140.5,112C 136.966,115.869 133.133,119.369 129,122.5C 128.153,124.193 127.32,125.86 126.5,127.5C 124.5,127.5 122.5,127.5 120.5,127.5C 120.5,125.5 120.5,123.5 120.5,121.5C 123.476,118.698 126.642,116.031 130,113.5C 130.464,112.906 130.631,112.239 130.5,111.5C 136.297,110.238 141.963,110.238 147.5,111.5 Z"/></g>
<g><path style="opacity:1" fill="#055bff" d="M 148.5,113.5 C 148.5,116.167 148.5,118.833 148.5,121.5C 146.146,124.851 143.146,127.518 139.5,129.5C 138.18,128.058 136.514,127.392 134.5,127.5C 139.006,124.155 142.673,119.988 145.5,115C 146.527,114.487 147.527,113.987 148.5,113.5 Z"/></g>
<g><path style="opacity:1" fill="#1cff14" d="M 96.5,116.5 C 91.2223,122.336 86.3889,128.67 82,135.5C 80.3853,136.386 78.8853,137.386 77.5,138.5C 71.5693,135.292 69.4026,130.292 71,123.5C 75.3755,113.365 82.8755,110.198 93.5,114C 94.9423,114.377 95.9423,115.21 96.5,116.5 Z"/></g>
<g><path style="opacity:1" fill="#011fff" d="M 148.5,121.5 C 148.5,124.833 148.5,128.167 148.5,131.5C 145.813,131.664 143.146,131.497 140.5,131C 139.944,130.617 139.611,130.117 139.5,129.5C 143.146,127.518 146.146,124.851 148.5,121.5 Z"/></g>
<g><path style="opacity:1" fill="#05fe5a" d="M 96.5,116.5 C 99.1639,118.484 100.831,121.151 101.5,124.5C 100.115,125.614 98.6147,126.614 97,127.5C 93.718,132.616 89.8847,137.282 85.5,141.5C 82.284,141.655 79.6174,140.655 77.5,138.5C 78.8853,137.386 80.3853,136.386 82,135.5C 86.3889,128.67 91.2223,122.336 96.5,116.5 Z"/></g>
<g><path style="opacity:1" fill="#0f98fe" d="M 130.5,128.5 C 129.17,130.829 127.836,133.163 126.5,135.5C 124.091,134.299 122.091,132.633 120.5,130.5C 123.337,128.598 126.671,127.931 130.5,128.5 Z"/></g>
<g><path style="opacity:1" fill="#03fe9a" d="M 101.5,124.5 C 101.308,135.025 95.9745,140.692 85.5,141.5C 89.8847,137.282 93.718,132.616 97,127.5C 98.6147,126.614 100.115,125.614 101.5,124.5 Z"/></g>
<g><path style="opacity:1" fill="#9cffff" d="M 177.5,129.5 C 173.671,134.405 169.671,139.072 165.5,143.5C 163.167,143.5 160.833,143.5 158.5,143.5C 157.358,128.992 163.691,124.326 177.5,129.5 Z"/></g>
<g><path style="opacity:1" fill="#4606ff" d="M 149.5,111.5 C 158.221,111.196 166.888,111.529 175.5,112.5C 176.192,113.025 176.692,113.692 177,114.5C 177.499,118.821 177.666,123.154 177.5,127.5C 171.824,127.334 166.157,127.501 160.5,128C 159.213,129.41 158.046,130.91 157,132.5C 156.5,139.826 156.334,147.159 156.5,154.5C 151.5,154.5 146.5,154.5 141.5,154.5C 141.5,147.5 141.5,140.5 141.5,133.5C 144.167,133.5 146.833,133.5 149.5,133.5C 149.5,126.167 149.5,118.833 149.5,111.5 Z"/></g>
<g><path style="opacity:1" fill="#0a3fff" d="M 130.5,128.5 C 133.97,127.875 136.804,128.875 139,131.5C 139.499,135.486 139.666,139.486 139.5,143.5C 135.629,143.815 131.962,143.482 128.5,142.5C 128.663,140.143 128.497,137.81 128,135.5C 127.31,136.738 126.81,136.738 126.5,135.5C 127.836,133.163 129.17,130.829 130.5,128.5 Z"/></g>
<g><path style="opacity:1" fill="#ea00fb" d="M 177.5,129.5 C 177.5,134.167 177.5,138.833 177.5,143.5C 173.5,143.5 169.5,143.5 165.5,143.5C 169.671,139.072 173.671,134.405 177.5,129.5 Z"/></g>
<g><path style="opacity:1" fill="#04c2ff" d="M 105.5,148.5 C 103.185,151.98 100.685,155.313 98,158.5C 96.3621,160.734 94.1955,162.067 91.5,162.5C 91.3433,161.127 91.51,159.793 92,158.5C 94.2365,157.944 96.2365,156.944 98,155.5C 98.2649,153.837 97.7649,152.337 96.5,151C 98.6017,148.865 101.102,147.365 104,146.5C 105.03,146.836 105.53,147.503 105.5,148.5 Z"/></g>
<g><path style="opacity:1" fill="#f500fa" d="M 172.5,144.5 C 169.887,150.113 165.887,154.446 160.5,157.5C 158.642,153.473 157.975,149.14 158.5,144.5C 163.167,144.5 167.833,144.5 172.5,144.5 Z"/></g>
<g><path style="opacity:1" fill="#ff00c9" d="M 172.5,144.5 C 174.415,144.216 176.081,144.549 177.5,145.5C 175.148,150.871 171.815,155.537 167.5,159.5C 165.473,159.662 163.473,159.495 161.5,159C 160.944,158.617 160.611,158.117 160.5,157.5C 165.887,154.446 169.887,150.113 172.5,144.5 Z"/></g>
<g><path style="opacity:1" fill="#fd2296" d="M 177.5,145.5 C 178.647,149.646 178.814,153.98 178,158.5C 174.606,159.456 171.106,159.789 167.5,159.5C 171.815,155.537 175.148,150.871 177.5,145.5 Z"/></g>
<g><path style="opacity:1" fill="#039aff" d="M 105.5,148.5 C 107.379,149.341 109.379,149.675 111.5,149.5C 107.405,154.154 102.905,158.487 98,162.5C 97.6339,164.452 96.8005,166.118 95.5,167.5C 92.0897,167.616 90.7564,165.95 91.5,162.5C 94.1955,162.067 96.3621,160.734 98,158.5C 100.685,155.313 103.185,151.98 105.5,148.5 Z"/></g>
<g><path style="opacity:1" fill="#f700f4" d="M 160.5,160.5 C 156.833,163.833 153.167,167.167 149.5,170.5C 149.5,165.833 149.5,161.167 149.5,156.5C 154.192,155.512 157.859,156.846 160.5,160.5 Z"/></g>
<g><path style="opacity:1" fill="#014bff" d="M 119.5,149.5 C 120.404,150.209 120.737,151.209 120.5,152.5C 115.583,156.575 110.75,160.908 106,165.5C 100.262,171.73 94.7617,178.064 89.5,184.5C 87.9731,184.573 86.9731,183.906 86.5,182.5C 87.9663,181.653 88.7996,180.32 89,178.5C 95.9638,173.015 102.131,166.848 107.5,160C 109.226,158.47 111.226,157.47 113.5,157C 115.334,154.337 117.334,151.837 119.5,149.5 Z"/></g>
<g><path style="opacity:1" fill="#056bff" d="M 119.5,149.5 C 117.334,151.837 115.334,154.337 113.5,157C 111.226,157.47 109.226,158.47 107.5,160C 102.131,166.848 95.9638,173.015 89,178.5C 88.7996,180.32 87.9663,181.653 86.5,182.5C 85.0937,182.027 84.427,181.027 84.5,179.5C 87.2394,176.767 89.5727,173.767 91.5,170.5C 93.1992,170.66 94.8659,170.494 96.5,170C 97.566,168.841 97.2327,168.008 95.5,167.5C 96.8005,166.118 97.6339,164.452 98,162.5C 102.905,158.487 107.405,154.154 111.5,149.5C 111.418,147.748 112.251,146.748 114,146.5C 116.085,147.124 117.918,148.124 119.5,149.5 Z"/></g>
<g><path style="opacity:1" fill="#ff0083" d="M 166.5,161.5 C 169.167,161.5 171.833,161.5 174.5,161.5C 169.825,166.209 165.158,170.876 160.5,175.5C 158.833,175.5 157.167,175.5 155.5,175.5C 158.404,170.259 162.071,165.593 166.5,161.5 Z"/></g>
<g><path style="opacity:1" fill="#ff00c4" d="M 160.5,160.5 C 162.379,161.341 164.379,161.675 166.5,161.5C 162.071,165.593 158.404,170.259 155.5,175.5C 153.5,175.5 151.5,175.5 149.5,175.5C 149.5,173.833 149.5,172.167 149.5,170.5C 153.167,167.167 156.833,163.833 160.5,160.5 Z"/></g>
<g><path style="opacity:1" fill="#ff0a4f" d="M 174.5,161.5 C 175.833,161.5 177.167,161.5 178.5,161.5C 178.834,166.326 177.834,170.826 175.5,175C 170.511,175.499 165.511,175.666 160.5,175.5C 165.158,170.876 169.825,166.209 174.5,161.5 Z"/></g>
<g><path style="opacity:1" fill="#0c9aff" d="M 78.5,170.5 C 82.8333,170.5 87.1667,170.5 91.5,170.5C 89.5727,173.767 87.2394,176.767 84.5,179.5C 82.5333,176.523 80.5333,173.523 78.5,170.5 Z"/></g>
<g><path style="opacity:1" fill="#c5fffe" d="M 146.5,156.5 C 148.456,162.412 149.123,168.745 148.5,175.5C 141.833,175.5 135.167,175.5 128.5,175.5C 133.818,168.54 139.818,162.207 146.5,156.5 Z"/></g>
<g><path style="opacity:1" fill="#8507f8" d="M 146.5,156.5 C 139.818,162.207 133.818,168.54 128.5,175.5C 125.624,175.792 122.957,175.792 120.5,175.5C 121.728,173.99 121.728,172.49 120.5,171C 122.333,170.5 123.5,169.333 124,167.5C 124.333,168.5 124.667,169.5 125,170.5C 127.481,167.379 129.981,164.379 132.5,161.5C 133.873,161.657 135.207,161.49 136.5,161C 138.757,157.123 142.09,155.623 146.5,156.5 Z"/></g>
<g><path style="opacity:1" fill="#1e11fe" d="M 132.5,161.5 C 129.981,164.379 127.481,167.379 125,170.5C 124.667,169.5 124.333,168.5 124,167.5C 123.5,169.333 122.333,170.5 120.5,171C 121.728,172.49 121.728,173.99 120.5,175.5C 118.419,176.623 116.253,177.623 114,178.5C 112.28,177.277 110.447,176.277 108.5,175.5C 106.361,176.977 104.028,177.977 101.5,178.5C 101.294,182.898 101.627,187.232 102.5,191.5C 97.9726,189.405 93.6392,187.072 89.5,184.5C 94.7617,178.064 100.262,171.73 106,165.5C 110.75,160.908 115.583,156.575 120.5,152.5C 119.045,154.31 119.212,155.977 121,157.5C 122.031,153.106 123.864,149.106 126.5,145.5C 130.735,144.564 135.069,144.231 139.5,144.5C 142.198,157.305 137.365,161.972 125,158.5C 124.333,160.833 124.333,163.167 125,165.5C 125.49,164.207 125.657,162.873 125.5,161.5C 127.833,161.5 130.167,161.5 132.5,161.5 Z"/></g>
</svg>
