<?xml version="1.0" encoding="UTF-8"?>
<!DOCTYPE svg PUBLIC "-//W3C//DTD SVG 1.1//EN" "http://www.w3.org/Graphics/SVG/1.1/DTD/svg11.dtd">
<svg xmlns="http://www.w3.org/2000/svg" version="1.1" width="256px" height="256px" style="shape-rendering:geometricPrecision; text-rendering:geometricPrecision; image-rendering:optimizeQuality; fill-rule:evenodd; clip-rule:evenodd" xmlns:xlink="http://www.w3.org/1999/xlink">
<g><path style="opacity:0.873" fill="#fefffe" d="M 50.5,20.5 C 101.834,20.3333 153.168,20.5 204.5,21C 209.847,23.0154 213.014,26.8488 214,32.5C 214.667,95.8333 214.667,159.167 214,222.5C 213.492,227.012 211.325,230.512 207.5,233C 154.892,234.653 102.225,234.987 49.5,234C 47.04,232.542 44.8734,230.709 43,228.5C 41.3405,162.249 41.0072,95.9154 42,29.5C 43.6878,25.3148 46.5212,22.3148 50.5,20.5 Z"/></g>
<g><path style="opacity:1" fill="#ff2b00" d="M 64.5,33.5 C 59.5393,34.9583 55.5393,37.7916 52.5,42C 50.9221,43.0945 49.2554,43.9278 47.5,44.5C 44.2709,30.0629 49.9376,24.0629 64.5,26.5C 64.5,28.8333 64.5,31.1667 64.5,33.5 Z"/></g>
<g><path style="opacity:1" fill="#ff7300" d="M 87.5,26.5 C 87.5858,27.4959 87.2524,28.3292 86.5,29C 81.2667,32.1154 75.9334,34.9488 70.5,37.5C 70.5,33.8333 70.5,30.1667 70.5,26.5C 76.1667,26.5 81.8333,26.5 87.5,26.5 Z"/></g>
<g><path style="opacity:1" fill="#ffd200" d="M 104.5,26.5 C 106.833,26.5 109.167,26.5 111.5,26.5C 109.496,28.1903 107.163,29.5236 104.5,30.5C 99.3241,36.6673 92.9908,41.334 85.5,44.5C 84.3589,46.8079 82.6922,48.6413 80.5,50C 76.6536,51.0859 73.3203,52.9193 70.5,55.5C 70.5,54.1667 70.5,52.8333 70.5,51.5C 71.8734,51.6567 73.2068,51.49 74.5,51C 76.8418,49.2719 79.1751,47.6052 81.5,46C 83.0368,44.8904 83.7035,43.3904 83.5,41.5C 84.552,41.6495 85.552,41.4828 86.5,41C 92.4129,35.9364 98.4129,31.1031 104.5,26.5 Z"/></g>
<g><path style="opacity:1" fill="#f6fe00" d="M 117.5,26.5 C 119.833,26.5 122.167,26.5 124.5,26.5C 106.417,39.8589 88.4174,53.1922 70.5,66.5C 70.5,63.8333 70.5,61.1667 70.5,58.5C 73.9069,57.6416 77.2402,56.475 80.5,55C 92.8146,45.5055 105.148,36.0055 117.5,26.5 Z"/></g>
<g><path style="opacity:1" fill="#ff9c00" d="M 87.5,26.5 C 90.5,26.5 93.5,26.5 96.5,26.5C 89.9825,30.9465 83.9825,36.1132 78.5,42C 75.7627,43.0764 73.096,44.243 70.5,45.5C 70.5,42.8333 70.5,40.1667 70.5,37.5C 75.9334,34.9488 81.2667,32.1154 86.5,29C 87.2524,28.3292 87.5858,27.4959 87.5,26.5 Z"/></g>
<g><path style="opacity:1" fill="#ffec00" d="M 111.5,26.5 C 113.5,26.5 115.5,26.5 117.5,26.5C 105.148,36.0055 92.8146,45.5055 80.5,55C 77.2402,56.475 73.9069,57.6416 70.5,58.5C 70.5,57.5 70.5,56.5 70.5,55.5C 73.3203,52.9193 76.6536,51.0859 80.5,50C 82.6922,48.6413 84.3589,46.8079 85.5,44.5C 92.9908,41.334 99.3241,36.6673 104.5,30.5C 107.163,29.5236 109.496,28.1903 111.5,26.5 Z"/></g>
<g><path style="opacity:1" fill="#ffb700" d="M 96.5,26.5 C 99.1667,26.5 101.833,26.5 104.5,26.5C 98.4129,31.1031 92.4129,35.9364 86.5,41C 85.552,41.4828 84.552,41.6495 83.5,41.5C 83.7035,43.3904 83.0368,44.8904 81.5,46C 79.1751,47.6052 76.8418,49.2719 74.5,51C 73.2068,51.49 71.8734,51.6567 70.5,51.5C 70.5,49.5 70.5,47.5 70.5,45.5C 73.096,44.243 75.7627,43.0764 78.5,42C 83.9825,36.1132 89.9825,30.9465 96.5,26.5 Z"/></g>
<g><path style="opacity:1" fill="#ff5d00" d="M 64.5,33.5 C 64.5,36.5 64.5,39.5 64.5,42.5C 59.3401,46.2624 53.6734,49.2624 47.5,51.5C 47.5,49.1667 47.5,46.8333 47.5,44.5C 49.2554,43.9278 50.9221,43.0945 52.5,42C 55.5393,37.7916 59.5393,34.9583 64.5,33.5 Z"/></g>
<g><path style="opacity:1" fill="#c4ff00" d="M 130.5,26.5 C 133.167,26.5 135.833,26.5 138.5,26.5C 130.685,31.9135 123.018,37.5802 115.5,43.5C 114.205,44.0983 112.872,44.5983 111.5,45C 102.729,52.4038 93.396,59.0705 83.5,65C 80.1866,69.4687 75.8532,72.6353 70.5,74.5C 70.5,73.8333 70.5,73.1667 70.5,72.5C 78.7892,64.3706 87.7892,57.2039 97.5,51C 99.7885,50.1779 102.122,49.5112 104.5,49C 111.538,43.8215 118.538,38.6548 125.5,33.5C 126.45,30.58 128.116,28.2467 130.5,26.5 Z"/></g>
<g><path style="opacity:1" fill="#acff00" d="M 138.5,26.5 C 140.833,26.5 143.167,26.5 145.5,26.5C 141.809,30.0155 137.475,32.5155 132.5,34C 126.53,38.6356 120.863,43.6356 115.5,49C 100.653,60.0086 85.6532,70.8419 70.5,81.5C 70.5,79.1667 70.5,76.8333 70.5,74.5C 75.8532,72.6353 80.1866,69.4687 83.5,65C 93.396,59.0705 102.729,52.4038 111.5,45C 112.872,44.5983 114.205,44.0983 115.5,43.5C 123.018,37.5802 130.685,31.9135 138.5,26.5 Z"/></g>
<g><path style="opacity:1" fill="#5fff00" d="M 153.5,26.5 C 156.167,26.5 158.833,26.5 161.5,26.5C 156.346,31.0699 151.68,36.0699 147.5,41.5C 138.73,48.0912 129.73,54.2578 120.5,60C 117.009,61.3703 113.675,62.8703 110.5,64.5C 110.822,66.7224 110.155,68.5557 108.5,70C 95.929,79.6637 83.2623,89.1637 70.5,98.5C 70.5,94.8333 70.5,91.1667 70.5,87.5C 77.4008,83.4389 83.9008,78.7722 90,73.5C 94.4786,72.1976 98.6453,70.1976 102.5,67.5C 109.986,61.8462 117.319,56.0129 124.5,50C 126.005,47.3304 128.005,45.1637 130.5,43.5C 137.23,38.4752 144.23,33.9752 151.5,30C 152.305,28.8873 152.972,27.7206 153.5,26.5 Z"/></g>
<g><path style="opacity:1" fill="#ff9800" d="M 64.5,42.5 C 64.5,45.5 64.5,48.5 64.5,51.5C 62.4339,53.0913 60.1006,54.4246 57.5,55.5C 56.7379,56.6283 56.0712,57.7949 55.5,59C 53.1141,61.3174 50.4475,63.1507 47.5,64.5C 47.5,60.1667 47.5,55.8333 47.5,51.5C 53.6734,49.2624 59.3401,46.2624 64.5,42.5 Z"/></g>
<g><path style="opacity:1" fill="#00ffda" d="M 207.5,51.5 C 207.5,53.1667 207.5,54.8333 207.5,56.5C 199.687,62.415 191.687,68.2484 183.5,74C 182.167,74.3333 180.833,74.6667 179.5,75C 174.076,79.6178 168.409,83.9511 162.5,88C 157.108,89.891 153.108,93.391 150.5,98.5C 147.315,99.9737 144.649,101.974 142.5,104.5C 141.167,104.5 139.833,104.5 138.5,104.5C 141.065,103.093 142.731,100.926 143.5,98C 165.299,83.1883 186.632,67.6883 207.5,51.5 Z"/></g>
<g><path style="opacity:1" fill="#dcff00" d="M 124.5,26.5 C 126.5,26.5 128.5,26.5 130.5,26.5C 128.116,28.2467 126.45,30.58 125.5,33.5C 118.538,38.6548 111.538,43.8215 104.5,49C 102.122,49.5112 99.7885,50.1779 97.5,51C 87.7892,57.2039 78.7892,64.3706 70.5,72.5C 70.5,70.5 70.5,68.5 70.5,66.5C 88.4174,53.1922 106.417,39.8589 124.5,26.5 Z"/></g>
<g><path style="opacity:1" fill="#86ff00" d="M 145.5,26.5 C 148.167,26.5 150.833,26.5 153.5,26.5C 152.972,27.7206 152.305,28.8873 151.5,30C 144.23,33.9752 137.23,38.4752 130.5,43.5C 128.005,45.1637 126.005,47.3304 124.5,50C 117.319,56.0129 109.986,61.8462 102.5,67.5C 98.6453,70.1976 94.4786,72.1976 90,73.5C 83.9008,78.7722 77.4008,83.4389 70.5,87.5C 70.5,85.5 70.5,83.5 70.5,81.5C 85.6532,70.8419 100.653,60.0086 115.5,49C 120.863,43.6356 126.53,38.6356 132.5,34C 137.475,32.5155 141.809,30.0155 145.5,26.5 Z"/></g>
<g><path style="opacity:1" fill="#ffce00" d="M 64.5,51.5 C 64.5,55.5 64.5,59.5 64.5,63.5C 61.4669,65.016 58.8003,67.016 56.5,69.5C 53.089,70.09 50.089,71.4233 47.5,73.5C 47.5,70.5 47.5,67.5 47.5,64.5C 50.4475,63.1507 53.1141,61.3174 55.5,59C 56.0712,57.7949 56.7379,56.6283 57.5,55.5C 60.1006,54.4246 62.4339,53.0913 64.5,51.5 Z"/></g>
<g><path style="opacity:1" fill="#f8f900" d="M 64.5,63.5 C 64.5,66.1667 64.5,68.8333 64.5,71.5C 58.7547,75.5494 53.088,79.5494 47.5,83.5C 47.5,80.1667 47.5,76.8333 47.5,73.5C 50.089,71.4233 53.089,70.09 56.5,69.5C 58.8003,67.016 61.4669,65.016 64.5,63.5 Z"/></g>
<g><path style="opacity:1" fill="#01ffc4" d="M 207.5,47.5 C 207.5,48.8333 207.5,50.1667 207.5,51.5C 186.632,67.6883 165.299,83.1883 143.5,98C 142.731,100.926 141.065,103.093 138.5,104.5C 136.167,104.5 133.833,104.5 131.5,104.5C 134.216,101.748 136.882,98.9151 139.5,96C 144.609,93.0538 149.275,89.5538 153.5,85.5C 165.511,79.2978 176.177,71.4644 185.5,62C 192.686,56.9096 200.019,52.0763 207.5,47.5 Z"/></g>
<g><path style="opacity:1" fill="#03fef0" d="M 207.5,56.5 C 207.5,58.5 207.5,60.5 207.5,62.5C 202.19,65.1562 197.19,68.3228 192.5,72C 177.352,83.4793 162.352,94.9793 147.5,106.5C 145.597,106.204 143.93,105.537 142.5,104.5C 144.649,101.974 147.315,99.9737 150.5,98.5C 153.108,93.391 157.108,89.891 162.5,88C 168.409,83.9511 174.076,79.6178 179.5,75C 180.833,74.6667 182.167,74.3333 183.5,74C 191.687,68.2484 199.687,62.415 207.5,56.5 Z"/></g>
<g><path style="opacity:1" fill="#02fea8" d="M 207.5,39.5 C 207.5,42.1667 207.5,44.8333 207.5,47.5C 200.019,52.0763 192.686,56.9096 185.5,62C 176.177,71.4644 165.511,79.2978 153.5,85.5C 149.275,89.5538 144.609,93.0538 139.5,96C 136.882,98.9151 134.216,101.748 131.5,104.5C 126.699,104.35 122.033,105.016 117.5,106.5C 118.028,105.279 118.695,104.113 119.5,103C 129.161,97.8333 138.161,91.6666 146.5,84.5C 150.754,84.0803 153.754,81.9136 155.5,78C 158.141,77.6772 160.475,76.6772 162.5,75C 163.207,72.4572 164.54,70.2905 166.5,68.5C 181.008,59.9869 194.675,50.3202 207.5,39.5 Z"/></g>
<g><path style="opacity:1" fill="#01edff" d="M 207.5,62.5 C 207.5,63.8333 207.5,65.1667 207.5,66.5C 204.96,69.6068 201.627,71.4401 197.5,72C 194.675,75.9042 191.009,78.5709 186.5,80C 185.167,81.6667 183.833,83.3333 182.5,85C 172.291,92.7483 161.958,100.248 151.5,107.5C 150.041,107.567 148.708,107.234 147.5,106.5C 162.352,94.9793 177.352,83.4793 192.5,72C 197.19,68.3228 202.19,65.1562 207.5,62.5 Z"/></g>
<g><path style="opacity:1" fill="#d5ff00" d="M 64.5,71.5 C 64.5,73.8333 64.5,76.1667 64.5,78.5C 59.3972,83.2252 53.7305,87.2252 47.5,90.5C 47.5,88.1667 47.5,85.8333 47.5,83.5C 53.088,79.5494 58.7547,75.5494 64.5,71.5 Z"/></g>
<g><path style="opacity:1" fill="#01d2ff" d="M 207.5,66.5 C 207.5,68.1667 207.5,69.8333 207.5,71.5C 203.546,74.6132 199.212,77.1132 194.5,79C 182.007,89.7825 169.007,99.9492 155.5,109.5C 153.847,109.34 152.514,108.674 151.5,107.5C 161.958,100.248 172.291,92.7483 182.5,85C 183.833,83.3333 185.167,81.6667 186.5,80C 191.009,78.5709 194.675,75.9042 197.5,72C 201.627,71.4401 204.96,69.6068 207.5,66.5 Z"/></g>
<g><path style="opacity:1" fill="#00fe5c" d="M 202.5,32.5 C 202.586,33.4959 202.252,34.3292 201.5,35C 192.312,40.9089 183.979,47.7422 176.5,55.5C 168.371,59.8015 160.371,64.3015 152.5,69C 149.822,72.3642 146.489,75.0308 142.5,77C 141.415,79.172 140.081,81.172 138.5,83C 131.766,86.3583 125.433,90.1917 119.5,94.5C 119.751,92.8297 120.418,91.3297 121.5,90C 127.644,86.0198 133.644,81.8531 139.5,77.5C 140.04,76.2519 140.707,75.0852 141.5,74C 151.352,67.4865 161.352,61.1532 171.5,55C 172.293,53.9148 172.96,52.7481 173.5,51.5C 183.768,45.8644 193.434,39.531 202.5,32.5 Z"/></g>
<g><path style="opacity:1" fill="#1aff10" d="M 161.5,26.5 C 175.344,26.171 189.01,26.5043 202.5,27.5C 194.269,34.224 185.602,40.3907 176.5,46C 171.886,50.3217 167.219,54.655 162.5,59C 153.82,62.5675 145.487,66.9008 137.5,72C 128.777,78.7223 119.777,85.0556 110.5,91C 107.379,93.5579 104.713,96.5579 102.5,100C 99.2393,102.796 95.5727,104.796 91.5,106C 89.3749,108.711 86.7083,110.711 83.5,112C 82.13,113.441 81.13,115.108 80.5,117C 77.0057,118.689 73.6723,120.522 70.5,122.5C 70.5,114.5 70.5,106.5 70.5,98.5C 83.2623,89.1637 95.929,79.6637 108.5,70C 110.155,68.5557 110.822,66.7224 110.5,64.5C 113.675,62.8703 117.009,61.3703 120.5,60C 129.73,54.2578 138.73,48.0912 147.5,41.5C 151.68,36.0699 156.346,31.0699 161.5,26.5 Z"/></g>
<g><path style="opacity:1" fill="#028bff" d="M 207.5,79.5 C 207.5,81.5 207.5,83.5 207.5,85.5C 203.97,87.9632 200.303,90.2965 196.5,92.5C 186.754,100.923 176.754,108.923 166.5,116.5C 164.596,116.262 163.262,115.262 162.5,113.5C 173.483,107.697 182.817,100.031 190.5,90.5C 191.689,89.5713 193.022,89.238 194.5,89.5C 197.581,84.8426 201.914,81.5093 207.5,79.5 Z"/></g>
<g><path style="opacity:1" fill="#03b2ff" d="M 207.5,71.5 C 207.5,74.1667 207.5,76.8333 207.5,79.5C 201.914,81.5093 197.581,84.8426 194.5,89.5C 193.022,89.238 191.689,89.5713 190.5,90.5C 182.817,100.031 173.483,107.697 162.5,113.5C 159.996,112.416 157.663,111.083 155.5,109.5C 169.007,99.9492 182.007,89.7825 194.5,79C 199.212,77.1132 203.546,74.6132 207.5,71.5 Z"/></g>
<g><path style="opacity:1" fill="#b2ff00" d="M 64.5,78.5 C 64.5,81.1667 64.5,83.8333 64.5,86.5C 58.8528,89.8308 53.1862,93.1641 47.5,96.5C 47.5,94.5 47.5,92.5 47.5,90.5C 53.7305,87.2252 59.3972,83.2252 64.5,78.5 Z"/></g>
<g><path style="opacity:1" fill="#016eff" d="M 207.5,85.5 C 207.5,87.5 207.5,89.5 207.5,91.5C 198.53,97.457 189.53,103.457 180.5,109.5C 177.676,113.981 173.676,116.981 168.5,118.5C 167.5,118.167 166.833,117.5 166.5,116.5C 176.754,108.923 186.754,100.923 196.5,92.5C 200.303,90.2965 203.97,87.9632 207.5,85.5 Z"/></g>
<g><path style="opacity:1" fill="#00fe71" d="M 206.5,30.5 C 207.461,32.2646 207.795,34.2646 207.5,36.5C 201.416,41.5564 194.749,45.8898 187.5,49.5C 177.499,57.1138 167.833,64.9471 158.5,73C 156.5,73.3333 154.5,73.6667 152.5,74C 147.985,78.1755 143.152,82.0088 138,85.5C 137.691,86.7659 137.191,87.9326 136.5,89C 133.539,90.2647 130.539,91.4314 127.5,92.5C 117.981,100.418 107.981,107.585 97.5,114C 96.373,115.753 95.373,117.587 94.5,119.5C 86.5438,125.022 78.5438,130.355 70.5,135.5C 70.5,134.5 70.5,133.5 70.5,132.5C 77.5539,127.122 84.8872,121.955 92.5,117C 93.7717,115.693 94.7717,114.193 95.5,112.5C 97.5,111.833 99.5,111.167 101.5,110.5C 104.368,108.248 107.368,106.082 110.5,104C 114.38,101.621 117.38,98.4544 119.5,94.5C 125.433,90.1917 131.766,86.3583 138.5,83C 140.081,81.172 141.415,79.172 142.5,77C 146.489,75.0308 149.822,72.3642 152.5,69C 160.371,64.3015 168.371,59.8015 176.5,55.5C 183.979,47.7422 192.312,40.9089 201.5,35C 202.252,34.3292 202.586,33.4959 202.5,32.5C 204.38,32.7709 205.713,32.1042 206.5,30.5 Z"/></g>
<g><path style="opacity:1" fill="#02fe88" d="M 207.5,36.5 C 207.5,37.5 207.5,38.5 207.5,39.5C 194.675,50.3202 181.008,59.9869 166.5,68.5C 164.54,70.2905 163.207,72.4572 162.5,75C 160.475,76.6772 158.141,77.6772 155.5,78C 153.754,81.9136 150.754,84.0803 146.5,84.5C 138.161,91.6666 129.161,97.8333 119.5,103C 118.695,104.113 118.028,105.279 117.5,106.5C 107.375,111.077 98.3749,117.411 90.5,125.5C 89.4647,127.128 89.4647,128.795 90.5,130.5C 83.5275,134.818 76.8608,139.485 70.5,144.5C 70.5,141.5 70.5,138.5 70.5,135.5C 78.5438,130.355 86.5438,125.022 94.5,119.5C 95.373,117.587 96.373,115.753 97.5,114C 107.981,107.585 117.981,100.418 127.5,92.5C 130.539,91.4314 133.539,90.2647 136.5,89C 137.191,87.9326 137.691,86.7659 138,85.5C 143.152,82.0088 147.985,78.1755 152.5,74C 154.5,73.6667 156.5,73.3333 158.5,73C 167.833,64.9471 177.499,57.1138 187.5,49.5C 194.749,45.8898 201.416,41.5564 207.5,36.5 Z"/></g>
<g><path style="opacity:0.891" fill="#fefefe" d="M 131.5,104.5 C 133.833,104.5 136.167,104.5 138.5,104.5C 139.833,104.5 141.167,104.5 142.5,104.5C 143.93,105.537 145.597,106.204 147.5,106.5C 148.708,107.234 150.041,107.567 151.5,107.5C 152.514,108.674 153.847,109.34 155.5,109.5C 157.663,111.083 159.996,112.416 162.5,113.5C 163.262,115.262 164.596,116.262 166.5,116.5C 166.833,117.5 167.5,118.167 168.5,118.5C 169.793,120.296 171.293,121.963 173,123.5C 176.5,119.333 180,115.167 183.5,111C 185.265,110.36 186.932,110.527 188.5,111.5C 188.392,113.783 187.559,115.783 186,117.5C 183.354,120.98 180.521,124.314 177.5,127.5C 180.852,131.571 184.185,135.571 187.5,139.5C 188.728,141.01 188.728,142.51 187.5,144C 185.16,144.748 183.16,144.248 181.5,142.5C 178.882,138.709 176.049,135.043 173,131.5C 163.749,141.876 152.249,148.21 138.5,150.5C 136.833,150.5 135.167,150.5 133.5,150.5C 130.5,150.5 127.5,150.5 124.5,150.5C 123.432,149.566 122.099,149.232 120.5,149.5C 119.791,148.596 118.791,148.263 117.5,148.5C 116.07,147.463 114.403,146.796 112.5,146.5C 111.71,145.599 110.71,144.932 109.5,144.5C 108.035,143.263 106.368,142.263 104.5,141.5C 103.71,140.599 102.71,139.932 101.5,139.5C 101.027,138.094 100.027,137.427 98.5,137.5C 97.8333,136.167 96.8333,135.167 95.5,134.5C 94.4154,132.413 92.7488,131.08 90.5,130.5C 89.4647,128.795 89.4647,127.128 90.5,125.5C 98.3749,117.411 107.375,111.077 117.5,106.5C 122.033,105.016 126.699,104.35 131.5,104.5 Z"/></g>
<g><path style="opacity:1" fill="#00fe44" d="M 202.5,27.5 C 204.404,27.7376 205.738,28.7376 206.5,30.5C 205.713,32.1042 204.38,32.7709 202.5,32.5C 193.434,39.531 183.768,45.8644 173.5,51.5C 172.96,52.7481 172.293,53.9148 171.5,55C 161.352,61.1532 151.352,67.4865 141.5,74C 140.707,75.0852 140.04,76.2519 139.5,77.5C 133.644,81.8531 127.644,86.0198 121.5,90C 120.418,91.3297 119.751,92.8297 119.5,94.5C 118.448,94.3505 117.448,94.5172 116.5,95C 109.527,99.3303 102.527,103.664 95.5,108C 91.7829,111.385 87.7829,114.385 83.5,117C 80.2926,122.037 75.9593,125.87 70.5,128.5C 70.5,126.5 70.5,124.5 70.5,122.5C 73.6723,120.522 77.0057,118.689 80.5,117C 81.13,115.108 82.13,113.441 83.5,112C 86.7083,110.711 89.3749,108.711 91.5,106C 95.5727,104.796 99.2393,102.796 102.5,100C 104.713,96.5579 107.379,93.5579 110.5,91C 119.777,85.0556 128.777,78.7223 137.5,72C 145.487,66.9008 153.82,62.5675 162.5,59C 167.219,54.655 171.886,50.3217 176.5,46C 185.602,40.3907 194.269,34.224 202.5,27.5 Z"/></g>
<g><path style="opacity:1" fill="#61ff00" d="M 64.5,86.5 C 64.5,93.1667 64.5,99.8333 64.5,106.5C 60.1373,108.173 56.8039,111.006 54.5,115C 52.3907,116.646 50.0573,117.812 47.5,118.5C 47.5,111.167 47.5,103.833 47.5,96.5C 53.1862,93.1641 58.8528,89.8308 64.5,86.5 Z"/></g>
<g><path style="opacity:1" fill="#00fe5b" d="M 119.5,94.5 C 117.38,98.4544 114.38,101.621 110.5,104C 107.368,106.082 104.368,108.248 101.5,110.5C 99.5,111.167 97.5,111.833 95.5,112.5C 94.7717,114.193 93.7717,115.693 92.5,117C 84.8872,121.955 77.5539,127.122 70.5,132.5C 70.5,131.167 70.5,129.833 70.5,128.5C 75.9593,125.87 80.2926,122.037 83.5,117C 87.7829,114.385 91.7829,111.385 95.5,108C 102.527,103.664 109.527,99.3303 116.5,95C 117.448,94.5172 118.448,94.3505 119.5,94.5 Z"/></g>
<g><path style="opacity:1" fill="#0655ff" d="M 207.5,91.5 C 207.5,93.5 207.5,95.5 207.5,97.5C 199.322,99.8356 192.988,104.502 188.5,111.5C 186.932,110.527 185.265,110.36 183.5,111C 180,115.167 176.5,119.333 173,123.5C 171.293,121.963 169.793,120.296 168.5,118.5C 173.676,116.981 177.676,113.981 180.5,109.5C 189.53,103.457 198.53,97.457 207.5,91.5 Z"/></g>
<g><path style="opacity:1" fill="#10fe1f" d="M 64.5,106.5 C 64.5,115.833 64.5,125.167 64.5,134.5C 58.9522,138.105 53.2856,141.438 47.5,144.5C 47.5,135.833 47.5,127.167 47.5,118.5C 50.0573,117.812 52.3907,116.646 54.5,115C 56.8039,111.006 60.1373,108.173 64.5,106.5 Z"/></g>
<g><path style="opacity:1" fill="#1a11ff" d="M 207.5,97.5 C 207.5,106.5 207.5,115.5 207.5,124.5C 204.815,125.984 202.148,127.317 199.5,128.5C 199.5,129.833 199.5,131.167 199.5,132.5C 196.466,134.329 193.132,135.829 189.5,137C 188.619,137.708 187.953,138.542 187.5,139.5C 184.185,135.571 180.852,131.571 177.5,127.5C 180.521,124.314 183.354,120.98 186,117.5C 187.559,115.783 188.392,113.783 188.5,111.5C 192.988,104.502 199.322,99.8356 207.5,97.5 Z"/></g>
<g><path style="opacity:1" fill="#03ffd2" d="M 132.5,110.5 C 132.586,111.496 132.252,112.329 131.5,113C 127.889,114.628 124.889,116.962 122.5,120C 120.754,120.471 119.087,121.138 117.5,122C 112.973,125.755 108.306,129.255 103.5,132.5C 101.122,131.308 99.1217,129.641 97.5,127.5C 106.931,117.285 118.598,111.618 132.5,110.5 Z"/></g>
<g><path style="opacity:1" fill="#00d4ff" d="M 145.5,112.5 C 146.492,112.328 147.158,112.662 147.5,113.5C 136.437,122.169 125.437,130.836 114.5,139.5C 112.847,139.34 111.514,138.674 110.5,137.5C 118.425,132.243 126.425,127.077 134.5,122C 138.277,118.927 141.944,115.761 145.5,112.5 Z"/></g>
<g><path style="opacity:1" fill="#01fef4" d="M 132.5,110.5 C 135.713,110.19 138.713,110.523 141.5,111.5C 136.174,113.328 131.841,116.495 128.5,121C 121.069,125.274 114.069,130.107 107.5,135.5C 105.77,134.974 104.436,133.974 103.5,132.5C 108.306,129.255 112.973,125.755 117.5,122C 119.087,121.138 120.754,120.471 122.5,120C 124.889,116.962 127.889,114.628 131.5,113C 132.252,112.329 132.586,111.496 132.5,110.5 Z"/></g>
<g><path style="opacity:1" fill="#01adff" d="M 152.5,115.5 C 154.027,115.427 155.027,116.094 155.5,117.5C 152.094,120.733 148.094,122.9 143.5,124C 142.929,125.205 142.262,126.372 141.5,127.5C 133.789,132.236 126.122,136.902 118.5,141.5C 117.508,141.672 116.842,141.338 116.5,140.5C 125.556,133.289 135.056,126.623 145,120.5C 148.489,120.156 150.989,118.49 152.5,115.5 Z"/></g>
<g><path style="opacity:1" fill="#02ecff" d="M 141.5,111.5 C 143.099,111.232 144.432,111.566 145.5,112.5C 141.944,115.761 138.277,118.927 134.5,122C 126.425,127.077 118.425,132.243 110.5,137.5C 109.29,137.068 108.29,136.401 107.5,135.5C 114.069,130.107 121.069,125.274 128.5,121C 131.841,116.495 136.174,113.328 141.5,111.5 Z"/></g>
<g><path style="opacity:1" fill="#0397ff" d="M 155.5,117.5 C 157.027,117.427 158.027,118.094 158.5,119.5C 151.646,125.767 144.312,131.6 136.5,137C 135.552,137.483 134.552,137.649 133.5,137.5C 133.649,138.552 133.483,139.552 133,140.5C 131.008,141.328 129.508,142.661 128.5,144.5C 124.838,144.277 121.505,143.277 118.5,141.5C 126.122,136.902 133.789,132.236 141.5,127.5C 142.262,126.372 142.929,125.205 143.5,124C 148.094,122.9 152.094,120.733 155.5,117.5 Z"/></g>
<g><path style="opacity:1" fill="#0274ff" d="M 158.5,119.5 C 160.777,120.449 162.777,121.782 164.5,123.5C 153.945,129.724 143.945,136.724 134.5,144.5C 132.5,144.5 130.5,144.5 128.5,144.5C 129.508,142.661 131.008,141.328 133,140.5C 133.483,139.552 133.649,138.552 133.5,137.5C 134.552,137.649 135.552,137.483 136.5,137C 144.312,131.6 151.646,125.767 158.5,119.5 Z"/></g>
<g><path style="opacity:1" fill="#01ffde" d="M 95.5,134.5 C 96.8333,135.167 97.8333,136.167 98.5,137.5C 93.1092,140.061 88.4425,143.561 84.5,148C 79.9813,151.346 75.3146,154.513 70.5,157.5C 70.5,155.167 70.5,152.833 70.5,150.5C 79.0098,145.414 87.3431,140.08 95.5,134.5 Z"/></g>
<g><path style="opacity:1" fill="#01c0ff" d="M 147.5,113.5 C 149.553,113.402 151.22,114.069 152.5,115.5C 150.989,118.49 148.489,120.156 145,120.5C 135.056,126.623 125.556,133.289 116.5,140.5C 115.508,140.672 114.842,140.338 114.5,139.5C 125.437,130.836 136.437,122.169 147.5,113.5 Z"/></g>
<g><path style="opacity:1" fill="#005bff" d="M 164.5,123.5 C 165.167,123.5 165.5,123.833 165.5,124.5C 162.247,125.868 159.247,127.702 156.5,130C 152.65,135.177 147.65,138.843 141.5,141C 140.695,142.113 140.028,143.279 139.5,144.5C 137.833,144.5 136.167,144.5 134.5,144.5C 143.945,136.724 153.945,129.724 164.5,123.5 Z"/></g>
<g><path style="opacity:1" fill="#0343ff" d="M 165.5,124.5 C 166.812,125.145 167.812,126.145 168.5,127.5C 160.58,136.074 150.914,141.741 139.5,144.5C 140.028,143.279 140.695,142.113 141.5,141C 147.65,138.843 152.65,135.177 156.5,130C 159.247,127.702 162.247,125.868 165.5,124.5 Z"/></g>
<g><path style="opacity:1" fill="#02febb" d="M 90.5,130.5 C 92.7488,131.08 94.4154,132.413 95.5,134.5C 87.3431,140.08 79.0098,145.414 70.5,150.5C 70.5,148.5 70.5,146.5 70.5,144.5C 76.8608,139.485 83.5275,134.818 90.5,130.5 Z"/></g>
<g><path style="opacity:1" fill="#01fef5" d="M 98.5,137.5 C 100.027,137.427 101.027,138.094 101.5,139.5C 91.4661,147.529 81.1328,155.195 70.5,162.5C 70.5,160.833 70.5,159.167 70.5,157.5C 75.3146,154.513 79.9813,151.346 84.5,148C 88.4425,143.561 93.1092,140.061 98.5,137.5 Z"/></g>
<g><path style="opacity:1" fill="#01edff" d="M 101.5,139.5 C 102.71,139.932 103.71,140.599 104.5,141.5C 100.272,145.512 95.6057,149.178 90.5,152.5C 88.6035,156.122 85.6035,158.288 81.5,159C 77.9574,162.049 74.2907,164.882 70.5,167.5C 70.5,165.833 70.5,164.167 70.5,162.5C 81.1328,155.195 91.4661,147.529 101.5,139.5 Z"/></g>
<g><path style="opacity:1" fill="#02fe6d" d="M 64.5,134.5 C 64.5,137.167 64.5,139.833 64.5,142.5C 61.3785,144.448 58.3785,146.615 55.5,149C 54.552,149.483 53.552,149.649 52.5,149.5C 52.4633,152.702 50.7967,154.368 47.5,154.5C 47.5,151.167 47.5,147.833 47.5,144.5C 53.2856,141.438 58.9522,138.105 64.5,134.5 Z"/></g>
<g><path style="opacity:1" fill="#02fe95" d="M 64.5,142.5 C 64.5,145.167 64.5,147.833 64.5,150.5C 58.9269,152.843 54.2602,156.343 50.5,161C 49.552,161.483 48.552,161.649 47.5,161.5C 47.5,159.167 47.5,156.833 47.5,154.5C 50.7967,154.368 52.4633,152.702 52.5,149.5C 53.552,149.649 54.552,149.483 55.5,149C 58.3785,146.615 61.3785,144.448 64.5,142.5 Z"/></g>
<g><path style="opacity:1" fill="#fa00fa" d="M 207.5,153.5 C 207.5,157.167 207.5,160.833 207.5,164.5C 204.622,165.37 201.955,166.703 199.5,168.5C 198.702,168.957 198.369,169.624 198.5,170.5C 196.634,171.014 194.8,171.68 193,172.5C 183.721,180.31 173.888,187.31 163.5,193.5C 159.66,196.181 156.66,199.681 154.5,204C 150.215,207.939 145.215,210.606 139.5,212C 137.592,214.96 134.925,216.96 131.5,218C 127.097,221.519 122.763,225.019 118.5,228.5C 115.5,228.5 112.5,228.5 109.5,228.5C 119.609,220.779 129.609,212.612 139.5,204C 143.523,201.657 147.523,199.324 151.5,197C 153.851,193.165 157.184,190.665 161.5,189.5C 161.238,188.022 161.571,186.689 162.5,185.5C 172.698,178.757 183.031,172.257 193.5,166C 197.196,162.964 200.196,159.297 202.5,155C 204.154,154.392 205.821,153.892 207.5,153.5 Z"/></g>
<g><path style="opacity:1" fill="#0356ff" d="M 124.5,150.5 C 127.5,150.5 130.5,150.5 133.5,150.5C 124.847,157.358 115.847,164.025 106.5,170.5C 104.394,171.897 102.727,173.73 101.5,176C 98.9109,177.197 96.2442,178.197 93.5,179C 90.4618,182.637 86.7951,185.47 82.5,187.5C 78.6985,191.498 74.6985,195.165 70.5,198.5C 70.5,195.5 70.5,192.5 70.5,189.5C 73.9001,188.1 76.2334,185.767 77.5,182.5C 81.4749,182.183 84.4749,180.349 86.5,177C 90.5,174.667 94.5,172.333 98.5,170C 100.15,166 103.15,163.667 107.5,163C 108.167,162 108.833,161 109.5,160C 114.651,157.004 119.651,153.838 124.5,150.5 Z"/></g>
<g><path style="opacity:1" fill="#01d3ff" d="M 104.5,141.5 C 106.368,142.263 108.035,143.263 109.5,144.5C 96.3293,153.051 83.3293,162.051 70.5,171.5C 70.5,170.167 70.5,168.833 70.5,167.5C 74.2907,164.882 77.9574,162.049 81.5,159C 85.6035,158.288 88.6035,156.122 90.5,152.5C 95.6057,149.178 100.272,145.512 104.5,141.5 Z"/></g>
<g><path style="opacity:1" fill="#01bbff" d="M 109.5,144.5 C 110.71,144.932 111.71,145.599 112.5,146.5C 107.581,150.972 101.914,154.472 95.5,157C 91.6114,160.136 87.9447,163.469 84.5,167C 83.552,167.483 82.552,167.649 81.5,167.5C 81.67,168.822 81.3366,169.989 80.5,171C 76.7606,172.272 73.4272,174.106 70.5,176.5C 70.5,174.833 70.5,173.167 70.5,171.5C 83.3293,162.051 96.3293,153.051 109.5,144.5 Z"/></g>
<g><path style="opacity:1" fill="#04fec7" d="M 64.5,150.5 C 64.5,153.5 64.5,156.5 64.5,159.5C 58.8201,163.186 53.1535,166.853 47.5,170.5C 47.5,167.5 47.5,164.5 47.5,161.5C 48.552,161.649 49.552,161.483 50.5,161C 54.2602,156.343 58.9269,152.843 64.5,150.5 Z"/></g>
<g><path style="opacity:1" fill="#0036ff" d="M 133.5,150.5 C 135.167,150.5 136.833,150.5 138.5,150.5C 130.282,157.727 121.949,164.894 113.5,172C 109.553,174.28 105.887,176.947 102.5,180C 95.9486,180.577 90.9486,183.577 87.5,189C 81.6669,192.68 76.0003,196.514 70.5,200.5C 70.5,199.833 70.5,199.167 70.5,198.5C 74.6985,195.165 78.6985,191.498 82.5,187.5C 86.7951,185.47 90.4618,182.637 93.5,179C 96.2442,178.197 98.9109,177.197 101.5,176C 102.727,173.73 104.394,171.897 106.5,170.5C 115.847,164.025 124.847,157.358 133.5,150.5 Z"/></g>
<g><path style="opacity:1" fill="#01a4ff" d="M 112.5,146.5 C 114.403,146.796 116.07,147.463 117.5,148.5C 100.78,157.995 85.1132,168.662 70.5,180.5C 70.5,179.167 70.5,177.833 70.5,176.5C 73.4272,174.106 76.7606,172.272 80.5,171C 81.3366,169.989 81.67,168.822 81.5,167.5C 82.552,167.649 83.552,167.483 84.5,167C 87.9447,163.469 91.6114,160.136 95.5,157C 101.914,154.472 107.581,150.972 112.5,146.5 Z"/></g>
<g><path style="opacity:1" fill="#01ffeb" d="M 64.5,159.5 C 64.5,161.5 64.5,163.5 64.5,165.5C 58.2848,168.714 52.6181,172.714 47.5,177.5C 47.5,175.167 47.5,172.833 47.5,170.5C 53.1535,166.853 58.8201,163.186 64.5,159.5 Z"/></g>
<g><path style="opacity:1" fill="#028cff" d="M 117.5,148.5 C 118.791,148.263 119.791,148.596 120.5,149.5C 115.184,152.18 110.517,155.847 106.5,160.5C 102.473,161.328 99.473,163.495 97.5,167C 88.6104,173.4 79.6104,179.567 70.5,185.5C 70.5,183.833 70.5,182.167 70.5,180.5C 85.1132,168.662 100.78,157.995 117.5,148.5 Z"/></g>
<g><path style="opacity:1" fill="#b000ff" d="M 207.5,141.5 C 207.5,143.5 207.5,145.5 207.5,147.5C 201.271,151.113 195.604,155.446 190.5,160.5C 178.612,168.254 167.945,177.088 158.5,187C 151.045,191.9 143.378,196.566 135.5,201C 132.055,204.531 128.389,207.864 124.5,211C 122.913,211.862 121.246,212.529 119.5,213C 112.243,218.448 104.909,223.615 97.5,228.5C 95.8333,228.5 94.1667,228.5 92.5,228.5C 103.242,219.459 113.576,209.959 123.5,200C 130.453,197.517 136.453,193.517 141.5,188C 162.757,173.085 183.757,157.752 204.5,142C 205.448,141.517 206.448,141.351 207.5,141.5 Z"/></g>
<g><path style="opacity:1" fill="#01f2fe" d="M 64.5,165.5 C 64.5,167.167 64.5,168.833 64.5,170.5C 59.4651,175.862 53.7984,180.529 47.5,184.5C 47.5,182.167 47.5,179.833 47.5,177.5C 52.6181,172.714 58.2848,168.714 64.5,165.5 Z"/></g>
<g><path style="opacity:1" fill="#2605ff" d="M 181.5,142.5 C 173.69,148.147 166.357,154.313 159.5,161C 158.167,161.333 156.833,161.667 155.5,162C 151.703,165.812 147.37,168.978 142.5,171.5C 139.285,175.427 135.951,179.26 132.5,183C 127.767,184.691 123.767,187.357 120.5,191C 119.552,191.483 118.552,191.649 117.5,191.5C 117.719,192.675 117.386,193.675 116.5,194.5C 104.771,202.053 93.438,210.22 82.5,219C 78.2297,220.768 74.2297,222.935 70.5,225.5C 70.5,217.167 70.5,208.833 70.5,200.5C 76.0003,196.514 81.6669,192.68 87.5,189C 90.9486,183.577 95.9486,180.577 102.5,180C 105.887,176.947 109.553,174.28 113.5,172C 121.949,164.894 130.282,157.727 138.5,150.5C 152.249,148.21 163.749,141.876 173,131.5C 176.049,135.043 178.882,138.709 181.5,142.5 Z"/></g>
<g><path style="opacity:1" fill="#0175ff" d="M 120.5,149.5 C 122.099,149.232 123.432,149.566 124.5,150.5C 119.651,153.838 114.651,157.004 109.5,160C 108.833,161 108.167,162 107.5,163C 103.15,163.667 100.15,166 98.5,170C 94.5,172.333 90.5,174.667 86.5,177C 84.4749,180.349 81.4749,182.183 77.5,182.5C 76.2334,185.767 73.9001,188.1 70.5,189.5C 70.5,188.167 70.5,186.833 70.5,185.5C 79.6104,179.567 88.6104,173.4 97.5,167C 99.473,163.495 102.473,161.328 106.5,160.5C 110.517,155.847 115.184,152.18 120.5,149.5 Z"/></g>
<g><path style="opacity:1" fill="#6300ff" d="M 207.5,124.5 C 207.5,128.167 207.5,131.833 207.5,135.5C 204.821,136.226 202.154,137.059 199.5,138C 176.196,154.767 153.529,172.1 131.5,190C 129.913,190.862 128.246,191.529 126.5,192C 120.255,197.583 113.255,201.917 105.5,205C 101.59,209.255 96.9237,212.255 91.5,214C 87.6117,217.588 83.6117,221.088 79.5,224.5C 78.8201,225.86 78.1534,227.193 77.5,228.5C 75.1667,228.5 72.8333,228.5 70.5,228.5C 70.5,227.5 70.5,226.5 70.5,225.5C 74.2297,222.935 78.2297,220.768 82.5,219C 93.438,210.22 104.771,202.053 116.5,194.5C 117.386,193.675 117.719,192.675 117.5,191.5C 118.552,191.649 119.552,191.483 120.5,191C 123.767,187.357 127.767,184.691 132.5,183C 135.951,179.26 139.285,175.427 142.5,171.5C 147.37,168.978 151.703,165.812 155.5,162C 156.833,161.667 158.167,161.333 159.5,161C 166.357,154.313 173.69,148.147 181.5,142.5C 183.16,144.248 185.16,144.748 187.5,144C 188.728,142.51 188.728,141.01 187.5,139.5C 187.953,138.542 188.619,137.708 189.5,137C 193.132,135.829 196.466,134.329 199.5,132.5C 199.5,131.167 199.5,129.833 199.5,128.5C 202.148,127.317 204.815,125.984 207.5,124.5 Z"/></g>
<g><path style="opacity:1" fill="#03c4ff" d="M 64.5,170.5 C 64.5,174.167 64.5,177.833 64.5,181.5C 58.8746,184.768 53.2079,188.101 47.5,191.5C 47.5,189.167 47.5,186.833 47.5,184.5C 53.7984,180.529 59.4651,175.862 64.5,170.5 Z"/></g>
<g><path style="opacity:1" fill="#d800ff" d="M 207.5,147.5 C 207.5,149.5 207.5,151.5 207.5,153.5C 205.821,153.892 204.154,154.392 202.5,155C 200.196,159.297 197.196,162.964 193.5,166C 183.031,172.257 172.698,178.757 162.5,185.5C 161.571,186.689 161.238,188.022 161.5,189.5C 157.184,190.665 153.851,193.165 151.5,197C 147.523,199.324 143.523,201.657 139.5,204C 129.609,212.612 119.609,220.779 109.5,228.5C 105.5,228.5 101.5,228.5 97.5,228.5C 104.909,223.615 112.243,218.448 119.5,213C 121.246,212.529 122.913,211.862 124.5,211C 128.389,207.864 132.055,204.531 135.5,201C 143.378,196.566 151.045,191.9 158.5,187C 167.945,177.088 178.612,168.254 190.5,160.5C 195.604,155.446 201.271,151.113 207.5,147.5 Z"/></g>
<g><path style="opacity:1" fill="#01a4ff" d="M 64.5,181.5 C 64.5,183.167 64.5,184.833 64.5,186.5C 60.9317,189.109 57.5984,191.942 54.5,195C 52.047,195.959 49.7137,197.126 47.5,198.5C 47.5,196.167 47.5,193.833 47.5,191.5C 53.2079,188.101 58.8746,184.768 64.5,181.5 Z"/></g>
<g><path style="opacity:1" fill="#ff00cd" d="M 207.5,164.5 C 207.5,167.167 207.5,169.833 207.5,172.5C 202.266,176.889 196.599,180.722 190.5,184C 188.274,187.124 185.274,189.291 181.5,190.5C 177.174,193.826 173.174,197.493 169.5,201.5C 155.918,209.125 143.584,218.125 132.5,228.5C 130.167,228.5 127.833,228.5 125.5,228.5C 128.715,225.269 132.048,222.103 135.5,219C 140.111,215.353 145.111,212.186 150.5,209.5C 155.662,204.311 161.329,199.811 167.5,196C 172.148,189.872 178.148,185.372 185.5,182.5C 189.702,178.254 194.036,174.254 198.5,170.5C 198.369,169.624 198.702,168.957 199.5,168.5C 201.955,166.703 204.622,165.37 207.5,164.5 Z"/></g>
<g><path style="opacity:1" fill="#0376ff" d="M 64.5,186.5 C 64.5,189.833 64.5,193.167 64.5,196.5C 59.8529,198.53 55.8529,201.363 52.5,205C 50.8455,205.608 49.1789,206.108 47.5,206.5C 47.5,203.833 47.5,201.167 47.5,198.5C 49.7137,197.126 52.047,195.959 54.5,195C 57.5984,191.942 60.9317,189.109 64.5,186.5 Z"/></g>
<g><path style="opacity:1" fill="#ff00a9" d="M 207.5,172.5 C 207.5,174.833 207.5,177.167 207.5,179.5C 199.785,184.19 192.118,189.023 184.5,194C 183.13,195.441 182.13,197.108 181.5,199C 167.612,208.432 154.279,218.265 141.5,228.5C 138.5,228.5 135.5,228.5 132.5,228.5C 143.584,218.125 155.918,209.125 169.5,201.5C 173.174,197.493 177.174,193.826 181.5,190.5C 185.274,189.291 188.274,187.124 190.5,184C 196.599,180.722 202.266,176.889 207.5,172.5 Z"/></g>
<g><path style="opacity:1" fill="#ff005c" d="M 207.5,189.5 C 207.5,190.833 207.5,192.167 207.5,193.5C 201.206,196.538 195.206,200.038 189.5,204C 185.019,208.647 180.352,213.147 175.5,217.5C 173.631,218.624 171.631,219.457 169.5,220C 168.295,222.706 166.295,224.539 163.5,225.5C 162.873,226.417 162.539,227.417 162.5,228.5C 159.833,228.5 157.167,228.5 154.5,228.5C 156.41,226.438 158.743,224.938 161.5,224C 162.5,222.333 163.5,220.667 164.5,219C 170.218,214.282 176.218,209.949 182.5,206C 183.723,202.777 186.056,201.111 189.5,201C 194.134,197.94 198.468,194.44 202.5,190.5C 204.071,189.691 205.738,189.357 207.5,189.5 Z"/></g>
<g><path style="opacity:1" fill="#005aff" d="M 64.5,196.5 C 64.5,197.5 64.5,198.5 64.5,199.5C 58.8165,203.623 53.1498,207.623 47.5,211.5C 47.5,209.833 47.5,208.167 47.5,206.5C 49.1789,206.108 50.8455,205.608 52.5,205C 55.8529,201.363 59.8529,198.53 64.5,196.5 Z"/></g>
<g><path style="opacity:1" fill="#ff0081" d="M 207.5,179.5 C 207.5,182.833 207.5,186.167 207.5,189.5C 205.738,189.357 204.071,189.691 202.5,190.5C 198.468,194.44 194.134,197.94 189.5,201C 186.056,201.111 183.723,202.777 182.5,206C 176.218,209.949 170.218,214.282 164.5,219C 163.5,220.667 162.5,222.333 161.5,224C 158.743,224.938 156.41,226.438 154.5,228.5C 150.167,228.5 145.833,228.5 141.5,228.5C 154.279,218.265 167.612,208.432 181.5,199C 182.13,197.108 183.13,195.441 184.5,194C 192.118,189.023 199.785,184.19 207.5,179.5 Z"/></g>
<g><path style="opacity:1" fill="#ff000b" d="M 207.5,198.5 C 207.666,207.173 207.5,215.84 207,224.5C 206.167,225.333 205.333,226.167 204.5,227C 192.935,228.457 181.268,228.957 169.5,228.5C 182.57,219.051 195.236,209.051 207.5,198.5 Z"/></g>
<g><path style="opacity:1" fill="#ff003d" d="M 207.5,193.5 C 207.5,195.167 207.5,196.833 207.5,198.5C 195.236,209.051 182.57,219.051 169.5,228.5C 167.167,228.5 164.833,228.5 162.5,228.5C 162.539,227.417 162.873,226.417 163.5,225.5C 166.295,224.539 168.295,222.706 169.5,220C 171.631,219.457 173.631,218.624 175.5,217.5C 180.352,213.147 185.019,208.647 189.5,204C 195.206,200.038 201.206,196.538 207.5,193.5 Z"/></g>
<g><path style="opacity:1" fill="#8600ff" d="M 207.5,135.5 C 207.5,137.5 207.5,139.5 207.5,141.5C 206.448,141.351 205.448,141.517 204.5,142C 183.757,157.752 162.757,173.085 141.5,188C 136.453,193.517 130.453,197.517 123.5,200C 113.576,209.959 103.242,219.459 92.5,228.5C 87.5,228.5 82.5,228.5 77.5,228.5C 78.1534,227.193 78.8201,225.86 79.5,224.5C 83.6117,221.088 87.6117,217.588 91.5,214C 96.9237,212.255 101.59,209.255 105.5,205C 113.255,201.917 120.255,197.583 126.5,192C 128.246,191.529 129.913,190.862 131.5,190C 153.529,172.1 176.196,154.767 199.5,138C 202.154,137.059 204.821,136.226 207.5,135.5 Z"/></g>
<g><path style="opacity:1" fill="#022eff" d="M 64.5,199.5 C 64.5,203.5 64.5,207.5 64.5,211.5C 62.0936,213.245 59.7603,215.079 57.5,217C 53.8676,218.171 50.5342,219.671 47.5,221.5C 47.5,218.167 47.5,214.833 47.5,211.5C 53.1498,207.623 58.8165,203.623 64.5,199.5 Z"/></g>
<g><path style="opacity:1" fill="#1204ff" d="M 64.5,211.5 C 64.5,217.167 64.5,222.833 64.5,228.5C 60.1539,228.666 55.8206,228.499 51.5,228C 49.0771,226.429 47.7438,224.263 47.5,221.5C 50.5342,219.671 53.8676,218.171 57.5,217C 59.7603,215.079 62.0936,213.245 64.5,211.5 Z"/></g>
<g><path style="opacity:1" fill="#ff00e0" d="M 198.5,170.5 C 194.036,174.254 189.702,178.254 185.5,182.5C 178.148,185.372 172.148,189.872 167.5,196C 161.329,199.811 155.662,204.311 150.5,209.5C 145.111,212.186 140.111,215.353 135.5,219C 132.048,222.103 128.715,225.269 125.5,228.5C 123.167,228.5 120.833,228.5 118.5,228.5C 122.763,225.019 127.097,221.519 131.5,218C 134.925,216.96 137.592,214.96 139.5,212C 145.215,210.606 150.215,207.939 154.5,204C 156.66,199.681 159.66,196.181 163.5,193.5C 173.888,187.31 183.721,180.31 193,172.5C 194.8,171.68 196.634,171.014 198.5,170.5 Z"/></g>
</svg>
