<?xml version="1.0" encoding="UTF-8"?>
<!DOCTYPE svg PUBLIC "-//W3C//DTD SVG 1.1//EN" "http://www.w3.org/Graphics/SVG/1.1/DTD/svg11.dtd">
<svg xmlns="http://www.w3.org/2000/svg" version="1.1" width="240px" height="242px" style="shape-rendering:geometricPrecision; text-rendering:geometricPrecision; image-rendering:optimizeQuality; fill-rule:evenodd; clip-rule:evenodd" xmlns:xlink="http://www.w3.org/1999/xlink">
<g><path style="opacity:1" fill="#ededed" d="M 70.5,-0.5 C 103.167,-0.5 135.833,-0.5 168.5,-0.5C 175.653,3.33137 182.82,7.33137 190,11.5C 194.699,6.41654 200.532,4.58321 207.5,6C 216.67,14.8365 225.503,24.0031 234,33.5C 234.004,37.4834 233.671,41.4834 233,45.5C 231.878,47.6238 230.378,49.4571 228.5,51C 232.592,57.688 236.258,64.5214 239.5,71.5C 239.5,103.833 239.5,136.167 239.5,168.5C 236.258,175.479 232.592,182.312 228.5,189C 230,190.5 231.5,192 233,193.5C 233.634,197.855 233.967,202.188 234,206.5C 225.655,215.677 217.155,224.677 208.5,233.5C 200.971,235.66 194.471,233.993 189,228.5C 181.263,233.783 173.096,238.117 164.5,241.5C 134.167,241.5 103.833,241.5 73.5,241.5C 65.036,237.904 56.8694,233.57 49,228.5C 43.9699,233.716 37.8032,235.55 30.5,234C 21.6359,225.47 13.1359,216.637 5,207.5C 4.33333,203.167 4.33333,198.833 5,194.5C 6.89204,192.946 8.39204,191.112 9.5,189C 6.00159,182.501 2.66825,176.001 -0.5,169.5C -0.5,136.167 -0.5,102.833 -0.5,69.5C 2.80553,63.5622 6.13886,57.5622 9.5,51.5C 8.19714,49.0324 6.69714,46.699 5,44.5C 4.33333,40.5 4.33333,36.5 5,32.5C 12.8025,23.6966 20.9691,15.1966 29.5,7C 37.0389,4.30599 43.5389,5.80599 49,11.5C 55.8574,6.8243 63.024,2.8243 70.5,-0.5 Z"/></g>
<g><path style="opacity:1" fill="#f7fc00" d="M 142.5,10.5 C 144.099,10.2322 145.432,10.5655 146.5,11.5C 140.883,14.4953 136.217,18.662 132.5,24C 129.167,25.3333 125.833,26.6667 122.5,28C 107.839,39.3831 92.8389,50.2164 77.5,60.5C 73.7017,64.9197 69.3684,68.7531 64.5,72C 63.7476,72.6708 63.4142,73.5041 63.5,74.5C 63.1667,74.5 62.8333,74.5 62.5,74.5C 56.6691,78.4779 50.6691,82.3112 44.5,86C 34.922,94.212 24.2553,100.879 12.5,106C 11.61,108.391 9.94333,109.891 7.5,110.5C 7.50795,107.455 7.84128,104.455 8.5,101.5C 10.5504,101.039 12.5504,100.372 14.5,99.5C 18.2316,96.4198 21.8982,93.2532 25.5,90C 28.2889,89.7586 30.9556,89.092 33.5,88C 46.6499,77.5927 60.3166,67.926 74.5,59C 76.5977,56.146 78.931,53.4794 81.5,51C 86.5061,47.3251 91.5061,43.6584 96.5,40C 100.92,37.1231 105.587,34.7898 110.5,33C 121.32,25.6737 131.987,18.1737 142.5,10.5 Z"/></g>
<g><path style="opacity:1" fill="#ff9900" d="M 114.5,7.5 C 116.5,7.5 118.5,7.5 120.5,7.5C 117.149,13.8721 111.815,17.8721 104.5,19.5C 99.2907,26.2102 93.2907,32.0435 86.5,37C 76.9671,42.5259 67.9671,48.8592 59.5,56C 55.3283,57.5879 51.3283,59.4212 47.5,61.5C 50.1274,58.7453 53.1274,56.412 56.5,54.5C 59.2735,50.2233 62.6068,46.39 66.5,43C 68.7148,41.9562 71.0481,41.2895 73.5,41C 79.0536,37.3574 84.0536,33.0241 88.5,28C 97.5434,22.9563 106.043,17.1229 114,10.5C 114.483,9.55198 114.649,8.55198 114.5,7.5 Z"/></g>
<g><path style="opacity:1" fill="#ffc200" d="M 127.5,7.5 C 129.379,8.34141 131.379,8.67474 133.5,8.5C 122.584,16.603 111.584,24.4363 100.5,32C 98.9586,33.3712 97.6253,34.8712 96.5,36.5C 85.1741,42.9275 74.3408,50.2609 64,58.5C 61.3226,59.222 58.8226,60.222 56.5,61.5C 59.8881,56.6255 64.5548,53.4588 70.5,52C 75.1116,48.4231 79.4449,44.5898 83.5,40.5C 88.5,37 93.5,33.5 98.5,30C 103.508,23.6502 109.841,18.9835 117.5,16C 118.453,14.0448 119.787,12.3782 121.5,11C 123.91,10.4005 125.91,9.23383 127.5,7.5 Z"/></g>
<g><path style="opacity:1" fill="#ff6a00" d="M 111.5,7.5 C 110.826,9.02449 109.826,10.3578 108.5,11.5C 104.64,13.2669 101.307,15.7669 98.5,19C 92.1263,20.0535 87.4596,23.3869 84.5,29C 80.269,30.2843 76.9356,32.7843 74.5,36.5C 65.829,42.8358 56.829,48.6692 47.5,54C 42.3132,58.0971 37.3132,62.4305 32.5,67C 29.7558,67.8035 27.0891,68.8035 24.5,70C 21.8783,72.9742 18.8783,75.4742 15.5,77.5C 16.6589,73.8487 18.3256,70.5154 20.5,67.5C 30.5788,60.9257 40.2455,53.759 49.5,46C 53.4456,44.6939 57.1122,42.8606 60.5,40.5C 65.7791,37.4249 70.6124,33.7582 75,29.5C 77.6292,28.791 80.1292,27.791 82.5,26.5C 88.2047,22.3215 93.8714,18.1548 99.5,14C 101.201,12.1606 102.868,10.3273 104.5,8.5C 106.903,8.55195 109.236,8.21862 111.5,7.5 Z"/></g>
<g><path style="opacity:1" fill="#ffe600" d="M 133.5,8.5 C 136.689,8.85834 139.689,9.52501 142.5,10.5C 131.987,18.1737 121.32,25.6737 110.5,33C 105.587,34.7898 100.92,37.1231 96.5,40C 91.5061,43.6584 86.5061,47.3251 81.5,51C 78.931,53.4794 76.5977,56.146 74.5,59C 60.3166,67.926 46.6499,77.5927 33.5,88C 30.9556,89.092 28.2889,89.7586 25.5,90C 21.8982,93.2532 18.2316,96.4198 14.5,99.5C 12.5504,100.372 10.5504,101.039 8.5,101.5C 8.43255,100.041 8.76589,98.7079 9.5,97.5C 17.7422,93.3648 25.4089,88.1981 32.5,82C 39.5455,79.9694 45.2122,75.9694 49.5,70C 54.7053,65.8968 60.372,62.5635 66.5,60C 70.9353,54.2801 76.6019,50.2801 83.5,48C 88.6471,45.0156 92.9804,41.1823 96.5,36.5C 97.6253,34.8712 98.9586,33.3712 100.5,32C 111.584,24.4363 122.584,16.603 133.5,8.5 Z"/></g>
<g><path style="opacity:1" fill="#ff5000" d="M 104.5,8.5 C 102.868,10.3273 101.201,12.1606 99.5,14C 93.8714,18.1548 88.2047,22.3215 82.5,26.5C 80.1292,27.791 77.6292,28.791 75,29.5C 70.6124,33.7582 65.7791,37.4249 60.5,40.5C 57.1122,42.8606 53.4456,44.6939 49.5,46C 40.2455,53.759 30.5788,60.9257 20.5,67.5C 21.1103,65.5659 22.1103,63.8993 23.5,62.5C 32.4523,57.0147 41.1189,51.0147 49.5,44.5C 52.4629,39.6783 56.7962,36.845 62.5,36C 68.3432,32.6557 73.0099,28.1557 76.5,22.5C 82.9,18.9762 88.9,14.9762 94.5,10.5C 97.802,9.70627 101.135,9.0396 104.5,8.5 Z"/></g>
<g><path style="opacity:1" fill="#01fe26" d="M 184.5,29.5 C 187.455,31.1223 190.122,33.1223 192.5,35.5C 184.469,40.9931 176.469,46.8265 168.5,53C 166.051,53.7246 163.717,54.7246 161.5,56C 155.779,60.7206 149.779,65.054 143.5,69C 142.157,71.2322 140.49,73.0655 138.5,74.5C 132.5,74.5 126.5,74.5 120.5,74.5C 121.98,71.6933 124.313,70.0266 127.5,69.5C 142.041,58.4532 156.708,47.6199 171.5,37C 175.566,33.9691 179.9,31.4691 184.5,29.5 Z"/></g>
<g><path style="opacity:1" fill="#2eff00" d="M 170.5,20.5 C 175.709,22.7191 180.376,25.7191 184.5,29.5C 179.9,31.4691 175.566,33.9691 171.5,37C 156.708,47.6199 142.041,58.4532 127.5,69.5C 124.313,70.0266 121.98,71.6933 120.5,74.5C 112.833,74.5 105.167,74.5 97.5,74.5C 104.728,67.9259 112.728,62.5926 121.5,58.5C 121.33,57.1779 121.663,56.0113 122.5,55C 128.338,53.3298 133.005,49.9964 136.5,45C 138.956,43.2895 141.623,41.9562 144.5,41C 145.167,40 145.833,39 146.5,38C 149.642,35.7746 152.975,33.7746 156.5,32C 161.5,28.3658 166.167,24.5325 170.5,20.5 Z"/></g>
<g><path style="opacity:1" fill="#ff8400" d="M 111.5,7.5 C 112.5,7.5 113.5,7.5 114.5,7.5C 114.649,8.55198 114.483,9.55198 114,10.5C 106.043,17.1229 97.5434,22.9563 88.5,28C 84.0536,33.0241 79.0536,37.3574 73.5,41C 71.0481,41.2895 68.7148,41.9562 66.5,43C 62.6068,46.39 59.2735,50.2233 56.5,54.5C 53.1274,56.412 50.1274,58.7453 47.5,61.5C 41.6967,64.2351 36.03,67.2351 30.5,70.5C 24.9796,74.7555 19.3129,78.7555 13.5,82.5C 13.8925,80.7162 14.5592,79.0495 15.5,77.5C 18.8783,75.4742 21.8783,72.9742 24.5,70C 27.0891,68.8035 29.7558,67.8035 32.5,67C 37.3132,62.4305 42.3132,58.0971 47.5,54C 56.829,48.6692 65.829,42.8358 74.5,36.5C 76.9356,32.7843 80.269,30.2843 84.5,29C 87.4596,23.3869 92.1263,20.0535 98.5,19C 101.307,15.7669 104.64,13.2669 108.5,11.5C 109.826,10.3578 110.826,9.02449 111.5,7.5 Z"/></g>
<g><path style="opacity:1" fill="#d8ff00" d="M 146.5,11.5 C 149.152,11.4095 151.485,12.0762 153.5,13.5C 132.99,27.1267 112.99,41.7933 93.5,57.5C 84.5637,61.4662 76.897,67.1329 70.5,74.5C 68.1667,74.5 65.8333,74.5 63.5,74.5C 63.4142,73.5041 63.7476,72.6708 64.5,72C 69.3684,68.7531 73.7017,64.9197 77.5,60.5C 92.8389,50.2164 107.839,39.3831 122.5,28C 125.833,26.6667 129.167,25.3333 132.5,24C 136.217,18.662 140.883,14.4953 146.5,11.5 Z"/></g>
<g><path style="opacity:1" fill="#96ff00" d="M 158.5,14.5 C 160.574,15.5139 162.574,16.5139 164.5,17.5C 161.646,19.1616 158.646,20.6616 155.5,22C 154.55,24.5904 152.884,26.5904 150.5,28C 144.854,30.4279 139.854,33.7613 135.5,38C 121.968,45.8785 109.301,54.8785 97.5,65C 92.422,66.9226 88.422,70.0893 85.5,74.5C 82.8333,74.5 80.1667,74.5 77.5,74.5C 92.4706,63.8738 107.471,53.2072 122.5,42.5C 123.386,41.675 123.719,40.675 123.5,39.5C 130.233,38.6448 134.9,35.1448 137.5,29C 145.154,24.9722 152.154,20.1389 158.5,14.5 Z"/></g>
<g><path style="opacity:1" fill="#6dff00" d="M 164.5,17.5 C 166.819,17.9925 168.819,18.9925 170.5,20.5C 166.167,24.5325 161.5,28.3658 156.5,32C 152.975,33.7746 149.642,35.7746 146.5,38C 145.833,39 145.167,40 144.5,41C 141.623,41.9562 138.956,43.2895 136.5,45C 133.005,49.9964 128.338,53.3298 122.5,55C 121.663,56.0113 121.33,57.1779 121.5,58.5C 112.728,62.5926 104.728,67.9259 97.5,74.5C 93.5,74.5 89.5,74.5 85.5,74.5C 88.422,70.0893 92.422,66.9226 97.5,65C 109.301,54.8785 121.968,45.8785 135.5,38C 139.854,33.7613 144.854,30.4279 150.5,28C 152.884,26.5904 154.55,24.5904 155.5,22C 158.646,20.6616 161.646,19.1616 164.5,17.5 Z"/></g>
<g><path style="opacity:1" fill="#01fe5f" d="M 192.5,35.5 C 194.5,36.8333 196.167,38.5 197.5,40.5C 192.1,43.3662 187.1,46.8662 182.5,51C 177.635,51.6917 173.968,54.1917 171.5,58.5C 167.179,59.6512 163.845,62.1512 161.5,66C 157.241,69.1203 152.907,71.9537 148.5,74.5C 145.167,74.5 141.833,74.5 138.5,74.5C 140.49,73.0655 142.157,71.2322 143.5,69C 149.779,65.054 155.779,60.7206 161.5,56C 163.717,54.7246 166.051,53.7246 168.5,53C 176.469,46.8265 184.469,40.9931 192.5,35.5 Z"/></g>
<g><path style="opacity:1" fill="#ff2e00" d="M 94.5,10.5 C 88.9,14.9762 82.9,18.9762 76.5,22.5C 73.0099,28.1557 68.3432,32.6557 62.5,36C 56.7962,36.845 52.4629,39.6783 49.5,44.5C 41.1189,51.0147 32.4523,57.0147 23.5,62.5C 39.7474,35.2812 63.414,17.9479 94.5,10.5 Z"/></g>
<g><path style="opacity:1" fill="#ffb000" d="M 120.5,7.5 C 122.833,7.5 125.167,7.5 127.5,7.5C 125.91,9.23383 123.91,10.4005 121.5,11C 119.787,12.3782 118.453,14.0448 117.5,16C 109.841,18.9835 103.508,23.6502 98.5,30C 93.5,33.5 88.5,37 83.5,40.5C 79.4449,44.5898 75.1116,48.4231 70.5,52C 64.5548,53.4588 59.8881,56.6255 56.5,61.5C 51.7374,64.4124 47.0707,67.5791 42.5,71C 35.9118,78.6303 27.9118,84.2969 18.5,88C 16.2488,90.7585 13.5821,92.9252 10.5,94.5C 10.8779,90.3219 11.8779,86.3219 13.5,82.5C 19.3129,78.7555 24.9796,74.7555 30.5,70.5C 36.03,67.2351 41.6967,64.2351 47.5,61.5C 51.3283,59.4212 55.3283,57.5879 59.5,56C 67.9671,48.8592 76.9671,42.5259 86.5,37C 93.2907,32.0435 99.2907,26.2102 104.5,19.5C 111.815,17.8721 117.149,13.8721 120.5,7.5 Z"/></g>
<g><path style="opacity:1" fill="#02fafa" d="M 208.5,52.5 C 209.803,54.1423 211.136,55.8089 212.5,57.5C 206.608,59.6442 201.608,63.1442 197.5,68C 188.641,72.5363 180.641,78.203 173.5,85C 170.637,86.7869 167.637,88.2869 164.5,89.5C 164.5,87.1667 164.5,84.8333 164.5,82.5C 178.771,72.0218 193.437,62.0218 208.5,52.5 Z"/></g>
<g><path style="opacity:1" fill="#01feb9" d="M 202.5,45.5 C 203.833,46.1667 204.833,47.1667 205.5,48.5C 195.534,53.9456 186.2,60.4456 177.5,68C 172.796,69.6855 168.462,71.8521 164.5,74.5C 163.167,74.5 161.833,74.5 160.5,74.5C 166.944,69.8987 173.278,65.0654 179.5,60C 183.365,59.2385 186.365,57.2385 188.5,54C 193.675,51.9164 198.342,49.0831 202.5,45.5 Z"/></g>
<g><path style="opacity:1" fill="#03fe8f" d="M 197.5,40.5 C 199.5,41.8333 201.167,43.5 202.5,45.5C 198.342,49.0831 193.675,51.9164 188.5,54C 186.365,57.2385 183.365,59.2385 179.5,60C 173.278,65.0654 166.944,69.8987 160.5,74.5C 156.5,74.5 152.5,74.5 148.5,74.5C 152.907,71.9537 157.241,69.1203 161.5,66C 163.845,62.1512 167.179,59.6512 171.5,58.5C 173.968,54.1917 177.635,51.6917 182.5,51C 187.1,46.8662 192.1,43.3662 197.5,40.5 Z"/></g>
<g><path style="opacity:1" fill="#b1ff00" d="M 153.5,13.5 C 155.216,13.6287 156.883,13.962 158.5,14.5C 152.154,20.1389 145.154,24.9722 137.5,29C 134.9,35.1448 130.233,38.6448 123.5,39.5C 123.719,40.675 123.386,41.675 122.5,42.5C 107.471,53.2072 92.4706,63.8738 77.5,74.5C 75.1667,74.5 72.8333,74.5 70.5,74.5C 76.897,67.1329 84.5637,61.4662 93.5,57.5C 112.99,41.7933 132.99,27.1267 153.5,13.5 Z"/></g>
<g><path style="opacity:1" fill="#02ffd7" d="M 205.5,48.5 C 206.5,49.8333 207.5,51.1667 208.5,52.5C 193.437,62.0218 178.771,72.0218 164.5,82.5C 164.5,79.8333 164.5,77.1667 164.5,74.5C 168.462,71.8521 172.796,69.6855 177.5,68C 186.2,60.4456 195.534,53.9456 205.5,48.5 Z"/></g>
<g><path style="opacity:1" fill="#fdf5f5" d="M 62.5,74.5 C 62.8333,74.5 63.1667,74.5 63.5,74.5C 65.8333,74.5 68.1667,74.5 70.5,74.5C 72.8333,74.5 75.1667,74.5 77.5,74.5C 80.1667,74.5 82.8333,74.5 85.5,74.5C 89.5,74.5 93.5,74.5 97.5,74.5C 105.167,74.5 112.833,74.5 120.5,74.5C 126.5,74.5 132.5,74.5 138.5,74.5C 141.833,74.5 145.167,74.5 148.5,74.5C 152.5,74.5 156.5,74.5 160.5,74.5C 161.833,74.5 163.167,74.5 164.5,74.5C 164.5,77.1667 164.5,79.8333 164.5,82.5C 164.5,84.8333 164.5,87.1667 164.5,89.5C 164.5,91.5 164.5,93.5 164.5,95.5C 164.5,97.5 164.5,99.5 164.5,101.5C 164.5,103.833 164.5,106.167 164.5,108.5C 164.5,109.167 164.5,109.833 164.5,110.5C 164.5,111.833 164.5,113.167 164.5,114.5C 161.167,114.5 157.833,114.5 154.5,114.5C 151.5,114.5 148.5,114.5 145.5,114.5C 145.5,112.5 145.5,110.5 145.5,108.5C 145.5,106.167 145.5,103.833 145.5,101.5C 145.5,100.167 145.5,98.8333 145.5,97.5C 141.5,97.5 137.5,97.5 133.5,97.5C 133.5,101.5 133.5,105.5 133.5,109.5C 133.5,111.167 133.5,112.833 133.5,114.5C 133.5,117.167 133.5,119.833 133.5,122.5C 133.5,125.5 133.5,128.5 133.5,131.5C 133.5,132.833 133.5,134.167 133.5,135.5C 133.5,138.167 133.5,140.833 133.5,143.5C 133.5,145.167 133.5,146.833 133.5,148.5C 136.167,148.5 138.833,148.5 141.5,148.5C 141.5,151.833 141.5,155.167 141.5,158.5C 141.665,162.182 141.499,165.848 141,169.5C 138.959,170.423 136.792,170.756 134.5,170.5C 123.167,170.5 111.833,170.5 100.5,170.5C 97.5,170.5 94.5,170.5 91.5,170.5C 90.1667,170.5 88.8333,170.5 87.5,170.5C 86.8333,170.167 86.1667,169.833 85.5,169.5C 85.5,167.5 85.5,165.5 85.5,163.5C 85.5,162.167 85.5,160.833 85.5,159.5C 85.5,157.5 85.5,155.5 85.5,153.5C 85.5,152.167 85.5,150.833 85.5,149.5C 88.2281,148.795 91.0614,148.128 94,147.5C 93.7932,145.249 93.6265,142.915 93.5,140.5C 93.5,137.833 93.5,135.167 93.5,132.5C 93.5,131.5 93.5,130.5 93.5,129.5C 93.5,127.5 93.5,125.5 93.5,123.5C 93.5,122.833 93.5,122.167 93.5,121.5C 93.5,120.167 93.5,118.833 93.5,117.5C 93.5,115.167 93.5,112.833 93.5,110.5C 93.5,109.167 93.5,107.833 93.5,106.5C 93.8273,103.518 93.8273,100.685 93.5,98C 89.5138,97.5012 85.5138,97.3345 81.5,97.5C 81.5,103.167 81.5,108.833 81.5,114.5C 78.1667,114.5 74.8333,114.5 71.5,114.5C 68.4816,114.665 65.4816,114.498 62.5,114C 63.6846,107.551 63.6846,101.051 62.5,94.5C 62.5,92.5 62.5,90.5 62.5,88.5C 62.5,86.5 62.5,84.5 62.5,82.5C 62.5,79.8333 62.5,77.1667 62.5,74.5 Z"/></g>
<g><path style="opacity:1" fill="#ffd200" d="M 96.5,36.5 C 92.9804,41.1823 88.6471,45.0156 83.5,48C 76.6019,50.2801 70.9353,54.2801 66.5,60C 60.372,62.5635 54.7053,65.8968 49.5,70C 45.2122,75.9694 39.5455,79.9694 32.5,82C 25.4089,88.1981 17.7422,93.3648 9.5,97.5C 9.26269,96.209 9.59603,95.209 10.5,94.5C 13.5821,92.9252 16.2488,90.7585 18.5,88C 27.9118,84.2969 35.9118,78.6303 42.5,71C 47.0707,67.5791 51.7374,64.4124 56.5,61.5C 58.8226,60.222 61.3226,59.222 64,58.5C 74.3408,50.2609 85.1741,42.9275 96.5,36.5 Z"/></g>
<g><path style="opacity:1" fill="#01bcff" d="M 214.5,61.5 C 215.674,62.5137 216.34,63.847 216.5,65.5C 208.98,69.0995 202.313,73.9328 196.5,80C 185.221,86.4566 174.555,93.6233 164.5,101.5C 164.5,99.5 164.5,97.5 164.5,95.5C 167.401,94.2085 169.734,92.2085 171.5,89.5C 186.606,81.4015 200.939,72.0681 214.5,61.5 Z"/></g>
<g><path style="opacity:1" fill="#02ddff" d="M 212.5,57.5 C 213.6,58.6049 214.267,59.9382 214.5,61.5C 200.939,72.0681 186.606,81.4015 171.5,89.5C 169.734,92.2085 167.401,94.2085 164.5,95.5C 164.5,93.5 164.5,91.5 164.5,89.5C 167.637,88.2869 170.637,86.7869 173.5,85C 180.641,78.203 188.641,72.5363 197.5,68C 201.608,63.1442 206.608,59.6442 212.5,57.5 Z"/></g>
<g><path style="opacity:1" fill="#029aff" d="M 216.5,65.5 C 217.906,65.9731 218.573,66.9731 218.5,68.5C 209.593,75.6406 200.593,82.8073 191.5,90C 188.782,91.0718 186.115,92.2384 183.5,93.5C 177.505,98.9181 171.172,103.918 164.5,108.5C 164.5,106.167 164.5,103.833 164.5,101.5C 174.555,93.6233 185.221,86.4566 196.5,80C 202.313,73.9328 208.98,69.0995 216.5,65.5 Z"/></g>
<g><path style="opacity:1" fill="#d0ff00" d="M 62.5,74.5 C 62.5,77.1667 62.5,79.8333 62.5,82.5C 59.6343,83.9778 56.6343,85.3111 53.5,86.5C 44.934,94.2678 35.6007,100.768 25.5,106C 23.0132,108.734 20.3465,111.234 17.5,113.5C 14.2512,116.291 10.5845,118.291 6.5,119.5C 6.70381,116.482 7.03714,113.482 7.5,110.5C 9.94333,109.891 11.61,108.391 12.5,106C 24.2553,100.879 34.922,94.212 44.5,86C 50.6691,82.3112 56.6691,78.4779 62.5,74.5 Z"/></g>
<g><path style="opacity:1" fill="#03feed" d="M 145.5,101.5 C 141.5,104.167 137.5,106.833 133.5,109.5C 133.5,105.5 133.5,101.5 133.5,97.5C 137.5,97.5 141.5,97.5 145.5,97.5C 145.5,98.8333 145.5,100.167 145.5,101.5 Z"/></g>
<g><path style="opacity:1" fill="#017eff" d="M 218.5,68.5 C 219.737,69.9649 220.737,71.6316 221.5,73.5C 212.238,77.9157 203.905,83.7491 196.5,91C 193.786,92.7936 190.786,93.9603 187.5,94.5C 179.53,99.4766 171.863,104.81 164.5,110.5C 164.5,109.833 164.5,109.167 164.5,108.5C 171.172,103.918 177.505,98.9181 183.5,93.5C 186.115,92.2384 188.782,91.0718 191.5,90C 200.593,82.8073 209.593,75.6406 218.5,68.5 Z"/></g>
<g><path style="opacity:1" fill="#014eff" d="M 221.5,75.5 C 222.674,76.5137 223.34,77.847 223.5,79.5C 212.622,84.2099 203.288,91.0433 195.5,100C 189.833,103.833 184.167,107.667 178.5,111.5C 172.399,112.879 167.733,116.212 164.5,121.5C 161.312,121.618 158.312,122.451 155.5,124C 154.577,126.041 154.244,128.208 154.5,130.5C 147.349,134.653 140.349,138.987 133.5,143.5C 133.5,140.833 133.5,138.167 133.5,135.5C 135.584,133.17 138.251,132.003 141.5,132C 146.802,126.343 153.135,122.177 160.5,119.5C 162.614,116.944 164.947,114.611 167.5,112.5C 179.518,105.647 190.851,97.8141 201.5,89C 202.833,88.6667 204.167,88.3333 205.5,88C 211.014,83.9765 216.347,79.8098 221.5,75.5 Z"/></g>
<g><path style="opacity:1" fill="#003aff" d="M 223.5,79.5 C 224.338,79.8417 224.672,80.5084 224.5,81.5C 204.788,94.6842 185.455,108.351 166.5,122.5C 165.508,122.672 164.842,122.338 164.5,121.5C 167.733,116.212 172.399,112.879 178.5,111.5C 184.167,107.667 189.833,103.833 195.5,100C 203.288,91.0433 212.622,84.2099 223.5,79.5 Z"/></g>
<g><path style="opacity:1" fill="#7dff00" d="M 62.5,88.5 C 62.5,90.5 62.5,92.5 62.5,94.5C 55.7178,98.4421 49.0512,102.609 42.5,107C 37.5204,112.678 31.5204,117.178 24.5,120.5C 22.1225,124.025 18.7892,126.025 14.5,126.5C 12.1534,128.581 9.82011,130.581 7.5,132.5C 7.5,130.5 7.5,128.5 7.5,126.5C 16.3215,118.53 26.3215,112.363 37.5,108C 39.8298,105.054 42.8298,102.887 46.5,101.5C 49.0168,99.1506 51.3501,96.6506 53.5,94C 57.1574,93.1629 60.1574,91.3296 62.5,88.5 Z"/></g>
<g><path style="opacity:1" fill="#02e4ff" d="M 145.5,101.5 C 145.5,103.833 145.5,106.167 145.5,108.5C 141.231,110.137 137.231,112.137 133.5,114.5C 133.5,112.833 133.5,111.167 133.5,109.5C 137.5,106.833 141.5,104.167 145.5,101.5 Z"/></g>
<g><path style="opacity:1" fill="#1b0aff" d="M 224.5,81.5 C 227.12,88.6464 229.12,95.9797 230.5,103.5C 223.867,107.82 216.867,111.654 209.5,115C 205.047,120.464 199.381,123.797 192.5,125C 189.302,128.083 185.969,130.917 182.5,133.5C 178.702,134.926 175.369,136.926 172.5,139.5C 165.833,139.5 159.167,139.5 152.5,139.5C 152.5,143.167 152.5,146.833 152.5,150.5C 149.95,154.718 146.284,157.385 141.5,158.5C 141.5,155.167 141.5,151.833 141.5,148.5C 138.833,148.5 136.167,148.5 133.5,148.5C 133.5,146.833 133.5,145.167 133.5,143.5C 140.349,138.987 147.349,134.653 154.5,130.5C 159.668,134.459 164.835,134.459 170,130.5C 171.421,126.532 170.254,123.865 166.5,122.5C 185.455,108.351 204.788,94.6842 224.5,81.5 Z"/></g>
<g><path style="opacity:1" fill="#a0ff00" d="M 62.5,82.5 C 62.5,84.5 62.5,86.5 62.5,88.5C 60.1574,91.3296 57.1574,93.1629 53.5,94C 51.3501,96.6506 49.0168,99.1506 46.5,101.5C 42.8298,102.887 39.8298,105.054 37.5,108C 26.3215,112.363 16.3215,118.53 7.5,126.5C 6.53178,124.393 6.19845,122.059 6.5,119.5C 10.5845,118.291 14.2512,116.291 17.5,113.5C 20.3465,111.234 23.0132,108.734 25.5,106C 35.6007,100.768 44.934,94.2678 53.5,86.5C 56.6343,85.3111 59.6343,83.9778 62.5,82.5 Z"/></g>
<g><path style="opacity:1" fill="#02c2ff" d="M 145.5,108.5 C 145.5,110.5 145.5,112.5 145.5,114.5C 141.515,117.156 137.515,119.823 133.5,122.5C 133.5,119.833 133.5,117.167 133.5,114.5C 137.231,112.137 141.231,110.137 145.5,108.5 Z"/></g>
<g><path style="opacity:1" fill="#01fe42" d="M 93.5,106.5 C 79.8602,115.012 66.8602,124.512 54.5,135C 48.1186,138.21 42.1186,142.044 36.5,146.5C 35.1977,150.299 32.531,152.465 28.5,153C 23.9784,156.364 19.6451,159.864 15.5,163.5C 15.1075,161.716 14.4408,160.05 13.5,158.5C 18.0161,154.699 23.0161,151.533 28.5,149C 29.1905,147.933 29.6905,146.766 30,145.5C 37.9914,138.244 46.8247,132.077 56.5,127C 61.5707,122.815 66.5707,118.648 71.5,114.5C 74.8333,114.5 78.1667,114.5 81.5,114.5C 81.5,108.833 81.5,103.167 81.5,97.5C 85.5138,97.3345 89.5138,97.5012 93.5,98C 93.8273,100.685 93.8273,103.518 93.5,106.5 Z"/></g>
<g><path style="opacity:1" fill="#fdf5f5" d="M 164.5,121.5 C 164.842,122.338 165.508,122.672 166.5,122.5C 170.254,123.865 171.421,126.532 170,130.5C 164.835,134.459 159.668,134.459 154.5,130.5C 154.244,128.208 154.577,126.041 155.5,124C 158.312,122.451 161.312,121.618 164.5,121.5 Z"/></g>
<g><path style="opacity:1" fill="#016aff" d="M 221.5,73.5 C 221.5,74.1667 221.5,74.8333 221.5,75.5C 216.347,79.8098 211.014,83.9765 205.5,88C 204.167,88.3333 202.833,88.6667 201.5,89C 190.851,97.8141 179.518,105.647 167.5,112.5C 164.947,114.611 162.614,116.944 160.5,119.5C 153.135,122.177 146.802,126.343 141.5,132C 138.251,132.003 135.584,133.17 133.5,135.5C 133.5,134.167 133.5,132.833 133.5,131.5C 138.018,128.495 142.684,125.662 147.5,123C 149.32,119.686 151.654,116.852 154.5,114.5C 157.833,114.5 161.167,114.5 164.5,114.5C 164.5,113.167 164.5,111.833 164.5,110.5C 171.863,104.81 179.53,99.4766 187.5,94.5C 190.786,93.9603 193.786,92.7936 196.5,91C 203.905,83.7491 212.238,77.9157 221.5,73.5 Z"/></g>
<g><path style="opacity:1" fill="#6f00ff" d="M 230.5,103.5 C 230.704,106.518 231.037,109.518 231.5,112.5C 229.002,113.912 226.336,115.079 223.5,116C 216.3,122.088 208.966,127.921 201.5,133.5C 194.242,134.878 188.075,138.211 183,143.5C 182.225,147.601 179.725,149.434 175.5,149C 174.627,150.045 173.627,150.878 172.5,151.5C 172.5,147.5 172.5,143.5 172.5,139.5C 175.369,136.926 178.702,134.926 182.5,133.5C 185.969,130.917 189.302,128.083 192.5,125C 199.381,123.797 205.047,120.464 209.5,115C 216.867,111.654 223.867,107.82 230.5,103.5 Z"/></g>
<g><path style="opacity:1" fill="#048dff" d="M 145.5,114.5 C 148.5,114.5 151.5,114.5 154.5,114.5C 151.654,116.852 149.32,119.686 147.5,123C 142.684,125.662 138.018,128.495 133.5,131.5C 133.5,128.5 133.5,125.5 133.5,122.5C 137.515,119.823 141.515,117.156 145.5,114.5 Z"/></g>
<g><path style="opacity:1" fill="#a500ff" d="M 231.5,112.5 C 231.5,115.167 231.5,117.833 231.5,120.5C 223.822,127.069 215.489,132.736 206.5,137.5C 202.5,138.833 198.5,140.167 194.5,141.5C 188.556,148.782 181.222,154.116 172.5,157.5C 171.167,155.5 171.167,153.5 172.5,151.5C 173.627,150.878 174.627,150.045 175.5,149C 179.725,149.434 182.225,147.601 183,143.5C 188.075,138.211 194.242,134.878 201.5,133.5C 208.966,127.921 216.3,122.088 223.5,116C 226.336,115.079 229.002,113.912 231.5,112.5 Z"/></g>
<g><path style="opacity:1" fill="#01fec2" d="M 93.5,123.5 C 93.5,125.5 93.5,127.5 93.5,129.5C 88.7161,132.112 84.0495,134.946 79.5,138C 77.8333,139.667 76.1667,141.333 74.5,143C 70.7696,143.411 67.4363,144.744 64.5,147C 62.5879,149.961 59.9213,151.961 56.5,153C 54.399,156.481 51.7323,159.481 48.5,162C 41.9867,164.525 36.6533,168.525 32.5,174C 29.7235,175.747 27.0569,177.58 24.5,179.5C 23.1103,178.101 22.1103,176.434 21.5,174.5C 23.978,172.197 26.6447,170.031 29.5,168C 38.8333,162.333 48.1667,156.667 57.5,151C 60.8333,147.667 64.1667,144.333 67.5,141C 69.5,140.667 71.5,140.333 73.5,140C 77.5918,136.238 81.9251,132.738 86.5,129.5C 87.8334,126.333 90.1668,124.333 93.5,123.5 Z"/></g>
<g><path style="opacity:1" fill="#d100ff" d="M 231.5,120.5 C 231.5,122.833 231.5,125.167 231.5,127.5C 226.403,131.382 220.736,134.215 214.5,136C 202.436,146.575 189.436,155.742 175.5,163.5C 175.5,162.167 175.5,160.833 175.5,159.5C 173.821,159.715 172.821,159.048 172.5,157.5C 181.222,154.116 188.556,148.782 194.5,141.5C 198.5,140.167 202.5,138.833 206.5,137.5C 215.489,132.736 223.822,127.069 231.5,120.5 Z"/></g>
<g><path style="opacity:1" fill="#2aff08" d="M 62.5,94.5 C 63.6846,101.051 63.6846,107.551 62.5,114C 65.4816,114.498 68.4816,114.665 71.5,114.5C 66.5707,118.648 61.5707,122.815 56.5,127C 46.8247,132.077 37.9914,138.244 30,145.5C 29.6905,146.766 29.1905,147.933 28.5,149C 23.0161,151.533 18.0161,154.699 13.5,158.5C 10.6094,150.048 8.60938,141.382 7.5,132.5C 9.82011,130.581 12.1534,128.581 14.5,126.5C 18.7892,126.025 22.1225,124.025 24.5,120.5C 31.5204,117.178 37.5204,112.678 42.5,107C 49.0512,102.609 55.7178,98.4421 62.5,94.5 Z"/></g>
<g><path style="opacity:1" fill="#fcf4f5" d="M 172.5,139.5 C 172.5,143.5 172.5,147.5 172.5,151.5C 171.167,153.5 171.167,155.5 172.5,157.5C 172.821,159.048 173.821,159.715 175.5,159.5C 175.5,160.833 175.5,162.167 175.5,163.5C 175.5,165.833 175.5,168.167 175.5,170.5C 171.167,170.5 166.833,170.5 162.5,170.5C 159.5,170.5 156.5,170.5 153.5,170.5C 151.896,169.713 151.229,168.38 151.5,166.5C 151.5,164.167 151.5,161.833 151.5,159.5C 152.822,159.67 153.989,159.337 155,158.5C 155.497,155.854 155.664,153.187 155.5,150.5C 154.5,150.5 153.5,150.5 152.5,150.5C 152.5,146.833 152.5,143.167 152.5,139.5C 159.167,139.5 165.833,139.5 172.5,139.5 Z"/></g>
<g><path style="opacity:1" fill="#01fe94" d="M 93.5,117.5 C 93.5,118.833 93.5,120.167 93.5,121.5C 81.713,129.455 69.713,137.121 57.5,144.5C 52.2381,147.97 47.5715,152.137 43.5,157C 36.2892,159.179 29.9558,162.845 24.5,168C 23.552,168.483 22.552,168.649 21.5,168.5C 22.0656,166.922 23.0656,165.588 24.5,164.5C 30.789,159.682 37.4557,155.349 44.5,151.5C 51.2321,144.932 58.8988,139.766 67.5,136C 68.982,134.017 70.6487,132.184 72.5,130.5C 75.7955,130.013 78.7955,128.846 81.5,127C 84.9848,123.102 88.9848,119.935 93.5,117.5 Z"/></g>
<g><path style="opacity:1" fill="#01fea8" d="M 93.5,121.5 C 93.5,122.167 93.5,122.833 93.5,123.5C 90.1668,124.333 87.8334,126.333 86.5,129.5C 81.9251,132.738 77.5918,136.238 73.5,140C 71.5,140.333 69.5,140.667 67.5,141C 64.1667,144.333 60.8333,147.667 57.5,151C 48.1667,156.667 38.8333,162.333 29.5,168C 26.6447,170.031 23.978,172.197 21.5,174.5C 20.3263,173.486 19.6596,172.153 19.5,170.5C 20.1667,169.833 20.8333,169.167 21.5,168.5C 22.552,168.649 23.552,168.483 24.5,168C 29.9558,162.845 36.2892,159.179 43.5,157C 47.5715,152.137 52.2381,147.97 57.5,144.5C 69.713,137.121 81.713,129.455 93.5,121.5 Z"/></g>
<g><path style="opacity:1" fill="#f100fe" d="M 231.5,127.5 C 231.634,129.292 231.301,130.958 230.5,132.5C 212.167,145.167 193.833,157.833 175.5,170.5C 175.5,168.167 175.5,165.833 175.5,163.5C 189.436,155.742 202.436,146.575 214.5,136C 220.736,134.215 226.403,131.382 231.5,127.5 Z"/></g>
<g><path style="opacity:1" fill="#01fe7d" d="M 93.5,110.5 C 93.5,112.833 93.5,115.167 93.5,117.5C 88.9848,119.935 84.9848,123.102 81.5,127C 78.7955,128.846 75.7955,130.013 72.5,130.5C 70.6487,132.184 68.982,134.017 67.5,136C 58.8988,139.766 51.2321,144.932 44.5,151.5C 37.4557,155.349 30.789,159.682 24.5,164.5C 23.0656,165.588 22.0656,166.922 21.5,168.5C 20.8333,169.167 20.1667,169.833 19.5,170.5C 17.9925,168.819 16.9925,166.819 16.5,164.5C 34.168,153.029 51.5013,140.863 68.5,128C 72.5249,126.541 75.8582,124.207 78.5,121C 81.1863,119.632 83.853,118.299 86.5,117C 88.6771,114.656 91.0104,112.489 93.5,110.5 Z"/></g>
<g><path style="opacity:1" fill="#ff00eb" d="M 230.5,132.5 C 230.5,133.833 230.5,135.167 230.5,136.5C 192.568,163.406 154.568,190.406 116.5,217.5C 112.871,223.472 107.871,227.805 101.5,230.5C 99.5853,230.784 97.9187,230.451 96.5,229.5C 102.035,225.464 107.702,221.63 113.5,218C 116.167,215 118.833,212 121.5,209C 140.105,196.878 158.105,184.045 175.5,170.5C 193.833,157.833 212.167,145.167 230.5,132.5 Z"/></g>
<g><path style="opacity:1" fill="#00fe60" d="M 93.5,106.5 C 93.5,107.833 93.5,109.167 93.5,110.5C 91.0104,112.489 88.6771,114.656 86.5,117C 83.853,118.299 81.1863,119.632 78.5,121C 75.8582,124.207 72.5249,126.541 68.5,128C 51.5013,140.863 34.168,153.029 16.5,164.5C 15.8333,164.5 15.5,164.167 15.5,163.5C 19.6451,159.864 23.9784,156.364 28.5,153C 32.531,152.465 35.1977,150.299 36.5,146.5C 42.1186,142.044 48.1186,138.21 54.5,135C 66.8602,124.512 79.8602,115.012 93.5,106.5 Z"/></g>
<g><path style="opacity:1" fill="#02ebff" d="M 93.5,140.5 C 93.6265,142.915 93.7932,145.249 94,147.5C 91.0614,148.128 88.2281,148.795 85.5,149.5C 74.5242,156.492 63.8575,163.825 53.5,171.5C 45.9437,177.432 38.277,183.098 30.5,188.5C 29.5116,187.205 28.5116,185.872 27.5,184.5C 45.4071,172.528 63.0737,160.028 80.5,147C 84.8323,144.682 89.1657,142.515 93.5,140.5 Z"/></g>
<g><path style="opacity:1" fill="#ff00a9" d="M 228.5,145.5 C 228.037,148.221 227.371,150.888 226.5,153.5C 214.853,160.659 203.187,167.825 191.5,175C 186.938,179.732 181.938,183.898 176.5,187.5C 173.217,188.475 170.217,189.975 167.5,192C 157.574,202.261 146.241,210.594 133.5,217C 128.94,222.281 123.606,226.614 117.5,230C 116.748,230.671 116.414,231.504 116.5,232.5C 112.821,232.276 109.154,231.942 105.5,231.5C 115.645,222.186 126.978,214.686 139.5,209C 146.37,202.454 154.036,197.121 162.5,193C 166.618,189.036 170.951,185.37 175.5,182C 181.932,178.257 188.266,174.424 194.5,170.5C 198.576,165.623 203.576,161.957 209.5,159.5C 215.844,154.754 222.178,150.087 228.5,145.5 Z"/></g>
<g><path style="opacity:1" fill="#01d1ff" d="M 85.5,149.5 C 85.5,150.833 85.5,152.167 85.5,153.5C 67.7282,165.652 50.0615,177.985 32.5,190.5C 31.5,190.167 30.8333,189.5 30.5,188.5C 38.277,183.098 45.9437,177.432 53.5,171.5C 63.8575,163.825 74.5242,156.492 85.5,149.5 Z"/></g>
<g><path style="opacity:1" fill="#01b9ff" d="M 85.5,153.5 C 85.5,155.5 85.5,157.5 85.5,159.5C 80.0269,161.737 74.6936,164.237 69.5,167C 62.1597,172.714 54.8264,178.381 47.5,184C 45.3983,189.605 41.3983,192.772 35.5,193.5C 34.1667,192.833 33.1667,191.833 32.5,190.5C 50.0615,177.985 67.7282,165.652 85.5,153.5 Z"/></g>
<g><path style="opacity:1" fill="#ff00ce" d="M 230.5,136.5 C 229.833,139.5 229.167,142.5 228.5,145.5C 222.178,150.087 215.844,154.754 209.5,159.5C 203.576,161.957 198.576,165.623 194.5,170.5C 188.266,174.424 181.932,178.257 175.5,182C 170.951,185.37 166.618,189.036 162.5,193C 154.036,197.121 146.37,202.454 139.5,209C 126.978,214.686 115.645,222.186 105.5,231.5C 103.901,231.768 102.568,231.434 101.5,230.5C 107.871,227.805 112.871,223.472 116.5,217.5C 154.568,190.406 192.568,163.406 230.5,136.5 Z"/></g>
<g><path style="opacity:1" fill="#01ffda" d="M 93.5,129.5 C 93.5,130.5 93.5,131.5 93.5,132.5C 84.5476,137.541 75.8809,143.041 67.5,149C 66.8333,150.333 66.1667,151.667 65.5,153C 52.2571,162.429 38.9238,171.595 25.5,180.5C 24.8333,180.5 24.5,180.167 24.5,179.5C 27.0569,177.58 29.7235,175.747 32.5,174C 36.6533,168.525 41.9867,164.525 48.5,162C 51.7323,159.481 54.399,156.481 56.5,153C 59.9213,151.961 62.5879,149.961 64.5,147C 67.4363,144.744 70.7696,143.411 74.5,143C 76.1667,141.333 77.8333,139.667 79.5,138C 84.0495,134.946 88.7161,132.112 93.5,129.5 Z"/></g>
<g><path style="opacity:1" fill="#01fef2" d="M 93.5,132.5 C 93.5,135.167 93.5,137.833 93.5,140.5C 89.1657,142.515 84.8323,144.682 80.5,147C 63.0737,160.028 45.4071,172.528 27.5,184.5C 26.3995,183.395 25.7329,182.062 25.5,180.5C 38.9238,171.595 52.2571,162.429 65.5,153C 66.1667,151.667 66.8333,150.333 67.5,149C 75.8809,143.041 84.5476,137.541 93.5,132.5 Z"/></g>
<g><path style="opacity:1" fill="#7100ff" d="M 152.5,150.5 C 153.5,150.5 154.5,150.5 155.5,150.5C 155.664,153.187 155.497,155.854 155,158.5C 153.989,159.337 152.822,159.67 151.5,159.5C 151.5,161.833 151.5,164.167 151.5,166.5C 139.167,173.342 127.833,181.508 117.5,191C 115.167,192 112.833,193 110.5,194C 97.6668,203.584 84.3335,212.417 70.5,220.5C 86.231,206.284 102.898,193.117 120.5,181C 121.833,180.667 123.167,180.333 124.5,180C 127.25,176.142 130.584,172.975 134.5,170.5C 136.792,170.756 138.959,170.423 141,169.5C 141.499,165.848 141.665,162.182 141.5,158.5C 146.284,157.385 149.95,154.718 152.5,150.5 Z"/></g>
<g><path style="opacity:1" fill="#c000ff" d="M 153.5,170.5 C 156.5,170.5 159.5,170.5 162.5,170.5C 156.015,175.251 149.682,180.251 143.5,185.5C 140.606,186.399 137.939,187.732 135.5,189.5C 128.055,197.063 119.388,202.896 109.5,207C 106.034,211.235 101.7,214.235 96.5,216C 92.9173,219.753 89.2506,223.253 85.5,226.5C 83.2143,226.405 81.2143,225.738 79.5,224.5C 86.5497,220.618 92.8831,215.785 98.5,210C 105.228,207.3 110.895,203.133 115.5,197.5C 123.729,192.314 132.062,187.314 140.5,182.5C 144.227,177.77 148.56,173.77 153.5,170.5 Z"/></g>
<g><path style="opacity:1" fill="#029bff" d="M 85.5,159.5 C 85.5,160.833 85.5,162.167 85.5,163.5C 70.2309,175.354 54.5643,186.687 38.5,197.5C 36.7376,196.738 35.7376,195.404 35.5,193.5C 41.3983,192.772 45.3983,189.605 47.5,184C 54.8264,178.381 62.1597,172.714 69.5,167C 74.6936,164.237 80.0269,161.737 85.5,159.5 Z"/></g>
<g><path style="opacity:1" fill="#ff006d" d="M 224.5,159.5 C 223.305,161.751 222.305,164.085 221.5,166.5C 214.811,170.845 207.811,174.679 200.5,178C 199.55,180.59 197.884,182.59 195.5,184C 188.696,186.248 183.03,190.248 178.5,196C 170.915,200.116 164.581,205.616 159.5,212.5C 157.459,213.236 155.459,214.069 153.5,215C 149.131,217.857 145.131,221.19 141.5,225C 137.708,225.716 135.042,227.883 133.5,231.5C 130.482,231.704 127.482,232.037 124.5,232.5C 132.215,227.633 139.549,222.133 146.5,216C 151.507,215.328 154.007,212.495 154,207.5C 157.621,205.602 160.788,203.102 163.5,200C 176.788,194.016 188.788,186.016 199.5,176C 208.227,171.108 216.56,165.608 224.5,159.5 Z"/></g>
<g><path style="opacity:1" fill="#0031ff" d="M 91.5,170.5 C 94.5,170.5 97.5,170.5 100.5,170.5C 89.2616,179.169 77.9283,187.669 66.5,196C 59.3594,197.661 53.3594,201.161 48.5,206.5C 47.5,206.167 46.8333,205.5 46.5,204.5C 58.85,196.094 71.1834,187.594 83.5,179C 86.8773,176.817 89.5439,173.983 91.5,170.5 Z"/></g>
<g><path style="opacity:1" fill="#9f00ff" d="M 151.5,166.5 C 151.229,168.38 151.896,169.713 153.5,170.5C 148.56,173.77 144.227,177.77 140.5,182.5C 132.062,187.314 123.729,192.314 115.5,197.5C 110.895,203.133 105.228,207.3 98.5,210C 92.8831,215.785 86.5497,220.618 79.5,224.5C 76.0878,223.958 73.0878,222.625 70.5,220.5C 84.3335,212.417 97.6668,203.584 110.5,194C 112.833,193 115.167,192 117.5,191C 127.833,181.508 139.167,173.342 151.5,166.5 Z"/></g>
<g><path style="opacity:1" fill="#2905ff" d="M 100.5,170.5 C 111.833,170.5 123.167,170.5 134.5,170.5C 130.584,172.975 127.25,176.142 124.5,180C 123.167,180.333 121.833,180.667 120.5,181C 102.898,193.117 86.231,206.284 70.5,220.5C 62.3585,217.01 55.0252,212.343 48.5,206.5C 53.3594,201.161 59.3594,197.661 66.5,196C 77.9283,187.669 89.2616,179.169 100.5,170.5 Z"/></g>
<g><path style="opacity:1" fill="#0275ff" d="M 85.5,163.5 C 85.5,165.5 85.5,167.5 85.5,169.5C 77.1244,177.204 67.791,183.704 57.5,189C 53.3331,194.572 47.9998,198.405 41.5,200.5C 40.1667,199.833 39.1667,198.833 38.5,197.5C 54.5643,186.687 70.2309,175.354 85.5,163.5 Z"/></g>
<g><path style="opacity:1" fill="#014afe" d="M 87.5,170.5 C 88.8333,170.5 90.1667,170.5 91.5,170.5C 89.5439,173.983 86.8773,176.817 83.5,179C 71.1834,187.594 58.85,196.094 46.5,204.5C 44.9731,204.573 43.9731,203.906 43.5,202.5C 55.8981,194.938 67.8981,186.771 79.5,178C 82.0362,175.295 84.7029,172.795 87.5,170.5 Z"/></g>
<g><path style="opacity:1" fill="#005cff" d="M 85.5,169.5 C 86.1667,169.833 86.8333,170.167 87.5,170.5C 84.7029,172.795 82.0362,175.295 79.5,178C 67.8981,186.771 55.8981,194.938 43.5,202.5C 42.5,202.167 41.8333,201.5 41.5,200.5C 47.9998,198.405 53.3331,194.572 57.5,189C 67.791,183.704 77.1244,177.204 85.5,169.5 Z"/></g>
<g><path style="opacity:1" fill="#ff0009" d="M 205.5,190.5 C 192.815,207.172 176.481,218.839 156.5,225.5C 159.652,221.865 163.652,219.699 168.5,219C 171.731,216.273 174.397,213.106 176.5,209.5C 186.434,203.564 196.101,197.231 205.5,190.5 Z"/></g>
<g><path style="opacity:1" fill="#ed00fe" d="M 162.5,170.5 C 166.833,170.5 171.167,170.5 175.5,170.5C 158.105,184.045 140.105,196.878 121.5,209C 118.833,212 116.167,215 113.5,218C 107.702,221.63 102.035,225.464 96.5,229.5C 92.4661,229.483 88.7994,228.483 85.5,226.5C 89.2506,223.253 92.9173,219.753 96.5,216C 101.7,214.235 106.034,211.235 109.5,207C 119.388,202.896 128.055,197.063 135.5,189.5C 137.939,187.732 140.606,186.399 143.5,185.5C 149.682,180.251 156.015,175.251 162.5,170.5 Z"/></g>
<g><path style="opacity:1" fill="#ff0026" d="M 212.5,182.5 C 210.628,185.582 208.295,188.249 205.5,190.5C 196.101,197.231 186.434,203.564 176.5,209.5C 174.397,213.106 171.731,216.273 168.5,219C 163.652,219.699 159.652,221.865 156.5,225.5C 151.454,227.767 146.121,229.434 140.5,230.5C 144.1,227.843 147.433,224.843 150.5,221.5C 168.427,211.862 185.427,200.695 201.5,188C 205.22,186.14 208.886,184.307 212.5,182.5 Z"/></g>
<g><path style="opacity:1" fill="#ff0088" d="M 226.5,153.5 C 225.637,155.421 224.971,157.421 224.5,159.5C 216.56,165.608 208.227,171.108 199.5,176C 188.788,186.016 176.788,194.016 163.5,200C 160.788,203.102 157.621,205.602 154,207.5C 154.007,212.495 151.507,215.328 146.5,216C 139.549,222.133 132.215,227.633 124.5,232.5C 121.833,232.5 119.167,232.5 116.5,232.5C 116.414,231.504 116.748,230.671 117.5,230C 123.606,226.614 128.94,222.281 133.5,217C 146.241,210.594 157.574,202.261 167.5,192C 170.217,189.975 173.217,188.475 176.5,187.5C 181.938,183.898 186.938,179.732 191.5,175C 203.187,167.825 214.853,160.659 226.5,153.5 Z"/></g>
<g><path style="opacity:1" fill="#ff0049" d="M 221.5,166.5 C 219.007,172.157 216.007,177.49 212.5,182.5C 208.886,184.307 205.22,186.14 201.5,188C 185.427,200.695 168.427,211.862 150.5,221.5C 147.433,224.843 144.1,227.843 140.5,230.5C 138.139,230.674 135.806,231.007 133.5,231.5C 135.042,227.883 137.708,225.716 141.5,225C 145.131,221.19 149.131,217.857 153.5,215C 155.459,214.069 157.459,213.236 159.5,212.5C 164.581,205.616 170.915,200.116 178.5,196C 183.03,190.248 188.696,186.248 195.5,184C 197.884,182.59 199.55,180.59 200.5,178C 207.811,174.679 214.811,170.845 221.5,166.5 Z"/></g>
</svg>
