<?xml version="1.0" encoding="UTF-8"?>
<!DOCTYPE svg PUBLIC "-//W3C//DTD SVG 1.1//EN" "http://www.w3.org/Graphics/SVG/1.1/DTD/svg11.dtd">
<svg xmlns="http://www.w3.org/2000/svg" version="1.1" width="256px" height="256px" style="shape-rendering:geometricPrecision; text-rendering:geometricPrecision; image-rendering:optimizeQuality; fill-rule:evenodd; clip-rule:evenodd" xmlns:xlink="http://www.w3.org/1999/xlink">
<g><path style="opacity:0.868" fill="#fefefe" d="M 118.5,9.5 C 171.758,8.53239 210.591,31.5324 235,78.5C 252.966,123.498 247.299,165.165 218,203.5C 180.456,243.428 135.623,254.594 83.5,237C 27.2968,210.106 3.46351,165.606 12,103.5C 26.7972,48.5273 62.2972,17.194 118.5,9.5 Z"/></g>
<g><path style="opacity:1" fill="#ff8700" d="M 116.5,16.5 C 112.929,18.6365 110.262,21.6365 108.5,25.5C 105.615,27.7686 102.615,29.7686 99.5,31.5C 98.2682,27.9728 96.9349,24.4728 95.5,21C 102.265,18.4278 109.265,16.9278 116.5,16.5 Z"/></g>
<g><path style="opacity:1" fill="#ffb500" d="M 123.5,15.5 C 122.985,20.3656 120.318,23.199 115.5,24C 110.922,28.3901 106.256,32.5567 101.5,36.5C 100.463,35.0697 99.7959,33.403 99.5,31.5C 102.615,29.7686 105.615,27.7686 108.5,25.5C 110.262,21.6365 112.929,18.6365 116.5,16.5C 118.903,16.552 121.236,16.2186 123.5,15.5 Z"/></g>
<g><path style="opacity:1" fill="#ffe201" d="M 123.5,15.5 C 127.042,15.1872 130.375,15.5206 133.5,16.5C 131.238,19.4008 128.404,21.7341 125,23.5C 123.561,26.2746 121.728,28.7746 119.5,31C 113.956,35.0611 108.623,39.2278 103.5,43.5C 102.388,41.4006 101.721,39.0673 101.5,36.5C 106.256,32.5567 110.922,28.3901 115.5,24C 120.318,23.199 122.985,20.3656 123.5,15.5 Z"/></g>
<g><path style="opacity:1" fill="#e0fe00" d="M 133.5,16.5 C 139.084,16.2549 144.417,16.9216 149.5,18.5C 148.781,20.0913 147.781,21.5913 146.5,23C 142.275,27.0538 137.609,30.5538 132.5,33.5C 130.926,34.9842 129.593,36.6508 128.5,38.5C 121.101,43.5228 113.767,48.5228 106.5,53.5C 105.101,50.3012 104.101,46.9679 103.5,43.5C 108.623,39.2278 113.956,35.0611 119.5,31C 121.728,28.7746 123.561,26.2746 125,23.5C 128.404,21.7341 131.238,19.4008 133.5,16.5 Z"/></g>
<g><path style="opacity:1" fill="#1cff17" d="M 167.5,23.5 C 175.265,25.8809 182.265,29.5476 188.5,34.5C 182.797,39.68 176.797,44.8467 170.5,50C 168.655,51.128 166.655,51.628 164.5,51.5C 162.352,55.6851 159.685,59.6851 156.5,63.5C 153.278,65.704 150.278,68.0373 147.5,70.5C 147.666,66.1539 147.499,61.8206 147,57.5C 145.333,56.1667 143.667,56.1667 142,57.5C 141.501,62.1548 141.334,66.8215 141.5,71.5C 134.137,71.1694 126.803,71.5027 119.5,72.5C 118.141,74.306 118.475,75.806 120.5,77C 127.158,77.4996 133.825,77.6663 140.5,77.5C 137.175,81.3525 133.175,84.5191 128.5,87C 126.172,90.5158 123.505,93.6824 120.5,96.5C 117.298,86.8934 114.298,77.2267 111.5,67.5C 120.992,61.4027 129.992,54.5694 138.5,47C 139.833,46.6667 141.167,46.3333 142.5,46C 151.404,38.9189 159.737,31.4189 167.5,23.5 Z"/></g>
<g><path style="opacity:1" fill="#68ff00" d="M 161.5,21.5 C 163.703,21.6036 165.703,22.2702 167.5,23.5C 159.737,31.4189 151.404,38.9189 142.5,46C 141.167,46.3333 139.833,46.6667 138.5,47C 129.992,54.5694 120.992,61.4027 111.5,67.5C 110.262,65.7857 109.595,63.7857 109.5,61.5C 112.386,60.9517 114.386,59.285 115.5,56.5C 119.206,53.2615 123.206,50.4282 127.5,48C 137.943,37.8346 149.277,29.0013 161.5,21.5 Z"/></g>
<g><path style="opacity:1" fill="#9bff00" d="M 149.5,18.5 C 153.761,18.8984 157.761,19.8984 161.5,21.5C 149.277,29.0013 137.943,37.8346 127.5,48C 123.206,50.4282 119.206,53.2615 115.5,56.5C 114.386,59.285 112.386,60.9517 109.5,61.5C 108.129,59.064 107.129,56.3973 106.5,53.5C 113.767,48.5228 121.101,43.5228 128.5,38.5C 129.593,36.6508 130.926,34.9842 132.5,33.5C 137.609,30.5538 142.275,27.0538 146.5,23C 147.781,21.5913 148.781,20.0913 149.5,18.5 Z"/></g>
<g><path style="opacity:1" fill="#00fe57" d="M 188.5,34.5 C 190.411,35.075 192.078,36.075 193.5,37.5C 193.631,38.3764 193.298,39.0431 192.5,39.5C 183.279,43.2118 175.613,49.0451 169.5,57C 164.42,61.0869 159.087,64.7536 153.5,68C 152.177,68.8159 151.511,69.9826 151.5,71.5C 149.901,71.7678 148.568,71.4345 147.5,70.5C 150.278,68.0373 153.278,65.704 156.5,63.5C 159.685,59.6851 162.352,55.6851 164.5,51.5C 166.655,51.628 168.655,51.128 170.5,50C 176.797,44.8467 182.797,39.68 188.5,34.5 Z"/></g>
<g><path style="opacity:1" fill="#ff3500" d="M 90.5,24.5 C 85.1636,28.171 79.8303,31.8377 74.5,35.5C 61.1343,46.8648 47.4676,57.8648 33.5,68.5C 46.6682,46.5684 65.3348,31.2351 89.5,22.5C 90.2975,22.9569 90.6309,23.6236 90.5,24.5 Z"/></g>
<g><path style="opacity:1" fill="#04d9ff" d="M 209.5,52.5 C 211.914,53.9108 213.581,55.9108 214.5,58.5C 211.319,59.3485 208.652,61.0152 206.5,63.5C 205.828,62.7326 204.995,62.0659 204,61.5C 201.618,62.5541 199.118,63.2208 196.5,63.5C 199.439,61.5894 202.439,59.5894 205.5,57.5C 206.612,55.5808 207.946,53.9142 209.5,52.5 Z"/></g>
<g><path style="opacity:1" fill="#07fee3" d="M 203.5,46.5 C 205.833,48.1667 207.833,50.1667 209.5,52.5C 207.946,53.9142 206.612,55.5808 205.5,57.5C 202.439,59.5894 199.439,61.5894 196.5,63.5C 191.126,65.5919 185.46,66.9252 179.5,67.5C 180.685,64.3545 183.018,62.5212 186.5,62C 192.388,56.9391 198.055,51.7725 203.5,46.5 Z"/></g>
<g><path style="opacity:1" fill="#ff5c00" d="M 90.5,24.5 C 90.5,24.8333 90.5,25.1667 90.5,25.5C 86.222,30.7726 81.222,35.4393 75.5,39.5C 72.8333,42.5 70.1667,45.5 67.5,48.5C 54.0333,59.4028 40.3666,70.0694 26.5,80.5C 28.0435,75.9758 30.3768,71.9758 33.5,68.5C 47.4676,57.8648 61.1343,46.8648 74.5,35.5C 79.8303,31.8377 85.1636,28.171 90.5,24.5 Z"/></g>
<g><path style="opacity:1" fill="#02fe7c" d="M 193.5,37.5 C 194.833,38.1667 195.833,39.1667 196.5,40.5C 196.719,41.675 196.386,42.675 195.5,43.5C 184.108,53.3041 172.441,62.3041 160.5,70.5C 157.609,71.4025 154.609,71.7359 151.5,71.5C 151.511,69.9826 152.177,68.8159 153.5,68C 159.087,64.7536 164.42,61.0869 169.5,57C 175.613,49.0451 183.279,43.2118 192.5,39.5C 193.298,39.0431 193.631,38.3764 193.5,37.5 Z"/></g>
<g><path style="opacity:1" fill="#01febf" d="M 201.5,44.5 C 202.5,44.8333 203.167,45.5 203.5,46.5C 198.055,51.7725 192.388,56.9391 186.5,62C 183.018,62.5212 180.685,64.3545 179.5,67.5C 176.411,68.7846 173.078,69.4512 169.5,69.5C 179.289,60.0442 189.956,51.7108 201.5,44.5 Z"/></g>
<g><path style="opacity:1" fill="#ffed00" d="M 97.5,44.5 C 97.5,45.5 97.5,46.5 97.5,47.5C 71.1041,70.228 44.1041,92.228 16.5,113.5C 16.5569,112.391 16.8902,111.391 17.5,110.5C 24.9804,103.33 32.6471,96.33 40.5,89.5C 48.3104,83.0925 56.6437,77.4258 65.5,72.5C 70.6273,67.2194 76.294,62.386 82.5,58C 85.2263,56.0767 87.2263,53.5767 88.5,50.5C 91.2518,48.0732 94.2518,46.0732 97.5,44.5 Z"/></g>
<g><path style="opacity:1" fill="#09ffa2" d="M 196.5,40.5 C 198.749,41.0798 200.415,42.4131 201.5,44.5C 189.956,51.7108 179.289,60.0442 169.5,69.5C 166.609,70.4025 163.609,70.7359 160.5,70.5C 172.441,62.3041 184.108,53.3041 195.5,43.5C 196.386,42.675 196.719,41.675 196.5,40.5 Z"/></g>
<g><path style="opacity:1" fill="#ffc400" d="M 95.5,38.5 C 95.5569,39.609 95.8902,40.609 96.5,41.5C 92.3315,45.0979 88.3315,48.9312 84.5,53C 78.6955,56.7417 73.0288,60.7417 67.5,65C 51.8154,78.8736 35.4821,91.7069 18.5,103.5C 18.8333,102.167 19.1667,100.833 19.5,99.5C 35.6065,86.9036 51.6065,74.0703 67.5,61C 69.441,59.0972 71.7743,58.2639 74.5,58.5C 74.3832,56.5165 75.0499,54.8498 76.5,53.5C 83.1639,48.8267 89.4973,43.8267 95.5,38.5 Z"/></g>
<g><path style="opacity:1" fill="#ff7900" d="M 90.5,25.5 C 91.871,27.936 92.871,30.6027 93.5,33.5C 90.6512,35.4247 87.6512,37.0914 84.5,38.5C 81.874,42.7281 78.2073,45.7281 73.5,47.5C 70.6551,50.7446 67.3218,53.2446 63.5,55C 53.3936,63.5999 43.3936,72.4332 33.5,81.5C 30.1436,83.5363 26.8103,85.5363 23.5,87.5C 24.2638,84.9823 25.2638,82.649 26.5,80.5C 40.3666,70.0694 54.0333,59.4028 67.5,48.5C 70.1667,45.5 72.8333,42.5 75.5,39.5C 81.222,35.4393 86.222,30.7726 90.5,25.5 Z"/></g>
<g><path style="opacity:1" fill="#04b1ff" d="M 214.5,58.5 C 216.543,59.5794 217.876,61.246 218.5,63.5C 209.688,70.6528 200.355,76.9861 190.5,82.5C 187.05,81.7564 185.384,83.0897 185.5,86.5C 181.438,88.9749 177.772,91.9749 174.5,95.5C 173.167,95.5 171.833,95.5 170.5,95.5C 173.978,91.8876 176.978,87.8876 179.5,83.5C 185.921,79.635 191.921,75.3017 197.5,70.5C 199.949,69.2092 202.616,68.2092 205.5,67.5C 206.429,66.3112 206.762,64.9778 206.5,63.5C 208.652,61.0152 211.319,59.3485 214.5,58.5 Z"/></g>
<g><path style="opacity:1" fill="#ff9600" d="M 93.5,33.5 C 93.5,33.8333 93.5,34.1667 93.5,34.5C 92.0401,36.4628 90.3734,38.2962 88.5,40C 65.654,58.3524 42.9874,76.8524 20.5,95.5C 21.1084,92.6733 22.1084,90.0067 23.5,87.5C 26.8103,85.5363 30.1436,83.5363 33.5,81.5C 43.3936,72.4332 53.3936,63.5999 63.5,55C 67.3218,53.2446 70.6551,50.7446 73.5,47.5C 78.2073,45.7281 81.874,42.7281 84.5,38.5C 87.6512,37.0914 90.6512,35.4247 93.5,33.5 Z"/></g>
<g><path style="opacity:1" fill="#ffad00" d="M 93.5,34.5 C 94.3446,35.6715 95.0113,37.0048 95.5,38.5C 89.4973,43.8267 83.1639,48.8267 76.5,53.5C 75.0499,54.8498 74.3832,56.5165 74.5,58.5C 71.7743,58.2639 69.441,59.0972 67.5,61C 51.6065,74.0703 35.6065,86.9036 19.5,99.5C 19.8333,98.1667 20.1667,96.8333 20.5,95.5C 42.9874,76.8524 65.654,58.3524 88.5,40C 90.3734,38.2962 92.0401,36.4628 93.5,34.5 Z"/></g>
<g><path style="opacity:1" fill="#0487ff" d="M 218.5,63.5 C 220.25,64.6594 221.25,66.326 221.5,68.5C 221.158,69.3382 220.492,69.6716 219.5,69.5C 214.426,71.8554 210.426,75.3554 207.5,80C 201.964,83.2629 196.63,86.7629 191.5,90.5C 191.721,87.7212 191.388,85.0545 190.5,82.5C 200.355,76.9861 209.688,70.6528 218.5,63.5 Z"/></g>
<g><path style="opacity:1" fill="#04fea8" d="M 159.5,77.5 C 159.489,79.0174 158.823,80.1841 157.5,81C 154.862,83.6538 151.862,85.8205 148.5,87.5C 148.54,84.1194 148.207,80.7861 147.5,77.5C 151.5,77.5 155.5,77.5 159.5,77.5 Z"/></g>
<g><path style="opacity:1" fill="#07ffcb" d="M 172.5,75.5 C 165.42,81.9065 157.753,87.5731 149.5,92.5C 148.549,91.0813 148.216,89.4147 148.5,87.5C 151.862,85.8205 154.862,83.6538 157.5,81C 158.823,80.1841 159.489,79.0174 159.5,77.5C 163.657,76.5511 167.99,75.8844 172.5,75.5 Z"/></g>
<g><path style="opacity:1" fill="#ffd900" d="M 96.5,41.5 C 96.5569,42.609 96.8902,43.609 97.5,44.5C 94.2518,46.0732 91.2518,48.0732 88.5,50.5C 87.2263,53.5767 85.2263,56.0767 82.5,58C 76.294,62.386 70.6273,67.2194 65.5,72.5C 56.6437,77.4258 48.3104,83.0925 40.5,89.5C 32.6471,96.33 24.9804,103.33 17.5,110.5C 17.448,108.097 17.7814,105.764 18.5,103.5C 35.4821,91.7069 51.8154,78.8736 67.5,65C 73.0288,60.7417 78.6955,56.7417 84.5,53C 88.3315,48.9312 92.3315,45.0979 96.5,41.5 Z"/></g>
<g><path style="opacity:1" fill="#0240ff" d="M 221.5,68.5 C 223.664,70.822 225.331,73.4887 226.5,76.5C 225.078,76.7086 223.745,77.2086 222.5,78C 213.894,85.7844 204.894,92.9511 195.5,99.5C 193.847,99.3404 192.514,98.6737 191.5,97.5C 194.451,95.8824 196.784,93.5491 198.5,90.5C 200.816,88.5065 203.482,87.5065 206.5,87.5C 206.421,86.0695 206.754,84.7362 207.5,83.5C 209.747,82.7554 211.58,81.422 213,79.5C 214.281,76.5526 216.281,74.2193 219,72.5C 219.483,71.552 219.649,70.552 219.5,69.5C 220.492,69.6716 221.158,69.3382 221.5,68.5 Z"/></g>
<g><path style="opacity:1" fill="#03e0ff" d="M 197.5,70.5 C 191.921,75.3017 185.921,79.635 179.5,83.5C 176.978,87.8876 173.978,91.8876 170.5,95.5C 163.652,96.3939 157.152,98.3939 151,101.5C 150.536,100.906 150.369,100.239 150.5,99.5C 161.573,91.3017 172.24,82.6351 182.5,73.5C 187.468,72.3414 192.468,71.3414 197.5,70.5 Z"/></g>
<g><path style="opacity:1" fill="#025fff" d="M 219.5,69.5 C 219.649,70.552 219.483,71.552 219,72.5C 216.281,74.2193 214.281,76.5526 213,79.5C 211.58,81.422 209.747,82.7554 207.5,83.5C 206.754,84.7362 206.421,86.0695 206.5,87.5C 203.482,87.5065 200.816,88.5065 198.5,90.5C 196.784,93.5491 194.451,95.8824 191.5,97.5C 190.583,95.3382 190.583,93.0048 191.5,90.5C 196.63,86.7629 201.964,83.2629 207.5,80C 210.426,75.3554 214.426,71.8554 219.5,69.5 Z"/></g>
<g><path style="opacity:1" fill="#02fef1" d="M 182.5,73.5 C 172.24,82.6351 161.573,91.3017 150.5,99.5C 149.532,97.3926 149.198,95.0593 149.5,92.5C 157.753,87.5731 165.42,81.9065 172.5,75.5C 175.865,74.9604 179.198,74.2937 182.5,73.5 Z"/></g>
<g><path style="opacity:1" fill="#039dff" d="M 185.5,86.5 C 185.492,89.5448 185.159,92.5448 184.5,95.5C 181.167,95.5 177.833,95.5 174.5,95.5C 177.772,91.9749 181.438,88.9749 185.5,86.5 Z"/></g>
<g><path style="opacity:1" fill="#f1fe00" d="M 97.5,47.5 C 98.7384,49.2143 99.405,51.2143 99.5,53.5C 90.818,62.0465 81.818,70.2132 72.5,78C 61.219,84.1395 50.5524,91.1395 40.5,99C 31.7129,105.18 23.7129,112.013 16.5,119.5C 16.5,117.5 16.5,115.5 16.5,113.5C 44.1041,92.228 71.1041,70.228 97.5,47.5 Z"/></g>
<g><path style="opacity:1" fill="#0bff84" d="M 140.5,77.5 C 142.082,80.8756 142.749,84.5422 142.5,88.5C 137.276,91.0531 132.942,94.7198 129.5,99.5C 127.146,100.998 124.813,102.332 122.5,103.5C 121.833,101.167 121.167,98.8333 120.5,96.5C 123.505,93.6824 126.172,90.5158 128.5,87C 133.175,84.5191 137.175,81.3525 140.5,77.5 Z"/></g>
<g><path style="opacity:1" fill="#2e07ff" d="M 226.5,76.5 C 230.331,82.9853 232.998,89.9853 234.5,97.5C 232.184,98.8056 229.85,100.139 227.5,101.5C 221.027,108.218 214.027,114.218 206.5,119.5C 205.928,111.014 202.261,104.348 195.5,99.5C 204.894,92.9511 213.894,85.7844 222.5,78C 223.745,77.2086 225.078,76.7086 226.5,76.5 Z"/></g>
<g><path style="opacity:0.892" fill="#fefefe" d="M 94.5,107.5 C 94.8333,109.5 95.1667,111.5 95.5,113.5C 96.3228,115.987 97.3228,118.321 98.5,120.5C 98.9628,123.221 99.6295,125.888 100.5,128.5C 101.696,131.421 102.696,134.421 103.5,137.5C 104.323,139.987 105.323,142.321 106.5,144.5C 106.263,145.791 106.596,146.791 107.5,147.5C 107.629,149.216 107.962,150.883 108.5,152.5C 108.796,154.403 109.463,156.07 110.5,157.5C 110.433,158.959 110.766,160.292 111.5,161.5C 112.129,164.397 113.129,167.064 114.5,169.5C 116.261,176.784 118.595,183.784 121.5,190.5C 121.92,192.674 121.92,194.674 121.5,196.5C 119.833,197.666 118.166,197.666 116.5,196.5C 113.701,187.437 110.701,178.437 107.5,169.5C 107.306,167.088 105.973,166.088 103.5,166.5C 102.5,166.5 101.5,166.5 100.5,166.5C 97.8333,166.5 95.1667,166.5 92.5,166.5C 89.8333,166.5 87.1667,166.5 84.5,166.5C 79.8215,166.334 75.1548,166.501 70.5,167C 68.3323,172.003 66.6656,177.17 65.5,182.5C 64.2616,184.214 63.595,186.214 63.5,188.5C 62.2811,191.291 60.9478,194.124 59.5,197C 56.7383,198.077 55.0717,197.244 54.5,194.5C 55.3627,192.579 56.0293,190.579 56.5,188.5C 57.696,185.579 58.696,182.579 59.5,179.5C 60.3627,177.579 61.0293,175.579 61.5,173.5C 62.5664,171.299 63.233,168.965 63.5,166.5C 65.2043,163.061 66.5376,159.395 67.5,155.5C 68.1667,153.833 68.8333,152.167 69.5,150.5C 70.1667,148.167 70.8333,145.833 71.5,143.5C 72.3052,141.085 73.3052,138.751 74.5,136.5C 75.3705,133.888 76.0372,131.221 76.5,128.5C 77.871,126.064 78.871,123.397 79.5,120.5C 81.8244,113.862 84.1577,107.195 86.5,100.5C 88.1667,99.1667 89.8333,99.1667 91.5,100.5C 92.3299,103.016 93.3299,105.35 94.5,107.5 Z"/></g>
<g><path style="opacity:1" fill="#caff00" d="M 99.5,53.5 C 100.404,54.209 100.737,55.209 100.5,56.5C 98.6452,58.0331 96.8119,59.6997 95,61.5C 94.5172,62.448 94.3505,63.448 94.5,64.5C 93.448,64.3505 92.448,64.5172 91.5,65C 83.1851,71.6571 75.5185,78.9904 68.5,87C 55.2099,96.6288 42.5432,106.962 30.5,118C 28.5,118.833 26.5,119.667 24.5,120.5C 22.7251,124.612 19.7251,127.278 15.5,128.5C 15.3677,125.43 15.701,122.43 16.5,119.5C 23.7129,112.013 31.7129,105.18 40.5,99C 50.5524,91.1395 61.219,84.1395 72.5,78C 81.818,70.2132 90.818,62.0465 99.5,53.5 Z"/></g>
<g><path style="opacity:1" fill="#01fe46" d="M 112.5,92.5 C 113.738,94.2143 114.405,96.2143 114.5,98.5C 114.489,100.017 113.823,101.184 112.5,102C 107.211,104.965 102.544,108.632 98.5,113C 97.552,113.483 96.552,113.649 95.5,113.5C 95.1667,111.5 94.8333,109.5 94.5,107.5C 100.122,102.026 106.122,97.0258 112.5,92.5 Z"/></g>
<g><path style="opacity:1" fill="#02ffe5" d="M 143.5,99.5 C 144.613,100.946 144.78,102.613 144,104.5C 138.27,107.562 133.103,111.396 128.5,116C 127.517,116.591 126.85,116.257 126.5,115C 125.852,113.56 125.519,112.06 125.5,110.5C 130.712,107.727 135.379,104.227 139.5,100C 140.793,99.51 142.127,99.3433 143.5,99.5 Z"/></g>
<g><path style="opacity:1" fill="#03a7ff" d="M 167.5,102.5 C 163.473,107.194 159.14,111.527 154.5,115.5C 153.587,113.067 152.587,110.567 151.5,108C 156.441,105.075 161.775,103.242 167.5,102.5 Z"/></g>
<g><path style="opacity:1" fill="#08ffbf" d="M 142.5,88.5 C 143.114,92.1352 143.448,95.8019 143.5,99.5C 142.127,99.3433 140.793,99.51 139.5,100C 135.379,104.227 130.712,107.727 125.5,110.5C 124.323,108.321 123.323,105.987 122.5,103.5C 124.813,102.332 127.146,100.998 129.5,99.5C 132.942,94.7198 137.276,91.0531 142.5,88.5 Z"/></g>
<g><path style="opacity:1" fill="#037fff" d="M 180.5,101.5 C 173.017,108.272 165.017,114.605 156.5,120.5C 155.463,119.07 154.796,117.403 154.5,115.5C 159.14,111.527 163.473,107.194 167.5,102.5C 171.735,101.564 176.069,101.231 180.5,101.5 Z"/></g>
<g><path style="opacity:1" fill="#06fe74" d="M 114.5,98.5 C 115.795,100.979 116.795,103.646 117.5,106.5C 111.008,110.916 104.675,115.583 98.5,120.5C 97.3228,118.321 96.3228,115.987 95.5,113.5C 96.552,113.649 97.552,113.483 98.5,113C 102.544,108.632 107.211,104.965 112.5,102C 113.823,101.184 114.489,100.017 114.5,98.5 Z"/></g>
<g><path style="opacity:1" fill="#95ff00" d="M 102.5,62.5 C 103.738,64.2143 104.405,66.2143 104.5,68.5C 104.631,69.2389 104.464,69.9056 104,70.5C 98.7619,76.0434 92.5952,80.0434 85.5,82.5C 83.6558,84.8429 81.6558,87.0096 79.5,89C 67.5,98.3333 55.5,107.667 43.5,117C 35.2074,125.135 26.2074,132.302 16.5,138.5C 16.4249,135.794 16.0916,133.127 15.5,130.5C 20.9282,127.142 26.2615,123.642 31.5,120C 34.5798,117 37.5798,114 40.5,111C 42.3921,110.027 44.3921,109.36 46.5,109C 52.771,100.494 60.771,93.8269 70.5,89C 73.3387,86.1188 76.0054,83.1188 78.5,80C 87.8124,75.8556 95.8124,70.0223 102.5,62.5 Z"/></g>
<g><path style="opacity:1" fill="#0257ff" d="M 180.5,101.5 C 181.376,101.369 182.043,101.702 182.5,102.5C 181.864,104.78 180.864,106.78 179.5,108.5C 172.519,114.143 165.519,119.81 158.5,125.5C 157.463,124.07 156.796,122.403 156.5,120.5C 165.017,114.605 173.017,108.272 180.5,101.5 Z"/></g>
<g><path style="opacity:1" fill="#8100ff" d="M 234.5,97.5 C 235.612,99.5994 236.279,101.933 236.5,104.5C 228.303,110.111 220.636,116.445 213.5,123.5C 211.757,125.038 209.757,126.038 207.5,126.5C 207.702,124.05 207.369,121.717 206.5,119.5C 214.027,114.218 221.027,108.218 227.5,101.5C 229.85,100.139 232.184,98.8056 234.5,97.5 Z"/></g>
<g><path style="opacity:1" fill="#b0ff00" d="M 100.5,56.5 C 101.738,58.2143 102.405,60.2143 102.5,62.5C 95.8124,70.0223 87.8124,75.8556 78.5,80C 76.0054,83.1188 73.3387,86.1188 70.5,89C 60.771,93.8269 52.771,100.494 46.5,109C 44.3921,109.36 42.3921,110.027 40.5,111C 37.5798,114 34.5798,117 31.5,120C 26.2615,123.642 20.9282,127.142 15.5,130.5C 15.5,129.833 15.5,129.167 15.5,128.5C 19.7251,127.278 22.7251,124.612 24.5,120.5C 26.5,119.667 28.5,118.833 30.5,118C 42.5432,106.962 55.2099,96.6288 68.5,87C 75.5185,78.9904 83.1851,71.6571 91.5,65C 92.448,64.5172 93.448,64.3505 94.5,64.5C 94.3505,63.448 94.5172,62.448 95,61.5C 96.8119,59.6997 98.6452,58.0331 100.5,56.5 Z"/></g>
<g><path style="opacity:1" fill="#04feac" d="M 117.5,106.5 C 118.167,108.833 118.833,111.167 119.5,113.5C 118.417,113.539 117.417,113.873 116.5,114.5C 111.556,119.857 106.223,124.523 100.5,128.5C 99.6295,125.888 98.9628,123.221 98.5,120.5C 104.675,115.583 111.008,110.916 117.5,106.5 Z"/></g>
<g><path style="opacity:1" fill="#08ceff" d="M 147.5,113.5 C 141.689,117.917 136.022,122.584 130.5,127.5C 129.972,126.153 129.805,124.819 130,123.5C 134.435,118.226 139.602,113.893 145.5,110.5C 146.425,111.357 147.092,112.357 147.5,113.5 Z"/></g>
<g><path style="opacity:1" fill="#3502ff" d="M 200.5,120.5 C 191.777,129.886 182.111,138.22 171.5,145.5C 169.376,143.941 167.709,141.941 166.5,139.5C 175.738,128.859 183.072,117.025 188.5,104C 196.206,106.504 200.206,112.004 200.5,120.5 Z"/></g>
<g><path style="opacity:1" fill="#06fee8" d="M 119.5,113.5 C 120.899,116.699 121.899,120.032 122.5,123.5C 116.148,128.191 109.815,132.858 103.5,137.5C 102.696,134.421 101.696,131.421 100.5,128.5C 106.223,124.523 111.556,119.857 116.5,114.5C 117.417,113.873 118.417,113.539 119.5,113.5 Z"/></g>
<g><path style="opacity:1" fill="#05a8ff" d="M 147.5,113.5 C 147.604,115.703 148.27,117.703 149.5,119.5C 143.63,123.192 137.963,127.192 132.5,131.5C 131.655,130.329 130.989,128.995 130.5,127.5C 136.022,122.584 141.689,117.917 147.5,113.5 Z"/></g>
<g><path style="opacity:1" fill="#ef00ff" d="M 238.5,116.5 C 238.5,117.5 238.5,118.5 238.5,119.5C 209.211,142.454 180.211,165.787 151.5,189.5C 150.662,189.158 150.328,188.492 150.5,187.5C 154.413,183.517 158.413,179.517 162.5,175.5C 172.995,170.247 181.995,163.081 189.5,154C 195.552,150.785 200.885,146.618 205.5,141.5C 209.573,140.259 212.573,137.759 214.5,134C 221.109,130.866 226.776,126.533 231.5,121C 234.267,119.963 236.601,118.463 238.5,116.5 Z"/></g>
<g><path style="opacity:1" fill="#06fe68" d="M 92.5,124.5 C 89.2988,125.453 86.2988,126.786 83.5,128.5C 85.2264,122.82 87.0598,117.154 89,111.5C 90.3269,115.809 91.4935,120.142 92.5,124.5 Z"/></g>
<g><path style="opacity:1" fill="#022aff" d="M 179.5,108.5 C 175.82,118.017 170.32,126.351 163,133.5C 160.716,131.264 159.216,128.598 158.5,125.5C 165.519,119.81 172.519,114.143 179.5,108.5 Z"/></g>
<g><path style="opacity:1" fill="#028dff" d="M 149.5,119.5 C 149.833,120.833 150.167,122.167 150.5,123.5C 149.417,123.539 148.417,123.873 147.5,124.5C 143.677,129.471 139.011,133.471 133.5,136.5C 132.962,134.883 132.629,133.216 132.5,131.5C 137.963,127.192 143.63,123.192 149.5,119.5 Z"/></g>
<g><path style="opacity:1" fill="#ff00cc" d="M 239.5,125.5 C 239.5,127.5 239.5,129.5 239.5,131.5C 233.022,134.115 228.022,138.448 224.5,144.5C 217.284,150.878 209.617,156.711 201.5,162C 193.931,170.565 184.931,177.231 174.5,182C 168.395,188.214 161.728,193.714 154.5,198.5C 153.596,197.791 153.263,196.791 153.5,195.5C 163.016,187.372 172.682,179.205 182.5,171C 187.698,167.303 193.031,163.803 198.5,160.5C 202.161,154.644 207.161,150.144 213.5,147C 221.433,138.897 230.099,131.73 239.5,125.5 Z"/></g>
<g><path style="opacity:1" fill="#026bff" d="M 150.5,123.5 C 151.11,124.391 151.443,125.391 151.5,126.5C 147.611,133.056 142.278,138.389 135.5,142.5C 135.029,140.421 134.363,138.421 133.5,136.5C 139.011,133.471 143.677,129.471 147.5,124.5C 148.417,123.873 149.417,123.539 150.5,123.5 Z"/></g>
<g><path style="opacity:1" fill="#03deff" d="M 122.5,123.5 C 123.738,125.214 124.405,127.214 124.5,129.5C 118.011,134.055 112.011,139.055 106.5,144.5C 105.323,142.321 104.323,139.987 103.5,137.5C 109.815,132.858 116.148,128.191 122.5,123.5 Z"/></g>
<g><path style="opacity:1" fill="#01c2ff" d="M 124.5,129.5 C 125.537,130.93 126.204,132.597 126.5,134.5C 123.533,134.989 120.867,136.155 118.5,138C 114.32,140.687 110.654,143.854 107.5,147.5C 106.596,146.791 106.263,145.791 106.5,144.5C 112.011,139.055 118.011,134.055 124.5,129.5 Z"/></g>
<g><path style="opacity:1" fill="#03fe99" d="M 92.5,124.5 C 93.7384,126.214 94.405,128.214 94.5,130.5C 90.0161,134.578 85.0161,137.911 79.5,140.5C 80.6373,136.421 81.9706,132.421 83.5,128.5C 86.2988,126.786 89.2988,125.453 92.5,124.5 Z"/></g>
<g><path style="opacity:1" fill="#ce00ff" d="M 236.5,104.5 C 237.593,108.394 238.26,112.394 238.5,116.5C 236.601,118.463 234.267,119.963 231.5,121C 226.776,126.533 221.109,130.866 214.5,134C 212.573,137.759 209.573,140.259 205.5,141.5C 200.885,146.618 195.552,150.785 189.5,154C 181.995,163.081 172.995,170.247 162.5,175.5C 158.413,179.517 154.413,183.517 150.5,187.5C 149.434,185.299 148.767,182.965 148.5,180.5C 153.233,177.276 157.567,173.442 161.5,169C 165.66,167.088 169.66,164.921 173.5,162.5C 174.429,161.311 174.762,159.978 174.5,158.5C 178.073,157.604 180.739,155.438 182.5,152C 184.86,150.82 187.193,149.653 189.5,148.5C 190.659,150.377 192.326,150.877 194.5,150C 201.578,143.676 205.912,135.842 207.5,126.5C 209.757,126.038 211.757,125.038 213.5,123.5C 220.636,116.445 228.303,110.111 236.5,104.5 Z"/></g>
<g><path style="opacity:1" fill="#5bff00" d="M 104.5,68.5 C 105.677,70.6794 106.677,73.0128 107.5,75.5C 102.011,81.4688 95.6772,86.6355 88.5,91C 82.8323,97.1613 76.1657,101.995 68.5,105.5C 64.2654,108.567 60.932,112.4 58.5,117C 55.381,119.893 51.7143,121.726 47.5,122.5C 42.0276,127.306 37.0276,132.306 32.5,137.5C 31.448,137.351 30.448,137.517 29.5,138C 25.625,141.381 21.625,144.547 17.5,147.5C 17.0371,144.518 16.7038,141.518 16.5,138.5C 26.2074,132.302 35.2074,125.135 43.5,117C 55.5,107.667 67.5,98.3333 79.5,89C 81.6558,87.0096 83.6558,84.8429 85.5,82.5C 92.5952,80.0434 98.7619,76.0434 104,70.5C 104.464,69.9056 104.631,69.2389 104.5,68.5 Z"/></g>
<g><path style="opacity:1" fill="#0845ff" d="M 151.5,126.5 C 152.737,127.965 153.737,129.632 154.5,131.5C 149.358,136.135 144.024,140.635 138.5,145C 139.598,145.77 139.598,146.603 138.5,147.5C 136.953,146.232 135.953,144.565 135.5,142.5C 142.278,138.389 147.611,133.056 151.5,126.5 Z"/></g>
<g><path style="opacity:1" fill="#07ffc2" d="M 94.5,130.5 C 95.3446,131.671 96.0113,133.005 96.5,134.5C 90.0925,140.874 83.0925,146.541 75.5,151.5C 76.4624,147.605 77.7957,143.939 79.5,140.5C 85.0161,137.911 90.0161,134.578 94.5,130.5 Z"/></g>
<g><path style="opacity:1" fill="#001fff" d="M 154.5,131.5 C 155.446,133.89 156.779,136.056 158.5,138C 152.989,143.589 146.322,146.755 138.5,147.5C 139.598,146.603 139.598,145.77 138.5,145C 144.024,140.635 149.358,136.135 154.5,131.5 Z"/></g>
<g><path style="opacity:1" fill="#ff00af" d="M 239.5,131.5 C 238.85,133.435 238.517,135.435 238.5,137.5C 231.161,142.849 224.161,148.682 217.5,155C 213.402,157.51 209.402,160.176 205.5,163C 203.629,165.37 201.962,167.87 200.5,170.5C 191.408,175.705 183.075,181.872 175.5,189C 172.726,190.781 169.726,192.115 166.5,193C 162.939,196.073 159.272,198.906 155.5,201.5C 154.596,200.791 154.263,199.791 154.5,198.5C 161.728,193.714 168.395,188.214 174.5,182C 184.931,177.231 193.931,170.565 201.5,162C 209.617,156.711 217.284,150.878 224.5,144.5C 228.022,138.448 233.022,134.115 239.5,131.5 Z"/></g>
<g><path style="opacity:1" fill="#01a5ff" d="M 126.5,134.5 C 126.833,135.167 127.167,135.833 127.5,136.5C 120.981,141.596 114.648,146.929 108.5,152.5C 107.962,150.883 107.629,149.216 107.5,147.5C 110.654,143.854 114.32,140.687 118.5,138C 120.867,136.155 123.533,134.989 126.5,134.5 Z"/></g>
<g><path style="opacity:1" fill="#0166ff" d="M 128.5,141.5 C 129.537,142.93 130.204,144.597 130.5,146.5C 124.364,151.802 118.031,156.802 111.5,161.5C 110.766,160.292 110.433,158.959 110.5,157.5C 115.666,151.247 121.666,145.914 128.5,141.5 Z"/></g>
<g><path style="opacity:1" fill="#00fe3b" d="M 79.5,120.5 C 78.871,123.397 77.871,126.064 76.5,128.5C 72.3821,129.725 68.7154,131.725 65.5,134.5C 52.0411,146.638 38.0411,157.972 23.5,168.5C 23.1075,166.716 22.4408,165.05 21.5,163.5C 34.7895,156.047 46.7895,146.88 57.5,136C 62.9728,132.36 68.3062,128.527 73.5,124.5C 74.3857,123.675 74.719,122.675 74.5,121.5C 76.2161,121.371 77.8828,121.038 79.5,120.5 Z"/></g>
<g><path style="opacity:1" fill="#1aff07" d="M 107.5,75.5 C 109.369,81.1081 111.036,86.7748 112.5,92.5C 106.122,97.0258 100.122,102.026 94.5,107.5C 93.3299,105.35 92.3299,103.016 91.5,100.5C 89.8333,99.1667 88.1667,99.1667 86.5,100.5C 84.1577,107.195 81.8244,113.862 79.5,120.5C 77.8828,121.038 76.2161,121.371 74.5,121.5C 74.719,122.675 74.3857,123.675 73.5,124.5C 68.3062,128.527 62.9728,132.36 57.5,136C 46.7895,146.88 34.7895,156.047 21.5,163.5C 20.1667,158.167 18.8333,152.833 17.5,147.5C 21.625,144.547 25.625,141.381 29.5,138C 30.448,137.517 31.448,137.351 32.5,137.5C 37.0276,132.306 42.0276,127.306 47.5,122.5C 51.7143,121.726 55.381,119.893 58.5,117C 60.932,112.4 64.2654,108.567 68.5,105.5C 76.1657,101.995 82.8323,97.1613 88.5,91C 95.6772,86.6355 102.011,81.4688 107.5,75.5 Z"/></g>
<g><path style="opacity:1" fill="#01fe5b" d="M 76.5,128.5 C 76.0372,131.221 75.3705,133.888 74.5,136.5C 64.3724,141.235 55.7057,147.901 48.5,156.5C 40.2174,161.496 32.5508,167.163 25.5,173.5C 25.1075,171.716 24.4408,170.05 23.5,168.5C 38.0411,157.972 52.0411,146.638 65.5,134.5C 68.7154,131.725 72.3821,129.725 76.5,128.5 Z"/></g>
<g><path style="opacity:1" fill="#04fcf0" d="M 96.5,134.5 C 97.5,137.833 98.5,141.167 99.5,144.5C 94.3009,148.534 88.9676,152.368 83.5,156C 82.3012,157.694 80.9678,159.194 79.5,160.5C 77.076,160.808 74.7427,160.474 72.5,159.5C 73.5084,156.805 74.5084,154.138 75.5,151.5C 83.0925,146.541 90.0925,140.874 96.5,134.5 Z"/></g>
<g><path style="opacity:1" fill="#02d9ff" d="M 99.5,144.5 C 100.167,146.167 100.833,147.833 101.5,149.5C 96.9636,152.879 92.6303,156.546 88.5,160.5C 85.5,160.5 82.5,160.5 79.5,160.5C 80.9678,159.194 82.3012,157.694 83.5,156C 88.9676,152.368 94.3009,148.534 99.5,144.5 Z"/></g>
<g><path style="opacity:1" fill="#0485ff" d="M 127.5,136.5 C 128.038,138.117 128.371,139.784 128.5,141.5C 121.666,145.914 115.666,151.247 110.5,157.5C 109.463,156.07 108.796,154.403 108.5,152.5C 114.648,146.929 120.981,141.596 127.5,136.5 Z"/></g>
<g><path style="opacity:1" fill="#0daeff" d="M 101.5,149.5 C 102.495,152.821 103.495,156.154 104.5,159.5C 99.2079,160.495 93.8746,160.828 88.5,160.5C 92.6303,156.546 96.9636,152.879 101.5,149.5 Z"/></g>
<g><path style="opacity:1" fill="#fe00f0" d="M 238.5,119.5 C 239.15,121.435 239.483,123.435 239.5,125.5C 230.099,131.73 221.433,138.897 213.5,147C 207.161,150.144 202.161,154.644 198.5,160.5C 193.031,163.803 187.698,167.303 182.5,171C 172.682,179.205 163.016,187.372 153.5,195.5C 152.262,193.786 151.595,191.786 151.5,189.5C 180.211,165.787 209.211,142.454 238.5,119.5 Z"/></g>
<g><path style="opacity:1" fill="#0638ff" d="M 130.5,146.5 C 131.5,149.167 132.5,151.833 133.5,154.5C 129.23,157.159 124.897,159.826 120.5,162.5C 118.109,164.553 116.109,166.886 114.5,169.5C 113.129,167.064 112.129,164.397 111.5,161.5C 118.031,156.802 124.364,151.802 130.5,146.5 Z"/></g>
<g><path style="opacity:1" fill="#5301ff" d="M 168.5,152.5 C 164.784,154.339 161.117,156.506 157.5,159C 154.696,164.304 150.696,168.471 145.5,171.5C 142.928,165.784 140.928,159.784 139.5,153.5C 148,152.669 155.333,149.336 161.5,143.5C 164.209,146.208 166.542,149.208 168.5,152.5 Z"/></g>
<g><path style="opacity:1" fill="#8400ff" d="M 200.5,120.5 C 201.411,125.636 200.744,130.636 198.5,135.5C 187.585,144.396 176.585,153.396 165.5,162.5C 158.866,166.156 152.533,170.156 146.5,174.5C 145.596,173.791 145.263,172.791 145.5,171.5C 150.696,168.471 154.696,164.304 157.5,159C 161.117,156.506 164.784,154.339 168.5,152.5C 171.246,155.367 173.58,155.033 175.5,151.5C 174.533,149.21 173.2,147.21 171.5,145.5C 182.111,138.22 191.777,129.886 200.5,120.5 Z"/></g>
<g><path style="opacity:1" fill="#ac00ff" d="M 198.5,135.5 C 196.366,139.44 193.532,142.773 190,145.5C 189.517,146.448 189.351,147.448 189.5,148.5C 187.193,149.653 184.86,150.82 182.5,152C 180.739,155.438 178.073,157.604 174.5,158.5C 174.762,159.978 174.429,161.311 173.5,162.5C 169.66,164.921 165.66,167.088 161.5,169C 157.567,173.442 153.233,177.276 148.5,180.5C 147.262,178.786 146.595,176.786 146.5,174.5C 152.533,170.156 158.866,166.156 165.5,162.5C 176.585,153.396 187.585,144.396 198.5,135.5 Z"/></g>
<g><path style="opacity:1" fill="#03fe7d" d="M 74.5,136.5 C 73.3052,138.751 72.3052,141.085 71.5,143.5C 57.7836,155.867 43.4503,167.534 28.5,178.5C 27.2632,177.035 26.2632,175.368 25.5,173.5C 32.5508,167.163 40.2174,161.496 48.5,156.5C 55.7057,147.901 64.3724,141.235 74.5,136.5 Z"/></g>
<g><path style="opacity:1" fill="#01fe9d" d="M 71.5,143.5 C 70.8333,145.833 70.1667,148.167 69.5,150.5C 56.8146,161.181 43.8146,171.514 30.5,181.5C 29.0937,181.027 28.427,180.027 28.5,178.5C 43.4503,167.534 57.7836,155.867 71.5,143.5 Z"/></g>
<g><path style="opacity:1" fill="#ff0074" d="M 237.5,144.5 C 237.675,146.621 237.341,148.621 236.5,150.5C 234.811,151.931 232.811,152.764 230.5,153C 221.705,161.288 212.705,169.288 203.5,177C 199.697,179.071 196.03,181.404 192.5,184C 189.43,187.667 186.096,191 182.5,194C 176.646,197.711 170.979,201.544 165.5,205.5C 163.553,208.464 161.553,211.464 159.5,214.5C 158.388,212.401 157.721,210.067 157.5,207.5C 162.917,204.254 167.583,200.088 171.5,195C 174.997,192.417 178.664,190.084 182.5,188C 188.893,182.285 195.559,176.785 202.5,171.5C 207.323,169.702 211.657,167.369 215.5,164.5C 215.281,163.325 215.614,162.325 216.5,161.5C 220.977,158.857 224.643,155.357 227.5,151C 231.235,149.428 234.568,147.262 237.5,144.5 Z"/></g>
<g><path style="opacity:1" fill="#01ffd8" d="M 67.5,155.5 C 66.5376,159.395 65.2043,163.061 63.5,166.5C 54.3287,172.26 45.6621,178.76 37.5,186C 36.2068,186.49 34.8734,186.657 33.5,186.5C 32.8333,186.5 32.5,186.167 32.5,185.5C 39.2343,180.958 45.901,176.125 52.5,171C 57.1001,165.383 62.1001,160.217 67.5,155.5 Z"/></g>
<g><path style="opacity:1" fill="#3404ff" d="M 133.5,154.5 C 135.5,161.501 137.5,168.501 139.5,175.5C 135.699,179.466 131.699,183.3 127.5,187C 125.595,188.421 123.595,189.588 121.5,190.5C 118.595,183.784 116.261,176.784 114.5,169.5C 116.109,166.886 118.109,164.553 120.5,162.5C 124.897,159.826 129.23,157.159 133.5,154.5 Z"/></g>
<g><path style="opacity:1" fill="#ff0006" d="M 231.5,167.5 C 218.789,198.544 196.789,220.211 165.5,232.5C 163.769,228.972 162.435,225.306 161.5,221.5C 170.07,217.549 177.07,211.715 182.5,204C 183.5,203.667 184.5,203.333 185.5,203C 190.148,199.255 194.482,195.088 198.5,190.5C 208.576,185.443 217.576,178.776 225.5,170.5C 227.528,169.451 229.528,168.451 231.5,167.5 Z"/></g>
<g><path style="opacity:1" fill="#01fef2" d="M 63.5,166.5 C 63.233,168.965 62.5664,171.299 61.5,173.5C 53.188,179.483 45.188,185.816 37.5,192.5C 35.1782,191.198 33.8449,189.198 33.5,186.5C 34.8734,186.657 36.2068,186.49 37.5,186C 45.6621,178.76 54.3287,172.26 63.5,166.5 Z"/></g>
<g><path style="opacity:1" fill="#04c3ff" d="M 84.5,166.5 C 78.7626,172.536 72.4292,177.87 65.5,182.5C 66.6656,177.17 68.3323,172.003 70.5,167C 75.1548,166.501 79.8215,166.334 84.5,166.5 Z"/></g>
<g><path style="opacity:1" fill="#01febb" d="M 69.5,150.5 C 68.8333,152.167 68.1667,153.833 67.5,155.5C 62.1001,160.217 57.1001,165.383 52.5,171C 45.901,176.125 39.2343,180.958 32.5,185.5C 31.3263,184.486 30.6596,183.153 30.5,181.5C 43.8146,171.514 56.8146,161.181 69.5,150.5 Z"/></g>
<g><path style="opacity:1" fill="#014aff" d="M 103.5,166.5 C 105.973,166.088 107.306,167.088 107.5,169.5C 101.656,175.441 94.9891,180.441 87.5,184.5C 85.2121,187.791 82.5455,190.791 79.5,193.5C 70.9608,199.264 62.6275,205.264 54.5,211.5C 53.1667,210.833 52.1667,209.833 51.5,208.5C 55.4003,203.961 60.4003,201.628 66.5,201.5C 66.33,200.178 66.6634,199.011 67.5,198C 79.9022,187.684 91.9022,177.184 103.5,166.5 Z"/></g>
<g><path style="opacity:1" fill="#029cff" d="M 84.5,166.5 C 87.1667,166.5 89.8333,166.5 92.5,166.5C 88.2086,173.159 82.2086,177.659 74.5,180C 70.9574,183.049 67.2907,185.882 63.5,188.5C 63.595,186.214 64.2616,184.214 65.5,182.5C 72.4292,177.87 78.7626,172.536 84.5,166.5 Z"/></g>
<g><path style="opacity:1" fill="#02d0ff" d="M 59.5,179.5 C 58.696,182.579 57.696,185.579 56.5,188.5C 51.5463,191.785 46.8797,195.452 42.5,199.5C 41.0256,198.564 40.0256,197.23 39.5,195.5C 46.1274,190.178 52.7941,184.844 59.5,179.5 Z"/></g>
<g><path style="opacity:1" fill="#ff0091" d="M 238.5,137.5 C 238.702,139.95 238.369,142.283 237.5,144.5C 234.568,147.262 231.235,149.428 227.5,151C 224.643,155.357 220.977,158.857 216.5,161.5C 215.614,162.325 215.281,163.325 215.5,164.5C 211.657,167.369 207.323,169.702 202.5,171.5C 195.559,176.785 188.893,182.285 182.5,188C 178.664,190.084 174.997,192.417 171.5,195C 167.583,200.088 162.917,204.254 157.5,207.5C 156.262,205.786 155.595,203.786 155.5,201.5C 159.272,198.906 162.939,196.073 166.5,193C 169.726,192.115 172.726,190.781 175.5,189C 183.075,181.872 191.408,175.705 200.5,170.5C 201.962,167.87 203.629,165.37 205.5,163C 209.402,160.176 213.402,157.51 217.5,155C 224.161,148.682 231.161,142.849 238.5,137.5 Z"/></g>
<g><path style="opacity:1" fill="#01e9ff" d="M 61.5,173.5 C 61.0293,175.579 60.3627,177.579 59.5,179.5C 52.7941,184.844 46.1274,190.178 39.5,195.5C 38.0937,195.027 37.427,194.027 37.5,192.5C 45.188,185.816 53.188,179.483 61.5,173.5 Z"/></g>
<g><path style="opacity:1" fill="#02aeff" d="M 56.5,188.5 C 56.0293,190.579 55.3627,192.579 54.5,194.5C 51.5032,197.163 48.5032,199.83 45.5,202.5C 44.1667,201.833 43.1667,200.833 42.5,199.5C 46.8797,195.452 51.5463,191.785 56.5,188.5 Z"/></g>
<g><path style="opacity:1" fill="#0164ff" d="M 100.5,166.5 C 101.5,166.5 102.5,166.5 103.5,166.5C 91.9022,177.184 79.9022,187.684 67.5,198C 66.6634,199.011 66.33,200.178 66.5,201.5C 60.4003,201.628 55.4003,203.961 51.5,208.5C 50.8333,208.5 50.5,208.167 50.5,207.5C 52.1322,205.673 53.7988,203.839 55.5,202C 60.2143,199.604 64.5477,196.604 68.5,193C 71.2301,188.28 75.2301,184.947 80.5,183C 83.843,180.823 86.5096,177.99 88.5,174.5C 93.3333,172.986 97.3333,170.319 100.5,166.5 Z"/></g>
<g><path style="opacity:1" fill="#fa00fb" d="M 145.5,193.5 C 146.404,194.209 146.737,195.209 146.5,196.5C 142.254,198.949 138.92,202.283 136.5,206.5C 129.635,211.567 123.301,217.067 117.5,223C 111.926,226.942 106.593,231.109 101.5,235.5C 99.4352,235.483 97.4352,235.15 95.5,234.5C 99.6562,228.454 105.323,224.287 112.5,222C 116.302,217.28 120.302,212.78 124.5,208.5C 130.047,205.221 135.047,201.221 139.5,196.5C 141.626,195.63 143.626,194.63 145.5,193.5 Z"/></g>
<g><path style="opacity:1" fill="#ff0031" d="M 234.5,158.5 C 234.095,161.715 233.095,164.715 231.5,167.5C 229.528,168.451 227.528,169.451 225.5,170.5C 217.576,178.776 208.576,185.443 198.5,190.5C 194.482,195.088 190.148,199.255 185.5,203C 184.5,203.333 183.5,203.667 182.5,204C 177.07,211.715 170.07,217.549 161.5,221.5C 160.766,220.292 160.433,218.959 160.5,217.5C 163.842,214.827 167.508,212.661 171.5,211C 173.928,203.194 179.261,198.861 187.5,198C 199.026,186.64 211.026,175.807 223.5,165.5C 225.323,164.253 227.323,163.586 229.5,163.5C 229.963,160.745 231.63,159.078 234.5,158.5 Z"/></g>
<g><path style="opacity:1" fill="#2c0bff" d="M 107.5,169.5 C 110.701,178.437 113.701,187.437 116.5,196.5C 112.52,198.332 108.52,200.165 104.5,202C 94.8023,210.175 85.1356,218.341 75.5,226.5C 67.6411,222.632 60.6411,217.632 54.5,211.5C 62.6275,205.264 70.9608,199.264 79.5,193.5C 82.5455,190.791 85.2121,187.791 87.5,184.5C 94.9891,180.441 101.656,175.441 107.5,169.5 Z"/></g>
<g><path style="opacity:1" fill="#037eff" d="M 92.5,166.5 C 95.1667,166.5 97.8333,166.5 100.5,166.5C 97.3333,170.319 93.3333,172.986 88.5,174.5C 86.5096,177.99 83.843,180.823 80.5,183C 75.2301,184.947 71.2301,188.28 68.5,193C 64.5477,196.604 60.2143,199.604 55.5,202C 53.7988,203.839 52.1322,205.673 50.5,207.5C 48.5,206.167 46.8333,204.5 45.5,202.5C 48.5032,199.83 51.5032,197.163 54.5,194.5C 55.0717,197.244 56.7383,198.077 59.5,197C 60.9478,194.124 62.2811,191.291 63.5,188.5C 67.2907,185.882 70.9574,183.049 74.5,180C 82.2086,177.659 88.2086,173.159 92.5,166.5 Z"/></g>
<g><path style="opacity:1" fill="#ff0051" d="M 236.5,150.5 C 236.142,153.267 235.475,155.933 234.5,158.5C 231.63,159.078 229.963,160.745 229.5,163.5C 227.323,163.586 225.323,164.253 223.5,165.5C 211.026,175.807 199.026,186.64 187.5,198C 179.261,198.861 173.928,203.194 171.5,211C 167.508,212.661 163.842,214.827 160.5,217.5C 159.596,216.791 159.263,215.791 159.5,214.5C 161.553,211.464 163.553,208.464 165.5,205.5C 170.979,201.544 176.646,197.711 182.5,194C 186.096,191 189.43,187.667 192.5,184C 196.03,181.404 199.697,179.071 203.5,177C 212.705,169.288 221.705,161.288 230.5,153C 232.811,152.764 234.811,151.931 236.5,150.5 Z"/></g>
<g><path style="opacity:1" fill="#9000ff" d="M 139.5,175.5 C 141.072,178.215 142.072,181.215 142.5,184.5C 140.779,186.694 138.445,187.861 135.5,188C 132.038,191.631 128.371,194.965 124.5,198C 123.552,198.483 122.552,198.649 121.5,198.5C 121.649,199.552 121.483,200.552 121,201.5C 119.5,202.333 118.333,203.5 117.5,205C 114.564,207.256 111.23,208.589 107.5,209C 98.8406,215.148 90.8406,221.981 83.5,229.5C 80.6733,228.892 78.0067,227.892 75.5,226.5C 85.1356,218.341 94.8023,210.175 104.5,202C 108.52,200.165 112.52,198.332 116.5,196.5C 118.166,197.666 119.833,197.666 121.5,196.5C 121.92,194.674 121.92,192.674 121.5,190.5C 123.595,189.588 125.595,188.421 127.5,187C 131.699,183.3 135.699,179.466 139.5,175.5 Z"/></g>
<g><path style="opacity:1" fill="#b900ff" d="M 142.5,184.5 C 143.738,186.214 144.405,188.214 144.5,190.5C 139.994,192.589 135.994,195.423 132.5,199C 130.392,199.36 128.392,200.027 126.5,201C 115.748,209.482 105.415,218.482 95.5,228C 92.5578,228.144 90.2244,229.311 88.5,231.5C 86.4471,231.598 84.7804,230.931 83.5,229.5C 90.8406,221.981 98.8406,215.148 107.5,209C 111.23,208.589 114.564,207.256 117.5,205C 118.333,203.5 119.5,202.333 121,201.5C 121.483,200.552 121.649,199.552 121.5,198.5C 122.552,198.649 123.552,198.483 124.5,198C 128.371,194.965 132.038,191.631 135.5,188C 138.445,187.861 140.779,186.694 142.5,184.5 Z"/></g>
<g><path style="opacity:1" fill="#ff00ad" d="M 149.5,205.5 C 150.404,206.209 150.737,207.209 150.5,208.5C 146.438,212.709 141.772,216.209 136.5,219C 133.806,223.027 130.473,226.361 126.5,229C 124.161,230.343 121.828,231.676 119.5,233C 118.308,235.355 116.641,237.188 114.5,238.5C 113.209,238.737 112.209,238.404 111.5,237.5C 113.044,237.297 114.378,236.63 115.5,235.5C 118.424,231.287 121.924,227.62 126,224.5C 127.438,223.1 128.271,221.433 128.5,219.5C 129.873,219.657 131.207,219.49 132.5,219C 138.286,214.518 143.952,210.018 149.5,205.5 Z"/></g>
<g><path style="opacity:1" fill="#db00ff" d="M 144.5,190.5 C 145.404,191.209 145.737,192.209 145.5,193.5C 143.626,194.63 141.626,195.63 139.5,196.5C 135.047,201.221 130.047,205.221 124.5,208.5C 120.302,212.78 116.302,217.28 112.5,222C 105.323,224.287 99.6562,228.454 95.5,234.5C 92.8427,234.065 90.5093,233.065 88.5,231.5C 90.2244,229.311 92.5578,228.144 95.5,228C 105.415,218.482 115.748,209.482 126.5,201C 128.392,200.027 130.392,199.36 132.5,199C 135.994,195.423 139.994,192.589 144.5,190.5 Z"/></g>
<g><path style="opacity:1" fill="#ff00c7" d="M 148.5,202.5 C 149.404,203.209 149.737,204.209 149.5,205.5C 143.952,210.018 138.286,214.518 132.5,219C 131.207,219.49 129.873,219.657 128.5,219.5C 128.271,221.433 127.438,223.1 126,224.5C 121.924,227.62 118.424,231.287 115.5,235.5C 114.378,236.63 113.044,237.297 111.5,237.5C 109.05,237.702 106.717,237.369 104.5,236.5C 107.588,233.249 110.922,230.083 114.5,227C 125.956,219.096 137.29,210.929 148.5,202.5 Z"/></g>
<g><path style="opacity:1" fill="#ff018e" d="M 150.5,208.5 C 151.677,210.679 152.677,213.013 153.5,215.5C 149.153,218.351 145.153,221.684 141.5,225.5C 137.296,228.2 132.963,230.7 128.5,233C 126.618,235.043 124.951,237.209 123.5,239.5C 120.57,238.701 117.57,238.368 114.5,238.5C 116.641,237.188 118.308,235.355 119.5,233C 121.828,231.676 124.161,230.343 126.5,229C 130.473,226.361 133.806,223.027 136.5,219C 141.772,216.209 146.438,212.709 150.5,208.5 Z"/></g>
<g><path style="opacity:1" fill="#ff00e1" d="M 146.5,196.5 C 147.738,198.214 148.405,200.214 148.5,202.5C 137.29,210.929 125.956,219.096 114.5,227C 110.922,230.083 107.588,233.249 104.5,236.5C 103.209,236.737 102.209,236.404 101.5,235.5C 106.593,231.109 111.926,226.942 117.5,223C 123.301,217.067 129.635,211.567 136.5,206.5C 138.92,202.283 142.254,198.949 146.5,196.5 Z"/></g>
<g><path style="opacity:1" fill="#ff0258" d="M 153.5,215.5 C 153.833,217.5 154.167,219.5 154.5,221.5C 154.489,223.017 153.823,224.184 152.5,225C 147.667,227.335 144,230.835 141.5,235.5C 139.64,236.325 137.974,237.325 136.5,238.5C 132.215,239.295 127.881,239.628 123.5,239.5C 124.951,237.209 126.618,235.043 128.5,233C 132.963,230.7 137.296,228.2 141.5,225.5C 145.153,221.684 149.153,218.351 153.5,215.5 Z"/></g>
<g><path style="opacity:1" fill="#ff001d" d="M 154.5,221.5 C 156.242,225.544 157.909,229.711 159.5,234C 152.093,236.79 144.426,238.29 136.5,238.5C 137.974,237.325 139.64,236.325 141.5,235.5C 144,230.835 147.667,227.335 152.5,225C 153.823,224.184 154.489,223.017 154.5,221.5 Z"/></g>
</svg>
