<?xml version="1.0" encoding="UTF-8"?>
<!DOCTYPE svg PUBLIC "-//W3C//DTD SVG 1.1//EN" "http://www.w3.org/Graphics/SVG/1.1/DTD/svg11.dtd">
<svg xmlns="http://www.w3.org/2000/svg" version="1.1" width="256px" height="255px" style="shape-rendering:geometricPrecision; text-rendering:geometricPrecision; image-rendering:optimizeQuality; fill-rule:evenodd; clip-rule:evenodd" xmlns:xlink="http://www.w3.org/1999/xlink">
<g><path style="opacity:0.788" fill="#fe2821" d="M 9.5,7.5 C 10.8333,8.16667 10.8333,8.16667 9.5,7.5 Z"/></g>
<g><path style="opacity:0.788" fill="#fe281f" d="M 245.5,8.5 C 244.833,7.16667 244.833,7.16667 245.5,8.5 Z"/></g>
<g><path style="opacity:0.788" fill="#fe2821" d="M 9.5,8.5 C 8.83333,9.16667 8.83333,9.16667 9.5,8.5 Z"/></g>
<g><path style="opacity:0.788" fill="#fe281f" d="M 245.5,8.5 C 246.833,9.16667 246.833,9.16667 245.5,8.5 Z"/></g>
<g><path style="opacity:1" fill="#fdf6f5" d="M 107.5,68.5 C 109.5,68.5 111.5,68.5 113.5,68.5C 113.666,77.5062 113.5,86.5062 113,95.5C 111,96.8333 109,96.8333 107,95.5C 106.196,86.4221 106.363,77.4221 107.5,68.5 Z"/></g>
<g><path style="opacity:1" fill="#fef3f3" d="M 116.5,68.5 C 120.833,67.6853 123.166,69.352 123.5,73.5C 135.084,73.5946 139.251,79.2613 136,90.5C 135.276,92.9589 133.943,93.9589 132,93.5C 130.139,94.7636 128.139,95.7636 126,96.5C 124.37,95.2869 122.536,94.4536 120.5,94C 119.122,92.2866 117.455,90.9533 115.5,90C 115.206,82.9568 115.539,75.7902 116.5,68.5 Z M 128.5,86.5 C 123.957,88.1008 122.29,86.7674 123.5,82.5C 124.735,82.2786 125.735,81.6119 126.5,80.5C 128.46,82.3435 129.127,84.3435 128.5,86.5 Z"/></g>
<g><path style="opacity:1" fill="#fdf6f5" d="M 90.5,73.5 C 96.6076,72.7222 101.274,74.8888 104.5,80C 104.559,84.9648 104.393,90.1315 104,95.5C 102.301,96.4061 100.467,96.7394 98.5,96.5C 99.433,90.3579 97.933,85.0246 94,80.5C 93.2276,81.8491 92.0609,82.6824 90.5,83C 91.1842,86.9222 93.5175,88.4222 97.5,87.5C 97.8871,97.3156 94.3871,98.9823 87,92.5C 86.3333,86.8333 86.3333,81.1667 87,75.5C 88,75.5 89,75.5 90,75.5C 90.4643,74.9056 90.631,74.2389 90.5,73.5 Z"/></g>
<g><path style="opacity:1" fill="#fef5f5" d="M 144.5,73.5 C 147.711,73.012 150.544,73.6787 153,75.5C 153.333,75.1667 153.667,74.8333 154,74.5C 155.685,76.0175 157.185,77.6841 158.5,79.5C 157,81.1667 155.5,82.8333 154,84.5C 153.667,84.1667 153.333,83.8333 153,83.5C 151.649,85.019 150.149,86.3523 148.5,87.5C 144.588,85.4469 144.588,83.2802 148.5,81C 147.004,80.4926 145.837,80.9926 145,82.5C 143.833,87.3329 145.667,89.1662 150.5,88C 151.917,85.1738 153.417,85.0072 155,87.5C 156.768,86.8688 157.935,87.7021 158.5,90C 158.241,91.2613 157.574,92.2613 156.5,93C 150.322,97.5117 144.489,97.0117 139,91.5C 138.333,87.1667 138.333,82.8333 139,78.5C 140.73,76.5981 142.563,74.9314 144.5,73.5 Z"/></g>
<g><path style="opacity:1" fill="#fdf6f5" d="M 160.5,73.5 C 163.431,74.0057 166.265,74.0057 169,73.5C 172.429,76.8179 172.095,79.8179 168,82.5C 167.828,86.8711 167.328,91.2044 166.5,95.5C 163.96,97.1389 161.793,96.8056 160,94.5C 159.205,87.4197 159.372,80.4197 160.5,73.5 Z"/></g>
<g><path style="opacity:1" fill="#ff4600" d="M 136.5,126.5 C 128.409,133.056 119.742,138.889 110.5,144C 108.899,144.273 107.399,144.773 106,145.5C 105.536,144.906 105.369,144.239 105.5,143.5C 105.362,141.172 106.362,139.005 108.5,137C 108.167,136.667 107.833,136.333 107.5,136C 111.521,130.499 116.854,126.666 123.5,124.5C 126.698,124.545 129.865,124.545 133,124.5C 134.113,125.305 135.279,125.972 136.5,126.5 Z"/></g>
<g><path style="opacity:1" fill="#ffa500" d="M 144.5,132.5 C 137.711,134.818 131.045,137.318 124.5,140C 120.192,143.976 115.192,146.643 109.5,148C 108.627,149.045 107.627,149.878 106.5,150.5C 105.883,150.611 105.383,150.944 105,151.5C 104.199,148.633 104.366,145.966 105.5,143.5C 105.369,144.239 105.536,144.906 106,145.5C 107.399,144.773 108.899,144.273 110.5,144C 119.742,138.889 128.409,133.056 136.5,126.5C 139.756,127.005 142.422,129.005 144.5,132.5 Z"/></g>
<g><path style="opacity:1" fill="#ffd800" d="M 144.5,132.5 C 145.167,132.5 145.5,132.833 145.5,133.5C 143.141,134.176 140.808,135.009 138.5,136C 129.288,144.015 118.621,149.182 106.5,151.5C 106.5,151.167 106.5,150.833 106.5,150.5C 107.627,149.878 108.627,149.045 109.5,148C 115.192,146.643 120.192,143.976 124.5,140C 131.045,137.318 137.711,134.818 144.5,132.5 Z"/></g>
<g><path style="opacity:1" fill="#aaff00" d="M 148.5,137.5 C 150.138,138.705 150.471,140.038 149.5,141.5C 145.696,144.38 141.362,146.213 136.5,147C 133.96,148.04 132.293,149.874 131.5,152.5C 125.233,156.131 118.9,159.465 112.5,162.5C 110.674,160.853 109.34,158.853 108.5,156.5C 121.283,151.437 133.283,144.77 144.5,136.5C 145.849,136.846 147.183,137.179 148.5,137.5 Z"/></g>
<g><path style="opacity:1" fill="#edfc00" d="M 145.5,133.5 C 146.718,134.731 148.051,135.898 149.5,137C 149.272,137.399 148.938,137.565 148.5,137.5C 147.183,137.179 145.849,136.846 144.5,136.5C 133.283,144.77 121.283,151.437 108.5,156.5C 107.069,155.22 106.402,153.553 106.5,151.5C 118.621,149.182 129.288,144.015 138.5,136C 140.808,135.009 143.141,134.176 145.5,133.5 Z"/></g>
<g><path style="opacity:1" fill="#40fe13" d="M 149.5,141.5 C 152.062,154.53 147.062,163.697 134.5,169C 125.742,171.132 118.409,168.965 112.5,162.5C 118.9,159.465 125.233,156.131 131.5,152.5C 132.293,149.874 133.96,148.04 136.5,147C 141.362,146.213 145.696,144.38 149.5,141.5 Z"/></g>
<g><path style="opacity:1" fill="#08fe35" d="M 119.5,174.5 C 117.479,177.7 114.479,179.534 110.5,180C 105.48,185.01 99.4798,188.177 92.5,189.5C 95.6821,181.289 100.682,174.455 107.5,169C 111.002,171.467 115.002,173.3 119.5,174.5 Z"/></g>
<g><path style="opacity:1" fill="#04d1ff" d="M 153.5,173.5 C 154.5,173.833 155.167,174.5 155.5,175.5C 148.81,177.345 142.81,180.512 137.5,185C 134.363,185.601 131.363,186.601 128.5,188C 118.201,194.894 107.535,201.227 96.5,207C 94.8659,207.494 93.1992,207.66 91.5,207.5C 90.8333,207.5 90.5,207.167 90.5,206.5C 95.8066,204.374 100.473,201.208 104.5,197C 110.621,194.884 116.288,191.884 121.5,188C 132.154,183.063 142.821,178.23 153.5,173.5 Z"/></g>
<g><path style="opacity:1" fill="#0afe92" d="M 119.5,174.5 C 122.127,175.092 124.794,175.425 127.5,175.5C 117.46,182.04 107.46,188.873 97.5,196C 95.1924,196.991 92.8591,197.824 90.5,198.5C 91.01,195.461 91.6766,192.461 92.5,189.5C 99.4798,188.177 105.48,185.01 110.5,180C 114.479,179.534 117.479,177.7 119.5,174.5 Z"/></g>
<g><path style="opacity:1" fill="#06fecd" d="M 150.5,170.5 C 142.816,174.011 135.482,178.177 128.5,183C 121.925,185.802 115.259,188.302 108.5,190.5C 108.5,191.5 108.5,192.5 108.5,193.5C 102.5,195.833 96.5,198.167 90.5,200.5C 90.5,199.833 90.5,199.167 90.5,198.5C 92.8591,197.824 95.1924,196.991 97.5,196C 107.46,188.873 117.46,182.04 127.5,175.5C 135.177,175.442 142.01,173.108 148,168.5C 149.301,168.639 150.134,169.305 150.5,170.5 Z"/></g>
<g><path style="opacity:1" fill="#04faf5" d="M 150.5,170.5 C 151.833,171.167 152.833,172.167 153.5,173.5C 142.821,178.23 132.154,183.063 121.5,188C 116.288,191.884 110.621,194.884 104.5,197C 100.473,201.208 95.8066,204.374 90.5,206.5C 90.5,204.5 90.5,202.5 90.5,200.5C 96.5,198.167 102.5,195.833 108.5,193.5C 108.5,192.5 108.5,191.5 108.5,190.5C 115.259,188.302 121.925,185.802 128.5,183C 135.482,178.177 142.816,174.011 150.5,170.5 Z"/></g>
<g><path style="opacity:1" fill="#05a5ff" d="M 155.5,175.5 C 156.488,176.795 157.488,178.128 158.5,179.5C 157.167,179.833 155.833,180.167 154.5,180.5C 148.908,183.149 143.241,185.649 137.5,188C 135.5,188.333 133.5,188.667 131.5,189C 119.972,194.911 108.972,201.578 98.5,209C 96.26,209.977 93.9267,210.477 91.5,210.5C 91.5,209.5 91.5,208.5 91.5,207.5C 93.1992,207.66 94.8659,207.494 96.5,207C 107.535,201.227 118.201,194.894 128.5,188C 131.363,186.601 134.363,185.601 137.5,185C 142.81,180.512 148.81,177.345 155.5,175.5 Z"/></g>
<g><path style="opacity:1" fill="#054fff" d="M 158.5,179.5 C 158.833,180.167 159.167,180.833 159.5,181.5C 155.04,183.201 151.373,186.034 148.5,190C 146.655,191.128 144.655,191.628 142.5,191.5C 142.719,192.675 142.386,193.675 141.5,194.5C 138.209,196.721 134.543,197.887 130.5,198C 123.488,202.231 116.155,205.898 108.5,209C 105.553,212.014 101.887,213.348 97.5,213C 95.9052,215.102 93.9052,216.602 91.5,217.5C 91.5,216.5 91.5,215.5 91.5,214.5C 92.552,214.649 93.552,214.483 94.5,214C 97.0599,212.227 99.3932,210.227 101.5,208C 118.646,200.89 135.313,192.89 151.5,184C 153.063,183.241 154.063,182.074 154.5,180.5C 155.833,180.167 157.167,179.833 158.5,179.5 Z"/></g>
<g><path style="opacity:1" fill="#0580ff" d="M 154.5,180.5 C 154.063,182.074 153.063,183.241 151.5,184C 135.313,192.89 118.646,200.89 101.5,208C 99.3932,210.227 97.0599,212.227 94.5,214C 93.552,214.483 92.552,214.649 91.5,214.5C 91.5,213.167 91.5,211.833 91.5,210.5C 93.9267,210.477 96.26,209.977 98.5,209C 108.972,201.578 119.972,194.911 131.5,189C 133.5,188.667 135.5,188.333 137.5,188C 143.241,185.649 148.908,183.149 154.5,180.5 Z"/></g>
<g><path style="opacity:1" fill="#2a0bff" d="M 159.5,181.5 C 162.284,185.405 164.284,189.738 165.5,194.5C 162.951,195.509 160.285,196.342 157.5,197C 148.341,205.246 137.675,210.246 125.5,212C 119.087,216.068 112.421,219.735 105.5,223C 104.663,224.011 104.33,225.178 104.5,226.5C 100.497,226.568 96.9972,227.901 94,230.5C 93.6174,229.944 93.1174,229.611 92.5,229.5C 92.1492,225.517 91.8159,221.517 91.5,217.5C 93.9052,216.602 95.9052,215.102 97.5,213C 101.887,213.348 105.553,212.014 108.5,209C 116.155,205.898 123.488,202.231 130.5,198C 134.543,197.887 138.209,196.721 141.5,194.5C 142.386,193.675 142.719,192.675 142.5,191.5C 144.655,191.628 146.655,191.128 148.5,190C 151.373,186.034 155.04,183.201 159.5,181.5 Z"/></g>
<g><path style="opacity:1" fill="#7a00fe" d="M 165.5,194.5 C 165.5,194.833 165.5,195.167 165.5,195.5C 157.357,200.073 149.357,204.906 141.5,210C 136.042,210.009 132.042,212.343 129.5,217C 117.509,221.315 106.175,226.815 95.5,233.5C 95.1667,233.5 94.8333,233.5 94.5,233.5C 92.8958,232.713 92.2291,231.38 92.5,229.5C 93.1174,229.611 93.6174,229.944 94,230.5C 96.9972,227.901 100.497,226.568 104.5,226.5C 104.33,225.178 104.663,224.011 105.5,223C 112.421,219.735 119.087,216.068 125.5,212C 137.675,210.246 148.341,205.246 157.5,197C 160.285,196.342 162.951,195.509 165.5,194.5 Z"/></g>
<g><path style="opacity:1" fill="#af00ff" d="M 165.5,195.5 C 165.5,197.5 165.5,199.5 165.5,201.5C 162.784,201.678 160.117,202.178 157.5,203C 154.714,205.726 151.381,207.393 147.5,208C 146.5,209 145.5,210 144.5,211C 139.777,212.149 135.443,214.149 131.5,217C 129.167,218 127.5,219.667 126.5,222C 118.761,225.951 111.095,229.784 103.5,233.5C 100.833,233.5 98.1667,233.5 95.5,233.5C 106.175,226.815 117.509,221.315 129.5,217C 132.042,212.343 136.042,210.009 141.5,210C 149.357,204.906 157.357,200.073 165.5,195.5 Z"/></g>
<g><path style="opacity:1" fill="#eb00fc" d="M 165.5,201.5 C 165.5,204.167 165.5,206.833 165.5,209.5C 162.38,210.86 159.047,211.693 155.5,212C 141.032,218.986 126.699,226.152 112.5,233.5C 109.5,233.5 106.5,233.5 103.5,233.5C 111.095,229.784 118.761,225.951 126.5,222C 127.5,219.667 129.167,218 131.5,217C 135.443,214.149 139.777,212.149 144.5,211C 145.5,210 146.5,209 147.5,208C 151.381,207.393 154.714,205.726 157.5,203C 160.117,202.178 162.784,201.678 165.5,201.5 Z"/></g>
<g><path style="opacity:1" fill="#ff00a4" d="M 165.5,211.5 C 165.768,213.099 165.434,214.432 164.5,215.5C 162.007,216.797 159.34,217.797 156.5,218.5C 153.829,221.188 150.496,222.688 146.5,223C 142.306,226.221 137.64,228.554 132.5,230C 130.907,230.949 129.574,232.115 128.5,233.5C 126.167,233.5 123.833,233.5 121.5,233.5C 123.732,229.903 127.065,228.07 131.5,228C 140.03,223.482 148.363,218.815 156.5,214C 159.521,213.151 162.521,212.317 165.5,211.5 Z"/></g>
<g><path style="opacity:1" fill="#fe4115" d="M 164.5,220.5 C 164.055,223.28 164.055,225.947 164.5,228.5C 163.966,230.614 162.966,232.448 161.5,234C 138.996,234.83 116.663,234.663 94.5,233.5C 94.8333,233.5 95.1667,233.5 95.5,233.5C 98.1667,233.5 100.833,233.5 103.5,233.5C 106.5,233.5 109.5,233.5 112.5,233.5C 115.5,233.5 118.5,233.5 121.5,233.5C 123.833,233.5 126.167,233.5 128.5,233.5C 132.846,233.666 137.179,233.499 141.5,233C 146.825,229.339 152.158,225.672 157.5,222C 159.813,221.338 162.146,220.838 164.5,220.5 Z"/></g>
<g><path style="opacity:1" fill="#ff00d7" d="M 165.5,209.5 C 165.5,210.167 165.5,210.833 165.5,211.5C 162.521,212.317 159.521,213.151 156.5,214C 148.363,218.815 140.03,223.482 131.5,228C 127.065,228.07 123.732,229.903 121.5,233.5C 118.5,233.5 115.5,233.5 112.5,233.5C 126.699,226.152 141.032,218.986 155.5,212C 159.047,211.693 162.38,210.86 165.5,209.5 Z"/></g>
<g><path style="opacity:1" fill="#ff0072" d="M 164.5,215.5 C 164.5,217.167 164.5,218.833 164.5,220.5C 162.146,220.838 159.813,221.338 157.5,222C 152.158,225.672 146.825,229.339 141.5,233C 137.179,233.499 132.846,233.666 128.5,233.5C 129.574,232.115 130.907,230.949 132.5,230C 137.64,228.554 142.306,226.221 146.5,223C 150.496,222.688 153.829,221.188 156.5,218.5C 159.34,217.797 162.007,216.797 164.5,215.5 Z"/></g>
<g><path style="opacity:0.898" fill="#f32c35" d="M 246.5,239.5 C 247.969,242.102 247.302,244.269 244.5,246C 243.056,246.781 241.723,246.614 240.5,245.5C 243.905,245.436 245.905,243.436 246.5,239.5 Z"/></g>
<g><path style="opacity:1" fill="#55e8de" d="M 7.5,239.5 C 8.81526,243.183 11.1486,245.183 14.5,245.5C 9.85109,246.533 7.51776,244.533 7.5,239.5 Z"/></g>
</svg>
