<?xml version="1.0" encoding="UTF-8"?>
<!DOCTYPE svg PUBLIC "-//W3C//DTD SVG 1.1//EN" "http://www.w3.org/Graphics/SVG/1.1/DTD/svg11.dtd">
<svg xmlns="http://www.w3.org/2000/svg" version="1.1" width="256px" height="256px" style="shape-rendering:geometricPrecision; text-rendering:geometricPrecision; image-rendering:optimizeQuality; fill-rule:evenodd; clip-rule:evenodd" xmlns:xlink="http://www.w3.org/1999/xlink">
<g><path style="opacity:0.963" fill="#c4cec4" d="M 111.5,-0.5 C 121.833,-0.5 132.167,-0.5 142.5,-0.5C 205.475,10.9755 242.642,48.3088 254,111.5C 258.309,167.385 236.809,209.885 189.5,239C 147.833,259.667 106.167,259.667 64.5,239C 27.937,216.925 6.2703,184.759 -0.5,142.5C -0.5,132.167 -0.5,121.833 -0.5,111.5C 11.1757,48.491 48.509,11.1576 111.5,-0.5 Z"/></g>
<g><path style="opacity:1" fill="#897f65" d="M 145.5,11.5 C 143.5,11.5 141.5,11.5 139.5,11.5C 132.167,10.1667 124.833,10.1667 117.5,11.5C 114.5,11.5 111.5,11.5 108.5,11.5C 109.263,10.7321 110.263,10.2321 111.5,10C 116.333,9.83333 121.167,9.66667 126,9.5C 132.746,9.27964 139.246,9.9463 145.5,11.5 Z"/></g>
<g><path style="opacity:1" fill="#b88f3e" d="M 139.5,11.5 C 139.5,11.8333 139.5,12.1667 139.5,12.5C 132.167,12.5 124.833,12.5 117.5,12.5C 117.5,12.1667 117.5,11.8333 117.5,11.5C 124.833,10.1667 132.167,10.1667 139.5,11.5 Z"/></g>
<g><path style="opacity:1" fill="#b89f67" d="M 108.5,11.5 C 111.5,11.5 114.5,11.5 117.5,11.5C 117.5,11.8333 117.5,12.1667 117.5,12.5C 112.463,12.4126 107.463,12.746 102.5,13.5C 102.5,13.1667 102.5,12.8333 102.5,12.5C 104.379,11.6586 106.379,11.3253 108.5,11.5 Z"/></g>
<g><path style="opacity:1" fill="#beb896" d="M 102.5,12.5 C 102.5,12.8333 102.5,13.1667 102.5,13.5C 99.7835,13.6785 97.1168,14.1785 94.5,15C 91.531,17.318 88.1977,18.818 84.5,19.5C 89.4442,14.7508 95.4442,12.4175 102.5,12.5 Z"/></g>
<g><path style="opacity:1" fill="#f4df95" d="M 128.5,13.5 C 134.5,13.5 140.5,13.5 146.5,13.5C 150.458,13.2511 154.124,13.9177 157.5,15.5C 156.5,15.5 155.5,15.5 154.5,15.5C 153.167,15.5 151.833,15.5 150.5,15.5C 148.022,14.8359 145.355,14.5025 142.5,14.5C 138.627,14.2991 134.961,14.9658 131.5,16.5C 132.09,17.7989 133.09,18.6322 134.5,19C 133.833,20 133.167,21 132.5,22C 134.611,22.8447 136.611,23.678 138.5,24.5C 135.098,24.6576 131.764,24.3242 128.5,23.5C 121.305,22.9444 121.139,20.6111 128,16.5C 128.483,15.552 128.649,14.552 128.5,13.5 Z"/></g>
<g><path style="opacity:1" fill="#b4ad87" d="M 139.5,12.5 C 139.5,12.1667 139.5,11.8333 139.5,11.5C 141.5,11.5 143.5,11.5 145.5,11.5C 149.835,11.9167 154.168,12.4167 158.5,13C 163.04,14.7736 167.374,16.607 171.5,18.5C 166.772,17.7545 162.106,16.7545 157.5,15.5C 154.124,13.9177 150.458,13.2511 146.5,13.5C 144.393,12.5318 142.059,12.1984 139.5,12.5 Z"/></g>
<g><path style="opacity:1" fill="#e8c66f" d="M 117.5,12.5 C 124.833,12.5 132.167,12.5 139.5,12.5C 142.059,12.1984 144.393,12.5318 146.5,13.5C 140.5,13.5 134.5,13.5 128.5,13.5C 125.022,13.1842 121.688,13.6842 118.5,15C 115.167,17.6667 111.833,20.3333 108.5,23C 109.416,23.2784 110.082,23.7784 110.5,24.5C 109.1,25.1001 108.1,26.1001 107.5,27.5C 103.279,27.686 99.2793,28.686 95.5,30.5C 92.4299,30.3677 89.4299,30.701 86.5,31.5C 89.4686,29.6925 92.8019,28.1925 96.5,27C 92.8611,25.5895 93.1944,24.4228 97.5,23.5C 100.953,23.7735 103.62,22.4402 105.5,19.5C 105.291,18.914 104.957,18.414 104.5,18C 108.561,15.2655 112.894,13.4321 117.5,12.5 Z"/></g>
<g><path style="opacity:1" fill="#f3d780" d="M 128.5,13.5 C 128.649,14.552 128.483,15.552 128,16.5C 121.139,20.6111 121.305,22.9444 128.5,23.5C 122.484,23.5925 116.484,23.9258 110.5,24.5C 110.082,23.7784 109.416,23.2784 108.5,23C 111.833,20.3333 115.167,17.6667 118.5,15C 121.688,13.6842 125.022,13.1842 128.5,13.5 Z"/></g>
<g><path style="opacity:1" fill="#ddb85e" d="M 117.5,12.5 C 112.894,13.4321 108.561,15.2655 104.5,18C 104.957,18.414 105.291,18.914 105.5,19.5C 103.62,22.4402 100.953,23.7735 97.5,23.5C 97.9528,22.5416 98.6195,21.7083 99.5,21C 98.5,20.6667 97.5,20.3333 96.5,20C 97.5243,18.6329 97.0243,17.7995 95,17.5C 91.7728,18.199 88.9395,19.5323 86.5,21.5C 84.5648,22.1495 82.5648,22.4828 80.5,22.5C 81.8333,21.5 83.1667,20.5 84.5,19.5C 88.1977,18.818 91.531,17.318 94.5,15C 97.1168,14.1785 99.7835,13.6785 102.5,13.5C 107.463,12.746 112.463,12.4126 117.5,12.5 Z"/></g>
<g><path style="opacity:1" fill="#e3d7a7" d="M 84.5,19.5 C 83.1667,20.5 81.8333,21.5 80.5,22.5C 74.2402,24.0157 68.9068,27.0157 64.5,31.5C 61.7052,32.063 59.3718,33.3963 57.5,35.5C 56.8333,35.5 56.1667,35.5 55.5,35.5C 63.8349,27.8309 73.5016,22.4975 84.5,19.5 Z"/></g>
<g><path style="opacity:1" fill="#b4903f" d="M 128.5,23.5 C 131.764,24.3242 135.098,24.6576 138.5,24.5C 138.167,25.1667 137.833,25.8333 137.5,26.5C 130.833,26.5 124.167,26.5 117.5,26.5C 114.098,26.3424 110.764,26.6758 107.5,27.5C 108.1,26.1001 109.1,25.1001 110.5,24.5C 116.484,23.9258 122.484,23.5925 128.5,23.5 Z"/></g>
<g><path style="opacity:1" fill="#f4e4a2" d="M 150.5,15.5 C 147.518,15.9629 144.518,16.2962 141.5,16.5C 141.305,20.1924 139.305,22.0258 135.5,22C 142.711,24.8437 150.211,26.6771 158,27.5C 162.572,26.3895 164.739,23.3895 164.5,18.5C 160.916,18.0246 157.583,17.0246 154.5,15.5C 155.5,15.5 156.5,15.5 157.5,15.5C 162.106,16.7545 166.772,17.7545 171.5,18.5C 172.574,19.8846 173.907,21.0513 175.5,22C 184.043,25.051 191.71,29.551 198.5,35.5C 197.833,35.5 197.167,35.5 196.5,35.5C 195.395,34.3995 194.062,33.7329 192.5,33.5C 191.341,31.7497 189.674,30.7497 187.5,30.5C 183.702,26.6943 179.035,25.1943 173.5,26C 175.037,27.1096 175.703,28.6096 175.5,30.5C 173.897,30.3118 172.563,30.8118 171.5,32C 172.731,33.4048 174.064,34.5714 175.5,35.5C 171.921,34.6198 168.587,33.1198 165.5,31C 160.706,30.6529 156.04,29.8195 151.5,28.5C 149.833,28.5 148.167,28.5 146.5,28.5C 144.485,27.0762 142.152,26.4095 139.5,26.5C 138.833,26.5 138.167,26.5 137.5,26.5C 137.833,25.8333 138.167,25.1667 138.5,24.5C 136.611,23.678 134.611,22.8447 132.5,22C 133.167,21 133.833,20 134.5,19C 133.09,18.6322 132.09,17.7989 131.5,16.5C 134.961,14.9658 138.627,14.2991 142.5,14.5C 145.355,14.5025 148.022,14.8359 150.5,15.5 Z"/></g>
<g><path style="opacity:1" fill="#fbf6c4" d="M 150.5,15.5 C 151.833,15.5 153.167,15.5 154.5,15.5C 157.583,17.0246 160.916,18.0246 164.5,18.5C 164.739,23.3895 162.572,26.3895 158,27.5C 150.211,26.6771 142.711,24.8437 135.5,22C 139.305,22.0258 141.305,20.1924 141.5,16.5C 144.518,16.2962 147.518,15.9629 150.5,15.5 Z"/></g>
<g><path style="opacity:1" fill="#695d3d" d="M 139.5,26.5 C 142.152,26.4095 144.485,27.0762 146.5,28.5C 143.848,28.5905 141.515,27.9238 139.5,26.5 Z"/></g>
<g><path style="opacity:1" fill="#f1d47e" d="M 187.5,30.5 C 182.057,31.296 180.39,34.296 182.5,39.5C 181.167,39.5 179.833,39.5 178.5,39.5C 178.229,37.5695 177.229,36.2362 175.5,35.5C 174.064,34.5714 172.731,33.4048 171.5,32C 172.563,30.8118 173.897,30.3118 175.5,30.5C 175.703,28.6096 175.037,27.1096 173.5,26C 179.035,25.1943 183.702,26.6943 187.5,30.5 Z"/></g>
<g><path style="opacity:1" fill="#847247" d="M 117.5,26.5 C 117.5,26.8333 117.5,27.1667 117.5,27.5C 114.119,27.4595 110.786,27.7929 107.5,28.5C 103.397,29.0901 99.3967,30.0901 95.5,31.5C 95.5,31.1667 95.5,30.8333 95.5,30.5C 99.2793,28.686 103.279,27.686 107.5,27.5C 110.764,26.6758 114.098,26.3424 117.5,26.5 Z"/></g>
<g><path style="opacity:1" fill="#25231e" d="M 117.5,27.5 C 117.5,27.1667 117.5,26.8333 117.5,26.5C 124.167,26.5 130.833,26.5 137.5,26.5C 138.167,26.5 138.833,26.5 139.5,26.5C 141.515,27.9238 143.848,28.5905 146.5,28.5C 148.167,28.5 149.833,28.5 151.5,28.5C 153.072,29.6873 154.739,30.6873 156.5,31.5C 153.921,31.6061 151.588,30.9395 149.5,29.5C 146.14,29.6159 142.807,29.9492 139.5,30.5C 137.708,29.6909 135.708,29.1909 133.5,29C 134.167,28.6667 134.833,28.3333 135.5,28C 129.509,27.5005 123.509,27.3338 117.5,27.5 Z"/></g>
<g><path style="opacity:1" fill="#d1a64b" d="M 97.5,23.5 C 93.1944,24.4228 92.8611,25.5895 96.5,27C 92.8019,28.1925 89.4686,29.6925 86.5,31.5C 81.3459,33.9099 76.3459,36.5766 71.5,39.5C 72.341,37.4885 73.841,36.1552 76,35.5C 76.6838,34.2161 76.5171,33.0495 75.5,32C 76.8333,31.3333 78.1667,30.6667 79.5,30C 81.7513,26.9337 84.0846,24.1003 86.5,21.5C 88.9395,19.5323 91.7728,18.199 95,17.5C 97.0243,17.7995 97.5243,18.6329 96.5,20C 97.5,20.3333 98.5,20.6667 99.5,21C 98.6195,21.7083 97.9528,22.5416 97.5,23.5 Z"/></g>
<g><path style="opacity:1" fill="#12161a" d="M 117.5,27.5 C 123.509,27.3338 129.509,27.5005 135.5,28C 134.833,28.3333 134.167,28.6667 133.5,29C 135.708,29.1909 137.708,29.6909 139.5,30.5C 126.167,30.8333 126.167,31.1667 139.5,31.5C 139.5,50.1667 139.5,68.8333 139.5,87.5C 138.5,87.5 137.5,87.5 136.5,87.5C 136.5,88.5 136.5,89.5 136.5,90.5C 136.167,91.1667 135.833,91.8333 135.5,92.5C 133.596,92.7376 132.262,93.7376 131.5,95.5C 127.091,98.655 125.091,102.988 125.5,108.5C 124.596,109.209 124.263,110.209 124.5,111.5C 120.094,111.252 115.76,110.585 111.5,109.5C 110.152,108.399 108.652,107.399 107,106.5C 107.263,105.049 107.096,103.716 106.5,102.5C 103.668,105.205 101.335,104.872 99.5,101.5C 100.486,99.5923 102.152,98.5923 104.5,98.5C 105.794,97.7101 106.961,96.7101 108,95.5C 108.167,85.1667 108.333,74.8333 108.5,64.5C 108.135,53.1857 108.135,42.019 108.5,31C 107.207,30.51 105.873,30.3433 104.5,30.5C 105.5,29.8333 106.5,29.1667 107.5,28.5C 110.786,27.7929 114.119,27.4595 117.5,27.5 Z"/></g>
<g><path style="opacity:1" fill="#c9c29a" d="M 151.5,28.5 C 156.04,29.8195 160.706,30.6529 165.5,31C 168.587,33.1198 171.921,34.6198 175.5,35.5C 177.229,36.2362 178.229,37.5695 178.5,39.5C 173.728,37.6343 169.062,35.4676 164.5,33C 161.883,32.1785 159.216,31.6785 156.5,31.5C 154.739,30.6873 153.072,29.6873 151.5,28.5 Z"/></g>
<g><path style="opacity:1" fill="#1e2328" d="M 107.5,28.5 C 106.5,29.1667 105.5,29.8333 104.5,30.5C 102.897,30.3118 101.563,30.8118 100.5,32C 100.532,53.0177 100.532,74.1844 100.5,95.5C 98.7673,96.0076 98.434,96.841 99.5,98C 98.5,98.6667 97.5,98.6667 96.5,98C 94.5715,92.8699 90.9049,89.8699 85.5,89C 88.029,87.938 90.6957,87.1047 93.5,86.5C 91.3921,85.0562 89.0588,84.3896 86.5,84.5C 86.5,71.1667 86.5,57.8333 86.5,44.5C 89.3795,44.9675 91.7129,44.1341 93.5,42C 93.3333,41.5 93.1667,41 93,40.5C 90.5341,41.7766 88.0341,41.7766 85.5,40.5C 87.5,39.1667 89.5,37.8333 91.5,36.5C 89.9547,35.5481 88.288,35.2148 86.5,35.5C 86.5,34.8333 86.8333,34.5 87.5,34.5C 89.9674,34.2451 91.9674,33.2451 93.5,31.5C 94.1667,31.5 94.8333,31.5 95.5,31.5C 99.3967,30.0901 103.397,29.0901 107.5,28.5 Z"/></g>
<g><path style="opacity:1" fill="#6b694c" d="M 93.5,31.5 C 91.9674,33.2451 89.9674,34.2451 87.5,34.5C 89.0326,32.7549 91.0326,31.7549 93.5,31.5 Z"/></g>
<g><path style="opacity:1" fill="#c99b40" d="M 86.5,21.5 C 84.0846,24.1003 81.7513,26.9337 79.5,30C 78.1667,30.6667 76.8333,31.3333 75.5,32C 76.5171,33.0495 76.6838,34.2161 76,35.5C 73.841,36.1552 72.341,37.4885 71.5,39.5C 61.3106,45.8489 52.4772,53.8489 45,63.5C 44.51,64.7932 44.3433,66.1266 44.5,67.5C 43.4706,69.5168 42.4706,71.5168 41.5,73.5C 39.412,75.3356 38.0787,77.6689 37.5,80.5C 34.7082,85.2901 32.3748,90.2901 30.5,95.5C 29.0173,98.6276 27.3507,101.628 25.5,104.5C 25.5,103.833 25.5,103.167 25.5,102.5C 26.6378,99.6965 26.8045,96.6965 26,93.5C 24.2494,95.4899 23.2494,97.8232 23,100.5C 22.0201,98.9411 21.1867,97.2744 20.5,95.5C 19.2638,96.2458 17.9305,96.5792 16.5,96.5C 16.9465,99.0101 16.2798,101.01 14.5,102.5C 14.5,100.167 14.5,97.8333 14.5,95.5C 16.5366,92.4159 18.2032,89.0826 19.5,85.5C 23.451,81.5627 27.7843,77.896 32.5,74.5C 34.7537,70.0772 37.9203,66.4105 42,63.5C 43.4127,61.3476 44.2461,59.0143 44.5,56.5C 46.1667,56.5 47.8333,56.5 49.5,56.5C 49.3832,54.5165 50.0499,52.8498 51.5,51.5C 56.6679,47.1652 61.3346,42.3318 65.5,37C 66.448,36.5172 67.448,36.3505 68.5,36.5C 68.2196,33.6118 69.5529,32.1118 72.5,32C 73.7433,30.8455 74.7433,29.5122 75.5,28C 72.1637,29.5963 68.4971,30.7629 64.5,31.5C 68.9068,27.0157 74.2402,24.0157 80.5,22.5C 82.5648,22.4828 84.5648,22.1495 86.5,21.5 Z"/></g>
<g><path style="opacity:1" fill="#181d23" d="M 104.5,30.5 C 105.873,30.3433 107.207,30.51 108.5,31C 108.135,42.019 108.135,53.1857 108.5,64.5C 108.333,74.8333 108.167,85.1667 108,95.5C 106.961,96.7101 105.794,97.7101 104.5,98.5C 104.5,97.5 104.5,96.5 104.5,95.5C 103.167,95.5 101.833,95.5 100.5,95.5C 100.532,74.1844 100.532,53.0177 100.5,32C 101.563,30.8118 102.897,30.3118 104.5,30.5 Z"/></g>
<g><path style="opacity:1" fill="#181d23" d="M 149.5,29.5 C 148.192,30.2323 146.858,31.0656 145.5,32C 147.313,49.2658 148.147,66.7658 148,84.5C 148.692,85.0253 149.192,85.6919 149.5,86.5C 146.724,87.5148 144.057,88.5148 141.5,89.5C 139.883,90.038 138.216,90.3713 136.5,90.5C 136.5,89.5 136.5,88.5 136.5,87.5C 137.5,87.5 138.5,87.5 139.5,87.5C 139.5,68.8333 139.5,50.1667 139.5,31.5C 126.167,31.1667 126.167,30.8333 139.5,30.5C 142.807,29.9492 146.14,29.6159 149.5,29.5 Z"/></g>
<g><path style="opacity:1" fill="#dfb960" d="M 187.5,30.5 C 189.674,30.7497 191.341,31.7497 192.5,33.5C 191.167,33.5 189.833,33.5 188.5,33.5C 188.318,35.6746 187.651,37.6746 186.5,39.5C 186.752,41.0729 187.418,42.4062 188.5,43.5C 186.223,42.5514 184.223,41.2181 182.5,39.5C 180.39,34.296 182.057,31.296 187.5,30.5 Z"/></g>
<g><path style="opacity:1" fill="#ddd29e" d="M 95.5,30.5 C 95.5,30.8333 95.5,31.1667 95.5,31.5C 94.8333,31.5 94.1667,31.5 93.5,31.5C 91.0326,31.7549 89.0326,32.7549 87.5,34.5C 86.8333,34.5 86.5,34.8333 86.5,35.5C 80.4769,37.3442 74.8102,40.0108 69.5,43.5C 69.7329,41.9382 70.3995,40.6049 71.5,39.5C 76.3459,36.5766 81.3459,33.9099 86.5,31.5C 89.4299,30.701 92.4299,30.3677 95.5,30.5 Z"/></g>
<g><path style="opacity:1" fill="#21272f" d="M 86.5,35.5 C 88.288,35.2148 89.9547,35.5481 91.5,36.5C 89.5,37.8333 87.5,39.1667 85.5,40.5C 88.0341,41.7766 90.5341,41.7766 93,40.5C 93.1667,41 93.3333,41.5 93.5,42C 91.7129,44.1341 89.3795,44.9675 86.5,44.5C 86.5,57.8333 86.5,71.1667 86.5,84.5C 89.0588,84.3896 91.3921,85.0562 93.5,86.5C 90.6957,87.1047 88.029,87.938 85.5,89C 90.9049,89.8699 94.5715,92.8699 96.5,98C 97.5,98.6667 98.5,98.6667 99.5,98C 98.434,96.841 98.7673,96.0076 100.5,95.5C 101.833,95.5 103.167,95.5 104.5,95.5C 104.5,96.5 104.5,97.5 104.5,98.5C 102.152,98.5923 100.486,99.5923 99.5,101.5C 98.5,101.5 97.5,101.5 96.5,101.5C 94.4309,98.4275 91.7642,96.0941 88.5,94.5C 86.6682,93.2819 85.6682,93.9486 85.5,96.5C 85.5,100.167 85.5,103.833 85.5,107.5C 85.2594,109.898 85.9261,111.898 87.5,113.5C 87.4142,114.496 87.7476,115.329 88.5,116C 87.2068,116.49 85.8734,116.657 84.5,116.5C 83.5872,121.41 84.9205,125.41 88.5,128.5C 89.1667,128.833 89.8333,129.167 90.5,129.5C 92.0945,132.26 94.4279,134.093 97.5,135C 95.4233,135.192 93.4233,135.692 91.5,136.5C 91.6236,137.107 91.9569,137.44 92.5,137.5C 93.8079,140.464 95.8079,142.797 98.5,144.5C 101.18,147.192 104.18,149.192 107.5,150.5C 106.508,150.328 105.842,150.662 105.5,151.5C 102.406,152.213 99.4061,153.213 96.5,154.5C 91.5068,154.916 86.5068,155.249 81.5,155.5C 81.5,156.5 81.5,157.5 81.5,158.5C 82.5,158.5 83.5,158.5 84.5,158.5C 85.1667,158.833 85.8333,159.167 86.5,159.5C 89.309,161.897 92.6424,163.23 96.5,163.5C 96.5,163.833 96.5,164.167 96.5,164.5C 96.5,165.167 96.5,165.833 96.5,166.5C 94.4252,167.62 92.2585,168.62 90,169.5C 89.1769,184.075 89.3436,198.575 90.5,213C 89.2412,213.923 87.9079,214.757 86.5,215.5C 86.8869,216.72 87.7202,217.387 89,217.5C 90.7374,216.38 92.5708,215.38 94.5,214.5C 97.8366,215.109 98.1699,216.276 95.5,218C 92.6209,218.546 89.9542,219.379 87.5,220.5C 86.391,220.443 85.391,220.11 84.5,219.5C 82.3374,217.917 80.0041,216.584 77.5,215.5C 77.0291,214.099 76.3624,212.766 75.5,211.5C 71.5539,210.162 67.8872,208.496 64.5,206.5C 62.8333,204.5 61.1667,202.5 59.5,200.5C 57.3337,198.002 56.3337,195.002 56.5,191.5C 57.5,191.5 58.5,191.5 59.5,191.5C 59.5,193.167 59.5,194.833 59.5,196.5C 60.8333,196.5 62.1667,196.5 63.5,196.5C 65.1342,151.869 66.1342,107.203 66.5,62.5C 64.0194,62.3234 62.1861,63.3234 61,65.5C 60.5,65 60,64.5 59.5,64C 60.478,62.0249 61.8113,60.3582 63.5,59C 62.3154,53.5421 61.1487,53.3755 60,58.5C 59.7508,57.376 59.2508,56.376 58.5,55.5C 55.9504,57.0377 53.6171,58.7044 51.5,60.5C 56.8431,54.1575 62.8431,48.4908 69.5,43.5C 74.8102,40.0108 80.4769,37.3442 86.5,35.5 Z"/></g>
<g><path style="opacity:1" fill="#20272e" d="M 149.5,29.5 C 151.588,30.9395 153.921,31.6061 156.5,31.5C 159.216,31.6785 161.883,32.1785 164.5,33C 169.062,35.4676 173.728,37.6343 178.5,39.5C 181.319,42.075 184.319,44.4083 187.5,46.5C 186.833,48.5 186.167,50.5 185.5,52.5C 188.957,52.6672 189.29,53.6672 186.5,55.5C 185.826,104.359 185.16,153.192 184.5,202C 185.769,204.084 186.769,206.251 187.5,208.5C 185.77,209.026 184.436,210.026 183.5,211.5C 180.802,211.845 178.802,213.178 177.5,215.5C 174.314,216.597 171.314,217.93 168.5,219.5C 166.208,221.267 163.542,222.267 160.5,222.5C 160.67,221.178 160.337,220.011 159.5,219C 161.167,217.833 162.833,216.667 164.5,215.5C 163.758,214.713 162.925,214.047 162,213.5C 161.833,192.159 161.333,170.826 160.5,149.5C 159.808,148.975 159.308,148.308 159,147.5C 158.009,148.939 156.676,149.939 155,150.5C 154.833,149.833 154.667,149.167 154.5,148.5C 156.022,147.514 157.355,145.681 158.5,143C 156.534,138.495 157.868,135.662 162.5,134.5C 162.343,135.873 162.51,137.207 163,138.5C 163.346,136.782 163.846,135.115 164.5,133.5C 162.914,131.827 162.247,129.827 162.5,127.5C 162.993,125.194 163.326,122.861 163.5,120.5C 163.5,119.5 163.5,118.5 163.5,117.5C 164.477,114.713 164.81,111.713 164.5,108.5C 167.089,107.581 169.089,105.914 170.5,103.5C 171.167,102.5 171.833,101.5 172.5,100.5C 173.043,100.44 173.376,100.107 173.5,99.5C 172.311,98.5713 170.978,98.238 169.5,98.5C 169.5,97.5 169.5,96.5 169.5,95.5C 169.5,94.5 169.5,93.5 169.5,92.5C 166.335,93.795 163.001,94.795 159.5,95.5C 156.816,94.1582 154.15,92.8249 151.5,91.5C 151.158,90.6618 150.492,90.3284 149.5,90.5C 147.052,89.5269 144.385,89.1936 141.5,89.5C 144.057,88.5148 146.724,87.5148 149.5,86.5C 149.192,85.6919 148.692,85.0253 148,84.5C 148.147,66.7658 147.313,49.2658 145.5,32C 146.858,31.0656 148.192,30.2323 149.5,29.5 Z"/></g>
<g><path style="opacity:1" fill="#c9bb89" d="M 178.5,39.5 C 179.833,39.5 181.167,39.5 182.5,39.5C 184.223,41.2181 186.223,42.5514 188.5,43.5C 189.795,44.4884 191.128,45.4884 192.5,46.5C 192.833,47.1667 193.167,47.8333 193.5,48.5C 194.833,50.1667 196.167,51.8333 197.5,53.5C 197.167,53.5 196.833,53.5 196.5,53.5C 193.786,50.7846 190.786,48.4512 187.5,46.5C 184.319,44.4083 181.319,42.075 178.5,39.5 Z"/></g>
<g><path style="opacity:1" fill="#cea345" d="M 192.5,33.5 C 194.062,33.7329 195.395,34.3995 196.5,35.5C 197.167,36.1667 197.833,36.8333 198.5,37.5C 196.856,37.2865 195.356,37.6198 194,38.5C 193.178,41.1168 192.678,43.7835 192.5,46.5C 191.128,45.4884 189.795,44.4884 188.5,43.5C 187.418,42.4062 186.752,41.0729 186.5,39.5C 187.651,37.6746 188.318,35.6746 188.5,33.5C 189.833,33.5 191.167,33.5 192.5,33.5 Z"/></g>
<g><path style="opacity:1" fill="#9d9680" d="M 203.5,38.5 C 206.204,38.6696 207.871,40.0029 208.5,42.5C 206.246,41.8763 204.579,40.543 203.5,38.5 Z"/></g>
<g><path style="opacity:1" fill="#d3b976" d="M 55.5,35.5 C 56.1667,35.5 56.8333,35.5 57.5,35.5C 48.5069,42.8267 40.1736,50.8267 32.5,59.5C 32.5,59.1667 32.5,58.8333 32.5,58.5C 32.5,58.1667 32.5,57.8333 32.5,57.5C 37.4908,50.8431 43.1575,44.8431 49.5,39.5C 51.2279,37.7745 53.2279,36.4411 55.5,35.5 Z"/></g>
<g><path style="opacity:1" fill="#dec382" d="M 196.5,35.5 C 197.167,35.5 197.833,35.5 198.5,35.5C 200.001,36.7515 201.668,37.7515 203.5,38.5C 204.579,40.543 206.246,41.8763 208.5,42.5C 209.167,44.5 210.5,45.8333 212.5,46.5C 213.11,47.391 213.443,48.391 213.5,49.5C 212.5,48.8333 211.5,48.1667 210.5,47.5C 206.792,43.7899 202.792,40.4566 198.5,37.5C 197.833,36.8333 197.167,36.1667 196.5,35.5 Z"/></g>
<g><path style="opacity:1" fill="#bb8628" d="M 198.5,37.5 C 202.792,40.4566 206.792,43.7899 210.5,47.5C 210.739,49.4672 210.406,51.3005 209.5,53C 207.436,53.6532 205.769,54.8199 204.5,56.5C 203.583,55.8728 202.583,55.5394 201.5,55.5C 199.431,52.4275 196.764,50.0941 193.5,48.5C 193.167,47.8333 192.833,47.1667 192.5,46.5C 192.678,43.7835 193.178,41.1168 194,38.5C 195.356,37.6198 196.856,37.2865 198.5,37.5 Z"/></g>
<g><path style="opacity:1" fill="#1e2228" d="M 187.5,46.5 C 190.786,48.4512 193.786,50.7846 196.5,53.5C 196.52,55.143 195.853,56.4763 194.5,57.5C 195.689,58.4287 197.022,58.762 198.5,58.5C 198.5,59.5 198.5,60.5 198.5,61.5C 198.077,62.2646 197.743,63.0979 197.5,64C 199.482,106.053 200.149,148.219 199.5,190.5C 197.897,190.312 196.563,190.812 195.5,192C 196.905,193.269 198.571,193.769 200.5,193.5C 200.281,192.325 200.614,191.325 201.5,190.5C 202.429,191.689 202.762,193.022 202.5,194.5C 200.833,196.5 199.167,198.5 197.5,200.5C 194.474,203.195 191.474,205.862 188.5,208.5C 188.167,208.5 187.833,208.5 187.5,208.5C 186.769,206.251 185.769,204.084 184.5,202C 185.16,153.192 185.826,104.359 186.5,55.5C 189.29,53.6672 188.957,52.6672 185.5,52.5C 186.167,50.5 186.833,48.5 187.5,46.5 Z"/></g>
<g><path style="opacity:1" fill="#9f9e8b" d="M 49.5,39.5 C 43.1575,44.8431 37.4908,50.8431 32.5,57.5C 33.4852,54.5444 34.4852,51.5444 35.5,48.5C 37.6198,49.8715 38.6198,49.2048 38.5,46.5C 39.552,46.6495 40.552,46.4828 41.5,46C 43.6389,43.1083 46.3056,40.9417 49.5,39.5 Z"/></g>
<g><path style="opacity:1" fill="#9b9887" d="M 212.5,46.5 C 216.319,48.8482 219.819,51.5148 223,54.5C 223.662,56.8127 224.162,59.146 224.5,61.5C 223.272,60.6935 222.272,59.6935 221.5,58.5C 219.57,54.8998 216.903,51.8998 213.5,49.5C 213.443,48.391 213.11,47.391 212.5,46.5 Z"/></g>
<g><path style="opacity:1" fill="#d5bc73" d="M 71.5,39.5 C 70.3995,40.6049 69.7329,41.9382 69.5,43.5C 62.8431,48.4908 56.8431,54.1575 51.5,60.5C 49.4131,61.5846 48.0798,63.2512 47.5,65.5C 46.5,65.8333 45.8333,66.5 45.5,67.5C 45.1667,67.5 44.8333,67.5 44.5,67.5C 44.3433,66.1266 44.51,64.7932 45,63.5C 52.4772,53.8489 61.3106,45.8489 71.5,39.5 Z"/></g>
<g><path style="opacity:1" fill="#2e2e25" d="M 196.5,53.5 C 196.833,53.5 197.167,53.5 197.5,53.5C 200.57,56.5638 203.237,59.8971 205.5,63.5C 203.903,62.9095 202.569,61.9095 201.5,60.5C 200.583,61.1272 199.583,61.4606 198.5,61.5C 198.5,60.5 198.5,59.5 198.5,58.5C 197.022,58.762 195.689,58.4287 194.5,57.5C 195.853,56.4763 196.52,55.143 196.5,53.5 Z"/></g>
<g><path style="opacity:1" fill="#cea143" d="M 210.5,47.5 C 211.5,48.1667 212.5,48.8333 213.5,49.5C 213.286,51.1439 213.62,52.6439 214.5,54C 212.928,56.8722 211.262,59.7056 209.5,62.5C 206.196,60.8602 203.529,58.5269 201.5,55.5C 202.583,55.5394 203.583,55.8728 204.5,56.5C 205.769,54.8199 207.436,53.6532 209.5,53C 210.406,51.3005 210.739,49.4672 210.5,47.5 Z"/></g>
<g><path style="opacity:1" fill="#1e2329" d="M 59.5,200.5 C 58.8333,200.5 58.1667,200.5 57.5,200.5C 56.5,199.833 55.5,199.167 54.5,198.5C 53.925,196.589 52.925,194.922 51.5,193.5C 53.9565,189.261 53.9565,184.927 51.5,180.5C 50.1667,145.833 50.1667,111.167 51.5,76.5C 53.5562,71.8921 53.5562,67.2254 51.5,62.5C 51.5,61.8333 51.5,61.1667 51.5,60.5C 53.6171,58.7044 55.9504,57.0377 58.5,55.5C 59.2508,56.376 59.7508,57.376 60,58.5C 61.1487,53.3755 62.3154,53.5421 63.5,59C 61.8113,60.3582 60.478,62.0249 59.5,64C 60,64.5 60.5,65 61,65.5C 62.1861,63.3234 64.0194,62.3234 66.5,62.5C 66.1342,107.203 65.1342,151.869 63.5,196.5C 62.1667,196.5 60.8333,196.5 59.5,196.5C 59.5,194.833 59.5,193.167 59.5,191.5C 58.5,191.5 57.5,191.5 56.5,191.5C 56.3337,195.002 57.3337,198.002 59.5,200.5 Z"/></g>
<g><path style="opacity:1" fill="#9a9175" d="M 32.5,58.5 C 32.5,58.8333 32.5,59.1667 32.5,59.5C 29.4884,63.5383 26.4884,67.5383 23.5,71.5C 23.4606,70.4168 23.1272,69.4168 22.5,68.5C 25.7454,66.7056 28.0788,64.0389 29.5,60.5C 30.5178,59.8075 31.5178,59.1408 32.5,58.5 Z"/></g>
<g><path style="opacity:1" fill="#534935" d="M 51.5,60.5 C 51.5,61.1667 51.5,61.8333 51.5,62.5C 50.1667,63.5 48.8333,64.5 47.5,65.5C 48.0798,63.2512 49.4131,61.5846 51.5,60.5 Z"/></g>
<g><path style="opacity:1" fill="#171c22" d="M 205.5,63.5 C 208.933,66.6012 211.6,70.2679 213.5,74.5C 213.5,76.5 213.5,78.5 213.5,80.5C 213.19,81.7383 212.69,81.7383 212,80.5C 211.167,111.839 211.333,143.172 212.5,174.5C 213.265,175.612 214.265,176.279 215.5,176.5C 214.559,178.05 213.893,179.716 213.5,181.5C 211.1,183.296 209.433,185.63 208.5,188.5C 206.139,190.194 204.139,192.194 202.5,194.5C 202.762,193.022 202.429,191.689 201.5,190.5C 200.614,191.325 200.281,192.325 200.5,193.5C 198.571,193.769 196.905,193.269 195.5,192C 196.563,190.812 197.897,190.312 199.5,190.5C 200.149,148.219 199.482,106.053 197.5,64C 197.743,63.0979 198.077,62.2646 198.5,61.5C 199.583,61.4606 200.583,61.1272 201.5,60.5C 202.569,61.9095 203.903,62.9095 205.5,63.5 Z"/></g>
<g><path style="opacity:1" fill="#be8b2f" d="M 19.5,85.5 C 19.5,84.5 19.5,83.5 19.5,82.5C 19.5597,79.6592 20.2264,76.9925 21.5,74.5C 22.4013,73.7095 23.0679,72.7095 23.5,71.5C 26.4884,67.5383 29.4884,63.5383 32.5,59.5C 40.1736,50.8267 48.5069,42.8267 57.5,35.5C 59.3718,33.3963 61.7052,32.063 64.5,31.5C 68.4971,30.7629 72.1637,29.5963 75.5,28C 74.7433,29.5122 73.7433,30.8455 72.5,32C 69.5529,32.1118 68.2196,33.6118 68.5,36.5C 67.448,36.3505 66.448,36.5172 65.5,37C 61.3346,42.3318 56.6679,47.1652 51.5,51.5C 50.0499,52.8498 49.3832,54.5165 49.5,56.5C 47.8333,56.5 46.1667,56.5 44.5,56.5C 44.2461,59.0143 43.4127,61.3476 42,63.5C 37.9203,66.4105 34.7537,70.0772 32.5,74.5C 27.7843,77.896 23.451,81.5627 19.5,85.5 Z"/></g>
<g><path style="opacity:1" fill="#cfab5a" d="M 193.5,48.5 C 196.764,50.0941 199.431,52.4275 201.5,55.5C 203.529,58.5269 206.196,60.8602 209.5,62.5C 211.262,59.7056 212.928,56.8722 214.5,54C 213.62,52.6439 213.286,51.1439 213.5,49.5C 216.903,51.8998 219.57,54.8998 221.5,58.5C 220.022,58.238 218.689,58.5713 217.5,59.5C 216.369,62.2553 214.702,64.5886 212.5,66.5C 214.04,70.2693 216.04,73.6026 218.5,76.5C 219.95,80.3908 221.617,84.0574 223.5,87.5C 224.11,88.391 224.443,89.391 224.5,90.5C 223.167,89.5 221.833,88.5 220.5,87.5C 219.449,82.3926 217.115,78.0592 213.5,74.5C 211.6,70.2679 208.933,66.6012 205.5,63.5C 203.237,59.8971 200.57,56.5638 197.5,53.5C 196.167,51.8333 194.833,50.1667 193.5,48.5 Z"/></g>
<g><path style="opacity:1" fill="#eecc73" d="M 221.5,58.5 C 221.343,59.8734 221.51,61.2068 222,62.5C 223.75,64.7343 225.25,67.0676 226.5,69.5C 220.927,68.0551 218.26,70.3884 218.5,76.5C 216.04,73.6026 214.04,70.2693 212.5,66.5C 214.702,64.5886 216.369,62.2553 217.5,59.5C 218.689,58.5713 220.022,58.238 221.5,58.5 Z"/></g>
<g><path style="opacity:1" fill="#191e23" d="M 51.5,62.5 C 53.5562,67.2254 53.5562,71.8921 51.5,76.5C 50.1667,111.167 50.1667,145.833 51.5,180.5C 53.9565,184.927 53.9565,189.261 51.5,193.5C 50.8333,193.167 50.1667,192.833 49.5,192.5C 48.3995,191.395 47.7329,190.062 47.5,188.5C 45.1066,181.983 43.1066,175.317 41.5,168.5C 41.7805,143.529 42.7805,118.529 44.5,93.5C 43.5,93.5 42.5,93.5 41.5,93.5C 41.5,94.5 41.5,95.5 41.5,96.5C 36.4637,95.495 36.4637,94.1616 41.5,92.5C 41.2964,89.4547 41.2964,86.6213 41.5,84C 40.2642,82.6125 38.9308,81.4458 37.5,80.5C 38.0787,77.6689 39.412,75.3356 41.5,73.5C 43.8218,72.1979 45.1551,70.1979 45.5,67.5C 45.8333,66.5 46.5,65.8333 47.5,65.5C 48.8333,64.5 50.1667,63.5 51.5,62.5 Z"/></g>
<g><path style="opacity:1" fill="#807255" d="M 230.5,70.5 C 233.165,72.8355 234.498,75.8355 234.5,79.5C 232.785,76.6975 231.452,73.6975 230.5,70.5 Z"/></g>
<g><path style="opacity:1" fill="#5e4e32" d="M 44.5,67.5 C 44.8333,67.5 45.1667,67.5 45.5,67.5C 45.1551,70.1979 43.8218,72.1979 41.5,73.5C 42.4706,71.5168 43.4706,69.5168 44.5,67.5 Z"/></g>
<g><path style="opacity:1" fill="#c3a75d" d="M 221.5,58.5 C 222.272,59.6935 223.272,60.6935 224.5,61.5C 226.564,64.5437 228.564,67.5437 230.5,70.5C 231.452,73.6975 232.785,76.6975 234.5,79.5C 235.5,81.5 236.5,83.5 237.5,85.5C 237.948,91.3152 239.615,96.6485 242.5,101.5C 242.5,102.833 242.5,104.167 242.5,105.5C 242.704,108.518 243.037,111.518 243.5,114.5C 243.167,114.5 242.833,114.5 242.5,114.5C 242.5,113.833 242.167,113.5 241.5,113.5C 241.813,109.958 241.479,106.625 240.5,103.5C 240.672,102.508 240.338,101.842 239.5,101.5C 238.24,93.7245 235.573,86.3912 231.5,79.5C 230.325,75.8174 228.659,72.4841 226.5,69.5C 225.25,67.0676 223.75,64.7343 222,62.5C 221.51,61.2068 221.343,59.8734 221.5,58.5 Z"/></g>
<g><path style="opacity:1" fill="#f5e196" d="M 226.5,69.5 C 228.659,72.4841 230.325,75.8174 231.5,79.5C 229.955,80.2297 229.122,81.563 229,83.5C 227.989,82.6634 226.822,82.33 225.5,82.5C 225.169,84.3224 224.502,85.9891 223.5,87.5C 221.617,84.0574 219.95,80.3908 218.5,76.5C 218.26,70.3884 220.927,68.0551 226.5,69.5 Z"/></g>
<g><path style="opacity:1" fill="#2d281b" d="M 213.5,74.5 C 217.115,78.0592 219.449,82.3926 220.5,87.5C 220.5,88.1667 220.5,88.8333 220.5,89.5C 218.225,86.5461 215.892,83.5461 213.5,80.5C 213.5,78.5 213.5,76.5 213.5,74.5 Z"/></g>
<g><path style="opacity:1" fill="#877e6d" d="M 21.5,74.5 C 20.2264,76.9925 19.5597,79.6592 19.5,82.5C 18.3127,84.0725 17.3127,85.7392 16.5,87.5C 16.162,84.8431 16.8287,82.5098 18.5,80.5C 16.8289,77.1842 17.8289,75.1842 21.5,74.5 Z"/></g>
<g><path style="opacity:1" fill="#9c773b" d="M 19.5,82.5 C 19.5,83.5 19.5,84.5 19.5,85.5C 18.2032,89.0826 16.5366,92.4159 14.5,95.5C 14.5838,92.6726 15.2504,90.006 16.5,87.5C 17.3127,85.7392 18.3127,84.0725 19.5,82.5 Z"/></g>
<g><path style="opacity:1" fill="#7e7e66" d="M 141.5,89.5 C 144.385,89.1936 147.052,89.5269 149.5,90.5C 145.183,90.0834 141.183,90.7501 137.5,92.5C 136.833,92.5 136.167,92.5 135.5,92.5C 135.833,91.8333 136.167,91.1667 136.5,90.5C 138.216,90.3713 139.883,90.038 141.5,89.5 Z"/></g>
<g><path style="opacity:1" fill="#887859" d="M 237.5,85.5 C 240.744,90.2368 242.411,95.5701 242.5,101.5C 239.615,96.6485 237.948,91.3152 237.5,85.5 Z"/></g>
<g><path style="opacity:1" fill="#94875f" d="M 135.5,92.5 C 135.167,93.1667 134.833,93.8333 134.5,94.5C 133.833,94.5 133.5,94.8333 133.5,95.5C 132.833,95.5 132.167,95.5 131.5,95.5C 132.262,93.7376 133.596,92.7376 135.5,92.5 Z"/></g>
<g><path style="opacity:1" fill="#5b5338" d="M 88.5,94.5 C 91.7642,96.0941 94.4309,98.4275 96.5,101.5C 93.9066,100.246 91.5732,98.5798 89.5,96.5C 89.1667,95.8333 88.8333,95.1667 88.5,94.5 Z"/></g>
<g><path style="opacity:1" fill="#605a41" d="M 88.5,94.5 C 87.5,95.1667 86.5,95.8333 85.5,96.5C 85.6682,93.9486 86.6682,93.2819 88.5,94.5 Z"/></g>
<g><path style="opacity:1" fill="#f6e399" d="M 135.5,92.5 C 136.167,92.5 136.833,92.5 137.5,92.5C 139.857,92.3367 142.19,92.5034 144.5,93C 149.927,99.7658 155.76,106.266 162,112.5C 162.497,115.146 162.664,117.813 162.5,120.5C 158.262,117.426 154.429,113.759 151,109.5C 150.517,108.552 150.351,107.552 150.5,106.5C 149.022,106.762 147.689,106.429 146.5,105.5C 143.789,101.788 140.456,98.7881 136.5,96.5C 138.748,95.676 138.914,94.676 137,93.5C 136.329,94.2524 135.496,94.5858 134.5,94.5C 134.833,93.8333 135.167,93.1667 135.5,92.5 Z"/></g>
<g><path style="opacity:1" fill="#f9f3be" d="M 231.5,79.5 C 235.573,86.3912 238.24,93.7245 239.5,101.5C 239.665,104.85 239.498,108.183 239,111.5C 237.884,106.427 236.717,106.594 235.5,112C 234.056,112.781 232.723,112.614 231.5,111.5C 230.942,108.873 229.942,106.54 228.5,104.5C 227.784,99.5381 226.45,94.8715 224.5,90.5C 224.443,89.391 224.11,88.391 223.5,87.5C 224.502,85.9891 225.169,84.3224 225.5,82.5C 226.822,82.33 227.989,82.6634 229,83.5C 229.122,81.563 229.955,80.2297 231.5,79.5 Z"/></g>
<g><path style="opacity:1" fill="#262118" d="M 37.5,80.5 C 37.5179,85.113 36.0179,89.113 33,92.5C 32.8783,97.712 31.3783,102.379 28.5,106.5C 28.87,102.767 29.5367,99.1007 30.5,95.5C 32.3748,90.2901 34.7082,85.2901 37.5,80.5 Z"/></g>
<g><path style="opacity:1" fill="#16181a" d="M 37.5,80.5 C 38.9308,81.4458 40.2642,82.6125 41.5,84C 41.2964,86.6213 41.2964,89.4547 41.5,92.5C 36.4637,94.1616 36.4637,95.495 41.5,96.5C 41.5,95.5 41.5,94.5 41.5,93.5C 42.5,93.5 43.5,93.5 44.5,93.5C 42.7805,118.529 41.7805,143.529 41.5,168.5C 43.1066,175.317 45.1066,181.983 47.5,188.5C 45.6053,187.027 43.9387,185.36 42.5,183.5C 41.5324,180.9 40.1991,178.566 38.5,176.5C 34.4468,169.327 31.4468,161.66 29.5,153.5C 29.2453,149.2 28.2453,145.2 26.5,141.5C 25.5013,133.189 25.3347,124.856 26,116.5C 26.3106,112.91 27.144,109.577 28.5,106.5C 31.3783,102.379 32.8783,97.712 33,92.5C 36.0179,89.113 37.5179,85.113 37.5,80.5 Z"/></g>
<g><path style="opacity:1" fill="#13161b" d="M 213.5,80.5 C 215.892,83.5461 218.225,86.5461 220.5,89.5C 221.117,89.6107 221.617,89.944 222,90.5C 222.943,93.824 223.776,97.1574 224.5,100.5C 227.148,112.979 228.148,125.645 227.5,138.5C 227.167,141.833 226.833,145.167 226.5,148.5C 224.926,150.102 224.259,152.102 224.5,154.5C 223.699,156.042 223.366,157.708 223.5,159.5C 222.596,160.209 222.263,161.209 222.5,162.5C 220.461,163.911 219.461,165.911 219.5,168.5C 217.981,171.044 216.648,173.711 215.5,176.5C 214.265,176.279 213.265,175.612 212.5,174.5C 211.333,143.172 211.167,111.839 212,80.5C 212.69,81.7383 213.19,81.7383 213.5,80.5 Z"/></g>
<g><path style="opacity:1" fill="#f6ecb5" d="M 149.5,90.5 C 150.492,90.3284 151.158,90.6618 151.5,91.5C 150.047,92.8249 150.381,93.6582 152.5,94C 152.167,94.3333 151.833,94.6667 151.5,95C 155.085,99.5846 158.918,104.085 163,108.5C 163.498,111.482 163.665,114.482 163.5,117.5C 163.5,118.5 163.5,119.5 163.5,120.5C 163.167,120.5 162.833,120.5 162.5,120.5C 162.664,117.813 162.497,115.146 162,112.5C 155.76,106.266 149.927,99.7658 144.5,93C 142.19,92.5034 139.857,92.3367 137.5,92.5C 141.183,90.7501 145.183,90.0834 149.5,90.5 Z"/></g>
<g><path style="opacity:1" fill="#8f7649" d="M 14.5,95.5 C 14.5,97.8333 14.5,100.167 14.5,102.5C 12.7475,105.146 11.7475,108.146 11.5,111.5C 11.1667,111.5 10.8333,111.5 10.5,111.5C 10.9518,107.837 11.4518,104.17 12,100.5C 12.0995,98.3474 12.9328,96.6808 14.5,95.5 Z"/></g>
<g><path style="opacity:1" fill="#e8e6bc" d="M 151.5,91.5 C 154.15,92.8249 156.816,94.1582 159.5,95.5C 163.001,94.795 166.335,93.795 169.5,92.5C 169.5,93.5 169.5,94.5 169.5,95.5C 168.167,96.1667 167.167,97.1667 166.5,98.5C 165.522,98.811 164.855,99.4777 164.5,100.5C 166.655,101.001 168.322,102.001 169.5,103.5C 167.5,104.833 165.833,106.5 164.5,108.5C 164.81,111.713 164.477,114.713 163.5,117.5C 163.665,114.482 163.498,111.482 163,108.5C 158.918,104.085 155.085,99.5846 151.5,95C 151.833,94.6667 152.167,94.3333 152.5,94C 150.381,93.6582 150.047,92.8249 151.5,91.5 Z"/></g>
<g><path style="opacity:1" fill="#42453c" d="M 169.5,95.5 C 169.5,96.5 169.5,97.5 169.5,98.5C 170.978,98.238 172.311,98.5713 173.5,99.5C 173.376,100.107 173.043,100.44 172.5,100.5C 171.177,99.3922 169.677,99.3922 168,100.5C 166.97,100.164 166.47,99.4972 166.5,98.5C 167.167,97.1667 168.167,96.1667 169.5,95.5 Z"/></g>
<g><path style="opacity:1" fill="#9e9e86" d="M 166.5,98.5 C 166.47,99.4972 166.97,100.164 168,100.5C 169.677,99.3922 171.177,99.3922 172.5,100.5C 171.833,101.5 171.167,102.5 170.5,103.5C 170.167,103.5 169.833,103.5 169.5,103.5C 168.322,102.001 166.655,101.001 164.5,100.5C 164.855,99.4777 165.522,98.811 166.5,98.5 Z"/></g>
<g><path style="opacity:1" fill="#312d23" d="M 96.5,101.5 C 97.5,101.5 98.5,101.5 99.5,101.5C 101.335,104.872 103.668,105.205 106.5,102.5C 107.096,103.716 107.263,105.049 107,106.5C 108.652,107.399 110.152,108.399 111.5,109.5C 108.208,109.353 105.208,108.353 102.5,106.5C 100.5,104.833 98.5,103.167 96.5,101.5 Z"/></g>
<g><path style="opacity:1" fill="#e3bf66" d="M 25.5,102.5 C 25.6068,100.621 25.1068,100.288 24,101.5C 23.7978,103.256 23.2978,104.922 22.5,106.5C 19.9941,108.506 17.8274,110.84 16,113.5C 13.7953,118.932 12.962,124.598 13.5,130.5C 13.407,136.863 13.7403,143.196 14.5,149.5C 12.8255,146.493 12.1588,143.16 12.5,139.5C 12.1184,127.073 12.7851,114.74 14.5,102.5C 16.2798,101.01 16.9465,99.0101 16.5,96.5C 17.9305,96.5792 19.2638,96.2458 20.5,95.5C 21.1867,97.2744 22.0201,98.9411 23,100.5C 23.2494,97.8232 24.2494,95.4899 26,93.5C 26.8045,96.6965 26.6378,99.6965 25.5,102.5 Z"/></g>
<g><path style="opacity:1" fill="#3f2f14" d="M 224.5,100.5 C 226.531,103.422 227.698,106.755 228,110.5C 228.824,120.009 228.658,129.343 227.5,138.5C 228.148,125.645 227.148,112.979 224.5,100.5 Z"/></g>
<g><path style="opacity:1" fill="#aa7e30" d="M 30.5,95.5 C 29.5367,99.1007 28.87,102.767 28.5,106.5C 27.144,109.577 26.3106,112.91 26,116.5C 25.3347,124.856 25.5013,133.189 26.5,141.5C 26.5,142.167 26.5,142.833 26.5,143.5C 26.1667,143.5 25.8333,143.5 25.5,143.5C 23.9462,139.433 23.2796,135.1 23.5,130.5C 23.4097,121.763 24.0764,113.096 25.5,104.5C 27.3507,101.628 29.0173,98.6276 30.5,95.5 Z"/></g>
<g><path style="opacity:1" fill="#575a53" d="M 169.5,103.5 C 169.833,103.5 170.167,103.5 170.5,103.5C 169.089,105.914 167.089,107.581 164.5,108.5C 165.833,106.5 167.5,104.833 169.5,103.5 Z"/></g>
<g><path style="opacity:1" fill="#e3be64" d="M 131.5,95.5 C 132.167,95.5 132.833,95.5 133.5,95.5C 136.157,97.8665 138.157,100.867 139.5,104.5C 142.226,107.936 145.392,110.936 149,113.5C 149.555,116.542 151.388,118.375 154.5,119C 156.7,121.234 158.533,123.734 160,126.5C 160.383,125.944 160.883,125.611 161.5,125.5C 161.5,126.167 161.5,126.833 161.5,127.5C 160.264,129.649 159.264,131.982 158.5,134.5C 158.167,134.5 157.833,134.5 157.5,134.5C 157.341,131.845 156.341,129.512 154.5,127.5C 145.397,119.064 136.73,110.397 128.5,101.5C 129.5,99.5 130.5,97.5 131.5,95.5 Z"/></g>
<g><path style="opacity:1" fill="#f2d47b" d="M 162.5,120.5 C 162.371,122.216 162.038,123.883 161.5,125.5C 160.883,125.611 160.383,125.944 160,126.5C 158.533,123.734 156.7,121.234 154.5,119C 151.388,118.375 149.555,116.542 149,113.5C 145.392,110.936 142.226,107.936 139.5,104.5C 138.157,100.867 136.157,97.8665 133.5,95.5C 133.5,94.8333 133.833,94.5 134.5,94.5C 135.496,94.5858 136.329,94.2524 137,93.5C 138.914,94.676 138.748,95.676 136.5,96.5C 140.456,98.7881 143.789,101.788 146.5,105.5C 147.689,106.429 149.022,106.762 150.5,106.5C 150.351,107.552 150.517,108.552 151,109.5C 154.429,113.759 158.262,117.426 162.5,120.5 Z"/></g>
<g><path style="opacity:1" fill="#332616" d="M 125.5,108.5 C 125.5,109.833 125.5,111.167 125.5,112.5C 124.5,112.5 123.5,112.5 122.5,112.5C 120.833,112.5 119.167,112.5 117.5,112.5C 115.5,111.5 113.5,110.5 111.5,109.5C 115.76,110.585 120.094,111.252 124.5,111.5C 124.263,110.209 124.596,109.209 125.5,108.5 Z"/></g>
<g><path style="opacity:1" fill="#604b27" d="M 131.5,95.5 C 130.5,97.5 129.5,99.5 128.5,101.5C 127.89,102.391 127.557,103.391 127.5,104.5C 126.523,107.287 126.19,110.287 126.5,113.5C 124.901,113.768 123.568,113.434 122.5,112.5C 123.5,112.5 124.5,112.5 125.5,112.5C 125.5,111.167 125.5,109.833 125.5,108.5C 125.091,102.988 127.091,98.655 131.5,95.5 Z"/></g>
<g><path style="opacity:1" fill="#646356" d="M 85.5,107.5 C 86.9313,108.78 87.5979,110.447 87.5,112.5C 87.5,112.833 87.5,113.167 87.5,113.5C 85.9261,111.898 85.2594,109.898 85.5,107.5 Z"/></g>
<g><path style="opacity:1" fill="#f5e099" d="M 239.5,101.5 C 240.338,101.842 240.672,102.508 240.5,103.5C 240.774,108.392 240.107,113.059 238.5,117.5C 237.5,117.5 236.5,117.5 235.5,117.5C 235.991,122.059 234.658,123.059 231.5,120.5C 231.795,118.265 231.461,116.265 230.5,114.5C 229.419,111.373 228.753,108.04 228.5,104.5C 229.942,106.54 230.942,108.873 231.5,111.5C 232.723,112.614 234.056,112.781 235.5,112C 236.717,106.594 237.884,106.427 239,111.5C 239.498,108.183 239.665,104.85 239.5,101.5 Z"/></g>
<g><path style="opacity:1" fill="#4e5144" d="M 87.5,113.5 C 91.6638,116.447 90.9972,117.781 85.5,117.5C 86.1996,121.237 87.1996,124.904 88.5,128.5C 84.9205,125.41 83.5872,121.41 84.5,116.5C 85.8734,116.657 87.2068,116.49 88.5,116C 87.7476,115.329 87.4142,114.496 87.5,113.5 Z"/></g>
<g><path style="opacity:1" fill="#e8c66d" d="M 89.5,96.5 C 91.5732,98.5798 93.9066,100.246 96.5,101.5C 98.5,103.167 100.5,104.833 102.5,106.5C 115.254,118.914 128.254,131.581 141.5,144.5C 142.104,147.381 143.438,149.714 145.5,151.5C 144.833,151.833 144.167,152.167 143.5,152.5C 136.16,145.398 128.66,138.398 121,131.5C 118.599,126.681 115.265,122.681 111,119.5C 110.722,114.638 108.222,112.304 103.5,112.5C 100.263,108.272 96.2633,104.772 91.5,102C 89.5048,101.387 87.8381,101.887 86.5,103.5C 86.3379,101.473 86.5045,99.4727 87,97.5C 87.6708,96.7476 88.5041,96.4142 89.5,96.5 Z"/></g>
<g><path style="opacity:1" fill="#be882b" d="M 127.5,108.5 C 128.552,108.351 129.552,108.517 130.5,109C 139.147,118.155 148.147,126.655 157.5,134.5C 157.833,134.5 158.167,134.5 158.5,134.5C 157.4,135.605 156.733,136.938 156.5,138.5C 155.5,139.167 154.5,139.833 153.5,140.5C 153.509,138.692 153.009,137.025 152,135.5C 144.605,126.772 136.605,118.772 128,111.5C 127.517,110.552 127.351,109.552 127.5,108.5 Z"/></g>
<g><path style="opacity:1" fill="#f2d680" d="M 25.5,102.5 C 25.5,103.167 25.5,103.833 25.5,104.5C 24.0764,113.096 23.4097,121.763 23.5,130.5C 22.6805,127.695 22.1805,124.695 22,121.5C 19.6378,125.027 16.8045,128.027 13.5,130.5C 12.962,124.598 13.7953,118.932 16,113.5C 17.8274,110.84 19.9941,108.506 22.5,106.5C 23.2978,104.922 23.7978,103.256 24,101.5C 25.1068,100.288 25.6068,100.621 25.5,102.5 Z"/></g>
<g><path style="opacity:1" fill="#d9b157" d="M 102.5,106.5 C 105.208,108.353 108.208,109.353 111.5,109.5C 113.5,110.5 115.5,111.5 117.5,112.5C 117.5,113.167 117.833,113.5 118.5,113.5C 119.999,116.092 121.499,118.759 123,121.5C 129.288,128.464 136.121,134.63 143.5,140C 144.87,141.441 145.87,143.108 146.5,145C 148.134,145.494 149.801,145.66 151.5,145.5C 149.587,147.291 147.92,149.291 146.5,151.5C 146.167,151.5 145.833,151.5 145.5,151.5C 143.438,149.714 142.104,147.381 141.5,144.5C 128.254,131.581 115.254,118.914 102.5,106.5 Z"/></g>
<g><path style="opacity:1" fill="#f7e9a7" d="M 88.5,94.5 C 88.8333,95.1667 89.1667,95.8333 89.5,96.5C 88.5041,96.4142 87.6708,96.7476 87,97.5C 86.5045,99.4727 86.3379,101.473 86.5,103.5C 87.3898,106.224 88.8898,108.557 91,110.5C 94.1919,112.997 97.6919,115.164 101.5,117C 102.191,118.067 102.691,119.234 103,120.5C 114.868,131.326 126.035,142.659 136.5,154.5C 135.749,155.573 134.749,155.74 133.5,155C 129.2,149.699 124.534,144.699 119.5,140C 118.062,139.781 116.729,139.281 115.5,138.5C 109.453,132.784 103.453,127.117 97.5,121.5C 96.0662,116.4 92.7329,113.4 87.5,112.5C 87.5979,110.447 86.9313,108.78 85.5,107.5C 85.5,103.833 85.5,100.167 85.5,96.5C 86.5,95.8333 87.5,95.1667 88.5,94.5 Z"/></g>
<g><path style="opacity:1" fill="#9a7e46" d="M 242.5,105.5 C 243.117,105.611 243.617,105.944 244,106.5C 244.497,109.146 244.664,111.813 244.5,114.5C 244.826,123.017 244.493,131.35 243.5,139.5C 243.5,131.167 243.5,122.833 243.5,114.5C 243.037,111.518 242.704,108.518 242.5,105.5 Z"/></g>
<g><path style="opacity:1" fill="#c29840" d="M 14.5,102.5 C 12.7851,114.74 12.1184,127.073 12.5,139.5C 11.5064,130.348 11.1731,121.015 11.5,111.5C 11.7475,108.146 12.7475,105.146 14.5,102.5 Z"/></g>
<g><path style="opacity:1" fill="#f6de90" d="M 103.5,112.5 C 103.845,115.374 105.345,117.374 108,118.5C 108.483,119.448 108.649,120.448 108.5,121.5C 113.752,123.418 117.419,127.085 119.5,132.5C 126.153,137.495 131.653,143.495 136,150.5C 137.793,152.025 139.626,153.358 141.5,154.5C 141.167,154.5 140.833,154.5 140.5,154.5C 139.167,154.5 137.833,154.5 136.5,154.5C 126.035,142.659 114.868,131.326 103,120.5C 102.691,119.234 102.191,118.067 101.5,117C 97.6919,115.164 94.1919,112.997 91,110.5C 88.8898,108.557 87.3898,106.224 86.5,103.5C 87.8381,101.887 89.5048,101.387 91.5,102C 96.2633,104.772 100.263,108.272 103.5,112.5 Z"/></g>
<g><path style="opacity:1" fill="#b67e20" d="M 127.5,104.5 C 127.5,105.833 127.5,107.167 127.5,108.5C 127.351,109.552 127.517,110.552 128,111.5C 136.605,118.772 144.605,126.772 152,135.5C 153.009,137.025 153.509,138.692 153.5,140.5C 153.167,141.833 152.833,143.167 152.5,144.5C 152.167,144.5 151.833,144.5 151.5,144.5C 150.055,142.867 148.721,141.034 147.5,139C 140.803,136.061 135.97,131.228 133,124.5C 130.347,122.845 128.014,120.845 126,118.5C 125.517,117.552 125.351,116.552 125.5,115.5C 123.167,114.833 120.833,114.167 118.5,113.5C 117.833,113.5 117.5,113.167 117.5,112.5C 119.167,112.5 120.833,112.5 122.5,112.5C 123.568,113.434 124.901,113.768 126.5,113.5C 126.19,110.287 126.523,107.287 127.5,104.5 Z"/></g>
<g><path style="opacity:1" fill="#6b5f49" d="M 162.5,120.5 C 162.833,120.5 163.167,120.5 163.5,120.5C 163.326,122.861 162.993,125.194 162.5,127.5C 162.167,127.5 161.833,127.5 161.5,127.5C 161.5,126.833 161.5,126.167 161.5,125.5C 162.038,123.883 162.371,122.216 162.5,120.5 Z"/></g>
<g><path style="opacity:1" fill="#cc9d40" d="M 128.5,101.5 C 136.73,110.397 145.397,119.064 154.5,127.5C 156.341,129.512 157.341,131.845 157.5,134.5C 148.147,126.655 139.147,118.155 130.5,109C 129.552,108.517 128.552,108.351 127.5,108.5C 127.5,107.167 127.5,105.833 127.5,104.5C 127.557,103.391 127.89,102.391 128.5,101.5 Z"/></g>
<g><path style="opacity:1" fill="#765e42" d="M 10.5,111.5 C 10.3054,123.19 10.6388,134.856 11.5,146.5C 10.7321,145.737 10.2321,144.737 10,143.5C 9.17455,132.659 9.34121,121.992 10.5,111.5 Z"/></g>
<g><path style="opacity:1" fill="#a09b84" d="M 244.5,114.5 C 245.728,126.688 245.561,139.021 244,151.5C 243.722,152.416 243.222,153.082 242.5,153.5C 242.5,152.833 242.5,152.167 242.5,151.5C 243.021,147.519 243.354,143.519 243.5,139.5C 244.493,131.35 244.826,123.017 244.5,114.5 Z"/></g>
<g><path style="opacity:1" fill="#f7e8a7" d="M 23.5,130.5 C 23.2796,135.1 23.9462,139.433 25.5,143.5C 25.5,144.833 25.5,146.167 25.5,147.5C 24.017,145.906 22.517,144.24 21,142.5C 19.9148,143.293 18.7481,143.96 17.5,144.5C 16.5108,148.107 16.1774,151.774 16.5,155.5C 15.5418,153.698 14.8751,151.698 14.5,149.5C 13.7403,143.196 13.407,136.863 13.5,130.5C 16.8045,128.027 19.6378,125.027 22,121.5C 22.1805,124.695 22.6805,127.695 23.5,130.5 Z"/></g>
<g><path style="opacity:1" fill="#9f7d3e" d="M 10.5,111.5 C 10.8333,111.5 11.1667,111.5 11.5,111.5C 11.1731,121.015 11.5064,130.348 12.5,139.5C 12.1588,143.16 12.8255,146.493 14.5,149.5C 14.8751,151.698 15.5418,153.698 16.5,155.5C 16.5,156.833 16.5,158.167 16.5,159.5C 16.5,161.5 16.5,163.5 16.5,165.5C 12.8274,159.913 11.1607,153.58 11.5,146.5C 10.6388,134.856 10.3054,123.19 10.5,111.5 Z"/></g>
<g><path style="opacity:1" fill="#efce77" d="M 240.5,103.5 C 241.479,106.625 241.813,109.958 241.5,113.5C 241.83,119.868 241.496,126.202 240.5,132.5C 236.502,134.82 233.669,138.153 232,142.5C 231.5,135.174 231.334,127.841 231.5,120.5C 234.658,123.059 235.991,122.059 235.5,117.5C 236.5,117.5 237.5,117.5 238.5,117.5C 240.107,113.059 240.774,108.392 240.5,103.5 Z"/></g>
<g><path style="opacity:1" fill="#b8b490" d="M 90.5,129.5 C 93.097,131.594 96.097,132.927 99.5,133.5C 99.5,134.5 99.5,135.5 99.5,136.5C 96.9407,136.198 94.6074,136.532 92.5,137.5C 91.9569,137.44 91.6236,137.107 91.5,136.5C 93.4233,135.692 95.4233,135.192 97.5,135C 94.4279,134.093 92.0945,132.26 90.5,129.5 Z"/></g>
<g><path style="opacity:1" fill="#f2d581" d="M 103.5,112.5 C 108.222,112.304 110.722,114.638 111,119.5C 115.265,122.681 118.599,126.681 121,131.5C 128.66,138.398 136.16,145.398 143.5,152.5C 143.167,153.5 142.5,154.167 141.5,154.5C 139.626,153.358 137.793,152.025 136,150.5C 131.653,143.495 126.153,137.495 119.5,132.5C 117.419,127.085 113.752,123.418 108.5,121.5C 108.649,120.448 108.483,119.448 108,118.5C 105.345,117.374 103.845,115.374 103.5,112.5 Z"/></g>
<g><path style="opacity:1" fill="#ca9a3e" d="M 118.5,113.5 C 120.833,114.167 123.167,114.833 125.5,115.5C 125.351,116.552 125.517,117.552 126,118.5C 128.014,120.845 130.347,122.845 133,124.5C 135.97,131.228 140.803,136.061 147.5,139C 148.721,141.034 150.055,142.867 151.5,144.5C 151.5,144.833 151.5,145.167 151.5,145.5C 149.801,145.66 148.134,145.494 146.5,145C 145.87,143.108 144.87,141.441 143.5,140C 136.121,134.63 129.288,128.464 123,121.5C 121.499,118.759 119.999,116.092 118.5,113.5 Z"/></g>
<g><path style="opacity:1" fill="#a27629" d="M 220.5,87.5 C 221.833,88.5 223.167,89.5 224.5,90.5C 226.45,94.8715 227.784,99.5381 228.5,104.5C 228.753,108.04 229.419,111.373 230.5,114.5C 230.775,127.233 230.109,139.9 228.5,152.5C 227.251,155.09 225.584,157.424 223.5,159.5C 223.366,157.708 223.699,156.042 224.5,154.5C 226.074,152.898 226.741,150.898 226.5,148.5C 226.833,145.167 227.167,141.833 227.5,138.5C 228.658,129.343 228.824,120.009 228,110.5C 227.698,106.755 226.531,103.422 224.5,100.5C 223.776,97.1574 222.943,93.824 222,90.5C 221.617,89.944 221.117,89.6107 220.5,89.5C 220.5,88.8333 220.5,88.1667 220.5,87.5 Z"/></g>
<g><path style="opacity:1" fill="#faf7c9" d="M 87.5,113.5 C 87.5,113.167 87.5,112.833 87.5,112.5C 92.7329,113.4 96.0662,116.4 97.5,121.5C 99.651,124.451 101.818,127.451 104,130.5C 106.094,132.527 108.427,134.194 111,135.5C 112,137.167 113,138.833 114,140.5C 120.761,146.425 126.928,152.759 132.5,159.5C 129.838,160.499 127.172,161.499 124.5,162.5C 124.649,161.448 124.483,160.448 124,159.5C 119.167,155.809 115.834,151.142 114,145.5C 111.576,143.348 108.743,142.015 105.5,141.5C 103.829,138.508 101.829,135.841 99.5,133.5C 96.097,132.927 93.097,131.594 90.5,129.5C 89.8333,129.167 89.1667,128.833 88.5,128.5C 87.1996,124.904 86.1996,121.237 85.5,117.5C 90.9972,117.781 91.6638,116.447 87.5,113.5 Z"/></g>
<g><path style="opacity:1" fill="#694c27" d="M 156.5,138.5 C 155.66,140.853 154.326,142.853 152.5,144.5C 152.833,143.167 153.167,141.833 153.5,140.5C 154.5,139.833 155.5,139.167 156.5,138.5 Z"/></g>
<g><path style="opacity:1" fill="#dcb65b" d="M 241.5,113.5 C 242.167,113.5 242.5,113.833 242.5,114.5C 243.518,126.206 242.018,137.539 238,148.5C 236.12,150.953 233.787,152.953 231,154.5C 230.798,156.256 230.298,157.922 229.5,159.5C 228.526,157.257 228.192,154.924 228.5,152.5C 230.109,139.9 230.775,127.233 230.5,114.5C 231.461,116.265 231.795,118.265 231.5,120.5C 231.334,127.841 231.5,135.174 232,142.5C 233.669,138.153 236.502,134.82 240.5,132.5C 241.496,126.202 241.83,119.868 241.5,113.5 Z"/></g>
<g><path style="opacity:1" fill="#ad8c40" d="M 25.5,143.5 C 25.8333,143.5 26.1667,143.5 26.5,143.5C 26.87,147.137 27.87,150.47 29.5,153.5C 31.4468,161.66 34.4468,169.327 38.5,176.5C 36.8595,175.853 35.5261,174.853 34.5,173.5C 31.2145,166.955 28.5478,160.289 26.5,153.5C 25.8505,151.565 25.5172,149.565 25.5,147.5C 25.5,146.167 25.5,144.833 25.5,143.5 Z"/></g>
<g><path style="opacity:1" fill="#f8f0ba" d="M 97.5,121.5 C 103.453,127.117 109.453,132.784 115.5,138.5C 116.729,139.281 118.062,139.781 119.5,140C 124.534,144.699 129.2,149.699 133.5,155C 134.749,155.74 135.749,155.573 136.5,154.5C 137.833,154.5 139.167,154.5 140.5,154.5C 139.833,155.5 139.167,156.5 138.5,157.5C 136.5,158.167 134.5,158.833 132.5,159.5C 126.928,152.759 120.761,146.425 114,140.5C 113,138.833 112,137.167 111,135.5C 108.427,134.194 106.094,132.527 104,130.5C 101.818,127.451 99.651,124.451 97.5,121.5 Z"/></g>
<g><path style="opacity:1" fill="#5d441e" d="M 26.5,141.5 C 28.2453,145.2 29.2453,149.2 29.5,153.5C 27.87,150.47 26.87,147.137 26.5,143.5C 26.5,142.833 26.5,142.167 26.5,141.5 Z"/></g>
<g><path style="opacity:1" fill="#8d886a" d="M 98.5,144.5 C 101.546,146.292 104.879,147.292 108.5,147.5C 108.737,148.791 108.404,149.791 107.5,150.5C 104.18,149.192 101.18,147.192 98.5,144.5 Z"/></g>
<g><path style="opacity:1" fill="#1f2329" d="M 161.5,127.5 C 161.833,127.5 162.167,127.5 162.5,127.5C 162.247,129.827 162.914,131.827 164.5,133.5C 163.846,135.115 163.346,136.782 163,138.5C 162.51,137.207 162.343,135.873 162.5,134.5C 157.868,135.662 156.534,138.495 158.5,143C 157.355,145.681 156.022,147.514 154.5,148.5C 154.667,149.167 154.833,149.833 155,150.5C 156.676,149.939 158.009,148.939 159,147.5C 159.308,148.308 159.808,148.975 160.5,149.5C 161.333,170.826 161.833,192.159 162,213.5C 162.925,214.047 163.758,214.713 164.5,215.5C 162.833,216.667 161.167,217.833 159.5,219C 160.337,220.011 160.67,221.178 160.5,222.5C 158.412,223.939 156.079,224.606 153.5,224.5C 152.167,224.5 150.833,224.5 149.5,224.5C 149.539,223.244 149.039,222.244 148,221.5C 147.333,201.5 147.333,181.5 148,161.5C 149.128,159.655 149.628,157.655 149.5,155.5C 148.167,155.5 146.833,155.5 145.5,155.5C 145.433,154.041 145.766,152.708 146.5,151.5C 147.92,149.291 149.587,147.291 151.5,145.5C 151.5,145.167 151.5,144.833 151.5,144.5C 151.833,144.5 152.167,144.5 152.5,144.5C 154.326,142.853 155.66,140.853 156.5,138.5C 156.733,136.938 157.4,135.605 158.5,134.5C 159.264,131.982 160.264,129.649 161.5,127.5 Z"/></g>
<g><path style="opacity:1" fill="#4e3b1b" d="M 226.5,148.5 C 226.741,150.898 226.074,152.898 224.5,154.5C 224.259,152.102 224.926,150.102 226.5,148.5 Z"/></g>
<g><path style="opacity:1" fill="#f8ecb1" d="M 99.5,133.5 C 101.829,135.841 103.829,138.508 105.5,141.5C 108.743,142.015 111.576,143.348 114,145.5C 115.834,151.142 119.167,155.809 124,159.5C 124.483,160.448 124.649,161.448 124.5,162.5C 122.167,162.5 119.833,162.5 117.5,162.5C 115.308,160.02 112.975,157.52 110.5,155C 109.552,154.517 108.552,154.351 107.5,154.5C 107.715,152.821 107.048,151.821 105.5,151.5C 105.842,150.662 106.508,150.328 107.5,150.5C 108.404,149.791 108.737,148.791 108.5,147.5C 104.879,147.292 101.546,146.292 98.5,144.5C 95.8079,142.797 93.8079,140.464 92.5,137.5C 94.6074,136.532 96.9407,136.198 99.5,136.5C 99.5,135.5 99.5,134.5 99.5,133.5 Z"/></g>
<g><path style="opacity:1" fill="#423c32" d="M 145.5,151.5 C 145.833,151.5 146.167,151.5 146.5,151.5C 145.766,152.708 145.433,154.041 145.5,155.5C 143.302,155.12 141.635,155.787 140.5,157.5C 139.833,157.5 139.167,157.5 138.5,157.5C 139.167,156.5 139.833,155.5 140.5,154.5C 140.833,154.5 141.167,154.5 141.5,154.5C 142.5,154.167 143.167,153.5 143.5,152.5C 144.167,152.167 144.833,151.833 145.5,151.5 Z"/></g>
<g><path style="opacity:1" fill="#faf6c7" d="M 25.5,147.5 C 25.5172,149.565 25.8505,151.565 26.5,153.5C 26.5,154.833 26.5,156.167 26.5,157.5C 24.2221,159.767 22.3887,162.433 21,165.5C 20.2303,166.598 19.397,166.598 18.5,165.5C 18.405,163.214 17.7384,161.214 16.5,159.5C 16.5,158.167 16.5,156.833 16.5,155.5C 16.1774,151.774 16.5108,148.107 17.5,144.5C 18.7481,143.96 19.9148,143.293 21,142.5C 22.517,144.24 24.017,145.906 25.5,147.5 Z"/></g>
<g><path style="opacity:1" fill="#524629" d="M 96.5,154.5 C 96.1583,155.338 95.4916,155.672 94.5,155.5C 92.1516,155.67 89.8183,156.003 87.5,156.5C 85.9704,156.64 84.9704,157.307 84.5,158.5C 83.5,158.5 82.5,158.5 81.5,158.5C 81.5,157.5 81.5,156.5 81.5,155.5C 86.5068,155.249 91.5068,154.916 96.5,154.5 Z"/></g>
<g><path style="opacity:1" fill="#eed688" d="M 105.5,151.5 C 107.048,151.821 107.715,152.821 107.5,154.5C 108.552,154.351 109.552,154.517 110.5,155C 112.975,157.52 115.308,160.02 117.5,162.5C 115.393,163.468 113.059,163.802 110.5,163.5C 110.611,162.883 110.944,162.383 111.5,162C 110.027,161.29 109.36,160.124 109.5,158.5C 106.769,157.393 103.936,156.393 101,155.5C 98.863,156.077 96.6963,156.41 94.5,156.5C 94.5,156.167 94.5,155.833 94.5,155.5C 95.4916,155.672 96.1583,155.338 96.5,154.5C 99.4061,153.213 102.406,152.213 105.5,151.5 Z"/></g>
<g><path style="opacity:1" fill="#bc984a" d="M 94.5,155.5 C 94.5,155.833 94.5,156.167 94.5,156.5C 93.9569,156.56 93.6236,156.893 93.5,157.5C 94.8532,158.524 95.5198,159.857 95.5,161.5C 98.6888,161.858 101.689,162.525 104.5,163.5C 101.833,163.5 99.1667,163.5 96.5,163.5C 93.4822,161.6 90.1488,160.267 86.5,159.5C 85.8333,159.167 85.1667,158.833 84.5,158.5C 84.9704,157.307 85.9704,156.64 87.5,156.5C 89.8183,156.003 92.1516,155.67 94.5,155.5 Z"/></g>
<g><path style="opacity:1" fill="#181d23" d="M 145.5,155.5 C 146.833,155.5 148.167,155.5 149.5,155.5C 149.628,157.655 149.128,159.655 148,161.5C 147.333,181.5 147.333,201.5 148,221.5C 149.039,222.244 149.539,223.244 149.5,224.5C 146.373,225.581 143.04,226.247 139.5,226.5C 139.047,225.542 138.381,224.708 137.5,224C 139.225,224.409 140.892,224.242 142.5,223.5C 141.675,222.614 140.675,222.281 139.5,222.5C 139.336,200.698 139.67,179.031 140.5,157.5C 141.635,155.787 143.302,155.12 145.5,155.5 Z"/></g>
<g><path style="opacity:1" fill="#ebc970" d="M 110.5,163.5 C 108.5,163.5 106.5,163.5 104.5,163.5C 101.689,162.525 98.6888,161.858 95.5,161.5C 95.5198,159.857 94.8532,158.524 93.5,157.5C 93.6236,156.893 93.9569,156.56 94.5,156.5C 96.6963,156.41 98.863,156.077 101,155.5C 103.936,156.393 106.769,157.393 109.5,158.5C 109.36,160.124 110.027,161.29 111.5,162C 110.944,162.383 110.611,162.883 110.5,163.5 Z"/></g>
<g><path style="opacity:1" fill="#f6eaa8" d="M 26.5,157.5 C 28.4274,160.137 28.9274,163.137 28,166.5C 26.98,167.891 26.1466,169.391 25.5,171C 24.2068,171.49 22.8734,171.657 21.5,171.5C 19.9925,169.819 18.9925,167.819 18.5,165.5C 19.397,166.598 20.2303,166.598 21,165.5C 22.3887,162.433 24.2221,159.767 26.5,157.5 Z"/></g>
<g><path style="opacity:1" fill="#544729" d="M 86.5,159.5 C 90.1488,160.267 93.4822,161.6 96.5,163.5C 92.6424,163.23 89.309,161.897 86.5,159.5 Z"/></g>
<g><path style="opacity:1" fill="#4c4e41" d="M 138.5,157.5 C 138.53,158.497 138.03,159.164 137,159.5C 132.941,161.286 128.774,162.619 124.5,163.5C 124.5,163.167 124.5,162.833 124.5,162.5C 127.172,161.499 129.838,160.499 132.5,159.5C 134.5,158.833 136.5,158.167 138.5,157.5 Z"/></g>
<g><path style="opacity:1" fill="#b7aa74" d="M 117.5,162.5 C 119.833,162.5 122.167,162.5 124.5,162.5C 124.5,162.833 124.5,163.167 124.5,163.5C 122.139,163.674 119.806,164.007 117.5,164.5C 112.968,164.818 108.634,164.485 104.5,163.5C 106.5,163.5 108.5,163.5 110.5,163.5C 113.059,163.802 115.393,163.468 117.5,162.5 Z"/></g>
<g><path style="opacity:1" fill="#121519" d="M 138.5,157.5 C 139.167,157.5 139.833,157.5 140.5,157.5C 139.67,179.031 139.336,200.698 139.5,222.5C 140.675,222.281 141.675,222.614 142.5,223.5C 140.892,224.242 139.225,224.409 137.5,224C 138.381,224.708 139.047,225.542 139.5,226.5C 139.5,226.833 139.5,227.167 139.5,227.5C 130.447,227.778 121.447,227.444 112.5,226.5C 111.316,225.312 111.316,224.145 112.5,223C 111.207,222.51 109.873,222.343 108.5,222.5C 108.5,205.5 108.5,188.5 108.5,171.5C 119.419,171.084 119.086,170.084 107.5,168.5C 108.34,167.265 109.34,166.265 110.5,165.5C 113.059,165.802 115.393,165.468 117.5,164.5C 119.806,164.007 122.139,163.674 124.5,163.5C 128.774,162.619 132.941,161.286 137,159.5C 138.03,159.164 138.53,158.497 138.5,157.5 Z"/></g>
<g><path style="opacity:1" fill="#c3953c" d="M 242.5,114.5 C 242.833,114.5 243.167,114.5 243.5,114.5C 243.5,122.833 243.5,131.167 243.5,139.5C 243.354,143.519 243.021,147.519 242.5,151.5C 239.897,158.619 237.397,165.952 235,173.5C 230.427,182.875 224.927,191.542 218.5,199.5C 218.167,199.5 217.833,199.5 217.5,199.5C 223.54,191.284 228.54,182.451 232.5,173C 230.531,168.351 229.364,168.518 229,173.5C 217.939,184.28 206.772,194.947 195.5,205.5C 196.167,203.833 196.833,202.167 197.5,200.5C 202.556,197.777 206.223,193.777 208.5,188.5C 209.433,185.63 211.1,183.296 213.5,181.5C 214.376,181.631 215.043,181.298 215.5,180.5C 217.23,176.467 218.896,172.467 220.5,168.5C 221.167,166.5 221.833,164.5 222.5,162.5C 222.263,161.209 222.596,160.209 223.5,159.5C 225.584,157.424 227.251,155.09 228.5,152.5C 228.192,154.924 228.526,157.257 229.5,159.5C 230.298,157.922 230.798,156.256 231,154.5C 233.787,152.953 236.12,150.953 238,148.5C 242.018,137.539 243.518,126.206 242.5,114.5 Z"/></g>
<g><path style="opacity:1" fill="#564c33" d="M 96.5,164.5 C 96.5,164.167 96.5,163.833 96.5,163.5C 99.1667,163.5 101.833,163.5 104.5,163.5C 108.634,164.485 112.968,164.818 117.5,164.5C 115.393,165.468 113.059,165.802 110.5,165.5C 105.797,165.563 101.13,165.229 96.5,164.5 Z"/></g>
<g><path style="opacity:1" fill="#3f3116" d="M 222.5,162.5 C 221.833,164.5 221.167,166.5 220.5,168.5C 220.167,168.5 219.833,168.5 219.5,168.5C 219.461,165.911 220.461,163.911 222.5,162.5 Z"/></g>
<g><path style="opacity:1" fill="#90886f" d="M 16.5,166.5 C 18.2078,169.95 19.5412,173.617 20.5,177.5C 18.0103,174.374 16.677,170.708 16.5,166.5 Z"/></g>
<g><path style="opacity:1" fill="#1e2328" d="M 96.5,166.5 C 97.8734,166.343 99.2068,166.51 100.5,167C 100.475,185.958 100.475,205.125 100.5,224.5C 99.8333,224.5 99.1667,224.5 98.5,224.5C 96.597,224.204 94.9303,223.537 93.5,222.5C 91.8984,220.926 89.8984,220.259 87.5,220.5C 89.9542,219.379 92.6209,218.546 95.5,218C 98.1699,216.276 97.8366,215.109 94.5,214.5C 92.5708,215.38 90.7374,216.38 89,217.5C 87.7202,217.387 86.8869,216.72 86.5,215.5C 87.9079,214.757 89.2412,213.923 90.5,213C 89.3436,198.575 89.1769,184.075 90,169.5C 92.2585,168.62 94.4252,167.62 96.5,166.5 Z"/></g>
<g><path style="opacity:1" fill="#191d23" d="M 96.5,164.5 C 101.13,165.229 105.797,165.563 110.5,165.5C 109.34,166.265 108.34,167.265 107.5,168.5C 119.086,170.084 119.419,171.084 108.5,171.5C 108.5,188.5 108.5,205.5 108.5,222.5C 109.873,222.343 111.207,222.51 112.5,223C 111.316,224.145 111.316,225.312 112.5,226.5C 110.5,226.5 108.5,226.5 106.5,226.5C 105.833,226.5 105.167,226.5 104.5,226.5C 103.486,225.326 102.153,224.66 100.5,224.5C 100.475,205.125 100.475,185.958 100.5,167C 99.2068,166.51 97.8734,166.343 96.5,166.5C 96.5,165.833 96.5,165.167 96.5,164.5 Z"/></g>
<g><path style="opacity:1" fill="#bf9e54" d="M 16.5,159.5 C 17.7384,161.214 18.405,163.214 18.5,165.5C 18.9925,167.819 19.9925,169.819 21.5,171.5C 23.0951,174.285 24.0951,177.285 24.5,180.5C 23.1667,179.5 21.8333,178.5 20.5,177.5C 19.5412,173.617 18.2078,169.95 16.5,166.5C 16.5,166.167 16.5,165.833 16.5,165.5C 16.5,163.5 16.5,161.5 16.5,159.5 Z"/></g>
<g><path style="opacity:1" fill="#f2d783" d="M 26.5,153.5 C 28.5478,160.289 31.2145,166.955 34.5,173.5C 34.577,176.509 33.2437,178.676 30.5,180C 31.3366,181.011 31.67,182.178 31.5,183.5C 28.3247,184.091 25.9913,183.091 24.5,180.5C 24.0951,177.285 23.0951,174.285 21.5,171.5C 22.8734,171.657 24.2068,171.49 25.5,171C 26.1466,169.391 26.98,167.891 28,166.5C 28.9274,163.137 28.4274,160.137 26.5,157.5C 26.5,156.167 26.5,154.833 26.5,153.5 Z"/></g>
<g><path style="opacity:1" fill="#967b3c" d="M 219.5,168.5 C 219.833,168.5 220.167,168.5 220.5,168.5C 218.896,172.467 217.23,176.467 215.5,180.5C 215.043,181.298 214.376,181.631 213.5,181.5C 213.893,179.716 214.559,178.05 215.5,176.5C 216.648,173.711 217.981,171.044 219.5,168.5 Z"/></g>
<g><path style="opacity:1" fill="#917846" d="M 38.5,176.5 C 40.1991,178.566 41.5324,180.9 42.5,183.5C 40.058,181.879 38.7247,179.546 38.5,176.5 Z"/></g>
<g><path style="opacity:1" fill="#dab761" d="M 34.5,173.5 C 35.5261,174.853 36.8595,175.853 38.5,176.5C 38.7247,179.546 40.058,181.879 42.5,183.5C 43.9387,185.36 45.6053,187.027 47.5,188.5C 47.7329,190.062 48.3995,191.395 49.5,192.5C 50.075,194.411 51.075,196.078 52.5,197.5C 52.5,197.833 52.5,198.167 52.5,198.5C 49.8061,196.473 47.4728,194.139 45.5,191.5C 39.5381,180.173 36.8714,180.84 37.5,193.5C 36.325,193.281 35.325,193.614 34.5,194.5C 35.1329,196.786 36.4662,198.452 38.5,199.5C 40.4302,203.1 43.0969,206.1 46.5,208.5C 50.0147,212.681 54.3481,215.681 59.5,217.5C 60.8549,216.812 61.8549,215.812 62.5,214.5C 64.0281,214.517 64.5281,215.184 64,216.5C 62.3853,217.386 60.8853,218.386 59.5,219.5C 57.9582,218.699 56.2915,218.366 54.5,218.5C 47.6521,213.741 41.6521,208.074 36.5,201.5C 32.4259,195.693 28.5926,189.693 25,183.5C 24.5172,182.552 24.3505,181.552 24.5,180.5C 25.9913,183.091 28.3247,184.091 31.5,183.5C 31.67,182.178 31.3366,181.011 30.5,180C 33.2437,178.676 34.577,176.509 34.5,173.5 Z"/></g>
<g><path style="opacity:1" fill="#998c6a" d="M 20.5,177.5 C 21.8333,178.5 23.1667,179.5 24.5,180.5C 24.3505,181.552 24.5172,182.552 25,183.5C 28.5926,189.693 32.4259,195.693 36.5,201.5C 35.5,200.833 34.5,200.167 33.5,199.5C 29.7647,193.859 25.9313,188.192 22,182.5C 20.9914,180.975 20.4914,179.308 20.5,177.5 Z"/></g>
<g><path style="opacity:1" fill="#9c9377" d="M 242.5,151.5 C 242.5,152.167 242.5,152.833 242.5,153.5C 241.005,160.148 239.505,166.815 238,173.5C 233.413,178.916 229.746,184.916 227,191.5C 224.368,195.162 221.534,198.495 218.5,201.5C 218.5,200.833 218.5,200.167 218.5,199.5C 224.927,191.542 230.427,182.875 235,173.5C 237.397,165.952 239.897,158.619 242.5,151.5 Z"/></g>
<g><path style="opacity:1" fill="#cd9f40" d="M 45.5,191.5 C 44.1779,191.33 43.0113,191.663 42,192.5C 39.7743,194.285 38.6076,196.618 38.5,199.5C 36.4662,198.452 35.1329,196.786 34.5,194.5C 35.325,193.614 36.325,193.281 37.5,193.5C 36.8714,180.84 39.5381,180.173 45.5,191.5 Z"/></g>
<g><path style="opacity:1" fill="#98865f" d="M 49.5,192.5 C 50.1667,192.833 50.8333,193.167 51.5,193.5C 52.925,194.922 53.925,196.589 54.5,198.5C 53.8333,198.167 53.1667,197.833 52.5,197.5C 51.075,196.078 50.075,194.411 49.5,192.5 Z"/></g>
<g><path style="opacity:1" fill="#dfc88c" d="M 52.5,197.5 C 53.1667,197.833 53.8333,198.167 54.5,198.5C 55.5,199.167 56.5,199.833 57.5,200.5C 59.2393,203.243 61.5726,205.243 64.5,206.5C 65.8333,207.833 67.1667,209.167 68.5,210.5C 68.5,211.167 68.5,211.833 68.5,212.5C 66.2279,211.559 64.2279,210.226 62.5,208.5C 59.5,205.833 56.5,203.167 53.5,200.5C 53.1667,199.833 52.8333,199.167 52.5,198.5C 52.5,198.167 52.5,197.833 52.5,197.5 Z"/></g>
<g><path style="opacity:1" fill="#a5925a" d="M 208.5,188.5 C 206.223,193.777 202.556,197.777 197.5,200.5C 199.167,198.5 200.833,196.5 202.5,194.5C 204.139,192.194 206.139,190.194 208.5,188.5 Z"/></g>
<g><path style="opacity:1" fill="#58543d" d="M 57.5,200.5 C 58.1667,200.5 58.8333,200.5 59.5,200.5C 61.1667,202.5 62.8333,204.5 64.5,206.5C 61.5726,205.243 59.2393,203.243 57.5,200.5 Z"/></g>
<g><path style="opacity:1" fill="#9ea195" d="M 33.5,199.5 C 34.5,200.167 35.5,200.833 36.5,201.5C 41.6521,208.074 47.6521,213.741 54.5,218.5C 54.5,218.833 54.5,219.167 54.5,219.5C 51.8069,218.448 49.1402,217.448 46.5,216.5C 46.6495,215.448 46.4828,214.448 46,213.5C 43.2224,214.685 41.7224,213.685 41.5,210.5C 40.5,210.5 39.5,210.5 38.5,210.5C 38.5,208.833 38.5,207.167 38.5,205.5C 36.3393,205.174 34.5059,204.174 33,202.5C 32.5304,201.423 32.6971,200.423 33.5,199.5 Z"/></g>
<g><path style="opacity:1" fill="#cfb979" d="M 197.5,200.5 C 196.833,202.167 196.167,203.833 195.5,205.5C 192.612,208.095 189.612,210.428 186.5,212.5C 187.6,211.395 188.267,210.062 188.5,208.5C 191.474,205.862 194.474,203.195 197.5,200.5 Z"/></g>
<g><path style="opacity:1" fill="#b98325" d="M 45.5,191.5 C 47.4728,194.139 49.8061,196.473 52.5,198.5C 52.8333,199.167 53.1667,199.833 53.5,200.5C 54.733,206.268 52.3997,208.934 46.5,208.5C 43.0969,206.1 40.4302,203.1 38.5,199.5C 38.6076,196.618 39.7743,194.285 42,192.5C 43.0113,191.663 44.1779,191.33 45.5,191.5 Z"/></g>
<g><path style="opacity:1" fill="#3e413d" d="M 64.5,206.5 C 67.8872,208.496 71.5539,210.162 75.5,211.5C 76.3624,212.766 77.0291,214.099 77.5,215.5C 74.3661,214.099 71.3661,212.432 68.5,210.5C 67.1667,209.167 65.8333,207.833 64.5,206.5 Z"/></g>
<g><path style="opacity:1" fill="#b3b096" d="M 217.5,202.5 C 210.007,213.324 200.34,221.658 188.5,227.5C 191.833,224.833 195.167,222.167 198.5,219.5C 205.106,214.233 211.439,208.566 217.5,202.5 Z"/></g>
<g><path style="opacity:1" fill="#d3a64a" d="M 53.5,200.5 C 56.5,203.167 59.5,205.833 62.5,208.5C 63.8333,210.5 63.8333,212.5 62.5,214.5C 61.8549,215.812 60.8549,216.812 59.5,217.5C 54.3481,215.681 50.0147,212.681 46.5,208.5C 52.3997,208.934 54.733,206.268 53.5,200.5 Z"/></g>
<g><path style="opacity:1" fill="#757865" d="M 183.5,211.5 C 181.853,213.326 179.853,214.66 177.5,215.5C 178.802,213.178 180.802,211.845 183.5,211.5 Z"/></g>
<g><path style="opacity:1" fill="#d5d2ac" d="M 68.5,210.5 C 71.3661,212.432 74.3661,214.099 77.5,215.5C 80.0041,216.584 82.3374,217.917 84.5,219.5C 83.5,219.5 82.5,219.5 81.5,219.5C 76.9323,217.598 72.5989,215.265 68.5,212.5C 68.5,211.833 68.5,211.167 68.5,210.5 Z"/></g>
<g><path style="opacity:1" fill="#b98325" d="M 217.5,199.5 C 211.132,206.869 204.132,213.536 196.5,219.5C 192.692,221.573 189.026,223.906 185.5,226.5C 183.021,228.076 180.354,229.076 177.5,229.5C 176.022,229.762 174.689,229.429 173.5,228.5C 176.95,226.381 179.284,223.381 180.5,219.5C 182.868,217.467 184.868,215.133 186.5,212.5C 189.612,210.428 192.612,208.095 195.5,205.5C 206.772,194.947 217.939,184.28 229,173.5C 229.364,168.518 230.531,168.351 232.5,173C 228.54,182.451 223.54,191.284 217.5,199.5 Z"/></g>
<g><path style="opacity:1" fill="#dcc17c" d="M 217.5,199.5 C 217.833,199.5 218.167,199.5 218.5,199.5C 218.5,200.167 218.5,200.833 218.5,201.5C 217.833,201.5 217.5,201.833 217.5,202.5C 211.439,208.566 205.106,214.233 198.5,219.5C 197.833,219.5 197.167,219.5 196.5,219.5C 204.132,213.536 211.132,206.869 217.5,199.5 Z"/></g>
<g><path style="opacity:1" fill="#eed179" d="M 62.5,208.5 C 64.2279,210.226 66.2279,211.559 68.5,212.5C 69.8075,214.482 71.1408,216.482 72.5,218.5C 69.972,219.816 69.972,220.983 72.5,222C 71.3826,223.892 69.7159,224.725 67.5,224.5C 64.3288,223.564 61.6621,221.897 59.5,219.5C 60.8853,218.386 62.3853,217.386 64,216.5C 64.5281,215.184 64.0281,214.517 62.5,214.5C 63.8333,212.5 63.8333,210.5 62.5,208.5 Z"/></g>
<g><path style="opacity:1" fill="#cac49d" d="M 187.5,208.5 C 187.833,208.5 188.167,208.5 188.5,208.5C 188.267,210.062 187.6,211.395 186.5,212.5C 183.825,214.17 181.159,215.836 178.5,217.5C 176.833,218.167 175.167,218.833 173.5,219.5C 171.833,219.5 170.167,219.5 168.5,219.5C 171.314,217.93 174.314,216.597 177.5,215.5C 179.853,214.66 181.853,213.326 183.5,211.5C 184.436,210.026 185.77,209.026 187.5,208.5 Z"/></g>
<g><path style="opacity:1" fill="#f5e399" d="M 68.5,212.5 C 72.5989,215.265 76.9323,217.598 81.5,219.5C 81.5394,220.583 81.8728,221.583 82.5,222.5C 81.102,224.13 80.102,225.964 79.5,228C 74.5994,229.407 70.5994,228.24 67.5,224.5C 69.7159,224.725 71.3826,223.892 72.5,222C 69.972,220.983 69.972,219.816 72.5,218.5C 71.1408,216.482 69.8075,214.482 68.5,212.5 Z"/></g>
<g><path style="opacity:1" fill="#58573f" d="M 87.5,220.5 C 89.8984,220.259 91.8984,220.926 93.5,222.5C 91.1016,222.741 89.1016,222.074 87.5,220.5 Z"/></g>
<g><path style="opacity:1" fill="#daca91" d="M 168.5,219.5 C 170.167,219.5 171.833,219.5 173.5,219.5C 167.06,223.318 160.06,225.985 152.5,227.5C 150.167,227.5 147.833,227.5 145.5,227.5C 148.313,226.918 150.98,225.918 153.5,224.5C 156.079,224.606 158.412,223.939 160.5,222.5C 163.542,222.267 166.208,221.267 168.5,219.5 Z"/></g>
<g><path style="opacity:1" fill="#c59438" d="M 186.5,212.5 C 184.868,215.133 182.868,217.467 180.5,219.5C 179.284,223.381 176.95,226.381 173.5,228.5C 174.689,229.429 176.022,229.762 177.5,229.5C 173.292,233.287 168.292,235.621 162.5,236.5C 160.073,236.477 157.74,235.977 155.5,235C 155.957,234.586 156.291,234.086 156.5,233.5C 162.595,228.346 169.262,224.013 176.5,220.5C 177.425,219.643 178.092,218.643 178.5,217.5C 181.159,215.836 183.825,214.17 186.5,212.5 Z"/></g>
<g><path style="opacity:1" fill="#f5ebaf" d="M 54.5,219.5 C 54.5,219.167 54.5,218.833 54.5,218.5C 56.2915,218.366 57.9582,218.699 59.5,219.5C 61.6621,221.897 64.3288,223.564 67.5,224.5C 70.5994,228.24 74.5994,229.407 79.5,228C 80.102,225.964 81.102,224.13 82.5,222.5C 81.8728,221.583 81.5394,220.583 81.5,219.5C 82.5,219.5 83.5,219.5 84.5,219.5C 85.391,220.11 86.391,220.443 87.5,220.5C 89.1016,222.074 91.1016,222.741 93.5,222.5C 94.9303,223.537 96.597,224.204 98.5,224.5C 100.102,226.074 102.102,226.741 104.5,226.5C 104.5,227.833 105.167,228.5 106.5,228.5C 109.921,230.068 113.255,231.901 116.5,234C 112.672,235.824 108.839,237.657 105,239.5C 101.208,238.69 97.3745,238.356 93.5,238.5C 92.8333,238.5 92.1667,238.5 91.5,238.5C 91.5,238.167 91.5,237.833 91.5,237.5C 86.2802,236.704 81.2802,235.204 76.5,233C 69.2814,228.275 61.948,223.775 54.5,219.5 Z"/></g>
<g><path style="opacity:1" fill="#83784b" d="M 98.5,224.5 C 99.1667,224.5 99.8333,224.5 100.5,224.5C 102.153,224.66 103.486,225.326 104.5,226.5C 102.102,226.741 100.102,226.074 98.5,224.5 Z"/></g>
<g><path style="opacity:1" fill="#4b3a24" d="M 106.5,226.5 C 108.5,226.5 110.5,226.5 112.5,226.5C 121.447,227.444 130.447,227.778 139.5,227.5C 138.081,228.451 136.415,228.784 134.5,228.5C 128.833,228.5 123.167,228.5 117.5,228.5C 113.575,228.57 109.909,227.903 106.5,226.5 Z"/></g>
<g><path style="opacity:1" fill="#4f4c32" d="M 149.5,224.5 C 150.833,224.5 152.167,224.5 153.5,224.5C 150.98,225.918 148.313,226.918 145.5,227.5C 143.5,227.5 141.5,227.5 139.5,227.5C 139.5,227.167 139.5,226.833 139.5,226.5C 143.04,226.247 146.373,225.581 149.5,224.5 Z"/></g>
<g><path style="opacity:1" fill="#faf9cc" d="M 91.5,237.5 C 90.6398,235.386 88.9732,234.22 86.5,234C 88.2189,229.168 91.7189,227.001 97,227.5C 99.8105,228.287 102.644,229.12 105.5,230C 103.647,232.04 102.314,234.373 101.5,237C 98.1832,237.498 94.8499,237.665 91.5,237.5 Z"/></g>
<g><path style="opacity:1" fill="#dfca8d" d="M 196.5,219.5 C 197.167,219.5 197.833,219.5 198.5,219.5C 195.167,222.167 191.833,224.833 188.5,227.5C 182.544,229.073 177.211,231.74 172.5,235.5C 168.499,236.5 164.499,237.5 160.5,238.5C 161.167,237.833 161.833,237.167 162.5,236.5C 168.292,235.621 173.292,233.287 177.5,229.5C 180.354,229.076 183.021,228.076 185.5,226.5C 189.026,223.906 192.692,221.573 196.5,219.5 Z"/></g>
<g><path style="opacity:1" fill="#f0d27b" d="M 124.5,231.5 C 128.167,231.5 131.833,231.5 135.5,231.5C 135.088,237.912 131.755,241.245 125.5,241.5C 122.833,241.5 120.167,241.5 117.5,241.5C 117.67,240.178 117.337,239.011 116.5,238C 118.221,236.473 120.221,235.473 122.5,235C 123.823,234.184 124.489,233.017 124.5,231.5 Z"/></g>
<g><path style="opacity:1" fill="#e2be64" d="M 104.5,226.5 C 105.167,226.5 105.833,226.5 106.5,226.5C 109.909,227.903 113.575,228.57 117.5,228.5C 123.156,231.086 128.822,231.086 134.5,228.5C 136.415,228.784 138.081,228.451 139.5,227.5C 141.5,227.5 143.5,227.5 145.5,227.5C 147.833,227.5 150.167,227.5 152.5,227.5C 149.497,229.262 146.163,230.428 142.5,231C 141.743,232.512 140.743,233.846 139.5,235C 139.833,235.333 140.167,235.667 140.5,236C 136.614,240.686 131.614,242.519 125.5,241.5C 131.755,241.245 135.088,237.912 135.5,231.5C 131.833,231.5 128.167,231.5 124.5,231.5C 118.386,231.137 112.386,230.137 106.5,228.5C 105.167,228.5 104.5,227.833 104.5,226.5 Z"/></g>
<g><path style="opacity:1" fill="#98702a" d="M 117.5,228.5 C 123.167,228.5 128.833,228.5 134.5,228.5C 128.822,231.086 123.156,231.086 117.5,228.5 Z"/></g>
<g><path style="opacity:1" fill="#f0db92" d="M 106.5,228.5 C 112.386,230.137 118.386,231.137 124.5,231.5C 124.489,233.017 123.823,234.184 122.5,235C 120.221,235.473 118.221,236.473 116.5,238C 117.337,239.011 117.67,240.178 117.5,241.5C 112.833,241.5 108.167,241.5 103.5,241.5C 99.7144,241.68 96.381,240.68 93.5,238.5C 97.3745,238.356 101.208,238.69 105,239.5C 108.839,237.657 112.672,235.824 116.5,234C 113.255,231.901 109.921,230.068 106.5,228.5 Z"/></g>
<g><path style="opacity:1" fill="#d5ad55" d="M 178.5,217.5 C 178.092,218.643 177.425,219.643 176.5,220.5C 169.262,224.013 162.595,228.346 156.5,233.5C 156.291,234.086 155.957,234.586 155.5,235C 157.74,235.977 160.073,236.477 162.5,236.5C 161.833,237.167 161.167,237.833 160.5,238.5C 157.372,239.632 154.038,240.465 150.5,241C 149.944,241.383 149.611,241.883 149.5,242.5C 144.848,242.998 140.181,243.331 135.5,243.5C 126.815,243.536 118.149,243.203 109.5,242.5C 107.5,242.5 105.5,242.5 103.5,242.5C 103.5,242.167 103.5,241.833 103.5,241.5C 108.167,241.5 112.833,241.5 117.5,241.5C 120.167,241.5 122.833,241.5 125.5,241.5C 131.614,242.519 136.614,240.686 140.5,236C 140.167,235.667 139.833,235.333 139.5,235C 140.743,233.846 141.743,232.512 142.5,231C 146.163,230.428 149.497,229.262 152.5,227.5C 160.06,225.985 167.06,223.318 173.5,219.5C 175.167,218.833 176.833,218.167 178.5,217.5 Z"/></g>
<g><path style="opacity:1" fill="#95937f" d="M 91.5,238.5 C 92.1667,238.5 92.8333,238.5 93.5,238.5C 96.381,240.68 99.7144,241.68 103.5,241.5C 103.5,241.833 103.5,242.167 103.5,242.5C 100.751,242.274 98.0841,242.607 95.5,243.5C 94.6143,242.675 94.281,241.675 94.5,240.5C 92.8212,240.715 91.8212,240.048 91.5,238.5 Z"/></g>
<g><path style="opacity:1" fill="#b0ab92" d="M 172.5,235.5 C 171.652,237.093 170.319,238.26 168.5,239C 162.43,241.264 156.096,242.43 149.5,242.5C 149.611,241.883 149.944,241.383 150.5,241C 154.038,240.465 157.372,239.632 160.5,238.5C 164.499,237.5 168.499,236.5 172.5,235.5 Z"/></g>
<g><path style="opacity:1" fill="#aa8c4d" d="M 109.5,242.5 C 118.149,243.203 126.815,243.536 135.5,243.5C 135.5,243.833 135.5,244.167 135.5,244.5C 128.492,244.666 121.492,244.5 114.5,244C 112.618,243.802 110.952,243.302 109.5,242.5 Z"/></g>
<g><path style="opacity:1" fill="#928b73" d="M 149.5,242.5 C 145.285,244.436 140.619,245.103 135.5,244.5C 135.5,244.167 135.5,243.833 135.5,243.5C 140.181,243.331 144.848,242.998 149.5,242.5 Z"/></g>
</svg>
