<?xml version="1.0" encoding="UTF-8"?>
<!DOCTYPE svg PUBLIC "-//W3C//DTD SVG 1.1//EN" "http://www.w3.org/Graphics/SVG/1.1/DTD/svg11.dtd">
<svg xmlns="http://www.w3.org/2000/svg" version="1.1" width="256px" height="256px" style="shape-rendering:geometricPrecision; text-rendering:geometricPrecision; image-rendering:optimizeQuality; fill-rule:evenodd; clip-rule:evenodd" xmlns:xlink="http://www.w3.org/1999/xlink">
<g><path style="opacity:0.29" fill="#feb495" d="M 239.5,36.5 C 211.336,37.3323 183.003,37.8323 154.5,38C 152.942,38.21 151.609,38.71 150.5,39.5C 146.19,41.6585 142.19,44.3251 138.5,47.5C 138.369,46.7611 138.536,46.0944 139,45.5C 141.333,43.5 143.667,41.5 146,39.5C 146.483,38.552 146.649,37.552 146.5,36.5C 177.65,35.2011 208.65,35.2011 239.5,36.5 Z"/></g>
<g><path style="opacity:1" fill="#fefbfa" d="M 150.5,39.5 C 180.502,39.3334 210.502,39.5 240.5,40C 243.983,44.4453 244.483,49.2786 242,54.5C 240.184,55.3295 238.351,56.1628 236.5,57C 209.833,57.3333 183.167,57.6667 156.5,58C 155.244,58.4169 154.577,59.2502 154.5,60.5C 151.115,65.3225 149.115,70.6558 148.5,76.5C 148.5,77.5 148.5,78.5 148.5,79.5C 146.531,84.1129 144.531,88.7796 142.5,93.5C 141.662,93.8417 141.328,94.5084 141.5,95.5C 140.25,95.5774 139.417,96.244 139,97.5C 138.506,99.1341 138.34,100.801 138.5,102.5C 155.691,102.201 172.858,102.535 190,103.5C 191.326,103.755 192.326,104.422 193,105.5C 196.499,113.184 194.665,119.017 187.5,123C 167.996,123.168 148.662,123.668 129.5,124.5C 126.759,127.534 125.259,131.201 125,135.5C 123.667,136.167 122.667,137.167 122,138.5C 113.213,159.737 104.713,181.071 96.5,202.5C 93.2847,206.427 89.9513,210.26 86.5,214C 80.4149,214.861 74.4149,214.527 68.5,213C 66.5148,210.214 64.1815,207.714 61.5,205.5C 56.6011,194.373 52.4344,183.039 49,171.5C 45.7789,166.063 42.7789,160.396 40,154.5C 38.7516,146.585 36.2516,139.251 32.5,132.5C 32.6621,130.473 32.4955,128.473 32,126.5C 29.5623,122.094 27.729,117.427 26.5,112.5C 27.2329,109.92 28.2329,107.42 29.5,105C 52.1221,103.553 74.7888,103.053 97.5,103.5C 97.2962,106.518 96.9629,109.518 96.5,112.5C 96.3259,114.861 95.9926,117.194 95.5,119.5C 93.8656,120.207 92.5323,121.373 91.5,123C 78.2582,123.176 65.0915,123.676 52,124.5C 51.6905,128.071 52.8571,131.071 55.5,133.5C 57.8193,140.122 60.1527,146.789 62.5,153.5C 63.3848,155.977 64.7182,157.977 66.5,159.5C 67.1667,160.167 67.8333,160.833 68.5,161.5C 67.7331,166.112 68.8998,170.445 72,174.5C 72.0224,180.709 74.0224,186.043 78,190.5C 78.8732,190.265 79.7065,189.931 80.5,189.5C 82.912,183.265 84.912,176.932 86.5,170.5C 90.761,165.406 93.0944,159.406 93.5,152.5C 95.7604,147.858 98.5937,143.525 102,139.5C 105.169,129.7 108.336,120.033 111.5,110.5C 118.397,92.7698 125.397,74.9364 132.5,57C 134.327,53.6838 136.327,50.5172 138.5,47.5C 142.19,44.3251 146.19,41.6585 150.5,39.5 Z"/></g>
<g><path style="opacity:0.647" fill="#ea7444" d="M 240.5,36.5 C 242.167,36.5 243.833,36.5 245.5,36.5C 245.693,39.3085 246.36,41.9752 247.5,44.5C 248.5,44.5 249.5,44.5 250.5,44.5C 250.5,45.5 250.5,46.5 250.5,47.5C 248.801,47.5271 247.467,48.1938 246.5,49.5C 246.785,47.712 246.452,46.0453 245.5,44.5C 243.789,41.8043 242.122,39.1376 240.5,36.5 Z"/></g>
<g><path style="opacity:0.576" fill="#7a4331" d="M 250.5,47.5 C 250.5,49.1667 250.5,50.8333 250.5,52.5C 249.5,52.5 248.5,52.5 247.5,52.5C 247.715,54.1788 247.048,55.1788 245.5,55.5C 244.761,55.631 244.094,55.4643 243.5,55C 244.609,53.1239 245.609,51.2905 246.5,49.5C 247.467,48.1938 248.801,47.5271 250.5,47.5 Z"/></g>
<g><path style="opacity:1" fill="#fce1d6" d="M 239.5,36.5 C 239.833,36.5 240.167,36.5 240.5,36.5C 242.122,39.1376 243.789,41.8043 245.5,44.5C 246.452,46.0453 246.785,47.712 246.5,49.5C 245.609,51.2905 244.609,53.1239 243.5,55C 244.094,55.4643 244.761,55.631 245.5,55.5C 245.5,55.8333 245.5,56.1667 245.5,56.5C 243.938,56.7329 242.605,57.3995 241.5,58.5C 241.44,57.9569 241.107,57.6236 240.5,57.5C 239.205,58.0983 237.872,58.5983 236.5,59C 209.095,59.1754 181.761,59.6754 154.5,60.5C 154.577,59.2502 155.244,58.4169 156.5,58C 183.167,57.6667 209.833,57.3333 236.5,57C 238.351,56.1628 240.184,55.3295 242,54.5C 244.483,49.2786 243.983,44.4453 240.5,40C 210.502,39.5 180.502,39.3334 150.5,39.5C 151.609,38.71 152.942,38.21 154.5,38C 183.003,37.8323 211.336,37.3323 239.5,36.5 Z"/></g>
<g><path style="opacity:0.984" fill="#f2a289" d="M 241.5,58.5 C 240.194,59.4674 239.527,60.8007 239.5,62.5C 236.5,62.5 233.5,62.5 230.5,62.5C 228.833,62.5 227.167,62.5 225.5,62.5C 223.833,62.5 222.167,62.5 220.5,62.5C 219.167,62.5 217.833,62.5 216.5,62.5C 216.167,62.5 215.833,62.5 215.5,62.5C 195.663,61.1721 175.663,61.1721 155.5,62.5C 153.914,64.1727 153.247,66.1727 153.5,68.5C 152.566,69.5676 152.232,70.901 152.5,72.5C 151.167,73.8333 149.833,75.1667 148.5,76.5C 149.115,70.6558 151.115,65.3225 154.5,60.5C 181.761,59.6754 209.095,59.1754 236.5,59C 237.872,58.5983 239.205,58.0983 240.5,57.5C 241.107,57.6236 241.44,57.9569 241.5,58.5 Z"/></g>
<g><path style="opacity:1" fill="#e6c721" d="M 215.5,62.5 C 211.5,62.5 207.5,62.5 203.5,62.5C 194.833,62.5 186.167,62.5 177.5,62.5C 174.833,62.5 172.167,62.5 169.5,62.5C 163.242,62.1042 157.909,64.1042 153.5,68.5C 153.247,66.1727 153.914,64.1727 155.5,62.5C 175.663,61.1721 195.663,61.1721 215.5,62.5 Z"/></g>
<g><path style="opacity:1" fill="#f2f801" d="M 169.5,62.5 C 167.236,64.3137 164.903,66.147 162.5,68C 158.977,69.2236 155.644,70.7236 152.5,72.5C 152.232,70.901 152.566,69.5676 153.5,68.5C 157.909,64.1042 163.242,62.1042 169.5,62.5 Z"/></g>
<g><path style="opacity:1" fill="#1dd1fd" d="M 245.5,56.5 C 245.5,58.5 245.5,60.5 245.5,62.5C 232.325,67.7139 219.325,73.3806 206.5,79.5C 208.616,77.2711 210.949,75.2711 213.5,73.5C 218.767,71.7571 223.434,69.0904 227.5,65.5C 229.19,65.1436 230.19,64.1436 230.5,62.5C 233.5,62.5 236.5,62.5 239.5,62.5C 239.527,60.8007 240.194,59.4674 241.5,58.5C 242.605,57.3995 243.938,56.7329 245.5,56.5 Z"/></g>
<g><path style="opacity:1" fill="#07fe89" d="M 216.5,62.5 C 217.833,62.5 219.167,62.5 220.5,62.5C 218.326,64.0814 215.993,65.5814 213.5,67C 202.351,70.6513 191.685,75.1513 181.5,80.5C 184.388,77.4502 187.722,74.9502 191.5,73C 198.127,70.6929 204.794,68.3596 211.5,66C 213.584,65.3028 215.251,64.1361 216.5,62.5 Z"/></g>
<g><path style="opacity:1" fill="#acfd05" d="M 169.5,62.5 C 172.167,62.5 174.833,62.5 177.5,62.5C 171.509,65.3099 166.176,69.1433 161.5,74C 156.781,75.1758 152.448,77.0092 148.5,79.5C 148.5,78.5 148.5,77.5 148.5,76.5C 149.833,75.1667 151.167,73.8333 152.5,72.5C 155.644,70.7236 158.977,69.2236 162.5,68C 164.903,66.147 167.236,64.3137 169.5,62.5 Z"/></g>
<g><path style="opacity:1" fill="#1146fe" d="M 244.5,68.5 C 244.5,69.1667 244.5,69.8333 244.5,70.5C 237.769,73.6951 231.103,77.1951 224.5,81C 212.731,84.9146 201.398,89.5813 190.5,95C 188.937,95.7589 187.937,96.9256 187.5,98.5C 185.167,98.5 182.833,98.5 180.5,98.5C 180.389,97.8826 180.056,97.3826 179.5,97C 187.041,94.5647 194.374,91.5647 201.5,88C 202.5,87 203.5,86 204.5,85C 212.242,82.5306 219.908,79.8639 227.5,77C 229.754,76.3763 231.421,75.043 232.5,73C 236.41,71.2566 240.41,69.7566 244.5,68.5 Z"/></g>
<g><path style="opacity:1" fill="#09fe5d" d="M 203.5,62.5 C 207.5,62.5 211.5,62.5 215.5,62.5C 215.833,62.5 216.167,62.5 216.5,62.5C 215.251,64.1361 213.584,65.3028 211.5,66C 204.794,68.3596 198.127,70.6929 191.5,73C 187.722,74.9502 184.388,77.4502 181.5,80.5C 175.873,82.2923 170.206,83.959 164.5,85.5C 164.937,83.9256 165.937,82.7589 167.5,82C 175.888,78.4844 184.222,74.8178 192.5,71C 194.878,67.4752 198.211,65.4752 202.5,65C 203.252,64.3292 203.586,63.4959 203.5,62.5 Z"/></g>
<g><path style="opacity:1" fill="#07feac" d="M 220.5,62.5 C 222.167,62.5 223.833,62.5 225.5,62.5C 225.586,63.4959 225.252,64.3292 224.5,65C 211.6,68.6324 199.6,73.9657 188.5,81C 183.039,82.9886 177.706,85.1553 172.5,87.5C 174.665,83.9911 177.665,81.6578 181.5,80.5C 191.685,75.1513 202.351,70.6513 213.5,67C 215.993,65.5814 218.326,64.0814 220.5,62.5 Z"/></g>
<g><path style="opacity:1" fill="#10ebfb" d="M 227.5,65.5 C 223.434,69.0904 218.767,71.7571 213.5,73.5C 210.949,75.2711 208.616,77.2711 206.5,79.5C 192.619,84.7749 179.285,91.1083 166.5,98.5C 163.167,98.5 159.833,98.5 156.5,98.5C 164.27,95.1682 171.937,91.3349 179.5,87C 188.901,84.1266 197.901,80.46 206.5,76C 207.833,74.3333 209.167,72.6667 210.5,71C 216.341,69.4735 222.008,67.6402 227.5,65.5 Z"/></g>
<g><path style="opacity:1" fill="#35fe1d" d="M 177.5,62.5 C 186.167,62.5 194.833,62.5 203.5,62.5C 203.586,63.4959 203.252,64.3292 202.5,65C 198.211,65.4752 194.878,67.4752 192.5,71C 184.222,74.8178 175.888,78.4844 167.5,82C 165.937,82.7589 164.937,83.9256 164.5,85.5C 157.286,88.724 150.286,92.3907 143.5,96.5C 142.614,95.675 142.281,94.675 142.5,93.5C 144.531,88.7796 146.531,84.1129 148.5,79.5C 152.448,77.0092 156.781,75.1758 161.5,74C 166.176,69.1433 171.509,65.3099 177.5,62.5 Z"/></g>
<g><path style="opacity:1" fill="#14fed6" d="M 225.5,62.5 C 227.167,62.5 228.833,62.5 230.5,62.5C 230.19,64.1436 229.19,65.1436 227.5,65.5C 222.008,67.6402 216.341,69.4735 210.5,71C 209.167,72.6667 207.833,74.3333 206.5,76C 197.901,80.46 188.901,84.1266 179.5,87C 171.937,91.3349 164.27,95.1682 156.5,98.5C 153.5,98.5 150.5,98.5 147.5,98.5C 151.793,97.0794 155.793,94.9128 159.5,92C 163.894,90.5911 168.228,89.0911 172.5,87.5C 177.706,85.1553 183.039,82.9886 188.5,81C 199.6,73.9657 211.6,68.6324 224.5,65C 225.252,64.3292 225.586,63.4959 225.5,62.5 Z"/></g>
<g><path style="opacity:0.984" fill="#fe9264" d="M 146.5,36.5 C 146.649,37.552 146.483,38.552 146,39.5C 143.667,41.5 141.333,43.5 139,45.5C 138.536,46.0944 138.369,46.7611 138.5,47.5C 136.327,50.5172 134.327,53.6838 132.5,57C 125.397,74.9364 118.397,92.7698 111.5,110.5C 109.031,116.102 106.031,121.436 102.5,126.5C 102.167,126.5 101.833,126.5 101.5,126.5C 102.721,120.276 105.388,114.776 109.5,110C 108.978,109.439 108.645,108.772 108.5,108C 111.143,102.722 113.476,97.3889 115.5,92C 115.167,91.6667 114.833,91.3333 114.5,91C 116.618,87.7972 118.951,84.4639 121.5,81C 120.826,79.2494 120.493,77.5827 120.5,76C 124.603,71.8194 126.603,66.986 126.5,61.5C 130.05,56.9227 132.884,51.9227 135,46.5C 138.219,42.3171 142.052,38.9838 146.5,36.5 Z"/></g>
<g><path style="opacity:1" fill="#13a4fd" d="M 245.5,62.5 C 245.768,64.099 245.434,65.4324 244.5,66.5C 234.686,70.5635 224.686,74.3968 214.5,78C 210.796,80.8517 206.796,83.185 202.5,85C 192.541,87.9795 183.541,92.4795 175.5,98.5C 172.5,98.5 169.5,98.5 166.5,98.5C 179.285,91.1083 192.619,84.7749 206.5,79.5C 219.325,73.3806 232.325,67.7139 245.5,62.5 Z"/></g>
<g><path style="opacity:1" fill="#ae01fe" d="M 242.5,83.5 C 242.367,86.8865 241.367,89.8865 239.5,92.5C 231.806,94.7897 224.139,96.9564 216.5,99C 210.045,102.021 203.712,105.187 197.5,108.5C 197.5,107.833 197.167,107.5 196.5,107.5C 195.596,106.791 195.263,105.791 195.5,104.5C 199.512,103.409 203.178,101.575 206.5,99C 210.167,98 213.833,97 217.5,96C 221.898,93.1343 226.565,90.8009 231.5,89C 233.935,84.9533 237.602,83.1199 242.5,83.5 Z"/></g>
<g><path style="opacity:1" fill="#1278fe" d="M 244.5,66.5 C 244.5,67.1667 244.5,67.8333 244.5,68.5C 240.41,69.7566 236.41,71.2566 232.5,73C 231.421,75.043 229.754,76.3763 227.5,77C 219.908,79.8639 212.242,82.5306 204.5,85C 203.5,86 202.5,87 201.5,88C 194.374,91.5647 187.041,94.5647 179.5,97C 180.056,97.3826 180.389,97.8826 180.5,98.5C 178.833,98.5 177.167,98.5 175.5,98.5C 183.541,92.4795 192.541,87.9795 202.5,85C 206.796,83.185 210.796,80.8517 214.5,78C 224.686,74.3968 234.686,70.5635 244.5,66.5 Z"/></g>
<g><path style="opacity:1" fill="#3809fe" d="M 244.5,70.5 C 244.728,75.0151 244.062,79.3484 242.5,83.5C 237.602,83.1199 233.935,84.9533 231.5,89C 226.565,90.8009 221.898,93.1343 217.5,96C 213.833,97 210.167,98 206.5,99C 203.178,101.575 199.512,103.409 195.5,104.5C 193.168,102.667 190.501,101.334 187.5,100.5C 187.5,99.8333 187.5,99.1667 187.5,98.5C 187.937,96.9256 188.937,95.7589 190.5,95C 201.398,89.5813 212.731,84.9146 224.5,81C 231.103,77.1951 237.769,73.6951 244.5,70.5 Z"/></g>
<g><path style="opacity:0.988" fill="#25fd89" d="M 181.5,80.5 C 177.665,81.6578 174.665,83.9911 172.5,87.5C 168.228,89.0911 163.894,90.5911 159.5,92C 155.793,94.9128 151.793,97.0794 147.5,98.5C 145.5,98.5 143.5,98.5 141.5,98.5C 141.5,97.5 141.5,96.5 141.5,95.5C 141.328,94.5084 141.662,93.8417 142.5,93.5C 142.281,94.675 142.614,95.675 143.5,96.5C 150.286,92.3907 157.286,88.724 164.5,85.5C 170.206,83.959 175.873,82.2923 181.5,80.5 Z"/></g>
<g><path style="opacity:1" fill="#ff1fa1" d="M 238.5,97.5 C 238.975,100.082 238.308,102.082 236.5,103.5C 234.833,103.5 233.167,103.5 231.5,103.5C 228.868,102.249 226.201,101.249 223.5,100.5C 228.568,99.7973 233.568,98.7973 238.5,97.5 Z"/></g>
<g><path style="opacity:0.581" fill="#fc7d43" d="M 102.5,105.5 C 101.699,103.958 101.366,102.292 101.5,100.5C 78.1667,100.5 54.8333,100.5 31.5,100.5C 31.6107,99.8826 31.944,99.3826 32.5,99C 55.5,98.3333 78.5,98.3333 101.5,99C 103.608,101.016 103.942,103.183 102.5,105.5 Z"/></g>
<g><path style="opacity:0.549" fill="#f77647" d="M 141.5,98.5 C 143.5,98.5 145.5,98.5 147.5,98.5C 150.5,98.5 153.5,98.5 156.5,98.5C 159.833,98.5 163.167,98.5 166.5,98.5C 169.5,98.5 172.5,98.5 175.5,98.5C 177.167,98.5 178.833,98.5 180.5,98.5C 182.833,98.5 185.167,98.5 187.5,98.5C 187.5,99.1667 187.5,99.8333 187.5,100.5C 171.819,100.833 156.152,100.499 140.5,99.5C 140.624,98.8933 140.957,98.56 141.5,98.5 Z"/></g>
<g><path style="opacity:0.898" fill="#fa9e79" d="M 31.5,100.5 C 54.8333,100.5 78.1667,100.5 101.5,100.5C 101.366,102.292 101.699,103.958 102.5,105.5C 101.28,108.691 100.447,112.025 100,115.5C 99.3333,116.833 98.6667,116.833 98,115.5C 97.6667,117.167 97.3333,118.833 97,120.5C 96.5831,121.756 95.7498,122.423 94.5,122.5C 94.5569,121.391 94.8902,120.391 95.5,119.5C 95.9926,117.194 96.3259,114.861 96.5,112.5C 98.9897,109.374 100.323,105.708 100.5,101.5C 77.8309,101.333 55.1642,101.5 32.5,102C 29.2554,102.636 26.9221,104.47 25.5,107.5C 24.8328,110.977 24.1661,114.311 23.5,117.5C 22.3592,114.36 22.1925,111.027 23,107.5C 24.1223,105.58 24.9556,103.58 25.5,101.5C 27.5,101.167 29.5,100.833 31.5,100.5 Z"/></g>
<g><path style="opacity:0.978" fill="#f8b9a9" d="M 141.5,95.5 C 141.5,96.5 141.5,97.5 141.5,98.5C 140.957,98.56 140.624,98.8933 140.5,99.5C 156.152,100.499 171.819,100.833 187.5,100.5C 190.501,101.334 193.168,102.667 195.5,104.5C 195.263,105.791 195.596,106.791 196.5,107.5C 196.706,111.898 196.373,116.232 195.5,120.5C 194.596,121.209 194.263,122.209 194.5,123.5C 193.5,123.5 192.5,123.5 191.5,123.5C 170.867,124.466 150.2,124.799 129.5,124.5C 148.662,123.668 167.996,123.168 187.5,123C 194.665,119.017 196.499,113.184 193,105.5C 192.326,104.422 191.326,103.755 190,103.5C 172.858,102.535 155.691,102.201 138.5,102.5C 138.34,100.801 138.506,99.1341 139,97.5C 139.417,96.244 140.25,95.5774 141.5,95.5 Z"/></g>
<g><path style="opacity:1" fill="#fee1d5" d="M 96.5,112.5 C 96.9629,109.518 97.2962,106.518 97.5,103.5C 74.7888,103.053 52.1221,103.553 29.5,105C 28.2329,107.42 27.2329,109.92 26.5,112.5C 27.729,117.427 29.5623,122.094 32,126.5C 32.4955,128.473 32.6621,130.473 32.5,132.5C 31.4138,132.38 30.7472,131.713 30.5,130.5C 29.694,126.245 28.3606,122.245 26.5,118.5C 25.5,118.5 24.5,118.5 23.5,118.5C 23.5,118.167 23.5,117.833 23.5,117.5C 24.1661,114.311 24.8328,110.977 25.5,107.5C 26.9221,104.47 29.2554,102.636 32.5,102C 55.1642,101.5 77.8309,101.333 100.5,101.5C 100.323,105.708 98.9897,109.374 96.5,112.5 Z"/></g>
<g><path style="opacity:1" fill="#fef6f4" d="M 231.5,105.5 C 231.557,106.609 231.89,107.609 232.5,108.5C 232.665,111.518 232.498,114.518 232,117.5C 229.932,119.396 228.099,121.396 226.5,123.5C 215.216,123.292 210.882,117.625 213.5,106.5C 219.318,102.864 225.318,102.53 231.5,105.5 Z"/></g>
<g><path style="opacity:1" fill="#f20df2" d="M 239.5,92.5 C 239.371,94.2161 239.038,95.8828 238.5,97.5C 233.568,98.7973 228.568,99.7973 223.5,100.5C 223.611,99.8826 223.944,99.3826 224.5,99C 223.167,98.3333 221.833,98.3333 220.5,99C 221.833,99.6667 221.833,100.333 220.5,101C 216.558,101.469 213.558,103.303 211.5,106.5C 207.029,109.072 202.363,111.072 197.5,112.5C 197.5,111.167 197.5,109.833 197.5,108.5C 203.712,105.187 210.045,102.021 216.5,99C 224.139,96.9564 231.806,94.7897 239.5,92.5 Z"/></g>
<g><path style="opacity:0.745" fill="#fb2345" d="M 231.5,103.5 C 233.167,103.5 234.833,103.5 236.5,103.5C 236.5,104.833 236.5,106.167 236.5,107.5C 235.167,107.833 233.833,108.167 232.5,108.5C 231.89,107.609 231.557,106.609 231.5,105.5C 231.5,104.833 231.5,104.167 231.5,103.5 Z"/></g>
<g><path style="opacity:1" fill="#ff06c1" d="M 211.5,106.5 C 211.768,108.099 211.434,109.432 210.5,110.5C 209.596,111.209 209.263,112.209 209.5,113.5C 205.366,112.943 201.699,113.943 198.5,116.5C 197.571,115.311 197.238,113.978 197.5,112.5C 202.363,111.072 207.029,109.072 211.5,106.5 Z"/></g>
<g><path style="opacity:1" fill="#f7aca0" d="M 223.5,100.5 C 226.201,101.249 228.868,102.249 231.5,103.5C 231.5,104.167 231.5,104.833 231.5,105.5C 225.318,102.53 219.318,102.864 213.5,106.5C 210.882,117.625 215.216,123.292 226.5,123.5C 225.791,124.404 224.791,124.737 223.5,124.5C 220.794,124.425 218.127,124.092 215.5,123.5C 214.92,121.251 213.587,119.585 211.5,118.5C 211.567,117.041 211.234,115.708 210.5,114.5C 210.5,113.167 210.5,111.833 210.5,110.5C 211.434,109.432 211.768,108.099 211.5,106.5C 213.558,103.303 216.558,101.469 220.5,101C 221.833,100.333 221.833,99.6667 220.5,99C 221.833,98.3333 223.167,98.3333 224.5,99C 223.944,99.3826 223.611,99.8826 223.5,100.5 Z"/></g>
<g><path style="opacity:0.158" fill="#220500" d="M 235.5,112.5 C 236.5,112.5 237.5,112.5 238.5,112.5C 238.923,114.781 238.256,116.448 236.5,117.5C 235.699,115.958 235.366,114.292 235.5,112.5 Z"/></g>
<g><path style="opacity:1" fill="#ff1d85" d="M 196.5,107.5 C 197.167,107.5 197.5,107.833 197.5,108.5C 197.5,109.833 197.5,111.167 197.5,112.5C 197.238,113.978 197.571,115.311 198.5,116.5C 201.699,113.943 205.366,112.943 209.5,113.5C 209.263,112.209 209.596,111.209 210.5,110.5C 210.5,111.833 210.5,113.167 210.5,114.5C 206.84,116.522 203.173,118.688 199.5,121C 197.934,121.765 196.601,121.598 195.5,120.5C 196.373,116.232 196.706,111.898 196.5,107.5 Z"/></g>
<g><path style="opacity:0.592" fill="#fe1418" d="M 211.5,118.5 C 213.587,119.585 214.92,121.251 215.5,123.5C 210.637,123.819 205.97,123.486 201.5,122.5C 204.277,119.963 207.61,118.63 211.5,118.5 Z"/></g>
<g><path style="opacity:0.564" fill="#fd1258" d="M 210.5,114.5 C 211.234,115.708 211.567,117.041 211.5,118.5C 207.61,118.63 204.277,119.963 201.5,122.5C 199.236,123.219 196.903,123.552 194.5,123.5C 194.263,122.209 194.596,121.209 195.5,120.5C 196.601,121.598 197.934,121.765 199.5,121C 203.173,118.688 206.84,116.522 210.5,114.5 Z"/></g>
<g><path style="opacity:0.353" fill="#dc7f5f" d="M 236.5,107.5 C 235.962,109.117 235.629,110.784 235.5,112.5C 235.366,114.292 235.699,115.958 236.5,117.5C 236.5,118.833 235.833,119.5 234.5,119.5C 234.167,118.167 233.833,118.167 233.5,119.5C 231.627,122.603 228.961,124.603 225.5,125.5C 225.5,126.5 225.5,127.5 225.5,128.5C 224.833,128.5 224.167,128.5 223.5,128.5C 223.5,127.167 223.5,125.833 223.5,124.5C 224.791,124.737 225.791,124.404 226.5,123.5C 228.099,121.396 229.932,119.396 232,117.5C 232.498,114.518 232.665,111.518 232.5,108.5C 233.833,108.167 235.167,107.833 236.5,107.5 Z"/></g>
<g><path style="opacity:1" fill="#eeb399" d="M 95.5,119.5 C 94.8902,120.391 94.5569,121.391 94.5,122.5C 94.5,123.167 94.5,123.833 94.5,124.5C 93.5,124.5 92.5,124.5 91.5,124.5C 78.8158,124.168 66.1492,124.501 53.5,125.5C 53.6236,126.107 53.9569,126.44 54.5,126.5C 54.2322,128.099 54.5655,129.432 55.5,130.5C 56.382,133.683 57.7153,136.683 59.5,139.5C 59.3284,140.492 59.6618,141.158 60.5,141.5C 60.8308,143.322 61.4975,144.989 62.5,146.5C 62.2627,147.791 62.596,148.791 63.5,149.5C 63.2322,151.099 63.5655,152.432 64.5,153.5C 65.1667,154.167 65.8333,154.833 66.5,155.5C 66.5,156.833 66.5,158.167 66.5,159.5C 64.7182,157.977 63.3848,155.977 62.5,153.5C 60.1527,146.789 57.8193,140.122 55.5,133.5C 52.8571,131.071 51.6905,128.071 52,124.5C 65.0915,123.676 78.2582,123.176 91.5,123C 92.5323,121.373 93.8656,120.207 95.5,119.5 Z"/></g>
<g><path style="opacity:0.863" fill="#5e2d1f" d="M 215.5,123.5 C 218.127,124.092 220.794,124.425 223.5,124.5C 223.5,125.833 223.5,127.167 223.5,128.5C 221.833,128.5 220.167,128.5 218.5,128.5C 218.5,127.5 218.5,126.5 218.5,125.5C 216.821,125.715 215.821,125.048 215.5,123.5 Z"/></g>
<g><path style="opacity:0.533" fill="#e7683c" d="M 129.5,126.5 C 149.66,125.503 169.993,125.17 190.5,125.5C 190.5,126.5 190.5,127.5 190.5,128.5C 189.5,128.5 188.5,128.5 187.5,128.5C 168.529,126.512 149.196,125.846 129.5,126.5 Z"/></g>
<g><path style="opacity:0.031" fill="#f1540a" d="M 233.5,119.5 C 233.833,119.5 234.167,119.5 234.5,119.5C 233.463,124.537 230.463,127.537 225.5,128.5C 225.5,127.5 225.5,126.5 225.5,125.5C 228.961,124.603 231.627,122.603 233.5,119.5 Z"/></g>
<g><path style="opacity:0.076" fill="#f25600" d="M 129.5,126.5 C 149.196,125.846 168.529,126.512 187.5,128.5C 168.5,128.5 149.5,128.5 130.5,128.5C 130.657,129.873 130.49,131.207 130,132.5C 129.23,133.598 128.397,133.598 127.5,132.5C 128.363,130.579 129.029,128.579 129.5,126.5 Z"/></g>
<g><path style="opacity:1" fill="#fcd1c6" d="M 111.5,110.5 C 108.336,120.033 105.169,129.7 102,139.5C 98.5937,143.525 95.7604,147.858 93.5,152.5C 93.5792,151.07 93.2458,149.736 92.5,148.5C 93.325,147.614 94.325,147.281 95.5,147.5C 95.595,145.214 96.2616,143.214 97.5,141.5C 98.531,139.039 99.1977,136.373 99.5,133.5C 101.536,131.794 102.536,129.461 102.5,126.5C 106.031,121.436 109.031,116.102 111.5,110.5 Z"/></g>
<g><path style="opacity:0.048" fill="#f45b16" d="M 118.5,155.5 C 118.958,158.394 118.291,160.894 116.5,163C 117.412,164.625 116.745,165.459 114.5,165.5C 114.927,162.624 115.594,159.791 116.5,157C 116.836,155.97 117.503,155.47 118.5,155.5 Z"/></g>
<g><path style="opacity:0.733" fill="#fa9a74" d="M 23.5,118.5 C 24.5,118.5 25.5,118.5 26.5,118.5C 28.3606,122.245 29.694,126.245 30.5,130.5C 30.7472,131.713 31.4138,132.38 32.5,132.5C 36.2516,139.251 38.7516,146.585 40,154.5C 42.7789,160.396 45.7789,166.063 49,171.5C 52.4344,183.039 56.6011,194.373 61.5,205.5C 64.1815,207.714 66.5148,210.214 68.5,213C 74.4149,214.527 80.4149,214.861 86.5,214C 89.9513,210.26 93.2847,206.427 96.5,202.5C 104.713,181.071 113.213,159.737 122,138.5C 122.667,137.167 123.667,136.167 125,135.5C 125.259,131.201 126.759,127.534 129.5,124.5C 150.2,124.799 170.867,124.466 191.5,123.5C 191.672,124.492 191.338,125.158 190.5,125.5C 169.993,125.17 149.66,125.503 129.5,126.5C 129.029,128.579 128.363,130.579 127.5,132.5C 125.453,136.907 124.453,141.573 124.5,146.5C 123.5,146.5 122.5,146.5 121.5,146.5C 121.014,149.711 120.014,152.711 118.5,155.5C 117.503,155.47 116.836,155.97 116.5,157C 115.594,159.791 114.927,162.624 114.5,165.5C 112.853,168.921 112.187,172.587 112.5,176.5C 109.795,176.38 109.128,177.38 110.5,179.5C 110.154,180.696 109.654,180.696 109,179.5C 108.215,181.249 107.382,182.916 106.5,184.5C 105.503,184.47 104.836,184.97 104.5,186C 103.767,188.835 103.1,191.668 102.5,194.5C 101.047,197.986 100.381,201.653 100.5,205.5C 99.5,205.5 98.5,205.5 97.5,205.5C 95.8701,208.995 94.2034,212.495 92.5,216C 88.9974,216.377 85.6641,217.21 82.5,218.5C 79.9387,217.233 77.272,217.233 74.5,218.5C 65.5401,216.705 60.2068,211.371 58.5,202.5C 57.5,202.5 56.5,202.5 55.5,202.5C 55.4409,197.601 54.4409,192.934 52.5,188.5C 51.5,188.5 50.5,188.5 49.5,188.5C 49.5557,183.254 48.5557,178.254 46.5,173.5C 45.5,173.5 44.5,173.5 43.5,173.5C 43.4208,172.07 43.7542,170.736 44.5,169.5C 42.4243,165.429 40.2576,161.429 38,157.5C 37.4503,152.634 36.2836,147.968 34.5,143.5C 32.0576,143.646 31.3909,142.813 32.5,141C 30.5554,136.373 28.3887,131.873 26,127.5C 25.0911,124.487 24.2578,121.487 23.5,118.5 Z"/></g>
<g><path style="opacity:1" fill="#f611f5" d="M 87.5,162.5 C 87.7678,164.099 87.4345,165.432 86.5,166.5C 82.5849,168.868 78.4182,170.868 74,172.5C 73.7216,171.584 73.2216,170.918 72.5,170.5C 71.8333,170.5 71.5,170.167 71.5,169.5C 73.9366,169.114 75.9366,167.947 77.5,166C 81.4056,166.152 84.7389,164.985 87.5,162.5 Z"/></g>
<g><path style="opacity:0.831" fill="#fbb1a5" d="M 92.5,152.5 C 92.8333,152.5 93.1667,152.5 93.5,152.5C 93.0944,159.406 90.761,165.406 86.5,170.5C 86.5,169.167 86.5,167.833 86.5,166.5C 87.4345,165.432 87.7678,164.099 87.5,162.5C 89.5837,159.947 90.917,156.947 91.5,153.5C 91.5,152.833 91.8333,152.5 92.5,152.5 Z"/></g>
<g><path style="opacity:1" fill="#a607fd" d="M 91.5,153.5 C 90.917,156.947 89.5837,159.947 87.5,162.5C 84.7389,164.985 81.4056,166.152 77.5,166C 75.9366,167.947 73.9366,169.114 71.5,169.5C 70.2804,167.718 69.6138,165.718 69.5,163.5C 70.1174,163.611 70.6174,163.944 71,164.5C 77.9445,160.918 84.7778,157.251 91.5,153.5 Z"/></g>
<g><path style="opacity:1" fill="#3206fe" d="M 92.5,152.5 C 91.8333,152.5 91.5,152.833 91.5,153.5C 84.7778,157.251 77.9445,160.918 71,164.5C 70.6174,163.944 70.1174,163.611 69.5,163.5C 69.1667,162.833 68.8333,162.167 68.5,161.5C 67.7758,159.269 67.7758,156.769 68.5,154C 74.7663,151.865 80.7663,149.199 86.5,146C 88.1124,145.28 89.6124,145.446 91,146.5C 91.5046,148.518 92.0046,150.518 92.5,152.5 Z"/></g>
<g><path style="opacity:1" fill="#3b42fa" d="M 97.5,141.5 C 96.2616,143.214 95.595,145.214 95.5,147.5C 94.325,147.281 93.325,147.614 92.5,148.5C 93.2458,149.736 93.5792,151.07 93.5,152.5C 93.1667,152.5 92.8333,152.5 92.5,152.5C 92.0046,150.518 91.5046,148.518 91,146.5C 89.6124,145.446 88.1124,145.28 86.5,146C 80.7663,149.199 74.7663,151.865 68.5,154C 67.7758,156.769 67.7758,159.269 68.5,161.5C 67.8333,160.833 67.1667,160.167 66.5,159.5C 66.5,158.167 66.5,156.833 66.5,155.5C 66.4142,154.504 66.7476,153.671 67.5,153C 70.1927,152.657 72.1927,151.324 73.5,149C 81.4144,145.709 89.081,141.876 96.5,137.5C 97.4287,138.689 97.762,140.022 97.5,141.5 Z"/></g>
<g><path style="opacity:1" fill="#23c3fd" d="M 99.5,126.5 C 100.167,126.5 100.833,126.5 101.5,126.5C 101.833,126.5 102.167,126.5 102.5,126.5C 102.536,129.461 101.536,131.794 99.5,133.5C 97.0672,133.273 95.4006,134.273 94.5,136.5C 92.0733,136.523 89.74,137.023 87.5,138C 79.3853,141.84 71.3853,145.673 63.5,149.5C 62.596,148.791 62.2627,147.791 62.5,146.5C 65.8145,145.336 69.1478,144.17 72.5,143C 77.6254,139.585 82.6254,136.085 87.5,132.5C 92.148,131.682 96.148,129.682 99.5,126.5 Z"/></g>
<g><path style="opacity:1" fill="#2f74fb" d="M 99.5,133.5 C 99.1977,136.373 98.531,139.039 97.5,141.5C 97.762,140.022 97.4287,138.689 96.5,137.5C 89.081,141.876 81.4144,145.709 73.5,149C 72.1927,151.324 70.1927,152.657 67.5,153C 66.7476,153.671 66.4142,154.504 66.5,155.5C 65.8333,154.833 65.1667,154.167 64.5,153.5C 64.281,152.325 64.6143,151.325 65.5,150.5C 75.5987,146.573 85.2654,141.906 94.5,136.5C 95.4006,134.273 97.0672,133.273 99.5,133.5 Z"/></g>
<g><path style="opacity:1" fill="#1d94fd" d="M 94.5,136.5 C 85.2654,141.906 75.5987,146.573 65.5,150.5C 64.6143,151.325 64.281,152.325 64.5,153.5C 63.5655,152.432 63.2322,151.099 63.5,149.5C 71.3853,145.673 79.3853,141.84 87.5,138C 89.74,137.023 92.0733,136.523 94.5,136.5 Z"/></g>
<g><path style="opacity:1" fill="#1beffa" d="M 87.5,132.5 C 82.6254,136.085 77.6254,139.585 72.5,143C 69.1478,144.17 65.8145,145.336 62.5,146.5C 61.4975,144.989 60.8308,143.322 60.5,141.5C 60.8333,141.5 61.1667,141.5 61.5,141.5C 61.3691,142.376 61.7025,143.043 62.5,143.5C 71.2551,140.619 79.5884,136.952 87.5,132.5 Z"/></g>
<g><path style="opacity:1" fill="#24fce3" d="M 91.5,124.5 C 92.5,124.5 93.5,124.5 94.5,124.5C 96.0109,125.502 97.6776,126.169 99.5,126.5C 96.148,129.682 92.148,131.682 87.5,132.5C 79.5884,136.952 71.2551,140.619 62.5,143.5C 61.7025,143.043 61.3691,142.376 61.5,141.5C 71.3343,139.172 80.001,134.672 87.5,128C 86.9056,127.536 86.2389,127.369 85.5,127.5C 85.5,127.167 85.5,126.833 85.5,126.5C 88.0821,126.975 90.0821,126.308 91.5,124.5 Z"/></g>
<g><path style="opacity:1" fill="#11feab" d="M 77.5,127.5 C 80.1667,127.5 82.8333,127.5 85.5,127.5C 86.2389,127.369 86.9056,127.536 87.5,128C 80.001,134.672 71.3343,139.172 61.5,141.5C 61.1667,141.5 60.8333,141.5 60.5,141.5C 59.6618,141.158 59.3284,140.492 59.5,139.5C 62.9608,138.269 66.2941,136.769 69.5,135C 71.9666,132.27 74.6333,129.77 77.5,127.5 Z"/></g>
<g><path style="opacity:1" fill="#1ffe54" d="M 77.5,127.5 C 74.6333,129.77 71.9666,132.27 69.5,135C 66.2941,136.769 62.9608,138.269 59.5,139.5C 57.7153,136.683 56.382,133.683 55.5,130.5C 55.5,129.5 55.5,128.5 55.5,127.5C 62.8333,127.5 70.1667,127.5 77.5,127.5 Z"/></g>
<g><path style="opacity:0.435" fill="#9fd437" d="M 54.5,126.5 C 64.8333,126.5 75.1667,126.5 85.5,126.5C 85.5,126.833 85.5,127.167 85.5,127.5C 82.8333,127.5 80.1667,127.5 77.5,127.5C 70.1667,127.5 62.8333,127.5 55.5,127.5C 55.5,128.5 55.5,129.5 55.5,130.5C 54.5655,129.432 54.2322,128.099 54.5,126.5 Z"/></g>
<g><path style="opacity:0.518" fill="#f57951" d="M 91.5,124.5 C 90.0821,126.308 88.0821,126.975 85.5,126.5C 75.1667,126.5 64.8333,126.5 54.5,126.5C 53.9569,126.44 53.6236,126.107 53.5,125.5C 66.1492,124.501 78.8158,124.168 91.5,124.5 Z"/></g>
<g><path style="opacity:1" fill="#ff1ebf" d="M 86.5,166.5 C 86.5,167.833 86.5,169.167 86.5,170.5C 85.8333,170.5 85.1667,170.5 84.5,170.5C 81.9614,174.111 78.628,175.445 74.5,174.5C 72.8958,173.713 72.2291,172.38 72.5,170.5C 73.2216,170.918 73.7216,171.584 74,172.5C 78.4182,170.868 82.5849,168.868 86.5,166.5 Z"/></g>
<g><path style="opacity:1" fill="#fdc7ba" d="M 68.5,161.5 C 68.8333,162.167 69.1667,162.833 69.5,163.5C 69.6138,165.718 70.2804,167.718 71.5,169.5C 71.5,170.167 71.8333,170.5 72.5,170.5C 72.2291,172.38 72.8958,173.713 74.5,174.5C 74.2322,176.099 74.5655,177.432 75.5,178.5C 75.954,181.14 77.1207,183.473 79,185.5C 80.1825,182.474 81.3492,179.474 82.5,176.5C 83.7384,174.786 84.405,172.786 84.5,170.5C 85.1667,170.5 85.8333,170.5 86.5,170.5C 84.912,176.932 82.912,183.265 80.5,189.5C 79.7065,189.931 78.8732,190.265 78,190.5C 74.0224,186.043 72.0224,180.709 72,174.5C 68.8998,170.445 67.7331,166.112 68.5,161.5 Z"/></g>
<g><path style="opacity:1" fill="#ff3342" d="M 82.5,176.5 C 81.3492,179.474 80.1825,182.474 79,185.5C 77.1207,183.473 75.954,181.14 75.5,178.5C 76.1499,178.804 76.8165,179.137 77.5,179.5C 78.9397,178.048 80.6064,177.048 82.5,176.5 Z"/></g>
<g><path style="opacity:1" fill="#ff1d80" d="M 84.5,170.5 C 84.405,172.786 83.7384,174.786 82.5,176.5C 80.6064,177.048 78.9397,178.048 77.5,179.5C 76.8165,179.137 76.1499,178.804 75.5,178.5C 74.5655,177.432 74.2322,176.099 74.5,174.5C 78.628,175.445 81.9614,174.111 84.5,170.5 Z"/></g>
<g><path style="opacity:0.038" fill="#f45b19" d="M 106.5,184.5 C 106.958,187.394 106.291,189.894 104.5,192C 105.609,193.813 104.942,194.646 102.5,194.5C 103.1,191.668 103.767,188.835 104.5,186C 104.836,184.97 105.503,184.47 106.5,184.5 Z"/></g>
<g><path style="opacity:0.079" fill="#f45d12" d="M 82.5,218.5 C 81.9862,220.439 80.6528,221.439 78.5,221.5C 76.3472,221.439 75.0138,220.439 74.5,218.5C 77.272,217.233 79.9387,217.233 82.5,218.5 Z"/></g>
</svg>
